  0
SECTION
  2
HEADER
  9
$ACADVER
  1
AC1009
  9
$DWGCODEPAGE
  3
ansi_1252
  9
$INSBASE
 10
0.0
 20
0.0
 30
0.0
  9
$EXTMIN
 10
0.0
 20
0.0
 30
0.0
  9
$EXTMAX
 10
210.0
 20
297.0
 30
0.0
  9
$LIMMIN
 10
0.0
 20
0.0
  9
$LIMMAX
 10
210.0
 20
297.0
  9
$ORTHOMODE
 70
     0
  9
$REGENMODE
 70
     1
  9
$FILLMODE
 70
     1
  9
$QTEXTMODE
 70
     0
  9
$MIRRTEXT
 70
     1
  9
$DRAGMODE
 70
     2
  9
$LTSCALE
 40
1.0
  9
$OSMODE
 70
    37
  9
$ATTMODE
 70
     1
  9
$TEXTSIZE
 40
3.5
  9
$TRACEWID
 40
1.0
  9
$TEXTSTYLE
  7
STANDARD
  9
$CLAYER
  8
0
  9
$CELTYPE
  6
BYLAYER
  9
$CECOLOR
 62
   256
  9
$DIMSCALE
 40
1.0
  9
$DIMASZ
 40
3.302
  9
$DIMEXO
 40
1.0
  9
$DIMDLI
 40
3.75
  9
$DIMRND
 40
0.0
  9
$DIMDLE
 40
0.0
  9
$DIMEXE
 40
1.0
  9
$DIMTP
 40
0.0
  9
$DIMTM
 40
0.0
  9
$DIMTXT
 40
3.5
  9
$DIMCEN
 40
2.5
  9
$DIMTSZ
 40
0.0
  9
$DIMTOL
 70
     0
  9
$DIMLIM
 70
     0
  9
$DIMTIH
 70
     1
  9
$DIMTOH
 70
     1
  9
$DIMSE1
 70
     0
  9
$DIMSE2
 70
     0
  9
$DIMTAD
 70
     1
  9
$DIMZIN
 70
     0
  9
$DIMBLK
  1

  9
$DIMASO
 70
     1
  9
$DIMSHO
 70
     1
  9
$DIMPOST
  1

  9
$DIMAPOST
  1

  9
$DIMALT
 70
     0
  9
$DIMALTD
 70
     3
  9
$DIMALTF
 40
0.0393700787
  9
$DIMLFAC
 40
2.0
  9
$DIMTOFL
 70
     1
  9
$DIMTVP
 40
0.0
  9
$DIMTIX
 70
     0
  9
$DIMSOXD
 70
     0
  9
$DIMSAH
 70
     0
  9
$DIMBLK1
  1

  9
$DIMBLK2
  1

  9
$DIMSTYLE
  2
ISO-25
  9
$DIMCLRD
 70
     0
  9
$DIMCLRE
 70
     0
  9
$DIMCLRT
 70
     0
  9
$DIMTFAC
 40
1.0
  9
$DIMGAP
 40
1.524
  9
$LUNITS
 70
     2
  9
$LUPREC
 70
     2
  9
$SKETCHINC
 40
1.0
  9
$FILLETRAD
 40
10.0
  9
$AUNITS
 70
     0
  9
$AUPREC
 70
     2
  9
$MENU
  1
.
  9
$ELEVATION
 40
0.0
  9
$PELEVATION
 40
0.0
  9
$THICKNESS
 40
0.0
  9
$LIMCHECK
 70
     0
  9
$CHAMFERA
 40
10.0
  9
$CHAMFERB
 40
10.0
  9
$SKPOLY
 70
     0
  9
$TDCREATE
 40
2456434.501811991
  9
$TDUPDATE
 40
2456434.501812164
  9
$TDINDWG
 40
0.0000000116
  9
$TDUSRTIMER
 40
0.0000000116
  9
$USRTIMER
 70
     1
  9
$ANGBASE
 50
0.0
  9
$ANGDIR
 70
     0
  9
$PDMODE
 70
     0
  9
$PDSIZE
 40
-1.0
  9
$PLINEWID
 40
0.0
  9
$COORDS
 70
     1
  9
$SPLFRAME
 70
     0
  9
$SPLINETYPE
 70
     6
  9
$SPLINESEGS
 70
     8
  9
$ATTDIA
 70
     0
  9
$ATTREQ
 70
     1
  9
$HANDLING
 70
     1
  9
$HANDSEED
  5
4FD
  9
$SURFTAB1
 70
     6
  9
$SURFTAB2
 70
     6
  9
$SURFTYPE
 70
     6
  9
$SURFU
 70
     6
  9
$SURFV
 70
     6
  9
$UCSNAME
  2

  9
$UCSORG
 10
0.0
 20
0.0
 30
0.0
  9
$UCSXDIR
 10
1.0
 20
0.0
 30
0.0
  9
$UCSYDIR
 10
0.0
 20
1.0
 30
0.0
  9
$PUCSNAME
  2

  9
$PUCSORG
 10
0.0
 20
0.0
 30
0.0
  9
$PUCSXDIR
 10
1.0
 20
0.0
 30
0.0
  9
$PUCSYDIR
 10
0.0
 20
1.0
 30
0.0
  9
$USERI1
 70
     0
  9
$USERI2
 70
     0
  9
$USERI3
 70
     0
  9
$USERI4
 70
     0
  9
$USERI5
 70
     0
  9
$USERR1
 40
0.0
  9
$USERR2
 40
0.0
  9
$USERR3
 40
0.0
  9
$USERR4
 40
0.0
  9
$USERR5
 40
0.0
  9
$WORLDVIEW
 70
     1
  9
$SHADEDGE
 70
     3
  9
$SHADEDIF
 70
    70
  9
$TILEMODE
 70
     1
  9
$MAXACTVP
 70
    64
  9
$PLIMCHECK
 70
     0
  9
$PEXTMIN
 10
1.0000000000E+20
 20
1.0000000000E+20
 30
1.0000000000E+20
  9
$PEXTMAX
 10
-1.0000000000E+20
 20
-1.0000000000E+20
 30
-1.0000000000E+20
  9
$PLIMMIN
 10
0.0
 20
0.0
  9
$PLIMMAX
 10
420.0
 20
297.0
  9
$UNITMODE
 70
     0
  9
$VISRETAIN
 70
     1
  9
$PLINEGEN
 70
     0
  9
$PSLTSCALE
 70
     1
  0
ENDSEC
  0
SECTION
  2
TABLES
  0
TABLE
  2
VPORT
 70
     1
  0
VPORT
  2
*ACTIVE
 70
     0
 10
0.0
 20
0.0
 11
1.0
 21
1.0
 12
105.0
 22
148.5
 13
0.0
 23
0.0
 14
10.0
 24
10.0
 15
10.0
 25
10.0
 16
0.0
 26
0.0
 36
1.0
 17
0.0
 27
0.0
 37
0.0
 40
297.0
 41
0.7070707071
 42
50.0
 43
0.0
 44
0.0
 50
0.0
 51
0.0
 71
     0
 72
  2000
 73
     1
 74
     3
 75
     0
 76
     0
 77
     0
 78
     0
  0
ENDTAB
  0
TABLE
  2
LTYPE
 70
     6
  0
LTYPE
  2
CONTINUOUS
 70
     0
  3
Solid line
 72
    65
 73
     0
 40
0.0
  0
LTYPE
  2
HIDDEN
 70
     0
  3
Hidden __ __ __ __ __ __ __ __ __ __ __ __ __ __
 72
    65
 73
     2
 40
1.905
 49
1.27
 49
-0.635
  0
LTYPE
  2
PHANTOM
 70
     0
  3
Phantom ______  __  __  ______  __  __  ______
 72
    65
 73
     6
 40
12.7
 49
6.35
 49
-1.27
 49
1.27
 49
-1.27
 49
1.27
 49
-1.27
  0
LTYPE
  2
CENTER
 70
     0
  3
Center ____ _ ____ _ ____ _ ____ _ ____ _ ____
 72
    65
 73
     4
 40
10.16
 49
6.35
 49
-1.27
 49
1.27
 49
-1.27
  0
LTYPE
  2
CENTERX2
 70
     0
  3
Center (2x) ________  __  ________  __  _____
 72
    65
 73
     4
 40
20.32
 49
12.7
 49
-2.54
 49
2.54
 49
-2.54
  0
LTYPE
  2
DOT2
 70
     0
  3
Dot (.5x) ........................................
 72
    65
 73
     2
 40
0.635
 49
0.0
 49
-0.635
  0
ENDTAB
  0
TABLE
  2
LAYER
 70
     1
  0
LAYER
  2
0
 70
     0
 62
     7
  6
CONTINUOUS
  0
ENDTAB
  0
TABLE
  2
STYLE
 70
     1
  0
STYLE
  2
STANDARD
 70
     0
 40
0.0
 41
1.0
 50
0.0
 71
     0
 42
3.5
  3
txt
  4

  0
ENDTAB
  0
TABLE
  2
VIEW
 70
     0
  0
ENDTAB
  0
TABLE
  2
UCS
 70
     0
  0
ENDTAB
  0
TABLE
  2
APPID
 70
     1
  0
APPID
  2
ACAD
 70
     0
  0
ENDTAB
  0
TABLE
  2
DIMSTYLE
 70
     1
  0
DIMSTYLE
  2
ISO-25
 70
     0
  3

  4

  5

  6

  7

 40
1.0
 41
2.5
 42
0.625
 43
3.75
 44
1.25
 45
0.0
 46
0.0
 47
0.0
 48
0.0
140
2.5
141
2.5
142
0.0
143
0.0393700787
144
1.0
145
0.0
146
1.0
147
0.625
 71
     0
 72
     0
 73
     0
 74
     0
 75
     0
 76
     0
 77
     1
 78
     8
170
     0
171
     3
172
     1
173
     0
174
     0
175
     0
176
     0
177
     0
178
     0
  0
ENDTAB
  0
ENDSEC
  0
SECTION
  2
BLOCKS
  0
BLOCK
  8
0
  2
$MODEL_SPACE
 70
     0
 10
0.0
 20
0.0
 30
0.0
  3
$MODEL_SPACE
  1

  0
ENDBLK
  5
21
  8
0
  0
BLOCK
 67
     1
  8
0
  2
$PAPER_SPACE
 70
     0
 10
0.0
 20
0.0
 30
0.0
  3
$PAPER_SPACE
  1

  0
ENDBLK
  5
1D
 67
     1
  8
0
  0
ENDSEC
  0
SECTION
  2
ENTITIES
  0
LINE
  5
44
  8
0
  6
CONTINUOUS
 62
     7
 10
105.1276028113
 20
227.3533784022
 30
0.0
 11
106.2222019484
 21
226.4383407006
 31
0.0
  0
LINE
  5
45
  8
0
  6
CONTINUOUS
 62
     7
 10
108.7242569691
 20
226.4493829894
 30
0.0
 11
109.8082165373
 21
227.3739462204
 31
0.0
  0
LINE
  5
46
  8
0
  6
CONTINUOUS
 62
     7
 10
106.0966315412
 20
226.5433121489
 30
0.0
 11
106.1703651429
 21
216.3669375585
 31
0.0
  0
LINE
  5
47
  8
0
  6
CONTINUOUS
 62
     7
 10
108.8907992539
 20
216.3795104632
 30
0.0
 11
108.8486117866
 21
226.5554514214
 31
0.0
  0
LINE
  5
48
  8
0
  6
CONTINUOUS
 62
     7
 10
106.2162390975
 20
216.2266040556
 30
0.0
 11
107.4988414621
 21
214.2788090112
 31
0.0
  0
LINE
  5
49
  8
0
  6
CONTINUOUS
 62
     7
 10
107.5862551265
 20
214.2792167945
 30
0.0
 11
108.8465311941
 21
216.2387680034
 31
0.0
  0
POLYLINE
  5
4A
  8
0
  6
CONTINUOUS
 62
     7
 66
     1
 10
0.0
 20
0.0
 30
0.0
  0
VERTEX
  5
11C
  8
0
  6
CONTINUOUS
 62
     7
 10
122.769716547
 20
201.9132137511
 30
0.0
  0
VERTEX
  5
11D
  8
0
  6
CONTINUOUS
 62
     7
 10
122.7788132703
 20
202.0415306306
 30
0.0
  0
VERTEX
  5
11E
  8
0
  6
CONTINUOUS
 62
     7
 10
122.7104368285
 20
202.8233298106
 30
0.0
  0
VERTEX
  5
11F
  8
0
  6
CONTINUOUS
 62
     7
 10
122.5259828788
 20
203.5757134544
 30
0.0
  0
VERTEX
  5
120
  8
0
  6
CONTINUOUS
 62
     7
 10
122.2332489598
 20
204.2943404446
 30
0.0
  0
VERTEX
  5
121
  8
0
  6
CONTINUOUS
 62
     7
 10
121.8358398429
 20
204.9799601777
 30
0.0
  0
VERTEX
  5
122
  8
0
  6
CONTINUOUS
 62
     7
 10
121.3323991454
 20
205.6350742172
 30
0.0
  0
VERTEX
  5
123
  8
0
  6
CONTINUOUS
 62
     7
 10
120.7174149158
 20
206.2616728151
 30
0.0
  0
VERTEX
  5
124
  8
0
  6
CONTINUOUS
 62
     7
 10
119.9851977126
 20
206.8581955784
 30
0.0
  0
VERTEX
  5
125
  8
0
  6
CONTINUOUS
 62
     7
 10
119.1368802792
 20
207.4175871772
 30
0.0
  0
VERTEX
  5
126
  8
0
  6
CONTINUOUS
 62
     7
 10
118.1848047941
 20
207.9295154923
 30
0.0
  0
VERTEX
  5
127
  8
0
  6
CONTINUOUS
 62
     7
 10
117.1499645864
 20
208.3850620249
 30
0.0
  0
VERTEX
  5
128
  8
0
  6
CONTINUOUS
 62
     7
 10
116.0503340415
 20
208.7813275694
 30
0.0
  0
VERTEX
  5
129
  8
0
  6
CONTINUOUS
 62
     7
 10
114.8969279141
 20
209.1194321848
 30
0.0
  0
VERTEX
  5
12A
  8
0
  6
CONTINUOUS
 62
     7
 10
113.6982821618
 20
209.4009359143
 30
0.0
  0
VERTEX
  5
12B
  8
0
  6
CONTINUOUS
 62
     7
 10
112.4620526423
 20
209.6270554682
 30
0.0
  0
VERTEX
  5
12C
  8
0
  6
CONTINUOUS
 62
     7
 10
111.1958218065
 20
209.7985580891
 30
0.0
  0
VERTEX
  5
12D
  8
0
  6
CONTINUOUS
 62
     7
 10
109.9073948419
 20
209.9158738076
 30
0.0
  0
VERTEX
  5
12E
  8
0
  6
CONTINUOUS
 62
     7
 10
108.6048491462
 20
209.9792342335
 30
0.0
  0
VERTEX
  5
12F
  8
0
  6
CONTINUOUS
 62
     7
 10
107.2964757091
 20
209.988779702
 30
0.0
  0
VERTEX
  5
130
  8
0
  6
CONTINUOUS
 62
     7
 10
105.99067502
 20
209.944622772
 30
0.0
  0
VERTEX
  5
131
  8
0
  6
CONTINUOUS
 62
     7
 10
104.6962504904
 20
209.8469079355
 30
0.0
  0
VERTEX
  5
132
  8
0
  6
CONTINUOUS
 62
     7
 10
103.4216113662
 20
209.6957840928
 30
0.0
  0
VERTEX
  5
133
  8
0
  6
CONTINUOUS
 62
     7
 10
102.1747221154
 20
209.4912974297
 30
0.0
  0
VERTEX
  5
134
  8
0
  6
CONTINUOUS
 62
     7
 10
100.9631532987
 20
209.2332649145
 30
0.0
  0
VERTEX
  5
135
  8
0
  6
CONTINUOUS
 62
     7
 10
99.7939810212
 20
208.921067899
 30
0.0
  0
VERTEX
  5
136
  8
0
  6
CONTINUOUS
 62
     7
 10
98.6737526535
 20
208.5533468022
 30
0.0
  0
VERTEX
  5
137
  8
0
  6
CONTINUOUS
 62
     7
 10
97.608616998
 20
208.1275887788
 30
0.0
  0
VERTEX
  5
138
  8
0
  6
CONTINUOUS
 62
     7
 10
96.6048371741
 20
207.6396784124
 30
0.0
  0
VERTEX
  5
139
  8
0
  6
CONTINUOUS
 62
     7
 10
95.6701151772
 20
207.0837603089
 30
0.0
  0
VERTEX
  5
13A
  8
0
  6
CONTINUOUS
 62
     7
 10
94.8162838509
 20
206.4534953471
 30
0.0
  0
VERTEX
  5
13B
  8
0
  6
CONTINUOUS
 62
     7
 10
94.1410408027
 20
205.8291208837
 30
0.0
  0
VERTEX
  5
13C
  8
0
  6
CONTINUOUS
 62
     7
 10
93.581056888
 20
205.173632094
 30
0.0
  0
VERTEX
  5
13D
  8
0
  6
CONTINUOUS
 62
     7
 10
93.1353013349
 20
204.4931364965
 30
0.0
  0
VERTEX
  5
13E
  8
0
  6
CONTINUOUS
 62
     7
 10
92.8000486084
 20
203.790328453
 30
0.0
  0
VERTEX
  5
13F
  8
0
  6
CONTINUOUS
 62
     7
 10
92.5732978076
 20
203.0679880825
 30
0.0
  0
VERTEX
  5
140
  8
0
  6
CONTINUOUS
 62
     7
 10
92.4497129147
 20
202.260590513
 30
0.0
  0
VERTEX
  5
141
  8
0
  6
CONTINUOUS
 62
     7
 10
92.4534508122
 20
201.7984238929
 30
0.0
  0
SEQEND
  5
4FC
  8
0
  6
CONTINUOUS
 62
     7
  0
LINE
  5
4B
  8
0
  6
CONTINUOUS
 62
     7
 10
122.6470340203
 20
190.8492106136
 30
0.0
 11
122.7786702295
 21
201.9358466539
 31
0.0
  0
LINE
  5
4C
  8
0
  6
CONTINUOUS
 62
     7
 10
92.4383580466
 20
201.7865142201
 30
0.0
 11
92.4956476497
 21
199.3254884252
 31
0.0
  0
LINE
  5
4D
  8
0
  6
CONTINUOUS
 62
     7
 10
92.6789094174
 20
191.4529964946
 30
0.0
 11
92.6965563721
 21
190.6949250727
 31
0.0
  0
ARC
  5
4E
  8
0
  6
CONTINUOUS
 62
     7
 10
91.0448421784
 20
195.958399696
 30
0.0
 40
2.530143670297701
 50
116.8220180651
 51
186.4408457557
  0
POLYLINE
  5
4F
  8
0
  6
CONTINUOUS
 62
     7
 66
     1
 10
0.0
 20
0.0
 30
0.0
  0
VERTEX
  5
142
  8
0
  6
CONTINUOUS
 62
     7
 10
88.5306682658
 20
195.674574874
 30
0.0
  0
VERTEX
  5
143
  8
0
  6
CONTINUOUS
 62
     7
 10
88.5549527656
 20
195.3211677234
 30
0.0
  0
VERTEX
  5
144
  8
0
  6
CONTINUOUS
 62
     7
 10
88.6712472979
 20
194.6693877602
 30
0.0
  0
VERTEX
  5
145
  8
0
  6
CONTINUOUS
 62
     7
 10
88.8744569026
 20
194.0256825343
 30
0.0
  0
VERTEX
  5
146
  8
0
  6
CONTINUOUS
 62
     7
 10
89.1571288341
 20
193.4087261945
 30
0.0
  0
VERTEX
  5
147
  8
0
  6
CONTINUOUS
 62
     7
 10
89.5116227745
 20
192.836766301
 30
0.0
  0
VERTEX
  5
148
  8
0
  6
CONTINUOUS
 62
     7
 10
89.9303383218
 20
192.3278299889
 30
0.0
  0
VERTEX
  5
149
  8
0
  6
CONTINUOUS
 62
     7
 10
90.4072720959
 20
191.8991976613
 30
0.0
  0
VERTEX
  5
14A
  8
0
  6
CONTINUOUS
 62
     7
 10
90.9364752794
 20
191.5708564355
 30
0.0
  0
VERTEX
  5
14B
  8
0
  6
CONTINUOUS
 62
     7
 10
91.4323856924
 20
191.3857162098
 30
0.0
  0
VERTEX
  5
14C
  8
0
  6
CONTINUOUS
 62
     7
 10
91.9216962623
 20
191.3139635231
 30
0.0
  0
VERTEX
  5
14D
  8
0
  6
CONTINUOUS
 62
     7
 10
92.3928032135
 20
191.3533857842
 30
0.0
  0
VERTEX
  5
14E
  8
0
  6
CONTINUOUS
 62
     7
 10
92.7374814675
 20
191.4733889344
 30
0.0
  0
SEQEND
  5
4FB
  8
0
  6
CONTINUOUS
 62
     7
  0
LINE
  5
50
  8
0
  6
CONTINUOUS
 62
     7
 10
93.3530384067
 20
199.6867870657
 30
0.0
 11
89.8724539038
 21
198.2200924012
 31
0.0
  0
LINE
  5
51
  8
0
  6
CONTINUOUS
 62
     7
 10
92.7720880709
 20
191.4733415785
 30
0.0
 11
95.5927881033
 21
192.7013802563
 31
0.0
  0
POLYLINE
  5
52
  8
0
  6
CONTINUOUS
 62
     7
 66
     1
 10
0.0
 20
0.0
 30
0.0
  0
VERTEX
  5
14F
  8
0
  6
CONTINUOUS
 62
     7
 10
93.831252734
 20
199.7809656693
 30
0.0
  0
VERTEX
  5
150
  8
0
  6
CONTINUOUS
 62
     7
 10
93.838481528
 20
199.8020047927
 30
0.0
  0
VERTEX
  5
151
  8
0
  6
CONTINUOUS
 62
     7
 10
93.77116733
 20
199.8083313565
 30
0.0
  0
VERTEX
  5
152
  8
0
  6
CONTINUOUS
 62
     7
 10
93.6706751667
 20
199.793076472
 30
0.0
  0
VERTEX
  5
153
  8
0
  6
CONTINUOUS
 62
     7
 10
93.5355871335
 20
199.7555315823
 30
0.0
  0
VERTEX
  5
154
  8
0
  6
CONTINUOUS
 62
     7
 10
93.354127933
 20
199.687253144
 30
0.0
  0
SEQEND
  5
4FA
  8
0
  6
CONTINUOUS
 62
     7
  0
LINE
  5
53
  8
0
  6
CONTINUOUS
 62
     7
 10
114.7834910773
 20
148.7641068992
 30
0.0
 11
114.5903796713
 21
148.8933460941
 31
0.0
  0
LINE
  5
54
  8
0
  6
CONTINUOUS
 62
     7
 10
113.0397011859
 20
148.8959462687
 30
0.0
 11
112.8461845235
 21
148.7673568107
 31
0.0
  0
LINE
  5
55
  8
0
  6
CONTINUOUS
 62
     7
 10
112.5775051962
 20
148.3603315116
 30
0.0
 11
112.5755342488
 21
115.1944906127
 31
0.0
  0
LINE
  5
56
  8
0
  6
CONTINUOUS
 62
     7
 10
114.9475925345
 20
115.1900522673
 30
0.0
 11
115.050883982
 21
148.3561765065
 31
0.0
  0
LINE
  5
57
  8
0
  6
CONTINUOUS
 62
     7
 10
112.9451418826
 20
114.6867870338
 30
0.0
 11
113.1084852422
 21
114.5951843486
 31
0.0
  0
LINE
  5
58
  8
0
  6
CONTINUOUS
 62
     7
 10
114.4127313325
 20
114.592739482
 30
0.0
 11
114.5763672129
 21
114.6837300889
 31
0.0
  0
LINE
  5
59
  8
0
  6
CONTINUOUS
 62
     7
 10
102.8954656501
 20
142.5045073488
 30
0.0
 11
102.7000312859
 21
142.6275454857
 31
0.0
  0
LINE
  5
5A
  8
0
  6
CONTINUOUS
 62
     7
 10
101.1453737657
 20
142.6054141181
 30
0.0
 11
100.9532266395
 21
142.4768468465
 31
0.0
  0
LINE
  5
5B
  8
0
  6
CONTINUOUS
 62
     7
 10
100.6664407086
 20
142.0350699833
 30
0.0
 11
101.1625002367
 21
108.4438922824
 31
0.0
  0
LINE
  5
5C
  8
0
  6
CONTINUOUS
 62
     7
 10
103.5840692041
 20
108.4823277624
 30
0.0
 11
103.1937360047
 21
142.0711155898
 31
0.0
  0
LINE
  5
5D
  8
0
  6
CONTINUOUS
 62
     7
 10
101.5760320503
 20
107.9067305007
 30
0.0
 11
101.7384494381
 21
107.8230574869
 31
0.0
  0
LINE
  5
5E
  8
0
  6
CONTINUOUS
 62
     7
 10
103.0248408029
 20
107.8435140952
 30
0.0
 11
103.1849602467
 21
107.9323095444
 31
0.0
  0
ARC
  5
5F
  8
0
  6
CONTINUOUS
 62
     7
 10
130.627043677
 20
167.2621993718
 30
0.0
 40
1.329105572896845
 50
245.6239693606
 51
294.0931525239
  0
ARC
  5
60
  8
0
  6
CONTINUOUS
 62
     7
 10
130.6264885503
 20
167.2733552619
 30
0.0
 40
1.797051339226216
 50
245.4290945683
 51
294.7772402237
  0
ARC
  5
61
  8
0
  6
CONTINUOUS
 62
     7
 10
132.3175148634
 20
166.5303951437
 30
0.0
 40
0.8603721422008263
 50
115.7847006501
 51
200.7506172557
  0
ARC
  5
62
  8
0
  6
CONTINUOUS
 62
     7
 10
132.4338867473
 20
166.2631815489
 30
0.0
 40
0.8376842099575454
 50
212.0154659223
 51
300.1701184185
  0
LINE
  5
63
  8
0
  6
CONTINUOUS
 62
     7
 10
121.972390289
 20
169.45571765
 30
0.0
 11
129.8792404017
 21
165.6390316341
 31
0.0
  0
LINE
  5
64
  8
0
  6
CONTINUOUS
 62
     7
 10
130.0784906869
 20
166.0515750532
 30
0.0
 11
122.1687279867
 21
169.8625834838
 31
0.0
  0
LINE
  5
65
  8
0
  6
CONTINUOUS
 62
     7
 10
131.7947367569
 20
166.3705694713
 30
0.0
 11
131.1696129665
 21
166.0488815281
 31
0.0
  0
LINE
  5
66
  8
0
  6
CONTINUOUS
 62
     7
 10
131.3796174021
 20
165.641733232
 30
0.0
 11
132.0045036528
 21
165.9639044931
 31
0.0
  0
LINE
  5
67
  8
0
  6
CONTINUOUS
 62
     7
 10
132.4853790441
 20
167.5990571047
 30
0.0
 11
131.9390113685
 21
167.3187960637
 31
0.0
  0
LINE
  5
68
  8
0
  6
CONTINUOUS
 62
     7
 10
132.8611520702
 20
165.5311664953
 30
0.0
 11
133.4066066882
 21
165.8132849474
 31
0.0
  0
LINE
  5
69
  8
0
  6
CONTINUOUS
 62
     7
 10
133.4587541436
 20
165.7888409849
 30
0.0
 11
133.7071180886
 21
165.9173231755
 31
0.0
  0
LINE
  5
6A
  8
0
  6
CONTINUOUS
 62
     7
 10
132.7445054302
 20
167.7832721387
 30
0.0
 11
132.4957067975
 21
167.6556741529
 31
0.0
  0
LINE
  5
6B
  8
0
  6
CONTINUOUS
 62
     7
 10
133.1069875757
 20
167.9179131827
 30
0.0
 11
132.9409966306
 21
167.8327675982
 31
0.0
  0
LINE
  5
6C
  8
0
  6
CONTINUOUS
 62
     7
 10
133.8614628173
 20
166.0485443124
 30
0.0
 11
134.027176335
 21
166.1342541763
 31
0.0
  0
LINE
  5
6D
  8
0
  6
CONTINUOUS
 62
     7
 10
134.0792275225
 20
166.1098206622
 30
0.0
 11
134.3270099664
 21
166.2380020339
 31
0.0
  0
LINE
  5
6E
  8
0
  6
CONTINUOUS
 62
     7
 10
133.365482315
 20
168.1017441448
 30
0.0
 11
133.1172661615
 21
167.9744448873
 31
0.0
  0
LINE
  5
6F
  8
0
  6
CONTINUOUS
 62
     7
 10
133.7271412414
 20
168.2360229826
 30
0.0
 11
133.5620589489
 21
168.1513434944
 31
0.0
  0
LINE
  5
70
  8
0
  6
CONTINUOUS
 62
     7
 10
134.4814870943
 20
166.3692314667
 30
0.0
 11
134.6462934529
 21
166.4544721325
 31
0.0
  0
LINE
  5
71
  8
0
  6
CONTINUOUS
 62
     7
 10
134.6982486801
 20
166.4300490847
 30
0.0
 11
134.9454516626
 21
166.5579306929
 31
0.0
  0
LINE
  5
72
  8
0
  6
CONTINUOUS
 62
     7
 10
133.9850065787
 20
168.4194711649
 30
0.0
 11
133.7373708614
 21
168.2924695878
 31
0.0
  0
LINE
  5
73
  8
0
  6
CONTINUOUS
 62
     7
 10
134.5453622328
 20
168.6557320487
 30
0.0
 11
134.1816677088
 21
168.4691737831
 31
0.0
  0
LINE
  5
74
  8
0
  6
CONTINUOUS
 62
     7
 10
135.1000601479
 20
166.6891680235
 30
0.0
 11
135.4631466949
 21
166.876962592
 31
0.0
  0
LINE
  5
75
  8
0
  6
CONTINUOUS
 62
     7
 10
135.5149754392
 20
166.8525534183
 30
0.0
 11
135.761414927
 21
166.9800400599
 31
0.0
  0
LINE
  5
76
  8
0
  6
CONTINUOUS
 62
     7
 10
134.8023983184
 20
168.838675798
 30
0.0
 11
134.5555273804
 21
168.712066443
 31
0.0
  0
LINE
  5
77
  8
0
  6
CONTINUOUS
 62
     7
 10
135.285341949
 20
169.0353070032
 30
0.0
 11
134.9991698042
 21
168.8885140892
 31
0.0
  0
LINE
  5
78
  8
0
  6
CONTINUOUS
 62
     7
 10
135.9161956045
 20
167.1112872322
 30
0.0
 11
136.2018893093
 21
167.2590528998
 31
0.0
  0
ARC
  5
79
  8
0
  6
CONTINUOUS
 62
     7
 10
135.6633692703
 20
168.1176084366
 30
0.0
 40
1.004779188914856
 50
302.055054906
 51
66.7719015652
  0
ARC
  5
7A
  8
0
  6
CONTINUOUS
 62
     7
 10
135.6913499253
 20
168.3623403432
 30
0.0
 40
0.7721030599566718
 50
61.5100395803
 51
121.3566239879
  0
LINE
  5
7B
  8
0
  6
CONTINUOUS
 62
     7
 10
136.6204083709
 20
168.3437165668
 30
0.0
 11
136.9512054767
 21
168.5142649196
 31
0.0
  0
LINE
  5
7C
  8
0
  6
CONTINUOUS
 62
     7
 10
136.7433197546
 20
168.9171042711
 30
0.0
 11
136.4118272569
 21
168.7465186344
 31
0.0
  0
POLYLINE
  5
7D
  8
0
  6
CONTINUOUS
 62
     7
 66
     1
 10
0.0
 20
0.0
 30
0.0
  0
VERTEX
  5
155
  8
0
  6
CONTINUOUS
 62
     7
 10
136.9512054767
 20
168.5142649196
 30
0.0
  0
VERTEX
  5
156
  8
0
  6
CONTINUOUS
 62
     7
 10
137.0913216392
 20
168.6030587683
 30
0.0
  0
VERTEX
  5
157
  8
0
  6
CONTINUOUS
 62
     7
 10
137.2532694004
 20
168.7882694307
 30
0.0
  0
VERTEX
  5
158
  8
0
  6
CONTINUOUS
 62
     7
 10
137.3115817871
 20
169.0009803482
 30
0.0
  0
VERTEX
  5
159
  8
0
  6
CONTINUOUS
 62
     7
 10
137.2581530242
 20
169.2256380602
 30
0.0
  0
VERTEX
  5
15A
  8
0
  6
CONTINUOUS
 62
     7
 10
137.1177851047
 20
169.401889491
 30
0.0
  0
VERTEX
  5
15B
  8
0
  6
CONTINUOUS
 62
     7
 10
136.8871746413
 20
169.5499576997
 30
0.0
  0
SEQEND
  5
4F9
  8
0
  6
CONTINUOUS
 62
     7
  0
LINE
  5
7E
  8
0
  6
CONTINUOUS
 62
     7
 10
128.7932026985
 20
172.8612419958
 30
0.0
 11
136.6940520274
 21
169.1408220361
 31
0.0
  0
LINE
  5
7F
  8
0
  6
CONTINUOUS
 62
     7
 10
136.8871746413
 20
169.5499576997
 30
0.0
 11
128.9834420618
 21
173.2648599692
 31
0.0
  0
LINE
  5
80
  8
0
  6
CONTINUOUS
 62
     7
 10
120.3985787841
 20
158.5773802776
 30
0.0
 11
120.4549372273
 21
164.4491044213
 31
0.0
  0
LINE
  5
81
  8
0
  6
CONTINUOUS
 62
     7
 10
95.1920022293
 20
164.3051692622
 30
0.0
 11
95.3153521428
 21
158.4314211094
 31
0.0
  0
LINE
  5
82
  8
0
  6
CONTINUOUS
 62
     7
 10
104.7161785966
 20
159.1206546788
 30
0.0
 11
104.693041338
 21
161.5500966946
 31
0.0
  0
LINE
  5
83
  8
0
  6
CONTINUOUS
 62
     7
 10
111.2455727684
 20
160.1653474666
 30
0.0
 11
111.2386799924
 21
164.5756421834
 31
0.0
  0
LINE
  5
84
  8
0
  6
CONTINUOUS
 62
     7
 10
104.4123401058
 20
164.5367745135
 30
0.0
 11
104.4226867666
 21
163.4841246846
 31
0.0
  0
LINE
  5
85
  8
0
  6
CONTINUOUS
 62
     7
 10
110.89063344
 20
167.547692719
 30
0.0
 11
110.8923417363
 21
166.6836980732
 31
0.0
  0
POLYLINE
  5
86
  8
0
  6
CONTINUOUS
 62
     7
 66
     1
 10
0.0
 20
0.0
 30
0.0
  0
VERTEX
  5
15C
  8
0
  6
CONTINUOUS
 62
     7
 10
105.6241961861
 20
227.0765332297
 30
0.0
  0
VERTEX
  5
15D
  8
0
  6
CONTINUOUS
 62
     7
 10
106.1094176543
 20
226.9282179267
 30
0.0
  0
VERTEX
  5
15E
  8
0
  6
CONTINUOUS
 62
     7
 10
106.6743757863
 20
226.8294026726
 30
0.0
  0
VERTEX
  5
15F
  8
0
  6
CONTINUOUS
 62
     7
 10
107.2859133519
 20
226.7859735881
 30
0.0
  0
VERTEX
  5
160
  8
0
  6
CONTINUOUS
 62
     7
 10
107.9080281234
 20
226.8005226324
 30
0.0
  0
VERTEX
  5
161
  8
0
  6
CONTINUOUS
 62
     7
 10
108.5040720502
 20
226.8721811395
 30
0.0
  0
VERTEX
  5
162
  8
0
  6
CONTINUOUS
 62
     7
 10
109.0389952617
 20
226.9966756863
 30
0.0
  0
VERTEX
  5
163
  8
0
  6
CONTINUOUS
 62
     7
 10
109.4814777186
 20
227.166601767
 30
0.0
  0
VERTEX
  5
164
  8
0
  6
CONTINUOUS
 62
     7
 10
109.8058025531
 20
227.3718933802
 30
0.0
  0
VERTEX
  5
165
  8
0
  6
CONTINUOUS
 62
     7
 10
109.993350095
 20
227.600452003
 30
0.0
  0
VERTEX
  5
166
  8
0
  6
CONTINUOUS
 62
     7
 10
110.0336263193
 20
227.838888159
 30
0.0
  0
VERTEX
  5
167
  8
0
  6
CONTINUOUS
 62
     7
 10
109.9247788567
 20
228.0733236661
 30
0.0
  0
VERTEX
  5
168
  8
0
  6
CONTINUOUS
 62
     7
 10
109.67359256
 20
228.2902025677
 30
0.0
  0
VERTEX
  5
169
  8
0
  6
CONTINUOUS
 62
     7
 10
109.2949906632
 20
228.4770628485
 30
0.0
  0
VERTEX
  5
16A
  8
0
  6
CONTINUOUS
 62
     7
 10
108.8110941508
 20
228.6232279731
 30
0.0
  0
VERTEX
  5
16B
  8
0
  6
CONTINUOUS
 62
     7
 10
108.2499102272
 20
228.720385614
 30
0.0
  0
VERTEX
  5
16C
  8
0
  6
CONTINUOUS
 62
     7
 10
107.6437315016
 20
228.7630294042
 30
0.0
  0
VERTEX
  5
16D
  8
0
  6
CONTINUOUS
 62
     7
 10
107.0273325278
 20
228.7487472961
 30
0.0
  0
VERTEX
  5
16E
  8
0
  6
CONTINUOUS
 62
     7
 10
106.436051898
 20
228.6783468001
 30
0.0
  0
VERTEX
  5
16F
  8
0
  6
CONTINUOUS
 62
     7
 10
105.9038482548
 20
228.5558131304
 30
0.0
  0
VERTEX
  5
170
  8
0
  6
CONTINUOUS
 62
     7
 10
105.4614186392
 20
228.388101567
 30
0.0
  0
VERTEX
  5
171
  8
0
  6
CONTINUOUS
 62
     7
 10
105.134467852
 20
228.1847707921
 30
0.0
  0
VERTEX
  5
172
  8
0
  6
CONTINUOUS
 62
     7
 10
104.9422171601
 20
227.9574701367
 30
0.0
  0
VERTEX
  5
173
  8
0
  6
CONTINUOUS
 62
     7
 10
104.8962380099
 20
227.7193009056
 30
0.0
  0
VERTEX
  5
174
  8
0
  6
CONTINUOUS
 62
     7
 10
104.9996892048
 20
227.4840801354
 30
0.0
  0
VERTEX
  5
175
  8
0
  6
CONTINUOUS
 62
     7
 10
105.2470220828
 20
227.2655436671
 30
0.0
  0
VERTEX
  5
176
  8
0
  6
CONTINUOUS
 62
     7
 10
105.6241961861
 20
227.0765332297
 30
0.0
  0
SEQEND
  5
4F8
  8
0
  6
CONTINUOUS
 62
     7
  0
LINE
  5
87
  8
0
  6
CONTINUOUS
 62
     7
 10
107.4704317591
 20
227.9789962099
 30
0.0
 11
106.6006393305
 21
228.3166907248
 31
0.0
  0
LINE
  5
88
  8
0
  6
CONTINUOUS
 62
     7
 10
106.6006393305
 20
228.3166907248
 30
0.0
 11
106.0762676765
 21
228.1174431861
 31
0.0
  0
LINE
  5
89
  8
0
  6
CONTINUOUS
 62
     7
 10
106.0762676765
 20
228.1174431861
 30
0.0
 11
106.9460427781
 21
227.7791113991
 31
0.0
  0
LINE
  5
8A
  8
0
  6
CONTINUOUS
 62
     7
 10
106.9460427781
 20
227.7791113991
 30
0.0
 11
106.0556017583
 21
227.4396961155
 31
0.0
  0
LINE
  5
8B
  8
0
  6
CONTINUOUS
 62
     7
 10
106.0556017583
 20
227.4396961155
 30
0.0
 11
106.570414241
 21
227.2387914655
 31
0.0
  0
LINE
  5
8C
  8
0
  6
CONTINUOUS
 62
     7
 10
106.570414241
 20
227.2387914655
 30
0.0
 11
107.4608727218
 21
227.5788489007
 31
0.0
  0
LINE
  5
8D
  8
0
  6
CONTINUOUS
 62
     7
 10
107.4608727218
 20
227.5788489007
 30
0.0
 11
108.3350840776
 21
227.2387914655
 31
0.0
  0
LINE
  5
8E
  8
0
  6
CONTINUOUS
 62
     7
 10
108.3350840776
 20
227.2387914655
 30
0.0
 11
108.8594953005
 21
227.4396961155
 31
0.0
  0
LINE
  5
8F
  8
0
  6
CONTINUOUS
 62
     7
 10
108.8594953005
 20
227.4396961155
 30
0.0
 11
107.9852707254
 21
227.7791113991
 31
0.0
  0
LINE
  5
90
  8
0
  6
CONTINUOUS
 62
     7
 10
107.9852707254
 20
227.7791113991
 30
0.0
 11
108.8712105047
 21
228.1174431861
 31
0.0
  0
LINE
  5
91
  8
0
  6
CONTINUOUS
 62
     7
 10
108.8712105047
 20
228.1174431861
 30
0.0
 11
108.3563584182
 21
228.3166907248
 31
0.0
  0
LINE
  5
92
  8
0
  6
CONTINUOUS
 62
     7
 10
108.3563584182
 20
228.3166907248
 30
0.0
 11
107.4704317591
 21
227.9789962099
 31
0.0
  0
ARC
  5
93
  8
0
  6
CONTINUOUS
 62
     7
 10
107.4398593292
 20
228.7011682387
 30
0.0
 40
2.592337575680965
 50
248.4641327066
 51
299.7000385877
  0
POLYLINE
  5
94
  8
0
  6
CONTINUOUS
 62
     7
 66
     1
 10
0.0
 20
0.0
 30
0.0
  0
VERTEX
  5
177
  8
0
  6
CONTINUOUS
 62
     7
 10
106.2222019484
 20
226.4383407006
 30
0.0
  0
VERTEX
  5
178
  8
0
  6
CONTINUOUS
 62
     7
 10
106.2287872209
 20
226.4329167961
 30
0.0
  0
VERTEX
  5
179
  8
0
  6
CONTINUOUS
 62
     7
 10
106.4882547235
 20
226.2898070503
 30
0.0
  0
SEQEND
  5
4F7
  8
0
  6
CONTINUOUS
 62
     7
  0
POLYLINE
  5
95
  8
0
  6
CONTINUOUS
 62
     7
 66
     1
 10
0.0
 20
0.0
 30
0.0
  0
VERTEX
  5
17A
  8
0
  6
CONTINUOUS
 62
     7
 10
106.5584001931
 20
215.9840021006
 30
0.0
  0
VERTEX
  5
17B
  8
0
  6
CONTINUOUS
 62
     7
 10
106.9207835466
 20
215.8780130646
 30
0.0
  0
VERTEX
  5
17C
  8
0
  6
CONTINUOUS
 62
     7
 10
107.3496695505
 20
215.8259306648
 30
0.0
  0
VERTEX
  5
17D
  8
0
  6
CONTINUOUS
 62
     7
 10
107.7982961927
 20
215.8334752099
 30
0.0
  0
VERTEX
  5
17E
  8
0
  6
CONTINUOUS
 62
     7
 10
108.217705232
 20
215.8998175951
 30
0.0
  0
VERTEX
  5
17F
  8
0
  6
CONTINUOUS
 62
     7
 10
108.5621928211
 20
216.0176740518
 30
0.0
  0
VERTEX
  5
180
  8
0
  6
CONTINUOUS
 62
     7
 10
108.794369842
 20
216.1741356074
 30
0.0
  0
VERTEX
  5
181
  8
0
  6
CONTINUOUS
 62
     7
 10
108.8892378959
 20
216.3521251825
 30
0.0
  0
VERTEX
  5
182
  8
0
  6
CONTINUOUS
 62
     7
 10
108.8907992539
 20
216.3795104632
 30
0.0
  0
SEQEND
  5
4F6
  8
0
  6
CONTINUOUS
 62
     7
  0
POLYLINE
  5
96
  8
0
  6
CONTINUOUS
 62
     7
 66
     1
 10
0.0
 20
0.0
 30
0.0
  0
VERTEX
  5
183
  8
0
  6
CONTINUOUS
 62
     7
 10
106.1703651429
 20
216.3669375585
 30
0.0
  0
VERTEX
  5
184
  8
0
  6
CONTINUOUS
 62
     7
 10
106.1789544998
 20
216.306648248
 30
0.0
  0
VERTEX
  5
185
  8
0
  6
CONTINUOUS
 62
     7
 10
106.3018969685
 20
216.1322803802
 30
0.0
  0
VERTEX
  5
186
  8
0
  6
CONTINUOUS
 62
     7
 10
106.5584001931
 20
215.9840021006
 30
0.0
  0
SEQEND
  5
4F5
  8
0
  6
CONTINUOUS
 62
     7
  0
LINE
  5
97
  8
0
  6
CONTINUOUS
 62
     7
 10
106.9485291996
 20
227.3831898915
 30
0.0
 11
106.9460427781
 21
227.7791113991
 31
0.0
  0
LINE
  5
98
  8
0
  6
CONTINUOUS
 62
     7
 10
107.987341018
 20
227.3740592268
 30
0.0
 11
107.9852707254
 21
227.7791113991
 31
0.0
  0
LINE
  5
99
  8
0
  6
CONTINUOUS
 62
     7
 10
107.0036141625
 20
227.4042263032
 30
0.0
 11
106.9476005683
 21
227.5310590673
 31
0.0
  0
LINE
  5
9A
  8
0
  6
CONTINUOUS
 62
     7
 10
106.8156526363
 20
227.8298315561
 30
0.0
 11
106.6006393305
 21
228.3166907248
 31
0.0
  0
LINE
  5
9B
  8
0
  6
CONTINUOUS
 62
     7
 10
107.9480555176
 20
227.3893408019
 30
0.0
 11
107.986812989
 21
227.4773679458
 31
0.0
  0
LINE
  5
9C
  8
0
  6
CONTINUOUS
 62
     7
 10
108.1468331144
 20
227.8408105045
 30
0.0
 11
108.3563584182
 21
228.3166907248
 31
0.0
  0
LINE
  5
9D
  8
0
  6
CONTINUOUS
 62
     7
 10
107.472734439
 20
227.5742348391
 30
0.0
 11
107.4704317591
 21
227.9789962099
 31
0.0
  0
POLYLINE
  5
9E
  8
0
  6
CONTINUOUS
 62
     7
 66
     1
 10
0.0
 20
0.0
 30
0.0
  0
VERTEX
  5
187
  8
0
  6
CONTINUOUS
 62
     7
 10
107.5102466521
 20
214.2706849922
 30
0.0
  0
VERTEX
  5
188
  8
0
  6
CONTINUOUS
 62
     7
 10
107.5005753573
 20
214.2766953162
 30
0.0
  0
VERTEX
  5
189
  8
0
  6
CONTINUOUS
 62
     7
 10
107.4988414621
 20
214.2788090112
 30
0.0
  0
SEQEND
  5
4F4
  8
0
  6
CONTINUOUS
 62
     7
  0
ARC
  5
9F
  8
0
  6
CONTINUOUS
 62
     7
 10
107.54156991
 20
214.3344706789
 30
0.0
 40
0.0710616655322087
 50
243.8457151322
 51
308.9633459238
  0
ARC
  5
A0
  8
0
  6
CONTINUOUS
 62
     7
 10
104.381347023
 20
196.6144194728
 30
0.0
 40
4.156888440472514
 50
157.1480790128
 51
186.3662501305
  0
ARC
  5
A1
  8
0
  6
CONTINUOUS
 62
     7
 10
103.8245477932
 20
197.0684977019
 30
0.0
 40
3.473340640293319
 50
131.0313106766
 51
160.4855123989
  0
POLYLINE
  5
A2
  8
0
  6
CONTINUOUS
 62
     7
 66
     1
 10
0.0
 20
0.0
 30
0.0
  0
VERTEX
  5
18A
  8
0
  6
CONTINUOUS
 62
     7
 10
101.5443991377
 20
199.6886155069
 30
0.0
  0
VERTEX
  5
18B
  8
0
  6
CONTINUOUS
 62
     7
 10
102.7547163333
 20
199.4431070358
 30
0.0
  0
VERTEX
  5
18C
  8
0
  6
CONTINUOUS
 62
     7
 10
104.0219551784
 20
199.2545401794
 30
0.0
  0
VERTEX
  5
18D
  8
0
  6
CONTINUOUS
 62
     7
 10
105.3313045
 20
199.1252723591
 30
0.0
  0
VERTEX
  5
18E
  8
0
  6
CONTINUOUS
 62
     7
 10
106.667367074
 20
199.0569256699
 30
0.0
  0
VERTEX
  5
18F
  8
0
  6
CONTINUOUS
 62
     7
 10
108.0143726037
 20
199.050359728
 30
0.0
  0
VERTEX
  5
190
  8
0
  6
CONTINUOUS
 62
     7
 10
109.3563986773
 20
199.1056571875
 30
0.0
  0
VERTEX
  5
191
  8
0
  6
CONTINUOUS
 62
     7
 10
110.6775949516
 20
199.2221223435
 30
0.0
  0
VERTEX
  5
192
  8
0
  6
CONTINUOUS
 62
     7
 10
111.9624056889
 20
199.3982928653
 30
0.0
  0
VERTEX
  5
193
  8
0
  6
CONTINUOUS
 62
     7
 10
113.1957858396
 20
199.631964316
 30
0.0
  0
VERTEX
  5
194
  8
0
  6
CONTINUOUS
 62
     7
 10
114.3634061128
 20
199.9202267533
 30
0.0
  0
VERTEX
  5
195
  8
0
  6
CONTINUOUS
 62
     7
 10
115.4518429019
 20
200.2595123732
 30
0.0
  0
VERTEX
  5
196
  8
0
  6
CONTINUOUS
 62
     7
 10
116.4487494921
 20
200.6456528764
 30
0.0
  0
VERTEX
  5
197
  8
0
  6
CONTINUOUS
 62
     7
 10
117.3430056585
 20
201.0739450211
 30
0.0
  0
VERTEX
  5
198
  8
0
  6
CONTINUOUS
 62
     7
 10
118.1248435131
 20
201.5392226696
 30
0.0
  0
VERTEX
  5
199
  8
0
  6
CONTINUOUS
 62
     7
 10
118.7859482438
 20
202.0359335629
 30
0.0
  0
VERTEX
  5
19A
  8
0
  6
CONTINUOUS
 62
     7
 10
119.3195331712
 20
202.5582190462
 30
0.0
  0
VERTEX
  5
19B
  8
0
  6
CONTINUOUS
 62
     7
 10
119.7203892869
 20
203.0999950292
 30
0.0
  0
VERTEX
  5
19C
  8
0
  6
CONTINUOUS
 62
     7
 10
119.9849101036
 20
203.6550325813
 30
0.0
  0
VERTEX
  5
19D
  8
0
  6
CONTINUOUS
 62
     7
 10
120.1110932197
 20
204.2170367239
 30
0.0
  0
VERTEX
  5
19E
  8
0
  6
CONTINUOUS
 62
     7
 10
120.0985204574
 20
204.7797221823
 30
0.0
  0
VERTEX
  5
19F
  8
0
  6
CONTINUOUS
 62
     7
 10
119.9483187733
 20
205.3368850787
 30
0.0
  0
VERTEX
  5
1A0
  8
0
  6
CONTINUOUS
 62
     7
 10
119.6631043525
 20
205.8824697776
 30
0.0
  0
VERTEX
  5
1A1
  8
0
  6
CONTINUOUS
 62
     7
 10
119.2469123974
 20
206.4106303244
 30
0.0
  0
VERTEX
  5
1A2
  8
0
  6
CONTINUOUS
 62
     7
 10
118.7051151119
 20
206.9157861317
 30
0.0
  0
VERTEX
  5
1A3
  8
0
  6
CONTINUOUS
 62
     7
 10
118.0443302813
 20
207.3926717675
 30
0.0
  0
VERTEX
  5
1A4
  8
0
  6
CONTINUOUS
 62
     7
 10
117.2723226717
 20
207.836380869
 30
0.0
  0
VERTEX
  5
1A5
  8
0
  6
CONTINUOUS
 62
     7
 10
116.3979002348
 20
208.2424043459
 30
0.0
  0
VERTEX
  5
1A6
  8
0
  6
CONTINUOUS
 62
     7
 10
115.4308068337
 20
208.6066631501
 30
0.0
  0
VERTEX
  5
1A7
  8
0
  6
CONTINUOUS
 62
     7
 10
114.3816129036
 20
208.9255359624
 30
0.0
  0
VERTEX
  5
1A8
  8
0
  6
CONTINUOUS
 62
     7
 10
113.2616051595
 20
209.1958821968
 30
0.0
  0
VERTEX
  5
1A9
  8
0
  6
CONTINUOUS
 62
     7
 10
112.0826761643
 20
209.415060736
 30
0.0
  0
VERTEX
  5
1AA
  8
0
  6
CONTINUOUS
 62
     7
 10
110.8572142907
 20
209.5809448078
 30
0.0
  0
VERTEX
  5
1AB
  8
0
  6
CONTINUOUS
 62
     7
 10
109.5979943613
 20
209.6919333729
 30
0.0
  0
VERTEX
  5
1AC
  8
0
  6
CONTINUOUS
 62
     7
 10
108.3180690354
 20
209.7469593488
 30
0.0
  0
VERTEX
  5
1AD
  8
0
  6
CONTINUOUS
 62
     7
 10
107.0306608369
 20
209.7454949233
 30
0.0
  0
VERTEX
  5
1AE
  8
0
  6
CONTINUOUS
 62
     7
 10
105.7490545945
 20
209.6875541327
 30
0.0
  0
VERTEX
  5
1AF
  8
0
  6
CONTINUOUS
 62
     7
 10
104.4864899844
 20
209.5736927938
 30
0.0
  0
VERTEX
  5
1B0
  8
0
  6
CONTINUOUS
 62
     7
 10
103.2560538425
 20
209.4050057867
 30
0.0
  0
VERTEX
  5
1B1
  8
0
  6
CONTINUOUS
 62
     7
 10
102.0705719351
 20
209.183121596
 30
0.0
  0
VERTEX
  5
1B2
  8
0
  6
CONTINUOUS
 62
     7
 10
100.9424999567
 20
208.91019393
 30
0.0
  0
VERTEX
  5
1B3
  8
0
  6
CONTINUOUS
 62
     7
 10
99.8838136469
 20
208.5888901601
 30
0.0
  0
VERTEX
  5
1B4
  8
0
  6
CONTINUOUS
 62
     7
 10
98.9058980914
 20
208.2223762551
 30
0.0
  0
VERTEX
  5
1B5
  8
0
  6
CONTINUOUS
 62
     7
 10
98.0194364876
 20
207.814297834
 30
0.0
  0
VERTEX
  5
1B6
  8
0
  6
CONTINUOUS
 62
     7
 10
97.2342989047
 20
207.3687569302
 30
0.0
  0
VERTEX
  5
1B7
  8
0
  6
CONTINUOUS
 62
     7
 10
96.5594318501
 20
206.8902840506
 30
0.0
  0
VERTEX
  5
1B8
  8
0
  6
CONTINUOUS
 62
     7
 10
96.0027497524
 20
206.3838051331
 30
0.0
  0
VERTEX
  5
1B9
  8
0
  6
CONTINUOUS
 62
     7
 10
95.5710297771
 20
205.8546030532
 30
0.0
  0
VERTEX
  5
1BA
  8
0
  6
CONTINUOUS
 62
     7
 10
95.2698116925
 20
205.3082734094
 30
0.0
  0
VERTEX
  5
1BB
  8
0
  6
CONTINUOUS
 62
     7
 10
95.1033047795
 20
204.750674429
 30
0.0
  0
VERTEX
  5
1BC
  8
0
  6
CONTINUOUS
 62
     7
 10
95.0743040202
 20
204.1878709783
 30
0.0
  0
VERTEX
  5
1BD
  8
0
  6
CONTINUOUS
 62
     7
 10
95.1841179765
 20
203.6260728342
 30
0.0
  0
VERTEX
  5
1BE
  8
0
  6
CONTINUOUS
 62
     7
 10
95.4325108803
 20
203.0715675722
 30
0.0
  0
VERTEX
  5
1BF
  8
0
  6
CONTINUOUS
 62
     7
 10
95.8176614652
 20
202.5306486416
 30
0.0
  0
SEQEND
  5
4F3
  8
0
  6
CONTINUOUS
 62
     7
  0
ARC
  5
A3
  8
0
  6
CONTINUOUS
 62
     7
 10
96.4037018188
 20
199.551225281
 30
0.0
 40
3.036512285142208
 50
101.1277874514
 51
140.6292323402
  0
ARC
  5
A4
  8
0
  6
CONTINUOUS
 62
     7
 10
96.4346772799
 20
199.4601121775
 30
0.0
 40
3.118667983119492
 50
139.6961424234
 51
176.4767827556
  0
POLYLINE
  5
A5
  8
0
  6
CONTINUOUS
 62
     7
 66
     1
 10
0.0
 20
0.0
 30
0.0
  0
VERTEX
  5
1C0
  8
0
  6
CONTINUOUS
 62
     7
 10
96.7872603452
 20
186.1334073359
 30
0.0
  0
VERTEX
  5
1C1
  8
0
  6
CONTINUOUS
 62
     7
 10
95.8428009349
 20
186.6275829667
 30
0.0
  0
VERTEX
  5
1C2
  8
0
  6
CONTINUOUS
 62
     7
 10
95.0109781647
 20
187.1600592257
 30
0.0
  0
VERTEX
  5
1C3
  8
0
  6
CONTINUOUS
 62
     7
 10
94.2989659857
 20
187.7255507559
 30
0.0
  0
VERTEX
  5
1C4
  8
0
  6
CONTINUOUS
 62
     7
 10
93.7126661709
 20
188.318514057
 30
0.0
  0
VERTEX
  5
1C5
  8
0
  6
CONTINUOUS
 62
     7
 10
93.2566772661
 20
188.9332129546
 30
0.0
  0
VERTEX
  5
1C6
  8
0
  6
CONTINUOUS
 62
     7
 10
92.9342811652
 20
189.5637834463
 30
0.0
  0
VERTEX
  5
1C7
  8
0
  6
CONTINUOUS
 62
     7
 10
92.7474462058
 20
190.2042969049
 30
0.0
  0
VERTEX
  5
1C8
  8
0
  6
CONTINUOUS
 62
     7
 10
92.6965563721
 20
190.6949250727
 30
0.0
  0
SEQEND
  5
4F2
  8
0
  6
CONTINUOUS
 62
     7
  0
POLYLINE
  5
A6
  8
0
  6
CONTINUOUS
 62
     7
 66
     1
 10
0.0
 20
0.0
 30
0.0
  0
VERTEX
  5
1C9
  8
0
  6
CONTINUOUS
 62
     7
 10
122.6470340203
 20
190.8492106136
 30
0.0
  0
VERTEX
  5
1CA
  8
0
  6
CONTINUOUS
 62
     7
 10
122.6261670755
 20
190.5264268768
 30
0.0
  0
VERTEX
  5
1CB
  8
0
  6
CONTINUOUS
 62
     7
 10
122.4823378235
 20
189.8831686885
 30
0.0
  0
VERTEX
  5
1CC
  8
0
  6
CONTINUOUS
 62
     7
 10
122.2027228808
 20
189.2468840011
 30
0.0
  0
VERTEX
  5
1CD
  8
0
  6
CONTINUOUS
 62
     7
 10
121.788871524
 20
188.6235108115
 30
0.0
  0
VERTEX
  5
1CE
  8
0
  6
CONTINUOUS
 62
     7
 10
121.2436379435
 20
188.0189531958
 30
0.0
  0
VERTEX
  5
1CF
  8
0
  6
CONTINUOUS
 62
     7
 10
120.5711896726
 20
187.439019268
 30
0.0
  0
VERTEX
  5
1D0
  8
0
  6
CONTINUOUS
 62
     7
 10
119.7770000765
 20
186.8893570357
 30
0.0
  0
VERTEX
  5
1D1
  8
0
  6
CONTINUOUS
 62
     7
 10
118.8678236843
 20
186.3753891066
 30
0.0
  0
VERTEX
  5
1D2
  8
0
  6
CONTINUOUS
 62
     7
 10
117.8516534712
 20
185.9022473294
 30
0.0
  0
VERTEX
  5
1D3
  8
0
  6
CONTINUOUS
 62
     7
 10
116.7376595867
 20
185.474708556
 30
0.0
  0
VERTEX
  5
1D4
  8
0
  6
CONTINUOUS
 62
     7
 10
115.5361094765
 20
185.0971327891
 30
0.0
  0
VERTEX
  5
1D5
  8
0
  6
CONTINUOUS
 62
     7
 10
114.25826983
 20
184.7734050125
 30
0.0
  0
VERTEX
  5
1D6
  8
0
  6
CONTINUOUS
 62
     7
 10
112.9162912985
 20
184.5068819912
 30
0.0
  0
VERTEX
  5
1D7
  8
0
  6
CONTINUOUS
 62
     7
 10
111.5230774419
 20
184.3003452766
 30
0.0
  0
VERTEX
  5
1D8
  8
0
  6
CONTINUOUS
 62
     7
 10
110.0921398531
 20
184.1559615455
 30
0.0
  0
VERTEX
  5
1D9
  8
0
  6
CONTINUOUS
 62
     7
 10
108.6374418559
 20
184.0752512591
 30
0.0
  0
VERTEX
  5
1DA
  8
0
  6
CONTINUOUS
 62
     7
 10
107.1732335539
 20
184.0590664352
 30
0.0
  0
VERTEX
  5
1DB
  8
0
  6
CONTINUOUS
 62
     7
 10
105.7138813018
 20
184.1075781086
 30
0.0
  0
VERTEX
  5
1DC
  8
0
  6
CONTINUOUS
 62
     7
 10
104.2736948652
 20
184.2202738069
 30
0.0
  0
VERTEX
  5
1DD
  8
0
  6
CONTINUOUS
 62
     7
 10
102.8667556144
 20
184.3959651071
 30
0.0
  0
VERTEX
  5
1DE
  8
0
  6
CONTINUOUS
 62
     7
 10
101.5067490672
 20
184.6328050758
 30
0.0
  0
VERTEX
  5
1DF
  8
0
  6
CONTINUOUS
 62
     7
 10
100.2068049431
 20
184.9283151402
 30
0.0
  0
VERTEX
  5
1E0
  8
0
  6
CONTINUOUS
 62
     7
 10
98.9793476394
 20
185.2794207012
 30
0.0
  0
VERTEX
  5
1E1
  8
0
  6
CONTINUOUS
 62
     7
 10
97.8359596899
 20
185.6824945943
 30
0.0
  0
VERTEX
  5
1E2
  8
0
  6
CONTINUOUS
 62
     7
 10
96.7872603452
 20
186.1334073359
 30
0.0
  0
SEQEND
  5
4F1
  8
0
  6
CONTINUOUS
 62
     7
  0
POLYLINE
  5
A7
  8
0
  6
CONTINUOUS
 62
     7
 66
     1
 10
0.0
 20
0.0
 30
0.0
  0
VERTEX
  5
1E3
  8
0
  6
CONTINUOUS
 62
     7
 10
108.871582453
 20
205.0605318553
 30
0.0
  0
VERTEX
  5
1E4
  8
0
  6
CONTINUOUS
 62
     7
 10
108.4671139179
 20
205.1902559624
 30
0.0
  0
VERTEX
  5
1E5
  8
0
  6
CONTINUOUS
 62
     7
 10
107.9928217531
 20
205.2658374054
 30
0.0
  0
VERTEX
  5
1E6
  8
0
  6
CONTINUOUS
 62
     7
 10
107.486840943
 20
205.281260521
 30
0.0
  0
VERTEX
  5
1E7
  8
0
  6
CONTINUOUS
 62
     7
 10
106.9897824472
 20
205.2352991593
 30
0.0
  0
VERTEX
  5
1E8
  8
0
  6
CONTINUOUS
 62
     7
 10
106.5415631171
 20
205.1316086886
 30
0.0
  0
VERTEX
  5
1E9
  8
0
  6
CONTINUOUS
 62
     7
 10
106.1782828732
 20
204.9784512703
 30
0.0
  0
VERTEX
  5
1EA
  8
0
  6
CONTINUOUS
 62
     7
 10
105.929367384
 20
204.7880700158
 30
0.0
  0
VERTEX
  5
1EB
  8
0
  6
CONTINUOUS
 62
     7
 10
105.8151864209
 20
204.5757491729
 30
0.0
  0
VERTEX
  5
1EC
  8
0
  6
CONTINUOUS
 62
     7
 10
105.8453397008
 20
204.3586201417
 30
0.0
  0
VERTEX
  5
1ED
  8
0
  6
CONTINUOUS
 62
     7
 10
106.0177687701
 20
204.1542959807
 30
0.0
  0
VERTEX
  5
1EE
  8
0
  6
CONTINUOUS
 62
     7
 10
106.3188015544
 20
203.9794377135
 30
0.0
  0
VERTEX
  5
1EF
  8
0
  6
CONTINUOUS
 62
     7
 10
106.7241648834
 20
203.8483704818
 30
0.0
  0
VERTEX
  5
1F0
  8
0
  6
CONTINUOUS
 62
     7
 10
107.2009136926
 20
203.7718723425
 30
0.0
  0
VERTEX
  5
1F1
  8
0
  6
CONTINUOUS
 62
     7
 10
107.7101330286
 20
203.7562500092
 30
0.0
  0
VERTEX
  5
1F2
  8
0
  6
CONTINUOUS
 62
     7
 10
108.210183709
 20
203.802792884
 30
0.0
  0
VERTEX
  5
1F3
  8
0
  6
CONTINUOUS
 62
     7
 10
108.6601988757
 20
203.9076609675
 30
0.0
  0
VERTEX
  5
1F4
  8
0
  6
CONTINUOUS
 62
     7
 10
109.0235084484
 20
204.0622182091
 30
0.0
  0
VERTEX
  5
1F5
  8
0
  6
CONTINUOUS
 62
     7
 10
109.2706774612
 20
204.2537770636
 30
0.0
  0
VERTEX
  5
1F6
  8
0
  6
CONTINUOUS
 62
     7
 10
109.3818906425
 20
204.4666794087
 30
0.0
  0
VERTEX
  5
1F7
  8
0
  6
CONTINUOUS
 62
     7
 10
109.348490516
 20
204.6836092262
 30
0.0
  0
VERTEX
  5
1F8
  8
0
  6
CONTINUOUS
 62
     7
 10
109.1735663727
 20
204.887016705
 30
0.0
  0
VERTEX
  5
1F9
  8
0
  6
CONTINUOUS
 62
     7
 10
108.871582453
 20
205.0605318553
 30
0.0
  0
SEQEND
  5
4F0
  8
0
  6
CONTINUOUS
 62
     7
  0
POLYLINE
  5
A8
  8
0
  6
CONTINUOUS
 62
     7
 66
     1
 10
0.0
 20
0.0
 30
0.0
  0
VERTEX
  5
1FA
  8
0
  6
CONTINUOUS
 62
     7
 10
98.0568181952
 20
200.8868177974
 30
0.0
  0
VERTEX
  5
1FB
  8
0
  6
CONTINUOUS
 62
     7
 10
96.766393999
 20
201.6617462608
 30
0.0
  0
VERTEX
  5
1FC
  8
0
  6
CONTINUOUS
 62
     7
 10
95.8176614652
 20
202.5306486416
 30
0.0
  0
SEQEND
  5
4EF
  8
0
  6
CONTINUOUS
 62
     7
  0
POLYLINE
  5
A9
  8
0
  6
CONTINUOUS
 62
     7
 66
     1
 10
0.0
 20
0.0
 30
0.0
  0
VERTEX
  5
1FD
  8
0
  6
CONTINUOUS
 62
     7
 10
101.5443991377
 20
199.6886155069
 30
0.0
  0
VERTEX
  5
1FE
  8
0
  6
CONTINUOUS
 62
     7
 10
99.6599399438
 20
200.2233486466
 30
0.0
  0
VERTEX
  5
1FF
  8
0
  6
CONTINUOUS
 62
     7
 10
98.0568181952
 20
200.8868177974
 30
0.0
  0
SEQEND
  5
4EE
  8
0
  6
CONTINUOUS
 62
     7
  0
POLYLINE
  5
AA
  8
0
  6
CONTINUOUS
 62
     7
 66
     1
 10
0.0
 20
0.0
 30
0.0
  0
VERTEX
  5
200
  8
0
  6
CONTINUOUS
 62
     7
 10
88.77076833
 20
195.4109449572
 30
0.0
  0
VERTEX
  5
201
  8
0
  6
CONTINUOUS
 62
     7
 10
88.8364321938
 20
194.8205111858
 30
0.0
  0
VERTEX
  5
202
  8
0
  6
CONTINUOUS
 62
     7
 10
88.9983403346
 20
194.2160004163
 30
0.0
  0
VERTEX
  5
203
  8
0
  6
CONTINUOUS
 62
     7
 10
89.247779735
 20
193.6295911221
 30
0.0
  0
VERTEX
  5
204
  8
0
  6
CONTINUOUS
 62
     7
 10
89.5714549134
 20
193.0924683457
 30
0.0
  0
VERTEX
  5
205
  8
0
  6
CONTINUOUS
 62
     7
 10
89.9521726578
 20
192.6332326791
 30
0.0
  0
VERTEX
  5
206
  8
0
  6
CONTINUOUS
 62
     7
 10
90.3697150321
 20
192.276433378
 30
0.0
  0
VERTEX
  5
207
  8
0
  6
CONTINUOUS
 62
     7
 10
90.801864769
 20
192.0412890727
 30
0.0
  0
VERTEX
  5
208
  8
0
  6
CONTINUOUS
 62
     7
 10
91.2255411897
 20
191.9406557116
 30
0.0
  0
VERTEX
  5
209
  8
0
  6
CONTINUOUS
 62
     7
 10
91.6179983698
 20
191.9802962828
 30
0.0
  0
VERTEX
  5
20A
  8
0
  6
CONTINUOUS
 62
     7
 10
91.9580307834
 20
192.1584991724
 30
0.0
  0
VERTEX
  5
20B
  8
0
  6
CONTINUOUS
 62
     7
 10
92.2271260291
 20
192.4660804028
 30
0.0
  0
VERTEX
  5
20C
  8
0
  6
CONTINUOUS
 62
     7
 10
92.4105007892
 20
192.8867885642
 30
0.0
  0
VERTEX
  5
20D
  8
0
  6
CONTINUOUS
 62
     7
 10
92.4979563771
 20
193.3981098806
 30
0.0
  0
VERTEX
  5
20E
  8
0
  6
CONTINUOUS
 62
     7
 10
92.484495391
 20
193.9724454814
 30
0.0
  0
VERTEX
  5
20F
  8
0
  6
CONTINUOUS
 62
     7
 10
92.3706518828
 20
194.5786056315
 30
0.0
  0
VERTEX
  5
210
  8
0
  6
CONTINUOUS
 62
     7
 10
92.1625040242
 20
195.1835393585
 30
0.0
  0
VERTEX
  5
211
  8
0
  6
CONTINUOUS
 62
     7
 10
91.8713594418
 20
195.754196055
 30
0.0
  0
VERTEX
  5
212
  8
0
  6
CONTINUOUS
 62
     7
 10
91.5131272155
 20
196.2594014693
 30
0.0
  0
VERTEX
  5
213
  8
0
  6
CONTINUOUS
 62
     7
 10
91.1074143294
 20
196.6716264593
 30
0.0
  0
VERTEX
  5
214
  8
0
  6
CONTINUOUS
 62
     7
 10
90.676405279
 20
196.9685339701
 30
0.0
  0
VERTEX
  5
215
  8
0
  6
CONTINUOUS
 62
     7
 10
90.2435990499
 20
197.1342072453
 30
0.0
  0
VERTEX
  5
216
  8
0
  6
CONTINUOUS
 62
     7
 10
89.8324860987
 20
197.1599880536
 30
0.0
  0
VERTEX
  5
217
  8
0
  6
CONTINUOUS
 62
     7
 10
89.4652487036
 20
197.0448843364
 30
0.0
  0
VERTEX
  5
218
  8
0
  6
CONTINUOUS
 62
     7
 10
89.1615616884
 20
196.7955383434
 30
0.0
  0
VERTEX
  5
219
  8
0
  6
CONTINUOUS
 62
     7
 10
88.9375586036
 20
196.4257754654
 30
0.0
  0
VERTEX
  5
21A
  8
0
  6
CONTINUOUS
 62
     7
 10
88.8050130659
 20
195.9557779413
 30
0.0
  0
VERTEX
  5
21B
  8
0
  6
CONTINUOUS
 62
     7
 10
88.77076833
 20
195.4109449572
 30
0.0
  0
SEQEND
  5
4ED
  8
0
  6
CONTINUOUS
 62
     7
  0
ARC
  5
AB
  8
0
  6
CONTINUOUS
 62
     7
 10
91.0419432744
 20
194.4508781505
 30
0.0
 40
6.107691321700924
 50
10.6173656332
 51
56.1073263078
  0
POLYLINE
  5
AC
  8
0
  6
CONTINUOUS
 62
     7
 66
     1
 10
0.0
 20
0.0
 30
0.0
  0
VERTEX
  5
21C
  8
0
  6
CONTINUOUS
 62
     7
 10
89.38931029
 20
195.1240295398
 30
0.0
  0
VERTEX
  5
21D
  8
0
  6
CONTINUOUS
 62
     7
 10
89.42700261
 20
195.5636943436
 30
0.0
  0
VERTEX
  5
21E
  8
0
  6
CONTINUOUS
 62
     7
 10
89.5621778924
 20
195.9217855565
 30
0.0
  0
VERTEX
  5
21F
  8
0
  6
CONTINUOUS
 62
     7
 10
89.7841359087
 20
196.1691876995
 30
0.0
  0
VERTEX
  5
220
  8
0
  6
CONTINUOUS
 62
     7
 10
90.0751156638
 20
196.2855873652
 30
0.0
  0
VERTEX
  5
221
  8
0
  6
CONTINUOUS
 62
     7
 10
90.411664034
 20
196.2612041456
 30
0.0
  0
VERTEX
  5
222
  8
0
  6
CONTINUOUS
 62
     7
 10
90.7664970935
 20
196.0976942206
 30
0.0
  0
VERTEX
  5
223
  8
0
  6
CONTINUOUS
 62
     7
 10
91.1107159736
 20
195.8081180976
 30
0.0
  0
VERTEX
  5
224
  8
0
  6
CONTINUOUS
 62
     7
 10
91.4161963337
 20
195.4159423677
 30
0.0
  0
VERTEX
  5
225
  8
0
  6
CONTINUOUS
 62
     7
 10
91.6579426359
 20
194.953136826
 30
0.0
  0
VERTEX
  5
226
  8
0
  6
CONTINUOUS
 62
     7
 10
91.8161922063
 20
194.4575213805
 30
0.0
  0
VERTEX
  5
227
  8
0
  6
CONTINUOUS
 62
     7
 10
91.8780731428
 20
193.9695978617
 30
0.0
  0
VERTEX
  5
228
  8
0
  6
CONTINUOUS
 62
     7
 10
91.8386634308
 20
193.5291569805
 30
0.0
  0
VERTEX
  5
229
  8
0
  6
CONTINUOUS
 62
     7
 10
91.7013603043
 20
193.1719713049
 30
0.0
  0
VERTEX
  5
22A
  8
0
  6
CONTINUOUS
 62
     7
 10
91.477539563
 20
192.9268688059
 30
0.0
  0
VERTEX
  5
22B
  8
0
  6
CONTINUOUS
 62
     7
 10
91.1855535959
 20
192.8134327758
 30
0.0
  0
VERTEX
  5
22C
  8
0
  6
CONTINUOUS
 62
     7
 10
90.8491749901
 20
192.8405027005
 30
0.0
  0
VERTEX
  5
22D
  8
0
  6
CONTINUOUS
 62
     7
 10
90.4956337782
 20
193.0055693939
 30
0.0
  0
VERTEX
  5
22E
  8
0
  6
CONTINUOUS
 62
     7
 10
90.153418684
 20
193.2950780772
 30
0.0
  0
VERTEX
  5
22F
  8
0
  6
CONTINUOUS
 62
     7
 10
89.8500178599
 20
193.6855835606
 30
0.0
  0
VERTEX
  5
230
  8
0
  6
CONTINUOUS
 62
     7
 10
89.6097665984
 20
194.14564634
 30
0.0
  0
VERTEX
  5
231
  8
0
  6
CONTINUOUS
 62
     7
 10
89.4519529027
 20
194.6383173253
 30
0.0
  0
VERTEX
  5
232
  8
0
  6
CONTINUOUS
 62
     7
 10
89.38931029
 20
195.1240295398
 30
0.0
  0
SEQEND
  5
4EC
  8
0
  6
CONTINUOUS
 62
     7
  0
POLYLINE
  5
AD
  8
0
  6
CONTINUOUS
 62
     7
 66
     1
 10
0.0
 20
0.0
 30
0.0
  0
VERTEX
  5
233
  8
0
  6
CONTINUOUS
 62
     7
 10
98.5780830427
 20
196.0931742427
 30
0.0
  0
VERTEX
  5
234
  8
0
  6
CONTINUOUS
 62
     7
 10
97.7544600259
 20
195.8713379989
 30
0.0
  0
VERTEX
  5
235
  8
0
  6
CONTINUOUS
 62
     7
 10
97.0450681762
 20
195.5762157419
 30
0.0
  0
SEQEND
  5
4EB
  8
0
  6
CONTINUOUS
 62
     7
  0
POLYLINE
  5
AE
  8
0
  6
CONTINUOUS
 62
     7
 66
     1
 10
0.0
 20
0.0
 30
0.0
  0
VERTEX
  5
236
  8
0
  6
CONTINUOUS
 62
     7
 10
100.2500924212
 20
196.1534889774
 30
0.0
  0
VERTEX
  5
237
  8
0
  6
CONTINUOUS
 62
     7
 10
99.5246958419
 20
196.2098654267
 30
0.0
  0
VERTEX
  5
238
  8
0
  6
CONTINUOUS
 62
     7
 10
98.5780830427
 20
196.0931742427
 30
0.0
  0
SEQEND
  5
4EA
  8
0
  6
CONTINUOUS
 62
     7
  0
POLYLINE
  5
AF
  8
0
  6
CONTINUOUS
 62
     7
 66
     1
 10
0.0
 20
0.0
 30
0.0
  0
VERTEX
  5
239
  8
0
  6
CONTINUOUS
 62
     7
 10
98.5780830427
 20
196.0931742427
 30
0.0
  0
VERTEX
  5
23A
  8
0
  6
CONTINUOUS
 62
     7
 10
97.9801760673
 20
196.9659375623
 30
0.0
  0
VERTEX
  5
23B
  8
0
  6
CONTINUOUS
 62
     7
 10
97.4733295981
 20
197.8517374798
 30
0.0
  0
VERTEX
  5
23C
  8
0
  6
CONTINUOUS
 62
     7
 10
97.072886353
 20
198.6814102027
 30
0.0
  0
VERTEX
  5
23D
  8
0
  6
CONTINUOUS
 62
     7
 10
96.5980090343
 20
199.4326848471
 30
0.0
  0
VERTEX
  5
23E
  8
0
  6
CONTINUOUS
 62
     7
 10
96.0642780415
 20
199.97574898
 30
0.0
  0
SEQEND
  5
4E9
  8
0
  6
CONTINUOUS
 62
     7
  0
ARC
  5
B0
  8
0
  6
CONTINUOUS
 62
     7
 10
70.8603111102
 20
286.4218697428
 30
0.0
 40
90.04538713335464
 50
285.185885285
 51
286.2544108509
  0
POLYLINE
  5
B1
  8
0
  6
CONTINUOUS
 62
     7
 66
     1
 10
0.0
 20
0.0
 30
0.0
  0
VERTEX
  5
23F
  8
0
  6
CONTINUOUS
 62
     7
 10
100.5507260656
 20
198.2287504757
 30
0.0
  0
VERTEX
  5
240
  8
0
  6
CONTINUOUS
 62
     7
 10
99.3899938121
 20
198.6782147745
 30
0.0
  0
VERTEX
  5
241
  8
0
  6
CONTINUOUS
 62
     7
 10
98.0903095482
 20
199.183436154
 30
0.0
  0
VERTEX
  5
242
  8
0
  6
CONTINUOUS
 62
     7
 10
97.0685402636
 20
199.6085015826
 30
0.0
  0
VERTEX
  5
243
  8
0
  6
CONTINUOUS
 62
     7
 10
96.0642780415
 20
199.97574898
 30
0.0
  0
SEQEND
  5
4E8
  8
0
  6
CONTINUOUS
 62
     7
  0
POLYLINE
  5
B2
  8
0
  6
CONTINUOUS
 62
     7
 66
     1
 10
0.0
 20
0.0
 30
0.0
  0
VERTEX
  5
244
  8
0
  6
CONTINUOUS
 62
     7
 10
98.0568181952
 20
200.8868177974
 30
0.0
  0
VERTEX
  5
245
  8
0
  6
CONTINUOUS
 62
     7
 10
97.5670350838
 20
200.6750835053
 30
0.0
  0
VERTEX
  5
246
  8
0
  6
CONTINUOUS
 62
     7
 10
96.9959756249
 20
200.3828152504
 30
0.0
  0
VERTEX
  5
247
  8
0
  6
CONTINUOUS
 62
     7
 10
96.0642780415
 20
199.97574898
 30
0.0
  0
SEQEND
  5
4E7
  8
0
  6
CONTINUOUS
 62
     7
  0
POLYLINE
  5
B3
  8
0
  6
CONTINUOUS
 62
     7
 66
     1
 10
0.0
 20
0.0
 30
0.0
  0
VERTEX
  5
248
  8
0
  6
CONTINUOUS
 62
     7
 10
94.0563037914
 20
201.477394889
 30
0.0
  0
VERTEX
  5
249
  8
0
  6
CONTINUOUS
 62
     7
 10
94.5940868983
 20
201.0751648823
 30
0.0
  0
VERTEX
  5
24A
  8
0
  6
CONTINUOUS
 62
     7
 10
95.1067617116
 20
200.6646633816
 30
0.0
  0
VERTEX
  5
24B
  8
0
  6
CONTINUOUS
 62
     7
 10
95.5474554934
 20
200.3589587476
 30
0.0
  0
VERTEX
  5
24C
  8
0
  6
CONTINUOUS
 62
     7
 10
96.0642780415
 20
199.97574898
 30
0.0
  0
SEQEND
  5
4E6
  8
0
  6
CONTINUOUS
 62
     7
  0
POLYLINE
  5
B4
  8
0
  6
CONTINUOUS
 62
     7
 66
     1
 10
0.0
 20
0.0
 30
0.0
  0
VERTEX
  5
24D
  8
0
  6
CONTINUOUS
 62
     7
 10
114.6920917669
 20
147.8966566351
 30
0.0
  0
VERTEX
  5
24E
  8
0
  6
CONTINUOUS
 62
     7
 10
114.3610327782
 20
147.7709922677
 30
0.0
  0
VERTEX
  5
24F
  8
0
  6
CONTINUOUS
 62
     7
 10
113.9703697951
 20
147.7092454897
 30
0.0
  0
VERTEX
  5
250
  8
0
  6
CONTINUOUS
 62
     7
 10
113.5626742523
 20
147.7181898342
 30
0.0
  0
VERTEX
  5
251
  8
0
  6
CONTINUOUS
 62
     7
 10
113.1824092172
 20
147.7968436096
 30
0.0
  0
VERTEX
  5
252
  8
0
  6
CONTINUOUS
 62
     7
 10
112.8709912375
 20
147.9365815627
 30
0.0
  0
VERTEX
  5
253
  8
0
  6
CONTINUOUS
 62
     7
 10
112.6622138518
 20
148.1221128047
 30
0.0
  0
VERTEX
  5
254
  8
0
  6
CONTINUOUS
 62
     7
 10
112.5785661921
 20
148.3332005399
 30
0.0
  0
VERTEX
  5
255
  8
0
  6
CONTINUOUS
 62
     7
 10
112.628853503
 20
148.5469105488
 30
0.0
  0
VERTEX
  5
256
  8
0
  6
CONTINUOUS
 62
     7
 10
112.8073526306
 20
148.7401213477
 30
0.0
  0
VERTEX
  5
257
  8
0
  6
CONTINUOUS
 62
     7
 10
112.8461845235
 20
148.7673568107
 30
0.0
  0
SEQEND
  5
4E5
  8
0
  6
CONTINUOUS
 62
     7
  0
POLYLINE
  5
B5
  8
0
  6
CONTINUOUS
 62
     7
 66
     1
 10
0.0
 20
0.0
 30
0.0
  0
VERTEX
  5
258
  8
0
  6
CONTINUOUS
 62
     7
 10
114.7834910773
 20
148.7641068992
 30
0.0
  0
VERTEX
  5
259
  8
0
  6
CONTINUOUS
 62
     7
 10
114.8738710698
 20
148.6949405336
 30
0.0
  0
VERTEX
  5
25A
  8
0
  6
CONTINUOUS
 62
     7
 10
115.0234024205
 20
148.4945224605
 30
0.0
  0
VERTEX
  5
25B
  8
0
  6
CONTINUOUS
 62
     7
 10
115.0420738638
 20
148.2792640099
 30
0.0
  0
VERTEX
  5
25C
  8
0
  6
CONTINUOUS
 62
     7
 10
114.9275805698
 20
148.0724787977
 30
0.0
  0
VERTEX
  5
25D
  8
0
  6
CONTINUOUS
 62
     7
 10
114.6920917669
 20
147.8966566351
 30
0.0
  0
SEQEND
  5
4E4
  8
0
  6
CONTINUOUS
 62
     7
  0
POLYLINE
  5
B6
  8
0
  6
CONTINUOUS
 62
     7
 66
     1
 10
0.0
 20
0.0
 30
0.0
  0
VERTEX
  5
25E
  8
0
  6
CONTINUOUS
 62
     7
 10
114.5168039759
 20
148.1997346
 30
0.0
  0
VERTEX
  5
25F
  8
0
  6
CONTINUOUS
 62
     7
 10
114.7213972832
 20
148.3587471433
 30
0.0
  0
VERTEX
  5
260
  8
0
  6
CONTINUOUS
 62
     7
 10
114.8032588373
 20
148.5461476497
 30
0.0
  0
VERTEX
  5
261
  8
0
  6
CONTINUOUS
 62
     7
 10
114.7515561403
 20
148.736568355
 30
0.0
  0
VERTEX
  5
262
  8
0
  6
CONTINUOUS
 62
     7
 10
114.5735105895
 20
148.9043282748
 30
0.0
  0
VERTEX
  5
263
  8
0
  6
CONTINUOUS
 62
     7
 10
114.2932978069
 20
149.026882338
 30
0.0
  0
VERTEX
  5
264
  8
0
  6
CONTINUOUS
 62
     7
 10
113.9487154269
 20
149.0878078368
 30
0.0
  0
VERTEX
  5
265
  8
0
  6
CONTINUOUS
 62
     7
 10
113.5861028997
 20
149.0789553439
 30
0.0
  0
VERTEX
  5
266
  8
0
  6
CONTINUOUS
 62
     7
 10
113.2541863342
 20
149.0015083627
 30
0.0
  0
VERTEX
  5
267
  8
0
  6
CONTINUOUS
 62
     7
 10
112.9976260775
 20
148.8658297561
 30
0.0
  0
VERTEX
  5
268
  8
0
  6
CONTINUOUS
 62
     7
 10
112.8510720153
 20
148.6901124631
 30
0.0
  0
VERTEX
  5
269
  8
0
  6
CONTINUOUS
 62
     7
 10
112.8344842504
 20
148.4979907501
 30
0.0
  0
VERTEX
  5
26A
  8
0
  6
CONTINUOUS
 62
     7
 10
112.9503505786
 20
148.3153991551
 30
0.0
  0
VERTEX
  5
26B
  8
0
  6
CONTINUOUS
 62
     7
 10
113.183221361
 20
148.1670766948
 30
0.0
  0
VERTEX
  5
26C
  8
0
  6
CONTINUOUS
 62
     7
 10
113.5016919425
 20
148.0731846257
 30
0.0
  0
VERTEX
  5
26D
  8
0
  6
CONTINUOUS
 62
     7
 10
113.8626196785
 20
148.0465158422
 30
0.0
  0
VERTEX
  5
26E
  8
0
  6
CONTINUOUS
 62
     7
 10
114.2170192135
 20
148.0907082777
 30
0.0
  0
VERTEX
  5
26F
  8
0
  6
CONTINUOUS
 62
     7
 10
114.5168039759
 20
148.1997346
 30
0.0
  0
SEQEND
  5
4E3
  8
0
  6
CONTINUOUS
 62
     7
  0
ARC
  5
B7
  8
0
  6
CONTINUOUS
 62
     7
 10
114.3681846842
 20
115.2302868983
 30
0.0
 40
0.5808031357113612
 50
293.8861742926
 51
356.0277033682
  0
POLYLINE
  5
B8
  8
0
  6
CONTINUOUS
 62
     7
 66
     1
 10
0.0
 20
0.0
 30
0.0
  0
VERTEX
  5
270
  8
0
  6
CONTINUOUS
 62
     7
 10
112.5755342488
 20
115.1944906127
 30
0.0
  0
VERTEX
  5
271
  8
0
  6
CONTINUOUS
 62
     7
 10
112.5765516024
 20
115.1655096051
 30
0.0
  0
VERTEX
  5
272
  8
0
  6
CONTINUOUS
 62
     7
 10
112.656768647
 20
114.9400355433
 30
0.0
  0
VERTEX
  5
273
  8
0
  6
CONTINUOUS
 62
     7
 10
112.8569784608
 20
114.7418707832
 30
0.0
  0
VERTEX
  5
274
  8
0
  6
CONTINUOUS
 62
     7
 10
113.1556094733
 20
114.592624373
 30
0.0
  0
VERTEX
  5
275
  8
0
  6
CONTINUOUS
 62
     7
 10
113.5202575511
 20
114.5086211871
 30
0.0
  0
VERTEX
  5
276
  8
0
  6
CONTINUOUS
 62
     7
 10
113.9112152894
 20
114.4990686365
 30
0.0
  0
VERTEX
  5
277
  8
0
  6
CONTINUOUS
 62
     7
 10
114.2858561733
 20
114.5650146216
 30
0.0
  0
VERTEX
  5
278
  8
0
  6
CONTINUOUS
 62
     7
 10
114.6033640485
 20
114.6992285691
 30
0.0
  0
SEQEND
  5
4E2
  8
0
  6
CONTINUOUS
 62
     7
  0
ARC
  5
B9
  8
0
  6
CONTINUOUS
 62
     7
 10
113.762946246
 20
115.8411765988
 30
0.0
 40
1.407414613109826
 50
242.2891705633
 51
297.496022783
  0
POLYLINE
  5
BA
  8
0
  6
CONTINUOUS
 62
     7
 66
     1
 10
0.0
 20
0.0
 30
0.0
  0
VERTEX
  5
279
  8
0
  6
CONTINUOUS
 62
     7
 10
103.1828207012
 20
141.9770205872
 30
0.0
  0
VERTEX
  5
27A
  8
0
  6
CONTINUOUS
 62
     7
 10
103.0609515721
 20
141.7606044339
 30
0.0
  0
VERTEX
  5
27B
  8
0
  6
CONTINUOUS
 62
     7
 10
102.8161795878
 20
141.5758766434
 30
0.0
  0
VERTEX
  5
27C
  8
0
  6
CONTINUOUS
 62
     7
 10
102.4749327432
 20
141.443005418
 30
0.0
  0
VERTEX
  5
27D
  8
0
  6
CONTINUOUS
 62
     7
 10
102.0742860496
 20
141.3765418985
 30
0.0
  0
VERTEX
  5
27E
  8
0
  6
CONTINUOUS
 62
     7
 10
101.6579037392
 20
141.3837787016
 30
0.0
  0
VERTEX
  5
27F
  8
0
  6
CONTINUOUS
 62
     7
 10
101.2712026116
 20
141.4639213265
 30
0.0
  0
VERTEX
  5
280
  8
0
  6
CONTINUOUS
 62
     7
 10
100.9563052672
 20
141.6081786187
 30
0.0
  0
VERTEX
  5
281
  8
0
  6
CONTINUOUS
 62
     7
 10
100.747383458
 20
141.8007606183
 30
0.0
  0
VERTEX
  5
282
  8
0
  6
CONTINUOUS
 62
     7
 10
100.6669352282
 20
142.0206563339
 30
0.0
  0
VERTEX
  5
283
  8
0
  6
CONTINUOUS
 62
     7
 10
100.7234073464
 20
142.2439704066
 30
0.0
  0
VERTEX
  5
284
  8
0
  6
CONTINUOUS
 62
     7
 10
100.9103946305
 20
142.446540215
 30
0.0
  0
VERTEX
  5
285
  8
0
  6
CONTINUOUS
 62
     7
 10
100.9532266395
 20
142.4768468465
 30
0.0
  0
SEQEND
  5
4E1
  8
0
  6
CONTINUOUS
 62
     7
  0
ARC
  5
BB
  8
0
  6
CONTINUOUS
 62
     7
 10
102.6660181704
 20
142.0374994261
 30
0.0
 40
0.5203292666882782
 50
353.3253180042
 51
63.8344723953
  0
POLYLINE
  5
BC
  8
0
  6
CONTINUOUS
 62
     7
 66
     1
 10
0.0
 20
0.0
 30
0.0
  0
VERTEX
  5
286
  8
0
  6
CONTINUOUS
 62
     7
 10
102.929686683
 20
142.2056410839
 30
0.0
  0
VERTEX
  5
287
  8
0
  6
CONTINUOUS
 62
     7
 10
102.9101384732
 20
142.4058725259
 30
0.0
  0
VERTEX
  5
288
  8
0
  6
CONTINUOUS
 62
     7
 10
102.758023561
 20
142.5872718111
 30
0.0
  0
VERTEX
  5
289
  8
0
  6
CONTINUOUS
 62
     7
 10
102.4940543986
 20
142.7254481106
 30
0.0
  0
VERTEX
  5
28A
  8
0
  6
CONTINUOUS
 62
     7
 10
102.1538734984
 20
142.8018796734
 30
0.0
  0
VERTEX
  5
28B
  8
0
  6
CONTINUOUS
 62
     7
 10
101.7832442234
 20
142.8063425671
 30
0.0
  0
VERTEX
  5
28C
  8
0
  6
CONTINUOUS
 62
     7
 10
101.4319639351
 20
142.7382402773
 30
0.0
  0
VERTEX
  5
28D
  8
0
  6
CONTINUOUS
 62
     7
 10
101.1472728391
 20
142.6066810397
 30
0.0
  0
VERTEX
  5
28E
  8
0
  6
CONTINUOUS
 62
     7
 10
100.9675791819
 20
142.4292941268
 30
0.0
  0
VERTEX
  5
28F
  8
0
  6
CONTINUOUS
 62
     7
 10
100.9172936051
 20
142.2299209965
 30
0.0
  0
VERTEX
  5
290
  8
0
  6
CONTINUOUS
 62
     7
 10
101.0034587315
 20
142.0354557581
 30
0.0
  0
VERTEX
  5
291
  8
0
  6
CONTINUOUS
 62
     7
 10
101.2146670418
 20
141.8722301134
 30
0.0
  0
VERTEX
  5
292
  8
0
  6
CONTINUOUS
 62
     7
 10
101.522481352
 20
141.7624217711
 30
0.0
  0
VERTEX
  5
293
  8
0
  6
CONTINUOUS
 62
     7
 10
101.8852291564
 20
141.720989625
 30
0.0
  0
VERTEX
  5
294
  8
0
  6
CONTINUOUS
 62
     7
 10
102.2536830861
 20
141.753586035
 30
0.0
  0
VERTEX
  5
295
  8
0
  6
CONTINUOUS
 62
     7
 10
102.5778330775
 20
141.8557636765
 30
0.0
  0
VERTEX
  5
296
  8
0
  6
CONTINUOUS
 62
     7
 10
102.8137705857
 20
142.0135997949
 30
0.0
  0
VERTEX
  5
297
  8
0
  6
CONTINUOUS
 62
     7
 10
102.929686683
 20
142.2056410839
 30
0.0
  0
SEQEND
  5
4E0
  8
0
  6
CONTINUOUS
 62
     7
  0
LINE
  5
BD
  8
0
  6
CONTINUOUS
 62
     7
 10
103.573728641
 20
108.3819949492
 30
0.0
 11
103.5840692041
 21
108.4823277624
 31
0.0
  0
POLYLINE
  5
BE
  8
0
  6
CONTINUOUS
 62
     7
 66
     1
 10
0.0
 20
0.0
 30
0.0
  0
VERTEX
  5
298
  8
0
  6
CONTINUOUS
 62
     7
 10
101.1625002367
 20
108.4438922824
 30
0.0
  0
VERTEX
  5
299
  8
0
  6
CONTINUOUS
 62
     7
 10
101.1629970885
 20
108.4285230971
 30
0.0
  0
VERTEX
  5
29A
  8
0
  6
CONTINUOUS
 62
     7
 10
101.2404298163
 20
108.1940573699
 30
0.0
  0
VERTEX
  5
29B
  8
0
  6
CONTINUOUS
 62
     7
 10
101.440908717
 20
107.9887270267
 30
0.0
  0
VERTEX
  5
29C
  8
0
  6
CONTINUOUS
 62
     7
 10
101.7428388078
 20
107.8349276159
 30
0.0
  0
VERTEX
  5
29D
  8
0
  6
CONTINUOUS
 62
     7
 10
102.1134572087
 20
107.7494865277
 30
0.0
  0
VERTEX
  5
29E
  8
0
  6
CONTINUOUS
 62
     7
 10
102.5124018196
 20
107.741771373
 30
0.0
  0
VERTEX
  5
29F
  8
0
  6
CONTINUOUS
 62
     7
 10
102.8961697006
 20
107.8126287101
 30
0.0
  0
VERTEX
  5
2A0
  8
0
  6
CONTINUOUS
 62
     7
 10
103.2229461566
 20
107.9542878464
 30
0.0
  0
VERTEX
  5
2A1
  8
0
  6
CONTINUOUS
 62
     7
 10
103.4572322907
 20
108.1512420514
 30
0.0
  0
VERTEX
  5
2A2
  8
0
  6
CONTINUOUS
 62
     7
 10
103.573728641
 20
108.3819949492
 30
0.0
  0
SEQEND
  5
4DF
  8
0
  6
CONTINUOUS
 62
     7
  0
ARC
  5
BF
  8
0
  6
CONTINUOUS
 62
     7
 10
102.3613172564
 20
109.1115812183
 30
0.0
 40
1.43117354830452
 50
244.2010413358
 51
297.6210768217
  0
POLYLINE
  5
C0
  8
0
  6
CONTINUOUS
 62
     7
 66
     1
 10
0.0
 20
0.0
 30
0.0
  0
VERTEX
  5
2A3
  8
0
  6
CONTINUOUS
 62
     7
 10
122.0728912912
 20
169.8559689687
 30
0.0
  0
VERTEX
  5
2A4
  8
0
  6
CONTINUOUS
 62
     7
 10
122.0126463222
 20
169.81100849
 30
0.0
  0
VERTEX
  5
2A5
  8
0
  6
CONTINUOUS
 62
     7
 10
121.9612240882
 20
169.742908692
 30
0.0
  0
VERTEX
  5
2A6
  8
0
  6
CONTINUOUS
 62
     7
 10
121.9264625429
 20
169.6620453371
 30
0.0
  0
VERTEX
  5
2A7
  8
0
  6
CONTINUOUS
 62
     7
 10
121.9136585605
 20
169.5807422225
 30
0.0
  0
VERTEX
  5
2A8
  8
0
  6
CONTINUOUS
 62
     7
 10
121.9247587541
 20
169.5113873231
 30
0.0
  0
VERTEX
  5
2A9
  8
0
  6
CONTINUOUS
 62
     7
 10
121.9580646928
 20
169.4645407913
 30
0.0
  0
VERTEX
  5
2AA
  8
0
  6
CONTINUOUS
 62
     7
 10
121.972390289
 20
169.45571765
 30
0.0
  0
SEQEND
  5
4DE
  8
0
  6
CONTINUOUS
 62
     7
  0
POLYLINE
  5
C1
  8
0
  6
CONTINUOUS
 62
     7
 66
     1
 10
0.0
 20
0.0
 30
0.0
  0
VERTEX
  5
2AB
  8
0
  6
CONTINUOUS
 62
     7
 10
122.1687279867
 20
169.8625834838
 30
0.0
  0
VERTEX
  5
2AC
  8
0
  6
CONTINUOUS
 62
     7
 10
122.1327787216
 20
169.8709468131
 30
0.0
  0
VERTEX
  5
2AD
  8
0
  6
CONTINUOUS
 62
     7
 10
122.0728912912
 20
169.8559689687
 30
0.0
  0
SEQEND
  5
4DD
  8
0
  6
CONTINUOUS
 62
     7
  0
POLYLINE
  5
C2
  8
0
  6
CONTINUOUS
 62
     7
 66
     1
 10
0.0
 20
0.0
 30
0.0
  0
VERTEX
  5
2AE
  8
0
  6
CONTINUOUS
 62
     7
 10
131.9041860488
 20
166.3657593563
 30
0.0
  0
VERTEX
  5
2AF
  8
0
  6
CONTINUOUS
 62
     7
 10
131.9679346809
 20
166.3198885768
 30
0.0
  0
VERTEX
  5
2B0
  8
0
  6
CONTINUOUS
 62
     7
 10
132.0212753403
 20
166.2507567159
 30
0.0
  0
VERTEX
  5
2B1
  8
0
  6
CONTINUOUS
 62
     7
 10
132.0560773794
 20
166.168896918
 30
0.0
  0
VERTEX
  5
2B2
  8
0
  6
CONTINUOUS
 62
     7
 10
132.0670377672
 20
166.0867850044
 30
0.0
  0
VERTEX
  5
2B3
  8
0
  6
CONTINUOUS
 62
     7
 10
132.0524912032
 20
166.0169322816
 30
0.0
  0
VERTEX
  5
2B4
  8
0
  6
CONTINUOUS
 62
     7
 10
132.0146616969
 20
165.9699746482
 30
0.0
  0
VERTEX
  5
2B5
  8
0
  6
CONTINUOUS
 62
     7
 10
132.0045036528
 20
165.9639044931
 30
0.0
  0
SEQEND
  5
4DC
  8
0
  6
CONTINUOUS
 62
     7
  0
POLYLINE
  5
C3
  8
0
  6
CONTINUOUS
 62
     7
 66
     1
 10
0.0
 20
0.0
 30
0.0
  0
VERTEX
  5
2B6
  8
0
  6
CONTINUOUS
 62
     7
 10
131.7947367569
 20
166.3705694713
 30
0.0
  0
VERTEX
  5
2B7
  8
0
  6
CONTINUOUS
 62
     7
 10
131.8397440185
 20
166.3813871118
 30
0.0
  0
VERTEX
  5
2B8
  8
0
  6
CONTINUOUS
 62
     7
 10
131.9041860488
 20
166.3657593563
 30
0.0
  0
SEQEND
  5
4DB
  8
0
  6
CONTINUOUS
 62
     7
  0
POLYLINE
  5
C4
  8
0
  6
CONTINUOUS
 62
     7
 66
     1
 10
0.0
 20
0.0
 30
0.0
  0
VERTEX
  5
2B9
  8
0
  6
CONTINUOUS
 62
     7
 10
132.4957067975
 20
167.6556741529
 30
0.0
  0
VERTEX
  5
2BA
  8
0
  6
CONTINUOUS
 62
     7
 10
132.5891031611
 20
167.6908352935
 30
0.0
  0
VERTEX
  5
2BB
  8
0
  6
CONTINUOUS
 62
     7
 10
132.8560023879
 20
167.6862799682
 30
0.0
  0
VERTEX
  5
2BC
  8
0
  6
CONTINUOUS
 62
     7
 10
133.1393548949
 20
167.5512333961
 30
0.0
  0
VERTEX
  5
2BD
  8
0
  6
CONTINUOUS
 62
     7
 10
133.4007696524
 20
167.3038183713
 30
0.0
  0
VERTEX
  5
2BE
  8
0
  6
CONTINUOUS
 62
     7
 10
133.6047544199
 20
166.9775056444
 30
0.0
  0
VERTEX
  5
2BF
  8
0
  6
CONTINUOUS
 62
     7
 10
133.7236069234
 20
166.6165644159
 30
0.0
  0
VERTEX
  5
2C0
  8
0
  6
CONTINUOUS
 62
     7
 10
133.7412363777
 20
166.2699794036
 30
0.0
  0
VERTEX
  5
2C1
  8
0
  6
CONTINUOUS
 62
     7
 10
133.6553570391
 20
165.9847107389
 30
0.0
  0
VERTEX
  5
2C2
  8
0
  6
CONTINUOUS
 62
     7
 10
133.4777468912
 20
165.7992724084
 30
0.0
  0
VERTEX
  5
2C3
  8
0
  6
CONTINUOUS
 62
     7
 10
133.4587541436
 20
165.7888409849
 30
0.0
  0
SEQEND
  5
4DA
  8
0
  6
CONTINUOUS
 62
     7
  0
POLYLINE
  5
C5
  8
0
  6
CONTINUOUS
 62
     7
 66
     1
 10
0.0
 20
0.0
 30
0.0
  0
VERTEX
  5
2C4
  8
0
  6
CONTINUOUS
 62
     7
 10
133.2468719895
 20
167.7620870999
 30
0.0
  0
VERTEX
  5
2C5
  8
0
  6
CONTINUOUS
 62
     7
 10
132.9669636456
 20
167.8329676334
 30
0.0
  0
VERTEX
  5
2C6
  8
0
  6
CONTINUOUS
 62
     7
 10
132.7445054302
 20
167.7832721387
 30
0.0
  0
SEQEND
  5
4D9
  8
0
  6
CONTINUOUS
 62
     7
  0
POLYLINE
  5
C6
  8
0
  6
CONTINUOUS
 62
     7
 66
     1
 10
0.0
 20
0.0
 30
0.0
  0
VERTEX
  5
2C7
  8
0
  6
CONTINUOUS
 62
     7
 10
133.7071180886
 20
165.9173231755
 30
0.0
  0
VERTEX
  5
2C8
  8
0
  6
CONTINUOUS
 62
     7
 10
133.8251678403
 20
166.00607801
 30
0.0
  0
VERTEX
  5
2C9
  8
0
  6
CONTINUOUS
 62
     7
 10
133.9593015551
 20
166.2454577401
 30
0.0
  0
VERTEX
  5
2CA
  8
0
  6
CONTINUOUS
 62
     7
 10
133.9941324795
 20
166.5667736407
 30
0.0
  0
VERTEX
  5
2CB
  8
0
  6
CONTINUOUS
 62
     7
 10
133.9248091801
 20
166.9265558507
 30
0.0
  0
VERTEX
  5
2CC
  8
0
  6
CONTINUOUS
 62
     7
 10
133.7606639854
 20
167.2760050458
 30
0.0
  0
VERTEX
  5
2CD
  8
0
  6
CONTINUOUS
 62
     7
 10
133.5239685404
 20
167.5676922896
 30
0.0
  0
VERTEX
  5
2CE
  8
0
  6
CONTINUOUS
 62
     7
 10
133.2468719895
 20
167.7620870999
 30
0.0
  0
SEQEND
  5
4D8
  8
0
  6
CONTINUOUS
 62
     7
  0
POLYLINE
  5
C7
  8
0
  6
CONTINUOUS
 62
     7
 66
     1
 10
0.0
 20
0.0
 30
0.0
  0
VERTEX
  5
2CF
  8
0
  6
CONTINUOUS
 62
     7
 10
133.1172661615
 20
167.9744448873
 30
0.0
  0
VERTEX
  5
2D0
  8
0
  6
CONTINUOUS
 62
     7
 10
133.2107116722
 20
168.00964616
 30
0.0
  0
VERTEX
  5
2D1
  8
0
  6
CONTINUOUS
 62
     7
 10
133.4776760384
 20
168.0052900929
 30
0.0
  0
VERTEX
  5
2D2
  8
0
  6
CONTINUOUS
 62
     7
 10
133.7610043573
 20
167.8705601128
 30
0.0
  0
VERTEX
  5
2D3
  8
0
  6
CONTINUOUS
 62
     7
 10
134.0223088952
 20
167.6235363961
 30
0.0
  0
VERTEX
  5
2D4
  8
0
  6
CONTINUOUS
 62
     7
 10
134.2261125091
 20
167.2976365975
 30
0.0
  0
VERTEX
  5
2D5
  8
0
  6
CONTINUOUS
 62
     7
 10
134.3447376732
 20
166.9370736438
 30
0.0
  0
VERTEX
  5
2D6
  8
0
  6
CONTINUOUS
 62
     7
 10
134.3621245109
 20
166.5907806656
 30
0.0
  0
VERTEX
  5
2D7
  8
0
  6
CONTINUOUS
 62
     7
 10
134.2760200659
 20
166.3056781238
 30
0.0
  0
VERTEX
  5
2D8
  8
0
  6
CONTINUOUS
 62
     7
 10
134.0982325492
 20
166.1202577274
 30
0.0
  0
VERTEX
  5
2D9
  8
0
  6
CONTINUOUS
 62
     7
 10
134.0792275225
 20
166.1098206622
 30
0.0
  0
SEQEND
  5
4D7
  8
0
  6
CONTINUOUS
 62
     7
  0
POLYLINE
  5
C8
  8
0
  6
CONTINUOUS
 62
     7
 66
     1
 10
0.0
 20
0.0
 30
0.0
  0
VERTEX
  5
2DA
  8
0
  6
CONTINUOUS
 62
     7
 10
133.8679615525
 20
168.0809437678
 30
0.0
  0
VERTEX
  5
2DB
  8
0
  6
CONTINUOUS
 62
     7
 10
133.5880327153
 20
168.1515623648
 30
0.0
  0
VERTEX
  5
2DC
  8
0
  6
CONTINUOUS
 62
     7
 10
133.365482315
 20
168.1017441448
 30
0.0
  0
SEQEND
  5
4D6
  8
0
  6
CONTINUOUS
 62
     7
  0
POLYLINE
  5
C9
  8
0
  6
CONTINUOUS
 62
     7
 66
     1
 10
0.0
 20
0.0
 30
0.0
  0
VERTEX
  5
2DD
  8
0
  6
CONTINUOUS
 62
     7
 10
134.3270099664
 20
166.2380020339
 30
0.0
  0
VERTEX
  5
2DE
  8
0
  6
CONTINUOUS
 62
     7
 10
134.445152735
 20
166.3267725529
 30
0.0
  0
VERTEX
  5
2DF
  8
0
  6
CONTINUOUS
 62
     7
 10
134.5794906098
 20
166.566058617
 30
0.0
  0
VERTEX
  5
2E0
  8
0
  6
CONTINUOUS
 62
     7
 10
134.614558951
 20
166.8871415496
 30
0.0
  0
VERTEX
  5
2E1
  8
0
  6
CONTINUOUS
 62
     7
 10
134.5454743436
 20
167.2465829915
 30
0.0
  0
VERTEX
  5
2E2
  8
0
  6
CONTINUOUS
 62
     7
 10
134.3815367589
 20
167.5956300315
 30
0.0
  0
VERTEX
  5
2E3
  8
0
  6
CONTINUOUS
 62
     7
 10
134.1449895417
 20
167.8869085846
 30
0.0
  0
VERTEX
  5
2E4
  8
0
  6
CONTINUOUS
 62
     7
 10
133.8679615525
 20
168.0809437678
 30
0.0
  0
SEQEND
  5
4D5
  8
0
  6
CONTINUOUS
 62
     7
  0
POLYLINE
  5
CA
  8
0
  6
CONTINUOUS
 62
     7
 66
     1
 10
0.0
 20
0.0
 30
0.0
  0
VERTEX
  5
2E5
  8
0
  6
CONTINUOUS
 62
     7
 10
133.7373708614
 20
168.2924695878
 30
0.0
  0
VERTEX
  5
2E6
  8
0
  6
CONTINUOUS
 62
     7
 10
133.8308650333
 20
168.3277107085
 30
0.0
  0
VERTEX
  5
2E7
  8
0
  6
CONTINUOUS
 62
     7
 10
134.0978935023
 20
168.3235529795
 30
0.0
  0
VERTEX
  5
2E8
  8
0
  6
CONTINUOUS
 62
     7
 10
134.3811969686
 20
168.1891384794
 30
0.0
  0
VERTEX
  5
2E9
  8
0
  6
CONTINUOUS
 62
     7
 10
134.6423910853
 20
167.9425049171
 30
0.0
  0
VERTEX
  5
2EA
  8
0
  6
CONTINUOUS
 62
     7
 10
134.8460138339
 20
167.6170170086
 30
0.0
  0
VERTEX
  5
2EB
  8
0
  6
CONTINUOUS
 62
     7
 10
134.9644123973
 20
167.2568315489
 30
0.0
  0
VERTEX
  5
2EC
  8
0
  6
CONTINUOUS
 62
     7
 10
134.9815577066
 20
166.9108301888
 30
0.0
  0
VERTEX
  5
2ED
  8
0
  6
CONTINUOUS
 62
     7
 10
134.8952294449
 20
166.6258937747
 30
0.0
  0
VERTEX
  5
2EE
  8
0
  6
CONTINUOUS
 62
     7
 10
134.7172658763
 20
166.4404917368
 30
0.0
  0
VERTEX
  5
2EF
  8
0
  6
CONTINUOUS
 62
     7
 10
134.6982486801
 20
166.4300490847
 30
0.0
  0
SEQEND
  5
4D4
  8
0
  6
CONTINUOUS
 62
     7
  0
POLYLINE
  5
CB
  8
0
  6
CONTINUOUS
 62
     7
 66
     1
 10
0.0
 20
0.0
 30
0.0
  0
VERTEX
  5
2F0
  8
0
  6
CONTINUOUS
 62
     7
 10
134.4875965913
 20
168.3990537081
 30
0.0
  0
VERTEX
  5
2F1
  8
0
  6
CONTINUOUS
 62
     7
 10
134.2076481239
 20
168.4694114
 30
0.0
  0
VERTEX
  5
2F2
  8
0
  6
CONTINUOUS
 62
     7
 10
133.9850065787
 20
168.4194711649
 30
0.0
  0
SEQEND
  5
4D3
  8
0
  6
CONTINUOUS
 62
     7
  0
POLYLINE
  5
CC
  8
0
  6
CONTINUOUS
 62
     7
 66
     1
 10
0.0
 20
0.0
 30
0.0
  0
VERTEX
  5
2F3
  8
0
  6
CONTINUOUS
 62
     7
 10
134.9454516626
 20
166.5579306929
 30
0.0
  0
VERTEX
  5
2F4
  8
0
  6
CONTINUOUS
 62
     7
 10
135.06368669
 20
166.64671658
 30
0.0
  0
VERTEX
  5
2F5
  8
0
  6
CONTINUOUS
 62
     7
 10
135.1982274019
 20
166.8859087605
 30
0.0
  0
VERTEX
  5
2F6
  8
0
  6
CONTINUOUS
 62
     7
 10
135.2335319529
 20
167.2067589344
 30
0.0
  0
VERTEX
  5
2F7
  8
0
  6
CONTINUOUS
 62
     7
 10
135.1646851099
 20
167.5658602165
 30
0.0
  0
VERTEX
  5
2F8
  8
0
  6
CONTINUOUS
 62
     7
 10
135.0009546134
 20
167.9145060257
 30
0.0
  0
VERTEX
  5
2F9
  8
0
  6
CONTINUOUS
 62
     7
 10
134.7645555795
 20
168.2053770015
 30
0.0
  0
VERTEX
  5
2FA
  8
0
  6
CONTINUOUS
 62
     7
 10
134.4875965913
 20
168.3990537081
 30
0.0
  0
SEQEND
  5
4D2
  8
0
  6
CONTINUOUS
 62
     7
  0
POLYLINE
  5
CD
  8
0
  6
CONTINUOUS
 62
     7
 66
     1
 10
0.0
 20
0.0
 30
0.0
  0
VERTEX
  5
2FB
  8
0
  6
CONTINUOUS
 62
     7
 10
134.5555273804
 20
168.712066443
 30
0.0
  0
VERTEX
  5
2FC
  8
0
  6
CONTINUOUS
 62
     7
 10
134.6490851886
 20
168.7473598478
 30
0.0
  0
VERTEX
  5
2FD
  8
0
  6
CONTINUOUS
 62
     7
 10
134.9161968826
 20
168.7434631094
 30
0.0
  0
VERTEX
  5
2FE
  8
0
  6
CONTINUOUS
 62
     7
 10
135.1994664568
 20
168.6094642817
 30
0.0
  0
VERTEX
  5
2FF
  8
0
  6
CONTINUOUS
 62
     7
 10
135.4605141829
 20
168.3633451196
 30
0.0
  0
VERTEX
  5
300
  8
0
  6
CONTINUOUS
 62
     7
 10
135.6638980934
 20
168.0384005427
 30
0.0
  0
VERTEX
  5
301
  8
0
  6
CONTINUOUS
 62
     7
 10
135.781997999
 20
167.6787133025
 30
0.0
  0
VERTEX
  5
302
  8
0
  6
CONTINUOUS
 62
     7
 10
135.7988254349
 20
167.3330971071
 30
0.0
  0
VERTEX
  5
303
  8
0
  6
CONTINUOUS
 62
     7
 10
135.7122030388
 20
167.0483804811
 30
0.0
  0
VERTEX
  5
304
  8
0
  6
CONTINUOUS
 62
     7
 10
135.5340085683
 20
166.8630033778
 30
0.0
  0
VERTEX
  5
305
  8
0
  6
CONTINUOUS
 62
     7
 10
135.5149754392
 20
166.8525534183
 30
0.0
  0
SEQEND
  5
4D1
  8
0
  6
CONTINUOUS
 62
     7
  0
POLYLINE
  5
CE
  8
0
  6
CONTINUOUS
 62
     7
 66
     1
 10
0.0
 20
0.0
 30
0.0
  0
VERTEX
  5
306
  8
0
  6
CONTINUOUS
 62
     7
 10
135.3051319803
 20
168.8187622744
 30
0.0
  0
VERTEX
  5
307
  8
0
  6
CONTINUOUS
 62
     7
 10
135.0251588587
 20
168.8887763717
 30
0.0
  0
VERTEX
  5
308
  8
0
  6
CONTINUOUS
 62
     7
 10
134.8023983184
 20
168.838675798
 30
0.0
  0
SEQEND
  5
4D0
  8
0
  6
CONTINUOUS
 62
     7
  0
POLYLINE
  5
CF
  8
0
  6
CONTINUOUS
 62
     7
 66
     1
 10
0.0
 20
0.0
 30
0.0
  0
VERTEX
  5
309
  8
0
  6
CONTINUOUS
 62
     7
 10
135.761414927
 20
166.9800400599
 30
0.0
  0
VERTEX
  5
30A
  8
0
  6
CONTINUOUS
 62
     7
 10
135.8797708531
 20
167.0688457962
 30
0.0
  0
VERTEX
  5
30B
  8
0
  6
CONTINUOUS
 62
     7
 10
136.0145778938
 20
167.3079134404
 30
0.0
  0
VERTEX
  5
30C
  8
0
  6
CONTINUOUS
 62
     7
 10
136.0501931008
 20
167.6284560028
 30
0.0
  0
VERTEX
  5
30D
  8
0
  6
CONTINUOUS
 62
     7
 10
135.9816593966
 20
167.9871081943
 30
0.0
  0
VERTEX
  5
30E
  8
0
  6
CONTINUOUS
 62
     7
 10
135.8182020742
 20
168.3352245999
 30
0.0
  0
VERTEX
  5
30F
  8
0
  6
CONTINUOUS
 62
     7
 10
135.5819990133
 20
168.6255580643
 30
0.0
  0
VERTEX
  5
310
  8
0
  6
CONTINUOUS
 62
     7
 10
135.3051319803
 20
168.8187622744
 30
0.0
  0
SEQEND
  5
4CF
  8
0
  6
CONTINUOUS
 62
     7
  0
LINE
  5
D0
  8
0
  6
CONTINUOUS
 62
     7
 10
136.7433197546
 20
168.9171042711
 30
0.0
 11
136.7472867752
 21
168.9190320003
 31
0.0
  0
POLYLINE
  5
D1
  8
0
  6
CONTINUOUS
 62
     7
 66
     1
 10
0.0
 20
0.0
 30
0.0
  0
VERTEX
  5
311
  8
0
  6
CONTINUOUS
 62
     7
 10
128.8922173863
 20
173.2581852388
 30
0.0
  0
VERTEX
  5
312
  8
0
  6
CONTINUOUS
 62
     7
 10
128.9504810247
 20
173.272540768
 30
0.0
  0
VERTEX
  5
313
  8
0
  6
CONTINUOUS
 62
     7
 10
128.9834420618
 20
173.2648599692
 30
0.0
  0
SEQEND
  5
4CE
  8
0
  6
CONTINUOUS
 62
     7
  0
POLYLINE
  5
D2
  8
0
  6
CONTINUOUS
 62
     7
 66
     1
 10
0.0
 20
0.0
 30
0.0
  0
VERTEX
  5
314
  8
0
  6
CONTINUOUS
 62
     7
 10
128.7932026985
 20
172.8612419958
 30
0.0
  0
VERTEX
  5
315
  8
0
  6
CONTINUOUS
 62
     7
 10
128.7774965595
 20
172.8710210882
 30
0.0
  0
VERTEX
  5
316
  8
0
  6
CONTINUOUS
 62
     7
 10
128.7455514254
 20
172.9177471647
 30
0.0
  0
VERTEX
  5
317
  8
0
  6
CONTINUOUS
 62
     7
 10
128.7353505362
 20
172.9866069845
 30
0.0
  0
VERTEX
  5
318
  8
0
  6
CONTINUOUS
 62
     7
 10
128.7484550464
 20
173.0671157281
 30
0.0
  0
VERTEX
  5
319
  8
0
  6
CONTINUOUS
 62
     7
 10
128.7828723949
 20
173.1470065507
 30
0.0
  0
VERTEX
  5
31A
  8
0
  6
CONTINUOUS
 62
     7
 10
128.8333581978
 20
173.2141040275
 30
0.0
  0
VERTEX
  5
31B
  8
0
  6
CONTINUOUS
 62
     7
 10
128.8922173863
 20
173.2581852388
 30
0.0
  0
SEQEND
  5
4CD
  8
0
  6
CONTINUOUS
 62
     7
  0
POLYLINE
  5
D3
  8
0
  6
CONTINUOUS
 62
     7
 66
     1
 10
0.0
 20
0.0
 30
0.0
  0
VERTEX
  5
31C
  8
0
  6
CONTINUOUS
 62
     7
 10
107.5212569168
 20
164.4194343535
 30
0.0
  0
VERTEX
  5
31D
  8
0
  6
CONTINUOUS
 62
     7
 10
107.6589213111
 20
164.373148427
 30
0.0
  0
VERTEX
  5
31E
  8
0
  6
CONTINUOUS
 62
     7
 10
107.8220227593
 20
164.356891279
 30
0.0
  0
VERTEX
  5
31F
  8
0
  6
CONTINUOUS
 62
     7
 10
107.9856799827
 20
164.373148427
 30
0.0
  0
VERTEX
  5
320
  8
0
  6
CONTINUOUS
 62
     7
 10
108.1249267313
 20
164.4194343535
 30
0.0
  0
VERTEX
  5
321
  8
0
  6
CONTINUOUS
 62
     7
 10
108.21854254
 20
164.4886770764
 30
0.0
  0
VERTEX
  5
322
  8
0
  6
CONTINUOUS
 62
     7
 10
108.2522958843
 20
164.5703096796
 30
0.0
  0
VERTEX
  5
323
  8
0
  6
CONTINUOUS
 62
     7
 10
108.221098665
 20
164.6518938786
 30
0.0
  0
VERTEX
  5
324
  8
0
  6
CONTINUOUS
 62
     7
 10
108.1297511903
 20
164.7210197434
 30
0.0
  0
VERTEX
  5
325
  8
0
  6
CONTINUOUS
 62
     7
 10
107.992181634
 20
164.7671888118
 30
0.0
  0
VERTEX
  5
326
  8
0
  6
CONTINUOUS
 62
     7
 10
107.8293131398
 20
164.7833975556
 30
0.0
  0
VERTEX
  5
327
  8
0
  6
CONTINUOUS
 62
     7
 10
107.6658905253
 20
164.7671888118
 30
0.0
  0
VERTEX
  5
328
  8
0
  6
CONTINUOUS
 62
     7
 10
107.5267426096
 20
164.7210197434
 30
0.0
  0
VERTEX
  5
329
  8
0
  6
CONTINUOUS
 62
     7
 10
107.4330319629
 20
164.6518938786
 30
0.0
  0
VERTEX
  5
32A
  8
0
  6
CONTINUOUS
 62
     7
 10
107.3990456646
 20
164.5703096796
 30
0.0
  0
VERTEX
  5
32B
  8
0
  6
CONTINUOUS
 62
     7
 10
107.4300082751
 20
164.4886770764
 30
0.0
  0
VERTEX
  5
32C
  8
0
  6
CONTINUOUS
 62
     7
 10
107.5212569168
 20
164.4194343535
 30
0.0
  0
SEQEND
  5
4CC
  8
0
  6
CONTINUOUS
 62
     7
  0
POLYLINE
  5
D4
  8
0
  6
CONTINUOUS
 62
     7
 66
     1
 10
0.0
 20
0.0
 30
0.0
  0
VERTEX
  5
32D
  8
0
  6
CONTINUOUS
 62
     7
 10
100.7386676571
 20
161.0578089195
 30
0.0
  0
VERTEX
  5
32E
  8
0
  6
CONTINUOUS
 62
     7
 10
101.0807797799
 20
160.9322325256
 30
0.0
  0
VERTEX
  5
32F
  8
0
  6
CONTINUOUS
 62
     7
 10
101.4874809635
 20
160.8705271331
 30
0.0
  0
VERTEX
  5
330
  8
0
  6
CONTINUOUS
 62
     7
 10
101.9144422033
 20
160.8794655578
 30
0.0
  0
VERTEX
  5
331
  8
0
  6
CONTINUOUS
 62
     7
 10
102.3150853262
 20
160.9580661803
 30
0.0
  0
VERTEX
  5
332
  8
0
  6
CONTINUOUS
 62
     7
 10
102.6457619744
 20
161.097704845
 30
0.0
  0
VERTEX
  5
333
  8
0
  6
CONTINUOUS
 62
     7
 10
102.8705819159
 20
161.2830946592
 30
0.0
  0
VERTEX
  5
334
  8
0
  6
CONTINUOUS
 62
     7
 10
102.9653257154
 20
161.4940081657
 30
0.0
  0
VERTEX
  5
335
  8
0
  6
CONTINUOUS
 62
     7
 10
102.9200081978
 20
161.70752734
 30
0.0
  0
VERTEX
  5
336
  8
0
  6
CONTINUOUS
 62
     7
 10
102.7398412724
 20
161.9005531034
 30
0.0
  0
VERTEX
  5
337
  8
0
  6
CONTINUOUS
 62
     7
 10
102.4445424124
 20
162.0522916959
 30
0.0
  0
VERTEX
  5
338
  8
0
  6
CONTINUOUS
 62
     7
 10
102.0661169594
 20
162.1464558215
 30
0.0
  0
VERTEX
  5
339
  8
0
  6
CONTINUOUS
 62
     7
 10
101.6453881556
 20
162.1729641037
 30
0.0
  0
VERTEX
  5
33A
  8
0
  6
CONTINUOUS
 62
     7
 10
101.2276512188
 20
162.1289821092
 30
0.0
  0
VERTEX
  5
33B
  8
0
  6
CONTINUOUS
 62
     7
 10
100.8578896647
 20
162.0192135337
 30
0.0
  0
VERTEX
  5
33C
  8
0
  6
CONTINUOUS
 62
     7
 10
100.5760201958
 20
161.8554166222
 30
0.0
  0
VERTEX
  5
33D
  8
0
  6
CONTINUOUS
 62
     7
 10
100.4126315152
 20
161.6551873766
 30
0.0
  0
VERTEX
  5
33E
  8
0
  6
CONTINUOUS
 62
     7
 10
100.385651661
 20
161.4401175026
 30
0.0
  0
VERTEX
  5
33F
  8
0
  6
CONTINUOUS
 62
     7
 10
100.4983120571
 20
161.2334995607
 30
0.0
  0
VERTEX
  5
340
  8
0
  6
CONTINUOUS
 62
     7
 10
100.7386676571
 20
161.0578089195
 30
0.0
  0
SEQEND
  5
4CB
  8
0
  6
CONTINUOUS
 62
     7
  0
POLYLINE
  5
D5
  8
0
  6
CONTINUOUS
 62
     7
 66
     1
 10
0.0
 20
0.0
 30
0.0
  0
VERTEX
  5
341
  8
0
  6
CONTINUOUS
 62
     7
 10
113.2550387117
 20
169.3183391978
 30
0.0
  0
VERTEX
  5
342
  8
0
  6
CONTINUOUS
 62
     7
 10
112.1513633283
 20
169.5843286902
 30
0.0
  0
VERTEX
  5
343
  8
0
  6
CONTINUOUS
 62
     7
 10
110.9955795773
 20
169.787238703
 30
0.0
  0
VERTEX
  5
344
  8
0
  6
CONTINUOUS
 62
     7
 10
109.8016845844
 20
169.9247738613
 30
0.0
  0
VERTEX
  5
345
  8
0
  6
CONTINUOUS
 62
     7
 10
108.584051404
 20
169.9953845553
 30
0.0
  0
VERTEX
  5
346
  8
0
  6
CONTINUOUS
 62
     7
 10
107.3572861803
 20
169.9982771661
 30
0.0
  0
VERTEX
  5
347
  8
0
  6
CONTINUOUS
 62
     7
 10
106.1360854762
 20
169.9334192106
 30
0.0
  0
VERTEX
  5
348
  8
0
  6
CONTINUOUS
 62
     7
 10
104.9350936226
 20
169.8015395516
 30
0.0
  0
VERTEX
  5
349
  8
0
  6
CONTINUOUS
 62
     7
 10
103.768759895
 20
169.6041236761
 30
0.0
  0
VERTEX
  5
34A
  8
0
  6
CONTINUOUS
 62
     7
 10
102.6511953574
 20
169.3434039121
 30
0.0
  0
VERTEX
  5
34B
  8
0
  6
CONTINUOUS
 62
     7
 10
101.5960293239
 20
169.022344316
 30
0.0
  0
VERTEX
  5
34C
  8
0
  6
CONTINUOUS
 62
     7
 10
100.6162655776
 20
168.6446198507
 30
0.0
  0
VERTEX
  5
34D
  8
0
  6
CONTINUOUS
 62
     7
 10
99.724138736
 20
168.2145893815
 30
0.0
  0
VERTEX
  5
34E
  8
0
  6
CONTINUOUS
 62
     7
 10
98.9309714704
 20
167.7372619531
 30
0.0
  0
VERTEX
  5
34F
  8
0
  6
CONTINUOUS
 62
     7
 10
98.247033646
 20
167.2182557899
 30
0.0
  0
VERTEX
  5
350
  8
0
  6
CONTINUOUS
 62
     7
 10
97.681404846
 20
166.6637494818
 30
0.0
  0
VERTEX
  5
351
  8
0
  6
CONTINUOUS
 62
     7
 10
97.241842151
 20
166.0804248899
 30
0.0
  0
VERTEX
  5
352
  8
0
  6
CONTINUOUS
 62
     7
 10
96.9346554497
 20
165.4754014285
 30
0.0
  0
VERTEX
  5
353
  8
0
  6
CONTINUOUS
 62
     7
 10
96.764592924
 20
164.8561615608
 30
0.0
  0
VERTEX
  5
354
  8
0
  6
CONTINUOUS
 62
     7
 10
96.7347396674
 20
164.2304675797
 30
0.0
  0
VERTEX
  5
355
  8
0
  6
CONTINUOUS
 62
     7
 10
96.8464326162
 20
163.6062700245
 30
0.0
  0
VERTEX
  5
356
  8
0
  6
CONTINUOUS
 62
     7
 10
97.0991950889
 20
162.9916084097
 30
0.0
  0
VERTEX
  5
357
  8
0
  6
CONTINUOUS
 62
     7
 10
97.4906941971
 20
162.3945052957
 30
0.0
  0
VERTEX
  5
358
  8
0
  6
CONTINUOUS
 62
     7
 10
98.0167242066
 20
161.8228550978
 30
0.0
  0
SEQEND
  5
4CA
  8
0
  6
CONTINUOUS
 62
     7
  0
LINE
  5
D6
  8
0
  6
CONTINUOUS
 62
     7
 10
98.0167242066
 20
161.8228550978
 30
0.0
 11
99.5884061045
 21
162.5959403804
 31
0.0
  0
ARC
  5
D7
  8
0
  6
CONTINUOUS
 62
     7
 10
101.7425277468
 20
157.6578397764
 30
0.0
 40
5.387492703009462
 50
74.8052448174
 51
113.5680205447
  0
LINE
  5
D8
  8
0
  6
CONTINUOUS
 62
     7
 10
103.1545941128
 20
162.8569883801
 30
0.0
 11
104.8614660623
 21
163.7011233599
 31
0.0
  0
POLYLINE
  5
D9
  8
0
  6
CONTINUOUS
 62
     7
 66
     1
 10
0.0
 20
0.0
 30
0.0
  0
VERTEX
  5
359
  8
0
  6
CONTINUOUS
 62
     7
 10
104.8614660623
 20
163.7011233599
 30
0.0
  0
VERTEX
  5
35A
  8
0
  6
CONTINUOUS
 62
     7
 10
104.5807857233
 20
164.0164837358
 30
0.0
  0
VERTEX
  5
35B
  8
0
  6
CONTINUOUS
 62
     7
 10
104.4338551161
 20
164.3538131559
 30
0.0
  0
VERTEX
  5
35C
  8
0
  6
CONTINUOUS
 62
     7
 10
104.4262261621
 20
164.6991756569
 30
0.0
  0
VERTEX
  5
35D
  8
0
  6
CONTINUOUS
 62
     7
 10
104.557694798
 20
165.0384074527
 30
0.0
  0
VERTEX
  5
35E
  8
0
  6
CONTINUOUS
 62
     7
 10
104.8223932368
 20
165.3576984324
 30
0.0
  0
VERTEX
  5
35F
  8
0
  6
CONTINUOUS
 62
     7
 10
105.2091076663
 20
165.6441426358
 30
0.0
  0
VERTEX
  5
360
  8
0
  6
CONTINUOUS
 62
     7
 10
105.7017960701
 20
165.8862378468
 30
0.0
  0
VERTEX
  5
361
  8
0
  6
CONTINUOUS
 62
     7
 10
106.280275901
 20
166.0743186695
 30
0.0
  0
VERTEX
  5
362
  8
0
  6
CONTINUOUS
 62
     7
 10
106.9210489417
 20
166.2009115141
 30
0.0
  0
VERTEX
  5
363
  8
0
  6
CONTINUOUS
 62
     7
 10
107.5982302086
 20
166.2610034572
 30
0.0
  0
VERTEX
  5
364
  8
0
  6
CONTINUOUS
 62
     7
 10
108.2845484306
 20
166.25221982
 30
0.0
  0
VERTEX
  5
365
  8
0
  6
CONTINUOUS
 62
     7
 10
108.9523867008
 20
166.1749075128
 30
0.0
  0
VERTEX
  5
366
  8
0
  6
CONTINUOUS
 62
     7
 10
109.5748327735
 20
166.0321228909
 30
0.0
  0
SEQEND
  5
4C9
  8
0
  6
CONTINUOUS
 62
     7
  0
LINE
  5
DA
  8
0
  6
CONTINUOUS
 62
     7
 10
109.5748327735
 20
166.0321228909
 30
0.0
 11
111.2428420725
 21
166.8570383137
 31
0.0
  0
POLYLINE
  5
DB
  8
0
  6
CONTINUOUS
 62
     7
 66
     1
 10
0.0
 20
0.0
 30
0.0
  0
VERTEX
  5
367
  8
0
  6
CONTINUOUS
 62
     7
 10
111.2428420725
 20
166.8570383137
 30
0.0
  0
VERTEX
  5
368
  8
0
  6
CONTINUOUS
 62
     7
 10
111.052749651
 20
167.0717118605
 30
0.0
  0
VERTEX
  5
369
  8
0
  6
CONTINUOUS
 62
     7
 10
110.9344680241
 20
167.2983765128
 30
0.0
  0
VERTEX
  5
36A
  8
0
  6
CONTINUOUS
 62
     7
 10
110.8908546999
 20
167.531186814
 30
0.0
  0
VERTEX
  5
36B
  8
0
  6
CONTINUOUS
 62
     7
 10
110.9228362692
 20
167.7641687778
 30
0.0
  0
VERTEX
  5
36C
  8
0
  6
CONTINUOUS
 62
     7
 10
111.02940402
 20
167.9913743586
 30
0.0
  0
VERTEX
  5
36D
  8
0
  6
CONTINUOUS
 62
     7
 10
111.2076590579
 20
168.2070321723
 30
0.0
  0
VERTEX
  5
36E
  8
0
  6
CONTINUOUS
 62
     7
 10
111.4529038251
 20
168.4056907872
 30
0.0
  0
VERTEX
  5
36F
  8
0
  6
CONTINUOUS
 62
     7
 10
111.7587759509
 20
168.582351387
 30
0.0
  0
SEQEND
  5
4C8
  8
0
  6
CONTINUOUS
 62
     7
  0
LINE
  5
DC
  8
0
  6
CONTINUOUS
 62
     7
 10
111.7587759509
 20
168.582351387
 30
0.0
 11
113.2550387117
 21
169.3183391978
 31
0.0
  0
POLYLINE
  5
DD
  8
0
  6
CONTINUOUS
 62
     7
 66
     1
 10
0.0
 20
0.0
 30
0.0
  0
VERTEX
  5
370
  8
0
  6
CONTINUOUS
 62
     7
 10
112.9501329351
 20
167.1101247378
 30
0.0
  0
VERTEX
  5
371
  8
0
  6
CONTINUOUS
 62
     7
 10
113.2901950257
 20
166.9899445382
 30
0.0
  0
VERTEX
  5
372
  8
0
  6
CONTINUOUS
 62
     7
 10
113.6907014967
 20
166.9308915751
 30
0.0
  0
VERTEX
  5
373
  8
0
  6
CONTINUOUS
 62
     7
 10
114.1080020582
 20
166.9394457431
 30
0.0
  0
VERTEX
  5
374
  8
0
  6
CONTINUOUS
 62
     7
 10
114.4965793036
 20
167.0146678923
 30
0.0
  0
VERTEX
  5
375
  8
0
  6
CONTINUOUS
 62
     7
 10
114.8141068449
 20
167.1483067715
 30
0.0
  0
VERTEX
  5
376
  8
0
  6
CONTINUOUS
 62
     7
 10
115.0261282441
 20
167.3257355271
 30
0.0
  0
VERTEX
  5
377
  8
0
  6
CONTINUOUS
 62
     7
 10
115.109810573
 20
167.5275981636
 30
0.0
  0
VERTEX
  5
378
  8
0
  6
CONTINUOUS
 62
     7
 10
115.0563578429
 20
167.7319614107
 30
0.0
  0
VERTEX
  5
379
  8
0
  6
CONTINUOUS
 62
     7
 10
114.8718490026
 20
167.9167158792
 30
0.0
  0
VERTEX
  5
37A
  8
0
  6
CONTINUOUS
 62
     7
 10
114.5764585889
 20
168.0619562644
 30
0.0
  0
VERTEX
  5
37B
  8
0
  6
CONTINUOUS
 62
     7
 10
114.2021951354
 20
168.1520895371
 30
0.0
  0
VERTEX
  5
37C
  8
0
  6
CONTINUOUS
 62
     7
 10
113.7894336576
 20
168.1774633266
 30
0.0
  0
VERTEX
  5
37D
  8
0
  6
CONTINUOUS
 62
     7
 10
113.3826171172
 20
168.1353637164
 30
0.0
  0
VERTEX
  5
37E
  8
0
  6
CONTINUOUS
 62
     7
 10
113.0255604416
 20
168.0302943822
 30
0.0
  0
VERTEX
  5
37F
  8
0
  6
CONTINUOUS
 62
     7
 10
112.7568158445
 20
167.8735130313
 30
0.0
  0
VERTEX
  5
380
  8
0
  6
CONTINUOUS
 62
     7
 10
112.6055543372
 20
167.6818652108
 30
0.0
  0
VERTEX
  5
381
  8
0
  6
CONTINUOUS
 62
     7
 10
112.5883847271
 20
167.4760194637
 30
0.0
  0
VERTEX
  5
382
  8
0
  6
CONTINUOUS
 62
     7
 10
112.707462719
 20
167.2782696522
 30
0.0
  0
VERTEX
  5
383
  8
0
  6
CONTINUOUS
 62
     7
 10
112.9501329351
 20
167.1101247378
 30
0.0
  0
SEQEND
  5
4C7
  8
0
  6
CONTINUOUS
 62
     7
  0
POLYLINE
  5
DE
  8
0
  6
CONTINUOUS
 62
     7
 66
     1
 10
0.0
 20
0.0
 30
0.0
  0
VERTEX
  5
384
  8
0
  6
CONTINUOUS
 62
     7
 10
102.2022466265
 20
159.6525763161
 30
0.0
  0
VERTEX
  5
385
  8
0
  6
CONTINUOUS
 62
     7
 10
103.3363806132
 20
159.3666605686
 30
0.0
  0
VERTEX
  5
386
  8
0
  6
CONTINUOUS
 62
     7
 10
104.5308332706
 20
159.1477772127
 30
0.0
  0
VERTEX
  5
387
  8
0
  6
CONTINUOUS
 62
     7
 10
105.7696444376
 20
158.9990331421
 30
0.0
  0
VERTEX
  5
388
  8
0
  6
CONTINUOUS
 62
     7
 10
107.0361603022
 20
158.9225475133
 30
0.0
  0
VERTEX
  5
389
  8
0
  6
CONTINUOUS
 62
     7
 10
108.3132921895
 20
158.9194124896
 30
0.0
  0
VERTEX
  5
38A
  8
0
  6
CONTINUOUS
 62
     7
 10
109.5837855116
 20
158.9896728729
 30
0.0
  0
VERTEX
  5
38B
  8
0
  6
CONTINUOUS
 62
     7
 10
110.8304925625
 20
159.1323252662
 30
0.0
  0
VERTEX
  5
38C
  8
0
  6
CONTINUOUS
 62
     7
 10
112.0366426862
 20
159.3453367931
 30
0.0
  0
VERTEX
  5
38D
  8
0
  6
CONTINUOUS
 62
     7
 10
113.1861034564
 20
159.625682784
 30
0.0
  0
VERTEX
  5
38E
  8
0
  6
CONTINUOUS
 62
     7
 10
114.2636268884
 20
159.9694022544
 30
0.0
  0
VERTEX
  5
38F
  8
0
  6
CONTINUOUS
 62
     7
 10
115.2550753174
 20
160.3716694773
 30
0.0
  0
VERTEX
  5
390
  8
0
  6
CONTINUOUS
 62
     7
 10
116.1476223997
 20
160.826879518
 30
0.0
  0
VERTEX
  5
391
  8
0
  6
CONTINUOUS
 62
     7
 10
116.9299256544
 20
161.3287452709
 30
0.0
  0
VERTEX
  5
392
  8
0
  6
CONTINUOUS
 62
     7
 10
117.5922680239
 20
161.8704033307
 30
0.0
  0
VERTEX
  5
393
  8
0
  6
CONTINUOUS
 62
     7
 10
118.1266670158
 20
162.4445259427
 30
0.0
  0
VERTEX
  5
394
  8
0
  6
CONTINUOUS
 62
     7
 10
118.526951046
 20
163.0434363068
 30
0.0
  0
VERTEX
  5
395
  8
0
  6
CONTINUOUS
 62
     7
 10
118.7888035847
 20
163.6592246474
 30
0.0
  0
VERTEX
  5
396
  8
0
  6
CONTINUOUS
 62
     7
 10
118.9097765607
 20
164.2838626866
 30
0.0
  0
VERTEX
  5
397
  8
0
  6
CONTINUOUS
 62
     7
 10
118.8892751863
 20
164.9093144502
 30
0.0
  0
VERTEX
  5
398
  8
0
  6
CONTINUOUS
 62
     7
 10
118.7285168982
 20
165.5276416789
 30
0.0
  0
VERTEX
  5
399
  8
0
  6
CONTINUOUS
 62
     7
 10
118.4304674688
 20
166.1311024787
 30
0.0
  0
VERTEX
  5
39A
  8
0
  6
CONTINUOUS
 62
     7
 10
117.9997575269
 20
166.7122422126
 30
0.0
  0
VERTEX
  5
39B
  8
0
  6
CONTINUOUS
 62
     7
 10
117.4425827543
 20
167.2639759872
 30
0.0
  0
SEQEND
  5
4C6
  8
0
  6
CONTINUOUS
 62
     7
  0
LINE
  5
DF
  8
0
  6
CONTINUOUS
 62
     7
 10
117.4425827543
 20
167.2639759872
 30
0.0
 11
115.9464056404
 21
166.5167482425
 31
0.0
  0
ARC
  5
E0
  8
0
  6
CONTINUOUS
 62
     7
 10
113.8302920036
 20
171.3919579987
 30
0.0
 40
5.314659640120243
 50
254.8273806031
 51
293.463539416
  0
LINE
  5
E1
  8
0
  6
CONTINUOUS
 62
     7
 10
112.439296845
 20
166.2625584667
 30
0.0
 11
110.7712674966
 21
165.4340396251
 31
0.0
  0
POLYLINE
  5
E2
  8
0
  6
CONTINUOUS
 62
     7
 66
     1
 10
0.0
 20
0.0
 30
0.0
  0
VERTEX
  5
39C
  8
0
  6
CONTINUOUS
 62
     7
 10
110.7712674966
 20
165.4340396251
 30
0.0
  0
VERTEX
  5
39D
  8
0
  6
CONTINUOUS
 62
     7
 10
111.0575469039
 20
165.1219153049
 30
0.0
  0
VERTEX
  5
39E
  8
0
  6
CONTINUOUS
 62
     7
 10
111.2121578264
 20
164.7864660832
 30
0.0
  0
VERTEX
  5
39F
  8
0
  6
CONTINUOUS
 62
     7
 10
111.2283022724
 20
164.441322894
 30
0.0
  0
VERTEX
  5
3A0
  8
0
  6
CONTINUOUS
 62
     7
 10
111.1048027576
 20
164.1006139444
 30
0.0
  0
VERTEX
  5
3A1
  8
0
  6
CONTINUOUS
 62
     7
 10
110.8462341507
 20
163.7783889864
 30
0.0
  0
VERTEX
  5
3A2
  8
0
  6
CONTINUOUS
 62
     7
 10
110.4628157143
 20
163.4880299754
 30
0.0
  0
VERTEX
  5
3A3
  8
0
  6
CONTINUOUS
 62
     7
 10
109.9700546453
 20
163.2416742705
 30
0.0
  0
VERTEX
  5
3A4
  8
0
  6
CONTINUOUS
 62
     7
 10
109.3881452066
 20
163.0496785239
 30
0.0
  0
VERTEX
  5
3A5
  8
0
  6
CONTINUOUS
 62
     7
 10
108.7411420123
 20
162.9201515408
 30
0.0
  0
VERTEX
  5
3A6
  8
0
  6
CONTINUOUS
 62
     7
 10
108.0559408801
 20
162.8585823396
 30
0.0
  0
VERTEX
  5
3A7
  8
0
  6
CONTINUOUS
 62
     7
 10
107.3611143446
 20
162.8675853051
 30
0.0
  0
VERTEX
  5
3A8
  8
0
  6
CONTINUOUS
 62
     7
 10
106.6856598429
 20
162.9467779377
 30
0.0
  0
VERTEX
  5
3A9
  8
0
  6
CONTINUOUS
 62
     7
 10
106.0577253833
 20
163.0927987739
 30
0.0
  0
SEQEND
  5
4C5
  8
0
  6
CONTINUOUS
 62
     7
  0
LINE
  5
E3
  8
0
  6
CONTINUOUS
 62
     7
 10
106.0577253833
 20
163.0927987739
 30
0.0
 11
104.350746649
 21
162.24493357
 31
0.0
  0
POLYLINE
  5
E4
  8
0
  6
CONTINUOUS
 62
     7
 66
     1
 10
0.0
 20
0.0
 30
0.0
  0
VERTEX
  5
3AA
  8
0
  6
CONTINUOUS
 62
     7
 10
104.350746649
 20
162.24493357
 30
0.0
  0
VERTEX
  5
3AB
  8
0
  6
CONTINUOUS
 62
     7
 10
104.5388368526
 20
162.0225896348
 30
0.0
  0
VERTEX
  5
3AC
  8
0
  6
CONTINUOUS
 62
     7
 10
104.6539869135
 20
161.7870578779
 30
0.0
  0
VERTEX
  5
3AD
  8
0
  6
CONTINUOUS
 62
     7
 10
104.6930747145
 20
161.5443144145
 30
0.0
  0
VERTEX
  5
3AE
  8
0
  6
CONTINUOUS
 62
     7
 10
104.6549026153
 20
161.3005500396
 30
0.0
  0
VERTEX
  5
3AF
  8
0
  6
CONTINUOUS
 62
     7
 10
104.5402481057
 20
161.0620140176
 30
0.0
  0
VERTEX
  5
3B0
  8
0
  6
CONTINUOUS
 62
     7
 10
104.3518642249
 20
160.8348530916
 30
0.0
  0
VERTEX
  5
3B1
  8
0
  6
CONTINUOUS
 62
     7
 10
104.094427659
 20
160.6249499101
 30
0.0
  0
VERTEX
  5
3B2
  8
0
  6
CONTINUOUS
 62
     7
 10
103.7744339211
 20
160.4377654194
 30
0.0
  0
SEQEND
  5
4C4
  8
0
  6
CONTINUOUS
 62
     7
  0
LINE
  5
E5
  8
0
  6
CONTINUOUS
 62
     7
 10
103.7744339211
 20
160.4377654194
 30
0.0
 11
102.2022466265
 21
159.6525763161
 31
0.0
  0
POLYLINE
  5
E6
  8
0
  6
CONTINUOUS
 62
     7
 66
     1
 10
0.0
 20
0.0
 30
0.0
  0
VERTEX
  5
3B3
  8
0
  6
CONTINUOUS
 62
     7
 10
116.0701616505
 20
169.2443933323
 30
0.0
  0
VERTEX
  5
3B4
  8
0
  6
CONTINUOUS
 62
     7
 10
115.0550474924
 20
169.6343153674
 30
0.0
  0
VERTEX
  5
3B5
  8
0
  6
CONTINUOUS
 62
     7
 10
113.9665549463
 20
169.9698847731
 30
0.0
  0
VERTEX
  5
3B6
  8
0
  6
CONTINUOUS
 62
     7
 10
112.8159588838
 20
170.2479111977
 30
0.0
  0
VERTEX
  5
3B7
  8
0
  6
CONTINUOUS
 62
     7
 10
111.6150434312
 20
170.4657704793
 30
0.0
  0
VERTEX
  5
3B8
  8
0
  6
CONTINUOUS
 62
     7
 10
110.3759993921
 20
170.6214184246
 30
0.0
  0
VERTEX
  5
3B9
  8
0
  6
CONTINUOUS
 62
     7
 10
109.1113224096
 20
170.7134010643
 30
0.0
  0
VERTEX
  5
3BA
  8
0
  6
CONTINUOUS
 62
     7
 10
107.8337118185
 20
170.7408616915
 30
0.0
  0
VERTEX
  5
3BB
  8
0
  6
CONTINUOUS
 62
     7
 10
106.5559700074
 20
170.703544909
 30
0.0
  0
VERTEX
  5
3BC
  8
0
  6
CONTINUOUS
 62
     7
 10
105.2909020214
 20
170.601797822
 30
0.0
  0
VERTEX
  5
3BD
  8
0
  6
CONTINUOUS
 62
     7
 10
104.0512150928
 20
170.4365684156
 30
0.0
  0
VERTEX
  5
3BE
  8
0
  6
CONTINUOUS
 62
     7
 10
102.8494177876
 20
170.2094010632
 30
0.0
  0
VERTEX
  5
3BF
  8
0
  6
CONTINUOUS
 62
     7
 10
101.6977185045
 20
169.9224290152
 30
0.0
  0
VERTEX
  5
3C0
  8
0
  6
CONTINUOUS
 62
     7
 10
100.6079231558
 20
169.578363628
 30
0.0
  0
VERTEX
  5
3C1
  8
0
  6
CONTINUOUS
 62
     7
 10
99.591331993
 20
169.1804800186
 30
0.0
  0
VERTEX
  5
3C2
  8
0
  6
CONTINUOUS
 62
     7
 10
98.658635718
 20
168.7325987635
 30
0.0
  0
VERTEX
  5
3C3
  8
0
  6
CONTINUOUS
 62
     7
 10
97.8198112292
 20
168.2390632171
 30
0.0
  0
VERTEX
  5
3C4
  8
0
  6
CONTINUOUS
 62
     7
 10
97.0840175927
 20
167.7047120017
 30
0.0
  0
VERTEX
  5
3C5
  8
0
  6
CONTINUOUS
 62
     7
 10
96.4594930933
 20
167.1348462225
 30
0.0
  0
VERTEX
  5
3C6
  8
0
  6
CONTINUOUS
 62
     7
 10
95.9534544926
 20
166.535190996
 30
0.0
  0
VERTEX
  5
3C7
  8
0
  6
CONTINUOUS
 62
     7
 10
95.5719999009
 20
165.9118509401
 30
0.0
  0
VERTEX
  5
3C8
  8
0
  6
CONTINUOUS
 62
     7
 10
95.3200169365
 20
165.2712593748
 30
0.0
  0
VERTEX
  5
3C9
  8
0
  6
CONTINUOUS
 62
     7
 10
95.2010980845
 20
164.6201211086
 30
0.0
  0
VERTEX
  5
3CA
  8
0
  6
CONTINUOUS
 62
     7
 10
95.217465369
 20
163.9653488531
 30
0.0
  0
VERTEX
  5
3CB
  8
0
  6
CONTINUOUS
 62
     7
 10
95.3699065957
 20
163.3139934972
 30
0.0
  0
VERTEX
  5
3CC
  8
0
  6
CONTINUOUS
 62
     7
 10
95.657725491
 20
162.6731686911
 30
0.0
  0
VERTEX
  5
3CD
  8
0
  6
CONTINUOUS
 62
     7
 10
96.0787080469
 20
162.0499704254
 30
0.0
  0
VERTEX
  5
3CE
  8
0
  6
CONTINUOUS
 62
     7
 10
96.6291072653
 20
161.4513925335
 30
0.0
  0
VERTEX
  5
3CF
  8
0
  6
CONTINUOUS
 62
     7
 10
97.3036482749
 20
160.8842392886
 30
0.0
  0
VERTEX
  5
3D0
  8
0
  6
CONTINUOUS
 62
     7
 10
98.0955554547
 20
160.3550364926
 30
0.0
  0
SEQEND
  5
4C3
  8
0
  6
CONTINUOUS
 62
     7
  0
LINE
  5
E7
  8
0
  6
CONTINUOUS
 62
     7
 10
116.0701616505
 20
169.2443933323
 30
0.0
 11
115.0111758209
 21
168.7206709862
 31
0.0
  0
ARC
  5
E8
  8
0
  6
CONTINUOUS
 62
     7
 10
110.7697185112
 20
158.5528645323
 30
0.0
 40
11.01699814802416
 50
60.4232053623
 51
67.3567498562
  0
LINE
  5
E9
  8
0
  6
CONTINUOUS
 62
     7
 10
116.2075950131
 20
168.1342917404
 30
0.0
 11
117.2665506626
 21
168.6602805121
 31
0.0
  0
POLYLINE
  5
EA
  8
0
  6
CONTINUOUS
 62
     7
 66
     1
 10
0.0
 20
0.0
 30
0.0
  0
VERTEX
  5
3D1
  8
0
  6
CONTINUOUS
 62
     7
 10
99.2912563414
 20
159.7318584537
 30
0.0
  0
VERTEX
  5
3D2
  8
0
  6
CONTINUOUS
 62
     7
 10
100.3200492374
 20
159.3128010953
 30
0.0
  0
VERTEX
  5
3D3
  8
0
  6
CONTINUOUS
 62
     7
 10
101.4339501413
 20
158.9501783485
 30
0.0
  0
VERTEX
  5
3D4
  8
0
  6
CONTINUOUS
 62
     7
 10
102.6205971032
 20
158.6483401401
 30
0.0
  0
VERTEX
  5
3D5
  8
0
  6
CONTINUOUS
 62
     7
 10
103.8666623302
 20
158.4109315444
 30
0.0
  0
VERTEX
  5
3D6
  8
0
  6
CONTINUOUS
 62
     7
 10
105.1580207942
 20
158.2408351121
 30
0.0
  0
VERTEX
  5
3D7
  8
0
  6
CONTINUOUS
 62
     7
 10
106.4799349675
 20
158.140124538
 30
0.0
  0
VERTEX
  5
3D8
  8
0
  6
CONTINUOUS
 62
     7
 10
107.8172521781
 20
158.1100309347
 30
0.0
  0
VERTEX
  5
3D9
  8
0
  6
CONTINUOUS
 62
     7
 10
109.1546106122
 20
158.1509226537
 30
0.0
  0
VERTEX
  5
3DA
  8
0
  6
CONTINUOUS
 62
     7
 10
110.4766496728
 20
158.2622992263
 30
0.0
  0
VERTEX
  5
3DB
  8
0
  6
CONTINUOUS
 62
     7
 10
111.7682202425
 20
158.4427995934
 30
0.0
  0
VERTEX
  5
3DC
  8
0
  6
CONTINUOUS
 62
     7
 10
113.0145904022
 20
158.6902243945
 30
0.0
  0
VERTEX
  5
3DD
  8
0
  6
CONTINUOUS
 62
     7
 10
114.2016423311
 20
159.0015716823
 30
0.0
  0
VERTEX
  5
3DE
  8
0
  6
CONTINUOUS
 62
     7
 10
115.3160564471
 20
159.373085071
 30
0.0
  0
VERTEX
  5
3DF
  8
0
  6
CONTINUOUS
 62
     7
 10
116.3454793109
 20
159.8003130046
 30
0.0
  0
VERTEX
  5
3E0
  8
0
  6
CONTINUOUS
 62
     7
 10
117.2786724018
 20
160.2781775736
 30
0.0
  0
VERTEX
  5
3E1
  8
0
  6
CONTINUOUS
 62
     7
 10
118.1056395291
 20
160.8010511204
 30
0.0
  0
VERTEX
  5
3E2
  8
0
  6
CONTINUOUS
 62
     7
 10
118.8177313501
 20
161.3628387615
 30
0.0
  0
VERTEX
  5
3E3
  8
0
  6
CONTINUOUS
 62
     7
 10
119.4077261767
 20
161.9570649149
 30
0.0
  0
VERTEX
  5
3E4
  8
0
  6
CONTINUOUS
 62
     7
 10
119.8698869425
 20
162.5769619544
 30
0.0
  0
VERTEX
  5
3E5
  8
0
  6
CONTINUOUS
 62
     7
 10
120.1999948396
 20
163.2155592154
 30
0.0
  0
VERTEX
  5
3E6
  8
0
  6
CONTINUOUS
 62
     7
 10
120.3953606882
 20
163.8657707225
 30
0.0
  0
VERTEX
  5
3E7
  8
0
  6
CONTINUOUS
 62
     7
 10
120.4548155698
 20
164.520480211
 30
0.0
  0
VERTEX
  5
3E8
  8
0
  6
CONTINUOUS
 62
     7
 10
120.3786826098
 20
165.1726222349
 30
0.0
  0
VERTEX
  5
3E9
  8
0
  6
CONTINUOUS
 62
     7
 10
120.1687320422
 20
165.8152583949
 30
0.0
  0
VERTEX
  5
3EA
  8
0
  6
CONTINUOUS
 62
     7
 10
119.8281218319
 20
166.4416479651
 30
0.0
  0
VERTEX
  5
3EB
  8
0
  6
CONTINUOUS
 62
     7
 10
119.3613261672
 20
167.0453124343
 30
0.0
  0
VERTEX
  5
3EC
  8
0
  6
CONTINUOUS
 62
     7
 10
118.7740540855
 20
167.6200936963
 30
0.0
  0
VERTEX
  5
3ED
  8
0
  6
CONTINUOUS
 62
     7
 10
118.0731603691
 20
168.1602058217
 30
0.0
  0
VERTEX
  5
3EE
  8
0
  6
CONTINUOUS
 62
     7
 10
117.2665506626
 20
168.6602805121
 30
0.0
  0
SEQEND
  5
4C2
  8
0
  6
CONTINUOUS
 62
     7
  0
LINE
  5
EB
  8
0
  6
CONTINUOUS
 62
     7
 10
99.2912563414
 20
159.7318584537
 30
0.0
 11
100.4166755107
 21
160.2908600008
 31
0.0
  0
ARC
  5
EC
  8
0
  6
CONTINUOUS
 62
     7
 10
104.6272531782
 20
169.8651419793
 30
0.0
 40
10.45924661235532
 50
238.875385319
 51
246.2610672184
  0
LINE
  5
ED
  8
0
  6
CONTINUOUS
 62
     7
 10
99.2208566837
 20
160.9115551761
 30
0.0
 11
98.0955554547
 21
160.3550364926
 31
0.0
  0
POLYLINE
  5
EE
  8
0
  6
CONTINUOUS
 62
     7
 66
     1
 10
0.0
 20
0.0
 30
0.0
  0
VERTEX
  5
3EF
  8
0
  6
CONTINUOUS
 62
     7
 10
99.3869938657
 20
153.7943656364
 30
0.0
  0
VERTEX
  5
3F0
  8
0
  6
CONTINUOUS
 62
     7
 10
100.4084777662
 20
153.3695220706
 30
0.0
  0
VERTEX
  5
3F1
  8
0
  6
CONTINUOUS
 62
     7
 10
101.5144141844
 20
153.0018997686
 30
0.0
  0
VERTEX
  5
3F2
  8
0
  6
CONTINUOUS
 62
     7
 10
102.6925322741
 20
152.6959053053
 30
0.0
  0
VERTEX
  5
3F3
  8
0
  6
CONTINUOUS
 62
     7
 10
103.9296041315
 20
152.4552309899
 30
0.0
  0
VERTEX
  5
3F4
  8
0
  6
CONTINUOUS
 62
     7
 10
105.2116119671
 20
152.2827965782
 30
0.0
  0
VERTEX
  5
3F5
  8
0
  6
CONTINUOUS
 62
     7
 10
106.5239312087
 20
152.1807024489
 30
0.0
  0
VERTEX
  5
3F6
  8
0
  6
CONTINUOUS
 62
     7
 10
107.8515260678
 20
152.1501955246
 30
0.0
  0
VERTEX
  5
3F7
  8
0
  6
CONTINUOUS
 62
     7
 10
109.179153645
 20
152.191648883
 30
0.0
  0
VERTEX
  5
3F8
  8
0
  6
CONTINUOUS
 62
     7
 10
110.4915723372
 20
152.3045556335
 30
0.0
  0
VERTEX
  5
3F9
  8
0
  6
CONTINUOUS
 62
     7
 10
111.7737501472
 20
152.4875372345
 30
0.0
  0
VERTEX
  5
3FA
  8
0
  6
CONTINUOUS
 62
     7
 10
113.0110685055
 20
152.7383660129
 30
0.0
  0
VERTEX
  5
3FB
  8
0
  6
CONTINUOUS
 62
     7
 10
114.189517381
 20
153.0540012542
 30
0.0
  0
VERTEX
  5
3FC
  8
0
  6
CONTINUOUS
 62
     7
 10
115.2958777875
 20
153.4306378614
 30
0.0
  0
VERTEX
  5
3FD
  8
0
  6
CONTINUOUS
 62
     7
 10
116.3178882488
 20
153.8637662593
 30
0.0
  0
VERTEX
  5
3FE
  8
0
  6
CONTINUOUS
 62
     7
 10
117.2443923631
 20
154.3482419621
 30
0.0
  0
VERTEX
  5
3FF
  8
0
  6
CONTINUOUS
 62
     7
 10
118.0654652503
 20
154.8783630318
 30
0.0
  0
VERTEX
  5
400
  8
0
  6
CONTINUOUS
 62
     7
 10
118.7725173657
 20
155.4479535384
 30
0.0
  0
VERTEX
  5
401
  8
0
  6
CONTINUOUS
 62
     7
 10
119.358374861
 20
156.0504510957
 30
0.0
  0
VERTEX
  5
402
  8
0
  6
CONTINUOUS
 62
     7
 10
119.817336359
 20
156.6789965783
 30
0.0
  0
VERTEX
  5
403
  8
0
  6
CONTINUOUS
 62
     7
 10
120.1452066308
 20
157.3265242246
 30
0.0
  0
VERTEX
  5
404
  8
0
  6
CONTINUOUS
 62
     7
 10
120.3393082176
 20
157.9858504827
 30
0.0
  0
VERTEX
  5
405
  8
0
  6
CONTINUOUS
 62
     7
 10
120.3985787841
 20
158.5773802776
 30
0.0
  0
SEQEND
  5
4C1
  8
0
  6
CONTINUOUS
 62
     7
  0
LINE
  5
EF
  8
0
  6
CONTINUOUS
 62
     7
 10
99.3869938657
 20
153.7943656364
 30
0.0
 11
99.2912563414
 21
159.7318584537
 31
0.0
  0
LINE
  5
F0
  8
0
  6
CONTINUOUS
 62
     7
 10
117.4425827543
 20
167.2639759872
 30
0.0
 11
117.4165998404
 21
162.8823230615
 31
0.0
  0
POLYLINE
  5
F1
  8
0
  6
CONTINUOUS
 62
     7
 66
     1
 10
0.0
 20
0.0
 30
0.0
  0
VERTEX
  5
406
  8
0
  6
CONTINUOUS
 62
     7
 10
117.9894865241
 20
162.3027548709
 30
0.0
  0
VERTEX
  5
407
  8
0
  6
CONTINUOUS
 62
     7
 10
117.9707697847
 20
162.324687935
 30
0.0
  0
VERTEX
  5
408
  8
0
  6
CONTINUOUS
 62
     7
 10
117.4165998404
 20
162.8823230615
 30
0.0
  0
SEQEND
  5
4C0
  8
0
  6
CONTINUOUS
 62
     7
  0
ARC
  5
F2
  8
0
  6
CONTINUOUS
 62
     7
 10
109.951318227
 20
160.2708879549
 30
0.0
 40
1.298550581463499
 50
298.5522934798
 51
355.3381085091
  0
LINE
  5
F3
  8
0
  6
CONTINUOUS
 62
     7
 10
112.4397750398
 20
161.8702031987
 30
0.0
 11
111.2438515752
 21
161.266640982
 31
0.0
  0
ARC
  5
F4
  8
0
  6
CONTINUOUS
 62
     7
 10
113.8236013674
 20
166.8929628439
 30
0.0
 40
5.209903046878039
 50
254.5965242231
 51
293.8270779835
  0
LINE
  5
F5
  8
0
  6
CONTINUOUS
 62
     7
 10
117.4165998404
 20
162.8823230615
 30
0.0
 11
115.9282858152
 21
162.1271058241
 31
0.0
  0
LINE
  5
F6
  8
0
  6
CONTINUOUS
 62
     7
 10
99.3167007749
 20
154.9904006113
 30
0.0
 11
99.2208566837
 21
160.9115551761
 31
0.0
  0
LINE
  5
F7
  8
0
  6
CONTINUOUS
 62
     7
 10
99.3682207672
 20
154.9586440992
 30
0.0
 11
99.3167007749
 21
154.9904006113
 31
0.0
  0
LINE
  5
F8
  8
0
  6
CONTINUOUS
 62
     7
 10
98.1997095969
 20
154.426165321
 30
0.0
 11
98.0955554547
 21
160.3550364926
 31
0.0
  0
LINE
  5
F9
  8
0
  6
CONTINUOUS
 62
     7
 10
99.3167007749
 20
154.9904006113
 30
0.0
 11
98.1997095969
 21
154.426165321
 31
0.0
  0
LINE
  5
FA
  8
0
  6
CONTINUOUS
 62
     7
 10
116.0657677124
 20
168.2137537841
 30
0.0
 11
116.0701616505
 21
169.2443933323
 31
0.0
  0
ARC
  5
FB
  8
0
  6
CONTINUOUS
 62
     7
 10
100.5257774672
 20
159.1424701278
 30
0.0
 40
5.258718738226919
 50
187.7709575139
 51
243.7476183541
  0
ARC
  5
FC
  8
0
  6
CONTINUOUS
 62
     7
 10
105.6673619411
 20
154.1011539975
 30
0.0
 40
11.36387182771836
 50
93.7016609337
 51
134.5532711221
  0
LINE
  5
FD
  8
0
  6
CONTINUOUS
 62
     7
 10
106.0577253833
 20
163.0927987739
 30
0.0
 11
106.0900703945
 21
158.9726474326
 31
0.0
  0
POLYLINE
  5
FE
  8
0
  6
CONTINUOUS
 62
     7
 66
     1
 10
0.0
 20
0.0
 30
0.0
  0
VERTEX
  5
409
  8
0
  6
CONTINUOUS
 62
     7
 10
104.9936602409
 20
160.9764748656
 30
0.0
  0
VERTEX
  5
40A
  8
0
  6
CONTINUOUS
 62
     7
 10
104.7587850067
 20
160.8025549112
 30
0.0
  0
VERTEX
  5
40B
  8
0
  6
CONTINUOUS
 62
     7
 10
104.7007571326
 20
160.7399283029
 30
0.0
  0
SEQEND
  5
4BF
  8
0
  6
CONTINUOUS
 62
     7
  0
POLYLINE
  5
FF
  8
0
  6
CONTINUOUS
 62
     7
 66
     1
 10
0.0
 20
0.0
 30
0.0
  0
VERTEX
  5
40C
  8
0
  6
CONTINUOUS
 62
     7
 10
104.7131194524
 20
159.441868769
 30
0.0
  0
VERTEX
  5
40D
  8
0
  6
CONTINUOUS
 62
     7
 10
104.7716856565
 20
159.4377505409
 30
0.0
  0
VERTEX
  5
40E
  8
0
  6
CONTINUOUS
 62
     7
 10
105.007195114
 20
159.499631652
 30
0.0
  0
VERTEX
  5
40F
  8
0
  6
CONTINUOUS
 62
     7
 10
105.2414783193
 20
159.6736372247
 30
0.0
  0
VERTEX
  5
410
  8
0
  6
CONTINUOUS
 62
     7
 10
105.4389959688
 20
159.9332582721
 30
0.0
  0
VERTEX
  5
411
  8
0
  6
CONTINUOUS
 62
     7
 10
105.5698156822
 20
160.2390892681
 30
0.0
  0
VERTEX
  5
412
  8
0
  6
CONTINUOUS
 62
     7
 10
105.6140884022
 20
160.5447574438
 30
0.0
  0
VERTEX
  5
413
  8
0
  6
CONTINUOUS
 62
     7
 10
105.5650310431
 20
160.8038732595
 30
0.0
  0
VERTEX
  5
414
  8
0
  6
CONTINUOUS
 62
     7
 10
105.4299841508
 20
160.9770075826
 30
0.0
  0
VERTEX
  5
415
  8
0
  6
CONTINUOUS
 62
     7
 10
105.2293691252
 20
161.0376831218
 30
0.0
  0
VERTEX
  5
416
  8
0
  6
CONTINUOUS
 62
     7
 10
104.9936602409
 20
160.9764748656
 30
0.0
  0
VERTEX
  5
417
  8
0
  6
CONTINUOUS
 62
     7
 10
104.9936602409
 20
160.9764748656
 30
0.0
  0
SEQEND
  5
4BE
  8
0
  6
CONTINUOUS
 62
     7
  0
LINE
  5
100
  8
0
  6
CONTINUOUS
 62
     7
 10
112.439296845
 20
166.2625584667
 30
0.0
 11
112.4397750398
 21
161.8702031987
 31
0.0
  0
ARC
  5
101
  8
0
  6
CONTINUOUS
 62
     7
 10
112.2436198936
 20
163.3261152379
 30
0.0
 40
1.13987193677539
 50
119.8392513056
 51
151.7211711267
  0
POLYLINE
  5
102
  8
0
  6
CONTINUOUS
 62
     7
 66
     1
 10
0.0
 20
0.0
 30
0.0
  0
VERTEX
  5
418
  8
0
  6
CONTINUOUS
 62
     7
 10
111.2413607405
 20
162.860384165
 30
0.0
  0
VERTEX
  5
419
  8
0
  6
CONTINUOUS
 62
     7
 10
111.2536241703
 20
162.8511568628
 30
0.0
  0
VERTEX
  5
41A
  8
0
  6
CONTINUOUS
 62
     7
 10
111.4485028772
 20
162.7902343003
 30
0.0
  0
VERTEX
  5
41B
  8
0
  6
CONTINUOUS
 62
     7
 10
111.6779693672
 20
162.8497550383
 30
0.0
  0
VERTEX
  5
41C
  8
0
  6
CONTINUOUS
 62
     7
 10
111.9071300913
 20
163.0205147222
 30
0.0
  0
VERTEX
  5
41D
  8
0
  6
CONTINUOUS
 62
     7
 10
112.1012204104
 20
163.2764978801
 30
0.0
  0
VERTEX
  5
41E
  8
0
  6
CONTINUOUS
 62
     7
 10
112.2308252302
 20
163.5788493727
 30
0.0
  0
VERTEX
  5
41F
  8
0
  6
CONTINUOUS
 62
     7
 10
112.2762792705
 20
163.8817219134
 30
0.0
  0
VERTEX
  5
420
  8
0
  6
CONTINUOUS
 62
     7
 10
112.2306224235
 20
164.1391490139
 30
0.0
  0
VERTEX
  5
421
  8
0
  6
CONTINUOUS
 62
     7
 10
112.1006827204
 20
164.3119592523
 30
0.0
  0
VERTEX
  5
422
  8
0
  6
CONTINUOUS
 62
     7
 10
111.9061085525
 20
164.3737281194
 30
0.0
  0
VERTEX
  5
423
  8
0
  6
CONTINUOUS
 62
     7
 10
111.6764557293
 20
164.314868414
 30
0.0
  0
VERTEX
  5
424
  8
0
  6
CONTINUOUS
 62
     7
 10
111.6764557293
 20
164.314868414
 30
0.0
  0
SEQEND
  5
4BD
  8
0
  6
CONTINUOUS
 62
     7
  0
LINE
  5
103
  8
0
  6
CONTINUOUS
 62
     7
 10
115.9464056404
 20
166.5167482425
 30
0.0
 11
115.9282858152
 21
162.1271058241
 31
0.0
  0
ARC
  5
104
  8
0
  6
CONTINUOUS
 62
     8
 10
95.8665143668
 20
201.9548902684
 30
0.0
 40
3.432118274954021
 50
182.7024325155
 51
222.1482378789
  0
POLYLINE
  5
105
  8
0
  6
CONTINUOUS
 62
     8
 66
     1
 10
0.0
 20
0.0
 30
0.0
  0
VERTEX
  5
425
  8
0
  6
CONTINUOUS
 62
     8
 10
122.7784825889
 20
201.9226394181
 30
0.0
  0
VERTEX
  5
426
  8
0
  6
CONTINUOUS
 62
     8
 10
122.7763444307
 20
201.8499021039
 30
0.0
  0
VERTEX
  5
427
  8
0
  6
CONTINUOUS
 62
     8
 10
122.6794475128
 20
201.2202616799
 30
0.0
  0
VERTEX
  5
428
  8
0
  6
CONTINUOUS
 62
     8
 10
122.4420774338
 20
200.5953926771
 30
0.0
  0
VERTEX
  5
429
  8
0
  6
CONTINUOUS
 62
     8
 10
122.0653632849
 20
199.9812095572
 30
0.0
  0
VERTEX
  5
42A
  8
0
  6
CONTINUOUS
 62
     8
 10
121.5518021264
 20
199.3836150011
 30
0.0
  0
VERTEX
  5
42B
  8
0
  6
CONTINUOUS
 62
     8
 10
120.9052740085
 20
198.8084377243
 30
0.0
  0
VERTEX
  5
42C
  8
0
  6
CONTINUOUS
 62
     8
 10
120.1310403387
 20
198.2613677857
 30
0.0
  0
VERTEX
  5
42D
  8
0
  6
CONTINUOUS
 62
     8
 10
119.2357241491
 20
197.7478903315
 30
0.0
  0
VERTEX
  5
42E
  8
0
  6
CONTINUOUS
 62
     8
 10
118.2272711485
 20
197.27321886
 30
0.0
  0
VERTEX
  5
42F
  8
0
  6
CONTINUOUS
 62
     8
 10
117.1148908538
 20
196.8422292175
 30
0.0
  0
VERTEX
  5
430
  8
0
  6
CONTINUOUS
 62
     8
 10
115.9089775737
 20
196.4593956257
 30
0.0
  0
VERTEX
  5
431
  8
0
  6
CONTINUOUS
 62
     8
 10
114.6210115437
 20
196.1287300898
 30
0.0
  0
VERTEX
  5
432
  8
0
  6
CONTINUOUS
 62
     8
 10
113.2634410757
 20
195.8537265448
 30
0.0
  0
VERTEX
  5
433
  8
0
  6
CONTINUOUS
 62
     8
 10
111.849547155
 20
195.6373110512
 30
0.0
  0
VERTEX
  5
434
  8
0
  6
CONTINUOUS
 62
     8
 10
110.3932924728
 20
195.4817992591
 30
0.0
  0
VERTEX
  5
435
  8
0
  6
CONTINUOUS
 62
     8
 10
108.9091573914
 20
195.3888622137
 30
0.0
  0
VERTEX
  5
436
  8
0
  6
CONTINUOUS
 62
     8
 10
107.4119657881
 20
195.3595013907
 30
0.0
  0
VERTEX
  5
437
  8
0
  6
CONTINUOUS
 62
     8
 10
105.9167040693
 20
195.3940336174
 30
0.0
  0
VERTEX
  5
438
  8
0
  6
CONTINUOUS
 62
     8
 10
104.4383368941
 20
195.4920862847
 30
0.0
  0
VERTEX
  5
439
  8
0
  6
CONTINUOUS
 62
     8
 10
102.9916232622
 20
195.6526029773
 30
0.0
  0
VERTEX
  5
43A
  8
0
  6
CONTINUOUS
 62
     8
 10
101.5909366101
 20
195.8738593718
 30
0.0
  0
VERTEX
  5
43B
  8
0
  6
CONTINUOUS
 62
     8
 10
100.2500924212
 20
196.1534889774
 30
0.0
  0
SEQEND
  5
4BC
  8
0
  6
CONTINUOUS
 62
     8
  0
POLYLINE
  5
106
  8
0
  6
CONTINUOUS
 62
     8
 66
     1
 10
0.0
 20
0.0
 30
0.0
  0
VERTEX
  5
43C
  8
0
  6
CONTINUOUS
 62
     8
 10
100.2500924212
 20
196.1534889774
 30
0.0
  0
VERTEX
  5
43D
  8
0
  6
CONTINUOUS
 62
     8
 10
100.3104075138
 20
195.433316001
 30
0.0
  0
VERTEX
  5
43E
  8
0
  6
CONTINUOUS
 62
     8
 10
100.2938989351
 20
194.7222631597
 30
0.0
  0
VERTEX
  5
43F
  8
0
  6
CONTINUOUS
 62
     8
 10
100.1625375941
 20
193.8645971071
 30
0.0
  0
VERTEX
  5
440
  8
0
  6
CONTINUOUS
 62
     8
 10
99.9053782108
 20
193.0541700259
 30
0.0
  0
VERTEX
  5
441
  8
0
  6
CONTINUOUS
 62
     8
 10
99.5488494428
 20
192.3589614389
 30
0.0
  0
VERTEX
  5
442
  8
0
  6
CONTINUOUS
 62
     8
 10
99.0832523571
 20
191.754597861
 30
0.0
  0
VERTEX
  5
443
  8
0
  6
CONTINUOUS
 62
     8
 10
98.5503378324
 20
191.2983506474
 30
0.0
  0
VERTEX
  5
444
  8
0
  6
CONTINUOUS
 62
     8
 10
97.9330654564
 20
190.9863126694
 30
0.0
  0
VERTEX
  5
445
  8
0
  6
CONTINUOUS
 62
     8
 10
97.3264346991
 20
190.8655777235
 30
0.0
  0
VERTEX
  5
446
  8
0
  6
CONTINUOUS
 62
     8
 10
96.6827065195
 20
190.9280306547
 30
0.0
  0
VERTEX
  5
447
  8
0
  6
CONTINUOUS
 62
     8
 10
96.1364330466
 20
191.1441408899
 30
0.0
  0
VERTEX
  5
448
  8
0
  6
CONTINUOUS
 62
     8
 10
95.6056120601
 20
191.5203933571
 30
0.0
  0
VERTEX
  5
449
  8
0
  6
CONTINUOUS
 62
     8
 10
95.0973354817
 20
192.0723745289
 30
0.0
  0
VERTEX
  5
44A
  8
0
  6
CONTINUOUS
 62
     8
 10
94.8898497994
 20
192.3953443732
 30
0.0
  0
SEQEND
  5
4BB
  8
0
  6
CONTINUOUS
 62
     8
  0
POLYLINE
  5
107
  8
0
  6
CONTINUOUS
 62
     8
 66
     1
 10
0.0
 20
0.0
 30
0.0
  0
VERTEX
  5
44B
  8
0
  6
CONTINUOUS
 62
     8
 10
89.8900444582
 20
198.2273562624
 30
0.0
  0
VERTEX
  5
44C
  8
0
  6
CONTINUOUS
 62
     8
 10
90.2741194418
 20
198.320178519
 30
0.0
  0
VERTEX
  5
44D
  8
0
  6
CONTINUOUS
 62
     8
 10
90.7365827496
 20
198.2949441047
 30
0.0
  0
VERTEX
  5
44E
  8
0
  6
CONTINUOUS
 62
     8
 10
91.2218954837
 20
198.1362360271
 30
0.0
  0
VERTEX
  5
44F
  8
0
  6
CONTINUOUS
 62
     8
 10
91.7112616631
 20
197.8498293747
 30
0.0
  0
VERTEX
  5
450
  8
0
  6
CONTINUOUS
 62
     8
 10
92.1856231646
 20
197.4465633018
 30
0.0
  0
VERTEX
  5
451
  8
0
  6
CONTINUOUS
 62
     8
 10
92.6264305252
 20
196.9419509056
 30
0.0
  0
VERTEX
  5
452
  8
0
  6
CONTINUOUS
 62
     8
 10
93.0164049523
 20
196.3555812156
 30
0.0
  0
VERTEX
  5
453
  8
0
  6
CONTINUOUS
 62
     8
 10
93.3402546235
 20
195.7103363655
 30
0.0
  0
VERTEX
  5
454
  8
0
  6
CONTINUOUS
 62
     8
 10
93.5853095501
 20
195.0314586133
 30
0.0
  0
VERTEX
  5
455
  8
0
  6
CONTINUOUS
 62
     8
 10
93.7420431708
 20
194.3455114367
 30
0.0
  0
VERTEX
  5
456
  8
0
  6
CONTINUOUS
 62
     8
 10
93.8044551814
 20
193.6792854452
 30
0.0
  0
VERTEX
  5
457
  8
0
  6
CONTINUOUS
 62
     8
 10
93.7702983085
 20
193.0587026561
 30
0.0
  0
VERTEX
  5
458
  8
0
  6
CONTINUOUS
 62
     8
 10
93.6411410067
 20
192.5077715563
 30
0.0
  0
VERTEX
  5
459
  8
0
  6
CONTINUOUS
 62
     8
 10
93.4222674941
 20
192.0476405811
 30
0.0
  0
VERTEX
  5
45A
  8
0
  6
CONTINUOUS
 62
     8
 10
93.122425263
 20
191.6957898671
 30
0.0
  0
VERTEX
  5
45B
  8
0
  6
CONTINUOUS
 62
     8
 10
92.7534374891
 20
191.4653913538
 30
0.0
  0
VERTEX
  5
45C
  8
0
  6
CONTINUOUS
 62
     8
 10
92.7514989854
 20
191.4645843448
 30
0.0
  0
SEQEND
  5
4BA
  8
0
  6
CONTINUOUS
 62
     8
  0
ARC
  5
108
  8
0
  6
CONTINUOUS
 62
     8
 10
94.6606700484
 20
195.0174838948
 30
0.0
 40
2.448986669727271
 50
291.8565332337
 51
13.1880717334
  0
POLYLINE
  5
109
  8
0
  6
CONTINUOUS
 62
     8
 66
     1
 10
0.0
 20
0.0
 30
0.0
  0
VERTEX
  5
45D
  8
0
  6
CONTINUOUS
 62
     8
 10
93.3562386504
 20
199.6801803511
 30
0.0
  0
VERTEX
  5
45E
  8
0
  6
CONTINUOUS
 62
     8
 10
93.3879755701
 20
199.7006262853
 30
0.0
  0
VERTEX
  5
45F
  8
0
  6
CONTINUOUS
 62
     8
 10
93.9232360464
 20
199.7308649325
 30
0.0
  0
VERTEX
  5
460
  8
0
  6
CONTINUOUS
 62
     8
 10
94.4478299858
 20
199.5207725271
 30
0.0
  0
SEQEND
  5
4B9
  8
0
  6
CONTINUOUS
 62
     8
  0
ARC
  5
10A
  8
0
  6
CONTINUOUS
 62
     8
 10
95.159808437
 20
198.1034553104
 30
0.0
 40
2.07931451462533
 50
64.2156917956
 51
127.6937912296
  0
POLYLINE
  5
10B
  8
0
  6
CONTINUOUS
 62
     8
 66
     1
 10
0.0
 20
0.0
 30
0.0
  0
VERTEX
  5
461
  8
0
  6
CONTINUOUS
 62
     8
 10
129.9831288445
 20
166.0439861482
 30
0.0
  0
VERTEX
  5
462
  8
0
  6
CONTINUOUS
 62
     8
 10
129.9227790304
 20
165.9980310225
 30
0.0
  0
VERTEX
  5
463
  8
0
  6
CONTINUOUS
 62
     8
 10
129.870973606
 20
165.9288038178
 30
0.0
  0
VERTEX
  5
464
  8
0
  6
CONTINUOUS
 62
     8
 10
129.8356090232
 20
165.846852218
 30
0.0
  0
VERTEX
  5
465
  8
0
  6
CONTINUOUS
 62
     8
 10
129.8220741342
 20
165.7646660507
 30
0.0
  0
VERTEX
  5
466
  8
0
  6
CONTINUOUS
 62
     8
 10
129.8324269067
 20
165.694767945
 30
0.0
  0
VERTEX
  5
467
  8
0
  6
CONTINUOUS
 62
     8
 10
129.8650826411
 20
165.6478007045
 30
0.0
  0
VERTEX
  5
468
  8
0
  6
CONTINUOUS
 62
     8
 10
129.8791883957
 20
165.6390567612
 30
0.0
  0
SEQEND
  5
4B8
  8
0
  6
CONTINUOUS
 62
     8
  0
POLYLINE
  5
10C
  8
0
  6
CONTINUOUS
 62
     8
 66
     1
 10
0.0
 20
0.0
 30
0.0
  0
VERTEX
  5
469
  8
0
  6
CONTINUOUS
 62
     8
 10
130.0778355827
 20
166.0518869913
 30
0.0
  0
VERTEX
  5
46A
  8
0
  6
CONTINUOUS
 62
     8
 10
130.0428267563
 20
166.0596744074
 30
0.0
  0
VERTEX
  5
46B
  8
0
  6
CONTINUOUS
 62
     8
 10
129.9831288445
 20
166.0439861482
 30
0.0
  0
SEQEND
  5
4B7
  8
0
  6
CONTINUOUS
 62
     8
  0
POLYLINE
  5
10D
  8
0
  6
CONTINUOUS
 62
     8
 66
     1
 10
0.0
 20
0.0
 30
0.0
  0
VERTEX
  5
46C
  8
0
  6
CONTINUOUS
 62
     8
 10
131.2790363899
 20
166.0439861482
 30
0.0
  0
VERTEX
  5
46D
  8
0
  6
CONTINUOUS
 62
     8
 10
131.3428010938
 20
165.9980310225
 30
0.0
  0
VERTEX
  5
46E
  8
0
  6
CONTINUOUS
 62
     8
 10
131.3961774211
 20
165.9288038178
 30
0.0
  0
VERTEX
  5
46F
  8
0
  6
CONTINUOUS
 62
     8
 10
131.4310292789
 20
165.846852218
 30
0.0
  0
VERTEX
  5
470
  8
0
  6
CONTINUOUS
 62
     8
 10
131.4420460376
 20
165.7646660507
 30
0.0
  0
VERTEX
  5
471
  8
0
  6
CONTINUOUS
 62
     8
 10
131.4275538104
 20
165.694767945
 30
0.0
  0
VERTEX
  5
472
  8
0
  6
CONTINUOUS
 62
     8
 10
131.3897683418
 20
165.6478007045
 30
0.0
  0
VERTEX
  5
473
  8
0
  6
CONTINUOUS
 62
     8
 10
131.3796513966
 20
165.6417507672
 30
0.0
  0
SEQEND
  5
4B6
  8
0
  6
CONTINUOUS
 62
     8
  0
POLYLINE
  5
10E
  8
0
  6
CONTINUOUS
 62
     8
 66
     1
 10
0.0
 20
0.0
 30
0.0
  0
VERTEX
  5
474
  8
0
  6
CONTINUOUS
 62
     8
 10
131.1710420425
 20
166.0496016306
 30
0.0
  0
VERTEX
  5
475
  8
0
  6
CONTINUOUS
 62
     8
 10
131.2146003382
 20
166.0596744074
 30
0.0
  0
VERTEX
  5
476
  8
0
  6
CONTINUOUS
 62
     8
 10
131.2790363899
 20
166.0439861482
 30
0.0
  0
SEQEND
  5
4B5
  8
0
  6
CONTINUOUS
 62
     8
  0
POLYLINE
  5
10F
  8
0
  6
CONTINUOUS
 62
     8
 66
     1
 10
0.0
 20
0.0
 30
0.0
  0
VERTEX
  5
477
  8
0
  6
CONTINUOUS
 62
     8
 10
131.905115973
 20
166.4054833777
 30
0.0
  0
VERTEX
  5
478
  8
0
  6
CONTINUOUS
 62
     8
 10
131.9816195503
 20
166.3504392542
 30
0.0
  0
VERTEX
  5
479
  8
0
  6
CONTINUOUS
 62
     8
 10
132.045633887
 20
166.2674763452
 30
0.0
  0
VERTEX
  5
47A
  8
0
  6
CONTINUOUS
 62
     8
 10
132.0873989562
 20
166.1692371637
 30
0.0
  0
VERTEX
  5
47B
  8
0
  6
CONTINUOUS
 62
     8
 10
132.1005495836
 20
166.0706970464
 30
0.0
  0
VERTEX
  5
47C
  8
0
  6
CONTINUOUS
 62
     8
 10
132.0830884869
 20
165.9868729713
 30
0.0
  0
VERTEX
  5
47D
  8
0
  6
CONTINUOUS
 62
     8
 10
132.0376875365
 20
165.9305284868
 30
0.0
  0
VERTEX
  5
47E
  8
0
  6
CONTINUOUS
 62
     8
 10
131.9712730272
 20
165.9102293587
 30
0.0
  0
VERTEX
  5
47F
  8
0
  6
CONTINUOUS
 62
     8
 10
131.9179003048
 20
165.9192545911
 30
0.0
  0
SEQEND
  5
4B4
  8
0
  6
CONTINUOUS
 62
     8
  0
ARC
  5
110
  8
0
  6
CONTINUOUS
 62
     8
 10
131.8360266879
 20
166.2928277545
 30
0.0
 40
0.1321537694240324
 50
58.4801007587
 51
165.468589567
  0
POLYLINE
  5
111
  8
0
  6
CONTINUOUS
 62
     8
 66
     1
 10
0.0
 20
0.0
 30
0.0
  0
VERTEX
  5
480
  8
0
  6
CONTINUOUS
 62
     8
 10
132.4194615826
 20
167.2980350994
 30
0.0
  0
VERTEX
  5
481
  8
0
  6
CONTINUOUS
 62
     8
 10
132.7002241206
 20
167.0965507018
 30
0.0
  0
VERTEX
  5
482
  8
0
  6
CONTINUOUS
 62
     8
 10
132.9351432491
 20
166.7924142636
 30
0.0
  0
VERTEX
  5
483
  8
0
  6
CONTINUOUS
 62
     8
 10
133.0882605162
 20
166.4320911544
 30
0.0
  0
VERTEX
  5
484
  8
0
  6
CONTINUOUS
 62
     8
 10
133.1361735574
 20
166.0706970464
 30
0.0
  0
VERTEX
  5
485
  8
0
  6
CONTINUOUS
 62
     8
 10
133.0716527237
 20
165.7634543855
 30
0.0
  0
VERTEX
  5
486
  8
0
  6
CONTINUOUS
 62
     8
 10
132.9047035532
 20
165.5571658828
 30
0.0
  0
VERTEX
  5
487
  8
0
  6
CONTINUOUS
 62
     8
 10
132.8596157016
 20
165.5303758993
 30
0.0
  0
SEQEND
  5
4B3
  8
0
  6
CONTINUOUS
 62
     8
  0
POLYLINE
  5
112
  8
0
  6
CONTINUOUS
 62
     8
 66
     1
 10
0.0
 20
0.0
 30
0.0
  0
VERTEX
  5
488
  8
0
  6
CONTINUOUS
 62
     8
 10
131.9367236594
 20
167.3176136171
 30
0.0
  0
VERTEX
  5
489
  8
0
  6
CONTINUOUS
 62
     8
 10
132.1357816969
 20
167.3662222008
 30
0.0
  0
VERTEX
  5
48A
  8
0
  6
CONTINUOUS
 62
     8
 10
132.4194615826
 20
167.2980350994
 30
0.0
  0
SEQEND
  5
4B2
  8
0
  6
CONTINUOUS
 62
     8
  0
POLYLINE
  5
113
  8
0
  6
CONTINUOUS
 62
     8
 66
     1
 10
0.0
 20
0.0
 30
0.0
  0
VERTEX
  5
48B
  8
0
  6
CONTINUOUS
 62
     8
 10
135.7663657389
 20
169.0165256785
 30
0.0
  0
VERTEX
  5
48C
  8
0
  6
CONTINUOUS
 62
     8
 10
136.046735589
 20
168.8170206974
 30
0.0
  0
VERTEX
  5
48D
  8
0
  6
CONTINUOUS
 62
     8
 10
136.2808063718
 20
168.5151298498
 30
0.0
  0
VERTEX
  5
48E
  8
0
  6
CONTINUOUS
 62
     8
 10
136.4327503754
 20
168.1569741395
 30
0.0
  0
VERTEX
  5
48F
  8
0
  6
CONTINUOUS
 62
     8
 10
136.4793452972
 20
167.7973361541
 30
0.0
  0
VERTEX
  5
490
  8
0
  6
CONTINUOUS
 62
     8
 10
136.4135626117
 20
167.49116908
 30
0.0
  0
VERTEX
  5
491
  8
0
  6
CONTINUOUS
 62
     8
 10
136.2455991596
 20
167.2851123059
 30
0.0
  0
VERTEX
  5
492
  8
0
  6
CONTINUOUS
 62
     8
 10
136.2018893093
 20
167.2590528998
 30
0.0
  0
SEQEND
  5
4B1
  8
0
  6
CONTINUOUS
 62
     8
  0
POLYLINE
  5
114
  8
0
  6
CONTINUOUS
 62
     8
 66
     1
 10
0.0
 20
0.0
 30
0.0
  0
VERTEX
  5
493
  8
0
  6
CONTINUOUS
 62
     8
 10
135.285341949
 20
169.0353070032
 30
0.0
  0
VERTEX
  5
494
  8
0
  6
CONTINUOUS
 62
     8
 10
135.4825623054
 20
169.0833012912
 30
0.0
  0
VERTEX
  5
495
  8
0
  6
CONTINUOUS
 62
     8
 10
135.7663657389
 20
169.0165256785
 30
0.0
  0
SEQEND
  5
4B0
  8
0
  6
CONTINUOUS
 62
     8
  0
POLYLINE
  5
115
  8
0
  6
CONTINUOUS
 62
     8
 66
     1
 10
0.0
 20
0.0
 30
0.0
  0
VERTEX
  5
496
  8
0
  6
CONTINUOUS
 62
     8
 10
136.8529609933
 20
168.912962522
 30
0.0
  0
VERTEX
  5
497
  8
0
  6
CONTINUOUS
 62
     8
 10
136.9165775059
 20
168.8677569206
 30
0.0
  0
VERTEX
  5
498
  8
0
  6
CONTINUOUS
 62
     8
 10
136.9696335627
 20
168.7993786547
 30
0.0
  0
VERTEX
  5
499
  8
0
  6
CONTINUOUS
 62
     8
 10
137.0040419652
 20
168.7182459507
 30
0.0
  0
VERTEX
  5
49A
  8
0
  6
CONTINUOUS
 62
     8
 10
137.0145597198
 20
168.636723699
 30
0.0
  0
VERTEX
  5
49B
  8
0
  6
CONTINUOUS
 62
     8
 10
136.9995889476
 20
168.56723329
 30
0.0
  0
VERTEX
  5
49C
  8
0
  6
CONTINUOUS
 62
     8
 10
136.9614181788
 20
168.5203554949
 30
0.0
  0
VERTEX
  5
49D
  8
0
  6
CONTINUOUS
 62
     8
 10
136.9512054767
 20
168.5142649196
 30
0.0
  0
SEQEND
  5
4AF
  8
0
  6
CONTINUOUS
 62
     8
  0
POLYLINE
  5
116
  8
0
  6
CONTINUOUS
 62
     8
 66
     1
 10
0.0
 20
0.0
 30
0.0
  0
VERTEX
  5
49E
  8
0
  6
CONTINUOUS
 62
     8
 10
136.7472867752
 20
168.9190320003
 30
0.0
  0
VERTEX
  5
49F
  8
0
  6
CONTINUOUS
 62
     8
 10
136.7884784247
 20
168.9281148151
 30
0.0
  0
VERTEX
  5
4A0
  8
0
  6
CONTINUOUS
 62
     8
 10
136.8529609933
 20
168.912962522
 30
0.0
  0
SEQEND
  5
4AE
  8
0
  6
CONTINUOUS
 62
     8
  0
POLYLINE
  5
117
  8
0
  6
CONTINUOUS
 62
     8
 66
     1
 10
0.0
 20
0.0
 30
0.0
  0
VERTEX
  5
4A1
  8
0
  6
CONTINUOUS
 62
     8
 10
136.7964351986
 20
169.5423639739
 30
0.0
  0
VERTEX
  5
4A2
  8
0
  6
CONTINUOUS
 62
     8
 10
136.8544898799
 20
169.5573997384
 30
0.0
  0
VERTEX
  5
4A3
  8
0
  6
CONTINUOUS
 62
     8
 10
136.8872080184
 20
169.549942002
 30
0.0
  0
SEQEND
  5
4AD
  8
0
  6
CONTINUOUS
 62
     8
  0
POLYLINE
  5
118
  8
0
  6
CONTINUOUS
 62
     8
 66
     1
 10
0.0
 20
0.0
 30
0.0
  0
VERTEX
  5
4A4
  8
0
  6
CONTINUOUS
 62
     8
 10
136.6918736782
 20
169.1418906287
 30
0.0
  0
VERTEX
  5
4A5
  8
0
  6
CONTINUOUS
 62
     8
 10
136.6785385853
 20
169.1505436139
 30
0.0
  0
VERTEX
  5
4A6
  8
0
  6
CONTINUOUS
 62
     8
 10
136.6472534824
 20
169.1974006449
 30
0.0
  0
VERTEX
  5
4A7
  8
0
  6
CONTINUOUS
 62
     8
 10
136.6378023272
 20
169.2668006918
 30
0.0
  0
VERTEX
  5
4A8
  8
0
  6
CONTINUOUS
 62
     8
 10
136.6516321823
 20
169.3481767325
 30
0.0
  0
VERTEX
  5
4A9
  8
0
  6
CONTINUOUS
 62
     8
 10
136.6866399762
 20
169.429129672
 30
0.0
  0
VERTEX
  5
4AA
  8
0
  6
CONTINUOUS
 62
     8
 10
136.7374912691
 20
169.4973220456
 30
0.0
  0
VERTEX
  5
4AB
  8
0
  6
CONTINUOUS
 62
     8
 10
136.7964351986
 20
169.5423639739
 30
0.0
  0
SEQEND
  5
4AC
  8
0
  6
CONTINUOUS
 62
     8
  0
LINE
  5
119
  8
0
  6
CONTINUOUS
 62
     8
 10
103.7744339211
 20
160.4377654194
 30
0.0
 11
103.7868240755
 21
159.2748620069
 31
0.0
  0
TEXT
  5
11A
  8
0
  6
CONTINUOUS
 62
     7
 10
0.0
 20
6.732893805
 30
0.0
 40
3.633
  1
Edition tudiante de SolidWorks.
 41
0.6671875
 11
0.0
 21
5.4495
 31
0.0
 73
     1
  0
TEXT
  5
11B
  8
0
  6
CONTINUOUS
 62
     7
 10
0.0
 20
1.283393805
 30
0.0
 40
3.633
  1
A usage universitaire uniquement.
 41
0.6681818182
 11
0.0
 21
0.0
 31
0.0
 73
     1
  0
ENDSEC
  0
EOF
