  0
SECTION
  2
HEADER
  9
$ACADVER
  1
AC1009
  9
$DWGCODEPAGE
  3
ansi_1252
  9
$INSBASE
 10
0.0
 20
0.0
 30
0.0
  9
$EXTMIN
 10
0.0
 20
0.0
 30
0.0
  9
$EXTMAX
 10
210.0
 20
297.0
 30
0.0
  9
$LIMMIN
 10
0.0
 20
0.0
  9
$LIMMAX
 10
210.0
 20
297.0
  9
$ORTHOMODE
 70
     0
  9
$REGENMODE
 70
     1
  9
$FILLMODE
 70
     1
  9
$QTEXTMODE
 70
     0
  9
$MIRRTEXT
 70
     1
  9
$DRAGMODE
 70
     2
  9
$LTSCALE
 40
1.0
  9
$OSMODE
 70
    37
  9
$ATTMODE
 70
     1
  9
$TEXTSIZE
 40
3.5
  9
$TRACEWID
 40
1.0
  9
$TEXTSTYLE
  7
STANDARD
  9
$CLAYER
  8
0
  9
$CELTYPE
  6
BYLAYER
  9
$CECOLOR
 62
   256
  9
$DIMSCALE
 40
1.0
  9
$DIMASZ
 40
3.302
  9
$DIMEXO
 40
1.0
  9
$DIMDLI
 40
3.75
  9
$DIMRND
 40
0.0
  9
$DIMDLE
 40
0.0
  9
$DIMEXE
 40
1.0
  9
$DIMTP
 40
0.0
  9
$DIMTM
 40
0.0
  9
$DIMTXT
 40
3.5
  9
$DIMCEN
 40
2.5
  9
$DIMTSZ
 40
0.0
  9
$DIMTOL
 70
     0
  9
$DIMLIM
 70
     0
  9
$DIMTIH
 70
     1
  9
$DIMTOH
 70
     1
  9
$DIMSE1
 70
     0
  9
$DIMSE2
 70
     0
  9
$DIMTAD
 70
     1
  9
$DIMZIN
 70
     0
  9
$DIMBLK
  1

  9
$DIMASO
 70
     1
  9
$DIMSHO
 70
     1
  9
$DIMPOST
  1

  9
$DIMAPOST
  1

  9
$DIMALT
 70
     0
  9
$DIMALTD
 70
     3
  9
$DIMALTF
 40
0.0393700787
  9
$DIMLFAC
 40
5.0
  9
$DIMTOFL
 70
     1
  9
$DIMTVP
 40
0.0
  9
$DIMTIX
 70
     0
  9
$DIMSOXD
 70
     0
  9
$DIMSAH
 70
     0
  9
$DIMBLK1
  1

  9
$DIMBLK2
  1

  9
$DIMSTYLE
  2
ISO-25
  9
$DIMCLRD
 70
     0
  9
$DIMCLRE
 70
     0
  9
$DIMCLRT
 70
     0
  9
$DIMTFAC
 40
1.0
  9
$DIMGAP
 40
1.524
  9
$LUNITS
 70
     2
  9
$LUPREC
 70
     2
  9
$SKETCHINC
 40
1.0
  9
$FILLETRAD
 40
10.0
  9
$AUNITS
 70
     0
  9
$AUPREC
 70
     2
  9
$MENU
  1
.
  9
$ELEVATION
 40
0.0
  9
$PELEVATION
 40
0.0
  9
$THICKNESS
 40
0.0
  9
$LIMCHECK
 70
     0
  9
$CHAMFERA
 40
10.0
  9
$CHAMFERB
 40
10.0
  9
$SKPOLY
 70
     0
  9
$TDCREATE
 40
2456434.423792372
  9
$TDUPDATE
 40
2456434.423792558
  9
$TDINDWG
 40
0.0000000116
  9
$TDUSRTIMER
 40
0.0000000116
  9
$USRTIMER
 70
     1
  9
$ANGBASE
 50
0.0
  9
$ANGDIR
 70
     0
  9
$PDMODE
 70
     0
  9
$PDSIZE
 40
-1.0
  9
$PLINEWID
 40
0.0
  9
$COORDS
 70
     1
  9
$SPLFRAME
 70
     0
  9
$SPLINETYPE
 70
     6
  9
$SPLINESEGS
 70
     8
  9
$ATTDIA
 70
     0
  9
$ATTREQ
 70
     1
  9
$HANDLING
 70
     1
  9
$HANDSEED
  5
3B2
  9
$SURFTAB1
 70
     6
  9
$SURFTAB2
 70
     6
  9
$SURFTYPE
 70
     6
  9
$SURFU
 70
     6
  9
$SURFV
 70
     6
  9
$UCSNAME
  2

  9
$UCSORG
 10
0.0
 20
0.0
 30
0.0
  9
$UCSXDIR
 10
1.0
 20
0.0
 30
0.0
  9
$UCSYDIR
 10
0.0
 20
1.0
 30
0.0
  9
$PUCSNAME
  2

  9
$PUCSORG
 10
0.0
 20
0.0
 30
0.0
  9
$PUCSXDIR
 10
1.0
 20
0.0
 30
0.0
  9
$PUCSYDIR
 10
0.0
 20
1.0
 30
0.0
  9
$USERI1
 70
     0
  9
$USERI2
 70
     0
  9
$USERI3
 70
     0
  9
$USERI4
 70
     0
  9
$USERI5
 70
     0
  9
$USERR1
 40
0.0
  9
$USERR2
 40
0.0
  9
$USERR3
 40
0.0
  9
$USERR4
 40
0.0
  9
$USERR5
 40
0.0
  9
$WORLDVIEW
 70
     1
  9
$SHADEDGE
 70
     3
  9
$SHADEDIF
 70
    70
  9
$TILEMODE
 70
     1
  9
$MAXACTVP
 70
    64
  9
$PLIMCHECK
 70
     0
  9
$PEXTMIN
 10
1.0000000000E+20
 20
1.0000000000E+20
 30
1.0000000000E+20
  9
$PEXTMAX
 10
-1.0000000000E+20
 20
-1.0000000000E+20
 30
-1.0000000000E+20
  9
$PLIMMIN
 10
0.0
 20
0.0
  9
$PLIMMAX
 10
420.0
 20
297.0
  9
$UNITMODE
 70
     0
  9
$VISRETAIN
 70
     1
  9
$PLINEGEN
 70
     0
  9
$PSLTSCALE
 70
     1
  0
ENDSEC
  0
SECTION
  2
TABLES
  0
TABLE
  2
VPORT
 70
     1
  0
VPORT
  2
*ACTIVE
 70
     0
 10
0.0
 20
0.0
 11
1.0
 21
1.0
 12
105.0
 22
148.5
 13
0.0
 23
0.0
 14
10.0
 24
10.0
 15
10.0
 25
10.0
 16
0.0
 26
0.0
 36
1.0
 17
0.0
 27
0.0
 37
0.0
 40
297.0
 41
0.7070707071
 42
50.0
 43
0.0
 44
0.0
 50
0.0
 51
0.0
 71
     0
 72
  2000
 73
     1
 74
     3
 75
     0
 76
     0
 77
     0
 78
     0
  0
ENDTAB
  0
TABLE
  2
LTYPE
 70
     6
  0
LTYPE
  2
CONTINUOUS
 70
     0
  3
Solid line
 72
    65
 73
     0
 40
0.0
  0
LTYPE
  2
HIDDEN
 70
     0
  3
Hidden __ __ __ __ __ __ __ __ __ __ __ __ __ __
 72
    65
 73
     2
 40
1.905
 49
1.27
 49
-0.635
  0
LTYPE
  2
PHANTOM
 70
     0
  3
Phantom ______  __  __  ______  __  __  ______
 72
    65
 73
     6
 40
12.7
 49
6.35
 49
-1.27
 49
1.27
 49
-1.27
 49
1.27
 49
-1.27
  0
LTYPE
  2
CENTER
 70
     0
  3
Center ____ _ ____ _ ____ _ ____ _ ____ _ ____
 72
    65
 73
     4
 40
10.16
 49
6.35
 49
-1.27
 49
1.27
 49
-1.27
  0
LTYPE
  2
CENTERX2
 70
     0
  3
Center (2x) ________  __  ________  __  _____
 72
    65
 73
     4
 40
20.32
 49
12.7
 49
-2.54
 49
2.54
 49
-2.54
  0
LTYPE
  2
DOT2
 70
     0
  3
Dot (.5x) ........................................
 72
    65
 73
     2
 40
0.635
 49
0.0
 49
-0.635
  0
ENDTAB
  0
TABLE
  2
LAYER
 70
     1
  0
LAYER
  2
0
 70
     0
 62
     7
  6
CONTINUOUS
  0
ENDTAB
  0
TABLE
  2
STYLE
 70
     1
  0
STYLE
  2
STANDARD
 70
     0
 40
0.0
 41
1.0
 50
0.0
 71
     0
 42
3.5
  3
txt
  4

  0
ENDTAB
  0
TABLE
  2
VIEW
 70
     0
  0
ENDTAB
  0
TABLE
  2
UCS
 70
     0
  0
ENDTAB
  0
TABLE
  2
APPID
 70
     1
  0
APPID
  2
ACAD
 70
     0
  0
ENDTAB
  0
TABLE
  2
DIMSTYLE
 70
     1
  0
DIMSTYLE
  2
ISO-25
 70
     0
  3

  4

  5

  6

  7

 40
1.0
 41
2.5
 42
0.625
 43
3.75
 44
1.25
 45
0.0
 46
0.0
 47
0.0
 48
0.0
140
2.5
141
2.5
142
0.0
143
0.0393700787
144
1.0
145
0.0
146
1.0
147
0.625
 71
     0
 72
     0
 73
     0
 74
     0
 75
     0
 76
     0
 77
     1
 78
     8
170
     0
171
     3
172
     1
173
     0
174
     0
175
     0
176
     0
177
     0
178
     0
  0
ENDTAB
  0
ENDSEC
  0
SECTION
  2
BLOCKS
  0
BLOCK
  8
0
  2
$MODEL_SPACE
 70
     0
 10
0.0
 20
0.0
 30
0.0
  3
$MODEL_SPACE
  1

  0
ENDBLK
  5
21
  8
0
  0
BLOCK
 67
     1
  8
0
  2
$PAPER_SPACE
 70
     0
 10
0.0
 20
0.0
 30
0.0
  3
$PAPER_SPACE
  1

  0
ENDBLK
  5
1D
 67
     1
  8
0
  0
ENDSEC
  0
SECTION
  2
ENTITIES
  0
LINE
  5
44
  8
0
  6
CONTINUOUS
 62
     7
 10
90.8751516055
 20
248.1675171119
 30
0.0
 11
82.9388457497
 21
251.4639060356
 31
0.0
  0
LINE
  5
45
  8
0
  6
CONTINUOUS
 62
     7
 10
80.9812638293
 20
246.7062585152
 30
0.0
 11
88.8953012139
 21
243.3687032881
 31
0.0
  0
POLYLINE
  5
46
  8
0
  6
CONTINUOUS
 62
     7
 66
     1
 10
0.0
 20
0.0
 30
0.0
  0
VERTEX
  5
144
  8
0
  6
CONTINUOUS
 62
     7
 10
79.8518171457
 20
244.7493366246
 30
0.0
  0
VERTEX
  5
145
  8
0
  6
CONTINUOUS
 62
     7
 10
79.8550964793
 20
245.0775486195
 30
0.0
  0
VERTEX
  5
146
  8
0
  6
CONTINUOUS
 62
     7
 10
79.9116459632
 20
245.6502152228
 30
0.0
  0
VERTEX
  5
147
  8
0
  6
CONTINUOUS
 62
     7
 10
80.0190945321
 20
246.1117410219
 30
0.0
  0
VERTEX
  5
148
  8
0
  6
CONTINUOUS
 62
     7
 10
80.1524163962
 20
246.4483775538
 30
0.0
  0
VERTEX
  5
149
  8
0
  6
CONTINUOUS
 62
     7
 10
80.2811828932
 20
246.6594353943
 30
0.0
  0
VERTEX
  5
14A
  8
0
  6
CONTINUOUS
 62
     7
 10
80.3773983217
 20
246.7636602432
 30
0.0
  0
VERTEX
  5
14B
  8
0
  6
CONTINUOUS
 62
     7
 10
80.4311470667
 20
246.7996098433
 30
0.0
  0
VERTEX
  5
14C
  8
0
  6
CONTINUOUS
 62
     7
 10
80.5040765246
 20
246.8158334923
 30
0.0
  0
VERTEX
  5
14D
  8
0
  6
CONTINUOUS
 62
     7
 10
80.6409854548
 20
246.8082687481
 30
0.0
  0
VERTEX
  5
14E
  8
0
  6
CONTINUOUS
 62
     7
 10
80.8675375379
 20
246.7500607247
 30
0.0
  0
VERTEX
  5
14F
  8
0
  6
CONTINUOUS
 62
     7
 10
80.9812638293
 20
246.7062585152
 30
0.0
  0
SEQEND
  5
3B1
  8
0
  6
CONTINUOUS
 62
     7
  0
POLYLINE
  5
47
  8
0
  6
CONTINUOUS
 62
     7
 66
     1
 10
0.0
 20
0.0
 30
0.0
  0
VERTEX
  5
150
  8
0
  6
CONTINUOUS
 62
     7
 10
82.9388457497
 20
251.4639060356
 30
0.0
  0
VERTEX
  5
151
  8
0
  6
CONTINUOUS
 62
     7
 10
82.3572684776
 20
251.6758102178
 30
0.0
  0
VERTEX
  5
152
  8
0
  6
CONTINUOUS
 62
     7
 10
81.3804766492
 20
251.9004641131
 30
0.0
  0
VERTEX
  5
153
  8
0
  6
CONTINUOUS
 62
     7
 10
80.5132390631
 20
251.9622070377
 30
0.0
  0
VERTEX
  5
154
  8
0
  6
CONTINUOUS
 62
     7
 10
79.5866746095
 20
251.8789218734
 30
0.0
  0
VERTEX
  5
155
  8
0
  6
CONTINUOUS
 62
     7
 10
78.7162795172
 20
251.6462336061
 30
0.0
  0
VERTEX
  5
156
  8
0
  6
CONTINUOUS
 62
     7
 10
77.9163085494
 20
251.2777169002
 30
0.0
  0
VERTEX
  5
157
  8
0
  6
CONTINUOUS
 62
     7
 10
77.1956369445
 20
250.7866496939
 30
0.0
  0
VERTEX
  5
158
  8
0
  6
CONTINUOUS
 62
     7
 10
76.5607864716
 20
250.1851639225
 30
0.0
  0
VERTEX
  5
159
  8
0
  6
CONTINUOUS
 62
     7
 10
76.0145362114
 20
249.4808316507
 30
0.0
  0
VERTEX
  5
15A
  8
0
  6
CONTINUOUS
 62
     7
 10
75.5601825606
 20
248.6784234325
 30
0.0
  0
VERTEX
  5
15B
  8
0
  6
CONTINUOUS
 62
     7
 10
75.2027533042
 20
247.7823714734
 30
0.0
  0
VERTEX
  5
15C
  8
0
  6
CONTINUOUS
 62
     7
 10
74.9489347873
 20
246.8004908558
 30
0.0
  0
VERTEX
  5
15D
  8
0
  6
CONTINUOUS
 62
     7
 10
74.8052085887
 20
245.7468983852
 30
0.0
  0
VERTEX
  5
15E
  8
0
  6
CONTINUOUS
 62
     7
 10
74.7747022658
 20
244.6646893527
 30
0.0
  0
SEQEND
  5
3B0
  8
0
  6
CONTINUOUS
 62
     7
  0
LINE
  5
48
  8
0
  6
CONTINUOUS
 62
     7
 10
74.7747022658
 20
244.6646893527
 30
0.0
 11
75.9240008925
 21
192.500574146
 31
0.0
  0
LINE
  5
49
  8
0
  6
CONTINUOUS
 62
     7
 10
80.8155243046
 20
192.5936039624
 30
0.0
 11
79.8518171457
 21
244.7493366246
 31
0.0
  0
POLYLINE
  5
4A
  8
0
  6
CONTINUOUS
 62
     7
 66
     1
 10
0.0
 20
0.0
 30
0.0
  0
VERTEX
  5
15F
  8
0
  6
CONTINUOUS
 62
     7
 10
82.2896580177
 20
191.1145582861
 30
0.0
  0
VERTEX
  5
160
  8
0
  6
CONTINUOUS
 62
     7
 10
82.1028412516
 20
191.0372998651
 30
0.0
  0
VERTEX
  5
161
  8
0
  6
CONTINUOUS
 62
     7
 10
81.7945239896
 20
190.9518147822
 30
0.0
  0
VERTEX
  5
162
  8
0
  6
CONTINUOUS
 62
     7
 10
81.5751322632
 20
190.9330758782
 30
0.0
  0
VERTEX
  5
163
  8
0
  6
CONTINUOUS
 62
     7
 10
81.4372878071
 20
190.9513709412
 30
0.0
  0
VERTEX
  5
164
  8
0
  6
CONTINUOUS
 62
     7
 10
81.3401851339
 20
190.9935678193
 30
0.0
  0
VERTEX
  5
165
  8
0
  6
CONTINUOUS
 62
     7
 10
81.2449455645
 20
191.074388094
 30
0.0
  0
VERTEX
  5
166
  8
0
  6
CONTINUOUS
 62
     7
 10
81.1270262199
 20
191.2337611499
 30
0.0
  0
VERTEX
  5
167
  8
0
  6
CONTINUOUS
 62
     7
 10
81.003654081
 20
191.4909002769
 30
0.0
  0
VERTEX
  5
168
  8
0
  6
CONTINUOUS
 62
     7
 10
80.8897920207
 20
191.8874810648
 30
0.0
  0
VERTEX
  5
169
  8
0
  6
CONTINUOUS
 62
     7
 10
80.8241185393
 20
192.3864707392
 30
0.0
  0
VERTEX
  5
16A
  8
0
  6
CONTINUOUS
 62
     7
 10
80.8155243046
 20
192.5936039624
 30
0.0
  0
SEQEND
  5
3AF
  8
0
  6
CONTINUOUS
 62
     7
  0
POLYLINE
  5
4B
  8
0
  6
CONTINUOUS
 62
     7
 66
     1
 10
0.0
 20
0.0
 30
0.0
  0
VERTEX
  5
16B
  8
0
  6
CONTINUOUS
 62
     7
 10
75.9240008925
 20
192.500574146
 30
0.0
  0
VERTEX
  5
16C
  8
0
  6
CONTINUOUS
 62
     7
 10
75.9567511378
 20
191.8992437778
 30
0.0
  0
VERTEX
  5
16D
  8
0
  6
CONTINUOUS
 62
     7
 10
76.1134196528
 20
190.8562093385
 30
0.0
  0
VERTEX
  5
16E
  8
0
  6
CONTINUOUS
 62
     7
 10
76.3990090917
 20
189.8668741093
 30
0.0
  0
VERTEX
  5
16F
  8
0
  6
CONTINUOUS
 62
     7
 10
76.8096391996
 20
188.9601063645
 30
0.0
  0
VERTEX
  5
170
  8
0
  6
CONTINUOUS
 62
     7
 10
77.3342404214
 20
188.1591710503
 30
0.0
  0
VERTEX
  5
171
  8
0
  6
CONTINUOUS
 62
     7
 10
77.9559254615
 20
187.4810035208
 30
0.0
  0
VERTEX
  5
172
  8
0
  6
CONTINUOUS
 62
     7
 10
78.655734349
 20
186.9346904394
 30
0.0
  0
VERTEX
  5
173
  8
0
  6
CONTINUOUS
 62
     7
 10
79.4156942582
 20
186.5232073865
 30
0.0
  0
VERTEX
  5
174
  8
0
  6
CONTINUOUS
 62
     7
 10
80.2203452996
 20
186.2460195472
 30
0.0
  0
VERTEX
  5
175
  8
0
  6
CONTINUOUS
 62
     7
 10
81.0550594355
 20
186.1014149971
 30
0.0
  0
VERTEX
  5
176
  8
0
  6
CONTINUOUS
 62
     7
 10
81.9096552895
 20
186.0866140627
 30
0.0
  0
VERTEX
  5
177
  8
0
  6
CONTINUOUS
 62
     7
 10
82.7770686623
 20
186.1999211553
 30
0.0
  0
VERTEX
  5
178
  8
0
  6
CONTINUOUS
 62
     7
 10
83.6506344969
 20
186.4411753301
 30
0.0
  0
VERTEX
  5
179
  8
0
  6
CONTINUOUS
 62
     7
 10
84.3261666698
 20
186.7160706479
 30
0.0
  0
SEQEND
  5
3AE
  8
0
  6
CONTINUOUS
 62
     7
  0
LINE
  5
4C
  8
0
  6
CONTINUOUS
 62
     7
 10
84.3261666698
 20
186.7160706479
 30
0.0
 11
92.386711228
 21
190.4659949057
 31
0.0
  0
LINE
  5
4D
  8
0
  6
CONTINUOUS
 62
     7
 10
90.3699773399
 20
194.8269174964
 30
0.0
 11
82.2896580177
 21
191.1145582861
 31
0.0
  0
POLYLINE
  5
4E
  8
0
  6
CONTINUOUS
 62
     7
 66
     1
 10
0.0
 20
0.0
 30
0.0
  0
VERTEX
  5
17A
  8
0
  6
CONTINUOUS
 62
     7
 10
98.475728336
 20
189.0824259298
 30
0.0
  0
VERTEX
  5
17B
  8
0
  6
CONTINUOUS
 62
     7
 10
98.4541742217
 20
189.6624664825
 30
0.0
  0
VERTEX
  5
17C
  8
0
  6
CONTINUOUS
 62
     7
 10
98.3214006719
 20
190.6790613495
 30
0.0
  0
VERTEX
  5
17D
  8
0
  6
CONTINUOUS
 62
     7
 10
98.0633417572
 20
191.6485981752
 30
0.0
  0
VERTEX
  5
17E
  8
0
  6
CONTINUOUS
 62
     7
 10
97.6816022796
 20
192.5425670832
 30
0.0
  0
VERTEX
  5
17F
  8
0
  6
CONTINUOUS
 62
     7
 10
97.24201667
 20
193.2591576425
 30
0.0
  0
VERTEX
  5
180
  8
0
  6
CONTINUOUS
 62
     7
 10
96.6584721984
 20
193.9459519162
 30
0.0
  0
VERTEX
  5
181
  8
0
  6
CONTINUOUS
 62
     7
 10
95.9920129188
 20
194.5065032371
 30
0.0
  0
VERTEX
  5
182
  8
0
  6
CONTINUOUS
 62
     7
 10
95.2620972638
 20
194.9348515602
 30
0.0
  0
VERTEX
  5
183
  8
0
  6
CONTINUOUS
 62
     7
 10
94.4845835568
 20
195.2309196246
 30
0.0
  0
VERTEX
  5
184
  8
0
  6
CONTINUOUS
 62
     7
 10
93.673819569
 20
195.396197428
 30
0.0
  0
VERTEX
  5
185
  8
0
  6
CONTINUOUS
 62
     7
 10
92.8408658248
 20
195.4331450901
 30
0.0
  0
VERTEX
  5
186
  8
0
  6
CONTINUOUS
 62
     7
 10
91.9926009981
 20
195.3434615958
 30
0.0
  0
VERTEX
  5
187
  8
0
  6
CONTINUOUS
 62
     7
 10
91.1350457026
 20
195.1270056399
 30
0.0
  0
VERTEX
  5
188
  8
0
  6
CONTINUOUS
 62
     7
 10
90.3699773399
 20
194.8269174964
 30
0.0
  0
SEQEND
  5
3AD
  8
0
  6
CONTINUOUS
 62
     7
  0
POLYLINE
  5
4F
  8
0
  6
CONTINUOUS
 62
     7
 66
     1
 10
0.0
 20
0.0
 30
0.0
  0
VERTEX
  5
189
  8
0
  6
CONTINUOUS
 62
     7
 10
92.386711228
 20
190.4659949057
 30
0.0
  0
VERTEX
  5
18A
  8
0
  6
CONTINUOUS
 62
     7
 10
92.5672092297
 20
190.5416325708
 30
0.0
  0
VERTEX
  5
18B
  8
0
  6
CONTINUOUS
 62
     7
 10
92.8577862374
 20
190.6237478584
 30
0.0
  0
VERTEX
  5
18C
  8
0
  6
CONTINUOUS
 62
     7
 10
93.0566258772
 20
190.6418023136
 30
0.0
  0
VERTEX
  5
18D
  8
0
  6
CONTINUOUS
 62
     7
 10
93.1713960529
 20
190.6272788214
 30
0.0
  0
VERTEX
  5
18E
  8
0
  6
CONTINUOUS
 62
     7
 10
93.2431168719
 20
190.5963438721
 30
0.0
  0
VERTEX
  5
18F
  8
0
  6
CONTINUOUS
 62
     7
 10
93.3211625472
 20
190.5294073229
 30
0.0
  0
VERTEX
  5
190
  8
0
  6
CONTINUOUS
 62
     7
 10
93.4261304733
 20
190.3862420446
 30
0.0
  0
VERTEX
  5
191
  8
0
  6
CONTINUOUS
 62
     7
 10
93.540226573
 20
190.1466773475
 30
0.0
  0
VERTEX
  5
192
  8
0
  6
CONTINUOUS
 62
     7
 10
93.6471591382
 20
189.7721716334
 30
0.0
  0
VERTEX
  5
193
  8
0
  6
CONTINUOUS
 62
     7
 10
93.7098089176
 20
189.2964847995
 30
0.0
  0
VERTEX
  5
194
  8
0
  6
CONTINUOUS
 62
     7
 10
93.7189737606
 20
189.049087868
 30
0.0
  0
SEQEND
  5
3AC
  8
0
  6
CONTINUOUS
 62
     7
  0
LINE
  5
50
  8
0
  6
CONTINUOUS
 62
     7
 10
98.7060158554
 20
148.4166000212
 30
0.0
 11
98.475728336
 21
189.0824259298
 31
0.0
  0
LINE
  5
51
  8
0
  6
CONTINUOUS
 62
     7
 10
93.7189737606
 20
189.049087868
 30
0.0
 11
94.0901686705
 21
148.3811641946
 31
0.0
  0
LINE
  5
52
  8
0
  6
CONTINUOUS
 62
     7
 10
99.4289587373
 20
236.4349327401
 30
0.0
 11
103.3600949494
 21
235.6505145441
 31
0.0
  0
ARC
  5
53
  8
0
  6
CONTINUOUS
 62
     7
 10
100.3665231843
 20
238.4048657606
 30
0.0
 40
7.716952261649649
 50
356.0678268321
 51
60.4067326099
  0
LINE
  5
54
  8
0
  6
CONTINUOUS
 62
     7
 10
97.5948763157
 20
238.4070476355
 30
0.0
 11
99.0339427771
 21
237.7980680621
 31
0.0
  0
LINE
  5
55
  8
0
  6
CONTINUOUS
 62
     7
 10
102.5232839321
 20
244.6240596163
 30
0.0
 11
100.5123086001
 21
245.4564237635
 31
0.0
  0
LINE
  5
56
  8
0
  6
CONTINUOUS
 62
     7
 10
95.8530864293
 20
241.1806131558
 30
0.0
 11
95.8455248245
 21
240.9208705355
 31
0.0
  0
LINE
  5
57
  8
0
  6
CONTINUOUS
 62
     7
 10
100.6909374233
 20
245.8990312048
 30
0.0
 11
100.5239715839
 21
245.9680436957
 31
0.0
  0
LINE
  5
58
  8
0
  6
CONTINUOUS
 62
     7
 10
97.5040123448
 20
244.9314993235
 30
0.0
 11
97.3260976468
 21
244.7428177369
 31
0.0
  0
ARC
  5
59
  8
0
  6
CONTINUOUS
 62
     7
 10
98.6819962348
 20
242.2902505529
 30
0.0
 40
2.233592648633679
 50
126.1180052793
 51
157.9384993162
  0
LINE
  5
5A
  8
0
  6
CONTINUOUS
 62
     7
 10
97.2426307864
 20
238.0388990597
 30
0.0
 11
97.408826071
 21
237.9684725646
 31
0.0
  0
POLYLINE
  5
5B
  8
0
  6
CONTINUOUS
 62
     7
 66
     1
 10
0.0
 20
0.0
 30
0.0
  0
VERTEX
  5
195
  8
0
  6
CONTINUOUS
 62
     7
 10
98.4234416017
 20
142.1989717052
 30
0.0
  0
VERTEX
  5
196
  8
0
  6
CONTINUOUS
 62
     7
 10
98.2620028261
 20
142.4219802496
 30
0.0
  0
VERTEX
  5
197
  8
0
  6
CONTINUOUS
 62
     7
 10
97.962335045
 20
142.6588310923
 30
0.0
  0
VERTEX
  5
198
  8
0
  6
CONTINUOUS
 62
     7
 10
97.5574889845
 20
142.8506023925
 30
0.0
  0
VERTEX
  5
199
  8
0
  6
CONTINUOUS
 62
     7
 10
97.0758584695
 20
142.976843427
 30
0.0
  0
VERTEX
  5
19A
  8
0
  6
CONTINUOUS
 62
     7
 10
96.55863804
 20
143.028045789
 30
0.0
  0
VERTEX
  5
19B
  8
0
  6
CONTINUOUS
 62
     7
 10
96.0361032164
 20
143.0036070552
 30
0.0
  0
VERTEX
  5
19C
  8
0
  6
CONTINUOUS
 62
     7
 10
95.5363207753
 20
142.9041598085
 30
0.0
  0
VERTEX
  5
19D
  8
0
  6
CONTINUOUS
 62
     7
 10
95.0855159279
 20
142.7298675037
 30
0.0
  0
VERTEX
  5
19E
  8
0
  6
CONTINUOUS
 62
     7
 10
94.7070296354
 20
142.4756359014
 30
0.0
  0
VERTEX
  5
19F
  8
0
  6
CONTINUOUS
 62
     7
 10
94.4712120283
 20
142.1952580439
 30
0.0
  0
VERTEX
  5
1A0
  8
0
  6
CONTINUOUS
 62
     7
 10
94.4384638678
 20
142.1124413759
 30
0.0
  0
SEQEND
  5
3AB
  8
0
  6
CONTINUOUS
 62
     7
  0
ARC
  5
5C
  8
0
  6
CONTINUOUS
 62
     7
 10
95.4510764059
 20
141.8577563303
 30
0.0
 40
1.075762043844991
 50
182.1997239604
 51
248.3466693424
  0
POLYLINE
  5
5D
  8
0
  6
CONTINUOUS
 62
     7
 66
     1
 10
0.0
 20
0.0
 30
0.0
  0
VERTEX
  5
1A1
  8
0
  6
CONTINUOUS
 62
     7
 10
96.5539591488
 20
140.5617251641
 30
0.0
  0
VERTEX
  5
1A2
  8
0
  6
CONTINUOUS
 62
     7
 10
96.7879295889
 20
140.5682072619
 30
0.0
  0
VERTEX
  5
1A3
  8
0
  6
CONTINUOUS
 62
     7
 10
97.2906948252
 20
140.6586324564
 30
0.0
  0
VERTEX
  5
1A4
  8
0
  6
CONTINUOUS
 62
     7
 10
97.746729447
 20
140.8245707619
 30
0.0
  0
VERTEX
  5
1A5
  8
0
  6
CONTINUOUS
 62
     7
 10
98.1324219922
 20
141.0704186727
 30
0.0
  0
VERTEX
  5
1A6
  8
0
  6
CONTINUOUS
 62
     7
 10
98.3783717539
 20
141.3463994741
 30
0.0
  0
VERTEX
  5
1A7
  8
0
  6
CONTINUOUS
 62
     7
 10
98.5102478124
 20
141.6517423878
 30
0.0
  0
VERTEX
  5
1A8
  8
0
  6
CONTINUOUS
 62
     7
 10
98.5207770476
 20
141.8619094797
 30
0.0
  0
SEQEND
  5
3AA
  8
0
  6
CONTINUOUS
 62
     7
  0
LINE
  5
5E
  8
0
  6
CONTINUOUS
 62
     7
 10
98.3485928867
 20
138.0126088802
 30
0.0
 11
98.3289951722
 21
141.2909938966
 31
0.0
  0
LINE
  5
5F
  8
0
  6
CONTINUOUS
 62
     7
 10
94.5726161853
 20
141.2589889881
 30
0.0
 11
94.601483967
 21
137.9832017588
 31
0.0
  0
ARC
  5
60
  8
0
  6
CONTINUOUS
 62
     7
 10
91.7169281804
 20
139.7973585419
 30
0.0
 40
1.072227612044095
 50
108.8468254679
 51
179.756753056
  0
LINE
  5
61
  8
0
  6
CONTINUOUS
 62
     7
 10
90.6418522774
 20
139.8001075741
 30
0.0
 11
90.7408243786
 21
131.4066019579
 31
0.0
  0
LINE
  5
62
  8
0
  6
CONTINUOUS
 62
     7
 10
92.5431904141
 20
141.4206866291
 30
0.0
 11
91.3705565824
 21
140.8120992812
 31
0.0
  0
LINE
  5
63
  8
0
  6
CONTINUOUS
 62
     7
 10
102.1658092552
 20
141.2575265021
 30
0.0
 11
98.3650513075
 21
141.3314525701
 31
0.0
  0
LINE
  5
64
  8
0
  6
CONTINUOUS
 62
     7
 10
94.4826530615
 20
141.4069665705
 30
0.0
 11
92.6379762093
 21
141.4428461788
 31
0.0
  0
ARC
  5
65
  8
0
  6
CONTINUOUS
 62
     7
 10
112.308414385
 20
135.4703862676
 30
0.0
 40
0.412532578131717
 50
359.7136748234
 51
62.0922407469
  0
LINE
  5
66
  8
0
  6
CONTINUOUS
 62
     7
 10
112.7049770713
 20
132.2123618339
 30
0.0
 11
112.720941812
 21
135.4683247201
 31
0.0
  0
LINE
  5
67
  8
0
  6
CONTINUOUS
 62
     7
 10
112.5015000492
 20
135.8349422362
 30
0.0
 11
110.1153309256
 21
137.0982503116
 31
0.0
  0
LINE
  5
68
  8
0
  6
CONTINUOUS
 62
     7
 10
104.4054550106
 20
140.1212264625
 30
0.0
 11
102.3484313051
 21
141.2102752783
 31
0.0
  0
LINE
  5
69
  8
0
  6
CONTINUOUS
 62
     7
 10
87.3182776366
 20
131.4199660828
 30
0.0
 11
87.3282758499
 21
130.7253213582
 31
0.0
  0
LINE
  5
6A
  8
0
  6
CONTINUOUS
 62
     7
 10
115.4362803072
 20
131.5144318118
 30
0.0
 11
115.4411253751
 21
132.2083614472
 31
0.0
  0
LINE
  5
6B
  8
0
  6
CONTINUOUS
 62
     7
 10
112.6930840668
 20
129.7868178004
 30
0.0
 11
112.6933663919
 21
129.844397186
 31
0.0
  0
ARC
  5
6C
  8
0
  6
CONTINUOUS
 62
     7
 10
102.1578892085
 20
140.8503810516
 30
0.0
 40
0.4072224760624878
 50
62.1015030279
 51
88.8855873865
  0
POLYLINE
  5
6D
  8
0
  6
CONTINUOUS
 62
     7
 66
     1
 10
0.0
 20
0.0
 30
0.0
  0
VERTEX
  5
1A9
  8
0
  6
CONTINUOUS
 62
     7
 10
128.0461641914
 20
173.6647237053
 30
0.0
  0
VERTEX
  5
1AA
  8
0
  6
CONTINUOUS
 62
     7
 10
128.0559921951
 20
173.7863749803
 30
0.0
  0
VERTEX
  5
1AB
  8
0
  6
CONTINUOUS
 62
     7
 10
127.9881953728
 20
174.5844669578
 30
0.0
  0
VERTEX
  5
1AC
  8
0
  6
CONTINUOUS
 62
     7
 10
127.7960133661
 20
175.3536782318
 30
0.0
  0
VERTEX
  5
1AD
  8
0
  6
CONTINUOUS
 62
     7
 10
127.4871577581
 20
176.0891745226
 30
0.0
  0
VERTEX
  5
1AE
  8
0
  6
CONTINUOUS
 62
     7
 10
127.0649065708
 20
176.7908055611
 30
0.0
  0
VERTEX
  5
1AF
  8
0
  6
CONTINUOUS
 62
     7
 10
126.5279838011
 20
177.4592440077
 30
0.0
  0
VERTEX
  5
1B0
  8
0
  6
CONTINUOUS
 62
     7
 10
125.872549251
 20
178.0933737557
 30
0.0
  0
VERTEX
  5
1B1
  8
0
  6
CONTINUOUS
 62
     7
 10
125.0971724166
 20
178.6877713088
 30
0.0
  0
VERTEX
  5
1B2
  8
0
  6
CONTINUOUS
 62
     7
 10
124.2086437185
 20
179.2326400447
 30
0.0
  0
VERTEX
  5
1B3
  8
0
  6
CONTINUOUS
 62
     7
 10
123.5749091458
 20
179.5565111319
 30
0.0
  0
SEQEND
  5
3A9
  8
0
  6
CONTINUOUS
 62
     7
  0
POLYLINE
  5
6E
  8
0
  6
CONTINUOUS
 62
     7
 66
     1
 10
0.0
 20
0.0
 30
0.0
  0
VERTEX
  5
1B4
  8
0
  6
CONTINUOUS
 62
     7
 10
123.5749091458
 20
179.5565111319
 30
0.0
  0
VERTEX
  5
1B5
  8
0
  6
CONTINUOUS
 62
     7
 10
123.0332892465
 20
179.7992218517
 30
0.0
  0
VERTEX
  5
1B6
  8
0
  6
CONTINUOUS
 62
     7
 10
121.9587902245
 20
180.2040676766
 30
0.0
  0
VERTEX
  5
1B7
  8
0
  6
CONTINUOUS
 62
     7
 10
120.8283241193
 20
180.5388892503
 30
0.0
  0
VERTEX
  5
1B8
  8
0
  6
CONTINUOUS
 62
     7
 10
119.6529590112
 20
180.804451198
 30
0.0
  0
VERTEX
  5
1B9
  8
0
  6
CONTINUOUS
 62
     7
 10
118.4435485509
 20
181.0012509126
 30
0.0
  0
VERTEX
  5
1BA
  8
0
  6
CONTINUOUS
 62
     7
 10
117.2105664854
 20
181.1296224405
 30
0.0
  0
VERTEX
  5
1BB
  8
0
  6
CONTINUOUS
 62
     7
 10
115.9644827877
 20
181.1897321409
 30
0.0
  0
VERTEX
  5
1BC
  8
0
  6
CONTINUOUS
 62
     7
 10
114.7158325444
 20
181.1816512015
 30
0.0
  0
VERTEX
  5
1BD
  8
0
  6
CONTINUOUS
 62
     7
 10
113.4753276477
 20
181.1054166421
 30
0.0
  0
VERTEX
  5
1BE
  8
0
  6
CONTINUOUS
 62
     7
 10
112.2539220614
 20
180.961094496
 30
0.0
  0
VERTEX
  5
1BF
  8
0
  6
CONTINUOUS
 62
     7
 10
111.0616185717
 20
180.7485851581
 30
0.0
  0
VERTEX
  5
1C0
  8
0
  6
CONTINUOUS
 62
     7
 10
109.9079746635
 20
180.4674082472
 30
0.0
  0
VERTEX
  5
1C1
  8
0
  6
CONTINUOUS
 62
     7
 10
108.8021003915
 20
180.1163937319
 30
0.0
  0
VERTEX
  5
1C2
  8
0
  6
CONTINUOUS
 62
     7
 10
107.7529200361
 20
179.6933023009
 30
0.0
  0
VERTEX
  5
1C3
  8
0
  6
CONTINUOUS
 62
     7
 10
106.7699808584
 20
179.1945653748
 30
0.0
  0
VERTEX
  5
1C4
  8
0
  6
CONTINUOUS
 62
     7
 10
105.8652181701
 20
178.6157589138
 30
0.0
  0
VERTEX
  5
1C5
  8
0
  6
CONTINUOUS
 62
     7
 10
105.0575568504
 20
177.9558957687
 30
0.0
  0
VERTEX
  5
1C6
  8
0
  6
CONTINUOUS
 62
     7
 10
104.4431437282
 20
177.309737804
 30
0.0
  0
VERTEX
  5
1C7
  8
0
  6
CONTINUOUS
 62
     7
 10
103.9473473471
 20
176.6294237593
 30
0.0
  0
VERTEX
  5
1C8
  8
0
  6
CONTINUOUS
 62
     7
 10
103.569044211
 20
175.9211436764
 30
0.0
  0
VERTEX
  5
1C9
  8
0
  6
CONTINUOUS
 62
     7
 10
103.3066925105
 20
175.1897242945
 30
0.0
  0
VERTEX
  5
1CA
  8
0
  6
CONTINUOUS
 62
     7
 10
103.1523580891
 20
174.3685861775
 30
0.0
  0
VERTEX
  5
1CB
  8
0
  6
CONTINUOUS
 62
     7
 10
103.1428204421
 20
173.853558315
 30
0.0
  0
SEQEND
  5
3A8
  8
0
  6
CONTINUOUS
 62
     7
  0
LINE
  5
6F
  8
0
  6
CONTINUOUS
 62
     7
 10
127.4724727966
 20
137.3964420443
 30
0.0
 11
128.0553839288
 21
173.6928302005
 31
0.0
  0
LINE
  5
70
  8
0
  6
CONTINUOUS
 62
     7
 10
103.1271693907
 20
173.8611339452
 30
0.0
 11
103.2033343486
 21
140.7576644772
 31
0.0
  0
POLYLINE
  5
71
  8
0
  6
CONTINUOUS
 62
     7
 66
     1
 10
0.0
 20
0.0
 30
0.0
  0
VERTEX
  5
1CC
  8
0
  6
CONTINUOUS
 62
     7
 10
113.1103332427
 20
130.0710844384
 30
0.0
  0
VERTEX
  5
1CD
  8
0
  6
CONTINUOUS
 62
     7
 10
114.3523993432
 20
129.967050833
 30
0.0
  0
VERTEX
  5
1CE
  8
0
  6
CONTINUOUS
 62
     7
 10
115.6048514746
 20
129.9389685725
 30
0.0
  0
VERTEX
  5
1CF
  8
0
  6
CONTINUOUS
 62
     7
 10
116.8546044059
 20
129.9870177546
 30
0.0
  0
VERTEX
  5
1D0
  8
0
  6
CONTINUOUS
 62
     7
 10
118.0895905733
 20
130.1110883612
 30
0.0
  0
VERTEX
  5
1D1
  8
0
  6
CONTINUOUS
 62
     7
 10
119.2984008091
 20
130.3109809418
 30
0.0
  0
VERTEX
  5
1D2
  8
0
  6
CONTINUOUS
 62
     7
 10
120.4701757422
 20
130.5866119267
 30
0.0
  0
VERTEX
  5
1D3
  8
0
  6
CONTINUOUS
 62
     7
 10
121.5944016473
 20
130.938209347
 30
0.0
  0
VERTEX
  5
1D4
  8
0
  6
CONTINUOUS
 62
     7
 10
122.6606733932
 20
131.3665119749
 30
0.0
  0
VERTEX
  5
1D5
  8
0
  6
CONTINUOUS
 62
     7
 10
123.6580704258
 20
131.8727938003
 30
0.0
  0
VERTEX
  5
1D6
  8
0
  6
CONTINUOUS
 62
     7
 10
124.573992867
 20
132.458290009
 30
0.0
  0
VERTEX
  5
1D7
  8
0
  6
CONTINUOUS
 62
     7
 10
125.3909416932
 20
133.1207120301
 30
0.0
  0
VERTEX
  5
1D8
  8
0
  6
CONTINUOUS
 62
     7
 10
126.0888267291
 20
133.8514718908
 30
0.0
  0
VERTEX
  5
1D9
  8
0
  6
CONTINUOUS
 62
     7
 10
126.5952625964
 20
134.5465017688
 30
0.0
  0
VERTEX
  5
1DA
  8
0
  6
CONTINUOUS
 62
     7
 10
126.9861466642
 20
135.2692213604
 30
0.0
  0
VERTEX
  5
1DB
  8
0
  6
CONTINUOUS
 62
     7
 10
127.2857024893
 20
136.0957553261
 30
0.0
  0
VERTEX
  5
1DC
  8
0
  6
CONTINUOUS
 62
     7
 10
127.4435337996
 20
136.9268423198
 30
0.0
  0
VERTEX
  5
1DD
  8
0
  6
CONTINUOUS
 62
     7
 10
127.4559697053
 20
137.3787327861
 30
0.0
  0
SEQEND
  5
3A7
  8
0
  6
CONTINUOUS
 62
     7
  0
LINE
  5
72
  8
0
  6
CONTINUOUS
 62
     7
 10
121.2460579887
 20
123.6181594782
 30
0.0
 11
121.3290475019
 21
130.8552208368
 31
0.0
  0
LINE
  5
73
  8
0
  6
CONTINUOUS
 62
     7
 10
109.2529890872
 20
127.8257756472
 30
0.0
 11
109.243567809
 21
123.7083888268
 31
0.0
  0
ARC
  5
74
  8
0
  6
CONTINUOUS
 62
     7
 10
102.1827213472
 20
85.1726503422
 30
0.0
 40
4.029653928705184
 50
239.1384517292
 51
300.648755565
  0
ARC
  5
75
  8
0
  6
CONTINUOUS
 62
     7
 10
88.457686324
 20
113.0904759607
 30
0.0
 40
4.066503780895869
 50
118.5041276813
 51
180.9725181325
  0
LINE
  5
76
  8
0
  6
CONTINUOUS
 62
     7
 10
84.3917683182
 20
113.0214558897
 30
0.0
 11
84.7273373181
 21
93.1108693213
 31
0.0
  0
LINE
  5
77
  8
0
  6
CONTINUOUS
 62
     7
 10
86.6703439058
 20
89.7448782088
 30
0.0
 11
100.1156487868
 21
81.7135577134
 31
0.0
  0
LINE
  5
78
  8
0
  6
CONTINUOUS
 62
     7
 10
104.2369328419
 20
81.7059046174
 30
0.0
 11
129.3455906289
 21
96.5687863396
 31
0.0
  0
LINE
  5
79
  8
0
  6
CONTINUOUS
 62
     7
 10
99.5690437206
 20
123.7449472832
 30
0.0
 11
86.5170609702
 21
116.6640492755
 31
0.0
  0
ARC
  5
7A
  8
0
  6
CONTINUOUS
 62
     7
 10
127.6501394886
 20
119.715399391
 30
0.0
 40
4.010654159574657
 50
358.8848236242
 51
61.9157446508
  0
LINE
  5
7B
  8
0
  6
CONTINUOUS
 62
     7
 10
131.2750396239
 20
99.8846959725
 30
0.0
 11
131.6600339985
 21
119.6373429543
 31
0.0
  0
LINE
  5
7C
  8
0
  6
CONTINUOUS
 62
     7
 10
129.5382329756
 20
123.2538241496
 30
0.0
 11
121.2923069174
 21
127.6512754927
 31
0.0
  0
ARC
  5
7D
  8
0
  6
CONTINUOUS
 62
     7
 10
88.7237194201
 20
93.173974469
 30
0.0
 40
3.996880304080771
 50
180.9046577806
 51
239.086423487
  0
ARC
  5
7E
  8
0
  6
CONTINUOUS
 62
     7
 10
127.3353842288
 20
99.9577827301
 30
0.0
 40
3.940333273463734
 50
300.6745889041
 51
358.9371957611
  0
POLYLINE
  5
7F
  8
0
  6
CONTINUOUS
 62
     7
 66
     1
 10
0.0
 20
0.0
 30
0.0
  0
VERTEX
  5
1DE
  8
0
  6
CONTINUOUS
 62
     7
 10
88.0263689568
 20
245.0116251299
 30
0.0
  0
VERTEX
  5
1DF
  8
0
  6
CONTINUOUS
 62
     7
 10
88.0978708393
 20
244.4226824225
 30
0.0
  0
VERTEX
  5
1E0
  8
0
  6
CONTINUOUS
 62
     7
 10
88.2916657767
 20
243.9259186103
 30
0.0
  0
VERTEX
  5
1E1
  8
0
  6
CONTINUOUS
 62
     7
 10
88.5942945987
 20
243.5551166232
 30
0.0
  0
VERTEX
  5
1E2
  8
0
  6
CONTINUOUS
 62
     7
 10
88.9849050992
 20
243.3353194567
 30
0.0
  0
VERTEX
  5
1E3
  8
0
  6
CONTINUOUS
 62
     7
 10
89.436734234
 20
243.2811847082
 30
0.0
  0
VERTEX
  5
1E4
  8
0
  6
CONTINUOUS
 62
     7
 10
89.9189701131
 20
243.3960719056
 30
0.0
  0
VERTEX
  5
1E5
  8
0
  6
CONTINUOUS
 62
     7
 10
90.3988568735
 20
243.6719016338
 30
0.0
  0
VERTEX
  5
1E6
  8
0
  6
CONTINUOUS
 62
     7
 10
90.8438978577
 20
244.0897726162
 30
0.0
  0
VERTEX
  5
1E7
  8
0
  6
CONTINUOUS
 62
     7
 10
91.22401487
 20
244.6212771852
 30
0.0
  0
VERTEX
  5
1E8
  8
0
  6
CONTINUOUS
 62
     7
 10
91.5135311413
 20
245.2304184321
 30
0.0
  0
VERTEX
  5
1E9
  8
0
  6
CONTINUOUS
 62
     7
 10
91.692860571
 20
245.8760035058
 30
0.0
  0
VERTEX
  5
1EA
  8
0
  6
CONTINUOUS
 62
     7
 10
91.7498041347
 20
246.5143658439
 30
0.0
  0
VERTEX
  5
1EB
  8
0
  6
CONTINUOUS
 62
     7
 10
91.6803752564
 20
247.1022532937
 30
0.0
  0
VERTEX
  5
1EC
  8
0
  6
CONTINUOUS
 62
     7
 10
91.4890995466
 20
247.5997085243
 30
0.0
  0
VERTEX
  5
1ED
  8
0
  6
CONTINUOUS
 62
     7
 10
91.1887611533
 20
247.9727633349
 30
0.0
  0
VERTEX
  5
1EE
  8
0
  6
CONTINUOUS
 62
     7
 10
90.7995985704
 20
248.1957710902
 30
0.0
  0
VERTEX
  5
1EF
  8
0
  6
CONTINUOUS
 62
     7
 10
90.3479868768
 20
248.2532139257
 30
0.0
  0
VERTEX
  5
1F0
  8
0
  6
CONTINUOUS
 62
     7
 10
89.8646796966
 20
248.1408459204
 30
0.0
  0
VERTEX
  5
1F1
  8
0
  6
CONTINUOUS
 62
     7
 10
89.3827199406
 20
247.8660714715
 30
0.0
  0
VERTEX
  5
1F2
  8
0
  6
CONTINUOUS
 62
     7
 10
88.9351597209
 20
247.4475090866
 30
0.0
  0
VERTEX
  5
1F3
  8
0
  6
CONTINUOUS
 62
     7
 10
88.552752263
 20
246.913751688
 30
0.0
  0
VERTEX
  5
1F4
  8
0
  6
CONTINUOUS
 62
     7
 10
88.2617880654
 20
246.3013998307
 30
0.0
  0
VERTEX
  5
1F5
  8
0
  6
CONTINUOUS
 62
     7
 10
88.0822412025
 20
245.652506654
 30
0.0
  0
VERTEX
  5
1F6
  8
0
  6
CONTINUOUS
 62
     7
 10
88.0263689568
 20
245.0116251299
 30
0.0
  0
SEQEND
  5
3A6
  8
0
  6
CONTINUOUS
 62
     7
  0
POLYLINE
  5
80
  8
0
  6
CONTINUOUS
 62
     7
 66
     1
 10
0.0
 20
0.0
 30
0.0
  0
VERTEX
  5
1F7
  8
0
  6
CONTINUOUS
 62
     7
 10
88.196273849
 20
245.080197023
 30
0.0
  0
VERTEX
  5
1F8
  8
0
  6
CONTINUOUS
 62
     7
 10
88.2665955772
 20
244.5232147338
 30
0.0
  0
VERTEX
  5
1F9
  8
0
  6
CONTINUOUS
 62
     7
 10
88.4574782562
 20
244.0589545946
 30
0.0
  0
VERTEX
  5
1FA
  8
0
  6
CONTINUOUS
 62
     7
 10
88.7545284192
 20
243.7217721098
 30
0.0
  0
VERTEX
  5
1FB
  8
0
  6
CONTINUOUS
 62
     7
 10
89.13550748
 20
243.536449737
 30
0.0
  0
VERTEX
  5
1FC
  8
0
  6
CONTINUOUS
 62
     7
 10
89.5720414428
 20
243.5164247565
 30
0.0
  0
VERTEX
  5
1FD
  8
0
  6
CONTINUOUS
 62
     7
 10
90.0317594483
 20
243.6628822231
 30
0.0
  0
VERTEX
  5
1FE
  8
0
  6
CONTINUOUS
 62
     7
 10
90.4806928108
 20
243.9647541545
 30
0.0
  0
VERTEX
  5
1FF
  8
0
  6
CONTINUOUS
 62
     7
 10
90.8857573504
 20
244.3995998528
 30
0.0
  0
VERTEX
  5
200
  8
0
  6
CONTINUOUS
 62
     7
 10
91.2171457698
 20
244.9352850702
 30
0.0
  0
VERTEX
  5
201
  8
0
  6
CONTINUOUS
 62
     7
 10
91.4504704001
 20
245.5323313921
 30
0.0
  0
VERTEX
  5
202
  8
0
  6
CONTINUOUS
 62
     7
 10
91.5685169563
 20
246.1467714642
 30
0.0
  0
VERTEX
  5
203
  8
0
  6
CONTINUOUS
 62
     7
 10
91.5624950324
 20
246.7333192544
 30
0.0
  0
VERTEX
  5
204
  8
0
  6
CONTINUOUS
 62
     7
 10
91.4327001668
 20
247.2486462913
 30
0.0
  0
VERTEX
  5
205
  8
0
  6
CONTINUOUS
 62
     7
 10
91.1885355508
 20
247.654544691
 30
0.0
  0
VERTEX
  5
206
  8
0
  6
CONTINUOUS
 62
     7
 10
90.8478792971
 20
247.9207571018
 30
0.0
  0
VERTEX
  5
207
  8
0
  6
CONTINUOUS
 62
     7
 10
90.435825557
 20
248.0272650263
 30
0.0
  0
VERTEX
  5
208
  8
0
  6
CONTINUOUS
 62
     7
 10
89.9828733587
 20
247.9658532231
 30
0.0
  0
VERTEX
  5
209
  8
0
  6
CONTINUOUS
 62
     7
 10
89.5226827969
 20
247.7408111266
 30
0.0
  0
VERTEX
  5
20A
  8
0
  6
CONTINUOUS
 62
     7
 10
89.0895594645
 20
247.3686923662
 30
0.0
  0
VERTEX
  5
20B
  8
0
  6
CONTINUOUS
 62
     7
 10
88.7158590993
 20
246.8771273377
 30
0.0
  0
VERTEX
  5
20C
  8
0
  6
CONTINUOUS
 62
     7
 10
88.4295198022
 20
246.302764866
 30
0.0
  0
VERTEX
  5
20D
  8
0
  6
CONTINUOUS
 62
     7
 10
88.2519248557
 20
245.6884981312
 30
0.0
  0
VERTEX
  5
20E
  8
0
  6
CONTINUOUS
 62
     7
 10
88.196273849
 20
245.080197023
 30
0.0
  0
SEQEND
  5
3A5
  8
0
  6
CONTINUOUS
 62
     7
  0
POLYLINE
  5
81
  8
0
  6
CONTINUOUS
 62
     7
 66
     1
 10
0.0
 20
0.0
 30
0.0
  0
VERTEX
  5
20F
  8
0
  6
CONTINUOUS
 62
     7
 10
94.7454230133
 20
147.5543324896
 30
0.0
  0
VERTEX
  5
210
  8
0
  6
CONTINUOUS
 62
     7
 10
95.2197467188
 20
147.3631669496
 30
0.0
  0
VERTEX
  5
211
  8
0
  6
CONTINUOUS
 62
     7
 10
95.7748917238
 20
147.2429152922
 30
0.0
  0
VERTEX
  5
212
  8
0
  6
CONTINUOUS
 62
     7
 10
96.3728111743
 20
147.2018855605
 30
0.0
  0
VERTEX
  5
213
  8
0
  6
CONTINUOUS
 62
     7
 10
96.9724616527
 20
147.2429152922
 30
0.0
  0
VERTEX
  5
214
  8
0
  6
CONTINUOUS
 62
     7
 10
97.5326800272
 20
147.3631669496
 30
0.0
  0
VERTEX
  5
215
  8
0
  6
CONTINUOUS
 62
     7
 10
98.0150689305
 20
147.5543324896
 30
0.0
  0
VERTEX
  5
216
  8
0
  6
CONTINUOUS
 62
     7
 10
98.3866724562
 20
147.803230077
 30
0.0
  0
VERTEX
  5
217
  8
0
  6
CONTINUOUS
 62
     7
 10
98.6222438132
 20
148.0927439579
 30
0.0
  0
VERTEX
  5
218
  8
0
  6
CONTINUOUS
 62
     7
 10
98.7059446778
 20
148.4030321729
 30
0.0
  0
VERTEX
  5
219
  8
0
  6
CONTINUOUS
 62
     7
 10
98.7060158554
 20
148.4166000212
 30
0.0
  0
SEQEND
  5
3A4
  8
0
  6
CONTINUOUS
 62
     7
  0
ARC
  5
82
  8
0
  6
CONTINUOUS
 62
     7
 10
95.110955846
 20
148.5170694436
 30
0.0
 40
1.02979449133585
 50
187.583629484
 51
249.209186832
  0
ARC
  5
83
  8
0
  6
CONTINUOUS
 62
     7
 10
95.670697273
 20
236.4946277871
 30
0.0
 40
8.041915321511114
 50
358.8053622379
 51
60.0213225513
  0
ARC
  5
84
  8
0
  6
CONTINUOUS
 62
     7
 10
104.8870892959
 20
235.7848809926
 30
0.0
 40
1.29512838828981
 50
155.2566257215
 51
186.4014297555
  0
ARC
  5
85
  8
0
  6
CONTINUOUS
 62
     7
 10
103.644528929
 20
237.1057922214
 30
0.0
 40
1.465985268796763
 50
208.3196780084
 51
268.2607895691
  0
ARC
  5
86
  8
0
  6
CONTINUOUS
 62
     7
 10
95.6912003256
 20
236.5177073313
 30
0.0
 40
6.663665531041136
 50
359.0768127836
 51
60.118280083
  0
ARC
  5
87
  8
0
  6
CONTINUOUS
 62
     7
 10
100.2720279628
 20
242.3416147302
 30
0.0
 40
1.261759112227386
 50
117.5178997266
 51
182.0955639965
  0
LINE
  5
88
  8
0
  6
CONTINUOUS
 62
     7
 10
99.6890628244
 20
243.4606266626
 30
0.0
 11
101.7302429421
 21
244.2985204342
 31
0.0
  0
LINE
  5
89
  8
0
  6
CONTINUOUS
 62
     7
 10
101.7302429421
 20
244.2985204342
 30
0.0
 11
103.7622494186
 21
245.132648474
 31
0.0
  0
ARC
  5
8A
  8
0
  6
CONTINUOUS
 62
     7
 10
99.7808124091
 20
238.2057005466
 30
0.0
 40
7.989646315675702
 50
358.7552341233
 51
60.1107842465
  0
LINE
  5
8B
  8
0
  6
CONTINUOUS
 62
     7
 10
103.7108645963
 20
236.3269630879
 30
0.0
 11
107.7685732941
 21
238.0321370334
 31
0.0
  0
LINE
  5
8C
  8
0
  6
CONTINUOUS
 62
     7
 10
99.0376400512
 20
237.0697245594
 30
0.0
 11
99.0243931348
 21
239.6792972381
 31
0.0
  0
LINE
  5
8D
  8
0
  6
CONTINUOUS
 62
     7
 10
99.0243931348
 20
239.6792972381
 30
0.0
 11
99.0111126799
 21
242.2954768204
 31
0.0
  0
LINE
  5
8E
  8
0
  6
CONTINUOUS
 62
     7
 10
99.0376400512
 20
237.0697245594
 30
0.0
 11
102.3540008726
 21
236.4103426231
 31
0.0
  0
ARC
  5
8F
  8
0
  6
CONTINUOUS
 62
     7
 10
99.6299514615
 20
236.9968456096
 30
0.0
 40
0.5967781398035937
 50
172.9854913459
 51
250.3181873163
  0
ARC
  5
90
  8
0
  6
CONTINUOUS
 62
     7
 10
103.4798895395
 20
236.2213556008
 30
0.0
 40
0.5931685530274968
 50
281.6861183527
 51
293.0389247001
  0
POLYLINE
  5
91
  8
0
  6
CONTINUOUS
 62
     7
 66
     1
 10
0.0
 20
0.0
 30
0.0
  0
VERTEX
  5
21A
  8
0
  6
CONTINUOUS
 62
     7
 10
103.7622494186
 20
245.132648474
 30
0.0
  0
VERTEX
  5
21B
  8
0
  6
CONTINUOUS
 62
     7
 10
103.9845269784
 20
245.1748372656
 30
0.0
  0
VERTEX
  5
21C
  8
0
  6
CONTINUOUS
 62
     7
 10
104.1777420008
 20
245.1157230521
 30
0.0
  0
SEQEND
  5
3A3
  8
0
  6
CONTINUOUS
 62
     7
  0
ARC
  5
92
  8
0
  6
CONTINUOUS
 62
     7
 10
107.5450994339
 20
237.8262281919
 30
0.0
 40
0.5092330552471799
 50
310.9474623924
 51
5.649224263
  0
POLYLINE
  5
93
  8
0
  6
CONTINUOUS
 62
     7
 66
     1
 10
0.0
 20
0.0
 30
0.0
  0
VERTEX
  5
21D
  8
0
  6
CONTINUOUS
 62
     7
 10
107.8788338306
 20
237.4415989457
 30
0.0
  0
VERTEX
  5
21E
  8
0
  6
CONTINUOUS
 62
     7
 10
107.859437437
 20
237.6397949912
 30
0.0
  0
VERTEX
  5
21F
  8
0
  6
CONTINUOUS
 62
     7
 10
107.8425526716
 20
237.7788627918
 30
0.0
  0
VERTEX
  5
220
  8
0
  6
CONTINUOUS
 62
     7
 10
107.8285777416
 20
237.8707811786
 30
0.0
  0
VERTEX
  5
221
  8
0
  6
CONTINUOUS
 62
     7
 10
107.8169790625
 20
237.9313125006
 30
0.0
  0
VERTEX
  5
222
  8
0
  6
CONTINUOUS
 62
     7
 10
107.8073046934
 20
237.9709624311
 30
0.0
  0
VERTEX
  5
223
  8
0
  6
CONTINUOUS
 62
     7
 10
107.7991710176
 20
237.996718402
 30
0.0
  0
VERTEX
  5
224
  8
0
  6
CONTINUOUS
 62
     7
 10
107.7922494528
 20
238.0132095682
 30
0.0
  0
VERTEX
  5
225
  8
0
  6
CONTINUOUS
 62
     7
 10
107.7829627761
 20
238.0275307478
 30
0.0
  0
VERTEX
  5
226
  8
0
  6
CONTINUOUS
 62
     7
 10
107.7779377562
 20
238.0315632483
 30
0.0
  0
VERTEX
  5
227
  8
0
  6
CONTINUOUS
 62
     7
 10
107.7716649981
 20
238.0329451395
 30
0.0
  0
VERTEX
  5
228
  8
0
  6
CONTINUOUS
 62
     7
 10
107.7685732941
 20
238.0321370334
 30
0.0
  0
SEQEND
  5
3A2
  8
0
  6
CONTINUOUS
 62
     7
  0
ARC
  5
94
  8
0
  6
CONTINUOUS
 62
     7
 10
107.4798965731
 20
238.0605660886
 30
0.0
 40
0.7363906975102807
 50
293.0214002072
 51
302.8026261386
  0
LINE
  5
95
  8
0
  6
CONTINUOUS
 62
     7
 10
103.7120298468
 20
235.6754986506
 30
0.0
 11
107.7678805015
 21
237.3828223934
 31
0.0
  0
POLYLINE
  5
96
  8
0
  6
CONTINUOUS
 62
     7
 66
     1
 10
0.0
 20
0.0
 30
0.0
  0
VERTEX
  5
229
  8
0
  6
CONTINUOUS
 62
     7
 10
97.5251469263
 20
244.1816436549
 30
0.0
  0
VERTEX
  5
22A
  8
0
  6
CONTINUOUS
 62
     7
 10
98.0968446678
 20
243.7813989289
 30
0.0
  0
VERTEX
  5
22B
  8
0
  6
CONTINUOUS
 62
     7
 10
98.6764852975
 20
243.3750088119
 30
0.0
  0
VERTEX
  5
22C
  8
0
  6
CONTINUOUS
 62
     7
 10
99.2630581433
 20
242.9631805307
 30
0.0
  0
SEQEND
  5
3A1
  8
0
  6
CONTINUOUS
 62
     7
  0
POLYLINE
  5
97
  8
0
  6
CONTINUOUS
 62
     7
 66
     1
 10
0.0
 20
0.0
 30
0.0
  0
VERTEX
  5
22D
  8
0
  6
CONTINUOUS
 62
     7
 10
97.5251469263
 20
244.1816436549
 30
0.0
  0
VERTEX
  5
22E
  8
0
  6
CONTINUOUS
 62
     7
 10
97.8753217507
 20
244.5852498877
 30
0.0
  0
VERTEX
  5
22F
  8
0
  6
CONTINUOUS
 62
     7
 10
98.2519000944
 20
244.9293442598
 30
0.0
  0
VERTEX
  5
230
  8
0
  6
CONTINUOUS
 62
     7
 10
98.6464127111
 20
245.2062585528
 30
0.0
  0
VERTEX
  5
231
  8
0
  6
CONTINUOUS
 62
     7
 10
99.050000679
 20
245.4098587091
 30
0.0
  0
VERTEX
  5
232
  8
0
  6
CONTINUOUS
 62
     7
 10
99.4536205419
 20
245.5356794067
 30
0.0
  0
VERTEX
  5
233
  8
0
  6
CONTINUOUS
 62
     7
 10
99.848252003
 20
245.5810180109
 30
0.0
  0
VERTEX
  5
234
  8
0
  6
CONTINUOUS
 62
     7
 10
100.2251029562
 20
245.5449863013
 30
0.0
  0
VERTEX
  5
235
  8
0
  6
CONTINUOUS
 62
     7
 10
100.5123086001
 20
245.4564237635
 30
0.0
  0
SEQEND
  5
3A0
  8
0
  6
CONTINUOUS
 62
     7
  0
ARC
  5
98
  8
0
  6
CONTINUOUS
 62
     7
 10
119.8783897487
 20
291.7803153893
 30
0.0
 40
57.83761657725107
 50
247.3019689992
 51
248.8753115252
  0
ARC
  5
99
  8
0
  6
CONTINUOUS
 62
     7
 10
143.2615642927
 20
329.2396065795
 30
0.0
 40
101.4432144022338
 50
242.7634171259
 51
244.1603498686
  0
ARC
  5
9A
  8
0
  6
CONTINUOUS
 62
     7
 10
100.5867701231
 20
241.0266001649
 30
0.0
 40
4.243873368794675
 50
152.9073243486
 51
207.8509681567
  0
ARC
  5
9B
  8
0
  6
CONTINUOUS
 62
     7
 10
54.3359315419
 20
4.1635274925
 30
0.0
 40
242.5435841073557
 50
79.3827937923
 51
79.9147403926
  0
LINE
  5
9C
  8
0
  6
CONTINUOUS
 62
     7
 10
98.0216557052
 20
243.7506466617
 30
0.0
 11
97.5251469263
 21
244.1816436549
 31
0.0
  0
POLYLINE
  5
9D
  8
0
  6
CONTINUOUS
 62
     7
 66
     1
 10
0.0
 20
0.0
 30
0.0
  0
VERTEX
  5
236
  8
0
  6
CONTINUOUS
 62
     7
 10
99.1675742897
 20
242.9490557484
 30
0.0
  0
VERTEX
  5
237
  8
0
  6
CONTINUOUS
 62
     7
 10
99.1620930434
 20
242.9528974745
 30
0.0
  0
VERTEX
  5
238
  8
0
  6
CONTINUOUS
 62
     7
 10
98.5858671123
 20
243.3563717112
 30
0.0
  0
VERTEX
  5
239
  8
0
  6
CONTINUOUS
 62
     7
 10
98.0216557052
 20
243.7506466617
 30
0.0
  0
SEQEND
  5
39F
  8
0
  6
CONTINUOUS
 62
     7
  0
LINE
  5
9E
  8
0
  6
CONTINUOUS
 62
     7
 10
97.5213353138
 20
243.9592704495
 30
0.0
 11
98.0216557052
 21
243.7506466617
 31
0.0
  0
ARC
  5
9F
  8
0
  6
CONTINUOUS
 62
     7
 10
99.7277988643
 20
241.710766297
 30
0.0
 40
2.729188323331658
 50
130.668328615
 51
154.6306073902
  0
ARC
  5
A0
  8
0
  6
CONTINUOUS
 62
     7
 10
100.7577652288
 20
240.9302804553
 30
0.0
 40
4.757859784499017
 50
151.8781513066
 51
208.8998583839
  0
LINE
  5
A1
  8
0
  6
CONTINUOUS
 62
     7
 10
96.4261144191
 20
238.701315919
 30
0.0
 11
96.5924220797
 21
238.6309009348
 31
0.0
  0
ARC
  5
A2
  8
0
  6
CONTINUOUS
 62
     7
 10
100.5898272927
 20
241.0008600124
 30
0.0
 40
4.756512160315546
 50
151.8802813938
 51
208.9110845193
  0
LINE
  5
A3
  8
0
  6
CONTINUOUS
 62
     7
 10
96.3947514109
 20
243.2426776405
 30
0.0
 11
96.5615841607
 21
243.1728892426
 31
0.0
  0
LINE
  5
A4
  8
0
  6
CONTINUOUS
 62
     7
 10
96.5615841607
 20
243.1728892426
 30
0.0
 11
96.8085726017
 21
242.9593920987
 31
0.0
  0
LINE
  5
A5
  8
0
  6
CONTINUOUS
 62
     7
 10
96.8344826627
 20
239.0439756455
 30
0.0
 11
96.5924220797
 21
238.6309009348
 31
0.0
  0
ARC
  5
A6
  8
0
  6
CONTINUOUS
 62
     7
 10
101.3237244633
 20
240.9739815557
 30
0.0
 40
5.47453898671136
 50
156.3658631366
 51
177.8369080085
  0
LINE
  5
A7
  8
0
  6
CONTINUOUS
 62
     7
 10
96.3083676967
 20
243.168696485
 30
0.0
 11
96.3947514109
 21
243.2426776405
 31
0.0
  0
POLYLINE
  5
A8
  8
0
  6
CONTINUOUS
 62
     7
 66
     1
 10
0.0
 20
0.0
 30
0.0
  0
VERTEX
  5
23A
  8
0
  6
CONTINUOUS
 62
     7
 10
97.2785451121
 20
244.395707625
 30
0.0
  0
VERTEX
  5
23B
  8
0
  6
CONTINUOUS
 62
     7
 10
97.6821858897
 20
244.8738888267
 30
0.0
  0
VERTEX
  5
23C
  8
0
  6
CONTINUOUS
 62
     7
 10
98.1187234744
 20
245.2812910912
 30
0.0
  0
VERTEX
  5
23D
  8
0
  6
CONTINUOUS
 62
     7
 10
98.5776156165
 20
245.608173002
 30
0.0
  0
VERTEX
  5
23E
  8
0
  6
CONTINUOUS
 62
     7
 10
99.0477995072
 20
245.8467714829
 30
0.0
  0
VERTEX
  5
23F
  8
0
  6
CONTINUOUS
 62
     7
 10
99.5179678984
 20
245.9914843992
 30
0.0
  0
VERTEX
  5
240
  8
0
  6
CONTINUOUS
 62
     7
 10
99.9768486578
 20
246.0389961367
 30
0.0
  0
VERTEX
  5
241
  8
0
  6
CONTINUOUS
 62
     7
 10
100.4134801314
 20
245.9883439478
 30
0.0
  0
VERTEX
  5
242
  8
0
  6
CONTINUOUS
 62
     7
 10
100.8174751181
 20
245.8409247233
 30
0.0
  0
SEQEND
  5
39E
  8
0
  6
CONTINUOUS
 62
     7
  0
LINE
  5
A9
  8
0
  6
CONTINUOUS
 62
     7
 10
100.8174751181
 20
245.8409247233
 30
0.0
 11
100.5765716407
 21
245.4298246053
 31
0.0
  0
LINE
  5
AA
  8
0
  6
CONTINUOUS
 62
     7
 10
97.5251469263
 20
244.1816436549
 30
0.0
 11
97.2785451121
 21
244.395707625
 31
0.0
  0
LINE
  5
AB
  8
0
  6
CONTINUOUS
 62
     7
 10
97.1116023361
 20
244.4652566666
 30
0.0
 11
97.2785451121
 21
244.395707625
 31
0.0
  0
POLYLINE
  5
AC
  8
0
  6
CONTINUOUS
 62
     7
 66
     1
 10
0.0
 20
0.0
 30
0.0
  0
VERTEX
  5
243
  8
0
  6
CONTINUOUS
 62
     7
 10
100.5239715839
 20
245.9680436957
 30
0.0
  0
VERTEX
  5
244
  8
0
  6
CONTINUOUS
 62
     7
 10
100.2464914925
 20
246.0573706017
 30
0.0
  0
VERTEX
  5
245
  8
0
  6
CONTINUOUS
 62
     7
 10
99.8098346392
 20
246.1080575513
 30
0.0
  0
VERTEX
  5
246
  8
0
  6
CONTINUOUS
 62
     7
 10
99.3509389752
 20
246.0605963547
 30
0.0
  0
VERTEX
  5
247
  8
0
  6
CONTINUOUS
 62
     7
 10
98.8807665244
 20
245.9159486076
 30
0.0
  0
VERTEX
  5
248
  8
0
  6
CONTINUOUS
 62
     7
 10
98.410589521
 20
245.6774284081
 30
0.0
  0
VERTEX
  5
249
  8
0
  6
CONTINUOUS
 62
     7
 10
97.951715043
 20
245.3506360422
 30
0.0
  0
VERTEX
  5
24A
  8
0
  6
CONTINUOUS
 62
     7
 10
97.5152054621
 20
244.9433324483
 30
0.0
  0
VERTEX
  5
24B
  8
0
  6
CONTINUOUS
 62
     7
 10
97.1116023361
 20
244.4652566666
 30
0.0
  0
SEQEND
  5
39D
  8
0
  6
CONTINUOUS
 62
     7
  0
LINE
  5
AD
  8
0
  6
CONTINUOUS
 62
     7
 10
97.024612402
 20
244.3902309193
 30
0.0
 11
97.3260976468
 21
244.7428177369
 31
0.0
  0
LINE
  5
AE
  8
0
  6
CONTINUOUS
 62
     7
 10
97.1116023361
 20
244.4652566666
 30
0.0
 11
97.024612402
 21
244.3902309193
 31
0.0
  0
LINE
  5
AF
  8
0
  6
CONTINUOUS
 62
     7
 10
97.5213353138
 20
243.9592704495
 30
0.0
 11
97.024612402
 21
244.3902309193
 31
0.0
  0
LINE
  5
B0
  8
0
  6
CONTINUOUS
 62
     7
 10
97.560337706
 20
238.4221440904
 30
0.0
 11
97.6742690885
 21
238.6166103616
 31
0.0
  0
LINE
  5
B1
  8
0
  6
CONTINUOUS
 62
     7
 10
97.3186609604
 20
238.0096328534
 30
0.0
 11
97.560337706
 21
238.4221440904
 31
0.0
  0
LINE
  5
B2
  8
0
  6
CONTINUOUS
 62
     7
 10
97.1524569339
 20
238.0800625021
 30
0.0
 11
97.3186609604
 21
238.0096328534
 31
0.0
  0
LINE
  5
B3
  8
0
  6
CONTINUOUS
 62
     7
 10
97.0618009084
 20
238.6331130398
 30
0.0
 11
97.1524569339
 21
238.0800625021
 31
0.0
  0
LINE
  5
B4
  8
0
  6
CONTINUOUS
 62
     7
 10
97.0618009084
 20
238.6331130398
 30
0.0
 11
97.1944782895
 21
238.8595476474
 31
0.0
  0
ARC
  5
B5
  8
0
  6
CONTINUOUS
 62
     7
 10
98.172126732
 20
239.8668140835
 30
0.0
 40
2.043899690494855
 50
245.3189010614
 51
286.9059724532
  0
LINE
  5
B6
  8
0
  6
CONTINUOUS
 62
     7
 10
97.1524569339
 20
238.0800625021
 30
0.0
 11
97.2426307864
 21
238.0388990597
 31
0.0
  0
LINE
  5
B7
  8
0
  6
CONTINUOUS
 62
     7
 10
101.4533025877
 20
245.0669363116
 30
0.0
 11
101.5370192168
 21
245.2098298702
 31
0.0
  0
LINE
  5
B8
  8
0
  6
CONTINUOUS
 62
     7
 10
101.3701715248
 20
245.278856813
 30
0.0
 11
101.1707301371
 21
245.1838960639
 31
0.0
  0
LINE
  5
B9
  8
0
  6
CONTINUOUS
 62
     7
 10
101.3701715248
 20
245.278856813
 30
0.0
 11
101.5370192168
 21
245.2098298702
 31
0.0
  0
LINE
  5
BA
  8
0
  6
CONTINUOUS
 62
     7
 10
101.5370192168
 20
245.2098298702
 30
0.0
 11
101.6887577973
 21
244.969478888
 31
0.0
  0
ARC
  5
BB
  8
0
  6
CONTINUOUS
 62
     7
 10
100.5648360486
 20
137.8187044535
 30
0.0
 40
2.756089029638718
 50
244.5552768337
 51
295.4447231663
  0
ARC
  5
BC
  8
0
  6
CONTINUOUS
 62
     7
 10
101.4191324719
 20
134.7979987175
 30
0.0
 40
0.6259120004193568
 50
1.7869506737
 51
58.1997812716
  0
ARC
  5
BD
  8
0
  6
CONTINUOUS
 62
     7
 10
100.5644926998
 20
137.9244745723
 30
0.0
 40
3.441557805929131
 50
244.5254780272
 51
295.4745219728
  0
ARC
  5
BE
  8
0
  6
CONTINUOUS
 62
     7
 10
99.7017854907
 20
134.802224489
 30
0.0
 40
0.6177294849308461
 50
121.3166725965
 51
178.581477459
  0
ARC
  5
BF
  8
0
  6
CONTINUOUS
 62
     7
 10
100.6009254395
 20
129.3976336853
 30
0.0
 40
3.367242578943405
 50
244.1010100912
 51
295.8989899088
  0
LINE
  5
C0
  8
0
  6
CONTINUOUS
 62
     7
 10
99.0842453157
 20
134.8175166046
 30
0.0
 11
99.1301612594
 21
126.3685785006
 31
0.0
  0
LINE
  5
C1
  8
0
  6
CONTINUOUS
 62
     7
 10
102.044740084
 20
134.8175166046
 30
0.0
 11
102.0716896196
 21
126.3685785006
 31
0.0
  0
LINE
  5
C2
  8
0
  6
CONTINUOUS
 62
     7
 10
98.3461748979
 20
138.417099843
 30
0.0
 11
102.937450183
 21
135.9610557651
 31
0.0
  0
LINE
  5
C3
  8
0
  6
CONTINUOUS
 62
     7
 10
101.7489624588
 20
135.3299554939
 30
0.0
 11
102.937450183
 21
135.9610557651
 31
0.0
  0
LINE
  5
C4
  8
0
  6
CONTINUOUS
 62
     7
 10
96.2566794871
 20
137.0099807013
 30
0.0
 11
99.3807096383
 21
135.3299554939
 31
0.0
  0
POLYLINE
  5
C5
  8
0
  6
CONTINUOUS
 62
     7
 66
     1
 10
0.0
 20
0.0
 30
0.0
  0
VERTEX
  5
24C
  8
0
  6
CONTINUOUS
 62
     7
 10
96.2566794871
 20
137.0099807013
 30
0.0
  0
VERTEX
  5
24D
  8
0
  6
CONTINUOUS
 62
     7
 10
96.8317585174
 20
137.0247084588
 30
0.0
  0
VERTEX
  5
24E
  8
0
  6
CONTINUOUS
 62
     7
 10
97.3731171912
 20
137.1313046005
 30
0.0
  0
VERTEX
  5
24F
  8
0
  6
CONTINUOUS
 62
     7
 10
97.829642896
 20
137.3196410542
 30
0.0
  0
VERTEX
  5
250
  8
0
  6
CONTINUOUS
 62
     7
 10
98.1583603383
 20
137.5718551726
 30
0.0
  0
VERTEX
  5
251
  8
0
  6
CONTINUOUS
 62
     7
 10
98.3284988493
 20
137.8640895593
 30
0.0
  0
VERTEX
  5
252
  8
0
  6
CONTINUOUS
 62
     7
 10
98.3485928867
 20
138.0126088802
 30
0.0
  0
SEQEND
  5
39C
  8
0
  6
CONTINUOUS
 62
     7
  0
POLYLINE
  5
C6
  8
0
  6
CONTINUOUS
 62
     7
 66
     1
 10
0.0
 20
0.0
 30
0.0
  0
VERTEX
  5
253
  8
0
  6
CONTINUOUS
 62
     7
 10
97.6580855788
 20
142.7061006321
 30
0.0
  0
VERTEX
  5
254
  8
0
  6
CONTINUOUS
 62
     7
 10
97.2540511183
 20
142.863903478
 30
0.0
  0
VERTEX
  5
255
  8
0
  6
CONTINUOUS
 62
     7
 10
96.7784672965
 20
142.9516268511
 30
0.0
  0
VERTEX
  5
256
  8
0
  6
CONTINUOUS
 62
     7
 10
96.2734026075
 20
142.9615560423
 30
0.0
  0
VERTEX
  5
257
  8
0
  6
CONTINUOUS
 62
     7
 10
95.7834912878
 20
142.8928183711
 30
0.0
  0
VERTEX
  5
258
  8
0
  6
CONTINUOUS
 62
     7
 10
95.3520514583
 20
142.751457421
 30
0.0
  0
VERTEX
  5
259
  8
0
  6
CONTINUOUS
 62
     7
 10
95.0173097683
 20
142.5499181723
 30
0.0
  0
VERTEX
  5
25A
  8
0
  6
CONTINUOUS
 62
     7
 10
94.8090425901
 20
142.3059811865
 30
0.0
  0
VERTEX
  5
25B
  8
0
  6
CONTINUOUS
 62
     7
 10
94.74591905
 20
142.0412267903
 30
0.0
  0
VERTEX
  5
25C
  8
0
  6
CONTINUOUS
 62
     7
 10
94.8337856495
 20
141.7791504868
 30
0.0
  0
VERTEX
  5
25D
  8
0
  6
CONTINUOUS
 62
     7
 10
95.0650642947
 20
141.54308556
 30
0.0
  0
VERTEX
  5
25E
  8
0
  6
CONTINUOUS
 62
     7
 10
95.4193457939
 20
141.3541137559
 30
0.0
  0
VERTEX
  5
25F
  8
0
  6
CONTINUOUS
 62
     7
 10
95.8651539747
 20
141.2291551419
 30
0.0
  0
VERTEX
  5
260
  8
0
  6
CONTINUOUS
 62
     7
 10
96.3627410807
 20
141.1794196904
 30
0.0
  0
VERTEX
  5
261
  8
0
  6
CONTINUOUS
 62
     7
 10
96.8676667431
 20
141.2093739042
 30
0.0
  0
VERTEX
  5
262
  8
0
  6
CONTINUOUS
 62
     7
 10
97.3348260875
 20
141.316327414
 30
0.0
  0
VERTEX
  5
263
  8
0
  6
CONTINUOUS
 62
     7
 10
97.722541247
 20
141.4906821024
 30
0.0
  0
VERTEX
  5
264
  8
0
  6
CONTINUOUS
 62
     7
 10
97.9963233747
 20
141.7168180703
 30
0.0
  0
VERTEX
  5
265
  8
0
  6
CONTINUOUS
 62
     7
 10
98.1319503749
 20
141.9745260777
 30
0.0
  0
VERTEX
  5
266
  8
0
  6
CONTINUOUS
 62
     7
 10
98.1175824226
 20
142.2408435788
 30
0.0
  0
VERTEX
  5
267
  8
0
  6
CONTINUOUS
 62
     7
 10
97.9547403246
 20
142.4921171743
 30
0.0
  0
VERTEX
  5
268
  8
0
  6
CONTINUOUS
 62
     7
 10
97.6580855788
 20
142.7061006321
 30
0.0
  0
SEQEND
  5
39B
  8
0
  6
CONTINUOUS
 62
     7
  0
POLYLINE
  5
C7
  8
0
  6
CONTINUOUS
 62
     7
 66
     1
 10
0.0
 20
0.0
 30
0.0
  0
VERTEX
  5
269
  8
0
  6
CONTINUOUS
 62
     7
 10
94.9518644002
 20
141.0710332753
 30
0.0
  0
VERTEX
  5
26A
  8
0
  6
CONTINUOUS
 62
     7
 10
95.4014780933
 20
140.889524488
 30
0.0
  0
VERTEX
  5
26B
  8
0
  6
CONTINUOUS
 62
     7
 10
95.9290563721
 20
140.7792560274
 30
0.0
  0
VERTEX
  5
26C
  8
0
  6
CONTINUOUS
 62
     7
 10
96.4952654906
 20
140.7485084982
 30
0.0
  0
VERTEX
  5
26D
  8
0
  6
CONTINUOUS
 62
     7
 10
97.0578340788
 20
140.7995928788
 30
0.0
  0
VERTEX
  5
26E
  8
0
  6
CONTINUOUS
 62
     7
 10
97.5747696397
 20
140.928670155
 30
0.0
  0
VERTEX
  5
26F
  8
0
  6
CONTINUOUS
 62
     7
 10
98.0075517473
 20
141.126050805
 30
0.0
  0
VERTEX
  5
270
  8
0
  6
CONTINUOUS
 62
     7
 10
98.3240419351
 20
141.3769475555
 30
0.0
  0
VERTEX
  5
271
  8
0
  6
CONTINUOUS
 62
     7
 10
98.5008789608
 20
141.6626155001
 30
0.0
  0
VERTEX
  5
272
  8
0
  6
CONTINUOUS
 62
     7
 10
98.5251785447
 20
141.961782262
 30
0.0
  0
VERTEX
  5
273
  8
0
  6
CONTINUOUS
 62
     7
 10
98.4414935733
 20
142.1824334042
 30
0.0
  0
SEQEND
  5
39A
  8
0
  6
CONTINUOUS
 62
     7
  0
POLYLINE
  5
C8
  8
0
  6
CONTINUOUS
 62
     7
 66
     1
 10
0.0
 20
0.0
 30
0.0
  0
VERTEX
  5
274
  8
0
  6
CONTINUOUS
 62
     7
 10
94.4253896647
 20
142.1107012438
 30
0.0
  0
VERTEX
  5
275
  8
0
  6
CONTINUOUS
 62
     7
 10
94.3610961598
 20
141.886938741
 30
0.0
  0
VERTEX
  5
276
  8
0
  6
CONTINUOUS
 62
     7
 10
94.4117916522
 20
141.589073545
 30
0.0
  0
VERTEX
  5
277
  8
0
  6
CONTINUOUS
 62
     7
 10
94.6136341444
 20
141.3101763421
 30
0.0
  0
VERTEX
  5
278
  8
0
  6
CONTINUOUS
 62
     7
 10
94.9518644002
 20
141.0710332753
 30
0.0
  0
SEQEND
  5
399
  8
0
  6
CONTINUOUS
 62
     7
  0
ARC
  5
C9
  8
0
  6
CONTINUOUS
 62
     7
 10
96.3889679788
 20
143.521593117
 30
0.0
 40
2.973682521320387
 50
244.9654481155
 51
273.1754917083
  0
ARC
  5
CA
  8
0
  6
CONTINUOUS
 62
     7
 10
98.0495866744
 20
139.4938753517
 30
0.0
 40
3.650834422136958
 50
217.0019150135
 51
235.1055054516
  0
LINE
  5
CB
  8
0
  6
CONTINUOUS
 62
     7
 10
99.0842453157
 20
134.8175166046
 30
0.0
 11
95.9610645459
 21
136.4994359556
 31
0.0
  0
LINE
  5
CC
  8
0
  6
CONTINUOUS
 62
     7
 10
91.3198367706
 20
130.6483654234
 30
0.0
 11
99.1301612594
 21
126.3685785006
 31
0.0
  0
LINE
  5
CD
  8
0
  6
CONTINUOUS
 62
     7
 10
91.2244091416
 20
139.0502560878
 30
0.0
 11
91.3198367706
 21
130.6483654234
 31
0.0
  0
LINE
  5
CE
  8
0
  6
CONTINUOUS
 62
     7
 10
94.3143565359
 20
137.38623383
 30
0.0
 11
91.2244091416
 21
139.0502560878
 31
0.0
  0
ARC
  5
CF
  8
0
  6
CONTINUOUS
 62
     7
 10
94.8705187637
 20
138.6804681488
 30
0.0
 40
1.408672742597745
 50
246.7456918446
 51
280.7791475833
  0
ARC
  5
D0
  8
0
  6
CONTINUOUS
 62
     7
 10
96.5733808101
 20
136.4857490631
 30
0.0
 40
0.6124692142880016
 50
121.1372142314
 51
178.7195005988
  0
ARC
  5
D1
  8
0
  6
CONTINUOUS
 62
     7
 10
102.6355051595
 20
135.5112685959
 30
0.0
 40
0.5417372931925056
 50
349.7808474635
 51
56.1262836815
  0
LINE
  5
D2
  8
0
  6
CONTINUOUS
 62
     7
 10
103.1686485263
 20
135.4151569662
 30
0.0
 11
102.044740084
 21
134.8175166046
 31
0.0
  0
POLYLINE
  5
D3
  8
0
  6
CONTINUOUS
 62
     7
 66
     1
 10
0.0
 20
0.0
 30
0.0
  0
VERTEX
  5
279
  8
0
  6
CONTINUOUS
 62
     7
 10
97.3395991114
 20
142.5403286966
 30
0.0
  0
VERTEX
  5
27A
  8
0
  6
CONTINUOUS
 62
     7
 10
97.5854869882
 20
142.3530889914
 30
0.0
  0
VERTEX
  5
27B
  8
0
  6
CONTINUOUS
 62
     7
 10
97.694037964
 20
142.1321095369
 30
0.0
  0
VERTEX
  5
27C
  8
0
  6
CONTINUOUS
 62
     7
 10
97.6519789847
 20
141.903989004
 30
0.0
  0
VERTEX
  5
27D
  8
0
  6
CONTINUOUS
 62
     7
 10
97.4641791708
 20
141.6962607568
 30
0.0
  0
VERTEX
  5
27E
  8
0
  6
CONTINUOUS
 62
     7
 10
97.1531579719
 20
141.5340633351
 30
0.0
  0
VERTEX
  5
27F
  8
0
  6
CONTINUOUS
 62
     7
 10
96.7564310191
 20
141.4370693685
 30
0.0
  0
VERTEX
  5
280
  8
0
  6
CONTINUOUS
 62
     7
 10
96.3219845036
 20
141.4170615534
 30
0.0
  0
VERTEX
  5
281
  8
0
  6
CONTINUOUS
 62
     7
 10
95.9024240594
 20
141.4764721329
 30
0.0
  0
VERTEX
  5
282
  8
0
  6
CONTINUOUS
 62
     7
 10
95.548533562
 20
141.6080806012
 30
0.0
  0
VERTEX
  5
283
  8
0
  6
CONTINUOUS
 62
     7
 10
95.3030660316
 20
141.7959103098
 30
0.0
  0
VERTEX
  5
284
  8
0
  6
CONTINUOUS
 62
     7
 10
95.195554965
 20
142.0172036983
 30
0.0
  0
VERTEX
  5
285
  8
0
  6
CONTINUOUS
 62
     7
 10
95.2387868319
 20
142.2452152031
 30
0.0
  0
VERTEX
  5
286
  8
0
  6
CONTINUOUS
 62
     7
 10
95.4273437059
 20
142.4524624753
 30
0.0
  0
VERTEX
  5
287
  8
0
  6
CONTINUOUS
 62
     7
 10
95.7383519001
 20
142.6140320282
 30
0.0
  0
VERTEX
  5
288
  8
0
  6
CONTINUOUS
 62
     7
 10
96.1343018675
 20
142.7105450186
 30
0.0
  0
VERTEX
  5
289
  8
0
  6
CONTINUOUS
 62
     7
 10
96.5675709766
 20
142.7304438053
 30
0.0
  0
VERTEX
  5
28A
  8
0
  6
CONTINUOUS
 62
     7
 10
96.9861045162
 20
142.6713471607
 30
0.0
  0
VERTEX
  5
28B
  8
0
  6
CONTINUOUS
 62
     7
 10
97.3395991114
 20
142.5403286966
 30
0.0
  0
SEQEND
  5
398
  8
0
  6
CONTINUOUS
 62
     7
  0
LINE
  5
D4
  8
0
  6
CONTINUOUS
 62
     7
 10
112.6023054942
 20
135.3149879584
 30
0.0
 11
112.5866285129
 21
132.0583660743
 31
0.0
  0
LINE
  5
D5
  8
0
  6
CONTINUOUS
 62
     7
 10
102.0716896196
 20
126.3685785006
 30
0.0
 11
112.5866285129
 21
132.0583660743
 31
0.0
  0
LINE
  5
D6
  8
0
  6
CONTINUOUS
 62
     7
 10
112.6023054942
 20
135.3149879584
 30
0.0
 11
103.1686485263
 21
135.4151569662
 31
0.0
  0
ARC
  5
D7
  8
0
  6
CONTINUOUS
 62
     7
 10
95.4999230557
 20
138.1460913835
 30
0.0
 40
0.9249150094564106
 50
195.7018533492
 51
246.6930538529
  0
LINE
  5
D8
  8
0
  6
CONTINUOUS
 62
     7
 10
94.601483967
 20
137.9832017588
 30
0.0
 11
94.6095231063
 21
137.8957801675
 31
0.0
  0
ARC
  5
D9
  8
0
  6
CONTINUOUS
 62
     7
 10
96.3575746969
 20
139.7469209061
 30
0.0
 40
2.738799285835916
 50
243.4636598046
 51
267.8887908713
  0
POLYLINE
  5
DA
  8
0
  6
CONTINUOUS
 62
     7
 66
     1
 10
0.0
 20
0.0
 30
0.0
  0
VERTEX
  5
28C
  8
0
  6
CONTINUOUS
 62
     7
 10
97.1930382207
 20
142.1077165526
 30
0.0
  0
VERTEX
  5
28D
  8
0
  6
CONTINUOUS
 62
     7
 10
96.8570638317
 20
142.2266290894
 30
0.0
  0
VERTEX
  5
28E
  8
0
  6
CONTINUOUS
 62
     7
 10
96.4589347652
 20
142.2683714483
 30
0.0
  0
VERTEX
  5
28F
  8
0
  6
CONTINUOUS
 62
     7
 10
96.0590781588
 20
142.2266290894
 30
0.0
  0
VERTEX
  5
290
  8
0
  6
CONTINUOUS
 62
     7
 10
95.7181824822
 20
142.1077165526
 30
0.0
  0
VERTEX
  5
291
  8
0
  6
CONTINUOUS
 62
     7
 10
95.4880670387
 20
141.9296396862
 30
0.0
  0
VERTEX
  5
292
  8
0
  6
CONTINUOUS
 62
     7
 10
95.403839257
 20
141.7194113971
 30
0.0
  0
VERTEX
  5
293
  8
0
  6
CONTINUOUS
 62
     7
 10
95.4037730892
 20
141.7104182627
 30
0.0
  0
SEQEND
  5
397
  8
0
  6
CONTINUOUS
 62
     7
  0
POLYLINE
  5
DB
  8
0
  6
CONTINUOUS
 62
     7
 66
     1
 10
0.0
 20
0.0
 30
0.0
  0
VERTEX
  5
294
  8
0
  6
CONTINUOUS
 62
     7
 10
97.491354287
 20
141.7266738291
 30
0.0
  0
VERTEX
  5
295
  8
0
  6
CONTINUOUS
 62
     7
 10
97.4157838149
 20
141.9296396862
 30
0.0
  0
VERTEX
  5
296
  8
0
  6
CONTINUOUS
 62
     7
 10
97.1930382207
 20
142.1077165526
 30
0.0
  0
SEQEND
  5
396
  8
0
  6
CONTINUOUS
 62
     7
  0
LINE
  5
DC
  8
0
  6
CONTINUOUS
 62
     7
 10
102.937450183
 20
135.9610557651
 30
0.0
 11
112.4301160935
 21
135.852438191
 31
0.0
  0
ARC
  5
DD
  8
0
  6
CONTINUOUS
 62
     7
 10
112.1727323491
 20
135.4736687506
 30
0.0
 40
0.4579439712528662
 50
339.7261840986
 51
55.8028665582
  0
LINE
  5
DE
  8
0
  6
CONTINUOUS
 62
     7
 10
92.7452885415
 20
141.4132224695
 30
0.0
 11
94.5799056105
 21
140.4318174986
 31
0.0
  0
LINE
  5
DF
  8
0
  6
CONTINUOUS
 62
     7
 10
99.9859914769
 20
124.2808779323
 30
0.0
 11
99.9893488626
 21
123.5798197186
 31
0.0
  0
ARC
  5
E0
  8
0
  6
CONTINUOUS
 62
     7
 10
100.5768081754
 20
125.492682728
 30
0.0
 40
1.348159943836154
 50
244.0084032428
 51
295.9915967572
  0
LINE
  5
E1
  8
0
  6
CONTINUOUS
 62
     7
 10
101.167624874
 20
124.2808779323
 30
0.0
 11
101.1703490621
 21
123.5798197186
 31
0.0
  0
ARC
  5
E2
  8
0
  6
CONTINUOUS
 62
     7
 10
100.5798489624
 20
124.7890918099
 30
0.0
 40
1.345744908444303
 50
243.9732634049
 51
296.0267365951
  0
ARC
  5
E3
  8
0
  6
CONTINUOUS
 62
     7
 10
91.678109029
 20
131.5221469459
 30
0.0
 40
0.9443797754280998
 50
187.0277547272
 51
247.7051451738
  0
ARC
  5
E4
  8
0
  6
CONTINUOUS
 62
     7
 10
112.5152594133
 20
132.2356889289
 30
0.0
 40
0.1911463919182462
 50
291.9238538664
 51
352.9902725988
  0
LINE
  5
E5
  8
0
  6
CONTINUOUS
 62
     7
 10
115.1945388447
 20
132.5265456176
 30
0.0
 11
114.3919053931
 21
132.9531462644
 31
0.0
  0
POLYLINE
  5
E6
  8
0
  6
CONTINUOUS
 62
     7
 66
     1
 10
0.0
 20
0.0
 30
0.0
  0
VERTEX
  5
297
  8
0
  6
CONTINUOUS
 62
     7
 10
115.2061017555
 20
131.9021044525
 30
0.0
  0
VERTEX
  5
298
  8
0
  6
CONTINUOUS
 62
     7
 10
115.3071452226
 20
131.9690921273
 30
0.0
  0
VERTEX
  5
299
  8
0
  6
CONTINUOUS
 62
     7
 10
115.3817060682
 20
132.045495153
 30
0.0
  0
VERTEX
  5
29A
  8
0
  6
CONTINUOUS
 62
     7
 10
115.4269283842
 20
132.128369958
 30
0.0
  0
VERTEX
  5
29B
  8
0
  6
CONTINUOUS
 62
     7
 10
115.4410882771
 20
132.2145267438
 30
0.0
  0
VERTEX
  5
29C
  8
0
  6
CONTINUOUS
 62
     7
 10
115.4236579844
 20
132.3006528214
 30
0.0
  0
VERTEX
  5
29D
  8
0
  6
CONTINUOUS
 62
     7
 10
115.375323659
 20
132.3834401765
 30
0.0
  0
VERTEX
  5
29E
  8
0
  6
CONTINUOUS
 62
     7
 10
115.2979565184
 20
132.4597123241
 30
0.0
  0
VERTEX
  5
29F
  8
0
  6
CONTINUOUS
 62
     7
 10
115.1945388447
 20
132.5265456176
 30
0.0
  0
SEQEND
  5
395
  8
0
  6
CONTINUOUS
 62
     7
  0
LINE
  5
E7
  8
0
  6
CONTINUOUS
 62
     7
 10
101.167624874
 20
124.2808779323
 30
0.0
 11
115.2061017555
 21
131.9021044525
 31
0.0
  0
LINE
  5
E8
  8
0
  6
CONTINUOUS
 62
     7
 10
87.5474933798
 20
131.1192786297
 30
0.0
 11
99.9859914769
 21
124.2808779323
 31
0.0
  0
POLYLINE
  5
E9
  8
0
  6
CONTINUOUS
 62
     7
 66
     1
 10
0.0
 20
0.0
 30
0.0
  0
VERTEX
  5
2A0
  8
0
  6
CONTINUOUS
 62
     7
 10
87.5716838952
 20
131.7457417807
 30
0.0
  0
VERTEX
  5
2A1
  8
0
  6
CONTINUOUS
 62
     7
 10
87.4667494912
 20
131.6786922013
 30
0.0
  0
VERTEX
  5
2A2
  8
0
  6
CONTINUOUS
 62
     7
 10
87.3877171031
 20
131.6021731851
 30
0.0
  0
VERTEX
  5
2A3
  8
0
  6
CONTINUOUS
 62
     7
 10
87.3376328863
 20
131.5191178296
 30
0.0
  0
VERTEX
  5
2A4
  8
0
  6
CONTINUOUS
 62
     7
 10
87.3184352492
 20
131.4327128945
 30
0.0
  0
VERTEX
  5
2A5
  8
0
  6
CONTINUOUS
 62
     7
 10
87.3308782798
 20
131.3462771019
 30
0.0
  0
VERTEX
  5
2A6
  8
0
  6
CONTINUOUS
 62
     7
 10
87.3745002821
 20
131.2631338713
 30
0.0
  0
VERTEX
  5
2A7
  8
0
  6
CONTINUOUS
 62
     7
 10
87.4476390074
 20
131.1864833408
 30
0.0
  0
VERTEX
  5
2A8
  8
0
  6
CONTINUOUS
 62
     7
 10
87.5474933798
 20
131.1192786297
 30
0.0
  0
SEQEND
  5
394
  8
0
  6
CONTINUOUS
 62
     7
  0
LINE
  5
EA
  8
0
  6
CONTINUOUS
 62
     7
 10
90.7172887303
 20
133.4025845991
 30
0.0
 11
87.5716838952
 21
131.7457417807
 31
0.0
  0
LINE
  5
EB
  8
0
  6
CONTINUOUS
 62
     7
 10
115.2061017555
 20
131.9021044525
 30
0.0
 11
115.2013776072
 21
131.2078968752
 31
0.0
  0
LINE
  5
EC
  8
0
  6
CONTINUOUS
 62
     7
 10
101.1703490621
 20
123.5798197186
 30
0.0
 11
115.2013776072
 21
131.2078968752
 31
0.0
  0
LINE
  5
ED
  8
0
  6
CONTINUOUS
 62
     7
 10
87.5474933798
 20
131.1192786297
 30
0.0
 11
87.5573766804
 21
130.4243615337
 31
0.0
  0
LINE
  5
EE
  8
0
  6
CONTINUOUS
 62
     7
 10
87.5573766804
 20
130.4243615337
 30
0.0
 11
99.9893488626
 21
123.5798197186
 31
0.0
  0
ARC
  5
EF
  8
0
  6
CONTINUOUS
 62
     7
 10
94.9239414521
 20
137.3733818057
 30
0.0
 40
0.6097203822795602
 50
121.042669993
 51
178.792198341
  0
LINE
  5
F0
  8
0
  6
CONTINUOUS
 62
     7
 10
92.7452885415
 20
141.4132224695
 30
0.0
 11
91.5570702809
 21
140.7964007513
 31
0.0
  0
LINE
  5
F1
  8
0
  6
CONTINUOUS
 62
     7
 10
91.5187333812
 20
139.5579295058
 30
0.0
 11
94.6095231063
 21
137.8957801675
 31
0.0
  0
POLYLINE
  5
F2
  8
0
  6
CONTINUOUS
 62
     7
 66
     1
 10
0.0
 20
0.0
 30
0.0
  0
VERTEX
  5
2A9
  8
0
  6
CONTINUOUS
 62
     7
 10
91.5570702809
 20
140.7964007513
 30
0.0
  0
VERTEX
  5
2AA
  8
0
  6
CONTINUOUS
 62
     7
 10
91.3470264959
 20
140.6640038425
 30
0.0
  0
VERTEX
  5
2AB
  8
0
  6
CONTINUOUS
 62
     7
 10
91.1892024018
 20
140.512863076
 30
0.0
  0
VERTEX
  5
2AC
  8
0
  6
CONTINUOUS
 62
     7
 10
91.0896996737
 20
140.3487569073
 30
0.0
  0
VERTEX
  5
2AD
  8
0
  6
CONTINUOUS
 62
     7
 10
91.0523977726
 20
140.17797186
 30
0.0
  0
VERTEX
  5
2AE
  8
0
  6
CONTINUOUS
 62
     7
 10
91.0787964263
 20
140.0070639952
 30
0.0
  0
VERTEX
  5
2AF
  8
0
  6
CONTINUOUS
 62
     7
 10
91.1679479255
 20
139.8426080722
 30
0.0
  0
VERTEX
  5
2B0
  8
0
  6
CONTINUOUS
 62
     7
 10
91.3164833663
 20
139.6909438608
 30
0.0
  0
VERTEX
  5
2B1
  8
0
  6
CONTINUOUS
 62
     7
 10
91.5187333812
 20
139.5579295058
 30
0.0
  0
SEQEND
  5
393
  8
0
  6
CONTINUOUS
 62
     7
  0
ARC
  5
F3
  8
0
  6
CONTINUOUS
 62
     7
 10
91.8289110369
 20
139.0389495435
 30
0.0
 40
0.6046076242589937
 50
120.8654051253
 51
178.9284702873
  0
POLYLINE
  5
F4
  8
0
  6
CONTINUOUS
 62
     7
 66
     1
 10
0.0
 20
0.0
 30
0.0
  0
VERTEX
  5
2B2
  8
0
  6
CONTINUOUS
 62
     7
 10
99.1434427954
 20
123.9246588707
 30
0.0
  0
VERTEX
  5
2B3
  8
0
  6
CONTINUOUS
 62
     7
 10
99.4560971615
 20
123.7835581664
 30
0.0
  0
VERTEX
  5
2B4
  8
0
  6
CONTINUOUS
 62
     7
 10
99.8070410176
 20
123.6801910555
 30
0.0
  0
SEQEND
  5
392
  8
0
  6
CONTINUOUS
 62
     7
  0
ARC
  5
F5
  8
0
  6
CONTINUOUS
 62
     7
 10
100.7959966122
 20
126.395295235
 30
0.0
 40
2.784131180280419
 50
280.833007774
 51
297.4517447636
  0
LINE
  5
F6
  8
0
  6
CONTINUOUS
 62
     7
 10
91.3474419462
 20
128.2178778475
 30
0.0
 11
99.1434427954
 21
123.9246588707
 31
0.0
  0
LINE
  5
F7
  8
0
  6
CONTINUOUS
 62
     7
 10
102.0794849778
 20
123.9246588707
 30
0.0
 11
112.574949892
 21
129.6323344542
 31
0.0
  0
ARC
  5
F8
  8
0
  6
CONTINUOUS
 62
     7
 10
92.6374210522
 20
141.2323401889
 30
0.0
 40
0.2106034061908632
 50
59.1906504442
 51
116.5790228863
  0
POLYLINE
  5
F9
  8
0
  6
CONTINUOUS
 62
     7
 66
     1
 10
0.0
 20
0.0
 30
0.0
  0
VERTEX
  5
2B5
  8
0
  6
CONTINUOUS
 62
     7
 10
90.9153758285
 20
128.5755828164
 30
0.0
  0
VERTEX
  5
2B6
  8
0
  6
CONTINUOUS
 62
     7
 10
91.0967604788
 20
128.3867124675
 30
0.0
  0
VERTEX
  5
2B7
  8
0
  6
CONTINUOUS
 62
     7
 10
91.3474419462
 20
128.2178778475
 30
0.0
  0
SEQEND
  5
391
  8
0
  6
CONTINUOUS
 62
     7
  0
ARC
  5
FA
  8
0
  6
CONTINUOUS
 62
     7
 10
87.7006561104
 20
130.7711102727
 30
0.0
 40
0.3751848651933442
 50
187.0100596987
 51
247.549183649
  0
ARC
  5
FB
  8
0
  6
CONTINUOUS
 62
     7
 10
115.0582943336
 20
131.5608162565
 30
0.0
 40
0.3808213661564565
 50
292.0689939117
 51
353.003941922
  0
ARC
  5
FC
  8
0
  6
CONTINUOUS
 62
     7
 10
112.5028206494
 20
129.8099026063
 30
0.0
 40
0.1916587495559837
 50
292.1072827072
 51
353.0820736326
  0
POLYLINE
  5
FD
  8
0
  6
CONTINUOUS
 62
     7
 66
     1
 10
0.0
 20
0.0
 30
0.0
  0
VERTEX
  5
2B8
  8
0
  6
CONTINUOUS
 62
     7
 10
122.5379306202
 20
179.4862970233
 30
0.0
  0
VERTEX
  5
2B9
  8
0
  6
CONTINUOUS
 62
     7
 10
121.6100660462
 20
179.8774321383
 30
0.0
  0
VERTEX
  5
2BA
  8
0
  6
CONTINUOUS
 62
     7
 10
120.5935657108
 20
180.2106632348
 30
0.0
  0
VERTEX
  5
2BB
  8
0
  6
CONTINUOUS
 62
     7
 10
119.5036072865
 20
180.481213173
 30
0.0
  0
VERTEX
  5
2BC
  8
0
  6
CONTINUOUS
 62
     7
 10
118.3563541949
 20
180.6852199068
 30
0.0
  0
VERTEX
  5
2BD
  8
0
  6
CONTINUOUS
 62
     7
 10
117.1687321256
 20
180.8197810528
 30
0.0
  0
VERTEX
  5
2BE
  8
0
  6
CONTINUOUS
 62
     7
 10
115.958200083
 20
180.8829868169
 30
0.0
  0
VERTEX
  5
2BF
  8
0
  6
CONTINUOUS
 62
     7
 10
114.7425178296
 20
180.873941395
 30
0.0
  0
VERTEX
  5
2C0
  8
0
  6
CONTINUOUS
 62
     7
 10
113.5395114132
 20
180.7927729368
 30
0.0
  0
VERTEX
  5
2C1
  8
0
  6
CONTINUOUS
 62
     7
 10
112.3668383566
 20
180.6406321237
 30
0.0
  0
VERTEX
  5
2C2
  8
0
  6
CONTINUOUS
 62
     7
 10
111.2417540584
 20
180.4196793517
 30
0.0
  0
VERTEX
  5
2C3
  8
0
  6
CONTINUOUS
 62
     7
 10
110.1808810062
 20
180.1330604595
 30
0.0
  0
VERTEX
  5
2C4
  8
0
  6
CONTINUOUS
 62
     7
 10
109.1999825332
 20
179.7848709024
 30
0.0
  0
VERTEX
  5
2C5
  8
0
  6
CONTINUOUS
 62
     7
 10
108.3137430457
 20
179.3801082547
 30
0.0
  0
VERTEX
  5
2C6
  8
0
  6
CONTINUOUS
 62
     7
 10
107.5355569039
 20
178.9246129443
 30
0.0
  0
VERTEX
  5
2C7
  8
0
  6
CONTINUOUS
 62
     7
 10
106.8773284223
 20
178.424997181
 30
0.0
  0
VERTEX
  5
2C8
  8
0
  6
CONTINUOUS
 62
     7
 10
106.3492857597
 20
177.8885621531
 30
0.0
  0
VERTEX
  5
2C9
  8
0
  6
CONTINUOUS
 62
     7
 10
105.9598117451
 20
177.3232037285
 30
0.0
  0
VERTEX
  5
2CA
  8
0
  6
CONTINUOUS
 62
     7
 10
105.7152949302
 20
176.7373071105
 30
0.0
  0
VERTEX
  5
2CB
  8
0
  6
CONTINUOUS
 62
     7
 10
105.6200043146
 20
176.1396311696
 30
0.0
  0
VERTEX
  5
2CC
  8
0
  6
CONTINUOUS
 62
     7
 10
105.6759912466
 20
175.5391834763
 30
0.0
  0
VERTEX
  5
2CD
  8
0
  6
CONTINUOUS
 62
     7
 10
105.8830219229
 20
174.9450874087
 30
0.0
  0
VERTEX
  5
2CE
  8
0
  6
CONTINUOUS
 62
     7
 10
106.2385436715
 20
174.3664430623
 30
0.0
  0
VERTEX
  5
2CF
  8
0
  6
CONTINUOUS
 62
     7
 10
106.7376877915
 20
173.8121840527
 30
0.0
  0
VERTEX
  5
2D0
  8
0
  6
CONTINUOUS
 62
     7
 10
107.3733111362
 20
173.2909326384
 30
0.0
  0
VERTEX
  5
2D1
  8
0
  6
CONTINUOUS
 62
     7
 10
108.1360778561
 20
172.8108558846
 30
0.0
  0
VERTEX
  5
2D2
  8
0
  6
CONTINUOUS
 62
     7
 10
109.0145817981
 20
172.379525816
 30
0.0
  0
VERTEX
  5
2D3
  8
0
  6
CONTINUOUS
 62
     7
 10
109.9955090001
 20
172.0037866488
 30
0.0
  0
VERTEX
  5
2D4
  8
0
  6
CONTINUOUS
 62
     7
 10
111.0638385792
 20
171.6896322244
 30
0.0
  0
VERTEX
  5
2D5
  8
0
  6
CONTINUOUS
 62
     7
 10
112.203079127
 20
171.4420966867
 30
0.0
  0
VERTEX
  5
2D6
  8
0
  6
CONTINUOUS
 62
     7
 10
113.3955365657
 20
171.2651612398
 30
0.0
  0
VERTEX
  5
2D7
  8
0
  6
CONTINUOUS
 62
     7
 10
114.6226083344
 20
171.16167949
 30
0.0
  0
VERTEX
  5
2D8
  8
0
  6
CONTINUOUS
 62
     7
 10
115.8650978334
 20
171.1333234363
 30
0.0
  0
VERTEX
  5
2D9
  8
0
  6
CONTINUOUS
 62
     7
 10
117.1035423084
 20
171.1805516328
 30
0.0
  0
VERTEX
  5
2DA
  8
0
  6
CONTINUOUS
 62
     7
 10
118.3185468505
 20
171.3026004322
 30
0.0
  0
VERTEX
  5
2DB
  8
0
  6
CONTINUOUS
 62
     7
 10
119.4911169507
 20
171.4974985622
 30
0.0
  0
VERTEX
  5
2DC
  8
0
  6
CONTINUOUS
 62
     7
 10
120.6029820999
 20
171.7621046169
 30
0.0
  0
VERTEX
  5
2DD
  8
0
  6
CONTINUOUS
 62
     7
 10
121.6369032566
 20
172.0921663928
 30
0.0
  0
VERTEX
  5
2DE
  8
0
  6
CONTINUOUS
 62
     7
 10
122.5769576004
 20
172.4824004063
 30
0.0
  0
VERTEX
  5
2DF
  8
0
  6
CONTINUOUS
 62
     7
 10
123.408794813
 20
172.9265894055
 30
0.0
  0
VERTEX
  5
2E0
  8
0
  6
CONTINUOUS
 62
     7
 10
124.1198601248
 20
173.4176952801
 30
0.0
  0
VERTEX
  5
2E1
  8
0
  6
CONTINUOUS
 62
     7
 10
124.6995804907
 20
173.9479844679
 30
0.0
  0
VERTEX
  5
2E2
  8
0
  6
CONTINUOUS
 62
     7
 10
125.139511434
 20
174.5091627871
 30
0.0
  0
VERTEX
  5
2E3
  8
0
  6
CONTINUOUS
 62
     7
 10
125.4334432842
 20
175.0925165655
 30
0.0
  0
VERTEX
  5
2E4
  8
0
  6
CONTINUOUS
 62
     7
 10
125.5774666484
 20
175.6890570066
 30
0.0
  0
VERTEX
  5
2E5
  8
0
  6
CONTINUOUS
 62
     7
 10
125.5699979833
 20
176.2896648909
 30
0.0
  0
VERTEX
  5
2E6
  8
0
  6
CONTINUOUS
 62
     7
 10
125.4117670036
 20
176.8852329617
 30
0.0
  0
VERTEX
  5
2E7
  8
0
  6
CONTINUOUS
 62
     7
 10
125.1057683764
 20
177.4668036474
 30
0.0
  0
VERTEX
  5
2E8
  8
0
  6
CONTINUOUS
 62
     7
 10
124.657180682
 20
178.0257001215
 30
0.0
  0
VERTEX
  5
2E9
  8
0
  6
CONTINUOUS
 62
     7
 10
124.0732559678
 20
178.5536490586
 30
0.0
  0
VERTEX
  5
2EA
  8
0
  6
CONTINUOUS
 62
     7
 10
123.3631834098
 20
179.0428938062
 30
0.0
  0
VERTEX
  5
2EB
  8
0
  6
CONTINUOUS
 62
     7
 10
122.5379306202
 20
179.4862970233
 30
0.0
  0
SEQEND
  5
390
  8
0
  6
CONTINUOUS
 62
     7
  0
ARC
  5
FE
  8
0
  6
CONTINUOUS
 62
     7
 10
98.7191051894
 20
103.3944057894
 30
0.0
 40
6.309795632078557
 50
2.3356377924
 51
57.4995242978
  0
ARC
  5
FF
  8
0
  6
CONTINUOUS
 62
     7
 10
102.1069361862
 20
109.3622218147
 30
0.0
 40
6.412412681357763
 50
242.9443473886
 51
297.0556526114
  0
ARC
  5
100
  8
0
  6
CONTINUOUS
 62
     7
 10
105.4335779326
 20
103.426379268
 30
0.0
 40
6.247423619634168
 50
122.14662734
 51
177.9344820974
  0
LINE
  5
101
  8
0
  6
CONTINUOUS
 62
     7
 10
105.0236588955
 20
103.6515506604
 30
0.0
 11
105.0428510221
 21
83.5219624745
 31
0.0
  0
ARC
  5
102
  8
0
  6
CONTINUOUS
 62
     7
 10
102.1717251933
 20
88.9091954515
 30
0.0
 40
6.104559171058743
 50
241.9446151916
 51
298.0553848084
  0
LINE
  5
103
  8
0
  6
CONTINUOUS
 62
     7
 10
99.3005993646
 20
83.5219624745
 30
0.0
 11
99.1902134768
 21
103.6515506604
 31
0.0
  0
LINE
  5
104
  8
0
  6
CONTINUOUS
 62
     7
 10
88.3951373986
 20
116.4762596529
 30
0.0
 11
91.5007612758
 21
114.7189335947
 31
0.0
  0
LINE
  5
105
  8
0
  6
CONTINUOUS
 62
     7
 10
91.5007612758
 20
114.7189335947
 30
0.0
 11
98.9290077598
 21
110.5156393037
 31
0.0
  0
LINE
  5
106
  8
0
  6
CONTINUOUS
 62
     7
 10
98.9290077598
 20
110.5156393037
 30
0.0
 11
102.1094000943
 21
108.7160053023
 31
0.0
  0
LINE
  5
107
  8
0
  6
CONTINUOUS
 62
     7
 10
99.1902134768
 20
103.6515506604
 30
0.0
 11
85.5126450919
 21
111.4939477148
 31
0.0
  0
ARC
  5
108
  8
0
  6
CONTINUOUS
 62
     7
 10
91.5229867396
 20
111.3416757383
 30
0.0
 40
6.0122702431624
 50
121.3486402735
 51
178.5487221568
  0
LINE
  5
109
  8
0
  6
CONTINUOUS
 62
     7
 10
102.1094000943
 20
108.7160053023
 30
0.0
 11
127.7183571918
 21
123.0741006814
 31
0.0
  0
ARC
  5
10A
  8
0
  6
CONTINUOUS
 62
     7
 10
124.6916948285
 20
118.0394592367
 30
0.0
 40
5.874376523333975
 50
1.1905562508
 51
58.9870866426
  0
LINE
  5
10B
  8
0
  6
CONTINUOUS
 62
     7
 10
130.5648032015
 20
118.1615148658
 30
0.0
 11
105.0236588955
 21
103.6515506604
 31
0.0
  0
LINE
  5
10C
  8
0
  6
CONTINUOUS
 62
     7
 10
85.8319602828
 20
91.5472843705
 30
0.0
 11
99.3005993646
 21
83.5219624745
 31
0.0
  0
LINE
  5
10D
  8
0
  6
CONTINUOUS
 62
     7
 10
85.5126450919
 20
111.4939477148
 30
0.0
 11
85.8319602828
 21
91.5472843705
 31
0.0
  0
LINE
  5
10E
  8
0
  6
CONTINUOUS
 62
     7
 10
130.1953240263
 20
98.3733984448
 30
0.0
 11
130.5648032015
 21
118.1615148658
 31
0.0
  0
LINE
  5
10F
  8
0
  6
CONTINUOUS
 62
     7
 10
105.0428510221
 20
83.5219624745
 30
0.0
 11
130.1953240263
 21
98.3733984448
 31
0.0
  0
POLYLINE
  5
110
  8
0
  6
CONTINUOUS
 62
     7
 66
     1
 10
0.0
 20
0.0
 30
0.0
  0
VERTEX
  5
2EC
  8
0
  6
CONTINUOUS
 62
     7
 10
109.243567809
 20
123.7083888268
 30
0.0
  0
VERTEX
  5
2ED
  8
0
  6
CONTINUOUS
 62
     7
 10
109.2730281889
 20
123.3794909718
 30
0.0
  0
VERTEX
  5
2EE
  8
0
  6
CONTINUOUS
 62
     7
 10
109.4339411625
 20
122.8836283877
 30
0.0
  0
VERTEX
  5
2EF
  8
0
  6
CONTINUOUS
 62
     7
 10
109.7317229336
 20
122.4058142609
 30
0.0
  0
VERTEX
  5
2F0
  8
0
  6
CONTINUOUS
 62
     7
 10
110.1597348296
 20
121.9573876611
 30
0.0
  0
VERTEX
  5
2F1
  8
0
  6
CONTINUOUS
 62
     7
 10
110.7081919391
 20
121.549049471
 30
0.0
  0
VERTEX
  5
2F2
  8
0
  6
CONTINUOUS
 62
     7
 10
111.3643687691
 20
121.1905938964
 30
0.0
  0
VERTEX
  5
2F3
  8
0
  6
CONTINUOUS
 62
     7
 10
112.1128847984
 20
120.8906579961
 30
0.0
  0
VERTEX
  5
2F4
  8
0
  6
CONTINUOUS
 62
     7
 10
112.9360645497
 20
120.656497069
 30
0.0
  0
VERTEX
  5
2F5
  8
0
  6
CONTINUOUS
 62
     7
 10
113.8143638794
 20
120.4937932838
 30
0.0
  0
VERTEX
  5
2F6
  8
0
  6
CONTINUOUS
 62
     7
 10
114.7268514189
 20
120.4065040911
 30
0.0
  0
VERTEX
  5
2F7
  8
0
  6
CONTINUOUS
 62
     7
 10
115.651731692
 20
120.3967557636
 30
0.0
  0
VERTEX
  5
2F8
  8
0
  6
CONTINUOUS
 62
     7
 10
116.5668945382
 20
120.4647858959
 30
0.0
  0
VERTEX
  5
2F9
  8
0
  6
CONTINUOUS
 62
     7
 10
117.4504742517
 20
120.6089369673
 30
0.0
  0
VERTEX
  5
2FA
  8
0
  6
CONTINUOUS
 62
     7
 10
118.2814013803
 20
120.8257012006
 30
0.0
  0
VERTEX
  5
2FB
  8
0
  6
CONTINUOUS
 62
     7
 10
119.0399304629
 20
121.1098150773
 30
0.0
  0
VERTEX
  5
2FC
  8
0
  6
CONTINUOUS
 62
     7
 10
119.7081280903
 20
121.4544000905
 30
0.0
  0
VERTEX
  5
2FD
  8
0
  6
CONTINUOUS
 62
     7
 10
120.2703074657
 20
121.8511447413
 30
0.0
  0
VERTEX
  5
2FE
  8
0
  6
CONTINUOUS
 62
     7
 10
120.7133979864
 20
122.2905215073
 30
0.0
  0
VERTEX
  5
2FF
  8
0
  6
CONTINUOUS
 62
     7
 10
121.0272410959
 20
122.7620315719
 30
0.0
  0
VERTEX
  5
300
  8
0
  6
CONTINUOUS
 62
     7
 10
121.2048065773
 20
123.2544695554
 30
0.0
  0
VERTEX
  5
301
  8
0
  6
CONTINUOUS
 62
     7
 10
121.2460579887
 20
123.6181594782
 30
0.0
  0
SEQEND
  5
38F
  8
0
  6
CONTINUOUS
 62
     7
  0
LINE
  5
111
  8
0
  6
CONTINUOUS
 62
     7
 10
101.8336449251
 20
110.5156393037
 30
0.0
 11
112.5060911399
 21
116.4762596529
 31
0.0
  0
LINE
  5
112
  8
0
  6
CONTINUOUS
 62
     7
 10
112.5060911399
 20
116.4762596529
 30
0.0
 11
102.2191338585
 21
122.1422539455
 31
0.0
  0
LINE
  5
113
  8
0
  6
CONTINUOUS
 62
     7
 10
102.2191338585
 20
122.1422539455
 30
0.0
 11
91.5478334948
 21
116.3170125569
 31
0.0
  0
POLYLINE
  5
114
  8
0
  6
CONTINUOUS
 62
     7
 66
     1
 10
0.0
 20
0.0
 30
0.0
  0
VERTEX
  5
302
  8
0
  6
CONTINUOUS
 62
     7
 10
91.5478334948
 20
116.3170125569
 30
0.0
  0
VERTEX
  5
303
  8
0
  6
CONTINUOUS
 62
     7
 10
91.2902246338
 20
116.1462624378
 30
0.0
  0
VERTEX
  5
304
  8
0
  6
CONTINUOUS
 62
     7
 10
91.096627023
 20
115.951312315
 30
0.0
  0
VERTEX
  5
305
  8
0
  6
CONTINUOUS
 62
     7
 10
90.9745355037
 20
115.7396068378
 30
0.0
  0
VERTEX
  5
306
  8
0
  6
CONTINUOUS
 62
     7
 10
90.9287256455
 20
115.5192500661
 30
0.0
  0
VERTEX
  5
307
  8
0
  6
CONTINUOUS
 62
     7
 10
90.9610575514
 20
115.2986988845
 30
0.0
  0
VERTEX
  5
308
  8
0
  6
CONTINUOUS
 62
     7
 10
91.0703892301
 20
115.0864397749
 30
0.0
  0
VERTEX
  5
309
  8
0
  6
CONTINUOUS
 62
     7
 10
91.252605158
 20
114.8906610814
 30
0.0
  0
VERTEX
  5
30A
  8
0
  6
CONTINUOUS
 62
     7
 10
91.5007612758
 20
114.7189335947
 30
0.0
  0
SEQEND
  5
38E
  8
0
  6
CONTINUOUS
 62
     7
  0
ARC
  5
115
  8
0
  6
CONTINUOUS
 62
     7
 10
100.3813263424
 20
113.4042071259
 30
0.0
 40
3.233118205203406
 50
243.3075942542
 51
296.6924057458
  0
LINE
  5
116
  8
0
  6
CONTINUOUS
 62
     7
 10
102.2294909381
 20
118.7873320782
 30
0.0
 11
93.1396384199
 21
113.7915703255
 31
0.0
  0
LINE
  5
117
  8
0
  6
CONTINUOUS
 62
     7
 10
109.4624926268
 20
114.7763930182
 30
0.0
 11
102.2294909381
 21
118.7873320782
 31
0.0
  0
LINE
  5
118
  8
0
  6
CONTINUOUS
 62
     7
 10
102.2294909381
 20
118.7873320782
 30
0.0
 11
102.2191338585
 21
122.1422539455
 31
0.0
  0
ARC
  5
119
  8
0
  6
CONTINUOUS
 62
     8
 10
81.7905193941
 20
248.1954442065
 30
0.0
 40
1.694865361092403
 50
175.0373927716
 51
241.4793907879
  0
POLYLINE
  5
11A
  8
0
  6
CONTINUOUS
 62
     8
 66
     1
 10
0.0
 20
0.0
 30
0.0
  0
VERTEX
  5
30B
  8
0
  6
CONTINUOUS
 62
     8
 10
82.9388457497
 20
251.4639060356
 30
0.0
  0
VERTEX
  5
30C
  8
0
  6
CONTINUOUS
 62
     8
 10
82.863006513
 20
251.492306958
 30
0.0
  0
VERTEX
  5
30D
  8
0
  6
CONTINUOUS
 62
     8
 10
82.4102863417
 20
251.5513789734
 30
0.0
  0
VERTEX
  5
30E
  8
0
  6
CONTINUOUS
 62
     8
 10
81.9267323401
 20
251.4419278483
 30
0.0
  0
VERTEX
  5
30F
  8
0
  6
CONTINUOUS
 62
     8
 10
81.4454048265
 20
251.1711627004
 30
0.0
  0
VERTEX
  5
310
  8
0
  6
CONTINUOUS
 62
     8
 10
80.9993118967
 20
250.757429571
 30
0.0
  0
VERTEX
  5
311
  8
0
  6
CONTINUOUS
 62
     8
 10
80.619104584
 20
250.2289900829
 30
0.0
  0
VERTEX
  5
312
  8
0
  6
CONTINUOUS
 62
     8
 10
80.3309205769
 20
249.6220778206
 30
0.0
  0
VERTEX
  5
313
  8
0
  6
CONTINUOUS
 62
     8
 10
80.1545417133
 20
248.9783695219
 30
0.0
  0
VERTEX
  5
314
  8
0
  6
CONTINUOUS
 62
     8
 10
80.1020074627
 20
248.3420595187
 30
0.0
  0
SEQEND
  5
38D
  8
0
  6
CONTINUOUS
 62
     8
  0
POLYLINE
  5
11B
  8
0
  6
CONTINUOUS
 62
     8
 66
     1
 10
0.0
 20
0.0
 30
0.0
  0
VERTEX
  5
315
  8
0
  6
CONTINUOUS
 62
     8
 10
75.4579105775
 20
243.9698766883
 30
0.0
  0
VERTEX
  5
316
  8
0
  6
CONTINUOUS
 62
     8
 10
75.9708600034
 20
243.8029670209
 30
0.0
  0
VERTEX
  5
317
  8
0
  6
CONTINUOUS
 62
     8
 10
76.5759317116
 20
243.6979664262
 30
0.0
  0
VERTEX
  5
318
  8
0
  6
CONTINUOUS
 62
     8
 10
77.2316371288
 20
243.6621391095
 30
0.0
  0
VERTEX
  5
319
  8
0
  6
CONTINUOUS
 62
     8
 10
77.8929348518
 20
243.6979664262
 30
0.0
  0
VERTEX
  5
31A
  8
0
  6
CONTINUOUS
 62
     8
 10
78.5143961612
 20
243.8029670209
 30
0.0
  0
VERTEX
  5
31B
  8
0
  6
CONTINUOUS
 62
     8
 10
79.05339861
 20
243.9698766883
 30
0.0
  0
VERTEX
  5
31C
  8
0
  6
CONTINUOUS
 62
     8
 10
79.4731035187
 20
244.1871727567
 30
0.0
  0
VERTEX
  5
31D
  8
0
  6
CONTINUOUS
 62
     8
 10
79.7449947928
 20
244.4398992534
 30
0.0
  0
VERTEX
  5
31E
  8
0
  6
CONTINUOUS
 62
     8
 10
79.8507985935
 20
244.7107257784
 30
0.0
  0
VERTEX
  5
31F
  8
0
  6
CONTINUOUS
 62
     8
 10
79.8518024243
 20
244.7500969558
 30
0.0
  0
SEQEND
  5
38C
  8
0
  6
CONTINUOUS
 62
     8
  0
ARC
  5
11C
  8
0
  6
CONTINUOUS
 62
     8
 10
75.6675055285
 20
244.859400742
 30
0.0
 40
0.9138835186766466
 50
192.3334368998
 51
256.7414661597
  0
POLYLINE
  5
11D
  8
0
  6
CONTINUOUS
 62
     8
 66
     1
 10
0.0
 20
0.0
 30
0.0
  0
VERTEX
  5
320
  8
0
  6
CONTINUOUS
 62
     8
 10
76.5842929954
 20
191.7370133996
 30
0.0
  0
VERTEX
  5
321
  8
0
  6
CONTINUOUS
 62
     8
 10
77.07895881
 20
191.5536044548
 30
0.0
  0
VERTEX
  5
322
  8
0
  6
CONTINUOUS
 62
     8
 10
77.6621837682
 20
191.4382274785
 30
0.0
  0
VERTEX
  5
323
  8
0
  6
CONTINUOUS
 62
     8
 10
78.2939860566
 20
191.3988601761
 30
0.0
  0
VERTEX
  5
324
  8
0
  6
CONTINUOUS
 62
     8
 10
78.9309787189
 20
191.4382274785
 30
0.0
  0
VERTEX
  5
325
  8
0
  6
CONTINUOUS
 62
     8
 10
79.5294155308
 20
191.5536044548
 30
0.0
  0
VERTEX
  5
326
  8
0
  6
CONTINUOUS
 62
     8
 10
80.0482628601
 20
191.7370133996
 30
0.0
  0
VERTEX
  5
327
  8
0
  6
CONTINUOUS
 62
     8
 10
80.4520635707
 20
191.9757985514
 30
0.0
  0
VERTEX
  5
328
  8
0
  6
CONTINUOUS
 62
     8
 10
80.7133795691
 20
192.2535308089
 30
0.0
  0
VERTEX
  5
329
  8
0
  6
CONTINUOUS
 62
     8
 10
80.8146396384
 20
192.5511693259
 30
0.0
  0
VERTEX
  5
32A
  8
0
  6
CONTINUOUS
 62
     8
 10
80.8155243046
 20
192.5936039624
 30
0.0
  0
SEQEND
  5
38B
  8
0
  6
CONTINUOUS
 62
     8
  0
ARC
  5
11E
  8
0
  6
CONTINUOUS
 62
     8
 10
76.8796795925
 20
192.6597255454
 30
0.0
 40
0.9688400000617307
 50
189.4548330706
 51
252.2486420093
  0
POLYLINE
  5
11F
  8
0
  6
CONTINUOUS
 62
     8
 66
     1
 10
0.0
 20
0.0
 30
0.0
  0
VERTEX
  5
32B
  8
0
  6
CONTINUOUS
 62
     8
 10
84.3263372652
 20
186.7161500346
 30
0.0
  0
VERTEX
  5
32C
  8
0
  6
CONTINUOUS
 62
     8
 10
84.5083475376
 20
186.8295486169
 30
0.0
  0
VERTEX
  5
32D
  8
0
  6
CONTINUOUS
 62
     8
 10
84.7671250184
 20
187.1413411861
 30
0.0
  0
VERTEX
  5
32E
  8
0
  6
CONTINUOUS
 62
     8
 10
84.926282408
 20
187.5743916762
 30
0.0
  0
VERTEX
  5
32F
  8
0
  6
CONTINUOUS
 62
     8
 10
84.9747623304
 20
188.099265128
 30
0.0
  0
VERTEX
  5
330
  8
0
  6
CONTINUOUS
 62
     8
 10
84.9090905942
 20
188.6801182631
 30
0.0
  0
VERTEX
  5
331
  8
0
  6
CONTINUOUS
 62
     8
 10
84.7336589164
 20
189.2771617463
 30
0.0
  0
VERTEX
  5
332
  8
0
  6
CONTINUOUS
 62
     8
 10
84.4604483229
 20
189.8494268319
 30
0.0
  0
VERTEX
  5
333
  8
0
  6
CONTINUOUS
 62
     8
 10
84.1082058445
 20
190.3576330396
 30
0.0
  0
VERTEX
  5
334
  8
0
  6
CONTINUOUS
 62
     8
 10
83.7011324071
 20
190.7669409225
 30
0.0
  0
VERTEX
  5
335
  8
0
  6
CONTINUOUS
 62
     8
 10
83.267180697
 20
191.0493817545
 30
0.0
  0
VERTEX
  5
336
  8
0
  6
CONTINUOUS
 62
     8
 10
82.8360933529
 20
191.1857835667
 30
0.0
  0
VERTEX
  5
337
  8
0
  6
CONTINUOUS
 62
     8
 10
82.4373305717
 20
191.1670569745
 30
0.0
  0
VERTEX
  5
338
  8
0
  6
CONTINUOUS
 62
     8
 10
82.3016476668
 20
191.1199581037
 30
0.0
  0
SEQEND
  5
38A
  8
0
  6
CONTINUOUS
 62
     8
  0
POLYLINE
  5
120
  8
0
  6
CONTINUOUS
 62
     8
 66
     1
 10
0.0
 20
0.0
 30
0.0
  0
VERTEX
  5
339
  8
0
  6
CONTINUOUS
 62
     8
 10
92.386711228
 20
190.4659949057
 30
0.0
  0
VERTEX
  5
33A
  8
0
  6
CONTINUOUS
 62
     8
 10
92.5701756862
 20
190.5798187289
 30
0.0
  0
VERTEX
  5
33B
  8
0
  6
CONTINUOUS
 62
     8
 10
92.8316809022
 20
190.8912045565
 30
0.0
  0
VERTEX
  5
33C
  8
0
  6
CONTINUOUS
 62
     8
 10
92.9939665235
 20
191.3225647124
 30
0.0
  0
VERTEX
  5
33D
  8
0
  6
CONTINUOUS
 62
     8
 10
93.0457636069
 20
191.8445771288
 30
0.0
  0
VERTEX
  5
33E
  8
0
  6
CONTINUOUS
 62
     8
 10
92.9833723995
 20
192.4215936392
 30
0.0
  0
VERTEX
  5
33F
  8
0
  6
CONTINUOUS
 62
     8
 10
92.8109602941
 20
193.0140889147
 30
0.0
  0
VERTEX
  5
340
  8
0
  6
CONTINUOUS
 62
     8
 10
92.5403007189
 20
193.5814084354
 30
0.0
  0
VERTEX
  5
341
  8
0
  6
CONTINUOUS
 62
     8
 10
92.1899644688
 20
194.0846135984
 30
0.0
  0
VERTEX
  5
342
  8
0
  6
CONTINUOUS
 62
     8
 10
91.7840202514
 20
194.4892098794
 30
0.0
  0
VERTEX
  5
343
  8
0
  6
CONTINUOUS
 62
     8
 10
91.3503421881
 20
194.767551905
 30
0.0
  0
VERTEX
  5
344
  8
0
  6
CONTINUOUS
 62
     8
 10
90.9186537944
 20
194.9007468476
 30
0.0
  0
VERTEX
  5
345
  8
0
  6
CONTINUOUS
 62
     8
 10
90.5184570149
 20
194.8799212873
 30
0.0
  0
VERTEX
  5
346
  8
0
  6
CONTINUOUS
 62
     8
 10
90.3699773399
 20
194.8269174964
 30
0.0
  0
SEQEND
  5
389
  8
0
  6
CONTINUOUS
 62
     8
  0
POLYLINE
  5
121
  8
0
  6
CONTINUOUS
 62
     8
 66
     1
 10
0.0
 20
0.0
 30
0.0
  0
VERTEX
  5
347
  8
0
  6
CONTINUOUS
 62
     8
 10
94.3935877594
 20
188.2711599244
 30
0.0
  0
VERTEX
  5
348
  8
0
  6
CONTINUOUS
 62
     8
 10
94.8822736215
 20
188.0912890902
 30
0.0
  0
VERTEX
  5
349
  8
0
  6
CONTINUOUS
 62
     8
 10
95.4543165157
 20
187.9781400043
 30
0.0
  0
VERTEX
  5
34A
  8
0
  6
CONTINUOUS
 62
     8
 10
96.0705047817
 20
187.9395332552
 30
0.0
  0
VERTEX
  5
34B
  8
0
  6
CONTINUOUS
 62
     8
 10
96.6885316391
 20
187.9781400043
 30
0.0
  0
VERTEX
  5
34C
  8
0
  6
CONTINUOUS
 62
     8
 10
97.2659630973
 20
188.0912890902
 30
0.0
  0
VERTEX
  5
34D
  8
0
  6
CONTINUOUS
 62
     8
 10
97.7632150513
 20
188.2711599244
 30
0.0
  0
VERTEX
  5
34E
  8
0
  6
CONTINUOUS
 62
     8
 10
98.1463135399
 20
188.505345067
 30
0.0
  0
VERTEX
  5
34F
  8
0
  6
CONTINUOUS
 62
     8
 10
98.3892331442
 20
188.7777360724
 30
0.0
  0
VERTEX
  5
350
  8
0
  6
CONTINUOUS
 62
     8
 10
98.4756480922
 20
189.0696613026
 30
0.0
  0
VERTEX
  5
351
  8
0
  6
CONTINUOUS
 62
     8
 10
98.4757256686
 20
189.0828650736
 30
0.0
  0
SEQEND
  5
388
  8
0
  6
CONTINUOUS
 62
     8
  0
ARC
  5
122
  8
0
  6
CONTINUOUS
 62
     8
 10
94.6903439227
 20
189.2100948585
 30
0.0
 40
0.9847146951673607
 50
189.4453751498
 51
252.4605386413
  0
ARC
  5
123
  8
0
  6
CONTINUOUS
 62
     8
 10
99.647755362
 20
241.7541895729
 30
0.0
 40
2.872850313317535
 50
132.3046198797
 51
155.860995476
  0
ARC
  5
124
  8
0
  6
CONTINUOUS
 62
     8
 10
99.2739160141
 20
241.9133787577
 30
0.0
 40
2.851487643836592
 50
131.055696849
 51
156.1266398809
  0
LINE
  5
125
  8
0
  6
CONTINUOUS
 62
     8
 10
102.2766167096
 20
141.2282267118
 30
0.0
 11
98.3411309377
 21
141.3046114673
 31
0.0
  0
LINE
  5
126
  8
0
  6
CONTINUOUS
 62
     8
 10
94.4955533903
 20
141.3792511733
 30
0.0
 11
92.7452885415
 21
141.4132224695
 31
0.0
  0
LINE
  5
127
  8
0
  6
CONTINUOUS
 62
     8
 10
112.4301160935
 20
135.852438191
 30
0.0
 11
109.8267750724
 21
137.2307817795
 31
0.0
  0
LINE
  5
128
  8
0
  6
CONTINUOUS
 62
     8
 10
104.5481613316
 20
140.0255533238
 30
0.0
 11
102.2766167096
 21
141.2282267118
 31
0.0
  0
LINE
  5
129
  8
0
  6
CONTINUOUS
 62
     8
 10
99.1427838849
 20
124.0459042065
 30
0.0
 11
99.1434427954
 21
123.9246588707
 31
0.0
  0
LINE
  5
12A
  8
0
  6
CONTINUOUS
 62
     8
 10
102.0790091998
 20
124.0738198282
 30
0.0
 11
102.0794849778
 21
123.9246588707
 31
0.0
  0
LINE
  5
12B
  8
0
  6
CONTINUOUS
 62
     8
 10
91.3460724041
 20
128.3384586757
 30
0.0
 11
91.3474419462
 21
128.2178778475
 31
0.0
  0
LINE
  5
12C
  8
0
  6
CONTINUOUS
 62
     8
 10
112.5756626935
 20
129.7804066603
 30
0.0
 11
112.574949892
 21
129.6323344542
 31
0.0
  0
ARC
  5
12D
  8
0
  6
CONTINUOUS
 62
     8
 10
91.5691767165
 20
139.9191488974
 30
0.0
 40
0.9347937714560698
 50
187.2415570468
 51
248.3573400113
  0
ARC
  5
12E
  8
0
  6
CONTINUOUS
 62
     8
 10
91.4493071907
 20
140.6317871399
 30
0.0
 40
0.1967499038185106
 50
56.789531395
 51
113.6327845337
  0
POLYLINE
  5
12F
  8
0
  6
CONTINUOUS
 62
     8
 66
     1
 10
0.0
 20
0.0
 30
0.0
  0
VERTEX
  5
352
  8
0
  6
CONTINUOUS
 62
     8
 10
102.2766167096
 20
141.2282267118
 30
0.0
  0
VERTEX
  5
353
  8
0
  6
CONTINUOUS
 62
     8
 10
102.2183762628
 20
141.250585493
 30
0.0
  0
VERTEX
  5
354
  8
0
  6
CONTINUOUS
 62
     8
 10
102.1658092552
 20
141.2575265021
 30
0.0
  0
SEQEND
  5
387
  8
0
  6
CONTINUOUS
 62
     8
  0
ARC
  5
130
  8
0
  6
CONTINUOUS
 62
     8
 10
112.4304739538
 20
135.6995260841
 30
0.0
 40
0.1529125256166938
 50
62.322882349
 51
90.1340890852
  0
ARC
  5
131
  8
0
  6
CONTINUOUS
 62
     8
 10
112.5319549251
 20
135.491980751
 30
0.0
 40
0.190461679151959
 50
291.6766842301
 51
352.8652315423
  0
ARC
  5
132
  8
0
  6
CONTINUOUS
 62
     8
 10
102.275587076
 20
141.071485036
 30
0.0
 40
0.156745057521933
 50
62.3072098201
 51
89.6236303513
  0
POLYLINE
  5
133
  8
0
  6
CONTINUOUS
 62
     8
 66
     1
 10
0.0
 20
0.0
 30
0.0
  0
VERTEX
  5
355
  8
0
  6
CONTINUOUS
 62
     8
 10
128.0550462271
 20
173.6750731761
 30
0.0
  0
VERTEX
  5
356
  8
0
  6
CONTINUOUS
 62
     8
 10
128.0354892604
 20
173.3922985191
 30
0.0
  0
VERTEX
  5
357
  8
0
  6
CONTINUOUS
 62
     8
 10
127.8852996062
 20
172.7335986788
 30
0.0
  0
VERTEX
  5
358
  8
0
  6
CONTINUOUS
 62
     8
 10
127.5899229326
 20
172.0865580227
 30
0.0
  0
VERTEX
  5
359
  8
0
  6
CONTINUOUS
 62
     8
 10
127.1522296354
 20
171.4589061692
 30
0.0
  0
VERTEX
  5
35A
  8
0
  6
CONTINUOUS
 62
     8
 10
126.5768329673
 20
170.8582050714
 30
0.0
  0
VERTEX
  5
35B
  8
0
  6
CONTINUOUS
 62
     8
 10
125.8700600802
 20
170.2917511262
 30
0.0
  0
VERTEX
  5
35C
  8
0
  6
CONTINUOUS
 62
     8
 10
125.0398984614
 20
169.7664778834
 30
0.0
  0
VERTEX
  5
35D
  8
0
  6
CONTINUOUS
 62
     8
 10
124.0959173189
 20
169.2888610315
 30
0.0
  0
VERTEX
  5
35E
  8
0
  6
CONTINUOUS
 62
     8
 10
123.0491640211
 20
168.8648274199
 30
0.0
  0
VERTEX
  5
35F
  8
0
  6
CONTINUOUS
 62
     8
 10
121.9120362975
 20
168.4996699096
 30
0.0
  0
VERTEX
  5
360
  8
0
  6
CONTINUOUS
 62
     8
 10
120.69813153
 20
168.197969822
 30
0.0
  0
VERTEX
  5
361
  8
0
  6
CONTINUOUS
 62
     8
 10
119.4220750975
 20
167.9635286676
 30
0.0
  0
VERTEX
  5
362
  8
0
  6
CONTINUOUS
 62
     8
 10
118.0993303359
 20
167.7993106935
 30
0.0
  0
VERTEX
  5
363
  8
0
  6
CONTINUOUS
 62
     8
 10
116.7459932273
 20
167.7073975807
 30
0.0
  0
VERTEX
  5
364
  8
0
  6
CONTINUOUS
 62
     8
 10
115.3785754027
 20
167.6889563674
 30
0.0
  0
VERTEX
  5
365
  8
0
  6
CONTINUOUS
 62
     8
 10
114.0137794092
 20
167.7442213709
 30
0.0
  0
VERTEX
  5
366
  8
0
  6
CONTINUOUS
 62
     8
 10
112.6682704401
 20
167.8724905501
 30
0.0
  0
VERTEX
  5
367
  8
0
  6
CONTINUOUS
 62
     8
 10
111.3584488381
 20
168.0721363962
 30
0.0
  0
VERTEX
  5
368
  8
0
  6
CONTINUOUS
 62
     8
 10
110.1002276541
 20
168.3406310872
 30
0.0
  0
VERTEX
  5
369
  8
0
  6
CONTINUOUS
 62
     8
 10
108.9088193778
 20
168.6745852935
 30
0.0
  0
VERTEX
  5
36A
  8
0
  6
CONTINUOUS
 62
     8
 10
107.7985356632
 20
169.0697997076
 30
0.0
  0
VERTEX
  5
36B
  8
0
  6
CONTINUOUS
 62
     8
 10
106.7826034571
 20
169.5213280864
 30
0.0
  0
VERTEX
  5
36C
  8
0
  6
CONTINUOUS
 62
     8
 10
105.8730004421
 20
170.0235503651
 30
0.0
  0
VERTEX
  5
36D
  8
0
  6
CONTINUOUS
 62
     8
 10
105.0803121266
 20
170.5702542249
 30
0.0
  0
VERTEX
  5
36E
  8
0
  6
CONTINUOUS
 62
     8
 10
104.413612304
 20
171.15472338
 30
0.0
  0
VERTEX
  5
36F
  8
0
  6
CONTINUOUS
 62
     8
 10
103.8803679728
 20
171.7698307978
 30
0.0
  0
VERTEX
  5
370
  8
0
  6
CONTINUOUS
 62
     8
 10
103.4863691945
 20
172.4081350662
 30
0.0
  0
VERTEX
  5
371
  8
0
  6
CONTINUOUS
 62
     8
 10
103.2356837845
 20
173.0619781879
 30
0.0
  0
VERTEX
  5
372
  8
0
  6
CONTINUOUS
 62
     8
 10
103.1306362084
 20
173.7235831808
 30
0.0
  0
VERTEX
  5
373
  8
0
  6
CONTINUOUS
 62
     8
 10
103.1271831256
 20
173.8566315194
 30
0.0
  0
SEQEND
  5
386
  8
0
  6
CONTINUOUS
 62
     8
  0
POLYLINE
  5
134
  8
0
  6
CONTINUOUS
 62
     8
 66
     1
 10
0.0
 20
0.0
 30
0.0
  0
VERTEX
  5
374
  8
0
  6
CONTINUOUS
 62
     8
 10
114.9631452971
 20
131.0783800378
 30
0.0
  0
VERTEX
  5
375
  8
0
  6
CONTINUOUS
 62
     8
 10
115.1313408783
 20
131.0753078307
 30
0.0
  0
VERTEX
  5
376
  8
0
  6
CONTINUOUS
 62
     8
 10
116.4617301103
 20
131.0947164963
 30
0.0
  0
VERTEX
  5
377
  8
0
  6
CONTINUOUS
 62
     8
 10
117.7784742058
 20
131.1914521476
 30
0.0
  0
VERTEX
  5
378
  8
0
  6
CONTINUOUS
 62
     8
 10
119.0655249494
 20
131.3642890621
 30
0.0
  0
VERTEX
  5
379
  8
0
  6
CONTINUOUS
 62
     8
 10
120.3072361085
 20
131.6110407536
 30
0.0
  0
VERTEX
  5
37A
  8
0
  6
CONTINUOUS
 62
     8
 10
121.4885736333
 20
131.9285934529
 30
0.0
  0
VERTEX
  5
37B
  8
0
  6
CONTINUOUS
 62
     8
 10
122.5953146506
 20
132.3129534037
 30
0.0
  0
VERTEX
  5
37C
  8
0
  6
CONTINUOUS
 62
     8
 10
123.6142318041
 20
132.7593068667
 30
0.0
  0
VERTEX
  5
37D
  8
0
  6
CONTINUOUS
 62
     8
 10
124.5332599436
 20
133.2620914543
 30
0.0
  0
VERTEX
  5
37E
  8
0
  6
CONTINUOUS
 62
     8
 10
125.3416426837
 20
133.8150772078
 30
0.0
  0
VERTEX
  5
37F
  8
0
  6
CONTINUOUS
 62
     8
 10
126.0300569285
 20
134.4114556753
 30
0.0
  0
VERTEX
  5
380
  8
0
  6
CONTINUOUS
 62
     8
 10
126.5907140546
 20
135.043935158
 30
0.0
  0
VERTEX
  5
381
  8
0
  6
CONTINUOUS
 62
     8
 10
127.0174370438
 20
135.704840266
 30
0.0
  0
VERTEX
  5
382
  8
0
  6
CONTINUOUS
 62
     8
 10
127.3057134272
 20
136.3862139531
 30
0.0
  0
VERTEX
  5
383
  8
0
  6
CONTINUOUS
 62
     8
 10
127.4527244325
 20
137.0799202858
 30
0.0
  0
VERTEX
  5
384
  8
0
  6
CONTINUOUS
 62
     8
 10
127.4724727966
 20
137.3964420443
 30
0.0
  0
SEQEND
  5
385
  8
0
  6
CONTINUOUS
 62
     8
  0
LINE
  5
135
  8
0
  6
CONTINUOUS
 62
     8
 10
109.2529744539
 20
127.8193804684
 30
0.0
 11
88.3951373986
 21
116.4762596529
 31
0.0
  0
LINE
  5
136
  8
0
  6
CONTINUOUS
 62
     8
 10
127.7183571918
 20
123.0741006814
 30
0.0
 11
121.2792885745
 21
126.5160170464
 31
0.0
  0
LINE
  5
137
  8
0
  6
CONTINUOUS
 62
     8
 10
91.5663236185
 20
114.6818349576
 30
0.0
 11
91.5478334948
 21
116.3170125569
 31
0.0
  0
ARC
  5
138
  8
0
  6
CONTINUOUS
 62
     8
 10
103.0510560696
 20
83.3190166477
 30
0.0
 40
2.002107425027783
 50
306.3214074758
 51
5.817842165
  0
ARC
  5
139
  8
0
  6
CONTINUOUS
 62
     8
 10
101.3041677458
 20
83.3370982085
 30
0.0
 40
2.01207878945855
 50
174.7283868667
 51
233.7938659444
  0
ARC
  5
13A
  8
0
  6
CONTINUOUS
 62
     8
 10
86.2850819852
 20
113.2357580695
 30
0.0
 40
1.90540338660745
 50
186.4577641352
 51
246.084253044
  0
ARC
  5
13B
  8
0
  6
CONTINUOUS
 62
     8
 10
87.2890669526
 20
114.8996718625
 30
0.0
 40
1.925881848001241
 50
54.9480480232
 51
113.63185433
  0
ARC
  5
13C
  8
0
  6
CONTINUOUS
 62
     8
 10
86.6677369952
 20
93.3097169424
 30
0.0
 40
1.95056178667695
 50
185.851112384
 51
244.6288643225
  0
ARC
  5
13D
  8
0
  6
CONTINUOUS
 62
     8
 10
87.8583793951
 20
91.3936780722
 30
0.0
 40
2.032232593409937
 50
175.6651643178
 51
234.2255301745
  0
ARC
  5
13E
  8
0
  6
CONTINUOUS
 62
     8
 10
128.1616885043
 20
98.2286095306
 30
0.0
 40
2.038783280762213
 50
305.4991248442
 51
4.0724204991
  0
ARC
  5
13F
  8
0
  6
CONTINUOUS
 62
     8
 10
129.828139144
 20
119.8525090303
 30
0.0
 40
1.84448778749136
 50
293.539849388
 51
353.3009906532
  0
ARC
  5
140
  8
0
  6
CONTINUOUS
 62
     8
 10
128.7896415514
 20
121.5301717239
 30
0.0
 40
1.879193126016838
 50
66.5244371657
 51
124.7555797831
  0
ARC
  5
141
  8
0
  6
CONTINUOUS
 62
     8
 10
129.397213283
 20
100.0849314587
 30
0.0
 40
1.888471873363923
 50
295.0002692447
 51
353.9134626759
  0
TEXT
  5
142
  8
0
  6
CONTINUOUS
 62
     7
 10
0.0
 20
6.732893805
 30
0.0
 40
3.633
  1
Edition tudiante de SolidWorks.
 41
0.6671875
 11
0.0
 21
5.4495
 31
0.0
 73
     1
  0
TEXT
  5
143
  8
0
  6
CONTINUOUS
 62
     7
 10
0.0
 20
1.283393805
 30
0.0
 40
3.633
  1
A usage universitaire uniquement.
 41
0.6681818182
 11
0.0
 21
0.0
 31
0.0
 73
     1
  0
ENDSEC
  0
EOF
