  0
SECTION
  2
HEADER
  9
$ACADVER
  1
AC1009
  9
$DWGCODEPAGE
  3
ansi_1252
  9
$INSBASE
 10
0.0
 20
0.0
 30
0.0
  9
$EXTMIN
 10
0.0
 20
0.0
 30
0.0
  9
$EXTMAX
 10
210.0
 20
297.0
 30
0.0
  9
$LIMMIN
 10
0.0
 20
0.0
  9
$LIMMAX
 10
210.0
 20
297.0
  9
$ORTHOMODE
 70
     0
  9
$REGENMODE
 70
     1
  9
$FILLMODE
 70
     1
  9
$QTEXTMODE
 70
     0
  9
$MIRRTEXT
 70
     1
  9
$DRAGMODE
 70
     2
  9
$LTSCALE
 40
1.0
  9
$OSMODE
 70
    37
  9
$ATTMODE
 70
     1
  9
$TEXTSIZE
 40
3.5
  9
$TRACEWID
 40
1.0
  9
$TEXTSTYLE
  7
STANDARD
  9
$CLAYER
  8
0
  9
$CELTYPE
  6
BYLAYER
  9
$CECOLOR
 62
   256
  9
$DIMSCALE
 40
1.0
  9
$DIMASZ
 40
3.302
  9
$DIMEXO
 40
1.0
  9
$DIMDLI
 40
3.75
  9
$DIMRND
 40
0.0
  9
$DIMDLE
 40
0.0
  9
$DIMEXE
 40
1.0
  9
$DIMTP
 40
0.0
  9
$DIMTM
 40
0.0
  9
$DIMTXT
 40
3.5
  9
$DIMCEN
 40
2.5
  9
$DIMTSZ
 40
0.0
  9
$DIMTOL
 70
     0
  9
$DIMLIM
 70
     0
  9
$DIMTIH
 70
     1
  9
$DIMTOH
 70
     1
  9
$DIMSE1
 70
     0
  9
$DIMSE2
 70
     0
  9
$DIMTAD
 70
     1
  9
$DIMZIN
 70
     0
  9
$DIMBLK
  1

  9
$DIMASO
 70
     1
  9
$DIMSHO
 70
     1
  9
$DIMPOST
  1

  9
$DIMAPOST
  1

  9
$DIMALT
 70
     0
  9
$DIMALTD
 70
     3
  9
$DIMALTF
 40
0.0393700787
  9
$DIMLFAC
 40
10.0
  9
$DIMTOFL
 70
     1
  9
$DIMTVP
 40
0.0
  9
$DIMTIX
 70
     0
  9
$DIMSOXD
 70
     0
  9
$DIMSAH
 70
     0
  9
$DIMBLK1
  1

  9
$DIMBLK2
  1

  9
$DIMSTYLE
  2
ISO-25
  9
$DIMCLRD
 70
     0
  9
$DIMCLRE
 70
     0
  9
$DIMCLRT
 70
     0
  9
$DIMTFAC
 40
1.0
  9
$DIMGAP
 40
1.524
  9
$LUNITS
 70
     2
  9
$LUPREC
 70
     2
  9
$SKETCHINC
 40
1.0
  9
$FILLETRAD
 40
10.0
  9
$AUNITS
 70
     0
  9
$AUPREC
 70
     2
  9
$MENU
  1
.
  9
$ELEVATION
 40
0.0
  9
$PELEVATION
 40
0.0
  9
$THICKNESS
 40
0.0
  9
$LIMCHECK
 70
     0
  9
$CHAMFERA
 40
10.0
  9
$CHAMFERB
 40
10.0
  9
$SKPOLY
 70
     0
  9
$TDCREATE
 40
2456434.658903519
  9
$TDUPDATE
 40
2456434.658903889
  9
$TDINDWG
 40
0.0000000116
  9
$TDUSRTIMER
 40
0.0000000116
  9
$USRTIMER
 70
     1
  9
$ANGBASE
 50
0.0
  9
$ANGDIR
 70
     0
  9
$PDMODE
 70
     0
  9
$PDSIZE
 40
-1.0
  9
$PLINEWID
 40
0.0
  9
$COORDS
 70
     1
  9
$SPLFRAME
 70
     0
  9
$SPLINETYPE
 70
     6
  9
$SPLINESEGS
 70
     8
  9
$ATTDIA
 70
     0
  9
$ATTREQ
 70
     1
  9
$HANDLING
 70
     1
  9
$HANDSEED
  5
5F2
  9
$SURFTAB1
 70
     6
  9
$SURFTAB2
 70
     6
  9
$SURFTYPE
 70
     6
  9
$SURFU
 70
     6
  9
$SURFV
 70
     6
  9
$UCSNAME
  2

  9
$UCSORG
 10
0.0
 20
0.0
 30
0.0
  9
$UCSXDIR
 10
1.0
 20
0.0
 30
0.0
  9
$UCSYDIR
 10
0.0
 20
1.0
 30
0.0
  9
$PUCSNAME
  2

  9
$PUCSORG
 10
0.0
 20
0.0
 30
0.0
  9
$PUCSXDIR
 10
1.0
 20
0.0
 30
0.0
  9
$PUCSYDIR
 10
0.0
 20
1.0
 30
0.0
  9
$USERI1
 70
     0
  9
$USERI2
 70
     0
  9
$USERI3
 70
     0
  9
$USERI4
 70
     0
  9
$USERI5
 70
     0
  9
$USERR1
 40
0.0
  9
$USERR2
 40
0.0
  9
$USERR3
 40
0.0
  9
$USERR4
 40
0.0
  9
$USERR5
 40
0.0
  9
$WORLDVIEW
 70
     1
  9
$SHADEDGE
 70
     3
  9
$SHADEDIF
 70
    70
  9
$TILEMODE
 70
     1
  9
$MAXACTVP
 70
    64
  9
$PLIMCHECK
 70
     0
  9
$PEXTMIN
 10
1.0000000000E+20
 20
1.0000000000E+20
 30
1.0000000000E+20
  9
$PEXTMAX
 10
-1.0000000000E+20
 20
-1.0000000000E+20
 30
-1.0000000000E+20
  9
$PLIMMIN
 10
0.0
 20
0.0
  9
$PLIMMAX
 10
420.0
 20
297.0
  9
$UNITMODE
 70
     0
  9
$VISRETAIN
 70
     1
  9
$PLINEGEN
 70
     0
  9
$PSLTSCALE
 70
     1
  0
ENDSEC
  0
SECTION
  2
TABLES
  0
TABLE
  2
VPORT
 70
     1
  0
VPORT
  2
*ACTIVE
 70
     0
 10
0.0
 20
0.0
 11
1.0
 21
1.0
 12
105.0
 22
148.5
 13
0.0
 23
0.0
 14
10.0
 24
10.0
 15
10.0
 25
10.0
 16
0.0
 26
0.0
 36
1.0
 17
0.0
 27
0.0
 37
0.0
 40
297.0
 41
0.7070707071
 42
50.0
 43
0.0
 44
0.0
 50
0.0
 51
0.0
 71
     0
 72
  2000
 73
     1
 74
     3
 75
     0
 76
     0
 77
     0
 78
     0
  0
ENDTAB
  0
TABLE
  2
LTYPE
 70
     6
  0
LTYPE
  2
CONTINUOUS
 70
     0
  3
Solid line
 72
    65
 73
     0
 40
0.0
  0
LTYPE
  2
HIDDEN
 70
     0
  3
Hidden __ __ __ __ __ __ __ __ __ __ __ __ __ __
 72
    65
 73
     2
 40
1.905
 49
1.27
 49
-0.635
  0
LTYPE
  2
PHANTOM
 70
     0
  3
Phantom ______  __  __  ______  __  __  ______
 72
    65
 73
     6
 40
12.7
 49
6.35
 49
-1.27
 49
1.27
 49
-1.27
 49
1.27
 49
-1.27
  0
LTYPE
  2
CENTER
 70
     0
  3
Center ____ _ ____ _ ____ _ ____ _ ____ _ ____
 72
    65
 73
     4
 40
10.16
 49
6.35
 49
-1.27
 49
1.27
 49
-1.27
  0
LTYPE
  2
CENTERX2
 70
     0
  3
Center (2x) ________  __  ________  __  _____
 72
    65
 73
     4
 40
20.32
 49
12.7
 49
-2.54
 49
2.54
 49
-2.54
  0
LTYPE
  2
DOT2
 70
     0
  3
Dot (.5x) ........................................
 72
    65
 73
     2
 40
0.635
 49
0.0
 49
-0.635
  0
ENDTAB
  0
TABLE
  2
LAYER
 70
     1
  0
LAYER
  2
0
 70
     0
 62
     7
  6
CONTINUOUS
  0
ENDTAB
  0
TABLE
  2
STYLE
 70
     1
  0
STYLE
  2
STANDARD
 70
     0
 40
0.0
 41
1.0
 50
0.0
 71
     0
 42
3.5
  3
txt
  4

  0
ENDTAB
  0
TABLE
  2
VIEW
 70
     0
  0
ENDTAB
  0
TABLE
  2
UCS
 70
     0
  0
ENDTAB
  0
TABLE
  2
APPID
 70
     1
  0
APPID
  2
ACAD
 70
     0
  0
ENDTAB
  0
TABLE
  2
DIMSTYLE
 70
     1
  0
DIMSTYLE
  2
ISO-25
 70
     0
  3

  4

  5

  6

  7

 40
1.0
 41
2.5
 42
0.625
 43
3.75
 44
1.25
 45
0.0
 46
0.0
 47
0.0
 48
0.0
140
2.5
141
2.5
142
0.0
143
0.0393700787
144
1.0
145
0.0
146
1.0
147
0.625
 71
     0
 72
     0
 73
     0
 74
     0
 75
     0
 76
     0
 77
     1
 78
     8
170
     0
171
     3
172
     1
173
     0
174
     0
175
     0
176
     0
177
     0
178
     0
  0
ENDTAB
  0
ENDSEC
  0
SECTION
  2
BLOCKS
  0
BLOCK
  8
0
  2
$MODEL_SPACE
 70
     0
 10
0.0
 20
0.0
 30
0.0
  3
$MODEL_SPACE
  1

  0
ENDBLK
  5
21
  8
0
  0
BLOCK
 67
     1
  8
0
  2
$PAPER_SPACE
 70
     0
 10
0.0
 20
0.0
 30
0.0
  3
$PAPER_SPACE
  1

  0
ENDBLK
  5
1D
 67
     1
  8
0
  0
ENDSEC
  0
SECTION
  2
ENTITIES
  0
LINE
  5
44
  8
0
  6
CONTINUOUS
 62
     7
 10
98.6316596658
 20
120.8824236574
 30
0.0
 11
98.6316596658
 21
122.0948590988
 31
0.0
  0
LINE
  5
45
  8
0
  6
CONTINUOUS
 62
     7
 10
84.8316597853
 20
122.0948591948
 30
0.0
 11
84.8316597853
 21
120.8824237534
 31
0.0
  0
LINE
  5
46
  8
0
  6
CONTINUOUS
 62
     7
 10
102.7932822867
 20
119.6009973752
 30
0.0
 11
95.6645995541
 21
125.7746177171
 31
0.0
  0
LINE
  5
47
  8
0
  6
CONTINUOUS
 62
     7
 10
81.0681357441
 20
122.296678144
 30
0.0
 11
80.4684046126
 21
121.1775646172
 31
0.0
  0
LINE
  5
48
  8
0
  6
CONTINUOUS
 62
     7
 10
93.6108382892
 20
126.1091308625
 30
0.0
 11
91.6554192569
 21
125.5446500102
 31
0.0
  0
LINE
  5
49
  8
0
  6
CONTINUOUS
 62
     7
 10
85.7945692646
 20
123.8527683498
 30
0.0
 11
81.4368404609
 21
122.5948004009
 31
0.0
  0
LINE
  5
4A
  8
0
  6
CONTINUOUS
 62
     7
 10
87.9907618453
 20
84.7267580019
 30
0.0
 11
89.8454205479
 21
84.4782808511
 31
0.0
  0
LINE
  5
4B
  8
0
  6
CONTINUOUS
 62
     7
 10
89.8524806065
 20
84.4788034626
 30
0.0
 11
102.0264784347
 21
87.9931339242
 31
0.0
  0
LINE
  5
4C
  8
0
  6
CONTINUOUS
 62
     7
 10
95.4725580681
 20
125.8611761869
 30
0.0
 11
93.6178990429
 21
126.1096532446
 31
0.0
  0
LINE
  5
4D
  8
0
  6
CONTINUOUS
 62
     7
 10
80.6700372542
 20
90.9869371362
 30
0.0
 11
87.7987199868
 21
84.8133167943
 31
0.0
  0
LINE
  5
4E
  8
0
  6
CONTINUOUS
 62
     7
 10
102.3951838467
 20
88.2912533707
 30
0.0
 11
102.9949149283
 21
89.4103673132
 31
0.0
  0
ARC
  5
4F
  8
0
  6
CONTINUOUS
 62
     7
 10
92.21197558
 20
157.3380235689
 30
0.0
 40
0.6113960657665948
 50
357.8905446564
 51
51.9069706956
  0
POLYLINE
  5
50
  8
0
  6
CONTINUOUS
 62
     7
 66
     1
 10
0.0
 20
0.0
 30
0.0
  0
VERTEX
  5
16C
  8
0
  6
CONTINUOUS
 62
     7
 10
92.5891703488
 20
157.819198439
 30
0.0
  0
VERTEX
  5
16D
  8
0
  6
CONTINUOUS
 62
     7
 10
92.4695912951
 20
157.9061832894
 30
0.0
  0
VERTEX
  5
16E
  8
0
  6
CONTINUOUS
 62
     7
 10
92.2677487709
 20
158.0022792054
 30
0.0
  0
VERTEX
  5
16F
  8
0
  6
CONTINUOUS
 62
     7
 10
92.026779814
 20
158.0660519474
 30
0.0
  0
VERTEX
  5
170
  8
0
  6
CONTINUOUS
 62
     7
 10
91.76868331
 20
158.0911389523
 30
0.0
  0
VERTEX
  5
171
  8
0
  6
CONTINUOUS
 62
     7
 10
91.5089645862
 20
158.0771716054
 30
0.0
  0
VERTEX
  5
172
  8
0
  6
CONTINUOUS
 62
     7
 10
91.2569026622
 20
158.0228785895
 30
0.0
  0
VERTEX
  5
173
  8
0
  6
CONTINUOUS
 62
     7
 10
91.0194301526
 20
157.9213727392
 30
0.0
  0
VERTEX
  5
174
  8
0
  6
CONTINUOUS
 62
     7
 10
90.8472681097
 20
157.7948523035
 30
0.0
  0
VERTEX
  5
175
  8
0
  6
CONTINUOUS
 62
     7
 10
90.7254959832
 20
157.6452386923
 30
0.0
  0
VERTEX
  5
176
  8
0
  6
CONTINUOUS
 62
     7
 10
90.6520200635
 20
157.4734091342
 30
0.0
  0
VERTEX
  5
177
  8
0
  6
CONTINUOUS
 62
     7
 10
90.6358208563
 20
157.3208583024
 30
0.0
  0
SEQEND
  5
5F1
  8
0
  6
CONTINUOUS
 62
     7
  0
ARC
  5
51
  8
0
  6
CONTINUOUS
 62
     7
 10
91.250746857
 20
157.0348549125
 30
0.0
 40
0.6107327273827378
 50
178.0188696411
 51
231.9293451549
  0
POLYLINE
  5
52
  8
0
  6
CONTINUOUS
 62
     7
 66
     1
 10
0.0
 20
0.0
 30
0.0
  0
VERTEX
  5
178
  8
0
  6
CONTINUOUS
 62
     7
 10
90.8741490557
 20
156.5540549953
 30
0.0
  0
VERTEX
  5
179
  8
0
  6
CONTINUOUS
 62
     7
 10
90.9937280691
 20
156.4670701332
 30
0.0
  0
VERTEX
  5
17A
  8
0
  6
CONTINUOUS
 62
     7
 10
91.1955705001
 20
156.3709742979
 30
0.0
  0
VERTEX
  5
17B
  8
0
  6
CONTINUOUS
 62
     7
 10
91.4365396309
 20
156.3072014985
 30
0.0
  0
VERTEX
  5
17C
  8
0
  6
CONTINUOUS
 62
     7
 10
91.694636048
 20
156.2821148449
 30
0.0
  0
VERTEX
  5
17D
  8
0
  6
CONTINUOUS
 62
     7
 10
91.9543548184
 20
156.2960818289
 30
0.0
  0
VERTEX
  5
17E
  8
0
  6
CONTINUOUS
 62
     7
 10
92.2064166958
 20
156.3503748851
 30
0.0
  0
VERTEX
  5
17F
  8
0
  6
CONTINUOUS
 62
     7
 10
92.4438891247
 20
156.4518807122
 30
0.0
  0
VERTEX
  5
180
  8
0
  6
CONTINUOUS
 62
     7
 10
92.6160512483
 20
156.5784011711
 30
0.0
  0
VERTEX
  5
181
  8
0
  6
CONTINUOUS
 62
     7
 10
92.7378233747
 20
156.7280147823
 30
0.0
  0
VERTEX
  5
182
  8
0
  6
CONTINUOUS
 62
     7
 10
92.8112993814
 20
156.8998443117
 30
0.0
  0
VERTEX
  5
183
  8
0
  6
CONTINUOUS
 62
     7
 10
92.8272999502
 20
157.0505260774
 30
0.0
  0
SEQEND
  5
5F0
  8
0
  6
CONTINUOUS
 62
     7
  0
POLYLINE
  5
53
  8
0
  6
CONTINUOUS
 62
     7
 66
     1
 10
0.0
 20
0.0
 30
0.0
  0
VERTEX
  5
184
  8
0
  6
CONTINUOUS
 62
     7
 10
98.8256383157
 20
148.7322229821
 30
0.0
  0
VERTEX
  5
185
  8
0
  6
CONTINUOUS
 62
     7
 10
98.8291289797
 20
148.8253720992
 30
0.0
  0
VERTEX
  5
186
  8
0
  6
CONTINUOUS
 62
     7
 10
98.7799672695
 20
149.1976242057
 30
0.0
  0
VERTEX
  5
187
  8
0
  6
CONTINUOUS
 62
     7
 10
98.6700451826
 20
149.5604390012
 30
0.0
  0
VERTEX
  5
188
  8
0
  6
CONTINUOUS
 62
     7
 10
98.5007018893
 20
149.9129523821
 30
0.0
  0
VERTEX
  5
189
  8
0
  6
CONTINUOUS
 62
     7
 10
98.2717974292
 20
150.254607539
 30
0.0
  0
VERTEX
  5
18A
  8
0
  6
CONTINUOUS
 62
     7
 10
97.982926947
 20
150.5836821375
 30
0.0
  0
VERTEX
  5
18B
  8
0
  6
CONTINUOUS
 62
     7
 10
97.6350025444
 20
150.8969909976
 30
0.0
  0
VERTEX
  5
18C
  8
0
  6
CONTINUOUS
 62
     7
 10
97.2311540377
 20
151.1905372967
 30
0.0
  0
VERTEX
  5
18D
  8
0
  6
CONTINUOUS
 62
     7
 10
96.7763285307
 20
151.4605994328
 30
0.0
  0
VERTEX
  5
18E
  8
0
  6
CONTINUOUS
 62
     7
 10
96.2764573415
 20
151.7042728869
 30
0.0
  0
VERTEX
  5
18F
  8
0
  6
CONTINUOUS
 62
     7
 10
95.7373587727
 20
151.9196667543
 30
0.0
  0
VERTEX
  5
190
  8
0
  6
CONTINUOUS
 62
     7
 10
95.1642487302
 20
152.1056226713
 30
0.0
  0
VERTEX
  5
191
  8
0
  6
CONTINUOUS
 62
     7
 10
94.5622662117
 20
152.2612324279
 30
0.0
  0
VERTEX
  5
192
  8
0
  6
CONTINUOUS
 62
     7
 10
93.9365919533
 20
152.3857418128
 30
0.0
  0
VERTEX
  5
193
  8
0
  6
CONTINUOUS
 62
     7
 10
93.2925133878
 20
152.4785252499
 30
0.0
  0
VERTEX
  5
194
  8
0
  6
CONTINUOUS
 62
     7
 10
92.6354413666
 20
152.5391042559
 30
0.0
  0
VERTEX
  5
195
  8
0
  6
CONTINUOUS
 62
     7
 10
91.9708896637
 20
152.5671594293
 30
0.0
  0
VERTEX
  5
196
  8
0
  6
CONTINUOUS
 62
     7
 10
91.3044369159
 20
152.5625481765
 30
0.0
  0
VERTEX
  5
197
  8
0
  6
CONTINUOUS
 62
     7
 10
90.6416941107
 20
152.5253117798
 30
0.0
  0
VERTEX
  5
198
  8
0
  6
CONTINUOUS
 62
     7
 10
89.9883224124
 20
152.4556959219
 30
0.0
  0
VERTEX
  5
199
  8
0
  6
CONTINUOUS
 62
     7
 10
89.3497693819
 20
152.3541117476
 30
0.0
  0
VERTEX
  5
19A
  8
0
  6
CONTINUOUS
 62
     7
 10
88.73133076
 20
152.2211207919
 30
0.0
  0
VERTEX
  5
19B
  8
0
  6
CONTINUOUS
 62
     7
 10
88.1381071268
 20
152.0573940784
 30
0.0
  0
VERTEX
  5
19C
  8
0
  6
CONTINUOUS
 62
     7
 10
87.5749803139
 20
151.8636610034
 30
0.0
  0
VERTEX
  5
19D
  8
0
  6
CONTINUOUS
 62
     7
 10
87.0466199015
 20
151.6406574419
 30
0.0
  0
VERTEX
  5
19E
  8
0
  6
CONTINUOUS
 62
     7
 10
86.5575464781
 20
151.3890749677
 30
0.0
  0
VERTEX
  5
19F
  8
0
  6
CONTINUOUS
 62
     7
 10
86.1122785912
 20
151.1095688626
 30
0.0
  0
VERTEX
  5
1A0
  8
0
  6
CONTINUOUS
 62
     7
 10
85.7155798405
 20
150.8029021425
 30
0.0
  0
VERTEX
  5
1A1
  8
0
  6
CONTINUOUS
 62
     7
 10
85.3732470741
 20
150.4709501731
 30
0.0
  0
VERTEX
  5
1A2
  8
0
  6
CONTINUOUS
 62
     7
 10
85.0912060113
 20
150.1170489198
 30
0.0
  0
VERTEX
  5
1A3
  8
0
  6
CONTINUOUS
 62
     7
 10
84.8747347096
 20
149.7467054107
 30
0.0
  0
VERTEX
  5
1A4
  8
0
  6
CONTINUOUS
 62
     7
 10
84.726888786
 20
149.3671148546
 30
0.0
  0
VERTEX
  5
1A5
  8
0
  6
CONTINUOUS
 62
     7
 10
84.6475971879
 20
148.9853607164
 30
0.0
  0
VERTEX
  5
1A6
  8
0
  6
CONTINUOUS
 62
     7
 10
84.6387926019
 20
148.7308224384
 30
0.0
  0
SEQEND
  5
5EF
  8
0
  6
CONTINUOUS
 62
     7
  0
LINE
  5
54
  8
0
  6
CONTINUOUS
 62
     7
 10
98.8316596298
 20
145.7747780395
 30
0.0
 11
98.8316596298
 21
148.7192639271
 31
0.0
  0
LINE
  5
55
  8
0
  6
CONTINUOUS
 62
     7
 10
84.6316597282
 20
148.7192639284
 30
0.0
 11
84.6316597282
 21
145.7747780408
 31
0.0
  0
ARC
  5
56
  8
0
  6
CONTINUOUS
 62
     7
 10
118.8648945339
 20
217.2442067254
 30
0.0
 40
0.6911932888316564
 50
122.410645708
 51
184.1574268291
  0
ARC
  5
57
  8
0
  6
CONTINUOUS
 62
     7
 10
119.5833798855
 20
216.3900763689
 30
0.0
 40
1.805003496705208
 50
94.9694749128
 51
118.4747327496
  0
ARC
  5
58
  8
0
  6
CONTINUOUS
 62
     7
 10
119.8477530315
 20
216.168063642
 30
0.0
 40
2.044483438020277
 50
71.4706784371
 51
92.8848056568
  0
ARC
  5
59
  8
0
  6
CONTINUOUS
 62
     7
 10
120.4398794627
 20
217.1186763902
 30
0.0
 40
0.9433988339425787
 50
25.3525376751
 51
69.6217075683
  0
LINE
  5
5A
  8
0
  6
CONTINUOUS
 62
     7
 10
121.362021796
 20
217.2816187888
 30
0.0
 11
121.3447036588
 21
217.376606601
 31
0.0
  0
POLYLINE
  5
5B
  8
0
  6
CONTINUOUS
 62
     7
 66
     1
 10
0.0
 20
0.0
 30
0.0
  0
VERTEX
  5
1A7
  8
0
  6
CONTINUOUS
 62
     7
 10
121.3684093815
 20
217.2144505212
 30
0.0
  0
VERTEX
  5
1A8
  8
0
  6
CONTINUOUS
 62
     7
 10
121.3706262164
 20
217.2344338775
 30
0.0
  0
VERTEX
  5
1A9
  8
0
  6
CONTINUOUS
 62
     7
 10
121.362021796
 20
217.2816187888
 30
0.0
  0
SEQEND
  5
5EE
  8
0
  6
CONTINUOUS
 62
     7
  0
LINE
  5
5C
  8
0
  6
CONTINUOUS
 62
     7
 10
121.3709827411
 20
215.6532568156
 30
0.0
 11
121.3709827411
 21
217.2121031205
 31
0.0
  0
LINE
  5
5D
  8
0
  6
CONTINUOUS
 62
     7
 10
118.1709818271
 20
217.2121030081
 30
0.0
 11
118.1709818271
 21
215.6532567032
 31
0.0
  0
LINE
  5
5E
  8
0
  6
CONTINUOUS
 62
     7
 10
120.6312563982
 20
217.5585114266
 30
0.0
 11
120.6312563982
 21
217.5931530291
 31
0.0
  0
LINE
  5
5F
  8
0
  6
CONTINUOUS
 62
     7
 10
118.1709818271
 20
215.6532567032
 30
0.0
 11
118.1709818271
 21
215.3068458396
 31
0.0
  0
LINE
  5
60
  8
0
  6
CONTINUOUS
 62
     7
 10
121.3709827411
 20
215.3068459521
 30
0.0
 11
121.3709827411
 21
215.6532568156
 31
0.0
  0
LINE
  5
61
  8
0
  6
CONTINUOUS
 62
     7
 10
117.4519723088
 20
213.1667632737
 30
0.0
 11
117.0023396978
 21
212.6318963896
 31
0.0
  0
LINE
  5
62
  8
0
  6
CONTINUOUS
 62
     7
 10
117.0537324578
 20
212.4551262681
 30
0.0
 11
117.7200480612
 21
212.2447012159
 31
0.0
  0
LINE
  5
63
  8
0
  6
CONTINUOUS
 62
     7
 10
117.7839455795
 20
212.2425766147
 30
0.0
 11
118.0432905006
 21
212.3179764424
 31
0.0
  0
LINE
  5
64
  8
0
  6
CONTINUOUS
 62
     7
 10
117.7641176969
 20
213.2782163986
 30
0.0
 11
117.5047727758
 21
213.2028165709
 31
0.0
  0
LINE
  5
65
  8
0
  6
CONTINUOUS
 62
     7
 10
118.5417435135
 20
213.4001562211
 30
0.0
 11
117.9174384266
 21
213.2186504099
 31
0.0
  0
LINE
  5
66
  8
0
  6
CONTINUOUS
 62
     7
 10
118.1407763024
 20
212.4504576507
 30
0.0
 11
119.744334925
 21
212.9166644751
 31
0.0
  0
POLYLINE
  5
67
  8
0
  6
CONTINUOUS
 62
     7
 66
     1
 10
0.0
 20
0.0
 30
0.0
  0
VERTEX
  5
1AA
  8
0
  6
CONTINUOUS
 62
     7
 10
89.3298014139
 20
197.2188766411
 30
0.0
  0
VERTEX
  5
1AB
  8
0
  6
CONTINUOUS
 62
     7
 10
89.4350142965
 20
197.1223779648
 30
0.0
  0
VERTEX
  5
1AC
  8
0
  6
CONTINUOUS
 62
     7
 10
89.6359239048
 20
196.9054229621
 30
0.0
  0
VERTEX
  5
1AD
  8
0
  6
CONTINUOUS
 62
     7
 10
89.842629688
 20
196.6374393231
 30
0.0
  0
VERTEX
  5
1AE
  8
0
  6
CONTINUOUS
 62
     7
 10
90.0492827208
 20
196.3214090111
 30
0.0
  0
VERTEX
  5
1AF
  8
0
  6
CONTINUOUS
 62
     7
 10
90.2498647461
 20
195.9627061417
 30
0.0
  0
VERTEX
  5
1B0
  8
0
  6
CONTINUOUS
 62
     7
 10
90.4389587752
 20
195.568041714
 30
0.0
  0
VERTEX
  5
1B1
  8
0
  6
CONTINUOUS
 62
     7
 10
90.6118220996
 20
195.1450540715
 30
0.0
  0
VERTEX
  5
1B2
  8
0
  6
CONTINUOUS
 62
     7
 10
90.7644068279
 20
194.7020272411
 30
0.0
  0
VERTEX
  5
1B3
  8
0
  6
CONTINUOUS
 62
     7
 10
90.8933623913
 20
194.2476765641
 30
0.0
  0
VERTEX
  5
1B4
  8
0
  6
CONTINUOUS
 62
     7
 10
90.9960411176
 20
193.791027884
 30
0.0
  0
VERTEX
  5
1B5
  8
0
  6
CONTINUOUS
 62
     7
 10
91.0705152372
 20
193.3414791834
 30
0.0
  0
VERTEX
  5
1B6
  8
0
  6
CONTINUOUS
 62
     7
 10
91.1157480322
 20
192.9082092138
 30
0.0
  0
VERTEX
  5
1B7
  8
0
  6
CONTINUOUS
 62
     7
 10
91.1314934478
 20
192.5231357545
 30
0.0
  0
VERTEX
  5
1B8
  8
0
  6
CONTINUOUS
 62
     7
 10
91.1316596922
 20
192.4807471153
 30
0.0
  0
SEQEND
  5
5ED
  8
0
  6
CONTINUOUS
 62
     7
  0
POLYLINE
  5
68
  8
0
  6
CONTINUOUS
 62
     7
 66
     1
 10
0.0
 20
0.0
 30
0.0
  0
VERTEX
  5
1B9
  8
0
  6
CONTINUOUS
 62
     7
 10
92.3316596192
 20
192.4807471449
 30
0.0
  0
VERTEX
  5
1BA
  8
0
  6
CONTINUOUS
 62
     7
 10
92.3268688386
 20
192.7352380748
 30
0.0
  0
VERTEX
  5
1BB
  8
0
  6
CONTINUOUS
 62
     7
 10
92.2915821896
 20
193.2347581932
 30
0.0
  0
VERTEX
  5
1BC
  8
0
  6
CONTINUOUS
 62
     7
 10
92.2232398854
 20
193.7458232434
 30
0.0
  0
VERTEX
  5
1BD
  8
0
  6
CONTINUOUS
 62
     7
 10
92.1234154433
 20
194.2620959955
 30
0.0
  0
VERTEX
  5
1BE
  8
0
  6
CONTINUOUS
 62
     7
 10
91.9937587446
 20
194.7773799881
 30
0.0
  0
VERTEX
  5
1BF
  8
0
  6
CONTINUOUS
 62
     7
 10
91.8360620789
 20
195.2853482893
 30
0.0
  0
VERTEX
  5
1C0
  8
0
  6
CONTINUOUS
 62
     7
 10
91.6522976434
 20
195.779612878
 30
0.0
  0
VERTEX
  5
1C1
  8
0
  6
CONTINUOUS
 62
     7
 10
91.4445894877
 20
196.2538507006
 30
0.0
  0
VERTEX
  5
1C2
  8
0
  6
CONTINUOUS
 62
     7
 10
91.2149997975
 20
196.7022171144
 30
0.0
  0
VERTEX
  5
1C3
  8
0
  6
CONTINUOUS
 62
     7
 10
90.9654222513
 20
197.1192435349
 30
0.0
  0
VERTEX
  5
1C4
  8
0
  6
CONTINUOUS
 62
     7
 10
90.6973475347
 20
197.4998604013
 30
0.0
  0
VERTEX
  5
1C5
  8
0
  6
CONTINUOUS
 62
     7
 10
90.4115588415
 20
197.8392724162
 30
0.0
  0
VERTEX
  5
1C6
  8
0
  6
CONTINUOUS
 62
     7
 10
90.1121946381
 20
198.1287435906
 30
0.0
  0
SEQEND
  5
5EC
  8
0
  6
CONTINUOUS
 62
     7
  0
LINE
  5
69
  8
0
  6
CONTINUOUS
 62
     7
 10
92.3316596192
 20
161.3038316925
 30
0.0
 11
92.3316596192
 21
192.4807471449
 31
0.0
  0
LINE
  5
6A
  8
0
  6
CONTINUOUS
 62
     7
 10
91.1316596922
 20
192.4807471153
 30
0.0
 11
91.1316596922
 21
161.3038316628
 31
0.0
  0
LINE
  5
6B
  8
0
  6
CONTINUOUS
 62
     7
 10
90.1121946381
 20
198.1287435906
 30
0.0
 11
86.0908712856
 21
201.5866678577
 31
0.0
  0
LINE
  5
6C
  8
0
  6
CONTINUOUS
 62
     7
 10
85.3084780614
 20
200.6768009083
 30
0.0
 11
89.3298014139
 21
197.2188766411
 31
0.0
  0
POLYLINE
  5
6D
  8
0
  6
CONTINUOUS
 62
     7
 66
     1
 10
0.0
 20
0.0
 30
0.0
  0
VERTEX
  5
1C7
  8
0
  6
CONTINUOUS
 62
     7
 10
86.9794333986
 20
204.4421722218
 30
0.0
  0
VERTEX
  5
1C8
  8
0
  6
CONTINUOUS
 62
     7
 10
86.7317919142
 20
204.3645897836
 30
0.0
  0
VERTEX
  5
1C9
  8
0
  6
CONTINUOUS
 62
     7
 10
86.2864750962
 20
204.1933927415
 30
0.0
  0
VERTEX
  5
1CA
  8
0
  6
CONTINUOUS
 62
     7
 10
85.8769604494
 20
203.9905111983
 30
0.0
  0
VERTEX
  5
1CB
  8
0
  6
CONTINUOUS
 62
     7
 10
85.5087268936
 20
203.7555093338
 30
0.0
  0
VERTEX
  5
1CC
  8
0
  6
CONTINUOUS
 62
     7
 10
85.1887560056
 20
203.4883102601
 30
0.0
  0
VERTEX
  5
1CD
  8
0
  6
CONTINUOUS
 62
     7
 10
84.9268644196
 20
203.1920566498
 30
0.0
  0
VERTEX
  5
1CE
  8
0
  6
CONTINUOUS
 62
     7
 10
84.7503441576
 20
202.9101186287
 30
0.0
  0
VERTEX
  5
1CF
  8
0
  6
CONTINUOUS
 62
     7
 10
84.6310093948
 20
202.6188145471
 30
0.0
  0
VERTEX
  5
1D0
  8
0
  6
CONTINUOUS
 62
     7
 10
84.5650687388
 20
202.2915784614
 30
0.0
  0
VERTEX
  5
1D1
  8
0
  6
CONTINUOUS
 62
     7
 10
84.5663471502
 20
201.9698703346
 30
0.0
  0
VERTEX
  5
1D2
  8
0
  6
CONTINUOUS
 62
     7
 10
84.6299700667
 20
201.65869797
 30
0.0
  0
VERTEX
  5
1D3
  8
0
  6
CONTINUOUS
 62
     7
 10
84.7515086624
 20
201.3617533683
 30
0.0
  0
VERTEX
  5
1D4
  8
0
  6
CONTINUOUS
 62
     7
 10
84.9295238266
 20
201.0785049512
 30
0.0
  0
VERTEX
  5
1D5
  8
0
  6
CONTINUOUS
 62
     7
 10
85.1650643904
 20
200.8089823387
 30
0.0
  0
VERTEX
  5
1D6
  8
0
  6
CONTINUOUS
 62
     7
 10
85.3084780614
 20
200.6768009083
 30
0.0
  0
SEQEND
  5
5EB
  8
0
  6
CONTINUOUS
 62
     7
  0
POLYLINE
  5
6E
  8
0
  6
CONTINUOUS
 62
     7
 66
     1
 10
0.0
 20
0.0
 30
0.0
  0
VERTEX
  5
1D7
  8
0
  6
CONTINUOUS
 62
     7
 10
86.0908712856
 20
201.5866678577
 30
0.0
  0
VERTEX
  5
1D8
  8
0
  6
CONTINUOUS
 62
     7
 10
86.0004362171
 20
201.6706345791
 30
0.0
  0
VERTEX
  5
1D9
  8
0
  6
CONTINUOUS
 62
     7
 10
85.8734601895
 20
201.8207915633
 30
0.0
  0
VERTEX
  5
1DA
  8
0
  6
CONTINUOUS
 62
     7
 10
85.7974865246
 20
201.9552701407
 30
0.0
  0
VERTEX
  5
1DB
  8
0
  6
CONTINUOUS
 62
     7
 10
85.7624235152
 20
202.0747794594
 30
0.0
  0
VERTEX
  5
1DC
  8
0
  6
CONTINUOUS
 62
     7
 10
85.7623280252
 20
202.1987260042
 30
0.0
  0
VERTEX
  5
1DD
  8
0
  6
CONTINUOUS
 62
     7
 10
85.7990300089
 20
202.322446873
 30
0.0
  0
VERTEX
  5
1DE
  8
0
  6
CONTINUOUS
 62
     7
 10
85.8751903251
 20
202.4558046211
 30
0.0
  0
VERTEX
  5
1DF
  8
0
  6
CONTINUOUS
 62
     7
 10
85.9969847093
 20
202.6000056161
 30
0.0
  0
VERTEX
  5
1E0
  8
0
  6
CONTINUOUS
 62
     7
 10
86.182748835
 20
202.7614583144
 30
0.0
  0
VERTEX
  5
1E1
  8
0
  6
CONTINUOUS
 62
     7
 10
86.4222178738
 20
202.9199853937
 30
0.0
  0
VERTEX
  5
1E2
  8
0
  6
CONTINUOUS
 62
     7
 10
86.7127628415
 20
203.069620421
 30
0.0
  0
VERTEX
  5
1E3
  8
0
  6
CONTINUOUS
 62
     7
 10
87.0506723709
 20
203.205245937
 30
0.0
  0
VERTEX
  5
1E4
  8
0
  6
CONTINUOUS
 62
     7
 10
87.3144408076
 20
203.2898823945
 30
0.0
  0
SEQEND
  5
5EA
  8
0
  6
CONTINUOUS
 62
     7
  0
LINE
  5
6F
  8
0
  6
CONTINUOUS
 62
     7
 10
112.9138636123
 20
211.9821534749
 30
0.0
 11
86.9794333986
 21
204.4421722218
 31
0.0
  0
LINE
  5
70
  8
0
  6
CONTINUOUS
 62
     7
 10
87.3144408076
 20
203.2898823945
 30
0.0
 11
113.248872089
 21
210.8298630955
 31
0.0
  0
LINE
  5
71
  8
0
  6
CONTINUOUS
 62
     7
 10
94.1716097346
 20
137.469794872
 30
0.0
 11
94.1716097346
 21
138.8554357452
 31
0.0
  0
LINE
  5
72
  8
0
  6
CONTINUOUS
 62
     7
 10
88.3716097627
 20
138.8554357589
 30
0.0
 11
88.3716097627
 21
137.4697948857
 31
0.0
  0
LINE
  5
73
  8
0
  6
CONTINUOUS
 62
     7
 10
93.9716096775
 20
132.2736422358
 30
0.0
 11
93.9716096775
 21
136.9406445152
 31
0.0
  0
LINE
  5
74
  8
0
  6
CONTINUOUS
 62
     7
 10
88.5716097266
 20
136.9406446236
 30
0.0
 11
88.5716097266
 21
132.2736423442
 31
0.0
  0
LINE
  5
75
  8
0
  6
CONTINUOUS
 62
     7
 10
92.4298985443
 20
131.1610875857
 30
0.0
 11
92.2829277411
 21
132.1950976375
 31
0.0
  0
LINE
  5
76
  8
0
  6
CONTINUOUS
 62
     7
 10
91.1803915865
 20
132.1950976424
 30
0.0
 11
91.033420735
 21
131.1610875238
 31
0.0
  0
LINE
  5
77
  8
0
  6
CONTINUOUS
 62
     7
 10
92.531659636
 20
128.8846107353
 30
0.0
 11
92.531659636
 21
131.1362761864
 31
0.0
  0
LINE
  5
78
  8
0
  6
CONTINUOUS
 62
     7
 10
90.9316596351
 20
131.1362761543
 30
0.0
 11
90.9316596351
 21
128.8846107032
 31
0.0
  0
LINE
  5
79
  8
0
  6
CONTINUOUS
 62
     7
 10
92.8316596876
 20
127.6721752409
 30
0.0
 11
92.8316596876
 21
128.8846106823
 31
0.0
  0
LINE
  5
7A
  8
0
  6
CONTINUOUS
 62
     7
 10
93.5216097335
 20
131.061206805
 30
0.0
 11
93.5216097335
 21
131.5274024559
 31
0.0
  0
LINE
  5
7B
  8
0
  6
CONTINUOUS
 62
     7
 10
89.0216097171
 20
131.5274025028
 30
0.0
 11
89.0216097171
 21
131.0612068519
 31
0.0
  0
LINE
  5
7C
  8
0
  6
CONTINUOUS
 62
     7
 10
88.4306978069
 20
130.9916615635
 30
0.0
 11
88.4306978069
 21
129.7792261221
 31
0.0
  0
LINE
  5
7D
  8
0
  6
CONTINUOUS
 62
     7
 10
93.6306978154
 20
129.7792260935
 30
0.0
 11
93.6306978154
 21
130.9916615349
 31
0.0
  0
LINE
  5
7E
  8
0
  6
CONTINUOUS
 62
     7
 10
88.3964345132
 20
116.0208132208
 30
0.0
 11
89.7584390749
 21
115.8383394823
 31
0.0
  0
ARC
  5
7F
  8
0
  6
CONTINUOUS
 62
     7
 10
81.9145059334
 20
114.1981413187
 30
0.0
 40
8.013584537781998
 50
359.6931899
 51
11.8106041664
  0
LINE
  5
80
  8
0
  6
CONTINUOUS
 62
     7
 10
89.9279755792
 20
114.1552300092
 30
0.0
 11
87.6057324029
 21
114.4663518738
 31
0.0
  0
ARC
  5
81
  8
0
  6
CONTINUOUS
 62
     7
 10
89.6129516501
 20
114.4236795093
 30
0.0
 40
2.007672791259894
 50
127.2960793522
 51
178.7821070613
  0
LINE
  5
82
  8
0
  6
CONTINUOUS
 62
     7
 10
89.9279755792
 20
114.1552300092
 30
0.0
 11
89.9279755792
 21
85.0567768344
 31
0.0
  0
LINE
  5
83
  8
0
  6
CONTINUOUS
 62
     7
 10
87.6057324029
 20
85.367898699
 30
0.0
 11
89.9279755792
 21
85.0567768344
 31
0.0
  0
LINE
  5
84
  8
0
  6
CONTINUOUS
 62
     7
 10
87.6057324029
 20
85.367898699
 30
0.0
 11
87.6057324029
 21
114.4663518738
 31
0.0
  0
LINE
  5
85
  8
0
  6
CONTINUOUS
 62
     7
 10
102.4853438954
 20
117.7802299981
 30
0.0
 11
89.9279755792
 21
114.1552300092
 31
0.0
  0
LINE
  5
86
  8
0
  6
CONTINUOUS
 62
     7
 10
89.7584390749
 20
115.8383394823
 30
0.0
 11
101.4548805256
 21
119.2148112923
 31
0.0
  0
ARC
  5
87
  8
0
  6
CONTINUOUS
 62
     7
 10
100.8341619975
 20
117.681564736
 30
0.0
 40
1.654127109290807
 50
3.4196045899
 51
67.9599608729
  0
LINE
  5
88
  8
0
  6
CONTINUOUS
 62
     7
 10
81.6434907068
 20
121.8690341074
 30
0.0
 11
88.3964345132
 21
116.0208132208
 31
0.0
  0
LINE
  5
89
  8
0
  6
CONTINUOUS
 62
     7
 10
87.6057324029
 20
114.4663518738
 30
0.0
 11
80.3557326115
 21
120.7450358706
 31
0.0
  0
ARC
  5
8A
  8
0
  6
CONTINUOUS
 62
     7
 10
81.62574951
 20
120.5896725771
 30
0.0
 40
1.279484534994854
 50
89.2055173388
 51
173.0255645036
  0
LINE
  5
8B
  8
0
  6
CONTINUOUS
 62
     7
 10
102.4853438954
 20
88.6817768232
 30
0.0
 11
102.4853438954
 21
117.7802299981
 31
0.0
  0
LINE
  5
8C
  8
0
  6
CONTINUOUS
 62
     7
 10
89.9279755792
 20
85.0567768344
 30
0.0
 11
102.4853438954
 21
88.6817768232
 31
0.0
  0
POLYLINE
  5
8D
  8
0
  6
CONTINUOUS
 62
     7
 66
     1
 10
0.0
 20
0.0
 30
0.0
  0
VERTEX
  5
1E5
  8
0
  6
CONTINUOUS
 62
     7
 10
95.1816595227
 20
117.894636238
 30
0.0
  0
VERTEX
  5
1E6
  8
0
  6
CONTINUOUS
 62
     7
 10
95.7684976948
 20
118.0844808536
 30
0.0
  0
VERTEX
  5
1E7
  8
0
  6
CONTINUOUS
 62
     7
 10
96.3139125219
 20
118.3030361464
 30
0.0
  0
VERTEX
  5
1E8
  8
0
  6
CONTINUOUS
 62
     7
 10
96.8123069744
 20
118.5480596508
 30
0.0
  0
VERTEX
  5
1E9
  8
0
  6
CONTINUOUS
 62
     7
 10
97.2585673032
 20
118.8170367496
 30
0.0
  0
VERTEX
  5
1EA
  8
0
  6
CONTINUOUS
 62
     7
 10
97.6481141002
 20
119.1072074584
 30
0.0
  0
VERTEX
  5
1EB
  8
0
  6
CONTINUOUS
 62
     7
 10
97.9769496232
 20
119.4155947127
 30
0.0
  0
VERTEX
  5
1EC
  8
0
  6
CONTINUOUS
 62
     7
 10
98.241700626
 20
119.7390330776
 30
0.0
  0
VERTEX
  5
1ED
  8
0
  6
CONTINUOUS
 62
     7
 10
98.439649421
 20
120.074204385
 30
0.0
  0
VERTEX
  5
1EE
  8
0
  6
CONTINUOUS
 62
     7
 10
98.5687651593
 20
120.4176691316
 30
0.0
  0
VERTEX
  5
1EF
  8
0
  6
CONTINUOUS
 62
     7
 10
98.6277231432
 20
120.7659030252
 30
0.0
  0
VERTEX
  5
1F0
  8
0
  6
CONTINUOUS
 62
     7
 10
98.6316596658
 20
120.8824236574
 30
0.0
  0
SEQEND
  5
5E9
  8
0
  6
CONTINUOUS
 62
     7
  0
POLYLINE
  5
8E
  8
0
  6
CONTINUOUS
 62
     7
 66
     1
 10
0.0
 20
0.0
 30
0.0
  0
VERTEX
  5
1F1
  8
0
  6
CONTINUOUS
 62
     7
 10
84.8316597853
 20
120.8824237534
 30
0.0
  0
VERTEX
  5
1F2
  8
0
  6
CONTINUOUS
 62
     7
 10
84.8474015389
 20
120.6495151925
 30
0.0
  0
VERTEX
  5
1F3
  8
0
  6
CONTINUOUS
 62
     7
 10
84.9298481058
 20
120.3024756717
 30
0.0
  0
VERTEX
  5
1F4
  8
0
  6
CONTINUOUS
 62
     7
 10
85.082091014
 20
119.9613873401
 30
0.0
  0
VERTEX
  5
1F5
  8
0
  6
CONTINUOUS
 62
     7
 10
85.3025668618
 20
119.6297499108
 30
0.0
  0
VERTEX
  5
1F6
  8
0
  6
CONTINUOUS
 62
     7
 10
85.5890140403
 20
119.310966662
 30
0.0
  0
VERTEX
  5
1F7
  8
0
  6
CONTINUOUS
 62
     7
 10
85.9384933021
 20
119.0083087432
 30
0.0
  0
VERTEX
  5
1F8
  8
0
  6
CONTINUOUS
 62
     7
 10
86.3474185895
 20
118.7248817714
 30
0.0
  0
VERTEX
  5
1F9
  8
0
  6
CONTINUOUS
 62
     7
 10
86.8115934498
 20
118.4635942948
 30
0.0
  0
VERTEX
  5
1FA
  8
0
  6
CONTINUOUS
 62
     7
 10
87.3262542809
 20
118.2271270462
 30
0.0
  0
VERTEX
  5
1FB
  8
0
  6
CONTINUOUS
 62
     7
 10
87.8861211148
 20
118.0179068449
 30
0.0
  0
VERTEX
  5
1FC
  8
0
  6
CONTINUOUS
 62
     7
 10
88.4854477549
 20
117.8380803124
 30
0.0
  0
VERTEX
  5
1FD
  8
0
  6
CONTINUOUS
 62
     7
 10
89.1180855436
 20
117.6894929215
 30
0.0
  0
VERTEX
  5
1FE
  8
0
  6
CONTINUOUS
 62
     7
 10
89.7775414818
 20
117.5736692098
 30
0.0
  0
VERTEX
  5
1FF
  8
0
  6
CONTINUOUS
 62
     7
 10
90.4570499356
 20
117.4917979918
 30
0.0
  0
VERTEX
  5
200
  8
0
  6
CONTINUOUS
 62
     7
 10
91.1496371181
 20
117.4447193563
 30
0.0
  0
VERTEX
  5
201
  8
0
  6
CONTINUOUS
 62
     7
 10
91.8481972724
 20
117.4329156875
 30
0.0
  0
VERTEX
  5
202
  8
0
  6
CONTINUOUS
 62
     7
 10
92.5455610815
 20
117.4565090442
 30
0.0
  0
VERTEX
  5
203
  8
0
  6
CONTINUOUS
 62
     7
 10
93.2345732874
 20
117.5152568972
 30
0.0
  0
VERTEX
  5
204
  8
0
  6
CONTINUOUS
 62
     7
 10
93.9081636288
 20
117.6085562609
 30
0.0
  0
VERTEX
  5
205
  8
0
  6
CONTINUOUS
 62
     7
 10
94.5594198363
 20
117.73545014
 30
0.0
  0
VERTEX
  5
206
  8
0
  6
CONTINUOUS
 62
     7
 10
95.1816595227
 20
117.894636238
 30
0.0
  0
SEQEND
  5
5E8
  8
0
  6
CONTINUOUS
 62
     7
  0
LINE
  5
8F
  8
0
  6
CONTINUOUS
 62
     7
 10
95.0668845687
 20
125.7440341372
 30
0.0
 11
93.7048806522
 21
125.926508062
 31
0.0
  0
LINE
  5
90
  8
0
  6
CONTINUOUS
 62
     7
 10
101.4548805256
 20
119.2148112923
 30
0.0
 11
101.8198283751
 21
119.8958132506
 31
0.0
  0
LINE
  5
91
  8
0
  6
CONTINUOUS
 62
     7
 10
82.0084392016
 20
122.5500362519
 30
0.0
 11
81.6434907068
 21
121.8690341074
 31
0.0
  0
POLYLINE
  5
92
  8
0
  6
CONTINUOUS
 62
     7
 66
     1
 10
0.0
 20
0.0
 30
0.0
  0
VERTEX
  5
207
  8
0
  6
CONTINUOUS
 62
     7
 10
88.2816596956
 20
125.0826468158
 30
0.0
  0
VERTEX
  5
208
  8
0
  6
CONTINUOUS
 62
     7
 10
87.6948216291
 20
124.8928020156
 30
0.0
  0
VERTEX
  5
209
  8
0
  6
CONTINUOUS
 62
     7
 10
87.1494068795
 20
124.6742467452
 30
0.0
  0
VERTEX
  5
20A
  8
0
  6
CONTINUOUS
 62
     7
 10
86.6510124705
 20
124.4292232534
 30
0.0
  0
VERTEX
  5
20B
  8
0
  6
CONTINUOUS
 62
     7
 10
86.2047521013
 20
124.160246143
 30
0.0
  0
VERTEX
  5
20C
  8
0
  6
CONTINUOUS
 62
     7
 10
85.8152054906
 20
123.8700752728
 30
0.0
  0
VERTEX
  5
20D
  8
0
  6
CONTINUOUS
 62
     7
 10
85.486369595
 20
123.5616883411
 30
0.0
  0
VERTEX
  5
20E
  8
0
  6
CONTINUOUS
 62
     7
 10
85.2216187786
 20
123.2382498149
 30
0.0
  0
VERTEX
  5
20F
  8
0
  6
CONTINUOUS
 62
     7
 10
85.023669661
 20
122.9030784144
 30
0.0
  0
VERTEX
  5
210
  8
0
  6
CONTINUOUS
 62
     7
 10
84.8945542452
 20
122.559613761
 30
0.0
  0
VERTEX
  5
211
  8
0
  6
CONTINUOUS
 62
     7
 10
84.8355961682
 20
122.2113799479
 30
0.0
  0
VERTEX
  5
212
  8
0
  6
CONTINUOUS
 62
     7
 10
84.8474015389
 20
121.861950634
 30
0.0
  0
VERTEX
  5
213
  8
0
  6
CONTINUOUS
 62
     7
 10
84.9298481058
 20
121.5149111131
 30
0.0
  0
VERTEX
  5
214
  8
0
  6
CONTINUOUS
 62
     7
 10
85.082091014
 20
121.1738227815
 30
0.0
  0
VERTEX
  5
215
  8
0
  6
CONTINUOUS
 62
     7
 10
85.3025668618
 20
120.8421853522
 30
0.0
  0
VERTEX
  5
216
  8
0
  6
CONTINUOUS
 62
     7
 10
85.5890140403
 20
120.5234021034
 30
0.0
  0
VERTEX
  5
217
  8
0
  6
CONTINUOUS
 62
     7
 10
85.9384933021
 20
120.2207441846
 30
0.0
  0
VERTEX
  5
218
  8
0
  6
CONTINUOUS
 62
     7
 10
86.3474185895
 20
119.9373172128
 30
0.0
  0
VERTEX
  5
219
  8
0
  6
CONTINUOUS
 62
     7
 10
86.8115934498
 20
119.6760297362
 30
0.0
  0
VERTEX
  5
21A
  8
0
  6
CONTINUOUS
 62
     7
 10
87.3262542809
 20
119.4395624877
 30
0.0
  0
VERTEX
  5
21B
  8
0
  6
CONTINUOUS
 62
     7
 10
87.8861211148
 20
119.2303422863
 30
0.0
  0
VERTEX
  5
21C
  8
0
  6
CONTINUOUS
 62
     7
 10
88.4854477549
 20
119.0505157538
 30
0.0
  0
VERTEX
  5
21D
  8
0
  6
CONTINUOUS
 62
     7
 10
89.1180855436
 20
118.9019283629
 30
0.0
  0
VERTEX
  5
21E
  8
0
  6
CONTINUOUS
 62
     7
 10
89.7775414818
 20
118.7861046512
 30
0.0
  0
VERTEX
  5
21F
  8
0
  6
CONTINUOUS
 62
     7
 10
90.4570499356
 20
118.7042334332
 30
0.0
  0
VERTEX
  5
220
  8
0
  6
CONTINUOUS
 62
     7
 10
91.1496371181
 20
118.6571547978
 30
0.0
  0
VERTEX
  5
221
  8
0
  6
CONTINUOUS
 62
     7
 10
91.8481972724
 20
118.6453511289
 30
0.0
  0
VERTEX
  5
222
  8
0
  6
CONTINUOUS
 62
     7
 10
92.5455610815
 20
118.6689444856
 30
0.0
  0
VERTEX
  5
223
  8
0
  6
CONTINUOUS
 62
     7
 10
93.2345732874
 20
118.7276923386
 30
0.0
  0
VERTEX
  5
224
  8
0
  6
CONTINUOUS
 62
     7
 10
93.9081636288
 20
118.8209917023
 30
0.0
  0
VERTEX
  5
225
  8
0
  6
CONTINUOUS
 62
     7
 10
94.5594198363
 20
118.9478855815
 30
0.0
  0
VERTEX
  5
226
  8
0
  6
CONTINUOUS
 62
     7
 10
95.1816595227
 20
119.1070716794
 30
0.0
  0
VERTEX
  5
227
  8
0
  6
CONTINUOUS
 62
     7
 10
95.7684976948
 20
119.296916295
 30
0.0
  0
VERTEX
  5
228
  8
0
  6
CONTINUOUS
 62
     7
 10
96.3139125219
 20
119.5154715878
 30
0.0
  0
VERTEX
  5
229
  8
0
  6
CONTINUOUS
 62
     7
 10
96.8123069744
 20
119.7604950922
 30
0.0
  0
VERTEX
  5
22A
  8
0
  6
CONTINUOUS
 62
     7
 10
97.2585673032
 20
120.029472191
 30
0.0
  0
VERTEX
  5
22B
  8
0
  6
CONTINUOUS
 62
     7
 10
97.6481141002
 20
120.3196428998
 30
0.0
  0
VERTEX
  5
22C
  8
0
  6
CONTINUOUS
 62
     7
 10
97.9769496232
 20
120.6280301541
 30
0.0
  0
VERTEX
  5
22D
  8
0
  6
CONTINUOUS
 62
     7
 10
98.241700626
 20
120.951468519
 30
0.0
  0
VERTEX
  5
22E
  8
0
  6
CONTINUOUS
 62
     7
 10
98.439649421
 20
121.2866398264
 30
0.0
  0
VERTEX
  5
22F
  8
0
  6
CONTINUOUS
 62
     7
 10
98.5687651593
 20
121.630104573
 30
0.0
  0
VERTEX
  5
230
  8
0
  6
CONTINUOUS
 62
     7
 10
98.6277231432
 20
121.9783384667
 30
0.0
  0
VERTEX
  5
231
  8
0
  6
CONTINUOUS
 62
     7
 10
98.6159180951
 20
122.3277678738
 30
0.0
  0
VERTEX
  5
232
  8
0
  6
CONTINUOUS
 62
     7
 10
98.5334711707
 20
122.6748073318
 30
0.0
  0
VERTEX
  5
233
  8
0
  6
CONTINUOUS
 62
     7
 10
98.38122862
 20
123.0158957262
 30
0.0
  0
VERTEX
  5
234
  8
0
  6
CONTINUOUS
 62
     7
 10
98.1607525428
 20
123.3475329817
 30
0.0
  0
VERTEX
  5
235
  8
0
  6
CONTINUOUS
 62
     7
 10
97.8743049485
 20
123.6663162181
 30
0.0
  0
VERTEX
  5
236
  8
0
  6
CONTINUOUS
 62
     7
 10
97.5248256867
 20
123.9689741369
 30
0.0
  0
VERTEX
  5
237
  8
0
  6
CONTINUOUS
 62
     7
 10
97.115900815
 20
124.2524011212
 30
0.0
  0
VERTEX
  5
238
  8
0
  6
CONTINUOUS
 62
     7
 10
96.6517261843
 20
124.5136887715
 30
0.0
  0
VERTEX
  5
239
  8
0
  6
CONTINUOUS
 62
     7
 10
96.1370649956
 20
124.7501559572
 30
0.0
  0
VERTEX
  5
23A
  8
0
  6
CONTINUOUS
 62
     7
 10
95.5771985193
 20
124.9593762214
 30
0.0
  0
VERTEX
  5
23B
  8
0
  6
CONTINUOUS
 62
     7
 10
94.9778715565
 20
125.1392026608
 30
0.0
  0
VERTEX
  5
23C
  8
0
  6
CONTINUOUS
 62
     7
 10
94.345233861
 20
125.287789971
 30
0.0
  0
VERTEX
  5
23D
  8
0
  6
CONTINUOUS
 62
     7
 10
93.6857776001
 20
125.4036135896
 30
0.0
  0
VERTEX
  5
23E
  8
0
  6
CONTINUOUS
 62
     7
 10
93.0062694689
 20
125.4854849008
 30
0.0
  0
VERTEX
  5
23F
  8
0
  6
CONTINUOUS
 62
     7
 10
92.3136821002
 20
125.5325636975
 30
0.0
  0
VERTEX
  5
240
  8
0
  6
CONTINUOUS
 62
     7
 10
91.6151223184
 20
125.5443670437
 30
0.0
  0
VERTEX
  5
241
  8
0
  6
CONTINUOUS
 62
     7
 10
90.917758323
 20
125.5207738484
 30
0.0
  0
VERTEX
  5
242
  8
0
  6
CONTINUOUS
 62
     7
 10
90.2287461574
 20
125.462026007
 30
0.0
  0
VERTEX
  5
243
  8
0
  6
CONTINUOUS
 62
     7
 10
89.5551557726
 20
125.3687266307
 30
0.0
  0
VERTEX
  5
244
  8
0
  6
CONTINUOUS
 62
     7
 10
88.9038994876
 20
125.2418327292
 30
0.0
  0
VERTEX
  5
245
  8
0
  6
CONTINUOUS
 62
     7
 10
88.2816596956
 20
125.0826468158
 30
0.0
  0
SEQEND
  5
5E7
  8
0
  6
CONTINUOUS
 62
     7
  0
POLYLINE
  5
93
  8
0
  6
CONTINUOUS
 62
     7
 66
     1
 10
0.0
 20
0.0
 30
0.0
  0
VERTEX
  5
246
  8
0
  6
CONTINUOUS
 62
     7
 10
88.381659712
 20
124.9960442613
 30
0.0
  0
VERTEX
  5
247
  8
0
  6
CONTINUOUS
 62
     7
 10
87.8028095734
 20
124.808442574
 30
0.0
  0
VERTEX
  5
248
  8
0
  6
CONTINUOUS
 62
     7
 10
87.2656062544
 20
124.592075997
 30
0.0
  0
VERTEX
  5
249
  8
0
  6
CONTINUOUS
 62
     7
 10
86.7757443933
 20
124.3492384018
 30
0.0
  0
VERTEX
  5
24A
  8
0
  6
CONTINUOUS
 62
     7
 10
86.3384163354
 20
124.082503873
 30
0.0
  0
VERTEX
  5
24B
  8
0
  6
CONTINUOUS
 62
     7
 10
85.9582579643
 20
123.7946996718
 30
0.0
  0
VERTEX
  5
24C
  8
0
  6
CONTINUOUS
 62
     7
 10
85.6392989913
 20
123.4888768307
 30
0.0
  0
VERTEX
  5
24D
  8
0
  6
CONTINUOUS
 62
     7
 10
85.3849207615
 20
123.1682772172
 30
0.0
  0
VERTEX
  5
24E
  8
0
  6
CONTINUOUS
 62
     7
 10
85.1978195955
 20
122.8362989709
 30
0.0
  0
VERTEX
  5
24F
  8
0
  6
CONTINUOUS
 62
     7
 10
85.0799786402
 20
122.4964612768
 30
0.0
  0
VERTEX
  5
250
  8
0
  6
CONTINUOUS
 62
     7
 10
85.032646813
 20
122.1523663482
 30
0.0
  0
VERTEX
  5
251
  8
0
  6
CONTINUOUS
 62
     7
 10
85.0563265443
 20
121.8076619859
 30
0.0
  0
VERTEX
  5
252
  8
0
  6
CONTINUOUS
 62
     7
 10
85.1507665659
 20
121.4660020021
 30
0.0
  0
VERTEX
  5
253
  8
0
  6
CONTINUOUS
 62
     7
 10
85.3149655755
 20
121.1310080298
 30
0.0
  0
VERTEX
  5
254
  8
0
  6
CONTINUOUS
 62
     7
 10
85.5471830739
 20
120.8062310798
 30
0.0
  0
VERTEX
  5
255
  8
0
  6
CONTINUOUS
 62
     7
 10
85.8449577366
 20
120.4951140238
 30
0.0
  0
VERTEX
  5
256
  8
0
  6
CONTINUOUS
 62
     7
 10
86.2051329063
 20
120.2009546161
 30
0.0
  0
VERTEX
  5
257
  8
0
  6
CONTINUOUS
 62
     7
 10
86.623890362
 20
119.9268710334
 30
0.0
  0
VERTEX
  5
258
  8
0
  6
CONTINUOUS
 62
     7
 10
87.0967914636
 20
119.6757684777
 30
0.0
  0
VERTEX
  5
259
  8
0
  6
CONTINUOUS
 62
     7
 10
87.6188238105
 20
119.4503091995
 30
0.0
  0
VERTEX
  5
25A
  8
0
  6
CONTINUOUS
 62
     7
 10
88.1844528894
 20
119.2528826705
 30
0.0
  0
VERTEX
  5
25B
  8
0
  6
CONTINUOUS
 62
     7
 10
88.7876830946
 20
119.0855817961
 30
0.0
  0
VERTEX
  5
25C
  8
0
  6
CONTINUOUS
 62
     7
 10
89.4221204047
 20
118.9501799278
 30
0.0
  0
VERTEX
  5
25D
  8
0
  6
CONTINUOUS
 62
     7
 10
90.0810391763
 20
118.8481125068
 30
0.0
  0
VERTEX
  5
25E
  8
0
  6
CONTINUOUS
 62
     7
 10
90.7574549183
 20
118.7804617226
 30
0.0
  0
VERTEX
  5
25F
  8
0
  6
CONTINUOUS
 62
     7
 10
91.4441977342
 20
118.7479439475
 30
0.0
  0
VERTEX
  5
260
  8
0
  6
CONTINUOUS
 62
     7
 10
92.1339877329
 20
118.7509044048
 30
0.0
  0
VERTEX
  5
261
  8
0
  6
CONTINUOUS
 62
     7
 10
92.8195127985
 20
118.7893116595
 30
0.0
  0
VERTEX
  5
262
  8
0
  6
CONTINUOUS
 62
     7
 10
93.4935064171
 20
118.8627585763
 30
0.0
  0
VERTEX
  5
263
  8
0
  6
CONTINUOUS
 62
     7
 10
94.1488239254
 20
118.9704666948
 30
0.0
  0
VERTEX
  5
264
  8
0
  6
CONTINUOUS
 62
     7
 10
94.7785192173
 20
119.1112937465
 30
0.0
  0
VERTEX
  5
265
  8
0
  6
CONTINUOUS
 62
     7
 10
95.3759168406
 20
119.2837475859
 30
0.0
  0
VERTEX
  5
266
  8
0
  6
CONTINUOUS
 62
     7
 10
95.9346840953
 20
119.4860001197
 30
0.0
  0
VERTEX
  5
267
  8
0
  6
CONTINUOUS
 62
     7
 10
96.4488987024
 20
119.7159068421
 30
0.0
  0
VERTEX
  5
268
  8
0
  6
CONTINUOUS
 62
     7
 10
96.9131093033
 20
119.9710311815
 30
0.0
  0
VERTEX
  5
269
  8
0
  6
CONTINUOUS
 62
     7
 10
97.3223952333
 20
120.2486686383
 30
0.0
  0
VERTEX
  5
26A
  8
0
  6
CONTINUOUS
 62
     7
 10
97.6724177339
 20
120.5458761942
 30
0.0
  0
VERTEX
  5
26B
  8
0
  6
CONTINUOUS
 62
     7
 10
97.9594668643
 20
120.8595034905
 30
0.0
  0
VERTEX
  5
26C
  8
0
  6
CONTINUOUS
 62
     7
 10
98.18050014
 20
121.1862254906
 30
0.0
  0
VERTEX
  5
26D
  8
0
  6
CONTINUOUS
 62
     7
 10
98.3331735668
 20
121.5225793988
 30
0.0
  0
VERTEX
  5
26E
  8
0
  6
CONTINUOUS
 62
     7
 10
98.4158693066
 20
121.8649997467
 30
0.0
  0
VERTEX
  5
26F
  8
0
  6
CONTINUOUS
 62
     7
 10
98.4277111171
 20
122.2098566181
 30
0.0
  0
VERTEX
  5
270
  8
0
  6
CONTINUOUS
 62
     7
 10
98.3685728776
 20
122.5534944583
 30
0.0
  0
VERTEX
  5
271
  8
0
  6
CONTINUOUS
 62
     7
 10
98.2390814809
 20
122.8922705481
 30
0.0
  0
VERTEX
  5
272
  8
0
  6
CONTINUOUS
 62
     7
 10
98.04060997
 20
123.2225941028
 30
0.0
  0
VERTEX
  5
273
  8
0
  6
CONTINUOUS
 62
     7
 10
97.7752623297
 20
123.5409632847
 30
0.0
  0
VERTEX
  5
274
  8
0
  6
CONTINUOUS
 62
     7
 10
97.4458505523
 20
123.8440033188
 30
0.0
  0
VERTEX
  5
275
  8
0
  6
CONTINUOUS
 62
     7
 10
97.0558673355
 20
124.128502058
 30
0.0
  0
VERTEX
  5
276
  8
0
  6
CONTINUOUS
 62
     7
 10
96.6094459062
 20
124.3914436594
 30
0.0
  0
VERTEX
  5
277
  8
0
  6
CONTINUOUS
 62
     7
 10
96.1113188307
 20
124.6300409024
 30
0.0
  0
VERTEX
  5
278
  8
0
  6
CONTINUOUS
 62
     7
 10
95.5667663907
 20
124.8417646232
 30
0.0
  0
VERTEX
  5
279
  8
0
  6
CONTINUOUS
 62
     7
 10
94.9815607872
 20
125.0243704288
 30
0.0
  0
VERTEX
  5
27A
  8
0
  6
CONTINUOUS
 62
     7
 10
94.3619052972
 20
125.1759227039
 30
0.0
  0
VERTEX
  5
27B
  8
0
  6
CONTINUOUS
 62
     7
 10
93.7143686671
 20
125.2948149204
 30
0.0
  0
VERTEX
  5
27C
  8
0
  6
CONTINUOUS
 62
     7
 10
93.0458145719
 20
125.3797867691
 30
0.0
  0
VERTEX
  5
27D
  8
0
  6
CONTINUOUS
 62
     7
 10
92.3633304763
 20
125.4299375246
 30
0.0
  0
VERTEX
  5
27E
  8
0
  6
CONTINUOUS
 62
     7
 10
91.6741504521
 20
125.4447357051
 30
0.0
  0
VERTEX
  5
27F
  8
0
  6
CONTINUOUS
 62
     7
 10
90.9855798482
 20
125.4240244255
 30
0.0
  0
VERTEX
  5
280
  8
0
  6
CONTINUOUS
 62
     7
 10
90.3049180228
 20
125.3680230743
 30
0.0
  0
VERTEX
  5
281
  8
0
  6
CONTINUOUS
 62
     7
 10
89.6393799242
 20
125.2773254306
 30
0.0
  0
VERTEX
  5
282
  8
0
  6
CONTINUOUS
 62
     7
 10
88.9960204756
 20
125.1528928917
 30
0.0
  0
VERTEX
  5
283
  8
0
  6
CONTINUOUS
 62
     7
 10
88.381659712
 20
124.9960442613
 30
0.0
  0
SEQEND
  5
5E6
  8
0
  6
CONTINUOUS
 62
     7
  0
LINE
  5
94
  8
0
  6
CONTINUOUS
 62
     7
 10
80.3557326115
 20
91.6465826957
 30
0.0
 11
87.6057324029
 21
85.367898699
 31
0.0
  0
LINE
  5
95
  8
0
  6
CONTINUOUS
 62
     7
 10
80.3557326115
 20
120.7450358706
 30
0.0
 11
80.3557326115
 21
91.6465826957
 31
0.0
  0
POLYLINE
  5
96
  8
0
  6
CONTINUOUS
 62
     7
 66
     1
 10
0.0
 20
0.0
 30
0.0
  0
VERTEX
  5
284
  8
0
  6
CONTINUOUS
 62
     7
 10
98.2868103802
 20
121.4020386888
 30
0.0
  0
VERTEX
  5
285
  8
0
  6
CONTINUOUS
 62
     7
 10
98.148353829
 20
121.673069431
 30
0.0
  0
VERTEX
  5
286
  8
0
  6
CONTINUOUS
 62
     7
 10
97.9161363307
 20
121.997846381
 30
0.0
  0
VERTEX
  5
287
  8
0
  6
CONTINUOUS
 62
     7
 10
97.6183615749
 20
122.3089635177
 30
0.0
  0
VERTEX
  5
288
  8
0
  6
CONTINUOUS
 62
     7
 10
97.2581867278
 20
122.6031230185
 30
0.0
  0
VERTEX
  5
289
  8
0
  6
CONTINUOUS
 62
     7
 10
96.8394289494
 20
122.877206508
 30
0.0
  0
VERTEX
  5
28A
  8
0
  6
CONTINUOUS
 62
     7
 10
96.3665276532
 20
123.1283088597
 30
0.0
  0
VERTEX
  5
28B
  8
0
  6
CONTINUOUS
 62
     7
 10
95.8444959283
 20
123.3537683443
 30
0.0
  0
VERTEX
  5
28C
  8
0
  6
CONTINUOUS
 62
     7
 10
95.2788668843
 20
123.5511948431
 30
0.0
  0
VERTEX
  5
28D
  8
0
  6
CONTINUOUS
 62
     7
 10
94.67563631
 20
123.7184956647
 30
0.0
  0
VERTEX
  5
28E
  8
0
  6
CONTINUOUS
 62
     7
 10
94.041199093
 20
123.8538974523
 30
0.0
  0
VERTEX
  5
28F
  8
0
  6
CONTINUOUS
 62
     7
 10
93.3822803214
 20
123.9559648733
 30
0.0
  0
VERTEX
  5
290
  8
0
  6
CONTINUOUS
 62
     7
 10
92.7058643
 20
124.0236158994
 30
0.0
  0
VERTEX
  5
291
  8
0
  6
CONTINUOUS
 62
     7
 10
92.0191215091
 20
124.0561334667
 30
0.0
  0
VERTEX
  5
292
  8
0
  6
CONTINUOUS
 62
     7
 10
91.3293316716
 20
124.053173056
 30
0.0
  0
VERTEX
  5
293
  8
0
  6
CONTINUOUS
 62
     7
 10
90.6438065254
 20
124.014765778
 30
0.0
  0
VERTEX
  5
294
  8
0
  6
CONTINUOUS
 62
     7
 10
89.9698129068
 20
123.9413188612
 30
0.0
  0
VERTEX
  5
295
  8
0
  6
CONTINUOUS
 62
     7
 10
89.3144952928
 20
123.8336109273
 30
0.0
  0
VERTEX
  5
296
  8
0
  6
CONTINUOUS
 62
     7
 10
88.6848003735
 20
123.6927835529
 30
0.0
  0
VERTEX
  5
297
  8
0
  6
CONTINUOUS
 62
     7
 10
88.0874027502
 20
123.5203297136
 30
0.0
  0
VERTEX
  5
298
  8
0
  6
CONTINUOUS
 62
     7
 10
87.5286351229
 20
123.3180775024
 30
0.0
  0
VERTEX
  5
299
  8
0
  6
CONTINUOUS
 62
     7
 10
87.0144206215
 20
123.0881705954
 30
0.0
  0
VERTEX
  5
29A
  8
0
  6
CONTINUOUS
 62
     7
 10
86.5502100206
 20
122.833046256
 30
0.0
  0
VERTEX
  5
29B
  8
0
  6
CONTINUOUS
 62
     7
 10
86.1409241713
 20
122.5554088225
 30
0.0
  0
VERTEX
  5
29C
  8
0
  6
CONTINUOUS
 62
     7
 10
85.7909015094
 20
122.25820122
 30
0.0
  0
VERTEX
  5
29D
  8
0
  6
CONTINUOUS
 62
     7
 10
85.503852354
 20
121.9445741316
 30
0.0
  0
VERTEX
  5
29E
  8
0
  6
CONTINUOUS
 62
     7
 10
85.2828193577
 20
121.6178518895
 30
0.0
  0
VERTEX
  5
29F
  8
0
  6
CONTINUOUS
 62
     7
 10
85.1765093122
 20
121.4020387475
 30
0.0
  0
SEQEND
  5
5E5
  8
0
  6
CONTINUOUS
 62
     7
  0
LINE
  5
97
  8
0
  6
CONTINUOUS
 62
     7
 10
103.1075869294
 20
118.9413518157
 30
0.0
 11
102.4853438954
 21
117.7802299981
 31
0.0
  0
POLYLINE
  5
98
  8
0
  6
CONTINUOUS
 62
     7
 66
     1
 10
0.0
 20
0.0
 30
0.0
  0
VERTEX
  5
2A0
  8
0
  6
CONTINUOUS
 62
     7
 10
103.1075869294
 20
118.9413518157
 30
0.0
  0
VERTEX
  5
2A1
  8
0
  6
CONTINUOUS
 62
     7
 10
103.0828429893
 20
119.1424671222
 30
0.0
  0
VERTEX
  5
2A2
  8
0
  6
CONTINUOUS
 62
     7
 10
103.0095621881
 20
119.3325959253
 30
0.0
  0
VERTEX
  5
2A3
  8
0
  6
CONTINUOUS
 62
     7
 10
102.8905605783
 20
119.5044310288
 30
0.0
  0
VERTEX
  5
2A4
  8
0
  6
CONTINUOUS
 62
     7
 10
102.7304109039
 20
119.6513710836
 30
0.0
  0
VERTEX
  5
2A5
  8
0
  6
CONTINUOUS
 62
     7
 10
102.5352691293
 20
119.7677668904
 30
0.0
  0
VERTEX
  5
2A6
  8
0
  6
CONTINUOUS
 62
     7
 10
102.3126321929
 20
119.8491465589
 30
0.0
  0
VERTEX
  5
2A7
  8
0
  6
CONTINUOUS
 62
     7
 10
102.0710576108
 20
119.8923819055
 30
0.0
  0
VERTEX
  5
2A8
  8
0
  6
CONTINUOUS
 62
     7
 10
101.8198283751
 20
119.8958132506
 30
0.0
  0
SEQEND
  5
5E4
  8
0
  6
CONTINUOUS
 62
     7
  0
LINE
  5
99
  8
0
  6
CONTINUOUS
 62
     7
 10
103.1075869294
 20
118.9413518157
 30
0.0
 11
103.1075869294
 21
89.8428986408
 31
0.0
  0
LINE
  5
9A
  8
0
  6
CONTINUOUS
 62
     7
 10
102.4853438954
 20
88.6817768232
 30
0.0
 11
103.1075869294
 21
89.8428986408
 31
0.0
  0
ARC
  5
9B
  8
0
  6
CONTINUOUS
 62
     7
 10
95.3857420614
 20
125.3684527938
 30
0.0
 40
0.4926778320278842
 50
55.5279785257
 51
130.3302758014
  0
LINE
  5
9C
  8
0
  6
CONTINUOUS
 62
     7
 10
95.7258030228
 20
119.4052113468
 30
0.0
 11
95.7258030228
 21
123.3988652183
 31
0.0
  0
ARC
  5
9D
  8
0
  6
CONTINUOUS
 62
     7
 10
81.6703829106
 20
121.9331033123
 30
0.0
 40
0.7034829833149279
 50
61.2788986118
 51
148.8807439638
  0
POLYLINE
  5
9E
  8
0
  6
CONTINUOUS
 62
     7
 66
     1
 10
0.0
 20
0.0
 30
0.0
  0
VERTEX
  5
2A9
  8
0
  6
CONTINUOUS
 62
     7
 10
93.7048806522
 20
125.926508062
 30
0.0
  0
VERTEX
  5
2AA
  8
0
  6
CONTINUOUS
 62
     7
 10
93.6718056164
 20
126.0321538168
 30
0.0
  0
VERTEX
  5
2AB
  8
0
  6
CONTINUOUS
 62
     7
 10
93.6400017047
 20
126.0938037372
 30
0.0
  0
VERTEX
  5
2AC
  8
0
  6
CONTINUOUS
 62
     7
 10
93.6108382892
 20
126.1091308625
 30
0.0
  0
SEQEND
  5
5E3
  8
0
  6
CONTINUOUS
 62
     7
  0
LINE
  5
9F
  8
0
  6
CONTINUOUS
 62
     7
 10
93.5636000169
 20
123.9315633623
 30
0.0
 11
93.5636000169
 21
118.8725163218
 31
0.0
  0
POLYLINE
  5
A0
  8
0
  6
CONTINUOUS
 62
     7
 66
     1
 10
0.0
 20
0.0
 30
0.0
  0
VERTEX
  5
2AD
  8
0
  6
CONTINUOUS
 62
     7
 10
87.9907618453
 20
84.7267580019
 30
0.0
  0
VERTEX
  5
2AE
  8
0
  6
CONTINUOUS
 62
     7
 10
87.9571442135
 20
84.7327938229
 30
0.0
  0
VERTEX
  5
2AF
  8
0
  6
CONTINUOUS
 62
     7
 10
87.8373234383
 20
84.7839615668
 30
0.0
  0
VERTEX
  5
2B0
  8
0
  6
CONTINUOUS
 62
     7
 10
87.7389896411
 20
84.8773656656
 30
0.0
  0
VERTEX
  5
2B1
  8
0
  6
CONTINUOUS
 62
     7
 10
87.6659209605
 20
85.0094235215
 30
0.0
  0
VERTEX
  5
2B2
  8
0
  6
CONTINUOUS
 62
     7
 10
87.6209255436
 20
85.1750538823
 30
0.0
  0
VERTEX
  5
2B3
  8
0
  6
CONTINUOUS
 62
     7
 10
87.6057324029
 20
85.367898699
 30
0.0
  0
SEQEND
  5
5E2
  8
0
  6
CONTINUOUS
 62
     7
  0
POLYLINE
  5
A1
  8
0
  6
CONTINUOUS
 62
     7
 66
     1
 10
0.0
 20
0.0
 30
0.0
  0
VERTEX
  5
2B4
  8
0
  6
CONTINUOUS
 62
     7
 10
89.8454205479
 20
84.4782808511
 30
0.0
  0
VERTEX
  5
2B5
  8
0
  6
CONTINUOUS
 62
     7
 10
89.8526286534
 20
84.4788470604
 30
0.0
  0
VERTEX
  5
2B6
  8
0
  6
CONTINUOUS
 62
     7
 10
89.8783192208
 20
84.510519981
 30
0.0
  0
VERTEX
  5
2B7
  8
0
  6
CONTINUOUS
 62
     7
 10
89.8994035967
 20
84.5879248056
 30
0.0
  0
VERTEX
  5
2B8
  8
0
  6
CONTINUOUS
 62
     7
 10
89.9150703303
 20
84.7080949156
 30
0.0
  0
VERTEX
  5
2B9
  8
0
  6
CONTINUOUS
 62
     7
 10
89.9247178722
 20
84.866404508
 30
0.0
  0
VERTEX
  5
2BA
  8
0
  6
CONTINUOUS
 62
     7
 10
89.9279755792
 20
85.0567768344
 30
0.0
  0
SEQEND
  5
5E1
  8
0
  6
CONTINUOUS
 62
     7
  0
ARC
  5
A2
  8
0
  6
CONTINUOUS
 62
     7
 10
101.8209997289
 20
88.6272511979
 30
0.0
 40
0.6665779889107178
 50
287.9543447797
 51
4.6919981391
  0
ARC
  5
A3
  8
0
  6
CONTINUOUS
 62
     7
 10
81.2292832267
 20
91.6581058198
 30
0.0
 40
0.8736266133708341
 50
180.7557525301
 51
230.1975155558
  0
ARC
  5
A4
  8
0
  6
CONTINUOUS
 62
     7
 10
102.1781874346
 20
89.8540611531
 30
0.0
 40
0.9294665257859922
 50
331.4866195567
 51
359.3118846135
  0
POLYLINE
  5
A5
  8
0
  6
CONTINUOUS
 62
     7
 66
     1
 10
0.0
 20
0.0
 30
0.0
  0
VERTEX
  5
2BB
  8
0
  6
CONTINUOUS
 62
     7
 10
92.294576186
 20
157.8687420363
 30
0.0
  0
VERTEX
  5
2BC
  8
0
  6
CONTINUOUS
 62
     7
 10
92.1585484866
 20
157.9513266782
 30
0.0
  0
VERTEX
  5
2BD
  8
0
  6
CONTINUOUS
 62
     7
 10
91.976260755
 20
158.0073525939
 30
0.0
  0
VERTEX
  5
2BE
  8
0
  6
CONTINUOUS
 62
     7
 10
91.7674667415
 20
158.0307485199
 30
0.0
  0
VERTEX
  5
2BF
  8
0
  6
CONTINUOUS
 62
     7
 10
91.5547924069
 20
158.0189791611
 30
0.0
  0
VERTEX
  5
2C0
  8
0
  6
CONTINUOUS
 62
     7
 10
91.3612844481
 20
157.9733198333
 30
0.0
  0
VERTEX
  5
2C1
  8
0
  6
CONTINUOUS
 62
     7
 10
91.2079122997
 20
157.8987185423
 30
0.0
  0
VERTEX
  5
2C2
  8
0
  6
CONTINUOUS
 62
     7
 10
91.1112964557
 20
157.8032593611
 30
0.0
  0
VERTEX
  5
2C3
  8
0
  6
CONTINUOUS
 62
     7
 10
91.0819065348
 20
157.6972868903
 30
0.0
  0
VERTEX
  5
2C4
  8
0
  6
CONTINUOUS
 62
     7
 10
91.1229272509
 20
157.5922848715
 30
0.0
  0
VERTEX
  5
2C5
  8
0
  6
CONTINUOUS
 62
     7
 10
91.2299137698
 20
157.4996318282
 30
0.0
  0
VERTEX
  5
2C6
  8
0
  6
CONTINUOUS
 62
     7
 10
91.3912723363
 20
157.4293682471
 30
0.0
  0
VERTEX
  5
2C7
  8
0
  6
CONTINUOUS
 62
     7
 10
91.5895170005
 20
157.3891082208
 30
0.0
  0
VERTEX
  5
2C8
  8
0
  6
CONTINUOUS
 62
     7
 10
91.8031649813
 20
157.3832145985
 30
0.0
  0
VERTEX
  5
2C9
  8
0
  6
CONTINUOUS
 62
     7
 10
92.0090643748
 20
157.4123259607
 30
0.0
  0
VERTEX
  5
2CA
  8
0
  6
CONTINUOUS
 62
     7
 10
92.1849025832
 20
157.4732877412
 30
0.0
  0
VERTEX
  5
2CB
  8
0
  6
CONTINUOUS
 62
     7
 10
92.3116249246
 20
157.5594937097
 30
0.0
  0
VERTEX
  5
2CC
  8
0
  6
CONTINUOUS
 62
     7
 10
92.3754989987
 20
157.6616021327
 30
0.0
  0
VERTEX
  5
2CD
  8
0
  6
CONTINUOUS
 62
     7
 10
92.3696031321
 20
157.7685479937
 30
0.0
  0
VERTEX
  5
2CE
  8
0
  6
CONTINUOUS
 62
     7
 10
92.294576186
 20
157.8687420363
 30
0.0
  0
SEQEND
  5
5E0
  8
0
  6
CONTINUOUS
 62
     7
  0
POLYLINE
  5
A6
  8
0
  6
CONTINUOUS
 62
     7
 66
     1
 10
0.0
 20
0.0
 30
0.0
  0
VERTEX
  5
2CF
  8
0
  6
CONTINUOUS
 62
     7
 10
90.631667104
 20
157.3185644616
 30
0.0
  0
VERTEX
  5
2D0
  8
0
  6
CONTINUOUS
 62
     7
 10
90.6316597573
 20
157.3165304825
 30
0.0
  0
VERTEX
  5
2D1
  8
0
  6
CONTINUOUS
 62
     7
 10
90.6691412986
 20
157.1741800397
 30
0.0
  0
VERTEX
  5
2D2
  8
0
  6
CONTINUOUS
 62
     7
 10
90.7790317633
 20
157.0415304698
 30
0.0
  0
VERTEX
  5
2D3
  8
0
  6
CONTINUOUS
 62
     7
 10
90.9538422324
 20
156.9276217985
 30
0.0
  0
VERTEX
  5
2D4
  8
0
  6
CONTINUOUS
 62
     7
 10
91.1816597543
 20
156.840216513
 30
0.0
  0
VERTEX
  5
2D5
  8
0
  6
CONTINUOUS
 62
     7
 10
91.4469586382
 20
156.7852713048
 30
0.0
  0
VERTEX
  5
2D6
  8
0
  6
CONTINUOUS
 62
     7
 10
91.7316597671
 20
156.7665304152
 30
0.0
  0
VERTEX
  5
2D7
  8
0
  6
CONTINUOUS
 62
     7
 10
92.0163606527
 20
156.7852711858
 30
0.0
  0
VERTEX
  5
2D8
  8
0
  6
CONTINUOUS
 62
     7
 10
92.2816596062
 20
156.8402165795
 30
0.0
  0
VERTEX
  5
2D9
  8
0
  6
CONTINUOUS
 62
     7
 10
92.5094772157
 20
156.927621676
 30
0.0
  0
VERTEX
  5
2DA
  8
0
  6
CONTINUOUS
 62
     7
 10
92.6842877061
 20
157.0415304137
 30
0.0
  0
VERTEX
  5
2DB
  8
0
  6
CONTINUOUS
 62
     7
 10
92.7941780169
 20
157.1741800403
 30
0.0
  0
VERTEX
  5
2DC
  8
0
  6
CONTINUOUS
 62
     7
 10
92.8316594064
 20
157.3161365737
 30
0.0
  0
SEQEND
  5
5DF
  8
0
  6
CONTINUOUS
 62
     7
  0
POLYLINE
  5
A7
  8
0
  6
CONTINUOUS
 62
     7
 66
     1
 10
0.0
 20
0.0
 30
0.0
  0
VERTEX
  5
2DD
  8
0
  6
CONTINUOUS
 62
     7
 10
90.6627818288
 20
157.1866268038
 30
0.0
  0
VERTEX
  5
2DE
  8
0
  6
CONTINUOUS
 62
     7
 10
90.6316597573
 20
157.0567229801
 30
0.0
  0
VERTEX
  5
2DF
  8
0
  6
CONTINUOUS
 62
     7
 10
90.6691412986
 20
156.9143725373
 30
0.0
  0
VERTEX
  5
2E0
  8
0
  6
CONTINUOUS
 62
     7
 10
90.7790317633
 20
156.7817229674
 30
0.0
  0
VERTEX
  5
2E1
  8
0
  6
CONTINUOUS
 62
     7
 10
90.9538422324
 20
156.6678142961
 30
0.0
  0
VERTEX
  5
2E2
  8
0
  6
CONTINUOUS
 62
     7
 10
91.1816597543
 20
156.5804090106
 30
0.0
  0
VERTEX
  5
2E3
  8
0
  6
CONTINUOUS
 62
     7
 10
91.4469586382
 20
156.5254638024
 30
0.0
  0
VERTEX
  5
2E4
  8
0
  6
CONTINUOUS
 62
     7
 10
91.7316597671
 20
156.5067229128
 30
0.0
  0
VERTEX
  5
2E5
  8
0
  6
CONTINUOUS
 62
     7
 10
92.0163606527
 20
156.5254636834
 30
0.0
  0
VERTEX
  5
2E6
  8
0
  6
CONTINUOUS
 62
     7
 10
92.2816596062
 20
156.5804090771
 30
0.0
  0
VERTEX
  5
2E7
  8
0
  6
CONTINUOUS
 62
     7
 10
92.5094772157
 20
156.6678141736
 30
0.0
  0
VERTEX
  5
2E8
  8
0
  6
CONTINUOUS
 62
     7
 10
92.6842877061
 20
156.7817229113
 30
0.0
  0
VERTEX
  5
2E9
  8
0
  6
CONTINUOUS
 62
     7
 10
92.7941780169
 20
156.9143725378
 30
0.0
  0
VERTEX
  5
2EA
  8
0
  6
CONTINUOUS
 62
     7
 10
92.8316596876
 20
157.0567229634
 30
0.0
  0
VERTEX
  5
2EB
  8
0
  6
CONTINUOUS
 62
     7
 10
92.8005375254
 20
157.186626831
 30
0.0
  0
SEQEND
  5
5DE
  8
0
  6
CONTINUOUS
 62
     7
  0
POLYLINE
  5
A8
  8
0
  6
CONTINUOUS
 62
     7
 66
     1
 10
0.0
 20
0.0
 30
0.0
  0
VERTEX
  5
2EC
  8
0
  6
CONTINUOUS
 62
     7
 10
90.9855586596
 20
156.9123854571
 30
0.0
  0
VERTEX
  5
2ED
  8
0
  6
CONTINUOUS
 62
     7
 10
90.9869606813
 20
156.9105865865
 30
0.0
  0
VERTEX
  5
2EE
  8
0
  6
CONTINUOUS
 62
     7
 10
91.1061944646
 20
156.8073271011
 30
0.0
  0
VERTEX
  5
2EF
  8
0
  6
CONTINUOUS
 62
     7
 10
91.2810035834
 20
156.7262274858
 30
0.0
  0
VERTEX
  5
2F0
  8
0
  6
CONTINUOUS
 62
     7
 10
91.4958554712
 20
156.6744938886
 30
0.0
  0
VERTEX
  5
2F1
  8
0
  6
CONTINUOUS
 62
     7
 10
91.7316596653
 20
156.6567229323
 30
0.0
  0
VERTEX
  5
2F2
  8
0
  6
CONTINUOUS
 62
     7
 10
91.967463817
 20
156.6744938901
 30
0.0
  0
VERTEX
  5
2F3
  8
0
  6
CONTINUOUS
 62
     7
 10
92.1823156342
 20
156.726227498
 30
0.0
  0
VERTEX
  5
2F4
  8
0
  6
CONTINUOUS
 62
     7
 10
92.3571248191
 20
156.8073270582
 30
0.0
  0
VERTEX
  5
2F5
  8
0
  6
CONTINUOUS
 62
     7
 10
92.4763585911
 20
156.9105865941
 30
0.0
  0
VERTEX
  5
2F6
  8
0
  6
CONTINUOUS
 62
     7
 10
92.477760665
 20
156.9123853773
 30
0.0
  0
SEQEND
  5
5DD
  8
0
  6
CONTINUOUS
 62
     7
  0
POLYLINE
  5
A9
  8
0
  6
CONTINUOUS
 62
     7
 66
     1
 10
0.0
 20
0.0
 30
0.0
  0
VERTEX
  5
2F7
  8
0
  6
CONTINUOUS
 62
     7
 10
92.1646723945
 20
157.8312420418
 30
0.0
  0
VERTEX
  5
2F8
  8
0
  6
CONTINUOUS
 62
     7
 10
92.0360403803
 20
157.9045803673
 30
0.0
  0
VERTEX
  5
2F9
  8
0
  6
CONTINUOUS
 62
     7
 10
91.8610691104
 20
157.9477235421
 30
0.0
  0
VERTEX
  5
2FA
  8
0
  6
CONTINUOUS
 62
     7
 10
91.6663966254
 20
157.9541032401
 30
0.0
  0
VERTEX
  5
2FB
  8
0
  6
CONTINUOUS
 62
     7
 10
91.4816596613
 20
157.922748431
 30
0.0
  0
VERTEX
  5
2FC
  8
0
  6
CONTINUOUS
 62
     7
 10
91.3349830568
 20
157.8584323836
 30
0.0
  0
VERTEX
  5
2FD
  8
0
  6
CONTINUOUS
 62
     7
 10
91.2486967755
 20
157.7709468759
 30
0.0
  0
VERTEX
  5
2FE
  8
0
  6
CONTINUOUS
 62
     7
 10
91.2359373112
 20
157.6736105062
 30
0.0
  0
VERTEX
  5
2FF
  8
0
  6
CONTINUOUS
 62
     7
 10
91.2986469294
 20
157.5812420241
 30
0.0
  0
VERTEX
  5
300
  8
0
  6
CONTINUOUS
 62
     7
 10
91.4272790243
 20
157.5079037218
 30
0.0
  0
VERTEX
  5
301
  8
0
  6
CONTINUOUS
 62
     7
 10
91.602250201
 20
157.4647606278
 30
0.0
  0
VERTEX
  5
302
  8
0
  6
CONTINUOUS
 62
     7
 10
91.7969227791
 20
157.458380849
 30
0.0
  0
VERTEX
  5
303
  8
0
  6
CONTINUOUS
 62
     7
 10
91.9816596501
 20
157.4897357388
 30
0.0
  0
VERTEX
  5
304
  8
0
  6
CONTINUOUS
 62
     7
 10
92.1283363477
 20
157.5540517056
 30
0.0
  0
VERTEX
  5
305
  8
0
  6
CONTINUOUS
 62
     7
 10
92.2146225359
 20
157.641537294
 30
0.0
  0
VERTEX
  5
306
  8
0
  6
CONTINUOUS
 62
     7
 10
92.2273820933
 20
157.738873583
 30
0.0
  0
VERTEX
  5
307
  8
0
  6
CONTINUOUS
 62
     7
 10
92.1646723945
 20
157.8312420418
 30
0.0
  0
SEQEND
  5
5DC
  8
0
  6
CONTINUOUS
 62
     7
  0
POLYLINE
  5
AA
  8
0
  6
CONTINUOUS
 62
     7
 66
     1
 10
0.0
 20
0.0
 30
0.0
  0
VERTEX
  5
308
  8
0
  6
CONTINUOUS
 62
     7
 10
91.1562725441
 20
146.0016374424
 30
0.0
  0
VERTEX
  5
309
  8
0
  6
CONTINUOUS
 62
     7
 10
91.8361920568
 20
145.9892992906
 30
0.0
  0
VERTEX
  5
30A
  8
0
  6
CONTINUOUS
 62
     7
 10
92.5149669444
 20
146.0125640854
 30
0.0
  0
VERTEX
  5
30B
  8
0
  6
CONTINUOUS
 62
     7
 10
93.1851593642
 20
146.0711769782
 30
0.0
  0
VERTEX
  5
30C
  8
0
  6
CONTINUOUS
 62
     7
 10
93.8394270115
 20
146.1644960258
 30
0.0
  0
VERTEX
  5
30D
  8
0
  6
CONTINUOUS
 62
     7
 10
94.4706012655
 20
146.2914988339
 30
0.0
  0
VERTEX
  5
30E
  8
0
  6
CONTINUOUS
 62
     7
 10
95.0717671445
 20
146.4507935932
 30
0.0
  0
VERTEX
  5
30F
  8
0
  6
CONTINUOUS
 62
     7
 10
95.6363383189
 20
146.6406351421
 30
0.0
  0
VERTEX
  5
310
  8
0
  6
CONTINUOUS
 62
     7
 10
96.1581290074
 20
146.8589435702
 30
0.0
  0
VERTEX
  5
311
  8
0
  6
CONTINUOUS
 62
     7
 10
96.6314224612
 20
147.1033269995
 30
0.0
  0
VERTEX
  5
312
  8
0
  6
CONTINUOUS
 62
     7
 10
97.0510329681
 20
147.371108086
 30
0.0
  0
VERTEX
  5
313
  8
0
  6
CONTINUOUS
 62
     7
 10
97.412363111
 20
147.6593530242
 30
0.0
  0
VERTEX
  5
314
  8
0
  6
CONTINUOUS
 62
     7
 10
97.711454485
 20
147.9649033937
 30
0.0
  0
VERTEX
  5
315
  8
0
  6
CONTINUOUS
 62
     7
 10
97.9450300631
 20
148.2844116181
 30
0.0
  0
VERTEX
  5
316
  8
0
  6
CONTINUOUS
 62
     7
 10
98.1105303502
 20
148.614377641
 30
0.0
  0
VERTEX
  5
317
  8
0
  6
CONTINUOUS
 62
     7
 10
98.2061426423
 20
148.9511853333
 30
0.0
  0
VERTEX
  5
318
  8
0
  6
CONTINUOUS
 62
     7
 10
98.2308190823
 20
149.2911453441
 30
0.0
  0
VERTEX
  5
319
  8
0
  6
CONTINUOUS
 62
     7
 10
98.1842893563
 20
149.6305325335
 30
0.0
  0
VERTEX
  5
31A
  8
0
  6
CONTINUOUS
 62
     7
 10
98.0670632482
 20
149.9656286503
 30
0.0
  0
VERTEX
  5
31B
  8
0
  6
CONTINUOUS
 62
     7
 10
97.8804251529
 20
150.2927624739
 30
0.0
  0
VERTEX
  5
31C
  8
0
  6
CONTINUOUS
 62
     7
 10
97.6264198594
 20
150.608349694
 30
0.0
  0
VERTEX
  5
31D
  8
0
  6
CONTINUOUS
 62
     7
 10
97.3078306633
 20
150.9089327267
 30
0.0
  0
VERTEX
  5
31E
  8
0
  6
CONTINUOUS
 62
     7
 10
96.9281471963
 20
151.1912182611
 30
0.0
  0
VERTEX
  5
31F
  8
0
  6
CONTINUOUS
 62
     7
 10
96.4915303546
 20
151.4521135927
 30
0.0
  0
VERTEX
  5
320
  8
0
  6
CONTINUOUS
 62
     7
 10
96.0027631706
 20
151.688760229
 30
0.0
  0
VERTEX
  5
321
  8
0
  6
CONTINUOUS
 62
     7
 10
95.4672010093
 20
151.8985654724
 30
0.0
  0
VERTEX
  5
322
  8
0
  6
CONTINUOUS
 62
     7
 10
94.8907114322
 20
152.0792306571
 30
0.0
  0
VERTEX
  5
323
  8
0
  6
CONTINUOUS
 62
     7
 10
94.2796107397
 20
152.2287763038
 30
0.0
  0
VERTEX
  5
324
  8
0
  6
CONTINUOUS
 62
     7
 10
93.6405938752
 20
152.3455640804
 30
0.0
  0
VERTEX
  5
325
  8
0
  6
CONTINUOUS
 62
     7
 10
92.9806625677
 20
152.4283143295
 30
0.0
  0
VERTEX
  5
326
  8
0
  6
CONTINUOUS
 62
     7
 10
92.3070468605
 20
152.4761203824
 30
0.0
  0
VERTEX
  5
327
  8
0
  6
CONTINUOUS
 62
     7
 10
91.6271270002
 20
152.488458649
 30
0.0
  0
VERTEX
  5
328
  8
0
  6
CONTINUOUS
 62
     7
 10
90.9483525408
 20
152.4651937627
 30
0.0
  0
VERTEX
  5
329
  8
0
  6
CONTINUOUS
 62
     7
 10
90.2781601863
 20
152.4065806737
 30
0.0
  0
VERTEX
  5
32A
  8
0
  6
CONTINUOUS
 62
     7
 10
89.6238925994
 20
152.3132616436
 30
0.0
  0
VERTEX
  5
32B
  8
0
  6
CONTINUOUS
 62
     7
 10
88.9927182197
 20
152.1862590143
 30
0.0
  0
VERTEX
  5
32C
  8
0
  6
CONTINUOUS
 62
     7
 10
88.3915519931
 20
152.0269643697
 30
0.0
  0
VERTEX
  5
32D
  8
0
  6
CONTINUOUS
 62
     7
 10
87.8269808994
 20
151.837122844
 30
0.0
  0
VERTEX
  5
32E
  8
0
  6
CONTINUOUS
 62
     7
 10
87.3051904224
 20
151.6188142619
 30
0.0
  0
VERTEX
  5
32F
  8
0
  6
CONTINUOUS
 62
     7
 10
86.8318970489
 20
151.3744306408
 30
0.0
  0
VERTEX
  5
330
  8
0
  6
CONTINUOUS
 62
     7
 10
86.412286542
 20
151.1066495543
 30
0.0
  0
VERTEX
  5
331
  8
0
  6
CONTINUOUS
 62
     7
 10
86.0509561323
 20
150.8184047541
 30
0.0
  0
VERTEX
  5
332
  8
0
  6
CONTINUOUS
 62
     7
 10
85.7518647583
 20
150.5128543845
 30
0.0
  0
VERTEX
  5
333
  8
0
  6
CONTINUOUS
 62
     7
 10
85.5182892732
 20
150.1933460795
 30
0.0
  0
VERTEX
  5
334
  8
0
  6
CONTINUOUS
 62
     7
 10
85.3527888681
 20
149.8633803452
 30
0.0
  0
VERTEX
  5
335
  8
0
  6
CONTINUOUS
 62
     7
 10
85.257176393
 20
149.5265724387
 30
0.0
  0
VERTEX
  5
336
  8
0
  6
CONTINUOUS
 62
     7
 10
85.2325001826
 20
149.1866126017
 30
0.0
  0
VERTEX
  5
337
  8
0
  6
CONTINUOUS
 62
     7
 10
85.2790302777
 20
148.8472254652
 30
0.0
  0
VERTEX
  5
338
  8
0
  6
CONTINUOUS
 62
     7
 10
85.3962561447
 20
148.5121291847
 30
0.0
  0
VERTEX
  5
339
  8
0
  6
CONTINUOUS
 62
     7
 10
85.5828942051
 20
148.1849953912
 30
0.0
  0
VERTEX
  5
33A
  8
0
  6
CONTINUOUS
 62
     7
 10
85.8368991294
 20
147.8694081183
 30
0.0
  0
VERTEX
  5
33B
  8
0
  6
CONTINUOUS
 62
     7
 10
86.1554887412
 20
147.5688250982
 30
0.0
  0
VERTEX
  5
33C
  8
0
  6
CONTINUOUS
 62
     7
 10
86.535171839
 20
147.286539511
 30
0.0
  0
VERTEX
  5
33D
  8
0
  6
CONTINUOUS
 62
     7
 10
86.9717887739
 20
147.0256440987
 30
0.0
  0
VERTEX
  5
33E
  8
0
  6
CONTINUOUS
 62
     7
 10
87.4605562455
 20
146.7889975857
 30
0.0
  0
VERTEX
  5
33F
  8
0
  6
CONTINUOUS
 62
     7
 10
87.9961184186
 20
146.5791923323
 30
0.0
  0
VERTEX
  5
340
  8
0
  6
CONTINUOUS
 62
     7
 10
88.57260751
 20
146.3985271956
 30
0.0
  0
VERTEX
  5
341
  8
0
  6
CONTINUOUS
 62
     7
 10
89.1837088944
 20
146.2489816949
 30
0.0
  0
VERTEX
  5
342
  8
0
  6
CONTINUOUS
 62
     7
 10
89.8227255294
 20
146.1321937445
 30
0.0
  0
VERTEX
  5
343
  8
0
  6
CONTINUOUS
 62
     7
 10
90.4826566505
 20
146.0494436566
 30
0.0
  0
VERTEX
  5
344
  8
0
  6
CONTINUOUS
 62
     7
 10
91.1562725441
 20
146.0016374424
 30
0.0
  0
SEQEND
  5
5DB
  8
0
  6
CONTINUOUS
 62
     7
  0
POLYLINE
  5
AB
  8
0
  6
CONTINUOUS
 62
     7
 66
     1
 10
0.0
 20
0.0
 30
0.0
  0
VERTEX
  5
345
  8
0
  6
CONTINUOUS
 62
     7
 10
91.1031600237
 20
142.2387141388
 30
0.0
  0
VERTEX
  5
346
  8
0
  6
CONTINUOUS
 62
     7
 10
91.8104394794
 20
142.2249964427
 30
0.0
  0
VERTEX
  5
347
  8
0
  6
CONTINUOUS
 62
     7
 10
92.5169362656
 20
142.2465581722
 30
0.0
  0
VERTEX
  5
348
  8
0
  6
CONTINUOUS
 62
     7
 10
93.2156282737
 20
142.3031849111
 30
0.0
  0
VERTEX
  5
349
  8
0
  6
CONTINUOUS
 62
     7
 10
93.899572439
 20
142.3943138336
 30
0.0
  0
VERTEX
  5
34A
  8
0
  6
CONTINUOUS
 62
     7
 10
94.5619704891
 20
142.5190393495
 30
0.0
  0
VERTEX
  5
34B
  8
0
  6
CONTINUOUS
 62
     7
 10
95.1962401888
 20
142.6761216258
 30
0.0
  0
VERTEX
  5
34C
  8
0
  6
CONTINUOUS
 62
     7
 10
95.7960768544
 20
142.8640000432
 30
0.0
  0
VERTEX
  5
34D
  8
0
  6
CONTINUOUS
 62
     7
 10
96.3555194797
 20
143.0808071232
 30
0.0
  0
VERTEX
  5
34E
  8
0
  6
CONTINUOUS
 62
     7
 10
96.8690084929
 20
143.3243877816
 30
0.0
  0
VERTEX
  5
34F
  8
0
  6
CONTINUOUS
 62
     7
 10
97.3314397936
 20
143.5923218105
 30
0.0
  0
VERTEX
  5
350
  8
0
  6
CONTINUOUS
 62
     7
 10
97.7382184558
 20
143.8819458336
 30
0.0
  0
VERTEX
  5
351
  8
0
  6
CONTINUOUS
 62
     7
 10
98.0853008038
 20
144.1903817978
 30
0.0
  0
VERTEX
  5
352
  8
0
  6
CONTINUOUS
 62
     7
 10
98.3692380886
 20
144.5145642078
 30
0.0
  0
VERTEX
  5
353
  8
0
  6
CONTINUOUS
 62
     7
 10
98.5872080999
 20
144.8512711892
 30
0.0
  0
VERTEX
  5
354
  8
0
  6
CONTINUOUS
 62
     7
 10
98.7370442794
 20
145.1971565518
 30
0.0
  0
VERTEX
  5
355
  8
0
  6
CONTINUOUS
 62
     7
 10
98.8172581888
 20
145.5487823003
 30
0.0
  0
VERTEX
  5
356
  8
0
  6
CONTINUOUS
 62
     7
 10
98.8316596298
 20
145.7747780395
 30
0.0
  0
SEQEND
  5
5DA
  8
0
  6
CONTINUOUS
 62
     7
  0
POLYLINE
  5
AC
  8
0
  6
CONTINUOUS
 62
     7
 66
     1
 10
0.0
 20
0.0
 30
0.0
  0
VERTEX
  5
357
  8
0
  6
CONTINUOUS
 62
     7
 10
84.6316597282
 20
145.7747780408
 30
0.0
  0
VERTEX
  5
358
  8
0
  6
CONTINUOUS
 62
     7
 10
84.6578359147
 20
145.470222787
 30
0.0
  0
VERTEX
  5
359
  8
0
  6
CONTINUOUS
 62
     7
 10
84.7536347317
 20
145.1195733731
 30
0.0
  0
VERTEX
  5
35A
  8
0
  6
CONTINUOUS
 62
     7
 10
84.9187847065
 20
144.7754357774
 30
0.0
  0
VERTEX
  5
35B
  8
0
  6
CONTINUOUS
 62
     7
 10
85.1516446736
 20
144.4412302817
 30
0.0
  0
VERTEX
  5
35C
  8
0
  6
CONTINUOUS
 62
     7
 10
85.4498991282
 20
144.1202779447
 30
0.0
  0
VERTEX
  5
35D
  8
0
  6
CONTINUOUS
 62
     7
 10
85.8105845466
 20
143.8157688666
 30
0.0
  0
VERTEX
  5
35E
  8
0
  6
CONTINUOUS
 62
     7
 10
86.2301163183
 20
143.5307291801
 30
0.0
  0
VERTEX
  5
35F
  8
0
  6
CONTINUOUS
 62
     7
 10
86.704324815
 20
143.2679920487
 30
0.0
  0
VERTEX
  5
360
  8
0
  6
CONTINUOUS
 62
     7
 10
87.2284970533
 20
143.030168291
 30
0.0
  0
VERTEX
  5
361
  8
0
  6
CONTINUOUS
 62
     7
 10
87.7974246905
 20
142.819621952
 30
0.0
  0
VERTEX
  5
362
  8
0
  6
CONTINUOUS
 62
     7
 10
88.4054513816
 20
142.6384449362
 30
0.0
  0
VERTEX
  5
363
  8
0
  6
CONTINUOUS
 62
     7
 10
89.0465362475
 20
142.4884385513
 30
0.0
  0
VERTEX
  5
364
  8
0
  6
CONTINUOUS
 62
     7
 10
89.7143069187
 20
142.3710929022
 30
0.0
  0
VERTEX
  5
365
  8
0
  6
CONTINUOUS
 62
     7
 10
90.4021267352
 20
142.287574888
 30
0.0
  0
VERTEX
  5
366
  8
0
  6
CONTINUOUS
 62
     7
 10
91.1031600237
 20
142.2387141388
 30
0.0
  0
SEQEND
  5
5D9
  8
0
  6
CONTINUOUS
 62
     7
  0
ARC
  5
AD
  8
0
  6
CONTINUOUS
 62
     7
 10
91.7316590098
 20
135.465842998
 30
0.0
 40
13.75895046965402
 50
86.8735456467
 51
93.1264492253
  0
POLYLINE
  5
AE
  8
0
  6
CONTINUOUS
 62
     7
 66
     1
 10
0.0
 20
0.0
 30
0.0
  0
VERTEX
  5
367
  8
0
  6
CONTINUOUS
 62
     7
 10
91.6608427912
 20
148.8404492191
 30
0.0
  0
VERTEX
  5
368
  8
0
  6
CONTINUOUS
 62
     7
 10
91.8988674861
 20
148.8477135022
 30
0.0
  0
VERTEX
  5
369
  8
0
  6
CONTINUOUS
 62
     7
 10
92.1220349171
 20
148.8897345455
 30
0.0
  0
VERTEX
  5
36A
  8
0
  6
CONTINUOUS
 62
     7
 10
92.3105158871
 20
148.9627786081
 30
0.0
  0
VERTEX
  5
36B
  8
0
  6
CONTINUOUS
 62
     7
 10
92.4475628711
 20
149.0603554122
 30
0.0
  0
VERTEX
  5
36C
  8
0
  6
CONTINUOUS
 62
     7
 10
92.5209987593
 20
149.1737948055
 30
0.0
  0
VERTEX
  5
36D
  8
0
  6
CONTINUOUS
 62
     7
 10
92.5242984244
 20
149.29301721
 30
0.0
  0
VERTEX
  5
36E
  8
0
  6
CONTINUOUS
 62
     7
 10
92.4571686323
 20
149.4074291804
 30
0.0
  0
VERTEX
  5
36F
  8
0
  6
CONTINUOUS
 62
     7
 10
92.3255741932
 20
149.506864722
 30
0.0
  0
VERTEX
  5
370
  8
0
  6
CONTINUOUS
 62
     7
 10
92.1412078602
 20
149.58248852
 30
0.0
  0
VERTEX
  5
371
  8
0
  6
CONTINUOUS
 62
     7
 10
91.9204513255
 20
149.6275811899
 30
0.0
  0
VERTEX
  5
372
  8
0
  6
CONTINUOUS
 62
     7
 10
91.6829198341
 20
149.6381358792
 30
0.0
  0
VERTEX
  5
373
  8
0
  6
CONTINUOUS
 62
     7
 10
91.449719124
 20
149.613214871
 30
0.0
  0
VERTEX
  5
374
  8
0
  6
CONTINUOUS
 62
     7
 10
91.2415700417
 20
149.5550324216
 30
0.0
  0
VERTEX
  5
375
  8
0
  6
CONTINUOUS
 62
     7
 10
91.0769675096
 20
149.4687583952
 30
0.0
  0
VERTEX
  5
376
  8
0
  6
CONTINUOUS
 62
     7
 10
90.970537294
 20
149.362058582
 30
0.0
  0
VERTEX
  5
377
  8
0
  6
CONTINUOUS
 62
     7
 10
90.9317363295
 20
149.2444136718
 30
0.0
  0
VERTEX
  5
378
  8
0
  6
CONTINUOUS
 62
     7
 10
90.9640117205
 20
149.1262769967
 30
0.0
  0
VERTEX
  5
379
  8
0
  6
CONTINUOUS
 62
     7
 10
91.0644962744
 20
149.0181454629
 30
0.0
  0
VERTEX
  5
37A
  8
0
  6
CONTINUOUS
 62
     7
 10
91.2242612173
 20
148.9296271127
 30
0.0
  0
VERTEX
  5
37B
  8
0
  6
CONTINUOUS
 62
     7
 10
91.4291104266
 20
148.8685871514
 30
0.0
  0
VERTEX
  5
37C
  8
0
  6
CONTINUOUS
 62
     7
 10
91.6608427912
 20
148.8404492191
 30
0.0
  0
SEQEND
  5
5D8
  8
0
  6
CONTINUOUS
 62
     7
  0
POLYLINE
  5
AF
  8
0
  6
CONTINUOUS
 62
     7
 66
     1
 10
0.0
 20
0.0
 30
0.0
  0
VERTEX
  5
37D
  8
0
  6
CONTINUOUS
 62
     7
 10
92.5126845948
 20
149.1522773506
 30
0.0
  0
VERTEX
  5
37E
  8
0
  6
CONTINUOUS
 62
     7
 10
92.4571686323
 20
149.2342250391
 30
0.0
  0
VERTEX
  5
37F
  8
0
  6
CONTINUOUS
 62
     7
 10
92.3255741932
 20
149.3336605807
 30
0.0
  0
VERTEX
  5
380
  8
0
  6
CONTINUOUS
 62
     7
 10
92.1412078602
 20
149.4092843787
 30
0.0
  0
VERTEX
  5
381
  8
0
  6
CONTINUOUS
 62
     7
 10
91.9204513255
 20
149.4543770486
 30
0.0
  0
VERTEX
  5
382
  8
0
  6
CONTINUOUS
 62
     7
 10
91.6829198341
 20
149.4649317379
 30
0.0
  0
VERTEX
  5
383
  8
0
  6
CONTINUOUS
 62
     7
 10
91.449719124
 20
149.4400107297
 30
0.0
  0
VERTEX
  5
384
  8
0
  6
CONTINUOUS
 62
     7
 10
91.2415700417
 20
149.3818282803
 30
0.0
  0
VERTEX
  5
385
  8
0
  6
CONTINUOUS
 62
     7
 10
91.0769675096
 20
149.2955542539
 30
0.0
  0
VERTEX
  5
386
  8
0
  6
CONTINUOUS
 62
     7
 10
90.970537294
 20
149.1888544408
 30
0.0
  0
VERTEX
  5
387
  8
0
  6
CONTINUOUS
 62
     7
 10
90.95063462
 20
149.1522773536
 30
0.0
  0
SEQEND
  5
5D7
  8
0
  6
CONTINUOUS
 62
     7
  0
POLYLINE
  5
B0
  8
0
  6
CONTINUOUS
 62
     7
 66
     1
 10
0.0
 20
0.0
 30
0.0
  0
VERTEX
  5
388
  8
0
  6
CONTINUOUS
 62
     7
 10
119.930808524
 20
216.9638569898
 30
0.0
  0
VERTEX
  5
389
  8
0
  6
CONTINUOUS
 62
     7
 10
120.2215548402
 20
217.0024124198
 30
0.0
  0
VERTEX
  5
38A
  8
0
  6
CONTINUOUS
 62
     7
 10
120.4839915037
 20
217.0759095805
 30
0.0
  0
VERTEX
  5
38B
  8
0
  6
CONTINUOUS
 62
     7
 10
120.7016289878
 20
217.1797311684
 30
0.0
  0
VERTEX
  5
38C
  8
0
  6
CONTINUOUS
 62
     7
 10
120.8607863974
 20
217.3073520545
 30
0.0
  0
VERTEX
  5
38D
  8
0
  6
CONTINUOUS
 62
     7
 10
120.9514716214
 20
217.4507542416
 30
0.0
  0
VERTEX
  5
38E
  8
0
  6
CONTINUOUS
 62
     7
 10
120.9679801528
 20
217.6009275105
 30
0.0
  0
VERTEX
  5
38F
  8
0
  6
CONTINUOUS
 62
     7
 10
120.9092770761
 20
217.7484356594
 30
0.0
  0
VERTEX
  5
390
  8
0
  6
CONTINUOUS
 62
     7
 10
120.7790512934
 20
217.8840102918
 30
0.0
  0
VERTEX
  5
391
  8
0
  6
CONTINUOUS
 62
     7
 10
120.585484859
 20
217.9991320493
 30
0.0
  0
VERTEX
  5
392
  8
0
  6
CONTINUOUS
 62
     7
 10
120.340739177
 20
218.086567964
 30
0.0
  0
VERTEX
  5
393
  8
0
  6
CONTINUOUS
 62
     7
 10
120.0601942806
 20
218.1408246263
 30
0.0
  0
VERTEX
  5
394
  8
0
  6
CONTINUOUS
 62
     7
 10
119.7614768993
 20
218.1584922045
 30
0.0
  0
VERTEX
  5
395
  8
0
  6
CONTINUOUS
 62
     7
 10
119.4633569565
 20
218.1384610084
 30
0.0
  0
VERTEX
  5
396
  8
0
  6
CONTINUOUS
 62
     7
 10
119.1845677599
 20
218.0819895599
 30
0.0
  0
VERTEX
  5
397
  8
0
  6
CONTINUOUS
 62
     7
 10
118.942623805
 20
217.9926257194
 30
0.0
  0
VERTEX
  5
398
  8
0
  6
CONTINUOUS
 62
     7
 10
118.7527278292
 20
217.8759849538
 30
0.0
  0
VERTEX
  5
399
  8
0
  6
CONTINUOUS
 62
     7
 10
118.6268132263
 20
217.7393964772
 30
0.0
  0
VERTEX
  5
39A
  8
0
  6
CONTINUOUS
 62
     7
 10
118.5727903658
 20
217.5914413514
 30
0.0
  0
VERTEX
  5
39B
  8
0
  6
CONTINUOUS
 62
     7
 10
118.5940560161
 20
217.4414177023
 30
0.0
  0
VERTEX
  5
39C
  8
0
  6
CONTINUOUS
 62
     7
 10
118.6892716192
 20
217.2987519195
 30
0.0
  0
VERTEX
  5
39D
  8
0
  6
CONTINUOUS
 62
     7
 10
118.8524543179
 20
217.1724072241
 30
0.0
  0
VERTEX
  5
39E
  8
0
  6
CONTINUOUS
 62
     7
 10
119.0733519701
 20
217.0703234581
 30
0.0
  0
VERTEX
  5
39F
  8
0
  6
CONTINUOUS
 62
     7
 10
119.338083072
 20
216.9989135597
 30
0.0
  0
VERTEX
  5
3A0
  8
0
  6
CONTINUOUS
 62
     7
 10
119.6300163883
 20
216.9626653684
 30
0.0
  0
VERTEX
  5
3A1
  8
0
  6
CONTINUOUS
 62
     7
 10
119.930808524
 20
216.9638569898
 30
0.0
  0
SEQEND
  5
5D6
  8
0
  6
CONTINUOUS
 62
     7
  0
ARC
  5
B1
  8
0
  6
CONTINUOUS
 62
     7
 10
121.0343563385
 20
217.2165955972
 30
0.0
 40
0.3400765311188911
 50
15.5165247781
 51
85.666228042
  0
ARC
  5
B2
  8
0
  6
CONTINUOUS
 62
     7
 10
120.9298382055
 20
217.2764258731
 30
0.0
 40
0.4333207880956395
 50
4.1217946614
 51
25.9653908891
  0
ARC
  5
B3
  8
0
  6
CONTINUOUS
 62
     7
 10
120.9856499614
 20
217.367762327
 30
0.0
 40
0.347967117532227
 50
16.4236957939
 51
84.7590495387
  0
POLYLINE
  5
B4
  8
0
  6
CONTINUOUS
 62
     7
 66
     1
 10
0.0
 20
0.0
 30
0.0
  0
VERTEX
  5
3A2
  8
0
  6
CONTINUOUS
 62
     7
 10
121.0174347867
 20
217.7142747218
 30
0.0
  0
VERTEX
  5
3A3
  8
0
  6
CONTINUOUS
 62
     7
 10
121.0387447569
 20
217.6368455347
 30
0.0
  0
VERTEX
  5
3A4
  8
0
  6
CONTINUOUS
 62
     7
 10
121.0600547271
 20
217.5556997698
 30
0.0
  0
SEQEND
  5
5D5
  8
0
  6
CONTINUOUS
 62
     7
  0
ARC
  5
B5
  8
0
  6
CONTINUOUS
 62
     7
 10
120.3908437394
 20
216.6351100051
 30
0.0
 40
0.5517800280075762
 50
10.6810320318
 51
57.0657822376
  0
ARC
  5
B6
  8
0
  6
CONTINUOUS
 62
     7
 10
120.3684521872
 20
217.8107752957
 30
0.0
 40
1.212835001475192
 50
297.7445535446
 51
308.7251875772
  0
ARC
  5
B7
  8
0
  6
CONTINUOUS
 62
     7
 10
120.5850482181
 20
216.7623672796
 30
0.0
 40
0.5516866318191164
 50
10.6765754631
 51
57.0695984393
  0
LINE
  5
B8
  8
0
  6
CONTINUOUS
 62
     7
 10
120.8849560398
 20
217.2254152665
 30
0.0
 11
120.6908331791
 21
217.0982164026
 31
0.0
  0
ARC
  5
B9
  8
0
  6
CONTINUOUS
 62
     7
 10
116.9757615508
 20
216.4219972334
 30
0.0
 40
2.848312509023903
 50
1.2846653945
 51
9.768570113
  0
ARC
  5
BA
  8
0
  6
CONTINUOUS
 62
     7
 10
119.7734763288
 20
219.5989100391
 30
0.0
 40
3.113453929203947
 50
270.9179961133
 51
276.7700960332
  0
ARC
  5
BB
  8
0
  6
CONTINUOUS
 62
     7
 10
117.4155818273
 20
216.4551591804
 30
0.0
 40
2.725422439807016
 50
1.0933844598
 51
9.9605691902
  0
POLYLINE
  5
BC
  8
0
  6
CONTINUOUS
 62
     7
 66
     1
 10
0.0
 20
0.0
 30
0.0
  0
VERTEX
  5
3A5
  8
0
  6
CONTINUOUS
 62
     7
 10
120.0999240401
 20
216.9265765747
 30
0.0
  0
VERTEX
  5
3A6
  8
0
  6
CONTINUOUS
 62
     7
 10
119.9413503786
 20
216.9177802511
 30
0.0
  0
VERTEX
  5
3A7
  8
0
  6
CONTINUOUS
 62
     7
 10
119.7827767171
 20
216.9052673496
 30
0.0
  0
SEQEND
  5
5D4
  8
0
  6
CONTINUOUS
 62
     7
  0
ARC
  5
BD
  8
0
  6
CONTINUOUS
 62
     7
 10
119.3754926427
 20
216.6103547142
 30
0.0
 40
0.69834402944839
 50
136.6338725063
 51
172.5962938261
  0
ARC
  5
BE
  8
0
  6
CONTINUOUS
 62
     7
 10
119.5062570475
 20
218.4762339575
 30
0.0
 40
1.957444348113141
 50
245.1280060265
 51
253.104330133
  0
ARC
  5
BF
  8
0
  6
CONTINUOUS
 62
     7
 10
119.6166804825
 20
216.5195598608
 30
0.0
 40
0.6844549265188224
 50
136.2561166124
 51
172.97404972
  0
LINE
  5
C0
  8
0
  6
CONTINUOUS
 62
     7
 10
119.1222043846
 20
216.9928165935
 30
0.0
 11
118.8678099827
 21
217.0898781236
 31
0.0
  0
ARC
  5
C1
  8
0
  6
CONTINUOUS
 62
     7
 10
118.5698110612
 20
217.1496745929
 30
0.0
 40
0.4039127646373989
 50
102.569533074
 51
164.8558114849
  0
ARC
  5
C2
  8
0
  6
CONTINUOUS
 62
     7
 10
118.6121274754
 20
217.2863437068
 30
0.0
 40
0.4333227528972556
 50
184.1219824441
 51
205.9655883637
  0
ARC
  5
C3
  8
0
  6
CONTINUOUS
 62
     7
 10
118.6194014468
 20
216.9838087157
 30
0.0
 40
0.4125788651686753
 50
103.2940075118
 51
164.1313370472
  0
POLYLINE
  5
C4
  8
0
  6
CONTINUOUS
 62
     7
 66
     1
 10
0.0
 20
0.0
 30
0.0
  0
VERTEX
  5
3A8
  8
0
  6
CONTINUOUS
 62
     7
 10
118.5245297816
 20
217.3853316753
 30
0.0
  0
VERTEX
  5
3A9
  8
0
  6
CONTINUOUS
 62
     7
 10
118.5032198114
 20
217.4664774402
 30
0.0
  0
VERTEX
  5
3AA
  8
0
  6
CONTINUOUS
 62
     7
 10
118.4819098412
 20
217.5439066273
 30
0.0
  0
SEQEND
  5
5D3
  8
0
  6
CONTINUOUS
 62
     7
  0
ARC
  5
C5
  8
0
  6
CONTINUOUS
 62
     7
 10
118.8112888077
 20
217.8128322965
 30
0.0
 40
0.1927211373312366
 50
78.0688022138
 51
157.9599903983
  0
ARC
  5
C6
  8
0
  6
CONTINUOUS
 62
     7
 10
118.6183016054
 20
217.7009776981
 30
0.0
 40
0.1774873033501978
 50
77.4029428504
 51
134.3338280126
  0
LINE
  5
C7
  8
0
  6
CONTINUOUS
 62
     7
 10
118.6570103644
 20
217.8741925209
 30
0.0
 11
118.8511313892
 21
218.0013899945
 31
0.0
  0
POLYLINE
  5
C8
  8
0
  6
CONTINUOUS
 62
     7
 66
     1
 10
0.0
 20
0.0
 30
0.0
  0
VERTEX
  5
3AB
  8
0
  6
CONTINUOUS
 62
     7
 10
119.7591904321
 20
218.1943397926
 30
0.0
  0
VERTEX
  5
3AC
  8
0
  6
CONTINUOUS
 62
     7
 10
119.75200162
 20
218.2070026851
 30
0.0
  0
VERTEX
  5
3AD
  8
0
  6
CONTINUOUS
 62
     7
 10
119.7450486761
 20
218.2062498881
 30
0.0
  0
SEQEND
  5
5D2
  8
0
  6
CONTINUOUS
 62
     7
  0
POLYLINE
  5
C9
  8
0
  6
CONTINUOUS
 62
     7
 66
     1
 10
0.0
 20
0.0
 30
0.0
  0
VERTEX
  5
3AE
  8
0
  6
CONTINUOUS
 62
     7
 10
119.4271165714
 20
218.1876013464
 30
0.0
  0
VERTEX
  5
3AF
  8
0
  6
CONTINUOUS
 62
     7
 10
119.4408813316
 20
218.1755454278
 30
0.0
  0
VERTEX
  5
3B0
  8
0
  6
CONTINUOUS
 62
     7
 10
119.4420405281
 20
218.1730298224
 30
0.0
  0
SEQEND
  5
5D1
  8
0
  6
CONTINUOUS
 62
     7
  0
POLYLINE
  5
CA
  8
0
  6
CONTINUOUS
 62
     7
 66
     1
 10
0.0
 20
0.0
 30
0.0
  0
VERTEX
  5
3B1
  8
0
  6
CONTINUOUS
 62
     7
 10
119.4420405281
 20
218.1730298224
 30
0.0
  0
VERTEX
  5
3B2
  8
0
  6
CONTINUOUS
 62
     7
 10
119.6006141897
 20
218.1855427239
 30
0.0
  0
VERTEX
  5
3B3
  8
0
  6
CONTINUOUS
 62
     7
 10
119.7591904321
 20
218.1943397926
 30
0.0
  0
SEQEND
  5
5D0
  8
0
  6
CONTINUOUS
 62
     7
  0
POLYLINE
  5
CB
  8
0
  6
CONTINUOUS
 62
     7
 66
     1
 10
0.0
 20
0.0
 30
0.0
  0
VERTEX
  5
3B4
  8
0
  6
CONTINUOUS
 62
     7
 10
120.6741538405
 20
218.0097289187
 30
0.0
  0
VERTEX
  5
3B5
  8
0
  6
CONTINUOUS
 62
     7
 10
120.7500335692
 20
218.0147798616
 30
0.0
  0
VERTEX
  5
3B6
  8
0
  6
CONTINUOUS
 62
     7
 10
120.7685366687
 20
218.0033140554
 30
0.0
  0
SEQEND
  5
5CF
  8
0
  6
CONTINUOUS
 62
     7
  0
POLYLINE
  5
CC
  8
0
  6
CONTINUOUS
 62
     7
 66
     1
 10
0.0
 20
0.0
 30
0.0
  0
VERTEX
  5
3B7
  8
0
  6
CONTINUOUS
 62
     7
 10
120.5754101151
 20
218.0474040952
 30
0.0
  0
VERTEX
  5
3B8
  8
0
  6
CONTINUOUS
 62
     7
 10
120.5751216115
 20
218.0482714638
 30
0.0
  0
VERTEX
  5
3B9
  8
0
  6
CONTINUOUS
 62
     7
 10
120.5222532525
 20
218.1017508873
 30
0.0
  0
VERTEX
  5
3BA
  8
0
  6
CONTINUOUS
 62
     7
 10
120.4517884395
 20
218.1140766185
 30
0.0
  0
VERTEX
  5
3BB
  8
0
  6
CONTINUOUS
 62
     7
 10
120.4197601837
 20
218.1067898037
 30
0.0
  0
SEQEND
  5
5CE
  8
0
  6
CONTINUOUS
 62
     7
  0
LINE
  5
CD
  8
0
  6
CONTINUOUS
 62
     7
 10
120.4197601837
 20
218.1067898037
 30
0.0
 11
120.6741538405
 21
218.0097289187
 31
0.0
  0
LINE
  5
CE
  8
0
  6
CONTINUOUS
 62
     7
 10
120.1147964483
 20
216.7067456005
 30
0.0
 11
120.0999240401
 21
216.7620818723
 31
0.0
  0
LINE
  5
CF
  8
0
  6
CONTINUOUS
 62
     7
 10
120.0999240401
 20
216.7620818723
 30
0.0
 11
120.0999240401
 21
216.9265765747
 31
0.0
  0
LINE
  5
D0
  8
0
  6
CONTINUOUS
 62
     7
 10
120.1405080277
 20
216.507165693
 30
0.0
 11
120.1147964483
 21
216.6028207928
 31
0.0
  0
LINE
  5
D1
  8
0
  6
CONTINUOUS
 62
     7
 10
120.1147964483
 20
216.7067456005
 30
0.0
 11
120.1147964483
 21
216.6028207928
 31
0.0
  0
POLYLINE
  5
D2
  8
0
  6
CONTINUOUS
 62
     7
 66
     1
 10
0.0
 20
0.0
 30
0.0
  0
VERTEX
  5
3BC
  8
0
  6
CONTINUOUS
 62
     7
 10
119.9840827044
 20
214.8603843575
 30
0.0
  0
VERTEX
  5
3BD
  8
0
  6
CONTINUOUS
 62
     7
 10
120.3199900592
 20
214.9018266135
 30
0.0
  0
VERTEX
  5
3BE
  8
0
  6
CONTINUOUS
 62
     7
 10
120.6302239023
 20
214.9784042082
 30
0.0
  0
VERTEX
  5
3BF
  8
0
  6
CONTINUOUS
 62
     7
 10
120.900282714
 20
215.0865378685
 30
0.0
  0
VERTEX
  5
3C0
  8
0
  6
CONTINUOUS
 62
     7
 10
121.1175363943
 20
215.2211706754
 30
0.0
  0
VERTEX
  5
3C1
  8
0
  6
CONTINUOUS
 62
     7
 10
121.2718244561
 20
215.3760069925
 30
0.0
  0
VERTEX
  5
3C2
  8
0
  6
CONTINUOUS
 62
     7
 10
121.3559376466
 20
215.5438076453
 30
0.0
  0
VERTEX
  5
3C3
  8
0
  6
CONTINUOUS
 62
     7
 10
121.3709827411
 20
215.6532568156
 30
0.0
  0
SEQEND
  5
5CD
  8
0
  6
CONTINUOUS
 62
     7
  0
POLYLINE
  5
D3
  8
0
  6
CONTINUOUS
 62
     7
 66
     1
 10
0.0
 20
0.0
 30
0.0
  0
VERTEX
  5
3C4
  8
0
  6
CONTINUOUS
 62
     7
 10
118.1709818271
 20
215.6532567032
 30
0.0
  0
VERTEX
  5
3C5
  8
0
  6
CONTINUOUS
 62
     7
 10
118.1991005352
 20
215.5039380894
 30
0.0
  0
VERTEX
  5
3C6
  8
0
  6
CONTINUOUS
 62
     7
 10
118.3000477328
 20
215.3384748905
 30
0.0
  0
VERTEX
  5
3C7
  8
0
  6
CONTINUOUS
 62
     7
 10
118.4697758569
 20
215.1877309306
 30
0.0
  0
VERTEX
  5
3C8
  8
0
  6
CONTINUOUS
 62
     7
 10
118.7003462527
 20
215.0587541401
 30
0.0
  0
VERTEX
  5
3C9
  8
0
  6
CONTINUOUS
 62
     7
 10
118.9809789071
 20
214.9575752066
 30
0.0
  0
VERTEX
  5
3CA
  8
0
  6
CONTINUOUS
 62
     7
 10
119.2985495552
 20
214.8889260799
 30
0.0
  0
VERTEX
  5
3CB
  8
0
  6
CONTINUOUS
 62
     7
 10
119.6382126939
 20
214.8560163312
 30
0.0
  0
VERTEX
  5
3CC
  8
0
  6
CONTINUOUS
 62
     7
 10
119.9840827044
 20
214.8603843575
 30
0.0
  0
SEQEND
  5
5CC
  8
0
  6
CONTINUOUS
 62
     7
  0
LINE
  5
D4
  8
0
  6
CONTINUOUS
 62
     7
 10
120.973728553
 20
217.0270490439
 30
0.0
 11
120.973728553
 21
216.9231242362
 31
0.0
  0
ARC
  5
D5
  8
0
  6
CONTINUOUS
 62
     7
 10
120.3724022498
 20
217.6428461765
 30
0.0
 40
0.9378661920953114
 50
303.8481162759
 51
309.8786919252
  0
ARC
  5
D6
  8
0
  6
CONTINUOUS
 62
     7
 10
119.773081233
 20
219.3177964786
 30
0.0
 40
2.736395852665889
 50
270.5144351247
 51
277.1737015031
  0
ARC
  5
D7
  8
0
  6
CONTINUOUS
 62
     7
 10
119.5023410901
 20
218.2456179804
 30
0.0
 40
1.627825827427265
 50
244.4424438178
 51
250.4688285416
  0
LINE
  5
D8
  8
0
  6
CONTINUOUS
 62
     7
 10
118.8000684323
 20
216.7770710664
 30
0.0
 11
118.8000684323
 21
216.880995874
 31
0.0
  0
LINE
  5
D9
  8
0
  6
CONTINUOUS
 62
     7
 10
118.3712360071
 20
217.3083160481
 30
0.0
 11
118.3712360071
 21
217.3719753482
 31
0.0
  0
LINE
  5
DA
  8
0
  6
CONTINUOUS
 62
     7
 10
119.1460302915
 20
217.5165191007
 30
0.0
 11
119.0517704458
 21
217.5101859868
 31
0.0
  0
LINE
  5
DB
  8
0
  6
CONTINUOUS
 62
     7
 10
118.90062206
 20
217.5000299369
 30
0.0
 11
118.7939687856
 21
217.4928635658
 31
0.0
  0
POLYLINE
  5
DC
  8
0
  6
CONTINUOUS
 62
     7
 66
     1
 10
0.0
 20
0.0
 30
0.0
  0
VERTEX
  5
3CD
  8
0
  6
CONTINUOUS
 62
     7
 10
118.90062206
 20
217.5000299369
 30
0.0
  0
VERTEX
  5
3CE
  8
0
  6
CONTINUOUS
 62
     7
 10
118.9397208788
 20
217.4174336287
 30
0.0
  0
VERTEX
  5
3CF
  8
0
  6
CONTINUOUS
 62
     7
 10
119.0104983989
 20
217.3402836628
 30
0.0
  0
VERTEX
  5
3D0
  8
0
  6
CONTINUOUS
 62
     7
 10
119.1101964667
 20
217.2715855782
 30
0.0
  0
VERTEX
  5
3D1
  8
0
  6
CONTINUOUS
 62
     7
 10
119.2349324303
 20
217.2140134166
 30
0.0
  0
VERTEX
  5
3D2
  8
0
  6
CONTINUOUS
 62
     7
 10
119.379850118
 20
217.1698087728
 30
0.0
  0
VERTEX
  5
3D3
  8
0
  6
CONTINUOUS
 62
     7
 10
119.5393072977
 20
217.1406929566
 30
0.0
  0
VERTEX
  5
3D4
  8
0
  6
CONTINUOUS
 62
     7
 10
119.7070958353
 20
217.1278014994
 30
0.0
  0
VERTEX
  5
3D5
  8
0
  6
CONTINUOUS
 62
     7
 10
119.8766787224
 20
217.1316338543
 30
0.0
  0
SEQEND
  5
5CB
  8
0
  6
CONTINUOUS
 62
     7
  0
POLYLINE
  5
DD
  8
0
  6
CONTINUOUS
 62
     7
 66
     1
 10
0.0
 20
0.0
 30
0.0
  0
VERTEX
  5
3D6
  8
0
  6
CONTINUOUS
 62
     7
 10
120.6312563982
 20
217.5585114266
 30
0.0
  0
VERTEX
  5
3D7
  8
0
  6
CONTINUOUS
 62
     7
 10
120.6294918153
 20
217.5309733952
 30
0.0
  0
VERTEX
  5
3D8
  8
0
  6
CONTINUOUS
 62
     7
 10
120.601960486
 20
217.447217921
 30
0.0
  0
VERTEX
  5
3D9
  8
0
  6
CONTINUOUS
 62
     7
 10
120.5420730139
 20
217.3677968026
 30
0.0
  0
VERTEX
  5
3DA
  8
0
  6
CONTINUOUS
 62
     7
 10
120.4521613819
 20
217.2958015819
 30
0.0
  0
VERTEX
  5
3DB
  8
0
  6
CONTINUOUS
 62
     7
 10
120.3357256573
 20
217.2340364064
 30
0.0
  0
VERTEX
  5
3DC
  8
0
  6
CONTINUOUS
 62
     7
 10
120.1972960075
 20
217.184905069
 30
0.0
  0
VERTEX
  5
3DD
  8
0
  6
CONTINUOUS
 62
     7
 10
120.0422704741
 20
217.1503220221
 30
0.0
  0
VERTEX
  5
3DE
  8
0
  6
CONTINUOUS
 62
     7
 10
119.8766787224
 20
217.1316338543
 30
0.0
  0
SEQEND
  5
5CA
  8
0
  6
CONTINUOUS
 62
     7
  0
LINE
  5
DE
  8
0
  6
CONTINUOUS
 62
     7
 10
120.6300178461
 20
217.6162322986
 30
0.0
 11
120.7302459092
 21
217.6229668385
 31
0.0
  0
LINE
  5
DF
  8
0
  6
CONTINUOUS
 62
     7
 10
120.3781844034
 20
217.5993113036
 30
0.0
 11
120.4848384227
 21
217.6064770295
 31
0.0
  0
LINE
  5
E0
  8
0
  6
CONTINUOUS
 62
     7
 10
120.4848384227
 20
217.6064770295
 30
0.0
 11
120.4904225435
 21
217.5758322278
 31
0.0
  0
LINE
  5
E1
  8
0
  6
CONTINUOUS
 62
     7
 10
119.337726163
 20
217.8022641101
 30
0.0
 11
119.3461846944
 21
217.7707929654
 31
0.0
  0
LINE
  5
E2
  8
0
  6
CONTINUOUS
 62
     7
 10
119.5414280862
 20
217.7839126668
 30
0.0
 11
119.3461846944
 21
217.7707929654
 31
0.0
  0
LINE
  5
E3
  8
0
  6
CONTINUOUS
 62
     7
 10
120.1309678993
 20
217.8235249648
 30
0.0
 11
120.1398546292
 21
217.7904610941
 31
0.0
  0
LINE
  5
E4
  8
0
  6
CONTINUOUS
 62
     7
 10
120.2108016516
 20
217.7952280098
 30
0.0
 11
120.1398546292
 21
217.7904610941
 31
0.0
  0
LINE
  5
E5
  8
0
  6
CONTINUOUS
 62
     7
 10
120.2680426631
 20
217.8327352455
 30
0.0
 11
120.2108024173
 21
217.8288890698
 31
0.0
  0
LINE
  5
E6
  8
0
  6
CONTINUOUS
 62
     7
 10
120.0648427388
 20
217.8190823449
 30
0.0
 11
120.0563842074
 21
217.8505534896
 31
0.0
  0
LINE
  5
E7
  8
0
  6
CONTINUOUS
 62
     7
 10
120.1309678993
 20
217.8235249648
 30
0.0
 11
120.0648427388
 21
217.8190823449
 31
0.0
  0
LINE
  5
E8
  8
0
  6
CONTINUOUS
 62
     7
 10
120.0999240401
 20
216.7620818723
 30
0.0
 11
119.7827767171
 21
216.7407726471
 31
0.0
  0
LINE
  5
E9
  8
0
  6
CONTINUOUS
 62
     7
 10
118.8000684323
 20
216.7770710664
 30
0.0
 11
118.6829708267
 21
216.700343146
 31
0.0
  0
LINE
  5
EA
  8
0
  6
CONTINUOUS
 62
     7
 10
118.8678099827
 20
216.9253834211
 30
0.0
 11
118.8678099827
 21
217.0898781236
 31
0.0
  0
LINE
  5
EB
  8
0
  6
CONTINUOUS
 62
     7
 10
118.8678099827
 20
216.9253834211
 30
0.0
 11
118.8000684323
 21
216.880995874
 31
0.0
  0
LINE
  5
EC
  8
0
  6
CONTINUOUS
 62
     7
 10
119.0271912179
 20
216.8645730398
 30
0.0
 11
118.8678099827
 21
216.9253834211
 31
0.0
  0
LINE
  5
ED
  8
0
  6
CONTINUOUS
 62
     7
 10
120.3781844034
 20
217.6339529061
 30
0.0
 11
120.4848384227
 21
217.641118632
 31
0.0
  0
LINE
  5
EE
  8
0
  6
CONTINUOUS
 62
     7
 10
120.5305609119
 20
217.7337964226
 30
0.0
 11
120.3781844034
 21
217.6339529061
 31
0.0
  0
LINE
  5
EF
  8
0
  6
CONTINUOUS
 62
     7
 10
120.7302459092
 20
217.6576084411
 30
0.0
 11
120.5305609119
 21
217.7337964226
 31
0.0
  0
LINE
  5
F0
  8
0
  6
CONTINUOUS
 62
     7
 10
120.6235926349
 20
217.6504420699
 30
0.0
 11
120.7302459092
 21
217.6576084411
 31
0.0
  0
POLYLINE
  5
F1
  8
0
  6
CONTINUOUS
 62
     7
 66
     1
 10
0.0
 20
0.0
 30
0.0
  0
VERTEX
  5
3DF
  8
0
  6
CONTINUOUS
 62
     7
 10
120.6235926349
 20
217.6504420699
 30
0.0
  0
VERTEX
  5
3E0
  8
0
  6
CONTINUOUS
 62
     7
 10
120.6294918153
 20
217.5656149977
 30
0.0
  0
VERTEX
  5
3E1
  8
0
  6
CONTINUOUS
 62
     7
 10
120.601960486
 20
217.4818595235
 30
0.0
  0
VERTEX
  5
3E2
  8
0
  6
CONTINUOUS
 62
     7
 10
120.5420730139
 20
217.4024384051
 30
0.0
  0
VERTEX
  5
3E3
  8
0
  6
CONTINUOUS
 62
     7
 10
120.4521613819
 20
217.3304431844
 30
0.0
  0
VERTEX
  5
3E4
  8
0
  6
CONTINUOUS
 62
     7
 10
120.3357256573
 20
217.2686780089
 30
0.0
  0
VERTEX
  5
3E5
  8
0
  6
CONTINUOUS
 62
     7
 10
120.1972960075
 20
217.2195466715
 30
0.0
  0
VERTEX
  5
3E6
  8
0
  6
CONTINUOUS
 62
     7
 10
120.0422704741
 20
217.1849636247
 30
0.0
  0
VERTEX
  5
3E7
  8
0
  6
CONTINUOUS
 62
     7
 10
119.8766787224
 20
217.1662754568
 30
0.0
  0
SEQEND
  5
5C9
  8
0
  6
CONTINUOUS
 62
     7
  0
POLYLINE
  5
F2
  8
0
  6
CONTINUOUS
 62
     7
 66
     1
 10
0.0
 20
0.0
 30
0.0
  0
VERTEX
  5
3E8
  8
0
  6
CONTINUOUS
 62
     7
 10
118.90062206
 20
217.5346715394
 30
0.0
  0
VERTEX
  5
3E9
  8
0
  6
CONTINUOUS
 62
     7
 10
118.9397208788
 20
217.4520752313
 30
0.0
  0
VERTEX
  5
3EA
  8
0
  6
CONTINUOUS
 62
     7
 10
119.0104983989
 20
217.3749252653
 30
0.0
  0
VERTEX
  5
3EB
  8
0
  6
CONTINUOUS
 62
     7
 10
119.1101964667
 20
217.3062271807
 30
0.0
  0
VERTEX
  5
3EC
  8
0
  6
CONTINUOUS
 62
     7
 10
119.2349324303
 20
217.2486550191
 30
0.0
  0
VERTEX
  5
3ED
  8
0
  6
CONTINUOUS
 62
     7
 10
119.379850118
 20
217.2044503753
 30
0.0
  0
VERTEX
  5
3EE
  8
0
  6
CONTINUOUS
 62
     7
 10
119.5393072977
 20
217.1753345591
 30
0.0
  0
VERTEX
  5
3EF
  8
0
  6
CONTINUOUS
 62
     7
 10
119.7070958353
 20
217.162443102
 30
0.0
  0
VERTEX
  5
3F0
  8
0
  6
CONTINUOUS
 62
     7
 10
119.8766787224
 20
217.1662754568
 30
0.0
  0
SEQEND
  5
5C8
  8
0
  6
CONTINUOUS
 62
     7
  0
LINE
  5
F3
  8
0
  6
CONTINUOUS
 62
     7
 10
118.90062206
 20
217.5346715394
 30
0.0
 11
118.7939687856
 21
217.5275051683
 31
0.0
  0
LINE
  5
F4
  8
0
  6
CONTINUOUS
 62
     7
 10
118.7939687856
 20
217.5275051683
 30
0.0
 11
118.9463419681
 21
217.6273485849
 31
0.0
  0
LINE
  5
F5
  8
0
  6
CONTINUOUS
 62
     7
 10
118.9463419681
 20
217.6273485849
 30
0.0
 11
119.1460302915
 21
217.5511607032
 31
0.0
  0
LINE
  5
F6
  8
0
  6
CONTINUOUS
 62
     7
 10
119.1460302915
 20
217.5511607032
 30
0.0
 11
119.0393762721
 21
217.5439949773
 31
0.0
  0
POLYLINE
  5
F7
  8
0
  6
CONTINUOUS
 62
     7
 66
     1
 10
0.0
 20
0.0
 30
0.0
  0
VERTEX
  5
3F1
  8
0
  6
CONTINUOUS
 62
     7
 10
119.0393762721
 20
217.5439949773
 30
0.0
  0
VERTEX
  5
3F2
  8
0
  6
CONTINUOUS
 62
     7
 10
119.0721699665
 20
217.4747537024
 30
0.0
  0
VERTEX
  5
3F3
  8
0
  6
CONTINUOUS
 62
     7
 10
119.1315529271
 20
217.4100883583
 30
0.0
  0
VERTEX
  5
3F4
  8
0
  6
CONTINUOUS
 62
     7
 10
119.2152060041
 20
217.352522968
 30
0.0
  0
VERTEX
  5
3F5
  8
0
  6
CONTINUOUS
 62
     7
 10
119.3198606547
 20
217.3043040473
 30
0.0
  0
VERTEX
  5
3F6
  8
0
  6
CONTINUOUS
 62
     7
 10
119.4414346219
 20
217.2673158854
 30
0.0
  0
VERTEX
  5
3F7
  8
0
  6
CONTINUOUS
 62
     7
 10
119.5751797738
 20
217.2430001973
 30
0.0
  0
VERTEX
  5
3F8
  8
0
  6
CONTINUOUS
 62
     7
 10
119.7158754932
 20
217.232307852
 30
0.0
  0
VERTEX
  5
3F9
  8
0
  6
CONTINUOUS
 62
     7
 10
119.8580327378
 20
217.2356562614
 30
0.0
  0
SEQEND
  5
5C7
  8
0
  6
CONTINUOUS
 62
     7
  0
POLYLINE
  5
F8
  8
0
  6
CONTINUOUS
 62
     7
 66
     1
 10
0.0
 20
0.0
 30
0.0
  0
VERTEX
  5
3FA
  8
0
  6
CONTINUOUS
 62
     7
 10
120.4848384227
 20
217.641118632
 30
0.0
  0
VERTEX
  5
3FB
  8
0
  6
CONTINUOUS
 62
     7
 10
120.4897682222
 20
217.5700056715
 30
0.0
  0
VERTEX
  5
3FC
  8
0
  6
CONTINUOUS
 62
     7
 10
120.4666345711
 20
217.4997955887
 30
0.0
  0
VERTEX
  5
3FD
  8
0
  6
CONTINUOUS
 62
     7
 10
120.4163460648
 20
217.4332301117
 30
0.0
  0
VERTEX
  5
3FE
  8
0
  6
CONTINUOUS
 62
     7
 10
120.34086129
 20
217.3729075694
 30
0.0
  0
VERTEX
  5
3FF
  8
0
  6
CONTINUOUS
 62
     7
 10
120.243131302
 20
217.3211836955
 30
0.0
  0
VERTEX
  5
400
  8
0
  6
CONTINUOUS
 62
     7
 10
120.126968877
 20
217.2800762439
 30
0.0
  0
VERTEX
  5
401
  8
0
  6
CONTINUOUS
 62
     7
 10
119.9969098066
 20
217.2511913947
 30
0.0
  0
VERTEX
  5
402
  8
0
  6
CONTINUOUS
 62
     7
 10
119.8580327378
 20
217.2356562614
 30
0.0
  0
SEQEND
  5
5C6
  8
0
  6
CONTINUOUS
 62
     7
  0
LINE
  5
F9
  8
0
  6
CONTINUOUS
 62
     7
 10
118.90062206
 20
217.5346715394
 30
0.0
 11
118.90062206
 21
217.5000299369
 31
0.0
  0
LINE
  5
FA
  8
0
  6
CONTINUOUS
 62
     7
 10
119.8766787224
 20
217.1662754568
 30
0.0
 11
119.8766787224
 21
217.1316338543
 31
0.0
  0
LINE
  5
FB
  8
0
  6
CONTINUOUS
 62
     7
 10
121.1271843938
 20
216.8645754334
 30
0.0
 11
120.973728553
 21
216.9231242362
 31
0.0
  0
LINE
  5
FC
  8
0
  6
CONTINUOUS
 62
     7
 10
120.8849560398
 20
217.0609205641
 30
0.0
 11
120.8849560398
 21
217.2254152665
 31
0.0
  0
LINE
  5
FD
  8
0
  6
CONTINUOUS
 62
     7
 10
120.8849560398
 20
217.0609205641
 30
0.0
 11
120.7985974572
 21
217.0043346928
 31
0.0
  0
LINE
  5
FE
  8
0
  6
CONTINUOUS
 62
     7
 10
120.973728553
 20
217.0270490439
 30
0.0
 11
120.8849560398
 21
217.0609205641
 31
0.0
  0
LINE
  5
FF
  8
0
  6
CONTINUOUS
 62
     7
 10
120.4848384227
 20
217.641118632
 30
0.0
 11
120.4848384227
 21
217.6064770295
 31
0.0
  0
LINE
  5
100
  8
0
  6
CONTINUOUS
 62
     7
 10
118.4819098412
 20
217.3794119249
 30
0.0
 11
118.4819098412
 21
217.5439066273
 31
0.0
  0
LINE
  5
101
  8
0
  6
CONTINUOUS
 62
     7
 10
118.3215773062
 20
217.2647136258
 30
0.0
 11
118.1799256078
 21
217.2551964139
 31
0.0
  0
LINE
  5
102
  8
0
  6
CONTINUOUS
 62
     7
 10
118.7939687856
 20
217.5275051683
 30
0.0
 11
118.7939687856
 21
217.4928635658
 31
0.0
  0
LINE
  5
103
  8
0
  6
CONTINUOUS
 62
     7
 10
119.1460302915
 20
217.5511607032
 30
0.0
 11
119.1460302915
 21
217.5165191007
 31
0.0
  0
LINE
  5
104
  8
0
  6
CONTINUOUS
 62
     7
 10
118.4819098412
 20
217.3794119249
 30
0.0
 11
118.3712360071
 21
217.3719753482
 31
0.0
  0
LINE
  5
105
  8
0
  6
CONTINUOUS
 62
     7
 10
120.3781844034
 20
217.6339529061
 30
0.0
 11
120.3781844034
 21
217.5993113036
 31
0.0
  0
LINE
  5
106
  8
0
  6
CONTINUOUS
 62
     7
 10
120.7302459092
 20
217.6576084411
 30
0.0
 11
120.7302459092
 21
217.6229668385
 31
0.0
  0
LINE
  5
107
  8
0
  6
CONTINUOUS
 62
     7
 10
121.3194190201
 20
217.466145915
 30
0.0
 11
121.261255554
 21
217.4622379845
 31
0.0
  0
LINE
  5
108
  8
0
  6
CONTINUOUS
 62
     7
 10
121.1281086208
 20
217.557216596
 30
0.0
 11
121.0721266708
 21
217.5534549156
 31
0.0
  0
LINE
  5
109
  8
0
  6
CONTINUOUS
 62
     7
 10
119.3461846944
 20
217.805434568
 30
0.0
 11
119.3461846944
 21
217.7707929654
 31
0.0
  0
LINE
  5
10A
  8
0
  6
CONTINUOUS
 62
     7
 10
119.5414280862
 20
217.8185542694
 30
0.0
 11
119.3461846944
 21
217.805434568
 31
0.0
  0
LINE
  5
10B
  8
0
  6
CONTINUOUS
 62
     7
 10
119.5414280862
 20
217.8185542694
 30
0.0
 11
119.5414280862
 21
217.7839126668
 31
0.0
  0
LINE
  5
10C
  8
0
  6
CONTINUOUS
 62
     7
 10
119.337726163
 20
217.8369057127
 30
0.0
 11
119.3461846944
 21
217.805434568
 31
0.0
  0
LINE
  5
10D
  8
0
  6
CONTINUOUS
 62
     7
 10
119.5329695548
 20
217.8500254141
 30
0.0
 11
119.337726163
 21
217.8369057127
 31
0.0
  0
LINE
  5
10E
  8
0
  6
CONTINUOUS
 62
     7
 10
119.5329695548
 20
217.8500254141
 30
0.0
 11
119.5414280862
 21
217.8185542694
 31
0.0
  0
LINE
  5
10F
  8
0
  6
CONTINUOUS
 62
     7
 10
119.337726163
 20
217.8369057127
 30
0.0
 11
119.337726163
 21
217.8022641101
 31
0.0
  0
LINE
  5
110
  8
0
  6
CONTINUOUS
 62
     7
 10
120.0648427388
 20
217.8537239474
 30
0.0
 11
120.0563842074
 21
217.8851950921
 31
0.0
  0
LINE
  5
111
  8
0
  6
CONTINUOUS
 62
     7
 10
120.1225093678
 20
217.8896377121
 30
0.0
 11
120.0563842074
 21
217.8851950921
 31
0.0
  0
LINE
  5
112
  8
0
  6
CONTINUOUS
 62
     7
 10
120.1136233829
 20
217.9227009375
 30
0.0
 11
120.1225093678
 21
217.8896377121
 31
0.0
  0
LINE
  5
113
  8
0
  6
CONTINUOUS
 62
     7
 10
120.1845729862
 20
217.9274685983
 30
0.0
 11
120.1136233829
 21
217.9227009375
 31
0.0
  0
LINE
  5
114
  8
0
  6
CONTINUOUS
 62
     7
 10
120.1845729862
 20
217.9274685983
 30
0.0
 11
120.1934563902
 21
217.8944046278
 31
0.0
  0
LINE
  5
115
  8
0
  6
CONTINUOUS
 62
     7
 10
120.2595841316
 20
217.8988479928
 30
0.0
 11
120.1934563902
 21
217.8944046278
 31
0.0
  0
LINE
  5
116
  8
0
  6
CONTINUOUS
 62
     7
 10
120.2680426631
 20
217.8673768481
 30
0.0
 11
120.2595841316
 21
217.8988479928
 31
0.0
  0
LINE
  5
117
  8
0
  6
CONTINUOUS
 62
     7
 10
120.2680426631
 20
217.8673768481
 30
0.0
 11
120.2019149216
 21
217.8629334831
 31
0.0
  0
LINE
  5
118
  8
0
  6
CONTINUOUS
 62
     7
 10
120.2019149216
 20
217.8629334831
 30
0.0
 11
120.2108016516
 21
217.8298696124
 31
0.0
  0
LINE
  5
119
  8
0
  6
CONTINUOUS
 62
     7
 10
120.2108016516
 20
217.8298696124
 30
0.0
 11
120.1398546292
 21
217.8251026966
 31
0.0
  0
LINE
  5
11A
  8
0
  6
CONTINUOUS
 62
     7
 10
120.1309678993
 20
217.8581665674
 30
0.0
 11
120.1398546292
 21
217.8251026966
 31
0.0
  0
LINE
  5
11B
  8
0
  6
CONTINUOUS
 62
     7
 10
120.1309678993
 20
217.8581665674
 30
0.0
 11
120.0648427388
 21
217.8537239474
 31
0.0
  0
LINE
  5
11C
  8
0
  6
CONTINUOUS
 62
     7
 10
120.1309678993
 20
217.8581665674
 30
0.0
 11
120.1309678993
 21
217.8235249648
 31
0.0
  0
LINE
  5
11D
  8
0
  6
CONTINUOUS
 62
     7
 10
120.1398546292
 20
217.8251026966
 30
0.0
 11
120.1398546292
 21
217.7904610941
 31
0.0
  0
LINE
  5
11E
  8
0
  6
CONTINUOUS
 62
     7
 10
120.2108016516
 20
217.8298696124
 30
0.0
 11
120.2108016516
 21
217.7952280098
 31
0.0
  0
LINE
  5
11F
  8
0
  6
CONTINUOUS
 62
     7
 10
120.0563842074
 20
217.8851950921
 30
0.0
 11
120.0563842074
 21
217.8505534896
 31
0.0
  0
LINE
  5
120
  8
0
  6
CONTINUOUS
 62
     7
 10
120.0648427388
 20
217.8537239474
 30
0.0
 11
120.0648427388
 21
217.8190823449
 31
0.0
  0
LINE
  5
121
  8
0
  6
CONTINUOUS
 62
     7
 10
120.2680426631
 20
217.8673768481
 30
0.0
 11
120.2680426631
 21
217.8327352455
 31
0.0
  0
LINE
  5
122
  8
0
  6
CONTINUOUS
 62
     7
 10
120.1136233829
 20
217.9227009375
 30
0.0
 11
120.1136233829
 21
217.8890400986
 31
0.0
  0
POLYLINE
  5
123
  8
0
  6
CONTINUOUS
 62
     7
 66
     1
 10
0.0
 20
0.0
 30
0.0
  0
VERTEX
  5
403
  8
0
  6
CONTINUOUS
 62
     7
 10
120.9709824406
 20
217.038897836
 30
0.0
  0
VERTEX
  5
404
  8
0
  6
CONTINUOUS
 62
     7
 10
120.9547891671
 20
216.940659254
 30
0.0
  0
VERTEX
  5
405
  8
0
  6
CONTINUOUS
 62
     7
 10
120.9345051051
 20
216.8920854729
 30
0.0
  0
SEQEND
  5
5C5
  8
0
  6
CONTINUOUS
 62
     7
  0
POLYLINE
  5
124
  8
0
  6
CONTINUOUS
 62
     7
 66
     1
 10
0.0
 20
0.0
 30
0.0
  0
VERTEX
  5
406
  8
0
  6
CONTINUOUS
 62
     7
 10
121.3709827411
 20
215.6532568156
 30
0.0
  0
VERTEX
  5
407
  8
0
  6
CONTINUOUS
 62
     7
 10
121.367158819
 20
215.5979889844
 30
0.0
  0
VERTEX
  5
408
  8
0
  6
CONTINUOUS
 62
     7
 10
121.3060802101
 20
215.4277158806
 30
0.0
  0
VERTEX
  5
409
  8
0
  6
CONTINUOUS
 62
     7
 10
121.1732217838
 20
215.2679882998
 30
0.0
  0
VERTEX
  5
40A
  8
0
  6
CONTINUOUS
 62
     7
 10
120.9747937794
 20
215.1262757981
 30
0.0
  0
VERTEX
  5
40B
  8
0
  6
CONTINUOUS
 62
     7
 10
120.7200795043
 20
215.0092045184
 30
0.0
  0
VERTEX
  5
40C
  8
0
  6
CONTINUOUS
 62
     7
 10
120.4209867342
 20
214.9222483145
 30
0.0
  0
VERTEX
  5
40D
  8
0
  6
CONTINUOUS
 62
     7
 10
120.0914995709
 20
214.8694732998
 30
0.0
  0
VERTEX
  5
40E
  8
0
  6
CONTINUOUS
 62
     7
 10
119.7470247415
 20
214.853346989
 30
0.0
  0
VERTEX
  5
40F
  8
0
  6
CONTINUOUS
 62
     7
 10
119.4036710548
 20
214.8746232105
 30
0.0
  0
VERTEX
  5
410
  8
0
  6
CONTINUOUS
 62
     7
 10
119.0774908048
 20
214.9323076557
 30
0.0
  0
VERTEX
  5
411
  8
0
  6
CONTINUOUS
 62
     7
 10
118.7837393164
 20
215.023703085
 30
0.0
  0
VERTEX
  5
412
  8
0
  6
CONTINUOUS
 62
     7
 10
118.536150027
 20
215.1445364465
 30
0.0
  0
VERTEX
  5
413
  8
0
  6
CONTINUOUS
 62
     7
 10
118.3463006184
 20
215.2891561547
 30
0.0
  0
VERTEX
  5
414
  8
0
  6
CONTINUOUS
 62
     7
 10
118.2230653812
 20
215.4508007205
 30
0.0
  0
VERTEX
  5
415
  8
0
  6
CONTINUOUS
 62
     7
 10
118.172211715
 20
215.6219124295
 30
0.0
  0
VERTEX
  5
416
  8
0
  6
CONTINUOUS
 62
     7
 10
118.1709818271
 20
215.6532567032
 30
0.0
  0
SEQEND
  5
5C4
  8
0
  6
CONTINUOUS
 62
     7
  0
POLYLINE
  5
125
  8
0
  6
CONTINUOUS
 62
     7
 66
     1
 10
0.0
 20
0.0
 30
0.0
  0
VERTEX
  5
417
  8
0
  6
CONTINUOUS
 62
     7
 10
121.3709827411
 20
215.3068459521
 30
0.0
  0
VERTEX
  5
418
  8
0
  6
CONTINUOUS
 62
     7
 10
121.367158819
 20
215.2515781208
 30
0.0
  0
VERTEX
  5
419
  8
0
  6
CONTINUOUS
 62
     7
 10
121.3060802101
 20
215.0813050171
 30
0.0
  0
VERTEX
  5
41A
  8
0
  6
CONTINUOUS
 62
     7
 10
121.1732217838
 20
214.9215774363
 30
0.0
  0
VERTEX
  5
41B
  8
0
  6
CONTINUOUS
 62
     7
 10
120.9747937794
 20
214.7798649345
 30
0.0
  0
VERTEX
  5
41C
  8
0
  6
CONTINUOUS
 62
     7
 10
120.7200795043
 20
214.6627936549
 30
0.0
  0
VERTEX
  5
41D
  8
0
  6
CONTINUOUS
 62
     7
 10
120.4209867342
 20
214.575837451
 30
0.0
  0
VERTEX
  5
41E
  8
0
  6
CONTINUOUS
 62
     7
 10
120.0914995709
 20
214.5230624362
 30
0.0
  0
VERTEX
  5
41F
  8
0
  6
CONTINUOUS
 62
     7
 10
119.7470247415
 20
214.5069361255
 30
0.0
  0
VERTEX
  5
420
  8
0
  6
CONTINUOUS
 62
     7
 10
119.4036710548
 20
214.528212347
 30
0.0
  0
VERTEX
  5
421
  8
0
  6
CONTINUOUS
 62
     7
 10
119.0774908048
 20
214.5858967921
 30
0.0
  0
VERTEX
  5
422
  8
0
  6
CONTINUOUS
 62
     7
 10
118.7837393164
 20
214.6772922214
 30
0.0
  0
VERTEX
  5
423
  8
0
  6
CONTINUOUS
 62
     7
 10
118.536150027
 20
214.798125583
 30
0.0
  0
VERTEX
  5
424
  8
0
  6
CONTINUOUS
 62
     7
 10
118.3463006184
 20
214.9427452912
 30
0.0
  0
VERTEX
  5
425
  8
0
  6
CONTINUOUS
 62
     7
 10
118.2230653812
 20
215.1043898569
 30
0.0
  0
VERTEX
  5
426
  8
0
  6
CONTINUOUS
 62
     7
 10
118.172211715
 20
215.2755015659
 30
0.0
  0
VERTEX
  5
427
  8
0
  6
CONTINUOUS
 62
     7
 10
118.1709818271
 20
215.3068458396
 30
0.0
  0
SEQEND
  5
5C3
  8
0
  6
CONTINUOUS
 62
     7
  0
LINE
  5
126
  8
0
  6
CONTINUOUS
 62
     7
 10
120.0347973508
 20
201.0644341192
 30
0.0
 11
120.3341027351
 21
214.5580327785
 31
0.0
  0
LINE
  5
127
  8
0
  6
CONTINUOUS
 62
     7
 10
120.3114317808
 20
201.1448611317
 30
0.0
 11
120.6104559325
 21
214.6258033241
 31
0.0
  0
LINE
  5
128
  8
0
  6
CONTINUOUS
 62
     7
 10
120.0347973508
 20
201.0644341192
 30
0.0
 11
120.3114317808
 21
201.1448611317
 31
0.0
  0
LINE
  5
129
  8
0
  6
CONTINUOUS
 62
     7
 10
119.9233431625
 20
214.5104820545
 30
0.0
 11
119.9233431625
 21
212.938219936
 31
0.0
  0
LINE
  5
12A
  8
0
  6
CONTINUOUS
 62
     7
 10
119.713092627
 20
194.4128655736
 30
0.0
 11
120.0347973508
 21
201.0644341192
 31
0.0
  0
LINE
  5
12B
  8
0
  6
CONTINUOUS
 62
     7
 10
119.713092627
 20
194.4128655736
 30
0.0
 11
119.713092627
 21
212.9075827972
 31
0.0
  0
ARC
  5
12C
  8
0
  6
CONTINUOUS
 62
     7
 10
119.7219102731
 20
212.9927518742
 30
0.0
 40
0.0793231196941251
 50
286.4214198978
 51
305.7659533318
  0
POLYLINE
  5
12D
  8
0
  6
CONTINUOUS
 62
     7
 66
     1
 10
0.0
 20
0.0
 30
0.0
  0
VERTEX
  5
428
  8
0
  6
CONTINUOUS
 62
     7
 10
116.9910396449
 20
212.5881959137
 30
0.0
  0
VERTEX
  5
429
  8
0
  6
CONTINUOUS
 62
     7
 10
116.9947080968
 20
212.5532737854
 30
0.0
  0
VERTEX
  5
42A
  8
0
  6
CONTINUOUS
 62
     7
 10
117.0051521315
 20
212.5173618673
 30
0.0
  0
VERTEX
  5
42B
  8
0
  6
CONTINUOUS
 62
     7
 10
117.0207833388
 20
212.4859257812
 30
0.0
  0
VERTEX
  5
42C
  8
0
  6
CONTINUOUS
 62
     7
 10
117.0392217643
 20
212.4637501218
 30
0.0
  0
VERTEX
  5
42D
  8
0
  6
CONTINUOUS
 62
     7
 10
117.057660935
 20
212.4542153437
 30
0.0
  0
VERTEX
  5
42E
  8
0
  6
CONTINUOUS
 62
     7
 10
117.0732921422
 20
212.4587681195
 30
0.0
  0
VERTEX
  5
42F
  8
0
  6
CONTINUOUS
 62
     7
 10
117.0837387579
 20
212.4767163536
 30
0.0
  0
VERTEX
  5
430
  8
0
  6
CONTINUOUS
 62
     7
 10
117.0874046289
 20
212.5053314755
 30
0.0
  0
VERTEX
  5
431
  8
0
  6
CONTINUOUS
 62
     7
 10
117.0837387579
 20
212.5402517679
 30
0.0
  0
VERTEX
  5
432
  8
0
  6
CONTINUOUS
 62
     7
 10
117.0732921422
 20
212.5761655218
 30
0.0
  0
VERTEX
  5
433
  8
0
  6
CONTINUOUS
 62
     7
 10
117.057660935
 20
212.607601608
 30
0.0
  0
VERTEX
  5
434
  8
0
  6
CONTINUOUS
 62
     7
 10
117.0392217643
 20
212.6297753316
 30
0.0
  0
VERTEX
  5
435
  8
0
  6
CONTINUOUS
 62
     7
 10
117.0207833388
 20
212.6393120454
 30
0.0
  0
VERTEX
  5
436
  8
0
  6
CONTINUOUS
 62
     7
 10
117.0051521315
 20
212.6347592696
 30
0.0
  0
VERTEX
  5
437
  8
0
  6
CONTINUOUS
 62
     7
 10
116.9947080968
 20
212.6168091996
 30
0.0
  0
VERTEX
  5
438
  8
0
  6
CONTINUOUS
 62
     7
 10
116.9910396449
 20
212.5881959137
 30
0.0
  0
SEQEND
  5
5C2
  8
0
  6
CONTINUOUS
 62
     7
  0
POLYLINE
  5
12E
  8
0
  6
CONTINUOUS
 62
     7
 66
     1
 10
0.0
 20
0.0
 30
0.0
  0
VERTEX
  5
439
  8
0
  6
CONTINUOUS
 62
     7
 10
117.4519723088
 20
213.1667632737
 30
0.0
  0
VERTEX
  5
43A
  8
0
  6
CONTINUOUS
 62
     7
 10
117.4666413004
 20
213.1817036558
 30
0.0
  0
VERTEX
  5
43B
  8
0
  6
CONTINUOUS
 62
     7
 10
117.5481778504
 20
213.2054528688
 30
0.0
  0
VERTEX
  5
43C
  8
0
  6
CONTINUOUS
 62
     7
 10
117.6443588051
 20
213.1557092043
 30
0.0
  0
VERTEX
  5
43D
  8
0
  6
CONTINUOUS
 62
     7
 10
117.7405405048
 20
213.0400420953
 30
0.0
  0
VERTEX
  5
43E
  8
0
  6
CONTINUOUS
 62
     7
 10
117.8220770549
 20
212.8760628325
 30
0.0
  0
VERTEX
  5
43F
  8
0
  6
CONTINUOUS
 62
     7
 10
117.876561246
 20
212.6887360059
 30
0.0
  0
VERTEX
  5
440
  8
0
  6
CONTINUOUS
 62
     7
 10
117.8956921763
 20
212.5065766112
 30
0.0
  0
VERTEX
  5
441
  8
0
  6
CONTINUOUS
 62
     7
 10
117.876561246
 20
212.3573205016
 30
0.0
  0
VERTEX
  5
442
  8
0
  6
CONTINUOUS
 62
     7
 10
117.8220770549
 20
212.2636895298
 30
0.0
  0
VERTEX
  5
443
  8
0
  6
CONTINUOUS
 62
     7
 10
117.7405405048
 20
212.2399403167
 30
0.0
  0
VERTEX
  5
444
  8
0
  6
CONTINUOUS
 62
     7
 10
117.7200480612
 20
212.2447012159
 30
0.0
  0
SEQEND
  5
5C1
  8
0
  6
CONTINUOUS
 62
     7
  0
LINE
  5
12F
  8
0
  6
CONTINUOUS
 62
     7
 10
118.702840153
 20
213.2553792221
 30
0.0
 11
118.6467448178
 21
214.7376180215
 31
0.0
  0
LINE
  5
130
  8
0
  6
CONTINUOUS
 62
     7
 10
119.3515023924
 20
213.4439662361
 30
0.0
 11
119.3515023924
 21
214.534830868
 31
0.0
  0
LINE
  5
131
  8
0
  6
CONTINUOUS
 62
     7
 10
119.3515023924
 20
213.4439662361
 30
0.0
 11
118.702840153
 21
213.2553792221
 31
0.0
  0
LINE
  5
132
  8
0
  6
CONTINUOUS
 62
     7
 10
118.5419868732
 20
213.3936957919
 30
0.0
 11
118.487664256
 21
214.8290659858
 31
0.0
  0
ARC
  5
133
  8
0
  6
CONTINUOUS
 62
     7
 10
118.4594861743
 20
213.1350634848
 30
0.0
 40
0.271471979399607
 50
26.3080810758
 51
72.3079217829
  0
ARC
  5
134
  8
0
  6
CONTINUOUS
 62
     7
 10
119.7713839802
 20
214.0997299234
 30
0.0
 40
1.17140814578349
 50
259.530286303
 51
277.4536156108
  0
POLYLINE
  5
135
  8
0
  6
CONTINUOUS
 62
     7
 66
     1
 10
0.0
 20
0.0
 30
0.0
  0
VERTEX
  5
445
  8
0
  6
CONTINUOUS
 62
     7
 10
119.5585206637
 20
212.9478244358
 30
0.0
  0
VERTEX
  5
446
  8
0
  6
CONTINUOUS
 62
     7
 10
119.5842440412
 20
213.0321506042
 30
0.0
  0
VERTEX
  5
447
  8
0
  6
CONTINUOUS
 62
     7
 10
119.5755555863
 20
213.1255413556
 30
0.0
  0
VERTEX
  5
448
  8
0
  6
CONTINUOUS
 62
     7
 10
119.5380029792
 20
213.2139317591
 30
0.0
  0
VERTEX
  5
449
  8
0
  6
CONTINUOUS
 62
     7
 10
119.4525771389
 20
213.3344459632
 30
0.0
  0
VERTEX
  5
44A
  8
0
  6
CONTINUOUS
 62
     7
 10
119.3515023924
 20
213.4439662361
 30
0.0
  0
SEQEND
  5
5C0
  8
0
  6
CONTINUOUS
 62
     7
  0
POLYLINE
  5
136
  8
0
  6
CONTINUOUS
 62
     7
 66
     1
 10
0.0
 20
0.0
 30
0.0
  0
VERTEX
  5
44B
  8
0
  6
CONTINUOUS
 62
     7
 10
118.0432905006
 20
212.3179764424
 30
0.0
  0
VERTEX
  5
44C
  8
0
  6
CONTINUOUS
 62
     7
 10
118.081421976
 20
212.3390893575
 30
0.0
  0
VERTEX
  5
44D
  8
0
  6
CONTINUOUS
 62
     7
 10
118.1359035862
 20
212.4327195843
 30
0.0
  0
VERTEX
  5
44E
  8
0
  6
CONTINUOUS
 62
     7
 10
118.1550370975
 20
212.5819764389
 30
0.0
  0
VERTEX
  5
44F
  8
0
  6
CONTINUOUS
 62
     7
 10
118.1359035862
 20
212.7641350886
 30
0.0
  0
VERTEX
  5
450
  8
0
  6
CONTINUOUS
 62
     7
 10
118.081421976
 20
212.9514626603
 30
0.0
  0
VERTEX
  5
451
  8
0
  6
CONTINUOUS
 62
     7
 10
117.999885426
 20
213.1154419231
 30
0.0
  0
VERTEX
  5
452
  8
0
  6
CONTINUOUS
 62
     7
 10
117.9037037263
 20
213.2311090321
 30
0.0
  0
VERTEX
  5
453
  8
0
  6
CONTINUOUS
 62
     7
 10
117.8075227716
 20
213.2808526966
 30
0.0
  0
VERTEX
  5
454
  8
0
  6
CONTINUOUS
 62
     7
 10
117.7641176969
 20
213.2782163986
 30
0.0
  0
SEQEND
  5
5BF
  8
0
  6
CONTINUOUS
 62
     7
  0
LINE
  5
137
  8
0
  6
CONTINUOUS
 62
     7
 10
121.0330041211
 20
214.8150895318
 30
0.0
 11
120.5429948262
 21
201.5823476509
 31
0.0
  0
LINE
  5
138
  8
0
  6
CONTINUOUS
 62
     7
 10
120.5429948262
 20
201.5823476509
 30
0.0
 11
119.9897252211
 21
194.4932911958
 31
0.0
  0
LINE
  5
139
  8
0
  6
CONTINUOUS
 62
     7
 10
119.713092627
 20
194.4128655736
 30
0.0
 11
119.1598230219
 21
201.1802152694
 31
0.0
  0
LINE
  5
13A
  8
0
  6
CONTINUOUS
 62
     7
 10
119.1598230219
 20
201.1802152694
 30
0.0
 11
118.7268547833
 21
212.6208509626
 31
0.0
  0
LINE
  5
13B
  8
0
  6
CONTINUOUS
 62
     7
 10
118.998972323
 20
201.3185325842
 30
0.0
 11
119.1598230219
 21
201.1802152694
 31
0.0
  0
LINE
  5
13C
  8
0
  6
CONTINUOUS
 62
     7
 10
118.998972323
 20
201.3185325842
 30
0.0
 11
118.5729290304
 21
212.5760989675
 31
0.0
  0
LINE
  5
13D
  8
0
  6
CONTINUOUS
 62
     7
 10
119.713092627
 20
194.4128655736
 30
0.0
 11
119.9897252211
 21
194.4932911958
 31
0.0
  0
LINE
  5
13E
  8
0
  6
CONTINUOUS
 62
     7
 10
119.9897252211
 20
194.4932911958
 30
0.0
 11
120.3114317808
 21
201.1448611317
 31
0.0
  0
LINE
  5
13F
  8
0
  6
CONTINUOUS
 62
     7
 10
119.5522393471
 20
194.5511821434
 30
0.0
 11
119.713092627
 21
194.4128655736
 31
0.0
  0
LINE
  5
140
  8
0
  6
CONTINUOUS
 62
     7
 10
119.5522393471
 20
194.5511821434
 30
0.0
 11
118.998972323
 21
201.3185325842
 31
0.0
  0
POLYLINE
  5
141
  8
0
  6
CONTINUOUS
 62
     7
 66
     1
 10
0.0
 20
0.0
 30
0.0
  0
VERTEX
  5
455
  8
0
  6
CONTINUOUS
 62
     7
 10
92.3316596192
 20
161.3038316925
 30
0.0
  0
VERTEX
  5
456
  8
0
  6
CONTINUOUS
 62
     7
 10
92.3228624473
 20
161.2526475839
 30
0.0
  0
VERTEX
  5
457
  8
0
  6
CONTINUOUS
 62
     7
 10
92.2521965711
 20
161.1546327085
 30
0.0
  0
VERTEX
  5
458
  8
0
  6
CONTINUOUS
 62
     7
 10
92.1187462548
 20
161.0746134795
 30
0.0
  0
VERTEX
  5
459
  8
0
  6
CONTINUOUS
 62
     7
 10
91.9386076675
 20
161.0222412587
 30
0.0
  0
VERTEX
  5
45A
  8
0
  6
CONTINUOUS
 62
     7
 10
91.7335078953
 20
161.0038330671
 30
0.0
  0
VERTEX
  5
45B
  8
0
  6
CONTINUOUS
 62
     7
 10
91.528185349
 20
161.0216091369
 30
0.0
  0
VERTEX
  5
45C
  8
0
  6
CONTINUOUS
 62
     7
 10
91.3474047487
 20
161.0734253695
 30
0.0
  0
VERTEX
  5
45D
  8
0
  6
CONTINUOUS
 62
     7
 10
91.2129711072
 20
161.1530320192
 30
0.0
  0
VERTEX
  5
45E
  8
0
  6
CONTINUOUS
 62
     7
 10
91.1410987839
 20
161.2508273986
 30
0.0
  0
VERTEX
  5
45F
  8
0
  6
CONTINUOUS
 62
     7
 10
91.1316596922
 20
161.3038316628
 30
0.0
  0
SEQEND
  5
5BE
  8
0
  6
CONTINUOUS
 62
     7
  0
POLYLINE
  5
142
  8
0
  6
CONTINUOUS
 62
     7
 66
     1
 10
0.0
 20
0.0
 30
0.0
  0
VERTEX
  5
460
  8
0
  6
CONTINUOUS
 62
     7
 10
113.3829677072
 20
211.1466643818
 30
0.0
  0
VERTEX
  5
461
  8
0
  6
CONTINUOUS
 62
     7
 10
113.364780712
 20
211.3400240383
 30
0.0
  0
VERTEX
  5
462
  8
0
  6
CONTINUOUS
 62
     7
 10
113.3124075091
 20
211.5413407953
 30
0.0
  0
VERTEX
  5
463
  8
0
  6
CONTINUOUS
 62
     7
 10
113.2321687967
 20
211.7263363439
 30
0.0
  0
VERTEX
  5
464
  8
0
  6
CONTINUOUS
 62
     7
 10
113.1337397631
 20
211.872694402
 30
0.0
  0
VERTEX
  5
465
  8
0
  6
CONTINUOUS
 62
     7
 10
113.0289966833
 20
211.96276382
 30
0.0
  0
VERTEX
  5
466
  8
0
  6
CONTINUOUS
 62
     7
 10
112.9305702307
 20
211.9856806199
 30
0.0
  0
VERTEX
  5
467
  8
0
  6
CONTINUOUS
 62
     7
 10
112.9138636123
 20
211.9821534749
 30
0.0
  0
SEQEND
  5
5BD
  8
0
  6
CONTINUOUS
 62
     7
  0
ARC
  5
143
  8
0
  6
CONTINUOUS
 62
     7
 10
113.0904683037
 20
211.083692868
 30
0.0
 40
0.2992011239934224
 50
301.9664388746
 51
12.1496330529
  0
POLYLINE
  5
144
  8
0
  6
CONTINUOUS
 62
     7
 66
     1
 10
0.0
 20
0.0
 30
0.0
  0
VERTEX
  5
468
  8
0
  6
CONTINUOUS
 62
     7
 10
89.8216097671
 20
140.1111725716
 30
0.0
  0
VERTEX
  5
469
  8
0
  6
CONTINUOUS
 62
     7
 10
89.4465806891
 20
139.98229733
 30
0.0
  0
VERTEX
  5
46A
  8
0
  6
CONTINUOUS
 62
     7
 10
89.1164898191
 20
139.8256750909
 30
0.0
  0
VERTEX
  5
46B
  8
0
  6
CONTINUOUS
 62
     7
 10
88.8394651806
 20
139.6451622873
 30
0.0
  0
VERTEX
  5
46C
  8
0
  6
CONTINUOUS
 62
     7
 10
88.622327969
 20
139.4452038116
 30
0.0
  0
VERTEX
  5
46D
  8
0
  6
CONTINUOUS
 62
     7
 10
88.4704249552
 20
139.2307233367
 30
0.0
  0
VERTEX
  5
46E
  8
0
  6
CONTINUOUS
 62
     7
 10
88.3874960947
 20
139.0070020774
 30
0.0
  0
VERTEX
  5
46F
  8
0
  6
CONTINUOUS
 62
     7
 10
88.3755840535
 20
138.7795485742
 30
0.0
  0
VERTEX
  5
470
  8
0
  6
CONTINUOUS
 62
     7
 10
88.4349817158
 20
138.553963848
 30
0.0
  0
VERTEX
  5
471
  8
0
  6
CONTINUOUS
 62
     7
 10
88.5642264467
 20
138.3358022007
 30
0.0
  0
VERTEX
  5
472
  8
0
  6
CONTINUOUS
 62
     7
 10
88.760136046
 20
138.1304357698
 30
0.0
  0
VERTEX
  5
473
  8
0
  6
CONTINUOUS
 62
     7
 10
89.0178863853
 20
137.9429211691
 30
0.0
  0
VERTEX
  5
474
  8
0
  6
CONTINUOUS
 62
     7
 10
89.3311310307
 20
137.7778757757
 30
0.0
  0
VERTEX
  5
475
  8
0
  6
CONTINUOUS
 62
     7
 10
89.6921564766
 20
137.6393634099
 30
0.0
  0
VERTEX
  5
476
  8
0
  6
CONTINUOUS
 62
     7
 10
90.0920734105
 20
137.5307948192
 30
0.0
  0
VERTEX
  5
477
  8
0
  6
CONTINUOUS
 62
     7
 10
90.521034574
 20
137.4548433134
 30
0.0
  0
VERTEX
  5
478
  8
0
  6
CONTINUOUS
 62
     7
 10
90.9684771724
 20
137.4133790004
 30
0.0
  0
VERTEX
  5
479
  8
0
  6
CONTINUOUS
 62
     7
 10
91.4233840175
 20
137.4074229332
 30
0.0
  0
VERTEX
  5
47A
  8
0
  6
CONTINUOUS
 62
     7
 10
91.8745536607
 20
137.4371217388
 30
0.0
  0
VERTEX
  5
47B
  8
0
  6
CONTINUOUS
 62
     7
 10
92.310876818
 20
137.5017441183
 30
0.0
  0
VERTEX
  5
47C
  8
0
  6
CONTINUOUS
 62
     7
 10
92.7216097302
 20
137.5996989326
 30
0.0
  0
VERTEX
  5
47D
  8
0
  6
CONTINUOUS
 62
     7
 10
93.0966389315
 20
137.7285741022
 30
0.0
  0
VERTEX
  5
47E
  8
0
  6
CONTINUOUS
 62
     7
 10
93.426729765
 20
137.8851963846
 30
0.0
  0
VERTEX
  5
47F
  8
0
  6
CONTINUOUS
 62
     7
 10
93.7037543865
 20
138.0657091564
 30
0.0
  0
VERTEX
  5
480
  8
0
  6
CONTINUOUS
 62
     7
 10
93.9208915981
 20
138.2656676321
 30
0.0
  0
VERTEX
  5
481
  8
0
  6
CONTINUOUS
 62
     7
 10
94.0727946003
 20
138.4801481171
 30
0.0
  0
VERTEX
  5
482
  8
0
  6
CONTINUOUS
 62
     7
 10
94.1557233152
 20
138.7038695023
 30
0.0
  0
VERTEX
  5
483
  8
0
  6
CONTINUOUS
 62
     7
 10
94.167635467
 20
138.9313229098
 30
0.0
  0
VERTEX
  5
484
  8
0
  6
CONTINUOUS
 62
     7
 10
94.1082378962
 20
139.156907743
 30
0.0
  0
VERTEX
  5
485
  8
0
  6
CONTINUOUS
 62
     7
 10
93.9789930506
 20
139.3750693035
 30
0.0
  0
VERTEX
  5
486
  8
0
  6
CONTINUOUS
 62
     7
 10
93.7830832434
 20
139.5804357281
 30
0.0
  0
VERTEX
  5
487
  8
0
  6
CONTINUOUS
 62
     7
 10
93.5253331119
 20
139.767950335
 30
0.0
  0
VERTEX
  5
488
  8
0
  6
CONTINUOUS
 62
     7
 10
93.2120885813
 20
139.9329958154
 30
0.0
  0
VERTEX
  5
489
  8
0
  6
CONTINUOUS
 62
     7
 10
92.8510630439
 20
140.0715080741
 30
0.0
  0
VERTEX
  5
48A
  8
0
  6
CONTINUOUS
 62
     7
 10
92.4511459994
 20
140.1800767606
 30
0.0
  0
VERTEX
  5
48B
  8
0
  6
CONTINUOUS
 62
     7
 10
92.0221849814
 20
140.2560281403
 30
0.0
  0
VERTEX
  5
48C
  8
0
  6
CONTINUOUS
 62
     7
 10
91.5747423947
 20
140.2974924433
 30
0.0
  0
VERTEX
  5
48D
  8
0
  6
CONTINUOUS
 62
     7
 10
91.1198355496
 20
140.3034485105
 30
0.0
  0
VERTEX
  5
48E
  8
0
  6
CONTINUOUS
 62
     7
 10
90.6686659234
 20
140.2737497367
 30
0.0
  0
VERTEX
  5
48F
  8
0
  6
CONTINUOUS
 62
     7
 10
90.2323428026
 20
140.2091273139
 30
0.0
  0
VERTEX
  5
490
  8
0
  6
CONTINUOUS
 62
     7
 10
89.8216097671
 20
140.1111725716
 30
0.0
  0
SEQEND
  5
5BC
  8
0
  6
CONTINUOUS
 62
     7
  0
POLYLINE
  5
145
  8
0
  6
CONTINUOUS
 62
     7
 66
     1
 10
0.0
 20
0.0
 30
0.0
  0
VERTEX
  5
491
  8
0
  6
CONTINUOUS
 62
     7
 10
88.3716097627
 20
137.4697948857
 30
0.0
  0
VERTEX
  5
492
  8
0
  6
CONTINUOUS
 62
     7
 10
88.3755840535
 20
137.393907701
 30
0.0
  0
VERTEX
  5
493
  8
0
  6
CONTINUOUS
 62
     7
 10
88.4349817158
 20
137.1683229748
 30
0.0
  0
VERTEX
  5
494
  8
0
  6
CONTINUOUS
 62
     7
 10
88.5642264467
 20
136.9501613275
 30
0.0
  0
VERTEX
  5
495
  8
0
  6
CONTINUOUS
 62
     7
 10
88.760136046
 20
136.7447948966
 30
0.0
  0
VERTEX
  5
496
  8
0
  6
CONTINUOUS
 62
     7
 10
89.0178863853
 20
136.5572802959
 30
0.0
  0
VERTEX
  5
497
  8
0
  6
CONTINUOUS
 62
     7
 10
89.3311310307
 20
136.3922349025
 30
0.0
  0
VERTEX
  5
498
  8
0
  6
CONTINUOUS
 62
     7
 10
89.6921564766
 20
136.2537225367
 30
0.0
  0
VERTEX
  5
499
  8
0
  6
CONTINUOUS
 62
     7
 10
90.0920734105
 20
136.145153946
 30
0.0
  0
VERTEX
  5
49A
  8
0
  6
CONTINUOUS
 62
     7
 10
90.521034574
 20
136.0692024403
 30
0.0
  0
VERTEX
  5
49B
  8
0
  6
CONTINUOUS
 62
     7
 10
90.9684771724
 20
136.0277381272
 30
0.0
  0
VERTEX
  5
49C
  8
0
  6
CONTINUOUS
 62
     7
 10
91.4233840175
 20
136.02178206
 30
0.0
  0
VERTEX
  5
49D
  8
0
  6
CONTINUOUS
 62
     7
 10
91.8745536607
 20
136.0514808656
 30
0.0
  0
VERTEX
  5
49E
  8
0
  6
CONTINUOUS
 62
     7
 10
92.310876818
 20
136.1161032452
 30
0.0
  0
VERTEX
  5
49F
  8
0
  6
CONTINUOUS
 62
     7
 10
92.7216097302
 20
136.2140580594
 30
0.0
  0
VERTEX
  5
4A0
  8
0
  6
CONTINUOUS
 62
     7
 10
93.0966389315
 20
136.342933229
 30
0.0
  0
VERTEX
  5
4A1
  8
0
  6
CONTINUOUS
 62
     7
 10
93.426729765
 20
136.4995555114
 30
0.0
  0
VERTEX
  5
4A2
  8
0
  6
CONTINUOUS
 62
     7
 10
93.7037543865
 20
136.6800682832
 30
0.0
  0
VERTEX
  5
4A3
  8
0
  6
CONTINUOUS
 62
     7
 10
93.9208915981
 20
136.8800267589
 30
0.0
  0
VERTEX
  5
4A4
  8
0
  6
CONTINUOUS
 62
     7
 10
94.0727946003
 20
137.0945072439
 30
0.0
  0
VERTEX
  5
4A5
  8
0
  6
CONTINUOUS
 62
     7
 10
94.1557233152
 20
137.3182286292
 30
0.0
  0
VERTEX
  5
4A6
  8
0
  6
CONTINUOUS
 62
     7
 10
94.1716097346
 20
137.469794872
 30
0.0
  0
SEQEND
  5
5BB
  8
0
  6
CONTINUOUS
 62
     7
  0
POLYLINE
  5
146
  8
0
  6
CONTINUOUS
 62
     7
 66
     1
 10
0.0
 20
0.0
 30
0.0
  0
VERTEX
  5
4A7
  8
0
  6
CONTINUOUS
 62
     7
 10
88.5716097266
 20
132.2736423442
 30
0.0
  0
VERTEX
  5
4A8
  8
0
  6
CONTINUOUS
 62
     7
 10
88.5879969115
 20
132.1251311863
 30
0.0
  0
VERTEX
  5
4A9
  8
0
  6
CONTINUOUS
 62
     7
 10
88.6734862055
 20
131.9063025653
 30
0.0
  0
VERTEX
  5
4AA
  8
0
  6
CONTINUOUS
 62
     7
 10
88.8298453359
 20
131.6974940541
 30
0.0
  0
VERTEX
  5
4AB
  8
0
  6
CONTINUOUS
 62
     7
 10
89.0528095482
 20
131.5044013821
 30
0.0
  0
VERTEX
  5
4AC
  8
0
  6
CONTINUOUS
 62
     7
 10
89.33629698
 20
131.3322915967
 30
0.0
  0
VERTEX
  5
4AD
  8
0
  6
CONTINUOUS
 62
     7
 10
89.6725745995
 20
131.1858593561
 30
0.0
  0
VERTEX
  5
4AE
  8
0
  6
CONTINUOUS
 62
     7
 10
90.052469748
 20
131.0690990495
 30
0.0
  0
VERTEX
  5
4AF
  8
0
  6
CONTINUOUS
 62
     7
 10
90.4656197929
 20
130.9851955062
 30
0.0
  0
VERTEX
  5
4B0
  8
0
  6
CONTINUOUS
 62
     7
 10
90.9007551156
 20
130.9364374325
 30
0.0
  0
VERTEX
  5
4B1
  8
0
  6
CONTINUOUS
 62
     7
 10
90.9485192061
 20
130.9333426102
 30
0.0
  0
SEQEND
  5
5BA
  8
0
  6
CONTINUOUS
 62
     7
  0
POLYLINE
  5
147
  8
0
  6
CONTINUOUS
 62
     7
 66
     1
 10
0.0
 20
0.0
 30
0.0
  0
VERTEX
  5
4B2
  8
0
  6
CONTINUOUS
 62
     7
 10
92.531659667
 20
131.0796704889
 30
0.0
  0
VERTEX
  5
4B3
  8
0
  6
CONTINUOUS
 62
     7
 10
92.6216097604
 20
131.1045079444
 30
0.0
  0
VERTEX
  5
4B4
  8
0
  6
CONTINUOUS
 62
     7
 10
92.9880639074
 20
131.2315547765
 30
0.0
  0
VERTEX
  5
4B5
  8
0
  6
CONTINUOUS
 62
     7
 10
93.307697619
 20
131.3870270143
 30
0.0
  0
VERTEX
  5
4B6
  8
0
  6
CONTINUOUS
 62
     7
 10
93.5717921812
 20
131.5666838103
 30
0.0
  0
VERTEX
  5
4B7
  8
0
  6
CONTINUOUS
 62
     7
 10
93.7731437487
 20
131.7656246077
 30
0.0
  0
VERTEX
  5
4B8
  8
0
  6
CONTINUOUS
 62
     7
 10
93.9062599491
 20
131.9784227664
 30
0.0
  0
VERTEX
  5
4B9
  8
0
  6
CONTINUOUS
 62
     7
 10
93.9675097716
 20
132.1992737553
 30
0.0
  0
VERTEX
  5
4BA
  8
0
  6
CONTINUOUS
 62
     7
 10
93.9716096775
 20
132.2736422358
 30
0.0
  0
SEQEND
  5
5B9
  8
0
  6
CONTINUOUS
 62
     7
  0
POLYLINE
  5
148
  8
0
  6
CONTINUOUS
 62
     7
 66
     1
 10
0.0
 20
0.0
 30
0.0
  0
VERTEX
  5
4BB
  8
0
  6
CONTINUOUS
 62
     7
 10
91.4553304271
 20
132.4148168986
 30
0.0
  0
VERTEX
  5
4BC
  8
0
  6
CONTINUOUS
 62
     7
 10
91.3010941121
 20
132.3487461293
 30
0.0
  0
VERTEX
  5
4BD
  8
0
  6
CONTINUOUS
 62
     7
 10
91.2050082264
 20
132.2592787034
 30
0.0
  0
VERTEX
  5
4BE
  8
0
  6
CONTINUOUS
 62
     7
 10
91.180049324
 20
132.1584976578
 30
0.0
  0
VERTEX
  5
4BF
  8
0
  6
CONTINUOUS
 62
     7
 10
91.2295886105
 20
132.0600140459
 30
0.0
  0
VERTEX
  5
4C0
  8
0
  6
CONTINUOUS
 62
     7
 10
91.3469353387
 20
131.9771286848
 30
0.0
  0
VERTEX
  5
4C1
  8
0
  6
CONTINUOUS
 62
     7
 10
91.5162412755
 20
131.9210355847
 30
0.0
  0
VERTEX
  5
4C2
  8
0
  6
CONTINUOUS
 62
     7
 10
91.7146405382
 20
131.899310592
 30
0.0
  0
VERTEX
  5
4C3
  8
0
  6
CONTINUOUS
 62
     7
 10
91.9153383965
 20
131.9148875495
 30
0.0
  0
VERTEX
  5
4C4
  8
0
  6
CONTINUOUS
 62
     7
 10
92.0912294752
 20
131.9656629303
 30
0.0
  0
VERTEX
  5
4C5
  8
0
  6
CONTINUOUS
 62
     7
 10
92.2185584862
 20
132.0447791735
 30
0.0
  0
VERTEX
  5
4C6
  8
0
  6
CONTINUOUS
 62
     7
 10
92.2801293262
 20
132.1415510706
 30
0.0
  0
VERTEX
  5
4C7
  8
0
  6
CONTINUOUS
 62
     7
 10
92.2676261953
 20
132.2429092418
 30
0.0
  0
VERTEX
  5
4C8
  8
0
  6
CONTINUOUS
 62
     7
 10
92.1827379028
 20
132.3351645462
 30
0.0
  0
VERTEX
  5
4C9
  8
0
  6
CONTINUOUS
 62
     7
 10
92.0369288459
 20
132.4058574691
 30
0.0
  0
VERTEX
  5
4CA
  8
0
  6
CONTINUOUS
 62
     7
 10
91.849891584
 20
132.4454404934
 30
0.0
  0
VERTEX
  5
4CB
  8
0
  6
CONTINUOUS
 62
     7
 10
91.6468864332
 20
132.4485677741
 30
0.0
  0
VERTEX
  5
4CC
  8
0
  6
CONTINUOUS
 62
     7
 10
91.4553304271
 20
132.4148168986
 30
0.0
  0
SEQEND
  5
5B8
  8
0
  6
CONTINUOUS
 62
     7
  0
POLYLINE
  5
149
  8
0
  6
CONTINUOUS
 62
     7
 66
     1
 10
0.0
 20
0.0
 30
0.0
  0
VERTEX
  5
4CD
  8
0
  6
CONTINUOUS
 62
     7
 10
91.033420735
 20
131.1610875238
 30
0.0
  0
VERTEX
  5
4CE
  8
0
  6
CONTINUOUS
 62
     7
 10
91.0327226818
 20
131.1555568751
 30
0.0
  0
VERTEX
  5
4CF
  8
0
  6
CONTINUOUS
 62
     7
 10
91.0580720543
 20
131.0410398963
 30
0.0
  0
VERTEX
  5
4D0
  8
0
  6
CONTINUOUS
 62
     7
 10
91.1564151508
 20
130.9368433074
 30
0.0
  0
VERTEX
  5
4D1
  8
0
  6
CONTINUOUS
 62
     7
 10
91.3170949216
 20
130.8542583321
 30
0.0
  0
VERTEX
  5
4D2
  8
0
  6
CONTINUOUS
 62
     7
 10
91.5226993544
 20
130.8022344366
 30
0.0
  0
VERTEX
  5
4D3
  8
0
  6
CONTINUOUS
 62
     7
 10
91.7509477589
 20
130.7864090466
 30
0.0
  0
VERTEX
  5
4D4
  8
0
  6
CONTINUOUS
 62
     7
 10
91.9771059784
 20
130.8084971814
 30
0.0
  0
VERTEX
  5
4D5
  8
0
  6
CONTINUOUS
 62
     7
 10
92.1766662862
 20
130.8661052802
 30
0.0
  0
VERTEX
  5
4D6
  8
0
  6
CONTINUOUS
 62
     7
 10
92.3280032484
 20
130.9529906177
 30
0.0
  0
VERTEX
  5
4D7
  8
0
  6
CONTINUOUS
 62
     7
 10
92.4147171517
 20
131.0597377944
 30
0.0
  0
VERTEX
  5
4D8
  8
0
  6
CONTINUOUS
 62
     7
 10
92.4298985443
 20
131.1610875857
 30
0.0
  0
SEQEND
  5
5B7
  8
0
  6
CONTINUOUS
 62
     7
  0
POLYLINE
  5
14A
  8
0
  6
CONTINUOUS
 62
     7
 66
     1
 10
0.0
 20
0.0
 30
0.0
  0
VERTEX
  5
4D9
  8
0
  6
CONTINUOUS
 62
     7
 10
91.5560813688
 20
132.3275640236
 30
0.0
  0
VERTEX
  5
4DA
  8
0
  6
CONTINUOUS
 62
     7
 10
91.4530684141
 20
132.2823940212
 30
0.0
  0
VERTEX
  5
4DB
  8
0
  6
CONTINUOUS
 62
     7
 10
91.3924684977
 20
132.2209517993
 30
0.0
  0
VERTEX
  5
4DC
  8
0
  6
CONTINUOUS
 62
     7
 10
91.3835072747
 20
132.152591168
 30
0.0
  0
VERTEX
  5
4DD
  8
0
  6
CONTINUOUS
 62
     7
 10
91.427549108
 20
132.0877195597
 30
0.0
  0
VERTEX
  5
4DE
  8
0
  6
CONTINUOUS
 62
     7
 10
91.5178891128
 20
132.0362130823
 30
0.0
  0
VERTEX
  5
4DF
  8
0
  6
CONTINUOUS
 62
     7
 10
91.6407737179
 20
132.0059131707
 30
0.0
  0
VERTEX
  5
4E0
  8
0
  6
CONTINUOUS
 62
     7
 10
91.7774947261
 20
132.0014325933
 30
0.0
  0
VERTEX
  5
4E1
  8
0
  6
CONTINUOUS
 62
     7
 10
91.9072379426
 20
132.02345351
 30
0.0
  0
VERTEX
  5
4E2
  8
0
  6
CONTINUOUS
 62
     7
 10
92.0102508167
 20
132.0686234891
 30
0.0
  0
VERTEX
  5
4E3
  8
0
  6
CONTINUOUS
 62
     7
 10
92.0708508137
 20
132.1300657343
 30
0.0
  0
VERTEX
  5
4E4
  8
0
  6
CONTINUOUS
 62
     7
 10
92.0798120492
 20
132.1984262616
 30
0.0
  0
VERTEX
  5
4E5
  8
0
  6
CONTINUOUS
 62
     7
 10
92.0357702158
 20
132.2632978699
 30
0.0
  0
VERTEX
  5
4E6
  8
0
  6
CONTINUOUS
 62
     7
 10
91.945430211
 20
132.3148043473
 30
0.0
  0
VERTEX
  5
4E7
  8
0
  6
CONTINUOUS
 62
     7
 10
91.8225455935
 20
132.3451043628
 30
0.0
  0
VERTEX
  5
4E8
  8
0
  6
CONTINUOUS
 62
     7
 10
91.6858245047
 20
132.349584917
 30
0.0
  0
VERTEX
  5
4E9
  8
0
  6
CONTINUOUS
 62
     7
 10
91.5560813688
 20
132.3275640236
 30
0.0
  0
SEQEND
  5
5B6
  8
0
  6
CONTINUOUS
 62
     7
  0
POLYLINE
  5
14B
  8
0
  6
CONTINUOUS
 62
     7
 66
     1
 10
0.0
 20
0.0
 30
0.0
  0
VERTEX
  5
4EA
  8
0
  6
CONTINUOUS
 62
     7
 10
91.0608761833
 20
131.3542495222
 30
0.0
  0
VERTEX
  5
4EB
  8
0
  6
CONTINUOUS
 62
     7
 10
91.0108845993
 20
131.3098296812
 30
0.0
  0
VERTEX
  5
4EC
  8
0
  6
CONTINUOUS
 62
     7
 10
90.9405949201
 20
131.1958930817
 30
0.0
  0
VERTEX
  5
4ED
  8
0
  6
CONTINUOUS
 62
     7
 10
90.9405950677
 20
131.0766592637
 30
0.0
  0
VERTEX
  5
4EE
  8
0
  6
CONTINUOUS
 62
     7
 10
91.0108844945
 20
130.9627226819
 30
0.0
  0
VERTEX
  5
4EF
  8
0
  6
CONTINUOUS
 62
     7
 10
91.1452181115
 20
130.8642070282
 30
0.0
  0
VERTEX
  5
4F0
  8
0
  6
CONTINUOUS
 62
     7
 10
91.3316596075
 20
130.7898660167
 30
0.0
  0
VERTEX
  5
4F1
  8
0
  6
CONTINUOUS
 62
     7
 10
91.5536429181
 20
130.7463049405
 30
0.0
  0
VERTEX
  5
4F2
  8
0
  6
CONTINUOUS
 62
     7
 10
91.7914437082
 20
130.737394578
 30
0.0
  0
VERTEX
  5
4F3
  8
0
  6
CONTINUOUS
 62
     7
 10
92.0239324612
 20
130.7639266253
 30
0.0
  0
VERTEX
  5
4F4
  8
0
  6
CONTINUOUS
 62
     7
 10
92.2304515125
 20
130.8235435403
 30
0.0
  0
VERTEX
  5
4F5
  8
0
  6
CONTINUOUS
 62
     7
 10
92.3926507431
 20
130.9109480997
 30
0.0
  0
VERTEX
  5
4F6
  8
0
  6
CONTINUOUS
 62
     7
 10
92.4961179375
 20
131.0183740436
 30
0.0
  0
VERTEX
  5
4F7
  8
0
  6
CONTINUOUS
 62
     7
 10
92.531659636
 20
131.1362761864
 30
0.0
  0
VERTEX
  5
4F8
  8
0
  6
CONTINUOUS
 62
     7
 10
92.4961179346
 20
131.2541782165
 30
0.0
  0
VERTEX
  5
4F9
  8
0
  6
CONTINUOUS
 62
     7
 10
92.4024431454
 20
131.3542495107
 30
0.0
  0
SEQEND
  5
5B5
  8
0
  6
CONTINUOUS
 62
     7
  0
POLYLINE
  5
14C
  8
0
  6
CONTINUOUS
 62
     7
 66
     1
 10
0.0
 20
0.0
 30
0.0
  0
VERTEX
  5
4FA
  8
0
  6
CONTINUOUS
 62
     7
 10
92.1316596747
 20
128.5382005471
 30
0.0
  0
VERTEX
  5
4FB
  8
0
  6
CONTINUOUS
 62
     7
 10
92.3181011505
 20
128.6125415701
 30
0.0
  0
VERTEX
  5
4FC
  8
0
  6
CONTINUOUS
 62
     7
 10
92.4524347121
 20
128.7110572201
 30
0.0
  0
VERTEX
  5
4FD
  8
0
  6
CONTINUOUS
 62
     7
 10
92.5227243106
 20
128.8249937963
 30
0.0
  0
VERTEX
  5
4FE
  8
0
  6
CONTINUOUS
 62
     7
 10
92.531659636
 20
128.8846107353
 30
0.0
  0
SEQEND
  5
5B4
  8
0
  6
CONTINUOUS
 62
     7
  0
POLYLINE
  5
14D
  8
0
  6
CONTINUOUS
 62
     7
 66
     1
 10
0.0
 20
0.0
 30
0.0
  0
VERTEX
  5
4FF
  8
0
  6
CONTINUOUS
 62
     7
 10
90.9316596351
 20
128.8846107032
 30
0.0
  0
VERTEX
  5
500
  8
0
  6
CONTINUOUS
 62
     7
 10
90.9672013893
 20
128.7667085809
 30
0.0
  0
VERTEX
  5
501
  8
0
  6
CONTINUOUS
 62
     7
 10
91.0706686052
 20
128.6592826723
 30
0.0
  0
VERTEX
  5
502
  8
0
  6
CONTINUOUS
 62
     7
 10
91.2328678403
 20
128.5718781667
 30
0.0
  0
VERTEX
  5
503
  8
0
  6
CONTINUOUS
 62
     7
 10
91.4393867973
 20
128.5122611938
 30
0.0
  0
VERTEX
  5
504
  8
0
  6
CONTINUOUS
 62
     7
 10
91.671875616
 20
128.485729218
 30
0.0
  0
VERTEX
  5
505
  8
0
  6
CONTINUOUS
 62
     7
 10
91.9096764274
 20
128.4946395082
 30
0.0
  0
VERTEX
  5
506
  8
0
  6
CONTINUOUS
 62
     7
 10
92.1316596747
 20
128.5382005471
 30
0.0
  0
SEQEND
  5
5B3
  8
0
  6
CONTINUOUS
 62
     7
  0
POLYLINE
  5
14E
  8
0
  6
CONTINUOUS
 62
     7
 66
     1
 10
0.0
 20
0.0
 30
0.0
  0
VERTEX
  5
507
  8
0
  6
CONTINUOUS
 62
     7
 10
92.8316596876
 20
127.6721752409
 30
0.0
  0
VERTEX
  5
508
  8
0
  6
CONTINUOUS
 62
     7
 10
92.7941780169
 20
127.5298248153
 30
0.0
  0
VERTEX
  5
509
  8
0
  6
CONTINUOUS
 62
     7
 10
92.6842877061
 20
127.3971751887
 30
0.0
  0
VERTEX
  5
50A
  8
0
  6
CONTINUOUS
 62
     7
 10
92.5094772157
 20
127.2832664511
 30
0.0
  0
VERTEX
  5
50B
  8
0
  6
CONTINUOUS
 62
     7
 10
92.2816596062
 20
127.1958613545
 30
0.0
  0
VERTEX
  5
50C
  8
0
  6
CONTINUOUS
 62
     7
 10
92.0163606527
 20
127.1409159609
 30
0.0
  0
VERTEX
  5
50D
  8
0
  6
CONTINUOUS
 62
     7
 10
91.7316597671
 20
127.1221751902
 30
0.0
  0
VERTEX
  5
50E
  8
0
  6
CONTINUOUS
 62
     7
 10
91.4469586382
 20
127.1409160798
 30
0.0
  0
VERTEX
  5
50F
  8
0
  6
CONTINUOUS
 62
     7
 10
91.1816597543
 20
127.195861288
 30
0.0
  0
VERTEX
  5
510
  8
0
  6
CONTINUOUS
 62
     7
 10
90.9538422324
 20
127.2832665736
 30
0.0
  0
VERTEX
  5
511
  8
0
  6
CONTINUOUS
 62
     7
 10
90.7790317633
 20
127.3971752449
 30
0.0
  0
SEQEND
  5
5B2
  8
0
  6
CONTINUOUS
 62
     7
  0
LINE
  5
14F
  8
0
  6
CONTINUOUS
 62
     7
 10
90.7790317633
 20
127.3971752449
 30
0.0
 11
90.7790317633
 21
128.6096106863
 31
0.0
  0
POLYLINE
  5
150
  8
0
  6
CONTINUOUS
 62
     7
 66
     1
 10
0.0
 20
0.0
 30
0.0
  0
VERTEX
  5
512
  8
0
  6
CONTINUOUS
 62
     7
 10
92.6842876211
 20
129.1596106775
 30
0.0
  0
VERTEX
  5
513
  8
0
  6
CONTINUOUS
 62
     7
 10
92.794178033
 20
129.0269611999
 30
0.0
  0
VERTEX
  5
514
  8
0
  6
CONTINUOUS
 62
     7
 10
92.8316596876
 20
128.8846106823
 30
0.0
  0
VERTEX
  5
515
  8
0
  6
CONTINUOUS
 62
     7
 10
92.7941780169
 20
128.7422602567
 30
0.0
  0
VERTEX
  5
516
  8
0
  6
CONTINUOUS
 62
     7
 10
92.6842877061
 20
128.6096106302
 30
0.0
  0
VERTEX
  5
517
  8
0
  6
CONTINUOUS
 62
     7
 10
92.5094772157
 20
128.4957018925
 30
0.0
  0
VERTEX
  5
518
  8
0
  6
CONTINUOUS
 62
     7
 10
92.2816596062
 20
128.4082967959
 30
0.0
  0
VERTEX
  5
519
  8
0
  6
CONTINUOUS
 62
     7
 10
92.0163606527
 20
128.3533514023
 30
0.0
  0
VERTEX
  5
51A
  8
0
  6
CONTINUOUS
 62
     7
 10
91.7316597671
 20
128.3346106316
 30
0.0
  0
VERTEX
  5
51B
  8
0
  6
CONTINUOUS
 62
     7
 10
91.4469586382
 20
128.3533515212
 30
0.0
  0
VERTEX
  5
51C
  8
0
  6
CONTINUOUS
 62
     7
 10
91.1816597543
 20
128.4082967294
 30
0.0
  0
VERTEX
  5
51D
  8
0
  6
CONTINUOUS
 62
     7
 10
90.9538422324
 20
128.495702015
 30
0.0
  0
VERTEX
  5
51E
  8
0
  6
CONTINUOUS
 62
     7
 10
90.7790317633
 20
128.6096106863
 30
0.0
  0
SEQEND
  5
5B1
  8
0
  6
CONTINUOUS
 62
     7
  0
LINE
  5
151
  8
0
  6
CONTINUOUS
 62
     7
 10
92.5316596836
 20
129.2917903487
 30
0.0
 11
92.6842876211
 21
129.1596106775
 31
0.0
  0
LINE
  5
152
  8
0
  6
CONTINUOUS
 62
     7
 10
90.7790317633
 20
128.6096106863
 30
0.0
 11
88.7790317148
 21
130.3416615358
 31
0.0
  0
POLYLINE
  5
153
  8
0
  6
CONTINUOUS
 62
     7
 66
     1
 10
0.0
 20
0.0
 30
0.0
  0
VERTEX
  5
51F
  8
0
  6
CONTINUOUS
 62
     7
 10
88.7790317148
 20
130.3416615358
 30
0.0
  0
VERTEX
  5
520
  8
0
  6
CONTINUOUS
 62
     7
 10
88.5935192697
 20
130.5388478012
 30
0.0
  0
VERTEX
  5
521
  8
0
  6
CONTINUOUS
 62
     7
 10
88.4764874368
 20
130.7487573497
 30
0.0
  0
VERTEX
  5
522
  8
0
  6
CONTINUOUS
 62
     7
 10
88.4312246172
 20
130.9654920749
 30
0.0
  0
VERTEX
  5
523
  8
0
  6
CONTINUOUS
 62
     7
 10
88.4590025518
 20
131.1829620804
 30
0.0
  0
VERTEX
  5
524
  8
0
  6
CONTINUOUS
 62
     7
 10
88.5590409034
 20
131.3950569831
 30
0.0
  0
VERTEX
  5
525
  8
0
  6
CONTINUOUS
 62
     7
 10
88.7285283381
 20
131.5958171797
 30
0.0
  0
VERTEX
  5
526
  8
0
  6
CONTINUOUS
 62
     7
 10
88.8372810736
 20
131.6896808693
 30
0.0
  0
SEQEND
  5
5B0
  8
0
  6
CONTINUOUS
 62
     7
  0
POLYLINE
  5
154
  8
0
  6
CONTINUOUS
 62
     7
 66
     1
 10
0.0
 20
0.0
 30
0.0
  0
VERTEX
  5
527
  8
0
  6
CONTINUOUS
 62
     7
 10
93.5216097864
 20
131.3642730948
 30
0.0
  0
VERTEX
  5
528
  8
0
  6
CONTINUOUS
 62
     7
 10
93.6049238898
 20
131.1742540836
 30
0.0
  0
VERTEX
  5
529
  8
0
  6
CONTINUOUS
 62
     7
 10
93.629757135
 20
130.9566949609
 30
0.0
  0
VERTEX
  5
52A
  8
0
  6
CONTINUOUS
 62
     7
 10
93.5815611748
 20
130.7401183461
 30
0.0
  0
VERTEX
  5
52B
  8
0
  6
CONTINUOUS
 62
     7
 10
93.4616903609
 20
130.5306096914
 30
0.0
  0
VERTEX
  5
52C
  8
0
  6
CONTINUOUS
 62
     7
 10
93.2735127365
 20
130.3340557921
 30
0.0
  0
VERTEX
  5
52D
  8
0
  6
CONTINUOUS
 62
     7
 10
93.0223157898
 20
130.155979512
 30
0.0
  0
VERTEX
  5
52E
  8
0
  6
CONTINUOUS
 62
     7
 10
92.7151577915
 20
130.0013844756
 30
0.0
  0
VERTEX
  5
52F
  8
0
  6
CONTINUOUS
 62
     7
 10
92.5316596707
 20
129.9301633465
 30
0.0
  0
SEQEND
  5
5AF
  8
0
  6
CONTINUOUS
 62
     7
  0
POLYLINE
  5
155
  8
0
  6
CONTINUOUS
 62
     7
 66
     1
 10
0.0
 20
0.0
 30
0.0
  0
VERTEX
  5
530
  8
0
  6
CONTINUOUS
 62
     7
 10
92.5316596451
 20
130.129169494
 30
0.0
  0
VERTEX
  5
531
  8
0
  6
CONTINUOUS
 62
     7
 10
92.7264588452
 20
130.2030235329
 30
0.0
  0
VERTEX
  5
532
  8
0
  6
CONTINUOUS
 62
     7
 10
93.0095478618
 20
130.3467015595
 30
0.0
  0
VERTEX
  5
533
  8
0
  6
CONTINUOUS
 62
     7
 10
93.2367782288
 20
130.5133443906
 30
0.0
  0
VERTEX
  5
534
  8
0
  6
CONTINUOUS
 62
     7
 10
93.4008463303
 20
130.6975959366
 30
0.0
  0
VERTEX
  5
535
  8
0
  6
CONTINUOUS
 62
     7
 10
93.4964791656
 20
130.8935342882
 30
0.0
  0
VERTEX
  5
536
  8
0
  6
CONTINUOUS
 62
     7
 10
93.5216097335
 20
131.061206805
 30
0.0
  0
SEQEND
  5
5AE
  8
0
  6
CONTINUOUS
 62
     7
  0
POLYLINE
  5
156
  8
0
  6
CONTINUOUS
 62
     7
 66
     1
 10
0.0
 20
0.0
 30
0.0
  0
VERTEX
  5
537
  8
0
  6
CONTINUOUS
 62
     7
 10
89.0216097171
 20
131.0612068519
 30
0.0
  0
VERTEX
  5
538
  8
0
  6
CONTINUOUS
 62
     7
 10
89.0377041894
 20
130.9268882955
 30
0.0
  0
VERTEX
  5
539
  8
0
  6
CONTINUOUS
 62
     7
 10
89.1215709558
 20
130.729607283
 30
0.0
  0
VERTEX
  5
53A
  8
0
  6
CONTINUOUS
 62
     7
 10
89.2745416474
 20
130.5429840561
 30
0.0
  0
VERTEX
  5
53B
  8
0
  6
CONTINUOUS
 62
     7
 10
89.4916999069
 20
130.373016947
 30
0.0
  0
VERTEX
  5
53C
  8
0
  6
CONTINUOUS
 62
     7
 10
89.7660658043
 20
130.225168862
 30
0.0
  0
VERTEX
  5
53D
  8
0
  6
CONTINUOUS
 62
     7
 10
90.0888213196
 20
130.1041917521
 30
0.0
  0
VERTEX
  5
53E
  8
0
  6
CONTINUOUS
 62
     7
 10
90.4495924447
 20
130.0139738539
 30
0.0
  0
VERTEX
  5
53F
  8
0
  6
CONTINUOUS
 62
     7
 10
90.8367839618
 20
129.9574148872
 30
0.0
  0
VERTEX
  5
540
  8
0
  6
CONTINUOUS
 62
     7
 10
90.9316596562
 20
129.9491216078
 30
0.0
  0
SEQEND
  5
5AD
  8
0
  6
CONTINUOUS
 62
     7
  0
LINE
  5
157
  8
0
  6
CONTINUOUS
 62
     7
 10
88.7790317148
 20
129.1292260944
 30
0.0
 11
88.7790317148
 21
130.3416615358
 31
0.0
  0
LINE
  5
158
  8
0
  6
CONTINUOUS
 62
     7
 10
90.7790317633
 20
127.3971752449
 30
0.0
 11
88.7790317148
 21
129.1292260944
 31
0.0
  0
POLYLINE
  5
159
  8
0
  6
CONTINUOUS
 62
     7
 66
     1
 10
0.0
 20
0.0
 30
0.0
  0
VERTEX
  5
541
  8
0
  6
CONTINUOUS
 62
     7
 10
91.8566596762
 20
127.0443083761
 30
0.0
  0
VERTEX
  5
542
  8
0
  6
CONTINUOUS
 62
     7
 10
91.7642912407
 20
127.0286309313
 30
0.0
  0
VERTEX
  5
543
  8
0
  6
CONTINUOUS
 62
     7
 10
91.6669548244
 20
127.0318208377
 30
0.0
  0
VERTEX
  5
544
  8
0
  6
CONTINUOUS
 62
     7
 10
91.5794693633
 20
127.0533923677
 30
0.0
  0
VERTEX
  5
545
  8
0
  6
CONTINUOUS
 62
     7
 10
91.5151533965
 20
127.0900615421
 30
0.0
  0
VERTEX
  5
546
  8
0
  6
CONTINUOUS
 62
     7
 10
91.4837985067
 20
127.1362457598
 30
0.0
  0
VERTEX
  5
547
  8
0
  6
CONTINUOUS
 62
     7
 10
91.4837778985
 20
127.1363235843
 30
0.0
  0
SEQEND
  5
5AC
  8
0
  6
CONTINUOUS
 62
     7
  0
ARC
  5
15A
  8
0
  6
CONTINUOUS
 62
     7
 10
91.8398297518
 20
127.1948426239
 30
0.0
 40
0.1514721298251592
 50
276.3792513526
 51
337.2733268099
  0
ARC
  5
15B
  8
0
  6
CONTINUOUS
 62
     7
 10
89.2808308707
 20
129.8164751953
 30
0.0
 40
0.8509487173695012
 50
182.5088431367
 51
233.8647199111
  0
ARC
  5
15C
  8
0
  6
CONTINUOUS
 62
     7
 10
92.4786563435
 20
129.9517125796
 30
0.0
 40
1.16488245793868
 50
287.6401468427
 51
351.4847868348
  0
LINE
  5
15D
  8
0
  6
CONTINUOUS
 62
     8
 10
93.7048806522
 20
125.926508062
 30
0.0
 11
92.3367654438
 21
125.53156722
 31
0.0
  0
LINE
  5
15E
  8
0
  6
CONTINUOUS
 62
     8
 10
85.4765541272
 20
123.5511947949
 30
0.0
 11
82.0084392016
 21
122.5500362519
 31
0.0
  0
LINE
  5
15F
  8
0
  6
CONTINUOUS
 62
     8
 10
101.8198283751
 20
119.8958132506
 30
0.0
 11
98.4967887763
 21
122.7736499609
 31
0.0
  0
LINE
  5
160
  8
0
  6
CONTINUOUS
 62
     8
 10
96.2899241958
 20
124.6848507503
 30
0.0
 11
95.0668845687
 21
125.7440341372
 31
0.0
  0
POLYLINE
  5
161
  8
0
  6
CONTINUOUS
 62
     8
 66
     1
 10
0.0
 20
0.0
 30
0.0
  0
VERTEX
  5
548
  8
0
  6
CONTINUOUS
 62
     8
 10
91.1031600237
 20
145.1832000264
 30
0.0
  0
VERTEX
  5
549
  8
0
  6
CONTINUOUS
 62
     8
 10
90.4021267352
 20
145.2320607756
 30
0.0
  0
VERTEX
  5
54A
  8
0
  6
CONTINUOUS
 62
     8
 10
89.7143069187
 20
145.3155787899
 30
0.0
  0
VERTEX
  5
54B
  8
0
  6
CONTINUOUS
 62
     8
 10
89.0465362475
 20
145.432924439
 30
0.0
  0
VERTEX
  5
54C
  8
0
  6
CONTINUOUS
 62
     8
 10
88.4054513816
 20
145.5829308238
 30
0.0
  0
VERTEX
  5
54D
  8
0
  6
CONTINUOUS
 62
     8
 10
87.7974246905
 20
145.7641078396
 30
0.0
  0
VERTEX
  5
54E
  8
0
  6
CONTINUOUS
 62
     8
 10
87.2284970533
 20
145.9746541787
 30
0.0
  0
VERTEX
  5
54F
  8
0
  6
CONTINUOUS
 62
     8
 10
86.704324815
 20
146.2124779363
 30
0.0
  0
VERTEX
  5
550
  8
0
  6
CONTINUOUS
 62
     8
 10
86.2301163183
 20
146.4752150677
 30
0.0
  0
VERTEX
  5
551
  8
0
  6
CONTINUOUS
 62
     8
 10
85.8105845466
 20
146.7602547542
 30
0.0
  0
VERTEX
  5
552
  8
0
  6
CONTINUOUS
 62
     8
 10
85.4498991282
 20
147.0647638323
 30
0.0
  0
VERTEX
  5
553
  8
0
  6
CONTINUOUS
 62
     8
 10
85.1516446736
 20
147.3857161694
 30
0.0
  0
VERTEX
  5
554
  8
0
  6
CONTINUOUS
 62
     8
 10
84.9187847065
 20
147.719921665
 30
0.0
  0
VERTEX
  5
555
  8
0
  6
CONTINUOUS
 62
     8
 10
84.7536347317
 20
148.0640592607
 30
0.0
  0
VERTEX
  5
556
  8
0
  6
CONTINUOUS
 62
     8
 10
84.6578359147
 20
148.4147086746
 30
0.0
  0
VERTEX
  5
557
  8
0
  6
CONTINUOUS
 62
     8
 10
84.6316840469
 20
148.7285397023
 30
0.0
  0
SEQEND
  5
5AB
  8
0
  6
CONTINUOUS
 62
     8
  0
POLYLINE
  5
162
  8
0
  6
CONTINUOUS
 62
     8
 66
     1
 10
0.0
 20
0.0
 30
0.0
  0
VERTEX
  5
558
  8
0
  6
CONTINUOUS
 62
     8
 10
98.831629451
 20
148.7296366839
 30
0.0
  0
VERTEX
  5
559
  8
0
  6
CONTINUOUS
 62
     8
 10
98.8172581888
 20
148.4932681879
 30
0.0
  0
VERTEX
  5
55A
  8
0
  6
CONTINUOUS
 62
     8
 10
98.7370442794
 20
148.1416424394
 30
0.0
  0
VERTEX
  5
55B
  8
0
  6
CONTINUOUS
 62
     8
 10
98.5872080999
 20
147.7957570768
 30
0.0
  0
VERTEX
  5
55C
  8
0
  6
CONTINUOUS
 62
     8
 10
98.3692380886
 20
147.4590500954
 30
0.0
  0
VERTEX
  5
55D
  8
0
  6
CONTINUOUS
 62
     8
 10
98.0853008038
 20
147.1348676855
 30
0.0
  0
VERTEX
  5
55E
  8
0
  6
CONTINUOUS
 62
     8
 10
97.7382184558
 20
146.8264317212
 30
0.0
  0
VERTEX
  5
55F
  8
0
  6
CONTINUOUS
 62
     8
 10
97.3314397936
 20
146.5368076982
 30
0.0
  0
VERTEX
  5
560
  8
0
  6
CONTINUOUS
 62
     8
 10
96.8690084929
 20
146.2688736692
 30
0.0
  0
VERTEX
  5
561
  8
0
  6
CONTINUOUS
 62
     8
 10
96.3555194797
 20
146.0252930108
 30
0.0
  0
VERTEX
  5
562
  8
0
  6
CONTINUOUS
 62
     8
 10
95.7960768544
 20
145.8084859308
 30
0.0
  0
VERTEX
  5
563
  8
0
  6
CONTINUOUS
 62
     8
 10
95.1962401888
 20
145.6206075134
 30
0.0
  0
VERTEX
  5
564
  8
0
  6
CONTINUOUS
 62
     8
 10
94.5619704891
 20
145.4635252371
 30
0.0
  0
VERTEX
  5
565
  8
0
  6
CONTINUOUS
 62
     8
 10
93.899572439
 20
145.3387997213
 30
0.0
  0
VERTEX
  5
566
  8
0
  6
CONTINUOUS
 62
     8
 10
93.2156282737
 20
145.2476707988
 30
0.0
  0
VERTEX
  5
567
  8
0
  6
CONTINUOUS
 62
     8
 10
92.5169362656
 20
145.1910440599
 30
0.0
  0
VERTEX
  5
568
  8
0
  6
CONTINUOUS
 62
     8
 10
91.8104394794
 20
145.1694823304
 30
0.0
  0
VERTEX
  5
569
  8
0
  6
CONTINUOUS
 62
     8
 10
91.1031600237
 20
145.1832000264
 30
0.0
  0
SEQEND
  5
5AA
  8
0
  6
CONTINUOUS
 62
     8
  0
POLYLINE
  5
163
  8
0
  6
CONTINUOUS
 62
     8
 66
     1
 10
0.0
 20
0.0
 30
0.0
  0
VERTEX
  5
56A
  8
0
  6
CONTINUOUS
 62
     8
 10
119.9840827044
 20
216.4192306625
 30
0.0
  0
VERTEX
  5
56B
  8
0
  6
CONTINUOUS
 62
     8
 10
119.6382126939
 20
216.4148626361
 30
0.0
  0
VERTEX
  5
56C
  8
0
  6
CONTINUOUS
 62
     8
 10
119.2985495552
 20
216.4477723849
 30
0.0
  0
VERTEX
  5
56D
  8
0
  6
CONTINUOUS
 62
     8
 10
118.9809789071
 20
216.5164215115
 30
0.0
  0
VERTEX
  5
56E
  8
0
  6
CONTINUOUS
 62
     8
 10
118.7003462527
 20
216.6176004451
 30
0.0
  0
VERTEX
  5
56F
  8
0
  6
CONTINUOUS
 62
     8
 10
118.4697758569
 20
216.7465772356
 30
0.0
  0
VERTEX
  5
570
  8
0
  6
CONTINUOUS
 62
     8
 10
118.3000477328
 20
216.8973211954
 30
0.0
  0
VERTEX
  5
571
  8
0
  6
CONTINUOUS
 62
     8
 10
118.1991005352
 20
217.0627843944
 30
0.0
  0
VERTEX
  5
572
  8
0
  6
CONTINUOUS
 62
     8
 10
118.1711239791
 20
217.2014537207
 30
0.0
  0
SEQEND
  5
5A9
  8
0
  6
CONTINUOUS
 62
     8
  0
POLYLINE
  5
164
  8
0
  6
CONTINUOUS
 62
     8
 66
     1
 10
0.0
 20
0.0
 30
0.0
  0
VERTEX
  5
573
  8
0
  6
CONTINUOUS
 62
     8
 10
121.3709792467
 20
217.2134502316
 30
0.0
  0
VERTEX
  5
574
  8
0
  6
CONTINUOUS
 62
     8
 10
121.3559376466
 20
217.1026539503
 30
0.0
  0
VERTEX
  5
575
  8
0
  6
CONTINUOUS
 62
     8
 10
121.2718244561
 20
216.9348532974
 30
0.0
  0
VERTEX
  5
576
  8
0
  6
CONTINUOUS
 62
     8
 10
121.1175363943
 20
216.7800169803
 30
0.0
  0
VERTEX
  5
577
  8
0
  6
CONTINUOUS
 62
     8
 10
120.900282714
 20
216.6453841734
 30
0.0
  0
VERTEX
  5
578
  8
0
  6
CONTINUOUS
 62
     8
 10
120.6302239023
 20
216.5372505132
 30
0.0
  0
VERTEX
  5
579
  8
0
  6
CONTINUOUS
 62
     8
 10
120.3199900592
 20
216.4606729185
 30
0.0
  0
VERTEX
  5
57A
  8
0
  6
CONTINUOUS
 62
     8
 10
119.9840827044
 20
216.4192306625
 30
0.0
  0
SEQEND
  5
5A8
  8
0
  6
CONTINUOUS
 62
     8
  0
POLYLINE
  5
165
  8
0
  6
CONTINUOUS
 62
     8
 66
     1
 10
0.0
 20
0.0
 30
0.0
  0
VERTEX
  5
57B
  8
0
  6
CONTINUOUS
 62
     8
 10
92.3316595938
 20
192.4808836057
 30
0.0
  0
VERTEX
  5
57C
  8
0
  6
CONTINUOUS
 62
     8
 10
92.3228624473
 20
192.4295630363
 30
0.0
  0
VERTEX
  5
57D
  8
0
  6
CONTINUOUS
 62
     8
 10
92.2521965711
 20
192.331548161
 30
0.0
  0
VERTEX
  5
57E
  8
0
  6
CONTINUOUS
 62
     8
 10
92.1187462548
 20
192.251528932
 30
0.0
  0
VERTEX
  5
57F
  8
0
  6
CONTINUOUS
 62
     8
 10
91.9386076675
 20
192.1991567112
 30
0.0
  0
VERTEX
  5
580
  8
0
  6
CONTINUOUS
 62
     8
 10
91.7335078953
 20
192.1807485196
 30
0.0
  0
VERTEX
  5
581
  8
0
  6
CONTINUOUS
 62
     8
 10
91.528185349
 20
192.1985245894
 30
0.0
  0
VERTEX
  5
582
  8
0
  6
CONTINUOUS
 62
     8
 10
91.3474047487
 20
192.2503408219
 30
0.0
  0
VERTEX
  5
583
  8
0
  6
CONTINUOUS
 62
     8
 10
91.2129711072
 20
192.3299474717
 30
0.0
  0
VERTEX
  5
584
  8
0
  6
CONTINUOUS
 62
     8
 10
91.1410987839
 20
192.4277428511
 30
0.0
  0
VERTEX
  5
585
  8
0
  6
CONTINUOUS
 62
     8
 10
91.1316597239
 20
192.4806008702
 30
0.0
  0
SEQEND
  5
5A7
  8
0
  6
CONTINUOUS
 62
     8
  0
POLYLINE
  5
166
  8
0
  6
CONTINUOUS
 62
     8
 66
     1
 10
0.0
 20
0.0
 30
0.0
  0
VERTEX
  5
586
  8
0
  6
CONTINUOUS
 62
     8
 10
90.1120366726
 20
198.1288809152
 30
0.0
  0
VERTEX
  5
587
  8
0
  6
CONTINUOUS
 62
     8
 10
89.9803423701
 20
198.1992100313
 30
0.0
  0
VERTEX
  5
588
  8
0
  6
CONTINUOUS
 62
     8
 10
89.8110673259
 20
198.2117173227
 30
0.0
  0
VERTEX
  5
589
  8
0
  6
CONTINUOUS
 62
     8
 10
89.6309286455
 20
198.1593451825
 30
0.0
  0
VERTEX
  5
58A
  8
0
  6
CONTINUOUS
 62
     8
 10
89.461653775
 20
198.0484104132
 30
0.0
  0
VERTEX
  5
58B
  8
0
  6
CONTINUOUS
 62
     8
 10
89.3236595637
 20
197.8922924868
 30
0.0
  0
VERTEX
  5
58C
  8
0
  6
CONTINUOUS
 62
     8
 10
89.2335901025
 20
197.7098242839
 30
0.0
  0
VERTEX
  5
58D
  8
0
  6
CONTINUOUS
 62
     8
 10
89.2023094309
 20
197.5230104977
 30
0.0
  0
VERTEX
  5
58E
  8
0
  6
CONTINUOUS
 62
     8
 10
89.2335901025
 20
197.3543852334
 30
0.0
  0
VERTEX
  5
58F
  8
0
  6
CONTINUOUS
 62
     8
 10
89.3236595637
 20
197.2242892406
 30
0.0
  0
VERTEX
  5
590
  8
0
  6
CONTINUOUS
 62
     8
 10
89.3287778301
 20
197.2197585044
 30
0.0
  0
SEQEND
  5
5A6
  8
0
  6
CONTINUOUS
 62
     8
  0
POLYLINE
  5
167
  8
0
  6
CONTINUOUS
 62
     8
 66
     1
 10
0.0
 20
0.0
 30
0.0
  0
VERTEX
  5
591
  8
0
  6
CONTINUOUS
 62
     8
 10
86.0908712856
 20
201.5866678577
 30
0.0
  0
VERTEX
  5
592
  8
0
  6
CONTINUOUS
 62
     8
 10
85.9590191108
 20
201.6571342179
 30
0.0
  0
VERTEX
  5
593
  8
0
  6
CONTINUOUS
 62
     8
 10
85.7897438803
 20
201.6696416705
 30
0.0
  0
VERTEX
  5
594
  8
0
  6
CONTINUOUS
 62
     8
 10
85.6096053861
 20
201.617269369
 30
0.0
  0
VERTEX
  5
595
  8
0
  6
CONTINUOUS
 62
     8
 10
85.4403306088
 20
201.5063345191
 30
0.0
  0
VERTEX
  5
596
  8
0
  6
CONTINUOUS
 62
     8
 10
85.3023363975
 20
201.3502165927
 30
0.0
  0
VERTEX
  5
597
  8
0
  6
CONTINUOUS
 62
     8
 10
85.2122666569
 20
201.1677486318
 30
0.0
  0
VERTEX
  5
598
  8
0
  6
CONTINUOUS
 62
     8
 10
85.1809861715
 20
200.9809346843
 30
0.0
  0
VERTEX
  5
599
  8
0
  6
CONTINUOUS
 62
     8
 10
85.2122666569
 20
200.8123095812
 30
0.0
  0
VERTEX
  5
59A
  8
0
  6
CONTINUOUS
 62
     8
 10
85.3023363975
 20
200.6822133465
 30
0.0
  0
VERTEX
  5
59B
  8
0
  6
CONTINUOUS
 62
     8
 10
85.3084780614
 20
200.6768009083
 30
0.0
  0
SEQEND
  5
5A5
  8
0
  6
CONTINUOUS
 62
     8
  0
POLYLINE
  5
168
  8
0
  6
CONTINUOUS
 62
     8
 66
     1
 10
0.0
 20
0.0
 30
0.0
  0
VERTEX
  5
59C
  8
0
  6
CONTINUOUS
 62
     8
 10
87.4485365256
 20
203.6066828493
 30
0.0
  0
VERTEX
  5
59D
  8
0
  6
CONTINUOUS
 62
     8
 10
87.4303478175
 20
203.8000428717
 30
0.0
  0
VERTEX
  5
59E
  8
0
  6
CONTINUOUS
 62
     8
 10
87.3779754212
 20
204.0013598615
 30
0.0
  0
VERTEX
  5
59F
  8
0
  6
CONTINUOUS
 62
     8
 10
87.2977367088
 20
204.1863554101
 30
0.0
  0
VERTEX
  5
5A0
  8
0
  6
CONTINUOUS
 62
     8
 10
87.1993091269
 20
204.3327138873
 30
0.0
  0
VERTEX
  5
5A1
  8
0
  6
CONTINUOUS
 62
     8
 10
87.0945650793
 20
204.4227830258
 30
0.0
  0
VERTEX
  5
5A2
  8
0
  6
CONTINUOUS
 62
     8
 10
86.9961376588
 20
204.4456995464
 30
0.0
  0
VERTEX
  5
5A3
  8
0
  6
CONTINUOUS
 62
     8
 10
86.979503173
 20
204.4421923639
 30
0.0
  0
SEQEND
  5
5A4
  8
0
  6
CONTINUOUS
 62
     8
  0
ARC
  5
169
  8
0
  6
CONTINUOUS
 62
     8
 10
87.1553147226
 20
203.543838022
 30
0.0
 40
0.2998808064996544
 50
302.1995119511
 51
12.0969211727
  0
TEXT
  5
16A
  8
0
  6
CONTINUOUS
 62
     7
 10
0.0
 20
6.732893805
 30
0.0
 40
3.633
  1
Edition tudiante de SolidWorks.
 41
0.6671875
 11
0.0
 21
5.4495
 31
0.0
 73
     1
  0
TEXT
  5
16B
  8
0
  6
CONTINUOUS
 62
     7
 10
0.0
 20
1.283393805
 30
0.0
 40
3.633
  1
A usage universitaire uniquement.
 41
0.6681818182
 11
0.0
 21
0.0
 31
0.0
 73
     1
  0
ENDSEC
  0
EOF
