  0
SECTION
  2
HEADER
  9
$ACADVER
  1
AC1009
  9
$DWGCODEPAGE
  3
ansi_1252
  9
$INSBASE
 10
0.0
 20
0.0
 30
0.0
  9
$EXTMIN
 10
0.0
 20
0.0
 30
0.0
  9
$EXTMAX
 10
210.0
 20
297.0
 30
0.0
  9
$LIMMIN
 10
0.0
 20
0.0
  9
$LIMMAX
 10
210.0
 20
297.0
  9
$ORTHOMODE
 70
     0
  9
$REGENMODE
 70
     1
  9
$FILLMODE
 70
     1
  9
$QTEXTMODE
 70
     0
  9
$MIRRTEXT
 70
     1
  9
$DRAGMODE
 70
     2
  9
$LTSCALE
 40
1.0
  9
$OSMODE
 70
    37
  9
$ATTMODE
 70
     1
  9
$TEXTSIZE
 40
3.5
  9
$TRACEWID
 40
1.0
  9
$TEXTSTYLE
  7
STANDARD
  9
$CLAYER
  8
0
  9
$CELTYPE
  6
BYLAYER
  9
$CECOLOR
 62
   256
  9
$DIMSCALE
 40
1.0
  9
$DIMASZ
 40
3.302
  9
$DIMEXO
 40
1.0
  9
$DIMDLI
 40
3.75
  9
$DIMRND
 40
0.0
  9
$DIMDLE
 40
0.0
  9
$DIMEXE
 40
1.0
  9
$DIMTP
 40
0.0
  9
$DIMTM
 40
0.0
  9
$DIMTXT
 40
3.5
  9
$DIMCEN
 40
2.5
  9
$DIMTSZ
 40
0.0
  9
$DIMTOL
 70
     0
  9
$DIMLIM
 70
     0
  9
$DIMTIH
 70
     1
  9
$DIMTOH
 70
     1
  9
$DIMSE1
 70
     0
  9
$DIMSE2
 70
     0
  9
$DIMTAD
 70
     1
  9
$DIMZIN
 70
     0
  9
$DIMBLK
  1

  9
$DIMASO
 70
     1
  9
$DIMSHO
 70
     1
  9
$DIMPOST
  1

  9
$DIMAPOST
  1

  9
$DIMALT
 70
     0
  9
$DIMALTD
 70
     3
  9
$DIMALTF
 40
0.0393700787
  9
$DIMLFAC
 40
5.0
  9
$DIMTOFL
 70
     1
  9
$DIMTVP
 40
0.0
  9
$DIMTIX
 70
     0
  9
$DIMSOXD
 70
     0
  9
$DIMSAH
 70
     0
  9
$DIMBLK1
  1

  9
$DIMBLK2
  1

  9
$DIMSTYLE
  2
ISO-25
  9
$DIMCLRD
 70
     0
  9
$DIMCLRE
 70
     0
  9
$DIMCLRT
 70
     0
  9
$DIMTFAC
 40
1.0
  9
$DIMGAP
 40
1.524
  9
$LUNITS
 70
     2
  9
$LUPREC
 70
     2
  9
$SKETCHINC
 40
1.0
  9
$FILLETRAD
 40
10.0
  9
$AUNITS
 70
     0
  9
$AUPREC
 70
     2
  9
$MENU
  1
.
  9
$ELEVATION
 40
0.0
  9
$PELEVATION
 40
0.0
  9
$THICKNESS
 40
0.0
  9
$LIMCHECK
 70
     0
  9
$CHAMFERA
 40
10.0
  9
$CHAMFERB
 40
10.0
  9
$SKPOLY
 70
     0
  9
$TDCREATE
 40
2456604.515777245
  9
$TDUPDATE
 40
2456604.515778333
  9
$TDINDWG
 40
0.0000000116
  9
$TDUSRTIMER
 40
0.0000000116
  9
$USRTIMER
 70
     1
  9
$ANGBASE
 50
0.0
  9
$ANGDIR
 70
     0
  9
$PDMODE
 70
     0
  9
$PDSIZE
 40
-1.0
  9
$PLINEWID
 40
0.0
  9
$COORDS
 70
     1
  9
$SPLFRAME
 70
     0
  9
$SPLINETYPE
 70
     6
  9
$SPLINESEGS
 70
     8
  9
$ATTDIA
 70
     0
  9
$ATTREQ
 70
     1
  9
$HANDLING
 70
     1
  9
$HANDSEED
  5
184
  9
$SURFTAB1
 70
     6
  9
$SURFTAB2
 70
     6
  9
$SURFTYPE
 70
     6
  9
$SURFU
 70
     6
  9
$SURFV
 70
     6
  9
$UCSNAME
  2

  9
$UCSORG
 10
0.0
 20
0.0
 30
0.0
  9
$UCSXDIR
 10
1.0
 20
0.0
 30
0.0
  9
$UCSYDIR
 10
0.0
 20
1.0
 30
0.0
  9
$PUCSNAME
  2

  9
$PUCSORG
 10
0.0
 20
0.0
 30
0.0
  9
$PUCSXDIR
 10
1.0
 20
0.0
 30
0.0
  9
$PUCSYDIR
 10
0.0
 20
1.0
 30
0.0
  9
$USERI1
 70
     0
  9
$USERI2
 70
     0
  9
$USERI3
 70
     0
  9
$USERI4
 70
     0
  9
$USERI5
 70
     0
  9
$USERR1
 40
0.0
  9
$USERR2
 40
0.0
  9
$USERR3
 40
0.0
  9
$USERR4
 40
0.0
  9
$USERR5
 40
0.0
  9
$WORLDVIEW
 70
     1
  9
$SHADEDGE
 70
     3
  9
$SHADEDIF
 70
    70
  9
$TILEMODE
 70
     1
  9
$MAXACTVP
 70
    64
  9
$PLIMCHECK
 70
     0
  9
$PEXTMIN
 10
1.0000000000E+20
 20
1.0000000000E+20
 30
1.0000000000E+20
  9
$PEXTMAX
 10
-1.0000000000E+20
 20
-1.0000000000E+20
 30
-1.0000000000E+20
  9
$PLIMMIN
 10
0.0
 20
0.0
  9
$PLIMMAX
 10
420.0
 20
297.0
  9
$UNITMODE
 70
     0
  9
$VISRETAIN
 70
     1
  9
$PLINEGEN
 70
     0
  9
$PSLTSCALE
 70
     1
  0
ENDSEC
  0
SECTION
  2
TABLES
  0
TABLE
  2
VPORT
 70
     1
  0
VPORT
  2
*ACTIVE
 70
     0
 10
0.0
 20
0.0
 11
1.0
 21
1.0
 12
105.0
 22
148.5
 13
0.0
 23
0.0
 14
10.0
 24
10.0
 15
10.0
 25
10.0
 16
0.0
 26
0.0
 36
1.0
 17
0.0
 27
0.0
 37
0.0
 40
297.0
 41
0.7070707071
 42
50.0
 43
0.0
 44
0.0
 50
0.0
 51
0.0
 71
     0
 72
  2000
 73
     1
 74
     3
 75
     0
 76
     0
 77
     0
 78
     0
  0
ENDTAB
  0
TABLE
  2
LTYPE
 70
     8
  0
LTYPE
  2
CONTINUOUS
 70
     0
  3
Solid line
 72
    65
 73
     0
 40
0.0
  0
LTYPE
  2
SLD-CONTINUE
 70
     0
  3
SolidWorks Line Style
 72
    65
 73
     0
 40
0.0
  0
LTYPE
  2
SLD-POINTILLÉE
 70
     0
  3
SolidWorks Line Style
 72
    65
 73
     2
 40
1.905
 49
1.27
 49
-0.635
  0
LTYPE
  2
SLD-MIXTE-ET-TIRETS
 70
     0
  3
SolidWorks Line Style
 72
    65
 73
     6
 40
12.7
 49
6.35
 49
-1.27
 49
1.27
 49
-1.27
 49
1.27
 49
-1.27
  0
LTYPE
  2
SLD-MIXTE
 70
     0
  3
SolidWorks Line Style
 72
    65
 73
     4
 40
10.16
 49
6.35
 49
-1.27
 49
1.27
 49
-1.27
  0
LTYPE
  2
SLD-MIXTE-LONG
 70
     0
  3
SolidWorks Line Style
 72
    65
 73
     4
 40
34.29
 49
30.48
 49
-1.27
 49
1.27
 49
-1.27
  0
LTYPE
  2
SLD-POINT
 70
     0
  3
SolidWorks Line Style
 72
    65
 73
     2
 40
0.635
 49
0.0
 49
-0.635
  0
LTYPE
  2
SLD-MIXTE-FIN-ÉPAIS
 70
     0
  3
SolidWorks Line Style
 72
    65
 73
     4
 40
10.16
 49
6.35
 49
-1.27
 49
1.27
 49
-1.27
  0
ENDTAB
  0
TABLE
  2
LAYER
 70
     2
  0
LAYER
  2
0
 70
     0
 62
     7
  6
CONTINUOUS
  0
LAYER
  2
DEFPOINTS
 70
     0
 62
     7
  6
CONTINUOUS
  0
ENDTAB
  0
TABLE
  2
STYLE
 70
     1
  0
STYLE
  2
STANDARD
 70
     0
 40
0.0
 41
1.0
 50
0.0
 71
     0
 42
3.5
  3
txt
  4

  0
ENDTAB
  0
TABLE
  2
VIEW
 70
     0
  0
ENDTAB
  0
TABLE
  2
UCS
 70
     0
  0
ENDTAB
  0
TABLE
  2
APPID
 70
     1
  0
APPID
  2
ACAD
 70
     0
  0
ENDTAB
  0
TABLE
  2
DIMSTYLE
 70
     1
  0
DIMSTYLE
  2
ISO-25
 70
     0
  3

  4

  5

  6

  7

 40
1.0
 41
2.5
 42
0.625
 43
3.75
 44
1.25
 45
0.0
 46
0.0
 47
0.0
 48
0.0
140
2.5
141
2.5
142
0.0
143
0.0393700787
144
1.0
145
0.0
146
1.0
147
0.625
 71
     0
 72
     0
 73
     0
 74
     0
 75
     0
 76
     0
 77
     1
 78
     8
170
     0
171
     3
172
     1
173
     0
174
     0
175
     0
176
     0
177
     0
178
     0
  0
ENDTAB
  0
ENDSEC
  0
SECTION
  2
BLOCKS
  0
BLOCK
  8
0
  2
$MODEL_SPACE
 70
     0
 10
0.0
 20
0.0
 30
0.0
  3
$MODEL_SPACE
  1

  0
ENDBLK
  5
21
  8
0
  0
BLOCK
 67
     1
  8
0
  2
$PAPER_SPACE
 70
     0
 10
0.0
 20
0.0
 30
0.0
  3
$PAPER_SPACE
  1

  0
ENDBLK
  5
1D
 67
     1
  8
0
  0
ENDSEC
  0
SECTION
  2
ENTITIES
  0
LINE
  5
47
  8
0
  6
SLD-CONTINUE
 62
     7
 10
111.6829517661
 20
114.2485254579
 30
0.0
 11
113.0971653576
 21
112.8343121284
 31
0.0
  0
LINE
  5
48
  8
0
  6
SLD-CONTINUE
 62
     7
 10
113.309297357
 20
113.0464450591
 30
0.0
 11
111.8950837946
 21
114.4606583887
 31
0.0
  0
LINE
  5
49
  8
0
  6
SLD-CONTINUE
 62
     7
 10
109.1020121195
 20
111.6675884598
 30
0.0
 11
110.5162255655
 21
110.253371405
 31
0.0
  0
LINE
  5
4A
  8
0
  6
SLD-CONTINUE
 62
     7
 10
110.7283575649
 20
110.4655043357
 30
0.0
 11
109.314144119
 21
111.8797176653
 31
0.0
  0
LINE
  5
4B
  8
0
  6
SLD-CONTINUE
 62
     7
 10
105.990742096
 20
108.5563154095
 30
0.0
 11
107.4049558912
 21
107.1421020799
 31
0.0
  0
LINE
  5
4C
  8
0
  6
SLD-CONTINUE
 62
     7
 10
107.6170878907
 20
107.3542350107
 30
0.0
 11
106.2028740954
 21
108.7684483403
 31
0.0
  0
LINE
  5
4D
  8
0
  6
SLD-CONTINUE
 62
     7
 10
147.0382895742
 20
149.6038624221
 30
0.0
 11
148.4525029038
 21
148.1896528178
 31
0.0
  0
LINE
  5
4E
  8
0
  6
SLD-CONTINUE
 62
     7
 10
148.6646358346
 20
148.4017857486
 30
0.0
 11
147.250422505
 21
149.8159953528
 31
0.0
  0
LINE
  5
4F
  8
0
  6
SLD-CONTINUE
 62
     7
 10
144.4573525761
 20
147.0229291492
 30
0.0
 11
145.8715659057
 21
145.6087120944
 31
0.0
  0
LINE
  5
50
  8
0
  6
SLD-CONTINUE
 62
     7
 10
146.0836951111
 20
145.8208450251
 30
0.0
 11
144.6694817816
 21
147.2350546294
 31
0.0
  0
LINE
  5
51
  8
0
  6
SLD-CONTINUE
 62
     7
 10
141.3460813885
 20
143.9116560989
 30
0.0
 11
142.760294718
 21
142.4974390441
 31
0.0
  0
LINE
  5
52
  8
0
  6
SLD-CONTINUE
 62
     7
 10
142.9724276488
 20
142.7095719748
 30
0.0
 11
141.5582124566
 21
144.1237890297
 31
0.0
  0
ARC
  5
53
  8
0
  6
SLD-CONTINUE
 62
     7
 10
105.4991127612
 20
175.9046289816
 30
0.0
 40
0.8000000000000093
 50
271.8943625591
 51
354.2039665194
  0
ARC
  5
54
  8
0
  6
SLD-CONTINUE
 62
     7
 10
110.6016493158
 20
175.3866891039
 30
0.0
 40
4.328756282762049
 50
136.1080214592
 51
174.2039665194
  0
ARC
  5
55
  8
0
  6
SLD-CONTINUE
 62
     7
 10
105.8602587427
 20
164.9855997858
 30
0.0
 40
13.50000000000002
 50
78.8618761109
 51
83.0998593257
  0
ARC
  5
56
  8
0
  6
SLD-CONTINUE
 62
     7
 10
104.5726268077
 20
176.3436562907
 30
0.0
 40
4.328756282762045
 50
347.7577689171
 51
25.8537139774
  0
ARC
  5
57
  8
0
  6
SLD-CONTINUE
 62
     7
 10
109.5847544922
 20
175.2561283219
 30
0.0
 40
0.8000000000000193
 50
167.7577689171
 51
250.0673728775
  0
ARC
  5
58
  8
0
  6
SLD-CONTINUE
 62
     7
 10
105.8602587427
 20
164.9855997858
 30
0.0
 40
10.12499999999999
 50
69.3943625591
 51
70.0673728775
  0
ARC
  5
59
  8
0
  6
SLD-CONTINUE
 62
     7
 10
109.7051349329
 20
175.2116719585
 30
0.0
 40
0.8000000000000206
 50
249.3943625591
 51
331.7039665194
  0
ARC
  5
5A
  8
0
  6
SLD-CONTINUE
 62
     7
 10
114.2210570094
 20
172.7805017039
 30
0.0
 40
4.328756282762041
 50
113.6080214592
 51
151.7039665194
  0
ARC
  5
5B
  8
0
  6
SLD-CONTINUE
 62
     7
 10
105.8602587427
 20
164.9855997858
 30
0.0
 40
13.5
 50
56.3618761109
 51
60.5998593257
  0
ARC
  5
5C
  8
0
  6
SLD-CONTINUE
 62
     7
 10
109.0171820009
 20
175.9718311283
 30
0.0
 40
4.328756282762031
 50
325.2577689172
 51
3.3537139774
  0
ARC
  5
5D
  8
0
  6
SLD-CONTINUE
 62
     7
 10
113.231605247
 20
173.0490280712
 30
0.0
 40
0.8000000000000139
 50
145.2577689172
 51
227.5673728775
  0
ARC
  5
5E
  8
0
  6
SLD-CONTINUE
 62
     7
 10
105.8602587427
 20
164.9855997858
 30
0.0
 40
10.12500000000002
 50
46.8943625591
 51
47.5673728775
  0
ARC
  5
5F
  8
0
  6
SLD-CONTINUE
 62
     7
 10
113.3258095585
 20
172.9618881467
 30
0.0
 40
0.8000000000000084
 50
226.8943625591
 51
309.2039665194
  0
ARC
  5
60
  8
0
  6
SLD-CONTINUE
 62
     7
 10
116.5676089578
 20
168.9876111479
 30
0.0
 40
4.328756282762039
 50
91.1080214592
 51
129.2039665194
  0
ARC
  5
61
  8
0
  6
SLD-CONTINUE
 62
     7
 10
105.8602587427
 20
164.9855997858
 30
0.0
 40
13.50000000000001
 50
33.8618761109
 51
38.0998593257
  0
ARC
  5
62
  8
0
  6
SLD-CONTINUE
 62
     7
 10
112.9811242456
 20
173.9274518344
 30
0.0
 40
4.328756282762044
 50
302.7577689172
 51
340.8537139774
  0
ARC
  5
63
  8
0
  6
SLD-CONTINUE
 62
     7
 10
115.756235318
 20
169.6143439591
 30
0.0
 40
0.800000000000045
 50
122.7577689171
 51
205.0673728775
  0
ARC
  5
64
  8
0
  6
SLD-CONTINUE
 62
     7
 10
105.8602587427
 20
164.9855997858
 30
0.0
 40
10.125
 50
24.3943625591
 51
25.0673728775
  0
ARC
  5
65
  8
0
  6
SLD-CONTINUE
 62
     7
 10
115.8099217479
 20
169.4977867371
 30
0.0
 40
0.8000000000000166
 50
204.3943625591
 51
286.7039665194
  0
ARC
  5
66
  8
0
  6
SLD-CONTINUE
 62
     7
 10
117.2840638983
 20
164.5854506403
 30
0.0
 40
4.328756282762055
 50
68.6080214592
 51
106.7039665194
  0
ARC
  5
67
  8
0
  6
SLD-CONTINUE
 62
     7
 10
105.8602587427
 20
164.9855997858
 30
0.0
 40
13.50000000000002
 50
11.3618761109
 51
15.5998593257
  0
ARC
  5
68
  8
0
  6
SLD-CONTINUE
 62
     7
 10
115.8609792683
 20
170.5217566242
 30
0.0
 40
4.32875628276206
 50
280.2577689171
 51
318.3537139774
  0
ARC
  5
69
  8
0
  6
SLD-CONTINUE
 62
     7
 10
116.7742926626
 20
165.4749755064
 30
0.0
 40
0.7999999999999814
 50
100.2577689171
 51
182.5673728775
  0
ARC
  5
6A
  8
0
  6
SLD-CONTINUE
 62
     7
 10
105.8602587427
 20
164.9855997858
 30
0.0
 40
10.12500000000002
 50
1.8943625591
 51
2.5673728775
  0
ARC
  5
6B
  8
0
  6
SLD-CONTINUE
 62
     7
 10
116.7792879386
 20
165.3467457673
 30
0.0
 40
0.8000000000000057
 50
181.8943625591
 51
264.2039665194
  0
ARC
  5
6C
  8
0
  6
SLD-CONTINUE
 62
     7
 10
116.2613480609
 20
160.2442092127
 30
0.0
 40
4.32875628276204
 50
46.1080214592
 51
84.2039665194
  0
ARC
  5
6D
  8
0
  6
SLD-CONTINUE
 62
     7
 10
105.8602587427
 20
164.9855997858
 30
0.0
 40
13.50000000000002
 50
348.8618761109
 51
353.0998593257
  0
ARC
  5
6E
  8
0
  6
SLD-CONTINUE
 62
     7
 10
117.2183152477
 20
166.2732317208
 30
0.0
 40
4.328756282762061
 50
257.7577689172
 51
295.8537139774
  0
ARC
  5
6F
  8
0
  6
SLD-CONTINUE
 62
     7
 10
116.1307872789
 20
161.2611040363
 30
0.0
 40
0.7999999999999964
 50
77.7577689171
 51
160.0673728775
  0
ARC
  5
70
  8
0
  6
SLD-CONTINUE
 62
     7
 10
105.8602587427
 20
164.9855997858
 30
0.0
 40
10.12500000000001
 50
339.3943625591
 51
340.0673728775
  0
ARC
  5
71
  8
0
  6
SLD-CONTINUE
 62
     7
 10
116.0863309155
 20
161.1407235956
 30
0.0
 40
0.8000000000000036
 50
159.3943625591
 51
241.7039665194
  0
ARC
  5
72
  8
0
  6
SLD-CONTINUE
 62
     7
 10
113.6551606609
 20
156.6248015191
 30
0.0
 40
4.328756282762035
 50
23.6080214592
 51
61.7039665194
  0
ARC
  5
73
  8
0
  6
SLD-CONTINUE
 62
     7
 10
105.8602587427
 20
164.9855997858
 30
0.0
 40
13.50000000000001
 50
326.3618761109
 51
330.5998593257
  0
ARC
  5
74
  8
0
  6
SLD-CONTINUE
 62
     7
 10
116.8464900853
 20
161.8286765276
 30
0.0
 40
4.328756282762059
 50
235.2577689172
 51
273.3537139774
  0
ARC
  5
75
  8
0
  6
SLD-CONTINUE
 62
     7
 10
113.9236870282
 20
157.6142532815
 30
0.0
 40
0.8000000000000036
 50
55.2577689172
 51
137.5673728775
  0
ARC
  5
76
  8
0
  6
SLD-CONTINUE
 62
     7
 10
105.8602587427
 20
164.9855997858
 30
0.0
 40
10.12500000000001
 50
316.8943625591
 51
317.5673728775
  0
ARC
  5
77
  8
0
  6
SLD-CONTINUE
 62
     7
 10
113.8365471037
 20
157.52004897
 30
0.0
 40
0.8000000000000286
 50
136.8943625591
 51
219.2039665194
  0
ARC
  5
78
  8
0
  6
SLD-CONTINUE
 62
     7
 10
109.8622701049
 20
154.2782495707
 30
0.0
 40
4.328756282762044
 50
1.1080214592
 51
39.2039665194
  0
ARC
  5
79
  8
0
  6
SLD-CONTINUE
 62
     7
 10
105.8602587427
 20
164.9855997858
 30
0.0
 40
13.50000000000003
 50
303.8618761109
 51
308.0998593257
  0
ARC
  5
7A
  8
0
  6
SLD-CONTINUE
 62
     7
 10
114.8021107914
 20
157.8647342829
 30
0.0
 40
4.32875628276204
 50
212.7577689171
 51
250.8537139774
  0
ARC
  5
7B
  8
0
  6
SLD-CONTINUE
 62
     7
 10
110.4890029161
 20
155.0896232105
 30
0.0
 40
0.7999999999999818
 50
32.7577689171
 51
115.0673728775
  0
ARC
  5
7C
  8
0
  6
SLD-CONTINUE
 62
     7
 10
105.8602587427
 20
164.9855997858
 30
0.0
 40
10.12500000000002
 50
294.3943625591
 51
295.0673728775
  0
ARC
  5
7D
  8
0
  6
SLD-CONTINUE
 62
     7
 10
110.3724456941
 20
155.0359367806
 30
0.0
 40
0.8000000000000118
 50
114.3943625591
 51
196.7039665194
  0
ARC
  5
7E
  8
0
  6
SLD-CONTINUE
 62
     7
 10
105.4601095973
 20
153.5617946303
 30
0.0
 40
4.328756282762042
 50
338.6080214592
 51
16.7039665194
  0
ARC
  5
7F
  8
0
  6
SLD-CONTINUE
 62
     7
 10
105.8602587427
 20
164.9855997858
 30
0.0
 40
13.50000000000002
 50
281.3618761109
 51
285.5998593257
  0
ARC
  5
80
  8
0
  6
SLD-CONTINUE
 62
     7
 10
111.3964155812
 20
154.9848792602
 30
0.0
 40
4.328756282762044
 50
190.2577689171
 51
228.3537139774
  0
ARC
  5
81
  8
0
  6
SLD-CONTINUE
 62
     7
 10
106.3496344633
 20
154.0715658659
 30
0.0
 40
0.7999999999999993
 50
10.2577689171
 51
92.5673728775
  0
ARC
  5
82
  8
0
  6
SLD-CONTINUE
 62
     7
 10
105.8602587427
 20
164.9855997858
 30
0.0
 40
10.125
 50
271.8943625591
 51
272.5673728775
  0
ARC
  5
83
  8
0
  6
SLD-CONTINUE
 62
     7
 10
106.2214047243
 20
154.0665705899
 30
0.0
 40
0.8000000000000376
 50
91.8943625591
 51
174.2039665194
  0
ARC
  5
84
  8
0
  6
SLD-CONTINUE
 62
     7
 10
101.1188681697
 20
154.5845104676
 30
0.0
 40
4.32875628276205
 50
316.1080214592
 51
354.2039665194
  0
ARC
  5
85
  8
0
  6
SLD-CONTINUE
 62
     7
 10
105.8602587427
 20
164.9855997858
 30
0.0
 40
13.50000000000001
 50
258.8618761109
 51
263.0998593257
  0
ARC
  5
86
  8
0
  6
SLD-CONTINUE
 62
     7
 10
107.1478906777
 20
153.6275432808
 30
0.0
 40
4.328756282762045
 50
167.7577689171
 51
205.8537139774
  0
ARC
  5
87
  8
0
  6
SLD-CONTINUE
 62
     7
 10
102.1357629933
 20
154.7150712496
 30
0.0
 40
0.8000000000000025
 50
347.7577689172
 51
70.0673728775
  0
ARC
  5
88
  8
0
  6
SLD-CONTINUE
 62
     7
 10
105.8602587427
 20
164.9855997858
 30
0.0
 40
10.12500000000001
 50
249.3943625591
 51
250.0673728775
  0
ARC
  5
89
  8
0
  6
SLD-CONTINUE
 62
     7
 10
102.0153825526
 20
154.759527613
 30
0.0
 40
0.79999999999999
 50
69.3943625591
 51
151.7039665194
  0
ARC
  5
8A
  8
0
  6
SLD-CONTINUE
 62
     7
 10
97.4994604761
 20
157.1906978676
 30
0.0
 40
4.328756282762055
 50
293.6080214592
 51
331.7039665194
  0
ARC
  5
8B
  8
0
  6
SLD-CONTINUE
 62
     7
 10
105.8602587427
 20
164.9855997858
 30
0.0
 40
13.49999999999998
 50
236.3618761109
 51
240.5998593257
  0
ARC
  5
8C
  8
0
  6
SLD-CONTINUE
 62
     7
 10
102.7033354846
 20
153.9993684432
 30
0.0
 40
4.328756282762042
 50
145.2577689171
 51
183.3537139774
  0
ARC
  5
8D
  8
0
  6
SLD-CONTINUE
 62
     7
 10
98.4889122385
 20
156.9221715004
 30
0.0
 40
0.8000000000000067
 50
325.2577689171
 51
47.5673728775
  0
ARC
  5
8E
  8
0
  6
SLD-CONTINUE
 62
     7
 10
105.8602587427
 20
164.9855997858
 30
0.0
 40
10.12499999999999
 50
226.8943625591
 51
227.5673728775
  0
ARC
  5
8F
  8
0
  6
SLD-CONTINUE
 62
     7
 10
98.3947079269
 20
157.0093114248
 30
0.0
 40
0.7999999999999905
 50
46.8943625591
 51
129.2039665194
  0
ARC
  5
90
  8
0
  6
SLD-CONTINUE
 62
     7
 10
95.1529085277
 20
160.9835884236
 30
0.0
 40
4.328756282762038
 50
271.1080214592
 51
309.2039665194
  0
ARC
  5
91
  8
0
  6
SLD-CONTINUE
 62
     7
 10
105.8602587427
 20
164.9855997858
 30
0.0
 40
13.5
 50
213.8618761109
 51
218.0998593257
  0
ARC
  5
92
  8
0
  6
SLD-CONTINUE
 62
     7
 10
98.7393932399
 20
156.0437477371
 30
0.0
 40
4.328756282762034
 50
122.7577689171
 51
160.8537139774
  0
ARC
  5
93
  8
0
  6
SLD-CONTINUE
 62
     7
 10
95.9642821675
 20
160.3568556124
 30
0.0
 40
0.8000000000000134
 50
302.7577689171
 51
25.0673728775
  0
ARC
  5
94
  8
0
  6
SLD-CONTINUE
 62
     7
 10
105.8602587427
 20
164.9855997858
 30
0.0
 40
10.125
 50
204.3943625591
 51
205.0673728775
  0
ARC
  5
95
  8
0
  6
SLD-CONTINUE
 62
     7
 10
95.9105957376
 20
160.4734128344
 30
0.0
 40
0.8000000000000166
 50
24.3943625591
 51
106.7039665194
  0
ARC
  5
96
  8
0
  6
SLD-CONTINUE
 62
     7
 10
94.4364535872
 20
165.3857489312
 30
0.0
 40
4.32875628276206
 50
248.6080214592
 51
286.7039665194
  0
ARC
  5
97
  8
0
  6
SLD-CONTINUE
 62
     7
 10
105.8602587427
 20
164.9855997858
 30
0.0
 40
13.50000000000001
 50
191.3618761109
 51
195.5998593257
  0
ARC
  5
98
  8
0
  6
SLD-CONTINUE
 62
     7
 10
95.8595382172
 20
159.4494429473
 30
0.0
 40
4.328756282762032
 50
100.2577689171
 51
138.3537139774
  0
ARC
  5
99
  8
0
  6
SLD-CONTINUE
 62
     7
 10
94.9462248229
 20
164.4962240652
 30
0.0
 40
0.8000000000000184
 50
280.2577689172
 51
2.5673728775
  0
ARC
  5
9A
  8
0
  6
SLD-CONTINUE
 62
     7
 10
105.8602587427
 20
164.9855997858
 30
0.0
 40
10.125
 50
181.8943625591
 51
182.5673728775
  0
ARC
  5
9B
  8
0
  6
SLD-CONTINUE
 62
     7
 10
94.9412295469
 20
164.6244538042
 30
0.0
 40
0.8000000000000057
 50
1.8943625591
 51
84.2039665194
  0
ARC
  5
9C
  8
0
  6
SLD-CONTINUE
 62
     7
 10
95.4591694246
 20
169.7269903588
 30
0.0
 40
4.328756282762019
 50
226.1080214592
 51
264.2039665194
  0
ARC
  5
9D
  8
0
  6
SLD-CONTINUE
 62
     7
 10
105.8602587427
 20
164.9855997858
 30
0.0
 40
13.50000000000001
 50
168.8618761109
 51
173.0998593257
  0
ARC
  5
9E
  8
0
  6
SLD-CONTINUE
 62
     7
 10
94.5022022378
 20
163.6979678508
 30
0.0
 40
4.328756282762039
 50
77.7577689171
 51
115.8537139774
  0
ARC
  5
9F
  8
0
  6
SLD-CONTINUE
 62
     7
 10
95.5897302066
 20
168.7100955352
 30
0.0
 40
0.8000000000000059
 50
257.7577689172
 51
340.0673728775
  0
ARC
  5
A0
  8
0
  6
SLD-CONTINUE
 62
     7
 10
105.8602587427
 20
164.9855997858
 30
0.0
 40
10.12499999999999
 50
159.3943625591
 51
160.0673728775
  0
ARC
  5
A1
  8
0
  6
SLD-CONTINUE
 62
     7
 10
95.63418657
 20
168.8304759759
 30
0.0
 40
0.800000000000004
 50
339.3943625591
 51
61.7039665194
  0
ARC
  5
A2
  8
0
  6
SLD-CONTINUE
 62
     7
 10
98.0653568246
 20
173.3463980524
 30
0.0
 40
4.328756282762037
 50
203.6080214592
 51
241.7039665194
  0
ARC
  5
A3
  8
0
  6
SLD-CONTINUE
 62
     7
 10
105.8602587427
 20
164.9855997858
 30
0.0
 40
13.5
 50
146.3618761109
 51
150.5998593257
  0
ARC
  5
A4
  8
0
  6
SLD-CONTINUE
 62
     7
 10
94.8740274002
 20
168.1425230439
 30
0.0
 40
4.328756282762029
 50
55.2577689171
 51
93.3537139774
  0
ARC
  5
A5
  8
0
  6
SLD-CONTINUE
 62
     7
 10
97.7968304573
 20
172.35694629
 30
0.0
 40
0.8000000000000417
 50
235.2577689172
 51
317.5673728775
  0
ARC
  5
A6
  8
0
  6
SLD-CONTINUE
 62
     7
 10
105.8602587427
 20
164.9855997858
 30
0.0
 40
10.125
 50
136.8943625591
 51
137.5673728775
  0
ARC
  5
A7
  8
0
  6
SLD-CONTINUE
 62
     7
 10
97.8839703818
 20
172.4511506016
 30
0.0
 40
0.8000000000000286
 50
316.8943625591
 51
39.2039665194
  0
ARC
  5
A8
  8
0
  6
SLD-CONTINUE
 62
     7
 10
101.8582473806
 20
175.6929500008
 30
0.0
 40
4.328756282762059
 50
181.1080214592
 51
219.2039665194
  0
ARC
  5
A9
  8
0
  6
SLD-CONTINUE
 62
     7
 10
105.8602587427
 20
164.9855997858
 30
0.0
 40
13.50000000000002
 50
123.8618761109
 51
128.0998593257
  0
ARC
  5
AA
  8
0
  6
SLD-CONTINUE
 62
     7
 10
96.9184066941
 20
172.1064652886
 30
0.0
 40
4.328756282762058
 50
32.7577689171
 51
70.8537139774
  0
ARC
  5
AB
  8
0
  6
SLD-CONTINUE
 62
     7
 10
101.2315145694
 20
174.881576361
 30
0.0
 40
0.8000000000000057
 50
212.7577689171
 51
295.0673728775
  0
ARC
  5
AC
  8
0
  6
SLD-CONTINUE
 62
     7
 10
105.8602587427
 20
164.9855997858
 30
0.0
 40
10.12500000000001
 50
114.3943625591
 51
115.0673728775
  0
ARC
  5
AD
  8
0
  6
SLD-CONTINUE
 62
     7
 10
101.3480717914
 20
174.9352627909
 30
0.0
 40
0.8000000000000111
 50
294.3943625591
 51
16.7039665194
  0
ARC
  5
AE
  8
0
  6
SLD-CONTINUE
 62
     7
 10
106.2604078882
 20
176.4094049413
 30
0.0
 40
4.328756282762039
 50
158.6080214592
 51
196.7039665194
  0
ARC
  5
AF
  8
0
  6
SLD-CONTINUE
 62
     7
 10
105.8602587427
 20
164.9855997858
 30
0.0
 40
13.50000000000004
 50
101.3618761109
 51
105.5998593257
  0
ARC
  5
B0
  8
0
  6
SLD-CONTINUE
 62
     7
 10
100.3241019043
 20
174.9863203113
 30
0.0
 40
4.328756282762041
 50
10.2577689171
 51
48.3537139774
  0
ARC
  5
B1
  8
0
  6
SLD-CONTINUE
 62
     7
 10
105.3708830221
 20
175.8996337056
 30
0.0
 40
0.7999999999999948
 50
190.2577689171
 51
272.5673728775
  0
ARC
  5
B2
  8
0
  6
SLD-CONTINUE
 62
     7
 10
105.8602587427
 20
164.9855997858
 30
0.0
 40
10.125
 50
91.8943625591
 51
92.5673728775
  0
LINE
  5
B3
  8
0
  6
SLD-CONTINUE
 62
     7
 10
105.1602589388
 20
169.4856026345
 30
0.0
 11
105.1602589388
 21
169.6855985695
 31
0.0
  0
LINE
  5
B4
  8
0
  6
SLD-CONTINUE
 62
     7
 10
106.5602588889
 20
169.4856026345
 30
0.0
 11
106.5602588889
 21
169.6855985695
 31
0.0
  0
LINE
  5
B5
  8
0
  6
SLD-CONTINUE
 62
     7
 10
106.5602588889
 20
169.4856026345
 30
0.0
 11
105.1602589388
 21
169.4856026345
 31
0.0
  0
LINE
  5
B6
  8
0
  6
SLD-CONTINUE
 62
     7
 10
106.5602588889
 20
169.6855985695
 30
0.0
 11
105.1602589388
 21
169.6855985695
 31
0.0
  0
LINE
  5
B7
  8
0
  6
SLD-CONTINUE
 62
     7
 10
105.1602589388
 20
160.2856033617
 30
0.0
 11
105.1602589388
 21
160.4855992966
 31
0.0
  0
LINE
  5
B8
  8
0
  6
SLD-CONTINUE
 62
     7
 10
105.1602589388
 20
160.4855992966
 30
0.0
 11
106.5602588889
 21
160.4855992966
 31
0.0
  0
LINE
  5
B9
  8
0
  6
SLD-CONTINUE
 62
     7
 10
106.5602588889
 20
160.2856033617
 30
0.0
 11
106.5602588889
 21
160.4855992966
 31
0.0
  0
LINE
  5
BA
  8
0
  6
SLD-CONTINUE
 62
     7
 10
106.5602588889
 20
160.2856033617
 30
0.0
 11
105.1602589388
 21
160.2856033617
 31
0.0
  0
CIRCLE
  5
BB
  8
0
  6
SLD-CONTINUE
 62
     7
 10
105.8602587427
 20
164.9855997858
 30
0.0
 40
0.6000000000000227
  0
CIRCLE
  5
BC
  8
0
  6
SLD-CONTINUE
 62
     7
 10
105.8602587427
 20
164.9855997858
 30
0.0
 40
2.100000000000023
  0
CIRCLE
  5
BD
  8
0
  6
SLD-CONTINUE
 62
     7
 10
105.8602587427
 20
164.9855997858
 30
0.0
 40
6.0
  0
CIRCLE
  5
BE
  8
0
  6
SLD-CONTINUE
 62
     7
 10
105.8602587427
 20
164.9855997858
 30
0.0
 40
6.749999999999972
  0
CIRCLE
  5
BF
  8
0
  6
SLD-CONTINUE
 62
     7
 10
105.8602587427
 20
164.9855997858
 30
0.0
 40
6.249999999999972
  0
CIRCLE
  5
C0
  8
0
  6
SLD-CONTINUE
 62
     7
 10
106.450361581
 20
110.7837033287
 30
0.0
 40
0.5874999999999806
  0
LINE
  5
C1
  8
0
  6
SLD-CONTINUE
 62
     7
 10
101.9248778422
 20
111.7029414647
 30
0.0
 11
105.5311227639
 21
108.0966965431
 31
0.0
  0
LINE
  5
C2
  8
0
  6
SLD-CONTINUE
 62
     7
 10
104.0815536355
 20
113.8596163266
 30
0.0
 11
101.9248778422
 21
111.7029414647
 31
0.0
  0
LINE
  5
C3
  8
0
  6
SLD-CONTINUE
 62
     7
 10
103.9047774349
 20
114.0363962525
 30
0.0
 11
104.0815536355
 21
113.8596163266
 31
0.0
  0
ARC
  5
C4
  8
0
  6
SLD-CONTINUE
 62
     7
 10
104.2583305593
 20
114.3899479127
 30
0.0
 40
0.500000000000004
 50
45.0
 51
225.0
  0
LINE
  5
C5
  8
0
  6
SLD-CONTINUE
 62
     7
 10
104.7886607659
 20
114.5667248541
 30
0.0
 11
104.6118840997
 21
114.7435010546
 31
0.0
  0
LINE
  5
C6
  8
0
  6
SLD-CONTINUE
 62
     7
 10
105.1431156185
 20
114.9211787754
 30
0.0
 11
104.7886607659
 21
114.5667248541
 31
0.0
  0
CIRCLE
  5
C7
  8
0
  6
SLD-CONTINUE
 62
     7
 10
109.8091187916
 20
114.1424605393
 30
0.0
 40
0.5875000000000208
  0
LINE
  5
C8
  8
0
  6
SLD-CONTINUE
 62
     7
 10
112.5314799094
 20
115.0970534557
 30
0.0
 11
109.172722786
 21
118.4558124417
 31
0.0
  0
LINE
  5
C9
  8
0
  6
SLD-CONTINUE
 62
     7
 10
105.5311227639
 20
108.0966965431
 30
0.0
 11
112.5314799094
 21
115.0970534557
 31
0.0
  0
LINE
  5
CA
  8
0
  6
SLD-CONTINUE
 62
     7
 10
105.6371887636
 20
114.9202772551
 30
0.0
 11
105.1431156185
 21
114.9211787754
 31
0.0
  0
LINE
  5
CB
  8
0
  6
SLD-CONTINUE
 62
     7
 10
109.172722786
 20
118.4558124417
 30
0.0
 11
105.6371887636
 21
114.9202772551
 31
0.0
  0
LINE
  5
CC
  8
0
  6
SLD-CONTINUE
 62
     7
 10
102.9355444436
 20
113.2660546475
 30
0.0
 11
103.7859909658
 21
114.5539433831
 31
0.0
  0
ARC
  5
CD
  8
0
  6
SLD-CONTINUE
 62
     7
 10
103.060716224
 20
113.183399192
 30
0.0
 40
0.1499999999999972
 50
146.5615883546
 51
225.0
  0
LINE
  5
CE
  8
0
  6
SLD-CONTINUE
 62
     7
 10
102.9546505262
 20
113.077331441
 30
0.0
 11
103.1269601037
 21
112.9050218635
 31
0.0
  0
LINE
  5
CF
  8
0
  6
SLD-CONTINUE
 62
     7
 10
102.8132291932
 20
112.9359119707
 30
0.0
 11
102.9855387707
 21
112.7636023932
 31
0.0
  0
ARC
  5
D0
  8
0
  6
SLD-CONTINUE
 62
     7
 10
103.060716224
 20
113.183399192
 30
0.0
 40
0.3499999999999915
 50
146.5615883546
 51
225.0
  0
LINE
  5
D1
  8
0
  6
SLD-CONTINUE
 62
     7
 10
103.9220162158
 20
114.7599370354
 30
0.0
 11
108.2138165322
 21
121.2593094581
 31
0.0
  0
LINE
  5
D2
  8
0
  6
SLD-CONTINUE
 62
     7
 10
105.5471685205
 20
122.1208424443
 30
0.0
 11
105.5477193979
 21
122.1216769093
 31
0.0
  0
ARC
  5
D3
  8
0
  6
SLD-CONTINUE
 62
     7
 10
106.1731612171
 20
121.7086717954
 30
0.0
 40
0.7495000000000016
 50
56.5615883546
 51
146.5615883546
  0
LINE
  5
D4
  8
0
  6
SLD-CONTINUE
 62
     7
 10
102.7686486442
 20
113.3762636357
 30
0.0
 11
107.2203603064
 21
120.1177985543
 31
0.0
  0
LINE
  5
D5
  8
0
  6
SLD-CONTINUE
 62
     7
 10
106.5861659546
 20
122.3341153138
 30
0.0
 11
108.2138165322
 21
121.2593094581
 31
0.0
  0
LINE
  5
D6
  8
0
  6
SLD-CONTINUE
 62
     7
 10
105.7596055281
 20
121.0823954218
 30
0.0
 11
107.2203603064
 21
120.1177985543
 31
0.0
  0
ARC
  5
D7
  8
0
  6
SLD-CONTINUE
 62
     7
 10
106.1726101768
 20
121.7078373168
 30
0.0
 40
0.7495000000000095
 50
146.5615883546
 51
236.5615883546
  0
ARC
  5
D8
  8
0
  6
SLD-CONTINUE
 62
     7
 10
106.172885697
 20
121.7082545561
 30
0.0
 40
1.149999999999999
 50
7.2672951857
 51
285.8558815236
  0
POLYLINE
  5
D9
  8
0
  6
SLD-CONTINUE
 62
     7
 66
     1
 10
0.0
 20
0.0
 30
0.0
  0
VERTEX
  5
148
  8
0
  6
SLD-CONTINUE
 62
     7
 10
113.309297357
 20
113.0464450591
 30
0.0
  0
VERTEX
  5
149
  8
0
  6
SLD-CONTINUE
 62
     7
 10
113.3012236052
 20
113.0383723551
 30
0.0
  0
VERTEX
  5
14A
  8
0
  6
SLD-CONTINUE
 62
     7
 10
113.2782313463
 20
113.0153798633
 30
0.0
  0
VERTEX
  5
14B
  8
0
  6
SLD-CONTINUE
 62
     7
 10
113.2438210727
 20
112.9809693569
 30
0.0
  0
VERTEX
  5
14C
  8
0
  6
SLD-CONTINUE
 62
     7
 10
113.2032313573
 20
112.9403785938
 30
0.0
  0
VERTEX
  5
14D
  8
0
  6
SLD-CONTINUE
 62
     7
 10
113.162641642
 20
112.8997878307
 30
0.0
  0
VERTEX
  5
14E
  8
0
  6
SLD-CONTINUE
 62
     7
 10
113.1282313683
 20
112.8653773242
 30
0.0
  0
VERTEX
  5
14F
  8
0
  6
SLD-CONTINUE
 62
     7
 10
113.1052391094
 20
112.8423885578
 30
0.0
  0
VERTEX
  5
150
  8
0
  6
SLD-CONTINUE
 62
     7
 10
113.0971653576
 20
112.8343121284
 30
0.0
  0
SEQEND
  5
183
  8
0
  6
SLD-CONTINUE
 62
     7
  0
POLYLINE
  5
DA
  8
0
  6
SLD-CONTINUE
 62
     7
 66
     1
 10
0.0
 20
0.0
 30
0.0
  0
VERTEX
  5
151
  8
0
  6
SLD-CONTINUE
 62
     7
 10
110.7283575649
 20
110.4655043357
 30
0.0
  0
VERTEX
  5
152
  8
0
  6
SLD-CONTINUE
 62
     7
 10
110.7202838131
 20
110.4574316316
 30
0.0
  0
VERTEX
  5
153
  8
0
  6
SLD-CONTINUE
 62
     7
 10
110.6972915542
 20
110.4344391399
 30
0.0
  0
VERTEX
  5
154
  8
0
  6
SLD-CONTINUE
 62
     7
 10
110.6628812806
 20
110.4000286334
 30
0.0
  0
VERTEX
  5
155
  8
0
  6
SLD-CONTINUE
 62
     7
 10
110.6222915652
 20
110.3594378703
 30
0.0
  0
VERTEX
  5
156
  8
0
  6
SLD-CONTINUE
 62
     7
 10
110.5817018499
 20
110.3188508325
 30
0.0
  0
VERTEX
  5
157
  8
0
  6
SLD-CONTINUE
 62
     7
 10
110.5472915762
 20
110.2844403261
 30
0.0
  0
VERTEX
  5
158
  8
0
  6
SLD-CONTINUE
 62
     7
 10
110.5242993173
 20
110.2614478343
 30
0.0
  0
VERTEX
  5
159
  8
0
  6
SLD-CONTINUE
 62
     7
 10
110.5162255655
 20
110.253371405
 30
0.0
  0
SEQEND
  5
182
  8
0
  6
SLD-CONTINUE
 62
     7
  0
POLYLINE
  5
DB
  8
0
  6
SLD-CONTINUE
 62
     7
 66
     1
 10
0.0
 20
0.0
 30
0.0
  0
VERTEX
  5
15A
  8
0
  6
SLD-CONTINUE
 62
     7
 10
107.6170878907
 20
107.3542350107
 30
0.0
  0
VERTEX
  5
15B
  8
0
  6
SLD-CONTINUE
 62
     7
 10
107.6090137896
 20
107.3461623066
 30
0.0
  0
VERTEX
  5
15C
  8
0
  6
SLD-CONTINUE
 62
     7
 10
107.5860217635
 20
107.3231698149
 30
0.0
  0
VERTEX
  5
15D
  8
0
  6
SLD-CONTINUE
 62
     7
 10
107.5516112571
 20
107.2887593084
 30
0.0
  0
VERTEX
  5
15E
  8
0
  6
SLD-CONTINUE
 62
     7
 10
107.5110218909
 20
107.2481685453
 30
0.0
  0
VERTEX
  5
15F
  8
0
  6
SLD-CONTINUE
 62
     7
 10
107.4704320592
 20
107.2075815075
 30
0.0
  0
VERTEX
  5
160
  8
0
  6
SLD-CONTINUE
 62
     7
 10
107.4360215527
 20
107.173171001
 30
0.0
  0
VERTEX
  5
161
  8
0
  6
SLD-CONTINUE
 62
     7
 10
107.4130295266
 20
107.1501785093
 30
0.0
  0
VERTEX
  5
162
  8
0
  6
SLD-CONTINUE
 62
     7
 10
107.4049558912
 20
107.1421020799
 30
0.0
  0
SEQEND
  5
181
  8
0
  6
SLD-CONTINUE
 62
     7
  0
CIRCLE
  5
DC
  8
0
  6
SLD-CONTINUE
 62
     7
 10
141.8057006403
 20
146.139042388
 30
0.0
 40
0.5874999999999907
  0
LINE
  5
DD
  8
0
  6
SLD-CONTINUE
 62
     7
 10
147.886817572
 20
150.4523941451
 30
0.0
 11
144.5280623113
 21
153.8111531311
 31
0.0
  0
LINE
  5
DE
  8
0
  6
SLD-CONTINUE
 62
     7
 10
140.886462522
 20
143.4520372325
 30
0.0
 11
147.886817572
 21
150.4523941451
 31
0.0
  0
LINE
  5
DF
  8
0
  6
SLD-CONTINUE
 62
     7
 10
137.2802176003
 20
147.0582821542
 30
0.0
 11
140.886462522
 21
143.4520372325
 31
0.0
  0
LINE
  5
E0
  8
0
  6
SLD-CONTINUE
 62
     7
 10
139.4368924622
 20
149.2149570161
 30
0.0
 11
137.2802176003
 21
147.0582821542
 31
0.0
  0
LINE
  5
E1
  8
0
  6
SLD-CONTINUE
 62
     7
 10
139.2601162617
 20
149.3917369419
 30
0.0
 11
139.4368924622
 21
149.2149570161
 31
0.0
  0
ARC
  5
E2
  8
0
  6
SLD-CONTINUE
 62
     7
 10
139.6136696186
 20
149.7452869721
 30
0.0
 40
0.500000000000004
 50
45.0
 51
225.0
  0
LINE
  5
E3
  8
0
  6
SLD-CONTINUE
 62
     7
 10
140.143999127
 20
149.9220618182
 30
0.0
 11
139.9672229265
 21
150.098841744
 31
0.0
  0
LINE
  5
E4
  8
0
  6
SLD-CONTINUE
 62
     7
 10
140.498454911
 20
150.2765157395
 30
0.0
 11
140.143999127
 21
149.9220618182
 31
0.0
  0
LINE
  5
E5
  8
0
  6
SLD-CONTINUE
 62
     7
 10
140.9925271247
 20
150.2756142193
 30
0.0
 11
140.498454911
 21
150.2765157395
 31
0.0
  0
CIRCLE
  5
E6
  8
0
  6
SLD-CONTINUE
 62
     7
 10
145.1644578509
 20
149.4977995987
 30
0.0
 40
0.5874999999999907
  0
LINE
  5
E7
  8
0
  6
SLD-CONTINUE
 62
     7
 10
144.5280623113
 20
153.8111531311
 30
0.0
 11
140.9925271247
 21
150.2756142193
 31
0.0
  0
LINE
  5
E8
  8
0
  6
SLD-CONTINUE
 62
     7
 10
139.2773550426
 20
150.1152777248
 30
0.0
 11
143.569153962
 21
156.6146501475
 31
0.0
  0
LINE
  5
E9
  8
0
  6
SLD-CONTINUE
 62
     7
 10
138.2908832704
 20
148.6213916117
 30
0.0
 11
139.1413297926
 21
149.9092840725
 31
0.0
  0
ARC
  5
EA
  8
0
  6
SLD-CONTINUE
 62
     7
 10
138.4160552833
 20
148.5387382513
 30
0.0
 40
0.1500000000000173
 50
146.5615883546
 51
225.0
  0
LINE
  5
EB
  8
0
  6
SLD-CONTINUE
 62
     7
 10
138.3099884217
 20
148.4326758557
 30
0.0
 11
138.4822979991
 21
148.2603662783
 31
0.0
  0
LINE
  5
EC
  8
0
  6
SLD-CONTINUE
 62
     7
 10
138.1685670887
 20
148.2912489348
 30
0.0
 11
138.3408766662
 21
148.1189393574
 31
0.0
  0
ARC
  5
ED
  8
0
  6
SLD-CONTINUE
 62
     7
 10
138.4160552833
 20
148.5387382513
 30
0.0
 40
0.350000000000027
 50
146.5615883546
 51
225.0
  0
LINE
  5
EE
  8
0
  6
SLD-CONTINUE
 62
     7
 10
138.1239884023
 20
148.7316005998
 30
0.0
 11
142.5756991331
 21
155.4731392437
 31
0.0
  0
LINE
  5
EF
  8
0
  6
SLD-CONTINUE
 62
     7
 10
141.1149438892
 20
156.4377361112
 30
0.0
 11
142.5756991331
 21
155.4731392437
 31
0.0
  0
ARC
  5
F0
  8
0
  6
SLD-CONTINUE
 62
     7
 10
141.5279492361
 20
157.0631763761
 30
0.0
 40
0.7495000000000176
 50
146.5615883546
 51
236.5615883546
  0
LINE
  5
F1
  8
0
  6
SLD-CONTINUE
 62
     7
 10
140.9025073473
 20
157.4761831337
 30
0.0
 11
140.9030586903
 21
157.4770175987
 31
0.0
  0
ARC
  5
F2
  8
0
  6
SLD-CONTINUE
 62
     7
 10
141.5285002764
 20
157.0640108547
 30
0.0
 40
0.7495000000000095
 50
56.5615883546
 51
146.5615883546
  0
LINE
  5
F3
  8
0
  6
SLD-CONTINUE
 62
     7
 10
141.9415057127
 20
157.6894560033
 30
0.0
 11
143.569153962
 21
156.6146501475
 31
0.0
  0
ARC
  5
F4
  8
0
  6
SLD-CONTINUE
 62
     7
 10
141.5282247563
 20
157.0635936154
 30
0.0
 40
1.150000000000015
 50
7.2672951857
 51
285.8558815236
  0
POLYLINE
  5
F5
  8
0
  6
SLD-CONTINUE
 62
     7
 66
     1
 10
0.0
 20
0.0
 30
0.0
  0
VERTEX
  5
163
  8
0
  6
SLD-CONTINUE
 62
     7
 10
148.6646358346
 20
148.4017857486
 30
0.0
  0
VERTEX
  5
164
  8
0
  6
SLD-CONTINUE
 62
     7
 10
148.6565631305
 20
148.3937093192
 30
0.0
  0
VERTEX
  5
165
  8
0
  6
SLD-CONTINUE
 62
     7
 10
148.6335706388
 20
148.3707168275
 30
0.0
  0
VERTEX
  5
166
  8
0
  6
SLD-CONTINUE
 62
     7
 10
148.5991601323
 20
148.3363100463
 30
0.0
  0
VERTEX
  5
167
  8
0
  6
SLD-CONTINUE
 62
     7
 10
148.5585693692
 20
148.2957192832
 30
0.0
  0
VERTEX
  5
168
  8
0
  6
SLD-CONTINUE
 62
     7
 10
148.5179823314
 20
148.2551285201
 30
0.0
  0
VERTEX
  5
169
  8
0
  6
SLD-CONTINUE
 62
     7
 10
148.4835718249
 20
148.2207217389
 30
0.0
  0
VERTEX
  5
16A
  8
0
  6
SLD-CONTINUE
 62
     7
 10
148.4605793332
 20
148.1977292472
 30
0.0
  0
VERTEX
  5
16B
  8
0
  6
SLD-CONTINUE
 62
     7
 10
148.4525029038
 20
148.1896528178
 30
0.0
  0
SEQEND
  5
180
  8
0
  6
SLD-CONTINUE
 62
     7
  0
POLYLINE
  5
F6
  8
0
  6
SLD-CONTINUE
 62
     7
 66
     1
 10
0.0
 20
0.0
 30
0.0
  0
VERTEX
  5
16C
  8
0
  6
SLD-CONTINUE
 62
     7
 10
146.0836951111
 20
145.8208450251
 30
0.0
  0
VERTEX
  5
16D
  8
0
  6
SLD-CONTINUE
 62
     7
 10
146.0756224071
 20
145.8127685958
 30
0.0
  0
VERTEX
  5
16E
  8
0
  6
SLD-CONTINUE
 62
     7
 10
146.0526299153
 20
145.7897761041
 30
0.0
  0
VERTEX
  5
16F
  8
0
  6
SLD-CONTINUE
 62
     7
 10
146.0182194088
 20
145.7553693229
 30
0.0
  0
VERTEX
  5
170
  8
0
  6
SLD-CONTINUE
 62
     7
 10
145.977632371
 20
145.7147785598
 30
0.0
  0
VERTEX
  5
171
  8
0
  6
SLD-CONTINUE
 62
     7
 10
145.937041608
 20
145.6741877967
 30
0.0
  0
VERTEX
  5
172
  8
0
  6
SLD-CONTINUE
 62
     7
 10
145.9026311015
 20
145.6397810155
 30
0.0
  0
VERTEX
  5
173
  8
0
  6
SLD-CONTINUE
 62
     7
 10
145.8796386097
 20
145.6167885238
 30
0.0
  0
VERTEX
  5
174
  8
0
  6
SLD-CONTINUE
 62
     7
 10
145.8715659057
 20
145.6087120944
 30
0.0
  0
SEQEND
  5
17F
  8
0
  6
SLD-CONTINUE
 62
     7
  0
POLYLINE
  5
F7
  8
0
  6
SLD-CONTINUE
 62
     7
 66
     1
 10
0.0
 20
0.0
 30
0.0
  0
VERTEX
  5
175
  8
0
  6
SLD-CONTINUE
 62
     7
 10
142.9724276488
 20
142.7095719748
 30
0.0
  0
VERTEX
  5
176
  8
0
  6
SLD-CONTINUE
 62
     7
 10
142.964353082
 20
142.701502996
 30
0.0
  0
VERTEX
  5
177
  8
0
  6
SLD-CONTINUE
 62
     7
 10
142.9413605903
 20
142.6785105043
 30
0.0
  0
VERTEX
  5
178
  8
0
  6
SLD-CONTINUE
 62
     7
 10
142.9069500838
 20
142.6440962725
 30
0.0
  0
VERTEX
  5
179
  8
0
  6
SLD-CONTINUE
 62
     7
 10
142.8663611834
 20
142.6035055095
 30
0.0
  0
VERTEX
  5
17A
  8
0
  6
SLD-CONTINUE
 62
     7
 10
142.8257704203
 20
142.5629221969
 30
0.0
  0
VERTEX
  5
17B
  8
0
  6
SLD-CONTINUE
 62
     7
 10
142.7913599138
 20
142.5285079652
 30
0.0
  0
VERTEX
  5
17C
  8
0
  6
SLD-CONTINUE
 62
     7
 10
142.7683692847
 20
142.5055154734
 30
0.0
  0
VERTEX
  5
17D
  8
0
  6
SLD-CONTINUE
 62
     7
 10
142.760294718
 20
142.4974390441
 30
0.0
  0
SEQEND
  5
17E
  8
0
  6
SLD-CONTINUE
 62
     7
  0
CIRCLE
  5
F8
  8
0
  6
SLD-CONTINUE
 62
     7
 10
141.0677443204
 20
168.9477418817
 30
0.0
 40
0.7874999999999882
  0
CIRCLE
  5
F9
  8
0
  6
SLD-CONTINUE
 62
     7
 10
123.3900747908
 20
151.270072352
 30
0.0
 40
0.7875000000000085
  0
CIRCLE
  5
FA
  8
0
  6
SLD-CONTINUE
 62
     7
 10
141.0677443204
 20
168.9477418817
 30
0.0
 40
0.8000000000000114
  0
ARC
  5
FB
  8
0
  6
SLD-CONTINUE
 62
     7
 10
141.0677443204
 20
168.9477418817
 30
0.0
 40
3.0
 50
0.0
 51
127.5980003123
  0
ARC
  5
FC
  8
0
  6
SLD-CONTINUE
 62
     7
 10
141.0677443204
 20
168.9477418817
 30
0.0
 40
3.0
 50
142.4019996877
 51
0.0
  0
CIRCLE
  5
FD
  8
0
  6
SLD-CONTINUE
 62
     7
 10
123.3900747908
 20
151.270072352
 30
0.0
 40
0.7999999999999972
  0
ARC
  5
FE
  8
0
  6
SLD-CONTINUE
 62
     7
 10
123.3900747908
 20
151.270072352
 30
0.0
 40
3.0
 50
0.0
 51
127.5980003123
  0
ARC
  5
FF
  8
0
  6
SLD-CONTINUE
 62
     7
 10
123.3900747908
 20
151.270072352
 30
0.0
 40
3.0
 50
142.4019996877
 51
0.0
  0
LINE
  5
100
  8
0
  6
SLD-CONTINUE
 62
     7
 10
84.1927912508
 20
127.4170057052
 30
0.0
 11
85.7106663708
 21
124.1619103723
 31
0.0
  0
LINE
  5
101
  8
0
  6
SLD-CONTINUE
 62
     7
 10
85.0867752408
 20
128.3109896952
 30
0.0
 11
84.1927912508
 21
127.4170057052
 31
0.0
  0
LINE
  5
102
  8
0
  6
SLD-CONTINUE
 62
     7
 10
88.3418705736
 20
126.7931127125
 30
0.0
 11
85.0867752408
 21
128.3109896952
 31
0.0
  0
LINE
  5
103
  8
0
  6
SLD-CONTINUE
 62
     7
 10
89.0428286468
 20
127.4940745109
 30
0.0
 11
88.3418705736
 21
126.7931127125
 31
0.0
  0
LINE
  5
104
  8
0
  6
SLD-CONTINUE
 62
     7
 10
88.4189375167
 20
131.6431501084
 30
0.0
 11
87.5249535267
 21
130.7491661185
 31
0.0
  0
LINE
  5
105
  8
0
  6
SLD-CONTINUE
 62
     7
 10
91.6740309869
 20
130.125276851
 30
0.0
 11
88.4189375167
 21
131.6431501084
 31
0.0
  0
LINE
  5
106
  8
0
  6
SLD-CONTINUE
 62
     7
 10
92.3749909227
 20
130.8262349242
 30
0.0
 11
91.6740309869
 21
130.125276851
 31
0.0
  0
LINE
  5
107
  8
0
  6
SLD-CONTINUE
 62
     7
 10
91.7510997926
 20
134.975314247
 30
0.0
 11
90.8571158026
 21
134.081330257
 31
0.0
  0
LINE
  5
108
  8
0
  6
SLD-CONTINUE
 62
     7
 10
95.0061932628
 20
133.4574372643
 30
0.0
 11
91.7510997926
 21
134.975314247
 31
0.0
  0
LINE
  5
109
  8
0
  6
SLD-CONTINUE
 62
     7
 10
95.7071531986
 20
134.1583990627
 30
0.0
 11
95.0061932628
 21
133.4574372643
 31
0.0
  0
LINE
  5
10A
  8
0
  6
SLD-CONTINUE
 62
     7
 10
94.1892780785
 20
137.4134906703
 30
0.0
 11
95.7071531986
 21
134.1583990627
 31
0.0
  0
LINE
  5
10B
  8
0
  6
SLD-CONTINUE
 62
     7
 10
95.0832620685
 20
138.3074783855
 30
0.0
 11
94.1892780785
 21
137.4134906703
 31
0.0
  0
LINE
  5
10C
  8
0
  6
SLD-CONTINUE
 62
     7
 10
98.33835647
 20
136.7896014028
 30
0.0
 11
95.0832620685
 21
138.3074783855
 31
0.0
  0
LINE
  5
10D
  8
0
  6
SLD-CONTINUE
 62
     7
 10
99.0393154745
 20
137.490559476
 30
0.0
 11
98.33835647
 21
136.7896014028
 31
0.0
  0
LINE
  5
10E
  8
0
  6
SLD-CONTINUE
 62
     7
 10
115.7001266212
 20
154.1513689929
 30
0.0
 11
114.9991673839
 21
153.4504109197
 31
0.0
  0
LINE
  5
10F
  8
0
  6
SLD-CONTINUE
 62
     7
 10
114.7935057481
 20
158.0177211338
 30
0.0
 11
114.1822508027
 21
157.406468051
 31
0.0
  0
LINE
  5
110
  8
0
  6
SLD-CONTINUE
 62
     7
 10
118.3313296598
 20
156.782571333
 30
0.0
 11
116.7922455308
 21
157.5002634102
 31
0.0
  0
LINE
  5
111
  8
0
  6
SLD-CONTINUE
 62
     7
 10
119.0322886643
 20
157.4835294062
 30
0.0
 11
118.3313296598
 21
156.782571333
 31
0.0
  0
LINE
  5
112
  8
0
  6
SLD-CONTINUE
 62
     7
 10
122.3644514059
 20
160.81569727
 30
0.0
 11
121.6634914701
 21
160.1147391969
 31
0.0
  0
LINE
  5
113
  8
0
  6
SLD-CONTINUE
 62
     7
 10
120.8465753545
 20
164.0707888776
 30
0.0
 11
122.3644514059
 21
160.81569727
 31
0.0
  0
LINE
  5
114
  8
0
  6
SLD-CONTINUE
 62
     7
 10
124.995653746
 20
163.4468996101
 30
0.0
 11
121.7405584131
 21
164.9647765928
 31
0.0
  0
LINE
  5
115
  8
0
  6
SLD-CONTINUE
 62
     7
 10
139.6431953137
 20
178.0944430405
 30
0.0
 11
124.995653746
 21
163.4468996101
 31
0.0
  0
ARC
  5
116
  8
0
  6
SLD-CONTINUE
 62
     7
 10
144.9464965527
 20
172.7911387749
 30
0.0
 40
7.49999999999984
 50
315.0
 51
135.0
  0
LINE
  5
117
  8
0
  6
SLD-CONTINUE
 62
     7
 10
112.2428079208
 20
126.2988672727
 30
0.0
 11
112.7731380358
 21
130.0111786598
 31
0.0
  0
ARC
  5
118
  8
0
  6
SLD-CONTINUE
 62
     7
 10
111.0053710558
 20
126.4756446072
 30
0.0
 40
1.250000000000062
 50
278.1301023542
 51
351.8698976458
  0
LINE
  5
119
  8
0
  6
SLD-CONTINUE
 62
     7
 10
107.4698369441
 20
124.7078777426
 30
0.0
 11
111.182147749
 21
125.2382063442
 31
0.0
  0
ARC
  5
11A
  8
0
  6
SLD-CONTINUE
 62
     7
 10
78.63959893
 20
102.9487072463
 30
0.0
 40
4.99999999999999
 50
225.0
 51
315.0
  0
ARC
  5
11B
  8
0
  6
SLD-CONTINUE
 62
     7
 10
75.1040650241
 20
106.4842411522
 30
0.0
 40
5.0
 50
135.0
 51
225.0
  0
LINE
  5
11C
  8
0
  6
SLD-CONTINUE
 62
     7
 10
85.7106663708
 20
124.1619103723
 30
0.0
 11
71.5685312127
 21
110.0197733515
 31
0.0
  0
ARC
  5
11D
  8
0
  6
SLD-CONTINUE
 62
     7
 10
144.9464965527
 20
172.7911387749
 30
0.0
 40
3.000000000000044
 50
315.0
 51
135.0
  0
LINE
  5
11E
  8
0
  6
SLD-CONTINUE
 62
     7
 10
142.8251762365
 20
174.9124565297
 30
0.0
 11
74.7505102728
 21
106.8377942913
 31
0.0
  0
ARC
  5
11F
  8
0
  6
SLD-CONTINUE
 62
     7
 10
76.871831977
 20
104.7164741992
 30
0.0
 40
3.000000000000014
 50
135.0
 51
315.0
  0
LINE
  5
120
  8
0
  6
SLD-CONTINUE
 62
     7
 10
78.9931539868
 20
102.5951543027
 30
0.0
 11
147.0678162251
 21
170.6698202663
 31
0.0
  0
LINE
  5
121
  8
0
  6
SLD-CONTINUE
 62
     7
 10
97.5214394231
 20
140.7456510835
 30
0.0
 11
99.0393154745
 21
137.490559476
 31
0.0
  0
LINE
  5
122
  8
0
  6
SLD-CONTINUE
 62
     7
 10
98.4154234131
 20
141.6396387988
 30
0.0
 11
97.5214394231
 21
140.7456510835
 31
0.0
  0
LINE
  5
123
  8
0
  6
SLD-CONTINUE
 62
     7
 10
117.5144130786
 20
160.7386284643
 30
0.0
 11
119.0322886643
 21
157.4835294062
 31
0.0
  0
LINE
  5
124
  8
0
  6
SLD-CONTINUE
 62
     7
 10
118.4083966029
 20
161.632608729
 30
0.0
 11
117.5144130786
 21
160.7386284643
 31
0.0
  0
LINE
  5
125
  8
0
  6
SLD-CONTINUE
 62
     7
 10
121.6634914701
 20
160.1147391969
 30
0.0
 11
118.4083966029
 21
161.632608729
 31
0.0
  0
LINE
  5
126
  8
0
  6
SLD-CONTINUE
 62
     7
 10
101.747585689
 20
144.9717992121
 30
0.0
 11
100.853601699
 21
144.0778189474
 31
0.0
  0
LINE
  5
127
  8
0
  6
SLD-CONTINUE
 62
     7
 10
105.0026805562
 20
143.4539222294
 30
0.0
 11
101.747585689
 21
144.9717992121
 31
0.0
  0
LINE
  5
128
  8
0
  6
SLD-CONTINUE
 62
     7
 10
121.7405584131
 20
164.9647765928
 30
0.0
 11
120.8465753545
 21
164.0707888776
 31
0.0
  0
LINE
  5
129
  8
0
  6
SLD-CONTINUE
 62
     7
 10
104.1857639749
 20
147.4099793607
 30
0.0
 11
105.7036400263
 21
144.1548803025
 31
0.0
  0
LINE
  5
12A
  8
0
  6
SLD-CONTINUE
 62
     7
 10
105.0797479649
 20
148.3039596253
 30
0.0
 11
104.1857639749
 21
147.4099793607
 31
0.0
  0
LINE
  5
12B
  8
0
  6
SLD-CONTINUE
 62
     7
 10
108.3348428321
 20
146.7860900932
 30
0.0
 11
105.0797479649
 21
148.3039596253
 31
0.0
  0
LINE
  5
12C
  8
0
  6
SLD-CONTINUE
 62
     7
 10
112.7731380358
 20
130.0111786598
 30
0.0
 11
150.2497990106
 21
167.4878412062
 31
0.0
  0
LINE
  5
12D
  8
0
  6
SLD-CONTINUE
 62
     7
 10
107.5179262509
 20
150.7421397739
 30
0.0
 11
109.0358020694
 21
147.4870481664
 31
0.0
  0
LINE
  5
12E
  8
0
  6
SLD-CONTINUE
 62
     7
 10
108.411910008
 20
151.6361274892
 30
0.0
 11
107.5179262509
 21
150.7421397739
 31
0.0
  0
LINE
  5
12F
  8
0
  6
SLD-CONTINUE
 62
     7
 10
111.667005108
 20
150.1182505065
 30
0.0
 11
108.411910008
 21
151.6361274892
 31
0.0
  0
LINE
  5
130
  8
0
  6
SLD-CONTINUE
 62
     7
 10
82.175133047
 20
99.4131733799
 30
0.0
 11
107.4698369441
 21
124.7078777426
 31
0.0
  0
LINE
  5
131
  8
0
  6
SLD-CONTINUE
 62
     7
 10
71.5685312127
 20
102.9487067037
 30
0.0
 11
75.1040663992
 21
99.4131733799
 31
0.0
  0
LINE
  5
132
  8
0
  6
SLD-CONTINUE
 62
     7
 10
111.6614887971
 20
154.8857056671
 30
0.0
 11
110.8500886432
 21
154.0743001872
 31
0.0
  0
LINE
  5
133
  8
0
  6
SLD-CONTINUE
 62
     7
 10
114.9991673839
 20
153.4504109197
 30
0.0
 11
113.7515584662
 21
154.0321820551
 31
0.0
  0
LINE
  5
134
  8
0
  6
SLD-CONTINUE
 62
     7
 10
105.7036400263
 20
144.1548803025
 30
0.0
 11
105.0026805562
 21
143.4539222294
 31
0.0
  0
LINE
  5
135
  8
0
  6
SLD-CONTINUE
 62
     7
 10
114.1822508027
 20
157.406468051
 30
0.0
 11
115.7001266212
 21
154.1513689929
 31
0.0
  0
LINE
  5
136
  8
0
  6
SLD-CONTINUE
 62
     7
 10
100.853601699
 20
144.0778189474
 30
0.0
 11
102.3714777504
 21
140.8227198892
 31
0.0
  0
LINE
  5
137
  8
0
  6
SLD-CONTINUE
 62
     7
 10
87.5249535267
 20
130.7491661185
 30
0.0
 11
89.0428286468
 21
127.4940745109
 31
0.0
  0
LINE
  5
138
  8
0
  6
SLD-CONTINUE
 62
     7
 10
109.0358020694
 20
147.4870481664
 30
0.0
 11
108.3348428321
 21
146.7860900932
 31
0.0
  0
LINE
  5
139
  8
0
  6
SLD-CONTINUE
 62
     7
 10
101.6705187459
 20
140.1217618161
 30
0.0
 11
98.4154234131
 21
141.6396387988
 31
0.0
  0
LINE
  5
13A
  8
0
  6
SLD-CONTINUE
 62
     7
 10
102.3714777504
 20
140.8227198892
 30
0.0
 11
101.6705187459
 21
140.1217618161
 31
0.0
  0
LINE
  5
13B
  8
0
  6
SLD-CONTINUE
 62
     7
 10
112.3679643744
 20
150.8192085796
 30
0.0
 11
111.667005108
 21
150.1182505065
 31
0.0
  0
LINE
  5
13C
  8
0
  6
SLD-CONTINUE
 62
     7
 10
110.8500886432
 20
154.0743001872
 30
0.0
 11
112.3679643744
 21
150.8192085796
 31
0.0
  0
LINE
  5
13D
  8
0
  6
SLD-CONTINUE
 62
     7
 10
90.8571158026
 20
134.081330257
 30
0.0
 11
92.3749909227
 21
130.8262349242
 31
0.0
  0
LINE
  5
13E
  8
0
  6
SLD-CONTINUE
 62
     7
 10
77.9324930583
 20
103.6558133685
 30
0.0
 11
122.641615798
 21
148.3649351769
 31
0.0
  0
LINE
  5
13F
  8
0
  6
SLD-CONTINUE
 62
     7
 10
126.2952100907
 20
152.0185285383
 30
0.0
 11
140.3192852114
 21
166.0426073843
 31
0.0
  0
LINE
  5
140
  8
0
  6
SLD-CONTINUE
 62
     7
 10
143.9728785728
 20
169.6962007457
 30
0.0
 11
146.0071552967
 21
171.7304774695
 31
0.0
  0
ARC
  5
141
  8
0
  6
SLD-CONTINUE
 62
     7
 10
144.9464965527
 20
172.7911387749
 30
0.0
 40
1.499999999999992
 50
315.0
 51
135.0
  0
LINE
  5
142
  8
0
  6
SLD-CONTINUE
 62
     7
 10
143.885837165
 20
173.8517993265
 30
0.0
 11
141.8719731693
 21
171.8379371935
 31
0.0
  0
LINE
  5
143
  8
0
  6
SLD-CONTINUE
 62
     7
 10
138.1775506263
 20
168.1435146504
 30
0.0
 11
124.1943028246
 21
154.1602649861
 31
0.0
  0
LINE
  5
144
  8
0
  6
SLD-CONTINUE
 62
     7
 10
120.4998812129
 20
150.4658424431
 30
0.0
 11
75.8111712013
 21
105.7771333628
 31
0.0
  0
ARC
  5
145
  8
0
  6
SLD-CONTINUE
 62
     7
 10
76.871831977
 20
104.7164741992
 30
0.0
 40
1.500000000000012
 50
135.0
 51
315.0
  0
TEXT
  5
146
  8
0
  6
CONTINUOUS
 62
     7
 10
0.0
 20
6.732893805
 30
0.0
 40
3.633
  1
Edition étudiante de SolidWorks.
 41
0.6671875
 11
0.0
 21
5.4495
 31
0.0
 73
     1
  0
TEXT
  5
147
  8
0
  6
CONTINUOUS
 62
     7
 10
0.0
 20
1.283393805
 30
0.0
 40
3.633
  1
A usage universitaire uniquement.
 41
0.6681818182
 11
0.0
 21
0.0
 31
0.0
 73
     1
  0
ENDSEC
  0
EOF
