  0
SECTION
  2
HEADER
  9
$ACADVER
  1
AC1009
  9
$DWGCODEPAGE
  3
ansi_1252
  9
$INSBASE
 10
0.0
 20
0.0
 30
0.0
  9
$EXTMIN
 10
0.0
 20
0.0
 30
0.0
  9
$EXTMAX
 10
210.0
 20
297.0
 30
0.0
  9
$LIMMIN
 10
0.0
 20
0.0
  9
$LIMMAX
 10
210.0
 20
297.0
  9
$ORTHOMODE
 70
     0
  9
$REGENMODE
 70
     1
  9
$FILLMODE
 70
     1
  9
$QTEXTMODE
 70
     0
  9
$MIRRTEXT
 70
     1
  9
$DRAGMODE
 70
     2
  9
$LTSCALE
 40
1.0
  9
$OSMODE
 70
    37
  9
$ATTMODE
 70
     1
  9
$TEXTSIZE
 40
3.5
  9
$TRACEWID
 40
1.0
  9
$TEXTSTYLE
  7
STANDARD
  9
$CLAYER
  8
0
  9
$CELTYPE
  6
BYLAYER
  9
$CECOLOR
 62
   256
  9
$DIMSCALE
 40
1.0
  9
$DIMASZ
 40
3.302
  9
$DIMEXO
 40
1.0
  9
$DIMDLI
 40
3.75
  9
$DIMRND
 40
0.0
  9
$DIMDLE
 40
0.0
  9
$DIMEXE
 40
1.0
  9
$DIMTP
 40
0.0
  9
$DIMTM
 40
0.0
  9
$DIMTXT
 40
3.5
  9
$DIMCEN
 40
2.5
  9
$DIMTSZ
 40
0.0
  9
$DIMTOL
 70
     0
  9
$DIMLIM
 70
     0
  9
$DIMTIH
 70
     1
  9
$DIMTOH
 70
     1
  9
$DIMSE1
 70
     0
  9
$DIMSE2
 70
     0
  9
$DIMTAD
 70
     1
  9
$DIMZIN
 70
     0
  9
$DIMBLK
  1

  9
$DIMASO
 70
     1
  9
$DIMSHO
 70
     1
  9
$DIMPOST
  1

  9
$DIMAPOST
  1

  9
$DIMALT
 70
     0
  9
$DIMALTD
 70
     3
  9
$DIMALTF
 40
0.0393700787
  9
$DIMLFAC
 40
0.5
  9
$DIMTOFL
 70
     1
  9
$DIMTVP
 40
0.0
  9
$DIMTIX
 70
     0
  9
$DIMSOXD
 70
     0
  9
$DIMSAH
 70
     0
  9
$DIMBLK1
  1

  9
$DIMBLK2
  1

  9
$DIMSTYLE
  2
ISO-25
  9
$DIMCLRD
 70
     0
  9
$DIMCLRE
 70
     0
  9
$DIMCLRT
 70
     0
  9
$DIMTFAC
 40
1.0
  9
$DIMGAP
 40
1.524
  9
$LUNITS
 70
     2
  9
$LUPREC
 70
     2
  9
$SKETCHINC
 40
1.0
  9
$FILLETRAD
 40
10.0
  9
$AUNITS
 70
     0
  9
$AUPREC
 70
     2
  9
$MENU
  1
.
  9
$ELEVATION
 40
0.0
  9
$PELEVATION
 40
0.0
  9
$THICKNESS
 40
0.0
  9
$LIMCHECK
 70
     0
  9
$CHAMFERA
 40
10.0
  9
$CHAMFERB
 40
10.0
  9
$SKPOLY
 70
     0
  9
$TDCREATE
 40
2456629.667055787
  9
$TDUPDATE
 40
2456629.667055972
  9
$TDINDWG
 40
0.0000000116
  9
$TDUSRTIMER
 40
0.0000000116
  9
$USRTIMER
 70
     1
  9
$ANGBASE
 50
0.0
  9
$ANGDIR
 70
     0
  9
$PDMODE
 70
     0
  9
$PDSIZE
 40
-1.0
  9
$PLINEWID
 40
0.0
  9
$COORDS
 70
     1
  9
$SPLFRAME
 70
     0
  9
$SPLINETYPE
 70
     6
  9
$SPLINESEGS
 70
     8
  9
$ATTDIA
 70
     0
  9
$ATTREQ
 70
     1
  9
$HANDLING
 70
     1
  9
$HANDSEED
  5
3D9
  9
$SURFTAB1
 70
     6
  9
$SURFTAB2
 70
     6
  9
$SURFTYPE
 70
     6
  9
$SURFU
 70
     6
  9
$SURFV
 70
     6
  9
$UCSNAME
  2

  9
$UCSORG
 10
0.0
 20
0.0
 30
0.0
  9
$UCSXDIR
 10
1.0
 20
0.0
 30
0.0
  9
$UCSYDIR
 10
0.0
 20
1.0
 30
0.0
  9
$PUCSNAME
  2

  9
$PUCSORG
 10
0.0
 20
0.0
 30
0.0
  9
$PUCSXDIR
 10
1.0
 20
0.0
 30
0.0
  9
$PUCSYDIR
 10
0.0
 20
1.0
 30
0.0
  9
$USERI1
 70
     0
  9
$USERI2
 70
     0
  9
$USERI3
 70
     0
  9
$USERI4
 70
     0
  9
$USERI5
 70
     0
  9
$USERR1
 40
0.0
  9
$USERR2
 40
0.0
  9
$USERR3
 40
0.0
  9
$USERR4
 40
0.0
  9
$USERR5
 40
0.0
  9
$WORLDVIEW
 70
     1
  9
$SHADEDGE
 70
     3
  9
$SHADEDIF
 70
    70
  9
$TILEMODE
 70
     1
  9
$MAXACTVP
 70
    64
  9
$PLIMCHECK
 70
     0
  9
$PEXTMIN
 10
1.0000000000E+20
 20
1.0000000000E+20
 30
1.0000000000E+20
  9
$PEXTMAX
 10
-1.0000000000E+20
 20
-1.0000000000E+20
 30
-1.0000000000E+20
  9
$PLIMMIN
 10
0.0
 20
0.0
  9
$PLIMMAX
 10
420.0
 20
297.0
  9
$UNITMODE
 70
     0
  9
$VISRETAIN
 70
     1
  9
$PLINEGEN
 70
     0
  9
$PSLTSCALE
 70
     1
  0
ENDSEC
  0
SECTION
  2
TABLES
  0
TABLE
  2
VPORT
 70
     1
  0
VPORT
  2
*ACTIVE
 70
     0
 10
0.0
 20
0.0
 11
1.0
 21
1.0
 12
105.0
 22
148.5
 13
0.0
 23
0.0
 14
10.0
 24
10.0
 15
10.0
 25
10.0
 16
0.0
 26
0.0
 36
1.0
 17
0.0
 27
0.0
 37
0.0
 40
297.0
 41
0.7070707071
 42
50.0
 43
0.0
 44
0.0
 50
0.0
 51
0.0
 71
     0
 72
  2000
 73
     1
 74
     3
 75
     0
 76
     0
 77
     0
 78
     0
  0
ENDTAB
  0
TABLE
  2
LTYPE
 70
     6
  0
LTYPE
  2
CONTINUOUS
 70
     0
  3
Solid line
 72
    65
 73
     0
 40
0.0
  0
LTYPE
  2
HIDDEN
 70
     0
  3
Hidden __ __ __ __ __ __ __ __ __ __ __ __ __ __
 72
    65
 73
     2
 40
1.905
 49
1.27
 49
-0.635
  0
LTYPE
  2
PHANTOM
 70
     0
  3
Phantom ______  __  __  ______  __  __  ______
 72
    65
 73
     6
 40
12.7
 49
6.35
 49
-1.27
 49
1.27
 49
-1.27
 49
1.27
 49
-1.27
  0
LTYPE
  2
CENTER
 70
     0
  3
Center ____ _ ____ _ ____ _ ____ _ ____ _ ____
 72
    65
 73
     4
 40
10.16
 49
6.35
 49
-1.27
 49
1.27
 49
-1.27
  0
LTYPE
  2
CENTERX2
 70
     0
  3
Center (2x) ________  __  ________  __  _____
 72
    65
 73
     4
 40
20.32
 49
12.7
 49
-2.54
 49
2.54
 49
-2.54
  0
LTYPE
  2
DOT2
 70
     0
  3
Dot (.5x) ........................................
 72
    65
 73
     2
 40
0.635
 49
0.0
 49
-0.635
  0
ENDTAB
  0
TABLE
  2
LAYER
 70
     1
  0
LAYER
  2
0
 70
     0
 62
     7
  6
CONTINUOUS
  0
ENDTAB
  0
TABLE
  2
STYLE
 70
     1
  0
STYLE
  2
STANDARD
 70
     0
 40
0.0
 41
1.0
 50
0.0
 71
     0
 42
3.5
  3
txt
  4

  0
ENDTAB
  0
TABLE
  2
VIEW
 70
     0
  0
ENDTAB
  0
TABLE
  2
UCS
 70
     0
  0
ENDTAB
  0
TABLE
  2
APPID
 70
     1
  0
APPID
  2
ACAD
 70
     0
  0
ENDTAB
  0
TABLE
  2
DIMSTYLE
 70
     1
  0
DIMSTYLE
  2
ISO-25
 70
     0
  3

  4

  5

  6

  7

 40
1.0
 41
2.5
 42
0.625
 43
3.75
 44
1.25
 45
0.0
 46
0.0
 47
0.0
 48
0.0
140
2.5
141
2.5
142
0.0
143
0.0393700787
144
1.0
145
0.0
146
1.0
147
0.625
 71
     0
 72
     0
 73
     0
 74
     0
 75
     0
 76
     0
 77
     1
 78
     8
170
     0
171
     3
172
     1
173
     0
174
     0
175
     0
176
     0
177
     0
178
     0
  0
ENDTAB
  0
ENDSEC
  0
SECTION
  2
BLOCKS
  0
BLOCK
  8
0
  2
$MODEL_SPACE
 70
     0
 10
0.0
 20
0.0
 30
0.0
  3
$MODEL_SPACE
  1

  0
ENDBLK
  5
21
  8
0
  0
BLOCK
 67
     1
  8
0
  2
$PAPER_SPACE
 70
     0
 10
0.0
 20
0.0
 30
0.0
  3
$PAPER_SPACE
  1

  0
ENDBLK
  5
1D
 67
     1
  8
0
  0
ENDSEC
  0
SECTION
  2
ENTITIES
  0
LINE
  5
44
  8
0
  6
CONTINUOUS
 62
     7
 10
100.2931723969
 20
146.5436509499
 30
0.0
 11
100.2931723969
 21
143.0795493347
 31
0.0
  0
LINE
  5
45
  8
0
  6
CONTINUOUS
 62
     7
 10
101.2931723969
 20
143.0795493347
 30
0.0
 11
101.2931723969
 21
146.5436509499
 31
0.0
  0
POLYLINE
  5
46
  8
0
  6
CONTINUOUS
 62
     7
 66
     1
 10
0.0
 20
0.0
 30
0.0
  0
VERTEX
  5
C8
  8
0
  6
CONTINUOUS
 62
     7
 10
101.9837791615
 20
142.5018189039
 30
0.0
  0
VERTEX
  5
C9
  8
0
  6
CONTINUOUS
 62
     7
 10
101.890515468
 20
142.4607849646
 30
0.0
  0
VERTEX
  5
CA
  8
0
  6
CONTINUOUS
 62
     7
 10
101.7342947119
 20
142.4199971395
 30
0.0
  0
VERTEX
  5
CB
  8
0
  6
CONTINUOUS
 62
     7
 10
101.617135466
 20
142.4199236163
 30
0.0
  0
VERTEX
  5
CC
  8
0
  6
CONTINUOUS
 62
     7
 10
101.5284976321
 20
142.4492345364
 30
0.0
  0
VERTEX
  5
CD
  8
0
  6
CONTINUOUS
 62
     7
 10
101.4469300454
 20
142.5171630485
 30
0.0
  0
VERTEX
  5
CE
  8
0
  6
CONTINUOUS
 62
     7
 10
101.3787819491
 20
142.6252189619
 30
0.0
  0
VERTEX
  5
CF
  8
0
  6
CONTINUOUS
 62
     7
 10
101.3247668847
 20
142.7836002645
 30
0.0
  0
VERTEX
  5
D0
  8
0
  6
CONTINUOUS
 62
     7
 10
101.2948841457
 20
143.0062079614
 30
0.0
  0
VERTEX
  5
D1
  8
0
  6
CONTINUOUS
 62
     7
 10
101.2931723969
 20
143.0795493347
 30
0.0
  0
SEQEND
  5
3D8
  8
0
  6
CONTINUOUS
 62
     7
  0
ARC
  5
47
  8
0
  6
CONTINUOUS
 62
     7
 10
101.7312754741
 20
142.8796006776
 30
0.0
 40
1.451936612254487
 50
172.0845463343
 51
298.810875081
  0
ARC
  5
48
  8
0
  6
CONTINUOUS
 62
     7
 10
104.0061929091
 20
143.181346014
 30
0.0
 40
1.993653157787544
 50
118.1960436559
 51
198.0074330009
  0
ARC
  5
49
  8
0
  6
CONTINUOUS
 62
     7
 10
104.1638274203
 20
142.7038285711
 30
0.0
 40
1.905764800153109
 50
212.762460967
 51
297.1666720157
  0
LINE
  5
4A
  8
0
  6
CONTINUOUS
 62
     7
 10
105.0297335005
 20
141.0061043037
 30
0.0
 11
106.0196829941
 21
141.5010790505
 31
0.0
  0
LINE
  5
4B
  8
0
  6
CONTINUOUS
 62
     7
 10
104.0519431739
 20
145.4365586909
 30
0.0
 11
103.0619936803
 21
144.9415839441
 31
0.0
  0
LINE
  5
4C
  8
0
  6
CONTINUOUS
 62
     7
 10
102.6908859427
 20
142.8553722945
 30
0.0
 11
101.9837791615
 21
142.5018189039
 31
0.0
  0
LINE
  5
4D
  8
0
  6
CONTINUOUS
 62
     7
 10
102.430992757
 20
141.6073917129
 30
0.0
 11
103.1380995382
 21
141.9609451035
 31
0.0
  0
LINE
  5
4E
  8
0
  6
CONTINUOUS
 62
     7
 10
104.6436179175
 20
145.8441994616
 30
0.0
 11
104.0779324925
 21
145.5613567491
 31
0.0
  0
LINE
  5
4F
  8
0
  6
CONTINUOUS
 62
     7
 10
106.1351150318
 20
141.4469916705
 30
0.0
 11
106.7008004568
 21
141.729834383
 31
0.0
  0
LINE
  5
50
  8
0
  6
CONTINUOUS
 62
     7
 10
107.0235025586
 20
142.0029888328
 30
0.0
 11
107.8906523878
 21
142.4365637474
 31
0.0
  0
LINE
  5
51
  8
0
  6
CONTINUOUS
 62
     7
 10
105.9229125676
 20
146.3720433878
 30
0.0
 11
105.0557627384
 21
145.9384684732
 31
0.0
  0
LINE
  5
52
  8
0
  6
CONTINUOUS
 62
     7
 10
106.5145873111
 20
146.7796841584
 30
0.0
 11
105.9489018861
 21
146.4968414459
 31
0.0
  0
LINE
  5
53
  8
0
  6
CONTINUOUS
 62
     7
 10
108.0060844254
 20
142.3824763673
 30
0.0
 11
108.5717698504
 21
142.6653190798
 31
0.0
  0
LINE
  5
54
  8
0
  6
CONTINUOUS
 62
     7
 10
108.8944719523
 20
142.9384735296
 30
0.0
 11
109.3048659502
 21
143.1436705285
 31
0.0
  0
LINE
  5
55
  8
0
  6
CONTINUOUS
 62
     7
 10
107.33712613
 20
147.0791501689
 30
0.0
 11
106.9267321321
 21
146.87395317
 31
0.0
  0
LINE
  5
56
  8
0
  6
CONTINUOUS
 62
     7
 10
107.9288008735
 20
147.4867909396
 30
0.0
 11
107.3631154485
 21
147.2039482271
 31
0.0
  0
LINE
  5
57
  8
0
  6
CONTINUOUS
 62
     7
 10
109.4202979878
 20
143.0895831485
 30
0.0
 11
109.9859834128
 21
143.372425861
 31
0.0
  0
LINE
  5
58
  8
0
  6
CONTINUOUS
 62
     7
 10
110.3086855146
 20
143.6455803108
 30
0.0
 11
110.7190795125
 21
143.8507773097
 31
0.0
  0
LINE
  5
59
  8
0
  6
CONTINUOUS
 62
     7
 10
108.7513396923
 20
147.7862569501
 30
0.0
 11
108.3409456944
 21
147.5810599512
 31
0.0
  0
LINE
  5
5A
  8
0
  6
CONTINUOUS
 62
     7
 10
109.3430144358
 20
148.1938977208
 30
0.0
 11
108.7773290109
 21
147.9110550083
 31
0.0
  0
LINE
  5
5B
  8
0
  6
CONTINUOUS
 62
     7
 10
110.8345115502
 20
143.7966899297
 30
0.0
 11
111.4001969751
 21
144.0795326422
 31
0.0
  0
LINE
  5
5C
  8
0
  6
CONTINUOUS
 62
     7
 10
111.722899077
 20
144.352687092
 30
0.0
 11
112.6664867373
 21
144.8244809221
 31
0.0
  0
LINE
  5
5D
  8
0
  6
CONTINUOUS
 62
     7
 10
110.6987469171
 20
148.7599605625
 30
0.0
 11
109.7551592568
 21
148.2881667324
 31
0.0
  0
ARC
  5
5E
  8
0
  6
CONTINUOUS
 62
     7
 10
111.5299325406
 20
146.7136007205
 30
0.0
 40
2.204961381908829
 50
301.1560701486
 51
112.0833818467
  0
LINE
  5
5F
  8
0
  6
CONTINUOUS
 62
     7
 10
114.4353080206
 20
153.6147187618
 30
0.0
 11
114.4353080206
 21
150.1506171466
 31
0.0
  0
LINE
  5
60
  8
0
  6
CONTINUOUS
 62
     7
 10
115.4353080206
 20
150.1506171466
 30
0.0
 11
115.4353080206
 21
153.6147187618
 31
0.0
  0
ARC
  5
61
  8
0
  6
CONTINUOUS
 62
     7
 10
112.063645174
 20
150.1871720756
 30
0.0
 40
3.371861001671611
 50
299.9044047634
 51
359.3788343647
  0
ARC
  5
62
  8
0
  6
CONTINUOUS
 62
     7
 10
112.0626873464
 20
150.1849444611
 30
0.0
 40
2.372868986753153
 50
301.3579354857
 51
359.1710967345
  0
LINE
  5
63
  8
0
  6
CONTINUOUS
 62
     7
 10
113.6211413311
 20
147.2024659999
 30
0.0
 11
113.744701256
 21
147.2642459624
 31
0.0
  0
LINE
  5
64
  8
0
  6
CONTINUOUS
 62
     7
 10
113.2974876605
 20
148.1586731534
 30
0.0
 11
113.1666575041
 21
148.0932580752
 31
0.0
  0
LINE
  5
65
  8
0
  6
CONTINUOUS
 62
     7
 10
122.4826366559
 20
170.3758096651
 30
0.0
 11
122.4826366559
 21
173.1470909572
 31
0.0
  0
LINE
  5
66
  8
0
  6
CONTINUOUS
 62
     7
 10
71.2826366559
 20
173.1470909572
 30
0.0
 11
71.2826366559
 21
170.3758096651
 31
0.0
  0
POLYLINE
  5
67
  8
0
  6
CONTINUOUS
 62
     7
 66
     1
 10
0.0
 20
0.0
 30
0.0
  0
VERTEX
  5
D2
  8
0
  6
CONTINUOUS
 62
     7
 10
100.4396190063
 20
146.7204276452
 30
0.0
  0
VERTEX
  5
D3
  8
0
  6
CONTINUOUS
 62
     7
 10
100.3312326307
 20
146.639321808
 30
0.0
  0
VERTEX
  5
D4
  8
0
  6
CONTINUOUS
 62
     7
 10
100.2931723969
 20
146.5436509499
 30
0.0
  0
VERTEX
  5
D5
  8
0
  6
CONTINUOUS
 62
     7
 10
100.3312326307
 20
146.4479800918
 30
0.0
  0
VERTEX
  5
D6
  8
0
  6
CONTINUOUS
 62
     7
 10
100.4396190063
 20
146.3668742546
 30
0.0
  0
VERTEX
  5
D7
  8
0
  6
CONTINUOUS
 62
     7
 10
100.6018306807
 20
146.3126810668
 30
0.0
  0
VERTEX
  5
D8
  8
0
  6
CONTINUOUS
 62
     7
 10
100.7931723969
 20
146.2936509499
 30
0.0
  0
VERTEX
  5
D9
  8
0
  6
CONTINUOUS
 62
     7
 10
100.9845141131
 20
146.3126810668
 30
0.0
  0
VERTEX
  5
DA
  8
0
  6
CONTINUOUS
 62
     7
 10
101.1467257875
 20
146.3668742546
 30
0.0
  0
VERTEX
  5
DB
  8
0
  6
CONTINUOUS
 62
     7
 10
101.2551121632
 20
146.4479800918
 30
0.0
  0
VERTEX
  5
DC
  8
0
  6
CONTINUOUS
 62
     7
 10
101.2931723969
 20
146.5436509499
 30
0.0
  0
VERTEX
  5
DD
  8
0
  6
CONTINUOUS
 62
     7
 10
101.2551121632
 20
146.639321808
 30
0.0
  0
VERTEX
  5
DE
  8
0
  6
CONTINUOUS
 62
     7
 10
101.1467257875
 20
146.7204276452
 30
0.0
  0
VERTEX
  5
DF
  8
0
  6
CONTINUOUS
 62
     7
 10
100.9845141131
 20
146.774620833
 30
0.0
  0
VERTEX
  5
E0
  8
0
  6
CONTINUOUS
 62
     7
 10
100.7931723969
 20
146.7936509499
 30
0.0
  0
VERTEX
  5
E1
  8
0
  6
CONTINUOUS
 62
     7
 10
100.6018306807
 20
146.774620833
 30
0.0
  0
VERTEX
  5
E2
  8
0
  6
CONTINUOUS
 62
     7
 10
100.4396190063
 20
146.7204276452
 30
0.0
  0
SEQEND
  5
3D7
  8
0
  6
CONTINUOUS
 62
     7
  0
POLYLINE
  5
68
  8
0
  6
CONTINUOUS
 62
     7
 66
     1
 10
0.0
 20
0.0
 30
0.0
  0
VERTEX
  5
E3
  8
0
  6
CONTINUOUS
 62
     7
 10
106.0196829941
 20
141.5010790505
 30
0.0
  0
VERTEX
  5
E4
  8
0
  6
CONTINUOUS
 62
     7
 10
106.0545373086
 20
141.5195604318
 30
0.0
  0
VERTEX
  5
E5
  8
0
  6
CONTINUOUS
 62
     7
 10
106.2586247261
 20
141.6796620013
 30
0.0
  0
VERTEX
  5
E6
  8
0
  6
CONTINUOUS
 62
     7
 10
106.4185165449
 20
141.9044283616
 30
0.0
  0
VERTEX
  5
E7
  8
0
  6
CONTINUOUS
 62
     7
 10
106.5284338579
 20
142.1857358709
 30
0.0
  0
VERTEX
  5
E8
  8
0
  6
CONTINUOUS
 62
     7
 10
106.5844039673
 20
142.5134173429
 30
0.0
  0
VERTEX
  5
E9
  8
0
  6
CONTINUOUS
 62
     7
 10
106.5844039673
 20
142.8756295153
 30
0.0
  0
VERTEX
  5
EA
  8
0
  6
CONTINUOUS
 62
     7
 10
106.5284338579
 20
143.2592810966
 30
0.0
  0
VERTEX
  5
EB
  8
0
  6
CONTINUOUS
 62
     7
 10
106.4185165449
 20
143.650505919
 30
0.0
  0
VERTEX
  5
EC
  8
0
  6
CONTINUOUS
 62
     7
 10
106.2586247261
 20
144.0351640981
 30
0.0
  0
VERTEX
  5
ED
  8
0
  6
CONTINUOUS
 62
     7
 10
106.0545373086
 20
144.3993530851
 30
0.0
  0
VERTEX
  5
EE
  8
0
  6
CONTINUOUS
 62
     7
 10
105.8136305433
 20
144.7299101411
 30
0.0
  0
VERTEX
  5
EF
  8
0
  6
CONTINUOUS
 62
     7
 10
105.5446114285
 20
145.0148880728
 30
0.0
  0
VERTEX
  5
F0
  8
0
  6
CONTINUOUS
 62
     7
 10
105.2572030159
 20
145.2439870353
 30
0.0
  0
VERTEX
  5
F1
  8
0
  6
CONTINUOUS
 62
     7
 10
104.9617929943
 20
145.4089267952
 30
0.0
  0
VERTEX
  5
F2
  8
0
  6
CONTINUOUS
 62
     7
 10
104.6690582516
 20
145.5037459999
 30
0.0
  0
VERTEX
  5
F3
  8
0
  6
CONTINUOUS
 62
     7
 10
104.3895789841
 20
145.5250176361
 30
0.0
  0
VERTEX
  5
F4
  8
0
  6
CONTINUOUS
 62
     7
 10
104.1334563007
 20
145.4719728915
 30
0.0
  0
VERTEX
  5
F5
  8
0
  6
CONTINUOUS
 62
     7
 10
104.0519431739
 20
145.4365586909
 30
0.0
  0
SEQEND
  5
3D6
  8
0
  6
CONTINUOUS
 62
     7
  0
POLYLINE
  5
69
  8
0
  6
CONTINUOUS
 62
     7
 66
     1
 10
0.0
 20
0.0
 30
0.0
  0
VERTEX
  5
F6
  8
0
  6
CONTINUOUS
 62
     7
 10
103.2680461311
 20
142.2313820037
 30
0.0
  0
VERTEX
  5
F7
  8
0
  6
CONTINUOUS
 62
     7
 10
103.2411334817
 20
142.4105451154
 30
0.0
  0
VERTEX
  5
F8
  8
0
  6
CONTINUOUS
 62
     7
 10
103.1644927405
 20
142.5893449168
 30
0.0
  0
VERTEX
  5
F9
  8
0
  6
CONTINUOUS
 62
     7
 10
103.0497917655
 20
142.740560759
 30
0.0
  0
VERTEX
  5
FA
  8
0
  6
CONTINUOUS
 62
     7
 10
102.9144927405
 20
142.8411714009
 30
0.0
  0
VERTEX
  5
FB
  8
0
  6
CONTINUOUS
 62
     7
 10
102.7791937154
 20
142.8758597841
 30
0.0
  0
VERTEX
  5
FC
  8
0
  6
CONTINUOUS
 62
     7
 10
102.6908859427
 20
142.8553722945
 30
0.0
  0
SEQEND
  5
3D5
  8
0
  6
CONTINUOUS
 62
     7
  0
ARC
  5
6A
  8
0
  6
CONTINUOUS
 62
     7
 10
102.9997162023
 20
142.1938776654
 30
0.0
 40
0.2709382329293937
 50
300.7142015769
 51
7.9566568278
  0
POLYLINE
  5
6B
  8
0
  6
CONTINUOUS
 62
     7
 66
     1
 10
0.0
 20
0.0
 30
0.0
  0
VERTEX
  5
FD
  8
0
  6
CONTINUOUS
 62
     7
 10
103.7552303906
 20
145.2882022993
 30
0.0
  0
VERTEX
  5
FE
  8
0
  6
CONTINUOUS
 62
     7
 10
103.9294820961
 20
145.4672347383
 30
0.0
  0
VERTEX
  5
FF
  8
0
  6
CONTINUOUS
 62
     7
 10
104.0779324925
 20
145.5613567491
 30
0.0
  0
SEQEND
  5
3D4
  8
0
  6
CONTINUOUS
 62
     7
  0
POLYLINE
  5
6C
  8
0
  6
CONTINUOUS
 62
     7
 66
     1
 10
0.0
 20
0.0
 30
0.0
  0
VERTEX
  5
100
  8
0
  6
CONTINUOUS
 62
     7
 10
106.1351150318
 20
141.4469916705
 30
0.0
  0
VERTEX
  5
101
  8
0
  6
CONTINUOUS
 62
     7
 10
105.9196965605
 20
141.3725878106
 30
0.0
  0
VERTEX
  5
102
  8
0
  6
CONTINUOUS
 62
     7
 10
105.7229702108
 20
141.3527226589
 30
0.0
  0
SEQEND
  5
3D3
  8
0
  6
CONTINUOUS
 62
     7
  0
POLYLINE
  5
6D
  8
0
  6
CONTINUOUS
 62
     7
 66
     1
 10
0.0
 20
0.0
 30
0.0
  0
VERTEX
  5
103
  8
0
  6
CONTINUOUS
 62
     7
 10
107.2985547838
 20
142.9738441239
 30
0.0
  0
VERTEX
  5
104
  8
0
  6
CONTINUOUS
 62
     7
 10
107.2691646002
 20
143.3655009019
 30
0.0
  0
VERTEX
  5
105
  8
0
  6
CONTINUOUS
 62
     7
 10
107.1820562871
 20
143.7723923672
 30
0.0
  0
VERTEX
  5
106
  8
0
  6
CONTINUOUS
 62
     7
 10
107.040378166
 20
144.179812402
 30
0.0
  0
VERTEX
  5
107
  8
0
  6
CONTINUOUS
 62
     7
 10
106.8492508532
 20
144.5730357847
 30
0.0
  0
VERTEX
  5
108
  8
0
  6
CONTINUOUS
 62
     7
 10
106.6155821878
 20
144.9378503978
 30
0.0
  0
VERTEX
  5
109
  8
0
  6
CONTINUOUS
 62
     7
 10
106.3478175643
 20
145.2610708906
 30
0.0
  0
VERTEX
  5
10A
  8
0
  6
CONTINUOUS
 62
     7
 10
106.0556346938
 20
145.5310152324
 30
0.0
  0
VERTEX
  5
10B
  8
0
  6
CONTINUOUS
 62
     7
 10
105.7495938264
 20
145.7379269313
 30
0.0
  0
VERTEX
  5
10C
  8
0
  6
CONTINUOUS
 62
     7
 10
105.4407560765
 20
145.8743276595
 30
0.0
  0
VERTEX
  5
10D
  8
0
  6
CONTINUOUS
 62
     7
 10
105.1402836451
 20
145.9352875391
 30
0.0
  0
VERTEX
  5
10E
  8
0
  6
CONTINUOUS
 62
     7
 10
104.8590363887
 20
145.9186033215
 30
0.0
  0
VERTEX
  5
10F
  8
0
  6
CONTINUOUS
 62
     7
 10
104.6436179175
 20
145.8441994616
 30
0.0
  0
SEQEND
  5
3D2
  8
0
  6
CONTINUOUS
 62
     7
  0
ARC
  5
6E
  8
0
  6
CONTINUOUS
 62
     7
 10
105.9833680738
 20
142.8401822375
 30
0.0
 40
1.32196126351026
 50
302.8678360606
 51
5.8030223442
  0
POLYLINE
  5
6F
  8
0
  6
CONTINUOUS
 62
     7
 66
     1
 10
0.0
 20
0.0
 30
0.0
  0
VERTEX
  5
110
  8
0
  6
CONTINUOUS
 62
     7
 10
107.8906523878
 20
142.4365637474
 30
0.0
  0
VERTEX
  5
111
  8
0
  6
CONTINUOUS
 62
     7
 10
107.9255067022
 20
142.4550451286
 30
0.0
  0
VERTEX
  5
112
  8
0
  6
CONTINUOUS
 62
     7
 10
108.1295941197
 20
142.6151466981
 30
0.0
  0
VERTEX
  5
113
  8
0
  6
CONTINUOUS
 62
     7
 10
108.2894859385
 20
142.8399130584
 30
0.0
  0
VERTEX
  5
114
  8
0
  6
CONTINUOUS
 62
     7
 10
108.3994032516
 20
143.1212205677
 30
0.0
  0
VERTEX
  5
115
  8
0
  6
CONTINUOUS
 62
     7
 10
108.4553733609
 20
143.4489020397
 30
0.0
  0
VERTEX
  5
116
  8
0
  6
CONTINUOUS
 62
     7
 10
108.4553733609
 20
143.8111142122
 30
0.0
  0
VERTEX
  5
117
  8
0
  6
CONTINUOUS
 62
     7
 10
108.3994032516
 20
144.1947657935
 30
0.0
  0
VERTEX
  5
118
  8
0
  6
CONTINUOUS
 62
     7
 10
108.2894859385
 20
144.5859906159
 30
0.0
  0
VERTEX
  5
119
  8
0
  6
CONTINUOUS
 62
     7
 10
108.1295941197
 20
144.9706487949
 30
0.0
  0
VERTEX
  5
11A
  8
0
  6
CONTINUOUS
 62
     7
 10
107.9255067022
 20
145.3348377819
 30
0.0
  0
VERTEX
  5
11B
  8
0
  6
CONTINUOUS
 62
     7
 10
107.684599937
 20
145.6653948379
 30
0.0
  0
VERTEX
  5
11C
  8
0
  6
CONTINUOUS
 62
     7
 10
107.4155808222
 20
145.9503727696
 30
0.0
  0
VERTEX
  5
11D
  8
0
  6
CONTINUOUS
 62
     7
 10
107.1281724095
 20
146.1794717322
 30
0.0
  0
VERTEX
  5
11E
  8
0
  6
CONTINUOUS
 62
     7
 10
106.8327623879
 20
146.3444114921
 30
0.0
  0
VERTEX
  5
11F
  8
0
  6
CONTINUOUS
 62
     7
 10
106.5400276452
 20
146.4392306967
 30
0.0
  0
VERTEX
  5
120
  8
0
  6
CONTINUOUS
 62
     7
 10
106.2605483777
 20
146.4605023329
 30
0.0
  0
VERTEX
  5
121
  8
0
  6
CONTINUOUS
 62
     7
 10
106.0044256944
 20
146.4074575883
 30
0.0
  0
VERTEX
  5
122
  8
0
  6
CONTINUOUS
 62
     7
 10
105.9229125676
 20
146.3720433878
 30
0.0
  0
SEQEND
  5
3D1
  8
0
  6
CONTINUOUS
 62
     7
  0
POLYLINE
  5
70
  8
0
  6
CONTINUOUS
 62
     7
 66
     1
 10
0.0
 20
0.0
 30
0.0
  0
VERTEX
  5
123
  8
0
  6
CONTINUOUS
 62
     7
 10
105.6261997843
 20
146.2236869961
 30
0.0
  0
VERTEX
  5
124
  8
0
  6
CONTINUOUS
 62
     7
 10
105.8004514897
 20
146.4027194351
 30
0.0
  0
VERTEX
  5
125
  8
0
  6
CONTINUOUS
 62
     7
 10
105.9489018861
 20
146.4968414459
 30
0.0
  0
SEQEND
  5
3D0
  8
0
  6
CONTINUOUS
 62
     7
  0
POLYLINE
  5
71
  8
0
  6
CONTINUOUS
 62
     7
 66
     1
 10
0.0
 20
0.0
 30
0.0
  0
VERTEX
  5
126
  8
0
  6
CONTINUOUS
 62
     7
 10
108.0060844254
 20
142.3824763673
 30
0.0
  0
VERTEX
  5
127
  8
0
  6
CONTINUOUS
 62
     7
 10
107.7906659542
 20
142.3080725074
 30
0.0
  0
VERTEX
  5
128
  8
0
  6
CONTINUOUS
 62
     7
 10
107.5939396045
 20
142.2882073557
 30
0.0
  0
SEQEND
  5
3CF
  8
0
  6
CONTINUOUS
 62
     7
  0
POLYLINE
  5
72
  8
0
  6
CONTINUOUS
 62
     7
 66
     1
 10
0.0
 20
0.0
 30
0.0
  0
VERTEX
  5
129
  8
0
  6
CONTINUOUS
 62
     7
 10
109.1695241775
 20
143.9093288207
 30
0.0
  0
VERTEX
  5
12A
  8
0
  6
CONTINUOUS
 62
     7
 10
109.1401339938
 20
144.3009855988
 30
0.0
  0
VERTEX
  5
12B
  8
0
  6
CONTINUOUS
 62
     7
 10
109.0530256808
 20
144.707877064
 30
0.0
  0
VERTEX
  5
12C
  8
0
  6
CONTINUOUS
 62
     7
 10
108.9113475596
 20
145.1152970988
 30
0.0
  0
VERTEX
  5
12D
  8
0
  6
CONTINUOUS
 62
     7
 10
108.7202202468
 20
145.5085204815
 30
0.0
  0
VERTEX
  5
12E
  8
0
  6
CONTINUOUS
 62
     7
 10
108.4865515815
 20
145.8733350946
 30
0.0
  0
VERTEX
  5
12F
  8
0
  6
CONTINUOUS
 62
     7
 10
108.218786958
 20
146.1965555875
 30
0.0
  0
VERTEX
  5
130
  8
0
  6
CONTINUOUS
 62
     7
 10
107.9266040874
 20
146.4664999292
 30
0.0
  0
VERTEX
  5
131
  8
0
  6
CONTINUOUS
 62
     7
 10
107.62056322
 20
146.6734116282
 30
0.0
  0
VERTEX
  5
132
  8
0
  6
CONTINUOUS
 62
     7
 10
107.3117254702
 20
146.8098123563
 30
0.0
  0
VERTEX
  5
133
  8
0
  6
CONTINUOUS
 62
     7
 10
107.0112530388
 20
146.870772236
 30
0.0
  0
VERTEX
  5
134
  8
0
  6
CONTINUOUS
 62
     7
 10
106.7300057824
 20
146.8540880183
 30
0.0
  0
VERTEX
  5
135
  8
0
  6
CONTINUOUS
 62
     7
 10
106.5145873111
 20
146.7796841584
 30
0.0
  0
SEQEND
  5
3CE
  8
0
  6
CONTINUOUS
 62
     7
  0
ARC
  5
73
  8
0
  6
CONTINUOUS
 62
     7
 10
107.8543374674
 20
143.7756669343
 30
0.0
 40
1.321961263510289
 50
302.8678360606
 51
5.8030223442
  0
POLYLINE
  5
74
  8
0
  6
CONTINUOUS
 62
     7
 66
     1
 10
0.0
 20
0.0
 30
0.0
  0
VERTEX
  5
136
  8
0
  6
CONTINUOUS
 62
     7
 10
109.3048659502
 20
143.1436705285
 30
0.0
  0
VERTEX
  5
137
  8
0
  6
CONTINUOUS
 62
     7
 10
109.3397202646
 20
143.1621519098
 30
0.0
  0
VERTEX
  5
138
  8
0
  6
CONTINUOUS
 62
     7
 10
109.5438076821
 20
143.3222534793
 30
0.0
  0
VERTEX
  5
139
  8
0
  6
CONTINUOUS
 62
     7
 10
109.7036995009
 20
143.5470198396
 30
0.0
  0
VERTEX
  5
13A
  8
0
  6
CONTINUOUS
 62
     7
 10
109.813616814
 20
143.8283273489
 30
0.0
  0
VERTEX
  5
13B
  8
0
  6
CONTINUOUS
 62
     7
 10
109.8695869233
 20
144.1560088209
 30
0.0
  0
VERTEX
  5
13C
  8
0
  6
CONTINUOUS
 62
     7
 10
109.8695869233
 20
144.5182209933
 30
0.0
  0
VERTEX
  5
13D
  8
0
  6
CONTINUOUS
 62
     7
 10
109.813616814
 20
144.9018725746
 30
0.0
  0
VERTEX
  5
13E
  8
0
  6
CONTINUOUS
 62
     7
 10
109.7036995009
 20
145.293097397
 30
0.0
  0
VERTEX
  5
13F
  8
0
  6
CONTINUOUS
 62
     7
 10
109.5438076821
 20
145.6777555761
 30
0.0
  0
VERTEX
  5
140
  8
0
  6
CONTINUOUS
 62
     7
 10
109.3397202646
 20
146.0419445631
 30
0.0
  0
VERTEX
  5
141
  8
0
  6
CONTINUOUS
 62
     7
 10
109.0988134994
 20
146.3725016191
 30
0.0
  0
VERTEX
  5
142
  8
0
  6
CONTINUOUS
 62
     7
 10
108.8297943845
 20
146.6574795508
 30
0.0
  0
VERTEX
  5
143
  8
0
  6
CONTINUOUS
 62
     7
 10
108.5423859719
 20
146.8865785134
 30
0.0
  0
VERTEX
  5
144
  8
0
  6
CONTINUOUS
 62
     7
 10
108.2469759503
 20
147.0515182733
 30
0.0
  0
VERTEX
  5
145
  8
0
  6
CONTINUOUS
 62
     7
 10
107.9542412076
 20
147.1463374779
 30
0.0
  0
VERTEX
  5
146
  8
0
  6
CONTINUOUS
 62
     7
 10
107.6747619401
 20
147.1676091141
 30
0.0
  0
VERTEX
  5
147
  8
0
  6
CONTINUOUS
 62
     7
 10
107.4186392567
 20
147.1145643695
 30
0.0
  0
VERTEX
  5
148
  8
0
  6
CONTINUOUS
 62
     7
 10
107.33712613
 20
147.0791501689
 30
0.0
  0
SEQEND
  5
3CD
  8
0
  6
CONTINUOUS
 62
     7
  0
POLYLINE
  5
75
  8
0
  6
CONTINUOUS
 62
     7
 66
     1
 10
0.0
 20
0.0
 30
0.0
  0
VERTEX
  5
149
  8
0
  6
CONTINUOUS
 62
     7
 10
107.0404133467
 20
146.9307937773
 30
0.0
  0
VERTEX
  5
14A
  8
0
  6
CONTINUOUS
 62
     7
 10
107.2146650521
 20
147.1098262163
 30
0.0
  0
VERTEX
  5
14B
  8
0
  6
CONTINUOUS
 62
     7
 10
107.3631154485
 20
147.2039482271
 30
0.0
  0
SEQEND
  5
3CC
  8
0
  6
CONTINUOUS
 62
     7
  0
POLYLINE
  5
76
  8
0
  6
CONTINUOUS
 62
     7
 66
     1
 10
0.0
 20
0.0
 30
0.0
  0
VERTEX
  5
14C
  8
0
  6
CONTINUOUS
 62
     7
 10
109.4202979878
 20
143.0895831485
 30
0.0
  0
VERTEX
  5
14D
  8
0
  6
CONTINUOUS
 62
     7
 10
109.2048795165
 20
143.0151792886
 30
0.0
  0
VERTEX
  5
14E
  8
0
  6
CONTINUOUS
 62
     7
 10
109.0081531669
 20
142.9953141369
 30
0.0
  0
SEQEND
  5
3CB
  8
0
  6
CONTINUOUS
 62
     7
  0
POLYLINE
  5
77
  8
0
  6
CONTINUOUS
 62
     7
 66
     1
 10
0.0
 20
0.0
 30
0.0
  0
VERTEX
  5
14F
  8
0
  6
CONTINUOUS
 62
     7
 10
110.5837377398
 20
144.6164356019
 30
0.0
  0
VERTEX
  5
150
  8
0
  6
CONTINUOUS
 62
     7
 10
110.5543475562
 20
145.00809238
 30
0.0
  0
VERTEX
  5
151
  8
0
  6
CONTINUOUS
 62
     7
 10
110.4672392431
 20
145.4149838452
 30
0.0
  0
VERTEX
  5
152
  8
0
  6
CONTINUOUS
 62
     7
 10
110.325561122
 20
145.82240388
 30
0.0
  0
VERTEX
  5
153
  8
0
  6
CONTINUOUS
 62
     7
 10
110.1344338092
 20
146.2156272627
 30
0.0
  0
VERTEX
  5
154
  8
0
  6
CONTINUOUS
 62
     7
 10
109.9007651439
 20
146.5804418758
 30
0.0
  0
VERTEX
  5
155
  8
0
  6
CONTINUOUS
 62
     7
 10
109.6330005203
 20
146.9036623686
 30
0.0
  0
VERTEX
  5
156
  8
0
  6
CONTINUOUS
 62
     7
 10
109.3408176498
 20
147.1736067104
 30
0.0
  0
VERTEX
  5
157
  8
0
  6
CONTINUOUS
 62
     7
 10
109.0347767824
 20
147.3805184093
 30
0.0
  0
VERTEX
  5
158
  8
0
  6
CONTINUOUS
 62
     7
 10
108.7259390325
 20
147.5169191375
 30
0.0
  0
VERTEX
  5
159
  8
0
  6
CONTINUOUS
 62
     7
 10
108.4254666011
 20
147.5778790172
 30
0.0
  0
VERTEX
  5
15A
  8
0
  6
CONTINUOUS
 62
     7
 10
108.1442193448
 20
147.5611947995
 30
0.0
  0
VERTEX
  5
15B
  8
0
  6
CONTINUOUS
 62
     7
 10
107.9288008735
 20
147.4867909396
 30
0.0
  0
SEQEND
  5
3CA
  8
0
  6
CONTINUOUS
 62
     7
  0
ARC
  5
78
  8
0
  6
CONTINUOUS
 62
     7
 10
109.2685510298
 20
144.4827737155
 30
0.0
 40
1.321961263510229
 50
302.8678360606
 51
5.8030223442
  0
POLYLINE
  5
79
  8
0
  6
CONTINUOUS
 62
     7
 66
     1
 10
0.0
 20
0.0
 30
0.0
  0
VERTEX
  5
15C
  8
0
  6
CONTINUOUS
 62
     7
 10
110.7190795125
 20
143.8507773097
 30
0.0
  0
VERTEX
  5
15D
  8
0
  6
CONTINUOUS
 62
     7
 10
110.753933827
 20
143.869258691
 30
0.0
  0
VERTEX
  5
15E
  8
0
  6
CONTINUOUS
 62
     7
 10
110.9580212445
 20
144.0293602605
 30
0.0
  0
VERTEX
  5
15F
  8
0
  6
CONTINUOUS
 62
     7
 10
111.1179130633
 20
144.2541266208
 30
0.0
  0
VERTEX
  5
160
  8
0
  6
CONTINUOUS
 62
     7
 10
111.2278303763
 20
144.5354341301
 30
0.0
  0
VERTEX
  5
161
  8
0
  6
CONTINUOUS
 62
     7
 10
111.2838004857
 20
144.8631156021
 30
0.0
  0
VERTEX
  5
162
  8
0
  6
CONTINUOUS
 62
     7
 10
111.2838004857
 20
145.2253277745
 30
0.0
  0
VERTEX
  5
163
  8
0
  6
CONTINUOUS
 62
     7
 10
111.2278303763
 20
145.6089793558
 30
0.0
  0
VERTEX
  5
164
  8
0
  6
CONTINUOUS
 62
     7
 10
111.1179130633
 20
146.0002041782
 30
0.0
  0
VERTEX
  5
165
  8
0
  6
CONTINUOUS
 62
     7
 10
110.9580212445
 20
146.3848623573
 30
0.0
  0
VERTEX
  5
166
  8
0
  6
CONTINUOUS
 62
     7
 10
110.753933827
 20
146.7490513443
 30
0.0
  0
VERTEX
  5
167
  8
0
  6
CONTINUOUS
 62
     7
 10
110.5130270617
 20
147.0796084003
 30
0.0
  0
VERTEX
  5
168
  8
0
  6
CONTINUOUS
 62
     7
 10
110.2440079469
 20
147.364586332
 30
0.0
  0
VERTEX
  5
169
  8
0
  6
CONTINUOUS
 62
     7
 10
109.9565995343
 20
147.5936852945
 30
0.0
  0
VERTEX
  5
16A
  8
0
  6
CONTINUOUS
 62
     7
 10
109.6611895127
 20
147.7586250544
 30
0.0
  0
VERTEX
  5
16B
  8
0
  6
CONTINUOUS
 62
     7
 10
109.36845477
 20
147.8534442591
 30
0.0
  0
VERTEX
  5
16C
  8
0
  6
CONTINUOUS
 62
     7
 10
109.0889755025
 20
147.8747158953
 30
0.0
  0
VERTEX
  5
16D
  8
0
  6
CONTINUOUS
 62
     7
 10
108.8328528191
 20
147.8216711507
 30
0.0
  0
VERTEX
  5
16E
  8
0
  6
CONTINUOUS
 62
     7
 10
108.7513396923
 20
147.7862569501
 30
0.0
  0
SEQEND
  5
3C9
  8
0
  6
CONTINUOUS
 62
     7
  0
POLYLINE
  5
7A
  8
0
  6
CONTINUOUS
 62
     7
 66
     1
 10
0.0
 20
0.0
 30
0.0
  0
VERTEX
  5
16F
  8
0
  6
CONTINUOUS
 62
     7
 10
108.454626909
 20
147.6379005585
 30
0.0
  0
VERTEX
  5
170
  8
0
  6
CONTINUOUS
 62
     7
 10
108.6288786145
 20
147.8169329975
 30
0.0
  0
VERTEX
  5
171
  8
0
  6
CONTINUOUS
 62
     7
 10
108.7773290109
 20
147.9110550083
 30
0.0
  0
SEQEND
  5
3C8
  8
0
  6
CONTINUOUS
 62
     7
  0
POLYLINE
  5
7B
  8
0
  6
CONTINUOUS
 62
     7
 66
     1
 10
0.0
 20
0.0
 30
0.0
  0
VERTEX
  5
172
  8
0
  6
CONTINUOUS
 62
     7
 10
110.8345115502
 20
143.7966899297
 30
0.0
  0
VERTEX
  5
173
  8
0
  6
CONTINUOUS
 62
     7
 10
110.6190930789
 20
143.7222860698
 30
0.0
  0
VERTEX
  5
174
  8
0
  6
CONTINUOUS
 62
     7
 10
110.4223667292
 20
143.7024209181
 30
0.0
  0
SEQEND
  5
3C7
  8
0
  6
CONTINUOUS
 62
     7
  0
POLYLINE
  5
7C
  8
0
  6
CONTINUOUS
 62
     7
 66
     1
 10
0.0
 20
0.0
 30
0.0
  0
VERTEX
  5
175
  8
0
  6
CONTINUOUS
 62
     7
 10
111.9979513022
 20
145.3235423831
 30
0.0
  0
VERTEX
  5
176
  8
0
  6
CONTINUOUS
 62
     7
 10
111.9685611186
 20
145.7151991611
 30
0.0
  0
VERTEX
  5
177
  8
0
  6
CONTINUOUS
 62
     7
 10
111.8814528055
 20
146.1220906264
 30
0.0
  0
VERTEX
  5
178
  8
0
  6
CONTINUOUS
 62
     7
 10
111.7397746843
 20
146.5295106612
 30
0.0
  0
VERTEX
  5
179
  8
0
  6
CONTINUOUS
 62
     7
 10
111.5486473716
 20
146.9227340439
 30
0.0
  0
VERTEX
  5
17A
  8
0
  6
CONTINUOUS
 62
     7
 10
111.3149787062
 20
147.287548657
 30
0.0
  0
VERTEX
  5
17B
  8
0
  6
CONTINUOUS
 62
     7
 10
111.0472140827
 20
147.6107691498
 30
0.0
  0
VERTEX
  5
17C
  8
0
  6
CONTINUOUS
 62
     7
 10
110.7550312121
 20
147.8807134916
 30
0.0
  0
VERTEX
  5
17D
  8
0
  6
CONTINUOUS
 62
     7
 10
110.4489903448
 20
148.0876251905
 30
0.0
  0
VERTEX
  5
17E
  8
0
  6
CONTINUOUS
 62
     7
 10
110.1401525949
 20
148.2240259187
 30
0.0
  0
VERTEX
  5
17F
  8
0
  6
CONTINUOUS
 62
     7
 10
109.8396801635
 20
148.2849857983
 30
0.0
  0
VERTEX
  5
180
  8
0
  6
CONTINUOUS
 62
     7
 10
109.5584329071
 20
148.2683015806
 30
0.0
  0
VERTEX
  5
181
  8
0
  6
CONTINUOUS
 62
     7
 10
109.3430144358
 20
148.1938977208
 30
0.0
  0
SEQEND
  5
3C6
  8
0
  6
CONTINUOUS
 62
     7
  0
ARC
  5
7D
  8
0
  6
CONTINUOUS
 62
     7
 10
110.6827645922
 20
145.1898804967
 30
0.0
 40
1.321961263510237
 50
302.8678360606
 51
5.8030223442
  0
POLYLINE
  5
7E
  8
0
  6
CONTINUOUS
 62
     7
 66
     1
 10
0.0
 20
0.0
 30
0.0
  0
VERTEX
  5
182
  8
0
  6
CONTINUOUS
 62
     7
 10
114.5817546301
 20
153.791495457
 30
0.0
  0
VERTEX
  5
183
  8
0
  6
CONTINUOUS
 62
     7
 10
114.7439663045
 20
153.8456886449
 30
0.0
  0
VERTEX
  5
184
  8
0
  6
CONTINUOUS
 62
     7
 10
114.9353080206
 20
153.8647187618
 30
0.0
  0
VERTEX
  5
185
  8
0
  6
CONTINUOUS
 62
     7
 10
115.1266497368
 20
153.8456886449
 30
0.0
  0
VERTEX
  5
186
  8
0
  6
CONTINUOUS
 62
     7
 10
115.2888614112
 20
153.791495457
 30
0.0
  0
VERTEX
  5
187
  8
0
  6
CONTINUOUS
 62
     7
 10
115.3972477869
 20
153.7103896198
 30
0.0
  0
VERTEX
  5
188
  8
0
  6
CONTINUOUS
 62
     7
 10
115.4353080206
 20
153.6147187618
 30
0.0
  0
VERTEX
  5
189
  8
0
  6
CONTINUOUS
 62
     7
 10
115.3972477869
 20
153.5190479037
 30
0.0
  0
VERTEX
  5
18A
  8
0
  6
CONTINUOUS
 62
     7
 10
115.2888614112
 20
153.4379420665
 30
0.0
  0
VERTEX
  5
18B
  8
0
  6
CONTINUOUS
 62
     7
 10
115.1266497368
 20
153.3837488786
 30
0.0
  0
VERTEX
  5
18C
  8
0
  6
CONTINUOUS
 62
     7
 10
114.9353080206
 20
153.3647187618
 30
0.0
  0
VERTEX
  5
18D
  8
0
  6
CONTINUOUS
 62
     7
 10
114.7439663045
 20
153.3837488786
 30
0.0
  0
VERTEX
  5
18E
  8
0
  6
CONTINUOUS
 62
     7
 10
114.5817546301
 20
153.4379420665
 30
0.0
  0
VERTEX
  5
18F
  8
0
  6
CONTINUOUS
 62
     7
 10
114.4733682544
 20
153.5190479037
 30
0.0
  0
VERTEX
  5
190
  8
0
  6
CONTINUOUS
 62
     7
 10
114.4353080206
 20
153.6147187618
 30
0.0
  0
VERTEX
  5
191
  8
0
  6
CONTINUOUS
 62
     7
 10
114.4733682544
 20
153.7103896198
 30
0.0
  0
VERTEX
  5
192
  8
0
  6
CONTINUOUS
 62
     7
 10
114.5817546301
 20
153.791495457
 30
0.0
  0
SEQEND
  5
3C5
  8
0
  6
CONTINUOUS
 62
     7
  0
POLYLINE
  5
7F
  8
0
  6
CONTINUOUS
 62
     7
 66
     1
 10
0.0
 20
0.0
 30
0.0
  0
VERTEX
  5
193
  8
0
  6
CONTINUOUS
 62
     7
 10
71.2826366559
 20
170.3758096651
 30
0.0
  0
VERTEX
  5
194
  8
0
  6
CONTINUOUS
 62
     7
 10
71.3229101915
 20
169.6581079404
 30
0.0
  0
VERTEX
  5
195
  8
0
  6
CONTINUOUS
 62
     7
 10
71.4436040827
 20
168.9426643709
 30
0.0
  0
VERTEX
  5
196
  8
0
  6
CONTINUOUS
 62
     7
 10
71.6443385819
 20
168.2317300068
 30
0.0
  0
VERTEX
  5
197
  8
0
  6
CONTINUOUS
 62
     7
 10
71.9244821041
 20
167.5275417104
 30
0.0
  0
VERTEX
  5
198
  8
0
  6
CONTINUOUS
 62
     7
 10
72.2831532142
 20
166.8323151188
 30
0.0
  0
VERTEX
  5
199
  8
0
  6
CONTINUOUS
 62
     7
 10
72.7192234001
 20
166.148237672
 30
0.0
  0
VERTEX
  5
19A
  8
0
  6
CONTINUOUS
 62
     7
 10
73.2313206237
 20
165.4774617308
 30
0.0
  0
VERTEX
  5
19B
  8
0
  6
CONTINUOUS
 62
     7
 10
73.8178336376
 20
164.8220978044
 30
0.0
  0
VERTEX
  5
19C
  8
0
  6
CONTINUOUS
 62
     7
 10
74.4769170551
 20
164.1842079101
 30
0.0
  0
VERTEX
  5
19D
  8
0
  6
CONTINUOUS
 62
     7
 10
75.2064971557
 20
163.5657990857
 30
0.0
  0
VERTEX
  5
19E
  8
0
  6
CONTINUOUS
 62
     7
 10
76.0042784106
 20
162.968817074
 30
0.0
  0
VERTEX
  5
19F
  8
0
  6
CONTINUOUS
 62
     7
 10
76.8677507048
 20
162.3951402013
 30
0.0
  0
VERTEX
  5
1A0
  8
0
  6
CONTINUOUS
 62
     7
 10
77.7941972349
 20
161.8465734673
 30
0.0
  0
VERTEX
  5
1A1
  8
0
  6
CONTINUOUS
 62
     7
 10
78.7807030576
 20
161.3248428659
 30
0.0
  0
VERTEX
  5
1A2
  8
0
  6
CONTINUOUS
 62
     7
 10
79.8241642604
 20
160.8315899546
 30
0.0
  0
VERTEX
  5
1A3
  8
0
  6
CONTINUOUS
 62
     7
 10
80.9212977284
 20
160.3683666895
 30
0.0
  0
VERTEX
  5
1A4
  8
0
  6
CONTINUOUS
 62
     7
 10
82.0686514737
 20
159.9366305424
 30
0.0
  0
VERTEX
  5
1A5
  8
0
  6
CONTINUOUS
 62
     7
 10
83.2626154972
 20
159.5377399149
 30
0.0
  0
VERTEX
  5
1A6
  8
0
  6
CONTINUOUS
 62
     7
 10
84.4994331461
 20
159.1729498646
 30
0.0
  0
VERTEX
  5
1A7
  8
0
  6
CONTINUOUS
 62
     7
 10
85.7752129345
 20
158.8434081559
 30
0.0
  0
VERTEX
  5
1A8
  8
0
  6
CONTINUOUS
 62
     7
 10
87.0859407874
 20
158.5501516489
 30
0.0
  0
VERTEX
  5
1A9
  8
0
  6
CONTINUOUS
 62
     7
 10
88.4274926699
 20
158.2941030371
 30
0.0
  0
VERTEX
  5
1AA
  8
0
  6
CONTINUOUS
 62
     7
 10
89.7956475635
 20
158.0760679442
 30
0.0
  0
VERTEX
  5
1AB
  8
0
  6
CONTINUOUS
 62
     7
 10
91.1861007467
 20
157.8967323891
 30
0.0
  0
VERTEX
  5
1AC
  8
0
  6
CONTINUOUS
 62
     7
 10
92.5944773393
 20
157.756660628
 30
0.0
  0
VERTEX
  5
1AD
  8
0
  6
CONTINUOUS
 62
     7
 10
94.0163460677
 20
157.6562933784
 30
0.0
  0
VERTEX
  5
1AE
  8
0
  6
CONTINUOUS
 62
     7
 10
95.4472332067
 20
157.5959464328
 30
0.0
  0
VERTEX
  5
1AF
  8
0
  6
CONTINUOUS
 62
     7
 10
96.8826366559
 20
157.5758096651
 30
0.0
  0
VERTEX
  5
1B0
  8
0
  6
CONTINUOUS
 62
     7
 10
98.3180401052
 20
157.5959464328
 30
0.0
  0
VERTEX
  5
1B1
  8
0
  6
CONTINUOUS
 62
     7
 10
99.7489272442
 20
157.6562933784
 30
0.0
  0
VERTEX
  5
1B2
  8
0
  6
CONTINUOUS
 62
     7
 10
101.1707959726
 20
157.756660628
 30
0.0
  0
VERTEX
  5
1B3
  8
0
  6
CONTINUOUS
 62
     7
 10
102.5791725652
 20
157.8967323891
 30
0.0
  0
VERTEX
  5
1B4
  8
0
  6
CONTINUOUS
 62
     7
 10
103.9696257484
 20
158.0760679442
 30
0.0
  0
VERTEX
  5
1B5
  8
0
  6
CONTINUOUS
 62
     7
 10
105.337780642
 20
158.2941030371
 30
0.0
  0
VERTEX
  5
1B6
  8
0
  6
CONTINUOUS
 62
     7
 10
106.6793325245
 20
158.5501516489
 30
0.0
  0
VERTEX
  5
1B7
  8
0
  6
CONTINUOUS
 62
     7
 10
107.9900603774
 20
158.8434081559
 30
0.0
  0
VERTEX
  5
1B8
  8
0
  6
CONTINUOUS
 62
     7
 10
109.2658401658
 20
159.1729498646
 30
0.0
  0
VERTEX
  5
1B9
  8
0
  6
CONTINUOUS
 62
     7
 10
110.5026578147
 20
159.5377399149
 30
0.0
  0
VERTEX
  5
1BA
  8
0
  6
CONTINUOUS
 62
     7
 10
111.6966218382
 20
159.9366305424
 30
0.0
  0
VERTEX
  5
1BB
  8
0
  6
CONTINUOUS
 62
     7
 10
112.8439755835
 20
160.3683666895
 30
0.0
  0
VERTEX
  5
1BC
  8
0
  6
CONTINUOUS
 62
     7
 10
113.9411090515
 20
160.8315899546
 30
0.0
  0
VERTEX
  5
1BD
  8
0
  6
CONTINUOUS
 62
     7
 10
114.9845702543
 20
161.3248428659
 30
0.0
  0
VERTEX
  5
1BE
  8
0
  6
CONTINUOUS
 62
     7
 10
115.971076077
 20
161.8465734673
 30
0.0
  0
VERTEX
  5
1BF
  8
0
  6
CONTINUOUS
 62
     7
 10
116.8975226071
 20
162.3951402013
 30
0.0
  0
VERTEX
  5
1C0
  8
0
  6
CONTINUOUS
 62
     7
 10
117.7609949013
 20
162.968817074
 30
0.0
  0
VERTEX
  5
1C1
  8
0
  6
CONTINUOUS
 62
     7
 10
118.5587761562
 20
163.5657990857
 30
0.0
  0
VERTEX
  5
1C2
  8
0
  6
CONTINUOUS
 62
     7
 10
119.2883562568
 20
164.1842079101
 30
0.0
  0
VERTEX
  5
1C3
  8
0
  6
CONTINUOUS
 62
     7
 10
119.9474396743
 20
164.8220978044
 30
0.0
  0
VERTEX
  5
1C4
  8
0
  6
CONTINUOUS
 62
     7
 10
120.5339526882
 20
165.4774617308
 30
0.0
  0
VERTEX
  5
1C5
  8
0
  6
CONTINUOUS
 62
     7
 10
121.0460499118
 20
166.148237672
 30
0.0
  0
VERTEX
  5
1C6
  8
0
  6
CONTINUOUS
 62
     7
 10
121.4821200977
 20
166.8323151188
 30
0.0
  0
VERTEX
  5
1C7
  8
0
  6
CONTINUOUS
 62
     7
 10
121.8407912078
 20
167.5275417104
 30
0.0
  0
VERTEX
  5
1C8
  8
0
  6
CONTINUOUS
 62
     7
 10
122.12093473
 20
168.2317300068
 30
0.0
  0
VERTEX
  5
1C9
  8
0
  6
CONTINUOUS
 62
     7
 10
122.3216692292
 20
168.9426643709
 30
0.0
  0
VERTEX
  5
1CA
  8
0
  6
CONTINUOUS
 62
     7
 10
122.4423631204
 20
169.6581079404
 30
0.0
  0
VERTEX
  5
1CB
  8
0
  6
CONTINUOUS
 62
     7
 10
122.4826366559
 20
170.3758096651
 30
0.0
  0
VERTEX
  5
1CC
  8
0
  6
CONTINUOUS
 62
     7
 10
122.4826366559
 20
170.3758096651
 30
0.0
  0
SEQEND
  5
3C4
  8
0
  6
CONTINUOUS
 62
     7
  0
LINE
  5
80
  8
0
  6
CONTINUOUS
 62
     7
 10
113.5150294227
 20
162.7238606884
 30
0.0
 11
113.5150294227
 21
163.4166810114
 31
0.0
  0
ARC
  5
81
  8
0
  6
CONTINUOUS
 62
     7
 10
103.6501140294
 20
185.989225381
 30
0.0
 40
25.27041254114824
 50
292.9777810666
 51
300.1523212875
  0
LINE
  5
82
  8
0
  6
CONTINUOUS
 62
     7
 10
116.3434565475
 20
164.8308945738
 30
0.0
 11
116.3434565475
 21
164.1380742507
 31
0.0
  0
POLYLINE
  5
83
  8
0
  6
CONTINUOUS
 62
     7
 66
     1
 10
0.0
 20
0.0
 30
0.0
  0
VERTEX
  5
1CD
  8
0
  6
CONTINUOUS
 62
     7
 10
116.3434565475
 20
164.8308945738
 30
0.0
  0
VERTEX
  5
1CE
  8
0
  6
CONTINUOUS
 62
     7
 10
117.2645197146
 20
165.4021112448
 30
0.0
  0
VERTEX
  5
1CF
  8
0
  6
CONTINUOUS
 62
     7
 10
118.1186080657
 20
165.9987778995
 30
0.0
  0
VERTEX
  5
1D0
  8
0
  6
CONTINUOUS
 62
     7
 10
118.9029150686
 20
166.6189338928
 30
0.0
  0
VERTEX
  5
1D1
  8
0
  6
CONTINUOUS
 62
     7
 10
119.6148634924
 20
167.2605413936
 30
0.0
  0
VERTEX
  5
1D2
  8
0
  6
CONTINUOUS
 62
     7
 10
120.2521138764
 20
167.9214920814
 30
0.0
  0
VERTEX
  5
1D3
  8
0
  6
CONTINUOUS
 62
     7
 10
120.8125722176
 20
168.5996140739
 30
0.0
  0
VERTEX
  5
1D4
  8
0
  6
CONTINUOUS
 62
     7
 10
121.2943968511
 20
169.2926790639
 30
0.0
  0
VERTEX
  5
1D5
  8
0
  6
CONTINUOUS
 62
     7
 10
121.6960045025
 20
169.9984096415
 30
0.0
  0
VERTEX
  5
1D6
  8
0
  6
CONTINUOUS
 62
     7
 10
122.0160754901
 20
170.714486778
 30
0.0
  0
VERTEX
  5
1D7
  8
0
  6
CONTINUOUS
 62
     7
 10
122.2535580614
 20
171.4385574457
 30
0.0
  0
VERTEX
  5
1D8
  8
0
  6
CONTINUOUS
 62
     7
 10
122.4076718492
 20
172.1682423502
 30
0.0
  0
VERTEX
  5
1D9
  8
0
  6
CONTINUOUS
 62
     7
 10
122.4779104361
 20
172.9011437487
 30
0.0
  0
VERTEX
  5
1DA
  8
0
  6
CONTINUOUS
 62
     7
 10
122.4640430183
 20
173.6348533291
 30
0.0
  0
VERTEX
  5
1DB
  8
0
  6
CONTINUOUS
 62
     7
 10
122.3661151639
 20
174.3669601236
 30
0.0
  0
VERTEX
  5
1DC
  8
0
  6
CONTINUOUS
 62
     7
 10
122.1844486638
 20
175.0950584311
 30
0.0
  0
VERTEX
  5
1DD
  8
0
  6
CONTINUOUS
 62
     7
 10
121.9196404736
 20
175.8167557224
 30
0.0
  0
VERTEX
  5
1DE
  8
0
  6
CONTINUOUS
 62
     7
 10
121.5725607523
 20
176.529680502
 30
0.0
  0
VERTEX
  5
1DF
  8
0
  6
CONTINUOUS
 62
     7
 10
121.144350003
 20
177.231490101
 30
0.0
  0
SEQEND
  5
3C3
  8
0
  6
CONTINUOUS
 62
     7
  0
ARC
  5
84
  8
0
  6
CONTINUOUS
 62
     7
 10
111.3633985218
 20
169.7511943895
 30
0.0
 40
11.91099897339393
 50
38.3299616454
 51
46.4115786125
  0
LINE
  5
85
  8
0
  6
CONTINUOUS
 62
     7
 10
119.5757129259
 20
179.0712847717
 30
0.0
 11
119.5757129259
 21
178.3784644486
 31
0.0
  0
POLYLINE
  5
86
  8
0
  6
CONTINUOUS
 62
     7
 66
     1
 10
0.0
 20
0.0
 30
0.0
  0
VERTEX
  5
1E0
  8
0
  6
CONTINUOUS
 62
     7
 10
119.5757129259
 20
179.0712847717
 30
0.0
  0
VERTEX
  5
1E1
  8
0
  6
CONTINUOUS
 62
     7
 10
118.8776792213
 20
179.6964821989
 30
0.0
  0
VERTEX
  5
1E2
  8
0
  6
CONTINUOUS
 62
     7
 10
118.110819105
 20
180.3011854126
 30
0.0
  0
VERTEX
  5
1E3
  8
0
  6
CONTINUOUS
 62
     7
 10
117.2775322191
 20
180.8835021886
 30
0.0
  0
VERTEX
  5
1E4
  8
0
  6
CONTINUOUS
 62
     7
 10
116.3804260668
 20
181.4416103539
 30
0.0
  0
VERTEX
  5
1E5
  8
0
  6
CONTINUOUS
 62
     7
 10
115.4223078535
 20
181.9737634883
 30
0.0
  0
VERTEX
  5
1E6
  8
0
  6
CONTINUOUS
 62
     7
 10
114.4061757018
 20
182.4782963899
 30
0.0
  0
VERTEX
  5
1E7
  8
0
  6
CONTINUOUS
 62
     7
 10
113.3352092705
 20
182.9536302851
 30
0.0
  0
VERTEX
  5
1E8
  8
0
  6
CONTINUOUS
 62
     7
 10
112.2127598047
 20
183.3982777695
 30
0.0
  0
VERTEX
  5
1E9
  8
0
  6
CONTINUOUS
 62
     7
 10
111.0423396489
 20
183.8108474617
 30
0.0
  0
VERTEX
  5
1EA
  8
0
  6
CONTINUOUS
 62
     7
 10
109.8276112566
 20
184.1900483576
 30
0.0
  0
VERTEX
  5
1EB
  8
0
  6
CONTINUOUS
 62
     7
 10
108.5723757297
 20
184.5346938699
 30
0.0
  0
VERTEX
  5
1EC
  8
0
  6
CONTINUOUS
 62
     7
 10
107.2805609239
 20
184.8437055413
 30
0.0
  0
VERTEX
  5
1ED
  8
0
  6
CONTINUOUS
 62
     7
 10
105.9562091583
 20
185.1161164192
 30
0.0
  0
VERTEX
  5
1EE
  8
0
  6
CONTINUOUS
 62
     7
 10
104.6034645657
 20
185.3510740814
 30
0.0
  0
VERTEX
  5
1EF
  8
0
  6
CONTINUOUS
 62
     7
 10
103.2265601254
 20
185.5478433034
 30
0.0
  0
VERTEX
  5
1F0
  8
0
  6
CONTINUOUS
 62
     7
 10
101.8298044169
 20
185.7058083593
 30
0.0
  0
VERTEX
  5
1F1
  8
0
  6
CONTINUOUS
 62
     7
 10
100.4175681379
 20
185.8244749481
 30
0.0
  0
VERTEX
  5
1F2
  8
0
  6
CONTINUOUS
 62
     7
 10
98.9942704278
 20
185.903471741
 30
0.0
  0
VERTEX
  5
1F3
  8
0
  6
CONTINUOUS
 62
     7
 10
97.564365039
 20
185.942551543
 30
0.0
  0
VERTEX
  5
1F4
  8
0
  6
CONTINUOUS
 62
     7
 10
96.1323264004
 20
185.9415920662
 30
0.0
  0
VERTEX
  5
1F5
  8
0
  6
CONTINUOUS
 62
     7
 10
94.7026356164
 20
185.9005963132
 30
0.0
  0
VERTEX
  5
1F6
  8
0
  6
CONTINUOUS
 62
     7
 10
93.2797664446
 20
185.8196925669
 30
0.0
  0
VERTEX
  5
1F7
  8
0
  6
CONTINUOUS
 62
     7
 10
91.8681712964
 20
185.6991339897
 30
0.0
  0
VERTEX
  5
1F8
  8
0
  6
CONTINUOUS
 62
     7
 10
90.4722673048
 20
185.5392978307
 30
0.0
  0
VERTEX
  5
1F9
  8
0
  6
CONTINUOUS
 62
     7
 10
89.0964225023
 20
185.3406842458
 30
0.0
  0
VERTEX
  5
1FA
  8
0
  6
CONTINUOUS
 62
     7
 10
87.7449421529
 20
185.1039147324
 30
0.0
  0
VERTEX
  5
1FB
  8
0
  6
CONTINUOUS
 62
     7
 10
86.4220552796
 20
184.8297301845
 30
0.0
  0
SEQEND
  5
3C2
  8
0
  6
CONTINUOUS
 62
     7
  0
LINE
  5
87
  8
0
  6
CONTINUOUS
 62
     7
 10
86.4220552796
 20
184.1369098615
 30
0.0
 11
86.4220552796
 21
184.8297301845
 31
0.0
  0
ARC
  5
88
  8
0
  6
CONTINUOUS
 62
     7
 10
94.8841710122
 20
146.1390034582
 30
0.0
 40
38.92875921096542
 50
102.5548656069
 51
107.0474292881
  0
ARC
  5
89
  8
0
  6
CONTINUOUS
 62
     7
 10
91.1216961271
 20
157.772138725
 30
0.0
 40
27.36153237989527
 50
107.4645283903
 51
121.4164697067
  0
LINE
  5
8A
  8
0
  6
CONTINUOUS
 62
     7
 10
76.8593615513
 20
180.4296774276
 30
0.0
 11
76.8593615513
 21
181.1224977506
 31
0.0
  0
ARC
  5
8B
  8
0
  6
CONTINUOUS
 62
     7
 10
86.2411989474
 20
165.3716083856
 30
0.0
 40
17.74159846803539
 50
121.9247163439
 51
128.9165090626
  0
POLYLINE
  5
8C
  8
0
  6
CONTINUOUS
 62
     7
 66
     1
 10
0.0
 20
0.0
 30
0.0
  0
VERTEX
  5
1FC
  8
0
  6
CONTINUOUS
 62
     7
 10
74.5819498759
 20
179.4327764635
 30
0.0
  0
VERTEX
  5
1FD
  8
0
  6
CONTINUOUS
 62
     7
 10
73.9152450223
 20
178.8008269243
 30
0.0
  0
VERTEX
  5
1FE
  8
0
  6
CONTINUOUS
 62
     7
 10
73.3201007603
 20
178.1512617718
 30
0.0
  0
VERTEX
  5
1FF
  8
0
  6
CONTINUOUS
 62
     7
 10
72.7983714092
 20
177.4861048868
 30
0.0
  0
VERTEX
  5
200
  8
0
  6
CONTINUOUS
 62
     7
 10
72.3516825459
 20
176.8074287303
 30
0.0
  0
VERTEX
  5
201
  8
0
  6
CONTINUOUS
 62
     7
 10
71.9814259401
 20
176.1173478857
 30
0.0
  0
VERTEX
  5
202
  8
0
  6
CONTINUOUS
 62
     7
 10
71.6887552179
 20
175.4180124707
 30
0.0
  0
VERTEX
  5
203
  8
0
  6
CONTINUOUS
 62
     7
 10
71.4745822672
 20
174.7116014379
 30
0.0
  0
VERTEX
  5
204
  8
0
  6
CONTINUOUS
 62
     7
 10
71.3395743969
 20
174.0003157855
 30
0.0
  0
VERTEX
  5
205
  8
0
  6
CONTINUOUS
 62
     7
 10
71.2841522575
 20
173.2863717
 30
0.0
  0
VERTEX
  5
206
  8
0
  6
CONTINUOUS
 62
     7
 10
71.3084885303
 20
172.5719936509
 30
0.0
  0
VERTEX
  5
207
  8
0
  6
CONTINUOUS
 62
     7
 10
71.4125073896
 20
171.8594074598
 30
0.0
  0
VERTEX
  5
208
  8
0
  6
CONTINUOUS
 62
     7
 10
71.5958847391
 20
171.1508333652
 30
0.0
  0
VERTEX
  5
209
  8
0
  6
CONTINUOUS
 62
     7
 10
71.858049221
 20
170.4484791052
 30
0.0
  0
VERTEX
  5
20A
  8
0
  6
CONTINUOUS
 62
     7
 10
72.1981839972
 20
169.754533038
 30
0.0
  0
VERTEX
  5
20B
  8
0
  6
CONTINUOUS
 62
     7
 10
72.6152292936
 20
169.0711573246
 30
0.0
  0
VERTEX
  5
20C
  8
0
  6
CONTINUOUS
 62
     7
 10
73.1078857023
 20
168.4004811909
 30
0.0
  0
VERTEX
  5
20D
  8
0
  6
CONTINUOUS
 62
     7
 10
73.6746182305
 20
167.7445942944
 30
0.0
  0
VERTEX
  5
20E
  8
0
  6
CONTINUOUS
 62
     7
 10
74.3136610826
 20
167.1055402131
 30
0.0
  0
VERTEX
  5
20F
  8
0
  6
CONTINUOUS
 62
     7
 10
75.0230231626
 20
166.4853100781
 30
0.0
  0
VERTEX
  5
210
  8
0
  6
CONTINUOUS
 62
     7
 10
75.8004942774
 20
165.8858363698
 30
0.0
  0
VERTEX
  5
211
  8
0
  6
CONTINUOUS
 62
     7
 10
76.6436520234
 20
165.3089868968
 30
0.0
  0
VERTEX
  5
212
  8
0
  6
CONTINUOUS
 62
     7
 10
77.5498693339
 20
164.7565589766
 30
0.0
  0
VERTEX
  5
213
  8
0
  6
CONTINUOUS
 62
     7
 10
78.5163226647
 20
164.2302738348
 30
0.0
  0
VERTEX
  5
214
  8
0
  6
CONTINUOUS
 62
     7
 10
79.5400007913
 20
163.7317712432
 30
0.0
  0
VERTEX
  5
215
  8
0
  6
CONTINUOUS
 62
     7
 10
80.6177141911
 20
163.2626044099
 30
0.0
  0
VERTEX
  5
216
  8
0
  6
CONTINUOUS
 62
     7
 10
81.7461049816
 20
162.8242351402
 30
0.0
  0
VERTEX
  5
217
  8
0
  6
CONTINUOUS
 62
     7
 10
82.9216573818
 20
162.4180292821
 30
0.0
  0
VERTEX
  5
218
  8
0
  6
CONTINUOUS
 62
     7
 10
84.1407086674
 20
162.0452524705
 30
0.0
  0
VERTEX
  5
219
  8
0
  6
CONTINUOUS
 62
     7
 10
85.3994605826
 20
161.7070661837
 30
0.0
  0
VERTEX
  5
21A
  8
0
  6
CONTINUOUS
 62
     7
 10
86.6939911742
 20
161.4045241248
 30
0.0
  0
VERTEX
  5
21B
  8
0
  6
CONTINUOUS
 62
     7
 10
88.0202670119
 20
161.1385689385
 30
0.0
  0
VERTEX
  5
21C
  8
0
  6
CONTINUOUS
 62
     7
 10
89.3741557552
 20
160.9100292739
 30
0.0
  0
VERTEX
  5
21D
  8
0
  6
CONTINUOUS
 62
     7
 10
90.7514390285
 20
160.7196172029
 30
0.0
  0
VERTEX
  5
21E
  8
0
  6
CONTINUOUS
 62
     7
 10
92.1478255652
 20
160.5679260014
 30
0.0
  0
VERTEX
  5
21F
  8
0
  6
CONTINUOUS
 62
     7
 10
93.5589645774
 20
160.455428301
 30
0.0
  0
VERTEX
  5
220
  8
0
  6
CONTINUOUS
 62
     7
 10
94.9804593124
 20
160.382474616
 30
0.0
  0
VERTEX
  5
221
  8
0
  6
CONTINUOUS
 62
     7
 10
96.4078807516
 20
160.3492922516
 30
0.0
  0
VERTEX
  5
222
  8
0
  6
CONTINUOUS
 62
     7
 10
97.8367814103
 20
160.3559845958
 30
0.0
  0
VERTEX
  5
223
  8
0
  6
CONTINUOUS
 62
     7
 10
99.2627091949
 20
160.402530797
 30
0.0
  0
VERTEX
  5
224
  8
0
  6
CONTINUOUS
 62
     7
 10
100.6812212745
 20
160.4887858288
 30
0.0
  0
VERTEX
  5
225
  8
0
  6
CONTINUOUS
 62
     7
 10
102.0878979239
 20
160.6144809424
 30
0.0
  0
VERTEX
  5
226
  8
0
  6
CONTINUOUS
 62
     7
 10
103.4783562938
 20
160.7792245035
 30
0.0
  0
VERTEX
  5
227
  8
0
  6
CONTINUOUS
 62
     7
 10
104.8482640672
 20
160.982503213
 30
0.0
  0
VERTEX
  5
228
  8
0
  6
CONTINUOUS
 62
     7
 10
106.1933529573
 20
161.2236837055
 30
0.0
  0
VERTEX
  5
229
  8
0
  6
CONTINUOUS
 62
     7
 10
107.5094320069
 20
161.5020145237
 30
0.0
  0
VERTEX
  5
22A
  8
0
  6
CONTINUOUS
 62
     7
 10
108.7924006461
 20
161.8166284589
 30
0.0
  0
VERTEX
  5
22B
  8
0
  6
CONTINUOUS
 62
     7
 10
110.0382614687
 20
162.1665452537
 30
0.0
  0
VERTEX
  5
22C
  8
0
  6
CONTINUOUS
 62
     7
 10
111.2431326869
 20
162.5506746556
 30
0.0
  0
VERTEX
  5
22D
  8
0
  6
CONTINUOUS
 62
     7
 10
112.4032602264
 20
162.9678198145
 30
0.0
  0
VERTEX
  5
22E
  8
0
  6
CONTINUOUS
 62
     7
 10
113.5150294227
 20
163.4166810114
 30
0.0
  0
SEQEND
  5
3C1
  8
0
  6
CONTINUOUS
 62
     7
  0
POLYLINE
  5
8D
  8
0
  6
CONTINUOUS
 62
     7
 66
     1
 10
0.0
 20
0.0
 30
0.0
  0
VERTEX
  5
22F
  8
0
  6
CONTINUOUS
 62
     7
 10
83.5183184915
 20
166.464931875
 30
0.0
  0
VERTEX
  5
230
  8
0
  6
CONTINUOUS
 62
     7
 10
83.1383057616
 20
166.6265520139
 30
0.0
  0
VERTEX
  5
231
  8
0
  6
CONTINUOUS
 62
     7
 10
82.7113627098
 20
166.7556000501
 30
0.0
  0
VERTEX
  5
232
  8
0
  6
CONTINUOUS
 62
     7
 10
82.2485469368
 20
166.8487337072
 30
0.0
  0
VERTEX
  5
233
  8
0
  6
CONTINUOUS
 62
     7
 10
81.761845128
 20
166.9035408725
 30
0.0
  0
VERTEX
  5
234
  8
0
  6
CONTINUOUS
 62
     7
 10
81.2638626047
 20
166.918602069
 30
0.0
  0
VERTEX
  5
235
  8
0
  6
CONTINUOUS
 62
     7
 10
80.7674968526
 20
166.8935272199
 30
0.0
  0
VERTEX
  5
236
  8
0
  6
CONTINUOUS
 62
     7
 10
80.285603484
 20
166.8289657504
 30
0.0
  0
VERTEX
  5
237
  8
0
  6
CONTINUOUS
 62
     7
 10
79.8306632839
 20
166.7265897687
 30
0.0
  0
VERTEX
  5
238
  8
0
  6
CONTINUOUS
 62
     7
 10
79.4144589647
 20
166.5890507591
 30
0.0
  0
VERTEX
  5
239
  8
0
  6
CONTINUOUS
 62
     7
 10
79.0477699995
 20
166.4199109095
 30
0.0
  0
VERTEX
  5
23A
  8
0
  6
CONTINUOUS
 62
     7
 10
78.7400934399
 20
166.2235508532
 30
0.0
  0
VERTEX
  5
23B
  8
0
  6
CONTINUOUS
 62
     7
 10
78.4993979473
 20
166.0050562126
 30
0.0
  0
VERTEX
  5
23C
  8
0
  6
CONTINUOUS
 62
     7
 10
78.3319174083
 20
165.770085884
 30
0.0
  0
VERTEX
  5
23D
  8
0
  6
CONTINUOUS
 62
     7
 10
78.2419894812
 20
165.5247254756
 30
0.0
  0
VERTEX
  5
23E
  8
0
  6
CONTINUOUS
 62
     7
 10
78.2319432518
 20
165.2753296931
 30
0.0
  0
VERTEX
  5
23F
  8
0
  6
CONTINUOUS
 62
     7
 10
78.3020389122
 20
165.0283577562
 30
0.0
  0
VERTEX
  5
240
  8
0
  6
CONTINUOUS
 62
     7
 10
78.4504610218
 20
164.7902061083
 30
0.0
  0
VERTEX
  5
241
  8
0
  6
CONTINUOUS
 62
     7
 10
78.6733655257
 20
164.5670427521
 30
0.0
  0
VERTEX
  5
242
  8
0
  6
CONTINUOUS
 62
     7
 10
78.9649793145
 20
164.3646475013
 30
0.0
  0
VERTEX
  5
243
  8
0
  6
CONTINUOUS
 62
     7
 10
79.3177497442
 20
164.1882622864
 30
0.0
  0
VERTEX
  5
244
  8
0
  6
CONTINUOUS
 62
     7
 10
79.7225402459
 20
164.042455392
 30
0.0
  0
VERTEX
  5
245
  8
0
  6
CONTINUOUS
 62
     7
 10
80.1688669583
 20
163.9310031401
 30
0.0
  0
VERTEX
  5
246
  8
0
  6
CONTINUOUS
 62
     7
 10
80.645170254
 20
163.8567920853
 30
0.0
  0
VERTEX
  5
247
  8
0
  6
CONTINUOUS
 62
     7
 10
81.1391141278
 20
163.8217442551
 30
0.0
  0
VERTEX
  5
248
  8
0
  6
CONTINUOUS
 62
     7
 10
81.6379056929
 20
163.8267673698
 30
0.0
  0
VERTEX
  5
249
  8
0
  6
CONTINUOUS
 62
     7
 10
82.1286265097
 20
163.8717313334
 30
0.0
  0
VERTEX
  5
24A
  8
0
  6
CONTINUOUS
 62
     7
 10
82.5985671667
 20
163.9554716028
 30
0.0
  0
VERTEX
  5
24B
  8
0
  6
CONTINUOUS
 62
     7
 10
83.035556448
 20
164.0758193492
 30
0.0
  0
VERTEX
  5
24C
  8
0
  6
CONTINUOUS
 62
     7
 10
83.4282765605
 20
164.2296576289
 30
0.0
  0
VERTEX
  5
24D
  8
0
  6
CONTINUOUS
 62
     7
 10
83.7665562597
 20
164.4130021115
 30
0.0
  0
VERTEX
  5
24E
  8
0
  6
CONTINUOUS
 62
     7
 10
84.0416342791
 20
164.6211042712
 30
0.0
  0
VERTEX
  5
24F
  8
0
  6
CONTINUOUS
 62
     7
 10
84.2463862424
 20
164.8485743712
 30
0.0
  0
VERTEX
  5
250
  8
0
  6
CONTINUOUS
 62
     7
 10
84.3755091814
 20
165.0895210555
 30
0.0
  0
VERTEX
  5
251
  8
0
  6
CONTINUOUS
 62
     7
 10
84.4256588797
 20
165.3377039316
 30
0.0
  0
VERTEX
  5
252
  8
0
  6
CONTINUOUS
 62
     7
 10
84.3955364865
 20
165.5866951932
 30
0.0
  0
VERTEX
  5
253
  8
0
  6
CONTINUOUS
 62
     7
 10
84.285922156
 20
165.8300460976
 30
0.0
  0
VERTEX
  5
254
  8
0
  6
CONTINUOUS
 62
     7
 10
84.0996548418
 20
166.0614539841
 30
0.0
  0
VERTEX
  5
255
  8
0
  6
CONTINUOUS
 62
     7
 10
83.8415587694
 20
166.27492551
 30
0.0
  0
VERTEX
  5
256
  8
0
  6
CONTINUOUS
 62
     7
 10
83.5183184915
 20
166.464931875
 30
0.0
  0
SEQEND
  5
3C0
  8
0
  6
CONTINUOUS
 62
     7
  0
POLYLINE
  5
8E
  8
0
  6
CONTINUOUS
 62
     7
 66
     1
 10
0.0
 20
0.0
 30
0.0
  0
VERTEX
  5
257
  8
0
  6
CONTINUOUS
 62
     7
 10
101.5002791781
 20
164.4743086654
 30
0.0
  0
VERTEX
  5
258
  8
0
  6
CONTINUOUS
 62
     7
 10
101.2724213836
 20
164.5595947696
 30
0.0
  0
VERTEX
  5
259
  8
0
  6
CONTINUOUS
 62
     7
 10
101.0057376865
 20
164.6093287078
 30
0.0
  0
VERTEX
  5
25A
  8
0
  6
CONTINUOUS
 62
     7
 10
100.7218332137
 20
164.6194813321
 30
0.0
  0
VERTEX
  5
25B
  8
0
  6
CONTINUOUS
 62
     7
 10
100.4437082173
 20
164.5892301373
 30
0.0
  0
VERTEX
  5
25C
  8
0
  6
CONTINUOUS
 62
     7
 10
100.1938947304
 20
164.5210258953
 30
0.0
  0
VERTEX
  5
25D
  8
0
  6
CONTINUOUS
 62
     7
 10
99.992631156
 20
164.4203941081
 30
0.0
  0
VERTEX
  5
25E
  8
0
  6
CONTINUOUS
 62
     7
 10
99.8562226719
 20
164.2954873646
 30
0.0
  0
VERTEX
  5
25F
  8
0
  6
CONTINUOUS
 62
     7
 10
99.7957202823
 20
164.1564248664
 30
0.0
  0
VERTEX
  5
260
  8
0
  6
CONTINUOUS
 62
     7
 10
99.8160255309
 20
164.01447263
 30
0.0
  0
VERTEX
  5
261
  8
0
  6
CONTINUOUS
 62
     7
 10
99.9154934073
 20
163.8811307815
 30
0.0
  0
VERTEX
  5
262
  8
0
  6
CONTINUOUS
 62
     7
 10
100.0860656157
 20
163.7672018842
 30
0.0
  0
VERTEX
  5
263
  8
0
  6
CONTINUOUS
 62
     7
 10
100.3139234102
 20
163.68191578
 30
0.0
  0
VERTEX
  5
264
  8
0
  6
CONTINUOUS
 62
     7
 10
100.5806071074
 20
163.6321818418
 30
0.0
  0
VERTEX
  5
265
  8
0
  6
CONTINUOUS
 62
     7
 10
100.8645115801
 20
163.6220292175
 30
0.0
  0
VERTEX
  5
266
  8
0
  6
CONTINUOUS
 62
     7
 10
101.1426365765
 20
163.6522804123
 30
0.0
  0
VERTEX
  5
267
  8
0
  6
CONTINUOUS
 62
     7
 10
101.3924500634
 20
163.7204846544
 30
0.0
  0
VERTEX
  5
268
  8
0
  6
CONTINUOUS
 62
     7
 10
101.5937136378
 20
163.8211164416
 30
0.0
  0
VERTEX
  5
269
  8
0
  6
CONTINUOUS
 62
     7
 10
101.7301221219
 20
163.946023185
 30
0.0
  0
VERTEX
  5
26A
  8
0
  6
CONTINUOUS
 62
     7
 10
101.7906245115
 20
164.0850856832
 30
0.0
  0
VERTEX
  5
26B
  8
0
  6
CONTINUOUS
 62
     7
 10
101.7703192629
 20
164.2270379196
 30
0.0
  0
VERTEX
  5
26C
  8
0
  6
CONTINUOUS
 62
     7
 10
101.6708513865
 20
164.3603797682
 30
0.0
  0
VERTEX
  5
26D
  8
0
  6
CONTINUOUS
 62
     7
 10
101.5002791781
 20
164.4743086654
 30
0.0
  0
SEQEND
  5
3BF
  8
0
  6
CONTINUOUS
 62
     7
  0
POLYLINE
  5
8F
  8
0
  6
CONTINUOUS
 62
     7
 66
     1
 10
0.0
 20
0.0
 30
0.0
  0
VERTEX
  5
26E
  8
0
  6
CONTINUOUS
 62
     7
 10
79.2064431483
 20
175.6212266803
 30
0.0
  0
VERTEX
  5
26F
  8
0
  6
CONTINUOUS
 62
     7
 10
78.9785853538
 20
175.7065127845
 30
0.0
  0
VERTEX
  5
270
  8
0
  6
CONTINUOUS
 62
     7
 10
78.7119016566
 20
175.7562467227
 30
0.0
  0
VERTEX
  5
271
  8
0
  6
CONTINUOUS
 62
     7
 10
78.4279971839
 20
175.766399347
 30
0.0
  0
VERTEX
  5
272
  8
0
  6
CONTINUOUS
 62
     7
 10
78.1498721875
 20
175.7361481522
 30
0.0
  0
VERTEX
  5
273
  8
0
  6
CONTINUOUS
 62
     7
 10
77.9000587006
 20
175.6679439102
 30
0.0
  0
VERTEX
  5
274
  8
0
  6
CONTINUOUS
 62
     7
 10
77.6987951262
 20
175.567312123
 30
0.0
  0
VERTEX
  5
275
  8
0
  6
CONTINUOUS
 62
     7
 10
77.5623866421
 20
175.4424053795
 30
0.0
  0
VERTEX
  5
276
  8
0
  6
CONTINUOUS
 62
     7
 10
77.5018842525
 20
175.3033428813
 30
0.0
  0
VERTEX
  5
277
  8
0
  6
CONTINUOUS
 62
     7
 10
77.5221895011
 20
175.161390645
 30
0.0
  0
VERTEX
  5
278
  8
0
  6
CONTINUOUS
 62
     7
 10
77.6216573775
 20
175.0280487964
 30
0.0
  0
VERTEX
  5
279
  8
0
  6
CONTINUOUS
 62
     7
 10
77.7922295859
 20
174.9141198991
 30
0.0
  0
VERTEX
  5
27A
  8
0
  6
CONTINUOUS
 62
     7
 10
78.0200873804
 20
174.828833795
 30
0.0
  0
VERTEX
  5
27B
  8
0
  6
CONTINUOUS
 62
     7
 10
78.2867710775
 20
174.7790998568
 30
0.0
  0
VERTEX
  5
27C
  8
0
  6
CONTINUOUS
 62
     7
 10
78.5706755503
 20
174.7689472324
 30
0.0
  0
VERTEX
  5
27D
  8
0
  6
CONTINUOUS
 62
     7
 10
78.8488005467
 20
174.7991984272
 30
0.0
  0
VERTEX
  5
27E
  8
0
  6
CONTINUOUS
 62
     7
 10
79.0986140336
 20
174.8674026693
 30
0.0
  0
VERTEX
  5
27F
  8
0
  6
CONTINUOUS
 62
     7
 10
79.299877608
 20
174.9680344565
 30
0.0
  0
VERTEX
  5
280
  8
0
  6
CONTINUOUS
 62
     7
 10
79.4362860921
 20
175.0929411999
 30
0.0
  0
VERTEX
  5
281
  8
0
  6
CONTINUOUS
 62
     7
 10
79.4967884817
 20
175.2320036981
 30
0.0
  0
VERTEX
  5
282
  8
0
  6
CONTINUOUS
 62
     7
 10
79.4764832331
 20
175.3739559345
 30
0.0
  0
VERTEX
  5
283
  8
0
  6
CONTINUOUS
 62
     7
 10
79.3770153566
 20
175.5072977831
 30
0.0
  0
VERTEX
  5
284
  8
0
  6
CONTINUOUS
 62
     7
 10
79.2064431483
 20
175.6212266803
 30
0.0
  0
SEQEND
  5
3BE
  8
0
  6
CONTINUOUS
 62
     7
  0
LINE
  5
90
  8
0
  6
CONTINUOUS
 62
     7
 10
74.5819498759
 20
179.4327764635
 30
0.0
 11
84.8526294795
 21
174.2974366617
 31
0.0
  0
LINE
  5
91
  8
0
  6
CONTINUOUS
 62
     7
 10
84.8526294795
 20
174.2974366617
 30
0.0
 11
92.9407100318
 21
172.8075270863
 31
0.0
  0
ARC
  5
92
  8
0
  6
CONTINUOUS
 62
     7
 10
96.7043806822
 20
175.9970183997
 30
0.0
 40
4.933363112842851
 50
220.2793306996
 51
284.2400375967
  0
LINE
  5
93
  8
0
  6
CONTINUOUS
 62
     7
 10
97.9179128364
 20
171.2152393046
 30
0.0
 11
113.5150294227
 21
163.4166810114
 31
0.0
  0
POLYLINE
  5
94
  8
0
  6
CONTINUOUS
 62
     7
 66
     1
 10
0.0
 20
0.0
 30
0.0
  0
VERTEX
  5
285
  8
0
  6
CONTINUOUS
 62
     7
 10
86.2775109601
 20
179.1567605863
 30
0.0
  0
VERTEX
  5
286
  8
0
  6
CONTINUOUS
 62
     7
 10
86.0496531657
 20
179.2420466905
 30
0.0
  0
VERTEX
  5
287
  8
0
  6
CONTINUOUS
 62
     7
 10
85.7829694685
 20
179.2917806287
 30
0.0
  0
VERTEX
  5
288
  8
0
  6
CONTINUOUS
 62
     7
 10
85.4990649957
 20
179.301933253
 30
0.0
  0
VERTEX
  5
289
  8
0
  6
CONTINUOUS
 62
     7
 10
85.2209399993
 20
179.2716820582
 30
0.0
  0
VERTEX
  5
28A
  8
0
  6
CONTINUOUS
 62
     7
 10
84.9711265124
 20
179.2034778161
 30
0.0
  0
VERTEX
  5
28B
  8
0
  6
CONTINUOUS
 62
     7
 10
84.769862938
 20
179.1028460289
 30
0.0
  0
VERTEX
  5
28C
  8
0
  6
CONTINUOUS
 62
     7
 10
84.6334544539
 20
178.9779392855
 30
0.0
  0
VERTEX
  5
28D
  8
0
  6
CONTINUOUS
 62
     7
 10
84.5729520643
 20
178.8388767873
 30
0.0
  0
VERTEX
  5
28E
  8
0
  6
CONTINUOUS
 62
     7
 10
84.593257313
 20
178.6969245509
 30
0.0
  0
VERTEX
  5
28F
  8
0
  6
CONTINUOUS
 62
     7
 10
84.6927251894
 20
178.5635827023
 30
0.0
  0
VERTEX
  5
290
  8
0
  6
CONTINUOUS
 62
     7
 10
84.8632973978
 20
178.4496538051
 30
0.0
  0
VERTEX
  5
291
  8
0
  6
CONTINUOUS
 62
     7
 10
85.0911551922
 20
178.3643677009
 30
0.0
  0
VERTEX
  5
292
  8
0
  6
CONTINUOUS
 62
     7
 10
85.3578388894
 20
178.3146337627
 30
0.0
  0
VERTEX
  5
293
  8
0
  6
CONTINUOUS
 62
     7
 10
85.6417433621
 20
178.3044811384
 30
0.0
  0
VERTEX
  5
294
  8
0
  6
CONTINUOUS
 62
     7
 10
85.9198683585
 20
178.3347323332
 30
0.0
  0
VERTEX
  5
295
  8
0
  6
CONTINUOUS
 62
     7
 10
86.1696818455
 20
178.4029365752
 30
0.0
  0
VERTEX
  5
296
  8
0
  6
CONTINUOUS
 62
     7
 10
86.3709454199
 20
178.5035683624
 30
0.0
  0
VERTEX
  5
297
  8
0
  6
CONTINUOUS
 62
     7
 10
86.5073539039
 20
178.6284751059
 30
0.0
  0
VERTEX
  5
298
  8
0
  6
CONTINUOUS
 62
     7
 10
86.5678562936
 20
178.7675376041
 30
0.0
  0
VERTEX
  5
299
  8
0
  6
CONTINUOUS
 62
     7
 10
86.5475510449
 20
178.9094898404
 30
0.0
  0
VERTEX
  5
29A
  8
0
  6
CONTINUOUS
 62
     7
 10
86.4480831685
 20
179.042831689
 30
0.0
  0
VERTEX
  5
29B
  8
0
  6
CONTINUOUS
 62
     7
 10
86.2775109601
 20
179.1567605863
 30
0.0
  0
SEQEND
  5
3BD
  8
0
  6
CONTINUOUS
 62
     7
  0
POLYLINE
  5
95
  8
0
  6
CONTINUOUS
 62
     7
 66
     1
 10
0.0
 20
0.0
 30
0.0
  0
VERTEX
  5
29C
  8
0
  6
CONTINUOUS
 62
     7
 10
115.6424148018
 20
171.5453764773
 30
0.0
  0
VERTEX
  5
29D
  8
0
  6
CONTINUOUS
 62
     7
 10
115.4145570074
 20
171.6306625815
 30
0.0
  0
VERTEX
  5
29E
  8
0
  6
CONTINUOUS
 62
     7
 10
115.1478733102
 20
171.6803965197
 30
0.0
  0
VERTEX
  5
29F
  8
0
  6
CONTINUOUS
 62
     7
 10
114.8639688374
 20
171.690549144
 30
0.0
  0
VERTEX
  5
2A0
  8
0
  6
CONTINUOUS
 62
     7
 10
114.585843841
 20
171.6602979492
 30
0.0
  0
VERTEX
  5
2A1
  8
0
  6
CONTINUOUS
 62
     7
 10
114.3360303541
 20
171.5920937071
 30
0.0
  0
VERTEX
  5
2A2
  8
0
  6
CONTINUOUS
 62
     7
 10
114.1347667797
 20
171.4914619199
 30
0.0
  0
VERTEX
  5
2A3
  8
0
  6
CONTINUOUS
 62
     7
 10
113.9983582956
 20
171.3665551765
 30
0.0
  0
VERTEX
  5
2A4
  8
0
  6
CONTINUOUS
 62
     7
 10
113.937855906
 20
171.2274926783
 30
0.0
  0
VERTEX
  5
2A5
  8
0
  6
CONTINUOUS
 62
     7
 10
113.9581611547
 20
171.0855404419
 30
0.0
  0
VERTEX
  5
2A6
  8
0
  6
CONTINUOUS
 62
     7
 10
114.0576290311
 20
170.9521985933
 30
0.0
  0
VERTEX
  5
2A7
  8
0
  6
CONTINUOUS
 62
     7
 10
114.2282012395
 20
170.8382696961
 30
0.0
  0
VERTEX
  5
2A8
  8
0
  6
CONTINUOUS
 62
     7
 10
114.4560590339
 20
170.7529835919
 30
0.0
  0
VERTEX
  5
2A9
  8
0
  6
CONTINUOUS
 62
     7
 10
114.7227427311
 20
170.7032496537
 30
0.0
  0
VERTEX
  5
2AA
  8
0
  6
CONTINUOUS
 62
     7
 10
115.0066472038
 20
170.6930970294
 30
0.0
  0
VERTEX
  5
2AB
  8
0
  6
CONTINUOUS
 62
     7
 10
115.2847722002
 20
170.7233482242
 30
0.0
  0
VERTEX
  5
2AC
  8
0
  6
CONTINUOUS
 62
     7
 10
115.5345856872
 20
170.7915524662
 30
0.0
  0
VERTEX
  5
2AD
  8
0
  6
CONTINUOUS
 62
     7
 10
115.7358492616
 20
170.8921842534
 30
0.0
  0
VERTEX
  5
2AE
  8
0
  6
CONTINUOUS
 62
     7
 10
115.8722577456
 20
171.0170909969
 30
0.0
  0
VERTEX
  5
2AF
  8
0
  6
CONTINUOUS
 62
     7
 10
115.9327601353
 20
171.1561534951
 30
0.0
  0
VERTEX
  5
2B0
  8
0
  6
CONTINUOUS
 62
     7
 10
115.9124548866
 20
171.2981057315
 30
0.0
  0
VERTEX
  5
2B1
  8
0
  6
CONTINUOUS
 62
     7
 10
115.8129870102
 20
171.43144758
 30
0.0
  0
VERTEX
  5
2B2
  8
0
  6
CONTINUOUS
 62
     7
 10
115.6424148018
 20
171.5453764773
 30
0.0
  0
SEQEND
  5
3BC
  8
0
  6
CONTINUOUS
 62
     7
  0
LINE
  5
96
  8
0
  6
CONTINUOUS
 62
     7
 10
82.9100816503
 20
183.8723847365
 30
0.0
 11
86.4289049464
 21
180.6452281632
 31
0.0
  0
ARC
  5
97
  8
0
  6
CONTINUOUS
 62
     7
 10
92.4718833482
 20
189.2955516883
 30
0.0
 40
10.55204648648797
 50
235.0624627219
 51
279.602805027
  0
ARC
  5
98
  8
0
  6
CONTINUOUS
 62
     7
 10
96.9371153292
 20
158.6577920029
 30
0.0
 40
20.41357921870042
 50
66.0626993401
 51
97.6145682487
  0
ARC
  5
99
  8
0
  6
CONTINUOUS
 62
     7
 10
112.492198941
 20
193.9334489653
 30
0.0
 40
18.13953804260393
 50
246.3641511684
 51
282.5792512401
  0
LINE
  5
9A
  8
0
  6
CONTINUOUS
 62
     7
 10
116.4428055626
 20
176.2293379252
 30
0.0
 11
121.144350003
 21
177.231490101
 31
0.0
  0
LINE
  5
9B
  8
0
  6
CONTINUOUS
 62
     7
 10
116.3434565475
 20
164.8308945738
 30
0.0
 11
100.7463399611
 21
172.629452867
 31
0.0
  0
POLYLINE
  5
9C
  8
0
  6
CONTINUOUS
 62
     7
 66
     1
 10
0.0
 20
0.0
 30
0.0
  0
VERTEX
  5
2B3
  8
0
  6
CONTINUOUS
 62
     7
 10
100.7463399611
 20
172.629452867
 30
0.0
  0
VERTEX
  5
2B4
  8
0
  6
CONTINUOUS
 62
     7
 10
100.8570518293
 20
172.921245861
 30
0.0
  0
VERTEX
  5
2B5
  8
0
  6
CONTINUOUS
 62
     7
 10
100.8801204596
 20
173.218019159
 30
0.0
  0
VERTEX
  5
2B6
  8
0
  6
CONTINUOUS
 62
     7
 10
100.8150371459
 20
173.5132283584
 30
0.0
  0
VERTEX
  5
2B7
  8
0
  6
CONTINUOUS
 62
     7
 10
100.6632370962
 20
173.8003635479
 30
0.0
  0
VERTEX
  5
2B8
  8
0
  6
CONTINUOUS
 62
     7
 10
100.4280677835
 20
174.0730928632
 30
0.0
  0
VERTEX
  5
2B9
  8
0
  6
CONTINUOUS
 62
     7
 10
100.114715128
 20
174.3254021162
 30
0.0
  0
VERTEX
  5
2BA
  8
0
  6
CONTINUOUS
 62
     7
 10
99.730089138
 20
174.5517274192
 30
0.0
  0
VERTEX
  5
2BB
  8
0
  6
CONTINUOUS
 62
     7
 10
99.2826715311
 20
174.7470778788
 30
0.0
  0
VERTEX
  5
2BC
  8
0
  6
CONTINUOUS
 62
     7
 10
98.7823286966
 20
174.9071456545
 30
0.0
  0
VERTEX
  5
2BD
  8
0
  6
CONTINUOUS
 62
     7
 10
98.2400941235
 20
175.0284009545
 30
0.0
  0
VERTEX
  5
2BE
  8
0
  6
CONTINUOUS
 62
     7
 10
97.6679250915
 20
175.1081698741
 30
0.0
  0
VERTEX
  5
2BF
  8
0
  6
CONTINUOUS
 62
     7
 10
97.0784389906
 20
175.1446933604
 30
0.0
  0
VERTEX
  5
2C0
  8
0
  6
CONTINUOUS
 62
     7
 10
96.4846350845
 20
175.1371660028
 30
0.0
  0
VERTEX
  5
2C1
  8
0
  6
CONTINUOUS
 62
     7
 10
95.8996078525
 20
175.0857537935
 30
0.0
  0
VERTEX
  5
2C2
  8
0
  6
CONTINUOUS
 62
     7
 10
95.3362582317
 20
174.9915904671
 30
0.0
  0
VERTEX
  5
2C3
  8
0
  6
CONTINUOUS
 62
     7
 10
94.807009128
 20
174.8567525001
 30
0.0
  0
VERTEX
  5
2C4
  8
0
  6
CONTINUOUS
 62
     7
 10
94.3235314671
 20
174.6842133199
 30
0.0
  0
SEQEND
  5
3BB
  8
0
  6
CONTINUOUS
 62
     7
  0
LINE
  5
9D
  8
0
  6
CONTINUOUS
 62
     7
 10
94.3235314671
 20
174.6842133199
 30
0.0
 11
87.0598297974
 21
176.0222636275
 31
0.0
  0
LINE
  5
9E
  8
0
  6
CONTINUOUS
 62
     7
 10
87.0598297974
 20
176.0222636275
 30
0.0
 11
76.8593615513
 21
181.1224977506
 31
0.0
  0
ARC
  5
9F
  8
0
  6
CONTINUOUS
 62
     7
 10
81.3262874698
 20
158.2743978858
 30
0.0
 40
5.875481776328414
 50
76.3230224207
 51
103.6769775793
  0
ARC
  5
A0
  8
0
  6
CONTINUOUS
 62
     7
 10
98.2882587506
 20
173.6744865547
 30
0.0
 40
3.010365393160578
 50
281.6495673549
 51
324.7398354281
  0
LINE
  5
A1
  8
0
  6
CONTINUOUS
 62
     7
 10
116.3434565475
 20
164.1380742507
 30
0.0
 11
100.7463399611
 21
171.9366325439
 31
0.0
  0
LINE
  5
A2
  8
0
  6
CONTINUOUS
 62
     7
 10
100.7463399611
 20
172.629452867
 30
0.0
 11
100.7463399611
 21
171.9366325439
 31
0.0
  0
ARC
  5
A3
  8
0
  6
CONTINUOUS
 62
     7
 10
94.9887748763
 20
171.8245978231
 30
0.0
 40
2.266616447151951
 50
107.0673873459
 51
154.4921736588
  0
LINE
  5
A4
  8
0
  6
CONTINUOUS
 62
     7
 10
94.3235314671
 20
173.9913929969
 30
0.0
 11
94.3235314671
 21
174.6842133199
 31
0.0
  0
ARC
  5
A5
  8
0
  6
CONTINUOUS
 62
     7
 10
96.8861872075
 20
165.4661311708
 30
0.0
 40
6.926148886490477
 50
65.9297299023
 51
114.6433951275
  0
POLYLINE
  5
A6
  8
0
  6
CONTINUOUS
 62
     7
 66
     1
 10
0.0
 20
0.0
 30
0.0
  0
VERTEX
  5
2C5
  8
0
  6
CONTINUOUS
 62
     7
 10
100.3002381541
 20
171.4150401496
 30
0.0
  0
VERTEX
  5
2C6
  8
0
  6
CONTINUOUS
 62
     7
 10
100.0848016196
 20
171.5743649981
 30
0.0
  0
VERTEX
  5
2C7
  8
0
  6
CONTINUOUS
 62
     7
 10
99.7110637807
 20
171.7900232274
 30
0.0
  0
SEQEND
  5
3BA
  8
0
  6
CONTINUOUS
 62
     7
  0
LINE
  5
A7
  8
0
  6
CONTINUOUS
 62
     7
 10
89.9408785757
 20
180.9097532882
 30
0.0
 11
86.4220552796
 21
184.1369098615
 31
0.0
  0
ARC
  5
A8
  8
0
  6
CONTINUOUS
 62
     7
 10
92.5677520666
 20
184.670035726
 30
0.0
 40
4.586958507471195
 50
235.0624627219
 51
279.602805027
  0
ARC
  5
A9
  8
0
  6
CONTINUOUS
 62
     7
 10
96.9645315439
 20
153.1116065529
 30
0.0
 40
27.27856178870544
 50
66.0267630366
 51
97.6505045522
  0
ARC
  5
AA
  8
0
  6
CONTINUOUS
 62
     7
 10
112.4656576805
 20
188.0853944716
 30
0.0
 40
10.97658261198461
 50
246.2682778961
 51
282.6751245123
  0
LINE
  5
AB
  8
0
  6
CONTINUOUS
 62
     7
 10
119.5757129259
 20
178.3784644486
 30
0.0
 11
114.8741684855
 21
177.3763122728
 31
0.0
  0
LINE
  5
AC
  8
0
  6
CONTINUOUS
 62
     7
 10
87.0598297974
 20
175.3294433045
 30
0.0
 11
76.8593615513
 21
180.4296774276
 31
0.0
  0
LINE
  5
AD
  8
0
  6
CONTINUOUS
 62
     7
 10
94.3235314671
 20
173.9913929969
 30
0.0
 11
87.0598297974
 21
175.3294433045
 31
0.0
  0
POLYLINE
  5
AE
  8
0
  6
CONTINUOUS
 62
     7
 66
     1
 10
0.0
 20
0.0
 30
0.0
  0
VERTEX
  5
2C8
  8
0
  6
CONTINUOUS
 62
     7
 10
93.348578772
 20
182.6922944922
 30
0.0
  0
VERTEX
  5
2C9
  8
0
  6
CONTINUOUS
 62
     7
 10
93.1207209775
 20
182.7775805964
 30
0.0
  0
VERTEX
  5
2CA
  8
0
  6
CONTINUOUS
 62
     7
 10
92.8540372804
 20
182.8273145346
 30
0.0
  0
VERTEX
  5
2CB
  8
0
  6
CONTINUOUS
 62
     7
 10
92.5701328076
 20
182.8374671589
 30
0.0
  0
VERTEX
  5
2CC
  8
0
  6
CONTINUOUS
 62
     7
 10
92.2920078112
 20
182.8072159641
 30
0.0
  0
VERTEX
  5
2CD
  8
0
  6
CONTINUOUS
 62
     7
 10
92.0421943243
 20
182.7390117221
 30
0.0
  0
VERTEX
  5
2CE
  8
0
  6
CONTINUOUS
 62
     7
 10
91.8409307499
 20
182.6383799349
 30
0.0
  0
VERTEX
  5
2CF
  8
0
  6
CONTINUOUS
 62
     7
 10
91.7045222658
 20
182.5134731914
 30
0.0
  0
VERTEX
  5
2D0
  8
0
  6
CONTINUOUS
 62
     7
 10
91.6440198762
 20
182.3744106932
 30
0.0
  0
VERTEX
  5
2D1
  8
0
  6
CONTINUOUS
 62
     7
 10
91.6643251248
 20
182.2324584568
 30
0.0
  0
VERTEX
  5
2D2
  8
0
  6
CONTINUOUS
 62
     7
 10
91.7637930012
 20
182.0991166082
 30
0.0
  0
VERTEX
  5
2D3
  8
0
  6
CONTINUOUS
 62
     7
 10
91.9343652096
 20
181.985187711
 30
0.0
  0
VERTEX
  5
2D4
  8
0
  6
CONTINUOUS
 62
     7
 10
92.1622230041
 20
181.8999016068
 30
0.0
  0
VERTEX
  5
2D5
  8
0
  6
CONTINUOUS
 62
     7
 10
92.4289067013
 20
181.8501676686
 30
0.0
  0
VERTEX
  5
2D6
  8
0
  6
CONTINUOUS
 62
     7
 10
92.712811174
 20
181.8400150443
 30
0.0
  0
VERTEX
  5
2D7
  8
0
  6
CONTINUOUS
 62
     7
 10
92.9909361704
 20
181.8702662391
 30
0.0
  0
VERTEX
  5
2D8
  8
0
  6
CONTINUOUS
 62
     7
 10
93.2407496573
 20
181.9384704811
 30
0.0
  0
VERTEX
  5
2D9
  8
0
  6
CONTINUOUS
 62
     7
 10
93.4420132317
 20
182.0391022683
 30
0.0
  0
VERTEX
  5
2DA
  8
0
  6
CONTINUOUS
 62
     7
 10
93.5784217158
 20
182.1640090118
 30
0.0
  0
VERTEX
  5
2DB
  8
0
  6
CONTINUOUS
 62
     7
 10
93.6389241054
 20
182.30307151
 30
0.0
  0
VERTEX
  5
2DC
  8
0
  6
CONTINUOUS
 62
     7
 10
93.6186188568
 20
182.4450237464
 30
0.0
  0
VERTEX
  5
2DD
  8
0
  6
CONTINUOUS
 62
     7
 10
93.5191509804
 20
182.578365595
 30
0.0
  0
VERTEX
  5
2DE
  8
0
  6
CONTINUOUS
 62
     7
 10
93.348578772
 20
182.6922944922
 30
0.0
  0
SEQEND
  5
3B9
  8
0
  6
CONTINUOUS
 62
     7
  0
POLYLINE
  5
AF
  8
0
  6
CONTINUOUS
 62
     7
 66
     1
 10
0.0
 20
0.0
 30
0.0
  0
VERTEX
  5
2DF
  8
0
  6
CONTINUOUS
 62
     7
 10
114.6310168637
 20
182.0212810611
 30
0.0
  0
VERTEX
  5
2E0
  8
0
  6
CONTINUOUS
 62
     7
 10
114.2510041338
 20
182.1829012
 30
0.0
  0
VERTEX
  5
2E1
  8
0
  6
CONTINUOUS
 62
     7
 10
113.824061082
 20
182.3119492362
 30
0.0
  0
VERTEX
  5
2E2
  8
0
  6
CONTINUOUS
 62
     7
 10
113.361245309
 20
182.4050828933
 30
0.0
  0
VERTEX
  5
2E3
  8
0
  6
CONTINUOUS
 62
     7
 10
112.8745435002
 20
182.4598900586
 30
0.0
  0
VERTEX
  5
2E4
  8
0
  6
CONTINUOUS
 62
     7
 10
112.3765609769
 20
182.4749512551
 30
0.0
  0
VERTEX
  5
2E5
  8
0
  6
CONTINUOUS
 62
     7
 10
111.8801952248
 20
182.449876406
 30
0.0
  0
VERTEX
  5
2E6
  8
0
  6
CONTINUOUS
 62
     7
 10
111.3983018562
 20
182.3853149365
 30
0.0
  0
VERTEX
  5
2E7
  8
0
  6
CONTINUOUS
 62
     7
 10
110.9433616562
 20
182.2829389548
 30
0.0
  0
VERTEX
  5
2E8
  8
0
  6
CONTINUOUS
 62
     7
 10
110.5271573369
 20
182.1453999452
 30
0.0
  0
VERTEX
  5
2E9
  8
0
  6
CONTINUOUS
 62
     7
 10
110.1604683717
 20
181.9762600956
 30
0.0
  0
VERTEX
  5
2EA
  8
0
  6
CONTINUOUS
 62
     7
 10
109.8527918121
 20
181.7799000393
 30
0.0
  0
VERTEX
  5
2EB
  8
0
  6
CONTINUOUS
 62
     7
 10
109.6120963195
 20
181.5614053987
 30
0.0
  0
VERTEX
  5
2EC
  8
0
  6
CONTINUOUS
 62
     7
 10
109.4446157806
 20
181.3264350701
 30
0.0
  0
VERTEX
  5
2ED
  8
0
  6
CONTINUOUS
 62
     7
 10
109.3546878534
 20
181.0810746617
 30
0.0
  0
VERTEX
  5
2EE
  8
0
  6
CONTINUOUS
 62
     7
 10
109.344641624
 20
180.8316788792
 30
0.0
  0
VERTEX
  5
2EF
  8
0
  6
CONTINUOUS
 62
     7
 10
109.4147372844
 20
180.5847069423
 30
0.0
  0
VERTEX
  5
2F0
  8
0
  6
CONTINUOUS
 62
     7
 10
109.563159394
 20
180.3465552945
 30
0.0
  0
VERTEX
  5
2F1
  8
0
  6
CONTINUOUS
 62
     7
 10
109.7860638979
 20
180.1233919382
 30
0.0
  0
VERTEX
  5
2F2
  8
0
  6
CONTINUOUS
 62
     7
 10
110.0776776867
 20
179.9209966874
 30
0.0
  0
VERTEX
  5
2F3
  8
0
  6
CONTINUOUS
 62
     7
 10
110.4304481164
 20
179.7446114725
 30
0.0
  0
VERTEX
  5
2F4
  8
0
  6
CONTINUOUS
 62
     7
 10
110.8352386181
 20
179.5988045782
 30
0.0
  0
VERTEX
  5
2F5
  8
0
  6
CONTINUOUS
 62
     7
 10
111.2815653305
 20
179.4873523262
 30
0.0
  0
VERTEX
  5
2F6
  8
0
  6
CONTINUOUS
 62
     7
 10
111.7578686262
 20
179.4131412714
 30
0.0
  0
VERTEX
  5
2F7
  8
0
  6
CONTINUOUS
 62
     7
 10
112.2518125
 20
179.3780934412
 30
0.0
  0
VERTEX
  5
2F8
  8
0
  6
CONTINUOUS
 62
     7
 10
112.7506040651
 20
179.3831165559
 30
0.0
  0
VERTEX
  5
2F9
  8
0
  6
CONTINUOUS
 62
     7
 10
113.2413248819
 20
179.4280805195
 30
0.0
  0
VERTEX
  5
2FA
  8
0
  6
CONTINUOUS
 62
     7
 10
113.711265539
 20
179.5118207889
 30
0.0
  0
VERTEX
  5
2FB
  8
0
  6
CONTINUOUS
 62
     7
 10
114.1482548202
 20
179.6321685353
 30
0.0
  0
VERTEX
  5
2FC
  8
0
  6
CONTINUOUS
 62
     7
 10
114.5409749327
 20
179.786006815
 30
0.0
  0
VERTEX
  5
2FD
  8
0
  6
CONTINUOUS
 62
     7
 10
114.8792546319
 20
179.9693512976
 30
0.0
  0
VERTEX
  5
2FE
  8
0
  6
CONTINUOUS
 62
     7
 10
115.1543326513
 20
180.1774534573
 30
0.0
  0
VERTEX
  5
2FF
  8
0
  6
CONTINUOUS
 62
     7
 10
115.3590846146
 20
180.4049235573
 30
0.0
  0
VERTEX
  5
300
  8
0
  6
CONTINUOUS
 62
     7
 10
115.4882075536
 20
180.6458702416
 30
0.0
  0
VERTEX
  5
301
  8
0
  6
CONTINUOUS
 62
     7
 10
115.5383572519
 20
180.8940531177
 30
0.0
  0
VERTEX
  5
302
  8
0
  6
CONTINUOUS
 62
     7
 10
115.5082348587
 20
181.1430443793
 30
0.0
  0
VERTEX
  5
303
  8
0
  6
CONTINUOUS
 62
     7
 10
115.3986205282
 20
181.3863952837
 30
0.0
  0
VERTEX
  5
304
  8
0
  6
CONTINUOUS
 62
     7
 10
115.212353214
 20
181.6178031702
 30
0.0
  0
VERTEX
  5
305
  8
0
  6
CONTINUOUS
 62
     7
 10
114.9542571416
 20
181.8312746961
 30
0.0
  0
VERTEX
  5
306
  8
0
  6
CONTINUOUS
 62
     7
 10
114.6310168637
 20
182.0212810611
 30
0.0
  0
SEQEND
  5
3B8
  8
0
  6
CONTINUOUS
 62
     7
  0
LINE
  5
B0
  8
0
  6
CONTINUOUS
 62
     7
 10
119.5757129259
 20
179.0712847717
 30
0.0
 11
114.8741684855
 21
178.0691325959
 31
0.0
  0
ARC
  5
B1
  8
0
  6
CONTINUOUS
 62
     7
 10
112.4656576805
 20
188.7782147946
 30
0.0
 40
10.97658261198469
 50
246.2682778961
 51
282.6751245123
  0
ARC
  5
B2
  8
0
  6
CONTINUOUS
 62
     7
 10
96.9645315439
 20
153.8044268759
 30
0.0
 40
27.27856178870563
 50
66.0267630366
 51
97.6505045522
  0
ARC
  5
B3
  8
0
  6
CONTINUOUS
 62
     7
 10
92.5677520666
 20
185.362856049
 30
0.0
 40
4.586958507470981
 50
235.0624627219
 51
279.602805027
  0
LINE
  5
B4
  8
0
  6
CONTINUOUS
 62
     7
 10
89.9408785757
 20
181.6025736112
 30
0.0
 11
86.4220552796
 21
184.8297301845
 31
0.0
  0
LINE
  5
B5
  8
0
  6
CONTINUOUS
 62
     7
 10
87.0598297974
 20
175.3294433045
 30
0.0
 11
87.0598297974
 21
176.0222636275
 31
0.0
  0
LINE
  5
B6
  8
0
  6
CONTINUOUS
 62
     7
 10
108.048080678
 20
178.0369926452
 30
0.0
 11
108.048080678
 21
178.7298129682
 31
0.0
  0
LINE
  5
B7
  8
0
  6
CONTINUOUS
 62
     7
 10
93.332934806
 20
180.147350271
 30
0.0
 11
93.332934806
 21
180.840170594
 31
0.0
  0
LINE
  5
B8
  8
0
  6
CONTINUOUS
 62
     7
 10
114.8741684855
 20
177.3763122728
 30
0.0
 11
114.8741684855
 21
178.0691325959
 31
0.0
  0
ARC
  5
B9
  8
0
  6
CONTINUOUS
 62
     7
 10
112.4389858421
 20
173.8307470719
 30
0.0
 40
5.87548177632961
 50
76.3230224207
 51
103.6769775793
  0
LINE
  5
BA
  8
0
  6
CONTINUOUS
 62
     7
 10
89.9408785757
 20
180.9097532882
 30
0.0
 11
89.9408785757
 21
181.6025736112
 31
0.0
  0
POLYLINE
  5
BB
  8
0
  6
CONTINUOUS
 62
     8
 66
     1
 10
0.0
 20
0.0
 30
0.0
  0
VERTEX
  5
307
  8
0
  6
CONTINUOUS
 62
     8
 10
100.2931723969
 20
143.0795493347
 30
0.0
  0
VERTEX
  5
308
  8
0
  6
CONTINUOUS
 62
     8
 10
100.3312326307
 20
142.9838784767
 30
0.0
  0
VERTEX
  5
309
  8
0
  6
CONTINUOUS
 62
     8
 10
100.4396190063
 20
142.9027726395
 30
0.0
  0
VERTEX
  5
30A
  8
0
  6
CONTINUOUS
 62
     8
 10
100.6018306807
 20
142.8485794516
 30
0.0
  0
VERTEX
  5
30B
  8
0
  6
CONTINUOUS
 62
     8
 10
100.7931723969
 20
142.8295493347
 30
0.0
  0
VERTEX
  5
30C
  8
0
  6
CONTINUOUS
 62
     8
 10
100.9845141131
 20
142.8485794516
 30
0.0
  0
VERTEX
  5
30D
  8
0
  6
CONTINUOUS
 62
     8
 10
101.1467257875
 20
142.9027726395
 30
0.0
  0
VERTEX
  5
30E
  8
0
  6
CONTINUOUS
 62
     8
 10
101.2551121632
 20
142.9838784767
 30
0.0
  0
VERTEX
  5
30F
  8
0
  6
CONTINUOUS
 62
     8
 10
101.2931723969
 20
143.0795493347
 30
0.0
  0
SEQEND
  5
3B7
  8
0
  6
CONTINUOUS
 62
     8
  0
POLYLINE
  5
BC
  8
0
  6
CONTINUOUS
 62
     8
 66
     1
 10
0.0
 20
0.0
 30
0.0
  0
VERTEX
  5
310
  8
0
  6
CONTINUOUS
 62
     8
 10
102.4310708194
 20
141.6074307668
 30
0.0
  0
VERTEX
  5
311
  8
0
  6
CONTINUOUS
 62
     8
 10
102.4573859593
 20
141.6234190905
 30
0.0
  0
VERTEX
  5
312
  8
0
  6
CONTINUOUS
 62
     8
 10
102.5340267005
 20
141.7255781507
 30
0.0
  0
VERTEX
  5
313
  8
0
  6
CONTINUOUS
 62
     8
 10
102.5609393499
 20
141.8778286131
 30
0.0
  0
VERTEX
  5
314
  8
0
  6
CONTINUOUS
 62
     8
 10
102.5340267005
 20
142.0569917248
 30
0.0
  0
VERTEX
  5
315
  8
0
  6
CONTINUOUS
 62
     8
 10
102.4573859593
 20
142.2357915262
 30
0.0
  0
VERTEX
  5
316
  8
0
  6
CONTINUOUS
 62
     8
 10
102.3426849843
 20
142.3870073684
 30
0.0
  0
VERTEX
  5
317
  8
0
  6
CONTINUOUS
 62
     8
 10
102.2073859593
 20
142.4876180103
 30
0.0
  0
VERTEX
  5
318
  8
0
  6
CONTINUOUS
 62
     8
 10
102.0720869343
 20
142.5223063935
 30
0.0
  0
VERTEX
  5
319
  8
0
  6
CONTINUOUS
 62
     8
 10
101.9869892241
 20
142.5033858945
 30
0.0
  0
SEQEND
  5
3B6
  8
0
  6
CONTINUOUS
 62
     8
  0
POLYLINE
  5
BD
  8
0
  6
CONTINUOUS
 62
     8
 66
     1
 10
0.0
 20
0.0
 30
0.0
  0
VERTEX
  5
31A
  8
0
  6
CONTINUOUS
 62
     8
 10
105.0319679137
 20
141.0072257455
 30
0.0
  0
VERTEX
  5
31B
  8
0
  6
CONTINUOUS
 62
     8
 10
105.0645878149
 20
141.024585685
 30
0.0
  0
VERTEX
  5
31C
  8
0
  6
CONTINUOUS
 62
     8
 10
105.2686752324
 20
141.1846872545
 30
0.0
  0
VERTEX
  5
31D
  8
0
  6
CONTINUOUS
 62
     8
 10
105.4285670512
 20
141.4094536148
 30
0.0
  0
VERTEX
  5
31E
  8
0
  6
CONTINUOUS
 62
     8
 10
105.5384843643
 20
141.6907611241
 30
0.0
  0
VERTEX
  5
31F
  8
0
  6
CONTINUOUS
 62
     8
 10
105.5944544736
 20
142.0184425961
 30
0.0
  0
VERTEX
  5
320
  8
0
  6
CONTINUOUS
 62
     8
 10
105.5944544736
 20
142.3806547685
 30
0.0
  0
VERTEX
  5
321
  8
0
  6
CONTINUOUS
 62
     8
 10
105.5384843643
 20
142.7643063498
 30
0.0
  0
VERTEX
  5
322
  8
0
  6
CONTINUOUS
 62
     8
 10
105.4285670512
 20
143.1555311722
 30
0.0
  0
VERTEX
  5
323
  8
0
  6
CONTINUOUS
 62
     8
 10
105.2686752324
 20
143.5401893513
 30
0.0
  0
VERTEX
  5
324
  8
0
  6
CONTINUOUS
 62
     8
 10
105.0645878149
 20
143.9043783383
 30
0.0
  0
VERTEX
  5
325
  8
0
  6
CONTINUOUS
 62
     8
 10
104.8236810497
 20
144.2349353943
 30
0.0
  0
VERTEX
  5
326
  8
0
  6
CONTINUOUS
 62
     8
 10
104.5546619349
 20
144.519913326
 30
0.0
  0
VERTEX
  5
327
  8
0
  6
CONTINUOUS
 62
     8
 10
104.2672535222
 20
144.7490122885
 30
0.0
  0
VERTEX
  5
328
  8
0
  6
CONTINUOUS
 62
     8
 10
103.9718435006
 20
144.9139520484
 30
0.0
  0
VERTEX
  5
329
  8
0
  6
CONTINUOUS
 62
     8
 10
103.6791087579
 20
145.008771253
 30
0.0
  0
VERTEX
  5
32A
  8
0
  6
CONTINUOUS
 62
     8
 10
103.3996294904
 20
145.0300428892
 30
0.0
  0
VERTEX
  5
32B
  8
0
  6
CONTINUOUS
 62
     8
 10
103.1435068071
 20
144.9769981447
 30
0.0
  0
VERTEX
  5
32C
  8
0
  6
CONTINUOUS
 62
     8
 10
103.062467358
 20
144.941820593
 30
0.0
  0
SEQEND
  5
3B5
  8
0
  6
CONTINUOUS
 62
     8
  0
POLYLINE
  5
BE
  8
0
  6
CONTINUOUS
 62
     8
 66
     1
 10
0.0
 20
0.0
 30
0.0
  0
VERTEX
  5
32D
  8
0
  6
CONTINUOUS
 62
     8
 10
102.956440517
 20
141.8701155928
 30
0.0
  0
VERTEX
  5
32E
  8
0
  6
CONTINUOUS
 62
     8
 10
103.0305981141
 20
141.8503267475
 30
0.0
  0
VERTEX
  5
32F
  8
0
  6
CONTINUOUS
 62
     8
 10
103.1701689633
 20
141.8656586727
 30
0.0
  0
VERTEX
  5
330
  8
0
  6
CONTINUOUS
 62
     8
 10
103.2752093218
 20
141.9542582325
 30
0.0
  0
VERTEX
  5
331
  8
0
  6
CONTINUOUS
 62
     8
 10
103.3315329072
 20
142.1041595654
 30
0.0
  0
VERTEX
  5
332
  8
0
  6
CONTINUOUS
 62
     8
 10
103.3315329072
 20
142.2951176658
 30
0.0
  0
VERTEX
  5
333
  8
0
  6
CONTINUOUS
 62
     8
 10
103.2752093218
 20
142.5013425842
 30
0.0
  0
VERTEX
  5
334
  8
0
  6
CONTINUOUS
 62
     8
 10
103.1701689633
 20
142.6949825025
 30
0.0
  0
VERTEX
  5
335
  8
0
  6
CONTINUOUS
 62
     8
 10
103.0305981141
 20
142.8498852767
 30
0.0
  0
VERTEX
  5
336
  8
0
  6
CONTINUOUS
 62
     8
 10
102.8753465909
 20
142.945130429
 30
0.0
  0
VERTEX
  5
337
  8
0
  6
CONTINUOUS
 62
     8
 10
102.7253819721
 20
142.9678545737
 30
0.0
  0
VERTEX
  5
338
  8
0
  6
CONTINUOUS
 62
     8
 10
102.6009578104
 20
142.9149886891
 30
0.0
  0
VERTEX
  5
339
  8
0
  6
CONTINUOUS
 62
     8
 10
102.5188782785
 20
142.7936726059
 30
0.0
  0
VERTEX
  5
33A
  8
0
  6
CONTINUOUS
 62
     8
 10
102.5092269215
 20
142.7645427838
 30
0.0
  0
SEQEND
  5
3B4
  8
0
  6
CONTINUOUS
 62
     8
  0
POLYLINE
  5
BF
  8
0
  6
CONTINUOUS
 62
     8
 66
     1
 10
0.0
 20
0.0
 30
0.0
  0
VERTEX
  5
33B
  8
0
  6
CONTINUOUS
 62
     8
 10
104.0779324925
 20
145.5613567491
 30
0.0
  0
VERTEX
  5
33C
  8
0
  6
CONTINUOUS
 62
     8
 10
104.1631507614
 20
145.5983806861
 30
0.0
  0
VERTEX
  5
33D
  8
0
  6
CONTINUOUS
 62
     8
 10
104.4309153849
 20
145.6538365554
 30
0.0
  0
VERTEX
  5
33E
  8
0
  6
CONTINUOUS
 62
     8
 10
104.7230982555
 20
145.6315980266
 30
0.0
  0
VERTEX
  5
33F
  8
0
  6
CONTINUOUS
 62
     8
 10
105.0291391229
 20
145.5324688581
 30
0.0
  0
VERTEX
  5
340
  8
0
  6
CONTINUOUS
 62
     8
 10
105.3379768727
 20
145.3600318364
 30
0.0
  0
VERTEX
  5
341
  8
0
  6
CONTINUOUS
 62
     8
 10
105.6384493041
 20
145.1205192847
 30
0.0
  0
VERTEX
  5
342
  8
0
  6
CONTINUOUS
 62
     8
 10
105.9196965605
 20
144.8225878106
 30
0.0
  0
VERTEX
  5
343
  8
0
  6
CONTINUOUS
 62
     8
 10
106.1715536333
 20
144.4770054339
 30
0.0
  0
VERTEX
  5
344
  8
0
  6
CONTINUOUS
 62
     8
 10
106.3849177516
 20
144.0962624021
 30
0.0
  0
VERTEX
  5
345
  8
0
  6
CONTINUOUS
 62
     8
 10
106.5520773803
 20
143.6941197603
 30
0.0
  0
VERTEX
  5
346
  8
0
  6
CONTINUOUS
 62
     8
 10
106.6669909349
 20
143.2851119914
 30
0.0
  0
VERTEX
  5
347
  8
0
  6
CONTINUOUS
 62
     8
 10
106.7255051401
 20
142.8840217019
 30
0.0
  0
VERTEX
  5
348
  8
0
  6
CONTINUOUS
 62
     8
 10
106.7255051401
 20
142.5053453398
 30
0.0
  0
VERTEX
  5
349
  8
0
  6
CONTINUOUS
 62
     8
 10
106.6669909349
 20
142.1627692554
 30
0.0
  0
VERTEX
  5
34A
  8
0
  6
CONTINUOUS
 62
     8
 10
106.5520773803
 20
141.8686750412
 30
0.0
  0
VERTEX
  5
34B
  8
0
  6
CONTINUOUS
 62
     8
 10
106.3849177516
 20
141.6336920281
 30
0.0
  0
VERTEX
  5
34C
  8
0
  6
CONTINUOUS
 62
     8
 10
106.1715536333
 20
141.4663131146
 30
0.0
  0
VERTEX
  5
34D
  8
0
  6
CONTINUOUS
 62
     8
 10
106.1351150318
 20
141.4469916705
 30
0.0
  0
SEQEND
  5
3B3
  8
0
  6
CONTINUOUS
 62
     8
  0
POLYLINE
  5
C0
  8
0
  6
CONTINUOUS
 62
     8
 66
     1
 10
0.0
 20
0.0
 30
0.0
  0
VERTEX
  5
34E
  8
0
  6
CONTINUOUS
 62
     8
 10
105.9489018861
 20
146.4968414459
 30
0.0
  0
VERTEX
  5
34F
  8
0
  6
CONTINUOUS
 62
     8
 10
106.0341201551
 20
146.5338653829
 30
0.0
  0
VERTEX
  5
350
  8
0
  6
CONTINUOUS
 62
     8
 10
106.3018847786
 20
146.5893212522
 30
0.0
  0
VERTEX
  5
351
  8
0
  6
CONTINUOUS
 62
     8
 10
106.5940676491
 20
146.5670827234
 30
0.0
  0
VERTEX
  5
352
  8
0
  6
CONTINUOUS
 62
     8
 10
106.9001085165
 20
146.467953555
 30
0.0
  0
VERTEX
  5
353
  8
0
  6
CONTINUOUS
 62
     8
 10
107.2089462664
 20
146.2955165333
 30
0.0
  0
VERTEX
  5
354
  8
0
  6
CONTINUOUS
 62
     8
 10
107.5094186978
 20
146.0560039815
 30
0.0
  0
VERTEX
  5
355
  8
0
  6
CONTINUOUS
 62
     8
 10
107.7906659542
 20
145.7580725074
 30
0.0
  0
VERTEX
  5
356
  8
0
  6
CONTINUOUS
 62
     8
 10
108.0425230269
 20
145.4124901307
 30
0.0
  0
VERTEX
  5
357
  8
0
  6
CONTINUOUS
 62
     8
 10
108.2558871452
 20
145.0317470989
 30
0.0
  0
VERTEX
  5
358
  8
0
  6
CONTINUOUS
 62
     8
 10
108.4230467739
 20
144.6296044571
 30
0.0
  0
VERTEX
  5
359
  8
0
  6
CONTINUOUS
 62
     8
 10
108.5379603285
 20
144.2205966882
 30
0.0
  0
VERTEX
  5
35A
  8
0
  6
CONTINUOUS
 62
     8
 10
108.5964745337
 20
143.8195063987
 30
0.0
  0
VERTEX
  5
35B
  8
0
  6
CONTINUOUS
 62
     8
 10
108.5964745337
 20
143.4408300366
 30
0.0
  0
VERTEX
  5
35C
  8
0
  6
CONTINUOUS
 62
     8
 10
108.5379603285
 20
143.0982539523
 30
0.0
  0
VERTEX
  5
35D
  8
0
  6
CONTINUOUS
 62
     8
 10
108.4230467739
 20
142.804159738
 30
0.0
  0
VERTEX
  5
35E
  8
0
  6
CONTINUOUS
 62
     8
 10
108.2558871452
 20
142.5691767249
 30
0.0
  0
VERTEX
  5
35F
  8
0
  6
CONTINUOUS
 62
     8
 10
108.0425230269
 20
142.4017978114
 30
0.0
  0
VERTEX
  5
360
  8
0
  6
CONTINUOUS
 62
     8
 10
108.0060844254
 20
142.3824763673
 30
0.0
  0
SEQEND
  5
3B2
  8
0
  6
CONTINUOUS
 62
     8
  0
POLYLINE
  5
C1
  8
0
  6
CONTINUOUS
 62
     8
 66
     1
 10
0.0
 20
0.0
 30
0.0
  0
VERTEX
  5
361
  8
0
  6
CONTINUOUS
 62
     8
 10
107.3631154485
 20
147.2039482271
 30
0.0
  0
VERTEX
  5
362
  8
0
  6
CONTINUOUS
 62
     8
 10
107.4483337174
 20
147.2409721641
 30
0.0
  0
VERTEX
  5
363
  8
0
  6
CONTINUOUS
 62
     8
 10
107.716098341
 20
147.2964280334
 30
0.0
  0
VERTEX
  5
364
  8
0
  6
CONTINUOUS
 62
     8
 10
108.0082812115
 20
147.2741895046
 30
0.0
  0
VERTEX
  5
365
  8
0
  6
CONTINUOUS
 62
     8
 10
108.3143220789
 20
147.1750603362
 30
0.0
  0
VERTEX
  5
366
  8
0
  6
CONTINUOUS
 62
     8
 10
108.6231598287
 20
147.0026233144
 30
0.0
  0
VERTEX
  5
367
  8
0
  6
CONTINUOUS
 62
     8
 10
108.9236322601
 20
146.7631107627
 30
0.0
  0
VERTEX
  5
368
  8
0
  6
CONTINUOUS
 62
     8
 10
109.2048795165
 20
146.4651792886
 30
0.0
  0
VERTEX
  5
369
  8
0
  6
CONTINUOUS
 62
     8
 10
109.4567365893
 20
146.1195969119
 30
0.0
  0
VERTEX
  5
36A
  8
0
  6
CONTINUOUS
 62
     8
 10
109.6701007076
 20
145.7388538801
 30
0.0
  0
VERTEX
  5
36B
  8
0
  6
CONTINUOUS
 62
     8
 10
109.8372603363
 20
145.3367112383
 30
0.0
  0
VERTEX
  5
36C
  8
0
  6
CONTINUOUS
 62
     8
 10
109.9521738909
 20
144.9277034694
 30
0.0
  0
VERTEX
  5
36D
  8
0
  6
CONTINUOUS
 62
     8
 10
110.0106880961
 20
144.5266131799
 30
0.0
  0
VERTEX
  5
36E
  8
0
  6
CONTINUOUS
 62
     8
 10
110.0106880961
 20
144.1479368178
 30
0.0
  0
VERTEX
  5
36F
  8
0
  6
CONTINUOUS
 62
     8
 10
109.9521738909
 20
143.8053607335
 30
0.0
  0
VERTEX
  5
370
  8
0
  6
CONTINUOUS
 62
     8
 10
109.8372603363
 20
143.5112665192
 30
0.0
  0
VERTEX
  5
371
  8
0
  6
CONTINUOUS
 62
     8
 10
109.6701007076
 20
143.2762835061
 30
0.0
  0
VERTEX
  5
372
  8
0
  6
CONTINUOUS
 62
     8
 10
109.4567365893
 20
143.1089045926
 30
0.0
  0
VERTEX
  5
373
  8
0
  6
CONTINUOUS
 62
     8
 10
109.4202979878
 20
143.0895831485
 30
0.0
  0
SEQEND
  5
3B1
  8
0
  6
CONTINUOUS
 62
     8
  0
POLYLINE
  5
C2
  8
0
  6
CONTINUOUS
 62
     8
 66
     1
 10
0.0
 20
0.0
 30
0.0
  0
VERTEX
  5
374
  8
0
  6
CONTINUOUS
 62
     8
 10
108.7773290109
 20
147.9110550083
 30
0.0
  0
VERTEX
  5
375
  8
0
  6
CONTINUOUS
 62
     8
 10
108.8625472798
 20
147.9480789453
 30
0.0
  0
VERTEX
  5
376
  8
0
  6
CONTINUOUS
 62
     8
 10
109.1303119033
 20
148.0035348146
 30
0.0
  0
VERTEX
  5
377
  8
0
  6
CONTINUOUS
 62
     8
 10
109.4224947739
 20
147.9812962858
 30
0.0
  0
VERTEX
  5
378
  8
0
  6
CONTINUOUS
 62
     8
 10
109.7285356413
 20
147.8821671173
 30
0.0
  0
VERTEX
  5
379
  8
0
  6
CONTINUOUS
 62
     8
 10
110.0373733911
 20
147.7097300956
 30
0.0
  0
VERTEX
  5
37A
  8
0
  6
CONTINUOUS
 62
     8
 10
110.3378458225
 20
147.4702175439
 30
0.0
  0
VERTEX
  5
37B
  8
0
  6
CONTINUOUS
 62
     8
 10
110.6190930789
 20
147.1722860698
 30
0.0
  0
VERTEX
  5
37C
  8
0
  6
CONTINUOUS
 62
     8
 10
110.8709501517
 20
146.8267036931
 30
0.0
  0
VERTEX
  5
37D
  8
0
  6
CONTINUOUS
 62
     8
 10
111.08431427
 20
146.4459606613
 30
0.0
  0
VERTEX
  5
37E
  8
0
  6
CONTINUOUS
 62
     8
 10
111.2514738987
 20
146.0438180195
 30
0.0
  0
VERTEX
  5
37F
  8
0
  6
CONTINUOUS
 62
     8
 10
111.3663874533
 20
145.6348102506
 30
0.0
  0
VERTEX
  5
380
  8
0
  6
CONTINUOUS
 62
     8
 10
111.4249016585
 20
145.2337199611
 30
0.0
  0
VERTEX
  5
381
  8
0
  6
CONTINUOUS
 62
     8
 10
111.4249016585
 20
144.855043599
 30
0.0
  0
VERTEX
  5
382
  8
0
  6
CONTINUOUS
 62
     8
 10
111.3663874533
 20
144.5124675146
 30
0.0
  0
VERTEX
  5
383
  8
0
  6
CONTINUOUS
 62
     8
 10
111.2514738987
 20
144.2183733004
 30
0.0
  0
VERTEX
  5
384
  8
0
  6
CONTINUOUS
 62
     8
 10
111.08431427
 20
143.9833902873
 30
0.0
  0
VERTEX
  5
385
  8
0
  6
CONTINUOUS
 62
     8
 10
110.8709501517
 20
143.8160113738
 30
0.0
  0
VERTEX
  5
386
  8
0
  6
CONTINUOUS
 62
     8
 10
110.8345115502
 20
143.7966899297
 30
0.0
  0
SEQEND
  5
3B0
  8
0
  6
CONTINUOUS
 62
     8
  0
POLYLINE
  5
C3
  8
0
  6
CONTINUOUS
 62
     8
 66
     1
 10
0.0
 20
0.0
 30
0.0
  0
VERTEX
  5
387
  8
0
  6
CONTINUOUS
 62
     8
 10
112.6664867373
 20
144.8244809221
 30
0.0
  0
VERTEX
  5
388
  8
0
  6
CONTINUOUS
 62
     8
 10
112.7013410517
 20
144.8429623034
 30
0.0
  0
VERTEX
  5
389
  8
0
  6
CONTINUOUS
 62
     8
 10
112.9054284693
 20
145.0030638729
 30
0.0
  0
VERTEX
  5
38A
  8
0
  6
CONTINUOUS
 62
     8
 10
113.065320288
 20
145.2278302332
 30
0.0
  0
VERTEX
  5
38B
  8
0
  6
CONTINUOUS
 62
     8
 10
113.1752376011
 20
145.5091377425
 30
0.0
  0
VERTEX
  5
38C
  8
0
  6
CONTINUOUS
 62
     8
 10
113.2312077104
 20
145.8368192145
 30
0.0
  0
VERTEX
  5
38D
  8
0
  6
CONTINUOUS
 62
     8
 10
113.2312077104
 20
146.1990313869
 30
0.0
  0
VERTEX
  5
38E
  8
0
  6
CONTINUOUS
 62
     8
 10
113.1752376011
 20
146.5826829682
 30
0.0
  0
VERTEX
  5
38F
  8
0
  6
CONTINUOUS
 62
     8
 10
113.065320288
 20
146.9739077906
 30
0.0
  0
VERTEX
  5
390
  8
0
  6
CONTINUOUS
 62
     8
 10
112.9054284693
 20
147.3585659697
 30
0.0
  0
VERTEX
  5
391
  8
0
  6
CONTINUOUS
 62
     8
 10
112.7013410517
 20
147.7227549567
 30
0.0
  0
VERTEX
  5
392
  8
0
  6
CONTINUOUS
 62
     8
 10
112.4604342865
 20
148.0533120127
 30
0.0
  0
VERTEX
  5
393
  8
0
  6
CONTINUOUS
 62
     8
 10
112.1914151717
 20
148.3382899444
 30
0.0
  0
VERTEX
  5
394
  8
0
  6
CONTINUOUS
 62
     8
 10
111.904006759
 20
148.5673889069
 30
0.0
  0
VERTEX
  5
395
  8
0
  6
CONTINUOUS
 62
     8
 10
111.6085967374
 20
148.7323286668
 30
0.0
  0
VERTEX
  5
396
  8
0
  6
CONTINUOUS
 62
     8
 10
111.3158619947
 20
148.8271478714
 30
0.0
  0
VERTEX
  5
397
  8
0
  6
CONTINUOUS
 62
     8
 10
111.0363827272
 20
148.8484195076
 30
0.0
  0
VERTEX
  5
398
  8
0
  6
CONTINUOUS
 62
     8
 10
110.7802600439
 20
148.7953747631
 30
0.0
  0
VERTEX
  5
399
  8
0
  6
CONTINUOUS
 62
     8
 10
110.6987469171
 20
148.7599605625
 30
0.0
  0
SEQEND
  5
3AF
  8
0
  6
CONTINUOUS
 62
     8
  0
POLYLINE
  5
C4
  8
0
  6
CONTINUOUS
 62
     8
 66
     1
 10
0.0
 20
0.0
 30
0.0
  0
VERTEX
  5
39A
  8
0
  6
CONTINUOUS
 62
     8
 10
115.4353080206
 20
150.1506171466
 30
0.0
  0
VERTEX
  5
39B
  8
0
  6
CONTINUOUS
 62
     8
 10
115.3972477869
 20
150.0549462885
 30
0.0
  0
VERTEX
  5
39C
  8
0
  6
CONTINUOUS
 62
     8
 10
115.2888614112
 20
149.9738404513
 30
0.0
  0
VERTEX
  5
39D
  8
0
  6
CONTINUOUS
 62
     8
 10
115.1266497368
 20
149.9196472635
 30
0.0
  0
VERTEX
  5
39E
  8
0
  6
CONTINUOUS
 62
     8
 10
114.9353080206
 20
149.9006171466
 30
0.0
  0
VERTEX
  5
39F
  8
0
  6
CONTINUOUS
 62
     8
 10
114.7439663045
 20
149.9196472635
 30
0.0
  0
VERTEX
  5
3A0
  8
0
  6
CONTINUOUS
 62
     8
 10
114.5817546301
 20
149.9738404513
 30
0.0
  0
VERTEX
  5
3A1
  8
0
  6
CONTINUOUS
 62
     8
 10
114.4733682544
 20
150.0549462885
 30
0.0
  0
VERTEX
  5
3A2
  8
0
  6
CONTINUOUS
 62
     8
 10
114.4353080206
 20
150.1506171466
 30
0.0
  0
SEQEND
  5
3AE
  8
0
  6
CONTINUOUS
 62
     8
  0
POLYLINE
  5
C5
  8
0
  6
CONTINUOUS
 62
     8
 66
     1
 10
0.0
 20
0.0
 30
0.0
  0
VERTEX
  5
3A3
  8
0
  6
CONTINUOUS
 62
     8
 10
113.7448268001
 20
147.2643087931
 30
0.0
  0
VERTEX
  5
3A4
  8
0
  6
CONTINUOUS
 62
     8
 10
113.7710944583
 20
147.28027334
 30
0.0
  0
VERTEX
  5
3A5
  8
0
  6
CONTINUOUS
 62
     8
 10
113.8477351995
 20
147.3824324002
 30
0.0
  0
VERTEX
  5
3A6
  8
0
  6
CONTINUOUS
 62
     8
 10
113.8746478489
 20
147.5346828626
 30
0.0
  0
VERTEX
  5
3A7
  8
0
  6
CONTINUOUS
 62
     8
 10
113.8477351995
 20
147.7138459743
 30
0.0
  0
VERTEX
  5
3A8
  8
0
  6
CONTINUOUS
 62
     8
 10
113.7710944583
 20
147.8926457757
 30
0.0
  0
VERTEX
  5
3A9
  8
0
  6
CONTINUOUS
 62
     8
 10
113.6563934833
 20
148.0438616179
 30
0.0
  0
VERTEX
  5
3AA
  8
0
  6
CONTINUOUS
 62
     8
 10
113.5210944583
 20
148.1444722597
 30
0.0
  0
VERTEX
  5
3AB
  8
0
  6
CONTINUOUS
 62
     8
 10
113.3857954332
 20
148.179160643
 30
0.0
  0
VERTEX
  5
3AC
  8
0
  6
CONTINUOUS
 62
     8
 10
113.2957881029
 20
148.1578125547
 30
0.0
  0
SEQEND
  5
3AD
  8
0
  6
CONTINUOUS
 62
     8
  0
TEXT
  5
C6
  8
0
  6
CONTINUOUS
 62
     7
 10
0.0
 20
6.732893805
 30
0.0
 40
3.633
  1
Edition tudiante de SolidWorks.
 41
0.6671875
 11
0.0
 21
5.4495
 31
0.0
 73
     1
  0
TEXT
  5
C7
  8
0
  6
CONTINUOUS
 62
     7
 10
0.0
 20
1.283393805
 30
0.0
 40
3.633
  1
A usage universitaire uniquement.
 41
0.6681818182
 11
0.0
 21
0.0
 31
0.0
 73
     1
  0
ENDSEC
  0
EOF
