  0
SECTION
  2
HEADER
  9
$ACADVER
  1
AC1009
  9
$DWGCODEPAGE
  3
ansi_1252
  9
$INSBASE
 10
0.0
 20
0.0
 30
0.0
  9
$EXTMIN
 10
0.0
 20
0.0
 30
0.0
  9
$EXTMAX
 10
210.0
 20
297.0
 30
0.0
  9
$LIMMIN
 10
0.0
 20
0.0
  9
$LIMMAX
 10
210.0
 20
297.0
  9
$ORTHOMODE
 70
     0
  9
$REGENMODE
 70
     1
  9
$FILLMODE
 70
     1
  9
$QTEXTMODE
 70
     0
  9
$MIRRTEXT
 70
     1
  9
$DRAGMODE
 70
     2
  9
$LTSCALE
 40
1.0
  9
$OSMODE
 70
    37
  9
$ATTMODE
 70
     1
  9
$TEXTSIZE
 40
3.5
  9
$TRACEWID
 40
1.0
  9
$TEXTSTYLE
  7
STANDARD
  9
$CLAYER
  8
0
  9
$CELTYPE
  6
BYLAYER
  9
$CECOLOR
 62
   256
  9
$DIMSCALE
 40
1.0
  9
$DIMASZ
 40
3.302
  9
$DIMEXO
 40
1.0
  9
$DIMDLI
 40
3.75
  9
$DIMRND
 40
0.0
  9
$DIMDLE
 40
0.0
  9
$DIMEXE
 40
1.0
  9
$DIMTP
 40
0.0
  9
$DIMTM
 40
0.0
  9
$DIMTXT
 40
3.5
  9
$DIMCEN
 40
2.5
  9
$DIMTSZ
 40
0.0
  9
$DIMTOL
 70
     0
  9
$DIMLIM
 70
     0
  9
$DIMTIH
 70
     1
  9
$DIMTOH
 70
     1
  9
$DIMSE1
 70
     0
  9
$DIMSE2
 70
     0
  9
$DIMTAD
 70
     1
  9
$DIMZIN
 70
     0
  9
$DIMBLK
  1

  9
$DIMASO
 70
     1
  9
$DIMSHO
 70
     1
  9
$DIMPOST
  1

  9
$DIMAPOST
  1

  9
$DIMALT
 70
     0
  9
$DIMALTD
 70
     3
  9
$DIMALTF
 40
0.0393700787
  9
$DIMLFAC
 40
1.0
  9
$DIMTOFL
 70
     1
  9
$DIMTVP
 40
0.0
  9
$DIMTIX
 70
     0
  9
$DIMSOXD
 70
     0
  9
$DIMSAH
 70
     0
  9
$DIMBLK1
  1

  9
$DIMBLK2
  1

  9
$DIMSTYLE
  2
ISO-25
  9
$DIMCLRD
 70
     0
  9
$DIMCLRE
 70
     0
  9
$DIMCLRT
 70
     0
  9
$DIMTFAC
 40
1.0
  9
$DIMGAP
 40
1.524
  9
$LUNITS
 70
     2
  9
$LUPREC
 70
     2
  9
$SKETCHINC
 40
1.0
  9
$FILLETRAD
 40
10.0
  9
$AUNITS
 70
     0
  9
$AUPREC
 70
     2
  9
$MENU
  1
.
  9
$ELEVATION
 40
0.0
  9
$PELEVATION
 40
0.0
  9
$THICKNESS
 40
0.0
  9
$LIMCHECK
 70
     0
  9
$CHAMFERA
 40
10.0
  9
$CHAMFERB
 40
10.0
  9
$SKPOLY
 70
     0
  9
$TDCREATE
 40
2456630.594306551
  9
$TDUPDATE
 40
2456630.594306921
  9
$TDINDWG
 40
0.0000000116
  9
$TDUSRTIMER
 40
0.0000000116
  9
$USRTIMER
 70
     1
  9
$ANGBASE
 50
0.0
  9
$ANGDIR
 70
     0
  9
$PDMODE
 70
     0
  9
$PDSIZE
 40
-1.0
  9
$PLINEWID
 40
0.0
  9
$COORDS
 70
     1
  9
$SPLFRAME
 70
     0
  9
$SPLINETYPE
 70
     6
  9
$SPLINESEGS
 70
     8
  9
$ATTDIA
 70
     0
  9
$ATTREQ
 70
     1
  9
$HANDLING
 70
     1
  9
$HANDSEED
  5
1D8
  9
$SURFTAB1
 70
     6
  9
$SURFTAB2
 70
     6
  9
$SURFTYPE
 70
     6
  9
$SURFU
 70
     6
  9
$SURFV
 70
     6
  9
$UCSNAME
  2

  9
$UCSORG
 10
0.0
 20
0.0
 30
0.0
  9
$UCSXDIR
 10
1.0
 20
0.0
 30
0.0
  9
$UCSYDIR
 10
0.0
 20
1.0
 30
0.0
  9
$PUCSNAME
  2

  9
$PUCSORG
 10
0.0
 20
0.0
 30
0.0
  9
$PUCSXDIR
 10
1.0
 20
0.0
 30
0.0
  9
$PUCSYDIR
 10
0.0
 20
1.0
 30
0.0
  9
$USERI1
 70
     0
  9
$USERI2
 70
     0
  9
$USERI3
 70
     0
  9
$USERI4
 70
     0
  9
$USERI5
 70
     0
  9
$USERR1
 40
0.0
  9
$USERR2
 40
0.0
  9
$USERR3
 40
0.0
  9
$USERR4
 40
0.0
  9
$USERR5
 40
0.0
  9
$WORLDVIEW
 70
     1
  9
$SHADEDGE
 70
     3
  9
$SHADEDIF
 70
    70
  9
$TILEMODE
 70
     1
  9
$MAXACTVP
 70
    64
  9
$PLIMCHECK
 70
     0
  9
$PEXTMIN
 10
1.0000000000E+20
 20
1.0000000000E+20
 30
1.0000000000E+20
  9
$PEXTMAX
 10
-1.0000000000E+20
 20
-1.0000000000E+20
 30
-1.0000000000E+20
  9
$PLIMMIN
 10
0.0
 20
0.0
  9
$PLIMMAX
 10
420.0
 20
297.0
  9
$UNITMODE
 70
     0
  9
$VISRETAIN
 70
     1
  9
$PLINEGEN
 70
     0
  9
$PSLTSCALE
 70
     1
  0
ENDSEC
  0
SECTION
  2
TABLES
  0
TABLE
  2
VPORT
 70
     1
  0
VPORT
  2
*ACTIVE
 70
     0
 10
0.0
 20
0.0
 11
1.0
 21
1.0
 12
105.0
 22
148.5
 13
0.0
 23
0.0
 14
10.0
 24
10.0
 15
10.0
 25
10.0
 16
0.0
 26
0.0
 36
1.0
 17
0.0
 27
0.0
 37
0.0
 40
297.0
 41
0.7070707071
 42
50.0
 43
0.0
 44
0.0
 50
0.0
 51
0.0
 71
     0
 72
  2000
 73
     1
 74
     3
 75
     0
 76
     0
 77
     0
 78
     0
  0
ENDTAB
  0
TABLE
  2
LTYPE
 70
     6
  0
LTYPE
  2
CONTINUOUS
 70
     0
  3
Solid line
 72
    65
 73
     0
 40
0.0
  0
LTYPE
  2
HIDDEN
 70
     0
  3
Hidden __ __ __ __ __ __ __ __ __ __ __ __ __ __
 72
    65
 73
     2
 40
1.905
 49
1.27
 49
-0.635
  0
LTYPE
  2
PHANTOM
 70
     0
  3
Phantom ______  __  __  ______  __  __  ______
 72
    65
 73
     6
 40
12.7
 49
6.35
 49
-1.27
 49
1.27
 49
-1.27
 49
1.27
 49
-1.27
  0
LTYPE
  2
CENTER
 70
     0
  3
Center ____ _ ____ _ ____ _ ____ _ ____ _ ____
 72
    65
 73
     4
 40
10.16
 49
6.35
 49
-1.27
 49
1.27
 49
-1.27
  0
LTYPE
  2
CENTERX2
 70
     0
  3
Center (2x) ________  __  ________  __  _____
 72
    65
 73
     4
 40
20.32
 49
12.7
 49
-2.54
 49
2.54
 49
-2.54
  0
LTYPE
  2
DOT2
 70
     0
  3
Dot (.5x) ........................................
 72
    65
 73
     2
 40
0.635
 49
0.0
 49
-0.635
  0
ENDTAB
  0
TABLE
  2
LAYER
 70
     1
  0
LAYER
  2
0
 70
     0
 62
     7
  6
CONTINUOUS
  0
ENDTAB
  0
TABLE
  2
STYLE
 70
     1
  0
STYLE
  2
STANDARD
 70
     0
 40
0.0
 41
1.0
 50
0.0
 71
     0
 42
3.5
  3
txt
  4

  0
ENDTAB
  0
TABLE
  2
VIEW
 70
     0
  0
ENDTAB
  0
TABLE
  2
UCS
 70
     0
  0
ENDTAB
  0
TABLE
  2
APPID
 70
     1
  0
APPID
  2
ACAD
 70
     0
  0
ENDTAB
  0
TABLE
  2
DIMSTYLE
 70
     1
  0
DIMSTYLE
  2
ISO-25
 70
     0
  3

  4

  5

  6

  7

 40
1.0
 41
2.5
 42
0.625
 43
3.75
 44
1.25
 45
0.0
 46
0.0
 47
0.0
 48
0.0
140
2.5
141
2.5
142
0.0
143
0.0393700787
144
1.0
145
0.0
146
1.0
147
0.625
 71
     0
 72
     0
 73
     0
 74
     0
 75
     0
 76
     0
 77
     1
 78
     8
170
     0
171
     3
172
     1
173
     0
174
     0
175
     0
176
     0
177
     0
178
     0
  0
ENDTAB
  0
ENDSEC
  0
SECTION
  2
BLOCKS
  0
BLOCK
  8
0
  2
$MODEL_SPACE
 70
     0
 10
0.0
 20
0.0
 30
0.0
  3
$MODEL_SPACE
  1

  0
ENDBLK
  5
21
  8
0
  0
BLOCK
 67
     1
  8
0
  2
$PAPER_SPACE
 70
     0
 10
0.0
 20
0.0
 30
0.0
  3
$PAPER_SPACE
  1

  0
ENDBLK
  5
1D
 67
     1
  8
0
  0
ENDSEC
  0
SECTION
  2
ENTITIES
  0
LINE
  5
44
  8
0
  6
CONTINUOUS
 62
     7
 10
101.4497690233
 20
147.0547084874
 30
0.0
 11
101.4497690233
 21
146.4547085753
 31
0.0
  0
LINE
  5
45
  8
0
  6
CONTINUOUS
 62
     7
 10
106.6497695031
 20
146.4547085753
 30
0.0
 11
106.6497695031
 21
147.0547084874
 31
0.0
  0
LINE
  5
46
  8
0
  6
CONTINUOUS
 62
     7
 10
106.6497695031
 20
156.4547084682
 30
0.0
 11
106.6497695031
 21
157.2547085062
 31
0.0
  0
LINE
  5
47
  8
0
  6
CONTINUOUS
 62
     7
 10
101.4497690233
 20
157.2547085062
 30
0.0
 11
101.4497690233
 21
156.4547084682
 31
0.0
  0
LINE
  5
48
  8
0
  6
CONTINUOUS
 62
     7
 10
106.5497692073
 20
147.0547084874
 30
0.0
 11
106.5497692073
 21
156.4547084682
 31
0.0
  0
LINE
  5
49
  8
0
  6
CONTINUOUS
 62
     7
 10
101.5497697847
 20
156.4547084682
 30
0.0
 11
101.5497697847
 21
147.0547084874
 31
0.0
  0
LINE
  5
4A
  8
0
  6
CONTINUOUS
 62
     7
 10
106.7963252174
 20
140.8547078436
 30
0.0
 11
106.7963252174
 21
146.4547085753
 31
0.0
  0
LINE
  5
4B
  8
0
  6
CONTINUOUS
 62
     7
 10
101.303213309
 20
146.4547085753
 30
0.0
 11
101.303213309
 21
140.8547078436
 31
0.0
  0
LINE
  5
4C
  8
0
  6
CONTINUOUS
 62
     7
 10
102.068095501
 20
140.8547078436
 30
0.0
 11
102.068095501
 21
146.4547085753
 31
0.0
  0
LINE
  5
4D
  8
0
  6
CONTINUOUS
 62
     7
 10
106.0314430254
 20
146.4547085753
 30
0.0
 11
106.0314430254
 21
140.8547078436
 31
0.0
  0
LINE
  5
4E
  8
0
  6
CONTINUOUS
 62
     7
 10
100.9497689413
 20
146.4547085753
 30
0.0
 11
100.9497689413
 21
140.8547078436
 31
0.0
  0
LINE
  5
4F
  8
0
  6
CONTINUOUS
 62
     7
 10
107.1497695851
 20
140.8547078436
 30
0.0
 11
107.1497695851
 21
146.4547085753
 31
0.0
  0
LINE
  5
50
  8
0
  6
CONTINUOUS
 62
     7
 10
106.7963252174
 20
157.2547085062
 30
0.0
 11
106.7963252174
 21
162.8547086558
 31
0.0
  0
LINE
  5
51
  8
0
  6
CONTINUOUS
 62
     7
 10
101.303213309
 20
162.8547086558
 30
0.0
 11
101.303213309
 21
157.2547085062
 31
0.0
  0
LINE
  5
52
  8
0
  6
CONTINUOUS
 62
     7
 10
106.0314430254
 20
162.8547086558
 30
0.0
 11
106.0314430254
 21
157.2547085062
 31
0.0
  0
LINE
  5
53
  8
0
  6
CONTINUOUS
 62
     7
 10
102.068095501
 20
157.2547085062
 30
0.0
 11
102.068095501
 21
162.8547086558
 31
0.0
  0
LINE
  5
54
  8
0
  6
CONTINUOUS
 62
     7
 10
107.1497695851
 20
157.2547085062
 30
0.0
 11
107.1497695851
 21
162.8547086558
 31
0.0
  0
LINE
  5
55
  8
0
  6
CONTINUOUS
 62
     7
 10
100.9497689413
 20
162.8547086558
 30
0.0
 11
100.9497689413
 21
157.2547085062
 31
0.0
  0
LINE
  5
56
  8
0
  6
CONTINUOUS
 62
     7
 10
121.4451687741
 20
153.0448160311
 30
0.0
 11
122.445168938
 21
153.0448160311
 31
0.0
  0
LINE
  5
57
  8
0
  6
CONTINUOUS
 62
     7
 10
127.4451688262
 20
158.3448161083
 30
0.0
 11
122.445168938
 21
158.3448161083
 31
0.0
  0
LINE
  5
58
  8
0
  6
CONTINUOUS
 62
     7
 10
122.445168938
 20
153.3448159872
 30
0.0
 11
127.4451688262
 21
153.3448159872
 31
0.0
  0
ARC
  5
59
  8
0
  6
CONTINUOUS
 62
     7
 10
127.4451689058
 20
155.8448160772
 30
0.0
 40
2.5
 50
270.0
 51
360.0
  0
ARC
  5
5A
  8
0
  6
CONTINUOUS
 62
     7
 10
127.4451689058
 20
155.8448160772
 30
0.0
 40
2.5
 50
360.0
 51
90.0
  0
LINE
  5
5B
  8
0
  6
CONTINUOUS
 62
     7
 10
121.4451687741
 20
157.5148160747
 30
0.0
 11
119.4451689119
 21
157.5148160747
 31
0.0
  0
LINE
  5
5C
  8
0
  6
CONTINUOUS
 62
     7
 10
119.4451689119
 20
156.7148160658
 30
0.0
 11
121.4451687741
 21
156.7148160658
 31
0.0
  0
LINE
  5
5D
  8
0
  6
CONTINUOUS
 62
     7
 10
121.4451687741
 20
154.9748160588
 30
0.0
 11
119.4451689119
 21
154.9748160588
 31
0.0
  0
LINE
  5
5E
  8
0
  6
CONTINUOUS
 62
     7
 10
119.4451689119
 20
154.1748160208
 30
0.0
 11
121.4451687741
 21
154.1748160208
 31
0.0
  0
LINE
  5
5F
  8
0
  6
CONTINUOUS
 62
     7
 10
119.4451689119
 20
157.5148160747
 30
0.0
 11
117.4451690497
 21
157.5148160747
 31
0.0
  0
LINE
  5
60
  8
0
  6
CONTINUOUS
 62
     7
 10
117.4451690497
 20
156.7148160658
 30
0.0
 11
119.4451689119
 21
156.7148160658
 31
0.0
  0
LINE
  5
61
  8
0
  6
CONTINUOUS
 62
     7
 10
119.4451689119
 20
154.9748160588
 30
0.0
 11
117.4451690497
 21
154.9748160588
 31
0.0
  0
LINE
  5
62
  8
0
  6
CONTINUOUS
 62
     7
 10
117.4451690497
 20
154.1748160208
 30
0.0
 11
119.4451689119
 21
154.1748160208
 31
0.0
  0
LINE
  5
63
  8
0
  6
CONTINUOUS
 62
     7
 10
121.0177559736
 20
141.5055421358
 30
0.0
 11
127.0177560257
 21
141.5055421358
 31
0.0
  0
LINE
  5
64
  8
0
  6
CONTINUOUS
 62
     7
 10
127.0177560257
 20
146.2055425337
 30
0.0
 11
121.0177559736
 21
146.2055425337
 31
0.0
  0
LINE
  5
65
  8
0
  6
CONTINUOUS
 62
     7
 10
127.0177560257
 20
142.6555420449
 30
0.0
 11
130.9177559199
 21
142.6555420449
 31
0.0
  0
LINE
  5
66
  8
0
  6
CONTINUOUS
 62
     7
 10
130.9177559199
 20
145.0555426246
 30
0.0
 11
127.0177560257
 21
145.0555426246
 31
0.0
  0
ARC
  5
67
  8
0
  6
CONTINUOUS
 62
     7
 10
130.9177561746
 20
143.9555422412
 30
0.0
 40
1.099999999999994
 50
0.0
 51
90.0
  0
ARC
  5
68
  8
0
  6
CONTINUOUS
 62
     7
 10
130.9177561746
 20
143.7555422412
 30
0.0
 40
1.100000000000023
 50
270.0
 51
0.0
  0
LINE
  5
69
  8
0
  6
CONTINUOUS
 62
     7
 10
90.0278613301
 20
176.8275154
 30
0.0
 11
90.0278613301
 21
166.8575163177
 31
0.0
  0
LINE
  5
6A
  8
0
  6
CONTINUOUS
 62
     7
 10
94.2670759144
 20
176.8275154
 30
0.0
 11
90.0278613301
 21
176.8275154
 31
0.0
  0
LINE
  5
6B
  8
0
  6
CONTINUOUS
 62
     7
 10
94.2670759144
 20
166.8575163177
 30
0.0
 11
94.2670759144
 21
176.8275154
 31
0.0
  0
CIRCLE
  5
6C
  8
0
  6
CONTINUOUS
 62
     7
 10
92.1474689058
 20
174.4173956653
 30
0.0
 40
1.724999999999994
  0
CIRCLE
  5
6D
  8
0
  6
CONTINUOUS
 62
     7
 10
92.1474689058
 20
169.2676364891
 30
0.0
 40
1.724999999999994
  0
LINE
  5
6E
  8
0
  6
CONTINUOUS
 62
     7
 10
90.0278613301
 20
166.8575163177
 30
0.0
 11
94.2670759144
 21
166.8575163177
 31
0.0
  0
LINE
  5
6F
  8
0
  6
CONTINUOUS
 62
     7
 10
88.3724689814
 20
166.8575163177
 30
0.0
 11
88.3724689814
 21
176.8275154
 31
0.0
  0
LINE
  5
70
  8
0
  6
CONTINUOUS
 62
     7
 10
88.3724689814
 20
176.8275154
 30
0.0
 11
90.0278613301
 21
176.8275154
 31
0.0
  0
LINE
  5
71
  8
0
  6
CONTINUOUS
 62
     7
 10
90.0278613301
 20
166.8575163177
 30
0.0
 11
88.3724689814
 21
166.8575163177
 31
0.0
  0
LINE
  5
72
  8
0
  6
CONTINUOUS
 62
     7
 10
95.9224682631
 20
176.8275154
 30
0.0
 11
95.9224682631
 21
166.8575163177
 31
0.0
  0
LINE
  5
73
  8
0
  6
CONTINUOUS
 62
     7
 10
94.2670759144
 20
176.8275154
 30
0.0
 11
95.9224682631
 21
176.8275154
 31
0.0
  0
LINE
  5
74
  8
0
  6
CONTINUOUS
 62
     7
 10
95.9224682631
 20
166.8575163177
 30
0.0
 11
94.2670759144
 21
166.8575163177
 31
0.0
  0
LINE
  5
75
  8
0
  6
CONTINUOUS
 62
     7
 10
91.7171947988
 20
176.0878720498
 30
0.0
 11
91.7171947988
 21
172.7469199514
 31
0.0
  0
LINE
  5
76
  8
0
  6
CONTINUOUS
 62
     7
 10
92.4972463729
 20
176.1065618312
 30
0.0
 11
91.7976927342
 21
176.1065618312
 31
0.0
  0
LINE
  5
77
  8
0
  6
CONTINUOUS
 62
     7
 10
91.7171947988
 20
170.9381126976
 30
0.0
 11
91.7171947988
 21
167.5971605992
 31
0.0
  0
LINE
  5
78
  8
0
  6
CONTINUOUS
 62
     7
 10
92.4972463729
 20
172.7469199514
 30
0.0
 11
92.4972463729
 21
176.1065618312
 31
0.0
  0
LINE
  5
79
  8
0
  6
CONTINUOUS
 62
     7
 10
91.7171947988
 20
172.7469199514
 30
0.0
 11
92.4972463729
 21
172.7469199514
 31
0.0
  0
LINE
  5
7A
  8
0
  6
CONTINUOUS
 62
     7
 10
92.4972463729
 20
170.956802479
 30
0.0
 11
91.7976927342
 21
170.956802479
 31
0.0
  0
LINE
  5
7B
  8
0
  6
CONTINUOUS
 62
     7
 10
92.4972463729
 20
167.5971605992
 30
0.0
 11
92.4972463729
 21
170.956802479
 31
0.0
  0
LINE
  5
7C
  8
0
  6
CONTINUOUS
 62
     7
 10
91.7171947988
 20
167.5971605992
 30
0.0
 11
92.4972463729
 21
167.5971605992
 31
0.0
  0
LINE
  5
7D
  8
0
  6
CONTINUOUS
 62
     7
 10
90.0278613301
 20
156.8275160799
 30
0.0
 11
90.0278613301
 21
146.8575158334
 31
0.0
  0
LINE
  5
7E
  8
0
  6
CONTINUOUS
 62
     7
 10
90.0278613301
 20
146.8575158334
 30
0.0
 11
88.3724689814
 21
146.8575158334
 31
0.0
  0
LINE
  5
7F
  8
0
  6
CONTINUOUS
 62
     7
 10
88.3724689814
 20
146.8575158334
 30
0.0
 11
88.3724689814
 21
156.8275160799
 31
0.0
  0
LINE
  5
80
  8
0
  6
CONTINUOUS
 62
     7
 10
88.3724689814
 20
156.8275160799
 30
0.0
 11
90.0278613301
 21
156.8275160799
 31
0.0
  0
LINE
  5
81
  8
0
  6
CONTINUOUS
 62
     7
 10
94.2670759144
 20
146.8575158334
 30
0.0
 11
94.2670759144
 21
156.8275160799
 31
0.0
  0
LINE
  5
82
  8
0
  6
CONTINUOUS
 62
     7
 10
95.9224682631
 20
156.8275160799
 30
0.0
 11
95.9224682631
 21
146.8575158334
 31
0.0
  0
LINE
  5
83
  8
0
  6
CONTINUOUS
 62
     7
 10
95.9224682631
 20
146.8575158334
 30
0.0
 11
94.2670759144
 21
146.8575158334
 31
0.0
  0
LINE
  5
84
  8
0
  6
CONTINUOUS
 62
     7
 10
94.2670759144
 20
156.8275160799
 30
0.0
 11
95.9224682631
 21
156.8275160799
 31
0.0
  0
CIRCLE
  5
85
  8
0
  6
CONTINUOUS
 62
     7
 10
92.1474689058
 20
154.4173956653
 30
0.0
 40
1.725000000000023
  0
LINE
  5
86
  8
0
  6
CONTINUOUS
 62
     7
 10
90.0278613301
 20
146.8575158334
 30
0.0
 11
94.2670759144
 21
146.8575158334
 31
0.0
  0
LINE
  5
87
  8
0
  6
CONTINUOUS
 62
     7
 10
94.2670759144
 20
156.8275160799
 30
0.0
 11
90.0278613301
 21
156.8275160799
 31
0.0
  0
CIRCLE
  5
88
  8
0
  6
CONTINUOUS
 62
     7
 10
92.1474689058
 20
149.2676364891
 30
0.0
 40
1.725000000000023
  0
LINE
  5
89
  8
0
  6
CONTINUOUS
 62
     7
 10
92.4972463729
 20
156.1065615216
 30
0.0
 11
91.7976927342
 21
156.1065615216
 31
0.0
  0
LINE
  5
8A
  8
0
  6
CONTINUOUS
 62
     7
 10
92.4972463729
 20
147.5971610463
 30
0.0
 11
92.4972463729
 21
150.9568024604
 31
0.0
  0
LINE
  5
8B
  8
0
  6
CONTINUOUS
 62
     7
 10
91.7171947988
 20
147.5971610463
 30
0.0
 11
92.4972463729
 21
147.5971610463
 31
0.0
  0
LINE
  5
8C
  8
0
  6
CONTINUOUS
 62
     7
 10
92.4972463729
 20
150.9568024604
 30
0.0
 11
91.7976927342
 21
150.9568024604
 31
0.0
  0
LINE
  5
8D
  8
0
  6
CONTINUOUS
 62
     7
 10
91.7171947988
 20
152.7469199328
 30
0.0
 11
92.4972463729
 21
152.7469199328
 31
0.0
  0
LINE
  5
8E
  8
0
  6
CONTINUOUS
 62
     7
 10
92.4972463729
 20
152.7469199328
 30
0.0
 11
92.4972463729
 21
156.1065615216
 31
0.0
  0
LINE
  5
8F
  8
0
  6
CONTINUOUS
 62
     7
 10
91.7171947988
 20
150.9381122133
 30
0.0
 11
91.7171947988
 21
147.5971610463
 31
0.0
  0
LINE
  5
90
  8
0
  6
CONTINUOUS
 62
     7
 10
91.7171947988
 20
156.0878713909
 30
0.0
 11
91.7171947988
 21
152.7469199328
 31
0.0
  0
LINE
  5
91
  8
0
  6
CONTINUOUS
 62
     7
 10
102.1624692114
 20
130.7229091591
 30
0.0
 11
112.132468905
 21
130.7229091591
 31
0.0
  0
LINE
  5
92
  8
0
  6
CONTINUOUS
 62
     7
 10
112.132468905
 20
134.9621237433
 30
0.0
 11
102.1624692114
 21
134.9621237433
 31
0.0
  0
LINE
  5
93
  8
0
  6
CONTINUOUS
 62
     7
 10
112.132468905
 20
130.7229091591
 30
0.0
 11
112.132468905
 21
134.9621237433
 31
0.0
  0
CIRCLE
  5
94
  8
0
  6
CONTINUOUS
 62
     7
 10
104.5725893177
 20
132.8425160772
 30
0.0
 40
1.724999999999994
  0
LINE
  5
95
  8
0
  6
CONTINUOUS
 62
     7
 10
102.1624692114
 20
134.9621237433
 30
0.0
 11
102.1624692114
 21
130.7229091591
 31
0.0
  0
CIRCLE
  5
96
  8
0
  6
CONTINUOUS
 62
     7
 10
109.7223484939
 20
132.8425160772
 30
0.0
 40
1.725000000000009
  0
LINE
  5
97
  8
0
  6
CONTINUOUS
 62
     7
 10
102.1624692114
 20
136.617516092
 30
0.0
 11
112.132468905
 21
136.617516092
 31
0.0
  0
LINE
  5
98
  8
0
  6
CONTINUOUS
 62
     7
 10
112.132468905
 20
136.617516092
 30
0.0
 11
112.132468905
 21
134.9621237433
 31
0.0
  0
LINE
  5
99
  8
0
  6
CONTINUOUS
 62
     7
 10
102.1624692114
 20
134.9621237433
 30
0.0
 11
102.1624692114
 21
136.617516092
 31
0.0
  0
LINE
  5
9A
  8
0
  6
CONTINUOUS
 62
     7
 10
112.132468905
 20
129.0675168103
 30
0.0
 11
102.1624692114
 21
129.0675168103
 31
0.0
  0
LINE
  5
9B
  8
0
  6
CONTINUOUS
 62
     7
 10
112.132468905
 20
130.7229091591
 30
0.0
 11
112.132468905
 21
129.0675168103
 31
0.0
  0
LINE
  5
9C
  8
0
  6
CONTINUOUS
 62
     7
 10
102.1624692114
 20
129.0675168103
 30
0.0
 11
102.1624692114
 21
130.7229091591
 31
0.0
  0
LINE
  5
9D
  8
0
  6
CONTINUOUS
 62
     7
 10
102.902113493
 20
132.4122426277
 30
0.0
 11
106.2430651257
 21
132.4122426277
 31
0.0
  0
LINE
  5
9E
  8
0
  6
CONTINUOUS
 62
     7
 10
108.0518728452
 20
132.4122426277
 30
0.0
 11
111.3928242451
 21
132.4122426277
 31
0.0
  0
LINE
  5
9F
  8
0
  6
CONTINUOUS
 62
     7
 10
102.8834237116
 20
133.1922923392
 30
0.0
 11
102.8834237116
 21
132.4927387005
 31
0.0
  0
LINE
  5
A0
  8
0
  6
CONTINUOUS
 62
     7
 10
108.0331825981
 20
133.1922923392
 30
0.0
 11
108.0331825981
 21
132.4927387005
 31
0.0
  0
LINE
  5
A1
  8
0
  6
CONTINUOUS
 62
     7
 10
111.3928242451
 20
133.1922923392
 30
0.0
 11
108.0331825981
 21
133.1922923392
 31
0.0
  0
LINE
  5
A2
  8
0
  6
CONTINUOUS
 62
     7
 10
111.3928242451
 20
132.4122426277
 30
0.0
 11
111.3928242451
 21
133.1922923392
 31
0.0
  0
LINE
  5
A3
  8
0
  6
CONTINUOUS
 62
     7
 10
106.2430651257
 20
133.1922923392
 30
0.0
 11
102.8834237116
 21
133.1922923392
 31
0.0
  0
LINE
  5
A4
  8
0
  6
CONTINUOUS
 62
     7
 10
106.2430651257
 20
132.4122426277
 30
0.0
 11
106.2430651257
 21
133.1922923392
 31
0.0
  0
LINE
  5
A5
  8
0
  6
CONTINUOUS
 62
     7
 10
90.0278613301
 20
166.8275156236
 30
0.0
 11
90.0278613301
 21
156.8575160755
 31
0.0
  0
LINE
  5
A6
  8
0
  6
CONTINUOUS
 62
     7
 10
94.2670759144
 20
156.8575160755
 30
0.0
 11
94.2670759144
 21
166.8275156236
 31
0.0
  0
LINE
  5
A7
  8
0
  6
CONTINUOUS
 62
     7
 10
90.0278613301
 20
156.8575160755
 30
0.0
 11
94.2670759144
 21
156.8575160755
 31
0.0
  0
CIRCLE
  5
A8
  8
0
  6
CONTINUOUS
 62
     7
 10
92.1474689058
 20
159.2676364891
 30
0.0
 40
1.724999999999994
  0
LINE
  5
A9
  8
0
  6
CONTINUOUS
 62
     7
 10
94.2670759144
 20
166.8275156236
 30
0.0
 11
90.0278613301
 21
166.8275156236
 31
0.0
  0
CIRCLE
  5
AA
  8
0
  6
CONTINUOUS
 62
     7
 10
92.1474689058
 20
164.4173956653
 30
0.0
 40
1.724999999999966
  0
LINE
  5
AB
  8
0
  6
CONTINUOUS
 62
     7
 10
90.0278613301
 20
156.8575160755
 30
0.0
 11
88.3724689814
 21
156.8575160755
 31
0.0
  0
LINE
  5
AC
  8
0
  6
CONTINUOUS
 62
     7
 10
88.3724689814
 20
156.8575160755
 30
0.0
 11
88.3724689814
 21
166.8275156236
 31
0.0
  0
LINE
  5
AD
  8
0
  6
CONTINUOUS
 62
     7
 10
88.3724689814
 20
166.8275156236
 30
0.0
 11
90.0278613301
 21
166.8275156236
 31
0.0
  0
LINE
  5
AE
  8
0
  6
CONTINUOUS
 62
     7
 10
95.9224682631
 20
166.8275156236
 30
0.0
 11
95.9224682631
 21
156.8575160755
 31
0.0
  0
LINE
  5
AF
  8
0
  6
CONTINUOUS
 62
     7
 10
95.9224682631
 20
156.8575160755
 30
0.0
 11
94.2670759144
 21
156.8575160755
 31
0.0
  0
LINE
  5
B0
  8
0
  6
CONTINUOUS
 62
     7
 10
94.2670759144
 20
166.8275156236
 30
0.0
 11
95.9224682631
 21
166.8275156236
 31
0.0
  0
LINE
  5
B1
  8
0
  6
CONTINUOUS
 62
     7
 10
92.4972463729
 20
157.5971607645
 30
0.0
 11
92.4972463729
 21
160.9568022369
 31
0.0
  0
LINE
  5
B2
  8
0
  6
CONTINUOUS
 62
     7
 10
91.7171947988
 20
157.5971607645
 30
0.0
 11
92.4972463729
 21
157.5971607645
 31
0.0
  0
LINE
  5
B3
  8
0
  6
CONTINUOUS
 62
     7
 10
91.7171947988
 20
166.087871342
 30
0.0
 11
91.7171947988
 21
162.7469197093
 31
0.0
  0
LINE
  5
B4
  8
0
  6
CONTINUOUS
 62
     7
 10
91.7171947988
 20
162.7469197093
 30
0.0
 11
92.4972463729
 21
162.7469197093
 31
0.0
  0
LINE
  5
B5
  8
0
  6
CONTINUOUS
 62
     7
 10
92.4972463729
 20
162.7469197093
 30
0.0
 11
92.4972463729
 21
166.1065611234
 31
0.0
  0
LINE
  5
B6
  8
0
  6
CONTINUOUS
 62
     7
 10
92.4972463729
 20
166.1065611234
 30
0.0
 11
91.7976927342
 21
166.1065611234
 31
0.0
  0
LINE
  5
B7
  8
0
  6
CONTINUOUS
 62
     7
 10
91.7171947988
 20
160.9381124554
 30
0.0
 11
91.7171947988
 21
157.5971607645
 31
0.0
  0
LINE
  5
B8
  8
0
  6
CONTINUOUS
 62
     7
 10
92.4972463729
 20
160.9568022369
 30
0.0
 11
91.7976927342
 21
160.9568022369
 31
0.0
  0
LINE
  5
B9
  8
0
  6
CONTINUOUS
 62
     7
 10
94.2670759144
 20
136.8575160569
 30
0.0
 11
94.2670759144
 21
146.8275160706
 31
0.0
  0
LINE
  5
BA
  8
0
  6
CONTINUOUS
 62
     7
 10
94.2670759144
 20
146.8275160706
 30
0.0
 11
95.9224682631
 21
146.8275160706
 31
0.0
  0
LINE
  5
BB
  8
0
  6
CONTINUOUS
 62
     7
 10
95.9224682631
 20
146.8275160706
 30
0.0
 11
95.9224682631
 21
136.8575160569
 31
0.0
  0
LINE
  5
BC
  8
0
  6
CONTINUOUS
 62
     7
 10
95.9224682631
 20
136.8575160569
 30
0.0
 11
94.2670759144
 21
136.8575160569
 31
0.0
  0
LINE
  5
BD
  8
0
  6
CONTINUOUS
 62
     7
 10
90.0278613301
 20
146.8275160706
 30
0.0
 11
90.0278613301
 21
136.8575160569
 31
0.0
  0
LINE
  5
BE
  8
0
  6
CONTINUOUS
 62
     7
 10
88.3724689814
 20
136.8575160569
 30
0.0
 11
88.3724689814
 21
146.8275160706
 31
0.0
  0
LINE
  5
BF
  8
0
  6
CONTINUOUS
 62
     7
 10
88.3724689814
 20
146.8275160706
 30
0.0
 11
90.0278613301
 21
146.8275160706
 31
0.0
  0
LINE
  5
C0
  8
0
  6
CONTINUOUS
 62
     7
 10
90.0278613301
 20
136.8575160569
 30
0.0
 11
88.3724689814
 21
136.8575160569
 31
0.0
  0
CIRCLE
  5
C1
  8
0
  6
CONTINUOUS
 62
     7
 10
92.1474689058
 20
139.2676364891
 30
0.0
 40
1.724999999999994
  0
LINE
  5
C2
  8
0
  6
CONTINUOUS
 62
     7
 10
94.2670759144
 20
146.8275160706
 30
0.0
 11
90.0278613301
 21
146.8275160706
 31
0.0
  0
CIRCLE
  5
C3
  8
0
  6
CONTINUOUS
 62
     7
 10
92.1474689058
 20
144.4173956653
 30
0.0
 40
1.724999999999994
  0
LINE
  5
C4
  8
0
  6
CONTINUOUS
 62
     7
 10
90.0278613301
 20
136.8575160569
 30
0.0
 11
94.2670759144
 21
136.8575160569
 31
0.0
  0
LINE
  5
C5
  8
0
  6
CONTINUOUS
 62
     7
 10
92.4972463729
 20
142.7469196907
 30
0.0
 11
92.4972463729
 21
146.1065615705
 31
0.0
  0
LINE
  5
C6
  8
0
  6
CONTINUOUS
 62
     7
 10
91.7171947988
 20
142.7469196907
 30
0.0
 11
92.4972463729
 21
142.7469196907
 31
0.0
  0
LINE
  5
C7
  8
0
  6
CONTINUOUS
 62
     7
 10
92.4972463729
 20
137.5971612698
 30
0.0
 11
92.4972463729
 21
140.9568031496
 31
0.0
  0
LINE
  5
C8
  8
0
  6
CONTINUOUS
 62
     7
 10
91.7171947988
 20
137.5971612698
 30
0.0
 11
92.4972463729
 21
137.5971612698
 31
0.0
  0
LINE
  5
C9
  8
0
  6
CONTINUOUS
 62
     7
 10
91.7171947988
 20
140.9381115055
 30
0.0
 11
91.7171947988
 21
137.5971612698
 31
0.0
  0
LINE
  5
CA
  8
0
  6
CONTINUOUS
 62
     7
 10
91.7171947988
 20
146.087871789
 30
0.0
 11
91.7171947988
 21
142.7469196907
 31
0.0
  0
LINE
  5
CB
  8
0
  6
CONTINUOUS
 62
     7
 10
92.4972463729
 20
146.1065615705
 30
0.0
 11
91.7976927342
 21
146.1065615705
 31
0.0
  0
LINE
  5
CC
  8
0
  6
CONTINUOUS
 62
     7
 10
92.4972463729
 20
140.9568031496
 30
0.0
 11
91.7976927342
 21
140.9568031496
 31
0.0
  0
LINE
  5
CD
  8
0
  6
CONTINUOUS
 62
     7
 10
101.4497690233
 20
147.0547084874
 30
0.0
 11
106.6497695031
 21
147.0547084874
 31
0.0
  0
LINE
  5
CE
  8
0
  6
CONTINUOUS
 62
     7
 10
102.068095501
 20
161.6547083659
 30
0.0
 11
106.0314430254
 21
161.6547083659
 31
0.0
  0
LINE
  5
CF
  8
0
  6
CONTINUOUS
 62
     7
 10
101.4497690233
 20
156.4547084682
 30
0.0
 11
106.6497695031
 21
156.4547084682
 31
0.0
  0
LINE
  5
D0
  8
0
  6
CONTINUOUS
 62
     7
 10
106.0314430254
 20
141.8547089389
 30
0.0
 11
102.068095501
 21
141.8547089389
 31
0.0
  0
LINE
  5
D1
  8
0
  6
CONTINUOUS
 62
     7
 10
101.7891168924
 20
140.8547078436
 30
0.0
 11
101.7891168924
 21
146.4547085753
 31
0.0
  0
LINE
  5
D2
  8
0
  6
CONTINUOUS
 62
     7
 10
101.5379270869
 20
140.8547078436
 30
0.0
 11
101.5379270869
 21
146.4547085753
 31
0.0
  0
LINE
  5
D3
  8
0
  6
CONTINUOUS
 62
     7
 10
101.7891168924
 20
146.4547085753
 30
0.0
 11
101.5379270869
 21
146.4547085753
 31
0.0
  0
LINE
  5
D4
  8
0
  6
CONTINUOUS
 62
     7
 10
101.7891168924
 20
140.8547078436
 30
0.0
 11
101.5379270869
 21
140.8547078436
 31
0.0
  0
LINE
  5
D5
  8
0
  6
CONTINUOUS
 62
     7
 10
106.5616119052
 20
140.8547078436
 30
0.0
 11
106.5616119052
 21
146.4547085753
 31
0.0
  0
LINE
  5
D6
  8
0
  6
CONTINUOUS
 62
     7
 10
106.3104220996
 20
140.8547078436
 30
0.0
 11
106.3104220996
 21
146.4547085753
 31
0.0
  0
LINE
  5
D7
  8
0
  6
CONTINUOUS
 62
     7
 10
106.5616119052
 20
146.4547085753
 30
0.0
 11
106.3104220996
 21
146.4547085753
 31
0.0
  0
LINE
  5
D8
  8
0
  6
CONTINUOUS
 62
     7
 10
106.5616119052
 20
140.8547078436
 30
0.0
 11
106.3104220996
 21
140.8547078436
 31
0.0
  0
LINE
  5
D9
  8
0
  6
CONTINUOUS
 62
     7
 10
101.4426257791
 20
140.8547078436
 30
0.0
 11
101.4426257791
 21
146.4547085753
 31
0.0
  0
LINE
  5
DA
  8
0
  6
CONTINUOUS
 62
     7
 10
101.5379270869
 20
146.4547085753
 30
0.0
 11
101.4426257791
 21
146.4547085753
 31
0.0
  0
LINE
  5
DB
  8
0
  6
CONTINUOUS
 62
     7
 10
101.5379270869
 20
140.8547078436
 30
0.0
 11
101.4426257791
 21
140.8547078436
 31
0.0
  0
LINE
  5
DC
  8
0
  6
CONTINUOUS
 62
     7
 10
106.6569127473
 20
140.8547078436
 30
0.0
 11
106.6569127473
 21
146.4547085753
 31
0.0
  0
LINE
  5
DD
  8
0
  6
CONTINUOUS
 62
     7
 10
106.6569127473
 20
146.4547085753
 30
0.0
 11
106.5616119052
 21
146.4547085753
 31
0.0
  0
LINE
  5
DE
  8
0
  6
CONTINUOUS
 62
     7
 10
106.6569127473
 20
140.8547078436
 30
0.0
 11
106.5616119052
 21
140.8547078436
 31
0.0
  0
LINE
  5
DF
  8
0
  6
CONTINUOUS
 62
     7
 10
106.7963252174
 20
146.4547085753
 30
0.0
 11
106.6569127473
 21
146.4547085753
 31
0.0
  0
LINE
  5
E0
  8
0
  6
CONTINUOUS
 62
     7
 10
106.7963252174
 20
140.8547078436
 30
0.0
 11
106.6569127473
 21
140.8547078436
 31
0.0
  0
LINE
  5
E1
  8
0
  6
CONTINUOUS
 62
     7
 10
101.4426257791
 20
146.4547085753
 30
0.0
 11
101.303213309
 21
146.4547085753
 31
0.0
  0
LINE
  5
E2
  8
0
  6
CONTINUOUS
 62
     7
 10
101.4426257791
 20
140.8547078436
 30
0.0
 11
101.303213309
 21
140.8547078436
 31
0.0
  0
LINE
  5
E3
  8
0
  6
CONTINUOUS
 62
     7
 10
106.0643359418
 20
140.8547078436
 30
0.0
 11
106.0643359418
 21
146.4547085753
 31
0.0
  0
LINE
  5
E4
  8
0
  6
CONTINUOUS
 62
     7
 10
106.3104220996
 20
146.4547085753
 30
0.0
 11
106.0643359418
 21
146.4547085753
 31
0.0
  0
LINE
  5
E5
  8
0
  6
CONTINUOUS
 62
     7
 10
106.3104220996
 20
140.8547078436
 30
0.0
 11
106.0643359418
 21
140.8547078436
 31
0.0
  0
LINE
  5
E6
  8
0
  6
CONTINUOUS
 62
     7
 10
102.0352030503
 20
140.8547078436
 30
0.0
 11
102.0352030503
 21
146.4547085753
 31
0.0
  0
LINE
  5
E7
  8
0
  6
CONTINUOUS
 62
     7
 10
102.0352030503
 20
146.4547085753
 30
0.0
 11
101.7891168924
 21
146.4547085753
 31
0.0
  0
LINE
  5
E8
  8
0
  6
CONTINUOUS
 62
     7
 10
102.0352030503
 20
140.8547078436
 30
0.0
 11
101.7891168924
 21
140.8547078436
 31
0.0
  0
LINE
  5
E9
  8
0
  6
CONTINUOUS
 62
     7
 10
102.068095501
 20
146.4547085753
 30
0.0
 11
102.0352030503
 21
146.4547085753
 31
0.0
  0
LINE
  5
EA
  8
0
  6
CONTINUOUS
 62
     7
 10
102.068095501
 20
140.8547078436
 30
0.0
 11
102.0352030503
 21
140.8547078436
 31
0.0
  0
LINE
  5
EB
  8
0
  6
CONTINUOUS
 62
     7
 10
106.0643359418
 20
146.4547085753
 30
0.0
 11
106.0314430254
 21
146.4547085753
 31
0.0
  0
LINE
  5
EC
  8
0
  6
CONTINUOUS
 62
     7
 10
106.0643359418
 20
140.8547078436
 30
0.0
 11
106.0314430254
 21
140.8547078436
 31
0.0
  0
LINE
  5
ED
  8
0
  6
CONTINUOUS
 62
     7
 10
101.303213309
 20
146.4547085753
 30
0.0
 11
100.9497689413
 21
146.4547085753
 31
0.0
  0
LINE
  5
EE
  8
0
  6
CONTINUOUS
 62
     7
 10
101.303213309
 20
140.8547078436
 30
0.0
 11
100.9497689413
 21
140.8547078436
 31
0.0
  0
LINE
  5
EF
  8
0
  6
CONTINUOUS
 62
     7
 10
107.1497695851
 20
146.4547085753
 30
0.0
 11
106.7963252174
 21
146.4547085753
 31
0.0
  0
LINE
  5
F0
  8
0
  6
CONTINUOUS
 62
     7
 10
107.1497695851
 20
140.8547078436
 30
0.0
 11
106.7963252174
 21
140.8547078436
 31
0.0
  0
LINE
  5
F1
  8
0
  6
CONTINUOUS
 62
     7
 10
106.0314430254
 20
140.8547078436
 30
0.0
 11
105.9815786178
 21
140.8547078436
 31
0.0
  0
LINE
  5
F2
  8
0
  6
CONTINUOUS
 62
     7
 10
102.1179603743
 20
140.8547078436
 30
0.0
 11
102.068095501
 21
140.8547078436
 31
0.0
  0
LINE
  5
F3
  8
0
  6
CONTINUOUS
 62
     7
 10
102.1511797192
 20
140.8547078436
 30
0.0
 11
102.1179603743
 21
140.8547078436
 31
0.0
  0
LINE
  5
F4
  8
0
  6
CONTINUOUS
 62
     7
 10
105.9815786178
 20
140.8547078436
 30
0.0
 11
105.9511797833
 21
140.8547078436
 31
0.0
  0
LINE
  5
F5
  8
0
  6
CONTINUOUS
 62
     7
 10
105.7853573332
 20
140.354708693
 30
0.0
 11
102.3141816589
 21
140.354708693
 31
0.0
  0
LINE
  5
F6
  8
0
  6
CONTINUOUS
 62
     7
 10
102.3141816589
 20
140.354708693
 30
0.0
 11
102.3141816589
 21
140.7547080135
 31
0.0
  0
LINE
  5
F7
  8
0
  6
CONTINUOUS
 62
     7
 10
102.3141816589
 20
140.7547080135
 30
0.0
 11
105.7853573332
 21
140.7547080135
 31
0.0
  0
LINE
  5
F8
  8
0
  6
CONTINUOUS
 62
     7
 10
105.7853573332
 20
140.7547080135
 30
0.0
 11
105.7853573332
 21
140.354708693
 31
0.0
  0
LINE
  5
F9
  8
0
  6
CONTINUOUS
 62
     7
 10
105.7853573332
 20
140.7547080135
 30
0.0
 11
105.7853573332
 21
140.8547078436
 31
0.0
  0
LINE
  5
FA
  8
0
  6
CONTINUOUS
 62
     7
 10
102.3141816589
 20
140.7547080135
 30
0.0
 11
102.3141816589
 21
140.8547078436
 31
0.0
  0
LINE
  5
FB
  8
0
  6
CONTINUOUS
 62
     7
 10
101.5379270869
 20
162.8547086558
 30
0.0
 11
101.5379270869
 21
157.2547085062
 31
0.0
  0
LINE
  5
FC
  8
0
  6
CONTINUOUS
 62
     7
 10
101.5379270869
 20
162.8547086558
 30
0.0
 11
101.7891168924
 21
162.8547086558
 31
0.0
  0
LINE
  5
FD
  8
0
  6
CONTINUOUS
 62
     7
 10
101.7891168924
 20
162.8547086558
 30
0.0
 11
101.7891168924
 21
157.2547085062
 31
0.0
  0
LINE
  5
FE
  8
0
  6
CONTINUOUS
 62
     7
 10
101.5379270869
 20
157.2547085062
 30
0.0
 11
101.7891168924
 21
157.2547085062
 31
0.0
  0
LINE
  5
FF
  8
0
  6
CONTINUOUS
 62
     7
 10
106.3104220996
 20
162.8547086558
 30
0.0
 11
106.3104220996
 21
157.2547085062
 31
0.0
  0
LINE
  5
100
  8
0
  6
CONTINUOUS
 62
     7
 10
106.3104220996
 20
162.8547086558
 30
0.0
 11
106.5616119052
 21
162.8547086558
 31
0.0
  0
LINE
  5
101
  8
0
  6
CONTINUOUS
 62
     7
 10
106.5616119052
 20
162.8547086558
 30
0.0
 11
106.5616119052
 21
157.2547085062
 31
0.0
  0
LINE
  5
102
  8
0
  6
CONTINUOUS
 62
     7
 10
106.3104220996
 20
157.2547085062
 30
0.0
 11
106.5616119052
 21
157.2547085062
 31
0.0
  0
LINE
  5
103
  8
0
  6
CONTINUOUS
 62
     7
 10
106.6569127473
 20
162.8547086558
 30
0.0
 11
106.6569127473
 21
157.2547085062
 31
0.0
  0
LINE
  5
104
  8
0
  6
CONTINUOUS
 62
     7
 10
106.5616119052
 20
157.2547085062
 30
0.0
 11
106.6569127473
 21
157.2547085062
 31
0.0
  0
LINE
  5
105
  8
0
  6
CONTINUOUS
 62
     7
 10
106.5616119052
 20
162.8547086558
 30
0.0
 11
106.6569127473
 21
162.8547086558
 31
0.0
  0
LINE
  5
106
  8
0
  6
CONTINUOUS
 62
     7
 10
101.4426257791
 20
162.8547086558
 30
0.0
 11
101.4426257791
 21
157.2547085062
 31
0.0
  0
LINE
  5
107
  8
0
  6
CONTINUOUS
 62
     7
 10
101.4426257791
 20
157.2547085062
 30
0.0
 11
101.5379270869
 21
157.2547085062
 31
0.0
  0
LINE
  5
108
  8
0
  6
CONTINUOUS
 62
     7
 10
101.4426257791
 20
162.8547086558
 30
0.0
 11
101.5379270869
 21
162.8547086558
 31
0.0
  0
LINE
  5
109
  8
0
  6
CONTINUOUS
 62
     7
 10
106.6569127473
 20
157.2547085062
 30
0.0
 11
106.7963252174
 21
157.2547085062
 31
0.0
  0
LINE
  5
10A
  8
0
  6
CONTINUOUS
 62
     7
 10
106.6569127473
 20
162.8547086558
 30
0.0
 11
106.7963252174
 21
162.8547086558
 31
0.0
  0
LINE
  5
10B
  8
0
  6
CONTINUOUS
 62
     7
 10
101.303213309
 20
157.2547085062
 30
0.0
 11
101.4426257791
 21
157.2547085062
 31
0.0
  0
LINE
  5
10C
  8
0
  6
CONTINUOUS
 62
     7
 10
101.303213309
 20
162.8547086558
 30
0.0
 11
101.4426257791
 21
162.8547086558
 31
0.0
  0
LINE
  5
10D
  8
0
  6
CONTINUOUS
 62
     7
 10
102.0352030503
 20
162.8547086558
 30
0.0
 11
102.0352030503
 21
157.2547085062
 31
0.0
  0
LINE
  5
10E
  8
0
  6
CONTINUOUS
 62
     7
 10
101.7891168924
 20
157.2547085062
 30
0.0
 11
102.0352030503
 21
157.2547085062
 31
0.0
  0
LINE
  5
10F
  8
0
  6
CONTINUOUS
 62
     7
 10
101.7891168924
 20
162.8547086558
 30
0.0
 11
102.0352030503
 21
162.8547086558
 31
0.0
  0
LINE
  5
110
  8
0
  6
CONTINUOUS
 62
     7
 10
106.0643359418
 20
162.8547086558
 30
0.0
 11
106.0643359418
 21
157.2547085062
 31
0.0
  0
LINE
  5
111
  8
0
  6
CONTINUOUS
 62
     7
 10
106.0643359418
 20
157.2547085062
 30
0.0
 11
106.3104220996
 21
157.2547085062
 31
0.0
  0
LINE
  5
112
  8
0
  6
CONTINUOUS
 62
     7
 10
106.0643359418
 20
162.8547086558
 30
0.0
 11
106.3104220996
 21
162.8547086558
 31
0.0
  0
LINE
  5
113
  8
0
  6
CONTINUOUS
 62
     7
 10
106.0314430254
 20
157.2547085062
 30
0.0
 11
106.0643359418
 21
157.2547085062
 31
0.0
  0
LINE
  5
114
  8
0
  6
CONTINUOUS
 62
     7
 10
106.0314430254
 20
162.8547086558
 30
0.0
 11
106.0643359418
 21
162.8547086558
 31
0.0
  0
LINE
  5
115
  8
0
  6
CONTINUOUS
 62
     7
 10
102.0352030503
 20
157.2547085062
 30
0.0
 11
102.068095501
 21
157.2547085062
 31
0.0
  0
LINE
  5
116
  8
0
  6
CONTINUOUS
 62
     7
 10
102.0352030503
 20
162.8547086558
 30
0.0
 11
102.068095501
 21
162.8547086558
 31
0.0
  0
LINE
  5
117
  8
0
  6
CONTINUOUS
 62
     7
 10
106.7963252174
 20
157.2547085062
 30
0.0
 11
107.1497695851
 21
157.2547085062
 31
0.0
  0
LINE
  5
118
  8
0
  6
CONTINUOUS
 62
     7
 10
106.7963252174
 20
162.8547086558
 30
0.0
 11
107.1497695851
 21
162.8547086558
 31
0.0
  0
LINE
  5
119
  8
0
  6
CONTINUOUS
 62
     7
 10
100.9497689413
 20
157.2547085062
 30
0.0
 11
101.303213309
 21
157.2547085062
 31
0.0
  0
LINE
  5
11A
  8
0
  6
CONTINUOUS
 62
     7
 10
100.9497689413
 20
162.8547086558
 30
0.0
 11
101.303213309
 21
162.8547086558
 31
0.0
  0
LINE
  5
11B
  8
0
  6
CONTINUOUS
 62
     7
 10
102.068095501
 20
162.8547086558
 30
0.0
 11
102.1179603743
 21
162.8547086558
 31
0.0
  0
LINE
  5
11C
  8
0
  6
CONTINUOUS
 62
     7
 10
105.9815786178
 20
162.8547086558
 30
0.0
 11
106.0314430254
 21
162.8547086558
 31
0.0
  0
LINE
  5
11D
  8
0
  6
CONTINUOUS
 62
     7
 10
102.1179603743
 20
162.8547086558
 30
0.0
 11
102.1511797192
 21
162.8547086558
 31
0.0
  0
LINE
  5
11E
  8
0
  6
CONTINUOUS
 62
     7
 10
105.9511797833
 20
162.8547086558
 30
0.0
 11
105.9815786178
 21
162.8547086558
 31
0.0
  0
LINE
  5
11F
  8
0
  6
CONTINUOUS
 62
     7
 10
102.3141816589
 20
163.3547082721
 30
0.0
 11
105.7853573332
 21
163.3547082721
 31
0.0
  0
LINE
  5
120
  8
0
  6
CONTINUOUS
 62
     7
 10
105.7853573332
 20
162.9547084859
 30
0.0
 11
102.3141816589
 21
162.9547084859
 31
0.0
  0
LINE
  5
121
  8
0
  6
CONTINUOUS
 62
     7
 10
102.3141816589
 20
162.9547084859
 30
0.0
 11
102.3141816589
 21
163.3547082721
 31
0.0
  0
LINE
  5
122
  8
0
  6
CONTINUOUS
 62
     7
 10
105.7853573332
 20
163.3547082721
 30
0.0
 11
105.7853573332
 21
162.9547084859
 31
0.0
  0
LINE
  5
123
  8
0
  6
CONTINUOUS
 62
     7
 10
102.3141816589
 20
162.9547084859
 30
0.0
 11
102.3141816589
 21
162.8547086558
 31
0.0
  0
LINE
  5
124
  8
0
  6
CONTINUOUS
 62
     7
 10
105.7853573332
 20
162.9547084859
 30
0.0
 11
105.7853573332
 21
162.8547086558
 31
0.0
  0
LINE
  5
125
  8
0
  6
CONTINUOUS
 62
     7
 10
105.2294923323
 20
140.8547078436
 30
0.0
 11
105.2294923323
 21
141.8547089389
 31
0.0
  0
LINE
  5
126
  8
0
  6
CONTINUOUS
 62
     7
 10
102.8728681015
 20
141.8547089389
 30
0.0
 11
102.8728681015
 21
140.8547078436
 31
0.0
  0
LINE
  5
127
  8
0
  6
CONTINUOUS
 62
     7
 10
105.2294923323
 20
140.8547078436
 30
0.0
 11
102.8728681015
 21
140.8547078436
 31
0.0
  0
LINE
  5
128
  8
0
  6
CONTINUOUS
 62
     7
 10
102.1511797192
 20
140.8547078436
 30
0.0
 11
102.1511797192
 21
141.8547089389
 31
0.0
  0
LINE
  5
129
  8
0
  6
CONTINUOUS
 62
     7
 10
102.8728681015
 20
140.8547078436
 30
0.0
 11
102.1511797192
 21
140.8547078436
 31
0.0
  0
LINE
  5
12A
  8
0
  6
CONTINUOUS
 62
     7
 10
105.2294923323
 20
161.6547083659
 30
0.0
 11
105.2294923323
 21
162.8547086558
 31
0.0
  0
LINE
  5
12B
  8
0
  6
CONTINUOUS
 62
     7
 10
102.8728681015
 20
162.8547086558
 30
0.0
 11
102.8728681015
 21
161.6547083659
 31
0.0
  0
LINE
  5
12C
  8
0
  6
CONTINUOUS
 62
     7
 10
105.2294923323
 20
162.8547086558
 30
0.0
 11
102.8728681015
 21
162.8547086558
 31
0.0
  0
LINE
  5
12D
  8
0
  6
CONTINUOUS
 62
     7
 10
102.1511797192
 20
161.6547083659
 30
0.0
 11
102.1511797192
 21
162.8547086558
 31
0.0
  0
LINE
  5
12E
  8
0
  6
CONTINUOUS
 62
     7
 10
102.1511797192
 20
162.8547086558
 30
0.0
 11
102.8728681015
 21
162.8547086558
 31
0.0
  0
LINE
  5
12F
  8
0
  6
CONTINUOUS
 62
     7
 10
105.9511797833
 20
141.8547089389
 30
0.0
 11
105.9511797833
 21
140.8547078436
 31
0.0
  0
LINE
  5
130
  8
0
  6
CONTINUOUS
 62
     7
 10
105.9511797833
 20
140.8547078436
 30
0.0
 11
105.2294923323
 21
140.8547078436
 31
0.0
  0
LINE
  5
131
  8
0
  6
CONTINUOUS
 62
     7
 10
105.9511797833
 20
162.8547086558
 30
0.0
 11
105.9511797833
 21
161.6547083659
 31
0.0
  0
LINE
  5
132
  8
0
  6
CONTINUOUS
 62
     7
 10
105.2294923323
 20
162.8547086558
 30
0.0
 11
105.9511797833
 21
162.8547086558
 31
0.0
  0
LINE
  5
133
  8
0
  6
CONTINUOUS
 62
     7
 10
100.9497689413
 20
140.8547078436
 30
0.0
 11
99.7511800709
 21
140.8547078436
 31
0.0
  0
LINE
  5
134
  8
0
  6
CONTINUOUS
 62
     7
 10
99.7511800709
 20
140.8547078436
 30
0.0
 11
99.7511800709
 21
162.8547086558
 31
0.0
  0
LINE
  5
135
  8
0
  6
CONTINUOUS
 62
     7
 10
100.9497689413
 20
162.8547086558
 30
0.0
 11
99.7511800709
 21
162.8547086558
 31
0.0
  0
LINE
  5
136
  8
0
  6
CONTINUOUS
 62
     7
 10
100.4511798131
 20
155.6547085466
 30
0.0
 11
100.4511798131
 21
148.0547086513
 31
0.0
  0
LINE
  5
137
  8
0
  6
CONTINUOUS
 62
     7
 10
100.4511798131
 20
148.0547086513
 30
0.0
 11
101.5497697847
 21
148.0547086513
 31
0.0
  0
LINE
  5
138
  8
0
  6
CONTINUOUS
 62
     7
 10
101.5497697847
 20
155.6547085466
 30
0.0
 11
100.4511798131
 21
155.6547085466
 31
0.0
  0
LINE
  5
139
  8
0
  6
CONTINUOUS
 62
     7
 10
108.3511798973
 20
140.8547078436
 30
0.0
 11
108.3511798973
 21
162.8547086558
 31
0.0
  0
LINE
  5
13A
  8
0
  6
CONTINUOUS
 62
     7
 10
108.3511798973
 20
162.8547086558
 30
0.0
 11
107.1497695851
 21
162.8547086558
 31
0.0
  0
LINE
  5
13B
  8
0
  6
CONTINUOUS
 62
     7
 10
107.6511801551
 20
148.0547086513
 30
0.0
 11
107.6511801551
 21
155.6547085466
 31
0.0
  0
LINE
  5
13C
  8
0
  6
CONTINUOUS
 62
     7
 10
108.3511798973
 20
140.8547078436
 30
0.0
 11
107.1497695851
 21
140.8547078436
 31
0.0
  0
LINE
  5
13D
  8
0
  6
CONTINUOUS
 62
     7
 10
106.5497692073
 20
148.0547086513
 30
0.0
 11
107.6511801551
 21
148.0547086513
 31
0.0
  0
LINE
  5
13E
  8
0
  6
CONTINUOUS
 62
     7
 10
107.6511801551
 20
155.6547085466
 30
0.0
 11
106.5497692073
 21
155.6547085466
 31
0.0
  0
LINE
  5
13F
  8
0
  6
CONTINUOUS
 62
     7
 10
122.445168938
 20
158.3448161083
 30
0.0
 11
121.4451687741
 21
158.3448161083
 31
0.0
  0
LINE
  5
140
  8
0
  6
CONTINUOUS
 62
     7
 10
122.445168938
 20
153.0448160311
 30
0.0
 11
122.445168938
 21
158.3448161083
 31
0.0
  0
LINE
  5
141
  8
0
  6
CONTINUOUS
 62
     7
 10
121.4451687741
 20
153.0448160311
 30
0.0
 11
121.4451687741
 21
158.3448161083
 31
0.0
  0
ARC
  5
142
  8
0
  6
CONTINUOUS
 62
     7
 10
117.4451689058
 20
157.1148160772
 30
0.0
 40
0.4000000000000057
 50
90.0
 51
270.0
  0
ARC
  5
143
  8
0
  6
CONTINUOUS
 62
     7
 10
117.4451689058
 20
154.5748160772
 30
0.0
 40
0.4000000000000341
 50
90.0
 51
270.0
  0
LINE
  5
144
  8
0
  6
CONTINUOUS
 62
     7
 10
107.8965133386
 20
165.3611594057
 30
0.0
 11
117.1465134578
 21
165.3611594057
 31
0.0
  0
LINE
  5
145
  8
0
  6
CONTINUOUS
 62
     7
 10
107.8965133386
 20
165.3611594057
 30
0.0
 11
107.8965133386
 21
174.3611590183
 31
0.0
  0
LINE
  5
146
  8
0
  6
CONTINUOUS
 62
     7
 10
107.8965133386
 20
174.3611590183
 30
0.0
 11
117.1465134578
 21
174.3611590183
 31
0.0
  0
LINE
  5
147
  8
0
  6
CONTINUOUS
 62
     7
 10
119.8465135279
 20
174.3611590183
 30
0.0
 11
119.8465135279
 21
165.3611594057
 31
0.0
  0
LINE
  5
148
  8
0
  6
CONTINUOUS
 62
     7
 10
119.8465135279
 20
165.3611594057
 30
0.0
 11
117.1465134578
 21
165.3611594057
 31
0.0
  0
LINE
  5
149
  8
0
  6
CONTINUOUS
 62
     7
 10
117.1465134578
 20
174.3611590183
 30
0.0
 11
117.1465134578
 21
169.861159212
 31
0.0
  0
LINE
  5
14A
  8
0
  6
CONTINUOUS
 62
     7
 10
117.1465134578
 20
169.861159212
 30
0.0
 11
117.1465134578
 21
165.3611594057
 31
0.0
  0
LINE
  5
14B
  8
0
  6
CONTINUOUS
 62
     7
 10
119.8465135279
 20
174.3611590183
 30
0.0
 11
117.1465134578
 21
174.3611590183
 31
0.0
  0
LINE
  5
14C
  8
0
  6
CONTINUOUS
 62
     7
 10
106.1465135174
 20
165.3711636728
 30
0.0
 11
107.8965133386
 21
165.3711636728
 31
0.0
  0
LINE
  5
14D
  8
0
  6
CONTINUOUS
 62
     7
 10
106.1465135174
 20
174.3511603391
 30
0.0
 11
107.8965133386
 21
174.3511603391
 31
0.0
  0
LINE
  5
14E
  8
0
  6
CONTINUOUS
 62
     7
 10
106.1465135174
 20
165.3711636728
 30
0.0
 11
106.1465135174
 21
174.3511603391
 31
0.0
  0
LINE
  5
14F
  8
0
  6
CONTINUOUS
 62
     7
 10
105.7465137313
 20
168.3611598974
 30
0.0
 11
106.1465135174
 21
168.3611598974
 31
0.0
  0
LINE
  5
150
  8
0
  6
CONTINUOUS
 62
     7
 10
105.7465137313
 20
168.3611598974
 30
0.0
 11
105.7465137313
 21
171.3611594578
 31
0.0
  0
LINE
  5
151
  8
0
  6
CONTINUOUS
 62
     7
 10
105.7465137313
 20
171.3611594578
 30
0.0
 11
106.1465135174
 21
171.3611594578
 31
0.0
  0
LINE
  5
152
  8
0
  6
CONTINUOUS
 62
     7
 10
105.7465137313
 20
172.3611596218
 30
0.0
 11
106.1465135174
 21
172.3611596218
 31
0.0
  0
LINE
  5
153
  8
0
  6
CONTINUOUS
 62
     7
 10
105.7465137313
 20
171.3611594578
 30
0.0
 11
105.7465137313
 21
172.3611596218
 31
0.0
  0
LINE
  5
154
  8
0
  6
CONTINUOUS
 62
     7
 10
105.7465137313
 20
167.3611597335
 30
0.0
 11
106.1465135174
 21
167.3611597335
 31
0.0
  0
LINE
  5
155
  8
0
  6
CONTINUOUS
 62
     7
 10
105.7465137313
 20
167.3611597335
 30
0.0
 11
105.7465137313
 21
168.3611598974
 31
0.0
  0
LINE
  5
156
  8
0
  6
CONTINUOUS
 62
     7
 10
106.1465135174
 20
165.3711562222
 30
0.0
 11
107.8965133386
 21
165.3711562222
 31
0.0
  0
LINE
  5
157
  8
0
  6
CONTINUOUS
 62
     7
 10
110.1465134746
 20
175.0611596918
 30
0.0
 11
110.1465134746
 21
174.3611590183
 31
0.0
  0
LINE
  5
158
  8
0
  6
CONTINUOUS
 62
     7
 10
108.1465133796
 20
175.0611596918
 30
0.0
 11
108.1465133796
 21
174.3611590183
 31
0.0
  0
LINE
  5
159
  8
0
  6
CONTINUOUS
 62
     7
 10
108.1465133796
 20
175.0611596918
 30
0.0
 11
110.1465134746
 21
175.0611596918
 31
0.0
  0
LINE
  5
15A
  8
0
  6
CONTINUOUS
 62
     7
 10
115.0965134478
 20
164.6757027311
 30
0.0
 11
115.0965134478
 21
165.3611594057
 31
0.0
  0
LINE
  5
15B
  8
0
  6
CONTINUOUS
 62
     7
 10
117.3465135837
 20
164.6757027311
 30
0.0
 11
117.3465135837
 21
165.3611594057
 31
0.0
  0
LINE
  5
15C
  8
0
  6
CONTINUOUS
 62
     7
 10
117.3465135837
 20
164.6757027311
 30
0.0
 11
115.0965134478
 21
164.6757027311
 31
0.0
  0
LINE
  5
15D
  8
0
  6
CONTINUOUS
 62
     7
 10
116.4177563372
 20
141.8555424726
 30
0.0
 11
116.4177563372
 21
145.8555421969
 31
0.0
  0
LINE
  5
15E
  8
0
  6
CONTINUOUS
 62
     7
 10
115.2177562802
 20
145.8555421969
 30
0.0
 11
115.2177562802
 21
141.8555424726
 31
0.0
  0
LINE
  5
15F
  8
0
  6
CONTINUOUS
 62
     7
 10
115.2177562802
 20
141.8555424726
 30
0.0
 11
116.4177563372
 21
141.8555424726
 31
0.0
  0
LINE
  5
160
  8
0
  6
CONTINUOUS
 62
     7
 10
114.2177562327
 20
142.0155418283
 30
0.0
 11
115.3177561103
 21
140.9155418342
 31
0.0
  0
LINE
  5
161
  8
0
  6
CONTINUOUS
 62
     7
 10
115.3177561103
 20
146.795541904
 30
0.0
 11
114.2177562327
 21
145.6955419099
 31
0.0
  0
LINE
  5
162
  8
0
  6
CONTINUOUS
 62
     7
 10
121.0177559736
 20
146.795541904
 30
0.0
 11
121.0177559736
 21
140.9155418342
 31
0.0
  0
LINE
  5
163
  8
0
  6
CONTINUOUS
 62
     7
 10
115.3177561103
 20
140.9155418342
 30
0.0
 11
121.0177559736
 21
140.9155418342
 31
0.0
  0
LINE
  5
164
  8
0
  6
CONTINUOUS
 62
     7
 10
115.3177561103
 20
146.795541904
 30
0.0
 11
121.0177559736
 21
146.795541904
 31
0.0
  0
LINE
  5
165
  8
0
  6
CONTINUOUS
 62
     7
 10
114.2177562327
 20
145.6955419099
 30
0.0
 11
114.2177562327
 21
142.0155418283
 31
0.0
  0
LINE
  5
166
  8
0
  6
CONTINUOUS
 62
     7
 10
116.4177563372
 20
145.8555421969
 30
0.0
 11
115.2177562802
 21
145.8555421969
 31
0.0
  0
LINE
  5
167
  8
0
  6
CONTINUOUS
 62
     7
 10
120.5177558916
 20
139.8555421448
 30
0.0
 11
120.5177558916
 21
140.9155418342
 31
0.0
  0
LINE
  5
168
  8
0
  6
CONTINUOUS
 62
     7
 10
112.5177561737
 20
139.8555421448
 30
0.0
 11
120.5177558916
 21
139.8555421448
 31
0.0
  0
LINE
  5
169
  8
0
  6
CONTINUOUS
 62
     7
 10
112.5177561737
 20
140.8555423087
 30
0.0
 11
112.5177561737
 21
139.8555421448
 31
0.0
  0
LINE
  5
16A
  8
0
  6
CONTINUOUS
 62
     7
 10
113.7177561507
 20
140.8555423087
 30
0.0
 11
112.5177561737
 21
140.8555423087
 31
0.0
  0
LINE
  5
16B
  8
0
  6
CONTINUOUS
 62
     7
 10
113.7177561507
 20
146.8555423608
 30
0.0
 11
113.7177561507
 21
140.8555423087
 31
0.0
  0
LINE
  5
16C
  8
0
  6
CONTINUOUS
 62
     7
 10
112.5177561737
 20
146.8555423608
 30
0.0
 11
113.7177561507
 21
146.8555423608
 31
0.0
  0
LINE
  5
16D
  8
0
  6
CONTINUOUS
 62
     7
 10
112.5177561737
 20
147.8555425247
 30
0.0
 11
112.5177561737
 21
146.8555423608
 31
0.0
  0
LINE
  5
16E
  8
0
  6
CONTINUOUS
 62
     7
 10
120.5177558916
 20
147.8555425247
 30
0.0
 11
112.5177561737
 21
147.8555425247
 31
0.0
  0
LINE
  5
16F
  8
0
  6
CONTINUOUS
 62
     7
 10
120.5177558916
 20
146.795541904
 30
0.0
 11
120.5177558916
 21
147.8555425247
 31
0.0
  0
LINE
  5
170
  8
0
  6
CONTINUOUS
 62
     7
 10
127.0177560257
 20
146.2055425337
 30
0.0
 11
127.0177560257
 21
141.5055421358
 31
0.0
  0
LINE
  5
171
  8
0
  6
CONTINUOUS
 62
     7
 10
111.2177562066
 20
146.6455421588
 30
0.0
 11
111.2177562066
 21
146.1455420768
 31
0.0
  0
LINE
  5
172
  8
0
  6
CONTINUOUS
 62
     7
 10
111.2177562066
 20
146.1455420768
 30
0.0
 11
113.7177561507
 21
146.1455420768
 31
0.0
  0
LINE
  5
173
  8
0
  6
CONTINUOUS
 62
     7
 10
111.2177562066
 20
146.6455421588
 30
0.0
 11
113.7177561507
 21
146.6455421588
 31
0.0
  0
LINE
  5
174
  8
0
  6
CONTINUOUS
 62
     7
 10
111.2177562066
 20
144.1055423757
 30
0.0
 11
111.2177562066
 21
143.6055422938
 31
0.0
  0
LINE
  5
175
  8
0
  6
CONTINUOUS
 62
     7
 10
111.2177562066
 20
144.1055423757
 30
0.0
 11
113.7177561507
 21
144.1055423757
 31
0.0
  0
LINE
  5
176
  8
0
  6
CONTINUOUS
 62
     7
 10
111.2177562066
 20
143.6055422938
 30
0.0
 11
113.7177561507
 21
143.6055422938
 31
0.0
  0
LINE
  5
177
  8
0
  6
CONTINUOUS
 62
     7
 10
111.2177562066
 20
141.5655425927
 30
0.0
 11
113.7177561507
 21
141.5655425927
 31
0.0
  0
LINE
  5
178
  8
0
  6
CONTINUOUS
 62
     7
 10
111.2177562066
 20
141.0655425107
 30
0.0
 11
113.7177561507
 21
141.0655425107
 31
0.0
  0
LINE
  5
179
  8
0
  6
CONTINUOUS
 62
     7
 10
111.2177562066
 20
141.5655425927
 30
0.0
 11
111.2177562066
 21
141.0655425107
 31
0.0
  0
LINE
  5
17A
  8
0
  6
CONTINUOUS
 62
     7
 10
132.017755914
 20
143.9555426305
 30
0.0
 11
132.017755914
 21
143.755542039
 31
0.0
  0
CIRCLE
  5
17B
  8
0
  6
CONTINUOUS
 62
     7
 10
99.3468689058
 20
134.0145160772
 30
0.0
 40
0.5
  0
ARC
  5
17C
  8
0
  6
CONTINUOUS
 62
     7
 10
112.2079689058
 20
141.3025160772
 30
0.0
 40
0.4999999999999962
 50
31.7391125085
 51
148.2608874915
  0
ARC
  5
17D
  8
0
  6
CONTINUOUS
 62
     7
 10
112.2079689058
 20
141.3025160772
 30
0.0
 40
0.5000000000000145
 50
208.2908551474
 51
331.7091448526
  0
CIRCLE
  5
17E
  8
0
  6
CONTINUOUS
 62
     7
 10
100.8474689058
 20
166.1425160772
 30
0.0
 40
0.3999999999999915
  0
CIRCLE
  5
17F
  8
0
  6
CONTINUOUS
 62
     7
 10
113.4474689058
 20
158.0725160772
 30
0.0
 40
1.0
  0
CIRCLE
  5
180
  8
0
  6
CONTINUOUS
 62
     7
 10
110.9474689058
 20
160.6125160772
 30
0.0
 40
0.6000000000000085
  0
ARC
  5
181
  8
0
  6
CONTINUOUS
 62
     7
 10
96.0474689058
 20
138.3025160772
 30
0.0
 40
0.5
 50
0.0
 51
104.4775121859
  0
ARC
  5
182
  8
0
  6
CONTINUOUS
 62
     7
 10
96.0474689058
 20
138.3025160772
 30
0.0
 40
0.5000000000000193
 50
255.5224878141
 51
0.0
  0
CIRCLE
  5
183
  8
0
  6
CONTINUOUS
 62
     7
 10
104.5474689058
 20
180.3425160772
 30
0.0
 40
0.5
  0
ARC
  5
184
  8
0
  6
CONTINUOUS
 62
     7
 10
96.0474689058
 20
172.8425160772
 30
0.0
 40
0.5
 50
0.0
 51
104.4775121859
  0
ARC
  5
185
  8
0
  6
CONTINUOUS
 62
     7
 10
96.0474689058
 20
172.8425160772
 30
0.0
 40
0.5000000000000158
 50
255.5224878141
 51
0.0
  0
ARC
  5
186
  8
0
  6
CONTINUOUS
 62
     7
 10
96.0474689058
 20
167.3642160772
 30
0.0
 40
0.5
 50
0.0
 51
104.4775121859
  0
ARC
  5
187
  8
0
  6
CONTINUOUS
 62
     7
 10
96.0474689058
 20
167.3642160772
 30
0.0
 40
0.5000000000000158
 50
255.5224878141
 51
0.0
  0
ARC
  5
188
  8
0
  6
CONTINUOUS
 62
     7
 10
105.9454689058
 20
169.8415160772
 30
0.0
 40
1.599999999999995
 50
97.1430534299
 51
262.8569465701
  0
POLYLINE
  5
189
  8
0
  6
CONTINUOUS
 62
     7
 66
     1
 10
0.0
 20
0.0
 30
0.0
  0
VERTEX
  5
1D0
  8
0
  6
CONTINUOUS
 62
     7
 10
117.8454687218
 20
164.8425161084
 30
0.0
  0
VERTEX
  5
1D1
  8
0
  6
CONTINUOUS
 62
     7
 10
117.8197563025
 20
165.1282067588
 30
0.0
  0
VERTEX
  5
1D2
  8
0
  6
CONTINUOUS
 62
     7
 10
117.7590769114
 20
165.3611594057
 30
0.0
  0
SEQEND
  5
1D7
  8
0
  6
CONTINUOUS
 62
     7
  0
ARC
  5
18A
  8
0
  6
CONTINUOUS
 62
     7
 10
116.2454689058
 20
164.8425160772
 30
0.0
 40
1.600000000000009
 50
161.0857811145
 51
0.0
  0
CIRCLE
  5
18B
  8
0
  6
CONTINUOUS
 62
     7
 10
113.4474689058
 20
160.6125160772
 30
0.0
 40
1.0
  0
CIRCLE
  5
18C
  8
0
  6
CONTINUOUS
 62
     7
 10
110.9474689058
 20
151.0725160772
 30
0.0
 40
0.6000000000000085
  0
CIRCLE
  5
18D
  8
0
  6
CONTINUOUS
 62
     7
 10
100.8474689058
 20
175.3425160772
 30
0.0
 40
0.3999999999999915
  0
ARC
  5
18E
  8
0
  6
CONTINUOUS
 62
     7
 10
112.2079689058
 20
143.8425160772
 30
0.0
 40
0.4999999999999962
 50
31.7391125085
 51
148.2608874915
  0
ARC
  5
18F
  8
0
  6
CONTINUOUS
 62
     7
 10
112.2079689058
 20
143.8425160772
 30
0.0
 40
0.5000000000000145
 50
208.2908551474
 51
331.7091448526
  0
ARC
  5
190
  8
0
  6
CONTINUOUS
 62
     7
 10
112.2079689058
 20
146.3825160772
 30
0.0
 40
0.4999999999999962
 50
31.7391125085
 51
148.2608874915
  0
ARC
  5
191
  8
0
  6
CONTINUOUS
 62
     7
 10
112.2079689058
 20
146.3825160772
 30
0.0
 40
0.5000000000000145
 50
208.2908551474
 51
331.7091448526
  0
ARC
  5
192
  8
0
  6
CONTINUOUS
 62
     7
 10
96.0474689058
 20
170.3025160772
 30
0.0
 40
0.5000000000000158
 50
0.0
 51
104.4775121859
  0
ARC
  5
193
  8
0
  6
CONTINUOUS
 62
     7
 10
96.0474689058
 20
170.3025160772
 30
0.0
 40
0.5000000000000158
 50
255.5224878141
 51
0.0
  0
ARC
  5
194
  8
0
  6
CONTINUOUS
 62
     7
 10
96.0474689058
 20
146.3025160772
 30
0.0
 40
0.5000000000000158
 50
0.0
 51
104.4775121859
  0
ARC
  5
195
  8
0
  6
CONTINUOUS
 62
     7
 10
96.0474689058
 20
146.3025160772
 30
0.0
 40
0.5
 50
255.5224878141
 51
0.0
  0
CIRCLE
  5
196
  8
0
  6
CONTINUOUS
 62
     7
 10
110.9474689058
 20
158.0725160772
 30
0.0
 40
0.6000000000000085
  0
CIRCLE
  5
197
  8
0
  6
CONTINUOUS
 62
     7
 10
109.7474689058
 20
180.3425160772
 30
0.0
 40
0.5
  0
ARC
  5
198
  8
0
  6
CONTINUOUS
 62
     7
 10
96.0474689058
 20
156.8425160772
 30
0.0
 40
0.5
 50
0.0
 51
104.4775121859
  0
LINE
  5
199
  8
0
  6
CONTINUOUS
 62
     7
 10
95.5476947459
 20
156.8575160755
 30
0.0
 11
95.5476947459
 21
156.8275160799
 31
0.0
  0
ARC
  5
19A
  8
0
  6
CONTINUOUS
 62
     7
 10
96.0474689058
 20
156.8425160772
 30
0.0
 40
0.5
 50
255.5224878141
 51
0.0
  0
ARC
  5
19B
  8
0
  6
CONTINUOUS
 62
     7
 10
109.1454689058
 20
174.8425160772
 30
0.0
 40
1.600000000000009
 50
0.0
 51
197.884417502
  0
POLYLINE
  5
19C
  8
0
  6
CONTINUOUS
 62
     7
 66
     1
 10
0.0
 20
0.0
 30
0.0
  0
VERTEX
  5
1D3
  8
0
  6
CONTINUOUS
 62
     7
 10
110.6713443626
 20
174.3611590183
 30
0.0
  0
VERTEX
  5
1D4
  8
0
  6
CONTINUOUS
 62
     7
 10
110.7197562563
 20
174.5568243033
 30
0.0
  0
VERTEX
  5
1D5
  8
0
  6
CONTINUOUS
 62
     7
 10
110.7454689084
 20
174.8425168162
 30
0.0
  0
SEQEND
  5
1D6
  8
0
  6
CONTINUOUS
 62
     7
  0
ARC
  5
19D
  8
0
  6
CONTINUOUS
 62
     7
 10
96.0474689058
 20
140.8425160772
 30
0.0
 40
0.5
 50
0.0
 51
104.4775121859
  0
ARC
  5
19E
  8
0
  6
CONTINUOUS
 62
     7
 10
96.0474689058
 20
140.8425160772
 30
0.0
 40
0.5000000000000193
 50
255.5224878141
 51
0.0
  0
ARC
  5
19F
  8
0
  6
CONTINUOUS
 62
     7
 10
96.0474689058
 20
143.3825160772
 30
0.0
 40
0.5
 50
0.0
 51
104.4775121859
  0
ARC
  5
1A0
  8
0
  6
CONTINUOUS
 62
     7
 10
96.0474689058
 20
143.3825160772
 30
0.0
 40
0.5000000000000158
 50
255.5224878141
 51
0.0
  0
ARC
  5
1A1
  8
0
  6
CONTINUOUS
 62
     7
 10
96.0474689058
 20
175.3825160772
 30
0.0
 40
0.5
 50
0.0
 51
104.4775121859
  0
ARC
  5
1A2
  8
0
  6
CONTINUOUS
 62
     7
 10
96.0474689058
 20
175.3825160772
 30
0.0
 40
0.5
 50
255.5224878141
 51
0.0
  0
CIRCLE
  5
1A3
  8
0
  6
CONTINUOUS
 62
     7
 10
116.4474689058
 20
133.8425160772
 30
0.0
 40
1.599999999999994
  0
ARC
  5
1A4
  8
0
  6
CONTINUOUS
 62
     7
 10
104.0474689058
 20
140.5425160772
 30
0.0
 40
0.7750000000000057
 50
194.0242395442
 51
345.9757604558
  0
ARC
  5
1A5
  8
0
  6
CONTINUOUS
 62
     7
 10
96.0474689058
 20
162.2842160772
 30
0.0
 40
0.5000000000000158
 50
0.0
 51
104.4775121859
  0
ARC
  5
1A6
  8
0
  6
CONTINUOUS
 62
     7
 10
96.0474689058
 20
162.2842160772
 30
0.0
 40
0.5
 50
255.5224878141
 51
0.0
  0
CIRCLE
  5
1A7
  8
0
  6
CONTINUOUS
 62
     7
 10
110.9474689058
 20
153.6125160772
 30
0.0
 40
0.6000000000000085
  0
CIRCLE
  5
1A8
  8
0
  6
CONTINUOUS
 62
     7
 10
113.4474689058
 20
153.6125160772
 30
0.0
 40
1.0
  0
CIRCLE
  5
1A9
  8
0
  6
CONTINUOUS
 62
     7
 10
113.4474689058
 20
151.0725160772
 30
0.0
 40
1.0
  0
CIRCLE
  5
1AA
  8
0
  6
CONTINUOUS
 62
     7
 10
116.4474689058
 20
179.8425160772
 30
0.0
 40
1.599999999999994
  0
ARC
  5
1AB
  8
0
  6
CONTINUOUS
 62
     7
 10
96.0474689058
 20
154.3025160772
 30
0.0
 40
0.5000000000000158
 50
0.0
 51
104.4775121859
  0
ARC
  5
1AC
  8
0
  6
CONTINUOUS
 62
     7
 10
96.0474689058
 20
154.3025160772
 30
0.0
 40
0.5
 50
255.5224878141
 51
0.0
  0
LINE
  5
1AD
  8
0
  6
CONTINUOUS
 62
     7
 10
120.4474689769
 20
183.8425164288
 30
0.0
 11
90.4474687161
 21
183.8425164288
 31
0.0
  0
ARC
  5
1AE
  8
0
  6
CONTINUOUS
 62
     7
 10
96.0474689058
 20
159.3825160772
 30
0.0
 40
0.5000000000000193
 50
0.0
 51
104.4775121859
  0
ARC
  5
1AF
  8
0
  6
CONTINUOUS
 62
     7
 10
96.0474689058
 20
159.3825160772
 30
0.0
 40
0.5
 50
255.5224878141
 51
0.0
  0
LINE
  5
1B0
  8
0
  6
CONTINUOUS
 62
     7
 10
120.4474689769
 20
129.8425168908
 30
0.0
 11
120.4474689769
 21
139.8555421448
 31
0.0
  0
LINE
  5
1B1
  8
0
  6
CONTINUOUS
 62
     7
 10
120.4474689769
 20
147.8555425247
 30
0.0
 11
120.4474689769
 21
154.1748160208
 31
0.0
  0
LINE
  5
1B2
  8
0
  6
CONTINUOUS
 62
     7
 10
120.4474689769
 20
154.9748160588
 30
0.0
 11
120.4474689769
 21
156.7148160658
 31
0.0
  0
LINE
  5
1B3
  8
0
  6
CONTINUOUS
 62
     7
 10
120.4474689769
 20
157.5148160747
 30
0.0
 11
120.4474689769
 21
183.8425164288
 31
0.0
  0
LINE
  5
1B4
  8
0
  6
CONTINUOUS
 62
     7
 10
90.4474687161
 20
129.8425168908
 30
0.0
 11
102.1624692114
 21
129.8425168908
 31
0.0
  0
LINE
  5
1B5
  8
0
  6
CONTINUOUS
 62
     7
 10
112.132468905
 20
129.8425168908
 30
0.0
 11
120.4474689769
 21
129.8425168908
 31
0.0
  0
ARC
  5
1B6
  8
0
  6
CONTINUOUS
 62
     7
 10
96.0474689058
 20
164.8242160772
 30
0.0
 40
0.5000000000000158
 50
0.0
 51
104.4775121859
  0
ARC
  5
1B7
  8
0
  6
CONTINUOUS
 62
     7
 10
96.0474689058
 20
164.8242160772
 30
0.0
 40
0.5000000000000158
 50
255.5224878141
 51
0.0
  0
ARC
  5
1B8
  8
0
  6
CONTINUOUS
 62
     7
 10
96.0474689058
 20
148.8425160772
 30
0.0
 40
0.5000000000000193
 50
0.0
 51
104.4775121859
  0
ARC
  5
1B9
  8
0
  6
CONTINUOUS
 62
     7
 10
96.0474689058
 20
148.8425160772
 30
0.0
 40
0.5000000000000193
 50
255.5224878141
 51
0.0
  0
CIRCLE
  5
1BA
  8
0
  6
CONTINUOUS
 62
     7
 10
94.4474689058
 20
179.8425160772
 30
0.0
 40
1.600000000000009
  0
CIRCLE
  5
1BB
  8
0
  6
CONTINUOUS
 62
     7
 10
94.4474689058
 20
133.8425160772
 30
0.0
 40
1.600000000000009
  0
ARC
  5
1BC
  8
0
  6
CONTINUOUS
 62
     7
 10
96.0474689058
 20
151.3825160772
 30
0.0
 40
0.5
 50
0.0
 51
104.4775121859
  0
ARC
  5
1BD
  8
0
  6
CONTINUOUS
 62
     7
 10
96.0474689058
 20
151.3825160772
 30
0.0
 40
0.5
 50
255.5224878141
 51
0.0
  0
LINE
  5
1BE
  8
0
  6
CONTINUOUS
 62
     7
 10
90.4474687161
 20
183.8425164288
 30
0.0
 11
90.4474687161
 21
176.8275154
 31
0.0
  0
LINE
  5
1BF
  8
0
  6
CONTINUOUS
 62
     7
 10
90.4474687161
 20
166.8575163177
 30
0.0
 11
90.4474687161
 21
166.8275156236
 31
0.0
  0
LINE
  5
1C0
  8
0
  6
CONTINUOUS
 62
     7
 10
90.4474687161
 20
156.8575160755
 30
0.0
 11
90.4474687161
 21
156.8275160799
 31
0.0
  0
LINE
  5
1C1
  8
0
  6
CONTINUOUS
 62
     7
 10
90.4474687161
 20
146.8575158334
 30
0.0
 11
90.4474687161
 21
146.8275160706
 31
0.0
  0
LINE
  5
1C2
  8
0
  6
CONTINUOUS
 62
     7
 10
90.4474687161
 20
136.8575160569
 30
0.0
 11
90.4474687161
 21
129.8425168908
 31
0.0
  0
ARC
  5
1C3
  8
0
  6
CONTINUOUS
 62
     7
 10
104.0474689058
 20
163.1425160772
 30
0.0
 40
0.7750000000000107
 50
15.8903160989
 51
164.1096839011
  0
LINE
  5
1C4
  8
0
  6
CONTINUOUS
 62
     8
 10
102.068095501
 20
142.1547084293
 30
0.0
 11
106.0314430254
 21
142.1547084293
 31
0.0
  0
LINE
  5
1C5
  8
0
  6
CONTINUOUS
 62
     8
 10
106.0314430254
 20
161.3547084099
 30
0.0
 11
102.068095501
 21
161.3547084099
 31
0.0
  0
LINE
  5
1C6
  8
0
  6
CONTINUOUS
 62
     8
 10
105.9815786178
 20
140.8547078436
 30
0.0
 11
105.9815786178
 21
141.8547089389
 31
0.0
  0
LINE
  5
1C7
  8
0
  6
CONTINUOUS
 62
     8
 10
102.1179603743
 20
140.8547078436
 30
0.0
 11
102.1179603743
 21
141.8547089389
 31
0.0
  0
LINE
  5
1C8
  8
0
  6
CONTINUOUS
 62
     8
 10
102.1179603743
 20
162.8547086558
 30
0.0
 11
102.1179603743
 21
161.6547083659
 31
0.0
  0
LINE
  5
1C9
  8
0
  6
CONTINUOUS
 62
     8
 10
105.9815786178
 20
162.8547086558
 30
0.0
 11
105.9815786178
 21
161.6547083659
 31
0.0
  0
LINE
  5
1CA
  8
0
  6
CONTINUOUS
 62
     8
 10
127.4451688262
 20
153.3448159872
 30
0.0
 11
127.4451688262
 21
158.3448161083
 31
0.0
  0
LINE
  5
1CB
  8
0
  6
CONTINUOUS
 62
     8
 10
119.4451689119
 20
156.7148160658
 30
0.0
 11
119.4451689119
 21
157.5148160747
 31
0.0
  0
LINE
  5
1CC
  8
0
  6
CONTINUOUS
 62
     8
 10
119.4451689119
 20
154.9748160588
 30
0.0
 11
119.4451689119
 21
154.1748160208
 31
0.0
  0
LINE
  5
1CD
  8
0
  6
CONTINUOUS
 62
     8
 10
130.9177559199
 20
142.6555420449
 30
0.0
 11
130.9177559199
 21
145.0555426246
 31
0.0
  0
TEXT
  5
1CE
  8
0
  6
CONTINUOUS
 62
     7
 10
0.0
 20
6.732893805
 30
0.0
 40
3.633
  1
Edition tudiante de SolidWorks.
 41
0.6671875
 11
0.0
 21
5.4495
 31
0.0
 73
     1
  0
TEXT
  5
1CF
  8
0
  6
CONTINUOUS
 62
     7
 10
0.0
 20
1.283393805
 30
0.0
 40
3.633
  1
A usage universitaire uniquement.
 41
0.6681818182
 11
0.0
 21
0.0
 31
0.0
 73
     1
  0
ENDSEC
  0
EOF
