  0
SECTION
  2
HEADER
  9
$ACADVER
  1
AC1009
  9
$DWGCODEPAGE
  3
ansi_1252
  9
$INSBASE
 10
0.0
 20
0.0
 30
0.0
  9
$EXTMIN
 10
0.0
 20
0.0
 30
0.0
  9
$EXTMAX
 10
210.0
 20
297.0
 30
0.0
  9
$LIMMIN
 10
0.0
 20
0.0
  9
$LIMMAX
 10
210.0
 20
297.0
  9
$ORTHOMODE
 70
     0
  9
$REGENMODE
 70
     1
  9
$FILLMODE
 70
     1
  9
$QTEXTMODE
 70
     0
  9
$MIRRTEXT
 70
     1
  9
$DRAGMODE
 70
     2
  9
$LTSCALE
 40
1.0
  9
$OSMODE
 70
    37
  9
$ATTMODE
 70
     1
  9
$TEXTSIZE
 40
3.5
  9
$TRACEWID
 40
1.0
  9
$TEXTSTYLE
  7
STANDARD
  9
$CLAYER
  8
0
  9
$CELTYPE
  6
BYLAYER
  9
$CECOLOR
 62
   256
  9
$DIMSCALE
 40
1.0
  9
$DIMASZ
 40
3.302
  9
$DIMEXO
 40
1.0
  9
$DIMDLI
 40
3.75
  9
$DIMRND
 40
0.0
  9
$DIMDLE
 40
0.0
  9
$DIMEXE
 40
1.0
  9
$DIMTP
 40
0.0
  9
$DIMTM
 40
0.0
  9
$DIMTXT
 40
3.5
  9
$DIMCEN
 40
2.5
  9
$DIMTSZ
 40
0.0
  9
$DIMTOL
 70
     0
  9
$DIMLIM
 70
     0
  9
$DIMTIH
 70
     1
  9
$DIMTOH
 70
     1
  9
$DIMSE1
 70
     0
  9
$DIMSE2
 70
     0
  9
$DIMTAD
 70
     1
  9
$DIMZIN
 70
     0
  9
$DIMBLK
  1

  9
$DIMASO
 70
     1
  9
$DIMSHO
 70
     1
  9
$DIMPOST
  1

  9
$DIMAPOST
  1

  9
$DIMALT
 70
     0
  9
$DIMALTD
 70
     3
  9
$DIMALTF
 40
0.0393700787
  9
$DIMLFAC
 40
1.0
  9
$DIMTOFL
 70
     1
  9
$DIMTVP
 40
0.0
  9
$DIMTIX
 70
     0
  9
$DIMSOXD
 70
     0
  9
$DIMSAH
 70
     0
  9
$DIMBLK1
  1

  9
$DIMBLK2
  1

  9
$DIMSTYLE
  2
ISO-25
  9
$DIMCLRD
 70
     0
  9
$DIMCLRE
 70
     0
  9
$DIMCLRT
 70
     0
  9
$DIMTFAC
 40
1.0
  9
$DIMGAP
 40
1.524
  9
$LUNITS
 70
     2
  9
$LUPREC
 70
     2
  9
$SKETCHINC
 40
1.0
  9
$FILLETRAD
 40
10.0
  9
$AUNITS
 70
     0
  9
$AUPREC
 70
     2
  9
$MENU
  1
.
  9
$ELEVATION
 40
0.0
  9
$PELEVATION
 40
0.0
  9
$THICKNESS
 40
0.0
  9
$LIMCHECK
 70
     0
  9
$CHAMFERA
 40
10.0
  9
$CHAMFERB
 40
10.0
  9
$SKPOLY
 70
     0
  9
$TDCREATE
 40
2456630.627514224
  9
$TDUPDATE
 40
2456630.627514595
  9
$TDINDWG
 40
0.0000000116
  9
$TDUSRTIMER
 40
0.0000000116
  9
$USRTIMER
 70
     1
  9
$ANGBASE
 50
0.0
  9
$ANGDIR
 70
     0
  9
$PDMODE
 70
     0
  9
$PDSIZE
 40
-1.0
  9
$PLINEWID
 40
0.0
  9
$COORDS
 70
     1
  9
$SPLFRAME
 70
     0
  9
$SPLINETYPE
 70
     6
  9
$SPLINESEGS
 70
     8
  9
$ATTDIA
 70
     0
  9
$ATTREQ
 70
     1
  9
$HANDLING
 70
     1
  9
$HANDSEED
  5
672
  9
$SURFTAB1
 70
     6
  9
$SURFTAB2
 70
     6
  9
$SURFTYPE
 70
     6
  9
$SURFU
 70
     6
  9
$SURFV
 70
     6
  9
$UCSNAME
  2

  9
$UCSORG
 10
0.0
 20
0.0
 30
0.0
  9
$UCSXDIR
 10
1.0
 20
0.0
 30
0.0
  9
$UCSYDIR
 10
0.0
 20
1.0
 30
0.0
  9
$PUCSNAME
  2

  9
$PUCSORG
 10
0.0
 20
0.0
 30
0.0
  9
$PUCSXDIR
 10
1.0
 20
0.0
 30
0.0
  9
$PUCSYDIR
 10
0.0
 20
1.0
 30
0.0
  9
$USERI1
 70
     0
  9
$USERI2
 70
     0
  9
$USERI3
 70
     0
  9
$USERI4
 70
     0
  9
$USERI5
 70
     0
  9
$USERR1
 40
0.0
  9
$USERR2
 40
0.0
  9
$USERR3
 40
0.0
  9
$USERR4
 40
0.0
  9
$USERR5
 40
0.0
  9
$WORLDVIEW
 70
     1
  9
$SHADEDGE
 70
     3
  9
$SHADEDIF
 70
    70
  9
$TILEMODE
 70
     1
  9
$MAXACTVP
 70
    64
  9
$PLIMCHECK
 70
     0
  9
$PEXTMIN
 10
1.0000000000E+20
 20
1.0000000000E+20
 30
1.0000000000E+20
  9
$PEXTMAX
 10
-1.0000000000E+20
 20
-1.0000000000E+20
 30
-1.0000000000E+20
  9
$PLIMMIN
 10
0.0
 20
0.0
  9
$PLIMMAX
 10
420.0
 20
297.0
  9
$UNITMODE
 70
     0
  9
$VISRETAIN
 70
     1
  9
$PLINEGEN
 70
     0
  9
$PSLTSCALE
 70
     1
  0
ENDSEC
  0
SECTION
  2
TABLES
  0
TABLE
  2
VPORT
 70
     1
  0
VPORT
  2
*ACTIVE
 70
     0
 10
0.0
 20
0.0
 11
1.0
 21
1.0
 12
105.0
 22
148.5
 13
0.0
 23
0.0
 14
10.0
 24
10.0
 15
10.0
 25
10.0
 16
0.0
 26
0.0
 36
1.0
 17
0.0
 27
0.0
 37
0.0
 40
297.0
 41
0.7070707071
 42
50.0
 43
0.0
 44
0.0
 50
0.0
 51
0.0
 71
     0
 72
  2000
 73
     1
 74
     3
 75
     0
 76
     0
 77
     0
 78
     0
  0
ENDTAB
  0
TABLE
  2
LTYPE
 70
     6
  0
LTYPE
  2
CONTINUOUS
 70
     0
  3
Solid line
 72
    65
 73
     0
 40
0.0
  0
LTYPE
  2
HIDDEN
 70
     0
  3
Hidden __ __ __ __ __ __ __ __ __ __ __ __ __ __
 72
    65
 73
     2
 40
1.905
 49
1.27
 49
-0.635
  0
LTYPE
  2
PHANTOM
 70
     0
  3
Phantom ______  __  __  ______  __  __  ______
 72
    65
 73
     6
 40
12.7
 49
6.35
 49
-1.27
 49
1.27
 49
-1.27
 49
1.27
 49
-1.27
  0
LTYPE
  2
CENTER
 70
     0
  3
Center ____ _ ____ _ ____ _ ____ _ ____ _ ____
 72
    65
 73
     4
 40
10.16
 49
6.35
 49
-1.27
 49
1.27
 49
-1.27
  0
LTYPE
  2
CENTERX2
 70
     0
  3
Center (2x) ________  __  ________  __  _____
 72
    65
 73
     4
 40
20.32
 49
12.7
 49
-2.54
 49
2.54
 49
-2.54
  0
LTYPE
  2
DOT2
 70
     0
  3
Dot (.5x) ........................................
 72
    65
 73
     2
 40
0.635
 49
0.0
 49
-0.635
  0
ENDTAB
  0
TABLE
  2
LAYER
 70
     1
  0
LAYER
  2
0
 70
     0
 62
     7
  6
CONTINUOUS
  0
ENDTAB
  0
TABLE
  2
STYLE
 70
     1
  0
STYLE
  2
STANDARD
 70
     0
 40
0.0
 41
1.0
 50
0.0
 71
     0
 42
3.5
  3
txt
  4

  0
ENDTAB
  0
TABLE
  2
VIEW
 70
     0
  0
ENDTAB
  0
TABLE
  2
UCS
 70
     0
  0
ENDTAB
  0
TABLE
  2
APPID
 70
     1
  0
APPID
  2
ACAD
 70
     0
  0
ENDTAB
  0
TABLE
  2
DIMSTYLE
 70
     1
  0
DIMSTYLE
  2
ISO-25
 70
     0
  3

  4

  5

  6

  7

 40
1.0
 41
2.5
 42
0.625
 43
3.75
 44
1.25
 45
0.0
 46
0.0
 47
0.0
 48
0.0
140
2.5
141
2.5
142
0.0
143
0.0393700787
144
1.0
145
0.0
146
1.0
147
0.625
 71
     0
 72
     0
 73
     0
 74
     0
 75
     0
 76
     0
 77
     1
 78
     8
170
     0
171
     3
172
     1
173
     0
174
     0
175
     0
176
     0
177
     0
178
     0
  0
ENDTAB
  0
ENDSEC
  0
SECTION
  2
BLOCKS
  0
BLOCK
  8
0
  2
$MODEL_SPACE
 70
     0
 10
0.0
 20
0.0
 30
0.0
  3
$MODEL_SPACE
  1

  0
ENDBLK
  5
21
  8
0
  0
BLOCK
 67
     1
  8
0
  2
$PAPER_SPACE
 70
     0
 10
0.0
 20
0.0
 30
0.0
  3
$PAPER_SPACE
  1

  0
ENDBLK
  5
1D
 67
     1
  8
0
  0
ENDSEC
  0
SECTION
  2
ENTITIES
  0
LINE
  5
44
  8
0
  6
CONTINUOUS
 62
     7
 10
107.3140010028
 20
160.2230459217
 30
0.0
 11
107.6148728141
 21
160.3714145085
 31
0.0
  0
LINE
  5
45
  8
0
  6
CONTINUOUS
 62
     7
 10
106.823748839
 20
161.9925238668
 30
0.0
 11
106.811819695
 21
161.9867482973
 31
0.0
  0
LINE
  5
46
  8
0
  6
CONTINUOUS
 62
     7
 10
107.0596718564
 20
162.152251228
 30
0.0
 11
106.8342624201
 21
162.0431636499
 31
0.0
  0
LINE
  5
47
  8
0
  6
CONTINUOUS
 62
     7
 10
107.6612397141
 20
160.3485785544
 30
0.0
 11
107.7877248788
 21
160.41097793
 31
0.0
  0
LINE
  5
48
  8
0
  6
CONTINUOUS
 62
     7
 10
107.3865179473
 20
162.2649920431
 30
0.0
 11
107.2375253094
 21
162.1928563276
 31
0.0
  0
LINE
  5
49
  8
0
  6
CONTINUOUS
 62
     7
 10
107.6212161441
 20
162.4240122836
 30
0.0
 11
107.3969369607
 21
162.3154716948
 31
0.0
  0
LINE
  5
4A
  8
0
  6
CONTINUOUS
 62
     7
 10
107.8427059315
 20
162.485858303
 30
0.0
 11
107.799231208
 21
162.4648097443
 31
0.0
  0
LINE
  5
4B
  8
0
  6
CONTINUOUS
 62
     7
 10
89.1913503026
 20
142.4296007853
 30
0.0
 11
89.1977241003
 21
142.2442366459
 31
0.0
  0
ARC
  5
4C
  8
0
  6
CONTINUOUS
 62
     7
 10
89.6548459135
 20
142.2606225953
 30
0.0
 40
0.457415403526405
 50
182.0529406137
 51
318.5466811707
  0
LINE
  5
4D
  8
0
  6
CONTINUOUS
 62
     7
 10
86.0378017973
 20
144.2747835361
 30
0.0
 11
86.0460157392
 21
144.0864964984
 31
0.0
  0
ARC
  5
4E
  8
0
  6
CONTINUOUS
 62
     7
 10
86.4968517097
 20
144.1076254119
 30
0.0
 40
0.4513308134775636
 50
182.6832650471
 51
318.4820387502
  0
POLYLINE
  5
4F
  8
0
  6
CONTINUOUS
 62
     7
 66
     1
 10
0.0
 20
0.0
 30
0.0
  0
VERTEX
  5
26B
  8
0
  6
CONTINUOUS
 62
     7
 10
91.0330038086
 20
160.9912253152
 30
0.0
  0
VERTEX
  5
26C
  8
0
  6
CONTINUOUS
 62
     7
 10
90.8977614227
 20
160.9139204098
 30
0.0
  0
VERTEX
  5
26D
  8
0
  6
CONTINUOUS
 62
     7
 10
90.722475077
 20
160.7495090917
 30
0.0
  0
VERTEX
  5
26E
  8
0
  6
CONTINUOUS
 62
     7
 10
90.5813625556
 20
160.544031452
 30
0.0
  0
VERTEX
  5
26F
  8
0
  6
CONTINUOUS
 62
     7
 10
90.4754069513
 20
160.299175072
 30
0.0
  0
VERTEX
  5
270
  8
0
  6
CONTINUOUS
 62
     7
 10
90.4072735704
 20
160.0180873799
 30
0.0
  0
VERTEX
  5
271
  8
0
  6
CONTINUOUS
 62
     7
 10
90.3796153381
 20
159.7074563014
 30
0.0
  0
VERTEX
  5
272
  8
0
  6
CONTINUOUS
 62
     7
 10
90.3933394469
 20
159.3763717369
 30
0.0
  0
VERTEX
  5
273
  8
0
  6
CONTINUOUS
 62
     7
 10
90.4474091769
 20
159.0344118387
 30
0.0
  0
VERTEX
  5
274
  8
0
  6
CONTINUOUS
 62
     7
 10
90.5397360194
 20
158.6896788209
 30
0.0
  0
VERTEX
  5
275
  8
0
  6
CONTINUOUS
 62
     7
 10
90.6676679214
 20
158.3498941767
 30
0.0
  0
VERTEX
  5
276
  8
0
  6
CONTINUOUS
 62
     7
 10
90.8281032958
 20
158.0225405752
 30
0.0
  0
VERTEX
  5
277
  8
0
  6
CONTINUOUS
 62
     7
 10
91.0175204454
 20
157.7148871793
 30
0.0
  0
VERTEX
  5
278
  8
0
  6
CONTINUOUS
 62
     7
 10
91.2319993271
 20
157.4339694652
 30
0.0
  0
VERTEX
  5
279
  8
0
  6
CONTINUOUS
 62
     7
 10
91.4675182932
 20
157.186269665
 30
0.0
  0
VERTEX
  5
27A
  8
0
  6
CONTINUOUS
 62
     7
 10
91.7200007251
 20
156.9779176367
 30
0.0
  0
VERTEX
  5
27B
  8
0
  6
CONTINUOUS
 62
     7
 10
91.9852730208
 20
156.8149081396
 30
0.0
  0
VERTEX
  5
27C
  8
0
  6
CONTINUOUS
 62
     7
 10
92.2582639606
 20
156.7034761936
 30
0.0
  0
VERTEX
  5
27D
  8
0
  6
CONTINUOUS
 62
     7
 10
92.5310180184
 20
156.649665485
 30
0.0
  0
VERTEX
  5
27E
  8
0
  6
CONTINUOUS
 62
     7
 10
92.5710340912
 20
156.650719742
 30
0.0
  0
SEQEND
  5
671
  8
0
  6
CONTINUOUS
 62
     7
  0
LINE
  5
50
  8
0
  6
CONTINUOUS
 62
     7
 10
94.3121256192
 20
162.4968073879
 30
0.0
 11
91.0791850341
 21
161.0211974974
 31
0.0
  0
LINE
  5
51
  8
0
  6
CONTINUOUS
 62
     7
 10
96.7557259801
 20
158.6000385667
 30
0.0
 11
102.1581022232
 21
161.181449506
 31
0.0
  0
LINE
  5
52
  8
0
  6
CONTINUOUS
 62
     7
 10
100.3118536797
 20
165.1391595003
 30
0.0
 11
94.6999712301
 21
162.5753919574
 31
0.0
  0
LINE
  5
53
  8
0
  6
CONTINUOUS
 62
     7
 10
102.196423299
 20
161.1030162121
 30
0.0
 11
102.9874415324
 21
161.4813220024
 31
0.0
  0
LINE
  5
54
  8
0
  6
CONTINUOUS
 62
     7
 10
103.2676708216
 20
166.584383614
 30
0.0
 11
100.2763220604
 21
165.2190433914
 31
0.0
  0
ARC
  5
55
  8
0
  6
CONTINUOUS
 62
     7
 10
103.7593643107
 20
165.0355428231
 30
0.0
 40
1.6251052103603
 50
34.1888863704
 51
107.0922063178
  0
LINE
  5
56
  8
0
  6
CONTINUOUS
 62
     7
 10
96.3142888124
 20
161.8796646952
 30
0.0
 11
92.5895338882
 21
160.1552748878
 31
0.0
  0
LINE
  5
57
  8
0
  6
CONTINUOUS
 62
     7
 10
93.2077824874
 20
163.3504315299
 30
0.0
 11
89.486648023
 21
161.6732435875
 31
0.0
  0
LINE
  5
58
  8
0
  6
CONTINUOUS
 62
     7
 10
92.6469830832
 20
153.6348437624
 30
0.0
 11
96.300571888
 21
155.4266533417
 31
0.0
  0
LINE
  5
59
  8
0
  6
CONTINUOUS
 62
     7
 10
106.58221204
 20
166.6332397671
 30
0.0
 11
103.1786538219
 21
165.0575492265
 31
0.0
  0
LINE
  5
5A
  8
0
  6
CONTINUOUS
 62
     7
 10
103.4741767178
 20
167.9776958171
 30
0.0
 11
100.0697501729
 21
166.4432543164
 31
0.0
  0
LINE
  5
5B
  8
0
  6
CONTINUOUS
 62
     7
 10
103.3344824731
 20
158.8762556479
 30
0.0
 11
106.3836555843
 21
160.3716449437
 31
0.0
  0
ARC
  5
5C
  8
0
  6
CONTINUOUS
 62
     7
 10
116.0803383892
 20
151.0033769949
 30
0.0
 40
2.300597637288113
 50
243.3899567987
 51
64.6200937016
  0
LINE
  5
5D
  8
0
  6
CONTINUOUS
 62
     7
 10
117.0664166518
 20
153.0819339821
 30
0.0
 11
113.6289114153
 21
154.7177001447
 31
0.0
  0
LINE
  5
5E
  8
0
  6
CONTINUOUS
 62
     7
 10
111.6415566395
 20
150.6392873871
 30
0.0
 11
115.0498643246
 21
148.9464684673
 31
0.0
  0
LINE
  5
5F
  8
0
  6
CONTINUOUS
 62
     7
 10
110.8483503411
 20
150.730209312
 30
0.0
 11
111.5183191017
 21
150.3966090684
 31
0.0
  0
LINE
  5
60
  8
0
  6
CONTINUOUS
 62
     7
 10
113.7441714645
 20
154.9644659237
 30
0.0
 11
113.0677753534
 21
155.2854968272
 31
0.0
  0
LINE
  5
61
  8
0
  6
CONTINUOUS
 62
     7
 10
110.5304298727
 20
153.3138087346
 30
0.0
 11
110.0256442612
 21
153.5600629016
 31
0.0
  0
LINE
  5
62
  8
0
  6
CONTINUOUS
 62
     7
 10
109.7077200751
 20
152.9114230592
 30
0.0
 11
110.3226992593
 21
152.6093477223
 31
0.0
  0
ARC
  5
63
  8
0
  6
CONTINUOUS
 62
     7
 10
109.4149712564
 20
152.4510348308
 30
0.0
 40
1.266042961641838
 50
61.1611485482
 51
184.6498508737
  0
POLYLINE
  5
64
  8
0
  6
CONTINUOUS
 62
     7
 66
     1
 10
0.0
 20
0.0
 30
0.0
  0
VERTEX
  5
27F
  8
0
  6
CONTINUOUS
 62
     7
 10
108.8685844498
 20
152.3315326081
 30
0.0
  0
VERTEX
  5
280
  8
0
  6
CONTINUOUS
 62
     7
 10
108.8757371722
 20
152.4417661127
 30
0.0
  0
VERTEX
  5
281
  8
0
  6
CONTINUOUS
 62
     7
 10
108.912954666
 20
152.6304420281
 30
0.0
  0
VERTEX
  5
282
  8
0
  6
CONTINUOUS
 62
     7
 10
108.9750100126
 20
152.779072506
 30
0.0
  0
VERTEX
  5
283
  8
0
  6
CONTINUOUS
 62
     7
 10
109.0547015961
 20
152.8868110004
 30
0.0
  0
VERTEX
  5
284
  8
0
  6
CONTINUOUS
 62
     7
 10
109.1522379579
 20
152.9597849699
 30
0.0
  0
VERTEX
  5
285
  8
0
  6
CONTINUOUS
 62
     7
 10
109.2886174264
 20
153.0015464703
 30
0.0
  0
VERTEX
  5
286
  8
0
  6
CONTINUOUS
 62
     7
 10
109.4277479071
 20
153.000421387
 30
0.0
  0
VERTEX
  5
287
  8
0
  6
CONTINUOUS
 62
     7
 10
109.5862265826
 20
152.9623417385
 30
0.0
  0
VERTEX
  5
288
  8
0
  6
CONTINUOUS
 62
     7
 10
109.7077200751
 20
152.9114230592
 30
0.0
  0
SEQEND
  5
670
  8
0
  6
CONTINUOUS
 62
     7
  0
ARC
  5
65
  8
0
  6
CONTINUOUS
 62
     7
 10
110.90569409
 20
153.3761634406
 30
0.0
 40
1.164110380567749
 50
73.5295569836
 51
166.2234286784
  0
ARC
  5
66
  8
0
  6
CONTINUOUS
 62
     7
 10
110.9144183259
 20
153.342693348
 30
0.0
 40
0.4802520078709364
 50
107.4209176106
 51
177.8623669682
  0
LINE
  5
67
  8
0
  6
CONTINUOUS
 62
     7
 10
108.8245075625
 20
150.499506827
 30
0.0
 11
108.8685844498
 21
152.3315326081
 31
0.0
  0
LINE
  5
68
  8
0
  6
CONTINUOUS
 62
     7
 10
108.1530951926
 20
152.3484015981
 30
0.0
 11
108.1128510591
 21
150.516545693
 31
0.0
  0
LINE
  5
69
  8
0
  6
CONTINUOUS
 62
     7
 10
110.3540652449
 20
151.3242613721
 30
0.0
 11
110.3548761278
 21
151.3527334722
 31
0.0
  0
LINE
  5
6A
  8
0
  6
CONTINUOUS
 62
     7
 10
109.6887487236
 20
152.9193739493
 30
0.0
 11
109.6471534147
 21
151.3442923713
 31
0.0
  0
LINE
  5
6B
  8
0
  6
CONTINUOUS
 62
     7
 10
118.3644051342
 20
164.116114721
 30
0.0
 11
113.0074478728
 21
166.4136659174
 31
0.0
  0
ARC
  5
6C
  8
0
  6
CONTINUOUS
 62
     7
 10
117.2732705038
 20
160.3420341321
 30
0.0
 40
0.82461099844353
 50
296.396241045
 51
14.1808010832
  0
LINE
  5
6D
  8
0
  6
CONTINUOUS
 62
     7
 10
112.8674518759
 20
166.4644905568
 30
0.0
 11
111.9069241207
 21
166.8764888456
 31
0.0
  0
ARC
  5
6E
  8
0
  6
CONTINUOUS
 62
     7
 10
110.9270926956
 20
144.3017829169
 30
0.0
 40
1.036629899914316
 50
240.1151518941
 51
302.1688148779
  0
ARC
  5
6F
  8
0
  6
CONTINUOUS
 62
     7
 10
110.9277997873
 20
144.4319792932
 30
0.0
 40
1.14859243520539
 50
298.6789482979
 51
61.5139081813
  0
LINE
  5
70
  8
0
  6
CONTINUOUS
 62
     7
 10
107.0138443705
 20
145.2006512497
 30
0.0
 11
110.4138575012
 21
143.4008299031
 31
0.0
  0
LINE
  5
71
  8
0
  6
CONTINUOUS
 62
     7
 10
111.4786283581
 20
145.4416942025
 30
0.0
 11
108.0644900476
 21
147.2121261411
 31
0.0
  0
LINE
  5
72
  8
0
  6
CONTINUOUS
 62
     7
 10
103.1052046906
 20
146.0564552097
 30
0.0
 11
107.1718963722
 21
143.8825309807
 31
0.0
  0
LINE
  5
73
  8
0
  6
CONTINUOUS
 62
     7
 10
109.2349498664
 20
147.833159959
 30
0.0
 11
105.135046036
 21
149.9381322943
 31
0.0
  0
LINE
  5
74
  8
0
  6
CONTINUOUS
 62
     7
 10
102.1377715195
 20
144.6829384564
 30
0.0
 11
103.8812112519
 21
145.641627072
 31
0.0
  0
ARC
  5
75
  8
0
  6
CONTINUOUS
 62
     7
 10
105.8835909625
 20
160.5363774407
 30
0.0
 40
1.237554656141279
 50
350.002317693
 51
48.1554243162
  0
POLYLINE
  5
76
  8
0
  6
CONTINUOUS
 62
     7
 66
     1
 10
0.0
 20
0.0
 30
0.0
  0
VERTEX
  5
289
  8
0
  6
CONTINUOUS
 62
     7
 10
107.1849270728
 20
160.5095743095
 30
0.0
  0
VERTEX
  5
28A
  8
0
  6
CONTINUOUS
 62
     7
 10
107.1593938556
 20
160.3124086876
 30
0.0
  0
VERTEX
  5
28B
  8
0
  6
CONTINUOUS
 62
     7
 10
107.155237016
 20
160.2969201931
 30
0.0
  0
SEQEND
  5
66F
  8
0
  6
CONTINUOUS
 62
     7
  0
ARC
  5
77
  8
0
  6
CONTINUOUS
 62
     7
 10
105.8302826195
 20
160.5052480619
 30
0.0
 40
1.354651361480687
 50
0.182981508
 51
48.8259136374
  0
ARC
  5
78
  8
0
  6
CONTINUOUS
 62
     7
 10
106.2122884059
 20
160.7089054656
 30
0.0
 40
1.187733054877209
 50
336.2182414804
 51
62.1277922961
  0
POLYLINE
  5
79
  8
0
  6
CONTINUOUS
 62
     7
 66
     1
 10
0.0
 20
0.0
 30
0.0
  0
VERTEX
  5
28C
  8
0
  6
CONTINUOUS
 62
     7
 10
107.805539657
 20
161.2832792516
 30
0.0
  0
VERTEX
  5
28D
  8
0
  6
CONTINUOUS
 62
     7
 10
107.793788847
 20
161.3158628576
 30
0.0
  0
VERTEX
  5
28E
  8
0
  6
CONTINUOUS
 62
     7
 10
107.6922855096
 20
161.529219302
 30
0.0
  0
VERTEX
  5
28F
  8
0
  6
CONTINUOUS
 62
     7
 10
107.5582508041
 20
161.7186853677
 30
0.0
  0
VERTEX
  5
290
  8
0
  6
CONTINUOUS
 62
     7
 10
107.4009285231
 20
161.8712379308
 30
0.0
  0
VERTEX
  5
291
  8
0
  6
CONTINUOUS
 62
     7
 10
107.2311621069
 20
161.9764397522
 30
0.0
  0
VERTEX
  5
292
  8
0
  6
CONTINUOUS
 62
     7
 10
107.0606206712
 20
162.0271630956
 30
0.0
  0
VERTEX
  5
293
  8
0
  6
CONTINUOUS
 62
     7
 10
106.9009778095
 20
162.0200632399
 30
0.0
  0
VERTEX
  5
294
  8
0
  6
CONTINUOUS
 62
     7
 10
106.823748839
 20
161.9925238668
 30
0.0
  0
SEQEND
  5
66E
  8
0
  6
CONTINUOUS
 62
     7
  0
ARC
  5
7A
  8
0
  6
CONTINUOUS
 62
     7
 10
107.4223374427
 20
160.7457652297
 30
0.0
 40
0.4209611997933717
 50
297.2175813765
 51
330.9638736106
  0
POLYLINE
  5
7B
  8
0
  6
CONTINUOUS
 62
     7
 66
     1
 10
0.0
 20
0.0
 30
0.0
  0
VERTEX
  5
295
  8
0
  6
CONTINUOUS
 62
     7
 10
107.7884635596
 20
160.4471426262
 30
0.0
  0
VERTEX
  5
296
  8
0
  6
CONTINUOUS
 62
     7
 10
107.7338273374
 20
160.3948007062
 30
0.0
  0
VERTEX
  5
297
  8
0
  6
CONTINUOUS
 62
     7
 10
107.6612397141
 20
160.3485785544
 30
0.0
  0
SEQEND
  5
66D
  8
0
  6
CONTINUOUS
 62
     7
  0
POLYLINE
  5
7C
  8
0
  6
CONTINUOUS
 62
     7
 66
     1
 10
0.0
 20
0.0
 30
0.0
  0
VERTEX
  5
298
  8
0
  6
CONTINUOUS
 62
     7
 10
106.8342624201
 20
162.0431636499
 30
0.0
  0
VERTEX
  5
299
  8
0
  6
CONTINUOUS
 62
     7
 10
106.966302019
 20
162.0809176425
 30
0.0
  0
VERTEX
  5
29A
  8
0
  6
CONTINUOUS
 62
     7
 10
107.1310468542
 20
162.0705621416
 30
0.0
  0
VERTEX
  5
29B
  8
0
  6
CONTINUOUS
 62
     7
 10
107.3032018587
 20
162.0049825187
 30
0.0
  0
VERTEX
  5
29C
  8
0
  6
CONTINUOUS
 62
     7
 10
107.4718850837
 20
161.8882063754
 30
0.0
  0
VERTEX
  5
29D
  8
0
  6
CONTINUOUS
 62
     7
 10
107.6263938072
 20
161.7275482307
 30
0.0
  0
VERTEX
  5
29E
  8
0
  6
CONTINUOUS
 62
     7
 10
107.7569005081
 20
161.5331564093
 30
0.0
  0
VERTEX
  5
29F
  8
0
  6
CONTINUOUS
 62
     7
 10
107.8085623005
 20
161.4313025114
 30
0.0
  0
SEQEND
  5
66C
  8
0
  6
CONTINUOUS
 62
     7
  0
ARC
  5
7D
  8
0
  6
CONTINUOUS
 62
     7
 10
107.2502510641
 20
161.4942430289
 30
0.0
 40
0.6850512568390374
 50
34.0743649126
 51
106.1526257464
  0
ARC
  5
7E
  8
0
  6
CONTINUOUS
 62
     7
 10
107.5763982367
 20
161.7903726874
 30
0.0
 40
0.5111927788660066
 50
55.9786866001
 51
111.8047965324
  0
ARC
  5
7F
  8
0
  6
CONTINUOUS
 62
     7
 10
107.5936852441
 20
161.8506281558
 30
0.0
 40
0.5047666815175046
 50
61.011648291
 51
112.9408512723
  0
ARC
  5
80
  8
0
  6
CONTINUOUS
 62
     7
 10
107.8058111015
 20
162.0291657362
 30
0.0
 40
0.4358659132211243
 50
83.7619857393
 51
115.0565885491
  0
LINE
  5
81
  8
0
  6
CONTINUOUS
 62
     7
 10
95.5702335572
 20
165.73722975
 30
0.0
 11
101.5325813426
 21
168.3910927261
 31
0.0
  0
LINE
  5
82
  8
0
  6
CONTINUOUS
 62
     7
 10
101.5325813426
 20
168.3910927261
 30
0.0
 11
101.8876309313
 21
167.262608725
 31
0.0
  0
LINE
  5
83
  8
0
  6
CONTINUOUS
 62
     7
 10
96.3454182943
 20
163.3271086345
 30
0.0
 11
95.5702335572
 21
165.73722975
 31
0.0
  0
LINE
  5
84
  8
0
  6
CONTINUOUS
 62
     7
 10
93.1081574439
 20
166.8823153925
 30
0.0
 11
93.1025442055
 21
166.8683524733
 31
0.0
  0
LINE
  5
85
  8
0
  6
CONTINUOUS
 62
     7
 10
93.1081574439
 20
166.8823153925
 30
0.0
 11
95.5702335572
 21
165.73722975
 31
0.0
  0
LINE
  5
86
  8
0
  6
CONTINUOUS
 62
     7
 10
99.0686735591
 20
169.4792085773
 30
0.0
 11
93.1081574439
 21
166.8823153925
 31
0.0
  0
LINE
  5
87
  8
0
  6
CONTINUOUS
 62
     7
 10
101.5325813426
 20
168.3910927261
 30
0.0
 11
99.0686735591
 21
169.4792085773
 31
0.0
  0
POLYLINE
  5
88
  8
0
  6
CONTINUOUS
 62
     7
 66
     1
 10
0.0
 20
0.0
 30
0.0
  0
VERTEX
  5
2A0
  8
0
  6
CONTINUOUS
 62
     7
 10
97.8582602795
 20
167.8654908293
 30
0.0
  0
VERTEX
  5
2A1
  8
0
  6
CONTINUOUS
 62
     7
 10
98.0812445738
 20
167.7836626595
 30
0.0
  0
VERTEX
  5
2A2
  8
0
  6
CONTINUOUS
 62
     7
 10
98.3374521469
 20
167.7236278025
 30
0.0
  0
VERTEX
  5
2A3
  8
0
  6
CONTINUOUS
 62
     7
 10
98.6162698598
 20
167.6879244763
 30
0.0
  0
VERTEX
  5
2A4
  8
0
  6
CONTINUOUS
 62
     7
 10
98.9061014207
 20
167.6780647164
 30
0.0
  0
VERTEX
  5
2A5
  8
0
  6
CONTINUOUS
 62
     7
 10
99.1948631874
 20
167.6944681462
 30
0.0
  0
VERTEX
  5
2A6
  8
0
  6
CONTINUOUS
 62
     7
 10
99.4705214661
 20
167.7364380991
 30
0.0
  0
VERTEX
  5
2A7
  8
0
  6
CONTINUOUS
 62
     7
 10
99.721617225
 20
167.8021970485
 30
0.0
  0
VERTEX
  5
2A8
  8
0
  6
CONTINUOUS
 62
     7
 10
99.9377654472
 20
167.8889674666
 30
0.0
  0
VERTEX
  5
2A9
  8
0
  6
CONTINUOUS
 62
     7
 10
100.1100942474
 20
167.9931007157
 30
0.0
  0
VERTEX
  5
2AA
  8
0
  6
CONTINUOUS
 62
     7
 10
100.231614498
 20
168.1102416044
 30
0.0
  0
VERTEX
  5
2AB
  8
0
  6
CONTINUOUS
 62
     7
 10
100.2974922442
 20
168.2355228502
 30
0.0
  0
VERTEX
  5
2AC
  8
0
  6
CONTINUOUS
 62
     7
 10
100.3052258393
 20
168.3637733324
 30
0.0
  0
VERTEX
  5
2AD
  8
0
  6
CONTINUOUS
 62
     7
 10
100.2547149384
 20
168.489738393
 30
0.0
  0
VERTEX
  5
2AE
  8
0
  6
CONTINUOUS
 62
     7
 10
100.1482298641
 20
168.6082960236
 30
0.0
  0
VERTEX
  5
2AF
  8
0
  6
CONTINUOUS
 62
     7
 10
99.9902833492
 20
168.7146588111
 30
0.0
  0
VERTEX
  5
2B0
  8
0
  6
CONTINUOUS
 62
     7
 10
99.7874272528
 20
168.8045602728
 30
0.0
  0
VERTEX
  5
2B1
  8
0
  6
CONTINUOUS
 62
     7
 10
99.5479678768
 20
168.8744141936
 30
0.0
  0
VERTEX
  5
2B2
  8
0
  6
CONTINUOUS
 62
     7
 10
99.2816210408
 20
168.9214485331
 30
0.0
  0
VERTEX
  5
2B3
  8
0
  6
CONTINUOUS
 62
     7
 10
98.9991402072
 20
168.9438022351
 30
0.0
  0
VERTEX
  5
2B4
  8
0
  6
CONTINUOUS
 62
     7
 10
98.7118876366
 20
168.9405930948
 30
0.0
  0
VERTEX
  5
2B5
  8
0
  6
CONTINUOUS
 62
     7
 10
98.431412095
 20
168.9119470897
 30
0.0
  0
VERTEX
  5
2B6
  8
0
  6
CONTINUOUS
 62
     7
 10
98.1690021437
 20
168.8589967026
 30
0.0
  0
VERTEX
  5
2B7
  8
0
  6
CONTINUOUS
 62
     7
 10
97.9352608232
 20
168.7838370812
 30
0.0
  0
VERTEX
  5
2B8
  8
0
  6
CONTINUOUS
 62
     7
 10
97.7396896676
 20
168.6894551772
 30
0.0
  0
VERTEX
  5
2B9
  8
0
  6
CONTINUOUS
 62
     7
 10
97.5903134006
 20
168.579620663
 30
0.0
  0
VERTEX
  5
2BA
  8
0
  6
CONTINUOUS
 62
     7
 10
97.4933491168
 20
168.4587459028
 30
0.0
  0
VERTEX
  5
2BB
  8
0
  6
CONTINUOUS
 62
     7
 10
97.4529333533
 20
168.3317203118
 30
0.0
  0
VERTEX
  5
2BC
  8
0
  6
CONTINUOUS
 62
     7
 10
97.4709299245
 20
168.203719101
 30
0.0
  0
VERTEX
  5
2BD
  8
0
  6
CONTINUOUS
 62
     7
 10
97.5468149018
 20
168.0799964556
 30
0.0
  0
VERTEX
  5
2BE
  8
0
  6
CONTINUOUS
 62
     7
 10
97.6776683151
 20
167.9656672312
 30
0.0
  0
VERTEX
  5
2BF
  8
0
  6
CONTINUOUS
 62
     7
 10
97.8582602795
 20
167.8654908293
 30
0.0
  0
SEQEND
  5
66B
  8
0
  6
CONTINUOUS
 62
     7
  0
POLYLINE
  5
89
  8
0
  6
CONTINUOUS
 62
     7
 66
     1
 10
0.0
 20
0.0
 30
0.0
  0
VERTEX
  5
2C0
  8
0
  6
CONTINUOUS
 62
     7
 10
94.7519448845
 20
166.4976473278
 30
0.0
  0
VERTEX
  5
2C1
  8
0
  6
CONTINUOUS
 62
     7
 10
94.9753938071
 20
166.4136230555
 30
0.0
  0
VERTEX
  5
2C2
  8
0
  6
CONTINUOUS
 62
     7
 10
95.2331809575
 20
166.3519758033
 30
0.0
  0
VERTEX
  5
2C3
  8
0
  6
CONTINUOUS
 62
     7
 10
95.5146278989
 20
166.3153131297
 30
0.0
  0
VERTEX
  5
2C4
  8
0
  6
CONTINUOUS
 62
     7
 10
95.8080273504
 20
166.3051884056
 30
0.0
  0
VERTEX
  5
2C5
  8
0
  6
CONTINUOUS
 62
     7
 10
96.1011439488
 20
166.3220325933
 30
0.0
  0
VERTEX
  5
2C6
  8
0
  6
CONTINUOUS
 62
     7
 10
96.3817598024
 20
166.3651302193
 30
0.0
  0
VERTEX
  5
2C7
  8
0
  6
CONTINUOUS
 62
     7
 10
96.6382061485
 20
166.4326550563
 30
0.0
  0
VERTEX
  5
2C8
  8
0
  6
CONTINUOUS
 62
     7
 10
96.859873387
 20
166.5217537972
 30
0.0
  0
VERTEX
  5
2C9
  8
0
  6
CONTINUOUS
 62
     7
 10
97.0376602012
 20
166.6286786188
 30
0.0
  0
VERTEX
  5
2CA
  8
0
  6
CONTINUOUS
 62
     7
 10
97.1643532402
 20
166.7489564547
 30
0.0
  0
VERTEX
  5
2CB
  8
0
  6
CONTINUOUS
 62
     7
 10
97.2349075456
 20
166.8775883345
 30
0.0
  0
VERTEX
  5
2CC
  8
0
  6
CONTINUOUS
 62
     7
 10
97.2466346369
 20
167.0092645949
 30
0.0
  0
VERTEX
  5
2CD
  8
0
  6
CONTINUOUS
 62
     7
 10
97.1992765973
 20
167.1385903037
 30
0.0
  0
VERTEX
  5
2CE
  8
0
  6
CONTINUOUS
 62
     7
 10
97.0949801654
 20
167.2603068548
 30
0.0
  0
VERTEX
  5
2CF
  8
0
  6
CONTINUOUS
 62
     7
 10
96.9381754409
 20
167.3695005592
 30
0.0
  0
VERTEX
  5
2D0
  8
0
  6
CONTINUOUS
 62
     7
 10
96.7353722112
 20
167.4617924574
 30
0.0
  0
VERTEX
  5
2D1
  8
0
  6
CONTINUOUS
 62
     7
 10
96.4948775228
 20
167.5335022734
 30
0.0
  0
VERTEX
  5
2D2
  8
0
  6
CONTINUOUS
 62
     7
 10
96.2264502751
 20
167.5817856224
 30
0.0
  0
VERTEX
  5
2D3
  8
0
  6
CONTINUOUS
 62
     7
 10
95.9409262085
 20
167.6047325452
 30
0.0
  0
VERTEX
  5
2D4
  8
0
  6
CONTINUOUS
 62
     7
 10
95.6497888188
 20
167.6014382929
 30
0.0
  0
VERTEX
  5
2D5
  8
0
  6
CONTINUOUS
 62
     7
 10
95.3647398401
 20
167.5720319993
 30
0.0
  0
VERTEX
  5
2D6
  8
0
  6
CONTINUOUS
 62
     7
 10
95.0972479949
 20
167.5176753402
 30
0.0
  0
VERTEX
  5
2D7
  8
0
  6
CONTINUOUS
 62
     7
 10
94.8581192157
 20
167.4405184987
 30
0.0
  0
VERTEX
  5
2D8
  8
0
  6
CONTINUOUS
 62
     7
 10
94.65707072
 20
167.3436264478
 30
0.0
  0
VERTEX
  5
2D9
  8
0
  6
CONTINUOUS
 62
     7
 10
94.5023489411
 20
167.2308677951
 30
0.0
  0
VERTEX
  5
2DA
  8
0
  6
CONTINUOUS
 62
     7
 10
94.4003899488
 20
167.1067712574
 30
0.0
  0
VERTEX
  5
2DB
  8
0
  6
CONTINUOUS
 62
     7
 10
94.3555376497
 20
166.9763558747
 30
0.0
  0
VERTEX
  5
2DC
  8
0
  6
CONTINUOUS
 62
     7
 10
94.3698417054
 20
166.8449343618
 30
0.0
  0
VERTEX
  5
2DD
  8
0
  6
CONTINUOUS
 62
     7
 10
94.4429358144
 20
166.7179016051
 30
0.0
  0
VERTEX
  5
2DE
  8
0
  6
CONTINUOUS
 62
     7
 10
94.5720208045
 20
166.6005099706
 30
0.0
  0
VERTEX
  5
2DF
  8
0
  6
CONTINUOUS
 62
     7
 10
94.7519448845
 20
166.4976473278
 30
0.0
  0
SEQEND
  5
66A
  8
0
  6
CONTINUOUS
 62
     7
  0
ARC
  5
8A
  8
0
  6
CONTINUOUS
 62
     7
 10
96.0184299993
 20
164.7236650426
 30
0.0
 40
2.119374849670541
 50
73.3454268513
 51
74.9693272575
  0
ARC
  5
8B
  8
0
  6
CONTINUOUS
 62
     7
 10
95.8491320977
 20
164.2397770374
 30
0.0
 40
2.63088739604019
 50
74.1413792104
 51
117.6519660765
  0
ARC
  5
8C
  8
0
  6
CONTINUOUS
 62
     7
 10
96.2016227301
 20
165.277741848
 30
0.0
 40
1.536129202941319
 50
59.7480822177
 51
73.9686581924
  0
LINE
  5
8D
  8
0
  6
CONTINUOUS
 62
     7
 10
96.5833444904
 20
166.4155120626
 30
0.0
 11
96.5793523539
 21
166.7674631654
 31
0.0
  0
LINE
  5
8E
  8
0
  6
CONTINUOUS
 62
     7
 10
96.5680604223
 20
166.7705299995
 30
0.0
 11
95.5358027929
 21
166.3136628218
 31
0.0
  0
ARC
  5
8F
  8
0
  6
CONTINUOUS
 62
     7
 10
99.0650358538
 20
166.0296127857
 30
0.0
 40
2.160207388335345
 50
73.6845996
 51
75.2677217434
  0
ARC
  5
90
  8
0
  6
CONTINUOUS
 62
     7
 10
98.9047019577
 20
165.5904377547
 30
0.0
 40
2.62607605631632
 50
74.3212258602
 51
116.6007131099
  0
ARC
  5
91
  8
0
  6
CONTINUOUS
 62
     7
 10
99.2473379514
 20
166.5927134432
 30
0.0
 40
1.568659402104569
 50
60.1953008504
 51
74.2972096745
  0
LINE
  5
92
  8
0
  6
CONTINUOUS
 62
     7
 10
96.98261297
 20
166.5905798568
 30
0.0
 11
96.6258449969
 21
166.7541321746
 31
0.0
  0
LINE
  5
93
  8
0
  6
CONTINUOUS
 62
     7
 10
99.6262740887
 20
167.7735939672
 30
0.0
 11
99.6253160308
 21
168.1158959158
 31
0.0
  0
LINE
  5
94
  8
0
  6
CONTINUOUS
 62
     7
 10
99.6143826975
 20
168.1188025823
 30
0.0
 11
98.6372142398
 21
167.6863173357
 31
0.0
  0
LINE
  5
95
  8
0
  6
CONTINUOUS
 62
     7
 10
100.0335688186
 20
167.941353441
 30
0.0
 11
99.6718914288
 21
168.1028282284
 31
0.0
  0
LINE
  5
96
  8
0
  6
CONTINUOUS
 62
     7
 10
82.6239717962
 20
159.9748009212
 30
0.0
 11
89.2509292775
 21
162.9244841226
 31
0.0
  0
LINE
  5
97
  8
0
  6
CONTINUOUS
 62
     7
 10
89.2509292775
 20
162.9244841226
 30
0.0
 11
89.6399816394
 21
161.7423541095
 31
0.0
  0
LINE
  5
98
  8
0
  6
CONTINUOUS
 62
     7
 10
89.3060188534
 20
159.2589009839
 30
0.0
 11
83.7302700564
 21
156.6919772196
 31
0.0
  0
LINE
  5
99
  8
0
  6
CONTINUOUS
 62
     7
 10
83.7302700564
 20
156.6919772196
 30
0.0
 11
82.6239717962
 21
159.9748009212
 31
0.0
  0
LINE
  5
9A
  8
0
  6
CONTINUOUS
 62
     7
 10
79.7003241746
 20
154.1160301704
 30
0.0
 11
82.2117402528
 21
152.7201180517
 31
0.0
  0
LINE
  5
9B
  8
0
  6
CONTINUOUS
 62
     7
 10
79.4034959933
 20
158.9992919386
 30
0.0
 11
79.7003241746
 21
154.1160301704
 31
0.0
  0
LINE
  5
9C
  8
0
  6
CONTINUOUS
 62
     7
 10
80.1772270182
 20
161.2485339468
 30
0.0
 11
79.4034959933
 21
158.9992919386
 31
0.0
  0
LINE
  5
9D
  8
0
  6
CONTINUOUS
 62
     7
 10
80.1772270182
 20
161.2485339468
 30
0.0
 11
82.6239717962
 21
159.9748009212
 31
0.0
  0
LINE
  5
9E
  8
0
  6
CONTINUOUS
 62
     7
 10
83.7302700564
 20
156.6919772196
 30
0.0
 11
83.7704213424
 21
155.8677754443
 31
0.0
  0
LINE
  5
9F
  8
0
  6
CONTINUOUS
 62
     7
 10
86.7943953912
 20
164.1315190975
 30
0.0
 11
80.1772270182
 21
161.2485339468
 31
0.0
  0
LINE
  5
A0
  8
0
  6
CONTINUOUS
 62
     7
 10
89.2509292775
 20
162.9244841226
 30
0.0
 11
86.7943953912
 21
164.1315190975
 31
0.0
  0
POLYLINE
  5
A1
  8
0
  6
CONTINUOUS
 62
     7
 66
     1
 10
0.0
 20
0.0
 30
0.0
  0
VERTEX
  5
2E0
  8
0
  6
CONTINUOUS
 62
     7
 10
85.3122503268
 20
162.3409461511
 30
0.0
  0
VERTEX
  5
2E1
  8
0
  6
CONTINUOUS
 62
     7
 10
85.5367059969
 20
162.2500694656
 30
0.0
  0
VERTEX
  5
2E2
  8
0
  6
CONTINUOUS
 62
     7
 10
85.7989965293
 20
162.1833909272
 30
0.0
  0
VERTEX
  5
2E3
  8
0
  6
CONTINUOUS
 62
     7
 10
86.088257348
 20
162.1437345469
 30
0.0
  0
VERTEX
  5
2E4
  8
0
  6
CONTINUOUS
 62
     7
 10
86.3924512083
 20
162.1327828579
 30
0.0
  0
VERTEX
  5
2E5
  8
0
  6
CONTINUOUS
 62
     7
 10
86.6988843043
 20
162.1510027037
 30
0.0
  0
VERTEX
  5
2E6
  8
0
  6
CONTINUOUS
 62
     7
 10
86.9947738421
 20
162.1976193472
 30
0.0
  0
VERTEX
  5
2E7
  8
0
  6
CONTINUOUS
 62
     7
 10
87.2678038315
 20
162.270654227
 30
0.0
  0
VERTEX
  5
2E8
  8
0
  6
CONTINUOUS
 62
     7
 10
87.5066687239
 20
162.3670176929
 30
0.0
  0
VERTEX
  5
2E9
  8
0
  6
CONTINUOUS
 62
     7
 10
87.7015512425
 20
162.4826519927
 30
0.0
  0
VERTEX
  5
2EA
  8
0
  6
CONTINUOUS
 62
     7
 10
87.8445338763
 20
162.6127154788
 30
0.0
  0
VERTEX
  5
2EB
  8
0
  6
CONTINUOUS
 62
     7
 10
87.9299094529
 20
162.7517993942
 30
0.0
  0
VERTEX
  5
2EC
  8
0
  6
CONTINUOUS
 62
     7
 10
87.9543951671
 20
162.8941610326
 30
0.0
  0
VERTEX
  5
2ED
  8
0
  6
CONTINUOUS
 62
     7
 10
87.9172280822
 20
163.0339674265
 30
0.0
  0
VERTEX
  5
2EE
  8
0
  6
CONTINUOUS
 62
     7
 10
87.8201573188
 20
163.1655350628
 30
0.0
  0
VERTEX
  5
2EF
  8
0
  6
CONTINUOUS
 62
     7
 10
87.667338384
 20
163.28355624
 30
0.0
  0
VERTEX
  5
2F0
  8
0
  6
CONTINUOUS
 62
     7
 10
87.4651324865
 20
163.3833012855
 30
0.0
  0
VERTEX
  5
2F1
  8
0
  6
CONTINUOUS
 62
     7
 10
87.221832003
 20
163.4607969707
 30
0.0
  0
VERTEX
  5
2F2
  8
0
  6
CONTINUOUS
 62
     7
 10
86.9473141644
 20
163.5129739439
 30
0.0
  0
VERTEX
  5
2F3
  8
0
  6
CONTINUOUS
 62
     7
 10
86.65265654
 20
163.5377704588
 30
0.0
  0
VERTEX
  5
2F4
  8
0
  6
CONTINUOUS
 62
     7
 10
86.3497041482
 20
163.5342106212
 30
0.0
  0
VERTEX
  5
2F5
  8
0
  6
CONTINUOUS
 62
     7
 10
86.0506245745
 20
163.502433894
 30
0.0
  0
VERTEX
  5
2F6
  8
0
  6
CONTINUOUS
 62
     7
 10
85.7674402437
 20
163.4436935572
 30
0.0
  0
VERTEX
  5
2F7
  8
0
  6
CONTINUOUS
 62
     7
 10
85.5115800818
 20
163.3603098823
 30
0.0
  0
VERTEX
  5
2F8
  8
0
  6
CONTINUOUS
 62
     7
 10
85.2934315434
 20
163.2555912968
 30
0.0
  0
VERTEX
  5
2F9
  8
0
  6
CONTINUOUS
 62
     7
 10
85.1219328049
 20
163.1337146926
 30
0.0
  0
VERTEX
  5
2FA
  8
0
  6
CONTINUOUS
 62
     7
 10
85.004205648
 20
162.99957092
 30
0.0
  0
VERTEX
  5
2FB
  8
0
  6
CONTINUOUS
 62
     7
 10
84.9452484176
 20
162.8585832075
 30
0.0
  0
VERTEX
  5
2FC
  8
0
  6
CONTINUOUS
 62
     7
 10
84.9477022634
 20
162.7164935118
 30
0.0
  0
VERTEX
  5
2FD
  8
0
  6
CONTINUOUS
 62
     7
 10
85.0117052713
 20
162.5791351795
 30
0.0
  0
VERTEX
  5
2FE
  8
0
  6
CONTINUOUS
 62
     7
 10
85.1348512442
 20
162.4521896924
 30
0.0
  0
VERTEX
  5
2FF
  8
0
  6
CONTINUOUS
 62
     7
 10
85.3122503268
 20
162.3409461511
 30
0.0
  0
SEQEND
  5
669
  8
0
  6
CONTINUOUS
 62
     7
  0
POLYLINE
  5
A2
  8
0
  6
CONTINUOUS
 62
     7
 66
     1
 10
0.0
 20
0.0
 30
0.0
  0
VERTEX
  5
300
  8
0
  6
CONTINUOUS
 62
     7
 10
81.8601074399
 20
160.8208200165
 30
0.0
  0
VERTEX
  5
301
  8
0
  6
CONTINUOUS
 62
     7
 10
82.084779688
 20
160.7273704989
 30
0.0
  0
VERTEX
  5
302
  8
0
  6
CONTINUOUS
 62
     7
 10
82.3486055977
 20
160.6588026002
 30
0.0
  0
VERTEX
  5
303
  8
0
  6
CONTINUOUS
 62
     7
 10
82.6406578996
 20
160.6180219788
 30
0.0
  0
VERTEX
  5
304
  8
0
  6
CONTINUOUS
 62
     7
 10
82.9487814367
 20
160.6067597401
 30
0.0
  0
VERTEX
  5
305
  8
0
  6
CONTINUOUS
 62
     7
 10
83.2601153514
 20
160.6254962161
 30
0.0
  0
VERTEX
  5
306
  8
0
  6
CONTINUOUS
 62
     7
 10
83.56166726
 20
160.6734337282
 30
0.0
  0
VERTEX
  5
307
  8
0
  6
CONTINUOUS
 62
     7
 10
83.840884463
 20
160.7485380178
 30
0.0
  0
VERTEX
  5
308
  8
0
  6
CONTINUOUS
 62
     7
 10
84.0861987378
 20
160.8476293489
 30
0.0
  0
VERTEX
  5
309
  8
0
  6
CONTINUOUS
 62
     7
 10
84.287524057
 20
160.9665334816
 30
0.0
  0
VERTEX
  5
30A
  8
0
  6
CONTINUOUS
 62
     7
 10
84.4366798584
 20
161.1002714197
 30
0.0
  0
VERTEX
  5
30B
  8
0
  6
CONTINUOUS
 62
     7
 10
84.5277039882
 20
161.243278754
 30
0.0
  0
VERTEX
  5
30C
  8
0
  6
CONTINUOUS
 62
     7
 10
84.5570892701
 20
161.3896512054
 30
0.0
  0
VERTEX
  5
30D
  8
0
  6
CONTINUOUS
 62
     7
 10
84.5238781495
 20
161.5333911537
 30
0.0
  0
VERTEX
  5
30E
  8
0
  6
CONTINUOUS
 62
     7
 10
84.4296655062
 20
161.668655773
 30
0.0
  0
VERTEX
  5
30F
  8
0
  6
CONTINUOUS
 62
     7
 10
84.2784968539
 20
161.7899890773
 30
0.0
  0
VERTEX
  5
310
  8
0
  6
CONTINUOUS
 62
     7
 10
84.0766733047
 20
161.8925306831
 30
0.0
  0
VERTEX
  5
311
  8
0
  6
CONTINUOUS
 62
     7
 10
83.8324755266
 20
161.9721975602
 30
0.0
  0
VERTEX
  5
312
  8
0
  6
CONTINUOUS
 62
     7
 10
83.5558173046
 20
162.0258352851
 30
0.0
  0
VERTEX
  5
313
  8
0
  6
CONTINUOUS
 62
     7
 10
83.2578623419
 20
162.0513257508
 30
0.0
  0
VERTEX
  5
314
  8
0
  6
CONTINUOUS
 62
     7
 10
82.9505858334
 20
162.0476662983
 30
0.0
  0
VERTEX
  5
315
  8
0
  6
CONTINUOUS
 62
     7
 10
82.6463262012
 20
162.0150004862
 30
0.0
  0
VERTEX
  5
316
  8
0
  6
CONTINUOUS
 62
     7
 10
82.3573077337
 20
161.9546148866
 30
0.0
  0
VERTEX
  5
317
  8
0
  6
CONTINUOUS
 62
     7
 10
82.0951944951
 20
161.8688951771
 30
0.0
  0
VERTEX
  5
318
  8
0
  6
CONTINUOUS
 62
     7
 10
81.8706215645
 20
161.7612398758
 30
0.0
  0
VERTEX
  5
319
  8
0
  6
CONTINUOUS
 62
     7
 10
81.6927866977
 20
161.635941416
 30
0.0
  0
VERTEX
  5
31A
  8
0
  6
CONTINUOUS
 62
     7
 10
81.5690731313
 20
161.4980276361
 30
0.0
  0
VERTEX
  5
31B
  8
0
  6
CONTINUOUS
 62
     7
 10
81.5047239423
 20
161.353071815
 30
0.0
  0
VERTEX
  5
31C
  8
0
  6
CONTINUOUS
 62
     7
 10
81.5026076854
 20
161.2069776236
 30
0.0
  0
VERTEX
  5
31D
  8
0
  6
CONTINUOUS
 62
     7
 10
81.5630568185
 20
161.0657430124
 30
0.0
  0
VERTEX
  5
31E
  8
0
  6
CONTINUOUS
 62
     7
 10
81.6838185876
 20
160.9352106174
 30
0.0
  0
VERTEX
  5
31F
  8
0
  6
CONTINUOUS
 62
     7
 10
81.8601074399
 20
160.8208200165
 30
0.0
  0
SEQEND
  5
668
  8
0
  6
CONTINUOUS
 62
     7
  0
ARC
  5
A3
  8
0
  6
CONTINUOUS
 62
     7
 10
83.388172568
 20
159.308893628
 30
0.0
 40
1.948919127527002
 50
71.8844830357
 51
73.69411802
  0
ARC
  5
A4
  8
0
  6
CONTINUOUS
 62
     7
 10
83.1635303904
 20
158.7218827896
 30
0.0
 40
2.575890888103522
 50
72.5642283074
 51
122.9156823066
  0
ARC
  5
A5
  8
0
  6
CONTINUOUS
 62
     7
 10
83.5719193988
 20
159.8176105488
 30
0.0
 40
1.408381610067798
 50
57.8391987815
 51
72.5541842721
  0
LINE
  5
A6
  8
0
  6
CONTINUOUS
 62
     7
 10
83.9661316698
 20
160.7988486711
 30
0.0
 11
83.895264824
 21
160.767370602
 31
0.0
  0
LINE
  5
A7
  8
0
  6
CONTINUOUS
 62
     7
 10
83.9709921471
 20
160.7963530272
 30
0.0
 11
83.9661316698
 21
160.7988486711
 31
0.0
  0
LINE
  5
A8
  8
0
  6
CONTINUOUS
 62
     7
 10
83.9661316698
 20
160.7988486711
 30
0.0
 11
83.9482459328
 21
161.1756021856
 31
0.0
  0
LINE
  5
A9
  8
0
  6
CONTINUOUS
 62
     7
 10
83.9353613164
 20
161.1794203558
 30
0.0
 11
82.6627755877
 21
160.616186301
 31
0.0
  0
ARC
  5
AA
  8
0
  6
CONTINUOUS
 62
     7
 10
86.7684526654
 20
160.7593381767
 30
0.0
 40
1.993367270070475
 50
72.2833148097
 51
74.0415449081
  0
ARC
  5
AB
  8
0
  6
CONTINUOUS
 62
     7
 10
86.5687799893
 20
160.1257810609
 30
0.0
 40
2.657465511396412
 50
73.658044866
 51
120.73778477
  0
ARC
  5
AC
  8
0
  6
CONTINUOUS
 62
     7
 10
86.9522088465
 20
161.2801454656
 30
0.0
 40
1.441436488340869
 50
58.3586604986
 51
72.9413374297
  0
LINE
  5
AD
  8
0
  6
CONTINUOUS
 62
     7
 10
84.3227661951
 20
160.9930608664
 30
0.0
 11
83.994157474
 21
161.1612078722
 31
0.0
  0
LINE
  5
AE
  8
0
  6
CONTINUOUS
 62
     7
 10
87.3430258922
 20
162.2988182089
 30
0.0
 11
87.3208505865
 21
162.2889682459
 31
0.0
  0
LINE
  5
AF
  8
0
  6
CONTINUOUS
 62
     7
 10
87.345005123
 20
162.2978314471
 30
0.0
 11
87.3430258922
 21
162.2988182089
 31
0.0
  0
LINE
  5
B0
  8
0
  6
CONTINUOUS
 62
     7
 10
87.3430258922
 20
162.2988182089
 30
0.0
 11
87.3289497784
 21
162.6722810983
 31
0.0
  0
LINE
  5
B1
  8
0
  6
CONTINUOUS
 62
     7
 10
87.3165096147
 20
162.6758836768
 30
0.0
 11
86.1101248556
 21
162.1419495267
 31
0.0
  0
LINE
  5
B2
  8
0
  6
CONTINUOUS
 62
     7
 10
87.7123292989
 20
162.4905981315
 30
0.0
 11
87.3750552042
 21
162.6581658238
 31
0.0
  0
LINE
  5
B3
  8
0
  6
CONTINUOUS
 62
     7
 10
83.0615530615
 20
155.5390151632
 30
0.0
 11
89.3071858138
 21
152.1641318914
 31
0.0
  0
LINE
  5
B4
  8
0
  6
CONTINUOUS
 62
     7
 10
89.3071858138
 20
152.1641318914
 30
0.0
 11
88.2299421985
 21
148.6786793768
 31
0.0
  0
LINE
  5
B5
  8
0
  6
CONTINUOUS
 62
     7
 10
88.2299421985
 20
148.6786793768
 30
0.0
 11
82.0370471798
 21
152.1406425133
 31
0.0
  0
LINE
  5
B6
  8
0
  6
CONTINUOUS
 62
     7
 10
82.0370471798
 20
152.1406425133
 30
0.0
 11
83.0615530615
 21
155.5390151632
 31
0.0
  0
LINE
  5
B7
  8
0
  6
CONTINUOUS
 62
     7
 10
88.4191336611
 20
143.5078712577
 30
0.0
 11
93.5960846154
 21
146.2186640782
 31
0.0
  0
LINE
  5
B8
  8
0
  6
CONTINUOUS
 62
     7
 10
88.2299421985
 20
148.6786793768
 30
0.0
 11
88.4191336611
 21
143.5078712577
 31
0.0
  0
LINE
  5
B9
  8
0
  6
CONTINUOUS
 62
     7
 10
89.3071858138
 20
152.1641318914
 30
0.0
 11
92.286164277
 21
153.6230348971
 31
0.0
  0
LINE
  5
BA
  8
0
  6
CONTINUOUS
 62
     7
 10
93.4894765602
 20
151.3185333544
 30
0.0
 11
92.286164277
 21
153.6230348971
 31
0.0
  0
LINE
  5
BB
  8
0
  6
CONTINUOUS
 62
     7
 10
93.4894765602
 20
151.3185333544
 30
0.0
 11
93.5960846154
 21
146.2186640782
 31
0.0
  0
LINE
  5
BC
  8
0
  6
CONTINUOUS
 62
     7
 10
86.0314213978
 20
156.916385991
 30
0.0
 11
83.0615530615
 21
155.5390151632
 31
0.0
  0
LINE
  5
BD
  8
0
  6
CONTINUOUS
 62
     7
 10
92.286164277
 20
153.6230348971
 30
0.0
 11
86.0314213978
 21
156.916385991
 31
0.0
  0
POLYLINE
  5
BE
  8
0
  6
CONTINUOUS
 62
     7
 66
     1
 10
0.0
 20
0.0
 30
0.0
  0
VERTEX
  5
320
  8
0
  6
CONTINUOUS
 62
     7
 10
87.1043447479
 20
154.8723679416
 30
0.0
  0
VERTEX
  5
321
  8
0
  6
CONTINUOUS
 62
     7
 10
87.3256810196
 20
154.9994934605
 30
0.0
  0
VERTEX
  5
322
  8
0
  6
CONTINUOUS
 62
     7
 10
87.4934659149
 20
155.1445406051
 30
0.0
  0
VERTEX
  5
323
  8
0
  6
CONTINUOUS
 62
     7
 10
87.6009758346
 20
155.3014589353
 30
0.0
  0
VERTEX
  5
324
  8
0
  6
CONTINUOUS
 62
     7
 10
87.6440362586
 20
155.4637534398
 30
0.0
  0
VERTEX
  5
325
  8
0
  6
CONTINUOUS
 62
     7
 10
87.6211519691
 20
155.62476018
 30
0.0
  0
VERTEX
  5
326
  8
0
  6
CONTINUOUS
 62
     7
 10
87.5335289714
 20
155.7779241616
 30
0.0
  0
VERTEX
  5
327
  8
0
  6
CONTINUOUS
 62
     7
 10
87.3849786831
 20
155.9170590302
 30
0.0
  0
VERTEX
  5
328
  8
0
  6
CONTINUOUS
 62
     7
 10
87.1817278481
 20
156.0365889515
 30
0.0
  0
VERTEX
  5
329
  8
0
  6
CONTINUOUS
 62
     7
 10
86.9321392275
 20
156.1317549464
 30
0.0
  0
VERTEX
  5
32A
  8
0
  6
CONTINUOUS
 62
     7
 10
86.6463632046
 20
156.1987893619
 30
0.0
  0
VERTEX
  5
32B
  8
0
  6
CONTINUOUS
 62
     7
 10
86.3359365511
 20
156.2350511414
 30
0.0
  0
VERTEX
  5
32C
  8
0
  6
CONTINUOUS
 62
     7
 10
86.0133307507
 20
156.2391132986
 30
0.0
  0
VERTEX
  5
32D
  8
0
  6
CONTINUOUS
 62
     7
 10
85.6914865482
 20
156.2108171253
 30
0.0
  0
VERTEX
  5
32E
  8
0
  6
CONTINUOUS
 62
     7
 10
85.3833181599
 20
156.1512738637
 30
0.0
  0
VERTEX
  5
32F
  8
0
  6
CONTINUOUS
 62
     7
 10
85.1012357508
 20
156.0628301077
 30
0.0
  0
VERTEX
  5
330
  8
0
  6
CONTINUOUS
 62
     7
 10
84.8566610201
 20
155.9489808814
 30
0.0
  0
VERTEX
  5
331
  8
0
  6
CONTINUOUS
 62
     7
 10
84.6595889622
 20
155.8142525233
 30
0.0
  0
VERTEX
  5
332
  8
0
  6
CONTINUOUS
 62
     7
 10
84.5181760175
 20
155.6640361432
 30
0.0
  0
VERTEX
  5
333
  8
0
  6
CONTINUOUS
 62
     7
 10
84.438394046
 20
155.504385892
 30
0.0
  0
VERTEX
  5
334
  8
0
  6
CONTINUOUS
 62
     7
 10
84.4237579599
 20
155.3417881295
 30
0.0
  0
VERTEX
  5
335
  8
0
  6
CONTINUOUS
 62
     7
 10
84.475141907
 20
155.1829051673
 30
0.0
  0
VERTEX
  5
336
  8
0
  6
CONTINUOUS
 62
     7
 10
84.5906986281
 20
155.0343014889
 30
0.0
  0
VERTEX
  5
337
  8
0
  6
CONTINUOUS
 62
     7
 10
84.7658911394
 20
154.9021631206
 30
0.0
  0
VERTEX
  5
338
  8
0
  6
CONTINUOUS
 62
     7
 10
84.9936484229
 20
154.7920305226
 30
0.0
  0
VERTEX
  5
339
  8
0
  6
CONTINUOUS
 62
     7
 10
85.2646410291
 20
154.7085519391
 30
0.0
  0
VERTEX
  5
33A
  8
0
  6
CONTINUOUS
 62
     7
 10
85.5676547762
 20
154.6552649868
 30
0.0
  0
VERTEX
  5
33B
  8
0
  6
CONTINUOUS
 62
     7
 10
85.8900765356
 20
154.6344371667
 30
0.0
  0
VERTEX
  5
33C
  8
0
  6
CONTINUOUS
 62
     7
 10
86.2184420618
 20
154.6469559078
 30
0.0
  0
VERTEX
  5
33D
  8
0
  6
CONTINUOUS
 62
     7
 10
86.5390320345
 20
154.692288039
 30
0.0
  0
VERTEX
  5
33E
  8
0
  6
CONTINUOUS
 62
     7
 10
86.8384765949
 20
154.7685036088
 30
0.0
  0
VERTEX
  5
33F
  8
0
  6
CONTINUOUS
 62
     7
 10
87.1043447479
 20
154.8723679416
 30
0.0
  0
SEQEND
  5
667
  8
0
  6
CONTINUOUS
 62
     7
  0
POLYLINE
  5
BF
  8
0
  6
CONTINUOUS
 62
     7
 66
     1
 10
0.0
 20
0.0
 30
0.0
  0
VERTEX
  5
340
  8
0
  6
CONTINUOUS
 62
     7
 10
90.3647450634
 20
153.1334066309
 30
0.0
  0
VERTEX
  5
341
  8
0
  6
CONTINUOUS
 62
     7
 10
90.5857681481
 20
153.2643818367
 30
0.0
  0
VERTEX
  5
342
  8
0
  6
CONTINUOUS
 62
     7
 10
90.7519151476
 20
153.4138162062
 30
0.0
  0
VERTEX
  5
343
  8
0
  6
CONTINUOUS
 62
     7
 10
90.8565373245
 20
153.5754745202
 30
0.0
  0
VERTEX
  5
344
  8
0
  6
CONTINUOUS
 62
     7
 10
90.8955873749
 20
153.742664464
 30
0.0
  0
VERTEX
  5
345
  8
0
  6
CONTINUOUS
 62
     7
 10
90.8677429368
 20
153.9085208276
 30
0.0
  0
VERTEX
  5
346
  8
0
  6
CONTINUOUS
 62
     7
 10
90.7744204023
 20
154.0662916038
 30
0.0
  0
VERTEX
  5
347
  8
0
  6
CONTINUOUS
 62
     7
 10
90.6196681469
 20
154.2096060451
 30
0.0
  0
VERTEX
  5
348
  8
0
  6
CONTINUOUS
 62
     7
 10
90.4099683151
 20
154.3327223259
 30
0.0
  0
VERTEX
  5
349
  8
0
  6
CONTINUOUS
 62
     7
 10
90.153944426
 20
154.4307410728
 30
0.0
  0
VERTEX
  5
34A
  8
0
  6
CONTINUOUS
 62
     7
 10
89.862004852
 20
154.4997835184
 30
0.0
  0
VERTEX
  5
34B
  8
0
  6
CONTINUOUS
 62
     7
 10
89.5459312292
 20
154.5371308277
 30
0.0
  0
VERTEX
  5
34C
  8
0
  6
CONTINUOUS
 62
     7
 10
89.218416752
 20
154.5413145848
 30
0.0
  0
VERTEX
  5
34D
  8
0
  6
CONTINUOUS
 62
     7
 10
88.8925948878
 20
154.5121714347
 30
0.0
  0
VERTEX
  5
34E
  8
0
  6
CONTINUOUS
 62
     7
 10
88.5815368249
 20
154.4508448629
 30
0.0
  0
VERTEX
  5
34F
  8
0
  6
CONTINUOUS
 62
     7
 10
88.2977674348
 20
154.3597503231
 30
0.0
  0
VERTEX
  5
350
  8
0
  6
CONTINUOUS
 62
     7
 10
88.0527767513
 20
154.2424859922
 30
0.0
  0
VERTEX
  5
351
  8
0
  6
CONTINUOUS
 62
     7
 10
87.8565800833
 20
154.103711896
 30
0.0
  0
VERTEX
  5
352
  8
0
  6
CONTINUOUS
 62
     7
 10
87.7173048199
 20
153.9489787835
 30
0.0
  0
VERTEX
  5
353
  8
0
  6
CONTINUOUS
 62
     7
 10
87.6408435269
 20
153.7845213573
 30
0.0
  0
VERTEX
  5
354
  8
0
  6
CONTINUOUS
 62
     7
 10
87.630583494
 20
153.6170208107
 30
0.0
  0
VERTEX
  5
355
  8
0
  6
CONTINUOUS
 62
     7
 10
87.6872278345
 20
153.4533403933
 30
0.0
  0
VERTEX
  5
356
  8
0
  6
CONTINUOUS
 62
     7
 10
87.8087206786
 20
153.3002432933
 30
0.0
  0
VERTEX
  5
357
  8
0
  6
CONTINUOUS
 62
     7
 10
87.9902845474
 20
153.1641043965
 30
0.0
  0
VERTEX
  5
358
  8
0
  6
CONTINUOUS
 62
     7
 10
88.224586636
 20
153.050634073
 30
0.0
  0
VERTEX
  5
359
  8
0
  6
CONTINUOUS
 62
     7
 10
88.5020259493
 20
152.9646232461
 30
0.0
  0
VERTEX
  5
35A
  8
0
  6
CONTINUOUS
 62
     7
 10
88.8111166765
 20
152.9097190797
 30
0.0
  0
VERTEX
  5
35B
  8
0
  6
CONTINUOUS
 62
     7
 10
89.13898878
 20
152.8882588589
 30
0.0
  0
VERTEX
  5
35C
  8
0
  6
CONTINUOUS
 62
     7
 10
89.4719455589
 20
152.9011576597
 30
0.0
  0
VERTEX
  5
35D
  8
0
  6
CONTINUOUS
 62
     7
 10
89.7960719313
 20
152.9478657943
 30
0.0
  0
VERTEX
  5
35E
  8
0
  6
CONTINUOUS
 62
     7
 10
90.0978479103
 20
153.0263936243
 30
0.0
  0
VERTEX
  5
35F
  8
0
  6
CONTINUOUS
 62
     7
 10
90.3647450634
 20
153.1334066309
 30
0.0
  0
SEQEND
  5
666
  8
0
  6
CONTINUOUS
 62
     7
  0
ARC
  5
C0
  8
0
  6
CONTINUOUS
 62
     7
 10
88.6667271317
 20
152.3957958366
 30
0.0
 40
1.187964219684484
 50
125.5242339589
 51
128.2219379008
  0
LINE
  5
C1
  8
0
  6
CONTINUOUS
 62
     7
 10
87.9317226854
 20
153.329084351
 30
0.0
 11
87.8612403827
 21
153.2683677138
 31
0.0
  0
ARC
  5
C2
  8
0
  6
CONTINUOUS
 62
     7
 10
89.3353804697
 20
151.1997744971
 30
0.0
 40
2.551593237936836
 50
58.0209498384
 51
109.9141000717
  0
ARC
  5
C3
  8
0
  6
CONTINUOUS
 62
     7
 10
88.9906780196
 20
151.8850404438
 30
0.0
 40
1.792189437551851
 50
107.0137950803
 51
124.4653637148
  0
LINE
  5
C4
  8
0
  6
CONTINUOUS
 62
     7
 10
82.31279837
 20
147.0632313669
 30
0.0
 11
88.4191336611
 21
143.5078712577
 31
0.0
  0
LINE
  5
C5
  8
0
  6
CONTINUOUS
 62
     7
 10
82.0370471798
 20
152.1406425133
 30
0.0
 11
82.31279837
 21
147.0632313669
 31
0.0
  0
LINE
  5
C6
  8
0
  6
CONTINUOUS
 62
     7
 10
85.3928205601
 20
149.7398777555
 30
0.0
 11
85.5704920397
 21
145.7758242804
 31
0.0
  0
LINE
  5
C7
  8
0
  6
CONTINUOUS
 62
     7
 10
85.5704920397
 20
145.7758242804
 30
0.0
 11
88.0588659344
 21
144.3340335363
 31
0.0
  0
LINE
  5
C8
  8
0
  6
CONTINUOUS
 62
     7
 10
88.0588659344
 20
144.3340335363
 30
0.0
 11
87.9088211633
 21
148.3272402848
 31
0.0
  0
LINE
  5
C9
  8
0
  6
CONTINUOUS
 62
     7
 10
87.9088211633
 20
148.3272402848
 30
0.0
 11
85.3928205601
 21
149.7398777555
 31
0.0
  0
LINE
  5
CA
  8
0
  6
CONTINUOUS
 62
     7
 10
82.3888947118
 20
151.4264664658
 30
0.0
 11
82.5986613155
 21
147.4977351398
 31
0.0
  0
LINE
  5
CB
  8
0
  6
CONTINUOUS
 62
     7
 10
82.5986613155
 20
147.4977351398
 30
0.0
 11
85.0184246554
 21
146.0956980931
 31
0.0
  0
LINE
  5
CC
  8
0
  6
CONTINUOUS
 62
     7
 10
85.0184246554
 20
146.0956980931
 30
0.0
 11
84.8347169643
 21
150.0532314371
 31
0.0
  0
LINE
  5
CD
  8
0
  6
CONTINUOUS
 62
     7
 10
84.8347169643
 20
150.0532314371
 30
0.0
 11
82.3888947118
 21
151.4264664658
 31
0.0
  0
LINE
  5
CE
  8
0
  6
CONTINUOUS
 62
     7
 10
87.9317226854
 20
153.329084351
 30
0.0
 11
88.6737311759
 21
152.9295711334
 31
0.0
  0
LINE
  5
CF
  8
0
  6
CONTINUOUS
 62
     7
 10
89.7104978978
 20
152.9320593135
 30
0.0
 11
88.4662799037
 21
153.598793517
 31
0.0
  0
LINE
  5
D0
  8
0
  6
CONTINUOUS
 62
     7
 10
89.0460610663
 20
152.8908167894
 30
0.0
 11
88.4805695536
 21
153.1948714724
 31
0.0
  0
LINE
  5
D1
  8
0
  6
CONTINUOUS
 62
     7
 10
88.4805695536
 20
153.1948714724
 30
0.0
 11
88.3227793028
 21
153.1185305487
 31
0.0
  0
LINE
  5
D2
  8
0
  6
CONTINUOUS
 62
     7
 10
86.687006261
 20
146.343356697
 30
0.0
 11
88.0119309436
 21
145.5831163792
 31
0.0
  0
LINE
  5
D3
  8
0
  6
CONTINUOUS
 62
     7
 10
86.5737663342
 20
149.0768214287
 30
0.0
 11
86.687006261
 21
146.343356697
 31
0.0
  0
LINE
  5
D4
  8
0
  6
CONTINUOUS
 62
     7
 10
87.9021862065
 20
146.2301262013
 30
0.0
 11
87.9893198268
 21
146.18487583
 31
0.0
  0
ARC
  5
D5
  8
0
  6
CONTINUOUS
 62
     7
 10
88.9403824643
 20
148.0507102221
 30
0.0
 40
2.095800001597785
 50
157.9213135968
 51
240.3058544335
  0
LINE
  5
D6
  8
0
  6
CONTINUOUS
 62
     7
 10
88.4805695536
 20
153.1948714724
 30
0.0
 11
88.4662799037
 21
153.598793517
 31
0.0
  0
ARC
  5
D7
  8
0
  6
CONTINUOUS
 62
     7
 10
85.4775387948
 20
154.0783827296
 30
0.0
 40
1.215772033243553
 50
124.6067905354
 51
127.224759431
  0
LINE
  5
D8
  8
0
  6
CONTINUOUS
 62
     7
 10
84.7420656906
 20
155.0464637953
 30
0.0
 11
84.6682420699
 21
154.9850100427
 31
0.0
  0
ARC
  5
D9
  8
0
  6
CONTINUOUS
 62
     7
 10
86.13290285
 20
152.9093770852
 30
0.0
 40
2.547392581101371
 50
59.2756129799
 51
109.6557646493
  0
ARC
  5
DA
  8
0
  6
CONTINUOUS
 62
     7
 10
85.8019472354
 20
153.5506968417
 30
0.0
 40
1.834630070658136
 50
106.657820791
 51
123.5860084306
  0
LINE
  5
DB
  8
0
  6
CONTINUOUS
 62
     7
 10
86.687006261
 20
146.343356697
 30
0.0
 11
85.5704920397
 21
145.7758242804
 31
0.0
  0
LINE
  5
DC
  8
0
  6
CONTINUOUS
 62
     7
 10
88.4662799037
 20
153.598793517
 30
0.0
 11
87.9764637959
 21
153.3626440741
 31
0.0
  0
LINE
  5
DD
  8
0
  6
CONTINUOUS
 62
     7
 10
84.7420656906
 20
155.0464637953
 30
0.0
 11
85.4328473932
 21
154.6745321743
 31
0.0
  0
LINE
  5
DE
  8
0
  6
CONTINUOUS
 62
     7
 10
86.4542966791
 20
154.6769470554
 30
0.0
 11
85.2760407551
 21
155.3083344238
 31
0.0
  0
LINE
  5
DF
  8
0
  6
CONTINUOUS
 62
     7
 10
85.7985976216
 20
154.6369198627
 30
0.0
 11
85.2938153565
 21
154.9083322679
 31
0.0
  0
LINE
  5
E0
  8
0
  6
CONTINUOUS
 62
     7
 10
85.2938153565
 20
154.9083322679
 30
0.0
 11
85.1362877703
 21
154.8342056487
 31
0.0
  0
LINE
  5
E1
  8
0
  6
CONTINUOUS
 62
     7
 10
83.7131675506
 20
148.0497420605
 30
0.0
 11
84.9609533878
 21
147.333763927
 31
0.0
  0
LINE
  5
E2
  8
0
  6
CONTINUOUS
 62
     7
 10
83.5776751561
 20
150.7590112836
 30
0.0
 11
83.7131675506
 21
148.0497420605
 31
0.0
  0
LINE
  5
E3
  8
0
  6
CONTINUOUS
 62
     7
 10
84.8895072311
 20
147.9507128203
 30
0.0
 11
84.9334236934
 21
147.9268239079
 31
0.0
  0
ARC
  5
E4
  8
0
  6
CONTINUOUS
 62
     7
 10
85.9466145504
 20
149.7646724033
 30
0.0
 40
2.099505954534822
 50
158.702584821
 51
239.7679786823
  0
LINE
  5
E5
  8
0
  6
CONTINUOUS
 62
     7
 10
85.2938153565
 20
154.9083322679
 30
0.0
 11
85.2760407551
 21
155.3083344238
 31
0.0
  0
LINE
  5
E6
  8
0
  6
CONTINUOUS
 62
     7
 10
83.7131675506
 20
148.0497420605
 30
0.0
 11
82.5986613155
 21
147.4977351398
 31
0.0
  0
LINE
  5
E7
  8
0
  6
CONTINUOUS
 62
     7
 10
85.2760407551
 20
155.3083344238
 30
0.0
 11
84.7870516495
 21
155.0790470784
 31
0.0
  0
LINE
  5
E8
  8
0
  6
CONTINUOUS
 62
     7
 10
101.5500668742
 20
168.3988756007
 30
0.0
 11
107.21699284
 21
170.9212452359
 31
0.0
  0
LINE
  5
E9
  8
0
  6
CONTINUOUS
 62
     7
 10
107.21699284
 20
170.9212452359
 30
0.0
 11
108.1385636521
 21
167.9288946561
 31
0.0
  0
LINE
  5
EA
  8
0
  6
CONTINUOUS
 62
     7
 10
108.1385636521
 20
167.9288946561
 30
0.0
 11
104.6787938662
 21
166.3361103313
 31
0.0
  0
LINE
  5
EB
  8
0
  6
CONTINUOUS
 62
     7
 10
101.9050691379
 20
167.2704684652
 30
0.0
 11
101.5500668742
 21
168.3988756007
 31
0.0
  0
LINE
  5
EC
  8
0
  6
CONTINUOUS
 62
     7
 10
99.086158573
 20
169.4868264937
 30
0.0
 11
99.0806413535
 21
169.4739231049
 31
0.0
  0
LINE
  5
ED
  8
0
  6
CONTINUOUS
 62
     7
 10
99.086158573
 20
169.4868264937
 30
0.0
 11
101.5500668742
 21
168.3988756007
 31
0.0
  0
LINE
  5
EE
  8
0
  6
CONTINUOUS
 62
     7
 10
104.7544130087
 20
171.9563863489
 30
0.0
 11
99.086158573
 21
169.4868264937
 31
0.0
  0
LINE
  5
EF
  8
0
  6
CONTINUOUS
 62
     7
 10
107.21699284
 20
170.9212452359
 30
0.0
 11
104.7544130087
 21
171.9563863489
 31
0.0
  0
POLYLINE
  5
F0
  8
0
  6
CONTINUOUS
 62
     7
 66
     1
 10
0.0
 20
0.0
 30
0.0
  0
VERTEX
  5
360
  8
0
  6
CONTINUOUS
 62
     7
 10
103.6626859556
 20
170.421427665
 30
0.0
  0
VERTEX
  5
361
  8
0
  6
CONTINUOUS
 62
     7
 10
103.8846262739
 20
170.3436255693
 30
0.0
  0
VERTEX
  5
362
  8
0
  6
CONTINUOUS
 62
     7
 10
104.1377526896
 20
170.28654623
 30
0.0
  0
VERTEX
  5
363
  8
0
  6
CONTINUOUS
 62
     7
 10
104.4115807337
 20
170.2526013677
 30
0.0
  0
VERTEX
  5
364
  8
0
  6
CONTINUOUS
 62
     7
 10
104.6947246946
 20
170.2432273254
 30
0.0
  0
VERTEX
  5
365
  8
0
  6
CONTINUOUS
 62
     7
 10
104.975384286
 20
170.2588225877
 30
0.0
  0
VERTEX
  5
366
  8
0
  6
CONTINUOUS
 62
     7
 10
105.2418703365
 20
170.2987258522
 30
0.0
  0
VERTEX
  5
367
  8
0
  6
CONTINUOUS
 62
     7
 10
105.4831092127
 20
170.3612477294
 30
0.0
  0
VERTEX
  5
368
  8
0
  6
CONTINUOUS
 62
     7
 10
105.6891307328
 20
170.4437501171
 30
0.0
  0
VERTEX
  5
369
  8
0
  6
CONTINUOUS
 62
     7
 10
105.8514838071
 20
170.5427661161
 30
0.0
  0
VERTEX
  5
36A
  8
0
  6
CONTINUOUS
 62
     7
 10
105.963588335
 20
170.654156259
 30
0.0
  0
VERTEX
  5
36B
  8
0
  6
CONTINUOUS
 62
     7
 10
106.0209932024
 20
170.7732941337
 30
0.0
  0
VERTEX
  5
36C
  8
0
  6
CONTINUOUS
 62
     7
 10
106.0215352645
 20
170.895262685
 30
0.0
  0
VERTEX
  5
36D
  8
0
  6
CONTINUOUS
 62
     7
 10
105.9654007858
 20
171.0150658286
 30
0.0
  0
VERTEX
  5
36E
  8
0
  6
CONTINUOUS
 62
     7
 10
105.8550760024
 20
171.1278301403
 30
0.0
  0
VERTEX
  5
36F
  8
0
  6
CONTINUOUS
 62
     7
 10
105.6952223647
 20
171.2290016929
 30
0.0
  0
VERTEX
  5
370
  8
0
  6
CONTINUOUS
 62
     7
 10
105.4924584523
 20
171.3145190304
 30
0.0
  0
VERTEX
  5
371
  8
0
  6
CONTINUOUS
 62
     7
 10
105.2550817548
 20
171.3809685833
 30
0.0
  0
VERTEX
  5
372
  8
0
  6
CONTINUOUS
 62
     7
 10
104.9927248916
 20
171.4257124827
 30
0.0
  0
VERTEX
  5
373
  8
0
  6
CONTINUOUS
 62
     7
 10
104.715979395
 20
171.4469776446
 30
0.0
  0
VERTEX
  5
374
  8
0
  6
CONTINUOUS
 62
     7
 10
104.4359833298
 20
171.4439251851
 30
0.0
  0
VERTEX
  5
375
  8
0
  6
CONTINUOUS
 62
     7
 10
104.1639964536
 20
171.416673924
 30
0.0
  0
VERTEX
  5
376
  8
0
  6
CONTINUOUS
 62
     7
 10
103.9109724202
 20
171.3663026331
 30
0.0
  0
VERTEX
  5
377
  8
0
  6
CONTINUOUS
 62
     7
 10
103.6871402502
 20
171.2948058647
 30
0.0
  0
VERTEX
  5
378
  8
0
  6
CONTINUOUS
 62
     7
 10
103.5016049662
 20
171.2050275774
 30
0.0
  0
VERTEX
  5
379
  8
0
  6
CONTINUOUS
 62
     7
 10
103.3619846392
 20
171.100555809
 30
0.0
  0
VERTEX
  5
37A
  8
0
  6
CONTINUOUS
 62
     7
 10
103.2740950204
 20
170.9855887962
 30
0.0
  0
VERTEX
  5
37B
  8
0
  6
CONTINUOUS
 62
     7
 10
103.2416979751
 20
170.8647791954
 30
0.0
  0
VERTEX
  5
37C
  8
0
  6
CONTINUOUS
 62
     7
 10
103.2663191558
 20
170.7430491323
 30
0.0
  0
VERTEX
  5
37D
  8
0
  6
CONTINUOUS
 62
     7
 10
103.3471524696
 20
170.6253952001
 30
0.0
  0
VERTEX
  5
37E
  8
0
  6
CONTINUOUS
 62
     7
 10
103.481063526
 20
170.5166802104
 30
0.0
  0
VERTEX
  5
37F
  8
0
  6
CONTINUOUS
 62
     7
 10
103.6626859556
 20
170.421427665
 30
0.0
  0
SEQEND
  5
665
  8
0
  6
CONTINUOUS
 62
     7
  0
POLYLINE
  5
F1
  8
0
  6
CONTINUOUS
 62
     7
 66
     1
 10
0.0
 20
0.0
 30
0.0
  0
VERTEX
  5
380
  8
0
  6
CONTINUOUS
 62
     7
 10
100.7101144784
 20
169.1212841849
 30
0.0
  0
VERTEX
  5
381
  8
0
  6
CONTINUOUS
 62
     7
 10
100.932614512
 20
169.041446769
 30
0.0
  0
VERTEX
  5
382
  8
0
  6
CONTINUOUS
 62
     7
 10
101.1873293323
 20
168.982873371
 30
0.0
  0
VERTEX
  5
383
  8
0
  6
CONTINUOUS
 62
     7
 10
101.4637080008
 20
168.9480395864
 30
0.0
  0
VERTEX
  5
384
  8
0
  6
CONTINUOUS
 62
     7
 10
101.7502571706
 20
168.9384200097
 30
0.0
  0
VERTEX
  5
385
  8
0
  6
CONTINUOUS
 62
     7
 10
102.0350321632
 20
168.9544237459
 30
0.0
  0
VERTEX
  5
386
  8
0
  6
CONTINUOUS
 62
     7
 10
102.3061688694
 20
168.9953716304
 30
0.0
  0
VERTEX
  5
387
  8
0
  6
CONTINUOUS
 62
     7
 10
102.5523994548
 20
169.0595302546
 30
0.0
  0
VERTEX
  5
388
  8
0
  6
CONTINUOUS
 62
     7
 10
102.7635413557
 20
169.1441899932
 30
0.0
  0
VERTEX
  5
389
  8
0
  6
CONTINUOUS
 62
     7
 10
102.9309328903
 20
169.2457930497
 30
0.0
  0
VERTEX
  5
38A
  8
0
  6
CONTINUOUS
 62
     7
 10
103.0477863359
 20
169.360090437
 30
0.0
  0
VERTEX
  5
38B
  8
0
  6
CONTINUOUS
 62
     7
 10
103.1094572729
 20
169.4823338759
 30
0.0
  0
VERTEX
  5
38C
  8
0
  6
CONTINUOUS
 62
     7
 10
103.1136137189
 20
169.6074785776
 30
0.0
  0
VERTEX
  5
38D
  8
0
  6
CONTINUOUS
 62
     7
 10
103.0602966519
 20
169.730397162
 30
0.0
  0
VERTEX
  5
38E
  8
0
  6
CONTINUOUS
 62
     7
 10
102.951883881
 20
169.8460903808
 30
0.0
  0
VERTEX
  5
38F
  8
0
  6
CONTINUOUS
 62
     7
 10
102.7929631356
 20
169.9498863835
 30
0.0
  0
VERTEX
  5
390
  8
0
  6
CONTINUOUS
 62
     7
 10
102.5901212275
 20
170.0376203632
 30
0.0
  0
VERTEX
  5
391
  8
0
  6
CONTINUOUS
 62
     7
 10
102.3516613388
 20
170.1057914369
 30
0.0
  0
VERTEX
  5
392
  8
0
  6
CONTINUOUS
 62
     7
 10
102.0872586177
 20
170.1516935476
 30
0.0
  0
VERTEX
  5
393
  8
0
  6
CONTINUOUS
 62
     7
 10
101.8075872999
 20
170.1735089787
 30
0.0
  0
VERTEX
  5
394
  8
0
  6
CONTINUOUS
 62
     7
 10
101.5239001538
 20
170.1703770729
 30
0.0
  0
VERTEX
  5
395
  8
0
  6
CONTINUOUS
 62
     7
 10
101.2476052358
 20
170.1424208323
 30
0.0
  0
VERTEX
  5
396
  8
0
  6
CONTINUOUS
 62
     7
 10
100.9898246526
 20
170.0907455039
 30
0.0
  0
VERTEX
  5
397
  8
0
  6
CONTINUOUS
 62
     7
 10
100.7609772738
 20
170.0173966313
 30
0.0
  0
VERTEX
  5
398
  8
0
  6
CONTINUOUS
 62
     7
 10
100.5703699357
 20
169.9252909691
 30
0.0
  0
VERTEX
  5
399
  8
0
  6
CONTINUOUS
 62
     7
 10
100.4258241519
 20
169.8181074746
 30
0.0
  0
VERTEX
  5
39A
  8
0
  6
CONTINUOUS
 62
     7
 10
100.3333606999
 20
169.7001537082
 30
0.0
  0
VERTEX
  5
39B
  8
0
  6
CONTINUOUS
 62
     7
 10
100.2969291599
 20
169.576201529
 30
0.0
  0
VERTEX
  5
39C
  8
0
  6
CONTINUOUS
 62
     7
 10
100.3182253487
 20
169.4513010131
 30
0.0
  0
VERTEX
  5
39D
  8
0
  6
CONTINUOUS
 62
     7
 10
100.3965849686
 20
169.3305790407
 30
0.0
  0
VERTEX
  5
39E
  8
0
  6
CONTINUOUS
 62
     7
 10
100.5289808598
 20
169.2190258334
 30
0.0
  0
VERTEX
  5
39F
  8
0
  6
CONTINUOUS
 62
     7
 10
100.7101144784
 20
169.1212841849
 30
0.0
  0
SEQEND
  5
664
  8
0
  6
CONTINUOUS
 62
     7
  0
ARC
  5
F2
  8
0
  6
CONTINUOUS
 62
     7
 10
101.8611162443
 20
167.2213944793
 30
0.0
 40
2.205510596072961
 50
73.9944963096
 51
75.5358296402
  0
ARC
  5
F3
  8
0
  6
CONTINUOUS
 62
     7
 10
101.7107094116
 20
166.8289960289
 30
0.0
 40
2.623471766536862
 50
74.4955834787
 51
115.6208383887
  0
ARC
  5
F4
  8
0
  6
CONTINUOUS
 62
     7
 10
102.0444378204
 20
167.7997291414
 30
0.0
 40
1.599135488840566
 50
60.6015195479
 51
74.5946867612
  0
LINE
  5
F5
  8
0
  6
CONTINUOUS
 62
     7
 10
106.7125344626
 20
162.6773974031
 30
0.0
 11
107.9810703493
 21
163.2873884274
 31
0.0
  0
LINE
  5
F6
  8
0
  6
CONTINUOUS
 62
     7
 10
108.1385636521
 20
167.9288946561
 30
0.0
 11
108.0462605194
 21
163.5277735475
 31
0.0
  0
LINE
  5
F7
  8
0
  6
CONTINUOUS
 62
     7
 10
102.4119966139
 20
169.3569992666
 30
0.0
 11
101.4844396302
 21
168.9464715755
 31
0.0
  0
LINE
  5
F8
  8
0
  6
CONTINUOUS
 62
     7
 10
102.4209483312
 20
169.0215753998
 30
0.0
 11
102.422608674
 21
169.3542324336
 31
0.0
  0
ARC
  5
F9
  8
0
  6
CONTINUOUS
 62
     7
 10
104.7590600179
 20
168.4628556077
 30
0.0
 40
2.244910101620216
 50
74.3084008474
 51
75.8130507886
  0
ARC
  5
FA
  8
0
  6
CONTINUOUS
 62
     7
 10
104.616564444
 20
168.1097961361
 30
0.0
 40
2.622633478044801
 50
74.6852643741
 51
114.5923341383
  0
ARC
  5
FB
  8
0
  6
CONTINUOUS
 62
     7
 10
104.9780587066
 20
169.1472360384
 30
0.0
 40
1.527022287247616
 50
58.68239245
 51
75.2742386263
  0
LINE
  5
FC
  8
0
  6
CONTINUOUS
 62
     7
 10
102.8346948414
 20
169.1821632994
 30
0.0
 11
102.4692409994
 21
169.3414089301
 31
0.0
  0
LINE
  5
FD
  8
0
  6
CONTINUOUS
 62
     7
 10
105.3153586443
 20
170.3147364514
 30
0.0
 11
105.3195445398
 21
170.6366713184
 31
0.0
  0
LINE
  5
FE
  8
0
  6
CONTINUOUS
 62
     7
 10
105.3092573122
 20
170.6392986466
 30
0.0
 11
104.4320905591
 21
170.2510731809
 31
0.0
  0
LINE
  5
FF
  8
0
  6
CONTINUOUS
 62
     7
 10
105.7347934631
 20
170.4674849201
 30
0.0
 11
105.366216812
 21
170.62410108
 31
0.0
  0
LINE
  5
100
  8
0
  6
CONTINUOUS
 62
     7
 10
89.2703361665
 20
162.9331222004
 30
0.0
 11
95.5518250383
 21
165.7290360504
 31
0.0
  0
LINE
  5
101
  8
0
  6
CONTINUOUS
 62
     7
 10
95.5518250383
 20
165.7290360504
 30
0.0
 11
96.3271160159
 21
163.318747307
 31
0.0
  0
LINE
  5
102
  8
0
  6
CONTINUOUS
 62
     7
 10
89.6593335982
 20
161.751076415
 30
0.0
 11
89.2703361665
 21
162.9331222004
 31
0.0
  0
LINE
  5
103
  8
0
  6
CONTINUOUS
 62
     7
 10
86.8137795906
 20
164.139964456
 30
0.0
 11
86.8080993658
 21
164.1247850451
 31
0.0
  0
LINE
  5
104
  8
0
  6
CONTINUOUS
 62
     7
 10
86.8137795906
 20
164.139964456
 30
0.0
 11
89.2703361665
 21
162.9331222004
 31
0.0
  0
LINE
  5
105
  8
0
  6
CONTINUOUS
 62
     7
 10
93.0897596898
 20
166.874299811
 30
0.0
 11
86.8137795906
 21
164.139964456
 31
0.0
  0
LINE
  5
106
  8
0
  6
CONTINUOUS
 62
     7
 10
95.5518250383
 20
165.7290360504
 30
0.0
 11
93.0897596898
 21
166.874299811
 31
0.0
  0
POLYLINE
  5
107
  8
0
  6
CONTINUOUS
 62
     7
 66
     1
 10
0.0
 20
0.0
 30
0.0
  0
VERTEX
  5
3A0
  8
0
  6
CONTINUOUS
 62
     7
 10
91.7496339341
 20
165.1756014306
 30
0.0
  0
VERTEX
  5
3A1
  8
0
  6
CONTINUOUS
 62
     7
 10
91.9734692347
 20
165.0894269298
 30
0.0
  0
VERTEX
  5
3A2
  8
0
  6
CONTINUOUS
 62
     7
 10
92.2327368322
 20
165.0262007882
 30
0.0
  0
VERTEX
  5
3A3
  8
0
  6
CONTINUOUS
 62
     7
 10
92.5166979608
 20
164.9885988599
 30
0.0
  0
VERTEX
  5
3A4
  8
0
  6
CONTINUOUS
 62
     7
 10
92.8135383236
 20
164.9782146295
 30
0.0
  0
VERTEX
  5
3A5
  8
0
  6
CONTINUOUS
 62
     7
 10
93.110876798
 20
164.9954904496
 30
0.0
  0
VERTEX
  5
3A6
  8
0
  6
CONTINUOUS
 62
     7
 10
93.396316441
 20
165.0396922439
 30
0.0
  0
VERTEX
  5
3A7
  8
0
  6
CONTINUOUS
 62
     7
 10
93.6579844336
 20
165.1089461237
 30
0.0
  0
VERTEX
  5
3A8
  8
0
  6
CONTINUOUS
 62
     7
 10
93.8850517382
 20
165.200324474
 30
0.0
  0
VERTEX
  5
3A9
  8
0
  6
CONTINUOUS
 62
     7
 10
94.0681928716
 20
165.3099825037
 30
0.0
  0
VERTEX
  5
3AA
  8
0
  6
CONTINUOUS
 62
     7
 10
94.1999735751
 20
165.4333313165
 30
0.0
  0
VERTEX
  5
3AB
  8
0
  6
CONTINUOUS
 62
     7
 10
94.2751424935
 20
165.5652435284
 30
0.0
  0
VERTEX
  5
3AC
  8
0
  6
CONTINUOUS
 62
     7
 10
94.2908259006
 20
165.7002734632
 30
0.0
  0
VERTEX
  5
3AD
  8
0
  6
CONTINUOUS
 62
     7
 10
94.2466094408
 20
165.8328887509
 30
0.0
  0
VERTEX
  5
3AE
  8
0
  6
CONTINUOUS
 62
     7
 10
94.1445174712
 20
165.9576974558
 30
0.0
  0
VERTEX
  5
3AF
  8
0
  6
CONTINUOUS
 62
     7
 10
93.9888964123
 20
166.0696621715
 30
0.0
  0
VERTEX
  5
3B0
  8
0
  6
CONTINUOUS
 62
     7
 10
93.7862119349
 20
166.1642937402
 30
0.0
  0
VERTEX
  5
3B1
  8
0
  6
CONTINUOUS
 62
     7
 10
93.5447691803
 20
166.2378198717
 30
0.0
  0
VERTEX
  5
3B2
  8
0
  6
CONTINUOUS
 62
     7
 10
93.2743669735
 20
166.2873255703
 30
0.0
  0
VERTEX
  5
3B3
  8
0
  6
CONTINUOUS
 62
     7
 10
92.9859194798
 20
166.3108531942
 30
0.0
  0
VERTEX
  5
3B4
  8
0
  6
CONTINUOUS
 62
     7
 10
92.6910258191
 20
166.3074755847
 30
0.0
  0
VERTEX
  5
3B5
  8
0
  6
CONTINUOUS
 62
     7
 10
92.4015358148
 20
166.2773250794
 30
0.0
  0
VERTEX
  5
3B6
  8
0
  6
CONTINUOUS
 62
     7
 10
92.1290938365
 20
166.2215922597
 30
0.0
  0
VERTEX
  5
3B7
  8
0
  6
CONTINUOUS
 62
     7
 10
91.8847021208
 20
166.1424805965
 30
0.0
  0
VERTEX
  5
3B8
  8
0
  6
CONTINUOUS
 62
     7
 10
91.6782893089
 20
166.0431317485
 30
0.0
  0
VERTEX
  5
3B9
  8
0
  6
CONTINUOUS
 62
     7
 10
91.5183184269
 20
165.9275109182
 30
0.0
  0
VERTEX
  5
3BA
  8
0
  6
CONTINUOUS
 62
     7
 10
91.4114406202
 20
165.8002607316
 30
0.0
  0
VERTEX
  5
3BB
  8
0
  6
CONTINUOUS
 62
     7
 10
91.3622038019
 20
165.6665270269
 30
0.0
  0
VERTEX
  5
3BC
  8
0
  6
CONTINUOUS
 62
     7
 10
91.3728416215
 20
165.5317572803
 30
0.0
  0
VERTEX
  5
3BD
  8
0
  6
CONTINUOUS
 62
     7
 10
91.4431435815
 20
165.401483846
 30
0.0
  0
VERTEX
  5
3BE
  8
0
  6
CONTINUOUS
 62
     7
 10
91.5704321464
 20
165.2810941205
 30
0.0
  0
VERTEX
  5
3BF
  8
0
  6
CONTINUOUS
 62
     7
 10
91.7496339341
 20
165.1756014306
 30
0.0
  0
SEQEND
  5
663
  8
0
  6
CONTINUOUS
 62
     7
  0
POLYLINE
  5
108
  8
0
  6
CONTINUOUS
 62
     7
 66
     1
 10
0.0
 20
0.0
 30
0.0
  0
VERTEX
  5
3C0
  8
0
  6
CONTINUOUS
 62
     7
 10
88.4772466959
 20
163.7346293949
 30
0.0
  0
VERTEX
  5
3C1
  8
0
  6
CONTINUOUS
 62
     7
 10
88.7014321699
 20
163.6460799369
 30
0.0
  0
VERTEX
  5
3C2
  8
0
  6
CONTINUOUS
 62
     7
 10
88.9622625481
 20
163.5811103576
 30
0.0
  0
VERTEX
  5
3C3
  8
0
  6
CONTINUOUS
 62
     7
 10
89.2489329674
 20
163.5424708526
 30
0.0
  0
VERTEX
  5
3C4
  8
0
  6
CONTINUOUS
 62
     7
 10
89.5495161843
 20
163.5318003181
 30
0.0
  0
VERTEX
  5
3C5
  8
0
  6
CONTINUOUS
 62
     7
 10
89.8514706423
 20
163.5495528759
 30
0.0
  0
VERTEX
  5
3C6
  8
0
  6
CONTINUOUS
 62
     7
 10
90.1422038284
 20
163.5949740192
 30
0.0
  0
VERTEX
  5
3C7
  8
0
  6
CONTINUOUS
 62
     7
 10
90.4096191681
 20
163.666137323
 30
0.0
  0
VERTEX
  5
3C8
  8
0
  6
CONTINUOUS
 62
     7
 10
90.6426464826
 20
163.7600332941
 30
0.0
  0
VERTEX
  5
3C9
  8
0
  6
CONTINUOUS
 62
     7
 10
90.8317116218
 20
163.8727094924
 30
0.0
  0
VERTEX
  5
3CA
  8
0
  6
CONTINUOUS
 62
     7
 10
90.9691370027
 20
163.9994495968
 30
0.0
  0
VERTEX
  5
3CB
  8
0
  6
CONTINUOUS
 62
     7
 10
91.0494412743
 20
164.1349839751
 30
0.0
  0
VERTEX
  5
3CC
  8
0
  6
CONTINUOUS
 62
     7
 10
91.0695446319
 20
164.2737168115
 30
0.0
  0
VERTEX
  5
3CD
  8
0
  6
CONTINUOUS
 62
     7
 10
91.0288581613
 20
164.4099641138
 30
0.0
  0
VERTEX
  5
3CE
  8
0
  6
CONTINUOUS
 62
     7
 10
90.9292687101
 20
164.5381867925
 30
0.0
  0
VERTEX
  5
3CF
  8
0
  6
CONTINUOUS
 62
     7
 10
90.7750269116
 20
164.653210588
 30
0.0
  0
VERTEX
  5
3D0
  8
0
  6
CONTINUOUS
 62
     7
 10
90.5725475628
 20
164.750425042
 30
0.0
  0
VERTEX
  5
3D1
  8
0
  6
CONTINUOUS
 62
     7
 10
90.3301307933
 20
164.8259563392
 30
0.0
  0
VERTEX
  5
3D2
  8
0
  6
CONTINUOUS
 62
     7
 10
90.0576159635
 20
164.876811281
 30
0.0
  0
VERTEX
  5
3D3
  8
0
  6
CONTINUOUS
 62
     7
 10
89.7660018069
 20
164.9009799277
 30
0.0
  0
VERTEX
  5
3D4
  8
0
  6
CONTINUOUS
 62
     7
 10
89.4670125687
 20
164.8975103671
 30
0.0
  0
VERTEX
  5
3D5
  8
0
  6
CONTINUOUS
 62
     7
 10
89.1726591655
 20
164.8665383413
 30
0.0
  0
VERTEX
  5
3D6
  8
0
  6
CONTINUOUS
 62
     7
 10
88.8947780555
 20
164.8092862483
 30
0.0
  0
VERTEX
  5
3D7
  8
0
  6
CONTINUOUS
 62
     7
 10
88.6445879418
 20
164.7280167397
 30
0.0
  0
VERTEX
  5
3D8
  8
0
  6
CONTINUOUS
 62
     7
 10
88.4322490692
 20
164.6259555468
 30
0.0
  0
VERTEX
  5
3D9
  8
0
  6
CONTINUOUS
 62
     7
 10
88.2664647414
 20
164.507174952
 30
0.0
  0
VERTEX
  5
3DA
  8
0
  6
CONTINUOUS
 62
     7
 10
88.154123669
 20
164.376443057
 30
0.0
  0
VERTEX
  5
3DB
  8
0
  6
CONTINUOUS
 62
     7
 10
88.0999999581
 20
164.2390455232
 30
0.0
  0
VERTEX
  5
3DC
  8
0
  6
CONTINUOUS
 62
     7
 10
88.1065319492
 20
164.1005784739
 30
0.0
  0
VERTEX
  5
3DD
  8
0
  6
CONTINUOUS
 62
     7
 10
88.1736853796
 20
163.9667268676
 30
0.0
  0
VERTEX
  5
3DE
  8
0
  6
CONTINUOUS
 62
     7
 10
88.2989173539
 20
163.843026163
 30
0.0
  0
VERTEX
  5
3DF
  8
0
  6
CONTINUOUS
 62
     7
 10
88.4772466959
 20
163.7346293949
 30
0.0
  0
SEQEND
  5
662
  8
0
  6
CONTINUOUS
 62
     7
  0
ARC
  5
109
  8
0
  6
CONTINUOUS
 62
     7
 10
89.8691989984
 20
162.090342997
 30
0.0
 40
2.033292750391053
 50
72.6439042317
 51
74.3574522524
  0
ARC
  5
10A
  8
0
  6
CONTINUOUS
 62
     7
 10
89.6794925248
 20
161.5066917535
 30
0.0
 40
2.64659957427368
 50
73.8095674239
 51
119.7220549826
  0
ARC
  5
10B
  8
0
  6
CONTINUOUS
 62
     7
 10
90.0523828695
 20
162.6207349622
 30
0.0
 40
1.472498294544212
 50
58.8296332457
 51
73.2907054805
  0
LINE
  5
10C
  8
0
  6
CONTINUOUS
 62
     7
 10
90.4174458674
 20
164.0483278743
 30
0.0
 11
89.2705698742
 21
163.5407317246
 31
0.0
  0
LINE
  5
10D
  8
0
  6
CONTINUOUS
 62
     7
 10
90.4400999838
 20
163.676446183
 30
0.0
 11
90.4294911865
 21
164.0449140925
 31
0.0
  0
ARC
  5
10E
  8
0
  6
CONTINUOUS
 62
     7
 10
93.0757625843
 20
163.4643701992
 30
0.0
 40
2.077255901574305
 50
73.0120251218
 51
74.6787625229
  0
ARC
  5
10F
  8
0
  6
CONTINUOUS
 62
     7
 10
92.896663978
 20
162.9328321331
 30
0.0
 40
2.637423793774114
 50
73.9773861656
 51
118.6515797247
  0
ARC
  5
110
  8
0
  6
CONTINUOUS
 62
     7
 10
93.2588351752
 20
164.0065516603
 30
0.0
 40
1.505335789758778
 50
59.3111252009
 51
73.6467080197
  0
LINE
  5
111
  8
0
  6
CONTINUOUS
 62
     7
 10
90.8202764498
 20
163.8644456403
 30
0.0
 11
90.4757495331
 21
164.0310582924
 31
0.0
  0
LINE
  5
112
  8
0
  6
CONTINUOUS
 62
     7
 10
93.6433694741
 20
165.1041999917
 30
0.0
 11
93.6362846616
 21
165.464570587
 31
0.0
  0
LINE
  5
113
  8
0
  6
CONTINUOUS
 62
     7
 10
93.6246370712
 20
165.4677994788
 30
0.0
 11
92.538094277
 21
164.9869062157
 31
0.0
  0
LINE
  5
114
  8
0
  6
CONTINUOUS
 62
     7
 10
94.0339590154
 20
165.2857790233
 30
0.0
 11
93.6826764996
 21
165.4509873188
 31
0.0
  0
LINE
  5
115
  8
0
  6
CONTINUOUS
 62
     7
 10
91.0387370827
 20
161.0013679461
 30
0.0
 11
91.0791850341
 21
161.0211974974
 31
0.0
  0
ARC
  5
116
  8
0
  6
CONTINUOUS
 62
     7
 10
94.6994874031
 20
160.9561120158
 30
0.0
 40
1.588644510742926
 50
30.6110993182
 51
104.1127973387
  0
ARC
  5
117
  8
0
  6
CONTINUOUS
 62
     7
 10
93.8966941604
 20
159.6281955718
 30
0.0
 40
2.995729774350563
 50
346.5430417497
 51
30.9156329789
  0
POLYLINE
  5
118
  8
0
  6
CONTINUOUS
 62
     7
 66
     1
 10
0.0
 20
0.0
 30
0.0
  0
VERTEX
  5
3E0
  8
0
  6
CONTINUOUS
 62
     7
 10
100.3118536797
 20
165.1391595003
 30
0.0
  0
VERTEX
  5
3E1
  8
0
  6
CONTINUOUS
 62
     7
 10
100.4085834133
 20
165.17649785
 30
0.0
  0
VERTEX
  5
3E2
  8
0
  6
CONTINUOUS
 62
     7
 10
100.6425739973
 20
165.2181492035
 30
0.0
  0
VERTEX
  5
3E3
  8
0
  6
CONTINUOUS
 62
     7
 10
100.8938358886
 20
165.200226503
 30
0.0
  0
VERTEX
  5
3E4
  8
0
  6
CONTINUOUS
 62
     7
 10
101.1551263898
 20
165.1230090999
 30
0.0
  0
VERTEX
  5
3E5
  8
0
  6
CONTINUOUS
 62
     7
 10
101.4188489809
 20
164.9885328668
 30
0.0
  0
VERTEX
  5
3E6
  8
0
  6
CONTINUOUS
 62
     7
 10
101.6772824855
 20
164.8005505972
 30
0.0
  0
VERTEX
  5
3E7
  8
0
  6
CONTINUOUS
 62
     7
 10
101.9228179745
 20
164.5644402075
 30
0.0
  0
VERTEX
  5
3E8
  8
0
  6
CONTINUOUS
 62
     7
 10
102.1481970241
 20
164.2870531085
 30
0.0
  0
VERTEX
  5
3E9
  8
0
  6
CONTINUOUS
 62
     7
 10
102.3467436246
 20
163.9765099925
 30
0.0
  0
VERTEX
  5
3EA
  8
0
  6
CONTINUOUS
 62
     7
 10
102.5125798706
 20
163.641950805
 30
0.0
  0
VERTEX
  5
3EB
  8
0
  6
CONTINUOUS
 62
     7
 10
102.6408117504
 20
163.2932504306
 30
0.0
  0
VERTEX
  5
3EC
  8
0
  6
CONTINUOUS
 62
     7
 10
102.7276872544
 20
162.9407021305
 30
0.0
  0
VERTEX
  5
3ED
  8
0
  6
CONTINUOUS
 62
     7
 10
102.7707094498
 20
162.5946911494
 30
0.0
  0
VERTEX
  5
3EE
  8
0
  6
CONTINUOUS
 62
     7
 10
102.76870931
 20
162.2653714201
 30
0.0
  0
VERTEX
  5
3EF
  8
0
  6
CONTINUOUS
 62
     7
 10
102.7218701778
 20
161.9623455656
 30
0.0
  0
VERTEX
  5
3F0
  8
0
  6
CONTINUOUS
 62
     7
 10
102.6317076762
 20
161.6943767045
 30
0.0
  0
VERTEX
  5
3F1
  8
0
  6
CONTINUOUS
 62
     7
 10
102.5010073925
 20
161.4691320217
 30
0.0
  0
VERTEX
  5
3F2
  8
0
  6
CONTINUOUS
 62
     7
 10
102.3337211146
 20
161.2929663532
 30
0.0
  0
VERTEX
  5
3F3
  8
0
  6
CONTINUOUS
 62
     7
 10
102.1581022232
 20
161.181449506
 30
0.0
  0
SEQEND
  5
661
  8
0
  6
CONTINUOUS
 62
     7
  0
POLYLINE
  5
119
  8
0
  6
CONTINUOUS
 62
     7
 66
     1
 10
0.0
 20
0.0
 30
0.0
  0
VERTEX
  5
3F4
  8
0
  6
CONTINUOUS
 62
     7
 10
99.9564908046
 20
164.976813092
 30
0.0
  0
VERTEX
  5
3F5
  8
0
  6
CONTINUOUS
 62
     7
 10
100.1312436059
 20
165.1356997394
 30
0.0
  0
VERTEX
  5
3F6
  8
0
  6
CONTINUOUS
 62
     7
 10
100.3398643001
 20
165.2451498262
 30
0.0
  0
VERTEX
  5
3F7
  8
0
  6
CONTINUOUS
 62
     7
 10
100.5731089102
 20
165.2976733421
 30
0.0
  0
VERTEX
  5
3F8
  8
0
  6
CONTINUOUS
 62
     7
 10
100.8246766621
 20
165.2915793701
 30
0.0
  0
VERTEX
  5
3F9
  8
0
  6
CONTINUOUS
 62
     7
 10
101.0877034767
 20
165.2267919227
 30
0.0
  0
VERTEX
  5
3FA
  8
0
  6
CONTINUOUS
 62
     7
 10
101.3549492519
 20
165.1048789546
 30
0.0
  0
VERTEX
  5
3FB
  8
0
  6
CONTINUOUS
 62
     7
 10
101.6190030368
 20
164.9290310235
 30
0.0
  0
VERTEX
  5
3FC
  8
0
  6
CONTINUOUS
 62
     7
 10
101.8724965154
 20
164.7039902624
 30
0.0
  0
VERTEX
  5
3FD
  8
0
  6
CONTINUOUS
 62
     7
 10
102.1083239615
 20
164.4359273569
 30
0.0
  0
VERTEX
  5
3FE
  8
0
  6
CONTINUOUS
 62
     7
 10
102.3198576586
 20
164.1322693274
 30
0.0
  0
VERTEX
  5
3FF
  8
0
  6
CONTINUOUS
 62
     7
 10
102.5011493078
 20
163.8014850821
 30
0.0
  0
VERTEX
  5
400
  8
0
  6
CONTINUOUS
 62
     7
 10
102.6471122021
 20
163.4528329304
 30
0.0
  0
VERTEX
  5
401
  8
0
  6
CONTINUOUS
 62
     7
 10
102.7536760401
 20
163.0960849148
 30
0.0
  0
VERTEX
  5
402
  8
0
  6
CONTINUOUS
 62
     7
 10
102.8179076368
 20
162.7412272851
 30
0.0
  0
VERTEX
  5
403
  8
0
  6
CONTINUOUS
 62
     7
 10
102.8380935666
 20
162.3981615073
 30
0.0
  0
VERTEX
  5
404
  8
0
  6
CONTINUOUS
 62
     7
 10
102.8137826155
 20
162.0764121898
 30
0.0
  0
VERTEX
  5
405
  8
0
  6
CONTINUOUS
 62
     7
 10
102.7457866805
 20
161.7848443025
 30
0.0
  0
VERTEX
  5
406
  8
0
  6
CONTINUOUS
 62
     7
 10
102.6361422619
 20
161.5314174468
 30
0.0
  0
VERTEX
  5
407
  8
0
  6
CONTINUOUS
 62
     7
 10
102.4880346386
 20
161.3229641457
 30
0.0
  0
VERTEX
  5
408
  8
0
  6
CONTINUOUS
 62
     7
 10
102.3056898706
 20
161.1650149201
 30
0.0
  0
VERTEX
  5
409
  8
0
  6
CONTINUOUS
 62
     7
 10
102.0942394336
 20
161.0616642421
 30
0.0
  0
VERTEX
  5
40A
  8
0
  6
CONTINUOUS
 62
     7
 10
101.8595630336
 20
161.0154828734
 30
0.0
  0
VERTEX
  5
40B
  8
0
  6
CONTINUOUS
 62
     7
 10
101.8058478694
 20
161.0131320206
 30
0.0
  0
SEQEND
  5
660
  8
0
  6
CONTINUOUS
 62
     7
  0
LINE
  5
11A
  8
0
  6
CONTINUOUS
 62
     7
 10
92.709536209
 20
155.6380698235
 30
0.0
 11
92.484174821
 21
154.0730526415
 31
0.0
  0
ARC
  5
11B
  8
0
  6
CONTINUOUS
 62
     7
 10
92.4717795554
 20
155.663570339
 30
0.0
 40
0.2391202680591535
 50
353.8781618376
 51
22.5002016937
  0
LINE
  5
11C
  8
0
  6
CONTINUOUS
 62
     7
 10
92.5714095422
 20
156.0686291753
 30
0.0
 11
92.6926975548
 21
155.7550784816
 31
0.0
  0
ARC
  5
11D
  8
0
  6
CONTINUOUS
 62
     7
 10
93.1655818028
 20
156.3566489096
 30
0.0
 40
0.6602999641617932
 50
154.1778033922
 51
205.8613764452
  0
ARC
  5
11E
  8
0
  6
CONTINUOUS
 62
     7
 10
90.2066779361
 20
157.7408283754
 30
0.0
 40
2.60643089377633
 50
335.1202262552
 51
29.3137620694
  0
ARC
  5
11F
  8
0
  6
CONTINUOUS
 62
     7
 10
93.2296094433
 20
159.3910153865
 30
0.0
 40
0.8383465990191759
 50
169.2438789464
 51
206.502377402
  0
LINE
  5
120
  8
0
  6
CONTINUOUS
 62
     7
 10
92.5461362493
 20
160.0964181518
 30
0.0
 11
92.405992204
 21
159.5474751677
 31
0.0
  0
POLYLINE
  5
121
  8
0
  6
CONTINUOUS
 62
     7
 66
     1
 10
0.0
 20
0.0
 30
0.0
  0
VERTEX
  5
40C
  8
0
  6
CONTINUOUS
 62
     7
 10
92.7020437938
 20
160.123210775
 30
0.0
  0
VERTEX
  5
40D
  8
0
  6
CONTINUOUS
 62
     7
 10
92.6777057432
 20
160.1418333892
 30
0.0
  0
VERTEX
  5
40E
  8
0
  6
CONTINUOUS
 62
     7
 10
92.6529740168
 20
160.1545244368
 30
0.0
  0
VERTEX
  5
40F
  8
0
  6
CONTINUOUS
 62
     7
 10
92.6288005367
 20
160.1607970256
 30
0.0
  0
VERTEX
  5
410
  8
0
  6
CONTINUOUS
 62
     7
 10
92.6061149542
 20
160.1604140344
 30
0.0
  0
VERTEX
  5
411
  8
0
  6
CONTINUOUS
 62
     7
 10
92.5857887549
 20
160.1533912666
 30
0.0
  0
VERTEX
  5
412
  8
0
  6
CONTINUOUS
 62
     7
 10
92.5686020823
 20
160.1400029691
 30
0.0
  0
VERTEX
  5
413
  8
0
  6
CONTINUOUS
 62
     7
 10
92.555213857
 20
160.1207641204
 30
0.0
  0
VERTEX
  5
414
  8
0
  6
CONTINUOUS
 62
     7
 10
92.5461362493
 20
160.0964181518
 30
0.0
  0
SEQEND
  5
65F
  8
0
  6
CONTINUOUS
 62
     7
  0
LINE
  5
122
  8
0
  6
CONTINUOUS
 62
     7
 10
92.7627282064
 20
160.0687894982
 30
0.0
 11
92.7020437938
 21
160.123210775
 31
0.0
  0
ARC
  5
123
  8
0
  6
CONTINUOUS
 62
     7
 10
92.5812695912
 20
159.8669293507
 30
0.0
 40
0.2714309270602637
 50
350.9725116889
 51
48.0466022781
  0
LINE
  5
124
  8
0
  6
CONTINUOUS
 62
     7
 10
92.7083011473
 20
159.2755246169
 30
0.0
 11
92.8493383511
 21
159.8243395849
 31
0.0
  0
ARC
  5
125
  8
0
  6
CONTINUOUS
 62
     7
 10
92.9433535607
 20
159.2305670314
 30
0.0
 40
0.2393132289091328
 50
169.1720281583
 51
206.5097035873
  0
ARC
  5
126
  8
0
  6
CONTINUOUS
 62
     7
 10
90.0233847195
 20
157.6032050513
 30
0.0
 40
3.103788546220641
 50
335.0194824336
 51
29.3339807416
  0
ARC
  5
127
  8
0
  6
CONTINUOUS
 62
     7
 10
93.0062469919
 20
156.2100731342
 30
0.0
 40
0.1883906124250967
 50
154.0724680883
 51
205.8747140143
  0
LINE
  5
128
  8
0
  6
CONTINUOUS
 62
     7
 10
92.9581899781
 20
155.8137357183
 30
0.0
 11
92.8367424512
 21
156.1278585762
 31
0.0
  0
ARC
  5
129
  8
0
  6
CONTINUOUS
 62
     7
 10
92.1856447874
 20
155.4937779762
 30
0.0
 40
0.8361812174986847
 50
353.8144662998
 51
22.497407441
  0
LINE
  5
12A
  8
0
  6
CONTINUOUS
 62
     7
 10
92.7948619596
 20
153.8754869627
 30
0.0
 11
93.0169579254
 21
155.4036808343
 31
0.0
  0
ARC
  5
12B
  8
0
  6
CONTINUOUS
 62
     7
 10
92.5291652165
 20
153.8779678358
 30
0.0
 40
0.2657083251457573
 50
236.0292334508
 51
359.4650313389
  0
LINE
  5
12C
  8
0
  6
CONTINUOUS
 62
     7
 10
92.3744004395
 20
153.6609220161
 30
0.0
 11
92.3806954184
 21
153.65760987
 31
0.0
  0
LINE
  5
12D
  8
0
  6
CONTINUOUS
 62
     7
 10
92.3660074743
 20
154.0105605291
 30
0.0
 11
92.3744004395
 21
153.6609220161
 31
0.0
  0
ARC
  5
12E
  8
0
  6
CONTINUOUS
 62
     7
 10
92.4082814155
 20
154.0735923799
 30
0.0
 40
0.0758953247869123
 50
236.151196418
 51
359.5925309856
  0
LINE
  5
12F
  8
0
  6
CONTINUOUS
 62
     7
 10
92.8493383511
 20
159.8243395849
 30
0.0
 11
96.5721012021
 21
161.5548612314
 31
0.0
  0
LINE
  5
130
  8
0
  6
CONTINUOUS
 62
     7
 10
92.7627282064
 20
160.0687894982
 30
0.0
 11
96.4876258421
 21
161.7958515149
 31
0.0
  0
ARC
  5
131
  8
0
  6
CONTINUOUS
 62
     7
 10
96.3146891906
 20
161.5999303898
 30
0.0
 40
0.2613277113018052
 50
350.0689910464
 51
48.5656367075
  0
LINE
  5
132
  8
0
  6
CONTINUOUS
 62
     7
 10
92.7020437938
 20
160.123210775
 30
0.0
 11
96.4271563365
 21
161.8490817425
 31
0.0
  0
LINE
  5
133
  8
0
  6
CONTINUOUS
 62
     7
 10
96.4876258421
 20
161.7958515149
 30
0.0
 11
96.4271563365
 21
161.8490817425
 31
0.0
  0
ARC
  5
134
  8
0
  6
CONTINUOUS
 62
     7
 10
96.347596175
 20
161.7790243818
 30
0.0
 40
0.106008740589609
 50
41.3657999328
 51
108.3121930126
  0
LINE
  5
135
  8
0
  6
CONTINUOUS
 62
     7
 10
92.7083011473
 20
159.2755246169
 30
0.0
 11
96.4241589683
 21
161.0103729886
 31
0.0
  0
LINE
  5
136
  8
0
  6
CONTINUOUS
 62
     7
 10
96.4241589683
 20
161.0103729886
 30
0.0
 11
96.5721012021
 21
161.5548612314
 31
0.0
  0
LINE
  5
137
  8
0
  6
CONTINUOUS
 62
     7
 10
92.8368183124
 20
156.2924439144
 30
0.0
 11
96.5207943902
 21
158.0594836042
 31
0.0
  0
LINE
  5
138
  8
0
  6
CONTINUOUS
 62
     7
 10
92.7292020164
 20
159.1237497219
 30
0.0
 11
96.4435281777
 21
160.860401345
 31
0.0
  0
ARC
  5
139
  8
0
  6
CONTINUOUS
 62
     7
 10
93.8031213785
 20
159.3860383882
 30
0.0
 40
3.024151813849002
 50
333.9819992059
 51
29.1783259621
  0
ARC
  5
13A
  8
0
  6
CONTINUOUS
 62
     7
 10
96.6508359399
 20
160.9634122686
 30
0.0
 40
0.2314902992710256
 50
168.2955947998
 51
206.4227142771
  0
LINE
  5
13B
  8
0
  6
CONTINUOUS
 62
     7
 10
92.9581899781
 20
155.8137357183
 30
0.0
 11
96.6377032337
 21
157.5869351296
 31
0.0
  0
LINE
  5
13C
  8
0
  6
CONTINUOUS
 62
     7
 10
92.8367424512
 20
156.1278585762
 30
0.0
 11
96.5189139396
 21
157.896576992
 31
0.0
  0
LINE
  5
13D
  8
0
  6
CONTINUOUS
 62
     7
 10
96.6377032337
 20
157.5869351296
 30
0.0
 11
96.5189139396
 21
157.896576992
 31
0.0
  0
ARC
  5
13E
  8
0
  6
CONTINUOUS
 62
     7
 10
96.6847835271
 20
157.9761264987
 30
0.0
 40
0.1839588107835374
 50
153.0553729861
 51
205.6219416029
  0
LINE
  5
13F
  8
0
  6
CONTINUOUS
 62
     7
 10
93.0169579254
 20
155.4036808343
 30
0.0
 11
96.6923585791
 21
157.1816693003
 31
0.0
  0
ARC
  5
140
  8
0
  6
CONTINUOUS
 62
     7
 10
95.8899440257
 20
157.2797717114
 30
0.0
 40
0.8083892618170909
 50
353.0296663515
 51
22.3318052692
  0
ARC
  5
141
  8
0
  6
CONTINUOUS
 62
     7
 10
90.8545003588
 20
155.6205737923
 30
0.0
 40
1.050523778141081
 50
190.196402286
 51
218.7560785621
  0
LINE
  5
142
  8
0
  6
CONTINUOUS
 62
     7
 10
89.5166184034
 20
157.2127074736
 30
0.0
 11
89.820567791
 21
155.4346069841
 31
0.0
  0
ARC
  5
143
  8
0
  6
CONTINUOUS
 62
     7
 10
90.0679222644
 20
157.3352275054
 30
0.0
 40
0.5647540219443217
 50
155.6959555224
 51
192.5296062145
  0
LINE
  5
144
  8
0
  6
CONTINUOUS
 62
     7
 10
89.657597914
 20
157.7618727283
 30
0.0
 11
89.5532200049
 21
157.5676682277
 31
0.0
  0
ARC
  5
145
  8
0
  6
CONTINUOUS
 62
     7
 10
89.4667751838
 20
157.8353388049
 30
0.0
 40
0.2044763526127866
 50
338.9434708032
 51
27.1737029832
  0
ARC
  5
146
  8
0
  6
CONTINUOUS
 62
     7
 10
92.3002611876
 20
159.3518406183
 30
0.0
 40
3.009341775055186
 50
153.6264584536
 51
208.2227470789
  0
ARC
  5
147
  8
0
  6
CONTINUOUS
 62
     7
 10
89.4577176803
 20
160.7697675511
 30
0.0
 40
0.1673886862931338
 50
331.0152779247
 51
18.0472227478
  0
LINE
  5
148
  8
0
  6
CONTINUOUS
 62
     7
 10
89.4466963802
 20
161.5166156894
 30
0.0
 11
89.6168710949
 21
160.8216246905
 31
0.0
  0
POLYLINE
  5
149
  8
0
  6
CONTINUOUS
 62
     7
 66
     1
 10
0.0
 20
0.0
 30
0.0
  0
VERTEX
  5
415
  8
0
  6
CONTINUOUS
 62
     7
 10
89.519937507
 20
161.6786297319
 30
0.0
  0
VERTEX
  5
416
  8
0
  6
CONTINUOUS
 62
     7
 10
89.4982580014
 20
161.6771555105
 30
0.0
  0
VERTEX
  5
417
  8
0
  6
CONTINUOUS
 62
     7
 10
89.4790301608
 20
161.6691486861
 30
0.0
  0
VERTEX
  5
418
  8
0
  6
CONTINUOUS
 62
     7
 10
89.4629911574
 20
161.6549217983
 30
0.0
  0
VERTEX
  5
419
  8
0
  6
CONTINUOUS
 62
     7
 10
89.4507565395
 20
161.6350220654
 30
0.0
  0
VERTEX
  5
41A
  8
0
  6
CONTINUOUS
 62
     7
 10
89.4427934876
 20
161.6102164109
 30
0.0
  0
VERTEX
  5
41B
  8
0
  6
CONTINUOUS
 62
     7
 10
89.4394070391
 20
161.581459188
 30
0.0
  0
VERTEX
  5
41C
  8
0
  6
CONTINUOUS
 62
     7
 10
89.4407253696
 20
161.5498546878
 30
0.0
  0
VERTEX
  5
41D
  8
0
  6
CONTINUOUS
 62
     7
 10
89.4466963802
 20
161.5166156894
 30
0.0
  0
SEQEND
  5
65E
  8
0
  6
CONTINUOUS
 62
     7
  0
LINE
  5
14A
  8
0
  6
CONTINUOUS
 62
     7
 10
89.5775933176
 20
161.6739612944
 30
0.0
 11
89.519937507
 21
161.6786297319
 31
0.0
  0
ARC
  5
14B
  8
0
  6
CONTINUOUS
 62
     7
 10
89.5119545238
 20
161.4579660477
 30
0.0
 40
0.2257485278630483
 50
8.9266176579
 51
73.0964981328
  0
LINE
  5
14C
  8
0
  6
CONTINUOUS
 62
     7
 10
89.9051179301
 20
160.7968641938
 30
0.0
 11
89.7349687597
 21
161.4929952983
 31
0.0
  0
ARC
  5
14D
  8
0
  6
CONTINUOUS
 62
     7
 10
89.3490517503
 20
160.6157195422
 30
0.0
 40
0.5848273087543144
 50
330.8994813922
 51
18.0435872198
  0
ARC
  5
14E
  8
0
  6
CONTINUOUS
 62
     7
 10
92.1162304706
 20
159.2075358767
 30
0.0
 40
2.520546966889793
 50
153.5230030393
 51
208.2417624961
  0
ARC
  5
14F
  8
0
  6
CONTINUOUS
 62
     7
 10
89.2599365875
 20
157.6882455724
 30
0.0
 40
0.7147686689966495
 50
338.8504317107
 51
27.1879064229
  0
LINE
  5
150
  8
0
  6
CONTINUOUS
 62
     7
 10
89.8217831236
 20
157.2364363253
 30
0.0
 11
89.9265596839
 21
157.430354321
 31
0.0
  0
ARC
  5
151
  8
0
  6
CONTINUOUS
 62
     7
 10
89.9684298765
 20
157.169873151
 30
0.0
 40
0.1610463483848628
 50
155.5866329549
 51
192.5116909948
  0
LINE
  5
152
  8
0
  6
CONTINUOUS
 62
     7
 10
90.1219714352
 20
155.3109467675
 30
0.0
 11
89.8112080853
 21
157.1349842603
 31
0.0
  0
ARC
  5
153
  8
0
  6
CONTINUOUS
 62
     7
 10
90.3895705981
 20
155.3521079906
 30
0.0
 40
0.2707462986557083
 50
188.7445143018
 51
237.5991757676
  0
LINE
  5
154
  8
0
  6
CONTINUOUS
 62
     7
 10
92.7948619596
 20
153.8754869627
 30
0.0
 11
96.4520660338
 21
155.6664881186
 31
0.0
  0
LINE
  5
155
  8
0
  6
CONTINUOUS
 62
     7
 10
96.4520660338
 20
155.6664881186
 30
0.0
 11
96.6923585791
 21
157.1816693003
 31
0.0
  0
LINE
  5
156
  8
0
  6
CONTINUOUS
 62
     7
 10
89.9051179301
 20
160.7968641938
 30
0.0
 11
93.619366437
 21
162.4873571929
 31
0.0
  0
LINE
  5
157
  8
0
  6
CONTINUOUS
 62
     7
 10
89.7349687597
 20
161.4929952983
 30
0.0
 11
93.4557904783
 21
163.1745486481
 31
0.0
  0
LINE
  5
158
  8
0
  6
CONTINUOUS
 62
     7
 10
93.619366437
 20
162.4873571929
 30
0.0
 11
93.4557904783
 21
163.1745486481
 31
0.0
  0
LINE
  5
159
  8
0
  6
CONTINUOUS
 62
     7
 10
89.5775933176
 20
161.6739612944
 30
0.0
 11
93.2993556622
 21
163.3520531478
 31
0.0
  0
ARC
  5
15A
  8
0
  6
CONTINUOUS
 62
     7
 10
93.2396095387
 20
163.1417135595
 30
0.0
 40
0.218660334028385
 50
8.6364779421
 51
74.1430135006
  0
LINE
  5
15B
  8
0
  6
CONTINUOUS
 62
     7
 10
89.519937507
 20
161.6786297319
 30
0.0
 11
93.2413589302
 21
163.3560952505
 31
0.0
  0
LINE
  5
15C
  8
0
  6
CONTINUOUS
 62
     7
 10
93.2993556622
 20
163.3520531478
 30
0.0
 11
93.2413589302
 21
163.3560952505
 31
0.0
  0
POLYLINE
  5
15D
  8
0
  6
CONTINUOUS
 62
     7
 66
     1
 10
0.0
 20
0.0
 30
0.0
  0
VERTEX
  5
41E
  8
0
  6
CONTINUOUS
 62
     7
 10
93.2413589302
 20
163.3560952505
 30
0.0
  0
VERTEX
  5
41F
  8
0
  6
CONTINUOUS
 62
     7
 10
93.2195151755
 20
163.3544191164
 30
0.0
  0
VERTEX
  5
420
  8
0
  6
CONTINUOUS
 62
     7
 10
93.2077824874
 20
163.3504315299
 30
0.0
  0
SEQEND
  5
65D
  8
0
  6
CONTINUOUS
 62
     7
  0
ARC
  5
15E
  8
0
  6
CONTINUOUS
 62
     7
 10
92.8993144729
 20
162.3023271503
 30
0.0
 40
0.7434453226376283
 50
351.0911600691
 51
14.4113553277
  0
ARC
  5
15F
  8
0
  6
CONTINUOUS
 62
     7
 10
96.1505332385
 20
155.6891906437
 30
0.0
 40
0.30238622867743
 50
299.7477329823
 51
355.6943013324
  0
ARC
  5
160
  8
0
  6
CONTINUOUS
 62
     7
 10
90.4088997251
 20
154.668998384
 30
0.0
 40
0.4815868428796381
 50
118.6191485056
 51
158.297568845
  0
LINE
  5
161
  8
0
  6
CONTINUOUS
 62
     7
 10
90.1782267274
 20
155.0917463649
 30
0.0
 11
92.299690333
 21
153.9781796982
 31
0.0
  0
ARC
  5
162
  8
0
  6
CONTINUOUS
 62
     7
 10
92.5387115476
 20
153.548401284
 30
0.0
 40
0.4917729417997323
 50
119.0806187234
 51
158.2571680323
  0
ARC
  5
163
  8
0
  6
CONTINUOUS
 62
     7
 10
92.6362417896
 20
153.5028152361
 30
0.0
 40
0.25811229732624
 50
146.0084681429
 51
179.4840953126
  0
LINE
  5
164
  8
0
  6
CONTINUOUS
 62
     7
 10
92.3796056365
 20
153.4440812116
 30
0.0
 11
92.3781399556
 21
153.5051393086
 31
0.0
  0
LINE
  5
165
  8
0
  6
CONTINUOUS
 62
     7
 10
92.299690333
 20
153.9781796982
 30
0.0
 11
92.3660074743
 21
154.0105605291
 31
0.0
  0
LINE
  5
166
  8
0
  6
CONTINUOUS
 62
     7
 10
90.1782267274
 20
155.0917463649
 30
0.0
 11
90.2444941881
 21
155.1235114169
 31
0.0
  0
LINE
  5
167
  8
0
  6
CONTINUOUS
 62
     7
 10
102.8872279839
 20
159.1523674398
 30
0.0
 11
103.163835598
 21
160.6785658869
 31
0.0
  0
ARC
  5
168
  8
0
  6
CONTINUOUS
 62
     7
 10
102.9485882997
 20
160.7100875689
 30
0.0
 40
0.2175431356580448
 50
351.6685962873
 51
22.0215157132
  0
LINE
  5
169
  8
0
  6
CONTINUOUS
 62
     7
 10
103.1502601663
 20
160.7916563994
 30
0.0
 11
103.0364462721
 21
161.0924788853
 31
0.0
  0
ARC
  5
16A
  8
0
  6
CONTINUOUS
 62
     7
 10
103.5959681753
 20
161.3548204166
 30
0.0
 40
0.6179707429728535
 50
151.3437339791
 51
205.1203453309
  0
ARC
  5
16B
  8
0
  6
CONTINUOUS
 62
     7
 10
100.9087763799
 20
162.7809097229
 30
0.0
 40
2.424246216846066
 50
332.2239630828
 51
28.8462676579
  0
ARC
  5
16C
  8
0
  6
CONTINUOUS
 62
     7
 10
103.717401772
 20
164.2882971082
 30
0.0
 40
0.7639221713856186
 50
166.7792878344
 51
206.2423584484
  0
LINE
  5
16D
  8
0
  6
CONTINUOUS
 62
     7
 10
102.9737263712
 20
164.4630082474
 30
0.0
 11
103.1327737708
 21
164.999264505
 31
0.0
  0
POLYLINE
  5
16E
  8
0
  6
CONTINUOUS
 62
     7
 66
     1
 10
0.0
 20
0.0
 30
0.0
  0
VERTEX
  5
421
  8
0
  6
CONTINUOUS
 62
     7
 10
103.1327737708
 20
164.999264505
 30
0.0
  0
VERTEX
  5
422
  8
0
  6
CONTINUOUS
 62
     7
 10
103.1427351633
 20
165.0231253237
 30
0.0
  0
VERTEX
  5
423
  8
0
  6
CONTINUOUS
 62
     7
 10
103.1569220082
 20
165.0421548295
 30
0.0
  0
VERTEX
  5
424
  8
0
  6
CONTINUOUS
 62
     7
 10
103.1747912719
 20
165.0556179006
 30
0.0
  0
VERTEX
  5
425
  8
0
  6
CONTINUOUS
 62
     7
 10
103.1956577443
 20
165.0629968477
 30
0.0
  0
VERTEX
  5
426
  8
0
  6
CONTINUOUS
 62
     7
 10
103.2187203628
 20
165.0640040163
 30
0.0
  0
VERTEX
  5
427
  8
0
  6
CONTINUOUS
 62
     7
 10
103.2430931183
 20
165.0585997742
 30
0.0
  0
VERTEX
  5
428
  8
0
  6
CONTINUOUS
 62
     7
 10
103.267838601
 20
165.0469880677
 30
0.0
  0
VERTEX
  5
429
  8
0
  6
CONTINUOUS
 62
     7
 10
103.2920043712
 20
165.029614353
 30
0.0
  0
SEQEND
  5
65C
  8
0
  6
CONTINUOUS
 62
     7
  0
LINE
  5
16F
  8
0
  6
CONTINUOUS
 62
     7
 10
103.2920043712
 20
165.029614353
 30
0.0
 11
103.3520167642
 21
164.978550743
 31
0.0
  0
ARC
  5
170
  8
0
  6
CONTINUOUS
 62
     7
 10
103.1935581774
 20
164.7929614212
 30
0.0
 40
0.244033850355982
 50
348.4178770575
 51
49.5088674378
  0
LINE
  5
171
  8
0
  6
CONTINUOUS
 62
     7
 10
103.4326229961
 20
164.7439661909
 30
0.0
 11
103.272711968
 21
164.2078045351
 31
0.0
  0
ARC
  5
172
  8
0
  6
CONTINUOUS
 62
     7
 10
103.4849666791
 20
164.1576599223
 30
0.0
 40
0.2180975575159829
 50
166.7077400849
 51
206.248436605
  0
ARC
  5
173
  8
0
  6
CONTINUOUS
 62
     7
 10
100.7606111203
 20
162.6673789909
 30
0.0
 40
2.887439717655772
 50
332.1261818294
 51
28.8631845099
  0
ARC
  5
174
  8
0
  6
CONTINUOUS
 62
     7
 10
103.4676517664
 20
161.2325796797
 30
0.0
 40
0.1763552135475903
 50
151.2420243274
 51
205.130101424
  0
LINE
  5
175
  8
0
  6
CONTINUOUS
 62
     7
 10
103.3079893123
 20
161.1576860078
 30
0.0
 11
103.4219416855
 21
160.8563370295
 31
0.0
  0
ARC
  5
176
  8
0
  6
CONTINUOUS
 62
     7
 10
102.7166034213
 20
160.5711083482
 30
0.0
 40
0.7608268315446789
 50
351.6048901119
 51
22.017702015
  0
LINE
  5
177
  8
0
  6
CONTINUOUS
 62
     7
 10
103.4692778392
 20
160.4600286997
 30
0.0
 11
103.1972022962
 21
158.9697073532
 31
0.0
  0
LINE
  5
178
  8
0
  6
CONTINUOUS
 62
     7
 10
103.1972022962
 20
158.9697073532
 30
0.0
 11
103.1919272482
 21
158.9445444872
 31
0.0
  0
ARC
  5
179
  8
0
  6
CONTINUOUS
 62
     7
 10
101.5096203786
 20
164.5003377711
 30
0.0
 40
1.675123658367472
 50
143.7291576948
 51
164.4626580171
  0
ARC
  5
17A
  8
0
  6
CONTINUOUS
 62
     7
 10
100.0237952041
 20
165.5749671594
 30
0.0
 40
0.1590478211998309
 50
328.2804614891
 51
16.7149973863
  0
LINE
  5
17B
  8
0
  6
CONTINUOUS
 62
     7
 10
100.1761228166
 20
165.6207110979
 30
0.0
 11
100.0242853179
 21
166.2902123217
 31
0.0
  0
POLYLINE
  5
17C
  8
0
  6
CONTINUOUS
 62
     7
 66
     1
 10
0.0
 20
0.0
 30
0.0
  0
VERTEX
  5
42A
  8
0
  6
CONTINUOUS
 62
     7
 10
100.0242853179
 20
166.2902123217
 30
0.0
  0
VERTEX
  5
42B
  8
0
  6
CONTINUOUS
 62
     7
 10
100.0192298869
 20
166.3222907251
 30
0.0
  0
VERTEX
  5
42C
  8
0
  6
CONTINUOUS
 62
     7
 10
100.0188589684
 20
166.3529122931
 30
0.0
  0
VERTEX
  5
42D
  8
0
  6
CONTINUOUS
 62
     7
 10
100.0231882798
 20
166.3809019446
 30
0.0
  0
VERTEX
  5
42E
  8
0
  6
CONTINUOUS
 62
     7
 10
100.0320533974
 20
166.405184895
 30
0.0
  0
VERTEX
  5
42F
  8
0
  6
CONTINUOUS
 62
     7
 10
100.0451145164
 20
166.4248269623
 30
0.0
  0
VERTEX
  5
430
  8
0
  6
CONTINUOUS
 62
     7
 10
100.0618725962
 20
166.4390713397
 30
0.0
  0
VERTEX
  5
431
  8
0
  6
CONTINUOUS
 62
     7
 10
100.0816843861
 20
166.4473702715
 30
0.0
  0
VERTEX
  5
432
  8
0
  6
CONTINUOUS
 62
     7
 10
100.1037901118
 20
166.4494003004
 30
0.0
  0
SEQEND
  5
65B
  8
0
  6
CONTINUOUS
 62
     7
  0
LINE
  5
17D
  8
0
  6
CONTINUOUS
 62
     7
 10
100.1037901118
 20
166.4494003004
 30
0.0
 11
100.1623145423
 21
166.4464676539
 31
0.0
  0
ARC
  5
17E
  8
0
  6
CONTINUOUS
 62
     7
 10
100.1124895349
 20
166.2460910209
 30
0.0
 40
0.2064783921402227
 50
8.1299746154
 51
76.0362133659
  0
LINE
  5
17F
  8
0
  6
CONTINUOUS
 62
     7
 10
100.3168927797
 20
166.2752910194
 30
0.0
 11
100.468671976
 21
165.6047315528
 31
0.0
  0
ARC
  5
180
  8
0
  6
CONTINUOUS
 62
     7
 10
99.7939162136
 20
165.4377127952
 30
0.0
 40
0.6951191295683382
 50
349.4800061852
 51
13.9026874826
  0
ARC
  5
181
  8
0
  6
CONTINUOUS
 62
     7
 10
102.7824942994
 20
159.1683841837
 30
0.0
 40
0.1059513131047292
 50
323.8676986005
 51
351.3052182592
  0
LINE
  5
182
  8
0
  6
CONTINUOUS
 62
     7
 10
106.7554738448
 20
166.5565757049
 30
0.0
 11
103.3520167642
 21
164.978550743
 31
0.0
  0
ARC
  5
183
  8
0
  6
CONTINUOUS
 62
     7
 10
106.6036596771
 20
166.375842362
 30
0.0
 40
0.2360340711644935
 50
347.6060158057
 51
49.9700828032
  0
LINE
  5
184
  8
0
  6
CONTINUOUS
 62
     7
 10
106.8341929316
 20
166.3251817132
 30
0.0
 11
103.4326229961
 21
164.7439661909
 31
0.0
  0
LINE
  5
185
  8
0
  6
CONTINUOUS
 62
     7
 10
106.6957174565
 20
166.6065786804
 30
0.0
 11
103.2920043712
 21
165.029614353
 31
0.0
  0
LINE
  5
186
  8
0
  6
CONTINUOUS
 62
     7
 10
106.6957174565
 20
166.6065786804
 30
0.0
 11
106.7554738448
 21
166.5565757049
 31
0.0
  0
ARC
  5
187
  8
0
  6
CONTINUOUS
 62
     7
 10
106.6176603992
 20
166.5292092817
 30
0.0
 40
0.1099041767278219
 50
44.7465059764
 51
108.8165292708
  0
LINE
  5
188
  8
0
  6
CONTINUOUS
 62
     7
 10
106.8341929316
 20
166.3251817132
 30
0.0
 11
106.6687111684
 21
165.793318289
 31
0.0
  0
LINE
  5
189
  8
0
  6
CONTINUOUS
 62
     7
 10
106.6687111684
 20
165.793318289
 30
0.0
 11
103.272711968
 21
164.2078045351
 31
0.0
  0
LINE
  5
18A
  8
0
  6
CONTINUOUS
 62
     7
 10
106.684055408
 20
165.6484106537
 30
0.0
 11
103.2893582928
 21
164.0612031767
 31
0.0
  0
ARC
  5
18B
  8
0
  6
CONTINUOUS
 62
     7
 10
104.2068997695
 20
164.2925501448
 30
0.0
 40
2.82394365679917
 50
331.2326037149
 51
28.69390306
  0
LINE
  5
18C
  8
0
  6
CONTINUOUS
 62
     7
 10
106.68231421
 20
162.9335133078
 30
0.0
 11
103.3130482415
 21
161.3174260786
 31
0.0
  0
ARC
  5
18D
  8
0
  6
CONTINUOUS
 62
     7
 10
106.8742564546
 20
165.7418172201
 30
0.0
 40
0.2118990910428994
 50
165.9336561788
 51
206.1553713652
  0
LINE
  5
18E
  8
0
  6
CONTINUOUS
 62
     7
 10
106.6757501573
 20
162.7753783521
 30
0.0
 11
103.3079893123
 21
161.1576860078
 31
0.0
  0
LINE
  5
18F
  8
0
  6
CONTINUOUS
 62
     7
 10
106.6757501573
 20
162.7753783521
 30
0.0
 11
106.7873340612
 21
162.4781580055
 31
0.0
  0
LINE
  5
190
  8
0
  6
CONTINUOUS
 62
     7
 10
106.7873340612
 20
162.4781580055
 30
0.0
 11
103.4219416855
 21
160.8563370295
 31
0.0
  0
ARC
  5
191
  8
0
  6
CONTINUOUS
 62
     7
 10
106.8325423517
 20
162.8480737484
 30
0.0
 40
0.1728248039263729
 50
150.3717225455
 51
204.8744045921
  0
ARC
  5
192
  8
0
  6
CONTINUOUS
 62
     7
 10
106.1016235766
 20
162.203091964
 30
0.0
 40
0.7388235215252247
 50
350.9089082498
 51
21.8577051793
  0
LINE
  5
193
  8
0
  6
CONTINUOUS
 62
     7
 10
106.8311662814
 20
162.0863544904
 30
0.0
 11
103.4692778392
 21
160.4600286997
 31
0.0
  0
LINE
  5
194
  8
0
  6
CONTINUOUS
 62
     7
 10
106.8311662814
 20
162.0863544904
 30
0.0
 11
106.5441753555
 21
160.6087825857
 31
0.0
  0
LINE
  5
195
  8
0
  6
CONTINUOUS
 62
     7
 10
106.5441753555
 20
160.6087825857
 30
0.0
 11
103.1972022962
 21
158.9697073532
 31
0.0
  0
LINE
  5
196
  8
0
  6
CONTINUOUS
 62
     7
 10
103.7207510604
 20
167.8135988792
 30
0.0
 11
100.3168927797
 21
166.2752910194
 31
0.0
  0
LINE
  5
197
  8
0
  6
CONTINUOUS
 62
     7
 10
103.7207510604
 20
167.8135988792
 30
0.0
 11
103.8668337412
 21
167.1513616889
 31
0.0
  0
LINE
  5
198
  8
0
  6
CONTINUOUS
 62
     7
 10
103.8668337412
 20
167.1513616889
 30
0.0
 11
100.468671976
 21
165.6047315528
 31
0.0
  0
LINE
  5
199
  8
0
  6
CONTINUOUS
 62
     7
 10
103.5671526455
 20
167.9816626916
 30
0.0
 11
100.1623145423
 21
166.4464676539
 31
0.0
  0
ARC
  5
19A
  8
0
  6
CONTINUOUS
 62
     7
 10
103.5218351093
 20
167.7860247354
 30
0.0
 40
0.2008180495292216
 50
7.8921646998
 51
76.9580345776
  0
LINE
  5
19B
  8
0
  6
CONTINUOUS
 62
     7
 10
103.5084150051
 20
167.9840668196
 30
0.0
 11
100.1037901118
 21
166.4494003004
 31
0.0
  0
LINE
  5
19C
  8
0
  6
CONTINUOUS
 62
     7
 10
103.5084150051
 20
167.9840668196
 30
0.0
 11
103.5671526455
 21
167.9816626916
 31
0.0
  0
POLYLINE
  5
19D
  8
0
  6
CONTINUOUS
 62
     7
 66
     1
 10
0.0
 20
0.0
 30
0.0
  0
VERTEX
  5
433
  8
0
  6
CONTINUOUS
 62
     7
 10
103.4741767178
 20
167.9776958171
 30
0.0
  0
VERTEX
  5
434
  8
0
  6
CONTINUOUS
 62
     7
 10
103.4861989981
 20
167.9818700891
 30
0.0
  0
VERTEX
  5
435
  8
0
  6
CONTINUOUS
 62
     7
 10
103.5084150051
 20
167.9840668196
 30
0.0
  0
SEQEND
  5
65A
  8
0
  6
CONTINUOUS
 62
     7
  0
ARC
  5
19E
  8
0
  6
CONTINUOUS
 62
     7
 10
103.341340234
 20
166.9980278403
 30
0.0
 40
0.5474072480425287
 50
327.3396192408
 51
16.2667268187
  0
ARC
  5
19F
  8
0
  6
CONTINUOUS
 62
     7
 10
106.2360369741
 20
160.644465969
 30
0.0
 40
0.3101976240493811
 50
298.4170328735
 51
353.3943934495
  0
LINE
  5
1A0
  8
0
  6
CONTINUOUS
 62
     7
 10
106.397519401
 20
160.3790012503
 30
0.0
 11
106.3957630944
 21
160.2722855435
 31
0.0
  0
LINE
  5
1A1
  8
0
  6
CONTINUOUS
 62
     7
 10
94.042243858
 20
148.9737639266
 30
0.0
 11
95.9417339667
 21
149.9481741129
 31
0.0
  0
LINE
  5
1A2
  8
0
  6
CONTINUOUS
 62
     7
 10
102.6668921593
 20
153.3980802837
 30
0.0
 11
107.6250473813
 21
155.9415402003
 31
0.0
  0
LINE
  5
1A3
  8
0
  6
CONTINUOUS
 62
     7
 10
93.9594617034
 20
153.236766526
 30
0.0
 11
94.042243858
 21
148.9737639266
 31
0.0
  0
LINE
  5
1A4
  8
0
  6
CONTINUOUS
 62
     7
 10
93.9594617034
 20
153.236766526
 30
0.0
 11
107.7078944302
 21
160.0397633298
 31
0.0
  0
LINE
  5
1A5
  8
0
  6
CONTINUOUS
 62
     7
 10
107.6250473813
 20
155.9415402003
 30
0.0
 11
107.7078944302
 21
160.0397633298
 31
0.0
  0
LINE
  5
1A6
  8
0
  6
CONTINUOUS
 62
     7
 10
96.4473348549
 20
155.6409230211
 30
0.0
 11
96.8056896817
 21
155.4589049785
 31
0.0
  0
LINE
  5
1A7
  8
0
  6
CONTINUOUS
 62
     7
 10
96.5035328015
 20
155.9910171033
 30
0.0
 11
97.1477582188
 21
156.3056839117
 31
0.0
  0
LINE
  5
1A8
  8
0
  6
CONTINUOUS
 62
     7
 10
97.1477582188
 20
156.3056839117
 30
0.0
 11
98.2039105046
 21
155.7739867334
 31
0.0
  0
LINE
  5
1A9
  8
0
  6
CONTINUOUS
 62
     7
 10
98.2039105046
 20
155.7739867334
 30
0.0
 11
102.9496498322
 21
158.1133633394
 31
0.0
  0
LINE
  5
1AA
  8
0
  6
CONTINUOUS
 62
     7
 10
102.9496498322
 20
158.1133633394
 30
0.0
 11
101.8933880542
 21
158.623649261
 31
0.0
  0
LINE
  5
1AB
  8
0
  6
CONTINUOUS
 62
     7
 10
101.8933880542
 20
158.623649261
 30
0.0
 11
102.868026883
 21
159.0997038864
 31
0.0
  0
LINE
  5
1AC
  8
0
  6
CONTINUOUS
 62
     7
 10
102.868026883
 20
159.0997038864
 30
0.0
 11
103.5503394246
 21
158.7728527451
 31
0.0
  0
LINE
  5
1AD
  8
0
  6
CONTINUOUS
 62
     7
 10
103.5503394246
 20
158.7728527451
 30
0.0
 11
106.8968578617
 21
160.4171467741
 31
0.0
  0
LINE
  5
1AE
  8
0
  6
CONTINUOUS
 62
     7
 10
107.7078944302
 20
160.0397633298
 30
0.0
 11
106.8968578617
 21
160.4171467741
 31
0.0
  0
LINE
  5
1AF
  8
0
  6
CONTINUOUS
 62
     7
 10
93.9594617034
 20
153.236766526
 30
0.0
 11
93.1485092446
 21
153.6619688286
 31
0.0
  0
LINE
  5
1B0
  8
0
  6
CONTINUOUS
 62
     7
 10
96.8056896817
 20
155.4589049785
 30
0.0
 11
93.1485092446
 21
153.6619688286
 31
0.0
  0
LINE
  5
1B1
  8
0
  6
CONTINUOUS
 62
     7
 10
94.042243858
 20
148.9737639266
 30
0.0
 11
93.5327056188
 21
149.2505360129
 31
0.0
  0
LINE
  5
1B2
  8
0
  6
CONTINUOUS
 62
     7
 10
93.1739700595
 20
152.4915316382
 30
0.0
 11
93.2419962298
 21
151.792489977
 31
0.0
  0
LINE
  5
1B3
  8
0
  6
CONTINUOUS
 62
     7
 10
92.7634937616
 20
152.7088853235
 30
0.0
 11
93.1739700595
 21
152.4915316382
 31
0.0
  0
LINE
  5
1B4
  8
0
  6
CONTINUOUS
 62
     7
 10
92.4761506478
 20
153.6291106988
 30
0.0
 11
92.4853391957
 21
153.2415875008
 31
0.0
  0
LINE
  5
1B5
  8
0
  6
CONTINUOUS
 62
     7
 10
93.1570154892
 20
153.2709355864
 30
0.0
 11
92.4761506478
 21
153.6291106988
 31
0.0
  0
LINE
  5
1B6
  8
0
  6
CONTINUOUS
 62
     7
 10
93.1485092446
 20
153.6619688286
 30
0.0
 11
93.1570154892
 21
153.2709355864
 31
0.0
  0
LINE
  5
1B7
  8
0
  6
CONTINUOUS
 62
     7
 10
92.4622631797
 20
154.2148089081
 30
0.0
 11
91.9926198009
 21
155.4271400558
 31
0.0
  0
LINE
  5
1B8
  8
0
  6
CONTINUOUS
 62
     7
 10
92.4668975902
 20
154.0193545691
 30
0.0
 11
92.4622631797
 21
154.2148089081
 31
0.0
  0
LINE
  5
1B9
  8
0
  6
CONTINUOUS
 62
     7
 10
90.143982779
 20
155.2373158884
 30
0.0
 11
92.4668975902
 21
154.0193545691
 31
0.0
  0
LINE
  5
1BA
  8
0
  6
CONTINUOUS
 62
     7
 10
90.1380915637
 20
155.43141003
 30
0.0
 11
90.143982779
 21
155.2373158884
 31
0.0
  0
LINE
  5
1BB
  8
0
  6
CONTINUOUS
 62
     7
 10
90.5473665659
 20
156.1773660461
 30
0.0
 11
90.1380915637
 21
155.43141003
 31
0.0
  0
LINE
  5
1BC
  8
0
  6
CONTINUOUS
 62
     7
 10
91.9926198009
 20
155.4271400558
 30
0.0
 11
90.5473665659
 21
156.1773660461
 31
0.0
  0
LINE
  5
1BD
  8
0
  6
CONTINUOUS
 62
     7
 10
91.9926198009
 20
155.4271400558
 30
0.0
 11
92.6896958428
 21
155.7628393273
 31
0.0
  0
LINE
  5
1BE
  8
0
  6
CONTINUOUS
 62
     7
 10
96.6644149799
 20
157.0054693576
 30
0.0
 11
97.1458206746
 21
156.4985730261
 31
0.0
  0
LINE
  5
1BF
  8
0
  6
CONTINUOUS
 62
     7
 10
97.1458206746
 20
156.4985730261
 30
0.0
 11
96.536941143
 21
156.2016753734
 31
0.0
  0
LINE
  5
1C0
  8
0
  6
CONTINUOUS
 62
     7
 10
92.5077841214
 20
154.2370055168
 30
0.0
 11
92.4622631797
 21
154.2148089081
 31
0.0
  0
LINE
  5
1C1
  8
0
  6
CONTINUOUS
 62
     7
 10
96.4212052562
 20
155.2699904871
 30
0.0
 11
96.2053920148
 21
155.379974489
 31
0.0
  0
LINE
  5
1C2
  8
0
  6
CONTINUOUS
 62
     7
 10
91.9428183177
 20
156.8409964923
 30
0.0
 11
90.5473665659
 21
156.1773660461
 31
0.0
  0
LINE
  5
1C3
  8
0
  6
CONTINUOUS
 62
     7
 10
97.1458206746
 20
156.4985730261
 30
0.0
 11
97.1477582188
 21
156.3056839117
 31
0.0
  0
LINE
  5
1C4
  8
0
  6
CONTINUOUS
 62
     7
 10
88.7017404427
 20
155.9935189872
 30
0.0
 11
88.7186937828
 21
155.5014378893
 31
0.0
  0
LINE
  5
1C5
  8
0
  6
CONTINUOUS
 62
     7
 10
89.4805978161
 20
155.5851449266
 30
0.0
 11
88.7017404427
 21
155.9935189872
 31
0.0
  0
LINE
  5
1C6
  8
0
  6
CONTINUOUS
 62
     7
 10
89.4930670026
 20
155.1983888508
 30
0.0
 11
89.4805978161
 21
155.5851449266
 31
0.0
  0
LINE
  5
1C7
  8
0
  6
CONTINUOUS
 62
     7
 10
90.0046465298
 20
154.9292678101
 30
0.0
 11
89.4930670026
 21
155.1983888508
 31
0.0
  0
LINE
  5
1C8
  8
0
  6
CONTINUOUS
 62
     7
 10
88.7017404427
 20
155.9935189872
 30
0.0
 11
89.6485235955
 21
156.441065981
 31
0.0
  0
LINE
  5
1C9
  8
0
  6
CONTINUOUS
 62
     7
 10
99.5666623948
 20
159.7477033281
 30
0.0
 11
99.3632337126
 21
159.8459808524
 31
0.0
  0
LINE
  5
1CA
  8
0
  6
CONTINUOUS
 62
     7
 10
89.7711943573
 20
155.7234451415
 30
0.0
 11
89.4805978161
 21
155.5851449266
 31
0.0
  0
LINE
  5
1CB
  8
0
  6
CONTINUOUS
 62
     7
 10
89.8359985731
 20
155.3621539286
 30
0.0
 11
89.4930670026
 21
155.1983888508
 31
0.0
  0
LINE
  5
1CC
  8
0
  6
CONTINUOUS
 62
     7
 10
98.5586142035
 20
157.2569492001
 30
0.0
 11
97.1004375584
 21
156.5463590386
 31
0.0
  0
LINE
  5
1CD
  8
0
  6
CONTINUOUS
 62
     7
 10
99.8811536124
 20
156.6007713217
 30
0.0
 11
98.5586142035
 21
157.2569492001
 31
0.0
  0
LINE
  5
1CE
  8
0
  6
CONTINUOUS
 62
     7
 10
98.5586142035
 20
157.2569492001
 30
0.0
 11
98.545519846
 21
159.455253482
 31
0.0
  0
LINE
  5
1CF
  8
0
  6
CONTINUOUS
 62
     7
 10
99.5660892874
 20
159.9366345535
 30
0.0
 11
99.5666623948
 21
159.7477033281
 31
0.0
  0
LINE
  5
1D0
  8
0
  6
CONTINUOUS
 62
     7
 10
101.8940781267
 20
158.8138856926
 30
0.0
 11
99.5660892874
 21
159.9366345535
 31
0.0
  0
LINE
  5
1D1
  8
0
  6
CONTINUOUS
 62
     7
 10
101.8933880542
 20
158.623649261
 30
0.0
 11
101.8940781267
 21
158.8138856926
 31
0.0
  0
LINE
  5
1D2
  8
0
  6
CONTINUOUS
 62
     7
 10
99.5660892874
 20
159.9366345535
 30
0.0
 11
99.5765425797
 21
159.9479055921
 31
0.0
  0
LINE
  5
1D3
  8
0
  6
CONTINUOUS
 62
     7
 10
100.9915440729
 20
160.6240342359
 30
0.0
 11
101.8926499893
 21
160.1948163523
 31
0.0
  0
LINE
  5
1D4
  8
0
  6
CONTINUOUS
 62
     7
 10
101.8940781267
 20
158.8138856926
 30
0.0
 11
101.8926499893
 21
160.1948163523
 31
0.0
  0
LINE
  5
1D5
  8
0
  6
CONTINUOUS
 62
     7
 10
102.916212414
 20
159.3122917892
 30
0.0
 11
101.8940781267
 21
158.8138856926
 31
0.0
  0
LINE
  5
1D6
  8
0
  6
CONTINUOUS
 62
     7
 10
101.8926499893
 20
160.1948163523
 30
0.0
 11
103.1474432694
 21
160.7991022044
 31
0.0
  0
LINE
  5
1D7
  8
0
  6
CONTINUOUS
 62
     7
 10
106.5015274842
 20
160.2229031868
 30
0.0
 11
106.2857737424
 21
160.3236409925
 31
0.0
  0
POLYLINE
  5
1D8
  8
0
  6
CONTINUOUS
 62
     7
 66
     1
 10
0.0
 20
0.0
 30
0.0
  0
VERTEX
  5
436
  8
0
  6
CONTINUOUS
 62
     7
 10
111.6415566395
 20
150.6392873871
 30
0.0
  0
VERTEX
  5
437
  8
0
  6
CONTINUOUS
 62
     7
 10
111.5049204422
 20
150.7273311952
 30
0.0
  0
VERTEX
  5
438
  8
0
  6
CONTINUOUS
 62
     7
 10
111.3498572955
 20
150.8946416429
 30
0.0
  0
VERTEX
  5
439
  8
0
  6
CONTINUOUS
 62
     7
 10
111.2319204538
 20
151.1137334656
 30
0.0
  0
VERTEX
  5
43A
  8
0
  6
CONTINUOUS
 62
     7
 10
111.1547005961
 20
151.3784474486
 30
0.0
  0
VERTEX
  5
43B
  8
0
  6
CONTINUOUS
 62
     7
 10
111.1206130603
 20
151.6812254376
 30
0.0
  0
VERTEX
  5
43C
  8
0
  6
CONTINUOUS
 62
     7
 10
111.1308058367
 20
152.0133191637
 30
0.0
  0
VERTEX
  5
43D
  8
0
  6
CONTINUOUS
 62
     7
 10
111.1851071104
 20
152.365048024
 30
0.0
  0
VERTEX
  5
43E
  8
0
  6
CONTINUOUS
 62
     7
 10
111.2820157678
 20
152.7260892589
 30
0.0
  0
VERTEX
  5
43F
  8
0
  6
CONTINUOUS
 62
     7
 10
111.4187372113
 20
153.0858005844
 30
0.0
  0
VERTEX
  5
440
  8
0
  6
CONTINUOUS
 62
     7
 10
111.591264299
 20
153.43355444
 30
0.0
  0
VERTEX
  5
441
  8
0
  6
CONTINUOUS
 62
     7
 10
111.7945015021
 20
153.7590786126
 30
0.0
  0
VERTEX
  5
442
  8
0
  6
CONTINUOUS
 62
     7
 10
112.0224262873
 20
154.0527794536
 30
0.0
  0
VERTEX
  5
443
  8
0
  6
CONTINUOUS
 62
     7
 10
112.2682836652
 20
154.3060484108
 30
0.0
  0
VERTEX
  5
444
  8
0
  6
CONTINUOUS
 62
     7
 10
112.5248032118
 20
154.5115253671
 30
0.0
  0
VERTEX
  5
445
  8
0
  6
CONTINUOUS
 62
     7
 10
112.7844312179
 20
154.6633197475
 30
0.0
  0
VERTEX
  5
446
  8
0
  6
CONTINUOUS
 62
     7
 10
113.0395680725
 20
154.7571768746
 30
0.0
  0
VERTEX
  5
447
  8
0
  6
CONTINUOUS
 62
     7
 10
113.2828018314
 20
154.790586941
 30
0.0
  0
VERTEX
  5
448
  8
0
  6
CONTINUOUS
 62
     7
 10
113.5071293182
 20
154.7628353619
 30
0.0
  0
VERTEX
  5
449
  8
0
  6
CONTINUOUS
 62
     7
 10
113.6289114153
 20
154.7177001447
 30
0.0
  0
SEQEND
  5
659
  8
0
  6
CONTINUOUS
 62
     7
  0
POLYLINE
  5
1D9
  8
0
  6
CONTINUOUS
 62
     7
 66
     1
 10
0.0
 20
0.0
 30
0.0
  0
VERTEX
  5
44A
  8
0
  6
CONTINUOUS
 62
     7
 10
112.2178048307
 20
150.3530797479
 30
0.0
  0
VERTEX
  5
44B
  8
0
  6
CONTINUOUS
 62
     7
 10
111.9892950588
 20
150.3118709431
 30
0.0
  0
VERTEX
  5
44C
  8
0
  6
CONTINUOUS
 62
     7
 10
111.7440529047
 20
150.3225892163
 30
0.0
  0
VERTEX
  5
44D
  8
0
  6
CONTINUOUS
 62
     7
 10
111.5217971132
 20
150.3948879027
 30
0.0
  0
VERTEX
  5
44E
  8
0
  6
CONTINUOUS
 62
     7
 10
111.3284640659
 20
150.527169433
 30
0.0
  0
VERTEX
  5
44F
  8
0
  6
CONTINUOUS
 62
     7
 10
111.1692863131
 20
150.7162412313
 30
0.0
  0
VERTEX
  5
450
  8
0
  6
CONTINUOUS
 62
     7
 10
111.0486374148
 20
150.957368511
 30
0.0
  0
VERTEX
  5
451
  8
0
  6
CONTINUOUS
 62
     7
 10
110.9698974595
 20
151.2443759704
 30
0.0
  0
VERTEX
  5
452
  8
0
  6
CONTINUOUS
 62
     7
 10
110.9353409866
 20
151.5697931885
 30
0.0
  0
VERTEX
  5
453
  8
0
  6
CONTINUOUS
 62
     7
 10
110.9460555003
 20
151.9250448897
 30
0.0
  0
VERTEX
  5
454
  8
0
  6
CONTINUOUS
 62
     7
 10
111.0018931708
 20
152.300678038
 30
0.0
  0
VERTEX
  5
455
  8
0
  6
CONTINUOUS
 62
     7
 10
111.1014603785
 20
152.6866265114
 30
0.0
  0
VERTEX
  5
456
  8
0
  6
CONTINUOUS
 62
     7
 10
111.2421467451
 20
153.0724962856
 30
0.0
  0
VERTEX
  5
457
  8
0
  6
CONTINUOUS
 62
     7
 10
111.4201929819
 20
153.4478683703
 30
0.0
  0
VERTEX
  5
458
  8
0
  6
CONTINUOUS
 62
     7
 10
111.6307975212
 20
153.8026026921
 30
0.0
  0
VERTEX
  5
459
  8
0
  6
CONTINUOUS
 62
     7
 10
111.8682557786
 20
154.1271377522
 30
0.0
  0
VERTEX
  5
45A
  8
0
  6
CONTINUOUS
 62
     7
 10
112.1261304501
 20
154.4127683735
 30
0.0
  0
VERTEX
  5
45B
  8
0
  6
CONTINUOUS
 62
     7
 10
112.3974418923
 20
154.6518946704
 30
0.0
  0
VERTEX
  5
45C
  8
0
  6
CONTINUOUS
 62
     7
 10
112.6748753122
 20
154.8382316984
 30
0.0
  0
VERTEX
  5
45D
  8
0
  6
CONTINUOUS
 62
     7
 10
112.9509932365
 20
154.966980337
 30
0.0
  0
VERTEX
  5
45E
  8
0
  6
CONTINUOUS
 62
     7
 10
113.2184480295
 20
155.0349357749
 30
0.0
  0
VERTEX
  5
45F
  8
0
  6
CONTINUOUS
 62
     7
 10
113.4701856088
 20
155.0405597557
 30
0.0
  0
VERTEX
  5
460
  8
0
  6
CONTINUOUS
 62
     7
 10
113.6996343193
 20
154.9839919926
 30
0.0
  0
VERTEX
  5
461
  8
0
  6
CONTINUOUS
 62
     7
 10
113.9008738009
 20
154.8670160485
 30
0.0
  0
VERTEX
  5
462
  8
0
  6
CONTINUOUS
 62
     7
 10
114.068779875
 20
154.6929818474
 30
0.0
  0
VERTEX
  5
463
  8
0
  6
CONTINUOUS
 62
     7
 10
114.1991426227
 20
154.4666882591
 30
0.0
  0
VERTEX
  5
464
  8
0
  6
CONTINUOUS
 62
     7
 10
114.1991426227
 20
154.4666882591
 30
0.0
  0
SEQEND
  5
658
  8
0
  6
CONTINUOUS
 62
     7
  0
POLYLINE
  5
1DA
  8
0
  6
CONTINUOUS
 62
     7
 66
     1
 10
0.0
 20
0.0
 30
0.0
  0
VERTEX
  5
465
  8
0
  6
CONTINUOUS
 62
     7
 10
110.8483503411
 20
150.730209312
 30
0.0
  0
VERTEX
  5
466
  8
0
  6
CONTINUOUS
 62
     7
 10
110.657954027
 20
150.8609389882
 30
0.0
  0
VERTEX
  5
467
  8
0
  6
CONTINUOUS
 62
     7
 10
110.4981571687
 20
151.0500129592
 30
0.0
  0
VERTEX
  5
468
  8
0
  6
CONTINUOUS
 62
     7
 10
110.376835359
 20
151.2909695123
 30
0.0
  0
VERTEX
  5
469
  8
0
  6
CONTINUOUS
 62
     7
 10
110.2973857239
 20
151.5776367017
 30
0.0
  0
VERTEX
  5
46A
  8
0
  6
CONTINUOUS
 62
     7
 10
110.2621010022
 20
151.9025523391
 30
0.0
  0
VERTEX
  5
46B
  8
0
  6
CONTINUOUS
 62
     7
 10
110.2720876264
 20
152.2571541191
 30
0.0
  0
VERTEX
  5
46C
  8
0
  6
CONTINUOUS
 62
     7
 10
110.3272169513
 20
152.6320064003
 30
0.0
  0
VERTEX
  5
46D
  8
0
  6
CONTINUOUS
 62
     7
 10
110.4261142824
 20
153.0170643844
 30
0.0
  0
VERTEX
  5
46E
  8
0
  6
CONTINUOUS
 62
     7
 10
110.5661873786
 20
153.4019586543
 30
0.0
  0
VERTEX
  5
46F
  8
0
  6
CONTINUOUS
 62
     7
 10
110.7436937624
 20
153.7762973282
 30
0.0
  0
VERTEX
  5
470
  8
0
  6
CONTINUOUS
 62
     7
 10
110.9538468361
 20
154.129969069
 30
0.0
  0
VERTEX
  5
471
  8
0
  6
CONTINUOUS
 62
     7
 10
111.1909546582
 20
154.4534418085
 30
0.0
  0
VERTEX
  5
472
  8
0
  6
CONTINUOUS
 62
     7
 10
111.4485898253
 20
154.7380395534
 30
0.0
  0
VERTEX
  5
473
  8
0
  6
CONTINUOUS
 62
     7
 10
111.7197795135
 20
154.9761904494
 30
0.0
  0
VERTEX
  5
474
  8
0
  6
CONTINUOUS
 62
     7
 10
111.9972124357
 20
155.1616355961
 30
0.0
  0
VERTEX
  5
475
  8
0
  6
CONTINUOUS
 62
     7
 10
112.2734511741
 20
155.2895991937
 30
0.0
  0
VERTEX
  5
476
  8
0
  6
CONTINUOUS
 62
     7
 10
112.5411447107
 20
155.3568964407
 30
0.0
  0
VERTEX
  5
477
  8
0
  6
CONTINUOUS
 62
     7
 10
112.7932322421
 20
155.3620053084
 30
0.0
  0
VERTEX
  5
478
  8
0
  6
CONTINUOUS
 62
     7
 10
113.0231322873
 20
155.3050776487
 30
0.0
  0
VERTEX
  5
479
  8
0
  6
CONTINUOUS
 62
     7
 10
113.0677753534
 20
155.2854968272
 30
0.0
  0
SEQEND
  5
657
  8
0
  6
CONTINUOUS
 62
     7
  0
LINE
  5
1DB
  8
0
  6
CONTINUOUS
 62
     7
 10
114.1991426227
 20
154.4666882591
 30
0.0
 11
114.1983565259
 21
154.4467248611
 31
0.0
  0
LINE
  5
1DC
  8
0
  6
CONTINUOUS
 62
     7
 10
114.783266561
 20
154.3437052064
 30
0.0
 11
114.7955444178
 21
154.6425352315
 31
0.0
  0
LINE
  5
1DD
  8
0
  6
CONTINUOUS
 62
     7
 10
114.7955444178
 20
154.6425352315
 30
0.0
 11
113.3431189064
 21
155.3308331458
 31
0.0
  0
LINE
  5
1DE
  8
0
  6
CONTINUOUS
 62
     7
 10
108.7936020576
 20
156.8188433823
 30
0.0
 11
108.9072217023
 21
161.6471721136
 31
0.0
  0
LINE
  5
1DF
  8
0
  6
CONTINUOUS
 62
     7
 10
108.9072217023
 20
161.6471721136
 30
0.0
 11
114.8382028264
 21
158.9412491978
 31
0.0
  0
LINE
  5
1E0
  8
0
  6
CONTINUOUS
 62
     7
 10
114.9798927188
 20
162.4223413176
 30
0.0
 11
114.8382028264
 21
158.9412491978
 31
0.0
  0
LINE
  5
1E1
  8
0
  6
CONTINUOUS
 62
     7
 10
116.7860902803
 20
161.6244624141
 30
0.0
 11
114.9798927188
 21
162.4223413176
 31
0.0
  0
LINE
  5
1E2
  8
0
  6
CONTINUOUS
 62
     7
 10
116.7860902803
 20
161.6244624141
 30
0.0
 11
116.4081265583
 21
153.3951867159
 31
0.0
  0
LINE
  5
1E3
  8
0
  6
CONTINUOUS
 62
     7
 10
108.7936020576
 20
156.8188433823
 30
0.0
 11
112.1280131688
 21
155.2293425095
 31
0.0
  0
LINE
  5
1E4
  8
0
  6
CONTINUOUS
 62
     7
 10
121.9295253275
 20
164.2393521861
 30
0.0
 11
120.1296021304
 21
164.9995051704
 31
0.0
  0
LINE
  5
1E5
  8
0
  6
CONTINUOUS
 62
     7
 10
121.9295253275
 20
164.2393521861
 30
0.0
 11
116.7860902803
 21
161.6244624141
 31
0.0
  0
LINE
  5
1E6
  8
0
  6
CONTINUOUS
 62
     7
 10
117.5858122859
 20
163.7264696042
 30
0.0
 11
114.9798927188
 21
162.4223413176
 31
0.0
  0
LINE
  5
1E7
  8
0
  6
CONTINUOUS
 62
     7
 10
120.1296021304
 20
164.9995051704
 30
0.0
 11
117.5858122859
 21
163.7264696042
 31
0.0
  0
LINE
  5
1E8
  8
0
  6
CONTINUOUS
 62
     7
 10
121.4310039699
 20
155.9448591207
 30
0.0
 11
121.9295253275
 21
164.2393521861
 31
0.0
  0
LINE
  5
1E9
  8
0
  6
CONTINUOUS
 62
     7
 10
116.6004496872
 20
153.3036682795
 30
0.0
 11
121.4310039699
 21
155.9448591207
 31
0.0
  0
POLYLINE
  5
1EA
  8
0
  6
CONTINUOUS
 62
     7
 66
     1
 10
0.0
 20
0.0
 30
0.0
  0
VERTEX
  5
47A
  8
0
  6
CONTINUOUS
 62
     7
 10
120.9457902075
 20
160.3911935669
 30
0.0
  0
VERTEX
  5
47B
  8
0
  6
CONTINUOUS
 62
     7
 10
120.9463735404
 20
160.7402013424
 30
0.0
  0
VERTEX
  5
47C
  8
0
  6
CONTINUOUS
 62
     7
 10
120.9063741929
 20
161.0606465366
 30
0.0
  0
VERTEX
  5
47D
  8
0
  6
CONTINUOUS
 62
     7
 10
120.8265554467
 20
161.3450381193
 30
0.0
  0
VERTEX
  5
47E
  8
0
  6
CONTINUOUS
 62
     7
 10
120.7085964493
 20
161.5866449014
 30
0.0
  0
VERTEX
  5
47F
  8
0
  6
CONTINUOUS
 62
     7
 10
120.5550617288
 20
161.7796550608
 30
0.0
  0
VERTEX
  5
480
  8
0
  6
CONTINUOUS
 62
     7
 10
120.369367358
 20
161.9193314862
 30
0.0
  0
VERTEX
  5
481
  8
0
  6
CONTINUOUS
 62
     7
 10
120.155712716
 20
162.0021346995
 30
0.0
  0
VERTEX
  5
482
  8
0
  6
CONTINUOUS
 62
     7
 10
119.9189999564
 20
162.0258364886
 30
0.0
  0
VERTEX
  5
483
  8
0
  6
CONTINUOUS
 62
     7
 10
119.6647271962
 20
161.9895949277
 30
0.0
  0
VERTEX
  5
484
  8
0
  6
CONTINUOUS
 62
     7
 10
119.3988662155
 20
161.8940041859
 30
0.0
  0
VERTEX
  5
485
  8
0
  6
CONTINUOUS
 62
     7
 10
119.1277206409
 20
161.7411022131
 30
0.0
  0
VERTEX
  5
486
  8
0
  6
CONTINUOUS
 62
     7
 10
118.857773413
 20
161.5343440035
 30
0.0
  0
VERTEX
  5
487
  8
0
  6
CONTINUOUS
 62
     7
 10
118.5955214496
 20
161.2785336727
 30
0.0
  0
VERTEX
  5
488
  8
0
  6
CONTINUOUS
 62
     7
 10
118.3473077224
 20
160.9797139435
 30
0.0
  0
VERTEX
  5
489
  8
0
  6
CONTINUOUS
 62
     7
 10
118.1191549024
 20
160.645024032
 30
0.0
  0
VERTEX
  5
48A
  8
0
  6
CONTINUOUS
 62
     7
 10
117.9166035002
 20
160.2825175504
 30
0.0
  0
VERTEX
  5
48B
  8
0
  6
CONTINUOUS
 62
     7
 10
117.7445643139
 20
159.9009527786
 30
0.0
  0
VERTEX
  5
48C
  8
0
  6
CONTINUOUS
 62
     7
 10
117.6071879462
 20
159.5095657371
 30
0.0
  0
VERTEX
  5
48D
  8
0
  6
CONTINUOUS
 62
     7
 10
117.5077545675
 20
159.1178214328
 30
0.0
  0
VERTEX
  5
48E
  8
0
  6
CONTINUOUS
 62
     7
 10
117.4485937871
 20
158.7351694576
 30
0.0
  0
VERTEX
  5
48F
  8
0
  6
CONTINUOUS
 62
     7
 10
117.4310277502
 20
158.3707913005
 30
0.0
  0
VERTEX
  5
490
  8
0
  6
CONTINUOUS
 62
     7
 10
117.4553486018
 20
158.0333690587
 30
0.0
  0
VERTEX
  5
491
  8
0
  6
CONTINUOUS
 62
     7
 10
117.520823261
 20
157.7308688569
 30
0.0
  0
VERTEX
  5
492
  8
0
  6
CONTINUOUS
 62
     7
 10
117.6257242708
 20
157.4703462828
 30
0.0
  0
VERTEX
  5
493
  8
0
  6
CONTINUOUS
 62
     7
 10
117.7673911303
 20
157.2577888399
 30
0.0
  0
VERTEX
  5
494
  8
0
  6
CONTINUOUS
 62
     7
 10
117.9423093345
 20
157.097983418
 30
0.0
  0
VERTEX
  5
495
  8
0
  6
CONTINUOUS
 62
     7
 10
118.1462124361
 20
156.9944261242
 30
0.0
  0
VERTEX
  5
496
  8
0
  6
CONTINUOUS
 62
     7
 10
118.3741971547
 20
156.9492620629
 30
0.0
  0
VERTEX
  5
497
  8
0
  6
CONTINUOUS
 62
     7
 10
118.6208487144
 20
156.9632629022
 30
0.0
  0
VERTEX
  5
498
  8
0
  6
CONTINUOUS
 62
     7
 10
118.8803748602
 20
157.0358340291
 30
0.0
  0
VERTEX
  5
499
  8
0
  6
CONTINUOUS
 62
     7
 10
119.1467415074
 20
157.165053917
 30
0.0
  0
VERTEX
  5
49A
  8
0
  6
CONTINUOUS
 62
     7
 10
119.4138087691
 20
157.3477376849
 30
0.0
  0
VERTEX
  5
49B
  8
0
  6
CONTINUOUS
 62
     7
 10
119.6754667403
 20
157.5795276505
 30
0.0
  0
VERTEX
  5
49C
  8
0
  6
CONTINUOUS
 62
     7
 10
119.9257631357
 20
157.8549999942
 30
0.0
  0
VERTEX
  5
49D
  8
0
  6
CONTINUOUS
 62
     7
 10
120.1590273172
 20
158.1677924616
 30
0.0
  0
VERTEX
  5
49E
  8
0
  6
CONTINUOUS
 62
     7
 10
120.3699839992
 20
158.510742556
 30
0.0
  0
VERTEX
  5
49F
  8
0
  6
CONTINUOUS
 62
     7
 10
120.5538615127
 20
158.8760418565
 30
0.0
  0
VERTEX
  5
4A0
  8
0
  6
CONTINUOUS
 62
     7
 10
120.706484876
 20
159.2553955763
 30
0.0
  0
VERTEX
  5
4A1
  8
0
  6
CONTINUOUS
 62
     7
 10
120.8243664787
 20
159.640197026
 30
0.0
  0
VERTEX
  5
4A2
  8
0
  6
CONTINUOUS
 62
     7
 10
120.9047719517
 20
160.0216979931
 30
0.0
  0
VERTEX
  5
4A3
  8
0
  6
CONTINUOUS
 62
     7
 10
120.9457902075
 20
160.3911935669
 30
0.0
  0
SEQEND
  5
656
  8
0
  6
CONTINUOUS
 62
     7
  0
POLYLINE
  5
1EB
  8
0
  6
CONTINUOUS
 62
     7
 66
     1
 10
0.0
 20
0.0
 30
0.0
  0
VERTEX
  5
4A4
  8
0
  6
CONTINUOUS
 62
     7
 10
108.9072217023
 20
161.6471721136
 30
0.0
  0
VERTEX
  5
4A5
  8
0
  6
CONTINUOUS
 62
     7
 10
108.9379115927
 20
162.0825651289
 30
0.0
  0
VERTEX
  5
4A6
  8
0
  6
CONTINUOUS
 62
     7
 10
109.0095754353
 20
162.5321784743
 30
0.0
  0
VERTEX
  5
4A7
  8
0
  6
CONTINUOUS
 62
     7
 10
109.1211490824
 20
162.9886663701
 30
0.0
  0
VERTEX
  5
4A8
  8
0
  6
CONTINUOUS
 62
     7
 10
109.2708782218
 20
163.4445306608
 30
0.0
  0
VERTEX
  5
4A9
  8
0
  6
CONTINUOUS
 62
     7
 10
109.456349417
 20
163.8922602899
 30
0.0
  0
VERTEX
  5
4AA
  8
0
  6
CONTINUOUS
 62
     7
 10
109.6745285445
 20
164.3244654836
 30
0.0
  0
VERTEX
  5
4AB
  8
0
  6
CONTINUOUS
 62
     7
 10
109.9218169836
 20
164.7340222214
 30
0.0
  0
VERTEX
  5
4AC
  8
0
  6
CONTINUOUS
 62
     7
 10
110.1941183782
 20
165.1141981529
 30
0.0
  0
VERTEX
  5
4AD
  8
0
  6
CONTINUOUS
 62
     7
 10
110.4869167599
 20
165.4587828103
 30
0.0
  0
VERTEX
  5
4AE
  8
0
  6
CONTINUOUS
 62
     7
 10
110.7953605027
 20
165.7621946605
 30
0.0
  0
VERTEX
  5
4AF
  8
0
  6
CONTINUOUS
 62
     7
 10
111.1143565514
 20
166.0195791388
 30
0.0
  0
VERTEX
  5
4B0
  8
0
  6
CONTINUOUS
 62
     7
 10
111.4386634094
 20
166.2268934301
 30
0.0
  0
VERTEX
  5
4B1
  8
0
  6
CONTINUOUS
 62
     7
 10
111.762987548
 20
166.3809623163
 30
0.0
  0
VERTEX
  5
4B2
  8
0
  6
CONTINUOUS
 62
     7
 10
112.0820800202
 20
166.4795267034
 30
0.0
  0
VERTEX
  5
4B3
  8
0
  6
CONTINUOUS
 62
     7
 10
112.3908249589
 20
166.5212665464
 30
0.0
  0
VERTEX
  5
4B4
  8
0
  6
CONTINUOUS
 62
     7
 10
112.6843267504
 20
166.5058028089
 30
0.0
  0
VERTEX
  5
4B5
  8
0
  6
CONTINUOUS
 62
     7
 10
112.9579890802
 20
166.4336920772
 30
0.0
  0
VERTEX
  5
4B6
  8
0
  6
CONTINUOUS
 62
     7
 10
113.0074478728
 20
166.4136659174
 30
0.0
  0
SEQEND
  5
655
  8
0
  6
CONTINUOUS
 62
     7
  0
POLYLINE
  5
1EC
  8
0
  6
CONTINUOUS
 62
     7
 66
     1
 10
0.0
 20
0.0
 30
0.0
  0
VERTEX
  5
4B7
  8
0
  6
CONTINUOUS
 62
     7
 10
117.8862085097
 20
160.071923461
 30
0.0
  0
VERTEX
  5
4B8
  8
0
  6
CONTINUOUS
 62
     7
 10
117.885920157
 20
160.0746104894
 30
0.0
  0
VERTEX
  5
4B9
  8
0
  6
CONTINUOUS
 62
     7
 10
117.8848134303
 20
160.0764416294
 30
0.0
  0
VERTEX
  5
4BA
  8
0
  6
CONTINUOUS
 62
     7
 10
117.8830555858
 20
160.0771373391
 30
0.0
  0
VERTEX
  5
4BB
  8
0
  6
CONTINUOUS
 62
     7
 10
117.8809150574
 20
160.0765919797
 30
0.0
  0
VERTEX
  5
4BC
  8
0
  6
CONTINUOUS
 62
     7
 10
117.8787174646
 20
160.0748890119
 30
0.0
  0
VERTEX
  5
4BD
  8
0
  6
CONTINUOUS
 62
     7
 10
117.8767976009
 20
160.0722871884
 30
0.0
  0
VERTEX
  5
4BE
  8
0
  6
CONTINUOUS
 62
     7
 10
117.8754471228
 20
160.0691824109
 30
0.0
  0
VERTEX
  5
4BF
  8
0
  6
CONTINUOUS
 62
     7
 10
117.874872487
 20
160.0660479526
 30
0.0
  0
VERTEX
  5
4C0
  8
0
  6
CONTINUOUS
 62
     7
 10
117.8751604384
 20
160.0633606239
 30
0.0
  0
VERTEX
  5
4C1
  8
0
  6
CONTINUOUS
 62
     7
 10
117.8762678385
 20
160.061529889
 30
0.0
  0
VERTEX
  5
4C2
  8
0
  6
CONTINUOUS
 62
     7
 10
117.8780252169
 20
160.0608337642
 30
0.0
  0
VERTEX
  5
4C3
  8
0
  6
CONTINUOUS
 62
     7
 10
117.8801657118
 20
160.0613792928
 30
0.0
  0
VERTEX
  5
4C4
  8
0
  6
CONTINUOUS
 62
     7
 10
117.8823631781
 20
160.0630822872
 30
0.0
  0
VERTEX
  5
4C5
  8
0
  6
CONTINUOUS
 62
     7
 10
117.8842834416
 20
160.0656846071
 30
0.0
  0
VERTEX
  5
4C6
  8
0
  6
CONTINUOUS
 62
     7
 10
117.8856333126
 20
160.0687888983
 30
0.0
  0
VERTEX
  5
4C7
  8
0
  6
CONTINUOUS
 62
     7
 10
117.8862085097
 20
160.071923461
 30
0.0
  0
SEQEND
  5
654
  8
0
  6
CONTINUOUS
 62
     7
  0
LINE
  5
1ED
  8
0
  6
CONTINUOUS
 62
     7
 10
113.1677811457
 20
155.2380322233
 30
0.0
 11
113.3431189064
 21
155.3308331458
 31
0.0
  0
LINE
  5
1EE
  8
0
  6
CONTINUOUS
 62
     7
 10
114.4012866034
 20
154.4312093638
 30
0.0
 11
114.7955444178
 21
154.6425352315
 31
0.0
  0
LINE
  5
1EF
  8
0
  6
CONTINUOUS
 62
     7
 10
114.4012866034
 20
154.4312093638
 30
0.0
 11
114.161248238
 21
154.5453539703
 31
0.0
  0
LINE
  5
1F0
  8
0
  6
CONTINUOUS
 62
     7
 10
114.6193862728
 20
154.2556423087
 30
0.0
 11
114.783266561
 21
154.3437052064
 31
0.0
  0
LINE
  5
1F1
  8
0
  6
CONTINUOUS
 62
     7
 10
114.6193862728
 20
154.2556423087
 30
0.0
 11
114.6190169191
 21
154.2465496596
 31
0.0
  0
LINE
  5
1F2
  8
0
  6
CONTINUOUS
 62
     7
 10
114.4012866034
 20
154.4312093638
 30
0.0
 11
114.3981076648
 21
154.3516713628
 31
0.0
  0
POLYLINE
  5
1F3
  8
0
  6
CONTINUOUS
 62
     7
 66
     1
 10
0.0
 20
0.0
 30
0.0
  0
VERTEX
  5
4C8
  8
0
  6
CONTINUOUS
 62
     7
 10
107.8230960959
 20
162.142941389
 30
0.0
  0
VERTEX
  5
4C9
  8
0
  6
CONTINUOUS
 62
     7
 10
107.8519776292
 20
162.5759225512
 30
0.0
  0
VERTEX
  5
4CA
  8
0
  6
CONTINUOUS
 62
     7
 10
107.9218113802
 20
163.0230020562
 30
0.0
  0
VERTEX
  5
4CB
  8
0
  6
CONTINUOUS
 62
     7
 10
108.0315610508
 20
163.476872405
 30
0.0
  0
VERTEX
  5
4CC
  8
0
  6
CONTINUOUS
 62
     7
 10
108.1795020074
 20
163.9300750372
 30
0.0
  0
VERTEX
  5
4CD
  8
0
  6
CONTINUOUS
 62
     7
 10
108.3632486077
 20
164.3751364332
 30
0.0
  0
VERTEX
  5
4CE
  8
0
  6
CONTINUOUS
 62
     7
 10
108.5797929164
 20
164.8047095909
 30
0.0
  0
VERTEX
  5
4CF
  8
0
  6
CONTINUOUS
 62
     7
 10
108.8255629349
 20
165.2117091046
 30
0.0
  0
VERTEX
  5
4D0
  8
0
  6
CONTINUOUS
 62
     7
 10
109.0964847695
 20
165.5894413152
 30
0.0
  0
VERTEX
  5
4D1
  8
0
  6
CONTINUOUS
 62
     7
 10
109.3880624215
 20
165.9317305546
 30
0.0
  0
VERTEX
  5
4D2
  8
0
  6
CONTINUOUS
 62
     7
 10
109.6954631263
 20
166.2330305372
 30
0.0
  0
VERTEX
  5
4D3
  8
0
  6
CONTINUOUS
 62
     7
 10
110.0136064023
 20
166.4885173598
 30
0.0
  0
VERTEX
  5
4D4
  8
0
  6
CONTINUOUS
 62
     7
 10
110.3372610593
 20
166.694172967
 30
0.0
  0
VERTEX
  5
4D5
  8
0
  6
CONTINUOUS
 62
     7
 10
110.6611416346
 20
166.8468462586
 30
0.0
  0
VERTEX
  5
4D6
  8
0
  6
CONTINUOUS
 62
     7
 10
110.9800011182
 20
166.944295986
 30
0.0
  0
VERTEX
  5
4D7
  8
0
  6
CONTINUOUS
 62
     7
 10
111.288722694
 20
166.985214306
 30
0.0
  0
VERTEX
  5
4D8
  8
0
  6
CONTINUOUS
 62
     7
 10
111.5824061782
 20
166.9692344893
 30
0.0
  0
VERTEX
  5
4D9
  8
0
  6
CONTINUOUS
 62
     7
 10
111.8564474734
 20
166.896915188
 30
0.0
  0
VERTEX
  5
4DA
  8
0
  6
CONTINUOUS
 62
     7
 10
111.9069241207
 20
166.8764888456
 30
0.0
  0
SEQEND
  5
653
  8
0
  6
CONTINUOUS
 62
     7
  0
LINE
  5
1F4
  8
0
  6
CONTINUOUS
 62
     7
 10
107.7248842249
 20
157.3339483204
 30
0.0
 11
107.8230960959
 21
162.142941389
 31
0.0
  0
LINE
  5
1F5
  8
0
  6
CONTINUOUS
 62
     7
 10
107.7248842249
 20
157.3339483204
 30
0.0
 11
108.7937344752
 21
156.8244569816
 31
0.0
  0
POLYLINE
  5
1F6
  8
0
  6
CONTINUOUS
 62
     7
 66
     1
 10
0.0
 20
0.0
 30
0.0
  0
VERTEX
  5
4DB
  8
0
  6
CONTINUOUS
 62
     7
 10
111.7293145081
 20
143.9292007704
 30
0.0
  0
VERTEX
  5
4DC
  8
0
  6
CONTINUOUS
 62
     7
 10
111.7542860806
 20
143.9496309833
 30
0.0
  0
VERTEX
  5
4DD
  8
0
  6
CONTINUOUS
 62
     7
 10
111.7758605238
 20
143.9792082452
 30
0.0
  0
VERTEX
  5
4DE
  8
0
  6
CONTINUOUS
 62
     7
 10
111.7907585768
 20
144.0134336489
 30
0.0
  0
VERTEX
  5
4DF
  8
0
  6
CONTINUOUS
 62
     7
 10
111.7967139866
 20
144.04710269
 30
0.0
  0
VERTEX
  5
4E0
  8
0
  6
CONTINUOUS
 62
     7
 10
111.7928181126
 20
144.0750927655
 30
0.0
  0
VERTEX
  5
4E1
  8
0
  6
CONTINUOUS
 62
     7
 10
111.7796615056
 20
144.093143802
 30
0.0
  0
VERTEX
  5
4E2
  8
0
  6
CONTINUOUS
 62
     7
 10
111.7592434294
 20
144.0985039505
 30
0.0
  0
VERTEX
  5
4E3
  8
0
  6
CONTINUOUS
 62
     7
 10
111.7346689578
 20
144.0903508344
 30
0.0
  0
VERTEX
  5
4E4
  8
0
  6
CONTINUOUS
 62
     7
 10
111.7096817209
 20
144.0699225041
 30
0.0
  0
VERTEX
  5
4E5
  8
0
  6
CONTINUOUS
 62
     7
 10
111.6880883658
 20
144.0403278751
 30
0.0
  0
VERTEX
  5
4E6
  8
0
  6
CONTINUOUS
 62
     7
 10
111.6731812753
 20
144.0060767635
 30
0.0
  0
VERTEX
  5
4E7
  8
0
  6
CONTINUOUS
 62
     7
 10
111.6672305615
 20
143.9723885331
 30
0.0
  0
VERTEX
  5
4E8
  8
0
  6
CONTINUOUS
 62
     7
 10
111.6711426969
 20
143.9443967359
 30
0.0
  0
VERTEX
  5
4E9
  8
0
  6
CONTINUOUS
 62
     7
 10
111.6843170223
 20
143.9263627456
 30
0.0
  0
VERTEX
  5
4EA
  8
0
  6
CONTINUOUS
 62
     7
 10
111.7047453296
 20
143.9210286256
 30
0.0
  0
VERTEX
  5
4EB
  8
0
  6
CONTINUOUS
 62
     7
 10
111.7293145081
 20
143.9292007704
 30
0.0
  0
SEQEND
  5
652
  8
0
  6
CONTINUOUS
 62
     7
  0
LINE
  5
1F7
  8
0
  6
CONTINUOUS
 62
     7
 10
108.1856736956
 20
144.3798506113
 30
0.0
 11
108.3553348536
 21
144.4905236518
 31
0.0
  0
POLYLINE
  5
1F8
  8
0
  6
CONTINUOUS
 62
     7
 66
     1
 10
0.0
 20
0.0
 30
0.0
  0
VERTEX
  5
4EC
  8
0
  6
CONTINUOUS
 62
     7
 10
109.4115570536
 20
146.5135928123
 30
0.0
  0
VERTEX
  5
4ED
  8
0
  6
CONTINUOUS
 62
     7
 10
109.4116766233
 20
146.5179731822
 30
0.0
  0
VERTEX
  5
4EE
  8
0
  6
CONTINUOUS
 62
     7
 10
109.3963573321
 20
146.792660157
 30
0.0
  0
VERTEX
  5
4EF
  8
0
  6
CONTINUOUS
 62
     7
 10
109.3359054766
 20
147.0318297564
 30
0.0
  0
VERTEX
  5
4F0
  8
0
  6
CONTINUOUS
 62
     7
 10
109.232470692
 20
147.2262606416
 30
0.0
  0
VERTEX
  5
4F1
  8
0
  6
CONTINUOUS
 62
     7
 10
109.0898438678
 20
147.3683598329
 30
0.0
  0
VERTEX
  5
4F2
  8
0
  6
CONTINUOUS
 62
     7
 10
108.913339912
 20
147.452471145
 30
0.0
  0
VERTEX
  5
4F3
  8
0
  6
CONTINUOUS
 62
     7
 10
108.7096170421
 20
147.4751200577
 30
0.0
  0
VERTEX
  5
4F4
  8
0
  6
CONTINUOUS
 62
     7
 10
108.4864440327
 20
147.4351882274
 30
0.0
  0
VERTEX
  5
4F5
  8
0
  6
CONTINUOUS
 62
     7
 10
108.252406786
 20
147.3339897397
 30
0.0
  0
VERTEX
  5
4F6
  8
0
  6
CONTINUOUS
 62
     7
 10
108.0165810603
 20
147.1752581728
 30
0.0
  0
VERTEX
  5
4F7
  8
0
  6
CONTINUOUS
 62
     7
 10
107.7881675585
 20
146.9650242744
 30
0.0
  0
VERTEX
  5
4F8
  8
0
  6
CONTINUOUS
 62
     7
 10
107.5761226863
 20
146.7113992451
 30
0.0
  0
VERTEX
  5
4F9
  8
0
  6
CONTINUOUS
 62
     7
 10
107.3887818942
 20
146.4242542195
 30
0.0
  0
VERTEX
  5
4FA
  8
0
  6
CONTINUOUS
 62
     7
 10
107.2335123787
 20
146.1148251269
 30
0.0
  0
VERTEX
  5
4FB
  8
0
  6
CONTINUOUS
 62
     7
 10
107.1164041536
 20
145.7952477601
 30
0.0
  0
VERTEX
  5
4FC
  8
0
  6
CONTINUOUS
 62
     7
 10
107.0420186508
 20
145.478055217
 30
0.0
  0
VERTEX
  5
4FD
  8
0
  6
CONTINUOUS
 62
     7
 10
107.0131989746
 20
145.1756559763
 30
0.0
  0
VERTEX
  5
4FE
  8
0
  6
CONTINUOUS
 62
     7
 10
107.0309694915
 20
144.899824087
 30
0.0
  0
VERTEX
  5
4FF
  8
0
  6
CONTINUOUS
 62
     7
 10
107.0945039527
 20
144.6612223913
 30
0.0
  0
VERTEX
  5
500
  8
0
  6
CONTINUOUS
 62
     7
 10
107.201185142
 20
144.4689859906
 30
0.0
  0
VERTEX
  5
501
  8
0
  6
CONTINUOUS
 62
     7
 10
107.3467262425
 20
144.3303733187
 30
0.0
  0
VERTEX
  5
502
  8
0
  6
CONTINUOUS
 62
     7
 10
107.5253693156
 20
144.2505101332
 30
0.0
  0
VERTEX
  5
503
  8
0
  6
CONTINUOUS
 62
     7
 10
107.7301298948
 20
144.2322235833
 30
0.0
  0
VERTEX
  5
504
  8
0
  6
CONTINUOUS
 62
     7
 10
107.9530829417
 20
144.2759690681
 30
0.0
  0
VERTEX
  5
505
  8
0
  6
CONTINUOUS
 62
     7
 10
108.1856736956
 20
144.3798506113
 30
0.0
  0
VERTEX
  5
506
  8
0
  6
CONTINUOUS
 62
     7
 10
108.1856736956
 20
144.3798506113
 30
0.0
  0
SEQEND
  5
651
  8
0
  6
CONTINUOUS
 62
     7
  0
POLYLINE
  5
1F9
  8
0
  6
CONTINUOUS
 62
     7
 66
     1
 10
0.0
 20
0.0
 30
0.0
  0
VERTEX
  5
507
  8
0
  6
CONTINUOUS
 62
     7
 10
108.176745204
 20
143.9846043228
 30
0.0
  0
VERTEX
  5
508
  8
0
  6
CONTINUOUS
 62
     7
 10
108.440195083
 20
144.1620199616
 30
0.0
  0
VERTEX
  5
509
  8
0
  6
CONTINUOUS
 62
     7
 10
108.6433915744
 20
144.3380389892
 30
0.0
  0
SEQEND
  5
650
  8
0
  6
CONTINUOUS
 62
     7
  0
POLYLINE
  5
1FA
  8
0
  6
CONTINUOUS
 62
     7
 66
     1
 10
0.0
 20
0.0
 30
0.0
  0
VERTEX
  5
50A
  8
0
  6
CONTINUOUS
 62
     7
 10
109.7008102801
 20
146.3635977095
 30
0.0
  0
VERTEX
  5
50B
  8
0
  6
CONTINUOUS
 62
     7
 10
109.7318607997
 20
146.6971654833
 30
0.0
  0
VERTEX
  5
50C
  8
0
  6
CONTINUOUS
 62
     7
 10
109.717783081
 20
147.0091296253
 30
0.0
  0
VERTEX
  5
50D
  8
0
  6
CONTINUOUS
 62
     7
 10
109.6583347249
 20
147.2867670288
 30
0.0
  0
VERTEX
  5
50E
  8
0
  6
CONTINUOUS
 62
     7
 10
109.5551302047
 20
147.5216273067
 30
0.0
  0
VERTEX
  5
50F
  8
0
  6
CONTINUOUS
 62
     7
 10
109.411096461
 20
147.7064649383
 30
0.0
  0
VERTEX
  5
510
  8
0
  6
CONTINUOUS
 62
     7
 10
109.2304086471
 20
147.8354710294
 30
0.0
  0
VERTEX
  5
511
  8
0
  6
CONTINUOUS
 62
     7
 10
109.0183880679
 20
147.9044733245
 30
0.0
  0
VERTEX
  5
512
  8
0
  6
CONTINUOUS
 62
     7
 10
108.7813611834
 20
147.911091907
 30
0.0
  0
VERTEX
  5
513
  8
0
  6
CONTINUOUS
 62
     7
 10
108.5264804584
 20
147.8548460069
 30
0.0
  0
VERTEX
  5
514
  8
0
  6
CONTINUOUS
 62
     7
 10
108.2615152611
 20
147.7372035332
 30
0.0
  0
VERTEX
  5
515
  8
0
  6
CONTINUOUS
 62
     7
 10
107.994613393
 20
147.561565474
 30
0.0
  0
VERTEX
  5
516
  8
0
  6
CONTINUOUS
 62
     7
 10
107.7340395346
 20
147.3331836118
 30
0.0
  0
VERTEX
  5
517
  8
0
  6
CONTINUOUS
 62
     7
 10
107.4879086288
 20
147.0590128192
 30
0.0
  0
VERTEX
  5
518
  8
0
  6
CONTINUOUS
 62
     7
 10
107.2639124175
 20
146.7474974914
 30
0.0
  0
VERTEX
  5
519
  8
0
  6
CONTINUOUS
 62
     7
 10
107.0690618843
 20
146.4083026511
 30
0.0
  0
VERTEX
  5
51A
  8
0
  6
CONTINUOUS
 62
     7
 10
106.9094469331
 20
146.0519936006
 30
0.0
  0
VERTEX
  5
51B
  8
0
  6
CONTINUOUS
 62
     7
 10
106.7900329019
 20
145.6896855531
 30
0.0
  0
VERTEX
  5
51C
  8
0
  6
CONTINUOUS
 62
     7
 10
106.7144931273
 20
145.3326683575
 30
0.0
  0
VERTEX
  5
51D
  8
0
  6
CONTINUOUS
 62
     7
 10
106.6850917015
 20
144.9920294838
 30
0.0
  0
VERTEX
  5
51E
  8
0
  6
CONTINUOUS
 62
     7
 10
106.7026222625
 20
144.678288382
 30
0.0
  0
VERTEX
  5
51F
  8
0
  6
CONTINUOUS
 62
     7
 10
106.7663913556
 20
144.4010550211
 30
0.0
  0
VERTEX
  5
520
  8
0
  6
CONTINUOUS
 62
     7
 10
106.8742645002
 20
144.1687314363
 30
0.0
  0
VERTEX
  5
521
  8
0
  6
CONTINUOUS
 62
     7
 10
107.0227516868
 20
143.9882571458
 30
0.0
  0
VERTEX
  5
522
  8
0
  6
CONTINUOUS
 62
     7
 10
107.2071395319
 20
143.8649141361
 30
0.0
  0
VERTEX
  5
523
  8
0
  6
CONTINUOUS
 62
     7
 10
107.4216611196
 20
143.8021921175
 30
0.0
  0
VERTEX
  5
524
  8
0
  6
CONTINUOUS
 62
     7
 10
107.6596883503
 20
143.8017134125
 30
0.0
  0
VERTEX
  5
525
  8
0
  6
CONTINUOUS
 62
     7
 10
107.9139480839
 20
143.863218211
 30
0.0
  0
VERTEX
  5
526
  8
0
  6
CONTINUOUS
 62
     7
 10
108.176745204
 20
143.9846043228
 30
0.0
  0
VERTEX
  5
527
  8
0
  6
CONTINUOUS
 62
     7
 10
108.176745204
 20
143.9846043228
 30
0.0
  0
SEQEND
  5
64F
  8
0
  6
CONTINUOUS
 62
     7
  0
POLYLINE
  5
1FB
  8
0
  6
CONTINUOUS
 62
     7
 66
     1
 10
0.0
 20
0.0
 30
0.0
  0
VERTEX
  5
528
  8
0
  6
CONTINUOUS
 62
     7
 10
104.1551608641
 20
149.8557671667
 30
0.0
  0
VERTEX
  5
529
  8
0
  6
CONTINUOUS
 62
     7
 10
103.8883897614
 20
149.6854742063
 30
0.0
  0
VERTEX
  5
52A
  8
0
  6
CONTINUOUS
 62
     7
 10
103.6286635717
 20
149.4629326716
 30
0.0
  0
VERTEX
  5
52B
  8
0
  6
CONTINUOUS
 62
     7
 10
103.3840694028
 20
149.1949170513
 30
0.0
  0
VERTEX
  5
52C
  8
0
  6
CONTINUOUS
 62
     7
 10
103.1622488238
 20
148.8896788305
 30
0.0
  0
VERTEX
  5
52D
  8
0
  6
CONTINUOUS
 62
     7
 10
102.9701422651
 20
148.5566841254
 30
0.0
  0
VERTEX
  5
52E
  8
0
  6
CONTINUOUS
 62
     7
 10
102.8137514085
 20
148.2063004397
 30
0.0
  0
VERTEX
  5
52F
  8
0
  6
CONTINUOUS
 62
     7
 10
102.6979389745
 20
147.8494534145
 30
0.0
  0
VERTEX
  5
530
  8
0
  6
CONTINUOUS
 62
     7
 10
102.6262649873
 20
147.4972585523
 30
0.0
  0
VERTEX
  5
531
  8
0
  6
CONTINUOUS
 62
     7
 10
102.6008734418
 20
147.1606505404
 30
0.0
  0
VERTEX
  5
532
  8
0
  6
CONTINUOUS
 62
     7
 10
102.6224350769
 20
146.8500229679
 30
0.0
  0
VERTEX
  5
533
  8
0
  6
CONTINUOUS
 62
     7
 10
102.6901345659
 20
146.5748911727
 30
0.0
  0
VERTEX
  5
534
  8
0
  6
CONTINUOUS
 62
     7
 10
102.801720201
 20
146.3435965518
 30
0.0
  0
VERTEX
  5
535
  8
0
  6
CONTINUOUS
 62
     7
 10
102.953592672
 20
146.1630534719
 30
0.0
  0
VERTEX
  5
536
  8
0
  6
CONTINUOUS
 62
     7
 10
103.1052046906
 20
146.0564552097
 30
0.0
  0
SEQEND
  5
64E
  8
0
  6
CONTINUOUS
 62
     7
  0
ARC
  5
1FC
  8
0
  6
CONTINUOUS
 62
     7
 10
104.7218986599
 20
148.9833290088
 30
0.0
 40
1.040355741262609
 50
66.6016629508
 51
123.0078442287
  0
LINE
  5
1FD
  8
0
  6
CONTINUOUS
 62
     7
 10
101.1799292232
 20
148.7495034683
 30
0.0
 11
101.8856338887
 21
149.1234527791
 31
0.0
  0
LINE
  5
1FE
  8
0
  6
CONTINUOUS
 62
     7
 10
95.9337582652
 20
151.5161359567
 30
0.0
 11
101.1799292232
 21
148.7495034683
 31
0.0
  0
LINE
  5
1FF
  8
0
  6
CONTINUOUS
 62
     7
 10
96.5994045249
 20
151.8531504776
 30
0.0
 11
95.9337582652
 21
151.5161359567
 31
0.0
  0
LINE
  5
200
  8
0
  6
CONTINUOUS
 62
     7
 10
97.3711576782
 20
151.4485032807
 30
0.0
 11
96.5994045249
 21
151.8531504776
 31
0.0
  0
LINE
  5
201
  8
0
  6
CONTINUOUS
 62
     7
 10
101.2873738238
 20
153.4446047578
 30
0.0
 11
97.3711576782
 21
151.4485032807
 31
0.0
  0
LINE
  5
202
  8
0
  6
CONTINUOUS
 62
     7
 10
100.5154286911
 20
153.8358206852
 30
0.0
 11
101.2873738238
 21
153.4446047578
 31
0.0
  0
LINE
  5
203
  8
0
  6
CONTINUOUS
 62
     7
 10
101.1554122842
 20
154.1598422819
 30
0.0
 11
100.5154286911
 21
153.8358206852
 31
0.0
  0
LINE
  5
204
  8
0
  6
CONTINUOUS
 62
     7
 10
106.4010261917
 20
151.5161361805
 30
0.0
 11
101.1554122842
 21
154.1598422819
 31
0.0
  0
LINE
  5
205
  8
0
  6
CONTINUOUS
 62
     7
 10
105.8773764453
 20
151.2386568449
 30
0.0
 11
106.4010261917
 21
151.5161361805
 31
0.0
  0
LINE
  5
206
  8
0
  6
CONTINUOUS
 62
     7
 10
98.4482138078
 20
150.9251447394
 30
0.0
 11
101.8856338887
 21
149.1234527791
 31
0.0
  0
LINE
  5
207
  8
0
  6
CONTINUOUS
 62
     7
 10
95.9337582652
 20
151.5161359567
 30
0.0
 11
95.9875636989
 21
147.5997528399
 31
0.0
  0
LINE
  5
208
  8
0
  6
CONTINUOUS
 62
     7
 10
101.1799292232
 20
148.7495034683
 30
0.0
 11
101.1734593729
 21
144.775575298
 31
0.0
  0
LINE
  5
209
  8
0
  6
CONTINUOUS
 62
     7
 10
95.9875636989
 20
147.5997528399
 30
0.0
 11
101.1734593729
 21
144.775575298
 31
0.0
  0
LINE
  5
20A
  8
0
  6
CONTINUOUS
 62
     7
 10
101.8709343778
 20
145.1572146822
 30
0.0
 11
101.8856338887
 21
149.1234527791
 31
0.0
  0
LINE
  5
20B
  8
0
  6
CONTINUOUS
 62
     7
 10
101.1734593729
 20
144.775575298
 30
0.0
 11
101.8709343778
 21
145.1572146822
 31
0.0
  0
LINE
  5
20C
  8
0
  6
CONTINUOUS
 62
     7
 10
102.2223765936
 20
149.1080997952
 30
0.0
 11
102.2022304558
 21
144.8206228923
 31
0.0
  0
POLYLINE
  5
20D
  8
0
  6
CONTINUOUS
 62
     7
 66
     1
 10
0.0
 20
0.0
 30
0.0
  0
VERTEX
  5
537
  8
0
  6
CONTINUOUS
 62
     7
 10
102.2022304558
 20
144.8206228923
 30
0.0
  0
VERTEX
  5
538
  8
0
  6
CONTINUOUS
 62
     7
 10
102.1981841557
 20
144.7768241473
 30
0.0
  0
VERTEX
  5
539
  8
0
  6
CONTINUOUS
 62
     7
 10
102.1866335477
 20
144.7388762857
 30
0.0
  0
VERTEX
  5
53A
  8
0
  6
CONTINUOUS
 62
     7
 10
102.1680281773
 20
144.7082363153
 30
0.0
  0
VERTEX
  5
53B
  8
0
  6
CONTINUOUS
 62
     7
 10
102.1430873438
 20
144.6860787412
 30
0.0
  0
VERTEX
  5
53C
  8
0
  6
CONTINUOUS
 62
     7
 10
102.1127735254
 20
144.6732501155
 30
0.0
  0
VERTEX
  5
53D
  8
0
  6
CONTINUOUS
 62
     7
 10
102.07825606
 20
144.6702366689
 30
0.0
  0
VERTEX
  5
53E
  8
0
  6
CONTINUOUS
 62
     7
 10
102.0408615155
 20
144.6771485669
 30
0.0
  0
VERTEX
  5
53F
  8
0
  6
CONTINUOUS
 62
     7
 10
102.0020269279
 20
144.6937144296
 30
0.0
  0
SEQEND
  5
64D
  8
0
  6
CONTINUOUS
 62
     7
  0
LINE
  5
20E
  8
0
  6
CONTINUOUS
 62
     7
 10
102.0020269279
 20
144.6937144296
 30
0.0
 11
101.5110651714
 21
144.9603038027
 31
0.0
  0
LINE
  5
20F
  8
0
  6
CONTINUOUS
 62
     7
 10
98.4471973033
 20
151.0842022135
 30
0.0
 11
98.4482138078
 21
150.9251447394
 31
0.0
  0
LINE
  5
210
  8
0
  6
CONTINUOUS
 62
     7
 10
98.4471973033
 20
151.0842022135
 30
0.0
 11
102.2223765936
 21
149.1080997952
 31
0.0
  0
LINE
  5
211
  8
0
  6
CONTINUOUS
 62
     7
 10
99.7886442749
 20
151.0296107159
 30
0.0
 11
102.4006309711
 21
152.3795987077
 31
0.0
  0
LINE
  5
212
  8
0
  6
CONTINUOUS
 62
     7
 10
102.4006309711
 20
152.3795987077
 30
0.0
 11
101.6165301408
 21
152.7786668079
 31
0.0
  0
LINE
  5
213
  8
0
  6
CONTINUOUS
 62
     7
 10
101.6165301408
 20
152.7786668079
 30
0.0
 11
99.0045376966
 21
151.4378356992
 31
0.0
  0
LINE
  5
214
  8
0
  6
CONTINUOUS
 62
     7
 10
99.0045376966
 20
151.4378356992
 30
0.0
 11
99.7886442749
 21
151.0296107159
 31
0.0
  0
LINE
  5
215
  8
0
  6
CONTINUOUS
 62
     7
 10
98.4608127674
 20
151.8298102309
 30
0.0
 11
98.4471973033
 21
151.0842022135
 31
0.0
  0
LINE
  5
216
  8
0
  6
CONTINUOUS
 62
     7
 10
100.8637964966
 20
153.0564139864
 30
0.0
 11
98.4608127674
 21
151.8298102309
 31
0.0
  0
LINE
  5
217
  8
0
  6
CONTINUOUS
 62
     7
 10
102.286972186
 20
153.0564140248
 30
0.0
 11
100.8637964966
 21
153.0564139864
 31
0.0
  0
LINE
  5
218
  8
0
  6
CONTINUOUS
 62
     7
 10
102.286972186
 20
153.0564140248
 30
0.0
 11
106.0612629017
 21
151.1455582804
 31
0.0
  0
LINE
  5
219
  8
0
  6
CONTINUOUS
 62
     7
 10
106.0612629017
 20
151.1455582804
 30
0.0
 11
102.2223765936
 21
149.1080997952
 31
0.0
  0
LINE
  5
21A
  8
0
  6
CONTINUOUS
 62
     7
 10
106.0612629017
 20
151.1455582804
 30
0.0
 11
106.034690861
 21
149.4762365791
 31
0.0
  0
LINE
  5
21B
  8
0
  6
CONTINUOUS
 62
     7
 10
101.6160759941
 20
152.6210863755
 30
0.0
 11
99.1583475926
 21
151.3577585574
 31
0.0
  0
LINE
  5
21C
  8
0
  6
CONTINUOUS
 62
     7
 10
102.2463683779
 20
152.2998691093
 30
0.0
 11
101.6160759941
 21
152.6210863755
 31
0.0
  0
LINE
  5
21D
  8
0
  6
CONTINUOUS
 62
     7
 10
106.4010261917
 20
151.5161361805
 30
0.0
 11
106.3637082207
 21
149.307312803
 31
0.0
  0
LINE
  5
21E
  8
0
  6
CONTINUOUS
 62
     7
 10
101.6165301408
 20
152.7786668079
 30
0.0
 11
101.6160759941
 21
152.6210863755
 31
0.0
  0
LINE
  5
21F
  8
0
  6
CONTINUOUS
 62
     7
 10
95.9675449128
 20
148.0748946408
 30
0.0
 11
95.9193662939
 21
151.5715626592
 31
0.0
  0
LINE
  5
220
  8
0
  6
CONTINUOUS
 62
     7
 10
95.9193662939
 20
151.5715626592
 30
0.0
 11
95.980050084
 21
151.5395731848
 31
0.0
  0
LINE
  5
221
  8
0
  6
CONTINUOUS
 62
     7
 10
96.2495666335
 20
151.7386539115
 30
0.0
 11
95.9193662939
 21
151.5715626592
 31
0.0
  0
LINE
  5
222
  8
0
  6
CONTINUOUS
 62
     7
 10
96.2495666335
 20
151.7386539115
 30
0.0
 11
96.310253834
 21
151.706754262
 31
0.0
  0
LINE
  5
223
  8
0
  6
CONTINUOUS
 62
     7
 10
97.9127585938
 20
152.5802788103
 30
0.0
 11
97.5872243121
 21
152.4155487229
 31
0.0
  0
LINE
  5
224
  8
0
  6
CONTINUOUS
 62
     7
 10
97.9127585938
 20
152.5802788103
 30
0.0
 11
98.7453304894
 21
152.1489211628
 31
0.0
  0
LINE
  5
225
  8
0
  6
CONTINUOUS
 62
     7
 10
97.5872243121
 20
152.4155487229
 30
0.0
 11
98.4197710536
 21
151.9829830105
 31
0.0
  0
LINE
  5
226
  8
0
  6
CONTINUOUS
 62
     7
 10
97.5947961756
 20
151.5624919524
 30
0.0
 11
97.5872243121
 21
152.4155487229
 31
0.0
  0
LINE
  5
227
  8
0
  6
CONTINUOUS
 62
     7
 10
100.5154286911
 20
153.8358206852
 30
0.0
 11
100.5156857174
 21
153.0512740095
 31
0.0
  0
LINE
  5
228
  8
0
  6
CONTINUOUS
 62
     7
 10
99.2350332181
 20
152.3985233326
 30
0.0
 11
99.2315802436
 21
153.2476420276
 31
0.0
  0
LINE
  5
229
  8
0
  6
CONTINUOUS
 62
     7
 10
99.2315802436
 20
153.2476420276
 30
0.0
 11
100.0642200097
 21
152.8211612091
 31
0.0
  0
LINE
  5
22A
  8
0
  6
CONTINUOUS
 62
     7
 10
99.5525466772
 20
153.4100606471
 30
0.0
 11
99.2315802436
 21
153.2476420276
 31
0.0
  0
LINE
  5
22B
  8
0
  6
CONTINUOUS
 62
     7
 10
99.5525466772
 20
153.4100606471
 30
0.0
 11
100.3851947014
 21
152.9847625102
 31
0.0
  0
LINE
  5
22C
  8
0
  6
CONTINUOUS
 62
     7
 10
76.0975961257
 20
151.245878631
 30
0.0
 11
76.1842184896
 21
150.0402432122
 31
0.0
  0
LINE
  5
22D
  8
0
  6
CONTINUOUS
 62
     7
 10
76.0975961257
 20
151.245878631
 30
0.0
 11
82.2802229509
 21
147.6630377327
 31
0.0
  0
LINE
  5
22E
  8
0
  6
CONTINUOUS
 62
     7
 10
88.9609191571
 20
143.791564931
 30
0.0
 11
94.3302367255
 21
140.6800378853
 31
0.0
  0
LINE
  5
22F
  8
0
  6
CONTINUOUS
 62
     7
 10
94.3302367255
 20
140.6800378853
 30
0.0
 11
94.3544384127
 21
139.4086120813
 31
0.0
  0
LINE
  5
230
  8
0
  6
CONTINUOUS
 62
     7
 10
76.1842184896
 20
150.0402432122
 30
0.0
 11
94.3544384127
 21
139.4086120813
 31
0.0
  0
LINE
  5
231
  8
0
  6
CONTINUOUS
 62
     7
 10
94.3302367255
 20
140.6800378853
 30
0.0
 11
101.8229390323
 21
144.7909581134
 31
0.0
  0
LINE
  5
232
  8
0
  6
CONTINUOUS
 62
     7
 10
108.2703803674
 20
148.3283890586
 30
0.0
 11
111.8801815515
 21
150.308930137
 31
0.0
  0
LINE
  5
233
  8
0
  6
CONTINUOUS
 62
     7
 10
116.9956923754
 20
153.1155886778
 30
0.0
 11
126.8752664542
 21
158.5360817471
 31
0.0
  0
LINE
  5
234
  8
0
  6
CONTINUOUS
 62
     7
 10
126.8752664542
 20
158.5360817471
 30
0.0
 11
126.7882287651
 21
157.3797191284
 31
0.0
  0
LINE
  5
235
  8
0
  6
CONTINUOUS
 62
     7
 10
94.3544384127
 20
139.4086120813
 30
0.0
 11
104.7578570317
 21
145.1730000121
 31
0.0
  0
LINE
  5
236
  8
0
  6
CONTINUOUS
 62
     7
 10
109.380614554
 20
147.7344049353
 30
0.0
 11
113.2138717815
 21
149.8583588496
 31
0.0
  0
LINE
  5
237
  8
0
  6
CONTINUOUS
 62
     7
 10
117.8760070233
 20
152.4415824133
 30
0.0
 11
126.7882287651
 21
157.3797191284
 31
0.0
  0
POLYLINE
  5
238
  8
0
  6
CONTINUOUS
 62
     7
 66
     1
 10
0.0
 20
0.0
 30
0.0
  0
VERTEX
  5
540
  8
0
  6
CONTINUOUS
 62
     7
 10
108.7289876632
 20
150.3772509048
 30
0.0
  0
VERTEX
  5
541
  8
0
  6
CONTINUOUS
 62
     7
 10
108.8020677891
 20
150.4374641281
 30
0.0
  0
VERTEX
  5
542
  8
0
  6
CONTINUOUS
 62
     7
 10
108.8245075625
 20
150.499506827
 30
0.0
  0
SEQEND
  5
64C
  8
0
  6
CONTINUOUS
 62
     7
  0
POLYLINE
  5
239
  8
0
  6
CONTINUOUS
 62
     7
 66
     1
 10
0.0
 20
0.0
 30
0.0
  0
VERTEX
  5
543
  8
0
  6
CONTINUOUS
 62
     7
 10
108.1128510591
 20
150.516545693
 30
0.0
  0
VERTEX
  5
544
  8
0
  6
CONTINUOUS
 62
     7
 10
108.1130156456
 20
150.5084128712
 30
0.0
  0
VERTEX
  5
545
  8
0
  6
CONTINUOUS
 62
     7
 10
108.1445285541
 20
150.4374641281
 30
0.0
  0
VERTEX
  5
546
  8
0
  6
CONTINUOUS
 62
     7
 10
108.225476673
 20
150.3772508284
 30
0.0
  0
VERTEX
  5
547
  8
0
  6
CONTINUOUS
 62
     7
 10
108.3435680341
 20
150.3369840565
 30
0.0
  0
VERTEX
  5
548
  8
0
  6
CONTINUOUS
 62
     7
 10
108.4807872224
 20
150.322837759
 30
0.0
  0
VERTEX
  5
549
  8
0
  6
CONTINUOUS
 62
     7
 10
108.6161576725
 20
150.3369840565
 30
0.0
  0
VERTEX
  5
54A
  8
0
  6
CONTINUOUS
 62
     7
 10
108.7289876632
 20
150.3772509048
 30
0.0
  0
SEQEND
  5
64B
  8
0
  6
CONTINUOUS
 62
     7
  0
ARC
  5
23A
  8
0
  6
CONTINUOUS
 62
     7
 10
108.7510617229
 20
162.706273645
 30
0.0
 40
2.346500659053399
 50
90.2171365186
 51
106.7154278689
  0
LINE
  5
23B
  8
0
  6
CONTINUOUS
 62
     7
 10
108.05671253
 20
164.0260880722
 30
0.0
 11
108.1973434809
 21
163.9812059256
 31
0.0
  0
LINE
  5
23C
  8
0
  6
CONTINUOUS
 62
     7
 10
82.0152603663
 20
150.7259676651
 30
0.0
 11
82.1111481335
 21
150.7762017953
 31
0.0
  0
POLYLINE
  5
23D
  8
0
  6
CONTINUOUS
 62
     7
 66
     1
 10
0.0
 20
0.0
 30
0.0
  0
VERTEX
  5
54B
  8
0
  6
CONTINUOUS
 62
     7
 10
82.0544111694
 20
151.8209131405
 30
0.0
  0
VERTEX
  5
54C
  8
0
  6
CONTINUOUS
 62
     7
 10
82.0139279091
 20
151.8375111018
 30
0.0
  0
VERTEX
  5
54D
  8
0
  6
CONTINUOUS
 62
     7
 10
81.7613730329
 20
151.9146002334
 30
0.0
  0
VERTEX
  5
54E
  8
0
  6
CONTINUOUS
 62
     7
 10
81.4781706431
 20
151.9605279528
 30
0.0
  0
VERTEX
  5
54F
  8
0
  6
CONTINUOUS
 62
     7
 10
81.1773594309
 20
151.9732211336
 30
0.0
  0
VERTEX
  5
550
  8
0
  6
CONTINUOUS
 62
     7
 10
80.8727599925
 20
151.9521062066
 30
0.0
  0
VERTEX
  5
551
  8
0
  6
CONTINUOUS
 62
     7
 10
80.5783622889
 20
151.8981358878
 30
0.0
  0
VERTEX
  5
552
  8
0
  6
CONTINUOUS
 62
     7
 10
80.3077251617
 20
151.8137495316
 30
0.0
  0
VERTEX
  5
553
  8
0
  6
CONTINUOUS
 62
     7
 10
80.0733735049
 20
151.7027727573
 30
0.0
  0
VERTEX
  5
554
  8
0
  6
CONTINUOUS
 62
     7
 10
79.8862411212
 20
151.5702622522
 30
0.0
  0
VERTEX
  5
555
  8
0
  6
CONTINUOUS
 62
     7
 10
79.7551657083
 20
151.4222941915
 30
0.0
  0
VERTEX
  5
556
  8
0
  6
CONTINUOUS
 62
     7
 10
79.6864534835
 20
151.2656994116
 30
0.0
  0
VERTEX
  5
557
  8
0
  6
CONTINUOUS
 62
     7
 10
79.6835602986
 20
151.1077626959
 30
0.0
  0
VERTEX
  5
558
  8
0
  6
CONTINUOUS
 62
     7
 10
79.7468762139
 20
150.9558899815
 30
0.0
  0
VERTEX
  5
559
  8
0
  6
CONTINUOUS
 62
     7
 10
79.8736732175
 20
150.8172560017
 30
0.0
  0
VERTEX
  5
55A
  8
0
  6
CONTINUOUS
 62
     7
 10
80.0581737553
 20
150.6984571848
 30
0.0
  0
VERTEX
  5
55B
  8
0
  6
CONTINUOUS
 62
     7
 10
80.2918023376
 20
150.6051820803
 30
0.0
  0
VERTEX
  5
55C
  8
0
  6
CONTINUOUS
 62
     7
 10
80.5635767352
 20
150.5419201876
 30
0.0
  0
VERTEX
  5
55D
  8
0
  6
CONTINUOUS
 62
     7
 10
80.8606250432
 20
150.511728695
 30
0.0
  0
VERTEX
  5
55E
  8
0
  6
CONTINUOUS
 62
     7
 10
81.1688258723
 20
150.5160685782
 30
0.0
  0
VERTEX
  5
55F
  8
0
  6
CONTINUOUS
 62
     7
 10
81.4735045848
 20
150.554728729
 30
0.0
  0
VERTEX
  5
560
  8
0
  6
CONTINUOUS
 62
     7
 10
81.7601757158
 20
150.6258398881
 30
0.0
  0
VERTEX
  5
561
  8
0
  6
CONTINUOUS
 62
     7
 10
82.0152603663
 20
150.7259676651
 30
0.0
  0
VERTEX
  5
562
  8
0
  6
CONTINUOUS
 62
     7
 10
82.0152603663
 20
150.7259676651
 30
0.0
  0
SEQEND
  5
64A
  8
0
  6
CONTINUOUS
 62
     7
  0
POLYLINE
  5
23E
  8
0
  6
CONTINUOUS
 62
     7
 66
     1
 10
0.0
 20
0.0
 30
0.0
  0
VERTEX
  5
563
  8
0
  6
CONTINUOUS
 62
     7
 10
108.4570116763
 20
153.2849244038
 30
0.0
  0
VERTEX
  5
564
  8
0
  6
CONTINUOUS
 62
     7
 10
108.3512552517
 20
153.3146422305
 30
0.0
  0
VERTEX
  5
565
  8
0
  6
CONTINUOUS
 62
     7
 10
108.1235329387
 20
153.3510294548
 30
0.0
  0
VERTEX
  5
566
  8
0
  6
CONTINUOUS
 62
     7
 10
107.8870153219
 20
153.3551346446
 30
0.0
  0
VERTEX
  5
567
  8
0
  6
CONTINUOUS
 62
     7
 10
107.65905215
 20
153.326659925
 30
0.0
  0
VERTEX
  5
568
  8
0
  6
CONTINUOUS
 62
     7
 10
107.4563829999
 20
153.2676723092
 30
0.0
  0
VERTEX
  5
569
  8
0
  6
CONTINUOUS
 62
     7
 10
107.2939439981
 20
153.182463201
 30
0.0
  0
VERTEX
  5
56A
  8
0
  6
CONTINUOUS
 62
     7
 10
107.1837875983
 20
153.0772541264
 30
0.0
  0
VERTEX
  5
56B
  8
0
  6
CONTINUOUS
 62
     7
 10
107.1341878171
 20
152.9597638166
 30
0.0
  0
VERTEX
  5
56C
  8
0
  6
CONTINUOUS
 62
     7
 10
107.1489964349
 20
152.8386600898
 30
0.0
  0
VERTEX
  5
56D
  8
0
  6
CONTINUOUS
 62
     7
 10
107.2273074976
 20
152.7229306962
 30
0.0
  0
VERTEX
  5
56E
  8
0
  6
CONTINUOUS
 62
     7
 10
107.363468164
 20
152.6212151323
 30
0.0
  0
VERTEX
  5
56F
  8
0
  6
CONTINUOUS
 62
     7
 10
107.5474526189
 20
152.5411476472
 30
0.0
  0
VERTEX
  5
570
  8
0
  6
CONTINUOUS
 62
     7
 10
107.7655839616
 20
152.488764647
 30
0.0
  0
VERTEX
  5
571
  8
0
  6
CONTINUOUS
 62
     7
 10
108.0015573802
 20
152.4680282818
 30
0.0
  0
VERTEX
  5
572
  8
0
  6
CONTINUOUS
 62
     7
 10
108.1620750952
 20
152.4728203171
 30
0.0
  0
SEQEND
  5
649
  8
0
  6
CONTINUOUS
 62
     7
  0
POLYLINE
  5
23F
  8
0
  6
CONTINUOUS
 62
     7
 66
     1
 10
0.0
 20
0.0
 30
0.0
  0
VERTEX
  5
573
  8
0
  6
CONTINUOUS
 62
     7
 10
108.3065483443
 20
154.2944832253
 30
0.0
  0
VERTEX
  5
574
  8
0
  6
CONTINUOUS
 62
     7
 10
108.4045018143
 20
154.3685943743
 30
0.0
  0
VERTEX
  5
575
  8
0
  6
CONTINUOUS
 62
     7
 10
108.4450339435
 20
154.4558633219
 30
0.0
  0
VERTEX
  5
576
  8
0
  6
CONTINUOUS
 62
     7
 10
108.4233767397
 20
154.5457295659
 30
0.0
  0
VERTEX
  5
577
  8
0
  6
CONTINUOUS
 62
     7
 10
108.3422772471
 20
154.6273664194
 30
0.0
  0
VERTEX
  5
578
  8
0
  6
CONTINUOUS
 62
     7
 10
108.211601211
 20
154.6909802176
 30
0.0
  0
VERTEX
  5
579
  8
0
  6
CONTINUOUS
 62
     7
 10
108.0471053801
 20
154.7289670999
 30
0.0
  0
VERTEX
  5
57A
  8
0
  6
CONTINUOUS
 62
     7
 10
107.8685393676
 20
154.7367980398
 30
0.0
  0
VERTEX
  5
57B
  8
0
  6
CONTINUOUS
 62
     7
 10
107.6973048668
 20
154.7135402168
 30
0.0
  0
VERTEX
  5
57C
  8
0
  6
CONTINUOUS
 62
     7
 10
107.5539395895
 20
154.6619647532
 30
0.0
  0
VERTEX
  5
57D
  8
0
  6
CONTINUOUS
 62
     7
 10
107.4556923407
 20
154.588227634
 30
0.0
  0
VERTEX
  5
57E
  8
0
  6
CONTINUOUS
 62
     7
 10
107.4144635859
 20
154.5011577567
 30
0.0
  0
VERTEX
  5
57F
  8
0
  6
CONTINUOUS
 62
     7
 10
107.4353468
 20
154.4112223593
 30
0.0
  0
VERTEX
  5
580
  8
0
  6
CONTINUOUS
 62
     7
 10
107.515957662
 20
154.3292805587
 30
0.0
  0
VERTEX
  5
581
  8
0
  6
CONTINUOUS
 62
     7
 10
107.646658742
 20
154.2652687255
 30
0.0
  0
VERTEX
  5
582
  8
0
  6
CONTINUOUS
 62
     7
 10
107.811681575
 20
154.2269769656
 30
0.0
  0
VERTEX
  5
583
  8
0
  6
CONTINUOUS
 62
     7
 10
107.991030279
 20
154.2190769425
 30
0.0
  0
VERTEX
  5
584
  8
0
  6
CONTINUOUS
 62
     7
 10
108.1629363615
 20
154.2425337307
 30
0.0
  0
VERTEX
  5
585
  8
0
  6
CONTINUOUS
 62
     7
 10
108.3065483443
 20
154.2944832253
 30
0.0
  0
SEQEND
  5
648
  8
0
  6
CONTINUOUS
 62
     7
  0
POLYLINE
  5
240
  8
0
  6
CONTINUOUS
 62
     7
 66
     1
 10
0.0
 20
0.0
 30
0.0
  0
VERTEX
  5
586
  8
0
  6
CONTINUOUS
 62
     7
 10
107.6165886916
 20
162.7728434722
 30
0.0
  0
VERTEX
  5
587
  8
0
  6
CONTINUOUS
 62
     7
 10
107.6991332633
 20
162.8333764701
 30
0.0
  0
VERTEX
  5
588
  8
0
  6
CONTINUOUS
 62
     7
 10
107.7247946781
 20
162.9046915886
 30
0.0
  0
VERTEX
  5
589
  8
0
  6
CONTINUOUS
 62
     7
 10
107.6897736269
 20
162.9759132903
 30
0.0
  0
VERTEX
  5
58A
  8
0
  6
CONTINUOUS
 62
     7
 10
107.5995047342
 20
163.0362178994
 30
0.0
  0
VERTEX
  5
58B
  8
0
  6
CONTINUOUS
 62
     7
 10
107.5183428096
 20
163.0648802202
 30
0.0
  0
SEQEND
  5
647
  8
0
  6
CONTINUOUS
 62
     7
  0
ARC
  5
241
  8
0
  6
CONTINUOUS
 62
     7
 10
107.3383280482
 20
163.3973524126
 30
0.0
 40
0.6836961330111855
 50
239.2097863929
 51
294.0161804092
  0
LINE
  5
242
  8
0
  6
CONTINUOUS
 62
     7
 10
126.8752664542
 20
158.5360817471
 30
0.0
 11
121.7219139311
 21
160.7850661564
 31
0.0
  0
LINE
  5
243
  8
0
  6
CONTINUOUS
 62
     7
 10
109.5496698534
 20
166.0971784239
 30
0.0
 11
108.662054863
 21
166.4845441758
 31
0.0
  0
LINE
  5
244
  8
0
  6
CONTINUOUS
 62
     7
 10
108.662054863
 20
166.4845441758
 30
0.0
 11
108.102783809
 21
166.2228311036
 31
0.0
  0
LINE
  5
245
  8
0
  6
CONTINUOUS
 62
     7
 10
80.8570572515
 20
153.473087038
 30
0.0
 11
76.0975961257
 21
151.245878631
 31
0.0
  0
POLYLINE
  5
246
  8
0
  6
CONTINUOUS
 62
     7
 66
     1
 10
0.0
 20
0.0
 30
0.0
  0
VERTEX
  5
58C
  8
0
  6
CONTINUOUS
 62
     7
 10
106.8014726711
 20
153.5089058548
 30
0.0
  0
VERTEX
  5
58D
  8
0
  6
CONTINUOUS
 62
     7
 10
106.901054029
 20
153.5840219393
 30
0.0
  0
VERTEX
  5
58E
  8
0
  6
CONTINUOUS
 62
     7
 10
106.9429968565
 20
153.6724733376
 30
0.0
  0
VERTEX
  5
58F
  8
0
  6
CONTINUOUS
 62
     7
 10
106.9223645974
 20
153.7635564328
 30
0.0
  0
VERTEX
  5
590
  8
0
  6
CONTINUOUS
 62
     7
 10
106.8417822586
 20
153.8462978149
 30
0.0
  0
VERTEX
  5
591
  8
0
  6
CONTINUOUS
 62
     7
 10
106.7110551791
 20
153.9107717491
 30
0.0
  0
VERTEX
  5
592
  8
0
  6
CONTINUOUS
 62
     7
 10
106.5459471035
 20
153.9492720328
 30
0.0
  0
VERTEX
  5
593
  8
0
  6
CONTINUOUS
 62
     7
 10
106.366280812
 20
153.9572087165
 30
0.0
  0
VERTEX
  5
594
  8
0
  6
CONTINUOUS
 62
     7
 10
106.1935894274
 20
153.9336366724
 30
0.0
  0
VERTEX
  5
595
  8
0
  6
CONTINUOUS
 62
     7
 10
106.0485839673
 20
153.8813640194
 30
0.0
  0
VERTEX
  5
596
  8
0
  6
CONTINUOUS
 62
     7
 10
105.9487097001
 20
153.8066295524
 30
0.0
  0
VERTEX
  5
597
  8
0
  6
CONTINUOUS
 62
     7
 10
105.9060633251
 20
153.7183812272
 30
0.0
  0
VERTEX
  5
598
  8
0
  6
CONTINUOUS
 62
     7
 10
105.9259102739
 20
153.6272276054
 30
0.0
  0
VERTEX
  5
599
  8
0
  6
CONTINUOUS
 62
     7
 10
106.0059933899
 20
153.5441750789
 30
0.0
  0
VERTEX
  5
59A
  8
0
  6
CONTINUOUS
 62
     7
 10
106.1367406192
 20
153.4792949968
 30
0.0
  0
VERTEX
  5
59B
  8
0
  6
CONTINUOUS
 62
     7
 10
106.3023787912
 20
153.4404836029
 30
0.0
  0
VERTEX
  5
59C
  8
0
  6
CONTINUOUS
 62
     7
 10
106.4828373952
 20
153.4324763919
 30
0.0
  0
VERTEX
  5
59D
  8
0
  6
CONTINUOUS
 62
     7
 10
106.6562121775
 20
153.4562515109
 30
0.0
  0
VERTEX
  5
59E
  8
0
  6
CONTINUOUS
 62
     7
 10
106.8014726711
 20
153.5089058548
 30
0.0
  0
SEQEND
  5
646
  8
0
  6
CONTINUOUS
 62
     7
  0
POLYLINE
  5
247
  8
0
  6
CONTINUOUS
 62
     7
 66
     1
 10
0.0
 20
0.0
 30
0.0
  0
VERTEX
  5
59F
  8
0
  6
CONTINUOUS
 62
     7
 10
109.9763627356
 20
154.0659686419
 30
0.0
  0
VERTEX
  5
5A0
  8
0
  6
CONTINUOUS
 62
     7
 10
109.8483907915
 20
154.1028215422
 30
0.0
  0
VERTEX
  5
5A1
  8
0
  6
CONTINUOUS
 62
     7
 10
109.6217378806
 20
154.1387211541
 30
0.0
  0
VERTEX
  5
5A2
  8
0
  6
CONTINUOUS
 62
     7
 10
109.3867579427
 20
154.1427712254
 30
0.0
  0
VERTEX
  5
5A3
  8
0
  6
CONTINUOUS
 62
     7
 10
109.1606897677
 20
154.1146781516
 30
0.0
  0
VERTEX
  5
5A4
  8
0
  6
CONTINUOUS
 62
     7
 10
108.9601349325
 20
154.0564813986
 30
0.0
  0
VERTEX
  5
5A5
  8
0
  6
CONTINUOUS
 62
     7
 10
108.7998749525
 20
153.9724153195
 30
0.0
  0
VERTEX
  5
5A6
  8
0
  6
CONTINUOUS
 62
     7
 10
108.6918021176
 20
153.8686187761
 30
0.0
  0
VERTEX
  5
5A7
  8
0
  6
CONTINUOUS
 62
     7
 10
108.6440352823
 20
153.7527072714
 30
0.0
  0
VERTEX
  5
5A8
  8
0
  6
CONTINUOUS
 62
     7
 10
108.6602888078
 20
153.6332325973
 30
0.0
  0
VERTEX
  5
5A9
  8
0
  6
CONTINUOUS
 62
     7
 10
108.722244123
 20
153.5372445121
 30
0.0
  0
SEQEND
  5
645
  8
0
  6
CONTINUOUS
 62
     7
  0
ARC
  5
248
  8
0
  6
CONTINUOUS
 62
     7
 10
105.4784800656
 20
151.0189162612
 30
0.0
 40
0.9095160179168896
 50
44.1083401185
 51
82.3969027491
  0
POLYLINE
  5
249
  8
0
  6
CONTINUOUS
 62
     7
 66
     1
 10
0.0
 20
0.0
 30
0.0
  0
VERTEX
  5
5AA
  8
0
  6
CONTINUOUS
 62
     7
 10
95.5151685436
 20
143.0882506579
 30
0.0
  0
VERTEX
  5
5AB
  8
0
  6
CONTINUOUS
 62
     7
 10
95.7252292162
 20
143.2289327143
 30
0.0
  0
VERTEX
  5
5AC
  8
0
  6
CONTINUOUS
 62
     7
 10
95.8762284998
 20
143.3902523472
 30
0.0
  0
VERTEX
  5
5AD
  8
0
  6
CONTINUOUS
 62
     7
 10
95.9612789298
 20
143.56453905
 30
0.0
  0
VERTEX
  5
5AE
  8
0
  6
CONTINUOUS
 62
     7
 10
95.9766593914
 20
143.7435687976
 30
0.0
  0
VERTEX
  5
5AF
  8
0
  6
CONTINUOUS
 62
     7
 10
95.9219426861
 20
143.9189651459
 30
0.0
  0
VERTEX
  5
5B0
  8
0
  6
CONTINUOUS
 62
     7
 10
95.7999586812
 20
144.0825867253
 30
0.0
  0
VERTEX
  5
5B1
  8
0
  6
CONTINUOUS
 62
     7
 10
95.6166139071
 20
144.2269009332
 30
0.0
  0
VERTEX
  5
5B2
  8
0
  6
CONTINUOUS
 62
     7
 10
95.380577715
 20
144.3453103443
 30
0.0
  0
VERTEX
  5
5B3
  8
0
  6
CONTINUOUS
 62
     7
 10
95.1028604073
 20
144.4324361196
 30
0.0
  0
VERTEX
  5
5B4
  8
0
  6
CONTINUOUS
 62
     7
 10
94.7963061419
 20
144.4843406717
 30
0.0
  0
VERTEX
  5
5B5
  8
0
  6
CONTINUOUS
 62
     7
 10
94.4750128086
 20
144.4986846802
 30
0.0
  0
VERTEX
  5
5B6
  8
0
  6
CONTINUOUS
 62
     7
 10
94.1537214578
 20
144.4748229863
 30
0.0
  0
VERTEX
  5
5B7
  8
0
  6
CONTINUOUS
 62
     7
 10
93.84717533
 20
144.4138290762
 30
0.0
  0
VERTEX
  5
5B8
  8
0
  6
CONTINUOUS
 62
     7
 10
93.5694845941
 20
144.3184538635
 30
0.0
  0
VERTEX
  5
5B9
  8
0
  6
CONTINUOUS
 62
     7
 10
93.3335027318
 20
144.1930123508
 30
0.0
  0
VERTEX
  5
5BA
  8
0
  6
CONTINUOUS
 62
     7
 10
93.1502532834
 20
144.0432108241
 30
0.0
  0
VERTEX
  5
5BB
  8
0
  6
CONTINUOUS
 62
     7
 10
93.0284182709
 20
143.8759098587
 30
0.0
  0
VERTEX
  5
5BC
  8
0
  6
CONTINUOUS
 62
     7
 10
92.9739064666
 20
143.6988262683
 30
0.0
  0
VERTEX
  5
5BD
  8
0
  6
CONTINUOUS
 62
     7
 10
92.9895448705
 20
143.5201958686
 30
0.0
  0
VERTEX
  5
5BE
  8
0
  6
CONTINUOUS
 62
     7
 10
93.0748906739
 20
143.3483947626
 30
0.0
  0
VERTEX
  5
5BF
  8
0
  6
CONTINUOUS
 62
     7
 10
93.2262038048
 20
143.1915460256
 30
0.0
  0
VERTEX
  5
5C0
  8
0
  6
CONTINUOUS
 62
     7
 10
93.4365674777
 20
143.0571201631
 30
0.0
  0
VERTEX
  5
5C1
  8
0
  6
CONTINUOUS
 62
     7
 10
93.6961876331
 20
142.9515631668
 30
0.0
  0
VERTEX
  5
5C2
  8
0
  6
CONTINUOUS
 62
     7
 10
93.9928411308
 20
142.8799658338
 30
0.0
  0
VERTEX
  5
5C3
  8
0
  6
CONTINUOUS
 62
     7
 10
94.3124614461
 20
142.8457937299
 30
0.0
  0
VERTEX
  5
5C4
  8
0
  6
CONTINUOUS
 62
     7
 10
94.6398318581
 20
142.8507057754
 30
0.0
  0
VERTEX
  5
5C5
  8
0
  6
CONTINUOUS
 62
     7
 10
94.9593487189
 20
142.8944619811
 30
0.0
  0
VERTEX
  5
5C6
  8
0
  6
CONTINUOUS
 62
     7
 10
95.2558099098
 20
142.9749415887
 30
0.0
  0
VERTEX
  5
5C7
  8
0
  6
CONTINUOUS
 62
     7
 10
95.5151685436
 20
143.0882506579
 30
0.0
  0
SEQEND
  5
644
  8
0
  6
CONTINUOUS
 62
     7
  0
POLYLINE
  5
24A
  8
0
  6
CONTINUOUS
 62
     7
 66
     1
 10
0.0
 20
0.0
 30
0.0
  0
VERTEX
  5
5C8
  8
0
  6
CONTINUOUS
 62
     7
 10
123.2127590641
 20
158.0779076584
 30
0.0
  0
VERTEX
  5
5C9
  8
0
  6
CONTINUOUS
 62
     7
 10
123.3711491408
 20
158.1874532222
 30
0.0
  0
VERTEX
  5
5CA
  8
0
  6
CONTINUOUS
 62
     7
 10
123.4734988063
 20
158.3131037747
 30
0.0
  0
VERTEX
  5
5CB
  8
0
  6
CONTINUOUS
 62
     7
 10
123.5151785077
 20
158.4488963475
 30
0.0
  0
VERTEX
  5
5CC
  8
0
  6
CONTINUOUS
 62
     7
 10
123.4944511447
 20
158.5884299063
 30
0.0
  0
VERTEX
  5
5CD
  8
0
  6
CONTINUOUS
 62
     7
 10
123.4125144551
 20
158.725176399
 30
0.0
  0
VERTEX
  5
5CE
  8
0
  6
CONTINUOUS
 62
     7
 10
123.2734012224
 20
158.8527827375
 30
0.0
  0
VERTEX
  5
5CF
  8
0
  6
CONTINUOUS
 62
     7
 10
123.0837544093
 20
158.9653635354
 30
0.0
  0
VERTEX
  5
5D0
  8
0
  6
CONTINUOUS
 62
     7
 10
122.8524914331
 20
159.0577581994
 30
0.0
  0
VERTEX
  5
5D1
  8
0
  6
CONTINUOUS
 62
     7
 10
122.5903784866
 20
159.1257552099
 30
0.0
  0
VERTEX
  5
5D2
  8
0
  6
CONTINUOUS
 62
     7
 10
122.309538249
 20
159.1662691441
 30
0.0
  0
VERTEX
  5
5D3
  8
0
  6
CONTINUOUS
 62
     7
 10
122.0229030438
 20
159.1774660002
 30
0.0
  0
VERTEX
  5
5D4
  8
0
  6
CONTINUOUS
 62
     7
 10
121.7436509749
 20
159.1588398538
 30
0.0
  0
VERTEX
  5
5D5
  8
0
  6
CONTINUOUS
 62
     7
 10
121.6230873368
 20
159.1407690943
 30
0.0
  0
SEQEND
  5
643
  8
0
  6
CONTINUOUS
 62
     7
  0
ARC
  5
24B
  8
0
  6
CONTINUOUS
 62
     7
 10
122.2740970273
 20
160.2001751612
 30
0.0
 40
2.320583067422652
 50
251.926552684
 51
293.8594254225
  0
POLYLINE
  5
24C
  8
0
  6
CONTINUOUS
 62
     7
 66
     1
 10
0.0
 20
0.0
 30
0.0
  0
VERTEX
  5
5D6
  8
0
  6
CONTINUOUS
 62
     7
 10
110.2607832386
 20
151.2052933775
 30
0.0
  0
VERTEX
  5
5D7
  8
0
  6
CONTINUOUS
 62
     7
 10
110.3325975108
 20
151.2646796609
 30
0.0
  0
VERTEX
  5
5D8
  8
0
  6
CONTINUOUS
 62
     7
 10
110.3540652449
 20
151.3242613721
 30
0.0
  0
SEQEND
  5
642
  8
0
  6
CONTINUOUS
 62
     7
  0
POLYLINE
  5
24D
  8
0
  6
CONTINUOUS
 62
     7
 66
     1
 10
0.0
 20
0.0
 30
0.0
  0
VERTEX
  5
5D9
  8
0
  6
CONTINUOUS
 62
     7
 10
109.6471534147
 20
151.3442923713
 30
0.0
  0
VERTEX
  5
5DA
  8
0
  6
CONTINUOUS
 62
     7
 10
109.6473912593
 20
151.3346545093
 30
0.0
  0
VERTEX
  5
5DB
  8
0
  6
CONTINUOUS
 62
     7
 10
109.679587984
 20
151.2646796515
 30
0.0
  0
VERTEX
  5
5DC
  8
0
  6
CONTINUOUS
 62
     7
 10
109.760742625
 20
151.2052933068
 30
0.0
  0
VERTEX
  5
5DD
  8
0
  6
CONTINUOUS
 62
     7
 10
109.8785308118
 20
151.165579778
 30
0.0
  0
VERTEX
  5
5DE
  8
0
  6
CONTINUOUS
 62
     7
 10
110.0149832127
 20
151.1516278675
 30
0.0
  0
VERTEX
  5
5DF
  8
0
  6
CONTINUOUS
 62
     7
 10
110.1492410226
 20
151.1655797657
 30
0.0
  0
VERTEX
  5
5E0
  8
0
  6
CONTINUOUS
 62
     7
 10
110.2607832386
 20
151.2052933775
 30
0.0
  0
SEQEND
  5
641
  8
0
  6
CONTINUOUS
 62
     7
  0
ARC
  5
24E
  8
0
  6
CONTINUOUS
 62
     7
 10
94.5321045296
 20
140.8331736536
 30
0.0
 40
2.422018204180232
 50
67.4495688472
 51
114.8597348401
  0
ARC
  5
24F
  8
0
  6
CONTINUOUS
 62
     7
 10
81.2701899621
 20
148.2681894778
 30
0.0
 40
2.507197488887687
 50
75.2177257238
 51
111.1009949989
  0
ARC
  5
250
  8
0
  6
CONTINUOUS
 62
     7
 10
121.9945601563
 20
155.4128203089
 30
0.0
 40
2.613624238737264
 50
74.888495864
 51
98.2880782185
  0
ARC
  5
251
  8
0
  6
CONTINUOUS
 62
     8
 10
105.4508932535
 20
160.3060129651
 30
0.0
 40
1.278677369443279
 50
1.2896393963
 51
26.4305688209
  0
POLYLINE
  5
252
  8
0
  6
CONTINUOUS
 62
     8
 66
     1
 10
0.0
 20
0.0
 30
0.0
  0
VERTEX
  5
5E1
  8
0
  6
CONTINUOUS
 62
     8
 10
89.1977241003
 20
142.2442366459
 30
0.0
  0
VERTEX
  5
5E2
  8
0
  6
CONTINUOUS
 62
     8
 10
89.2243608755
 20
142.1641607677
 30
0.0
  0
VERTEX
  5
5E3
  8
0
  6
CONTINUOUS
 62
     8
 10
89.3163153819
 20
142.0813416177
 30
0.0
  0
VERTEX
  5
5E4
  8
0
  6
CONTINUOUS
 62
     8
 10
89.4601309123
 20
142.025943622
 30
0.0
  0
VERTEX
  5
5E5
  8
0
  6
CONTINUOUS
 62
     8
 10
89.6338643498
 20
142.0064795123
 30
0.0
  0
VERTEX
  5
5E6
  8
0
  6
CONTINUOUS
 62
     8
 10
89.8109266351
 20
142.0259434536
 30
0.0
  0
VERTEX
  5
5E7
  8
0
  6
CONTINUOUS
 62
     8
 10
89.85939557
 20
142.038719132
 30
0.0
  0
SEQEND
  5
640
  8
0
  6
CONTINUOUS
 62
     8
  0
POLYLINE
  5
253
  8
0
  6
CONTINUOUS
 62
     8
 66
     1
 10
0.0
 20
0.0
 30
0.0
  0
VERTEX
  5
5E8
  8
0
  6
CONTINUOUS
 62
     8
 10
86.0460157392
 20
144.0864964984
 30
0.0
  0
VERTEX
  5
5E9
  8
0
  6
CONTINUOUS
 62
     8
 10
86.0702076505
 20
144.0132424483
 30
0.0
  0
VERTEX
  5
5EA
  8
0
  6
CONTINUOUS
 62
     8
 10
86.1588308651
 20
143.9327930038
 30
0.0
  0
VERTEX
  5
5EB
  8
0
  6
CONTINUOUS
 62
     8
 10
86.2992300786
 20
143.8789810013
 30
0.0
  0
VERTEX
  5
5EC
  8
0
  6
CONTINUOUS
 62
     8
 10
86.469985723
 20
143.8600742898
 30
0.0
  0
VERTEX
  5
5ED
  8
0
  6
CONTINUOUS
 62
     8
 10
86.644966781
 20
143.8789808377
 30
0.0
  0
VERTEX
  5
5EE
  8
0
  6
CONTINUOUS
 62
     8
 10
86.6930470353
 20
143.891390701
 30
0.0
  0
SEQEND
  5
63F
  8
0
  6
CONTINUOUS
 62
     8
  0
ARC
  5
254
  8
0
  6
CONTINUOUS
 62
     8
 10
91.4501773481
 20
159.4707750893
 30
0.0
 40
1.594190998729764
 50
29.9703137156
 51
103.4569737782
  0
POLYLINE
  5
255
  8
0
  6
CONTINUOUS
 62
     8
 66
     1
 10
0.0
 20
0.0
 30
0.0
  0
VERTEX
  5
5EF
  8
0
  6
CONTINUOUS
 62
     8
 10
92.528474496
 20
160.0272336926
 30
0.0
  0
VERTEX
  5
5F0
  8
0
  6
CONTINUOUS
 62
     8
 10
92.5012998558
 20
160.0595088782
 30
0.0
  0
VERTEX
  5
5F1
  8
0
  6
CONTINUOUS
 62
     8
 10
92.2616671312
 20
160.307265037
 30
0.0
  0
VERTEX
  5
5F2
  8
0
  6
CONTINUOUS
 62
     8
 10
92.0095401984
 20
160.5052380761
 30
0.0
  0
VERTEX
  5
5F3
  8
0
  6
CONTINUOUS
 62
     8
 10
91.7532040184
 20
160.6470846749
 30
0.0
  0
VERTEX
  5
5F4
  8
0
  6
CONTINUOUS
 62
     8
 10
91.501031271
 20
160.7283639176
 30
0.0
  0
VERTEX
  5
5F5
  8
0
  6
CONTINUOUS
 62
     8
 10
91.2612008417
 20
160.7466637601
 30
0.0
  0
VERTEX
  5
5F6
  8
0
  6
CONTINUOUS
 62
     8
 10
91.0414230337
 20
160.7016497924
 30
0.0
  0
VERTEX
  5
5F7
  8
0
  6
CONTINUOUS
 62
     8
 10
90.8486919205
 20
160.5950461974
 30
0.0
  0
VERTEX
  5
5F8
  8
0
  6
CONTINUOUS
 62
     8
 10
90.6890714382
 20
160.4305438182
 30
0.0
  0
VERTEX
  5
5F9
  8
0
  6
CONTINUOUS
 62
     8
 10
90.5675167568
 20
160.213647837
 30
0.0
  0
VERTEX
  5
5FA
  8
0
  6
CONTINUOUS
 62
     8
 10
90.4877369473
 20
159.951473499
 30
0.0
  0
VERTEX
  5
5FB
  8
0
  6
CONTINUOUS
 62
     8
 10
90.4521028982
 20
159.6524977409
 30
0.0
  0
VERTEX
  5
5FC
  8
0
  6
CONTINUOUS
 62
     8
 10
90.4615918826
 20
159.3262870327
 30
0.0
  0
VERTEX
  5
5FD
  8
0
  6
CONTINUOUS
 62
     8
 10
90.5157803371
 20
158.9831879336
 30
0.0
  0
VERTEX
  5
5FE
  8
0
  6
CONTINUOUS
 62
     8
 10
90.6128719397
 20
158.634018169
 30
0.0
  0
VERTEX
  5
5FF
  8
0
  6
CONTINUOUS
 62
     8
 10
90.7497590228
 20
158.289743478
 30
0.0
  0
VERTEX
  5
600
  8
0
  6
CONTINUOUS
 62
     8
 10
90.922124062
 20
157.9611565633
 30
0.0
  0
VERTEX
  5
601
  8
0
  6
CONTINUOUS
 62
     8
 10
91.124566162
 20
157.6585642917
 30
0.0
  0
VERTEX
  5
602
  8
0
  6
CONTINUOUS
 62
     8
 10
91.3507577651
 20
157.3914910024
 30
0.0
  0
VERTEX
  5
603
  8
0
  6
CONTINUOUS
 62
     8
 10
91.5936265556
 20
157.1683931632
 30
0.0
  0
VERTEX
  5
604
  8
0
  6
CONTINUOUS
 62
     8
 10
91.8455564517
 20
156.9964085696
 30
0.0
  0
VERTEX
  5
605
  8
0
  6
CONTINUOUS
 62
     8
 10
92.0986085858
 20
156.8811274532
 30
0.0
  0
VERTEX
  5
606
  8
0
  6
CONTINUOUS
 62
     8
 10
92.3447591802
 20
156.8264062751
 30
0.0
  0
VERTEX
  5
607
  8
0
  6
CONTINUOUS
 62
     8
 10
92.5761386773
 20
156.8342285574
 30
0.0
  0
VERTEX
  5
608
  8
0
  6
CONTINUOUS
 62
     8
 10
92.6919413417
 20
156.8644220524
 30
0.0
  0
SEQEND
  5
63E
  8
0
  6
CONTINUOUS
 62
     8
  0
ARC
  5
256
  8
0
  6
CONTINUOUS
 62
     8
 10
103.6961050917
 20
165.0692049431
 30
0.0
 40
1.574586399181782
 50
32.389234497
 51
105.7888631717
  0
LINE
  5
257
  8
0
  6
CONTINUOUS
 62
     8
 10
89.8600550335
 20
160.3312927052
 30
0.0
 11
90.6983489859
 21
160.7143789052
 31
0.0
  0
LINE
  5
258
  8
0
  6
CONTINUOUS
 62
     8
 10
89.8957324922
 20
158.0148306574
 30
0.0
 11
90.659608527
 21
158.3713006455
 31
0.0
  0
LINE
  5
259
  8
0
  6
CONTINUOUS
 62
     8
 10
92.3660074743
 20
154.0105605291
 30
0.0
 11
92.4269335804
 21
154.0403090663
 31
0.0
  0
LINE
  5
25A
  8
0
  6
CONTINUOUS
 62
     8
 10
90.2444941881
 20
155.1235114169
 30
0.0
 11
90.3053749625
 21
155.1526943816
 31
0.0
  0
LINE
  5
25B
  8
0
  6
CONTINUOUS
 62
     8
 10
89.9265596839
 20
157.430354321
 30
0.0
 11
90.908945787
 21
157.8912347461
 31
0.0
  0
LINE
  5
25C
  8
0
  6
CONTINUOUS
 62
     8
 10
89.8217831236
 20
157.2364363253
 30
0.0
 11
90.9777676375
 21
157.7794533114
 31
0.0
  0
LINE
  5
25D
  8
0
  6
CONTINUOUS
 62
     8
 10
90.1219714352
 20
155.3109467675
 30
0.0
 11
90.1414659541
 21
155.3202714655
 31
0.0
  0
LINE
  5
25E
  8
0
  6
CONTINUOUS
 62
     8
 10
89.8112080853
 20
157.1349842603
 30
0.0
 11
91.0246902078
 21
157.7054959008
 31
0.0
  0
LINE
  5
25F
  8
0
  6
CONTINUOUS
 62
     8
 10
103.8021937194
 20
166.7026149764
 30
0.0
 11
103.7516484974
 21
166.6795166623
 31
0.0
  0
POLYLINE
  5
260
  8
0
  6
CONTINUOUS
 62
     8
 66
     1
 10
0.0
 20
0.0
 30
0.0
  0
VERTEX
  5
609
  8
0
  6
CONTINUOUS
 62
     8
 10
114.545418981
 20
150.1564063296
 30
0.0
  0
VERTEX
  5
60A
  8
0
  6
CONTINUOUS
 62
     8
 10
114.5812447414
 20
150.5029751574
 30
0.0
  0
VERTEX
  5
60B
  8
0
  6
CONTINUOUS
 62
     8
 10
114.6604293952
 20
150.8646785329
 30
0.0
  0
VERTEX
  5
60C
  8
0
  6
CONTINUOUS
 62
     8
 10
114.780720075
 20
151.2308717605
 30
0.0
  0
VERTEX
  5
60D
  8
0
  6
CONTINUOUS
 62
     8
 10
114.9386120776
 20
151.5907425367
 30
0.0
  0
VERTEX
  5
60E
  8
0
  6
CONTINUOUS
 62
     8
 10
115.1294549284
 20
151.9336524896
 30
0.0
  0
VERTEX
  5
60F
  8
0
  6
CONTINUOUS
 62
     8
 10
115.3475980963
 20
152.2494767803
 30
0.0
  0
VERTEX
  5
610
  8
0
  6
CONTINUOUS
 62
     8
 10
115.5865731461
 20
152.5289264781
 30
0.0
  0
VERTEX
  5
611
  8
0
  6
CONTINUOUS
 62
     8
 10
115.8393015629
 20
152.7638388953
 30
0.0
  0
VERTEX
  5
612
  8
0
  6
CONTINUOUS
 62
     8
 10
116.0983228591
 20
152.9474261442
 30
0.0
  0
VERTEX
  5
613
  8
0
  6
CONTINUOUS
 62
     8
 10
116.3560306087
 20
153.0744743103
 30
0.0
  0
VERTEX
  5
614
  8
0
  6
CONTINUOUS
 62
     8
 10
116.6049092968
 20
153.1414846733
 30
0.0
  0
VERTEX
  5
615
  8
0
  6
CONTINUOUS
 62
     8
 10
116.8377618617
 20
153.1467557537
 30
0.0
  0
VERTEX
  5
616
  8
0
  6
CONTINUOUS
 62
     8
 10
117.0479207049
 20
153.0904061056
 30
0.0
  0
VERTEX
  5
617
  8
0
  6
CONTINUOUS
 62
     8
 10
117.0664166518
 20
153.0819339821
 30
0.0
  0
SEQEND
  5
63D
  8
0
  6
CONTINUOUS
 62
     8
  0
ARC
  5
261
  8
0
  6
CONTINUOUS
 62
     8
 10
115.7202585046
 20
149.9360933295
 30
0.0
 40
1.19531825231733
 50
169.3789035772
 51
235.8854022729
  0
ARC
  5
262
  8
0
  6
CONTINUOUS
 62
     8
 10
109.8050567436
 20
153.0706576596
 30
0.0
 40
0.1866281998954064
 50
169.2826744235
 51
238.5634570533
  0
POLYLINE
  5
263
  8
0
  6
CONTINUOUS
 62
     8
 66
     1
 10
0.0
 20
0.0
 30
0.0
  0
VERTEX
  5
618
  8
0
  6
CONTINUOUS
 62
     8
 10
110.0256442612
 20
153.5600629016
 30
0.0
  0
VERTEX
  5
619
  8
0
  6
CONTINUOUS
 62
     8
 10
109.9686699678
 20
153.5726346189
 30
0.0
  0
VERTEX
  5
61A
  8
0
  6
CONTINUOUS
 62
     8
 10
109.8754628803
 20
153.5466817549
 30
0.0
  0
VERTEX
  5
61B
  8
0
  6
CONTINUOUS
 62
     8
 10
109.7809005979
 20
153.4732776394
 30
0.0
  0
VERTEX
  5
61C
  8
0
  6
CONTINUOUS
 62
     8
 10
109.6994297498
 20
153.363589619
 30
0.0
  0
VERTEX
  5
61D
  8
0
  6
CONTINUOUS
 62
     8
 10
109.6435099671
 20
153.2343675186
 30
0.0
  0
VERTEX
  5
61E
  8
0
  6
CONTINUOUS
 62
     8
 10
109.6216839725
 20
153.1053637372
 30
0.0
  0
SEQEND
  5
63C
  8
0
  6
CONTINUOUS
 62
     8
  0
POLYLINE
  5
264
  8
0
  6
CONTINUOUS
 62
     8
 66
     1
 10
0.0
 20
0.0
 30
0.0
  0
VERTEX
  5
61F
  8
0
  6
CONTINUOUS
 62
     8
 10
108.2663740494
 20
152.2104947356
 30
0.0
  0
VERTEX
  5
620
  8
0
  6
CONTINUOUS
 62
     8
 10
108.3851151052
 20
152.1706288807
 30
0.0
  0
VERTEX
  5
621
  8
0
  6
CONTINUOUS
 62
     8
 10
108.5230782132
 20
152.1566233971
 30
0.0
  0
VERTEX
  5
622
  8
0
  6
CONTINUOUS
 62
     8
 10
108.6591726192
 20
152.1706288807
 30
0.0
  0
VERTEX
  5
623
  8
0
  6
CONTINUOUS
 62
     8
 10
108.7725954967
 20
152.2104948113
 30
0.0
  0
VERTEX
  5
624
  8
0
  6
CONTINUOUS
 62
     8
 10
108.8460468494
 20
152.2701082518
 30
0.0
  0
VERTEX
  5
625
  8
0
  6
CONTINUOUS
 62
     8
 10
108.8685447715
 20
152.3302462143
 30
0.0
  0
SEQEND
  5
63B
  8
0
  6
CONTINUOUS
 62
     8
  0
POLYLINE
  5
265
  8
0
  6
CONTINUOUS
 62
     8
 66
     1
 10
0.0
 20
0.0
 30
0.0
  0
VERTEX
  5
626
  8
0
  6
CONTINUOUS
 62
     8
 10
108.1530941951
 20
152.3483548683
 30
0.0
  0
VERTEX
  5
627
  8
0
  6
CONTINUOUS
 62
     8
 10
108.1532634063
 20
152.3403498631
 30
0.0
  0
VERTEX
  5
628
  8
0
  6
CONTINUOUS
 62
     8
 10
108.1849697893
 20
152.2701082518
 30
0.0
  0
VERTEX
  5
629
  8
0
  6
CONTINUOUS
 62
     8
 10
108.2663740494
 20
152.2104947356
 30
0.0
  0
SEQEND
  5
63A
  8
0
  6
CONTINUOUS
 62
     8
  0
LINE
  5
266
  8
0
  6
CONTINUOUS
 62
     8
 10
107.8230960959
 20
162.142941389
 30
0.0
 11
108.9072491506
 21
161.6483177635
 31
0.0
  0
POLYLINE
  5
267
  8
0
  6
CONTINUOUS
 62
     8
 66
     1
 10
0.0
 20
0.0
 30
0.0
  0
VERTEX
  5
62A
  8
0
  6
CONTINUOUS
 62
     8
 10
110.4124614174
 20
143.4015730351
 30
0.0
  0
VERTEX
  5
62B
  8
0
  6
CONTINUOUS
 62
     8
 10
110.3963711369
 20
143.4107276357
 30
0.0
  0
VERTEX
  5
62C
  8
0
  6
CONTINUOUS
 62
     8
 10
110.2771555278
 20
143.5249691417
 30
0.0
  0
VERTEX
  5
62D
  8
0
  6
CONTINUOUS
 62
     8
 10
110.2000793787
 20
143.6957936113
 30
0.0
  0
VERTEX
  5
62E
  8
0
  6
CONTINUOUS
 62
     8
 10
110.1701496486
 20
143.9125617186
 30
0.0
  0
VERTEX
  5
62F
  8
0
  6
CONTINUOUS
 62
     8
 10
110.1893862405
 20
144.161636826
 30
0.0
  0
VERTEX
  5
630
  8
0
  6
CONTINUOUS
 62
     8
 10
110.2566635082
 20
144.4272474372
 30
0.0
  0
VERTEX
  5
631
  8
0
  6
CONTINUOUS
 62
     8
 10
110.3677572038
 20
144.6925062259
 30
0.0
  0
VERTEX
  5
632
  8
0
  6
CONTINUOUS
 62
     8
 10
110.5156106574
 20
144.940521977
 30
0.0
  0
VERTEX
  5
633
  8
0
  6
CONTINUOUS
 62
     8
 10
110.6907970282
 20
145.1555160665
 30
0.0
  0
VERTEX
  5
634
  8
0
  6
CONTINUOUS
 62
     8
 10
110.8821444271
 20
145.3238621628
 30
0.0
  0
VERTEX
  5
635
  8
0
  6
CONTINUOUS
 62
     8
 10
111.0774809074
 20
145.4349731523
 30
0.0
  0
VERTEX
  5
636
  8
0
  6
CONTINUOUS
 62
     8
 10
111.2644351153
 20
145.4819669348
 30
0.0
  0
VERTEX
  5
637
  8
0
  6
CONTINUOUS
 62
     8
 10
111.4312382072
 20
145.4620739948
 30
0.0
  0
VERTEX
  5
638
  8
0
  6
CONTINUOUS
 62
     8
 10
111.4779900396
 20
145.4420249827
 30
0.0
  0
SEQEND
  5
639
  8
0
  6
CONTINUOUS
 62
     8
  0
LINE
  5
268
  8
0
  6
CONTINUOUS
 62
     8
 10
103.7875867041
 20
145.6916755179
 30
0.0
 11
102.2022304558
 21
144.8206228923
 31
0.0
  0
TEXT
  5
269
  8
0
  6
CONTINUOUS
 62
     7
 10
0.0
 20
6.732893805
 30
0.0
 40
3.633
  1
Edition tudiante de SolidWorks.
 41
0.6671875
 11
0.0
 21
5.4495
 31
0.0
 73
     1
  0
TEXT
  5
26A
  8
0
  6
CONTINUOUS
 62
     7
 10
0.0
 20
1.283393805
 30
0.0
 40
3.633
  1
A usage universitaire uniquement.
 41
0.6681818182
 11
0.0
 21
0.0
 31
0.0
 73
     1
  0
ENDSEC
  0
EOF
