  0
SECTION
  2
HEADER
  9
$ACADVER
  1
AC1009
  9
$DWGCODEPAGE
  3
ansi_1252
  9
$INSBASE
 10
0.0
 20
0.0
 30
0.0
  9
$EXTMIN
 10
0.0
 20
0.0
 30
0.0
  9
$EXTMAX
 10
1500.0
 20
1200.0
 30
0.0
  9
$LIMMIN
 10
0.0
 20
0.0
  9
$LIMMAX
 10
1500.0
 20
1200.0
  9
$ORTHOMODE
 70
     0
  9
$REGENMODE
 70
     1
  9
$FILLMODE
 70
     1
  9
$QTEXTMODE
 70
     0
  9
$MIRRTEXT
 70
     1
  9
$DRAGMODE
 70
     2
  9
$LTSCALE
 40
1.0
  9
$OSMODE
 70
    37
  9
$ATTMODE
 70
     1
  9
$TEXTSIZE
 40
3.5
  9
$TRACEWID
 40
1.0
  9
$TEXTSTYLE
  7
STANDARD
  9
$CLAYER
  8
0
  9
$CELTYPE
  6
BYLAYER
  9
$CECOLOR
 62
   256
  9
$DIMSCALE
 40
1.0
  9
$DIMASZ
 40
3.302
  9
$DIMEXO
 40
1.0
  9
$DIMDLI
 40
3.75
  9
$DIMRND
 40
0.0
  9
$DIMDLE
 40
0.0
  9
$DIMEXE
 40
1.0
  9
$DIMTP
 40
0.0
  9
$DIMTM
 40
0.0
  9
$DIMTXT
 40
3.5
  9
$DIMCEN
 40
2.5
  9
$DIMTSZ
 40
0.0
  9
$DIMTOL
 70
     0
  9
$DIMLIM
 70
     0
  9
$DIMTIH
 70
     1
  9
$DIMTOH
 70
     1
  9
$DIMSE1
 70
     0
  9
$DIMSE2
 70
     0
  9
$DIMTAD
 70
     1
  9
$DIMZIN
 70
     0
  9
$DIMBLK
  1

  9
$DIMASO
 70
     1
  9
$DIMSHO
 70
     1
  9
$DIMPOST
  1

  9
$DIMAPOST
  1

  9
$DIMALT
 70
     0
  9
$DIMALTD
 70
     3
  9
$DIMALTF
 40
0.0393700787
  9
$DIMLFAC
 40
2.0
  9
$DIMTOFL
 70
     1
  9
$DIMTVP
 40
0.0
  9
$DIMTIX
 70
     0
  9
$DIMSOXD
 70
     0
  9
$DIMSAH
 70
     0
  9
$DIMBLK1
  1

  9
$DIMBLK2
  1

  9
$DIMSTYLE
  2
ISO-25
  9
$DIMCLRD
 70
     0
  9
$DIMCLRE
 70
     0
  9
$DIMCLRT
 70
     0
  9
$DIMTFAC
 40
1.0
  9
$DIMGAP
 40
1.524
  9
$LUNITS
 70
     2
  9
$LUPREC
 70
     2
  9
$SKETCHINC
 40
1.0
  9
$FILLETRAD
 40
10.0
  9
$AUNITS
 70
     0
  9
$AUPREC
 70
     2
  9
$MENU
  1
.
  9
$ELEVATION
 40
0.0
  9
$PELEVATION
 40
0.0
  9
$THICKNESS
 40
0.0
  9
$LIMCHECK
 70
     0
  9
$CHAMFERA
 40
10.0
  9
$CHAMFERB
 40
10.0
  9
$SKPOLY
 70
     0
  9
$TDCREATE
 40
2456587.591682905
  9
$TDUPDATE
 40
2456587.591686516
  9
$TDINDWG
 40
0.0000000116
  9
$TDUSRTIMER
 40
0.0000000116
  9
$USRTIMER
 70
     1
  9
$ANGBASE
 50
0.0
  9
$ANGDIR
 70
     0
  9
$PDMODE
 70
     0
  9
$PDSIZE
 40
-1.0
  9
$PLINEWID
 40
0.0
  9
$COORDS
 70
     1
  9
$SPLFRAME
 70
     0
  9
$SPLINETYPE
 70
     6
  9
$SPLINESEGS
 70
     8
  9
$ATTDIA
 70
     0
  9
$ATTREQ
 70
     1
  9
$HANDLING
 70
     1
  9
$HANDSEED
  5
5A6
  9
$SURFTAB1
 70
     6
  9
$SURFTAB2
 70
     6
  9
$SURFTYPE
 70
     6
  9
$SURFU
 70
     6
  9
$SURFV
 70
     6
  9
$UCSNAME
  2

  9
$UCSORG
 10
0.0
 20
0.0
 30
0.0
  9
$UCSXDIR
 10
1.0
 20
0.0
 30
0.0
  9
$UCSYDIR
 10
0.0
 20
1.0
 30
0.0
  9
$PUCSNAME
  2

  9
$PUCSORG
 10
0.0
 20
0.0
 30
0.0
  9
$PUCSXDIR
 10
1.0
 20
0.0
 30
0.0
  9
$PUCSYDIR
 10
0.0
 20
1.0
 30
0.0
  9
$USERI1
 70
     0
  9
$USERI2
 70
     0
  9
$USERI3
 70
     0
  9
$USERI4
 70
     0
  9
$USERI5
 70
     0
  9
$USERR1
 40
0.0
  9
$USERR2
 40
0.0
  9
$USERR3
 40
0.0
  9
$USERR4
 40
0.0
  9
$USERR5
 40
0.0
  9
$WORLDVIEW
 70
     1
  9
$SHADEDGE
 70
     3
  9
$SHADEDIF
 70
    70
  9
$TILEMODE
 70
     1
  9
$MAXACTVP
 70
    64
  9
$PLIMCHECK
 70
     0
  9
$PEXTMIN
 10
1.0000000000E+20
 20
1.0000000000E+20
 30
1.0000000000E+20
  9
$PEXTMAX
 10
-1.0000000000E+20
 20
-1.0000000000E+20
 30
-1.0000000000E+20
  9
$PLIMMIN
 10
0.0
 20
0.0
  9
$PLIMMAX
 10
420.0
 20
297.0
  9
$UNITMODE
 70
     0
  9
$VISRETAIN
 70
     1
  9
$PLINEGEN
 70
     0
  9
$PSLTSCALE
 70
     1
  0
ENDSEC
  0
SECTION
  2
TABLES
  0
TABLE
  2
VPORT
 70
     1
  0
VPORT
  2
*ACTIVE
 70
     0
 10
0.0
 20
0.0
 11
1.0
 21
1.0
 12
750.0
 22
600.0
 13
0.0
 23
0.0
 14
10.0
 24
10.0
 15
10.0
 25
10.0
 16
0.0
 26
0.0
 36
1.0
 17
0.0
 27
0.0
 37
0.0
 40
1200.0
 41
1.25
 42
50.0
 43
0.0
 44
0.0
 50
0.0
 51
0.0
 71
     0
 72
  2000
 73
     1
 74
     3
 75
     0
 76
     0
 77
     0
 78
     0
  0
ENDTAB
  0
TABLE
  2
LTYPE
 70
     6
  0
LTYPE
  2
CONTINUOUS
 70
     0
  3
Solid line
 72
    65
 73
     0
 40
0.0
  0
LTYPE
  2
HIDDEN
 70
     0
  3
Hidden __ __ __ __ __ __ __ __ __ __ __ __ __ __
 72
    65
 73
     2
 40
1.905
 49
1.27
 49
-0.635
  0
LTYPE
  2
PHANTOM
 70
     0
  3
Phantom ______  __  __  ______  __  __  ______
 72
    65
 73
     6
 40
12.7
 49
6.35
 49
-1.27
 49
1.27
 49
-1.27
 49
1.27
 49
-1.27
  0
LTYPE
  2
CENTER
 70
     0
  3
Center ____ _ ____ _ ____ _ ____ _ ____ _ ____
 72
    65
 73
     4
 40
10.16
 49
6.35
 49
-1.27
 49
1.27
 49
-1.27
  0
LTYPE
  2
CENTERX2
 70
     0
  3
Center (2x) ________  __  ________  __  _____
 72
    65
 73
     4
 40
20.32
 49
12.7
 49
-2.54
 49
2.54
 49
-2.54
  0
LTYPE
  2
DOT2
 70
     0
  3
Dot (.5x) ........................................
 72
    65
 73
     2
 40
0.635
 49
0.0
 49
-0.635
  0
ENDTAB
  0
TABLE
  2
LAYER
 70
     1
  0
LAYER
  2
0
 70
     0
 62
     7
  6
CONTINUOUS
  0
ENDTAB
  0
TABLE
  2
STYLE
 70
     1
  0
STYLE
  2
STANDARD
 70
     0
 40
0.0
 41
1.0
 50
0.0
 71
     0
 42
3.5
  3
txt
  4

  0
ENDTAB
  0
TABLE
  2
VIEW
 70
     0
  0
ENDTAB
  0
TABLE
  2
UCS
 70
     0
  0
ENDTAB
  0
TABLE
  2
APPID
 70
     1
  0
APPID
  2
ACAD
 70
     0
  0
ENDTAB
  0
TABLE
  2
DIMSTYLE
 70
     1
  0
DIMSTYLE
  2
ISO-25
 70
     0
  3

  4

  5

  6

  7

 40
1.0
 41
2.5
 42
0.625
 43
3.75
 44
1.25
 45
0.0
 46
0.0
 47
0.0
 48
0.0
140
2.5
141
2.5
142
0.0
143
0.0393700787
144
1.0
145
0.0
146
1.0
147
0.625
 71
     0
 72
     0
 73
     0
 74
     0
 75
     0
 76
     0
 77
     1
 78
     8
170
     0
171
     3
172
     1
173
     0
174
     0
175
     0
176
     0
177
     0
178
     0
  0
ENDTAB
  0
ENDSEC
  0
SECTION
  2
BLOCKS
  0
BLOCK
  8
0
  2
$MODEL_SPACE
 70
     0
 10
0.0
 20
0.0
 30
0.0
  3
$MODEL_SPACE
  1

  0
ENDBLK
  5
21
  8
0
  0
BLOCK
 67
     1
  8
0
  2
$PAPER_SPACE
 70
     0
 10
0.0
 20
0.0
 30
0.0
  3
$PAPER_SPACE
  1

  0
ENDBLK
  5
1D
 67
     1
  8
0
  0
ENDSEC
  0
SECTION
  2
ENTITIES
  0
LINE
  5
44
  8
0
  6
CONTINUOUS
 62
     7
 10
1142.6657395687
 20
434.8902529962
 30
0.0
 11
812.7946450339
 21
434.8902529962
 31
0.0
  0
LINE
  5
45
  8
0
  6
CONTINUOUS
 62
     7
 10
1467.4072722299
 20
434.8865444972
 30
0.0
 11
1099.5912357479
 21
434.8865444972
 31
0.0
  0
LINE
  5
46
  8
0
  6
CONTINUOUS
 62
     7
 10
1017.6301759092
 20
226.3695117407
 30
0.0
 11
955.6301769225
 21
226.3695117407
 31
0.0
  0
LINE
  5
47
  8
0
  6
CONTINUOUS
 62
     7
 10
955.6301769225
 20
226.3695117407
 30
0.0
 11
955.6301769225
 21
256.3695129328
 31
0.0
  0
LINE
  5
48
  8
0
  6
CONTINUOUS
 62
     7
 10
955.6301769225
 20
256.3695129328
 30
0.0
 11
1017.6301759092
 21
256.3695129328
 31
0.0
  0
LINE
  5
49
  8
0
  6
CONTINUOUS
 62
     7
 10
1017.6301759092
 20
256.3695129328
 30
0.0
 11
1017.6301759092
 21
226.3695117407
 31
0.0
  0
CIRCLE
  5
4A
  8
0
  6
CONTINUOUS
 62
     7
 10
1009.630174603
 20
230.3695153958
 30
0.0
 40
0.5
  0
CIRCLE
  5
4B
  8
0
  6
CONTINUOUS
 62
     7
 10
963.630174603
 20
252.3695153958
 30
0.0
 40
0.5
  0
CIRCLE
  5
4C
  8
0
  6
CONTINUOUS
 62
     7
 10
963.630174603
 20
230.3695153958
 30
0.0
 40
0.5
  0
CIRCLE
  5
4D
  8
0
  6
CONTINUOUS
 62
     7
 10
1009.630174603
 20
252.3695153958
 30
0.0
 40
0.5
  0
LINE
  5
4E
  8
0
  6
CONTINUOUS
 62
     7
 10
1087.6301743446
 20
186.3695200854
 30
0.0
 11
1025.6301734952
 21
186.3695200854
 31
0.0
  0
LINE
  5
4F
  8
0
  6
CONTINUOUS
 62
     7
 10
1025.6301734952
 20
186.3695200854
 30
0.0
 11
1025.6301734952
 21
216.3695212775
 31
0.0
  0
LINE
  5
50
  8
0
  6
CONTINUOUS
 62
     7
 10
1025.6301734952
 20
216.3695212775
 30
0.0
 11
1087.6301743446
 21
216.3695212775
 31
0.0
  0
LINE
  5
51
  8
0
  6
CONTINUOUS
 62
     7
 10
1087.6301743446
 20
216.3695212775
 30
0.0
 11
1087.6301743446
 21
186.3695200854
 31
0.0
  0
CIRCLE
  5
52
  8
0
  6
CONTINUOUS
 62
     7
 10
1079.630174603
 20
212.3695153958
 30
0.0
 40
0.5
  0
CIRCLE
  5
53
  8
0
  6
CONTINUOUS
 62
     7
 10
1079.630174603
 20
190.3695153958
 30
0.0
 40
0.5
  0
CIRCLE
  5
54
  8
0
  6
CONTINUOUS
 62
     7
 10
1033.630174603
 20
212.3695153958
 30
0.0
 40
0.5
  0
CIRCLE
  5
55
  8
0
  6
CONTINUOUS
 62
     7
 10
1033.630174603
 20
190.3695153958
 30
0.0
 40
0.5
  0
LINE
  5
56
  8
0
  6
CONTINUOUS
 62
     7
 10
1087.0736597462
 20
387.4998059445
 30
0.0
 11
1087.0736597462
 21
357.4998047524
 31
0.0
  0
CIRCLE
  5
57
  8
0
  6
CONTINUOUS
 62
     7
 10
1079.0736600635
 20
383.4998061856
 30
0.0
 40
0.5
  0
CIRCLE
  5
58
  8
0
  6
CONTINUOUS
 62
     7
 10
1033.0736600635
 20
383.4998061856
 30
0.0
 40
0.5
  0
LINE
  5
59
  8
0
  6
CONTINUOUS
 62
     7
 10
1025.0736598281
 20
387.4998059445
 30
0.0
 11
1087.0736597462
 21
387.4998059445
 31
0.0
  0
LINE
  5
5A
  8
0
  6
CONTINUOUS
 62
     7
 10
1025.0736598281
 20
357.4998047524
 30
0.0
 11
1025.0736598281
 21
387.4998059445
 31
0.0
  0
CIRCLE
  5
5B
  8
0
  6
CONTINUOUS
 62
     7
 10
1079.0736600635
 20
361.4998061856
 30
0.0
 40
0.5
  0
LINE
  5
5C
  8
0
  6
CONTINUOUS
 62
     7
 10
1087.0736597462
 20
357.4998047524
 30
0.0
 11
1025.0736598281
 21
357.4998047524
 31
0.0
  0
CIRCLE
  5
5D
  8
0
  6
CONTINUOUS
 62
     7
 10
1033.0736600635
 20
361.4998061856
 30
0.0
 40
0.5
  0
LINE
  5
5E
  8
0
  6
CONTINUOUS
 62
     7
 10
1017.0736585168
 20
315.273750978
 30
0.0
 11
955.0736632554
 21
315.273750978
 31
0.0
  0
LINE
  5
5F
  8
0
  6
CONTINUOUS
 62
     7
 10
955.0736632554
 20
315.273750978
 30
0.0
 11
955.0736632554
 21
345.2737447195
 31
0.0
  0
LINE
  5
60
  8
0
  6
CONTINUOUS
 62
     7
 10
955.0736632554
 20
345.2737447195
 30
0.0
 11
1017.0736585168
 21
345.2737447195
 31
0.0
  0
CIRCLE
  5
61
  8
0
  6
CONTINUOUS
 62
     7
 10
1009.0736600635
 20
341.2737480277
 30
0.0
 40
0.5
  0
LINE
  5
62
  8
0
  6
CONTINUOUS
 62
     7
 10
1017.0736585168
 20
345.2737447195
 30
0.0
 11
1017.0736585168
 21
315.273750978
 31
0.0
  0
CIRCLE
  5
63
  8
0
  6
CONTINUOUS
 62
     7
 10
963.0736600635
 20
319.2737480277
 30
0.0
 40
0.4999999999998863
  0
CIRCLE
  5
64
  8
0
  6
CONTINUOUS
 62
     7
 10
1009.0736600635
 20
319.2737480277
 30
0.0
 40
0.5
  0
CIRCLE
  5
65
  8
0
  6
CONTINUOUS
 62
     7
 10
963.0736600635
 20
341.2737480277
 30
0.0
 40
0.4999999999998863
  0
LINE
  5
66
  8
0
  6
CONTINUOUS
 62
     7
 10
1025.0736598281
 20
176.369514721
 30
0.0
 11
1087.0736597462
 21
176.369514721
 31
0.0
  0
CIRCLE
  5
67
  8
0
  6
CONTINUOUS
 62
     7
 10
1079.0736600635
 20
172.3695153958
 30
0.0
 40
0.5
  0
CIRCLE
  5
68
  8
0
  6
CONTINUOUS
 62
     7
 10
1033.0736600635
 20
172.3695153958
 30
0.0
 40
0.5000000000002274
  0
CIRCLE
  5
69
  8
0
  6
CONTINUOUS
 62
     7
 10
1079.0736600635
 20
150.3695153958
 30
0.0
 40
0.5
  0
LINE
  5
6A
  8
0
  6
CONTINUOUS
 62
     7
 10
1087.0736597462
 20
146.36952843
 30
0.0
 11
1025.0736598281
 21
146.36952843
 31
0.0
  0
LINE
  5
6B
  8
0
  6
CONTINUOUS
 62
     7
 10
1087.0736597462
 20
176.369514721
 30
0.0
 11
1087.0736597462
 21
146.36952843
 31
0.0
  0
CIRCLE
  5
6C
  8
0
  6
CONTINUOUS
 62
     7
 10
1033.0736600635
 20
150.3695153958
 30
0.0
 40
0.5000000000002274
  0
LINE
  5
6D
  8
0
  6
CONTINUOUS
 62
     7
 10
1025.0736598281
 20
146.36952843
 30
0.0
 11
1025.0736598281
 21
176.369514721
 31
0.0
  0
LINE
  5
6E
  8
0
  6
CONTINUOUS
 62
     7
 10
1017.0736585168
 20
146.36952843
 30
0.0
 11
955.0736632554
 21
146.36952843
 31
0.0
  0
LINE
  5
6F
  8
0
  6
CONTINUOUS
 62
     7
 10
955.0736632554
 20
146.36952843
 30
0.0
 11
955.0736632554
 21
176.369514721
 31
0.0
  0
LINE
  5
70
  8
0
  6
CONTINUOUS
 62
     7
 10
955.0736632554
 20
176.369514721
 30
0.0
 11
1017.0736585168
 21
176.369514721
 31
0.0
  0
LINE
  5
71
  8
0
  6
CONTINUOUS
 62
     7
 10
1017.0736585168
 20
176.369514721
 30
0.0
 11
1017.0736585168
 21
146.36952843
 31
0.0
  0
CIRCLE
  5
72
  8
0
  6
CONTINUOUS
 62
     7
 10
1009.0736600635
 20
150.3695153958
 30
0.0
 40
0.5000000000002274
  0
CIRCLE
  5
73
  8
0
  6
CONTINUOUS
 62
     7
 10
1009.0736600635
 20
172.3695153958
 30
0.0
 40
0.5000000000002274
  0
CIRCLE
  5
74
  8
0
  6
CONTINUOUS
 62
     7
 10
963.0736600635
 20
172.3695153958
 30
0.0
 40
0.4999999999998863
  0
CIRCLE
  5
75
  8
0
  6
CONTINUOUS
 62
     7
 10
963.0736600635
 20
150.3695153958
 30
0.0
 40
0.4999999999998863
  0
CIRCLE
  5
76
  8
0
  6
CONTINUOUS
 62
     7
 10
1079.0736600635
 20
341.2737480277
 30
0.0
 40
0.5
  0
CIRCLE
  5
77
  8
0
  6
CONTINUOUS
 62
     7
 10
1033.0736600635
 20
341.2737480277
 30
0.0
 40
0.5
  0
CIRCLE
  5
78
  8
0
  6
CONTINUOUS
 62
     7
 10
1033.0736600635
 20
319.2737480277
 30
0.0
 40
0.5
  0
CIRCLE
  5
79
  8
0
  6
CONTINUOUS
 62
     7
 10
1079.0736600635
 20
319.2737480277
 30
0.0
 40
0.5
  0
LINE
  5
7A
  8
0
  6
CONTINUOUS
 62
     7
 10
1025.0736598281
 20
315.273750978
 30
0.0
 11
1025.0736598281
 21
345.2737447195
 31
0.0
  0
LINE
  5
7B
  8
0
  6
CONTINUOUS
 62
     7
 10
1025.0736598281
 20
345.2737447195
 30
0.0
 11
1087.0736597462
 21
345.2737447195
 31
0.0
  0
LINE
  5
7C
  8
0
  6
CONTINUOUS
 62
     7
 10
1087.0736597462
 20
345.2737447195
 30
0.0
 11
1087.0736597462
 21
315.273750978
 31
0.0
  0
LINE
  5
7D
  8
0
  6
CONTINUOUS
 62
     7
 10
1087.0736597462
 20
315.273750978
 30
0.0
 11
1025.0736598281
 21
315.273750978
 31
0.0
  0
LINE
  5
7E
  8
0
  6
CONTINUOUS
 62
     7
 10
1087.6301743446
 20
226.3695117407
 30
0.0
 11
1025.6301734952
 21
226.3695117407
 31
0.0
  0
LINE
  5
7F
  8
0
  6
CONTINUOUS
 62
     7
 10
1025.6301734952
 20
226.3695117407
 30
0.0
 11
1025.6301734952
 21
256.3695129328
 31
0.0
  0
LINE
  5
80
  8
0
  6
CONTINUOUS
 62
     7
 10
1025.6301734952
 20
256.3695129328
 30
0.0
 11
1087.6301743446
 21
256.3695129328
 31
0.0
  0
LINE
  5
81
  8
0
  6
CONTINUOUS
 62
     7
 10
1087.6301743446
 20
256.3695129328
 30
0.0
 11
1087.6301743446
 21
226.3695117407
 31
0.0
  0
CIRCLE
  5
82
  8
0
  6
CONTINUOUS
 62
     7
 10
1079.630174603
 20
252.3695153958
 30
0.0
 40
0.5000000000002274
  0
CIRCLE
  5
83
  8
0
  6
CONTINUOUS
 62
     7
 10
1079.630174603
 20
230.3695153958
 30
0.0
 40
0.5000000000002274
  0
CIRCLE
  5
84
  8
0
  6
CONTINUOUS
 62
     7
 10
1033.630174603
 20
252.3695153958
 30
0.0
 40
0.5
  0
CIRCLE
  5
85
  8
0
  6
CONTINUOUS
 62
     7
 10
1033.630174603
 20
230.3695153958
 30
0.0
 40
0.5
  0
LINE
  5
86
  8
0
  6
CONTINUOUS
 62
     7
 10
1017.0736585168
 20
357.4998047524
 30
0.0
 11
955.0736632554
 21
357.4998047524
 31
0.0
  0
LINE
  5
87
  8
0
  6
CONTINUOUS
 62
     7
 10
955.0736632554
 20
387.4998059445
 30
0.0
 11
1017.0736585168
 21
387.4998059445
 31
0.0
  0
LINE
  5
88
  8
0
  6
CONTINUOUS
 62
     7
 10
1017.0736585168
 20
387.4998059445
 30
0.0
 11
1017.0736585168
 21
357.4998047524
 31
0.0
  0
CIRCLE
  5
89
  8
0
  6
CONTINUOUS
 62
     7
 10
1009.0736600635
 20
383.4998061856
 30
0.0
 40
0.5
  0
CIRCLE
  5
8A
  8
0
  6
CONTINUOUS
 62
     7
 10
963.0736600635
 20
383.4998061856
 30
0.0
 40
0.4999999999998863
  0
CIRCLE
  5
8B
  8
0
  6
CONTINUOUS
 62
     7
 10
963.0736600635
 20
361.4998061856
 30
0.0
 40
0.4999999999998863
  0
CIRCLE
  5
8C
  8
0
  6
CONTINUOUS
 62
     7
 10
1009.0736600635
 20
361.4998061856
 30
0.0
 40
0.5
  0
LINE
  5
8D
  8
0
  6
CONTINUOUS
 62
     7
 10
955.0736632554
 20
357.4998047524
 30
0.0
 11
955.0736632554
 21
387.4998059445
 31
0.0
  0
LINE
  5
8E
  8
0
  6
CONTINUOUS
 62
     7
 10
1016.5171448497
 20
270.265113967
 30
0.0
 11
954.5171421377
 21
270.265113967
 31
0.0
  0
LINE
  5
8F
  8
0
  6
CONTINUOUS
 62
     7
 10
954.5171421377
 20
270.265113967
 30
0.0
 11
954.5171421377
 21
300.2651151591
 31
0.0
  0
LINE
  5
90
  8
0
  6
CONTINUOUS
 62
     7
 10
1016.5171448497
 20
300.2651151591
 30
0.0
 11
1016.5171448497
 21
270.265113967
 31
0.0
  0
CIRCLE
  5
91
  8
0
  6
CONTINUOUS
 62
     7
 10
962.5171455241
 20
274.2651171722
 30
0.0
 40
0.4999999999998863
  0
CIRCLE
  5
92
  8
0
  6
CONTINUOUS
 62
     7
 10
1008.5171455241
 20
274.2651171722
 30
0.0
 40
0.5
  0
CIRCLE
  5
93
  8
0
  6
CONTINUOUS
 62
     7
 10
1008.5171455241
 20
296.2651171722
 30
0.0
 40
0.5
  0
LINE
  5
94
  8
0
  6
CONTINUOUS
 62
     7
 10
954.5171421377
 20
300.2651151591
 30
0.0
 11
1016.5171448497
 21
300.2651151591
 31
0.0
  0
CIRCLE
  5
95
  8
0
  6
CONTINUOUS
 62
     7
 10
962.5171455241
 20
296.2651171722
 30
0.0
 40
0.4999999999998863
  0
LINE
  5
96
  8
0
  6
CONTINUOUS
 62
     7
 10
1086.5171451477
 20
270.265113967
 30
0.0
 11
1024.517146161
 21
270.265113967
 31
0.0
  0
LINE
  5
97
  8
0
  6
CONTINUOUS
 62
     7
 10
1024.517146161
 20
270.265113967
 30
0.0
 11
1024.517146161
 21
300.2651151591
 31
0.0
  0
LINE
  5
98
  8
0
  6
CONTINUOUS
 62
     7
 10
1086.5171451477
 20
300.2651151591
 30
0.0
 11
1086.5171451477
 21
270.265113967
 31
0.0
  0
CIRCLE
  5
99
  8
0
  6
CONTINUOUS
 62
     7
 10
1078.5171455241
 20
296.2651171722
 30
0.0
 40
0.5000000000002274
  0
CIRCLE
  5
9A
  8
0
  6
CONTINUOUS
 62
     7
 10
1078.5171455241
 20
274.2651171722
 30
0.0
 40
0.5000000000002274
  0
CIRCLE
  5
9B
  8
0
  6
CONTINUOUS
 62
     7
 10
1032.5171455241
 20
296.2651171722
 30
0.0
 40
0.5
  0
CIRCLE
  5
9C
  8
0
  6
CONTINUOUS
 62
     7
 10
1032.5171455241
 20
274.2651171722
 30
0.0
 40
0.5
  0
LINE
  5
9D
  8
0
  6
CONTINUOUS
 62
     7
 10
1024.517146161
 20
300.2651151591
 30
0.0
 11
1086.5171451477
 21
300.2651151591
 31
0.0
  0
LINE
  5
9E
  8
0
  6
CONTINUOUS
 62
     7
 10
955.6301769225
 20
186.3695200854
 30
0.0
 11
955.6301769225
 21
216.3695212775
 31
0.0
  0
LINE
  5
9F
  8
0
  6
CONTINUOUS
 62
     7
 10
1017.6301759092
 20
216.3695212775
 30
0.0
 11
1017.6301759092
 21
186.3695200854
 31
0.0
  0
CIRCLE
  5
A0
  8
0
  6
CONTINUOUS
 62
     7
 10
1009.630174603
 20
212.3695153958
 30
0.0
 40
0.5
  0
CIRCLE
  5
A1
  8
0
  6
CONTINUOUS
 62
     7
 10
963.630174603
 20
212.3695153958
 30
0.0
 40
0.5
  0
LINE
  5
A2
  8
0
  6
CONTINUOUS
 62
     7
 10
955.6301769225
 20
216.3695212775
 30
0.0
 11
1017.6301759092
 21
216.3695212775
 31
0.0
  0
CIRCLE
  5
A3
  8
0
  6
CONTINUOUS
 62
     7
 10
1009.630174603
 20
190.3695153958
 30
0.0
 40
0.5
  0
LINE
  5
A4
  8
0
  6
CONTINUOUS
 62
     7
 10
1017.6301759092
 20
186.3695200854
 30
0.0
 11
955.6301769225
 21
186.3695200854
 31
0.0
  0
CIRCLE
  5
A5
  8
0
  6
CONTINUOUS
 62
     7
 10
963.630174603
 20
190.3695153958
 30
0.0
 40
0.5
  0
LINE
  5
A6
  8
0
  6
CONTINUOUS
 62
     7
 10
1182.369054517
 20
297.3358895951
 30
0.0
 11
1182.369054517
 21
335.3358920985
 31
0.0
  0
CIRCLE
  5
A7
  8
0
  6
CONTINUOUS
 62
     7
 10
1186.3690526418
 20
323.335891998
 30
0.0
 40
0.5
  0
CIRCLE
  5
A8
  8
0
  6
CONTINUOUS
 62
     7
 10
1232.3690526418
 20
301.335891998
 30
0.0
 40
0.5
  0
LINE
  5
A9
  8
0
  6
CONTINUOUS
 62
     7
 10
1182.369054517
 20
335.3358920985
 30
0.0
 11
1192.3690524308
 21
335.3358920985
 31
0.0
  0
LINE
  5
AA
  8
0
  6
CONTINUOUS
 62
     7
 10
1236.369059643
 20
297.3358895951
 30
0.0
 11
1182.369054517
 21
297.3358895951
 31
0.0
  0
CIRCLE
  5
AB
  8
0
  6
CONTINUOUS
 62
     7
 10
1232.3690526418
 20
323.335891998
 30
0.0
 40
0.5
  0
ARC
  5
AC
  8
0
  6
CONTINUOUS
 62
     7
 10
1193.4297128136
 20
328.3965521698
 30
0.0
 40
1.499999999999972
 50
135.0
 51
315.0
  0
LINE
  5
AD
  8
0
  6
CONTINUOUS
 62
     7
 10
1226.3690542786
 20
335.3358920985
 30
0.0
 11
1236.369059643
 21
335.3358920985
 31
0.0
  0
LINE
  5
AE
  8
0
  6
CONTINUOUS
 62
     7
 10
1226.3690542786
 20
329.4572126441
 30
0.0
 11
1226.3690542786
 21
335.3358920985
 31
0.0
  0
LINE
  5
AF
  8
0
  6
CONTINUOUS
 62
     7
 10
1194.4903742878
 20
327.3358907872
 30
0.0
 11
1224.247724971
 21
327.3358907872
 31
0.0
  0
LINE
  5
B0
  8
0
  6
CONTINUOUS
 62
     7
 10
1192.3690524308
 20
335.3358920985
 30
0.0
 11
1192.3690524308
 21
329.4572126441
 31
0.0
  0
LINE
  5
B1
  8
0
  6
CONTINUOUS
 62
     7
 10
1236.369059643
 20
335.3358920985
 30
0.0
 11
1236.369059643
 21
297.3358895951
 31
0.0
  0
CIRCLE
  5
B2
  8
0
  6
CONTINUOUS
 62
     7
 10
1186.3690526418
 20
301.335891998
 30
0.0
 40
0.5
  0
ARC
  5
B3
  8
0
  6
CONTINUOUS
 62
     7
 10
1225.30839247
 20
328.3965521698
 30
0.0
 40
1.500000000000133
 50
225.0
 51
45.0
  0
LINE
  5
B4
  8
0
  6
CONTINUOUS
 62
     7
 10
1181.7118984072
 20
237.1500250273
 30
0.0
 11
1181.7118984072
 21
275.1500275307
 31
0.0
  0
LINE
  5
B5
  8
0
  6
CONTINUOUS
 62
     7
 10
1181.7118984072
 20
275.1500275307
 30
0.0
 11
1191.7119037716
 21
275.1500275307
 31
0.0
  0
LINE
  5
B6
  8
0
  6
CONTINUOUS
 62
     7
 10
1191.7119037716
 20
275.1500275307
 30
0.0
 11
1191.7119037716
 21
269.271355527
 31
0.0
  0
ARC
  5
B7
  8
0
  6
CONTINUOUS
 62
     7
 10
1192.7725604404
 20
268.2106903858
 30
0.0
 40
1.500000000000173
 50
135.0
 51
315.0
  0
LINE
  5
B8
  8
0
  6
CONTINUOUS
 62
     7
 10
1193.833218178
 20
267.1500262194
 30
0.0
 11
1223.5905837623
 21
267.1500262194
 31
0.0
  0
ARC
  5
B9
  8
0
  6
CONTINUOUS
 62
     7
 10
1224.6512400969
 20
268.2106903858
 30
0.0
 40
1.500000000000173
 50
225.0
 51
45.0
  0
LINE
  5
BA
  8
0
  6
CONTINUOUS
 62
     7
 10
1225.7118981687
 20
269.271355527
 30
0.0
 11
1225.7118981687
 21
275.1500275307
 31
0.0
  0
LINE
  5
BB
  8
0
  6
CONTINUOUS
 62
     7
 10
1225.7118981687
 20
275.1500275307
 30
0.0
 11
1235.7119035332
 21
275.1500275307
 31
0.0
  0
LINE
  5
BC
  8
0
  6
CONTINUOUS
 62
     7
 10
1235.7119035332
 20
275.1500275307
 30
0.0
 11
1235.7119035332
 21
237.1500250273
 31
0.0
  0
LINE
  5
BD
  8
0
  6
CONTINUOUS
 62
     7
 10
1235.7119035332
 20
237.1500250273
 30
0.0
 11
1181.7118984072
 21
237.1500250273
 31
0.0
  0
CIRCLE
  5
BE
  8
0
  6
CONTINUOUS
 62
     7
 10
1185.7119002686
 20
263.150030214
 30
0.0
 40
0.5000000000002274
  0
CIRCLE
  5
BF
  8
0
  6
CONTINUOUS
 62
     7
 10
1231.7119002686
 20
263.150030214
 30
0.0
 40
0.4999999999997726
  0
CIRCLE
  5
C0
  8
0
  6
CONTINUOUS
 62
     7
 10
1231.7119002686
 20
241.150030214
 30
0.0
 40
0.4999999999997726
  0
CIRCLE
  5
C1
  8
0
  6
CONTINUOUS
 62
     7
 10
1185.7119002686
 20
241.150030214
 30
0.0
 40
0.5000000000002274
  0
CIRCLE
  5
C2
  8
0
  6
CONTINUOUS
 62
     7
 10
671.3089326928
 20
219.5982447434
 30
0.0
 40
1.549999999999983
  0
CIRCLE
  5
C3
  8
0
  6
CONTINUOUS
 62
     7
 10
720.3089326928
 20
340.5982447434
 30
0.0
 40
1.549999999999898
  0
LINE
  5
C4
  8
0
  6
CONTINUOUS
 62
     7
 10
745.3089218943
 20
344.5982452803
 30
0.0
 11
745.3089218943
 21
338.719565826
 31
0.0
  0
ARC
  5
C5
  8
0
  6
CONTINUOUS
 62
     7
 10
746.3695928645
 20
337.6589049151
 30
0.0
 40
1.500000000000173
 50
135.0
 51
315.0
  0
LINE
  5
C6
  8
0
  6
CONTINUOUS
 62
     7
 10
747.4302512018
 20
336.598243969
 30
0.0
 11
765.3089326231
 21
336.598243969
 31
0.0
  0
LINE
  5
C7
  8
0
  6
CONTINUOUS
 62
     7
 10
765.3089326231
 20
336.598243969
 30
0.0
 11
765.3089326231
 21
254.598241704
 31
0.0
  0
ARC
  5
C8
  8
0
  6
CONTINUOUS
 62
     7
 10
705.3089326928
 20
254.5982447434
 30
0.0
 40
60.00000000000011
 50
270.0
 51
0.0
  0
LINE
  5
C9
  8
0
  6
CONTINUOUS
 62
     7
 10
705.3089302389
 20
194.5982393198
 30
0.0
 11
667.3089426367
 21
194.5982393198
 31
0.0
  0
LINE
  5
CA
  8
0
  6
CONTINUOUS
 62
     7
 10
667.3089426367
 20
194.5982393198
 30
0.0
 11
667.3089426367
 21
244.5982512408
 31
0.0
  0
ARC
  5
CB
  8
0
  6
CONTINUOUS
 62
     7
 10
674.248272521
 20
245.6589049151
 30
0.0
 40
1.500000000000032
 50
225.0
 51
45.0
  0
LINE
  5
CC
  8
0
  6
CONTINUOUS
 62
     7
 10
675.3089290468
 20
246.7195656472
 30
0.0
 11
675.3089290468
 21
284.4769176417
 31
0.0
  0
ARC
  5
CD
  8
0
  6
CONTINUOUS
 62
     7
 10
674.248272521
 20
285.5375845716
 30
0.0
 40
1.500000000000052
 50
315.0
 51
135.0
  0
LINE
  5
CE
  8
0
  6
CONTINUOUS
 62
     7
 10
673.1875997393
 20
286.5982469492
 30
0.0
 11
667.3089426367
 21
286.5982469492
 31
0.0
  0
LINE
  5
CF
  8
0
  6
CONTINUOUS
 62
     7
 10
667.3089426367
 20
286.5982469492
 30
0.0
 11
667.3089426367
 21
336.598243969
 31
0.0
  0
LINE
  5
D0
  8
0
  6
CONTINUOUS
 62
     7
 10
667.3089426367
 20
336.598243969
 30
0.0
 11
693.1876104681
 21
336.598243969
 31
0.0
  0
ARC
  5
D1
  8
0
  6
CONTINUOUS
 62
     7
 10
694.248272521
 20
337.6589049151
 30
0.0
 40
1.499999999999972
 50
225.0
 51
45.0
  0
LINE
  5
D2
  8
0
  6
CONTINUOUS
 62
     7
 10
695.3089397756
 20
338.719565826
 30
0.0
 11
695.3089397756
 21
344.5982452803
 31
0.0
  0
LINE
  5
D3
  8
0
  6
CONTINUOUS
 62
     7
 10
695.3089397756
 20
344.5982452803
 30
0.0
 11
745.3089218943
 21
344.5982452803
 31
0.0
  0
CIRCLE
  5
D4
  8
0
  6
CONTINUOUS
 62
     7
 10
671.3089326928
 20
311.5982447434
 30
0.0
 40
1.550000000000011
  0
LINE
  5
D5
  8
0
  6
CONTINUOUS
 62
     7
 10
667.3089426367
 20
244.5982512408
 30
0.0
 11
673.1875997393
 21
244.5982512408
 31
0.0
  0
ARC
  5
D6
  8
0
  6
CONTINUOUS
 62
     7
 10
559.0572401424
 20
576.529133648
 30
0.0
 40
1.6
 50
280.9134948408
 51
3.2230988011
  0
ARC
  5
D7
  8
0
  6
CONTINUOUS
 62
     7
 10
569.298527155
 20
577.1058522598
 30
0.0
 40
8.657512565524156
 50
145.1271537409
 51
183.2230988011
  0
ARC
  5
D8
  8
0
  6
CONTINUOUS
 62
     7
 10
563.1940289283
 20
555.0743095158
 30
0.0
 40
26.99999999999998
 50
87.8810083926
 51
92.1189916074
  0
ARC
  5
D9
  8
0
  6
CONTINUOUS
 62
     7
 10
557.0895307017
 20
577.1058522598
 30
0.0
 40
8.657512565524156
 50
356.7769011989
 51
34.8728462591
  0
ARC
  5
DA
  8
0
  6
CONTINUOUS
 62
     7
 10
567.3308177143
 20
576.529133648
 30
0.0
 40
1.599999999999936
 50
176.7769011989
 51
259.0865051592
  0
ARC
  5
DB
  8
0
  6
CONTINUOUS
 62
     7
 10
563.1940289283
 20
555.0743095158
 30
0.0
 40
20.25000000000013
 50
78.4134948408
 51
79.0865051592
  0
ARC
  5
DC
  8
0
  6
CONTINUOUS
 62
     7
 10
567.5825401783
 20
576.4790629367
 30
0.0
 40
1.600000000000103
 50
258.4134948408
 51
340.7230988011
  0
ARC
  5
DD
  8
0
  6
CONTINUOUS
 62
     7
 10
577.2649562938
 20
573.0927105924
 30
0.0
 40
8.657512565524204
 50
122.6271537409
 51
160.7230988011
  0
ARC
  5
DE
  8
0
  6
CONTINUOUS
 62
     7
 10
563.1940289283
 20
555.0743095158
 30
0.0
 40
27.0000000000001
 50
65.3810083926
 51
69.6189916074
  0
ARC
  5
DF
  8
0
  6
CONTINUOUS
 62
     7
 10
565.9853143581
 20
577.7648912609
 30
0.0
 40
8.657512565524167
 50
334.2769011989
 51
12.3728462591
  0
ARC
  5
E0
  8
0
  6
CONTINUOUS
 62
     7
 10
575.2263291577
 20
573.3129018735
 30
0.0
 40
1.600000000000022
 50
154.2769011989
 51
236.5865051592
  0
ARC
  5
E1
  8
0
  6
CONTINUOUS
 62
     7
 10
563.1940289283
 20
555.0743095158
 30
0.0
 40
20.2500000000001
 50
55.9134948408
 51
56.5865051592
  0
ARC
  5
E2
  8
0
  6
CONTINUOUS
 62
     7
 10
575.4397291584
 20
573.1703125517
 30
0.0
 40
1.600000000000111
 50
235.9134948408
 51
318.2230988011
  0
ARC
  5
E3
  8
0
  6
CONTINUOUS
 62
     7
 10
581.2900319642
 20
567.3200097459
 30
0.0
 40
1.599999999999957
 50
131.7769011989
 51
214.0865051592
  0
ARC
  5
E4
  8
0
  6
CONTINUOUS
 62
     7
 10
563.1940289283
 20
555.0743095158
 30
0.0
 40
20.25000000000015
 50
33.4134948408
 51
34.0865051592
  0
ARC
  5
E5
  8
0
  6
CONTINUOUS
 62
     7
 10
581.4326212861
 20
567.1066097452
 30
0.0
 40
1.600000000000063
 50
213.4134948408
 51
295.7230988011
  0
ARC
  5
E6
  8
0
  6
CONTINUOUS
 62
     7
 10
585.8846106734
 20
557.8655949456
 30
0.0
 40
8.657512565524096
 50
77.6271537409
 51
115.7230988011
  0
ARC
  5
E7
  8
0
  6
CONTINUOUS
 62
     7
 10
563.1940289283
 20
555.0743095158
 30
0.0
 40
27.00000000000001
 50
20.3810083926
 51
24.6189916074
  0
ARC
  5
E8
  8
0
  6
CONTINUOUS
 62
     7
 10
581.2124300049
 20
569.1452368812
 30
0.0
 40
8.657512565524021
 50
289.2769011989
 51
327.3728462591
  0
ARC
  5
E9
  8
0
  6
CONTINUOUS
 62
     7
 10
584.5987823492
 20
559.4628207658
 30
0.0
 40
1.600000000000103
 50
109.2769011989
 51
191.5865051592
  0
ARC
  5
EA
  8
0
  6
CONTINUOUS
 62
     7
 10
563.1940289283
 20
555.0743095158
 30
0.0
 40
20.24999999999998
 50
10.9134948408
 51
11.5865051592
  0
ARC
  5
EB
  8
0
  6
CONTINUOUS
 62
     7
 10
584.6488530605
 20
559.2110983018
 30
0.0
 40
1.600000000000069
 50
190.9134948408
 51
273.2230988011
  0
ARC
  5
EC
  8
0
  6
CONTINUOUS
 62
     7
 10
585.2255716723
 20
548.9698112892
 30
0.0
 40
8.65751256552405
 50
55.1271537409
 51
93.2230988011
  0
ARC
  5
ED
  8
0
  6
CONTINUOUS
 62
     7
 10
563.1940289283
 20
555.0743095158
 30
0.0
 40
27.00000000000009
 50
357.8810083926
 51
2.1189916074
  0
ARC
  5
EE
  8
0
  6
CONTINUOUS
 62
     7
 10
585.2255716723
 20
561.1788077425
 30
0.0
 40
8.65751256552407
 50
266.7769011989
 51
304.8728462591
  0
ARC
  5
EF
  8
0
  6
CONTINUOUS
 62
     7
 10
584.6488530605
 20
550.9375207299
 30
0.0
 40
1.600000000000069
 50
86.7769011989
 51
169.0865051592
  0
ARC
  5
F0
  8
0
  6
CONTINUOUS
 62
     7
 10
563.1940289283
 20
555.0743095158
 30
0.0
 40
20.24999999999998
 50
348.4134948408
 51
349.0865051592
  0
ARC
  5
F1
  8
0
  6
CONTINUOUS
 62
     7
 10
584.5987823492
 20
550.6857982658
 30
0.0
 40
1.600000000000066
 50
168.4134948408
 51
250.7230988011
  0
ARC
  5
F2
  8
0
  6
CONTINUOUS
 62
     7
 10
581.2124300049
 20
541.0033821504
 30
0.0
 40
8.657512565524057
 50
32.6271537409
 51
70.7230988011
  0
ARC
  5
F3
  8
0
  6
CONTINUOUS
 62
     7
 10
563.1940289283
 20
555.0743095158
 30
0.0
 40
26.99999999999994
 50
335.3810083926
 51
339.6189916074
  0
ARC
  5
F4
  8
0
  6
CONTINUOUS
 62
     7
 10
585.8846106734
 20
552.2830240861
 30
0.0
 40
8.657512565524119
 50
244.2769011989
 51
282.3728462591
  0
ARC
  5
F5
  8
0
  6
CONTINUOUS
 62
     7
 10
581.4326212861
 20
543.0420092865
 30
0.0
 40
1.599999999999989
 50
64.2769011989
 51
146.5865051592
  0
ARC
  5
F6
  8
0
  6
CONTINUOUS
 62
     7
 10
563.1940289283
 20
555.0743095158
 30
0.0
 40
20.25000000000003
 50
325.9134948408
 51
326.5865051592
  0
ARC
  5
F7
  8
0
  6
CONTINUOUS
 62
     7
 10
581.2900319642
 20
542.8286092857
 30
0.0
 40
1.600000000000051
 50
145.9134948408
 51
228.2230988011
  0
ARC
  5
F8
  8
0
  6
CONTINUOUS
 62
     7
 10
574.4561501108
 20
535.1791241498
 30
0.0
 40
8.65751256552411
 50
10.1271537409
 51
48.2230988011
  0
ARC
  5
F9
  8
0
  6
CONTINUOUS
 62
     7
 10
563.1940289283
 20
555.0743095158
 30
0.0
 40
26.99999999999999
 50
312.8810083926
 51
317.1189916074
  0
ARC
  5
FA
  8
0
  6
CONTINUOUS
 62
     7
 10
583.0892142944
 20
543.8121883333
 30
0.0
 40
8.657512565524073
 50
221.7769011989
 51
259.8728462591
  0
ARC
  5
FB
  8
0
  6
CONTINUOUS
 62
     7
 10
575.4397291584
 20
536.9783064799
 30
0.0
 40
1.600000000000111
 50
41.7769011989
 51
124.0865051592
  0
ARC
  5
FC
  8
0
  6
CONTINUOUS
 62
     7
 10
563.1940289283
 20
555.0743095158
 30
0.0
 40
20.25000000000001
 50
303.4134948408
 51
304.0865051592
  0
ARC
  5
FD
  8
0
  6
CONTINUOUS
 62
     7
 10
565.9853143581
 20
532.3837277708
 30
0.0
 40
8.65751256552412
 50
347.6271537409
 51
25.7230988011
  0
ARC
  5
FE
  8
0
  6
CONTINUOUS
 62
     7
 10
563.1940289283
 20
555.0743095158
 30
0.0
 40
27.00000000000002
 50
290.3810083926
 51
294.6189916074
  0
ARC
  5
FF
  8
0
  6
CONTINUOUS
 62
     7
 10
577.2649562938
 20
537.0559084392
 30
0.0
 40
8.657512565524081
 50
199.2769011989
 51
237.3728462591
  0
ARC
  5
100
  8
0
  6
CONTINUOUS
 62
     7
 10
567.5825401783
 20
533.6695560949
 30
0.0
 40
1.600000000000037
 50
19.2769011989
 51
101.5865051592
  0
ARC
  5
101
  8
0
  6
CONTINUOUS
 62
     7
 10
563.1940289283
 20
555.0743095158
 30
0.0
 40
20.25000000000004
 50
280.9134948408
 51
281.5865051592
  0
ARC
  5
102
  8
0
  6
CONTINUOUS
 62
     7
 10
567.3308177143
 20
533.6194853837
 30
0.0
 40
1.600000000000006
 50
100.9134948408
 51
183.2230988011
  0
ARC
  5
103
  8
0
  6
CONTINUOUS
 62
     7
 10
557.0895307017
 20
533.0427667718
 30
0.0
 40
8.65751256552405
 50
325.1271537409
 51
3.2230988011
  0
ARC
  5
104
  8
0
  6
CONTINUOUS
 62
     7
 10
563.1940289283
 20
555.0743095158
 30
0.0
 40
26.99999999999987
 50
267.8810083926
 51
272.1189916074
  0
ARC
  5
105
  8
0
  6
CONTINUOUS
 62
     7
 10
569.298527155
 20
533.0427667718
 30
0.0
 40
8.657512565524042
 50
176.7769011989
 51
214.8728462591
  0
ARC
  5
106
  8
0
  6
CONTINUOUS
 62
     7
 10
559.0572401424
 20
533.6194853837
 30
0.0
 40
1.600000000000113
 50
356.7769011989
 51
79.0865051592
  0
ARC
  5
107
  8
0
  6
CONTINUOUS
 62
     7
 10
563.1940289283
 20
555.0743095158
 30
0.0
 40
20.24999999999998
 50
258.4134948408
 51
259.0865051592
  0
ARC
  5
108
  8
0
  6
CONTINUOUS
 62
     7
 10
558.8055176784
 20
533.6695560949
 30
0.0
 40
1.600000000000037
 50
78.4134948408
 51
160.7230988011
  0
ARC
  5
109
  8
0
  6
CONTINUOUS
 62
     7
 10
549.1231015629
 20
537.0559084392
 30
0.0
 40
8.657512565524048
 50
302.6271537409
 51
340.7230988011
  0
ARC
  5
10A
  8
0
  6
CONTINUOUS
 62
     7
 10
563.1940289283
 20
555.0743095158
 30
0.0
 40
26.99999999999998
 50
245.3810083926
 51
249.6189916074
  0
ARC
  5
10B
  8
0
  6
CONTINUOUS
 62
     7
 10
560.4027434986
 20
532.3837277708
 30
0.0
 40
8.657512565524064
 50
154.2769011989
 51
192.3728462591
  0
ARC
  5
10C
  8
0
  6
CONTINUOUS
 62
     7
 10
551.161728699
 20
536.8357171581
 30
0.0
 40
1.600000000000084
 50
334.2769011989
 51
56.5865051592
  0
ARC
  5
10D
  8
0
  6
CONTINUOUS
 62
     7
 10
550.9483286982
 20
536.9783064799
 30
0.0
 40
1.599999999999957
 50
55.9134948408
 51
138.2230988011
  0
ARC
  5
10E
  8
0
  6
CONTINUOUS
 62
     7
 10
543.2988435623
 20
543.8121883333
 30
0.0
 40
8.657512565524073
 50
280.1271537409
 51
318.2230988011
  0
ARC
  5
10F
  8
0
  6
CONTINUOUS
 62
     7
 10
563.1940289283
 20
555.0743095158
 30
0.0
 40
27.0
 50
222.8810083926
 51
227.1189916074
  0
ARC
  5
110
  8
0
  6
CONTINUOUS
 62
     7
 10
551.9319077459
 20
535.1791241498
 30
0.0
 40
8.657512565524186
 50
131.7769011989
 51
169.8728462591
  0
ARC
  5
111
  8
0
  6
CONTINUOUS
 62
     7
 10
545.0980258925
 20
542.8286092857
 30
0.0
 40
1.599999999999987
 50
311.7769011989
 51
34.0865051592
  0
ARC
  5
112
  8
0
  6
CONTINUOUS
 62
     7
 10
563.1940289283
 20
555.0743095158
 30
0.0
 40
20.25000000000003
 50
213.4134948408
 51
214.0865051592
  0
ARC
  5
113
  8
0
  6
CONTINUOUS
 62
     7
 10
544.9554365706
 20
543.0420092865
 30
0.0
 40
1.599999999999961
 50
33.4134948408
 51
115.7230988011
  0
ARC
  5
114
  8
0
  6
CONTINUOUS
 62
     7
 10
540.5034471833
 20
552.2830240861
 30
0.0
 40
8.657512565524113
 50
257.6271537409
 51
295.7230988011
  0
ARC
  5
115
  8
0
  6
CONTINUOUS
 62
     7
 10
563.1940289283
 20
555.0743095158
 30
0.0
 40
26.99999999999998
 50
200.3810083926
 51
204.6189916074
  0
ARC
  5
116
  8
0
  6
CONTINUOUS
 62
     7
 10
545.1756278518
 20
541.0033821504
 30
0.0
 40
8.657512565524163
 50
109.2769011989
 51
147.3728462591
  0
ARC
  5
117
  8
0
  6
CONTINUOUS
 62
     7
 10
541.7892755075
 20
550.6857982658
 30
0.0
 40
1.600000000000015
 50
289.2769011989
 51
11.5865051592
  0
ARC
  5
118
  8
0
  6
CONTINUOUS
 62
     7
 10
563.1940289283
 20
555.0743095158
 30
0.0
 40
20.25000000000001
 50
190.9134948408
 51
191.5865051592
  0
ARC
  5
119
  8
0
  6
CONTINUOUS
 62
     7
 10
541.7392047962
 20
550.9375207299
 30
0.0
 40
1.6
 50
10.9134948408
 51
93.2230988011
  0
ARC
  5
11A
  8
0
  6
CONTINUOUS
 62
     7
 10
541.1624861843
 20
561.1788077425
 30
0.0
 40
8.6575125655241
 50
235.1271537409
 51
273.2230988011
  0
ARC
  5
11B
  8
0
  6
CONTINUOUS
 62
     7
 10
563.1940289283
 20
555.0743095158
 30
0.0
 40
26.99999999999998
 50
177.8810083926
 51
182.1189916074
  0
ARC
  5
11C
  8
0
  6
CONTINUOUS
 62
     7
 10
541.1624861843
 20
548.9698112892
 30
0.0
 40
8.65751256552405
 50
86.7769011989
 51
124.8728462591
  0
ARC
  5
11D
  8
0
  6
CONTINUOUS
 62
     7
 10
541.7392047962
 20
559.2110983018
 30
0.0
 40
1.600000000000069
 50
266.7769011989
 51
349.0865051592
  0
ARC
  5
11E
  8
0
  6
CONTINUOUS
 62
     7
 10
563.1940289283
 20
555.0743095158
 30
0.0
 40
20.25000000000003
 50
168.4134948408
 51
169.0865051592
  0
ARC
  5
11F
  8
0
  6
CONTINUOUS
 62
     7
 10
541.7892755075
 20
559.4628207658
 30
0.0
 40
1.600000000000103
 50
348.4134948408
 51
70.7230988011
  0
ARC
  5
120
  8
0
  6
CONTINUOUS
 62
     7
 10
545.1756278518
 20
569.1452368812
 30
0.0
 40
8.65751256552402
 50
212.6271537409
 51
250.7230988011
  0
ARC
  5
121
  8
0
  6
CONTINUOUS
 62
     7
 10
563.1940289283
 20
555.0743095158
 30
0.0
 40
27.00000000000008
 50
155.3810083926
 51
159.6189916074
  0
ARC
  5
122
  8
0
  6
CONTINUOUS
 62
     7
 10
540.5034471833
 20
557.8655949456
 30
0.0
 40
8.657512565524113
 50
64.2769011989
 51
102.3728462591
  0
ARC
  5
123
  8
0
  6
CONTINUOUS
 62
     7
 10
544.9554365706
 20
567.1066097452
 30
0.0
 40
1.600000000000063
 50
244.2769011989
 51
326.5865051592
  0
ARC
  5
124
  8
0
  6
CONTINUOUS
 62
     7
 10
563.1940289283
 20
555.0743095158
 30
0.0
 40
20.25000000000012
 50
145.9134948408
 51
146.5865051592
  0
ARC
  5
125
  8
0
  6
CONTINUOUS
 62
     7
 10
545.0980258925
 20
567.3200097459
 30
0.0
 40
1.600000000000051
 50
325.9134948408
 51
48.2230988011
  0
ARC
  5
126
  8
0
  6
CONTINUOUS
 62
     7
 10
551.9319077459
 20
574.9694948819
 30
0.0
 40
8.657512565524183
 50
190.1271537409
 51
228.2230988011
  0
ARC
  5
127
  8
0
  6
CONTINUOUS
 62
     7
 10
563.1940289283
 20
555.0743095158
 30
0.0
 40
27.00000000000007
 50
132.8810083926
 51
137.1189916074
  0
ARC
  5
128
  8
0
  6
CONTINUOUS
 62
     7
 10
543.2988435623
 20
566.3364306983
 30
0.0
 40
8.657512565524073
 50
41.7769011989
 51
79.8728462591
  0
ARC
  5
129
  8
0
  6
CONTINUOUS
 62
     7
 10
550.9483286982
 20
573.1703125517
 30
0.0
 40
1.600000000000051
 50
221.7769011989
 51
304.0865051592
  0
ARC
  5
12A
  8
0
  6
CONTINUOUS
 62
     7
 10
563.1940289283
 20
555.0743095158
 30
0.0
 40
20.25000000000013
 50
123.4134948408
 51
124.0865051592
  0
ARC
  5
12B
  8
0
  6
CONTINUOUS
 62
     7
 10
551.161728699
 20
573.3129018735
 30
0.0
 40
1.600000000000084
 50
303.4134948408
 51
25.7230988011
  0
ARC
  5
12C
  8
0
  6
CONTINUOUS
 62
     7
 10
560.4027434986
 20
577.7648912609
 30
0.0
 40
8.65751256552412
 50
167.6271537409
 51
205.7230988011
  0
ARC
  5
12D
  8
0
  6
CONTINUOUS
 62
     7
 10
563.1940289283
 20
555.0743095158
 30
0.0
 40
27.00000000000008
 50
110.3810083926
 51
114.6189916074
  0
ARC
  5
12E
  8
0
  6
CONTINUOUS
 62
     7
 10
549.1231015629
 20
573.0927105924
 30
0.0
 40
8.657512565523986
 50
19.2769011989
 51
57.3728462591
  0
ARC
  5
12F
  8
0
  6
CONTINUOUS
 62
     7
 10
558.8055176784
 20
576.4790629367
 30
0.0
 40
1.600000000000103
 50
199.2769011989
 51
281.5865051592
  0
ARC
  5
130
  8
0
  6
CONTINUOUS
 62
     7
 10
563.1940289283
 20
555.0743095158
 30
0.0
 40
20.25000000000014
 50
100.9134948408
 51
101.5865051592
  0
CIRCLE
  5
131
  8
0
  6
CONTINUOUS
 62
     7
 10
563.1940289283
 20
555.0743095158
 30
0.0
 40
12.5
  0
ARC
  5
132
  8
0
  6
CONTINUOUS
 62
     7
 10
563.1940289283
 20
555.0743095158
 30
0.0
 40
27.0
 50
42.8810083926
 51
47.1189916074
  0
ARC
  5
133
  8
0
  6
CONTINUOUS
 62
     7
 10
575.2263291577
 20
536.8357171581
 30
0.0
 40
1.600000000000022
 50
123.4134948408
 51
205.7230988011
  0
ARC
  5
134
  8
0
  6
CONTINUOUS
 62
     7
 10
583.0892142944
 20
566.3364306983
 30
0.0
 40
8.657512565524035
 50
100.1271537409
 51
138.2230988011
  0
ARC
  5
135
  8
0
  6
CONTINUOUS
 62
     7
 10
563.1940289283
 20
555.0743095158
 30
0.0
 40
20.25000000000006
 50
235.9134948408
 51
236.5865051592
  0
ARC
  5
136
  8
0
  6
CONTINUOUS
 62
     7
 10
574.4561501108
 20
574.9694948819
 30
0.0
 40
8.657512565524103
 50
311.7769011989
 51
349.8728462591
  0
CIRCLE
  5
137
  8
0
  6
CONTINUOUS
 62
     7
 10
563.1940289283
 20
564.0743095158
 30
0.0
 40
0.5
  0
CIRCLE
  5
138
  8
0
  6
CONTINUOUS
 62
     7
 10
563.1940289283
 20
546.0743095158
 30
0.0
 40
0.5
  0
CIRCLE
  5
139
  8
0
  6
CONTINUOUS
 62
     7
 10
563.1940289283
 20
555.0743095158
 30
0.0
 40
3.0
  0
CIRCLE
  5
13A
  8
0
  6
CONTINUOUS
 62
     7
 10
1152.419129941
 20
829.5914710117
 30
0.0
 40
1.0
  0
CIRCLE
  5
13B
  8
0
  6
CONTINUOUS
 62
     7
 10
1100.1697675723
 20
871.2783425005
 30
0.0
 40
0.9999999999998863
  0
CIRCLE
  5
13C
  8
0
  6
CONTINUOUS
 62
     7
 10
949.8639673771
 20
853.3236435895
 30
0.0
 40
0.9999999999947704
  0
CIRCLE
  5
13D
  8
0
  6
CONTINUOUS
 62
     7
 10
925.8639673771
 20
853.3236435895
 30
0.0
 40
1.0
  0
CIRCLE
  5
13E
  8
0
  6
CONTINUOUS
 62
     7
 10
925.8639673771
 20
829.3236435895
 30
0.0
 40
0.9999999999998863
  0
ARC
  5
13F
  8
0
  6
CONTINUOUS
 62
     7
 10
849.5224212936
 20
896.8143037612
 30
0.0
 40
1.500000000000012
 50
225.0
 51
45.0
  0
LINE
  5
140
  8
0
  6
CONTINUOUS
 62
     7
 10
850.5830776302
 20
903.753649848
 30
0.0
 11
850.5830776302
 21
897.8749629431
 31
0.0
  0
LINE
  5
141
  8
0
  6
CONTINUOUS
 62
     7
 10
900.5088966696
 20
903.753649848
 30
0.0
 11
850.5830776302
 21
903.753649848
 31
0.0
  0
LINE
  5
142
  8
0
  6
CONTINUOUS
 62
     7
 10
900.5088966696
 20
886.7536302977
 30
0.0
 11
900.5088966696
 21
903.753649848
 31
0.0
  0
LINE
  5
143
  8
0
  6
CONTINUOUS
 62
     7
 10
1053.5088919459
 20
886.7536302977
 30
0.0
 11
900.5088966696
 21
886.7536302977
 31
0.0
  0
LINE
  5
144
  8
0
  6
CONTINUOUS
 62
     7
 10
1053.5088919459
 20
895.7536336356
 30
0.0
 11
1053.5088919459
 21
886.7536302977
 31
0.0
  0
LINE
  5
145
  8
0
  6
CONTINUOUS
 62
     7
 10
1086.4617612569
 20
895.7536336356
 30
0.0
 11
1053.5088919459
 21
895.7536336356
 31
0.0
  0
ARC
  5
146
  8
0
  6
CONTINUOUS
 62
     7
 10
1087.5224212936
 20
896.8143037612
 30
0.0
 40
1.499999999999932
 50
225.0
 51
45.0
  0
LINE
  5
147
  8
0
  6
CONTINUOUS
 62
     7
 10
1088.5830812512
 20
903.753649848
 30
0.0
 11
1088.5830812512
 21
897.8749629431
 31
0.0
  0
LINE
  5
148
  8
0
  6
CONTINUOUS
 62
     7
 10
1138.5830801336
 20
903.753649848
 30
0.0
 11
1088.5830812512
 21
903.753649848
 31
0.0
  0
LINE
  5
149
  8
0
  6
CONTINUOUS
 62
     7
 10
1138.5830801336
 20
897.8749629431
 30
0.0
 11
1138.5830801336
 21
903.753649848
 31
0.0
  0
ARC
  5
14A
  8
0
  6
CONTINUOUS
 62
     7
 10
1139.6437416372
 20
896.8143037612
 30
0.0
 40
1.500000000000093
 50
135.0
 51
315.0
  0
LINE
  5
14B
  8
0
  6
CONTINUOUS
 62
     7
 10
1167.1199288575
 20
895.7536336356
 30
0.0
 11
1140.7044019906
 21
895.7536336356
 31
0.0
  0
LINE
  5
14C
  8
0
  6
CONTINUOUS
 62
     7
 10
1167.1199288575
 20
885.7536431723
 30
0.0
 11
1167.1199288575
 21
895.7536336356
 31
0.0
  0
ARC
  5
14D
  8
0
  6
CONTINUOUS
 62
     7
 10
1182.1199325275
 20
885.7536435895
 30
0.0
 40
15.0
 50
180.0
 51
0.0
  0
LINE
  5
14E
  8
0
  6
CONTINUOUS
 62
     7
 10
1197.1199300496
 20
895.7536336356
 30
0.0
 11
1197.1199300496
 21
885.7536431723
 31
0.0
  0
LINE
  5
14F
  8
0
  6
CONTINUOUS
 62
     7
 10
1226.0462355224
 20
895.7536336356
 30
0.0
 11
1197.1199300496
 21
895.7536336356
 31
0.0
  0
LINE
  5
150
  8
0
  6
CONTINUOUS
 62
     7
 10
1226.0462355224
 20
885.7536431723
 30
0.0
 11
1226.0462355224
 21
895.7536336356
 31
0.0
  0
ARC
  5
151
  8
0
  6
CONTINUOUS
 62
     7
 10
1241.0462304033
 20
885.7536435895
 30
0.0
 40
15.00000000000023
 50
180.0
 51
0.0
  0
LINE
  5
152
  8
0
  6
CONTINUOUS
 62
     7
 10
1256.0462367145
 20
895.7536336356
 30
0.0
 11
1256.0462367145
 21
885.7536431723
 31
0.0
  0
LINE
  5
153
  8
0
  6
CONTINUOUS
 62
     7
 10
1313.4617668001
 20
895.7536336356
 30
0.0
 11
1256.0462367145
 21
895.7536336356
 31
0.0
  0
ARC
  5
154
  8
0
  6
CONTINUOUS
 62
     7
 10
1314.5224212936
 20
896.8143037612
 30
0.0
 40
1.500000000000012
 50
225.0
 51
45.0
  0
LINE
  5
155
  8
0
  6
CONTINUOUS
 62
     7
 10
1315.5830812065
 20
903.753649848
 30
0.0
 11
1315.5830812065
 21
897.8749629431
 31
0.0
  0
LINE
  5
156
  8
0
  6
CONTINUOUS
 62
     7
 10
1365.5830782263
 20
903.753649848
 30
0.0
 11
1315.5830812065
 21
903.753649848
 31
0.0
  0
LINE
  5
157
  8
0
  6
CONTINUOUS
 62
     7
 10
1365.5830782263
 20
897.8749629431
 30
0.0
 11
1365.5830782263
 21
903.753649848
 31
0.0
  0
ARC
  5
158
  8
0
  6
CONTINUOUS
 62
     7
 10
1366.6437416372
 20
896.8143037612
 30
0.0
 40
1.500000000000173
 50
135.0
 51
315.0
  0
LINE
  5
159
  8
0
  6
CONTINUOUS
 62
     7
 10
1445.5830913393
 20
895.7536336356
 30
0.0
 11
1367.7044075338
 21
895.7536336356
 31
0.0
  0
LINE
  5
15A
  8
0
  6
CONTINUOUS
 62
     7
 10
1445.5830913393
 20
805.7536300593
 30
0.0
 11
1445.5830913393
 21
895.7536336356
 31
0.0
  0
LINE
  5
15B
  8
0
  6
CONTINUOUS
 62
     7
 10
823.5089045374
 20
895.7536336356
 30
0.0
 11
823.5089045374
 21
805.7536300593
 31
0.0
  0
LINE
  5
15C
  8
0
  6
CONTINUOUS
 62
     7
 10
848.4617632238
 20
895.7536336356
 30
0.0
 11
823.5089045374
 21
895.7536336356
 31
0.0
  0
ARC
  5
15D
  8
0
  6
CONTINUOUS
 62
     7
 10
1208.6437416372
 20
826.8143037612
 30
0.0
 40
1.500000000000012
 50
135.0
 51
315.0
  0
LINE
  5
15E
  8
0
  6
CONTINUOUS
 62
     7
 10
1209.7044002621
 20
825.7536407881
 30
0.0
 11
1213.4617578594
 21
825.7536407881
 31
0.0
  0
ARC
  5
15F
  8
0
  6
CONTINUOUS
 62
     7
 10
1214.5224212936
 20
826.8143037612
 30
0.0
 40
1.500000000000012
 50
225.0
 51
45.0
  0
LINE
  5
160
  8
0
  6
CONTINUOUS
 62
     7
 10
1215.583087167
 20
827.8749700957
 30
0.0
 11
1215.583087167
 21
873.6323234015
 31
0.0
  0
ARC
  5
161
  8
0
  6
CONTINUOUS
 62
     7
 10
1214.5224212936
 20
874.6929834177
 30
0.0
 40
1.499999999999771
 50
315.0
 51
135.0
  0
LINE
  5
162
  8
0
  6
CONTINUOUS
 62
     7
 10
1213.4617578594
 20
875.753652709
 30
0.0
 11
1209.7044002621
 21
875.753652709
 31
0.0
  0
ARC
  5
163
  8
0
  6
CONTINUOUS
 62
     7
 10
1208.6437416372
 20
874.6929834177
 30
0.0
 40
1.500000000000173
 50
45.0
 51
225.0
  0
LINE
  5
164
  8
0
  6
CONTINUOUS
 62
     7
 10
1207.5830858557
 20
873.6323234015
 30
0.0
 11
1207.5830858557
 21
827.8749700957
 31
0.0
  0
CIRCLE
  5
165
  8
0
  6
CONTINUOUS
 62
     7
 10
949.8639673771
 20
829.3236435895
 30
0.0
 40
0.9999999999947704
  0
CIRCLE
  5
166
  8
0
  6
CONTINUOUS
 62
     7
 10
1100.4211816305
 20
829.2801950154
 30
0.0
 40
1.0
  0
CIRCLE
  5
167
  8
0
  6
CONTINUOUS
 62
     7
 10
1152.1677158828
 20
871.5896184968
 30
0.0
 40
1.0
  0
LINE
  5
168
  8
0
  6
CONTINUOUS
 62
     7
 10
823.5089045374
 20
805.7536300593
 30
0.0
 11
1445.5830913393
 21
805.7536300593
 31
0.0
  0
LINE
  5
169
  8
0
  6
CONTINUOUS
 62
     7
 10
815.5088883249
 20
895.7536336356
 30
0.0
 11
815.5088883249
 21
805.7536300593
 31
0.0
  0
LINE
  5
16A
  8
0
  6
CONTINUOUS
 62
     7
 10
815.5088883249
 20
895.7536336356
 30
0.0
 11
823.5089045374
 21
895.7536336356
 31
0.0
  0
LINE
  5
16B
  8
0
  6
CONTINUOUS
 62
     7
 10
823.5089045374
 20
805.7536300593
 30
0.0
 11
815.5088883249
 21
805.7536300593
 31
0.0
  0
LINE
  5
16C
  8
0
  6
CONTINUOUS
 62
     7
 10
528.470979294
 20
214.1106095486
 30
0.0
 11
528.470979294
 21
219.9892964535
 31
0.0
  0
LINE
  5
16D
  8
0
  6
CONTINUOUS
 62
     7
 10
548.4710198252
 20
219.9892964535
 30
0.0
 11
548.4710198252
 21
214.1106095486
 31
0.0
  0
ARC
  5
16E
  8
0
  6
CONTINUOUS
 62
     7
 10
515.263460347
 20
210.9892907133
 30
0.0
 40
1.000000000000034
 50
90.0
 51
211.6863676879
  0
LINE
  5
16F
  8
0
  6
CONTINUOUS
 62
     7
 10
550.5923491327
 20
211.9892951422
 30
0.0
 11
563.47100552
 21
211.9892951422
 31
0.0
  0
ARC
  5
170
  8
0
  6
CONTINUOUS
 62
     7
 10
549.5316602088
 20
213.049950885
 30
0.0
 40
1.500000000000032
 50
135.0
 51
315.0
  0
LINE
  5
171
  8
0
  6
CONTINUOUS
 62
     7
 10
554.2163115351
 20
145.9818598204
 30
0.0
 11
514.412508568
 21
210.4640271836
 31
0.0
  0
ARC
  5
172
  8
0
  6
CONTINUOUS
 62
     7
 10
558.471000037
 20
148.6082192244
 30
0.0
 40
5.0
 50
211.6863676879
 51
0.0
  0
LINE
  5
173
  8
0
  6
CONTINUOUS
 62
     7
 10
563.47100552
 20
211.9892951422
 30
0.0
 11
563.47100552
 21
148.6082192831
 31
0.0
  0
LINE
  5
174
  8
0
  6
CONTINUOUS
 62
     7
 10
515.2634840814
 20
211.9892951422
 30
0.0
 11
526.3496499864
 21
211.9892951422
 31
0.0
  0
ARC
  5
175
  8
0
  6
CONTINUOUS
 62
     7
 10
527.4103398652
 20
213.049950885
 30
0.0
 40
1.500000000000032
 50
225.0
 51
45.0
  0
LINE
  5
176
  8
0
  6
CONTINUOUS
 62
     7
 10
528.470979294
 20
219.9892964535
 30
0.0
 11
548.4710198252
 21
219.9892964535
 31
0.0
  0
LINE
  5
177
  8
0
  6
CONTINUOUS
 62
     7
 10
1336.9144361822
 20
691.9334050589
 30
0.0
 11
1336.9144361822
 21
717.8294774466
 31
0.0
  0
ARC
  5
178
  8
0
  6
CONTINUOUS
 62
     7
 10
1337.9750946433
 20
690.8727560373
 30
0.0
 40
1.500000000000173
 50
135.0
 51
315.0
  0
LINE
  5
179
  8
0
  6
CONTINUOUS
 62
     7
 10
1344.9144225923
 20
689.8121055537
 30
0.0
 11
1339.0357654898
 21
689.8121055537
 31
0.0
  0
LINE
  5
17A
  8
0
  6
CONTINUOUS
 62
     7
 10
1344.9144225923
 20
639.8120936327
 30
0.0
 11
1344.9144225923
 21
689.8121055537
 31
0.0
  0
LINE
  5
17B
  8
0
  6
CONTINUOUS
 62
     7
 10
1339.0357654898
 20
639.8120936327
 30
0.0
 11
1344.9144225923
 21
639.8120936327
 31
0.0
  0
ARC
  5
17C
  8
0
  6
CONTINUOUS
 62
     7
 10
1337.9750946433
 20
638.7514356938
 30
0.0
 40
1.500000000000012
 50
45.0
 51
225.0
  0
LINE
  5
17D
  8
0
  6
CONTINUOUS
 62
     7
 10
1344.9144225923
 20
523.8120969706
 30
0.0
 11
1339.0357654898
 21
523.8120969706
 31
0.0
  0
LINE
  5
17E
  8
0
  6
CONTINUOUS
 62
     7
 10
1344.9144225923
 20
485.8120944672
 30
0.0
 11
1286.9144391624
 21
485.8120944672
 31
0.0
  0
LINE
  5
17F
  8
0
  6
CONTINUOUS
 62
     7
 10
1286.9144391624
 20
517.8120922618
 30
0.0
 11
1324.7931164114
 21
517.8120922618
 31
0.0
  0
ARC
  5
180
  8
0
  6
CONTINUOUS
 62
     7
 10
1325.8537742997
 20
518.8727560373
 30
0.0
 40
1.500000000000093
 50
225.0
 51
45.0
  0
LINE
  5
181
  8
0
  6
CONTINUOUS
 62
     7
 10
1326.9144308178
 20
519.9334141188
 30
0.0
 11
1326.9144308178
 21
523.6907791667
 31
0.0
  0
ARC
  5
182
  8
0
  6
CONTINUOUS
 62
     7
 10
1325.8537742997
 20
524.7514356938
 30
0.0
 40
1.500000000000093
 50
315.0
 51
135.0
  0
LINE
  5
183
  8
0
  6
CONTINUOUS
 62
     7
 10
1286.9144391624
 20
553.8120981627
 30
0.0
 11
1321.9144355862
 21
553.8120981627
 31
0.0
  0
LINE
  5
184
  8
0
  6
CONTINUOUS
 62
     7
 10
1286.9144391624
 20
557.8120913678
 30
0.0
 11
1286.9144391624
 21
553.8120981627
 31
0.0
  0
LINE
  5
185
  8
0
  6
CONTINUOUS
 62
     7
 10
1286.9144391624
 20
557.8120913678
 30
0.0
 11
1324.7931164114
 21
557.8120913678
 31
0.0
  0
ARC
  5
186
  8
0
  6
CONTINUOUS
 62
     7
 10
1325.8537742997
 20
558.8727560373
 30
0.0
 40
1.500000000000093
 50
225.0
 51
45.0
  0
LINE
  5
187
  8
0
  6
CONTINUOUS
 62
     7
 10
1326.9144308178
 20
559.9334206753
 30
0.0
 11
1326.9144308178
 21
563.6907782727
 31
0.0
  0
ARC
  5
188
  8
0
  6
CONTINUOUS
 62
     7
 10
1325.8537742997
 20
564.7514356938
 30
0.0
 40
1.500000000000093
 50
315.0
 51
135.0
  0
LINE
  5
189
  8
0
  6
CONTINUOUS
 62
     7
 10
1324.7931164114
 20
565.8120926791
 30
0.0
 11
1286.9144391624
 21
565.8120926791
 31
0.0
  0
LINE
  5
18A
  8
0
  6
CONTINUOUS
 62
     7
 10
1286.9144391624
 20
569.8121007853
 30
0.0
 11
1286.9144391624
 21
565.8120926791
 31
0.0
  0
LINE
  5
18B
  8
0
  6
CONTINUOUS
 62
     7
 10
1321.9144355862
 20
569.8121007853
 30
0.0
 11
1286.9144391624
 21
569.8121007853
 31
0.0
  0
LINE
  5
18C
  8
0
  6
CONTINUOUS
 62
     7
 10
1321.9144355862
 20
593.812089818
 30
0.0
 11
1321.9144355862
 21
569.8121007853
 31
0.0
  0
LINE
  5
18D
  8
0
  6
CONTINUOUS
 62
     7
 10
1286.9144391624
 20
593.812089818
 30
0.0
 11
1321.9144355862
 21
593.812089818
 31
0.0
  0
LINE
  5
18E
  8
0
  6
CONTINUOUS
 62
     7
 10
1286.9144391624
 20
597.8120979243
 30
0.0
 11
1286.9144391624
 21
593.812089818
 31
0.0
  0
LINE
  5
18F
  8
0
  6
CONTINUOUS
 62
     7
 10
1286.9144391624
 20
597.8120979243
 30
0.0
 11
1324.7931164114
 21
597.8120979243
 31
0.0
  0
ARC
  5
190
  8
0
  6
CONTINUOUS
 62
     7
 10
1325.8537742997
 20
598.8727560373
 30
0.0
 40
1.500000000000093
 50
225.0
 51
45.0
  0
LINE
  5
191
  8
0
  6
CONTINUOUS
 62
     7
 10
1326.9144308178
 20
599.9334123307
 30
0.0
 11
1326.9144308178
 21
603.690769928
 31
0.0
  0
ARC
  5
192
  8
0
  6
CONTINUOUS
 62
     7
 10
1325.8537742997
 20
604.7514356938
 30
0.0
 40
1.500000000000173
 50
315.0
 51
135.0
  0
LINE
  5
193
  8
0
  6
CONTINUOUS
 62
     7
 10
1324.7931164114
 20
605.8120992356
 30
0.0
 11
1286.9144391624
 21
605.8120992356
 31
0.0
  0
LINE
  5
194
  8
0
  6
CONTINUOUS
 62
     7
 10
1286.9144391624
 20
609.8120924406
 30
0.0
 11
1286.9144391624
 21
605.8120992356
 31
0.0
  0
LINE
  5
195
  8
0
  6
CONTINUOUS
 62
     7
 10
1321.9144355862
 20
609.8120924406
 30
0.0
 11
1286.9144391624
 21
609.8120924406
 31
0.0
  0
LINE
  5
196
  8
0
  6
CONTINUOUS
 62
     7
 10
1321.9144355862
 20
633.8120963746
 30
0.0
 11
1321.9144355862
 21
609.8120924406
 31
0.0
  0
LINE
  5
197
  8
0
  6
CONTINUOUS
 62
     7
 10
1286.9144391624
 20
633.8120963746
 30
0.0
 11
1321.9144355862
 21
633.8120963746
 31
0.0
  0
LINE
  5
198
  8
0
  6
CONTINUOUS
 62
     7
 10
1286.9144391624
 20
637.8120895796
 30
0.0
 11
1286.9144391624
 21
633.8120963746
 31
0.0
  0
LINE
  5
199
  8
0
  6
CONTINUOUS
 62
     7
 10
1286.9144391624
 20
637.8120895796
 30
0.0
 11
1324.7931164114
 21
637.8120895796
 31
0.0
  0
ARC
  5
19A
  8
0
  6
CONTINUOUS
 62
     7
 10
1325.8537742997
 20
638.8727560373
 30
0.0
 40
1.500000000000093
 50
225.0
 51
45.0
  0
LINE
  5
19B
  8
0
  6
CONTINUOUS
 62
     7
 10
1326.9144308178
 20
639.9334188872
 30
0.0
 11
1326.9144308178
 21
643.6907764845
 31
0.0
  0
ARC
  5
19C
  8
0
  6
CONTINUOUS
 62
     7
 10
1325.8537742997
 20
644.7514356938
 30
0.0
 40
1.500000000000173
 50
315.0
 51
135.0
  0
LINE
  5
19D
  8
0
  6
CONTINUOUS
 62
     7
 10
1324.7931164114
 20
645.8120908909
 30
0.0
 11
1286.9144391624
 21
645.8120908909
 31
0.0
  0
LINE
  5
19E
  8
0
  6
CONTINUOUS
 62
     7
 10
1286.9144391624
 20
649.8120989972
 30
0.0
 11
1286.9144391624
 21
645.8120908909
 31
0.0
  0
LINE
  5
19F
  8
0
  6
CONTINUOUS
 62
     7
 10
1321.9144355862
 20
649.8120989972
 30
0.0
 11
1286.9144391624
 21
649.8120989972
 31
0.0
  0
LINE
  5
1A0
  8
0
  6
CONTINUOUS
 62
     7
 10
1321.9144355862
 20
673.8121029311
 30
0.0
 11
1321.9144355862
 21
649.8120989972
 31
0.0
  0
LINE
  5
1A1
  8
0
  6
CONTINUOUS
 62
     7
 10
1286.9144391624
 20
673.8121029311
 30
0.0
 11
1321.9144355862
 21
673.8121029311
 31
0.0
  0
LINE
  5
1A2
  8
0
  6
CONTINUOUS
 62
     7
 10
1286.9144391624
 20
677.812081235
 30
0.0
 11
1286.9144391624
 21
673.8121029311
 31
0.0
  0
LINE
  5
1A3
  8
0
  6
CONTINUOUS
 62
     7
 10
1286.9144391624
 20
677.812081235
 30
0.0
 11
1334.8479729502
 21
677.812081235
 31
0.0
  0
ARC
  5
1A4
  8
0
  6
CONTINUOUS
 62
     7
 10
1335.7095479743
 20
679.0399686567
 30
0.0
 40
1.500000000000086
 50
234.9430835088
 51
36.5576777862
  0
LINE
  5
1A5
  8
0
  6
CONTINUOUS
 62
     7
 10
1336.9144361822
 20
679.9334105425
 30
0.0
 11
1336.9144361822
 21
683.6907681399
 31
0.0
  0
ARC
  5
1A6
  8
0
  6
CONTINUOUS
 62
     7
 10
1335.7095479743
 20
684.5842230744
 30
0.0
 40
1.500000000000035
 50
323.4423222138
 51
125.0569164912
  0
LINE
  5
1A7
  8
0
  6
CONTINUOUS
 62
     7
 10
1334.8479729502
 20
685.8120974474
 30
0.0
 11
1286.9144391624
 21
685.8120974474
 31
0.0
  0
LINE
  5
1A8
  8
0
  6
CONTINUOUS
 62
     7
 10
1286.9144391624
 20
689.8121055537
 30
0.0
 11
1286.9144391624
 21
685.8120974474
 31
0.0
  0
LINE
  5
1A9
  8
0
  6
CONTINUOUS
 62
     7
 10
1321.9144355862
 20
689.8121055537
 30
0.0
 11
1286.9144391624
 21
689.8121055537
 31
0.0
  0
LINE
  5
1AA
  8
0
  6
CONTINUOUS
 62
     7
 10
1321.9144355862
 20
713.8294693404
 30
0.0
 11
1321.9144355862
 21
689.8121055537
 31
0.0
  0
LINE
  5
1AB
  8
0
  6
CONTINUOUS
 62
     7
 10
1286.9144391624
 20
713.8294693404
 30
0.0
 11
1321.9144355862
 21
713.8294693404
 31
0.0
  0
LINE
  5
1AC
  8
0
  6
CONTINUOUS
 62
     7
 10
1286.9144391624
 20
717.8294774466
 30
0.0
 11
1286.9144391624
 21
713.8294693404
 31
0.0
  0
LINE
  5
1AD
  8
0
  6
CONTINUOUS
 62
     7
 10
1286.9144391624
 20
717.8294774466
 30
0.0
 11
1336.9144361822
 21
717.8294774466
 31
0.0
  0
LINE
  5
1AE
  8
0
  6
CONTINUOUS
 62
     7
 10
1344.9144225923
 20
485.8120944672
 30
0.0
 11
1344.9144225923
 21
523.8120969706
 31
0.0
  0
ARC
  5
1AF
  8
0
  6
CONTINUOUS
 62
     7
 10
1337.9750946433
 20
524.8727560373
 30
0.0
 40
1.500000000000093
 50
135.0
 51
315.0
  0
LINE
  5
1B0
  8
0
  6
CONTINUOUS
 62
     7
 10
1324.7931164114
 20
525.8120935731
 30
0.0
 11
1286.9144391624
 21
525.8120935731
 31
0.0
  0
LINE
  5
1B1
  8
0
  6
CONTINUOUS
 62
     7
 10
1321.9144355862
 20
529.8120942288
 30
0.0
 11
1286.9144391624
 21
529.8120942288
 31
0.0
  0
LINE
  5
1B2
  8
0
  6
CONTINUOUS
 62
     7
 10
1336.9144361822
 20
525.9334188276
 30
0.0
 11
1336.9144361822
 21
637.6907792263
 31
0.0
  0
LINE
  5
1B3
  8
0
  6
CONTINUOUS
 62
     7
 10
1328.9144199697
 20
513.8120990568
 30
0.0
 11
1318.9144295065
 21
513.8120990568
 31
0.0
  0
LINE
  5
1B4
  8
0
  6
CONTINUOUS
 62
     7
 10
1328.9144199697
 20
489.8120951229
 30
0.0
 11
1328.9144199697
 21
513.8120990568
 31
0.0
  0
LINE
  5
1B5
  8
0
  6
CONTINUOUS
 62
     7
 10
1321.9144355862
 20
553.8120981627
 30
0.0
 11
1321.9144355862
 21
529.8120942288
 31
0.0
  0
LINE
  5
1B6
  8
0
  6
CONTINUOUS
 62
     7
 10
1286.9144391624
 20
529.8120942288
 30
0.0
 11
1286.9144391624
 21
525.8120935731
 31
0.0
  0
LINE
  5
1B7
  8
0
  6
CONTINUOUS
 62
     7
 10
1286.9144391624
 20
517.8120922618
 30
0.0
 11
1286.9144391624
 21
485.8120944672
 31
0.0
  0
LINE
  5
1B8
  8
0
  6
CONTINUOUS
 62
     7
 10
1318.9144295065
 20
513.8120990568
 30
0.0
 11
1318.9144295065
 21
489.8120951229
 31
0.0
  0
LINE
  5
1B9
  8
0
  6
CONTINUOUS
 62
     7
 10
1318.9144295065
 20
489.8120951229
 30
0.0
 11
1328.9144199697
 21
489.8120951229
 31
0.0
  0
LINE
  5
1BA
  8
0
  6
CONTINUOUS
 62
     7
 10
1286.9144391624
 20
477.8120931559
 30
0.0
 11
1344.9144225923
 21
477.8120931559
 31
0.0
  0
LINE
  5
1BB
  8
0
  6
CONTINUOUS
 62
     7
 10
1344.9144225923
 20
473.8120962255
 30
0.0
 11
1344.9144225923
 21
477.8120931559
 31
0.0
  0
LINE
  5
1BC
  8
0
  6
CONTINUOUS
 62
     7
 10
1286.9144391624
 20
473.8120962255
 30
0.0
 11
1344.9144225923
 21
473.8120962255
 31
0.0
  0
LINE
  5
1BD
  8
0
  6
CONTINUOUS
 62
     7
 10
1286.9144391624
 20
477.8120931559
 30
0.0
 11
1286.9144391624
 21
473.8120962255
 31
0.0
  0
LINE
  5
1BE
  8
0
  6
CONTINUOUS
 62
     7
 10
1336.9144361822
 20
725.8120891028
 30
0.0
 11
1286.9144391624
 21
725.8120891028
 31
0.0
  0
LINE
  5
1BF
  8
0
  6
CONTINUOUS
 62
     7
 10
1336.9144361822
 20
729.812097209
 30
0.0
 11
1286.9144391624
 21
729.812097209
 31
0.0
  0
LINE
  5
1C0
  8
0
  6
CONTINUOUS
 62
     7
 10
1336.9144361822
 20
725.8120891028
 30
0.0
 11
1336.9144361822
 21
729.812097209
 31
0.0
  0
LINE
  5
1C1
  8
0
  6
CONTINUOUS
 62
     7
 10
1286.9144391624
 20
729.812097209
 30
0.0
 11
1286.9144391624
 21
725.8120891028
 31
0.0
  0
CIRCLE
  5
1C2
  8
0
  6
CONTINUOUS
 62
     7
 10
1330.4144344715
 20
481.8120958655
 30
0.0
 40
0.9999999999997726
  0
CIRCLE
  5
1C3
  8
0
  6
CONTINUOUS
 62
     7
 10
1301.4144344715
 20
481.8120958655
 30
0.0
 40
0.9999999999997726
  0
LINE
  5
1C4
  8
0
  6
CONTINUOUS
 62
     7
 10
1344.9144225923
 20
477.8120931559
 30
0.0
 11
1344.9144225923
 21
485.8120944672
 31
0.0
  0
LINE
  5
1C5
  8
0
  6
CONTINUOUS
 62
     7
 10
1286.9144391624
 20
485.8120944672
 30
0.0
 11
1286.9144391624
 21
477.8120931559
 31
0.0
  0
LINE
  5
1C6
  8
0
  6
CONTINUOUS
 62
     7
 10
1286.9144391624
 20
525.8120935731
 30
0.0
 11
1286.9144391624
 21
517.8120922618
 31
0.0
  0
LINE
  5
1C7
  8
0
  6
CONTINUOUS
 62
     7
 10
1286.9144391624
 20
565.8120926791
 30
0.0
 11
1286.9144391624
 21
557.8120913678
 31
0.0
  0
LINE
  5
1C8
  8
0
  6
CONTINUOUS
 62
     7
 10
1286.9144391624
 20
605.8120992356
 30
0.0
 11
1286.9144391624
 21
597.8120979243
 31
0.0
  0
LINE
  5
1C9
  8
0
  6
CONTINUOUS
 62
     7
 10
1286.9144391624
 20
645.8120908909
 30
0.0
 11
1286.9144391624
 21
637.8120895796
 31
0.0
  0
LINE
  5
1CA
  8
0
  6
CONTINUOUS
 62
     7
 10
1286.9144391624
 20
685.8120974474
 30
0.0
 11
1286.9144391624
 21
677.812081235
 31
0.0
  0
CIRCLE
  5
1CB
  8
0
  6
CONTINUOUS
 62
     7
 10
1321.9144344715
 20
721.820782753
 30
0.0
 40
0.5
  0
LINE
  5
1CC
  8
0
  6
CONTINUOUS
 62
     7
 10
1336.9144361822
 20
725.8120891028
 30
0.0
 11
1336.9144361822
 21
717.8294774466
 31
0.0
  0
LINE
  5
1CD
  8
0
  6
CONTINUOUS
 62
     7
 10
1286.9144391624
 20
725.8120891028
 30
0.0
 11
1286.9144391624
 21
717.8294774466
 31
0.0
  0
LINE
  5
1CE
  8
0
  6
CONTINUOUS
 62
     7
 10
1192.1511453001
 20
473.5790085369
 30
0.0
 11
1192.1511453001
 21
477.5790091925
 31
0.0
  0
LINE
  5
1CF
  8
0
  6
CONTINUOUS
 62
     7
 10
1192.1511453001
 20
477.5790091925
 30
0.0
 11
1250.1511436312
 21
477.5790091925
 31
0.0
  0
LINE
  5
1D0
  8
0
  6
CONTINUOUS
 62
     7
 10
1250.1511436312
 20
473.5790085369
 30
0.0
 11
1192.1511453001
 21
473.5790085369
 31
0.0
  0
LINE
  5
1D1
  8
0
  6
CONTINUOUS
 62
     7
 10
1250.1511436312
 20
477.5790091925
 30
0.0
 11
1250.1511436312
 21
473.5790085369
 31
0.0
  0
LINE
  5
1D2
  8
0
  6
CONTINUOUS
 62
     7
 10
1192.1511453001
 20
523.5790130072
 30
0.0
 11
1198.0298247544
 21
523.5790130072
 31
0.0
  0
ARC
  5
1D3
  8
0
  6
CONTINUOUS
 62
     7
 10
1199.090483446
 20
524.6396704386
 30
0.0
 40
1.500000000000173
 50
225.0
 51
45.0
  0
ARC
  5
1D4
  8
0
  6
CONTINUOUS
 62
     7
 10
1199.090483446
 20
638.518350095
 30
0.0
 40
1.500000000000012
 50
315.0
 51
135.0
  0
LINE
  5
1D5
  8
0
  6
CONTINUOUS
 62
     7
 10
1198.0298247544
 20
639.5790096693
 30
0.0
 11
1192.1511453001
 21
639.5790096693
 31
0.0
  0
LINE
  5
1D6
  8
0
  6
CONTINUOUS
 62
     7
 10
1192.1511453001
 20
639.5790096693
 30
0.0
 11
1192.1511453001
 21
689.5790215903
 31
0.0
  0
LINE
  5
1D7
  8
0
  6
CONTINUOUS
 62
     7
 10
1192.1511453001
 20
689.5790215903
 30
0.0
 11
1198.0298247544
 21
689.5790215903
 31
0.0
  0
ARC
  5
1D8
  8
0
  6
CONTINUOUS
 62
     7
 10
1199.090483446
 20
690.6396704386
 30
0.0
 40
1.500000000000173
 50
225.0
 51
45.0
  0
LINE
  5
1D9
  8
0
  6
CONTINUOUS
 62
     7
 10
1200.1511466114
 20
691.7003210955
 30
0.0
 11
1200.1511466114
 21
717.5790187292
 31
0.0
  0
LINE
  5
1DA
  8
0
  6
CONTINUOUS
 62
     7
 10
1200.1511466114
 20
717.5790187292
 30
0.0
 11
1250.1511436312
 21
717.5790187292
 31
0.0
  0
LINE
  5
1DB
  8
0
  6
CONTINUOUS
 62
     7
 10
1250.1511436312
 20
717.5790187292
 30
0.0
 11
1250.1511436312
 21
713.579010623
 31
0.0
  0
LINE
  5
1DC
  8
0
  6
CONTINUOUS
 62
     7
 10
1250.1511436312
 20
713.579010623
 30
0.0
 11
1215.1511472074
 21
713.579010623
 31
0.0
  0
LINE
  5
1DD
  8
0
  6
CONTINUOUS
 62
     7
 10
1215.1511472074
 20
713.579010623
 30
0.0
 11
1215.1511472074
 21
689.5790215903
 31
0.0
  0
LINE
  5
1DE
  8
0
  6
CONTINUOUS
 62
     7
 10
1215.1511472074
 20
689.5790215903
 30
0.0
 11
1250.1511436312
 21
689.5790215903
 31
0.0
  0
LINE
  5
1DF
  8
0
  6
CONTINUOUS
 62
     7
 10
1250.1511436312
 20
689.5790215903
 30
0.0
 11
1250.1511436312
 21
685.579013484
 31
0.0
  0
LINE
  5
1E0
  8
0
  6
CONTINUOUS
 62
     7
 10
1250.1511436312
 20
685.579013484
 30
0.0
 11
1202.217617294
 21
685.579013484
 31
0.0
  0
ARC
  5
1E1
  8
0
  6
CONTINUOUS
 62
     7
 10
1201.3560301149
 20
684.3511374756
 30
0.0
 40
1.500000000000086
 50
54.9430835088
 51
216.5576777862
  0
LINE
  5
1E2
  8
0
  6
CONTINUOUS
 62
     7
 10
1200.1511466114
 20
683.4576841765
 30
0.0
 11
1200.1511466114
 21
679.7003265791
 31
0.0
  0
ARC
  5
1E3
  8
0
  6
CONTINUOUS
 62
     7
 10
1201.3560301149
 20
678.8068830579
 30
0.0
 40
1.499999999999993
 50
143.4423222138
 51
305.0569164912
  0
LINE
  5
1E4
  8
0
  6
CONTINUOUS
 62
     7
 10
1202.217617294
 20
677.5789972716
 30
0.0
 11
1250.1511436312
 21
677.5789972716
 31
0.0
  0
LINE
  5
1E5
  8
0
  6
CONTINUOUS
 62
     7
 10
1250.1511436312
 20
677.5789972716
 30
0.0
 11
1250.1511436312
 21
673.5790189677
 31
0.0
  0
LINE
  5
1E6
  8
0
  6
CONTINUOUS
 62
     7
 10
1250.1511436312
 20
673.5790189677
 30
0.0
 11
1215.1511472074
 21
673.5790189677
 31
0.0
  0
LINE
  5
1E7
  8
0
  6
CONTINUOUS
 62
     7
 10
1215.1511472074
 20
673.5790189677
 30
0.0
 11
1215.1511472074
 21
649.5790150338
 31
0.0
  0
LINE
  5
1E8
  8
0
  6
CONTINUOUS
 62
     7
 10
1215.1511472074
 20
649.5790150338
 30
0.0
 11
1250.1511436312
 21
649.5790150338
 31
0.0
  0
LINE
  5
1E9
  8
0
  6
CONTINUOUS
 62
     7
 10
1250.1511436312
 20
649.5790150338
 30
0.0
 11
1250.1511436312
 21
645.5790069275
 31
0.0
  0
LINE
  5
1EA
  8
0
  6
CONTINUOUS
 62
     7
 10
1250.1511436312
 20
645.5790069275
 30
0.0
 11
1212.2724663822
 21
645.5790069275
 31
0.0
  0
ARC
  5
1EB
  8
0
  6
CONTINUOUS
 62
     7
 10
1211.2118037896
 20
644.518350095
 30
0.0
 40
1.499999999999932
 50
45.0
 51
225.0
  0
LINE
  5
1EC
  8
0
  6
CONTINUOUS
 62
     7
 10
1210.1511370746
 20
643.4576925211
 30
0.0
 11
1210.1511370746
 21
639.7003349238
 31
0.0
  0
ARC
  5
1ED
  8
0
  6
CONTINUOUS
 62
     7
 10
1211.2118037896
 20
638.6396704386
 30
0.0
 40
1.500000000000093
 50
135.0
 51
315.0
  0
LINE
  5
1EE
  8
0
  6
CONTINUOUS
 62
     7
 10
1212.2724663822
 20
637.5790056162
 30
0.0
 11
1250.1511436312
 21
637.5790056162
 31
0.0
  0
LINE
  5
1EF
  8
0
  6
CONTINUOUS
 62
     7
 10
1250.1511436312
 20
637.5790056162
 30
0.0
 11
1250.1511436312
 21
633.5790124112
 31
0.0
  0
LINE
  5
1F0
  8
0
  6
CONTINUOUS
 62
     7
 10
1250.1511436312
 20
633.5790124112
 30
0.0
 11
1215.1511472074
 21
633.5790124112
 31
0.0
  0
LINE
  5
1F1
  8
0
  6
CONTINUOUS
 62
     7
 10
1215.1511472074
 20
633.5790124112
 30
0.0
 11
1215.1511472074
 21
609.5790084772
 31
0.0
  0
LINE
  5
1F2
  8
0
  6
CONTINUOUS
 62
     7
 10
1215.1511472074
 20
609.5790084772
 30
0.0
 11
1250.1511436312
 21
609.5790084772
 31
0.0
  0
LINE
  5
1F3
  8
0
  6
CONTINUOUS
 62
     7
 10
1250.1511436312
 20
609.5790084772
 30
0.0
 11
1250.1511436312
 21
605.5790152722
 31
0.0
  0
LINE
  5
1F4
  8
0
  6
CONTINUOUS
 62
     7
 10
1250.1511436312
 20
605.5790152722
 30
0.0
 11
1212.2724663822
 21
605.5790152722
 31
0.0
  0
ARC
  5
1F5
  8
0
  6
CONTINUOUS
 62
     7
 10
1211.2118037896
 20
604.518350095
 30
0.0
 40
1.500000000000012
 50
45.0
 51
225.0
  0
LINE
  5
1F6
  8
0
  6
CONTINUOUS
 62
     7
 10
1210.1511370746
 20
603.4576859646
 30
0.0
 11
1210.1511370746
 21
599.7003283673
 31
0.0
  0
ARC
  5
1F7
  8
0
  6
CONTINUOUS
 62
     7
 10
1211.2118037896
 20
598.6396704386
 30
0.0
 40
1.500000000000012
 50
135.0
 51
315.0
  0
LINE
  5
1F8
  8
0
  6
CONTINUOUS
 62
     7
 10
1212.2724663822
 20
597.5790139609
 30
0.0
 11
1250.1511436312
 21
597.5790139609
 31
0.0
  0
LINE
  5
1F9
  8
0
  6
CONTINUOUS
 62
     7
 10
1250.1511436312
 20
597.5790139609
 30
0.0
 11
1250.1511436312
 21
593.5790058546
 31
0.0
  0
LINE
  5
1FA
  8
0
  6
CONTINUOUS
 62
     7
 10
1250.1511436312
 20
593.5790058546
 30
0.0
 11
1215.1511472074
 21
593.5790058546
 31
0.0
  0
LINE
  5
1FB
  8
0
  6
CONTINUOUS
 62
     7
 10
1215.1511472074
 20
593.5790058546
 30
0.0
 11
1215.1511472074
 21
569.5790168219
 31
0.0
  0
LINE
  5
1FC
  8
0
  6
CONTINUOUS
 62
     7
 10
1215.1511472074
 20
569.5790168219
 30
0.0
 11
1250.1511436312
 21
569.5790168219
 31
0.0
  0
LINE
  5
1FD
  8
0
  6
CONTINUOUS
 62
     7
 10
1250.1511436312
 20
569.5790168219
 30
0.0
 11
1250.1511436312
 21
565.5790087157
 31
0.0
  0
LINE
  5
1FE
  8
0
  6
CONTINUOUS
 62
     7
 10
1250.1511436312
 20
565.5790087157
 30
0.0
 11
1212.2724663822
 21
565.5790087157
 31
0.0
  0
ARC
  5
1FF
  8
0
  6
CONTINUOUS
 62
     7
 10
1211.2118037896
 20
564.518350095
 30
0.0
 40
1.500000000000012
 50
45.0
 51
225.0
  0
LINE
  5
200
  8
0
  6
CONTINUOUS
 62
     7
 10
1210.1511370746
 20
563.4576943093
 30
0.0
 11
1210.1511370746
 21
559.7003367119
 31
0.0
  0
ARC
  5
201
  8
0
  6
CONTINUOUS
 62
     7
 10
1211.2118037896
 20
558.6396704386
 30
0.0
 40
1.500000000000012
 50
135.0
 51
315.0
  0
LINE
  5
202
  8
0
  6
CONTINUOUS
 62
     7
 10
1212.2724663822
 20
557.5790074044
 30
0.0
 11
1250.1511436312
 21
557.5790074044
 31
0.0
  0
LINE
  5
203
  8
0
  6
CONTINUOUS
 62
     7
 10
1250.1511436312
 20
557.5790074044
 30
0.0
 11
1250.1511436312
 21
553.5790141993
 31
0.0
  0
LINE
  5
204
  8
0
  6
CONTINUOUS
 62
     7
 10
1250.1511436312
 20
553.5790141993
 30
0.0
 11
1215.1511472074
 21
553.5790141993
 31
0.0
  0
LINE
  5
205
  8
0
  6
CONTINUOUS
 62
     7
 10
1215.1511472074
 20
553.5790141993
 30
0.0
 11
1215.1511472074
 21
529.5790102654
 31
0.0
  0
LINE
  5
206
  8
0
  6
CONTINUOUS
 62
     7
 10
1250.1511436312
 20
525.5790096097
 30
0.0
 11
1212.2724663822
 21
525.5790096097
 31
0.0
  0
ARC
  5
207
  8
0
  6
CONTINUOUS
 62
     7
 10
1211.2118037896
 20
524.518350095
 30
0.0
 40
1.499999999999932
 50
45.0
 51
225.0
  0
LINE
  5
208
  8
0
  6
CONTINUOUS
 62
     7
 10
1210.1511370746
 20
523.4576877528
 30
0.0
 11
1210.1511370746
 21
519.7003301554
 31
0.0
  0
ARC
  5
209
  8
0
  6
CONTINUOUS
 62
     7
 10
1211.2118037896
 20
518.6396704386
 30
0.0
 40
1.500000000000012
 50
135.0
 51
315.0
  0
LINE
  5
20A
  8
0
  6
CONTINUOUS
 62
     7
 10
1212.2724663822
 20
517.5790082984
 30
0.0
 11
1250.1511436312
 21
517.5790082984
 31
0.0
  0
LINE
  5
20B
  8
0
  6
CONTINUOUS
 62
     7
 10
1250.1511436312
 20
485.5106141739
 30
0.0
 11
1192.1511453001
 21
485.5106141739
 31
0.0
  0
LINE
  5
20C
  8
0
  6
CONTINUOUS
 62
     7
 10
1192.1511453001
 20
485.5106141739
 30
0.0
 11
1192.1511453001
 21
523.5790130072
 31
0.0
  0
LINE
  5
20D
  8
0
  6
CONTINUOUS
 62
     7
 10
1208.1511479227
 20
513.5790076428
 30
0.0
 11
1218.1511383859
 21
513.5790076428
 31
0.0
  0
LINE
  5
20E
  8
0
  6
CONTINUOUS
 62
     7
 10
1208.1511479227
 20
489.5790111595
 30
0.0
 11
1208.1511479227
 21
513.5790076428
 31
0.0
  0
LINE
  5
20F
  8
0
  6
CONTINUOUS
 62
     7
 10
1218.1511383859
 20
489.5790111595
 30
0.0
 11
1208.1511479227
 21
489.5790111595
 31
0.0
  0
LINE
  5
210
  8
0
  6
CONTINUOUS
 62
     7
 10
1218.1511383859
 20
513.5790076428
 30
0.0
 11
1218.1511383859
 21
489.5790111595
 31
0.0
  0
LINE
  5
211
  8
0
  6
CONTINUOUS
 62
     7
 10
1215.1511472074
 20
529.5790102654
 30
0.0
 11
1250.1511436312
 21
529.5790102654
 31
0.0
  0
LINE
  5
212
  8
0
  6
CONTINUOUS
 62
     7
 10
1200.1511466114
 20
525.7003274136
 30
0.0
 11
1200.1511466114
 21
637.4576952629
 31
0.0
  0
LINE
  5
213
  8
0
  6
CONTINUOUS
 62
     7
 10
1250.1511436312
 20
517.5790082984
 30
0.0
 11
1250.1511436312
 21
485.5106141739
 31
0.0
  0
LINE
  5
214
  8
0
  6
CONTINUOUS
 62
     7
 10
1250.1511436312
 20
529.5790102654
 30
0.0
 11
1250.1511436312
 21
525.5790096097
 31
0.0
  0
LINE
  5
215
  8
0
  6
CONTINUOUS
 62
     7
 10
1200.1511466114
 20
729.5790132456
 30
0.0
 11
1250.1511436312
 21
729.5790132456
 31
0.0
  0
LINE
  5
216
  8
0
  6
CONTINUOUS
 62
     7
 10
1250.1511436312
 20
729.5790132456
 30
0.0
 11
1250.1511436312
 21
725.5790051394
 31
0.0
  0
LINE
  5
217
  8
0
  6
CONTINUOUS
 62
     7
 10
1250.1511436312
 20
725.5790051394
 30
0.0
 11
1200.1511466114
 21
725.5790051394
 31
0.0
  0
LINE
  5
218
  8
0
  6
CONTINUOUS
 62
     7
 10
1200.1511466114
 20
725.5790051394
 30
0.0
 11
1200.1511466114
 21
729.5790132456
 31
0.0
  0
LINE
  5
219
  8
0
  6
CONTINUOUS
 62
     7
 10
1250.1511436312
 20
597.5790139609
 30
0.0
 11
1250.1511436312
 21
605.5790152722
 31
0.0
  0
CIRCLE
  5
21A
  8
0
  6
CONTINUOUS
 62
     7
 10
1215.1511436178
 20
721.5790102668
 30
0.0
 40
0.5
  0
LINE
  5
21B
  8
0
  6
CONTINUOUS
 62
     7
 10
1200.1511466114
 20
717.5790187292
 30
0.0
 11
1200.1511466114
 21
725.5790051394
 31
0.0
  0
LINE
  5
21C
  8
0
  6
CONTINUOUS
 62
     7
 10
1250.1511436312
 20
717.5790187292
 30
0.0
 11
1250.1511436312
 21
725.5790051394
 31
0.0
  0
LINE
  5
21D
  8
0
  6
CONTINUOUS
 62
     7
 10
1250.1511436312
 20
557.5790074044
 30
0.0
 11
1250.1511436312
 21
565.5790087157
 31
0.0
  0
CIRCLE
  5
21E
  8
0
  6
CONTINUOUS
 62
     7
 10
1206.6511436178
 20
481.5448134034
 30
0.0
 40
1.0
  0
CIRCLE
  5
21F
  8
0
  6
CONTINUOUS
 62
     7
 10
1235.6511436178
 20
481.5448134034
 30
0.0
 40
0.9999999999997726
  0
LINE
  5
220
  8
0
  6
CONTINUOUS
 62
     7
 10
1192.1511453001
 20
485.5106141739
 30
0.0
 11
1192.1511453001
 21
477.5790091925
 31
0.0
  0
LINE
  5
221
  8
0
  6
CONTINUOUS
 62
     7
 10
1250.1511436312
 20
477.5790091925
 30
0.0
 11
1250.1511436312
 21
485.5106141739
 31
0.0
  0
LINE
  5
222
  8
0
  6
CONTINUOUS
 62
     7
 10
1250.1511436312
 20
677.5789972716
 30
0.0
 11
1250.1511436312
 21
685.579013484
 31
0.0
  0
LINE
  5
223
  8
0
  6
CONTINUOUS
 62
     7
 10
1250.1511436312
 20
517.5790082984
 30
0.0
 11
1250.1511436312
 21
525.5790096097
 31
0.0
  0
LINE
  5
224
  8
0
  6
CONTINUOUS
 62
     7
 10
1250.1511436312
 20
637.5790056162
 30
0.0
 11
1250.1511436312
 21
645.5790069275
 31
0.0
  0
LINE
  5
225
  8
0
  6
CONTINUOUS
 62
     7
 10
600.0230770914
 20
1171.5211388045
 30
0.0
 11
600.0230770914
 21
679.5211252146
 31
0.0
  0
LINE
  5
226
  8
0
  6
CONTINUOUS
 62
     7
 10
600.0230770914
 20
679.5211252146
 30
0.0
 11
612.0230716078
 21
679.5211252146
 31
0.0
  0
LINE
  5
227
  8
0
  6
CONTINUOUS
 62
     7
 10
612.0230716078
 20
675.5211171084
 30
0.0
 11
612.0230716078
 21
679.5211252146
 31
0.0
  0
LINE
  5
228
  8
0
  6
CONTINUOUS
 62
     7
 10
612.0230716078
 20
1171.5211388045
 30
0.0
 11
612.0230716078
 21
1175.5210873061
 31
0.0
  0
LINE
  5
229
  8
0
  6
CONTINUOUS
 62
     7
 10
612.0230716078
 20
1171.5211388045
 30
0.0
 11
600.0230770914
 21
1171.5211388045
 31
0.0
  0
LINE
  5
22A
  8
0
  6
CONTINUOUS
 62
     7
 10
592.0230608789
 20
675.5211171084
 30
0.0
 11
612.0230716078
 21
675.5211171084
 31
0.0
  0
LINE
  5
22B
  8
0
  6
CONTINUOUS
 62
     7
 10
592.0230608789
 20
1175.5210873061
 30
0.0
 11
592.0230608789
 21
675.5211171084
 31
0.0
  0
LINE
  5
22C
  8
0
  6
CONTINUOUS
 62
     7
 10
612.0230716078
 20
1175.5210873061
 30
0.0
 11
592.0230608789
 21
1175.5210873061
 31
0.0
  0
LINE
  5
22D
  8
0
  6
CONTINUOUS
 62
     7
 10
612.0230716078
 20
679.5211252146
 30
0.0
 11
612.0230716078
 21
1171.5211388045
 31
0.0
  0
LINE
  5
22E
  8
0
  6
CONTINUOUS
 62
     7
 10
1388.1451052038
 20
1140.8186670714
 30
0.0
 11
1388.1451052038
 21
1146.6973539763
 31
0.0
  0
LINE
  5
22F
  8
0
  6
CONTINUOUS
 62
     7
 10
1386.0237758962
 20
1148.8186832838
 30
0.0
 11
1285.0818794577
 21
1148.8186832838
 31
0.0
  0
ARC
  5
230
  8
0
  6
CONTINUOUS
 62
     7
 10
1122.6888294664
 20
1147.7580048564
 30
0.0
 40
1.500000000000093
 50
45.0
 51
225.0
  0
LINE
  5
231
  8
0
  6
CONTINUOUS
 62
     7
 10
1121.6281701235
 20
1140.8186670714
 30
0.0
 11
1071.6281693785
 21
1140.8186670714
 31
0.0
  0
LINE
  5
232
  8
0
  6
CONTINUOUS
 62
     7
 10
1071.6281693785
 20
1140.8186670714
 30
0.0
 11
1071.6281693785
 21
1146.6973539763
 31
0.0
  0
ARC
  5
233
  8
0
  6
CONTINUOUS
 62
     7
 10
955.3829617907
 20
1147.7580048564
 30
0.0
 40
1.500000000000012
 50
315.0
 51
135.0
  0
LINE
  5
234
  8
0
  6
CONTINUOUS
 62
     7
 10
935.2943610756
 20
1148.8186832838
 30
0.0
 11
935.2943610756
 21
1157.8186866217
 31
0.0
  0
ARC
  5
235
  8
0
  6
CONTINUOUS
 62
     7
 10
1387.0844502595
 20
1147.7580048564
 30
0.0
 40
1.500000000000093
 50
315.0
 51
135.0
  0
LINE
  5
236
  8
0
  6
CONTINUOUS
 62
     7
 10
1282.9605650513
 20
1140.8186670714
 30
0.0
 11
1232.9605680315
 21
1140.8186670714
 31
0.0
  0
LINE
  5
237
  8
0
  6
CONTINUOUS
 62
     7
 10
966.4436217753
 20
1140.8186670714
 30
0.0
 11
956.4436238615
 21
1140.8186670714
 31
0.0
  0
LINE
  5
238
  8
0
  6
CONTINUOUS
 62
     7
 10
1069.5068493841
 20
1148.8186832838
 30
0.0
 11
968.5649436323
 21
1148.8186832838
 31
0.0
  0
LINE
  5
239
  8
0
  6
CONTINUOUS
 62
     7
 10
1398.1450956671
 20
1140.8186670714
 30
0.0
 11
1388.1451052038
 21
1140.8186670714
 31
0.0
  0
ARC
  5
23A
  8
0
  6
CONTINUOUS
 62
     7
 10
1231.8999029273
 20
1147.7580048564
 30
0.0
 40
1.500000000000093
 50
315.0
 51
135.0
  0
ARC
  5
23B
  8
0
  6
CONTINUOUS
 62
     7
 10
1070.5675091229
 20
1147.7580048564
 30
0.0
 40
1.499999999999932
 50
315.0
 51
135.0
  0
LINE
  5
23C
  8
0
  6
CONTINUOUS
 62
     7
 10
1230.8392387239
 20
1148.8186832838
 30
0.0
 11
1123.7494882552
 21
1148.8186832838
 31
0.0
  0
LINE
  5
23D
  8
0
  6
CONTINUOUS
 62
     7
 10
1282.9605650513
 20
1146.6973539763
 30
0.0
 11
1282.9605650513
 21
1140.8186670714
 31
0.0
  0
LINE
  5
23E
  8
0
  6
CONTINUOUS
 62
     7
 10
1232.9605680315
 20
1140.8186670714
 30
0.0
 11
1232.9605680315
 21
1146.6973539763
 31
0.0
  0
LINE
  5
23F
  8
0
  6
CONTINUOUS
 62
     7
 10
954.3223020045
 20
1148.8186832838
 30
0.0
 11
935.2943610756
 21
1148.8186832838
 31
0.0
  0
LINE
  5
240
  8
0
  6
CONTINUOUS
 62
     7
 10
966.4436217753
 20
1146.6973539763
 30
0.0
 11
966.4436217753
 21
1140.8186670714
 31
0.0
  0
LINE
  5
241
  8
0
  6
CONTINUOUS
 62
     7
 10
1121.6281701235
 20
1146.6973539763
 30
0.0
 11
1121.6281701235
 21
1140.8186670714
 31
0.0
  0
LINE
  5
242
  8
0
  6
CONTINUOUS
 62
     7
 10
935.2943610756
 20
1157.8186866217
 30
0.0
 11
1419.2943733541
 21
1157.8186866217
 31
0.0
  0
LINE
  5
243
  8
0
  6
CONTINUOUS
 62
     7
 10
1398.1450956671
 20
1146.6973539763
 30
0.0
 11
1398.1450956671
 21
1140.8186670714
 31
0.0
  0
LINE
  5
244
  8
0
  6
CONTINUOUS
 62
     7
 10
956.4436238615
 20
1140.8186670714
 30
0.0
 11
956.4436238615
 21
1146.6973539763
 31
0.0
  0
LINE
  5
245
  8
0
  6
CONTINUOUS
 62
     7
 10
1419.2943733541
 20
1157.8186866217
 30
0.0
 11
1419.2943733541
 21
1148.8186832838
 31
0.0
  0
ARC
  5
246
  8
0
  6
CONTINUOUS
 62
     7
 10
967.5042821342
 20
1147.7580048564
 30
0.0
 40
1.500000000000012
 50
45.0
 51
225.0
  0
ARC
  5
247
  8
0
  6
CONTINUOUS
 62
     7
 10
1284.0212232709
 20
1147.7580048564
 30
0.0
 40
1.499999999999932
 50
45.0
 51
225.0
  0
LINE
  5
248
  8
0
  6
CONTINUOUS
 62
     7
 10
1419.2943733541
 20
1148.8186832838
 30
0.0
 11
1400.2664249746
 21
1148.8186832838
 31
0.0
  0
ARC
  5
249
  8
0
  6
CONTINUOUS
 62
     7
 10
1399.2057706031
 20
1147.7580048564
 30
0.0
 40
1.499999999999932
 50
45.0
 51
225.0
  0
LINE
  5
24A
  8
0
  6
CONTINUOUS
 62
     7
 10
578.0748289434
 20
347.5488987141
 30
0.0
 11
578.0748289434
 21
292.5488990121
 31
0.0
  0
ARC
  5
24B
  8
0
  6
CONTINUOUS
 62
     7
 10
-77.3418447805
 20
247.5488982517
 30
0.0
 40
670.416666666667
 50
351.4216933424
 51
8.5783066576
  0
LINE
  5
24C
  8
0
  6
CONTINUOUS
 62
     7
 10
578.0748289434
 20
147.5488957339
 30
0.0
 11
585.5748217909
 21
147.5488957339
 31
0.0
  0
LINE
  5
24D
  8
0
  6
CONTINUOUS
 62
     7
 10
585.5748217909
 20
347.5488987141
 30
0.0
 11
578.0748289434
 21
347.5488987141
 31
0.0
  0
ARC
  5
24E
  8
0
  6
CONTINUOUS
 62
     7
 10
446.8248218861
 20
247.5488982517
 30
0.0
 40
138.75
 50
341.0753555839
 51
18.9246444161
  0
LINE
  5
24F
  8
0
  6
CONTINUOUS
 62
     7
 10
578.0748289434
 20
202.5489028864
 30
0.0
 11
578.0748289434
 21
147.5488957339
 31
0.0
  0
LINE
  5
250
  8
0
  6
CONTINUOUS
 62
     7
 10
809.5830839483
 20
1125.753652709
 30
0.0
 11
809.5830839483
 21
633.7536391192
 31
0.0
  0
LINE
  5
251
  8
0
  6
CONTINUOUS
 62
     7
 10
809.5830839483
 20
633.7536391192
 30
0.0
 11
624.5830815641
 21
633.7536391192
 31
0.0
  0
LINE
  5
252
  8
0
  6
CONTINUOUS
 62
     7
 10
624.5830815641
 20
633.7536391192
 30
0.0
 11
624.5830815641
 21
1125.753652709
 31
0.0
  0
LINE
  5
253
  8
0
  6
CONTINUOUS
 62
     7
 10
624.5830815641
 20
1125.753652709
 30
0.0
 11
809.5830839483
 21
1125.753652709
 31
0.0
  0
LINE
  5
254
  8
0
  6
CONTINUOUS
 62
     7
 10
1304.5676213114
 20
378.4374039941
 30
0.0
 11
1304.5676213114
 21
367.8355072015
 31
0.0
  0
ARC
  5
255
  8
0
  6
CONTINUOUS
 62
     7
 10
1250.0676207022
 20
90.3238028731
 30
0.0
 40
282.8126529351749
 50
78.8891914927
 51
101.1108085073
  0
LINE
  5
256
  8
0
  6
CONTINUOUS
 62
     7
 10
1195.567623934
 20
367.8355072015
 30
0.0
 11
1195.567623934
 21
378.4374039941
 31
0.0
  0
LINE
  5
257
  8
0
  6
CONTINUOUS
 62
     7
 10
1195.567623934
 20
378.4374039941
 30
0.0
 11
1187.5676226227
 21
378.4374039941
 31
0.0
  0
LINE
  5
258
  8
0
  6
CONTINUOUS
 62
     7
 10
1187.5676226227
 20
378.4374039941
 30
0.0
 11
1187.5676226227
 21
396.8355082297
 31
0.0
  0
ARC
  5
259
  8
0
  6
CONTINUOUS
 62
     7
 10
1250.067625386
 20
554.3354708498
 30
0.0
 40
162.4999625294786
 50
255.7499656507
 51
284.2500343493
  0
LINE
  5
25A
  8
0
  6
CONTINUOUS
 62
     7
 10
1290.067614278
 20
396.8355082297
 30
0.0
 11
1312.5676226227
 21
396.8355082297
 31
0.0
  0
LINE
  5
25B
  8
0
  6
CONTINUOUS
 62
     7
 10
1312.5676226227
 20
378.4374039941
 30
0.0
 11
1304.5676213114
 21
378.4374039941
 31
0.0
  0
LINE
  5
25C
  8
0
  6
CONTINUOUS
 62
     7
 10
1187.5676226227
 20
396.8355082297
 30
0.0
 11
1210.0676309673
 21
396.8355082297
 31
0.0
  0
LINE
  5
25D
  8
0
  6
CONTINUOUS
 62
     7
 10
1312.5676226227
 20
396.8355082297
 30
0.0
 11
1312.5676226227
 21
378.4374039941
 31
0.0
  0
LINE
  5
25E
  8
0
  6
CONTINUOUS
 62
     7
 10
282.0672255365
 20
314.7854995304
 30
0.0
 11
285.5486136286
 21
314.7854995304
 31
0.0
  0
LINE
  5
25F
  8
0
  6
CONTINUOUS
 62
     7
 10
285.5486136286
 20
314.7854995304
 30
0.0
 11
285.5486136286
 21
36.2320956164
 31
0.0
  0
LINE
  5
260
  8
0
  6
CONTINUOUS
 62
     7
 10
285.5486136286
 20
36.2320956164
 30
0.0
 11
79.5486431925
 21
36.2320956164
 31
0.0
  0
LINE
  5
261
  8
0
  6
CONTINUOUS
 62
     7
 10
79.5486431925
 20
36.2320956164
 30
0.0
 11
79.5486431925
 21
314.7854995304
 31
0.0
  0
LINE
  5
262
  8
0
  6
CONTINUOUS
 62
     7
 10
86.7847066728
 20
314.7854995304
 30
0.0
 11
277.595089039
 21
314.7854995304
 31
0.0
  0
LINE
  5
263
  8
0
  6
CONTINUOUS
 62
     7
 10
89.5486336557
 20
302.6641797595
 30
0.0
 11
89.5486336557
 21
48.3076688223
 31
0.0
  0
ARC
  5
264
  8
0
  6
CONTINUOUS
 62
     7
 10
90.7625161426
 20
47.4265028651
 30
0.0
 40
1.500000000000018
 50
144.0240174304
 51
307.2252619417
  0
CIRCLE
  5
265
  8
0
  6
CONTINUOUS
 62
     7
 10
254.2355481565
 20
41.2321079595
 30
0.0
 40
1.0
  0
ARC
  5
266
  8
0
  6
CONTINUOUS
 62
     7
 10
84.5486211731
 20
316.7854985495
 30
0.0
 40
2.999999999999976
 50
221.8103148958
 51
318.1896851042
  0
ARC
  5
267
  8
0
  6
CONTINUOUS
 62
     7
 10
279.8311304792
 20
316.7854985495
 30
0.0
 40
2.999999999999996
 50
221.8103148958
 51
318.1896851042
  0
LINE
  5
268
  8
0
  6
CONTINUOUS
 62
     7
 10
79.5486431925
 20
314.7854995304
 30
0.0
 11
82.3125701753
 21
314.7854995304
 31
0.0
  0
CIRCLE
  5
269
  8
0
  6
CONTINUOUS
 62
     7
 10
109.2355481565
 20
41.2321079595
 30
0.0
 40
1.000000000000014
  0
LINE
  5
26A
  8
0
  6
CONTINUOUS
 62
     7
 10
91.6699629633
 20
46.232115882
 30
0.0
 11
253.4273129312
 21
46.232115882
 31
0.0
  0
ARC
  5
26B
  8
0
  6
CONTINUOUS
 62
     7
 10
254.3347262036
 20
47.4265028651
 30
0.0
 40
1.500000000000018
 50
232.7747380583
 51
35.9759825696
  0
LINE
  5
26C
  8
0
  6
CONTINUOUS
 62
     7
 10
255.5486422388
 20
48.3076688223
 30
0.0
 11
255.5486422388
 21
302.6641797595
 31
0.0
  0
ARC
  5
26D
  8
0
  6
CONTINUOUS
 62
     7
 10
254.4879610013
 20
303.7248383778
 30
0.0
 40
1.500000000000072
 50
315.0
 51
135.0
  0
LINE
  5
26E
  8
0
  6
CONTINUOUS
 62
     7
 10
253.4273129312
 20
304.7855016165
 30
0.0
 11
91.6699629633
 21
304.7855016165
 31
0.0
  0
ARC
  5
26F
  8
0
  6
CONTINUOUS
 62
     7
 10
90.6092813449
 20
303.7248383778
 30
0.0
 40
1.499999999999992
 50
45.0
 51
225.0
  0
LINE
  5
270
  8
0
  6
CONTINUOUS
 62
     7
 10
250.5486470072
 20
299.7854989343
 30
0.0
 11
250.5486470072
 21
51.2321111136
 31
0.0
  0
LINE
  5
271
  8
0
  6
CONTINUOUS
 62
     7
 10
94.5486288874
 20
299.7854989343
 30
0.0
 11
250.5486470072
 21
299.7854989343
 31
0.0
  0
LINE
  5
272
  8
0
  6
CONTINUOUS
 62
     7
 10
250.5486470072
 20
51.2321111136
 30
0.0
 11
94.5486288874
 21
51.2321111136
 31
0.0
  0
LINE
  5
273
  8
0
  6
CONTINUOUS
 62
     7
 10
94.5486288874
 20
51.2321111136
 30
0.0
 11
94.5486288874
 21
299.7854989343
 31
0.0
  0
CIRCLE
  5
274
  8
0
  6
CONTINUOUS
 62
     7
 10
84.5486211731
 20
316.7854985495
 30
0.0
 40
1.499999999999943
  0
CIRCLE
  5
275
  8
0
  6
CONTINUOUS
 62
     7
 10
279.8311304792
 20
316.7854985495
 30
0.0
 40
1.499999999999943
  0
LINE
  5
276
  8
0
  6
CONTINUOUS
 62
     7
 10
74.5485883562
 20
31.2321003848
 30
0.0
 11
74.5485883562
 21
321.7854988151
 31
0.0
  0
LINE
  5
277
  8
0
  6
CONTINUOUS
 62
     7
 10
74.5485883562
 20
321.7854988151
 30
0.0
 11
290.5486088602
 21
321.7854988151
 31
0.0
  0
LINE
  5
278
  8
0
  6
CONTINUOUS
 62
     7
 10
290.5486088602
 20
321.7854988151
 30
0.0
 11
290.5486088602
 21
31.2321003848
 31
0.0
  0
LINE
  5
279
  8
0
  6
CONTINUOUS
 62
     7
 10
290.5486088602
 20
31.2321003848
 30
0.0
 11
74.5485883562
 21
31.2321003848
 31
0.0
  0
CIRCLE
  5
27A
  8
0
  6
CONTINUOUS
 62
     7
 10
1419.0743503368
 20
1078.6922378942
 30
0.0
 40
1.549999999999955
  0
ARC
  5
27B
  8
0
  6
CONTINUOUS
 62
     7
 10
1416.1350105085
 20
1099.752898066
 30
0.0
 40
1.500000000000253
 50
135.0
 51
315.0
  0
LINE
  5
27C
  8
0
  6
CONTINUOUS
 62
     7
 10
1423.0743509142
 20
1098.6922499113
 30
0.0
 11
1417.1956640093
 21
1098.6922499113
 31
0.0
  0
LINE
  5
27D
  8
0
  6
CONTINUOUS
 62
     7
 10
1423.0743509142
 20
1058.6922284537
 30
0.0
 11
1423.0743509142
 21
1098.6922499113
 31
0.0
  0
LINE
  5
27E
  8
0
  6
CONTINUOUS
 62
     7
 10
1417.1956640093
 20
1058.6922284537
 30
0.0
 11
1423.0743509142
 21
1058.6922284537
 31
0.0
  0
ARC
  5
27F
  8
0
  6
CONTINUOUS
 62
     7
 10
1416.1350105085
 20
1057.6315777224
 30
0.0
 40
1.499999999999932
 50
45.0
 51
225.0
  0
LINE
  5
280
  8
0
  6
CONTINUOUS
 62
     7
 10
931.0743522255
 20
1056.5708991461
 30
0.0
 11
931.0743522255
 21
1028.6922570639
 31
0.0
  0
ARC
  5
281
  8
0
  6
CONTINUOUS
 62
     7
 10
930.013690165
 20
1057.6315777224
 30
0.0
 40
1.500000000000173
 50
315.0
 51
135.0
  0
LINE
  5
282
  8
0
  6
CONTINUOUS
 62
     7
 10
923.0743509142
 20
1058.6922284537
 30
0.0
 11
928.9530229179
 21
1058.6922284537
 31
0.0
  0
LINE
  5
283
  8
0
  6
CONTINUOUS
 62
     7
 10
923.0743509142
 20
1098.6922499113
 30
0.0
 11
923.0743509142
 21
1058.6922284537
 31
0.0
  0
LINE
  5
284
  8
0
  6
CONTINUOUS
 62
     7
 10
928.9530229179
 20
1098.6922499113
 30
0.0
 11
923.0743509142
 21
1098.6922499113
 31
0.0
  0
ARC
  5
285
  8
0
  6
CONTINUOUS
 62
     7
 10
930.013690165
 20
1099.752898066
 30
0.0
 40
1.500000000000093
 50
225.0
 51
45.0
  0
LINE
  5
286
  8
0
  6
CONTINUOUS
 62
     7
 10
931.0743522255
 20
1116.6922565871
 30
0.0
 11
931.0743522255
 21
1100.8135792189
 31
0.0
  0
LINE
  5
287
  8
0
  6
CONTINUOUS
 62
     7
 10
931.0743522255
 20
1116.6922565871
 30
0.0
 11
1415.074364504
 21
1116.6922565871
 31
0.0
  0
LINE
  5
288
  8
0
  6
CONTINUOUS
 62
     7
 10
1415.074364504
 20
1100.8135792189
 30
0.0
 11
1415.074364504
 21
1116.6922565871
 31
0.0
  0
CIRCLE
  5
289
  8
0
  6
CONTINUOUS
 62
     7
 10
927.0743503368
 20
1078.6922378942
 30
0.0
 40
1.549999999999955
  0
CIRCLE
  5
28A
  8
0
  6
CONTINUOUS
 62
     7
 10
1075.9867383154
 20
1078.1922378942
 30
0.0
 40
7.5
  0
LINE
  5
28B
  8
0
  6
CONTINUOUS
 62
     7
 10
950.0743460266
 20
1107.9922434264
 30
0.0
 11
950.0743460266
 21
1047.3922606879
 31
0.0
  0
LINE
  5
28C
  8
0
  6
CONTINUOUS
 62
     7
 10
950.0743460266
 20
1047.3922606879
 30
0.0
 11
1051.0743495433
 21
1047.3922606879
 31
0.0
  0
LINE
  5
28D
  8
0
  6
CONTINUOUS
 62
     7
 10
1051.0743495433
 20
1047.3922606879
 30
0.0
 11
1051.0743495433
 21
1107.9922434264
 31
0.0
  0
LINE
  5
28E
  8
0
  6
CONTINUOUS
 62
     7
 10
1051.0743495433
 20
1107.9922434264
 30
0.0
 11
950.0743460266
 21
1107.9922434264
 31
0.0
  0
CIRCLE
  5
28F
  8
0
  6
CONTINUOUS
 62
     7
 10
1067.0743503368
 20
1067.1922378942
 30
0.0
 40
0.9999999999997726
  0
CIRCLE
  5
290
  8
0
  6
CONTINUOUS
 62
     7
 10
1067.0743503368
 20
1089.1922378942
 30
0.0
 40
1.000000000000227
  0
CIRCLE
  5
291
  8
0
  6
CONTINUOUS
 62
     7
 10
1126.0749103368
 20
1093.6921378942
 30
0.0
 40
0.9999999999997726
  0
CIRCLE
  5
292
  8
0
  6
CONTINUOUS
 62
     7
 10
1148.0738503368
 20
1093.6921378942
 30
0.0
 40
0.9999999999997726
  0
CIRCLE
  5
293
  8
0
  6
CONTINUOUS
 62
     7
 10
1126.0749103368
 20
1047.6927378942
 30
0.0
 40
0.9999999999997726
  0
CIRCLE
  5
294
  8
0
  6
CONTINUOUS
 62
     7
 10
1148.0738503368
 20
1047.6927378942
 30
0.0
 40
0.9999999999997726
  0
CIRCLE
  5
295
  8
0
  6
CONTINUOUS
 62
     7
 10
1113.0743503368
 20
1089.1922378942
 30
0.0
 40
1.000000000000227
  0
CIRCLE
  5
296
  8
0
  6
CONTINUOUS
 62
     7
 10
1113.0743503368
 20
1067.1922378942
 30
0.0
 40
0.9999999999997726
  0
LINE
  5
297
  8
0
  6
CONTINUOUS
 62
     7
 10
931.0743522255
 20
1028.6922570639
 30
0.0
 11
1415.074364504
 21
1028.6922570639
 31
0.0
  0
LINE
  5
298
  8
0
  6
CONTINUOUS
 62
     7
 10
1415.074364504
 20
1028.6922570639
 30
0.0
 11
1415.074364504
 21
1056.5708991461
 31
0.0
  0
LINE
  5
299
  8
0
  6
CONTINUOUS
 62
     7
 10
1415.074364504
 20
1128.6922213011
 30
0.0
 11
931.0743522255
 21
1128.6922213011
 31
0.0
  0
LINE
  5
29A
  8
0
  6
CONTINUOUS
 62
     7
 10
931.0743522255
 20
1128.6922213011
 30
0.0
 11
931.0743522255
 21
1116.6922565871
 31
0.0
  0
LINE
  5
29B
  8
0
  6
CONTINUOUS
 62
     7
 10
1415.074364504
 20
1116.6922565871
 30
0.0
 11
1415.074364504
 21
1128.6922213011
 31
0.0
  0
LINE
  5
29C
  8
0
  6
CONTINUOUS
 62
     7
 10
1045.1752107946
 20
1061.6922494345
 30
0.0
 11
955.9734847752
 21
1061.6922494345
 31
0.0
  0
ARC
  5
29D
  8
0
  6
CONTINUOUS
 62
     7
 10
1046.6247814353
 20
1063.1418067957
 30
0.0
 40
2.050000000000089
 50
225.0
 51
45.0
  0
LINE
  5
29E
  8
0
  6
CONTINUOUS
 62
     7
 10
1048.0743509142
 20
1091.7930718832
 30
0.0
 11
1048.0743509142
 21
1064.5913597517
 31
0.0
  0
ARC
  5
29F
  8
0
  6
CONTINUOUS
 62
     7
 10
1046.6247814353
 20
1093.2426689928
 30
0.0
 40
2.050000000000089
 50
315.0
 51
135.0
  0
LINE
  5
2A0
  8
0
  6
CONTINUOUS
 62
     7
 10
955.9734847752
 20
1094.6922418051
 30
0.0
 11
1045.1752107946
 21
1094.6922418051
 31
0.0
  0
ARC
  5
2A1
  8
0
  6
CONTINUOUS
 62
     7
 10
954.5239192382
 20
1093.2426689928
 30
0.0
 40
2.050000000000089
 50
45.0
 51
225.0
  0
LINE
  5
2A2
  8
0
  6
CONTINUOUS
 62
     7
 10
953.0743521063
 20
1064.5913597517
 30
0.0
 11
953.0743521063
 21
1091.7930718832
 31
0.0
  0
ARC
  5
2A3
  8
0
  6
CONTINUOUS
 62
     7
 10
954.5239192382
 20
1063.1418067957
 30
0.0
 40
2.050000000000089
 50
135.0
 51
315.0
  0
ARC
  5
2A4
  8
0
  6
CONTINUOUS
 62
     7
 10
143.3782500675
 20
342.8274195319
 30
0.0
 40
1.499999999999978
 50
56.1048628578
 51
215.7432424154
  0
LINE
  5
2A5
  8
0
  6
CONTINUOUS
 62
     7
 10
142.1607595293
 20
341.9511881047
 30
0.0
 11
142.1607595293
 21
336.0725086503
 31
0.0
  0
LINE
  5
2A6
  8
0
  6
CONTINUOUS
 62
     7
 10
142.1607595293
 20
336.0725086503
 30
0.0
 11
92.160807213
 21
336.0725086503
 31
0.0
  0
LINE
  5
2A7
  8
0
  6
CONTINUOUS
 62
     7
 10
92.160807213
 20
336.0725086503
 30
0.0
 11
92.160807213
 21
341.9511881047
 31
0.0
  0
ARC
  5
2A8
  8
0
  6
CONTINUOUS
 62
     7
 10
91.0664535571
 20
343.0118487894
 30
0.0
 40
1.523995711958584
 50
315.895180546
 51
135.895180546
  0
LINE
  5
2A9
  8
0
  6
CONTINUOUS
 62
     7
 10
89.9721246569
 20
344.0725099616
 30
0.0
 11
72.1608262865
 21
344.0725099616
 31
0.0
  0
LINE
  5
2AA
  8
0
  6
CONTINUOUS
 62
     7
 10
72.1608262865
 20
344.0725099616
 30
0.0
 11
72.1608262865
 21
361.9511876576
 31
0.0
  0
ARC
  5
2AB
  8
0
  6
CONTINUOUS
 62
     7
 10
71.1001255698
 20
363.0118487894
 30
0.0
 40
1.499999999999962
 50
315.0
 51
135.0
  0
LINE
  5
2AC
  8
0
  6
CONTINUOUS
 62
     7
 10
70.0394969789
 20
364.0725095146
 30
0.0
 11
64.160810074
 21
364.0725095146
 31
0.0
  0
LINE
  5
2AD
  8
0
  6
CONTINUOUS
 62
     7
 10
64.160810074
 20
364.0725095146
 30
0.0
 11
64.160810074
 21
414.07250895
 31
0.0
  0
LINE
  5
2AE
  8
0
  6
CONTINUOUS
 62
     7
 10
64.160810074
 20
414.07250895
 30
0.0
 11
70.0394969789
 21
414.07250895
 31
0.0
  0
ARC
  5
2AF
  8
0
  6
CONTINUOUS
 62
     7
 10
71.1001255698
 20
415.133169133
 30
0.0
 40
1.499999999999962
 50
225.0
 51
45.0
  0
LINE
  5
2B0
  8
0
  6
CONTINUOUS
 62
     7
 10
72.1608262865
 20
416.1938293227
 30
0.0
 11
72.1608262865
 21
542.0231040888
 31
0.0
  0
ARC
  5
2B1
  8
0
  6
CONTINUOUS
 62
     7
 10
71.0327815444
 20
543.0118487894
 30
0.0
 40
1.500000000000143
 50
318.7641655487
 51
135.0
  0
LINE
  5
2B2
  8
0
  6
CONTINUOUS
 62
     7
 10
69.9721437303
 20
544.0725054913
 30
0.0
 11
64.160810074
 21
544.0725054913
 31
0.0
  0
LINE
  5
2B3
  8
0
  6
CONTINUOUS
 62
     7
 10
64.160810074
 20
544.0725054913
 30
0.0
 11
64.160810074
 21
594.0725025111
 31
0.0
  0
LINE
  5
2B4
  8
0
  6
CONTINUOUS
 62
     7
 10
64.160810074
 20
594.0725025111
 30
0.0
 11
69.9721437303
 21
594.0725025111
 31
0.0
  0
ARC
  5
2B5
  8
0
  6
CONTINUOUS
 62
     7
 10
71.0327815444
 20
595.133169133
 30
0.0
 40
1.50000000000006
 50
225.0
 51
41.2358344513
  0
LINE
  5
2B6
  8
0
  6
CONTINUOUS
 62
     7
 10
72.1608262865
 20
596.1219039135
 30
0.0
 11
72.1608262865
 21
614.0725132399
 31
0.0
  0
LINE
  5
2B7
  8
0
  6
CONTINUOUS
 62
     7
 10
72.1608262865
 20
614.0725132399
 30
0.0
 11
92.160807213
 21
614.0725132399
 31
0.0
  0
LINE
  5
2B8
  8
0
  6
CONTINUOUS
 62
     7
 10
92.160807213
 20
614.0725132399
 30
0.0
 11
92.160807213
 21
608.193826335
 31
0.0
  0
ARC
  5
2B9
  8
0
  6
CONTINUOUS
 62
     7
 10
93.3782500675
 20
607.3175983905
 30
0.0
 40
1.499999999999997
 50
144.2567575846
 51
303.8951371422
  0
LINE
  5
2BA
  8
0
  6
CONTINUOUS
 62
     7
 10
94.214783272
 20
606.0725119286
 30
0.0
 11
139.9721365778
 21
606.0725119286
 31
0.0
  0
ARC
  5
2BB
  8
0
  6
CONTINUOUS
 62
     7
 10
141.0327815444
 20
607.133169133
 30
0.0
 40
1.500000000000012
 50
225.0
 51
45.0
  0
LINE
  5
2BC
  8
0
  6
CONTINUOUS
 62
     7
 10
142.0934658853
 20
608.193826335
 30
0.0
 11
142.0934658853
 21
614.0725132399
 31
0.0
  0
LINE
  5
2BD
  8
0
  6
CONTINUOUS
 62
     7
 10
142.0934658853
 20
614.0725132399
 30
0.0
 11
162.1608000604
 21
614.0725132399
 31
0.0
  0
LINE
  5
2BE
  8
0
  6
CONTINUOUS
 62
     7
 10
162.1608000604
 20
614.0725132399
 30
0.0
 11
162.1608000604
 21
344.0725099616
 31
0.0
  0
ARC
  5
2BF
  8
0
  6
CONTINUOUS
 62
     7
 10
142.1607857416
 20
376.0725089612
 30
0.0
 40
7.5
 50
270.0
 51
90.0
  0
LINE
  5
2C0
  8
0
  6
CONTINUOUS
 62
     7
 10
92.160807213
 20
383.5725080543
 30
0.0
 11
142.1607595293
 21
383.5725080543
 31
0.0
  0
ARC
  5
2C1
  8
0
  6
CONTINUOUS
 62
     7
 10
92.1607857416
 20
376.0725089612
 30
0.0
 40
7.5
 50
90.0
 51
270.0
  0
LINE
  5
2C2
  8
0
  6
CONTINUOUS
 62
     7
 10
142.1607595293
 20
368.5725074582
 30
0.0
 11
92.160807213
 21
368.5725074582
 31
0.0
  0
ARC
  5
2C3
  8
0
  6
CONTINUOUS
 62
     7
 10
132.2431088862
 20
561.3105222424
 30
0.0
 40
7.499999999999897
 50
269.9542141164
 51
89.9542141164
  0
LINE
  5
2C4
  8
0
  6
CONTINUOUS
 62
     7
 10
102.2491317598
 20
568.834495204
 30
0.0
 11
132.2491031496
 21
568.8105192356
 31
0.0
  0
ARC
  5
2C5
  8
0
  6
CONTINUOUS
 62
     7
 10
102.2431088862
 20
561.3344956801
 30
0.0
 40
7.499999999999897
 50
89.9542141164
 51
269.9542141164
  0
LINE
  5
2C6
  8
0
  6
CONTINUOUS
 62
     7
 10
132.237122616
 20
553.8105186396
 30
0.0
 11
102.2370916216
 21
553.834494608
 31
0.0
  0
LINE
  5
2C7
  8
0
  6
CONTINUOUS
 62
     7
 10
162.1608000604
 20
344.0725099616
 30
0.0
 11
144.2147355883
 21
344.0725099616
 31
0.0
  0
LINE
  5
2C8
  8
0
  6
CONTINUOUS
 62
     7
 10
507.6487522928
 20
487.9896905594
 30
0.0
 11
505.1919680445
 21
481.239688056
 31
0.0
  0
LINE
  5
2C9
  8
0
  6
CONTINUOUS
 62
     7
 10
510.1773005335
 20
487.9896905594
 30
0.0
 11
507.6487522928
 21
487.9896905594
 31
0.0
  0
LINE
  5
2CA
  8
0
  6
CONTINUOUS
 62
     7
 10
512.6341443865
 20
481.239688056
 30
0.0
 11
510.1773005335
 21
487.9896905594
 31
0.0
  0
LINE
  5
2CB
  8
0
  6
CONTINUOUS
 62
     7
 10
514.616714081
 20
481.239688056
 30
0.0
 11
512.6341443865
 21
481.239688056
 31
0.0
  0
LINE
  5
2CC
  8
0
  6
CONTINUOUS
 62
     7
 10
517.073557934
 20
487.9896905594
 30
0.0
 11
514.616714081
 21
481.239688056
 31
0.0
  0
LINE
  5
2CD
  8
0
  6
CONTINUOUS
 62
     7
 10
519.6021061746
 20
487.9896905594
 30
0.0
 11
517.073557934
 21
487.9896905594
 31
0.0
  0
LINE
  5
2CE
  8
0
  6
CONTINUOUS
 62
     7
 10
522.058890423
 20
481.239688056
 30
0.0
 11
519.6021061746
 21
487.9896905594
 31
0.0
  0
LINE
  5
2CF
  8
0
  6
CONTINUOUS
 62
     7
 10
524.0415197222
 20
481.239688056
 30
0.0
 11
522.058890423
 21
481.239688056
 31
0.0
  0
LINE
  5
2D0
  8
0
  6
CONTINUOUS
 62
     7
 10
526.4983039705
 20
487.9896905594
 30
0.0
 11
524.0415197222
 21
481.239688056
 31
0.0
  0
LINE
  5
2D1
  8
0
  6
CONTINUOUS
 62
     7
 10
529.0268522112
 20
487.9896905594
 30
0.0
 11
526.4983039705
 21
487.9896905594
 31
0.0
  0
LINE
  5
2D2
  8
0
  6
CONTINUOUS
 62
     7
 10
531.4836960642
 20
481.239688056
 30
0.0
 11
529.0268522112
 21
487.9896905594
 31
0.0
  0
LINE
  5
2D3
  8
0
  6
CONTINUOUS
 62
     7
 10
533.4662657587
 20
481.239688056
 30
0.0
 11
531.4836960642
 21
481.239688056
 31
0.0
  0
LINE
  5
2D4
  8
0
  6
CONTINUOUS
 62
     7
 10
535.9231096117
 20
487.9896905594
 30
0.0
 11
533.4662657587
 21
481.239688056
 31
0.0
  0
LINE
  5
2D5
  8
0
  6
CONTINUOUS
 62
     7
 10
538.4516578524
 20
487.9896905594
 30
0.0
 11
535.9231096117
 21
487.9896905594
 31
0.0
  0
LINE
  5
2D6
  8
0
  6
CONTINUOUS
 62
     7
 10
540.9084421007
 20
481.239688056
 30
0.0
 11
538.4516578524
 21
487.9896905594
 31
0.0
  0
LINE
  5
2D7
  8
0
  6
CONTINUOUS
 62
     7
 10
542.8910713999
 20
481.239688056
 30
0.0
 11
540.9084421007
 21
481.239688056
 31
0.0
  0
LINE
  5
2D8
  8
0
  6
CONTINUOUS
 62
     7
 10
545.3478556482
 20
487.9896905594
 30
0.0
 11
542.8910713999
 21
481.239688056
 31
0.0
  0
LINE
  5
2D9
  8
0
  6
CONTINUOUS
 62
     7
 10
547.8764634935
 20
487.9896905594
 30
0.0
 11
545.3478556482
 21
487.9896905594
 31
0.0
  0
LINE
  5
2DA
  8
0
  6
CONTINUOUS
 62
     7
 10
550.3332477419
 20
481.239688056
 30
0.0
 11
547.8764634935
 21
487.9896905594
 31
0.0
  0
LINE
  5
2DB
  8
0
  6
CONTINUOUS
 62
     7
 10
552.3158174364
 20
481.239688056
 30
0.0
 11
550.3332477419
 21
481.239688056
 31
0.0
  0
LINE
  5
2DC
  8
0
  6
CONTINUOUS
 62
     7
 10
554.7726612894
 20
487.9896905594
 30
0.0
 11
552.3158174364
 21
481.239688056
 31
0.0
  0
LINE
  5
2DD
  8
0
  6
CONTINUOUS
 62
     7
 10
557.3012095301
 20
487.9896905594
 30
0.0
 11
554.7726612894
 21
487.9896905594
 31
0.0
  0
LINE
  5
2DE
  8
0
  6
CONTINUOUS
 62
     7
 10
559.7579937784
 20
481.239688056
 30
0.0
 11
557.3012095301
 21
487.9896905594
 31
0.0
  0
LINE
  5
2DF
  8
0
  6
CONTINUOUS
 62
     7
 10
561.7406230776
 20
481.239688056
 30
0.0
 11
559.7579937784
 21
481.239688056
 31
0.0
  0
LINE
  5
2E0
  8
0
  6
CONTINUOUS
 62
     7
 10
564.1974073259
 20
487.9896905594
 30
0.0
 11
561.7406230776
 21
481.239688056
 31
0.0
  0
LINE
  5
2E1
  8
0
  6
CONTINUOUS
 62
     7
 10
566.7260151712
 20
487.9896905594
 30
0.0
 11
564.1974073259
 21
487.9896905594
 31
0.0
  0
LINE
  5
2E2
  8
0
  6
CONTINUOUS
 62
     7
 10
569.1827994196
 20
481.239688056
 30
0.0
 11
566.7260151712
 21
487.9896905594
 31
0.0
  0
LINE
  5
2E3
  8
0
  6
CONTINUOUS
 62
     7
 10
571.1654287187
 20
481.239688056
 30
0.0
 11
569.1827994196
 21
481.239688056
 31
0.0
  0
LINE
  5
2E4
  8
0
  6
CONTINUOUS
 62
     7
 10
573.6222129671
 20
487.9896905594
 30
0.0
 11
571.1654287187
 21
481.239688056
 31
0.0
  0
LINE
  5
2E5
  8
0
  6
CONTINUOUS
 62
     7
 10
576.1507612078
 20
487.9896905594
 30
0.0
 11
573.6222129671
 21
487.9896905594
 31
0.0
  0
LINE
  5
2E6
  8
0
  6
CONTINUOUS
 62
     7
 10
578.6075752584
 20
481.239688056
 30
0.0
 11
576.1507612078
 21
487.9896905594
 31
0.0
  0
LINE
  5
2E7
  8
0
  6
CONTINUOUS
 62
     7
 10
580.5901747553
 20
481.239688056
 30
0.0
 11
578.6075752584
 21
481.239688056
 31
0.0
  0
LINE
  5
2E8
  8
0
  6
CONTINUOUS
 62
     7
 10
583.0469888059
 20
487.9896905594
 30
0.0
 11
580.5901747553
 21
481.239688056
 31
0.0
  0
LINE
  5
2E9
  8
0
  6
CONTINUOUS
 62
     7
 10
585.5755370466
 20
487.9896905594
 30
0.0
 11
583.0469888059
 21
487.9896905594
 31
0.0
  0
LINE
  5
2EA
  8
0
  6
CONTINUOUS
 62
     7
 10
588.0323510973
 20
481.239688056
 30
0.0
 11
585.5755370466
 21
487.9896905594
 31
0.0
  0
LINE
  5
2EB
  8
0
  6
CONTINUOUS
 62
     7
 10
590.0149505941
 20
481.239688056
 30
0.0
 11
588.0323510973
 21
481.239688056
 31
0.0
  0
LINE
  5
2EC
  8
0
  6
CONTINUOUS
 62
     7
 10
592.4717646448
 20
487.9896905594
 30
0.0
 11
590.0149505941
 21
481.239688056
 31
0.0
  0
LINE
  5
2ED
  8
0
  6
CONTINUOUS
 62
     7
 10
595.0003128855
 20
487.9896905594
 30
0.0
 11
592.4717646448
 21
487.9896905594
 31
0.0
  0
LINE
  5
2EE
  8
0
  6
CONTINUOUS
 62
     7
 10
597.4571269361
 20
481.239688056
 30
0.0
 11
595.0003128855
 21
487.9896905594
 31
0.0
  0
LINE
  5
2EF
  8
0
  6
CONTINUOUS
 62
     7
 10
599.439726433
 20
481.239688056
 30
0.0
 11
597.4571269361
 21
481.239688056
 31
0.0
  0
LINE
  5
2F0
  8
0
  6
CONTINUOUS
 62
     7
 10
601.8965404837
 20
487.9896905594
 30
0.0
 11
599.439726433
 21
481.239688056
 31
0.0
  0
LINE
  5
2F1
  8
0
  6
CONTINUOUS
 62
     7
 10
604.4250887243
 20
487.9896905594
 30
0.0
 11
601.8965404837
 21
487.9896905594
 31
0.0
  0
LINE
  5
2F2
  8
0
  6
CONTINUOUS
 62
     7
 10
606.881902775
 20
481.239688056
 30
0.0
 11
604.4250887243
 21
487.9896905594
 31
0.0
  0
LINE
  5
2F3
  8
0
  6
CONTINUOUS
 62
     7
 10
608.8645022718
 20
481.239688056
 30
0.0
 11
606.881902775
 21
481.239688056
 31
0.0
  0
LINE
  5
2F4
  8
0
  6
CONTINUOUS
 62
     7
 10
611.3213163225
 20
487.9896905594
 30
0.0
 11
608.8645022718
 21
481.239688056
 31
0.0
  0
LINE
  5
2F5
  8
0
  6
CONTINUOUS
 62
     7
 10
613.8498943655
 20
487.9896905594
 30
0.0
 11
611.3213163225
 21
487.9896905594
 31
0.0
  0
LINE
  5
2F6
  8
0
  6
CONTINUOUS
 62
     7
 10
616.3066786138
 20
481.239688056
 30
0.0
 11
613.8498943655
 21
487.9896905594
 31
0.0
  0
LINE
  5
2F7
  8
0
  6
CONTINUOUS
 62
     7
 10
657.7361982672
 20
481.239688056
 30
0.0
 11
616.3066786138
 21
481.239688056
 31
0.0
  0
ARC
  5
2F8
  8
0
  6
CONTINUOUS
 62
     7
 10
657.7361848553
 20
466.239689292
 30
0.0
 40
14.99999999999972
 50
270.0
 51
90.0
  0
LINE
  5
2F9
  8
0
  6
CONTINUOUS
 62
     7
 10
551.736162266
 20
451.2396905892
 30
0.0
 11
657.7361982672
 21
451.2396905892
 31
0.0
  0
LINE
  5
2FA
  8
0
  6
CONTINUOUS
 62
     7
 10
545.7361799089
 20
446.7396889203
 30
0.0
 11
551.736162266
 21
451.2396905892
 31
0.0
  0
ARC
  5
2FB
  8
0
  6
CONTINUOUS
 62
     7
 10
544.2361848553
 20
448.739689292
 30
0.0
 40
2.500000000000227
 50
233.1301023542
 51
306.8698976458
  0
LINE
  5
2FC
  8
0
  6
CONTINUOUS
 62
     7
 10
536.7361765711
 20
451.2396905892
 30
0.0
 11
542.7361589281
 21
446.7396889203
 31
0.0
  0
LINE
  5
2FD
  8
0
  6
CONTINUOUS
 62
     7
 10
465.1919465868
 20
451.2396905892
 30
0.0
 11
536.7361765711
 21
451.2396905892
 31
0.0
  0
ARC
  5
2FE
  8
0
  6
CONTINUOUS
 62
     7
 10
465.1919570613
 20
461.239689292
 30
0.0
 40
10.0
 50
180.0
 51
270.0
  0
LINE
  5
2FF
  8
0
  6
CONTINUOUS
 62
     7
 10
455.1919561235
 20
471.2396901422
 30
0.0
 11
455.1919561235
 21
461.2396885031
 31
0.0
  0
ARC
  5
300
  8
0
  6
CONTINUOUS
 62
     7
 10
465.1919570613
 20
471.239689292
 30
0.0
 40
10.0
 50
90.0
 51
180.0
  0
LINE
  5
301
  8
0
  6
CONTINUOUS
 62
     7
 10
505.1919680445
 20
481.239688056
 30
0.0
 11
465.1919465868
 21
481.239688056
 31
0.0
  0
ARC
  5
302
  8
0
  6
CONTINUOUS
 62
     7
 10
657.7361848553
 20
466.239689292
 30
0.0
 40
6.000000000000057
 50
270.0
 51
90.0
  0
LINE
  5
303
  8
0
  6
CONTINUOUS
 62
     7
 10
657.7361982672
 20
472.2396884435
 30
0.0
 11
465.1919465868
 21
472.2396884435
 31
0.0
  0
ARC
  5
304
  8
0
  6
CONTINUOUS
 62
     7
 10
465.1919570613
 20
466.239689292
 30
0.0
 40
6.000000000000057
 50
90.0
 51
270.0
  0
LINE
  5
305
  8
0
  6
CONTINUOUS
 62
     7
 10
465.1919465868
 20
460.2396902018
 30
0.0
 11
657.7361982672
 21
460.2396902018
 31
0.0
  0
ARC
  5
306
  8
0
  6
CONTINUOUS
 62
     7
 10
465.1919570613
 20
466.239689292
 30
0.0
 40
3.0
 50
90.0
 51
270.0
  0
LINE
  5
307
  8
0
  6
CONTINUOUS
 62
     7
 10
465.1919465868
 20
463.2396888309
 30
0.0
 11
657.7361982672
 21
463.2396888309
 31
0.0
  0
ARC
  5
308
  8
0
  6
CONTINUOUS
 62
     7
 10
657.7361848553
 20
466.239689292
 30
0.0
 40
3.0
 50
270.0
 51
90.0
  0
LINE
  5
309
  8
0
  6
CONTINUOUS
 62
     7
 10
657.7361982672
 20
469.2396898144
 30
0.0
 11
465.1919465868
 21
469.2396898144
 31
0.0
  0
CIRCLE
  5
30A
  8
0
  6
CONTINUOUS
 62
     7
 10
1114.8305612966
 20
1000.7683502859
 30
0.0
 40
1.550000000000182
  0
CIRCLE
  5
30B
  8
0
  6
CONTINUOUS
 62
     7
 10
863.830997618
 20
1149.7765290935
 30
0.0
 40
1.549999999999955
  0
CIRCLE
  5
30C
  8
0
  6
CONTINUOUS
 62
     7
 10
912.8314339843
 20
990.7765290935
 30
0.0
 40
1.549999999999955
  0
CIRCLE
  5
30D
  8
0
  6
CONTINUOUS
 62
     7
 10
1114.8305612517
 20
930.7765290935
 30
0.0
 40
1.549999999999955
  0
LINE
  5
30E
  8
0
  6
CONTINUOUS
 62
     7
 10
1118.830562791
 20
1015.7765265875
 30
0.0
 11
1114.8305621354
 21
1015.7765265875
 31
0.0
  0
LINE
  5
30F
  8
0
  6
CONTINUOUS
 62
     7
 10
1118.830562791
 20
985.7601639204
 30
0.0
 11
1118.830562791
 21
1015.7765265875
 31
0.0
  0
LINE
  5
310
  8
0
  6
CONTINUOUS
 62
     7
 10
1112.9518833367
 20
985.7601639204
 30
0.0
 11
1118.830562791
 21
985.7601639204
 31
0.0
  0
ARC
  5
311
  8
0
  6
CONTINUOUS
 62
     7
 10
1111.8912214235
 20
984.6995112166
 30
0.0
 40
1.499999872899481
 50
44.9999951451
 51
224.9999951451
  0
LINE
  5
312
  8
0
  6
CONTINUOUS
 62
     7
 10
1110.8305614797
 20
947.8806373053
 30
0.0
 11
1110.8305614797
 21
983.6388346129
 31
0.0
  0
ARC
  5
313
  8
0
  6
CONTINUOUS
 62
     7
 10
1111.8920941561
 20
946.8208313804
 30
0.0
 40
1.500000000000022
 50
135.0471635422
 51
315.0
  0
LINE
  5
314
  8
0
  6
CONTINUOUS
 62
     7
 10
1118.830562791
 20
945.7601424628
 30
0.0
 11
1112.9527550547
 21
945.7601424628
 31
0.0
  0
LINE
  5
315
  8
0
  6
CONTINUOUS
 62
     7
 10
1118.830562791
 20
915.7765027457
 30
0.0
 11
1118.830562791
 21
945.7601424628
 31
0.0
  0
LINE
  5
316
  8
0
  6
CONTINUOUS
 62
     7
 10
916.8305557577
 20
963.6379596167
 30
0.0
 11
916.8305557577
 21
915.7765027457
 31
0.0
  0
ARC
  5
317
  8
0
  6
CONTINUOUS
 62
     7
 10
915.7707738125
 20
964.6995110368
 30
0.0
 40
1.5
 50
314.952875249
 51
134.1094064382
  0
LINE
  5
318
  8
0
  6
CONTINUOUS
 62
     7
 10
910.9361332266
 20
965.7765146666
 30
0.0
 11
914.7267204134
 21
965.7765146666
 31
0.0
  0
ARC
  5
319
  8
0
  6
CONTINUOUS
 62
     7
 10
909.8920941561
 20
964.6995110368
 30
0.0
 40
1.500000000000082
 50
45.8905935618
 51
224.9528364578
  0
LINE
  5
31A
  8
0
  6
CONTINUOUS
 62
     7
 10
908.8305544464
 20
915.7765027457
 30
0.0
 11
908.8305544464
 21
963.639747756
 31
0.0
  0
LINE
  5
31B
  8
0
  6
CONTINUOUS
 62
     7
 10
888.8314377872
 20
915.7765027457
 30
0.0
 11
908.8305544464
 21
915.7765027457
 31
0.0
  0
LINE
  5
31C
  8
0
  6
CONTINUOUS
 62
     7
 10
888.8314377872
 20
921.6551896506
 30
0.0
 11
888.8314377872
 21
915.7765027457
 31
0.0
  0
ARC
  5
31D
  8
0
  6
CONTINUOUS
 62
     7
 10
887.7707738125
 20
922.7158689217
 30
0.0
 40
1.500000000000093
 50
315.0
 51
135.0
  0
LINE
  5
31E
  8
0
  6
CONTINUOUS
 62
     7
 10
840.9518760053
 20
923.7765189581
 30
0.0
 11
886.7101084797
 21
923.7765189581
 31
0.0
  0
ARC
  5
31F
  8
0
  6
CONTINUOUS
 62
     7
 10
839.8912214235
 20
922.7158689217
 30
0.0
 40
1.500000000000012
 50
45.0
 51
225.0
  0
LINE
  5
320
  8
0
  6
CONTINUOUS
 62
     7
 10
838.830561599
 20
915.7765027457
 30
0.0
 11
838.830561599
 21
921.6551896506
 31
0.0
  0
LINE
  5
321
  8
0
  6
CONTINUOUS
 62
     7
 10
818.8305657713
 20
915.7765027457
 30
0.0
 11
838.830561599
 21
915.7765027457
 31
0.0
  0
LINE
  5
322
  8
0
  6
CONTINUOUS
 62
     7
 10
818.8305657713
 20
1145.7765218192
 30
0.0
 11
818.8305657713
 21
915.7765027457
 31
0.0
  0
LINE
  5
323
  8
0
  6
CONTINUOUS
 62
     7
 10
836.7092471926
 20
1145.7765218192
 30
0.0
 11
818.8305657713
 21
1145.7765218192
 31
0.0
  0
ARC
  5
324
  8
0
  6
CONTINUOUS
 62
     7
 10
837.7699010799
 20
1146.8371892653
 30
0.0
 40
1.500000000000012
 50
225.0
 51
45.0
  0
LINE
  5
325
  8
0
  6
CONTINUOUS
 62
     7
 10
838.830561599
 20
1153.7765380316
 30
0.0
 11
838.830561599
 21
1147.8978511267
 31
0.0
  0
LINE
  5
326
  8
0
  6
CONTINUOUS
 62
     7
 10
888.8305586187
 20
1153.7765380316
 30
0.0
 11
838.830561599
 21
1153.7765380316
 31
0.0
  0
LINE
  5
327
  8
0
  6
CONTINUOUS
 62
     7
 10
888.8305586187
 20
1147.8978511267
 30
0.0
 11
888.8305586187
 21
1153.7765380316
 31
0.0
  0
ARC
  5
328
  8
0
  6
CONTINUOUS
 62
     7
 10
889.8912214235
 20
1146.8371892653
 30
0.0
 40
1.500000000000012
 50
135.0
 51
315.0
  0
LINE
  5
329
  8
0
  6
CONTINUOUS
 62
     7
 10
908.8305544464
 20
1145.7765218192
 30
0.0
 11
890.9518879263
 21
1145.7765218192
 31
0.0
  0
LINE
  5
32A
  8
0
  6
CONTINUOUS
 62
     7
 10
908.8305544464
 20
1015.7765265875
 30
0.0
 11
908.8305544464
 21
1145.7765218192
 31
0.0
  0
LINE
  5
32B
  8
0
  6
CONTINUOUS
 62
     7
 10
925.8305590956
 20
1015.7765265875
 30
0.0
 11
908.8305544464
 21
1015.7765265875
 31
0.0
  0
LINE
  5
32C
  8
0
  6
CONTINUOUS
 62
     7
 10
925.8305590956
 20
997.8969808989
 30
0.0
 11
925.8305590956
 21
1015.7765265875
 31
0.0
  0
ARC
  5
32D
  8
0
  6
CONTINUOUS
 62
     7
 10
926.8916577898
 20
996.8367525396
 30
0.0
 40
1.499999872951805
 50
135.0235817711
 51
315.0235817711
  0
LINE
  5
32E
  8
0
  6
CONTINUOUS
 62
     7
 10
931.7093801109
 20
995.776545661
 30
0.0
 11
927.9527526705
 21
995.776545661
 31
0.0
  0
ARC
  5
32F
  8
0
  6
CONTINUOUS
 62
     7
 10
932.7784915662
 20
996.8286677982
 30
0.0
 40
1.499999999999924
 50
224.5415086122
 51
45.4621901374
  0
LINE
  5
330
  8
0
  6
CONTINUOUS
 62
     7
 10
933.8305604069
 20
1003.7765022688
 30
0.0
 11
933.8305604069
 21
997.8978749686
 31
0.0
  0
LINE
  5
331
  8
0
  6
CONTINUOUS
 62
     7
 10
933.8305604069
 20
1003.7765022688
 30
0.0
 11
1112.7640914528
 21
1003.7765022688
 31
0.0
  0
ARC
  5
332
  8
0
  6
CONTINUOUS
 62
     7
 10
1113.6256747545
 20
1005.0044018846
 30
0.0
 40
1.500000000000086
 50
234.9430835088
 51
36.5576777862
  0
LINE
  5
333
  8
0
  6
CONTINUOUS
 62
     7
 10
1114.8305621354
 20
1005.8978315764
 30
0.0
 11
1114.8305621354
 21
1015.7765265875
 31
0.0
  0
CIRCLE
  5
334
  8
0
  6
CONTINUOUS
 62
     7
 10
838.8305612517
 20
935.7765290935
 30
0.0
 40
4.0
  0
LINE
  5
335
  8
0
  6
CONTINUOUS
 62
     7
 10
916.8305557577
 20
915.7765027457
 30
0.0
 11
1118.830562791
 21
915.7765027457
 31
0.0
  0
LINE
  5
336
  8
0
  6
CONTINUOUS
 62
     7
 10
933.8305604069
 20
1015.7765265875
 30
0.0
 11
933.8305604069
 21
1003.7765022688
 31
0.0
  0
LINE
  5
337
  8
0
  6
CONTINUOUS
 62
     7
 10
1114.8305621354
 20
1015.7765265875
 30
0.0
 11
933.8305604069
 21
1015.7765265875
 31
0.0
  0
CIRCLE
  5
338
  8
0
  6
CONTINUOUS
 62
     7
 10
1339.3631897332
 20
991.2370566931
 30
0.0
 40
1.549999999999955
  0
LINE
  5
339
  8
0
  6
CONTINUOUS
 62
     7
 10
1139.4845109789
 20
1004.237067359
 30
0.0
 11
1318.2721596567
 21
1004.237067359
 31
0.0
  0
LINE
  5
33A
  8
0
  6
CONTINUOUS
 62
     7
 10
1318.2721596567
 20
1004.237067359
 30
0.0
 11
1318.2721596567
 21
998.3583804541
 31
0.0
  0
ARC
  5
33B
  8
0
  6
CONTINUOUS
 62
     7
 10
1319.3328266093
 20
997.2977168649
 30
0.0
 40
1.499999999999932
 50
135.0
 51
315.0
  0
LINE
  5
33C
  8
0
  6
CONTINUOUS
 62
     7
 10
1320.3934889643
 20
996.2370511465
 30
0.0
 11
1324.2658686249
 21
996.2370511465
 31
0.0
  0
ARC
  5
33D
  8
0
  6
CONTINUOUS
 62
     7
 10
1325.3145282519
 20
997.3095813304
 30
0.0
 40
1.500000000000085
 50
225.6445452563
 51
45.6445452563
  0
LINE
  5
33E
  8
0
  6
CONTINUOUS
 62
     7
 10
1385.3631776182
 20
1016.2370320731
 30
0.0
 11
1433.363185486
 21
974.2689248495
 31
0.0
  0
LINE
  5
33F
  8
0
  6
CONTINUOUS
 62
     7
 10
1433.363185486
 20
974.2689248495
 30
0.0
 11
1433.363185486
 21
916.2370678358
 31
0.0
  0
LINE
  5
340
  8
0
  6
CONTINUOUS
 62
     7
 10
1343.3631819097
 20
916.2370678358
 30
0.0
 11
1343.3631819097
 21
964.1157504492
 31
0.0
  0
ARC
  5
341
  8
0
  6
CONTINUOUS
 62
     7
 10
1342.3025295615
 20
965.1763965213
 30
0.0
 40
1.499999999999932
 50
315.0
 51
135.0
  0
LINE
  5
342
  8
0
  6
CONTINUOUS
 62
     7
 10
1335.3631954996
 20
964.1157504492
 30
0.0
 11
1335.3631954996
 21
916.2370678358
 31
0.0
  0
LINE
  5
343
  8
0
  6
CONTINUOUS
 62
     7
 10
1133.3631884662
 20
916.2370678358
 30
0.0
 11
1133.3631884662
 21
946.2370392256
 31
0.0
  0
LINE
  5
344
  8
0
  6
CONTINUOUS
 62
     7
 10
1141.3631897776
 20
948.3583685332
 30
0.0
 11
1141.3631897776
 21
984.1157313757
 31
0.0
  0
ARC
  5
345
  8
0
  6
CONTINUOUS
 62
     7
 10
1140.3025295615
 20
985.1763965213
 30
0.0
 40
1.499999999999932
 50
315.0
 51
135.0
  0
LINE
  5
346
  8
0
  6
CONTINUOUS
 62
     7
 10
1139.2418679206
 20
986.2370606833
 30
0.0
 11
1133.3631884662
 21
986.2370606833
 31
0.0
  0
LINE
  5
347
  8
0
  6
CONTINUOUS
 62
     7
 10
1133.3631884662
 20
986.2370606833
 30
0.0
 11
1133.3631884662
 21
1016.2370320731
 31
0.0
  0
LINE
  5
348
  8
0
  6
CONTINUOUS
 62
     7
 10
1133.3631884662
 20
1016.2370320731
 30
0.0
 11
1137.3631891219
 21
1016.2370320731
 31
0.0
  0
LINE
  5
349
  8
0
  6
CONTINUOUS
 62
     7
 10
1137.3631891219
 20
1016.2370320731
 30
0.0
 11
1137.3631891219
 21
1006.3583966666
 31
0.0
  0
ARC
  5
34A
  8
0
  6
CONTINUOUS
 62
     7
 10
1138.423849905
 20
1005.2977168649
 30
0.0
 40
1.500000000000173
 50
135.0
 51
315.0
  0
CIRCLE
  5
34B
  8
0
  6
CONTINUOUS
 62
     7
 10
1137.3631897332
 20
931.2370566931
 30
0.0
 40
1.549999999999727
  0
CIRCLE
  5
34C
  8
0
  6
CONTINUOUS
 62
     7
 10
1413.3631897332
 20
936.2370566931
 30
0.0
 40
4.0
  0
LINE
  5
34D
  8
0
  6
CONTINUOUS
 62
     7
 10
1433.363185486
 20
916.2370678358
 30
0.0
 11
1343.3631819097
 21
916.2370678358
 31
0.0
  0
LINE
  5
34E
  8
0
  6
CONTINUOUS
 62
     7
 10
1335.3631954996
 20
916.2370678358
 30
0.0
 11
1133.3631884662
 21
916.2370678358
 31
0.0
  0
ARC
  5
34F
  8
0
  6
CONTINUOUS
 62
     7
 10
1336.423849905
 20
965.1763965213
 30
0.0
 40
1.500000000000173
 50
45.0
 51
225.0
  0
LINE
  5
350
  8
0
  6
CONTINUOUS
 62
     7
 10
1341.2418824045
 20
966.2370797568
 30
0.0
 11
1337.4845248072
 21
966.2370797568
 31
0.0
  0
LINE
  5
351
  8
0
  6
CONTINUOUS
 62
     7
 10
1326.3631921617
 20
998.3821031027
 30
0.0
 11
1326.3631921617
 21
1016.2370320731
 31
0.0
  0
CIRCLE
  5
352
  8
0
  6
CONTINUOUS
 62
     7
 10
1137.3631897332
 20
1001.2370566931
 30
0.0
 40
1.549999999999727
  0
ARC
  5
353
  8
0
  6
CONTINUOUS
 62
     7
 10
1140.3025295615
 20
947.2977168649
 30
0.0
 40
1.500000000000173
 50
225.0
 51
45.0
  0
LINE
  5
354
  8
0
  6
CONTINUOUS
 62
     7
 10
1326.3631921617
 20
1016.2370320731
 30
0.0
 11
1385.3631776182
 21
1016.2370320731
 31
0.0
  0
LINE
  5
355
  8
0
  6
CONTINUOUS
 62
     7
 10
1133.3631884662
 20
946.2370392256
 30
0.0
 11
1139.2418679206
 21
946.2370392256
 31
0.0
  0
LINE
  5
356
  8
0
  6
CONTINUOUS
 62
     7
 10
1318.2721596567
 20
1004.237067359
 30
0.0
 11
1318.2721596567
 21
1016.2370320731
 31
0.0
  0
LINE
  5
357
  8
0
  6
CONTINUOUS
 62
     7
 10
1318.2721596567
 20
1016.2370320731
 30
0.0
 11
1137.3631891219
 21
1016.2370320731
 31
0.0
  0
CIRCLE
  5
358
  8
0
  6
CONTINUOUS
 62
     7
 10
478.3138233341
 20
961.4990831967
 30
0.0
 40
1.549999999999955
  0
CIRCLE
  5
359
  8
0
  6
CONTINUOUS
 62
     7
 10
369.8770706505
 20
739.1375975399
 30
0.0
 40
1.549999999999955
  0
CIRCLE
  5
35A
  8
0
  6
CONTINUOUS
 62
     7
 10
152.5830814679
 20
891.4990831968
 30
0.0
 40
1.549999999999926
  0
CIRCLE
  5
35B
  8
0
  6
CONTINUOUS
 62
     7
 10
269.5830814679
 20
891.4990831968
 30
0.0
 40
1.550000000000011
  0
CIRCLE
  5
35C
  8
0
  6
CONTINUOUS
 62
     7
 10
162.583081468
 20
1007.4990831968
 30
0.0
 40
1.549999999999955
  0
LINE
  5
35D
  8
0
  6
CONTINUOUS
 62
     7
 10
267.7044134943
 20
881.4990934306
 30
0.0
 11
271.4617710916
 21
881.4990934306
 31
0.0
  0
ARC
  5
35E
  8
0
  6
CONTINUOUS
 62
     7
 10
266.6437416397
 20
880.438423025
 30
0.0
 40
1.500000000000052
 50
45.0
 51
225.0
  0
LINE
  5
35F
  8
0
  6
CONTINUOUS
 62
     7
 10
265.5830841867
 20
843.6204012804
 30
0.0
 11
265.5830841867
 21
879.377764123
 31
0.0
  0
ARC
  5
360
  8
0
  6
CONTINUOUS
 62
     7
 10
266.6437416397
 20
842.5597433686
 30
0.0
 40
1.500000000000093
 50
135.0
 51
315.0
  0
LINE
  5
361
  8
0
  6
CONTINUOUS
 62
     7
 10
271.4617710916
 20
841.4990719729
 30
0.0
 11
267.7044134943
 21
841.4990719729
 31
0.0
  0
ARC
  5
362
  8
0
  6
CONTINUOUS
 62
     7
 10
272.5224212962
 20
842.5597433686
 30
0.0
 40
1.500000000000052
 50
225.0
 51
45.0
  0
LINE
  5
363
  8
0
  6
CONTINUOUS
 62
     7
 10
273.5831003992
 20
879.377764123
 30
0.0
 11
273.5831003992
 21
843.6204012804
 31
0.0
  0
ARC
  5
364
  8
0
  6
CONTINUOUS
 62
     7
 10
272.5224212962
 20
880.438423025
 30
0.0
 40
1.500000000000012
 50
315.0
 51
135.0
  0
LINE
  5
365
  8
0
  6
CONTINUOUS
 62
     7
 10
148.5831003992
 20
843.6204012804
 30
0.0
 11
148.5831003992
 21
879.377764123
 31
0.0
  0
ARC
  5
366
  8
0
  6
CONTINUOUS
 62
     7
 10
149.6437416397
 20
842.5597433686
 30
0.0
 40
1.500000000001761
 50
135.0000000001
 51
314.9999999999
  0
LINE
  5
367
  8
0
  6
CONTINUOUS
 62
     7
 10
154.4617873041
 20
841.4990719729
 30
0.0
 11
150.7044297068
 21
841.4990719729
 31
0.0
  0
ARC
  5
368
  8
0
  6
CONTINUOUS
 62
     7
 10
155.5224212962
 20
842.5597433686
 30
0.0
 40
1.499999999999851
 50
225.0000000001
 51
44.9999999999
  0
LINE
  5
369
  8
0
  6
CONTINUOUS
 62
     7
 10
156.583057007
 20
879.377764123
 30
0.0
 11
156.583057007
 21
843.6204012804
 31
0.0
  0
ARC
  5
36A
  8
0
  6
CONTINUOUS
 62
     7
 10
155.5224212962
 20
880.438423025
 30
0.0
 40
1.499999999998947
 50
315.0
 51
135.0000000001
  0
LINE
  5
36B
  8
0
  6
CONTINUOUS
 62
     7
 10
150.7044297068
 20
881.4990934306
 30
0.0
 11
154.4617873041
 21
881.4990934306
 31
0.0
  0
ARC
  5
36C
  8
0
  6
CONTINUOUS
 62
     7
 10
149.6437416397
 20
880.438423025
 30
0.0
 40
1.499999999999892
 50
44.9999999999
 51
225.0
  0
LINE
  5
36D
  8
0
  6
CONTINUOUS
 62
     7
 10
112.461731991
 20
1131.4990636282
 30
0.0
 11
66.7043786852
 21
1131.4990636282
 31
0.0
  0
ARC
  5
36E
  8
0
  6
CONTINUOUS
 62
     7
 10
113.5224212962
 20
1132.5597433686
 30
0.0
 40
1.499999999999982
 50
225.0
 51
45.0
  0
LINE
  5
36F
  8
0
  6
CONTINUOUS
 62
     7
 10
114.5830612985
 20
1139.4990798407
 30
0.0
 11
114.5830612985
 21
1133.6203929358
 31
0.0
  0
ARC
  5
370
  8
0
  6
CONTINUOUS
 62
     7
 10
157.6437416398
 20
1132.5597433686
 30
0.0
 40
1.499999999999992
 50
135.0
 51
315.0
  0
LINE
  5
371
  8
0
  6
CONTINUOUS
 62
     7
 10
206.5830689279
 20
1131.4990636282
 30
0.0
 11
158.7043863146
 21
1131.4990636282
 31
0.0
  0
LINE
  5
372
  8
0
  6
CONTINUOUS
 62
     7
 10
206.5830689279
 20
1076.4990564757
 30
0.0
 11
206.5830689279
 21
1131.4990636282
 31
0.0
  0
ARC
  5
373
  8
0
  6
CONTINUOUS
 62
     7
 10
216.583081468
 20
1076.4990831968
 30
0.0
 40
10.0
 50
180.0
 51
270.0
  0
LINE
  5
374
  8
0
  6
CONTINUOUS
 62
     7
 10
296.5831023065
 20
1066.4990660124
 30
0.0
 11
216.5830593912
 21
1066.4990660124
 31
0.0
  0
ARC
  5
375
  8
0
  6
CONTINUOUS
 62
     7
 10
296.583081468
 20
1076.4990831968
 30
0.0
 40
10.00000000000023
 50
270.0
 51
360.0
  0
LINE
  5
376
  8
0
  6
CONTINUOUS
 62
     7
 10
334.5830899088
 20
1076.4990564757
 30
0.0
 11
334.5830899088
 21
1139.4990798407
 31
0.0
  0
ARC
  5
377
  8
0
  6
CONTINUOUS
 62
     7
 10
344.583081468
 20
1076.4990831968
 30
0.0
 40
10.0
 50
180.0
 51
270.0
  0
LINE
  5
378
  8
0
  6
CONTINUOUS
 62
     7
 10
454.5830946771
 20
1066.4990660124
 30
0.0
 11
344.583080372
 21
1066.4990660124
 31
0.0
  0
ARC
  5
379
  8
0
  6
CONTINUOUS
 62
     7
 10
454.583081468
 20
1076.4990831967
 30
0.0
 40
10.00000000000023
 50
270.0
 51
360.0
  0
LINE
  5
37A
  8
0
  6
CONTINUOUS
 62
     7
 10
556.5830927698
 20
1089.4990679198
 30
0.0
 11
550.7044058649
 21
1089.4990679198
 31
0.0
  0
ARC
  5
37B
  8
0
  6
CONTINUOUS
 62
     7
 10
549.6437416398
 20
1088.4384230249
 30
0.0
 40
1.500000000000093
 50
45.0
 51
225.0
  0
LINE
  5
37C
  8
0
  6
CONTINUOUS
 62
     7
 10
548.5830765573
 20
1087.3777386122
 30
0.0
 11
548.5830765573
 21
1041.6203853064
 31
0.0
  0
ARC
  5
37D
  8
0
  6
CONTINUOUS
 62
     7
 10
549.6437416398
 20
1040.5597433685
 30
0.0
 40
1.500000000000093
 50
135.0
 51
315.0
  0
LINE
  5
37E
  8
0
  6
CONTINUOUS
 62
     7
 10
550.7044058649
 20
1039.4990559988
 30
0.0
 11
559.583054146
 21
1039.4990559988
 31
0.0
  0
LINE
  5
37F
  8
0
  6
CONTINUOUS
 62
     7
 10
559.583054146
 20
1039.4990559988
 30
0.0
 11
559.583054146
 21
738.256436246
 31
0.0
  0
LINE
  5
380
  8
0
  6
CONTINUOUS
 62
     7
 10
559.583054146
 20
738.256436246
 30
0.0
 11
314.5831089823
 21
493.2564389282
 31
0.0
  0
LINE
  5
381
  8
0
  6
CONTINUOUS
 62
     7
 10
298.5830765573
 20
493.2564389282
 30
0.0
 11
314.5831089823
 21
493.2564389282
 31
0.0
  0
LINE
  5
382
  8
0
  6
CONTINUOUS
 62
     7
 10
298.5830765573
 20
493.2564389282
 30
0.0
 11
53.5831313936
 21
738.256436246
 31
0.0
  0
LINE
  5
383
  8
0
  6
CONTINUOUS
 62
     7
 10
53.5831313936
 20
738.256436246
 30
0.0
 11
53.5831313936
 21
1039.4990559988
 31
0.0
  0
LINE
  5
384
  8
0
  6
CONTINUOUS
 62
     7
 10
53.5831313936
 20
1039.4990559988
 30
0.0
 11
62.4617200701
 21
1039.4990559988
 31
0.0
  0
ARC
  5
385
  8
0
  6
CONTINUOUS
 62
     7
 10
63.5224212962
 20
1040.5597433686
 30
0.0
 40
1.500000000000072
 50
225.0
 51
45.0
  0
LINE
  5
386
  8
0
  6
CONTINUOUS
 62
     7
 10
64.5830493776
 20
1041.6203853064
 30
0.0
 11
64.5830493776
 21
1087.3777386122
 31
0.0
  0
ARC
  5
387
  8
0
  6
CONTINUOUS
 62
     7
 10
63.5224212962
 20
1088.438423025
 30
0.0
 40
1.500000000000072
 50
315.0
 51
135.0
  0
LINE
  5
388
  8
0
  6
CONTINUOUS
 62
     7
 10
62.4617200701
 20
1089.4990679198
 30
0.0
 11
56.5830331652
 21
1089.4990679198
 31
0.0
  0
LINE
  5
389
  8
0
  6
CONTINUOUS
 62
     7
 10
56.5830331652
 20
1139.4990798407
 30
0.0
 11
64.5830493776
 21
1139.4990798407
 31
0.0
  0
ARC
  5
38A
  8
0
  6
CONTINUOUS
 62
     7
 10
65.6437416398
 20
1132.5597433686
 30
0.0
 40
1.500000000000072
 50
135.0
 51
315.0
  0
CIRCLE
  5
38B
  8
0
  6
CONTINUOUS
 62
     7
 10
523.6623456033
 20
848.7990831967
 30
0.0
 40
4.0
  0
CIRCLE
  5
38C
  8
0
  6
CONTINUOUS
 62
     7
 10
196.9671813988
 20
1007.4990831968
 30
0.0
 40
1.549999999999926
  0
CIRCLE
  5
38D
  8
0
  6
CONTINUOUS
 62
     7
 10
269.5830814679
 20
831.4990831968
 30
0.0
 40
1.549999999999898
  0
CIRCLE
  5
38E
  8
0
  6
CONTINUOUS
 62
     7
 10
152.5830814679
 20
831.9990831968
 30
0.0
 40
1.550000000000068
  0
CIRCLE
  5
38F
  8
0
  6
CONTINUOUS
 62
     7
 10
440.5877487691
 20
668.4269194212
 30
0.0
 40
1.549999999999955
  0
CIRCLE
  5
390
  8
0
  6
CONTINUOUS
 62
     7
 10
540.3138233341
 20
961.4990831967
 30
0.0
 40
1.550000000000068
  0
CIRCLE
  5
391
  8
0
  6
CONTINUOUS
 62
     7
 10
303.583081468
 20
979.4990831968
 30
0.0
 40
5.000000000000114
  0
ARC
  5
392
  8
0
  6
CONTINUOUS
 62
     7
 10
424.3242928018
 20
688.847229638
 30
0.0
 40
1.499999999999545
 50
0.0
 51
180.0
  0
LINE
  5
393
  8
0
  6
CONTINUOUS
 62
     7
 10
420.1674323885
 20
686.1903783255
 30
0.0
 11
422.8243094293
 21
688.847225564
 31
0.0
  0
ARC
  5
394
  8
0
  6
CONTINUOUS
 62
     7
 10
420.1674385523
 20
684.6903753885
 30
0.0
 40
1.499999999999545
 50
90.0
 51
270.0
  0
LINE
  5
395
  8
0
  6
CONTINUOUS
 62
     7
 10
424.2384892313
 20
679.1193005019
 30
0.0
 11
420.1674323885
 21
683.190387147
 31
0.0
  0
ARC
  5
396
  8
0
  6
CONTINUOUS
 62
     7
 10
425.7385063641
 20
679.1193075766
 30
0.0
 40
1.500000000000398
 50
180.0
 51
360.0
  0
LINE
  5
397
  8
0
  6
CONTINUOUS
 62
     7
 10
429.895387253
 20
681.7761477404
 30
0.0
 11
427.2385102121
 21
679.1193005019
 31
0.0
  0
ARC
  5
398
  8
0
  6
CONTINUOUS
 62
     7
 10
429.8953606136
 20
683.2761618261
 30
0.0
 40
1.500000000000114
 50
270.0
 51
90.0
  0
LINE
  5
399
  8
0
  6
CONTINUOUS
 62
     7
 10
425.8242708055
 20
688.847225564
 30
0.0
 11
429.895387253
 21
684.7761687212
 31
0.0
  0
ARC
  5
39A
  8
0
  6
CONTINUOUS
 62
     7
 10
455.436991174
 20
657.7345312658
 30
0.0
 40
1.500000000000739
 50
359.9999999999
 51
180.0
  0
LINE
  5
39B
  8
0
  6
CONTINUOUS
 62
     7
 10
451.2801628916
 20
655.0776776247
 30
0.0
 11
453.9369803278
 21
657.7345248633
 31
0.0
  0
ARC
  5
39C
  8
0
  6
CONTINUOUS
 62
     7
 10
451.2801369245
 20
653.5776770163
 30
0.0
 40
1.499999999999545
 50
90.0
 51
270.0
  0
LINE
  5
39D
  8
0
  6
CONTINUOUS
 62
     7
 10
455.3512197344
 20
648.0066147023
 30
0.0
 11
451.2801628916
 21
652.0776715451
 31
0.0
  0
ARC
  5
39E
  8
0
  6
CONTINUOUS
 62
     7
 10
456.8512047363
 20
648.0066092044
 30
0.0
 40
1.499999999999943
 50
180.0
 51
360.0
  0
LINE
  5
39F
  8
0
  6
CONTINUOUS
 62
     7
 10
461.0080581514
 20
650.6634619408
 30
0.0
 11
458.3511811106
 21
648.0066147023
 31
0.0
  0
ARC
  5
3A0
  8
0
  6
CONTINUOUS
 62
     7
 10
461.0080589858
 20
652.1634634539
 30
0.0
 40
1.499999999999886
 50
270.0
 51
90.0
  0
LINE
  5
3A1
  8
0
  6
CONTINUOUS
 62
     7
 10
456.9370013086
 20
657.7345248633
 30
0.0
 11
461.0080581514
 21
653.6634680205
 31
0.0
  0
ARC
  5
3A2
  8
0
  6
CONTINUOUS
 62
     7
 10
353.6136146831
 20
759.5579077566
 30
0.0
 40
1.499999999997101
 50
360.0
 51
179.9999999998
  0
LINE
  5
3A3
  8
0
  6
CONTINUOUS
 62
     7
 10
349.4567733614
 20
756.9010671549
 30
0.0
 11
352.1135907976
 21
759.5579143935
 31
0.0
  0
ARC
  5
3A4
  8
0
  6
CONTINUOUS
 62
     7
 10
349.4567604336
 20
755.4010535072
 30
0.0
 40
1.500000000000682
 50
90.0
 51
270.0
  0
LINE
  5
3A5
  8
0
  6
CONTINUOUS
 62
     7
 10
353.5278302042
 20
749.8299893313
 30
0.0
 11
349.4567733614
 21
753.9010461741
 31
0.0
  0
ARC
  5
3A6
  8
0
  6
CONTINUOUS
 62
     7
 10
355.0278282455
 20
749.8299856954
 30
0.0
 40
1.499999999990052
 50
180.0000000037
 51
0.0000000005
  0
LINE
  5
3A7
  8
0
  6
CONTINUOUS
 62
     7
 10
359.1846686212
 20
752.4868365698
 30
0.0
 11
356.527851185
 21
749.8299893313
 31
0.0
  0
ARC
  5
3A8
  8
0
  6
CONTINUOUS
 62
     7
 10
359.184682495
 20
753.9868399448
 30
0.0
 40
1.499999999951342
 50
269.9999999994
 51
89.9999999994
  0
LINE
  5
3A9
  8
0
  6
CONTINUOUS
 62
     7
 10
355.1136117784
 20
759.5579143935
 30
0.0
 11
359.1846686212
 21
755.4868277483
 31
0.0
  0
ARC
  5
3AA
  8
0
  6
CONTINUOUS
 62
     7
 10
390.2973808672
 20
722.8741415726
 30
0.0
 40
1.499999999997044
 50
270.0000000002
 51
89.9999999999
  0
LINE
  5
3AB
  8
0
  6
CONTINUOUS
 62
     7
 10
386.2263422815
 20
728.4452136927
 30
0.0
 11
390.2973991243
 21
724.3741270476
 31
0.0
  0
ARC
  5
3AC
  8
0
  6
CONTINUOUS
 62
     7
 10
384.7263130554
 20
728.4452093844
 30
0.0
 40
1.499999999952649
 50
0.0000000006
 51
180.0000000005
  0
LINE
  5
3AD
  8
0
  6
CONTINUOUS
 62
     7
 10
380.5694442598
 20
725.7883664542
 30
0.0
 11
383.2263213007
 21
728.4452136927
 31
0.0
  0
ARC
  5
3AE
  8
0
  6
CONTINUOUS
 62
     7
 10
380.5694588059
 20
724.2883551349
 30
0.0
 40
1.499999999990678
 50
89.9999999997
 51
269.9999999961
  0
LINE
  5
3AF
  8
0
  6
CONTINUOUS
 62
     7
 10
384.6405011026
 20
718.7172886305
 30
0.0
 11
380.5694442598
 21
722.7883454733
 31
0.0
  0
ARC
  5
3B0
  8
0
  6
CONTINUOUS
 62
     7
 10
386.1405266177
 20
718.7172873231
 30
0.0
 40
1.500000000000739
 50
180.0
 51
0.0
  0
LINE
  5
3B1
  8
0
  6
CONTINUOUS
 62
     7
 10
390.2973991243
 20
721.3741358691
 30
0.0
 11
387.6405220835
 21
718.7172886305
 31
0.0
  0
LINE
  5
3B2
  8
0
  6
CONTINUOUS
 62
     7
 10
332.2970133631
 20
1009.4990846091
 30
0.0
 11
328.7044030039
 21
1009.4990846091
 31
0.0
  0
ARC
  5
3B3
  8
0
  6
CONTINUOUS
 62
     7
 10
333.4400568275
 20
1010.5597433685
 30
0.0
 40
1.5593284864378
 50
222.8595211147
 51
42.8595211145
  0
LINE
  5
3B4
  8
0
  6
CONTINUOUS
 62
     7
 10
334.5830899088
 20
1059.49909653
 30
0.0
 11
334.5830899088
 21
1011.6204139166
 31
0.0
  0
LINE
  5
3B5
  8
0
  6
CONTINUOUS
 62
     7
 10
326.5830736963
 20
1059.49909653
 30
0.0
 11
334.5830899088
 21
1059.49909653
 31
0.0
  0
LINE
  5
3B6
  8
0
  6
CONTINUOUS
 62
     7
 10
326.5830736963
 20
1011.6204139166
 30
0.0
 11
326.5830736963
 21
1059.49909653
 31
0.0
  0
ARC
  5
3B7
  8
0
  6
CONTINUOUS
 62
     7
 10
327.6437416397
 20
1010.5597433685
 30
0.0
 40
1.500000000000052
 50
135.0
 51
315.0000000001
  0
CIRCLE
  5
3B8
  8
0
  6
CONTINUOUS
 62
     7
 10
364.0638233341
 20
944.499083195
 30
0.0
 40
0.9999999994776658
  0
CIRCLE
  5
3B9
  8
0
  6
CONTINUOUS
 62
     7
 10
444.0638233341
 20
944.499083195
 30
0.0
 40
0.9999999994776658
  0
CIRCLE
  5
3BA
  8
0
  6
CONTINUOUS
 62
     7
 10
419.3980526233
 20
623.8556849166
 30
0.0
 40
0.4999999999998295
  0
CIRCLE
  5
3BB
  8
0
  6
CONTINUOUS
 62
     7
 10
384.0427135639
 20
659.211023976
 30
0.0
 40
0.4999999999998863
  0
ARC
  5
3BC
  8
0
  6
CONTINUOUS
 62
     7
 10
333.5224212961
 20
593.438423025
 30
0.0
 40
1.500000000000093
 50
314.9999999999
 51
135.0
  0
LINE
  5
3BD
  8
0
  6
CONTINUOUS
 62
     7
 10
328.7044030039
 20
594.4990780526
 30
0.0
 11
332.4617606012
 21
594.4990780526
 31
0.0
  0
ARC
  5
3BE
  8
0
  6
CONTINUOUS
 62
     7
 10
327.6437416397
 20
593.438423025
 30
0.0
 40
1.499999999999972
 50
45.0000000001
 51
225.0
  0
LINE
  5
3BF
  8
0
  6
CONTINUOUS
 62
     7
 10
326.5830736963
 20
546.6204103403
 30
0.0
 11
326.5830736963
 21
592.3777636462
 31
0.0
  0
ARC
  5
3C0
  8
0
  6
CONTINUOUS
 62
     7
 10
327.6437416397
 20
545.5597433685
 30
0.0
 40
1.499999999999972
 50
135.0000000001
 51
314.9999999999
  0
LINE
  5
3C1
  8
0
  6
CONTINUOUS
 62
     7
 10
332.4617606012
 20
544.4990810328
 30
0.0
 11
328.7044030039
 21
544.4990810328
 31
0.0
  0
ARC
  5
3C2
  8
0
  6
CONTINUOUS
 62
     7
 10
333.5224212961
 20
545.5597433685
 30
0.0
 40
1.500000000002102
 50
224.9999999999
 51
45.0000000001
  0
LINE
  5
3C3
  8
0
  6
CONTINUOUS
 62
     7
 10
334.5830899088
 20
592.3777636462
 30
0.0
 11
334.5830899088
 21
546.6204103403
 31
0.0
  0
ARC
  5
3C4
  8
0
  6
CONTINUOUS
 62
     7
 10
333.5224212961
 20
783.5597433685
 30
0.0
 40
1.499999999999128
 50
225.0
 51
45.0000000001
  0
LINE
  5
3C5
  8
0
  6
CONTINUOUS
 62
     7
 10
334.5830899088
 20
830.3777691298
 30
0.0
 11
334.5830899088
 21
784.620415824
 31
0.0
  0
ARC
  5
3C6
  8
0
  6
CONTINUOUS
 62
     7
 10
333.5224212962
 20
831.438423025
 30
0.0
 40
1.500000000000173
 50
314.9999999999
 51
135.0
  0
LINE
  5
3C7
  8
0
  6
CONTINUOUS
 62
     7
 10
328.7044030039
 20
832.499068635
 30
0.0
 11
332.4617606012
 21
832.499068635
 31
0.0
  0
ARC
  5
3C8
  8
0
  6
CONTINUOUS
 62
     7
 10
327.6437416397
 20
831.438423025
 30
0.0
 40
1.499999999999892
 50
45.0
 51
225.0
  0
LINE
  5
3C9
  8
0
  6
CONTINUOUS
 62
     7
 10
326.5830736963
 20
784.620415824
 30
0.0
 11
326.5830736963
 21
830.3777691298
 31
0.0
  0
ARC
  5
3CA
  8
0
  6
CONTINUOUS
 62
     7
 10
327.6437416397
 20
783.5597433685
 30
0.0
 40
1.500000000002022
 50
135.0000000001
 51
315.0
  0
LINE
  5
3CB
  8
0
  6
CONTINUOUS
 62
     7
 10
332.4617606012
 20
782.4990865164
 30
0.0
 11
328.7044030039
 21
782.4990865164
 31
0.0
  0
ARC
  5
3CC
  8
0
  6
CONTINUOUS
 62
     7
 10
543.0996341267
 20
854.713272405
 30
0.0
 40
1.717122844420914
 50
225.0
 51
45.0
  0
LINE
  5
3CD
  8
0
  6
CONTINUOUS
 62
     7
 10
544.3138342707
 20
901.3777491026
 30
0.0
 11
544.3138342707
 21
855.9274491244
 31
0.0
  0
ARC
  5
3CE
  8
0
  6
CONTINUOUS
 62
     7
 10
543.2531631623
 20
902.4384230249
 30
0.0
 40
1.500000000000093
 50
315.0
 51
135.0
  0
LINE
  5
3CF
  8
0
  6
CONTINUOUS
 62
     7
 10
538.4351473657
 20
903.4990784102
 30
0.0
 11
542.1925049631
 21
903.4990784102
 31
0.0
  0
ARC
  5
3D0
  8
0
  6
CONTINUOUS
 62
     7
 10
537.3744835059
 20
902.4384230249
 30
0.0
 40
1.500000000000253
 50
45.0
 51
225.0
  0
LINE
  5
3D1
  8
0
  6
CONTINUOUS
 62
     7
 10
536.3138180582
 20
855.6203957968
 30
0.0
 11
536.3138180582
 21
901.3777491026
 31
0.0
  0
ARC
  5
3D2
  8
0
  6
CONTINUOUS
 62
     7
 10
537.3744835059
 20
854.5597433694
 30
0.0
 40
1.500000000000012
 50
135.0
 51
315.0
  0
LINE
  5
3D3
  8
0
  6
CONTINUOUS
 62
     7
 10
541.8854218332
 20
853.4990962916
 30
0.0
 11
538.4351473657
 21
853.4990962916
 31
0.0
  0
ARC
  5
3D4
  8
0
  6
CONTINUOUS
 62
     7
 10
543.2531631624
 20
1068.4384230249
 30
0.0
 40
1.500000000000012
 50
315.0
 51
135.0
  0
LINE
  5
3D5
  8
0
  6
CONTINUOUS
 62
     7
 10
538.4351473657
 20
1069.4990869933
 30
0.0
 11
542.1925049631
 21
1069.4990869933
 31
0.0
  0
ARC
  5
3D6
  8
0
  6
CONTINUOUS
 62
     7
 10
537.3744835059
 20
1068.4384230249
 30
0.0
 40
1.499999999999932
 50
45.0
 51
225.0
  0
LINE
  5
3D7
  8
0
  6
CONTINUOUS
 62
     7
 10
536.3138180582
 20
1021.6204043799
 30
0.0
 11
536.3138180582
 21
1067.3777576857
 31
0.0
  0
ARC
  5
3D8
  8
0
  6
CONTINUOUS
 62
     7
 10
537.3744835059
 20
1020.5597433685
 30
0.0
 40
1.499999999999771
 50
135.0
 51
315.0
  0
LINE
  5
3D9
  8
0
  6
CONTINUOUS
 62
     7
 10
542.1925049631
 20
1019.4990750723
 30
0.0
 11
538.4351473657
 21
1019.4990750723
 31
0.0
  0
ARC
  5
3DA
  8
0
  6
CONTINUOUS
 62
     7
 10
543.2531631624
 20
1020.5597433651
 30
0.0
 40
1.499999997560536
 50
224.9999999068
 51
44.9999999068
  0
LINE
  5
3DB
  8
0
  6
CONTINUOUS
 62
     7
 10
544.3138342707
 20
1067.3777576857
 30
0.0
 11
544.3138342707
 21
1021.6204043799
 31
0.0
  0
CIRCLE
  5
3DC
  8
0
  6
CONTINUOUS
 62
     7
 10
106.3330814679
 20
881.6989969285
 30
0.0
 40
4.000000000000014
  0
ARC
  5
3DD
  8
0
  6
CONTINUOUS
 62
     7
 10
481.2531631623
 20
902.438423025
 30
0.0
 40
1.500000000000695
 50
315.0
 51
135.0
  0
LINE
  5
3DE
  8
0
  6
CONTINUOUS
 62
     7
 10
476.4351707308
 20
903.4990784102
 30
0.0
 11
480.1925283281
 21
903.4990784102
 31
0.0
  0
ARC
  5
3DF
  8
0
  6
CONTINUOUS
 62
     7
 10
475.3744835059
 20
902.438423025
 30
0.0
 40
1.500000000000133
 50
45.0
 51
225.0
  0
LINE
  5
3E0
  8
0
  6
CONTINUOUS
 62
     7
 10
474.3138414232
 20
855.9274491244
 30
0.0
 11
474.3138414232
 21
901.3777491026
 31
0.0
  0
ARC
  5
3E1
  8
0
  6
CONTINUOUS
 62
     7
 10
475.5280125415
 20
854.713272405
 30
0.0
 40
1.717122844420833
 50
135.0
 51
315.0
  0
LINE
  5
3E2
  8
0
  6
CONTINUOUS
 62
     7
 10
480.1925283281
 20
853.4990962916
 30
0.0
 11
476.742194256
 21
853.4990962916
 31
0.0
  0
ARC
  5
3E3
  8
0
  6
CONTINUOUS
 62
     7
 10
481.2531631623
 20
854.5597433694
 30
0.0
 40
1.500000000000012
 50
225.0
 51
45.0
  0
LINE
  5
3E4
  8
0
  6
CONTINUOUS
 62
     7
 10
482.313798031
 20
901.3777491026
 30
0.0
 11
482.313798031
 21
855.6203957968
 31
0.0
  0
ARC
  5
3E5
  8
0
  6
CONTINUOUS
 62
     7
 10
475.3744835059
 20
1020.5597433651
 30
0.0
 40
1.499999997560777
 50
135.0000000932
 51
315.0000000932
  0
LINE
  5
3E6
  8
0
  6
CONTINUOUS
 62
     7
 10
480.1925283281
 20
1019.4990750723
 30
0.0
 11
476.4351707308
 21
1019.4990750723
 31
0.0
  0
ARC
  5
3E7
  8
0
  6
CONTINUOUS
 62
     7
 10
481.2531631624
 20
1020.5597433685
 30
0.0
 40
1.500000000000253
 50
225.0
 51
45.0
  0
LINE
  5
3E8
  8
0
  6
CONTINUOUS
 62
     7
 10
482.313798031
 20
1067.3777576857
 30
0.0
 11
482.313798031
 21
1021.6204043799
 31
0.0
  0
ARC
  5
3E9
  8
0
  6
CONTINUOUS
 62
     7
 10
481.2531631624
 20
1068.438423025
 30
0.0
 40
1.500000000000012
 50
315.0
 51
135.0
  0
LINE
  5
3EA
  8
0
  6
CONTINUOUS
 62
     7
 10
476.4351707308
 20
1069.4990869933
 30
0.0
 11
480.1925283281
 21
1069.4990869933
 31
0.0
  0
ARC
  5
3EB
  8
0
  6
CONTINUOUS
 62
     7
 10
475.3744835059
 20
1068.438423025
 30
0.0
 40
1.499999999999851
 50
45.0
 51
225.0
  0
LINE
  5
3EC
  8
0
  6
CONTINUOUS
 62
     7
 10
474.3138414232
 20
1021.6204043799
 30
0.0
 11
474.3138414232
 21
1067.3777576857
 31
0.0
  0
CIRCLE
  5
3ED
  8
0
  6
CONTINUOUS
 62
     7
 10
478.3138233341
 20
823.4990831967
 30
0.0
 40
1.549999999999955
  0
CIRCLE
  5
3EE
  8
0
  6
CONTINUOUS
 62
     7
 10
540.3138233341
 20
823.4990831967
 30
0.0
 40
1.550000000000068
  0
CIRCLE
  5
3EF
  8
0
  6
CONTINUOUS
 62
     7
 10
306.5830814679
 20
510.2564425097
 30
0.0
 40
8.624999999999943
  0
CIRCLE
  5
3F0
  8
0
  6
CONTINUOUS
 62
     7
 10
330.583081468
 20
989.4990831968
 30
0.0
 40
0.5000000000000568
  0
CIRCLE
  5
3F1
  8
0
  6
CONTINUOUS
 62
     7
 10
330.5830814679
 20
536.9990831968
 30
0.0
 40
1.549999999999898
  0
CIRCLE
  5
3F2
  8
0
  6
CONTINUOUS
 62
     7
 10
330.583081468
 20
1090.0834122295
 30
0.0
 40
1.549999999999955
  0
CIRCLE
  5
3F3
  8
0
  6
CONTINUOUS
 62
     7
 10
330.583081468
 20
1131.4990831968
 30
0.0
 40
1.549999999999955
  0
ARC
  5
3F4
  8
0
  6
CONTINUOUS
 62
     7
 10
305.5224212962
 20
902.5597433685
 30
0.0
 40
1.499999999974649
 50
225.0000000014
 51
45.0000000014
  0
LINE
  5
3F5
  8
0
  6
CONTINUOUS
 62
     7
 10
306.5830927698
 20
907.377761262
 30
0.0
 11
306.5830927698
 21
903.6204036646
 31
0.0
  0
ARC
  5
3F6
  8
0
  6
CONTINUOUS
 62
     7
 10
305.5224212962
 20
908.438423025
 30
0.0
 40
1.500000000002062
 50
314.9999999999
 51
135.0
  0
LINE
  5
3F7
  8
0
  6
CONTINUOUS
 62
     7
 10
258.7044101564
 20
909.4990905695
 30
0.0
 11
304.4617634622
 21
909.4990905695
 31
0.0
  0
ARC
  5
3F8
  8
0
  6
CONTINUOUS
 62
     7
 10
257.6437416397
 20
908.438423025
 30
0.0
 40
1.500000000000093
 50
45.0
 51
225.0
  0
LINE
  5
3F9
  8
0
  6
CONTINUOUS
 62
     7
 10
256.5830808489
 20
903.6204036646
 30
0.0
 11
256.5830808489
 21
907.377761262
 31
0.0
  0
ARC
  5
3FA
  8
0
  6
CONTINUOUS
 62
     7
 10
257.6437416397
 20
902.5597433685
 30
0.0
 40
1.499999999999691
 50
134.9999999991
 51
315.0
  0
LINE
  5
3FB
  8
0
  6
CONTINUOUS
 62
     7
 10
304.4617634622
 20
901.4990743571
 30
0.0
 11
258.7044101564
 21
901.4990743571
 31
0.0
  0
ARC
  5
3FC
  8
0
  6
CONTINUOUS
 62
     7
 10
125.5224212962
 20
902.5597433686
 30
0.0
 40
1.499999999999912
 50
225.0
 51
45.0
  0
LINE
  5
3FD
  8
0
  6
CONTINUOUS
 62
     7
 10
126.5830856172
 20
907.377761262
 30
0.0
 11
126.5830856172
 21
903.6204036646
 31
0.0
  0
ARC
  5
3FE
  8
0
  6
CONTINUOUS
 62
     7
 10
125.5224212962
 20
908.438423025
 30
0.0
 40
1.500000000000002
 50
315.0
 51
135.0
  0
LINE
  5
3FF
  8
0
  6
CONTINUOUS
 62
     7
 10
78.7044030039
 20
909.4990905695
 30
0.0
 11
124.4617563097
 21
909.4990905695
 31
0.0
  0
ARC
  5
400
  8
0
  6
CONTINUOUS
 62
     7
 10
77.6437416397
 20
908.438423025
 30
0.0
 40
1.500000000000073
 50
45.0
 51
225.0
  0
LINE
  5
401
  8
0
  6
CONTINUOUS
 62
     7
 10
76.583133301
 20
903.6204036646
 30
0.0
 11
76.583133301
 21
907.377761262
 31
0.0
  0
ARC
  5
402
  8
0
  6
CONTINUOUS
 62
     7
 10
77.6437416397
 20
902.5597433686
 30
0.0
 40
1.500000000000072
 50
135.0
 51
315.0
  0
LINE
  5
403
  8
0
  6
CONTINUOUS
 62
     7
 10
124.4617563097
 20
901.4990743571
 30
0.0
 11
78.7044030039
 21
901.4990743571
 31
0.0
  0
CIRCLE
  5
404
  8
0
  6
CONTINUOUS
 62
     7
 10
247.583081468
 20
979.4990831968
 30
0.0
 40
29.00000000000017
  0
CIRCLE
  5
405
  8
0
  6
CONTINUOUS
 62
     7
 10
222.583081468
 20
954.4990831968
 30
0.0
 40
0.5000000000001705
  0
CIRCLE
  5
406
  8
0
  6
CONTINUOUS
 62
     7
 10
272.583081468
 20
954.4990831968
 30
0.0
 40
0.4999999999999432
  0
CIRCLE
  5
407
  8
0
  6
CONTINUOUS
 62
     7
 10
272.583081468
 20
1004.4990831968
 30
0.0
 40
0.5000000000000568
  0
CIRCLE
  5
408
  8
0
  6
CONTINUOUS
 62
     7
 10
222.583081468
 20
1004.4990831968
 30
0.0
 40
0.4999999999999432
  0
ARC
  5
409
  8
0
  6
CONTINUOUS
 62
     7
 10
201.9775447375
 20
1040.5597433686
 30
0.0
 40
1.499999999999992
 50
135.0
 51
315.0
  0
LINE
  5
40A
  8
0
  6
CONTINUOUS
 62
     7
 10
248.795555195
 20
1039.4990559988
 30
0.0
 11
203.0382018892
 21
1039.4990559988
 31
0.0
  0
ARC
  5
40B
  8
0
  6
CONTINUOUS
 62
     7
 10
249.856224394
 20
1040.5597433686
 30
0.0
 40
1.500000000033997
 50
224.9999999998
 51
44.9999999997
  0
LINE
  5
40C
  8
0
  6
CONTINUOUS
 62
     7
 10
250.9168845026
 20
1045.3777429037
 30
0.0
 11
250.9168845026
 21
1041.6203853064
 31
0.0
  0
ARC
  5
40D
  8
0
  6
CONTINUOUS
 62
     7
 10
249.856224394
 20
1046.4384230251
 30
0.0
 40
1.499999999999992
 50
315.0
 51
135.0000000003
  0
LINE
  5
40E
  8
0
  6
CONTINUOUS
 62
     7
 10
203.0382018892
 20
1047.4990722113
 30
0.0
 11
248.795555195
 21
1047.4990722113
 31
0.0
  0
ARC
  5
40F
  8
0
  6
CONTINUOUS
 62
     7
 10
201.9775447376
 20
1046.4384230251
 30
0.0
 40
1.499999999998726
 50
44.9999999998
 51
224.9999999979
  0
LINE
  5
410
  8
0
  6
CONTINUOUS
 62
     7
 10
200.9168725817
 20
1041.6203853064
 30
0.0
 11
200.9168725817
 21
1045.3777429037
 31
0.0
  0
ARC
  5
411
  8
0
  6
CONTINUOUS
 62
     7
 10
411.1886181984
 20
1046.438423025
 30
0.0
 40
1.499999999998605
 50
315.000000002
 51
135.0000000002
  0
LINE
  5
412
  8
0
  6
CONTINUOUS
 62
     7
 10
364.3705707399
 20
1047.4990722113
 30
0.0
 11
410.1279836504
 21
1047.4990722113
 31
0.0
  0
ARC
  5
413
  8
0
  6
CONTINUOUS
 62
     7
 10
363.3099385419
 20
1046.438423025
 30
0.0
 40
1.500000000000012
 50
44.9999999997
 51
225.0
  0
LINE
  5
414
  8
0
  6
CONTINUOUS
 62
     7
 10
362.249301037
 20
1041.6203853064
 30
0.0
 11
362.249301037
 21
1045.3777429037
 31
0.0
  0
ARC
  5
415
  8
0
  6
CONTINUOUS
 62
     7
 10
363.309938542
 20
1040.5597433686
 30
0.0
 40
1.500000000033936
 50
135.0000000002
 51
315.0000000002
  0
LINE
  5
416
  8
0
  6
CONTINUOUS
 62
     7
 10
410.1279836504
 20
1039.4990559988
 30
0.0
 11
364.3705707399
 21
1039.4990559988
 31
0.0
  0
ARC
  5
417
  8
0
  6
CONTINUOUS
 62
     7
 10
411.1886181984
 20
1040.5597433685
 30
0.0
 40
1.499999999999972
 50
225.0
 51
45.0
  0
LINE
  5
418
  8
0
  6
CONTINUOUS
 62
     7
 10
412.2492533533
 20
1045.3777429037
 30
0.0
 11
412.2492533533
 21
1041.6203853064
 31
0.0
  0
ARC
  5
419
  8
0
  6
CONTINUOUS
 62
     7
 10
86.7929974053
 20
1046.438423025
 30
0.0
 40
1.500000000000072
 50
45.0
 51
225.0
  0
LINE
  5
41A
  8
0
  6
CONTINUOUS
 62
     7
 10
85.7323270647
 20
1041.6203853064
 30
0.0
 11
85.7323270647
 21
1045.3777429037
 31
0.0
  0
ARC
  5
41B
  8
0
  6
CONTINUOUS
 62
     7
 10
86.7929974053
 20
1040.5597433686
 30
0.0
 40
1.500000000000163
 50
135.0
 51
315.0
  0
LINE
  5
41C
  8
0
  6
CONTINUOUS
 62
     7
 10
93.6109882204
 20
1039.4990559988
 30
0.0
 11
87.8536563722
 21
1039.4990559988
 31
0.0
  0
ARC
  5
41D
  8
0
  6
CONTINUOUS
 62
     7
 10
94.6716770618
 20
1040.5597433686
 30
0.0
 40
1.500000000000334
 50
225.0000000003
 51
45.0000000055
  0
LINE
  5
41E
  8
0
  6
CONTINUOUS
 62
     7
 10
95.7323175279
 20
1045.3777429037
 30
0.0
 11
95.7323175279
 21
1041.6203853064
 31
0.0
  0
ARC
  5
41F
  8
0
  6
CONTINUOUS
 62
     7
 10
94.6716770617
 20
1046.438423025
 30
0.0
 40
1.500000000000143
 50
315.0
 51
134.999999999
  0
LINE
  5
420
  8
0
  6
CONTINUOUS
 62
     7
 10
87.8536563722
 20
1047.4990722113
 30
0.0
 11
93.6109882204
 21
1047.4990722113
 31
0.0
  0
ARC
  5
421
  8
0
  6
CONTINUOUS
 62
     7
 10
526.3731655306
 20
1040.5597433685
 30
0.0
 40
1.500000000000093
 50
225.0
 51
45.0
  0
LINE
  5
422
  8
0
  6
CONTINUOUS
 62
     7
 10
527.4337988703
 20
1045.3777429037
 30
0.0
 11
527.4337988703
 21
1041.6203853064
 31
0.0
  0
ARC
  5
423
  8
0
  6
CONTINUOUS
 62
     7
 10
526.3731655306
 20
1046.438423025
 30
0.0
 40
1.500000000000012
 50
315.0
 51
135.0
  0
LINE
  5
424
  8
0
  6
CONTINUOUS
 62
     7
 10
519.5551377146
 20
1047.4990722113
 30
0.0
 11
525.3125291674
 21
1047.4990722113
 31
0.0
  0
ARC
  5
425
  8
0
  6
CONTINUOUS
 62
     7
 10
518.4944858743
 20
1046.4384230249
 30
0.0
 40
1.500000000000173
 50
45.000000001
 51
225.0
  0
LINE
  5
426
  8
0
  6
CONTINUOUS
 62
     7
 10
517.433808407
 20
1041.6203853064
 30
0.0
 11
517.433808407
 21
1045.3777429037
 31
0.0
  0
ARC
  5
427
  8
0
  6
CONTINUOUS
 62
     7
 10
518.4944858742
 20
1040.5597433685
 30
0.0
 40
1.500000000000494
 50
134.9999999945
 51
314.9999999997
  0
LINE
  5
428
  8
0
  6
CONTINUOUS
 62
     7
 10
525.3125291674
 20
1039.4990559988
 30
0.0
 11
519.5551377146
 21
1039.4990559988
 31
0.0
  0
CIRCLE
  5
429
  8
0
  6
CONTINUOUS
 62
     7
 10
513.8148633341
 20
808.8209529712
 30
0.0
 40
4.0
  0
CIRCLE
  5
42A
  8
0
  6
CONTINUOUS
 62
     7
 10
191.5830814679
 20
905.4990831968
 30
0.0
 40
1.549999999999926
  0
CIRCLE
  5
42B
  8
0
  6
CONTINUOUS
 62
     7
 10
330.5830814679
 20
842.5703904412
 30
0.0
 40
1.550000000000068
  0
CIRCLE
  5
42C
  8
0
  6
CONTINUOUS
 62
     7
 10
306.583081468
 20
1043.4990831968
 30
0.0
 40
1.550000000004445
  0
CIRCLE
  5
42D
  8
0
  6
CONTINUOUS
 62
     7
 10
148.3246108996
 20
1043.4990831969
 30
0.0
 40
1.550000000028604
  0
ARC
  5
42E
  8
0
  6
CONTINUOUS
 62
     7
 10
171.1437416397
 20
1004.5597433686
 30
0.0
 40
1.500000000000153
 50
135.0
 51
315.0
  0
LINE
  5
42F
  8
0
  6
CONTINUOUS
 62
     7
 10
187.9617434351
 20
1003.499102252
 30
0.0
 11
172.2044211237
 21
1003.499102252
 31
0.0
  0
ARC
  5
430
  8
0
  6
CONTINUOUS
 62
     7
 10
189.0224212962
 20
1004.5597433686
 30
0.0
 40
1.499999999999992
 50
225.0
 51
45.0
  0
LINE
  5
431
  8
0
  6
CONTINUOUS
 62
     7
 10
190.0830727426
 20
1009.377789157
 30
0.0
 11
190.0830727426
 21
1005.6204315596
 31
0.0
  0
ARC
  5
432
  8
0
  6
CONTINUOUS
 62
     7
 10
189.0224212962
 20
1010.438423025
 30
0.0
 40
1.500000000000093
 50
315.0
 51
135.0
  0
LINE
  5
433
  8
0
  6
CONTINUOUS
 62
     7
 10
172.2044211237
 20
1011.4990588599
 30
0.0
 11
187.9617434351
 21
1011.4990588599
 31
0.0
  0
ARC
  5
434
  8
0
  6
CONTINUOUS
 62
     7
 10
171.1437416397
 20
1010.438423025
 30
0.0
 40
1.500000000000073
 50
45.0
 51
225.0
  0
LINE
  5
435
  8
0
  6
CONTINUOUS
 62
     7
 10
170.0830918161
 20
1005.6204315596
 30
0.0
 11
170.0830918161
 21
1009.377789157
 31
0.0
  0
CIRCLE
  5
436
  8
0
  6
CONTINUOUS
 62
     7
 10
464.8415520364
 20
1043.4990831968
 30
0.0
 40
1.550000000022806
  0
LINE
  5
437
  8
0
  6
CONTINUOUS
 62
     7
 10
114.5830612985
 20
1139.4990798407
 30
0.0
 11
156.583057007
 21
1139.4990798407
 31
0.0
  0
LINE
  5
438
  8
0
  6
CONTINUOUS
 62
     7
 10
56.5830331652
 20
1089.4990679198
 30
0.0
 11
56.5830331652
 21
1139.4990798407
 31
0.0
  0
LINE
  5
439
  8
0
  6
CONTINUOUS
 62
     7
 10
156.583057007
 20
1133.6203929358
 30
0.0
 11
156.583057007
 21
1139.4990798407
 31
0.0
  0
LINE
  5
43A
  8
0
  6
CONTINUOUS
 62
     7
 10
306.5830927698
 20
1139.4990798407
 30
0.0
 11
334.5830899088
 21
1139.4990798407
 31
0.0
  0
LINE
  5
43B
  8
0
  6
CONTINUOUS
 62
     7
 10
556.5830927698
 20
1139.4990798407
 30
0.0
 11
556.5830927698
 21
1089.4990679198
 31
0.0
  0
LINE
  5
43C
  8
0
  6
CONTINUOUS
 62
     7
 10
464.5830851404
 20
1139.4990798407
 30
0.0
 11
556.5830927698
 21
1139.4990798407
 31
0.0
  0
LINE
  5
43D
  8
0
  6
CONTINUOUS
 62
     7
 10
64.5830493776
 20
1133.6203929358
 30
0.0
 11
64.5830493776
 21
1139.4990798407
 31
0.0
  0
LINE
  5
43E
  8
0
  6
CONTINUOUS
 62
     7
 10
464.5830851404
 20
1139.4990798407
 30
0.0
 11
464.5830851404
 21
1076.4990564757
 31
0.0
  0
LINE
  5
43F
  8
0
  6
CONTINUOUS
 62
     7
 10
306.5830927698
 20
1139.4990798407
 30
0.0
 11
306.5830927698
 21
1076.4990564757
 31
0.0
  0
CIRCLE
  5
440
  8
0
  6
CONTINUOUS
 62
     7
 10
314.9711237318
 20
442.617732509
 30
0.0
 40
1.0
  0
CIRCLE
  5
441
  8
0
  6
CONTINUOUS
 62
     7
 10
461.6487922735
 20
589.2954010507
 30
0.0
 40
1.000000000765397
  0
CIRCLE
  5
442
  8
0
  6
CONTINUOUS
 62
     7
 10
804.1950392041
 20
442.617732509
 30
0.0
 40
1.000000000001478
  0
CIRCLE
  5
443
  8
0
  6
CONTINUOUS
 62
     7
 10
657.5173706623
 20
589.2954010507
 30
0.0
 40
1.000000000725436
  0
CIRCLE
  5
444
  8
0
  6
CONTINUOUS
 62
     7
 10
305.583081711
 20
420.4624594272
 30
0.0
 40
0.9999999999996589
  0
CIRCLE
  5
445
  8
0
  6
CONTINUOUS
 62
     7
 10
813.5830812249
 20
420.4624594272
 30
0.0
 40
0.9999999999998863
  0
CIRCLE
  5
446
  8
0
  6
CONTINUOUS
 62
     7
 10
813.5830812249
 20
213.5383743572
 30
0.0
 40
1.0
  0
LINE
  5
447
  8
0
  6
CONTINUOUS
 62
     7
 10
307.4617844431
 20
131.0383793288
 30
0.0
 11
301.5830975382
 21
131.0383793288
 31
0.0
  0
LINE
  5
448
  8
0
  6
CONTINUOUS
 62
     7
 10
307.4617844431
 20
241.0383787327
 30
0.0
 11
301.5830975382
 21
241.0383787327
 31
0.0
  0
ARC
  5
449
  8
0
  6
CONTINUOUS
 62
     7
 10
308.5224210582
 20
294.9777141854
 30
0.0
 40
1.500000169971268
 50
315.0000064937
 51
135.0000064937
  0
LINE
  5
44A
  8
0
  6
CONTINUOUS
 62
     7
 10
326.8591624109
 20
451.8489208393
 30
0.0
 11
322.7023344843
 21
456.005774843
 31
0.0
  0
ARC
  5
44B
  8
0
  6
CONTINUOUS
 62
     7
 10
328.3591650053
 20
451.8489150258
 30
0.0
 40
1.499999013459054
 50
179.999790062
 51
359.999790062
  0
LINE
  5
44C
  8
0
  6
CONTINUOUS
 62
     7
 10
365.7500606386
 20
487.739783185
 30
0.0
 11
329.8591833917
 21
451.8489096635
 31
0.0
  0
ARC
  5
44D
  8
0
  6
CONTINUOUS
 62
     7
 10
365.7500379705
 20
489.2397879911
 30
0.0
 40
1.500005496166449
 50
269.9999623163
 51
89.9999623163
  0
LINE
  5
44E
  8
0
  6
CONTINUOUS
 62
     7
 10
361.5931731073
 20
494.8966469937
 30
0.0
 11
365.7500606386
 21
490.7397967153
 31
0.0
  0
LINE
  5
44F
  8
0
  6
CONTINUOUS
 62
     7
 10
400.484071335
 20
533.7875228696
 30
0.0
 11
361.5931731073
 21
494.8966469937
 31
0.0
  0
LINE
  5
450
  8
0
  6
CONTINUOUS
 62
     7
 10
404.6408992617
 20
529.6306651407
 30
0.0
 11
400.484071335
 21
533.7875228696
 31
0.0
  0
ARC
  5
451
  8
0
  6
CONTINUOUS
 62
     7
 10
406.1409114911
 20
529.6306604011
 30
0.0
 40
1.49999845817076
 50
179.9998112722
 51
359.9998112722
  0
LINE
  5
452
  8
0
  6
CONTINUOUS
 62
     7
 10
443.5317974893
 20
565.5215349369
 30
0.0
 11
407.6409202425
 21
529.6306576901
 31
0.0
  0
ARC
  5
453
  8
0
  6
CONTINUOUS
 62
     7
 10
443.5317834697
 20
567.0215323797
 30
0.0
 40
1.500003954275474
 50
269.9999787916
 51
89.9999787916
  0
LINE
  5
454
  8
0
  6
CONTINUOUS
 62
     7
 10
439.3749099581
 20
572.6783987456
 30
0.0
 11
443.5317974893
 21
568.5215410166
 31
0.0
  0
LINE
  5
455
  8
0
  6
CONTINUOUS
 62
     7
 10
478.2658081858
 20
611.5692671709
 30
0.0
 11
439.3749099581
 21
572.6783987456
 31
0.0
  0
LINE
  5
456
  8
0
  6
CONTINUOUS
 62
     7
 10
482.4226361124
 20
607.412409442
 30
0.0
 11
478.2658081858
 21
611.5692671709
 31
0.0
  0
ARC
  5
457
  8
0
  6
CONTINUOUS
 62
     7
 10
483.9226567361
 20
607.4124050439
 30
0.0
 40
1.499999143658741
 50
179.9998604597
 51
359.9998604597
  0
LINE
  5
458
  8
0
  6
CONTINUOUS
 62
     7
 10
521.3135343401
 20
643.3032717877
 30
0.0
 11
485.4226570932
 21
607.4123945408
 31
0.0
  0
ARC
  5
459
  8
0
  6
CONTINUOUS
 62
     7
 10
521.3135309797
 20
644.8032767308
 30
0.0
 40
1.500002374899891
 50
269.9999184625
 51
89.9999184625
  0
LINE
  5
45A
  8
0
  6
CONTINUOUS
 62
     7
 10
517.1566468088
 20
650.4601355963
 30
0.0
 11
521.3135343401
 21
646.3032778674
 31
0.0
  0
LINE
  5
45B
  8
0
  6
CONTINUOUS
 62
     7
 10
559.583054146
 20
692.8865429335
 30
0.0
 11
517.1566468088
 21
650.4601355963
 31
0.0
  0
LINE
  5
45C
  8
0
  6
CONTINUOUS
 62
     7
 10
602.0094912855
 20
650.4601355963
 30
0.0
 11
559.583054146
 21
692.8865429335
 31
0.0
  0
LINE
  5
45D
  8
0
  6
CONTINUOUS
 62
     7
 10
597.8526335565
 20
646.3032778674
 30
0.0
 11
602.0094912855
 21
650.4601355963
 31
0.0
  0
ARC
  5
45E
  8
0
  6
CONTINUOUS
 62
     7
 10
597.8526319562
 20
644.8032767308
 30
0.0
 40
1.500002374899777
 50
90.0000815375
 51
270.0000815375
  0
LINE
  5
45F
  8
0
  6
CONTINUOUS
 62
     7
 10
633.7435108034
 20
607.4123945408
 30
0.0
 11
597.8526335565
 21
643.3032717877
 31
0.0
  0
ARC
  5
460
  8
0
  6
CONTINUOUS
 62
     7
 10
635.2435061997
 20
607.4124050439
 30
0.0
 40
1.499999143658684
 50
180.0001395403
 51
0.0001395403
  0
LINE
  5
461
  8
0
  6
CONTINUOUS
 62
     7
 10
640.9003597109
 20
611.5692671709
 30
0.0
 11
636.7435019819
 21
607.412409442
 31
0.0
  0
LINE
  5
462
  8
0
  6
CONTINUOUS
 62
     7
 10
679.7912281362
 20
572.6783987456
 30
0.0
 11
640.9003597109
 21
611.5692671709
 31
0.0
  0
LINE
  5
463
  8
0
  6
CONTINUOUS
 62
     7
 10
675.6343704073
 20
568.5215410166
 30
0.0
 11
679.7912281362
 21
572.6783987456
 31
0.0
  0
ARC
  5
464
  8
0
  6
CONTINUOUS
 62
     7
 10
675.6343794661
 20
567.0215323797
 30
0.0
 40
1.500003954275474
 50
90.0000212084
 51
270.0000212084
  0
LINE
  5
465
  8
0
  6
CONTINUOUS
 62
     7
 10
711.5252476541
 20
529.6306576901
 30
0.0
 11
675.6343704073
 21
565.5215349369
 31
0.0
  0
ARC
  5
466
  8
0
  6
CONTINUOUS
 62
     7
 10
713.0252514448
 20
529.6306604011
 30
0.0
 40
1.499998458170646
 50
180.0001887278
 51
0.0001887278
  0
LINE
  5
467
  8
0
  6
CONTINUOUS
 62
     7
 10
718.6820965616
 20
533.7875228696
 30
0.0
 11
714.5252388327
 21
529.6306651407
 31
0.0
  0
LINE
  5
468
  8
0
  6
CONTINUOUS
 62
     7
 10
757.572964987
 20
494.8966469937
 30
0.0
 11
718.6820965616
 21
533.7875228696
 31
0.0
  0
LINE
  5
469
  8
0
  6
CONTINUOUS
 62
     7
 10
753.4161370603
 20
490.7397967153
 30
0.0
 11
757.572964987
 21
494.8966469937
 31
0.0
  0
ARC
  5
46A
  8
0
  6
CONTINUOUS
 62
     7
 10
753.4161249653
 20
489.2397879911
 30
0.0
 40
1.500005496166449
 50
90.0000376837
 51
270.0000376837
  0
LINE
  5
46B
  8
0
  6
CONTINUOUS
 62
     7
 10
789.3069845049
 20
451.8489096635
 30
0.0
 11
753.4161370603
 21
487.739783185
 31
0.0
  0
ARC
  5
46C
  8
0
  6
CONTINUOUS
 62
     7
 10
790.8069979306
 20
451.8489150258
 30
0.0
 40
1.499999013459111
 50
180.000209938
 51
0.000209938
  0
LINE
  5
46D
  8
0
  6
CONTINUOUS
 62
     7
 10
796.4638632147
 20
456.005774843
 30
0.0
 11
792.3070054857
 21
451.8489208393
 31
0.0
  0
LINE
  5
46E
  8
0
  6
CONTINUOUS
 62
     7
 10
817.5830703585
 20
434.8865453475
 30
0.0
 11
796.4638632147
 21
456.005774843
 31
0.0
  0
LINE
  5
46F
  8
0
  6
CONTINUOUS
 62
     7
 10
817.5830703585
 20
406.0383741134
 30
0.0
 11
817.5830703585
 21
434.8865453475
 31
0.0
  0
LINE
  5
470
  8
0
  6
CONTINUOUS
 62
     7
 10
811.7044132559
 20
406.0383741134
 30
0.0
 11
817.5830703585
 21
406.0383741134
 31
0.0
  0
ARC
  5
471
  8
0
  6
CONTINUOUS
 62
     7
 10
810.6437418776
 20
404.9777096759
 30
0.0
 40
1.500003358738487
 50
45.0001153059
 51
225.0001153059
  0
LINE
  5
472
  8
0
  6
CONTINUOUS
 62
     7
 10
809.5830839483
 20
353.1596850925
 30
0.0
 11
809.5830839483
 21
403.9170448058
 31
0.0
  0
ARC
  5
473
  8
0
  6
CONTINUOUS
 62
     7
 10
810.6437418776
 20
352.0990300193
 30
0.0
 40
1.499996981231407
 50
135.0001282974
 51
315.0001282974
  0
LINE
  5
474
  8
0
  6
CONTINUOUS
 62
     7
 10
817.5830703585
 20
351.0383706861
 30
0.0
 11
811.7044132559
 21
351.0383706861
 31
0.0
  0
LINE
  5
475
  8
0
  6
CONTINUOUS
 62
     7
 10
817.5830703585
 20
296.0383709841
 30
0.0
 11
817.5830703585
 21
351.0383706861
 31
0.0
  0
LINE
  5
476
  8
0
  6
CONTINUOUS
 62
     7
 10
811.7044132559
 20
296.0383709841
 30
0.0
 11
817.5830703585
 21
296.0383709841
 31
0.0
  0
ARC
  5
477
  8
0
  6
CONTINUOUS
 62
     7
 10
810.6437418777
 20
294.9777141854
 30
0.0
 40
1.500000169971268
 50
44.9999935063
 51
224.9999935063
  0
LINE
  5
478
  8
0
  6
CONTINUOUS
 62
     7
 10
809.5830839483
 20
243.1596931391
 30
0.0
 11
809.5830839483
 21
293.9170565777
 31
0.0
  0
ARC
  5
479
  8
0
  6
CONTINUOUS
 62
     7
 10
810.6437416372
 20
242.0990345289
 30
0.0
 40
1.499999999953266
 50
135.0
 51
315.000000001
  0
LINE
  5
47A
  8
0
  6
CONTINUOUS
 62
     7
 10
817.5830703585
 20
241.0383787327
 30
0.0
 11
811.7044132559
 21
241.0383787327
 31
0.0
  0
LINE
  5
47B
  8
0
  6
CONTINUOUS
 62
     7
 10
817.5830703585
 20
186.0383715802
 30
0.0
 11
817.5830703585
 21
241.0383787327
 31
0.0
  0
LINE
  5
47C
  8
0
  6
CONTINUOUS
 62
     7
 10
811.7044132559
 20
186.0383715802
 30
0.0
 11
817.5830703585
 21
186.0383715802
 31
0.0
  0
ARC
  5
47D
  8
0
  6
CONTINUOUS
 62
     7
 10
810.643742118
 20
184.9777141854
 30
0.0
 40
1.500000000057852
 50
44.9999999994
 51
224.9999999994
  0
LINE
  5
47E
  8
0
  6
CONTINUOUS
 62
     7
 10
809.5830839483
 20
133.1597086363
 30
0.0
 11
809.5830839483
 21
183.9170571738
 31
0.0
  0
ARC
  5
47F
  8
0
  6
CONTINUOUS
 62
     7
 10
810.6437421179
 20
132.0990345289
 30
0.0
 40
1.500000000000032
 50
134.9999999998
 51
315.0000000017
  0
LINE
  5
480
  8
0
  6
CONTINUOUS
 62
     7
 10
817.5830703585
 20
131.0383793288
 30
0.0
 11
811.7044132559
 21
131.0383793288
 31
0.0
  0
LINE
  5
481
  8
0
  6
CONTINUOUS
 62
     7
 10
817.5830703585
 20
31.0383852892
 30
0.0
 11
817.5830703585
 21
131.0383793288
 31
0.0
  0
CIRCLE
  5
482
  8
0
  6
CONTINUOUS
 62
     7
 10
813.5830812249
 20
106.0383743572
 30
0.0
 40
1.0
  0
CIRCLE
  5
483
  8
0
  6
CONTINUOUS
 62
     7
 10
813.5830812249
 20
323.5383743572
 30
0.0
 40
1.0
  0
CIRCLE
  5
484
  8
0
  6
CONTINUOUS
 62
     7
 10
813.5830812249
 20
56.0383743572
 30
0.0
 40
1.0
  0
CIRCLE
  5
485
  8
0
  6
CONTINUOUS
 62
     7
 10
305.583081711
 20
106.0383743572
 30
0.0
 40
0.9999999999998863
  0
CIRCLE
  5
486
  8
0
  6
CONTINUOUS
 62
     7
 10
577.9678577788
 20
668.8449139342
 30
0.0
 40
0.9999999999998863
  0
CIRCLE
  5
487
  8
0
  6
CONTINUOUS
 62
     7
 10
735.2991146197
 20
511.5136570934
 30
0.0
 40
0.99999999997533
  0
CIRCLE
  5
488
  8
0
  6
CONTINUOUS
 62
     7
 10
541.1983051571
 20
668.8449139342
 30
0.0
 40
1.0
  0
CIRCLE
  5
489
  8
0
  6
CONTINUOUS
 62
     7
 10
383.8670483162
 20
511.5136570934
 30
0.0
 40
0.9999999999740226
  0
LINE
  5
48A
  8
0
  6
CONTINUOUS
 62
     7
 10
318.7044125406
 20
126.0383840971
 30
0.0
 11
485.6756192057
 21
126.0383840971
 31
0.0
  0
ARC
  5
48B
  8
0
  6
CONTINUOUS
 62
     7
 10
486.7362706045
 20
127.0990300194
 30
0.0
 40
1.499996981255855
 50
224.9998717039
 51
44.9998717039
  0
LINE
  5
48C
  8
0
  6
CONTINUOUS
 62
     7
 10
487.7969485132
 20
128.1596836024
 30
0.0
 11
487.7969485132
 21
410.8190852538
 31
0.0
  0
ARC
  5
48D
  8
0
  6
CONTINUOUS
 62
     7
 10
486.7362706045
 20
411.8797454925
 30
0.0
 40
1.500000170014437
 50
315.0000064941
 51
135.0000064941
  0
LINE
  5
48E
  8
0
  6
CONTINUOUS
 62
     7
 10
485.6756192057
 20
412.9404057138
 30
0.0
 11
318.7044125406
 21
412.9404057138
 31
0.0
  0
ARC
  5
48F
  8
0
  6
CONTINUOUS
 62
     7
 10
317.6437414018
 20
411.8797454925
 30
0.0
 40
1.499999829992762
 50
45.0000064938
 51
225.0000064938
  0
LINE
  5
490
  8
0
  6
CONTINUOUS
 62
     7
 10
316.5830832331
 20
410.8190852538
 30
0.0
 11
316.5830832331
 21
128.1596836024
 31
0.0
  0
ARC
  5
491
  8
0
  6
CONTINUOUS
 62
     7
 10
317.6437414019
 20
127.0990300194
 30
0.0
 40
1.499996641294724
 50
135.0001153079
 51
315.0001153079
  0
LINE
  5
492
  8
0
  6
CONTINUOUS
 62
     7
 10
800.461755356
 20
412.9404057138
 30
0.0
 11
633.490548691
 21
412.9404057138
 31
0.0
  0
ARC
  5
493
  8
0
  6
CONTINUOUS
 62
     7
 10
632.4298918505
 20
411.8797454925
 30
0.0
 40
1.499999829985205
 50
45.0000064941
 51
225.0000064941
  0
LINE
  5
494
  8
0
  6
CONTINUOUS
 62
     7
 10
631.3692193834
 20
410.8190852538
 30
0.0
 11
631.3692193834
 21
128.1596836024
 31
0.0
  0
ARC
  5
495
  8
0
  6
CONTINUOUS
 62
     7
 10
632.4298918505
 20
127.0990300194
 30
0.0
 40
1.499996641225941
 50
135.0001153079
 51
315.0001153079
  0
LINE
  5
496
  8
0
  6
CONTINUOUS
 62
     7
 10
633.490548691
 20
126.0383840971
 30
0.0
 11
800.461755356
 21
126.0383840971
 31
0.0
  0
ARC
  5
497
  8
0
  6
CONTINUOUS
 62
     7
 10
801.522421534
 20
127.0990300194
 30
0.0
 40
1.499996641294714
 50
224.9998846921
 51
44.9998846921
  0
LINE
  5
498
  8
0
  6
CONTINUOUS
 62
     7
 10
802.5830846636
 20
128.1596836024
 30
0.0
 11
802.5830846636
 21
410.8190852538
 31
0.0
  0
ARC
  5
499
  8
0
  6
CONTINUOUS
 62
     7
 10
801.522421534
 20
411.8797454925
 30
0.0
 40
1.499999829992882
 50
314.9999935062
 51
134.9999935062
  0
LINE
  5
49A
  8
0
  6
CONTINUOUS
 62
     7
 10
580.9205633013
 20
651.6739841872
 30
0.0
 11
538.2456045954
 21
651.6739841872
 31
0.0
  0
LINE
  5
49B
  8
0
  6
CONTINUOUS
 62
     7
 10
538.2456045954
 20
651.6739841872
 30
0.0
 11
314.8858409731
 21
428.0605217763
 31
0.0
  0
ARC
  5
49C
  8
0
  6
CONTINUOUS
 62
     7
 10
317.0083869414
 20
425.9404056625
 30
0.0
 40
3.0
 50
135.0325251554
 51
270.0
  0
LINE
  5
49D
  8
0
  6
CONTINUOUS
 62
     7
 10
317.0083623735
 20
422.9404054903
 30
0.0
 11
802.1577757208
 21
422.9404054903
 31
0.0
  0
ARC
  5
49E
  8
0
  6
CONTINUOUS
 62
     7
 10
802.1577759945
 20
425.9404056625
 30
0.0
 40
3.0
 50
270.0
 51
44.9674748446
  0
LINE
  5
49F
  8
0
  6
CONTINUOUS
 62
     7
 10
804.2802971212
 20
428.0605217763
 30
0.0
 11
580.9205633013
 21
651.6739841872
 31
0.0
  0
LINE
  5
4A0
  8
0
  6
CONTINUOUS
 62
     7
 10
499.918268284
 20
126.0383840971
 30
0.0
 11
619.2478996126
 21
126.0383840971
 31
0.0
  0
ARC
  5
4A1
  8
0
  6
CONTINUOUS
 62
     7
 10
620.308571507
 20
127.0990300194
 30
0.0
 40
1.499996981255644
 50
224.9998717039
 51
44.9998717039
  0
LINE
  5
4A2
  8
0
  6
CONTINUOUS
 62
     7
 10
621.3692289202
 20
128.1596836024
 30
0.0
 11
621.3692289202
 21
410.8190852538
 31
0.0
  0
ARC
  5
4A3
  8
0
  6
CONTINUOUS
 62
     7
 10
620.308571507
 20
411.8797454925
 30
0.0
 40
1.500000170014195
 50
315.0000064941
 51
135.0000064941
  0
LINE
  5
4A4
  8
0
  6
CONTINUOUS
 62
     7
 10
619.2478996126
 20
412.9404057138
 30
0.0
 11
499.918268284
 21
412.9404057138
 31
0.0
  0
ARC
  5
4A5
  8
0
  6
CONTINUOUS
 62
     7
 10
498.857590948
 20
411.8797454925
 30
0.0
 40
1.499999829984884
 50
45.0000064941
 51
225.0000064941
  0
LINE
  5
4A6
  8
0
  6
CONTINUOUS
 62
     7
 10
497.7969389765
 20
410.8190852538
 30
0.0
 11
497.7969389765
 21
128.1596836024
 31
0.0
  0
ARC
  5
4A7
  8
0
  6
CONTINUOUS
 62
     7
 10
498.857590948
 20
127.0990300194
 30
0.0
 40
1.49999664122562
 50
135.0001153079
 51
315.0001153079
  0
LINE
  5
4A8
  8
0
  6
CONTINUOUS
 62
     7
 10
341.585443577
 20
98.0383869582
 30
0.0
 11
432.585464081
 21
98.0383869582
 31
0.0
  0
ARC
  5
4A9
  8
0
  6
CONTINUOUS
 62
     7
 10
341.5854689678
 20
95.0383743572
 30
0.0
 40
3.000000000000114
 50
90.0
 51
180.0
  0
LINE
  5
4AA
  8
0
  6
CONTINUOUS
 62
     7
 10
338.5854822008
 20
66.038381713
 30
0.0
 11
338.5854822008
 21
95.0383659773
 31
0.0
  0
ARC
  5
4AB
  8
0
  6
CONTINUOUS
 62
     7
 10
341.5854689678
 20
66.0383743572
 30
0.0
 40
3.000000000000107
 50
180.0
 51
270.0
  0
LINE
  5
4AC
  8
0
  6
CONTINUOUS
 62
     7
 10
432.585464081
 20
63.0383607321
 30
0.0
 11
341.585443577
 21
63.0383607321
 31
0.0
  0
ARC
  5
4AD
  8
0
  6
CONTINUOUS
 62
     7
 10
432.5854689678
 20
66.0383743572
 30
0.0
 40
3.000000000000107
 50
270.0
 51
0.0
  0
LINE
  5
4AE
  8
0
  6
CONTINUOUS
 62
     7
 10
435.5854850618
 20
95.0383659773
 30
0.0
 11
435.5854850618
 21
66.038381713
 31
0.0
  0
ARC
  5
4AF
  8
0
  6
CONTINUOUS
 62
     7
 10
432.5854689678
 20
95.0383743572
 30
0.0
 40
3.000000000000114
 50
0.0
 51
90.0
  0
CIRCLE
  5
4B0
  8
0
  6
CONTINUOUS
 62
     7
 10
462.4954689678
 20
80.5383743572
 30
0.0
 40
12.0
  0
LINE
  5
4B1
  8
0
  6
CONTINUOUS
 62
     7
 10
301.5830975382
 20
296.0383709841
 30
0.0
 11
307.4617844431
 21
296.0383709841
 31
0.0
  0
LINE
  5
4B2
  8
0
  6
CONTINUOUS
 62
     7
 10
301.5830975382
 20
241.0383787327
 30
0.0
 11
301.5830975382
 21
186.0383715802
 31
0.0
  0
CIRCLE
  5
4B3
  8
0
  6
CONTINUOUS
 62
     7
 10
305.583081711
 20
56.0383743572
 30
0.0
 40
0.9999999999998863
  0
CIRCLE
  5
4B4
  8
0
  6
CONTINUOUS
 62
     7
 10
305.583081711
 20
323.5383743572
 30
0.0
 40
1.000000000000114
  0
LINE
  5
4B5
  8
0
  6
CONTINUOUS
 62
     7
 10
309.583054146
 20
293.9170565777
 30
0.0
 11
309.583054146
 21
243.1596931391
 31
0.0
  0
ARC
  5
4B6
  8
0
  6
CONTINUOUS
 62
     7
 10
308.5224208179
 20
184.9777141854
 30
0.0
 40
1.500000000057872
 50
315.0000000006
 51
135.0000000006
  0
LINE
  5
4B7
  8
0
  6
CONTINUOUS
 62
     7
 10
301.5830975382
 20
131.0383793288
 30
0.0
 11
301.5830975382
 21
31.0383852892
 31
0.0
  0
LINE
  5
4B8
  8
0
  6
CONTINUOUS
 62
     7
 10
301.5830975382
 20
186.0383715802
 30
0.0
 11
307.4617844431
 21
186.0383715802
 31
0.0
  0
ARC
  5
4B9
  8
0
  6
CONTINUOUS
 62
     7
 10
308.5224210583
 20
404.9777096759
 30
0.0
 40
1.500003358738446
 50
314.9998846941
 51
134.9998846941
  0
ARC
  5
4BA
  8
0
  6
CONTINUOUS
 62
     7
 10
308.5224212986
 20
242.0990345289
 30
0.0
 40
1.499999999953286
 50
224.999999999
 51
45.0
  0
LINE
  5
4BB
  8
0
  6
CONTINUOUS
 62
     7
 10
301.5830975382
 20
31.0383852892
 30
0.0
 11
817.5830703585
 21
31.0383852892
 31
0.0
  0
LINE
  5
4BC
  8
0
  6
CONTINUOUS
 62
     7
 10
309.583054146
 20
183.9170571738
 30
0.0
 11
309.583054146
 21
133.1597086363
 31
0.0
  0
LINE
  5
4BD
  8
0
  6
CONTINUOUS
 62
     7
 10
322.7023344843
 20
456.005774843
 30
0.0
 11
301.5830975382
 21
434.8865453475
 31
0.0
  0
LINE
  5
4BE
  8
0
  6
CONTINUOUS
 62
     7
 10
309.583054146
 20
403.9170448058
 30
0.0
 11
309.583054146
 21
353.1596850925
 31
0.0
  0
LINE
  5
4BF
  8
0
  6
CONTINUOUS
 62
     7
 10
301.5830975382
 20
351.0383706861
 30
0.0
 11
301.5830975382
 21
296.0383709841
 31
0.0
  0
ARC
  5
4C0
  8
0
  6
CONTINUOUS
 62
     7
 10
308.522420818
 20
132.0990345289
 30
0.0
 40
1.500000000000032
 50
224.9999999983
 51
45.0000000002
  0
CIRCLE
  5
4C1
  8
0
  6
CONTINUOUS
 62
     7
 10
305.583081711
 20
213.5383743572
 30
0.0
 40
0.9999999999998863
  0
LINE
  5
4C2
  8
0
  6
CONTINUOUS
 62
     7
 10
301.5830975382
 20
434.8865453475
 30
0.0
 11
301.5830975382
 21
406.0383741134
 31
0.0
  0
ARC
  5
4C3
  8
0
  6
CONTINUOUS
 62
     7
 10
308.5224210583
 20
352.0990300193
 30
0.0
 40
1.499996981231447
 50
224.9998717026
 51
44.9998717026
  0
LINE
  5
4C4
  8
0
  6
CONTINUOUS
 62
     7
 10
307.4617844431
 20
351.0383706861
 30
0.0
 11
301.5830975382
 21
351.0383706861
 31
0.0
  0
LINE
  5
4C5
  8
0
  6
CONTINUOUS
 62
     7
 10
301.5830975382
 20
406.0383741134
 30
0.0
 11
307.4617844431
 21
406.0383741134
 31
0.0
  0
ARC
  5
4C6
  8
0
  6
CONTINUOUS
 62
     7
 10
324.5830814705
 20
134.0383743572
 30
0.0
 40
3.0
 50
180.0
 51
270.0
  0
LINE
  5
4C7
  8
0
  6
CONTINUOUS
 62
     7
 10
324.5830994455
 20
131.0383793288
 30
0.0
 11
479.7969323007
 21
131.0383793288
 31
0.0
  0
ARC
  5
4C8
  8
0
  6
CONTINUOUS
 62
     7
 10
479.7969310167
 20
134.0383743572
 30
0.0
 40
3.0
 50
270.0
 51
0.0
  0
LINE
  5
4C9
  8
0
  6
CONTINUOUS
 62
     7
 10
482.7969532816
 20
134.0383705073
 30
0.0
 11
482.7969532816
 21
404.9404053339
 31
0.0
  0
ARC
  5
4CA
  8
0
  6
CONTINUOUS
 62
     7
 10
479.7969310167
 20
404.9404056643
 30
0.0
 40
3.0
 50
0.0
 51
90.0
  0
LINE
  5
4CB
  8
0
  6
CONTINUOUS
 62
     7
 10
479.7969323007
 20
407.9404058256
 30
0.0
 11
324.5830994455
 21
407.9404058256
 31
0.0
  0
ARC
  5
4CC
  8
0
  6
CONTINUOUS
 62
     7
 10
324.5830814705
 20
404.9404056643
 30
0.0
 40
3.0
 50
90.0
 51
180.0
  0
LINE
  5
4CD
  8
0
  6
CONTINUOUS
 62
     7
 10
321.5830784647
 20
404.9404053339
 30
0.0
 11
321.5830784647
 21
134.0383705073
 31
0.0
  0
ARC
  5
4CE
  8
0
  6
CONTINUOUS
 62
     7
 10
541.5592946457
 20
643.6739781525
 30
0.0
 40
3.000000000000105
 50
90.0
 51
135.0
  0
LINE
  5
4CF
  8
0
  6
CONTINUOUS
 62
     7
 10
326.7044287531
 20
433.061726796
 30
0.0
 11
539.4379955141
 21
645.7952972823
 31
0.0
  0
ARC
  5
4D0
  8
0
  6
CONTINUOUS
 62
     7
 10
328.8257221576
 20
430.9404056643
 30
0.0
 40
3.0
 50
135.0
 51
270.0
  0
LINE
  5
4D1
  8
0
  6
CONTINUOUS
 62
     7
 10
790.3404396383
 20
427.9404053786
 30
0.0
 11
328.825698456
 21
427.9404053786
 31
0.0
  0
ARC
  5
4D2
  8
0
  6
CONTINUOUS
 62
     7
 10
790.3404407783
 20
430.9404056643
 30
0.0
 40
3.000000000000024
 50
270.0
 51
45.0
  0
LINE
  5
4D3
  8
0
  6
CONTINUOUS
 62
     7
 10
579.7282021849
 20
645.7952972823
 30
0.0
 11
792.4617689459
 21
433.061726796
 31
0.0
  0
ARC
  5
4D4
  8
0
  6
CONTINUOUS
 62
     7
 10
577.6068682901
 20
643.6739781525
 30
0.0
 40
3.000000000000185
 50
45.0
 51
90.0
  0
LINE
  5
4D5
  8
0
  6
CONTINUOUS
 62
     7
 10
541.559265217
 20
646.6739740544
 30
0.0
 11
577.6068728773
 21
646.6739740544
 31
0.0
  0
ARC
  5
4D6
  8
0
  6
CONTINUOUS
 62
     7
 10
613.3692319192
 20
404.9404056643
 30
0.0
 40
3.000000000000114
 50
0.0
 51
90.0
  0
LINE
  5
4D7
  8
0
  6
CONTINUOUS
 62
     7
 10
613.36924251
 20
407.9404058256
 30
0.0
 11
505.7969551889
 21
407.9404058256
 31
0.0
  0
ARC
  5
4D8
  8
0
  6
CONTINUOUS
 62
     7
 10
505.7969310167
 20
134.0383743572
 30
0.0
 40
3.000000000000057
 50
180.0
 51
270.0
  0
LINE
  5
4D9
  8
0
  6
CONTINUOUS
 62
     7
 10
505.7969551889
 20
131.0383793288
 30
0.0
 11
613.36924251
 21
131.0383793288
 31
0.0
  0
ARC
  5
4DA
  8
0
  6
CONTINUOUS
 62
     7
 10
613.3692319192
 20
134.0383743572
 30
0.0
 40
3.0
 50
270.0
 51
0.0
  0
LINE
  5
4DB
  8
0
  6
CONTINUOUS
 62
     7
 10
616.3692336885
 20
134.0383705073
 30
0.0
 11
616.3692336885
 21
404.9404053339
 31
0.0
  0
LINE
  5
4DC
  8
0
  6
CONTINUOUS
 62
     7
 10
502.7969342081
 20
404.9404053339
 30
0.0
 11
502.7969342081
 21
134.0383705073
 31
0.0
  0
ARC
  5
4DD
  8
0
  6
CONTINUOUS
 62
     7
 10
505.7969310167
 20
404.9404056643
 30
0.0
 40
3.000000000000057
 50
90.0
 51
180.0
  0
ARC
  5
4DE
  8
0
  6
CONTINUOUS
 62
     7
 10
794.5830814654
 20
404.9404056643
 30
0.0
 40
3.0
 50
0.0
 51
90.0
  0
LINE
  5
4DF
  8
0
  6
CONTINUOUS
 62
     7
 10
639.3692355959
 20
407.9404058256
 30
0.0
 11
794.5830684511
 21
407.9404058256
 31
0.0
  0
LINE
  5
4E0
  8
0
  6
CONTINUOUS
 62
     7
 10
636.3692444174
 20
134.0383705073
 30
0.0
 11
636.3692444174
 21
404.9404053339
 31
0.0
  0
LINE
  5
4E1
  8
0
  6
CONTINUOUS
 62
     7
 10
794.5830684511
 20
131.0383793288
 30
0.0
 11
639.3692355959
 21
131.0383793288
 31
0.0
  0
ARC
  5
4E2
  8
0
  6
CONTINUOUS
 62
     7
 10
794.5830814654
 20
134.0383743572
 30
0.0
 40
3.0
 50
270.0
 51
0.0
  0
LINE
  5
4E3
  8
0
  6
CONTINUOUS
 62
     7
 10
797.5830894319
 20
404.9404053339
 30
0.0
 11
797.5830894319
 21
134.0383705073
 31
0.0
  0
ARC
  5
4E4
  8
0
  6
CONTINUOUS
 62
     7
 10
639.3692319192
 20
134.0383743572
 30
0.0
 40
3.000000000000114
 50
180.0
 51
270.0
  0
ARC
  5
4E5
  8
0
  6
CONTINUOUS
 62
     7
 10
639.3692319192
 20
404.9404056643
 30
0.0
 40
3.0
 50
90.0
 51
180.0
  0
CIRCLE
  5
4E6
  8
0
  6
CONTINUOUS
 62
     7
 10
1294.9560198586
 20
157.5132035605
 30
0.0
 40
11.90000000000003
  0
ARC
  5
4E7
  8
0
  6
CONTINUOUS
 62
     7
 10
1280.4560198586
 20
278.4132035605
 30
0.0
 40
2.900000000000034
 50
90.0
 51
180.0
  0
ARC
  5
4E8
  8
0
  6
CONTINUOUS
 62
     7
 10
1280.4560198586
 20
187.4132035605
 30
0.0
 40
2.900000000000006
 50
180.0
 51
270.0
  0
LINE
  5
4E9
  8
0
  6
CONTINUOUS
 62
     7
 10
1280.4560225813
 20
184.5132079297
 30
0.0
 11
1309.4560217468
 21
184.5132079297
 31
0.0
  0
LINE
  5
4EA
  8
0
  6
CONTINUOUS
 62
     7
 10
1277.5560181944
 20
278.4132030182
 30
0.0
 11
1277.5560181944
 21
187.4131974154
 31
0.0
  0
LINE
  5
4EB
  8
0
  6
CONTINUOUS
 62
     7
 10
1309.4560217468
 20
281.3132074051
 30
0.0
 11
1280.4560225813
 21
281.3132074051
 31
0.0
  0
ARC
  5
4EC
  8
0
  6
CONTINUOUS
 62
     7
 10
1309.4560198586
 20
278.4132035605
 30
0.0
 40
2.900000000000318
 50
360.0
 51
90.0
  0
ARC
  5
4ED
  8
0
  6
CONTINUOUS
 62
     7
 10
1309.4560198586
 20
187.4132035605
 30
0.0
 40
2.900000000000318
 50
270.0
 51
0.0
  0
LINE
  5
4EE
  8
0
  6
CONTINUOUS
 62
     7
 10
1312.3560261337
 20
187.4131974154
 30
0.0
 11
1312.3560261337
 21
278.4132030182
 31
0.0
  0
ARC
  5
4EF
  8
0
  6
CONTINUOUS
 62
     7
 10
1311.0858005648
 20
285.0132035605
 30
0.0
 40
10.00000000000006
 50
0.0
 51
90.0
  0
LINE
  5
4F0
  8
0
  6
CONTINUOUS
 62
     7
 10
1321.0857969133
 20
150.0131901675
 30
0.0
 11
1321.0857969133
 21
285.013210433
 31
0.0
  0
LINE
  5
4F1
  8
0
  6
CONTINUOUS
 62
     7
 10
1269.0857958404
 20
285.013210433
 30
0.0
 11
1269.0857958404
 21
150.0131901675
 31
0.0
  0
ARC
  5
4F2
  8
0
  6
CONTINUOUS
 62
     7
 10
1311.0858005648
 20
150.0132035605
 30
0.0
 40
10.00000000000003
 50
270.0
 51
0.0
  0
LINE
  5
4F3
  8
0
  6
CONTINUOUS
 62
     7
 10
1279.0858012049
 20
140.0131997042
 30
0.0
 11
1311.0858064501
 21
140.0131997042
 31
0.0
  0
ARC
  5
4F4
  8
0
  6
CONTINUOUS
 62
     7
 10
1279.0858005648
 20
150.0132035605
 30
0.0
 40
10.00000000000003
 50
180.0
 51
270.0
  0
ARC
  5
4F5
  8
0
  6
CONTINUOUS
 62
     7
 10
1279.0858005648
 20
285.0132035605
 30
0.0
 40
10.00000000000006
 50
90.0
 51
180.0
  0
LINE
  5
4F6
  8
0
  6
CONTINUOUS
 62
     7
 10
1311.0858064501
 20
295.0132008963
 30
0.0
 11
1279.0858012049
 21
295.0132008963
 31
0.0
  0
CIRCLE
  5
4F7
  8
0
  6
CONTINUOUS
 62
     7
 10
1183.3576282445
 20
166.9271665043
 30
0.0
 40
0.9999999999997726
  0
LINE
  5
4F8
  8
0
  6
CONTINUOUS
 62
     7
 10
1237.3576324789
 20
140.9271773272
 30
0.0
 11
1175.3576260416
 21
140.9271773272
 31
0.0
  0
LINE
  5
4F9
  8
0
  6
CONTINUOUS
 62
     7
 10
1175.3576260416
 20
140.9271773272
 30
0.0
 11
1175.3576260416
 21
190.9271594458
 31
0.0
  0
LINE
  5
4FA
  8
0
  6
CONTINUOUS
 62
     7
 10
1175.3576260416
 20
190.9271594458
 30
0.0
 11
1237.3576324789
 21
190.9271594458
 31
0.0
  0
LINE
  5
4FB
  8
0
  6
CONTINUOUS
 62
     7
 10
1237.3576324789
 20
190.9271594458
 30
0.0
 11
1237.3576324789
 21
140.9271773272
 31
0.0
  0
CIRCLE
  5
4FC
  8
0
  6
CONTINUOUS
 62
     7
 10
1229.3576282445
 20
144.9271665043
 30
0.0
 40
1.0
  0
CIRCLE
  5
4FD
  8
0
  6
CONTINUOUS
 62
     7
 10
1229.3576282445
 20
166.9271665043
 30
0.0
 40
1.000000000000227
  0
CIRCLE
  5
4FE
  8
0
  6
CONTINUOUS
 62
     7
 10
1183.3576282445
 20
144.9271665043
 30
0.0
 40
1.000000000000227
  0
LINE
  5
4FF
  8
0
  6
CONTINUOUS
 62
     7
 10
913.5830860941
 20
791.7536314898
 30
0.0
 11
823.5830825178
 21
791.7536314898
 31
0.0
  0
LINE
  5
500
  8
0
  6
CONTINUOUS
 62
     7
 10
913.5830860941
 20
791.7536314898
 30
0.0
 11
913.5830860941
 21
31.0383852892
 31
0.0
  0
CIRCLE
  5
501
  8
0
  6
CONTINUOUS
 62
     7
 10
843.5830814654
 20
51.0383743572
 30
0.0
 40
4.0
  0
LINE
  5
502
  8
0
  6
CONTINUOUS
 62
     7
 10
823.5830825178
 20
791.7536314898
 30
0.0
 11
823.5830825178
 21
31.0383852892
 31
0.0
  0
LINE
  5
503
  8
0
  6
CONTINUOUS
 62
     7
 10
823.5830825178
 20
31.0383852892
 30
0.0
 11
913.5830860941
 21
31.0383852892
 31
0.0
  0
CIRCLE
  5
504
  8
0
  6
CONTINUOUS
 62
     7
 10
1127.5830814654
 20
158.5383743572
 30
0.0
 40
0.9999999999997726
  0
CIRCLE
  5
505
  8
0
  6
CONTINUOUS
 62
     7
 10
1127.5830814654
 20
378.5383743572
 30
0.0
 40
1.0
  0
CIRCLE
  5
506
  8
0
  6
CONTINUOUS
 62
     7
 10
1127.5830814654
 20
602.2536435895
 30
0.0
 40
1.0
  0
CIRCLE
  5
507
  8
0
  6
CONTINUOUS
 62
     7
 10
1127.5830814654
 20
712.2536435895
 30
0.0
 40
1.0
  0
CIRCLE
  5
508
  8
0
  6
CONTINUOUS
 62
     7
 10
1127.5830814654
 20
492.2536435895
 30
0.0
 40
1.0
  0
CIRCLE
  5
509
  8
0
  6
CONTINUOUS
 62
     7
 10
1127.5830814654
 20
268.5383743572
 30
0.0
 40
0.9999999999997726
  0
LINE
  5
50A
  8
0
  6
CONTINUOUS
 62
     7
 10
926.583082637
 20
742.6323112421
 30
0.0
 11
926.583082637
 21
455.3215731256
 31
0.0
  0
ARC
  5
50B
  8
0
  6
CONTINUOUS
 62
     7
 10
927.6437416372
 20
454.260913168
 30
0.0
 40
1.500000000000133
 50
135.0
 51
315.0
  0
LINE
  5
50C
  8
0
  6
CONTINUOUS
 62
     7
 10
928.7043970434
 20
453.2002512687
 30
0.0
 11
1106.4617608098
 21
453.2002512687
 31
0.0
  0
ARC
  5
50D
  8
0
  6
CONTINUOUS
 62
     7
 10
1107.5224212936
 20
454.260913168
 30
0.0
 40
1.500000000000012
 50
225.0
 51
45.0
  0
LINE
  5
50E
  8
0
  6
CONTINUOUS
 62
     7
 10
1108.5830808042
 20
455.3215731256
 30
0.0
 11
1108.5830808042
 21
742.6323112421
 31
0.0
  0
ARC
  5
50F
  8
0
  6
CONTINUOUS
 62
     7
 10
1107.5224212936
 20
743.6929834177
 30
0.0
 40
1.500000000000173
 50
315.0
 51
135.0
  0
LINE
  5
510
  8
0
  6
CONTINUOUS
 62
     7
 10
1106.4617608098
 20
744.7536405497
 30
0.0
 11
928.7043970434
 21
744.7536405497
 31
0.0
  0
ARC
  5
511
  8
0
  6
CONTINUOUS
 62
     7
 10
927.6437416372
 20
743.6929834177
 30
0.0
 40
1.500000000000093
 50
45.0
 51
225.0
  0
LINE
  5
512
  8
0
  6
CONTINUOUS
 62
     7
 10
1106.4617608098
 20
416.5728359339
 30
0.0
 11
928.7043970434
 21
416.5728359339
 31
0.0
  0
ARC
  5
513
  8
0
  6
CONTINUOUS
 62
     7
 10
927.6437416372
 20
415.5121758264
 30
0.0
 40
1.500000000000052
 50
45.0
 51
225.0
  0
LINE
  5
514
  8
0
  6
CONTINUOUS
 62
     7
 10
926.583082637
 20
414.4515156558
 30
0.0
 11
926.583082637
 21
128.1596836024
 31
0.0
  0
ARC
  5
515
  8
0
  6
CONTINUOUS
 62
     7
 10
927.6437416372
 20
127.099034529
 30
0.0
 40
1.500000000000072
 50
135.0
 51
315.0
  0
LINE
  5
516
  8
0
  6
CONTINUOUS
 62
     7
 10
928.7043970434
 20
126.0383840971
 30
0.0
 11
1106.4617608098
 21
126.0383840971
 31
0.0
  0
ARC
  5
517
  8
0
  6
CONTINUOUS
 62
     7
 10
1107.5224212936
 20
127.099034529
 30
0.0
 40
1.500000000000163
 50
225.0
 51
45.0
  0
LINE
  5
518
  8
0
  6
CONTINUOUS
 62
     7
 10
1108.5830808042
 20
128.1596836024
 30
0.0
 11
1108.5830808042
 21
414.4515156558
 31
0.0
  0
ARC
  5
519
  8
0
  6
CONTINUOUS
 62
     7
 10
1107.5224212936
 20
415.5121758264
 30
0.0
 40
1.500000000000133
 50
315.0
 51
135.0
  0
ARC
  5
51A
  8
0
  6
CONTINUOUS
 62
     7
 10
922.5224212936
 20
792.8143037612
 30
0.0
 40
1.500000000000093
 50
252.9687515418
 51
45.0
  0
LINE
  5
51B
  8
0
  6
CONTINUOUS
 62
     7
 10
923.5830765573
 20
799.7536477023
 30
0.0
 11
923.5830765573
 21
793.8749607973
 31
0.0
  0
LINE
  5
51C
  8
0
  6
CONTINUOUS
 62
     7
 10
1023.5830817727
 20
799.7536477023
 30
0.0
 11
923.5830765573
 21
799.7536477023
 31
0.0
  0
LINE
  5
51D
  8
0
  6
CONTINUOUS
 62
     7
 10
1023.5830817727
 20
793.8749607973
 30
0.0
 11
1023.5830817727
 21
799.7536477023
 31
0.0
  0
ARC
  5
51E
  8
0
  6
CONTINUOUS
 62
     7
 10
1024.6437416372
 20
792.8143037612
 30
0.0
 40
1.500000000000093
 50
135.0
 51
315.0
  0
LINE
  5
51F
  8
0
  6
CONTINUOUS
 62
     7
 10
1123.5830832629
 20
791.7536314898
 30
0.0
 11
1025.7044036297
 21
791.7536314898
 31
0.0
  0
LINE
  5
520
  8
0
  6
CONTINUOUS
 62
     7
 10
1123.5830832629
 20
741.8749746256
 30
0.0
 11
1123.5830832629
 21
791.7536314898
 31
0.0
  0
ARC
  5
521
  8
0
  6
CONTINUOUS
 62
     7
 10
1124.6437416372
 20
740.8143037612
 30
0.0
 40
1.500000000000012
 50
135.0
 51
315.0
  0
LINE
  5
522
  8
0
  6
CONTINUOUS
 62
     7
 10
1131.5830808489
 20
739.7536453181
 30
0.0
 11
1125.7044013945
 21
739.7536453181
 31
0.0
  0
LINE
  5
523
  8
0
  6
CONTINUOUS
 62
     7
 10
1131.5830808489
 20
684.7536381655
 30
0.0
 11
1131.5830808489
 21
739.7536453181
 31
0.0
  0
LINE
  5
524
  8
0
  6
CONTINUOUS
 62
     7
 10
1125.7044013945
 20
684.7536381655
 30
0.0
 11
1131.5830808489
 21
684.7536381655
 31
0.0
  0
ARC
  5
525
  8
0
  6
CONTINUOUS
 62
     7
 10
1124.6437416372
 20
683.6929834177
 30
0.0
 40
1.500000000000173
 50
45.0
 51
225.0
  0
LINE
  5
526
  8
0
  6
CONTINUOUS
 62
     7
 10
1123.5830832629
 20
631.8749603205
 30
0.0
 11
1123.5830832629
 21
682.632308858
 31
0.0
  0
ARC
  5
527
  8
0
  6
CONTINUOUS
 62
     7
 10
1124.6437416372
 20
630.8143037612
 30
0.0
 40
1.500000000000093
 50
135.0
 51
315.0
  0
LINE
  5
528
  8
0
  6
CONTINUOUS
 62
     7
 10
1131.5830808489
 20
629.7536459141
 30
0.0
 11
1125.7044013945
 21
629.7536459141
 31
0.0
  0
LINE
  5
529
  8
0
  6
CONTINUOUS
 62
     7
 10
1131.5830808489
 20
574.7536387616
 30
0.0
 11
1131.5830808489
 21
629.7536459141
 31
0.0
  0
LINE
  5
52A
  8
0
  6
CONTINUOUS
 62
     7
 10
1125.7044013945
 20
574.7536387616
 30
0.0
 11
1131.5830808489
 21
574.7536387616
 31
0.0
  0
ARC
  5
52B
  8
0
  6
CONTINUOUS
 62
     7
 10
1124.6437416372
 20
573.6929834177
 30
0.0
 40
1.500000000000173
 50
45.0
 51
225.0
  0
LINE
  5
52C
  8
0
  6
CONTINUOUS
 62
     7
 10
1123.5830832629
 20
521.8749609166
 30
0.0
 11
1123.5830832629
 21
572.6323243552
 31
0.0
  0
ARC
  5
52D
  8
0
  6
CONTINUOUS
 62
     7
 10
1124.6437416372
 20
520.8143037612
 30
0.0
 40
1.499999999999932
 50
135.0
 51
315.0
  0
LINE
  5
52E
  8
0
  6
CONTINUOUS
 62
     7
 10
1131.5830808489
 20
519.7536465102
 30
0.0
 11
1125.7044013945
 21
519.7536465102
 31
0.0
  0
LINE
  5
52F
  8
0
  6
CONTINUOUS
 62
     7
 10
1131.5830808489
 20
464.7536430829
 30
0.0
 11
1131.5830808489
 21
519.7536465102
 31
0.0
  0
LINE
  5
530
  8
0
  6
CONTINUOUS
 62
     7
 10
1125.7044013945
 20
464.7536430829
 30
0.0
 11
1131.5830808489
 21
464.7536430829
 31
0.0
  0
ARC
  5
531
  8
0
  6
CONTINUOUS
 62
     7
 10
1124.6437416372
 20
463.6929834177
 30
0.0
 40
1.500000000000133
 50
45.0
 51
225.0
  0
LINE
  5
532
  8
0
  6
CONTINUOUS
 62
     7
 10
1123.5830832629
 20
408.1596945734
 30
0.0
 11
1123.5830832629
 21
462.6323249512
 31
0.0
  0
ARC
  5
533
  8
0
  6
CONTINUOUS
 62
     7
 10
1124.6437416372
 20
407.099034529
 30
0.0
 40
1.500000000000012
 50
135.0
 51
315.0
  0
LINE
  5
534
  8
0
  6
CONTINUOUS
 62
     7
 10
1131.5830808489
 20
406.0383741134
 30
0.0
 11
1125.7044013945
 21
406.0383741134
 31
0.0
  0
LINE
  5
535
  8
0
  6
CONTINUOUS
 62
     7
 10
1131.5830808489
 20
351.0383706861
 30
0.0
 11
1131.5830808489
 21
406.0383741134
 31
0.0
  0
LINE
  5
536
  8
0
  6
CONTINUOUS
 62
     7
 10
1125.7044013945
 20
351.0383706861
 30
0.0
 11
1131.5830808489
 21
351.0383706861
 31
0.0
  0
ARC
  5
537
  8
0
  6
CONTINUOUS
 62
     7
 10
1124.6437416372
 20
349.9777141854
 30
0.0
 40
1.500000000000133
 50
45.0
 51
225.0
  0
LINE
  5
538
  8
0
  6
CONTINUOUS
 62
     7
 10
1123.5830832629
 20
298.1596928411
 30
0.0
 11
1123.5830832629
 21
348.9170562797
 31
0.0
  0
ARC
  5
539
  8
0
  6
CONTINUOUS
 62
     7
 10
1124.6437416372
 20
297.099034529
 30
0.0
 40
1.500000000000133
 50
135.0
 51
315.0
  0
LINE
  5
53A
  8
0
  6
CONTINUOUS
 62
     7
 10
1131.5830808489
 20
296.0383709841
 30
0.0
 11
1125.7044013945
 21
296.0383709841
 31
0.0
  0
LINE
  5
53B
  8
0
  6
CONTINUOUS
 62
     7
 10
1131.5830808489
 20
241.0383787327
 30
0.0
 11
1131.5830808489
 21
296.0383709841
 31
0.0
  0
LINE
  5
53C
  8
0
  6
CONTINUOUS
 62
     7
 10
1125.7044013945
 20
241.0383787327
 30
0.0
 11
1131.5830808489
 21
241.0383787327
 31
0.0
  0
ARC
  5
53D
  8
0
  6
CONTINUOUS
 62
     7
 10
1124.6437416372
 20
239.9777141854
 30
0.0
 40
1.500000000000153
 50
45.0
 51
225.0
  0
LINE
  5
53E
  8
0
  6
CONTINUOUS
 62
     7
 10
1123.5830832629
 20
188.1597008877
 30
0.0
 11
1123.5830832629
 21
238.9170494252
 31
0.0
  0
ARC
  5
53F
  8
0
  6
CONTINUOUS
 62
     7
 10
1124.6437416372
 20
187.099034529
 30
0.0
 40
1.499999999999992
 50
135.0
 51
315.0
  0
LINE
  5
540
  8
0
  6
CONTINUOUS
 62
     7
 10
1131.5830808489
 20
186.0383715802
 30
0.0
 11
1125.7044013945
 21
186.0383715802
 31
0.0
  0
LINE
  5
541
  8
0
  6
CONTINUOUS
 62
     7
 10
1131.5830808489
 20
131.0383793288
 30
0.0
 11
1131.5830808489
 21
186.0383715802
 31
0.0
  0
LINE
  5
542
  8
0
  6
CONTINUOUS
 62
     7
 10
1125.7044013945
 20
131.0383793288
 30
0.0
 11
1131.5830808489
 21
131.0383793288
 31
0.0
  0
ARC
  5
543
  8
0
  6
CONTINUOUS
 62
     7
 10
1124.6437416372
 20
129.9777141854
 30
0.0
 40
1.500000000000153
 50
45.0
 51
225.0
  0
LINE
  5
544
  8
0
  6
CONTINUOUS
 62
     7
 10
1123.5830832629
 20
31.0383852892
 30
0.0
 11
1123.5830832629
 21
128.9170500212
 31
0.0
  0
LINE
  5
545
  8
0
  6
CONTINUOUS
 62
     7
 10
922.0830809681
 20
31.0383852892
 30
0.0
 11
922.0830809681
 21
791.380089181
 31
0.0
  0
LINE
  5
546
  8
0
  6
CONTINUOUS
 62
     7
 10
922.0830809681
 20
31.0383852892
 30
0.0
 11
1123.5830832629
 21
31.0383852892
 31
0.0
  0
ARC
  5
547
  8
0
  6
CONTINUOUS
 62
     7
 10
922.5224212936
 20
792.8143037612
 30
0.0
 40
1.500000000000093
 50
225.0
 51
252.9687515418
  0
LINE
  5
548
  8
0
  6
CONTINUOUS
 62
     7
 10
921.4617621509
 20
791.7536314898
 30
0.0
 11
913.5830860941
 21
791.7536314898
 31
0.0
  0
LINE
  5
549
  8
0
  6
CONTINUOUS
 62
     7
 10
913.5830860941
 20
31.0383852892
 30
0.0
 11
922.0830809681
 21
31.0383852892
 31
0.0
  0
LINE
  5
54A
  8
0
  6
CONTINUOUS
 62
     7
 10
931.5830778686
 20
411.5728360456
 30
0.0
 11
931.5830778686
 21
131.0383793288
 31
0.0
  0
LINE
  5
54B
  8
0
  6
CONTINUOUS
 62
     7
 10
931.5830778686
 20
131.0383793288
 30
0.0
 11
1103.5830818472
 21
131.0383793288
 31
0.0
  0
LINE
  5
54C
  8
0
  6
CONTINUOUS
 62
     7
 10
1103.5830818472
 20
131.0383793288
 30
0.0
 11
1103.5830818472
 21
411.5728360456
 31
0.0
  0
LINE
  5
54D
  8
0
  6
CONTINUOUS
 62
     7
 10
1103.5830818472
 20
411.5728360456
 30
0.0
 11
931.5830778686
 21
411.5728360456
 31
0.0
  0
LINE
  5
54E
  8
0
  6
CONTINUOUS
 62
     7
 10
1103.5830818472
 20
458.2002539509
 30
0.0
 11
1103.5830818472
 21
739.7536453181
 31
0.0
  0
LINE
  5
54F
  8
0
  6
CONTINUOUS
 62
     7
 10
931.5830778686
 20
739.7536453181
 30
0.0
 11
931.5830778686
 21
458.2002539509
 31
0.0
  0
LINE
  5
550
  8
0
  6
CONTINUOUS
 62
     7
 10
1103.5830818472
 20
739.7536453181
 30
0.0
 11
931.5830778686
 21
739.7536453181
 31
0.0
  0
LINE
  5
551
  8
0
  6
CONTINUOUS
 62
     7
 10
931.5830778686
 20
458.2002539509
 30
0.0
 11
1103.5830818472
 21
458.2002539509
 31
0.0
  0
CIRCLE
  5
552
  8
0
  6
CONTINUOUS
 62
     7
 10
1141.5830814654
 20
158.5383743572
 30
0.0
 40
1.0
  0
CIRCLE
  5
553
  8
0
  6
CONTINUOUS
 62
     7
 10
1141.5830814654
 20
378.5383743572
 30
0.0
 40
1.0
  0
CIRCLE
  5
554
  8
0
  6
CONTINUOUS
 62
     7
 10
1141.5830814654
 20
602.2536435895
 30
0.0
 40
1.000000000000227
  0
LINE
  5
555
  8
0
  6
CONTINUOUS
 62
     7
 10
1372.583077511
 20
739.7536453181
 30
0.0
 11
1372.583077511
 21
458.2002539509
 31
0.0
  0
LINE
  5
556
  8
0
  6
CONTINUOUS
 62
     7
 10
1355.583087763
 20
739.7536453181
 30
0.0
 11
1372.583077511
 21
739.7536453181
 31
0.0
  0
LINE
  5
557
  8
0
  6
CONTINUOUS
 62
     7
 10
1355.583087763
 20
739.7536453181
 30
0.0
 11
1355.583087763
 21
789.3905159407
 31
0.0
  0
ARC
  5
558
  8
0
  6
CONTINUOUS
 62
     7
 10
1354.5616844803
 20
790.6220802722
 30
0.0
 40
1.600000000000166
 50
309.6706135285
 51
129.6706135285
  0
LINE
  5
559
  8
0
  6
CONTINUOUS
 62
     7
 10
1353.5402875749
 20
791.8536480837
 30
0.0
 11
1349.1258781759
 21
791.8536480837
 31
0.0
  0
ARC
  5
55A
  8
0
  6
CONTINUOUS
 62
     7
 10
1348.1044784504
 20
790.6220802722
 30
0.0
 40
1.60000000000002
 50
50.3293864715
 51
230.3293864715
  0
LINE
  5
55B
  8
0
  6
CONTINUOUS
 62
     7
 10
1347.0830779878
 20
789.3905159407
 30
0.0
 11
1347.0830779878
 21
739.7536453181
 31
0.0
  0
LINE
  5
55C
  8
0
  6
CONTINUOUS
 62
     7
 10
1165.5830826966
 20
739.7536453181
 30
0.0
 11
1347.0830779878
 21
739.7536453181
 31
0.0
  0
LINE
  5
55D
  8
0
  6
CONTINUOUS
 62
     7
 10
1165.5830826966
 20
458.2002539509
 30
0.0
 11
1165.5830826966
 21
739.7536453181
 31
0.0
  0
LINE
  5
55E
  8
0
  6
CONTINUOUS
 62
     7
 10
1347.0830779878
 20
458.2002539509
 30
0.0
 11
1165.5830826966
 21
458.2002539509
 31
0.0
  0
LINE
  5
55F
  8
0
  6
CONTINUOUS
 62
     7
 10
1347.0830779878
 20
458.2002539509
 30
0.0
 11
1347.0830779878
 21
31.0383852892
 31
0.0
  0
LINE
  5
560
  8
0
  6
CONTINUOUS
 62
     7
 10
1347.0830779878
 20
31.0383852892
 30
0.0
 11
1145.5830794184
 21
31.0383852892
 31
0.0
  0
LINE
  5
561
  8
0
  6
CONTINUOUS
 62
     7
 10
1145.5830794184
 20
31.0383852892
 30
0.0
 11
1145.5830794184
 21
128.9170500212
 31
0.0
  0
ARC
  5
562
  8
0
  6
CONTINUOUS
 62
     7
 10
1144.5224212936
 20
129.9777141854
 30
0.0
 40
1.500000000000113
 50
315.0
 51
135.0
  0
LINE
  5
563
  8
0
  6
CONTINUOUS
 62
     7
 10
1143.4617575614
 20
131.0383793288
 30
0.0
 11
1137.5830818323
 21
131.0383793288
 31
0.0
  0
LINE
  5
564
  8
0
  6
CONTINUOUS
 62
     7
 10
1137.5830818323
 20
131.0383793288
 30
0.0
 11
1137.5830818323
 21
186.0383715802
 31
0.0
  0
LINE
  5
565
  8
0
  6
CONTINUOUS
 62
     7
 10
1137.5830818323
 20
186.0383715802
 30
0.0
 11
1143.4617575614
 21
186.0383715802
 31
0.0
  0
ARC
  5
566
  8
0
  6
CONTINUOUS
 62
     7
 10
1144.5224212936
 20
187.099034529
 30
0.0
 40
1.500000000000153
 50
225.0
 51
45.0
  0
LINE
  5
567
  8
0
  6
CONTINUOUS
 62
     7
 10
1145.5830794184
 20
188.1597008877
 30
0.0
 11
1145.5830794184
 21
238.9170494252
 31
0.0
  0
ARC
  5
568
  8
0
  6
CONTINUOUS
 62
     7
 10
1144.5224212936
 20
239.9777141854
 30
0.0
 40
1.500000000000113
 50
315.0
 51
135.0
  0
LINE
  5
569
  8
0
  6
CONTINUOUS
 62
     7
 10
1143.4617575614
 20
241.0383787327
 30
0.0
 11
1137.5830818323
 21
241.0383787327
 31
0.0
  0
LINE
  5
56A
  8
0
  6
CONTINUOUS
 62
     7
 10
1137.5830818323
 20
241.0383787327
 30
0.0
 11
1137.5830818323
 21
296.0383709841
 31
0.0
  0
LINE
  5
56B
  8
0
  6
CONTINUOUS
 62
     7
 10
1137.5830818323
 20
296.0383709841
 30
0.0
 11
1143.4617575614
 21
296.0383709841
 31
0.0
  0
ARC
  5
56C
  8
0
  6
CONTINUOUS
 62
     7
 10
1144.5224212936
 20
297.099034529
 30
0.0
 40
1.500000000000173
 50
225.0
 51
45.0
  0
LINE
  5
56D
  8
0
  6
CONTINUOUS
 62
     7
 10
1145.5830794184
 20
298.1596928411
 30
0.0
 11
1145.5830794184
 21
348.9170562797
 31
0.0
  0
ARC
  5
56E
  8
0
  6
CONTINUOUS
 62
     7
 10
1144.5224212936
 20
349.9777141854
 30
0.0
 40
1.500000000000133
 50
315.0
 51
135.0
  0
LINE
  5
56F
  8
0
  6
CONTINUOUS
 62
     7
 10
1143.4617575614
 20
351.0383706861
 30
0.0
 11
1137.5830818323
 21
351.0383706861
 31
0.0
  0
LINE
  5
570
  8
0
  6
CONTINUOUS
 62
     7
 10
1137.5830818323
 20
351.0383706861
 30
0.0
 11
1137.5830818323
 21
406.0383741134
 31
0.0
  0
LINE
  5
571
  8
0
  6
CONTINUOUS
 62
     7
 10
1137.5830818323
 20
406.0383741134
 30
0.0
 11
1143.4617575614
 21
406.0383741134
 31
0.0
  0
ARC
  5
572
  8
0
  6
CONTINUOUS
 62
     7
 10
1144.5224212936
 20
407.099034529
 30
0.0
 40
1.500000000000173
 50
225.0
 51
45.0
  0
LINE
  5
573
  8
0
  6
CONTINUOUS
 62
     7
 10
1145.5830794184
 20
408.1596945734
 30
0.0
 11
1145.5830794184
 21
462.6323249512
 31
0.0
  0
ARC
  5
574
  8
0
  6
CONTINUOUS
 62
     7
 10
1144.5224212936
 20
463.6929834177
 30
0.0
 40
1.500000000000093
 50
315.0
 51
135.0
  0
LINE
  5
575
  8
0
  6
CONTINUOUS
 62
     7
 10
1143.4617575614
 20
464.7536430829
 30
0.0
 11
1137.5830818323
 21
464.7536430829
 31
0.0
  0
LINE
  5
576
  8
0
  6
CONTINUOUS
 62
     7
 10
1137.5830818323
 20
464.7536430829
 30
0.0
 11
1137.5830818323
 21
519.7536465102
 31
0.0
  0
LINE
  5
577
  8
0
  6
CONTINUOUS
 62
     7
 10
1137.5830818323
 20
519.7536465102
 30
0.0
 11
1143.4617575614
 21
519.7536465102
 31
0.0
  0
ARC
  5
578
  8
0
  6
CONTINUOUS
 62
     7
 10
1144.5224212936
 20
520.8143037612
 30
0.0
 40
1.500000000000173
 50
225.0
 51
45.0
  0
LINE
  5
579
  8
0
  6
CONTINUOUS
 62
     7
 10
1145.5830794184
 20
521.8749609166
 30
0.0
 11
1145.5830794184
 21
572.6323243552
 31
0.0
  0
ARC
  5
57A
  8
0
  6
CONTINUOUS
 62
     7
 10
1144.5224212936
 20
573.6929834177
 30
0.0
 40
1.500000000000093
 50
315.0
 51
135.0
  0
LINE
  5
57B
  8
0
  6
CONTINUOUS
 62
     7
 10
1143.4617575614
 20
574.7536387616
 30
0.0
 11
1137.5830818323
 21
574.7536387616
 31
0.0
  0
LINE
  5
57C
  8
0
  6
CONTINUOUS
 62
     7
 10
1137.5830818323
 20
574.7536387616
 30
0.0
 11
1137.5830818323
 21
629.7536459141
 31
0.0
  0
LINE
  5
57D
  8
0
  6
CONTINUOUS
 62
     7
 10
1137.5830818323
 20
629.7536459141
 30
0.0
 11
1143.4617575614
 21
629.7536459141
 31
0.0
  0
ARC
  5
57E
  8
0
  6
CONTINUOUS
 62
     7
 10
1144.5224212936
 20
630.8143037612
 30
0.0
 40
1.500000000000093
 50
225.0
 51
45.0
  0
LINE
  5
57F
  8
0
  6
CONTINUOUS
 62
     7
 10
1145.5830794184
 20
631.8749603205
 30
0.0
 11
1145.5830794184
 21
682.632308858
 31
0.0
  0
ARC
  5
580
  8
0
  6
CONTINUOUS
 62
     7
 10
1144.5224212936
 20
683.6929834177
 30
0.0
 40
1.500000000000173
 50
315.0
 51
135.0
  0
LINE
  5
581
  8
0
  6
CONTINUOUS
 62
     7
 10
1143.4617575614
 20
684.7536381655
 30
0.0
 11
1137.5830818323
 21
684.7536381655
 31
0.0
  0
LINE
  5
582
  8
0
  6
CONTINUOUS
 62
     7
 10
1137.5830818323
 20
684.7536381655
 30
0.0
 11
1137.5830818323
 21
739.7536453181
 31
0.0
  0
LINE
  5
583
  8
0
  6
CONTINUOUS
 62
     7
 10
1137.5830818323
 20
739.7536453181
 30
0.0
 11
1143.4617575614
 21
739.7536453181
 31
0.0
  0
ARC
  5
584
  8
0
  6
CONTINUOUS
 62
     7
 10
1144.5224212936
 20
740.8143037612
 30
0.0
 40
1.500000000000093
 50
225.0
 51
45.0
  0
LINE
  5
585
  8
0
  6
CONTINUOUS
 62
     7
 10
1145.5830794184
 20
741.8749746256
 30
0.0
 11
1145.5830794184
 21
799.7536477023
 31
0.0
  0
LINE
  5
586
  8
0
  6
CONTINUOUS
 62
     7
 10
1145.5830794184
 20
799.7536477023
 30
0.0
 11
1245.5830883591
 21
799.7536477023
 31
0.0
  0
LINE
  5
587
  8
0
  6
CONTINUOUS
 62
     7
 10
1245.5830883591
 20
799.7536477023
 30
0.0
 11
1245.5830883591
 21
793.8749607973
 31
0.0
  0
ARC
  5
588
  8
0
  6
CONTINUOUS
 62
     7
 10
1246.6437416372
 20
792.8143037612
 30
0.0
 40
1.500000000000093
 50
135.0
 51
315.0
  0
LINE
  5
589
  8
0
  6
CONTINUOUS
 62
     7
 10
1247.7044027655
 20
791.7536314898
 30
0.0
 11
1343.4617679922
 21
791.7536314898
 31
0.0
  0
LINE
  5
58A
  8
0
  6
CONTINUOUS
 62
     7
 10
1445.5830913393
 20
31.0383852892
 30
0.0
 11
1355.583087763
 21
31.0383852892
 31
0.0
  0
LINE
  5
58B
  8
0
  6
CONTINUOUS
 62
     7
 10
1355.583087763
 20
31.0383852892
 30
0.0
 11
1355.583087763
 21
458.2002539509
 31
0.0
  0
LINE
  5
58C
  8
0
  6
CONTINUOUS
 62
     7
 10
1372.583077511
 20
458.2002539509
 30
0.0
 11
1355.583087763
 21
458.2002539509
 31
0.0
  0
CIRCLE
  5
58D
  8
0
  6
CONTINUOUS
 62
     7
 10
1141.5830814654
 20
712.2536435895
 30
0.0
 40
1.000000000000227
  0
CIRCLE
  5
58E
  8
0
  6
CONTINUOUS
 62
     7
 10
1141.5830814654
 20
492.2536435895
 30
0.0
 40
1.000000000000227
  0
CIRCLE
  5
58F
  8
0
  6
CONTINUOUS
 62
     7
 10
1141.5830814654
 20
268.5383743572
 30
0.0
 40
1.0
  0
ARC
  5
590
  8
0
  6
CONTINUOUS
 62
     7
 10
1341.5224212936
 20
415.5121758264
 30
0.0
 40
1.499999999999972
 50
315.0
 51
135.0
  0
LINE
  5
591
  8
0
  6
CONTINUOUS
 62
     7
 10
1340.4617470114
 20
416.5728359339
 30
0.0
 11
1162.7044018714
 21
416.5728359339
 31
0.0
  0
ARC
  5
592
  8
0
  6
CONTINUOUS
 62
     7
 10
1161.6437416372
 20
415.5121758264
 30
0.0
 40
1.500000000000012
 50
45.0
 51
225.0
  0
LINE
  5
593
  8
0
  6
CONTINUOUS
 62
     7
 10
1160.5830800144
 20
414.4515156558
 30
0.0
 11
1160.5830800144
 21
128.1596836024
 31
0.0
  0
ARC
  5
594
  8
0
  6
CONTINUOUS
 62
     7
 10
1161.6437416372
 20
127.099034529
 30
0.0
 40
1.499999999999962
 50
135.0
 51
315.0
  0
LINE
  5
595
  8
0
  6
CONTINUOUS
 62
     7
 10
1162.7044018714
 20
126.0383840971
 30
0.0
 11
1340.4617470114
 21
126.0383840971
 31
0.0
  0
ARC
  5
596
  8
0
  6
CONTINUOUS
 62
     7
 10
1341.5224212936
 20
127.099034529
 30
0.0
 40
1.499999999999962
 50
225.0
 51
45.0
  0
LINE
  5
597
  8
0
  6
CONTINUOUS
 62
     7
 10
1342.5830763189
 20
128.1596836024
 30
0.0
 11
1342.5830763189
 21
414.4515156558
 31
0.0
  0
CIRCLE
  5
598
  8
0
  6
CONTINUOUS
 62
     7
 10
1425.5830814654
 20
51.0383743572
 30
0.0
 40
4.0
  0
ARC
  5
599
  8
0
  6
CONTINUOUS
 62
     7
 10
1344.5224212936
 20
792.8143037612
 30
0.0
 40
1.500000000000012
 50
225.0
 51
45.0
  0
LINE
  5
59A
  8
0
  6
CONTINUOUS
 62
     7
 10
1345.5830674974
 20
799.7536477023
 30
0.0
 11
1445.5830913393
 21
799.7536477023
 31
0.0
  0
LINE
  5
59B
  8
0
  6
CONTINUOUS
 62
     7
 10
1345.5830674974
 20
793.8749607973
 30
0.0
 11
1345.5830674974
 21
799.7536477023
 31
0.0
  0
LINE
  5
59C
  8
0
  6
CONTINUOUS
 62
     7
 10
1445.5830913393
 20
799.7536477023
 30
0.0
 11
1445.5830913393
 21
31.0383852892
 31
0.0
  0
LINE
  5
59D
  8
0
  6
CONTINUOUS
 62
     7
 10
1337.5830810873
 20
131.0383793288
 30
0.0
 11
1337.5830810873
 21
411.5728360456
 31
0.0
  0
LINE
  5
59E
  8
0
  6
CONTINUOUS
 62
     7
 10
1337.5830810873
 20
411.5728360456
 30
0.0
 11
1165.5830826966
 21
411.5728360456
 31
0.0
  0
LINE
  5
59F
  8
0
  6
CONTINUOUS
 62
     7
 10
1165.5830826966
 20
131.0383793288
 30
0.0
 11
1337.5830810873
 21
131.0383793288
 31
0.0
  0
LINE
  5
5A0
  8
0
  6
CONTINUOUS
 62
     7
 10
1165.5830826966
 20
411.5728360456
 30
0.0
 11
1165.5830826966
 21
131.0383793288
 31
0.0
  0
LINE
  5
5A1
  8
0
  6
CONTINUOUS
 62
     7
 10
1347.0830779878
 20
31.0383852892
 30
0.0
 11
1355.583087763
 21
31.0383852892
 31
0.0
  0
LINE
  5
5A2
  8
0
  6
CONTINUOUS
 62
     7
 10
1355.583087763
 20
458.2002539509
 30
0.0
 11
1347.0830779878
 21
458.2002539509
 31
0.0
  0
LINE
  5
5A3
  8
0
  6
CONTINUOUS
 62
     7
 10
1347.0830779878
 20
739.7536453181
 30
0.0
 11
1355.583087763
 21
739.7536453181
 31
0.0
  0
TEXT
  5
5A4
  8
0
  6
CONTINUOUS
 62
     7
 10
0.0
 20
38.4736788854
 30
0.0
 40
20.76
  1
Edition tudiante de SolidWorks.
 41
0.6671875
 11
0.0
 21
31.14
 31
0.0
 73
     1
  0
TEXT
  5
5A5
  8
0
  6
CONTINUOUS
 62
     7
 10
0.0
 20
7.3336788854
 30
0.0
 40
20.76
  1
A usage universitaire uniquement.
 41
0.6681818182
 11
0.0
 21
0.0
 31
0.0
 73
     1
  0
ENDSEC
  0
EOF
