  0
SECTION
  2
HEADER
  9
$ACADVER
  1
AC1009
  9
$DWGCODEPAGE
  3
ansi_1252
  9
$INSBASE
 10
0.0
 20
0.0
 30
0.0
  9
$EXTMIN
 10
0.0
 20
0.0
 30
0.0
  9
$EXTMAX
 10
210.0
 20
297.0
 30
0.0
  9
$LIMMIN
 10
0.0
 20
0.0
  9
$LIMMAX
 10
210.0
 20
297.0
  9
$ORTHOMODE
 70
     0
  9
$REGENMODE
 70
     1
  9
$FILLMODE
 70
     1
  9
$QTEXTMODE
 70
     0
  9
$MIRRTEXT
 70
     1
  9
$DRAGMODE
 70
     2
  9
$LTSCALE
 40
1.0
  9
$OSMODE
 70
    37
  9
$ATTMODE
 70
     1
  9
$TEXTSIZE
 40
3.5
  9
$TRACEWID
 40
1.0
  9
$TEXTSTYLE
  7
STANDARD
  9
$CLAYER
  8
0
  9
$CELTYPE
  6
BYLAYER
  9
$CECOLOR
 62
   256
  9
$DIMSCALE
 40
1.0
  9
$DIMASZ
 40
3.302
  9
$DIMEXO
 40
1.0
  9
$DIMDLI
 40
3.75
  9
$DIMRND
 40
0.0
  9
$DIMDLE
 40
0.0
  9
$DIMEXE
 40
1.0
  9
$DIMTP
 40
0.0
  9
$DIMTM
 40
0.0
  9
$DIMTXT
 40
3.5
  9
$DIMCEN
 40
2.5
  9
$DIMTSZ
 40
0.0
  9
$DIMTOL
 70
     0
  9
$DIMLIM
 70
     0
  9
$DIMTIH
 70
     1
  9
$DIMTOH
 70
     1
  9
$DIMSE1
 70
     0
  9
$DIMSE2
 70
     0
  9
$DIMTAD
 70
     1
  9
$DIMZIN
 70
     0
  9
$DIMBLK
  1

  9
$DIMASO
 70
     1
  9
$DIMSHO
 70
     1
  9
$DIMPOST
  1

  9
$DIMAPOST
  1

  9
$DIMALT
 70
     0
  9
$DIMALTD
 70
     3
  9
$DIMALTF
 40
0.0393700787
  9
$DIMLFAC
 40
2.0
  9
$DIMTOFL
 70
     1
  9
$DIMTVP
 40
0.0
  9
$DIMTIX
 70
     0
  9
$DIMSOXD
 70
     0
  9
$DIMSAH
 70
     0
  9
$DIMBLK1
  1

  9
$DIMBLK2
  1

  9
$DIMSTYLE
  2
ISO-25
  9
$DIMCLRD
 70
     0
  9
$DIMCLRE
 70
     0
  9
$DIMCLRT
 70
     0
  9
$DIMTFAC
 40
1.0
  9
$DIMGAP
 40
1.524
  9
$LUNITS
 70
     2
  9
$LUPREC
 70
     2
  9
$SKETCHINC
 40
1.0
  9
$FILLETRAD
 40
10.0
  9
$AUNITS
 70
     0
  9
$AUPREC
 70
     2
  9
$MENU
  1
.
  9
$ELEVATION
 40
0.0
  9
$PELEVATION
 40
0.0
  9
$THICKNESS
 40
0.0
  9
$LIMCHECK
 70
     0
  9
$CHAMFERA
 40
10.0
  9
$CHAMFERB
 40
10.0
  9
$SKPOLY
 70
     0
  9
$TDCREATE
 40
2456629.658727766
  9
$TDUPDATE
 40
2456629.65872794
  9
$TDINDWG
 40
0.0000000116
  9
$TDUSRTIMER
 40
0.0000000116
  9
$USRTIMER
 70
     1
  9
$ANGBASE
 50
0.0
  9
$ANGDIR
 70
     0
  9
$PDMODE
 70
     0
  9
$PDSIZE
 40
-1.0
  9
$PLINEWID
 40
0.0
  9
$COORDS
 70
     1
  9
$SPLFRAME
 70
     0
  9
$SPLINETYPE
 70
     6
  9
$SPLINESEGS
 70
     8
  9
$ATTDIA
 70
     0
  9
$ATTREQ
 70
     1
  9
$HANDLING
 70
     1
  9
$HANDSEED
  5
603
  9
$SURFTAB1
 70
     6
  9
$SURFTAB2
 70
     6
  9
$SURFTYPE
 70
     6
  9
$SURFU
 70
     6
  9
$SURFV
 70
     6
  9
$UCSNAME
  2

  9
$UCSORG
 10
0.0
 20
0.0
 30
0.0
  9
$UCSXDIR
 10
1.0
 20
0.0
 30
0.0
  9
$UCSYDIR
 10
0.0
 20
1.0
 30
0.0
  9
$PUCSNAME
  2

  9
$PUCSORG
 10
0.0
 20
0.0
 30
0.0
  9
$PUCSXDIR
 10
1.0
 20
0.0
 30
0.0
  9
$PUCSYDIR
 10
0.0
 20
1.0
 30
0.0
  9
$USERI1
 70
     0
  9
$USERI2
 70
     0
  9
$USERI3
 70
     0
  9
$USERI4
 70
     0
  9
$USERI5
 70
     0
  9
$USERR1
 40
0.0
  9
$USERR2
 40
0.0
  9
$USERR3
 40
0.0
  9
$USERR4
 40
0.0
  9
$USERR5
 40
0.0
  9
$WORLDVIEW
 70
     1
  9
$SHADEDGE
 70
     3
  9
$SHADEDIF
 70
    70
  9
$TILEMODE
 70
     1
  9
$MAXACTVP
 70
    64
  9
$PLIMCHECK
 70
     0
  9
$PEXTMIN
 10
1.0000000000E+20
 20
1.0000000000E+20
 30
1.0000000000E+20
  9
$PEXTMAX
 10
-1.0000000000E+20
 20
-1.0000000000E+20
 30
-1.0000000000E+20
  9
$PLIMMIN
 10
0.0
 20
0.0
  9
$PLIMMAX
 10
420.0
 20
297.0
  9
$UNITMODE
 70
     0
  9
$VISRETAIN
 70
     1
  9
$PLINEGEN
 70
     0
  9
$PSLTSCALE
 70
     1
  0
ENDSEC
  0
SECTION
  2
TABLES
  0
TABLE
  2
VPORT
 70
     1
  0
VPORT
  2
*ACTIVE
 70
     0
 10
0.0
 20
0.0
 11
1.0
 21
1.0
 12
105.0
 22
148.5
 13
0.0
 23
0.0
 14
10.0
 24
10.0
 15
10.0
 25
10.0
 16
0.0
 26
0.0
 36
1.0
 17
0.0
 27
0.0
 37
0.0
 40
297.0
 41
0.7070707071
 42
50.0
 43
0.0
 44
0.0
 50
0.0
 51
0.0
 71
     0
 72
  2000
 73
     1
 74
     3
 75
     0
 76
     0
 77
     0
 78
     0
  0
ENDTAB
  0
TABLE
  2
LTYPE
 70
     6
  0
LTYPE
  2
CONTINUOUS
 70
     0
  3
Solid line
 72
    65
 73
     0
 40
0.0
  0
LTYPE
  2
HIDDEN
 70
     0
  3
Hidden __ __ __ __ __ __ __ __ __ __ __ __ __ __
 72
    65
 73
     2
 40
1.905
 49
1.27
 49
-0.635
  0
LTYPE
  2
PHANTOM
 70
     0
  3
Phantom ______  __  __  ______  __  __  ______
 72
    65
 73
     6
 40
12.7
 49
6.35
 49
-1.27
 49
1.27
 49
-1.27
 49
1.27
 49
-1.27
  0
LTYPE
  2
CENTER
 70
     0
  3
Center ____ _ ____ _ ____ _ ____ _ ____ _ ____
 72
    65
 73
     4
 40
10.16
 49
6.35
 49
-1.27
 49
1.27
 49
-1.27
  0
LTYPE
  2
CENTERX2
 70
     0
  3
Center (2x) ________  __  ________  __  _____
 72
    65
 73
     4
 40
20.32
 49
12.7
 49
-2.54
 49
2.54
 49
-2.54
  0
LTYPE
  2
DOT2
 70
     0
  3
Dot (.5x) ........................................
 72
    65
 73
     2
 40
0.635
 49
0.0
 49
-0.635
  0
ENDTAB
  0
TABLE
  2
LAYER
 70
     1
  0
LAYER
  2
0
 70
     0
 62
     7
  6
CONTINUOUS
  0
ENDTAB
  0
TABLE
  2
STYLE
 70
     1
  0
STYLE
  2
STANDARD
 70
     0
 40
0.0
 41
1.0
 50
0.0
 71
     0
 42
3.5
  3
txt
  4

  0
ENDTAB
  0
TABLE
  2
VIEW
 70
     0
  0
ENDTAB
  0
TABLE
  2
UCS
 70
     0
  0
ENDTAB
  0
TABLE
  2
APPID
 70
     1
  0
APPID
  2
ACAD
 70
     0
  0
ENDTAB
  0
TABLE
  2
DIMSTYLE
 70
     1
  0
DIMSTYLE
  2
ISO-25
 70
     0
  3

  4

  5

  6

  7

 40
1.0
 41
2.5
 42
0.625
 43
3.75
 44
1.25
 45
0.0
 46
0.0
 47
0.0
 48
0.0
140
2.5
141
2.5
142
0.0
143
0.0393700787
144
1.0
145
0.0
146
1.0
147
0.625
 71
     0
 72
     0
 73
     0
 74
     0
 75
     0
 76
     0
 77
     1
 78
     8
170
     0
171
     3
172
     1
173
     0
174
     0
175
     0
176
     0
177
     0
178
     0
  0
ENDTAB
  0
ENDSEC
  0
SECTION
  2
BLOCKS
  0
BLOCK
  8
0
  2
$MODEL_SPACE
 70
     0
 10
0.0
 20
0.0
 30
0.0
  3
$MODEL_SPACE
  1

  0
ENDBLK
  5
21
  8
0
  0
BLOCK
 67
     1
  8
0
  2
$PAPER_SPACE
 70
     0
 10
0.0
 20
0.0
 30
0.0
  3
$PAPER_SPACE
  1

  0
ENDBLK
  5
1D
 67
     1
  8
0
  0
ENDSEC
  0
SECTION
  2
ENTITIES
  0
LINE
  5
44
  8
0
  6
CONTINUOUS
 62
     7
 10
116.0766595992
 20
181.2404040563
 30
0.0
 11
116.064832454
 21
177.8842926217
 31
0.0
  0
LINE
  5
45
  8
0
  6
CONTINUOUS
 62
     7
 10
116.9232643234
 20
177.8816182615
 30
0.0
 11
116.9360519496
 21
181.237776384
 31
0.0
  0
POLYLINE
  5
46
  8
0
  6
CONTINUOUS
 62
     7
 66
     1
 10
0.0
 20
0.0
 30
0.0
  0
VERTEX
  5
134
  8
0
  6
CONTINUOUS
 62
     7
 10
115.1684091335
 20
176.057675844
 30
0.0
  0
VERTEX
  5
135
  8
0
  6
CONTINUOUS
 62
     7
 10
115.4625696672
 20
176.0262792709
 30
0.0
  0
VERTEX
  5
136
  8
0
  6
CONTINUOUS
 62
     7
 10
115.9264588567
 20
176.1166804389
 30
0.0
  0
VERTEX
  5
137
  8
0
  6
CONTINUOUS
 62
     7
 10
116.3221014184
 20
176.3629444154
 30
0.0
  0
VERTEX
  5
138
  8
0
  6
CONTINUOUS
 62
     7
 10
116.6270311886
 20
176.7345217226
 30
0.0
  0
VERTEX
  5
139
  8
0
  6
CONTINUOUS
 62
     7
 10
116.8324673795
 20
177.215587853
 30
0.0
  0
VERTEX
  5
13A
  8
0
  6
CONTINUOUS
 62
     7
 10
116.9202344429
 20
177.7640766929
 30
0.0
  0
VERTEX
  5
13B
  8
0
  6
CONTINUOUS
 62
     7
 10
116.9232643234
 20
177.8816182615
 30
0.0
  0
SEQEND
  5
602
  8
0
  6
CONTINUOUS
 62
     7
  0
POLYLINE
  5
47
  8
0
  6
CONTINUOUS
 62
     7
 66
     1
 10
0.0
 20
0.0
 30
0.0
  0
VERTEX
  5
13C
  8
0
  6
CONTINUOUS
 62
     7
 10
116.064832454
 20
177.8842926217
 30
0.0
  0
VERTEX
  5
13D
  8
0
  6
CONTINUOUS
 62
     7
 10
116.0509079588
 20
177.6677677338
 30
0.0
  0
VERTEX
  5
13E
  8
0
  6
CONTINUOUS
 62
     7
 10
115.9513976338
 20
177.2930565642
 30
0.0
  0
VERTEX
  5
13F
  8
0
  6
CONTINUOUS
 62
     7
 10
115.7860171252
 20
177.036452693
 30
0.0
  0
VERTEX
  5
140
  8
0
  6
CONTINUOUS
 62
     7
 10
115.5972317534
 20
176.908840592
 30
0.0
  0
VERTEX
  5
141
  8
0
  6
CONTINUOUS
 62
     7
 10
115.3517791205
 20
176.8951383318
 30
0.0
  0
SEQEND
  5
601
  8
0
  6
CONTINUOUS
 62
     7
  0
ARC
  5
48
  8
0
  6
CONTINUOUS
 62
     7
 10
113.6715412486
 20
176.5388904317
 30
0.0
 40
1.594877657094236
 50
255.0846708592
 51
339.9843536864
  0
ARC
  5
49
  8
0
  6
CONTINUOUS
 62
     7
 10
113.7235977379
 20
177.0414403285
 30
0.0
 40
1.653278041898516
 50
356.8851541139
 51
78.1250338843
  0
LINE
  5
4A
  8
0
  6
CONTINUOUS
 62
     7
 10
114.5560526659
 20
176.1919829518
 30
0.0
 11
115.1684091335
 21
176.057675844
 31
0.0
  0
LINE
  5
4B
  8
0
  6
CONTINUOUS
 62
     7
 10
115.3517791205
 20
176.8951383318
 30
0.0
 11
114.7392611899
 21
177.0288356051
 31
0.0
  0
LINE
  5
4C
  8
0
  6
CONTINUOUS
 62
     7
 10
114.0683008927
 20
178.6643491129
 30
0.0
 11
113.2138879997
 21
178.8493165797
 31
0.0
  0
LINE
  5
4D
  8
0
  6
CONTINUOUS
 62
     7
 10
112.4098946492
 20
175.1751878923
 30
0.0
 11
113.2633176516
 21
174.986478986
 31
0.0
  0
LINE
  5
4E
  8
0
  6
CONTINUOUS
 62
     7
 10
111.8435686149
 20
175.2129442074
 30
0.0
 11
112.3303682347
 21
175.1052517457
 31
0.0
  0
LINE
  5
4F
  8
0
  6
CONTINUOUS
 62
     7
 10
113.1708327746
 20
178.9461084235
 30
0.0
 11
112.6834430029
 21
179.0515696326
 31
0.0
  0
LINE
  5
50
  8
0
  6
CONTINUOUS
 62
     7
 10
112.282742624
 20
179.0508954684
 30
0.0
 11
111.6038955495
 21
179.1978555913
 31
0.0
  0
LINE
  5
51
  8
0
  6
CONTINUOUS
 62
     7
 10
110.8017665645
 20
175.5307771969
 30
0.0
 11
111.4798276817
 21
175.3808443132
 31
0.0
  0
LINE
  5
52
  8
0
  6
CONTINUOUS
 62
     7
 10
110.2376017333
 20
175.5682249428
 30
0.0
 11
110.7225180203
 21
175.4609491222
 31
0.0
  0
LINE
  5
53
  8
0
  6
CONTINUOUS
 62
     7
 10
111.5610337821
 20
179.2944361029
 30
0.0
 11
111.0755300019
 21
179.3994892218
 31
0.0
  0
LINE
  5
54
  8
0
  6
CONTINUOUS
 62
     7
 10
110.6747634591
 20
179.3989986341
 30
0.0
 11
110.3910735381
 21
179.4604132107
 31
0.0
  0
LINE
  5
55
  8
0
  6
CONTINUOUS
 62
     7
 10
109.5903482104
 20
175.7986460404
 30
0.0
 11
109.873709864
 21
175.7359891075
 31
0.0
  0
LINE
  5
56
  8
0
  6
CONTINUOUS
 62
     7
 10
109.0278087081
 20
175.8358619412
 30
0.0
 11
109.5113086711
 21
175.7288994475
 31
0.0
  0
LINE
  5
57
  8
0
  6
CONTINUOUS
 62
     7
 10
110.348357222
 20
179.5568345849
 30
0.0
 11
109.8642717637
 21
179.6615808079
 31
0.0
  0
LINE
  5
58
  8
0
  6
CONTINUOUS
 62
     7
 10
109.4634668489
 20
179.6612260273
 30
0.0
 11
109.181793284
 21
179.7222040933
 31
0.0
  0
LINE
  5
59
  8
0
  6
CONTINUOUS
 62
     7
 10
108.3824668419
 20
176.0657327855
 30
0.0
 11
108.6638146292
 21
176.0035211589
 31
0.0
  0
LINE
  5
5A
  8
0
  6
CONTINUOUS
 62
     7
 10
107.8215455906
 20
176.1027180342
 30
0.0
 11
108.3036354258
 21
175.9960674966
 31
0.0
  0
LINE
  5
5B
  8
0
  6
CONTINUOUS
 62
     7
 10
109.1392217531
 20
179.818466847
 30
0.0
 11
108.6565484107
 21
179.9229075169
 31
0.0
  0
LINE
  5
5C
  8
0
  6
CONTINUOUS
 62
     7
 10
108.2557070553
 20
179.9226877532
 30
0.0
 11
107.5223659105
 21
180.081445018
 31
0.0
  0
LINE
  5
5D
  8
0
  6
CONTINUOUS
 62
     7
 10
106.7249579872
 20
176.4322411667
 30
0.0
 11
107.457451448
 21
176.2702722024
 31
0.0
  0
ARC
  5
5E
  8
0
  6
CONTINUOUS
 62
     7
 10
107.221003826
 20
178.2857689218
 30
0.0
 40
1.813702451236296
 50
80.6173657687
 51
183.4438317851
  0
ARC
  5
5F
  8
0
  6
CONTINUOUS
 62
     7
 10
107.1051292548
 20
178.0967513748
 30
0.0
 40
1.696443214630788
 50
177.2947595821
 51
256.9837256919
  0
LINE
  5
60
  8
0
  6
CONTINUOUS
 62
     7
 10
103.947119388
 20
183.8210564497
 30
0.0
 11
103.9488208181
 21
180.5108401323
 31
0.0
  0
LINE
  5
61
  8
0
  6
CONTINUOUS
 62
     7
 10
104.7946880038
 20
180.5111054489
 30
0.0
 11
104.7939190549
 21
183.821317126
 31
0.0
  0
ARC
  5
62
  8
0
  6
CONTINUOUS
 62
     7
 10
106.2806737038
 20
180.3679197135
 30
0.0
 40
1.492868264552832
 50
174.4961190874
 51
245.3595094413
  0
ARC
  5
63
  8
0
  6
CONTINUOUS
 62
     7
 10
106.251667786
 20
180.357397251
 30
0.0
 40
2.307953395421547
 50
176.1879129876
 51
250.399518011
  0
ARC
  5
64
  8
0
  6
CONTINUOUS
 62
     7
 10
100.8371160284
 20
252.6741857502
 30
0.0
 40
4.323134424511982
 50
29.2625613205
 51
62.3633987894
  0
ARC
  5
65
  8
0
  6
CONTINUOUS
 62
     7
 10
100.8833813818
 20
252.686265459
 30
0.0
 40
4.30913439320631
 50
112.9388880371
 51
150.9009287738
  0
POLYLINE
  5
66
  8
0
  6
CONTINUOUS
 62
     7
 66
     1
 10
0.0
 20
0.0
 30
0.0
  0
VERTEX
  5
142
  8
0
  6
CONTINUOUS
 62
     7
 10
104.5144941748
 20
254.4552590363
 30
0.0
  0
VERTEX
  5
143
  8
0
  6
CONTINUOUS
 62
     7
 10
104.5760624941
 20
254.5008857321
 30
0.0
  0
VERTEX
  5
144
  8
0
  6
CONTINUOUS
 62
     7
 10
104.6403686956
 20
254.6767833954
 30
0.0
  0
VERTEX
  5
145
  8
0
  6
CONTINUOUS
 62
     7
 10
104.5750243603
 20
254.8347219801
 30
0.0
  0
SEQEND
  5
600
  8
0
  6
CONTINUOUS
 62
     7
  0
LINE
  5
67
  8
0
  6
CONTINUOUS
 62
     7
 10
98.9196804309
 20
254.1026599419
 30
0.0
 11
98.9545989148
 21
237.7587119198
 31
0.0
  0
LINE
  5
68
  8
0
  6
CONTINUOUS
 62
     7
 10
102.8234825988
 20
237.7620165724
 30
0.0
 11
102.8092288523
 21
254.1055334677
 31
0.0
  0
LINE
  5
69
  8
0
  6
CONTINUOUS
 62
     7
 10
98.9706674978
 20
237.7222517946
 30
0.0
 11
100.8924020695
 21
235.5462908881
 31
0.0
  0
LINE
  5
6A
  8
0
  6
CONTINUOUS
 62
     7
 10
100.8924020695
 20
235.5462908881
 30
0.0
 11
102.8075302431
 21
237.7255299578
 31
0.0
  0
LINE
  5
6B
  8
0
  6
CONTINUOUS
 62
     7
 10
123.1533681163
 20
194.8970743244
 30
0.0
 11
123.1693391553
 21
197.6254795871
 31
0.0
  0
LINE
  5
6C
  8
0
  6
CONTINUOUS
 62
     7
 10
78.7226382172
 20
197.5749143084
 30
0.0
 11
78.7468317445
 21
194.8456992877
 31
0.0
  0
LINE
  5
6D
  8
0
  6
CONTINUOUS
 62
     7
 10
87.5905870655
 20
196.3277557749
 30
0.0
 11
87.5865245484
 21
197.0127759179
 31
0.0
  0
LINE
  5
6E
  8
0
  6
CONTINUOUS
 62
     7
 10
90.7163415445
 20
197.6859514853
 30
0.0
 11
90.7196800059
 21
197.0036297054
 31
0.0
  0
LINE
  5
6F
  8
0
  6
CONTINUOUS
 62
     7
 10
93.0460099854
 20
199.6660800705
 30
0.0
 11
93.0432435627
 21
200.3377598991
 31
0.0
  0
LINE
  5
70
  8
0
  6
CONTINUOUS
 62
     7
 10
90.5577384964
 20
127.9133074774
 30
0.0
 11
90.077549256
 21
128.349541085
 31
0.0
  0
LINE
  5
71
  8
0
  6
CONTINUOUS
 62
     7
 10
86.2497533843
 20
128.3252467693
 30
0.0
 11
85.7746108
 21
127.8828920417
 31
0.0
  0
LINE
  5
72
  8
0
  6
CONTINUOUS
 62
     7
 10
85.667027119
 20
127.677390304
 30
0.0
 11
86.1843928591
 21
50.6952564873
 31
0.0
  0
LINE
  5
73
  8
0
  6
CONTINUOUS
 62
     7
 10
91.0545200477
 20
50.7365810945
 30
0.0
 11
90.667705845
 21
127.7092185906
 31
0.0
  0
LINE
  5
74
  8
0
  6
CONTINUOUS
 62
     7
 10
86.3907363646
 20
50.3322369449
 30
0.0
 11
86.8399215743
 21
49.9540415253
 31
0.0
  0
LINE
  5
75
  8
0
  6
CONTINUOUS
 62
     7
 10
90.4079074028
 20
49.9843930616
 30
0.0
 11
90.8524959849
 21
50.3701430636
 31
0.0
  0
LINE
  5
76
  8
0
  6
CONTINUOUS
 62
     7
 10
116.8334688102
 20
120.3985139187
 30
0.0
 11
116.3433640903
 21
120.8495937487
 31
0.0
  0
LINE
  5
77
  8
0
  6
CONTINUOUS
 62
     7
 10
112.404902047
 20
120.8628636892
 30
0.0
 11
111.9121357109
 21
120.4151280864
 31
0.0
  0
LINE
  5
78
  8
0
  6
CONTINUOUS
 62
     7
 10
111.790917173
 20
120.1894680178
 30
0.0
 11
111.6213607296
 21
40.9814792798
 31
0.0
  0
LINE
  5
79
  8
0
  6
CONTINUOUS
 62
     7
 10
116.644795897
 20
40.9588713461
 30
0.0
 11
116.9533429994
 21
120.1720257875
 31
0.0
  0
LINE
  5
7A
  8
0
  6
CONTINUOUS
 62
     7
 10
111.8466871888
 20
40.5784691041
 30
0.0
 11
112.3032962558
 21
40.1891281261
 31
0.0
  0
LINE
  5
7B
  8
0
  6
CONTINUOUS
 62
     7
 10
115.958019702
 20
40.1726391696
 30
0.0
 11
116.4170093665
 21
40.5578727448
 31
0.0
  0
POLYLINE
  5
7C
  8
0
  6
CONTINUOUS
 62
     7
 66
     1
 10
0.0
 20
0.0
 30
0.0
  0
VERTEX
  5
146
  8
0
  6
CONTINUOUS
 62
     7
 10
126.7920206093
 20
221.8804115461
 30
0.0
  0
VERTEX
  5
147
  8
0
  6
CONTINUOUS
 62
     7
 10
126.785117402
 20
222.3978624857
 30
0.0
  0
VERTEX
  5
148
  8
0
  6
CONTINUOUS
 62
     7
 10
126.6083640816
 20
223.2004741358
 30
0.0
  0
VERTEX
  5
149
  8
0
  6
CONTINUOUS
 62
     7
 10
126.3041367627
 20
223.9091554884
 30
0.0
  0
VERTEX
  5
14A
  8
0
  6
CONTINUOUS
 62
     7
 10
125.9059831764
 20
224.5210815791
 30
0.0
  0
VERTEX
  5
14B
  8
0
  6
CONTINUOUS
 62
     7
 10
125.4352066208
 20
225.0467345696
 30
0.0
  0
VERTEX
  5
14C
  8
0
  6
CONTINUOUS
 62
     7
 10
124.892840148
 20
225.5072012724
 30
0.0
  0
VERTEX
  5
14D
  8
0
  6
CONTINUOUS
 62
     7
 10
124.2500601115
 20
225.930407664
 30
0.0
  0
VERTEX
  5
14E
  8
0
  6
CONTINUOUS
 62
     7
 10
123.4325342094
 20
226.3484898266
 30
0.0
  0
VERTEX
  5
14F
  8
0
  6
CONTINUOUS
 62
     7
 10
122.3151849652
 20
226.7870465064
 30
0.0
  0
VERTEX
  5
150
  8
0
  6
CONTINUOUS
 62
     7
 10
121.1354599663
 20
227.1483758349
 30
0.0
  0
VERTEX
  5
151
  8
0
  6
CONTINUOUS
 62
     7
 10
119.7598790067
 20
227.4865806446
 30
0.0
  0
VERTEX
  5
152
  8
0
  6
CONTINUOUS
 62
     7
 10
118.3254431637
 20
227.774538657
 30
0.0
  0
VERTEX
  5
153
  8
0
  6
CONTINUOUS
 62
     7
 10
116.8154197422
 20
228.0261012977
 30
0.0
  0
VERTEX
  5
154
  8
0
  6
CONTINUOUS
 62
     7
 10
115.2243678915
 20
228.2472803857
 30
0.0
  0
VERTEX
  5
155
  8
0
  6
CONTINUOUS
 62
     7
 10
113.5543474403
 20
228.4405672008
 30
0.0
  0
VERTEX
  5
156
  8
0
  6
CONTINUOUS
 62
     7
 10
111.8113162036
 20
228.606933364
 30
0.0
  0
VERTEX
  5
157
  8
0
  6
CONTINUOUS
 62
     7
 10
110.0035376357
 20
228.7466472901
 30
0.0
  0
VERTEX
  5
158
  8
0
  6
CONTINUOUS
 62
     7
 10
108.1407925211
 20
228.8596452979
 30
0.0
  0
VERTEX
  5
159
  8
0
  6
CONTINUOUS
 62
     7
 10
106.2338718449
 20
228.9457486595
 30
0.0
  0
VERTEX
  5
15A
  8
0
  6
CONTINUOUS
 62
     7
 10
104.2942300948
 20
229.0047578069
 30
0.0
  0
VERTEX
  5
15B
  8
0
  6
CONTINUOUS
 62
     7
 10
102.3338098625
 20
229.0365124429
 30
0.0
  0
VERTEX
  5
15C
  8
0
  6
CONTINUOUS
 62
     7
 10
100.3648585165
 20
229.0409220435
 30
0.0
  0
VERTEX
  5
15D
  8
0
  6
CONTINUOUS
 62
     7
 10
98.3997562683
 20
229.0179994764
 30
0.0
  0
VERTEX
  5
15E
  8
0
  6
CONTINUOUS
 62
     7
 10
96.4511027066
 20
228.967860804
 30
0.0
  0
VERTEX
  5
15F
  8
0
  6
CONTINUOUS
 62
     7
 10
94.5312428798
 20
228.8907140279
 30
0.0
  0
VERTEX
  5
160
  8
0
  6
CONTINUOUS
 62
     7
 10
92.652089132
 20
228.7868657724
 30
0.0
  0
VERTEX
  5
161
  8
0
  6
CONTINUOUS
 62
     7
 10
90.8252362443
 20
228.6566582875
 30
0.0
  0
VERTEX
  5
162
  8
0
  6
CONTINUOUS
 62
     7
 10
89.0615828437
 20
228.5004436402
 30
0.0
  0
VERTEX
  5
163
  8
0
  6
CONTINUOUS
 62
     7
 10
87.3711984942
 20
228.3184932611
 30
0.0
  0
VERTEX
  5
164
  8
0
  6
CONTINUOUS
 62
     7
 10
85.7629593466
 20
228.1108447366
 30
0.0
  0
VERTEX
  5
165
  8
0
  6
CONTINUOUS
 62
     7
 10
84.4824128766
 20
227.9164961449
 30
0.0
  0
SEQEND
  5
5FF
  8
0
  6
CONTINUOUS
 62
     7
  0
POLYLINE
  5
7D
  8
0
  6
CONTINUOUS
 62
     7
 66
     1
 10
0.0
 20
0.0
 30
0.0
  0
VERTEX
  5
166
  8
0
  6
CONTINUOUS
 62
     7
 10
84.4824128766
 20
227.9164961449
 30
0.0
  0
VERTEX
  5
167
  8
0
  6
CONTINUOUS
 62
     7
 10
83.7278337483
 20
227.787584646
 30
0.0
  0
VERTEX
  5
168
  8
0
  6
CONTINUOUS
 62
     7
 10
82.3315226414
 20
227.5144362317
 30
0.0
  0
VERTEX
  5
169
  8
0
  6
CONTINUOUS
 62
     7
 10
81.0345175654
 20
227.20871317
 30
0.0
  0
VERTEX
  5
16A
  8
0
  6
CONTINUOUS
 62
     7
 10
79.8211050739
 20
226.8578839183
 30
0.0
  0
VERTEX
  5
16B
  8
0
  6
CONTINUOUS
 62
     7
 10
78.6640512181
 20
226.4333351235
 30
0.0
  0
VERTEX
  5
16C
  8
0
  6
CONTINUOUS
 62
     7
 10
77.6334147689
 20
225.9312809762
 30
0.0
  0
VERTEX
  5
16D
  8
0
  6
CONTINUOUS
 62
     7
 10
76.9353893144
 20
225.4779588259
 30
0.0
  0
VERTEX
  5
16E
  8
0
  6
CONTINUOUS
 62
     7
 10
76.3571481193
 20
224.9851739859
 30
0.0
  0
VERTEX
  5
16F
  8
0
  6
CONTINUOUS
 62
     7
 10
75.8660516713
 20
224.4245934427
 30
0.0
  0
VERTEX
  5
170
  8
0
  6
CONTINUOUS
 62
     7
 10
75.4650636861
 20
223.781388365
 30
0.0
  0
VERTEX
  5
171
  8
0
  6
CONTINUOUS
 62
     7
 10
75.1752627495
 20
223.0575233066
 30
0.0
  0
VERTEX
  5
172
  8
0
  6
CONTINUOUS
 62
     7
 10
75.0219970311
 20
222.2743657557
 30
0.0
  0
VERTEX
  5
173
  8
0
  6
CONTINUOUS
 62
     7
 10
75.0252791676
 20
221.8331113799
 30
0.0
  0
SEQEND
  5
5FE
  8
0
  6
CONTINUOUS
 62
     7
  0
LINE
  5
7E
  8
0
  6
CONTINUOUS
 62
     7
 10
75.0025861128
 20
221.8297257112
 30
0.0
 11
75.0373094526
 21
218.362966407
 31
0.0
  0
LINE
  5
7F
  8
0
  6
CONTINUOUS
 62
     7
 10
126.7896491983
 20
218.4142472746
 30
0.0
 11
126.8139227142
 21
221.8797972659
 31
0.0
  0
LINE
  5
80
  8
0
  6
CONTINUOUS
 62
     7
 10
126.2508524627
 20
141.4897905536
 30
0.0
 11
126.3899865102
 21
161.354073898
 31
0.0
  0
LINE
  5
81
  8
0
  6
CONTINUOUS
 62
     7
 10
75.60902401
 20
161.2832969086
 30
0.0
 11
75.7323933164
 21
148.9661726638
 31
0.0
  0
POLYLINE
  5
82
  8
0
  6
CONTINUOUS
 62
     7
 66
     1
 10
0.0
 20
0.0
 30
0.0
  0
VERTEX
  5
174
  8
0
  6
CONTINUOUS
 62
     7
 10
73.6950817495
 20
148.4420105908
 30
0.0
  0
VERTEX
  5
175
  8
0
  6
CONTINUOUS
 62
     7
 10
73.2851321762
 20
148.3341384576
 30
0.0
  0
VERTEX
  5
176
  8
0
  6
CONTINUOUS
 62
     7
 10
72.6220631641
 20
147.9824982791
 30
0.0
  0
VERTEX
  5
177
  8
0
  6
CONTINUOUS
 62
     7
 10
72.0532477836
 20
147.4985239151
 30
0.0
  0
VERTEX
  5
178
  8
0
  6
CONTINUOUS
 62
     7
 10
71.5818529749
 20
146.8951628813
 30
0.0
  0
VERTEX
  5
179
  8
0
  6
CONTINUOUS
 62
     7
 10
71.2135679125
 20
146.1794932184
 30
0.0
  0
VERTEX
  5
17A
  8
0
  6
CONTINUOUS
 62
     7
 10
70.9591229878
 20
145.3615883578
 30
0.0
  0
VERTEX
  5
17B
  8
0
  6
CONTINUOUS
 62
     7
 10
70.8312843418
 20
144.4638786973
 30
0.0
  0
VERTEX
  5
17C
  8
0
  6
CONTINUOUS
 62
     7
 10
70.8377375509
 20
143.5212289112
 30
0.0
  0
VERTEX
  5
17D
  8
0
  6
CONTINUOUS
 62
     7
 10
70.9779611112
 20
142.5707851985
 30
0.0
  0
VERTEX
  5
17E
  8
0
  6
CONTINUOUS
 62
     7
 10
71.2473197543
 20
141.6420855031
 30
0.0
  0
VERTEX
  5
17F
  8
0
  6
CONTINUOUS
 62
     7
 10
71.6405956728
 20
140.7621508115
 30
0.0
  0
VERTEX
  5
180
  8
0
  6
CONTINUOUS
 62
     7
 10
72.152673268
 20
139.9578449888
 30
0.0
  0
VERTEX
  5
181
  8
0
  6
CONTINUOUS
 62
     7
 10
72.7793563006
 20
139.2567635038
 30
0.0
  0
VERTEX
  5
182
  8
0
  6
CONTINUOUS
 62
     7
 10
73.4320128955
 20
138.7435179423
 30
0.0
  0
VERTEX
  5
183
  8
0
  6
CONTINUOUS
 62
     7
 10
74.12964457
 20
138.3786509158
 30
0.0
  0
VERTEX
  5
184
  8
0
  6
CONTINUOUS
 62
     7
 10
74.8506610119
 20
138.1686588788
 30
0.0
  0
VERTEX
  5
185
  8
0
  6
CONTINUOUS
 62
     7
 10
75.5766343326
 20
138.1147843354
 30
0.0
  0
VERTEX
  5
186
  8
0
  6
CONTINUOUS
 62
     7
 10
76.2918757092
 20
138.2245048362
 30
0.0
  0
SEQEND
  5
5FD
  8
0
  6
CONTINUOUS
 62
     7
  0
POLYLINE
  5
83
  8
0
  6
CONTINUOUS
 62
     7
 66
     1
 10
0.0
 20
0.0
 30
0.0
  0
VERTEX
  5
187
  8
0
  6
CONTINUOUS
 62
     7
 10
78.7059044662
 20
150.0745078845
 30
0.0
  0
VERTEX
  5
188
  8
0
  6
CONTINUOUS
 62
     7
 10
78.7110598116
 20
150.0846381178
 30
0.0
  0
VERTEX
  5
189
  8
0
  6
CONTINUOUS
 62
     7
 10
78.6224626427
 20
149.9755823918
 30
0.0
  0
VERTEX
  5
18A
  8
0
  6
CONTINUOUS
 62
     7
 10
78.4112191564
 20
149.7851101739
 30
0.0
  0
VERTEX
  5
18B
  8
0
  6
CONTINUOUS
 62
     7
 10
78.0380908207
 20
149.5648543754
 30
0.0
  0
VERTEX
  5
18C
  8
0
  6
CONTINUOUS
 62
     7
 10
77.717104413
 20
149.4618054301
 30
0.0
  0
SEQEND
  5
5FC
  8
0
  6
CONTINUOUS
 62
     7
  0
LINE
  5
84
  8
0
  6
CONTINUOUS
 62
     7
 10
76.2916847803
 20
138.2177489282
 30
0.0
 11
80.406218263
 21
139.2821461818
 31
0.0
  0
LINE
  5
85
  8
0
  6
CONTINUOUS
 62
     7
 10
77.7160545362
 20
149.4540048648
 30
0.0
 11
73.7030738354
 21
148.4671220392
 31
0.0
  0
POLYLINE
  5
86
  8
0
  6
CONTINUOUS
 62
     7
 66
     1
 10
0.0
 20
0.0
 30
0.0
  0
VERTEX
  5
18D
  8
0
  6
CONTINUOUS
 62
     7
 10
80.3998371304
 20
139.2801657
 30
0.0
  0
VERTEX
  5
18E
  8
0
  6
CONTINUOUS
 62
     7
 10
80.423118961
 20
139.2852854024
 30
0.0
  0
VERTEX
  5
18F
  8
0
  6
CONTINUOUS
 62
     7
 10
80.5416267171
 20
139.2909264055
 30
0.0
  0
VERTEX
  5
190
  8
0
  6
CONTINUOUS
 62
     7
 10
80.5357488614
 20
139.2930080535
 30
0.0
  0
SEQEND
  5
5FB
  8
0
  6
CONTINUOUS
 62
     7
  0
LINE
  5
87
  8
0
  6
CONTINUOUS
 62
     7
 10
94.4211022409
 20
156.2591457208
 30
0.0
 11
94.4201832497
 21
156.5063849046
 31
0.0
  0
POLYLINE
  5
88
  8
0
  6
CONTINUOUS
 62
     7
 66
     1
 10
0.0
 20
0.0
 30
0.0
  0
VERTEX
  5
191
  8
0
  6
CONTINUOUS
 62
     7
 10
116.2064961009
 20
181.1736122033
 30
0.0
  0
VERTEX
  5
192
  8
0
  6
CONTINUOUS
 62
     7
 10
116.3471579735
 20
181.1535149424
 30
0.0
  0
VERTEX
  5
193
  8
0
  6
CONTINUOUS
 62
     7
 10
116.5120979644
 20
181.1464559968
 30
0.0
  0
VERTEX
  5
194
  8
0
  6
CONTINUOUS
 62
     7
 10
116.6761631674
 20
181.1535142097
 30
0.0
  0
VERTEX
  5
195
  8
0
  6
CONTINUOUS
 62
     7
 10
116.8143355447
 20
181.1736129359
 30
0.0
  0
VERTEX
  5
196
  8
0
  6
CONTINUOUS
 62
     7
 10
116.905575573
 20
181.2036837765
 30
0.0
  0
VERTEX
  5
197
  8
0
  6
CONTINUOUS
 62
     7
 10
116.9359989532
 20
181.2391426955
 30
0.0
  0
VERTEX
  5
198
  8
0
  6
CONTINUOUS
 62
     7
 10
116.9010131985
 20
181.2745869662
 30
0.0
  0
VERTEX
  5
199
  8
0
  6
CONTINUOUS
 62
     7
 10
116.8059871511
 20
181.3046226467
 30
0.0
  0
VERTEX
  5
19A
  8
0
  6
CONTINUOUS
 62
     7
 10
116.6653919517
 20
181.3246854814
 30
0.0
  0
VERTEX
  5
19B
  8
0
  6
CONTINUOUS
 62
     7
 10
116.5006125022
 20
181.3317305108
 30
0.0
  0
VERTEX
  5
19C
  8
0
  6
CONTINUOUS
 62
     7
 10
116.3367049708
 20
181.3246864566
 30
0.0
  0
VERTEX
  5
19D
  8
0
  6
CONTINUOUS
 62
     7
 10
116.1985950255
 20
181.3046216713
 30
0.0
  0
VERTEX
  5
19E
  8
0
  6
CONTINUOUS
 62
     7
 10
116.107288323
 20
181.2745852587
 30
0.0
  0
VERTEX
  5
19F
  8
0
  6
CONTINUOUS
 62
     7
 10
116.0767055143
 20
181.2391404992
 30
0.0
  0
VERTEX
  5
1A0
  8
0
  6
CONTINUOUS
 62
     7
 10
116.111532485
 20
181.2036818235
 30
0.0
  0
VERTEX
  5
1A1
  8
0
  6
CONTINUOUS
 62
     7
 10
116.2064961009
 20
181.1736122033
 30
0.0
  0
SEQEND
  5
5FA
  8
0
  6
CONTINUOUS
 62
     7
  0
POLYLINE
  5
89
  8
0
  6
CONTINUOUS
 62
     7
 66
     1
 10
0.0
 20
0.0
 30
0.0
  0
VERTEX
  5
1A2
  8
0
  6
CONTINUOUS
 62
     7
 10
114.7392611899
 20
177.0288356051
 30
0.0
  0
VERTEX
  5
1A3
  8
0
  6
CONTINUOUS
 62
     7
 10
114.6491391679
 20
177.02812642
 30
0.0
  0
VERTEX
  5
1A4
  8
0
  6
CONTINUOUS
 62
     7
 10
114.5344879444
 20
176.9707464159
 30
0.0
  0
VERTEX
  5
1A5
  8
0
  6
CONTINUOUS
 62
     7
 10
114.4370771521
 20
176.858469145
 30
0.0
  0
VERTEX
  5
1A6
  8
0
  6
CONTINUOUS
 62
     7
 10
114.3717570947
 20
176.7083888056
 30
0.0
  0
VERTEX
  5
1A7
  8
0
  6
CONTINUOUS
 62
     7
 10
114.3484876741
 20
176.5433771389
 30
0.0
  0
VERTEX
  5
1A8
  8
0
  6
CONTINUOUS
 62
     7
 10
114.3708101842
 20
176.3885824638
 30
0.0
  0
VERTEX
  5
1A9
  8
0
  6
CONTINUOUS
 62
     7
 10
114.4353148425
 20
176.2675895488
 30
0.0
  0
VERTEX
  5
1AA
  8
0
  6
CONTINUOUS
 62
     7
 10
114.5321606484
 20
176.1988114456
 30
0.0
  0
VERTEX
  5
1AB
  8
0
  6
CONTINUOUS
 62
     7
 10
114.5560526659
 20
176.1919829518
 30
0.0
  0
SEQEND
  5
5F9
  8
0
  6
CONTINUOUS
 62
     7
  0
ARC
  5
8A
  8
0
  6
CONTINUOUS
 62
     7
 10
112.923775463
 20
176.5207197621
 30
0.0
 40
1.440322708122265
 50
172.150830358
 51
249.0973185118
  0
ARC
  5
8B
  8
0
  6
CONTINUOUS
 62
     7
 10
113.6796405597
 20
176.8575367421
 30
0.0
 40
2.187186261036119
 50
116.7698907353
 51
183.6730682263
  0
POLYLINE
  5
8C
  8
0
  6
CONTINUOUS
 62
     7
 66
     1
 10
0.0
 20
0.0
 30
0.0
  0
VERTEX
  5
1AC
  8
0
  6
CONTINUOUS
 62
     7
 10
111.3850379045
 20
176.933836735
 30
0.0
  0
VERTEX
  5
1AD
  8
0
  6
CONTINUOUS
 62
     7
 10
111.4447542303
 20
177.3259849012
 30
0.0
  0
VERTEX
  5
1AE
  8
0
  6
CONTINUOUS
 62
     7
 10
111.6420167767
 20
177.9050248587
 30
0.0
  0
VERTEX
  5
1AF
  8
0
  6
CONTINUOUS
 62
     7
 10
111.9483306727
 20
178.3975746469
 30
0.0
  0
VERTEX
  5
1B0
  8
0
  6
CONTINUOUS
 62
     7
 10
112.3335085346
 20
178.7552658629
 30
0.0
  0
VERTEX
  5
1B1
  8
0
  6
CONTINUOUS
 62
     7
 10
112.7596348462
 20
178.9431209987
 30
0.0
  0
VERTEX
  5
1B2
  8
0
  6
CONTINUOUS
 62
     7
 10
113.1708327746
 20
178.9461084235
 30
0.0
  0
SEQEND
  5
5F8
  8
0
  6
CONTINUOUS
 62
     7
  0
ARC
  5
8D
  8
0
  6
CONTINUOUS
 62
     7
 10
112.5496640333
 20
176.0608257627
 30
0.0
 40
0.9804143762702487
 50
227.3241816543
 51
257.0749276605
  0
POLYLINE
  5
8E
  8
0
  6
CONTINUOUS
 62
     7
 66
     1
 10
0.0
 20
0.0
 30
0.0
  0
VERTEX
  5
1B3
  8
0
  6
CONTINUOUS
 62
     7
 10
112.6834430029
 20
179.0515696326
 30
0.0
  0
VERTEX
  5
1B4
  8
0
  6
CONTINUOUS
 62
     7
 10
112.2722264362
 20
179.0486402076
 30
0.0
  0
VERTEX
  5
1B5
  8
0
  6
CONTINUOUS
 62
     7
 10
111.8461113372
 20
178.8609471024
 30
0.0
  0
VERTEX
  5
1B6
  8
0
  6
CONTINUOUS
 62
     7
 10
111.4609745756
 20
178.5035061175
 30
0.0
  0
VERTEX
  5
1B7
  8
0
  6
CONTINUOUS
 62
     7
 10
111.1547275364
 20
178.0112702774
 30
0.0
  0
VERTEX
  5
1B8
  8
0
  6
CONTINUOUS
 62
     7
 10
110.9575509226
 20
177.4325770505
 30
0.0
  0
VERTEX
  5
1B9
  8
0
  6
CONTINUOUS
 62
     7
 10
110.8888668314
 20
176.8243541605
 30
0.0
  0
VERTEX
  5
1BA
  8
0
  6
CONTINUOUS
 62
     7
 10
110.9553898065
 20
176.2464402282
 30
0.0
  0
VERTEX
  5
1BB
  8
0
  6
CONTINUOUS
 62
     7
 10
111.1504703243
 20
175.7556113034
 30
0.0
  0
VERTEX
  5
1BC
  8
0
  6
CONTINUOUS
 62
     7
 10
111.4548013015
 20
175.3999468057
 30
0.0
  0
VERTEX
  5
1BD
  8
0
  6
CONTINUOUS
 62
     7
 10
111.8383902818
 20
175.2141059025
 30
0.0
  0
VERTEX
  5
1BE
  8
0
  6
CONTINUOUS
 62
     7
 10
111.8435686149
 20
175.2129442074
 30
0.0
  0
SEQEND
  5
5F7
  8
0
  6
CONTINUOUS
 62
     7
  0
ARC
  5
8F
  8
0
  6
CONTINUOUS
 62
     7
 10
111.3138446418
 20
176.875833001
 30
0.0
 40
1.439235586451147
 50
172.2216407443
 51
249.1576003321
  0
ARC
  5
90
  8
0
  6
CONTINUOUS
 62
     7
 10
112.0635804925
 20
177.2111099526
 30
0.0
 40
2.180260103792476
 50
116.6848360614
 51
183.6945130186
  0
POLYLINE
  5
91
  8
0
  6
CONTINUOUS
 62
     7
 66
     1
 10
0.0
 20
0.0
 30
0.0
  0
VERTEX
  5
1BF
  8
0
  6
CONTINUOUS
 62
     7
 10
109.7761024425
 20
177.2871528307
 30
0.0
  0
VERTEX
  5
1C0
  8
0
  6
CONTINUOUS
 62
     7
 10
109.8355748024
 20
177.6780471534
 30
0.0
  0
VERTEX
  5
1C1
  8
0
  6
CONTINUOUS
 62
     7
 10
110.032553389
 20
178.2559419265
 30
0.0
  0
VERTEX
  5
1C2
  8
0
  6
CONTINUOUS
 62
     7
 10
110.3386459586
 20
178.7474548884
 30
0.0
  0
VERTEX
  5
1C3
  8
0
  6
CONTINUOUS
 62
     7
 10
110.7236872434
 20
179.1043197973
 30
0.0
  0
VERTEX
  5
1C4
  8
0
  6
CONTINUOUS
 62
     7
 10
111.1497754535
 20
179.2916399944
 30
0.0
  0
VERTEX
  5
1C5
  8
0
  6
CONTINUOUS
 62
     7
 10
111.5610337821
 20
179.2944361029
 30
0.0
  0
SEQEND
  5
5F6
  8
0
  6
CONTINUOUS
 62
     7
  0
ARC
  5
92
  8
0
  6
CONTINUOUS
 62
     7
 10
110.9421953685
 20
176.4184848907
 30
0.0
 40
0.9824117696841821
 50
227.3744844294
 51
257.0788302745
  0
POLYLINE
  5
93
  8
0
  6
CONTINUOUS
 62
     7
 66
     1
 10
0.0
 20
0.0
 30
0.0
  0
VERTEX
  5
1C6
  8
0
  6
CONTINUOUS
 62
     7
 10
111.0755300019
 20
179.3994892218
 30
0.0
  0
VERTEX
  5
1C7
  8
0
  6
CONTINUOUS
 62
     7
 10
110.6642541104
 20
179.3967506716
 30
0.0
  0
VERTEX
  5
1C8
  8
0
  6
CONTINUOUS
 62
     7
 10
110.2381779923
 20
179.2095916776
 30
0.0
  0
VERTEX
  5
1C9
  8
0
  6
CONTINUOUS
 62
     7
 10
109.8531783638
 20
178.8529758751
 30
0.0
  0
VERTEX
  5
1CA
  8
0
  6
CONTINUOUS
 62
     7
 10
109.547152829
 20
178.3617755494
 30
0.0
  0
VERTEX
  5
1CB
  8
0
  6
CONTINUOUS
 62
     7
 10
109.3502599577
 20
177.7842261378
 30
0.0
  0
VERTEX
  5
1CC
  8
0
  6
CONTINUOUS
 62
     7
 10
109.2818937048
 20
177.1771422877
 30
0.0
  0
VERTEX
  5
1CD
  8
0
  6
CONTINUOUS
 62
     7
 10
109.3487373578
 20
176.6002499942
 30
0.0
  0
VERTEX
  5
1CE
  8
0
  6
CONTINUOUS
 62
     7
 10
109.5441101375
 20
176.1102245911
 30
0.0
  0
VERTEX
  5
1CF
  8
0
  6
CONTINUOUS
 62
     7
 10
109.8486767114
 20
175.7550668178
 30
0.0
  0
VERTEX
  5
1D0
  8
0
  6
CONTINUOUS
 62
     7
 10
110.2324220105
 20
175.5693869142
 30
0.0
  0
VERTEX
  5
1D1
  8
0
  6
CONTINUOUS
 62
     7
 10
110.2376017333
 20
175.5682249428
 30
0.0
  0
SEQEND
  5
5F5
  8
0
  6
CONTINUOUS
 62
     7
  0
ARC
  5
94
  8
0
  6
CONTINUOUS
 62
     7
 10
110.1010734168
 20
177.1433399507
 30
0.0
 40
1.438416472745741
 50
172.2749753067
 51
249.2028334224
  0
ARC
  5
95
  8
0
  6
CONTINUOUS
 62
     7
 10
110.8462111143
 20
177.4774541372
 30
0.0
 40
2.175059636182403
 50
116.6208325562
 51
183.710613501
  0
POLYLINE
  5
96
  8
0
  6
CONTINUOUS
 62
     7
 66
     1
 10
0.0
 20
0.0
 30
0.0
  0
VERTEX
  5
1D2
  8
0
  6
CONTINUOUS
 62
     7
 10
108.564083788
 20
177.5533064948
 30
0.0
  0
VERTEX
  5
1D3
  8
0
  6
CONTINUOUS
 62
     7
 10
108.6233719619
 20
177.9432573934
 30
0.0
  0
VERTEX
  5
1D4
  8
0
  6
CONTINUOUS
 62
     7
 10
108.8201363864
 20
178.5202895487
 30
0.0
  0
VERTEX
  5
1D5
  8
0
  6
CONTINUOUS
 62
     7
 10
109.1260612721
 20
179.0110216722
 30
0.0
  0
VERTEX
  5
1D6
  8
0
  6
CONTINUOUS
 62
     7
 10
109.5109981054
 20
179.367264459
 30
0.0
  0
VERTEX
  5
1D7
  8
0
  6
CONTINUOUS
 62
     7
 10
109.9370555917
 20
179.5541821209
 30
0.0
  0
VERTEX
  5
1D8
  8
0
  6
CONTINUOUS
 62
     7
 10
110.348357222
 20
179.5568345849
 30
0.0
  0
SEQEND
  5
5F4
  8
0
  6
CONTINUOUS
 62
     7
  0
ARC
  5
97
  8
0
  6
CONTINUOUS
 62
     7
 10
109.7312751513
 20
176.6879142854
 30
0.0
 40
0.9839180411414263
 50
227.4123663828
 51
257.0816792463
  0
POLYLINE
  5
98
  8
0
  6
CONTINUOUS
 62
     7
 66
     1
 10
0.0
 20
0.0
 30
0.0
  0
VERTEX
  5
1D9
  8
0
  6
CONTINUOUS
 62
     7
 10
109.8642717637
 20
179.6615808079
 30
0.0
  0
VERTEX
  5
1DA
  8
0
  6
CONTINUOUS
 62
     7
 10
109.4529533754
 20
179.6589855709
 30
0.0
  0
VERTEX
  5
1DB
  8
0
  6
CONTINUOUS
 62
     7
 10
109.0269086389
 20
179.4722284906
 30
0.0
  0
VERTEX
  5
1DC
  8
0
  6
CONTINUOUS
 62
     7
 10
108.6420138772
 20
179.1162339649
 30
0.0
  0
VERTEX
  5
1DD
  8
0
  6
CONTINUOUS
 62
     7
 10
108.3361561585
 20
178.6258134915
 30
0.0
  0
VERTEX
  5
1DE
  8
0
  6
CONTINUOUS
 62
     7
 10
108.1394772854
 20
178.049125668
 30
0.0
  0
VERTEX
  5
1DF
  8
0
  6
CONTINUOUS
 62
     7
 10
108.0713499884
 20
177.4428999682
 30
0.0
  0
VERTEX
  5
1E0
  8
0
  6
CONTINUOUS
 62
     7
 10
108.1384340566
 20
176.8667775361
 30
0.0
  0
VERTEX
  5
1E1
  8
0
  6
CONTINUOUS
 62
     7
 10
108.33402528
 20
176.3773578115
 30
0.0
  0
VERTEX
  5
1E2
  8
0
  6
CONTINUOUS
 62
     7
 10
108.6387672156
 20
176.0225822255
 30
0.0
  0
VERTEX
  5
1E3
  8
0
  6
CONTINUOUS
 62
     7
 10
109.0226279676
 20
175.8370241142
 30
0.0
  0
VERTEX
  5
1E4
  8
0
  6
CONTINUOUS
 62
     7
 10
109.0278087081
 20
175.8358619412
 30
0.0
  0
SEQEND
  5
5F3
  8
0
  6
CONTINUOUS
 62
     7
  0
ARC
  5
99
  8
0
  6
CONTINUOUS
 62
     7
 10
108.8918475073
 20
177.4100630561
 30
0.0
 40
1.437599575194202
 50
172.3281473442
 51
249.2477829237
  0
ARC
  5
9A
  8
0
  6
CONTINUOUS
 62
     7
 10
109.6324167232
 20
177.7430156376
 30
0.0
 40
2.169888867635478
 50
116.5570749125
 51
183.7266207561
  0
POLYLINE
  5
9B
  8
0
  6
CONTINUOUS
 62
     7
 66
     1
 10
0.0
 20
0.0
 30
0.0
  0
VERTEX
  5
1E5
  8
0
  6
CONTINUOUS
 62
     7
 10
107.3556087639
 20
177.8186784049
 30
0.0
  0
VERTEX
  5
1E6
  8
0
  6
CONTINUOUS
 62
     7
 10
107.4147148144
 20
178.2076918934
 30
0.0
  0
VERTEX
  5
1E7
  8
0
  6
CONTINUOUS
 62
     7
 10
107.6112654862
 20
178.7838640015
 30
0.0
  0
VERTEX
  5
1E8
  8
0
  6
CONTINUOUS
 62
     7
 10
107.917022359
 20
179.2738177484
 30
0.0
  0
VERTEX
  5
1E9
  8
0
  6
CONTINUOUS
 62
     7
 10
108.3018537056
 20
179.629440523
 30
0.0
  0
VERTEX
  5
1EA
  8
0
  6
CONTINUOUS
 62
     7
 10
108.727878828
 20
179.8159572009
 30
0.0
  0
VERTEX
  5
1EB
  8
0
  6
CONTINUOUS
 62
     7
 10
109.1392217531
 20
179.818466847
 30
0.0
  0
SEQEND
  5
5F2
  8
0
  6
CONTINUOUS
 62
     7
  0
ARC
  5
9C
  8
0
  6
CONTINUOUS
 62
     7
 10
108.5238897678
 20
176.9565539682
 30
0.0
 40
0.9854167835314663
 50
227.450015825
 51
257.0844948602
  0
POLYLINE
  5
9D
  8
0
  6
CONTINUOUS
 62
     7
 66
     1
 10
0.0
 20
0.0
 30
0.0
  0
VERTEX
  5
1EC
  8
0
  6
CONTINUOUS
 62
     7
 10
108.6565484107
 20
179.9229075169
 30
0.0
  0
VERTEX
  5
1ED
  8
0
  6
CONTINUOUS
 62
     7
 10
108.2451895257
 20
179.9204547686
 30
0.0
  0
VERTEX
  5
1EE
  8
0
  6
CONTINUOUS
 62
     7
 10
107.8191778049
 20
179.7340980543
 30
0.0
  0
VERTEX
  5
1EF
  8
0
  6
CONTINUOUS
 62
     7
 10
107.4343889411
 20
179.3787226999
 30
0.0
  0
VERTEX
  5
1F0
  8
0
  6
CONTINUOUS
 62
     7
 10
107.1286993654
 20
178.8890796215
 30
0.0
  0
VERTEX
  5
1F1
  8
0
  6
CONTINUOUS
 62
     7
 10
106.9322340816
 20
178.3132508202
 30
0.0
  0
VERTEX
  5
1F2
  8
0
  6
CONTINUOUS
 62
     7
 10
106.8643446366
 20
177.7078808509
 30
0.0
  0
VERTEX
  5
1F3
  8
0
  6
CONTINUOUS
 62
     7
 10
106.9316674303
 20
177.1325262474
 30
0.0
  0
VERTEX
  5
1F4
  8
0
  6
CONTINUOUS
 62
     7
 10
107.1274749882
 20
176.643710756
 30
0.0
  0
VERTEX
  5
1F5
  8
0
  6
CONTINUOUS
 62
     7
 10
107.4323899634
 20
176.2893166414
 30
0.0
  0
VERTEX
  5
1F6
  8
0
  6
CONTINUOUS
 62
     7
 10
107.8163638606
 20
176.1038804027
 30
0.0
  0
VERTEX
  5
1F7
  8
0
  6
CONTINUOUS
 62
     7
 10
107.8215455906
 20
176.1027180342
 30
0.0
  0
SEQEND
  5
5F1
  8
0
  6
CONTINUOUS
 62
     7
  0
POLYLINE
  5
9E
  8
0
  6
CONTINUOUS
 62
     7
 66
     1
 10
0.0
 20
0.0
 30
0.0
  0
VERTEX
  5
1F8
  8
0
  6
CONTINUOUS
 62
     7
 10
104.0706027405
 20
183.7576013037
 30
0.0
  0
VERTEX
  5
1F9
  8
0
  6
CONTINUOUS
 62
     7
 10
103.9790458034
 20
183.7868022669
 30
0.0
  0
VERTEX
  5
1FA
  8
0
  6
CONTINUOUS
 62
     7
 10
103.9471131737
 20
183.8212367904
 30
0.0
  0
VERTEX
  5
1FB
  8
0
  6
CONTINUOUS
 62
     7
 10
103.9796379459
 20
183.8556579996
 30
0.0
  0
VERTEX
  5
1FC
  8
0
  6
CONTINUOUS
 62
     7
 10
104.0716396304
 20
183.884827197
 30
0.0
  0
VERTEX
  5
1FD
  8
0
  6
CONTINUOUS
 62
     7
 10
104.2090929051
 20
183.9043127493
 30
0.0
  0
VERTEX
  5
1FE
  8
0
  6
CONTINUOUS
 62
     7
 10
104.3710919603
 20
183.9111534699
 30
0.0
  0
VERTEX
  5
1FF
  8
0
  6
CONTINUOUS
 62
     7
 10
104.5330010526
 20
183.9043118023
 30
0.0
  0
VERTEX
  5
200
  8
0
  6
CONTINUOUS
 62
     7
 10
104.6701999864
 20
183.8848281443
 30
0.0
  0
VERTEX
  5
201
  8
0
  6
CONTINUOUS
 62
     7
 10
104.7618376147
 20
183.8556558676
 30
0.0
  0
VERTEX
  5
202
  8
0
  6
CONTINUOUS
 62
     7
 10
104.7939254195
 20
183.8212351316
 30
0.0
  0
VERTEX
  5
203
  8
0
  6
CONTINUOUS
 62
     7
 10
104.7615367016
 20
183.7868041635
 30
0.0
  0
VERTEX
  5
204
  8
0
  6
CONTINUOUS
 62
     7
 10
104.6695974637
 20
183.7576020152
 30
0.0
  0
VERTEX
  5
205
  8
0
  6
CONTINUOUS
 62
     7
 10
104.5320813229
 20
183.7380839851
 30
0.0
  0
VERTEX
  5
206
  8
0
  6
CONTINUOUS
 62
     7
 10
104.3699460395
 20
183.7312259191
 30
0.0
  0
VERTEX
  5
207
  8
0
  6
CONTINUOUS
 62
     7
 10
104.2078819459
 20
183.7380809014
 30
0.0
  0
VERTEX
  5
208
  8
0
  6
CONTINUOUS
 62
     7
 10
104.0706027405
 20
183.7576013037
 30
0.0
  0
SEQEND
  5
5F0
  8
0
  6
CONTINUOUS
 62
     7
  0
ARC
  5
9F
  8
0
  6
CONTINUOUS
 62
     7
 10
100.9035952016
 20
271.7704607158
 30
0.0
 40
17.53657657239251
 50
257.9909733041
 51
281.2787618641
  0
LINE
  5
A0
  8
0
  6
CONTINUOUS
 62
     7
 10
97.1181454728
 20
254.7818889386
 30
0.0
 11
97.1277343148
 21
254.7010225168
 31
0.0
  0
POLYLINE
  5
A1
  8
0
  6
CONTINUOUS
 62
     7
 66
     1
 10
0.0
 20
0.0
 30
0.0
  0
VERTEX
  5
209
  8
0
  6
CONTINUOUS
 62
     7
 10
98.9338838034
 20
256.3008913079
 30
0.0
  0
VERTEX
  5
20A
  8
0
  6
CONTINUOUS
 62
     7
 10
98.9173086226
 20
256.3449543726
 30
0.0
  0
VERTEX
  5
20B
  8
0
  6
CONTINUOUS
 62
     7
 10
98.9006655829
 20
256.3821774683
 30
0.0
  0
VERTEX
  5
20C
  8
0
  6
CONTINUOUS
 62
     7
 10
98.8839895724
 20
256.4124939614
 30
0.0
  0
VERTEX
  5
20D
  8
0
  6
CONTINUOUS
 62
     7
 10
98.867296037
 20
256.4358462544
 30
0.0
  0
VERTEX
  5
20E
  8
0
  6
CONTINUOUS
 62
     7
 10
98.8506373042
 20
256.45220533
 30
0.0
  0
VERTEX
  5
20F
  8
0
  6
CONTINUOUS
 62
     7
 10
98.8340286553
 20
256.4615469501
 30
0.0
  0
VERTEX
  5
210
  8
0
  6
CONTINUOUS
 62
     7
 10
98.817485336
 20
256.4638469935
 30
0.0
  0
VERTEX
  5
211
  8
0
  6
CONTINUOUS
 62
     7
 10
98.8010790879
 20
256.4591142352
 30
0.0
  0
SEQEND
  5
5EF
  8
0
  6
CONTINUOUS
 62
     7
  0
ARC
  5
A2
  8
0
  6
CONTINUOUS
 62
     7
 10
100.9944297876
 20
252.5680596206
 30
0.0
 40
4.263787302259316
 50
99.5073648127
 51
118.8989669219
  0
ARC
  5
A3
  8
0
  6
CONTINUOUS
 62
     7
 10
96.973938554
 20
255.6849600661
 30
0.0
 40
3.490240171749413
 50
7.6546441795
 51
18.1688496049
  0
ARC
  5
A4
  8
0
  6
CONTINUOUS
 62
     7
 10
101.1228497308
 20
252.4417314485
 30
0.0
 40
3.771743290866339
 50
80.7842859946
 51
100.537499381
  0
ARC
  5
A5
  8
0
  6
CONTINUOUS
 62
     7
 10
98.3128268111
 20
255.7004822157
 30
0.0
 40
3.445502739995876
 50
7.7446135431
 51
18.4058384475
  0
ARC
  5
A6
  8
0
  6
CONTINUOUS
 62
     7
 10
100.9902139875
 20
252.6638062671
 30
0.0
 40
4.166826624928488
 50
62.1197504274
 51
81.8340790109
  0
POLYLINE
  5
A7
  8
0
  6
CONTINUOUS
 62
     7
 66
     1
 10
0.0
 20
0.0
 30
0.0
  0
VERTEX
  5
212
  8
0
  6
CONTINUOUS
 62
     7
 10
102.7997235676
 20
256.5050348394
 30
0.0
  0
VERTEX
  5
213
  8
0
  6
CONTINUOUS
 62
     7
 10
102.8169323578
 20
256.5098340023
 30
0.0
  0
VERTEX
  5
214
  8
0
  6
CONTINUOUS
 62
     7
 10
102.8342530667
 20
256.5075863733
 30
0.0
  0
VERTEX
  5
215
  8
0
  6
CONTINUOUS
 62
     7
 10
102.8516697454
 20
256.4982896307
 30
0.0
  0
VERTEX
  5
216
  8
0
  6
CONTINUOUS
 62
     7
 10
102.8691094987
 20
256.481954926
 30
0.0
  0
VERTEX
  5
217
  8
0
  6
CONTINUOUS
 62
     7
 10
102.8865754033
 20
256.4586108895
 30
0.0
  0
VERTEX
  5
218
  8
0
  6
CONTINUOUS
 62
     7
 10
102.9040147517
 20
256.4282998506
 30
0.0
  0
VERTEX
  5
219
  8
0
  6
CONTINUOUS
 62
     7
 10
102.9214101898
 20
256.3910660744
 30
0.0
  0
VERTEX
  5
21A
  8
0
  6
CONTINUOUS
 62
     7
 10
102.9387268864
 20
256.3469763154
 30
0.0
  0
SEQEND
  5
5EE
  8
0
  6
CONTINUOUS
 62
     7
  0
ARC
  5
A8
  8
0
  6
CONTINUOUS
 62
     7
 10
100.8540094391
 20
252.8295624314
 30
0.0
 40
4.158713850589838
 50
62.1042413155
 51
81.8280728021
  0
ARC
  5
A9
  8
0
  6
CONTINUOUS
 62
     7
 10
101.7391105353
 20
256.6213719928
 30
0.0
 40
0.437984462622999
 50
132.1579590897
 51
175.5960356604
  0
ARC
  5
AA
  8
0
  6
CONTINUOUS
 62
     7
 10
100.7012280488
 20
252.9630182369
 30
0.0
 40
3.740613501071827
 50
80.7513131003
 51
95.8699254626
  0
ARC
  5
AB
  8
0
  6
CONTINUOUS
 62
     7
 10
100.8582036662
 20
252.734743776
 30
0.0
 40
4.254726412868568
 50
99.510040629
 51
118.9136948307
  0
ARC
  5
AC
  8
0
  6
CONTINUOUS
 62
     7
 10
100.9316156146
 20
266.3583198708
 30
0.0
 40
12.44205074064464
 50
252.8668124575
 51
286.241235313
  0
LINE
  5
AD
  8
0
  6
CONTINUOUS
 62
     7
 10
101.5828366716
 20
256.18535666
 30
0.0
 11
101.5820708687
 21
256.7883849794
 31
0.0
  0
ARC
  5
AE
  8
0
  6
CONTINUOUS
 62
     7
 10
100.8852080794
 20
242.2474268801
 30
0.0
 40
4.886288339934922
 50
246.7273213438
 51
293.3705583626
  0
LINE
  5
AF
  8
0
  6
CONTINUOUS
 62
     7
 10
102.7998003749
 20
256.4172090678
 30
0.0
 11
102.7997235676
 21
256.5050348394
 31
0.0
  0
LINE
  5
B0
  8
0
  6
CONTINUOUS
 62
     7
 10
100.1555521131
 20
256.7485497677
 30
0.0
 11
100.1552358876
 21
256.9309960504
 31
0.0
  0
LINE
  5
B1
  8
0
  6
CONTINUOUS
 62
     7
 10
101.4461265335
 20
256.1996415492
 30
0.0
 11
101.445145507
 21
256.9460486807
 31
0.0
  0
LINE
  5
B2
  8
0
  6
CONTINUOUS
 62
     7
 10
101.3030258926
 20
256.2092075128
 30
0.0
 11
101.3024192474
 21
256.6550039502
 31
0.0
  0
POLYLINE
  5
B3
  8
0
  6
CONTINUOUS
 62
     7
 66
     1
 10
0.0
 20
0.0
 30
0.0
  0
VERTEX
  5
21B
  8
0
  6
CONTINUOUS
 62
     7
 10
78.7468317445
 20
194.8456992877
 30
0.0
  0
VERTEX
  5
21C
  8
0
  6
CONTINUOUS
 62
     7
 10
78.7543943281
 20
194.7379432708
 30
0.0
  0
VERTEX
  5
21D
  8
0
  6
CONTINUOUS
 62
     7
 10
78.9069261225
 20
194.3240541645
 30
0.0
  0
VERTEX
  5
21E
  8
0
  6
CONTINUOUS
 62
     7
 10
79.2552569354
 20
193.9140376054
 30
0.0
  0
VERTEX
  5
21F
  8
0
  6
CONTINUOUS
 62
     7
 10
79.7977014372
 20
193.5116022574
 30
0.0
  0
VERTEX
  5
220
  8
0
  6
CONTINUOUS
 62
     7
 10
80.5308310592
 20
193.120426845
 30
0.0
  0
VERTEX
  5
221
  8
0
  6
CONTINUOUS
 62
     7
 10
81.4493031233
 20
192.7441537791
 30
0.0
  0
VERTEX
  5
222
  8
0
  6
CONTINUOUS
 62
     7
 10
82.5459759984
 20
192.3863273602
 30
0.0
  0
VERTEX
  5
223
  8
0
  6
CONTINUOUS
 62
     7
 10
83.81190237
 20
192.0503617502
 30
0.0
  0
VERTEX
  5
224
  8
0
  6
CONTINUOUS
 62
     7
 10
85.2363959455
 20
191.7394978365
 30
0.0
  0
VERTEX
  5
225
  8
0
  6
CONTINUOUS
 62
     7
 10
86.8070509232
 20
191.4567765005
 30
0.0
  0
VERTEX
  5
226
  8
0
  6
CONTINUOUS
 62
     7
 10
88.5099460874
 20
191.2049786249
 30
0.0
  0
VERTEX
  5
227
  8
0
  6
CONTINUOUS
 62
     7
 10
90.329659
 20
190.9866130591
 30
0.0
  0
VERTEX
  5
228
  8
0
  6
CONTINUOUS
 62
     7
 10
92.2494856942
 20
190.8038689479
 30
0.0
  0
VERTEX
  5
229
  8
0
  6
CONTINUOUS
 62
     7
 10
94.2515768843
 20
190.6585941664
 30
0.0
  0
VERTEX
  5
22A
  8
0
  6
CONTINUOUS
 62
     7
 10
96.3171660237
 20
190.5522610714
 30
0.0
  0
VERTEX
  5
22B
  8
0
  6
CONTINUOUS
 62
     7
 10
98.4267336805
 20
190.4859568058
 30
0.0
  0
VERTEX
  5
22C
  8
0
  6
CONTINUOUS
 62
     7
 10
100.5602748102
 20
190.4603570721
 30
0.0
  0
VERTEX
  5
22D
  8
0
  6
CONTINUOUS
 62
     7
 10
102.6974943275
 20
190.4757246105
 30
0.0
  0
VERTEX
  5
22E
  8
0
  6
CONTINUOUS
 62
     7
 10
104.8180676679
 20
190.5319001248
 30
0.0
  0
VERTEX
  5
22F
  8
0
  6
CONTINUOUS
 62
     7
 10
106.901836188
 20
190.6283132324
 30
0.0
  0
VERTEX
  5
230
  8
0
  6
CONTINUOUS
 62
     7
 10
108.9291184662
 20
190.7639743831
 30
0.0
  0
VERTEX
  5
231
  8
0
  6
CONTINUOUS
 62
     7
 10
110.8808364623
 20
190.9375093187
 30
0.0
  0
VERTEX
  5
232
  8
0
  6
CONTINUOUS
 62
     7
 10
112.7388062843
 20
191.147162098
 30
0.0
  0
VERTEX
  5
233
  8
0
  6
CONTINUOUS
 62
     7
 10
114.4859125201
 20
191.3908243907
 30
0.0
  0
VERTEX
  5
234
  8
0
  6
CONTINUOUS
 62
     7
 10
116.1062718963
 20
191.6660665209
 30
0.0
  0
VERTEX
  5
235
  8
0
  6
CONTINUOUS
 62
     7
 10
117.5853888994
 20
191.9701705275
 30
0.0
  0
VERTEX
  5
236
  8
0
  6
CONTINUOUS
 62
     7
 10
118.9103147142
 20
192.3001595598
 30
0.0
  0
VERTEX
  5
237
  8
0
  6
CONTINUOUS
 62
     7
 10
120.0697582664
 20
192.6528355956
 30
0.0
  0
VERTEX
  5
238
  8
0
  6
CONTINUOUS
 62
     7
 10
121.0541418734
 20
193.0248231619
 30
0.0
  0
VERTEX
  5
239
  8
0
  6
CONTINUOUS
 62
     7
 10
121.8556660245
 20
193.4126086629
 30
0.0
  0
VERTEX
  5
23A
  8
0
  6
CONTINUOUS
 62
     7
 10
122.4683532656
 20
193.8125761542
 30
0.0
  0
VERTEX
  5
23B
  8
0
  6
CONTINUOUS
 62
     7
 10
122.8880904032
 20
194.2210428586
 30
0.0
  0
VERTEX
  5
23C
  8
0
  6
CONTINUOUS
 62
     7
 10
123.1125332541
 20
194.6343108835
 30
0.0
  0
VERTEX
  5
23D
  8
0
  6
CONTINUOUS
 62
     7
 10
123.1533681163
 20
194.8970743244
 30
0.0
  0
SEQEND
  5
5ED
  8
0
  6
CONTINUOUS
 62
     7
  0
ARC
  5
B4
  8
0
  6
CONTINUOUS
 62
     7
 10
107.1226804119
 20
150.753535591
 30
0.0
 40
50.18893380224708
 50
79.9054564506
 51
80.7600657521
  0
LINE
  5
B5
  8
0
  6
CONTINUOUS
 62
     7
 10
115.1836208806
 20
200.9604255754
 30
0.0
 11
115.1814757098
 21
200.2912474331
 31
0.0
  0
ARC
  5
B6
  8
0
  6
CONTINUOUS
 62
     7
 10
100.9650397391
 20
101.3360467165
 30
0.0
 40
100.6339153203764
 50
81.8774913733
 51
93.8827224313
  0
LINE
  5
B7
  8
0
  6
CONTINUOUS
 62
     7
 10
94.1531690198
 20
201.0729327911
 30
0.0
 11
94.1506709787
 21
201.7389813903
 31
0.0
  0
ARC
  5
B8
  8
0
  6
CONTINUOUS
 62
     7
 10
100.1249934992
 20
107.7623819486
 30
0.0
 40
93.50145232099584
 50
93.6619045255
 51
94.857953149
  0
POLYLINE
  5
B9
  8
0
  6
CONTINUOUS
 62
     7
 66
     1
 10
0.0
 20
0.0
 30
0.0
  0
VERTEX
  5
23E
  8
0
  6
CONTINUOUS
 62
     7
 10
91.013898854
 20
201.4854449772
 30
0.0
  0
VERTEX
  5
23F
  8
0
  6
CONTINUOUS
 62
     7
 10
89.2252061994
 20
201.2880138525
 30
0.0
  0
VERTEX
  5
240
  8
0
  6
CONTINUOUS
 62
     7
 10
87.5339056351
 20
201.0589629001
 30
0.0
  0
VERTEX
  5
241
  8
0
  6
CONTINUOUS
 62
     7
 10
85.9545700026
 20
200.800063964
 30
0.0
  0
VERTEX
  5
242
  8
0
  6
CONTINUOUS
 62
     7
 10
84.501007991
 20
200.51334482
 30
0.0
  0
VERTEX
  5
243
  8
0
  6
CONTINUOUS
 62
     7
 10
83.1861938939
 20
200.201071958
 30
0.0
  0
VERTEX
  5
244
  8
0
  6
CONTINUOUS
 62
     7
 10
82.0220817235
 20
199.8657545412
 30
0.0
  0
VERTEX
  5
245
  8
0
  6
CONTINUOUS
 62
     7
 10
81.0196007653
 20
199.5101102507
 30
0.0
  0
VERTEX
  5
246
  8
0
  6
CONTINUOUS
 62
     7
 10
80.1884825728
 20
199.1370617777
 30
0.0
  0
VERTEX
  5
247
  8
0
  6
CONTINUOUS
 62
     7
 10
79.5371162674
 20
198.7497264877
 30
0.0
  0
VERTEX
  5
248
  8
0
  6
CONTINUOUS
 62
     7
 10
79.072518867
 20
198.3513805597
 30
0.0
  0
VERTEX
  5
249
  8
0
  6
CONTINUOUS
 62
     7
 10
78.8001441632
 20
197.945454146
 30
0.0
  0
VERTEX
  5
24A
  8
0
  6
CONTINUOUS
 62
     7
 10
78.7239023166
 20
197.5354833084
 30
0.0
  0
VERTEX
  5
24B
  8
0
  6
CONTINUOUS
 62
     7
 10
78.8459483679
 20
197.1251065077
 30
0.0
  0
VERTEX
  5
24C
  8
0
  6
CONTINUOUS
 62
     7
 10
79.1667251614
 20
196.7180106337
 30
0.0
  0
VERTEX
  5
24D
  8
0
  6
CONTINUOUS
 62
     7
 10
79.6847816746
 20
196.3179223084
 30
0.0
  0
VERTEX
  5
24E
  8
0
  6
CONTINUOUS
 62
     7
 10
80.3968718767
 20
195.9285447954
 30
0.0
  0
SEQEND
  5
5EC
  8
0
  6
CONTINUOUS
 62
     7
  0
LINE
  5
BA
  8
0
  6
CONTINUOUS
 62
     7
 10
80.4026037713
 20
195.2391812941
 30
0.0
 11
80.3968718767
 21
195.9285447954
 31
0.0
  0
ARC
  5
BB
  8
0
  6
CONTINUOUS
 62
     7
 10
85.8213031455
 20
206.9127450688
 30
0.0
 40
12.86990264567111
 50
245.0999536384
 51
252.7010485581
  0
LINE
  5
BC
  8
0
  6
CONTINUOUS
 62
     7
 10
81.9889539222
 20
195.3168091038
 30
0.0
 11
81.9943423418
 21
194.6249964908
 31
0.0
  0
ARC
  5
BD
  8
0
  6
CONTINUOUS
 62
     7
 10
91.7497897987
 20
227.6016423761
 30
0.0
 40
33.72809476435358
 50
253.1780943427
 51
261.4086126739
  0
LINE
  5
BE
  8
0
  6
CONTINUOUS
 62
     7
 10
86.7155944241
 20
193.5559426436
 30
0.0
 11
86.7112606072
 21
194.2520156913
 31
0.0
  0
ARC
  5
BF
  8
0
  6
CONTINUOUS
 62
     7
 10
96.815361077
 20
256.1327517385
 30
0.0
 40
63.38660996563913
 50
260.8316446446
 51
263.5292376125
  0
LINE
  5
C0
  8
0
  6
CONTINUOUS
 62
     7
 10
89.6682714041
 20
193.8476368159
 30
0.0
 11
89.6719318472
 21
193.1499466106
 31
0.0
  0
POLYLINE
  5
C1
  8
0
  6
CONTINUOUS
 62
     7
 66
     1
 10
0.0
 20
0.0
 30
0.0
  0
VERTEX
  5
24F
  8
0
  6
CONTINUOUS
 62
     7
 10
89.6682714041
 20
193.8476368159
 30
0.0
  0
VERTEX
  5
250
  8
0
  6
CONTINUOUS
 62
     7
 10
91.5417076639
 20
193.656686517
 30
0.0
  0
VERTEX
  5
251
  8
0
  6
CONTINUOUS
 62
     7
 10
93.5026005083
 20
193.5014402176
 30
0.0
  0
VERTEX
  5
252
  8
0
  6
CONTINUOUS
 62
     7
 10
95.5328914781
 20
193.3834491912
 30
0.0
  0
VERTEX
  5
253
  8
0
  6
CONTINUOUS
 62
     7
 10
97.6137483249
 20
193.3038962034
 30
0.0
  0
VERTEX
  5
254
  8
0
  6
CONTINUOUS
 62
     7
 10
99.7257695455
 20
193.263579961
 30
0.0
  0
VERTEX
  5
255
  8
0
  6
CONTINUOUS
 62
     7
 10
101.8491882177
 20
193.2629078966
 30
0.0
  0
VERTEX
  5
256
  8
0
  6
CONTINUOUS
 62
     7
 10
103.9641229936
 20
193.3018850467
 30
0.0
  0
VERTEX
  5
257
  8
0
  6
CONTINUOUS
 62
     7
 10
106.0507814702
 20
193.3801182594
 30
0.0
  0
VERTEX
  5
258
  8
0
  6
CONTINUOUS
 62
     7
 10
108.0896930781
 20
193.4968217096
 30
0.0
  0
VERTEX
  5
259
  8
0
  6
CONTINUOUS
 62
     7
 10
110.0619194987
 20
193.6508287678
 30
0.0
  0
VERTEX
  5
25A
  8
0
  6
CONTINUOUS
 62
     7
 10
111.9493245439
 20
193.8405967967
 30
0.0
  0
VERTEX
  5
25B
  8
0
  6
CONTINUOUS
 62
     7
 10
113.7346686168
 20
194.0642484224
 30
0.0
  0
VERTEX
  5
25C
  8
0
  6
CONTINUOUS
 62
     7
 10
115.4018853121
 20
194.3195776882
 30
0.0
  0
VERTEX
  5
25D
  8
0
  6
CONTINUOUS
 62
     7
 10
116.9361972059
 20
194.6040878789
 30
0.0
  0
VERTEX
  5
25E
  8
0
  6
CONTINUOUS
 62
     7
 10
118.3242213368
 20
194.9150304398
 30
0.0
  0
VERTEX
  5
25F
  8
0
  6
CONTINUOUS
 62
     7
 10
119.5541920128
 20
195.2494177473
 30
0.0
  0
VERTEX
  5
260
  8
0
  6
CONTINUOUS
 62
     7
 10
120.6159108044
 20
195.6040884553
 30
0.0
  0
VERTEX
  5
261
  8
0
  6
CONTINUOUS
 62
     7
 10
121.5009403353
 20
195.9757184508
 30
0.0
  0
VERTEX
  5
262
  8
0
  6
CONTINUOUS
 62
     7
 10
122.2025648402
 20
196.3608758177
 30
0.0
  0
VERTEX
  5
263
  8
0
  6
CONTINUOUS
 62
     7
 10
122.7158661297
 20
196.7560469353
 30
0.0
  0
VERTEX
  5
264
  8
0
  6
CONTINUOUS
 62
     7
 10
123.0376784714
 20
197.1576824981
 30
0.0
  0
VERTEX
  5
265
  8
0
  6
CONTINUOUS
 62
     7
 10
123.1666175096
 20
197.5622202906
 30
0.0
  0
VERTEX
  5
266
  8
0
  6
CONTINUOUS
 62
     7
 10
123.1030051567
 20
197.9661297838
 30
0.0
  0
VERTEX
  5
267
  8
0
  6
CONTINUOUS
 62
     7
 10
122.8488203993
 20
198.3659375345
 30
0.0
  0
VERTEX
  5
268
  8
0
  6
CONTINUOUS
 62
     7
 10
122.407668647
 20
198.7582538599
 30
0.0
  0
VERTEX
  5
269
  8
0
  6
CONTINUOUS
 62
     7
 10
121.7846321776
 20
199.1398091162
 30
0.0
  0
VERTEX
  5
26A
  8
0
  6
CONTINUOUS
 62
     7
 10
120.9862819726
 20
199.5074611021
 30
0.0
  0
VERTEX
  5
26B
  8
0
  6
CONTINUOUS
 62
     7
 10
120.0204691717
 20
199.8582347494
 30
0.0
  0
VERTEX
  5
26C
  8
0
  6
CONTINUOUS
 62
     7
 10
118.8963392332
 20
200.1893237358
 30
0.0
  0
VERTEX
  5
26D
  8
0
  6
CONTINUOUS
 62
     7
 10
117.6241432919
 20
200.4981203994
 30
0.0
  0
SEQEND
  5
5EB
  8
0
  6
CONTINUOUS
 62
     7
  0
POLYLINE
  5
C2
  8
0
  6
CONTINUOUS
 62
     7
 66
     1
 10
0.0
 20
0.0
 30
0.0
  0
VERTEX
  5
26E
  8
0
  6
CONTINUOUS
 62
     7
 10
112.647244283
 20
195.4230865109
 30
0.0
  0
VERTEX
  5
26F
  8
0
  6
CONTINUOUS
 62
     7
 10
112.2030945682
 20
195.3055398052
 30
0.0
  0
VERTEX
  5
270
  8
0
  6
CONTINUOUS
 62
     7
 10
111.9356993723
 20
195.168094556
 30
0.0
  0
VERTEX
  5
271
  8
0
  6
CONTINUOUS
 62
     7
 10
111.8653354014
 20
195.0208610992
 30
0.0
  0
VERTEX
  5
272
  8
0
  6
CONTINUOUS
 62
     7
 10
111.9977027894
 20
194.8747444206
 30
0.0
  0
VERTEX
  5
273
  8
0
  6
CONTINUOUS
 62
     7
 10
112.3234937
 20
194.7406147862
 30
0.0
  0
VERTEX
  5
274
  8
0
  6
CONTINUOUS
 62
     7
 10
112.8188915351
 20
194.6284994916
 30
0.0
  0
VERTEX
  5
275
  8
0
  6
CONTINUOUS
 62
     7
 10
113.4472070239
 20
194.5468223081
 30
0.0
  0
VERTEX
  5
276
  8
0
  6
CONTINUOUS
 62
     7
 10
114.1616418905
 20
194.5017347705
 30
0.0
  0
VERTEX
  5
277
  8
0
  6
CONTINUOUS
 62
     7
 10
114.9087590445
 20
194.4966446269
 30
0.0
  0
VERTEX
  5
278
  8
0
  6
CONTINUOUS
 62
     7
 10
115.6326034113
 20
194.5319387484
 30
0.0
  0
VERTEX
  5
279
  8
0
  6
CONTINUOUS
 62
     7
 10
116.2790480981
 20
194.6049445659
 30
0.0
  0
VERTEX
  5
27A
  8
0
  6
CONTINUOUS
 62
     7
 10
116.799855808
 20
194.7101607677
 30
0.0
  0
VERTEX
  5
27B
  8
0
  6
CONTINUOUS
 62
     7
 10
117.1564098224
 20
194.8396778855
 30
0.0
  0
VERTEX
  5
27C
  8
0
  6
CONTINUOUS
 62
     7
 10
117.3225715924
 20
194.9837953857
 30
0.0
  0
VERTEX
  5
27D
  8
0
  6
CONTINUOUS
 62
     7
 10
117.2864661971
 20
195.1317825775
 30
0.0
  0
VERTEX
  5
27E
  8
0
  6
CONTINUOUS
 62
     7
 10
117.0513112323
 20
195.272669661
 30
0.0
  0
VERTEX
  5
27F
  8
0
  6
CONTINUOUS
 62
     7
 10
116.6349861981
 20
195.3960668173
 30
0.0
  0
VERTEX
  5
280
  8
0
  6
CONTINUOUS
 62
     7
 10
116.0685535846
 20
195.4929228955
 30
0.0
  0
VERTEX
  5
281
  8
0
  6
CONTINUOUS
 62
     7
 10
115.3939606842
 20
195.5561553052
 30
0.0
  0
VERTEX
  5
282
  8
0
  6
CONTINUOUS
 62
     7
 10
114.6608867405
 20
195.5811578531
 30
0.0
  0
VERTEX
  5
283
  8
0
  6
CONTINUOUS
 62
     7
 10
113.9231941329
 20
195.5661131191
 30
0.0
  0
VERTEX
  5
284
  8
0
  6
CONTINUOUS
 62
     7
 10
113.2351158819
 20
195.5121078501
 30
0.0
  0
VERTEX
  5
285
  8
0
  6
CONTINUOUS
 62
     7
 10
112.647244283
 20
195.4230865109
 30
0.0
  0
SEQEND
  5
5EA
  8
0
  6
CONTINUOUS
 62
     7
  0
POLYLINE
  5
C3
  8
0
  6
CONTINUOUS
 62
     7
 66
     1
 10
0.0
 20
0.0
 30
0.0
  0
VERTEX
  5
286
  8
0
  6
CONTINUOUS
 62
     7
 10
115.950365727
 20
198.5037290769
 30
0.0
  0
VERTEX
  5
287
  8
0
  6
CONTINUOUS
 62
     7
 10
115.766679752
 20
198.4491763362
 30
0.0
  0
VERTEX
  5
288
  8
0
  6
CONTINUOUS
 62
     7
 10
115.7050097019
 20
198.3847848189
 30
0.0
  0
VERTEX
  5
289
  8
0
  6
CONTINUOUS
 62
     7
 10
115.7749271771
 20
198.3203386662
 30
0.0
  0
VERTEX
  5
28A
  8
0
  6
CONTINUOUS
 62
     7
 10
115.9659137155
 20
198.2656629703
 30
0.0
  0
VERTEX
  5
28B
  8
0
  6
CONTINUOUS
 62
     7
 10
116.2489452007
 20
198.2291084192
 30
0.0
  0
VERTEX
  5
28C
  8
0
  6
CONTINUOUS
 62
     7
 10
116.580856179
 20
198.2162716215
 30
0.0
  0
VERTEX
  5
28D
  8
0
  6
CONTINUOUS
 62
     7
 10
116.9110153304
 20
198.2291104185
 30
0.0
  0
VERTEX
  5
28E
  8
0
  6
CONTINUOUS
 62
     7
 10
117.188989074
 20
198.2656643026
 30
0.0
  0
VERTEX
  5
28F
  8
0
  6
CONTINUOUS
 62
     7
 10
117.3724202836
 20
198.3203386662
 30
0.0
  0
VERTEX
  5
290
  8
0
  6
CONTINUOUS
 62
     7
 10
117.4334268589
 20
198.3847854841
 30
0.0
  0
VERTEX
  5
291
  8
0
  6
CONTINUOUS
 62
     7
 10
117.3628888496
 20
198.4491761147
 30
0.0
  0
VERTEX
  5
292
  8
0
  6
CONTINUOUS
 62
     7
 10
117.1716463616
 20
198.5037270844
 30
0.0
  0
VERTEX
  5
293
  8
0
  6
CONTINUOUS
 62
     7
 10
116.8888880866
 20
198.540156463
 30
0.0
  0
VERTEX
  5
294
  8
0
  6
CONTINUOUS
 62
     7
 10
116.557604792
 20
198.5529452796
 30
0.0
  0
VERTEX
  5
295
  8
0
  6
CONTINUOUS
 62
     7
 10
116.2281019662
 20
198.5401546927
 30
0.0
  0
VERTEX
  5
296
  8
0
  6
CONTINUOUS
 62
     7
 10
115.950365727
 20
198.5037290769
 30
0.0
  0
SEQEND
  5
5E9
  8
0
  6
CONTINUOUS
 62
     7
  0
POLYLINE
  5
C4
  8
0
  6
CONTINUOUS
 62
     7
 66
     1
 10
0.0
 20
0.0
 30
0.0
  0
VERTEX
  5
297
  8
0
  6
CONTINUOUS
 62
     7
 10
96.4875484185
 20
194.6666954463
 30
0.0
  0
VERTEX
  5
298
  8
0
  6
CONTINUOUS
 62
     7
 10
96.2926775188
 20
194.6094983532
 30
0.0
  0
VERTEX
  5
299
  8
0
  6
CONTINUOUS
 62
     7
 10
96.2215204669
 20
194.5419846872
 30
0.0
  0
VERTEX
  5
29A
  8
0
  6
CONTINUOUS
 62
     7
 10
96.2850966254
 20
194.4744123197
 30
0.0
  0
VERTEX
  5
29B
  8
0
  6
CONTINUOUS
 62
     7
 10
96.4738605086
 20
194.4170831102
 30
0.0
  0
VERTEX
  5
29C
  8
0
  6
CONTINUOUS
 62
     7
 10
96.7591357733
 20
194.3787543645
 30
0.0
  0
VERTEX
  5
29D
  8
0
  6
CONTINUOUS
 62
     7
 10
97.0974127199
 20
194.3652943448
 30
0.0
  0
VERTEX
  5
29E
  8
0
  6
CONTINUOUS
 62
     7
 10
97.4370860736
 20
194.3787563444
 30
0.0
  0
VERTEX
  5
29F
  8
0
  6
CONTINUOUS
 62
     7
 10
97.7262675303
 20
194.4170847981
 30
0.0
  0
VERTEX
  5
2A0
  8
0
  6
CONTINUOUS
 62
     7
 10
97.9208848428
 20
194.4744122615
 30
0.0
  0
VERTEX
  5
2A1
  8
0
  6
CONTINUOUS
 62
     7
 10
97.9913537224
 20
194.5419852103
 30
0.0
  0
VERTEX
  5
2A2
  8
0
  6
CONTINUOUS
 62
     7
 10
97.9271206315
 20
194.6094982952
 30
0.0
  0
VERTEX
  5
2A3
  8
0
  6
CONTINUOUS
 62
     7
 10
97.7380710128
 20
194.6666932992
 30
0.0
  0
VERTEX
  5
2A4
  8
0
  6
CONTINUOUS
 62
     7
 10
97.4530677819
 20
194.7048879531
 30
0.0
  0
VERTEX
  5
2A5
  8
0
  6
CONTINUOUS
 62
     7
 10
97.1154420936
 20
194.7182961325
 30
0.0
  0
VERTEX
  5
2A6
  8
0
  6
CONTINUOUS
 62
     7
 10
96.7764625878
 20
194.7048859811
 30
0.0
  0
VERTEX
  5
2A7
  8
0
  6
CONTINUOUS
 62
     7
 10
96.4875484185
 20
194.6666954463
 30
0.0
  0
SEQEND
  5
5E8
  8
0
  6
CONTINUOUS
 62
     7
  0
LINE
  5
C5
  8
0
  6
CONTINUOUS
 62
     7
 10
89.6682714041
 20
193.8476368159
 30
0.0
 11
98.8688364503
 21
195.6557393897
 31
0.0
  0
LINE
  5
C6
  8
0
  6
CONTINUOUS
 62
     7
 10
98.8688364503
 20
195.6557393897
 30
0.0
 11
101.5221170566
 21
197.0519404801
 31
0.0
  0
POLYLINE
  5
C7
  8
0
  6
CONTINUOUS
 62
     7
 66
     1
 10
0.0
 20
0.0
 30
0.0
  0
VERTEX
  5
2A8
  8
0
  6
CONTINUOUS
 62
     7
 10
101.5221170566
 20
197.0519404801
 30
0.0
  0
VERTEX
  5
2A9
  8
0
  6
CONTINUOUS
 62
     7
 10
102.2186597422
 20
197.0904106093
 30
0.0
  0
VERTEX
  5
2AA
  8
0
  6
CONTINUOUS
 62
     7
 10
102.8599791688
 20
197.1561885282
 30
0.0
  0
VERTEX
  5
2AB
  8
0
  6
CONTINUOUS
 62
     7
 10
103.4182629888
 20
197.2463854096
 30
0.0
  0
VERTEX
  5
2AC
  8
0
  6
CONTINUOUS
 62
     7
 10
103.8694297165
 20
197.3570479006
 30
0.0
  0
VERTEX
  5
2AD
  8
0
  6
CONTINUOUS
 62
     7
 10
104.1941613235
 20
197.4833443893
 30
0.0
  0
VERTEX
  5
2AE
  8
0
  6
CONTINUOUS
 62
     7
 10
104.3787476582
 20
197.619778379
 30
0.0
  0
VERTEX
  5
2AF
  8
0
  6
CONTINUOUS
 62
     7
 10
104.4155527966
 20
197.7604527373
 30
0.0
  0
VERTEX
  5
2B0
  8
0
  6
CONTINUOUS
 62
     7
 10
104.3033911
 20
197.8993081301
 30
0.0
  0
SEQEND
  5
5E7
  8
0
  6
CONTINUOUS
 62
     7
  0
LINE
  5
C8
  8
0
  6
CONTINUOUS
 62
     7
 10
104.3033911
 20
197.8993081301
 30
0.0
 11
117.6241432919
 21
200.4981203994
 31
0.0
  0
LINE
  5
C9
  8
0
  6
CONTINUOUS
 62
     7
 10
95.8617719532
 20
195.3502226704
 30
0.0
 11
86.7155944241
 21
193.5559426436
 31
0.0
  0
LINE
  5
CA
  8
0
  6
CONTINUOUS
 62
     7
 10
98.2636829919
 20
196.6043428116
 30
0.0
 11
95.8617719532
 21
195.3502226704
 31
0.0
  0
ARC
  5
CB
  8
0
  6
CONTINUOUS
 62
     7
 10
100.5491123121
 20
207.47040741
 30
0.0
 40
11.10380777190263
 50
258.1222648036
 51
268.345500532
  0
POLYLINE
  5
CC
  8
0
  6
CONTINUOUS
 62
     7
 66
     1
 10
0.0
 20
0.0
 30
0.0
  0
VERTEX
  5
2B1
  8
0
  6
CONTINUOUS
 62
     7
 10
90.3499904104
 20
195.9034567249
 30
0.0
  0
VERTEX
  5
2B2
  8
0
  6
CONTINUOUS
 62
     7
 10
90.1544473621
 20
195.8471224089
 30
0.0
  0
VERTEX
  5
2B3
  8
0
  6
CONTINUOUS
 62
     7
 10
90.0813395447
 20
195.7806195376
 30
0.0
  0
VERTEX
  5
2B4
  8
0
  6
CONTINUOUS
 62
     7
 10
90.1419283583
 20
195.7140629203
 30
0.0
  0
VERTEX
  5
2B5
  8
0
  6
CONTINUOUS
 62
     7
 10
90.3271397023
 20
195.6575958096
 30
0.0
  0
VERTEX
  5
2B6
  8
0
  6
CONTINUOUS
 62
     7
 10
90.6088200406
 20
195.6198472763
 30
0.0
  0
VERTEX
  5
2B7
  8
0
  6
CONTINUOUS
 62
     7
 10
90.944061029
 20
195.6065860832
 30
0.0
  0
VERTEX
  5
2B8
  8
0
  6
CONTINUOUS
 62
     7
 10
91.2816698237
 20
195.6198455556
 30
0.0
  0
VERTEX
  5
2B9
  8
0
  6
CONTINUOUS
 62
     7
 10
91.5700928274
 20
195.6575974721
 30
0.0
  0
VERTEX
  5
2BA
  8
0
  6
CONTINUOUS
 62
     7
 10
91.765372886
 20
195.714062863
 30
0.0
  0
VERTEX
  5
2BB
  8
0
  6
CONTINUOUS
 62
     7
 10
91.8378230777
 20
195.7806200528
 30
0.0
  0
VERTEX
  5
2BC
  8
0
  6
CONTINUOUS
 62
     7
 10
91.7765669642
 20
195.8471223517
 30
0.0
  0
VERTEX
  5
2BD
  8
0
  6
CONTINUOUS
 62
     7
 10
91.5910874205
 20
195.90345461
 30
0.0
  0
VERTEX
  5
2BE
  8
0
  6
CONTINUOUS
 62
     7
 10
91.3096518949
 20
195.9410757343
 30
0.0
  0
VERTEX
  5
2BF
  8
0
  6
CONTINUOUS
 62
     7
 10
90.9750685194
 20
195.9542826082
 30
0.0
  0
VERTEX
  5
2C0
  8
0
  6
CONTINUOUS
 62
     7
 10
90.6381270378
 20
195.9410774483
 30
0.0
  0
VERTEX
  5
2C1
  8
0
  6
CONTINUOUS
 62
     7
 10
90.3499904104
 20
195.9034567249
 30
0.0
  0
SEQEND
  5
5E6
  8
0
  6
CONTINUOUS
 62
     7
  0
POLYLINE
  5
CD
  8
0
  6
CONTINUOUS
 62
     7
 66
     1
 10
0.0
 20
0.0
 30
0.0
  0
VERTEX
  5
2C2
  8
0
  6
CONTINUOUS
 62
     7
 10
103.7633228903
 20
200.8460921604
 30
0.0
  0
VERTEX
  5
2C3
  8
0
  6
CONTINUOUS
 62
     7
 10
103.5782167558
 20
200.7931262621
 30
0.0
  0
VERTEX
  5
2C4
  8
0
  6
CONTINUOUS
 62
     7
 10
103.5126424067
 20
200.730600954
 30
0.0
  0
VERTEX
  5
2C5
  8
0
  6
CONTINUOUS
 62
     7
 10
103.5767087829
 20
200.6680267738
 30
0.0
  0
VERTEX
  5
2C6
  8
0
  6
CONTINUOUS
 62
     7
 10
103.760785355
 20
200.6149432735
 30
0.0
  0
VERTEX
  5
2C7
  8
0
  6
CONTINUOUS
 62
     7
 10
104.0369335009
 20
200.5794512079
 30
0.0
  0
VERTEX
  5
2C8
  8
0
  6
CONTINUOUS
 62
     7
 10
104.363040029
 20
200.5669841259
 30
0.0
  0
VERTEX
  5
2C9
  8
0
  6
CONTINUOUS
 62
     7
 10
104.689327904
 20
200.5794496981
 30
0.0
  0
VERTEX
  5
2CA
  8
0
  6
CONTINUOUS
 62
     7
 10
104.9659748961
 20
200.6149411176
 30
0.0
  0
VERTEX
  5
2CB
  8
0
  6
CONTINUOUS
 62
     7
 10
105.1508250333
 20
200.6680267738
 30
0.0
  0
VERTEX
  5
2CC
  8
0
  6
CONTINUOUS
 62
     7
 10
105.2157768968
 20
200.7306015998
 30
0.0
  0
VERTEX
  5
2CD
  8
0
  6
CONTINUOUS
 62
     7
 10
105.1510862197
 20
200.793126047
 30
0.0
  0
VERTEX
  5
2CE
  8
0
  6
CONTINUOUS
 62
     7
 10
104.96673402
 20
200.8460936651
 30
0.0
  0
VERTEX
  5
2CF
  8
0
  6
CONTINUOUS
 62
     7
 10
104.6908597946
 20
200.8814625302
 30
0.0
  0
VERTEX
  5
2D0
  8
0
  6
CONTINUOUS
 62
     7
 10
104.3653768609
 20
200.8938803085
 30
0.0
  0
VERTEX
  5
2D1
  8
0
  6
CONTINUOUS
 62
     7
 10
104.0397121788
 20
200.8814642491
 30
0.0
  0
VERTEX
  5
2D2
  8
0
  6
CONTINUOUS
 62
     7
 10
103.7633228903
 20
200.8460921604
 30
0.0
  0
SEQEND
  5
5E5
  8
0
  6
CONTINUOUS
 62
     7
  0
LINE
  5
CE
  8
0
  6
CONTINUOUS
 62
     7
 10
81.9889539222
 20
195.3168091038
 30
0.0
 11
87.7403627603
 21
195.9297305467
 31
0.0
  0
POLYLINE
  5
CF
  8
0
  6
CONTINUOUS
 62
     7
 66
     1
 10
0.0
 20
0.0
 30
0.0
  0
VERTEX
  5
2D3
  8
0
  6
CONTINUOUS
 62
     7
 10
87.7403627603
 20
195.9297305467
 30
0.0
  0
VERTEX
  5
2D4
  8
0
  6
CONTINUOUS
 62
     7
 10
88.5934604702
 20
196.0388009578
 30
0.0
  0
VERTEX
  5
2D5
  8
0
  6
CONTINUOUS
 62
     7
 10
89.3478624151
 20
196.1731144859
 30
0.0
  0
VERTEX
  5
2D6
  8
0
  6
CONTINUOUS
 62
     7
 10
89.9836322896
 20
196.3290350998
 30
0.0
  0
VERTEX
  5
2D7
  8
0
  6
CONTINUOUS
 62
     7
 10
90.4842170468
 20
196.5023475817
 30
0.0
  0
VERTEX
  5
2D8
  8
0
  6
CONTINUOUS
 62
     7
 10
90.8367796314
 20
196.6883974788
 30
0.0
  0
VERTEX
  5
2D9
  8
0
  6
CONTINUOUS
 62
     7
 10
91.0324746511
 20
196.8822292937
 30
0.0
  0
VERTEX
  5
2DA
  8
0
  6
CONTINUOUS
 62
     7
 10
91.0667305937
 20
197.0787046732
 30
0.0
  0
VERTEX
  5
2DB
  8
0
  6
CONTINUOUS
 62
     7
 10
90.9392066044
 20
197.272662178
 30
0.0
  0
SEQEND
  5
5E4
  8
0
  6
CONTINUOUS
 62
     7
  0
POLYLINE
  5
D0
  8
0
  6
CONTINUOUS
 62
     7
 66
     1
 10
0.0
 20
0.0
 30
0.0
  0
VERTEX
  5
2DC
  8
0
  6
CONTINUOUS
 62
     7
 10
90.9392066044
 20
197.272662178
 30
0.0
  0
VERTEX
  5
2DD
  8
0
  6
CONTINUOUS
 62
     7
 10
90.7509929762
 20
197.5233108357
 30
0.0
  0
VERTEX
  5
2DE
  8
0
  6
CONTINUOUS
 62
     7
 10
90.7263552626
 20
197.7763773608
 30
0.0
  0
VERTEX
  5
2DF
  8
0
  6
CONTINUOUS
 62
     7
 10
90.8648882202
 20
198.0278157265
 30
0.0
  0
VERTEX
  5
2E0
  8
0
  6
CONTINUOUS
 62
     7
 10
91.1636386266
 20
198.2736352317
 30
0.0
  0
VERTEX
  5
2E1
  8
0
  6
CONTINUOUS
 62
     7
 10
91.6171665404
 20
198.5099684809
 30
0.0
  0
VERTEX
  5
2E2
  8
0
  6
CONTINUOUS
 62
     7
 10
92.2176379137
 20
198.7331363502
 30
0.0
  0
VERTEX
  5
2E3
  8
0
  6
CONTINUOUS
 62
     7
 10
92.9550106952
 20
198.9396951283
 30
0.0
  0
VERTEX
  5
2E4
  8
0
  6
CONTINUOUS
 62
     7
 10
93.8172575774
 20
199.1264771241
 30
0.0
  0
SEQEND
  5
5E3
  8
0
  6
CONTINUOUS
 62
     7
  0
POLYLINE
  5
D1
  8
0
  6
CONTINUOUS
 62
     7
 66
     1
 10
0.0
 20
0.0
 30
0.0
  0
VERTEX
  5
2E5
  8
0
  6
CONTINUOUS
 62
     7
 10
93.8172575774
 20
199.1264771241
 30
0.0
  0
VERTEX
  5
2E6
  8
0
  6
CONTINUOUS
 62
     7
 10
94.6809413683
 20
199.3177117512
 30
0.0
  0
VERTEX
  5
2E7
  8
0
  6
CONTINUOUS
 62
     7
 10
95.3888256706
 20
199.5306805259
 30
0.0
  0
VERTEX
  5
2E8
  8
0
  6
CONTINUOUS
 62
     7
 10
95.925699217
 20
199.760538523
 30
0.0
  0
VERTEX
  5
2E9
  8
0
  6
CONTINUOUS
 62
     7
 10
96.2803388134
 20
200.0020982517
 30
0.0
  0
VERTEX
  5
2EA
  8
0
  6
CONTINUOUS
 62
     7
 10
96.445722264
 20
200.2499523507
 30
0.0
  0
VERTEX
  5
2EB
  8
0
  6
CONTINUOUS
 62
     7
 10
96.419079835
 20
200.4986053307
 30
0.0
  0
VERTEX
  5
2EC
  8
0
  6
CONTINUOUS
 62
     7
 10
96.2018823994
 20
200.742596278
 30
0.0
  0
VERTEX
  5
2ED
  8
0
  6
CONTINUOUS
 62
     7
 10
95.7997526443
 20
200.9766149565
 30
0.0
  0
SEQEND
  5
5E2
  8
0
  6
CONTINUOUS
 62
     7
  0
LINE
  5
D2
  8
0
  6
CONTINUOUS
 62
     7
 10
95.7997526443
 20
200.9766149565
 30
0.0
 11
94.1506709787
 21
201.7389813903
 31
0.0
  0
LINE
  5
D3
  8
0
  6
CONTINUOUS
 62
     7
 10
115.1836208806
 20
200.9604255754
 30
0.0
 11
101.8624608219
 21
198.3768987106
 31
0.0
  0
POLYLINE
  5
D4
  8
0
  6
CONTINUOUS
 62
     7
 66
     1
 10
0.0
 20
0.0
 30
0.0
  0
VERTEX
  5
2EE
  8
0
  6
CONTINUOUS
 62
     7
 10
101.8624608219
 20
198.3768987106
 30
0.0
  0
VERTEX
  5
2EF
  8
0
  6
CONTINUOUS
 62
     7
 10
100.9998881001
 20
198.3998134383
 30
0.0
  0
VERTEX
  5
2F0
  8
0
  6
CONTINUOUS
 62
     7
 10
100.1341295129
 20
198.3799694782
 30
0.0
  0
VERTEX
  5
2F1
  8
0
  6
CONTINUOUS
 62
     7
 10
99.3195106636
 20
198.3185960125
 30
0.0
  0
VERTEX
  5
2F2
  8
0
  6
CONTINUOUS
 62
     7
 10
98.6072618636
 20
198.2195021752
 30
0.0
  0
VERTEX
  5
2F3
  8
0
  6
CONTINUOUS
 62
     7
 10
98.0424074211
 20
198.0888530167
 30
0.0
  0
VERTEX
  5
2F4
  8
0
  6
CONTINUOUS
 62
     7
 10
97.6609119967
 20
197.9348192454
 30
0.0
  0
VERTEX
  5
2F5
  8
0
  6
CONTINUOUS
 62
     7
 10
97.4874365991
 20
197.7670778647
 30
0.0
  0
VERTEX
  5
2F6
  8
0
  6
CONTINUOUS
 62
     7
 10
97.5336173489
 20
197.5962334429
 30
0.0
  0
VERTEX
  5
2F7
  8
0
  6
CONTINUOUS
 62
     7
 10
97.7972147527
 20
197.4331486518
 30
0.0
  0
VERTEX
  5
2F8
  8
0
  6
CONTINUOUS
 62
     7
 10
98.2620453746
 20
197.2882588605
 30
0.0
  0
SEQEND
  5
5E1
  8
0
  6
CONTINUOUS
 62
     7
  0
LINE
  5
D5
  8
0
  6
CONTINUOUS
 62
     7
 10
98.2620453746
 20
197.2882588605
 30
0.0
 11
95.8595733066
 21
196.0391432732
 31
0.0
  0
LINE
  5
D6
  8
0
  6
CONTINUOUS
 62
     7
 10
95.8595733066
 20
196.0391432732
 30
0.0
 11
86.7112606072
 21
194.2520156913
 31
0.0
  0
LINE
  5
D7
  8
0
  6
CONTINUOUS
 62
     7
 10
95.8617719532
 20
195.3502226704
 30
0.0
 11
95.8595733066
 21
196.0391432732
 31
0.0
  0
LINE
  5
D8
  8
0
  6
CONTINUOUS
 62
     7
 10
86.1372054946
 20
195.8499645426
 30
0.0
 11
80.4026037713
 21
195.2391812941
 31
0.0
  0
ARC
  5
D9
  8
0
  6
CONTINUOUS
 62
     7
 10
86.267515423
 20
197.9029766348
 30
0.0
 40
2.057143487591098
 50
266.3681623762
 51
310.0278306139
  0
ARC
  5
DA
  8
0
  6
CONTINUOUS
 62
     7
 10
91.7503456494
 20
192.1556191917
 30
0.0
 40
6.77417817539019
 50
92.7196734958
 51
130.5741099734
  0
POLYLINE
  5
DB
  8
0
  6
CONTINUOUS
 62
     7
 66
     1
 10
0.0
 20
0.0
 30
0.0
  0
VERTEX
  5
2F9
  8
0
  6
CONTINUOUS
 62
     7
 10
93.0460099854
 20
199.6660800705
 30
0.0
  0
VERTEX
  5
2FA
  8
0
  6
CONTINUOUS
 62
     7
 10
93.0371676237
 20
199.6060829357
 30
0.0
  0
VERTEX
  5
2FB
  8
0
  6
CONTINUOUS
 62
     7
 10
92.933452097
 20
199.4548733125
 30
0.0
  0
VERTEX
  5
2FC
  8
0
  6
CONTINUOUS
 62
     7
 10
92.7150108737
 20
199.3076832792
 30
0.0
  0
VERTEX
  5
2FD
  8
0
  6
CONTINUOUS
 62
     7
 10
92.3863595513
 20
199.1677888884
 30
0.0
  0
VERTEX
  5
2FE
  8
0
  6
CONTINUOUS
 62
     7
 10
91.9545519555
 20
199.0383107236
 30
0.0
  0
VERTEX
  5
2FF
  8
0
  6
CONTINUOUS
 62
     7
 10
91.4289147291
 20
198.9221672123
 30
0.0
  0
SEQEND
  5
5E0
  8
0
  6
CONTINUOUS
 62
     7
  0
LINE
  5
DC
  8
0
  6
CONTINUOUS
 62
     7
 10
95.8018978287
 20
200.3075018729
 30
0.0
 11
94.1531690198
 21
201.0729327911
 31
0.0
  0
POLYLINE
  5
DD
  8
0
  6
CONTINUOUS
 62
     7
 66
     1
 10
0.0
 20
0.0
 30
0.0
  0
VERTEX
  5
300
  8
0
  6
CONTINUOUS
 62
     7
 10
96.3128909745
 20
199.975979448
 30
0.0
  0
VERTEX
  5
301
  8
0
  6
CONTINUOUS
 62
     7
 10
96.2039416315
 20
200.0725428379
 30
0.0
  0
VERTEX
  5
302
  8
0
  6
CONTINUOUS
 62
     7
 10
95.8018978287
 20
200.3075018729
 30
0.0
  0
SEQEND
  5
5DF
  8
0
  6
CONTINUOUS
 62
     7
  0
POLYLINE
  5
DE
  8
0
  6
CONTINUOUS
 62
     7
 66
     1
 10
0.0
 20
0.0
 30
0.0
  0
VERTEX
  5
303
  8
0
  6
CONTINUOUS
 62
     7
 10
90.7775306615
 20
196.792213537
 30
0.0
  0
VERTEX
  5
304
  8
0
  6
CONTINUOUS
 62
     7
 10
90.7543269709
 20
196.8403370087
 30
0.0
  0
VERTEX
  5
305
  8
0
  6
CONTINUOUS
 62
     7
 10
90.7196800059
 20
197.0036297054
 30
0.0
  0
SEQEND
  5
5DE
  8
0
  6
CONTINUOUS
 62
     7
  0
POLYLINE
  5
DF
  8
0
  6
CONTINUOUS
 62
     7
 66
     1
 10
0.0
 20
0.0
 30
0.0
  0
VERTEX
  5
306
  8
0
  6
CONTINUOUS
 62
     7
 10
84.3042609146
 20
197.1217139098
 30
0.0
  0
VERTEX
  5
307
  8
0
  6
CONTINUOUS
 62
     7
 10
84.1081054625
 20
197.0662194438
 30
0.0
  0
VERTEX
  5
308
  8
0
  6
CONTINUOUS
 62
     7
 10
84.033095155
 20
197.0007083883
 30
0.0
  0
VERTEX
  5
309
  8
0
  6
CONTINUOUS
 62
     7
 10
84.0907786362
 20
196.9351447891
 30
0.0
  0
VERTEX
  5
30A
  8
0
  6
CONTINUOUS
 62
     7
 10
84.2725043948
 20
196.8795240907
 30
0.0
  0
VERTEX
  5
30B
  8
0
  6
CONTINUOUS
 62
     7
 10
84.5507009446
 20
196.8423355185
 30
0.0
  0
VERTEX
  5
30C
  8
0
  6
CONTINUOUS
 62
     7
 10
84.8829407252
 20
196.829272342
 30
0.0
  0
VERTEX
  5
30D
  8
0
  6
CONTINUOUS
 62
     7
 10
85.218508464
 20
196.8423338235
 30
0.0
  0
VERTEX
  5
30E
  8
0
  6
CONTINUOUS
 62
     7
 10
85.5061631901
 20
196.8795221141
 30
0.0
  0
VERTEX
  5
30F
  8
0
  6
CONTINUOUS
 62
     7
 10
85.7020643703
 20
196.9351447327
 30
0.0
  0
VERTEX
  5
310
  8
0
  6
CONTINUOUS
 62
     7
 10
85.7764288498
 20
197.0007088958
 30
0.0
  0
VERTEX
  5
311
  8
0
  6
CONTINUOUS
 62
     7
 10
85.7180860348
 20
197.0662193875
 30
0.0
  0
VERTEX
  5
312
  8
0
  6
CONTINUOUS
 62
     7
 10
85.5360554544
 20
197.12171543
 30
0.0
  0
VERTEX
  5
313
  8
0
  6
CONTINUOUS
 62
     7
 10
85.25813109
 20
197.1587722429
 30
0.0
  0
VERTEX
  5
314
  8
0
  6
CONTINUOUS
 62
     7
 10
84.9265371248
 20
197.171782311
 30
0.0
  0
VERTEX
  5
315
  8
0
  6
CONTINUOUS
 62
     7
 10
84.5916287326
 20
197.1587739313
 30
0.0
  0
VERTEX
  5
316
  8
0
  6
CONTINUOUS
 62
     7
 10
84.3042609146
 20
197.1217139098
 30
0.0
  0
SEQEND
  5
5DD
  8
0
  6
CONTINUOUS
 62
     7
  0
POLYLINE
  5
E0
  8
0
  6
CONTINUOUS
 62
     7
 66
     1
 10
0.0
 20
0.0
 30
0.0
  0
VERTEX
  5
317
  8
0
  6
CONTINUOUS
 62
     7
 10
85.913998863
 20
200.6808517817
 30
0.0
  0
VERTEX
  5
318
  8
0
  6
CONTINUOUS
 62
     7
 10
85.4655369255
 20
200.5707537181
 30
0.0
  0
VERTEX
  5
319
  8
0
  6
CONTINUOUS
 62
     7
 10
85.1850033792
 20
200.4420245018
 30
0.0
  0
VERTEX
  5
31A
  8
0
  6
CONTINUOUS
 62
     7
 10
85.0936100477
 20
200.3041355294
 30
0.0
  0
VERTEX
  5
31B
  8
0
  6
CONTINUOUS
 62
     7
 10
85.1985827296
 20
200.1673003675
 30
0.0
  0
VERTEX
  5
31C
  8
0
  6
CONTINUOUS
 62
     7
 10
85.492618346
 20
200.0416977546
 30
0.0
  0
VERTEX
  5
31D
  8
0
  6
CONTINUOUS
 62
     7
 10
85.9542459508
 20
199.9367150586
 30
0.0
  0
VERTEX
  5
31E
  8
0
  6
CONTINUOUS
 62
     7
 10
86.5492936377
 20
199.8602369698
 30
0.0
  0
VERTEX
  5
31F
  8
0
  6
CONTINUOUS
 62
     7
 10
87.2334580277
 20
199.8180204973
 30
0.0
  0
VERTEX
  5
320
  8
0
  6
CONTINUOUS
 62
     7
 10
87.95558521
 20
199.8132545289
 30
0.0
  0
VERTEX
  5
321
  8
0
  6
CONTINUOUS
 62
     7
 10
88.6616093182
 20
199.8463010761
 30
0.0
  0
VERTEX
  5
322
  8
0
  6
CONTINUOUS
 62
     7
 10
89.2987457293
 20
199.91465925
 30
0.0
  0
VERTEX
  5
323
  8
0
  6
CONTINUOUS
 62
     7
 10
89.8194521348
 20
200.0131807139
 30
0.0
  0
VERTEX
  5
324
  8
0
  6
CONTINUOUS
 62
     7
 10
90.1851024076
 20
200.1344624757
 30
0.0
  0
VERTEX
  5
325
  8
0
  6
CONTINUOUS
 62
     7
 10
90.3688499263
 20
200.269423531
 30
0.0
  0
VERTEX
  5
326
  8
0
  6
CONTINUOUS
 62
     7
 10
90.3574796355
 20
200.4080163968
 30
0.0
  0
VERTEX
  5
327
  8
0
  6
CONTINUOUS
 62
     7
 10
90.1523415576
 20
200.5399673858
 30
0.0
  0
VERTEX
  5
328
  8
0
  6
CONTINUOUS
 62
     7
 10
89.7690705844
 20
200.6555438073
 30
0.0
  0
VERTEX
  5
329
  8
0
  6
CONTINUOUS
 62
     7
 10
89.236280989
 20
200.7462652242
 30
0.0
  0
VERTEX
  5
32A
  8
0
  6
CONTINUOUS
 62
     7
 10
88.5934449517
 20
200.8054944942
 30
0.0
  0
VERTEX
  5
32B
  8
0
  6
CONTINUOUS
 62
     7
 10
87.8879212273
 20
200.8289145793
 30
0.0
  0
VERTEX
  5
32C
  8
0
  6
CONTINUOUS
 62
     7
 10
87.1715664681
 20
200.8148220299
 30
0.0
  0
VERTEX
  5
32D
  8
0
  6
CONTINUOUS
 62
     7
 10
86.4970581224
 20
200.7642354549
 30
0.0
  0
VERTEX
  5
32E
  8
0
  6
CONTINUOUS
 62
     7
 10
85.913998863
 20
200.6808517817
 30
0.0
  0
SEQEND
  5
5DC
  8
0
  6
CONTINUOUS
 62
     7
  0
LINE
  5
E1
  8
0
  6
CONTINUOUS
 62
     7
 10
91.013898854
 20
201.4854449772
 30
0.0
 11
92.6504001721
 21
200.7206083036
 31
0.0
  0
POLYLINE
  5
E2
  8
0
  6
CONTINUOUS
 62
     7
 66
     1
 10
0.0
 20
0.0
 30
0.0
  0
VERTEX
  5
32F
  8
0
  6
CONTINUOUS
 62
     7
 10
92.6504001721
 20
200.7206083036
 30
0.0
  0
VERTEX
  5
330
  8
0
  6
CONTINUOUS
 62
     7
 10
92.8923918706
 20
200.5778954376
 30
0.0
  0
VERTEX
  5
331
  8
0
  6
CONTINUOUS
 62
     7
 10
93.0214414647
 20
200.4292769697
 30
0.0
  0
VERTEX
  5
332
  8
0
  6
CONTINUOUS
 62
     7
 10
93.0343981913
 20
200.2780027933
 30
0.0
  0
VERTEX
  5
333
  8
0
  6
CONTINUOUS
 62
     7
 10
92.9306569491
 20
200.1273980659
 30
0.0
  0
VERTEX
  5
334
  8
0
  6
CONTINUOUS
 62
     7
 10
92.7121644802
 20
199.9807967873
 30
0.0
  0
VERTEX
  5
335
  8
0
  6
CONTINUOUS
 62
     7
 10
92.3834373815
 20
199.8414619132
 30
0.0
  0
VERTEX
  5
336
  8
0
  6
CONTINUOUS
 62
     7
 10
91.9515310575
 20
199.7125015561
 30
0.0
  0
VERTEX
  5
337
  8
0
  6
CONTINUOUS
 62
     7
 10
91.4257742537
 20
199.596822485
 30
0.0
  0
SEQEND
  5
5DB
  8
0
  6
CONTINUOUS
 62
     7
  0
POLYLINE
  5
E3
  8
0
  6
CONTINUOUS
 62
     7
 66
     1
 10
0.0
 20
0.0
 30
0.0
  0
VERTEX
  5
338
  8
0
  6
CONTINUOUS
 62
     7
 10
91.4257742537
 20
199.596822485
 30
0.0
  0
VERTEX
  5
339
  8
0
  6
CONTINUOUS
 62
     7
 10
90.270217598
 20
199.3480460834
 30
0.0
  0
VERTEX
  5
33A
  8
0
  6
CONTINUOUS
 62
     7
 10
89.2801357668
 20
199.0727031818
 30
0.0
  0
VERTEX
  5
33B
  8
0
  6
CONTINUOUS
 62
     7
 10
88.4717961423
 20
198.7749513425
 30
0.0
  0
VERTEX
  5
33C
  8
0
  6
CONTINUOUS
 62
     7
 10
87.8589179223
 20
198.4593250084
 30
0.0
  0
VERTEX
  5
33D
  8
0
  6
CONTINUOUS
 62
     7
 10
87.4522791397
 20
198.1307029064
 30
0.0
  0
VERTEX
  5
33E
  8
0
  6
CONTINUOUS
 62
     7
 10
87.2596173513
 20
197.7942143319
 30
0.0
  0
VERTEX
  5
33F
  8
0
  6
CONTINUOUS
 62
     7
 10
87.2853388681
 20
197.4551838745
 30
0.0
  0
VERTEX
  5
340
  8
0
  6
CONTINUOUS
 62
     7
 10
87.5304173871
 20
197.1190396506
 30
0.0
  0
SEQEND
  5
5DA
  8
0
  6
CONTINUOUS
 62
     7
  0
POLYLINE
  5
E4
  8
0
  6
CONTINUOUS
 62
     7
 66
     1
 10
0.0
 20
0.0
 30
0.0
  0
VERTEX
  5
341
  8
0
  6
CONTINUOUS
 62
     7
 10
87.5304173871
 20
197.1190396506
 30
0.0
  0
VERTEX
  5
342
  8
0
  6
CONTINUOUS
 62
     7
 10
87.584085927
 20
197.0346236356
 30
0.0
  0
VERTEX
  5
343
  8
0
  6
CONTINUOUS
 62
     7
 10
87.567360306
 20
196.9492285032
 30
0.0
  0
VERTEX
  5
344
  8
0
  6
CONTINUOUS
 62
     7
 10
87.4805833183
 20
196.8650967344
 30
0.0
  0
VERTEX
  5
345
  8
0
  6
CONTINUOUS
 62
     7
 10
87.3259265742
 20
196.7844483745
 30
0.0
  0
VERTEX
  5
346
  8
0
  6
CONTINUOUS
 62
     7
 10
87.1073693669
 20
196.7094168492
 30
0.0
  0
VERTEX
  5
347
  8
0
  6
CONTINUOUS
 62
     7
 10
86.8305864592
 20
196.6419951516
 30
0.0
  0
VERTEX
  5
348
  8
0
  6
CONTINUOUS
 62
     7
 10
86.5028538034
 20
196.5839713283
 30
0.0
  0
VERTEX
  5
349
  8
0
  6
CONTINUOUS
 62
     7
 10
86.13280023
 20
196.536891455
 30
0.0
  0
SEQEND
  5
5D9
  8
0
  6
CONTINUOUS
 62
     7
  0
LINE
  5
E5
  8
0
  6
CONTINUOUS
 62
     7
 10
86.13280023
 20
196.536891455
 30
0.0
 11
80.3968718767
 21
195.9285447954
 31
0.0
  0
LINE
  5
E6
  8
0
  6
CONTINUOUS
 62
     7
 10
86.1372054946
 20
195.8499645426
 30
0.0
 11
86.13280023
 21
196.536891455
 31
0.0
  0
LINE
  5
E7
  8
0
  6
CONTINUOUS
 62
     7
 10
98.2636829919
 20
196.6043428116
 30
0.0
 11
98.2620453746
 21
197.2882588605
 31
0.0
  0
LINE
  5
E8
  8
0
  6
CONTINUOUS
 62
     7
 10
101.8624608219
 20
198.3768987106
 30
0.0
 11
101.8632774113
 21
197.6973478573
 31
0.0
  0
ARC
  5
E9
  8
0
  6
CONTINUOUS
 62
     7
 10
101.6468261559
 20
189.1326349424
 30
0.0
 40
8.567447604796511
 50
74.4013615785
 51
88.5523035946
  0
LINE
  5
EA
  8
0
  6
CONTINUOUS
 62
     7
 10
104.3035286469
 20
197.5498781516
 30
0.0
 11
104.3033911
 21
197.8993081301
 31
0.0
  0
LINE
  5
EB
  8
0
  6
CONTINUOUS
 62
     7
 10
91.4289147291
 20
198.9221672123
 30
0.0
 11
91.4257742537
 21
199.596822485
 31
0.0
  0
LINE
  5
EC
  8
0
  6
CONTINUOUS
 62
     7
 10
115.1814757098
 20
200.2912474331
 30
0.0
 11
101.8632774113
 21
197.6973478573
 31
0.0
  0
LINE
  5
ED
  8
0
  6
CONTINUOUS
 62
     7
 10
95.8018978287
 20
200.3075018729
 30
0.0
 11
95.7997526443
 21
200.9766149565
 31
0.0
  0
POLYLINE
  5
EE
  8
0
  6
CONTINUOUS
 62
     7
 66
     1
 10
0.0
 20
0.0
 30
0.0
  0
VERTEX
  5
34A
  8
0
  6
CONTINUOUS
 62
     7
 10
86.358834051
 20
127.1984604371
 30
0.0
  0
VERTEX
  5
34B
  8
0
  6
CONTINUOUS
 62
     7
 10
85.9594928431
 20
127.3512524169
 30
0.0
  0
VERTEX
  5
34C
  8
0
  6
CONTINUOUS
 62
     7
 10
85.7246119493
 20
127.5293795815
 30
0.0
  0
VERTEX
  5
34D
  8
0
  6
CONTINUOUS
 62
     7
 10
85.6712642576
 20
127.7195503625
 30
0.0
  0
VERTEX
  5
34E
  8
0
  6
CONTINUOUS
 62
     7
 10
85.7746108
 20
127.8828920417
 30
0.0
  0
SEQEND
  5
5D8
  8
0
  6
CONTINUOUS
 62
     7
  0
POLYLINE
  5
EF
  8
0
  6
CONTINUOUS
 62
     7
 66
     1
 10
0.0
 20
0.0
 30
0.0
  0
VERTEX
  5
34F
  8
0
  6
CONTINUOUS
 62
     7
 10
90.5577384964
 20
127.9133074774
 30
0.0
  0
VERTEX
  5
350
  8
0
  6
CONTINUOUS
 62
     7
 10
90.6587875568
 20
127.7673263783
 30
0.0
  0
VERTEX
  5
351
  8
0
  6
CONTINUOUS
 62
     7
 10
90.6232772052
 20
127.5763389101
 30
0.0
  0
VERTEX
  5
352
  8
0
  6
CONTINUOUS
 62
     7
 10
90.4053276431
 20
127.3939031316
 30
0.0
  0
VERTEX
  5
353
  8
0
  6
CONTINUOUS
 62
     7
 10
90.0207660669
 20
127.2336138546
 30
0.0
  0
VERTEX
  5
354
  8
0
  6
CONTINUOUS
 62
     7
 10
89.4979209052
 20
127.1074801747
 30
0.0
  0
VERTEX
  5
355
  8
0
  6
CONTINUOUS
 62
     7
 10
88.8756590825
 20
127.0249749244
 30
0.0
  0
VERTEX
  5
356
  8
0
  6
CONTINUOUS
 62
     7
 10
88.2003868207
 20
126.9923234988
 30
0.0
  0
VERTEX
  5
357
  8
0
  6
CONTINUOUS
 62
     7
 10
87.5226526965
 20
127.0119776255
 30
0.0
  0
VERTEX
  5
358
  8
0
  6
CONTINUOUS
 62
     7
 10
86.8931373102
 20
127.0824596537
 30
0.0
  0
VERTEX
  5
359
  8
0
  6
CONTINUOUS
 62
     7
 10
86.358834051
 20
127.1984604371
 30
0.0
  0
SEQEND
  5
5D7
  8
0
  6
CONTINUOUS
 62
     7
  0
POLYLINE
  5
F0
  8
0
  6
CONTINUOUS
 62
     7
 66
     1
 10
0.0
 20
0.0
 30
0.0
  0
VERTEX
  5
35A
  8
0
  6
CONTINUOUS
 62
     7
 10
86.7181337964
 20
127.7788966449
 30
0.0
  0
VERTEX
  5
35B
  8
0
  6
CONTINUOUS
 62
     7
 10
87.217089353
 20
127.6754820453
 30
0.0
  0
VERTEX
  5
35C
  8
0
  6
CONTINUOUS
 62
     7
 10
87.8093837301
 20
127.6210727378
 30
0.0
  0
VERTEX
  5
35D
  8
0
  6
CONTINUOUS
 62
     7
 10
88.4366732694
 20
127.6210724289
 30
0.0
  0
VERTEX
  5
35E
  8
0
  6
CONTINUOUS
 62
     7
 10
89.0371250785
 20
127.6754813507
 30
0.0
  0
VERTEX
  5
35F
  8
0
  6
CONTINUOUS
 62
     7
 10
89.5516390977
 20
127.7788947941
 30
0.0
  0
VERTEX
  5
360
  8
0
  6
CONTINUOUS
 62
     7
 10
89.9296750814
 20
127.9210864416
 30
0.0
  0
VERTEX
  5
361
  8
0
  6
CONTINUOUS
 62
     7
 10
90.1343894876
 20
128.0880131279
 30
0.0
  0
VERTEX
  5
362
  8
0
  6
CONTINUOUS
 62
     7
 10
90.1460573113
 20
128.2632732069
 30
0.0
  0
VERTEX
  5
363
  8
0
  6
CONTINUOUS
 62
     7
 10
89.9639634682
 20
128.429711207
 30
0.0
  0
VERTEX
  5
364
  8
0
  6
CONTINUOUS
 62
     7
 10
89.6063066241
 20
128.5710986326
 30
0.0
  0
VERTEX
  5
365
  8
0
  6
CONTINUOUS
 62
     7
 10
89.1082184027
 20
128.673713177
 30
0.0
  0
VERTEX
  5
366
  8
0
  6
CONTINUOUS
 62
     7
 10
88.5183165101
 20
128.7276280804
 30
0.0
  0
VERTEX
  5
367
  8
0
  6
CONTINUOUS
 62
     7
 10
87.8940301484
 20
128.7276283863
 30
0.0
  0
VERTEX
  5
368
  8
0
  6
CONTINUOUS
 62
     7
 10
87.2960453234
 20
128.6737139422
 30
0.0
  0
VERTEX
  5
369
  8
0
  6
CONTINUOUS
 62
     7
 10
86.7825192191
 20
128.5711003176
 30
0.0
  0
VERTEX
  5
36A
  8
0
  6
CONTINUOUS
 62
     7
 10
86.403615531
 20
128.4297086764
 30
0.0
  0
VERTEX
  5
36B
  8
0
  6
CONTINUOUS
 62
     7
 10
86.19650845
 20
128.2632762787
 30
0.0
  0
VERTEX
  5
36C
  8
0
  6
CONTINUOUS
 62
     7
 10
86.1818374658
 20
128.0880162043
 30
0.0
  0
VERTEX
  5
36D
  8
0
  6
CONTINUOUS
 62
     7
 10
86.3614645241
 20
127.9210838228
 30
0.0
  0
VERTEX
  5
36E
  8
0
  6
CONTINUOUS
 62
     7
 10
86.7181337964
 20
127.7788966449
 30
0.0
  0
SEQEND
  5
5D6
  8
0
  6
CONTINUOUS
 62
     7
  0
POLYLINE
  5
F1
  8
0
  6
CONTINUOUS
 62
     7
 66
     1
 10
0.0
 20
0.0
 30
0.0
  0
VERTEX
  5
36F
  8
0
  6
CONTINUOUS
 62
     7
 10
86.8591539484
 20
50.0734684749
 30
0.0
  0
VERTEX
  5
370
  8
0
  6
CONTINUOUS
 62
     7
 10
87.3797229494
 20
49.9228763825
 30
0.0
  0
VERTEX
  5
371
  8
0
  6
CONTINUOUS
 62
     7
 10
87.9929083523
 20
49.8313786161
 30
0.0
  0
VERTEX
  5
372
  8
0
  6
CONTINUOUS
 62
     7
 10
88.6529438419
 20
49.8058644469
 30
0.0
  0
VERTEX
  5
373
  8
0
  6
CONTINUOUS
 62
     7
 10
89.3104833965
 20
49.8482512307
 30
0.0
  0
VERTEX
  5
374
  8
0
  6
CONTINUOUS
 62
     7
 10
89.9163166656
 20
49.9553576622
 30
0.0
  0
VERTEX
  5
375
  8
0
  6
CONTINUOUS
 62
     7
 10
90.4252700749
 20
50.1191053827
 30
0.0
  0
VERTEX
  5
376
  8
0
  6
CONTINUOUS
 62
     7
 10
90.7995112581
 20
50.3272008947
 30
0.0
  0
VERTEX
  5
377
  8
0
  6
CONTINUOUS
 62
     7
 10
91.0114679879
 20
50.5640572635
 30
0.0
  0
VERTEX
  5
378
  8
0
  6
CONTINUOUS
 62
     7
 10
91.0545200477
 20
50.7365810945
 30
0.0
  0
SEQEND
  5
5D5
  8
0
  6
CONTINUOUS
 62
     7
  0
ARC
  5
F2
  8
0
  6
CONTINUOUS
 62
     7
 10
86.9951645177
 20
50.8980840346
 30
0.0
 40
0.8357569600863776
 50
194.0451977076
 51
260.6340644585
  0
POLYLINE
  5
F3
  8
0
  6
CONTINUOUS
 62
     7
 66
     1
 10
0.0
 20
0.0
 30
0.0
  0
VERTEX
  5
379
  8
0
  6
CONTINUOUS
 62
     7
 10
87.2147340118
 20
49.7468952354
 30
0.0
  0
VERTEX
  5
37A
  8
0
  6
CONTINUOUS
 62
     7
 10
86.8671958529
 20
49.9320900561
 30
0.0
  0
VERTEX
  5
37B
  8
0
  6
CONTINUOUS
 62
     7
 10
86.8399215743
 20
49.9540415253
 30
0.0
  0
SEQEND
  5
5D4
  8
0
  6
CONTINUOUS
 62
     7
  0
ARC
  5
F4
  8
0
  6
CONTINUOUS
 62
     7
 10
88.5549522261
 20
53.312534697
 30
0.0
 40
3.809195404800428
 50
249.4002470752
 51
299.1070354155
  0
POLYLINE
  5
F5
  8
0
  6
CONTINUOUS
 62
     7
 66
     1
 10
0.0
 20
0.0
 30
0.0
  0
VERTEX
  5
37C
  8
0
  6
CONTINUOUS
 62
     7
 10
112.5626379884
 20
119.6532504563
 30
0.0
  0
VERTEX
  5
37D
  8
0
  6
CONTINUOUS
 62
     7
 10
112.1324394352
 20
119.8161586175
 30
0.0
  0
VERTEX
  5
37E
  8
0
  6
CONTINUOUS
 62
     7
 10
111.8691134619
 20
120.0060705332
 30
0.0
  0
VERTEX
  5
37F
  8
0
  6
CONTINUOUS
 62
     7
 10
111.7918298083
 20
120.2088123539
 30
0.0
  0
VERTEX
  5
380
  8
0
  6
CONTINUOUS
 62
     7
 10
111.9058542528
 20
120.4093211626
 30
0.0
  0
VERTEX
  5
381
  8
0
  6
CONTINUOUS
 62
     7
 10
111.9121357109
 20
120.4151280864
 30
0.0
  0
SEQEND
  5
5D3
  8
0
  6
CONTINUOUS
 62
     7
  0
POLYLINE
  5
F6
  8
0
  6
CONTINUOUS
 62
     7
 66
     1
 10
0.0
 20
0.0
 30
0.0
  0
VERTEX
  5
382
  8
0
  6
CONTINUOUS
 62
     7
 10
116.8334688102
 20
120.3985139187
 30
0.0
  0
VERTEX
  5
383
  8
0
  6
CONTINUOUS
 62
     7
 10
116.9358822001
 20
120.2597448477
 30
0.0
  0
VERTEX
  5
384
  8
0
  6
CONTINUOUS
 62
     7
 10
116.921650323
 20
120.0561350677
 30
0.0
  0
VERTEX
  5
385
  8
0
  6
CONTINUOUS
 62
     7
 10
116.7180343864
 20
119.8616319364
 30
0.0
  0
VERTEX
  5
386
  8
0
  6
CONTINUOUS
 62
     7
 10
116.3397676121
 20
119.6907319617
 30
0.0
  0
VERTEX
  5
387
  8
0
  6
CONTINUOUS
 62
     7
 10
115.8146848483
 20
119.5562431676
 30
0.0
  0
VERTEX
  5
388
  8
0
  6
CONTINUOUS
 62
     7
 10
115.1818098442
 20
119.4682701741
 30
0.0
  0
VERTEX
  5
389
  8
0
  6
CONTINUOUS
 62
     7
 10
114.4883411437
 20
119.4334543266
 30
0.0
  0
VERTEX
  5
38A
  8
0
  6
CONTINUOUS
 62
     7
 10
113.7862026774
 20
119.4544113389
 30
0.0
  0
VERTEX
  5
38B
  8
0
  6
CONTINUOUS
 62
     7
 10
113.1279156798
 20
119.529564716
 30
0.0
  0
VERTEX
  5
38C
  8
0
  6
CONTINUOUS
 62
     7
 10
112.5626379884
 20
119.6532504563
 30
0.0
  0
SEQEND
  5
5D2
  8
0
  6
CONTINUOUS
 62
     7
  0
POLYLINE
  5
F7
  8
0
  6
CONTINUOUS
 62
     7
 66
     1
 10
0.0
 20
0.0
 30
0.0
  0
VERTEX
  5
38D
  8
0
  6
CONTINUOUS
 62
     7
 10
112.9264129989
 20
120.2546765827
 30
0.0
  0
VERTEX
  5
38E
  8
0
  6
CONTINUOUS
 62
     7
 10
113.4537467703
 20
120.1444129622
 30
0.0
  0
VERTEX
  5
38F
  8
0
  6
CONTINUOUS
 62
     7
 10
114.0717283875
 20
120.0863989022
 30
0.0
  0
VERTEX
  5
390
  8
0
  6
CONTINUOUS
 62
     7
 10
114.7194669696
 20
120.0863985729
 30
0.0
  0
VERTEX
  5
391
  8
0
  6
CONTINUOUS
 62
     7
 10
115.3330994851
 20
120.1444122215
 30
0.0
  0
VERTEX
  5
392
  8
0
  6
CONTINUOUS
 62
     7
 10
115.8522228067
 20
120.2546746093
 30
0.0
  0
VERTEX
  5
393
  8
0
  6
CONTINUOUS
 62
     7
 10
116.2258476793
 20
120.406278182
 30
0.0
  0
VERTEX
  5
394
  8
0
  6
CONTINUOUS
 62
     7
 10
116.4175869058
 20
120.5842462921
 30
0.0
  0
VERTEX
  5
395
  8
0
  6
CONTINUOUS
 62
     7
 10
116.4090148106
 20
120.771089993
 30
0.0
  0
VERTEX
  5
396
  8
0
  6
CONTINUOUS
 62
     7
 10
116.2014257176
 20
120.948519979
 30
0.0
  0
VERTEX
  5
397
  8
0
  6
CONTINUOUS
 62
     7
 10
115.8155300313
 20
121.0992384443
 30
0.0
  0
VERTEX
  5
398
  8
0
  6
CONTINUOUS
 62
     7
 10
115.2892178883
 20
121.2086213998
 30
0.0
  0
VERTEX
  5
399
  8
0
  6
CONTINUOUS
 62
     7
 10
114.6738467962
 20
121.2660912384
 30
0.0
  0
VERTEX
  5
39A
  8
0
  6
CONTINUOUS
 62
     7
 10
114.0293098848
 20
121.2660915646
 30
0.0
  0
VERTEX
  5
39B
  8
0
  6
CONTINUOUS
 62
     7
 10
113.4182474774
 20
121.2086222155
 30
0.0
  0
VERTEX
  5
39C
  8
0
  6
CONTINUOUS
 62
     7
 10
112.9000804538
 20
121.0992402405
 30
0.0
  0
VERTEX
  5
39D
  8
0
  6
CONTINUOUS
 62
     7
 10
112.5254335732
 20
120.9485172814
 30
0.0
  0
VERTEX
  5
39E
  8
0
  6
CONTINUOUS
 62
     7
 10
112.3310836424
 20
120.7710932678
 30
0.0
  0
VERTEX
  5
39F
  8
0
  6
CONTINUOUS
 62
     7
 10
112.3364540859
 20
120.584249572
 30
0.0
  0
VERTEX
  5
3A0
  8
0
  6
CONTINUOUS
 62
     7
 10
112.5414732628
 20
120.40627539
 30
0.0
  0
VERTEX
  5
3A1
  8
0
  6
CONTINUOUS
 62
     7
 10
112.9264129989
 20
120.2546765827
 30
0.0
  0
SEQEND
  5
5D1
  8
0
  6
CONTINUOUS
 62
     7
  0
POLYLINE
  5
F8
  8
0
  6
CONTINUOUS
 62
     7
 66
     1
 10
0.0
 20
0.0
 30
0.0
  0
VERTEX
  5
3A2
  8
0
  6
CONTINUOUS
 62
     7
 10
112.3718911247
 20
40.2864958283
 30
0.0
  0
VERTEX
  5
3A3
  8
0
  6
CONTINUOUS
 62
     7
 10
112.9218149907
 20
40.1262005515
 30
0.0
  0
VERTEX
  5
3A4
  8
0
  6
CONTINUOUS
 62
     7
 10
113.5622652607
 20
40.0288048366
 30
0.0
  0
VERTEX
  5
3A5
  8
0
  6
CONTINUOUS
 62
     7
 10
114.2454253129
 20
40.0016456969
 30
0.0
  0
VERTEX
  5
3A6
  8
0
  6
CONTINUOUS
 62
     7
 10
114.9202058203
 20
40.0467651981
 30
0.0
  0
VERTEX
  5
3A7
  8
0
  6
CONTINUOUS
 62
     7
 10
115.5360938773
 20
40.1607751352
 30
0.0
  0
VERTEX
  5
3A8
  8
0
  6
CONTINUOUS
 62
     7
 10
116.0471654592
 20
40.3350723053
 30
0.0
  0
VERTEX
  5
3A9
  8
0
  6
CONTINUOUS
 62
     7
 10
116.4154394899
 20
40.5565659146
 30
0.0
  0
VERTEX
  5
3AA
  8
0
  6
CONTINUOUS
 62
     7
 10
116.6138109882
 20
40.8086606087
 30
0.0
  0
VERTEX
  5
3AB
  8
0
  6
CONTINUOUS
 62
     7
 10
116.644795897
 20
40.9588713461
 30
0.0
  0
SEQEND
  5
5D0
  8
0
  6
CONTINUOUS
 62
     7
  0
ARC
  5
F9
  8
0
  6
CONTINUOUS
 62
     7
 10
112.5343312374
 20
41.214669264
 30
0.0
 40
0.9422805935087937
 50
194.3280890098
 51
260.0731698311
  0
POLYLINE
  5
FA
  8
0
  6
CONTINUOUS
 62
     7
 66
     1
 10
0.0
 20
0.0
 30
0.0
  0
VERTEX
  5
3AC
  8
0
  6
CONTINUOUS
 62
     7
 10
112.7235371569
 20
39.9554058464
 30
0.0
  0
VERTEX
  5
3AD
  8
0
  6
CONTINUOUS
 62
     7
 10
112.3492211921
 20
40.1525194169
 30
0.0
  0
VERTEX
  5
3AE
  8
0
  6
CONTINUOUS
 62
     7
 10
112.3032962558
 20
40.1891281261
 30
0.0
  0
SEQEND
  5
5CF
  8
0
  6
CONTINUOUS
 62
     7
  0
ARC
  5
FB
  8
0
  6
CONTINUOUS
 62
     7
 10
114.1079720665
 20
43.530378896
 30
0.0
 40
3.833678693347253
 50
248.8307347943
 51
298.8538878347
  0
POLYLINE
  5
FC
  8
0
  6
CONTINUOUS
 62
     7
 66
     1
 10
0.0
 20
0.0
 30
0.0
  0
VERTEX
  5
3AF
  8
0
  6
CONTINUOUS
 62
     7
 10
85.0194849926
 20
227.9177306953
 30
0.0
  0
VERTEX
  5
3B0
  8
0
  6
CONTINUOUS
 62
     7
 10
83.6305769368
 20
227.6690000386
 30
0.0
  0
VERTEX
  5
3B1
  8
0
  6
CONTINUOUS
 62
     7
 10
82.3858024465
 20
227.4002141072
 30
0.0
  0
VERTEX
  5
3B2
  8
0
  6
CONTINUOUS
 62
     7
 10
81.2964921308
 20
227.1135120214
 30
0.0
  0
VERTEX
  5
3B3
  8
0
  6
CONTINUOUS
 62
     7
 10
80.3729132387
 20
226.81119766
 30
0.0
  0
VERTEX
  5
3B4
  8
0
  6
CONTINUOUS
 62
     7
 10
79.6240776555
 20
226.4957399512
 30
0.0
  0
VERTEX
  5
3B5
  8
0
  6
CONTINUOUS
 62
     7
 10
79.0576495646
 20
226.1697555505
 30
0.0
  0
VERTEX
  5
3B6
  8
0
  6
CONTINUOUS
 62
     7
 10
78.6798654428
 20
225.8359878937
 30
0.0
  0
VERTEX
  5
3B7
  8
0
  6
CONTINUOUS
 62
     7
 10
78.4954697282
 20
225.4972825439
 30
0.0
  0
VERTEX
  5
3B8
  8
0
  6
CONTINUOUS
 62
     7
 10
78.5075586768
 20
225.1565761953
 30
0.0
  0
VERTEX
  5
3B9
  8
0
  6
CONTINUOUS
 62
     7
 10
78.7175019534
 20
224.8168737991
 30
0.0
  0
VERTEX
  5
3BA
  8
0
  6
CONTINUOUS
 62
     7
 10
79.1249716254
 20
224.481205731
 30
0.0
  0
VERTEX
  5
3BB
  8
0
  6
CONTINUOUS
 62
     7
 10
79.7277718669
 20
224.1526213247
 30
0.0
  0
VERTEX
  5
3BC
  8
0
  6
CONTINUOUS
 62
     7
 10
80.5218871042
 20
223.8341442929
 30
0.0
  0
VERTEX
  5
3BD
  8
0
  6
CONTINUOUS
 62
     7
 10
81.5014281459
 20
223.5287501505
 30
0.0
  0
VERTEX
  5
3BE
  8
0
  6
CONTINUOUS
 62
     7
 10
82.6586953917
 20
223.2393236308
 30
0.0
  0
VERTEX
  5
3BF
  8
0
  6
CONTINUOUS
 62
     7
 10
83.9841268056
 20
222.9686422758
 30
0.0
  0
VERTEX
  5
3C0
  8
0
  6
CONTINUOUS
 62
     7
 10
85.4664231155
 20
222.7193314508
 30
0.0
  0
VERTEX
  5
3C1
  8
0
  6
CONTINUOUS
 62
     7
 10
87.0926269122
 20
222.493832729
 30
0.0
  0
VERTEX
  5
3C2
  8
0
  6
CONTINUOUS
 62
     7
 10
88.8482312369
 20
222.2943742959
 30
0.0
  0
VERTEX
  5
3C3
  8
0
  6
CONTINUOUS
 62
     7
 10
90.7172179597
 20
222.1229583634
 30
0.0
  0
VERTEX
  5
3C4
  8
0
  6
CONTINUOUS
 62
     7
 10
92.6824126759
 20
221.9812998156
 30
0.0
  0
VERTEX
  5
3C5
  8
0
  6
CONTINUOUS
 62
     7
 10
94.7254657094
 20
221.8708378165
 30
0.0
  0
VERTEX
  5
3C6
  8
0
  6
CONTINUOUS
 62
     7
 10
96.8271462674
 20
221.7926993653
 30
0.0
  0
VERTEX
  5
3C7
  8
0
  6
CONTINUOUS
 62
     7
 10
98.9675857361
 20
221.7476789154
 30
0.0
  0
VERTEX
  5
3C8
  8
0
  6
CONTINUOUS
 62
     7
 10
101.1264265491
 20
221.7362405686
 30
0.0
  0
VERTEX
  5
3C9
  8
0
  6
CONTINUOUS
 62
     7
 10
103.2831317144
 20
221.7584980567
 30
0.0
  0
VERTEX
  5
3CA
  8
0
  6
CONTINUOUS
 62
     7
 10
105.4171629181
 20
221.8142249929
 30
0.0
  0
VERTEX
  5
3CB
  8
0
  6
CONTINUOUS
 62
     7
 10
107.5082333264
 20
221.9028548329
 30
0.0
  0
VERTEX
  5
3CC
  8
0
  6
CONTINUOUS
 62
     7
 10
109.5366250586
 20
222.0234754463
 30
0.0
  0
VERTEX
  5
3CD
  8
0
  6
CONTINUOUS
 62
     7
 10
111.4832595645
 20
222.1748677626
 30
0.0
  0
VERTEX
  5
3CE
  8
0
  6
CONTINUOUS
 62
     7
 10
113.3300861765
 20
222.3554934301
 30
0.0
  0
VERTEX
  5
3CF
  8
0
  6
CONTINUOUS
 62
     7
 10
115.0600846038
 20
222.563547734
 30
0.0
  0
VERTEX
  5
3D0
  8
0
  6
CONTINUOUS
 62
     7
 10
116.6576375546
 20
222.7969512351
 30
0.0
  0
VERTEX
  5
3D1
  8
0
  6
CONTINUOUS
 62
     7
 10
118.1085138609
 20
223.0534056114
 30
0.0
  0
VERTEX
  5
3D2
  8
0
  6
CONTINUOUS
 62
     7
 10
119.4000993121
 20
223.3304051432
 30
0.0
  0
VERTEX
  5
3D3
  8
0
  6
CONTINUOUS
 62
     7
 10
120.5215076918
 20
223.6252683131
 30
0.0
  0
VERTEX
  5
3D4
  8
0
  6
CONTINUOUS
 62
     7
 10
121.4635546378
 20
223.9351856064
 30
0.0
  0
VERTEX
  5
3D5
  8
0
  6
CONTINUOUS
 62
     7
 10
122.2188921342
 20
224.2572386783
 30
0.0
  0
VERTEX
  5
3D6
  8
0
  6
CONTINUOUS
 62
     7
 10
122.7820572191
 20
224.5884308603
 30
0.0
  0
VERTEX
  5
3D7
  8
0
  6
CONTINUOUS
 62
     7
 10
123.1494230342
 20
224.9257259949
 30
0.0
  0
VERTEX
  5
3D8
  8
0
  6
CONTINUOUS
 62
     7
 10
123.3191630508
 20
225.2660822185
 30
0.0
  0
VERTEX
  5
3D9
  8
0
  6
CONTINUOUS
 62
     7
 10
123.2913019277
 20
225.6064680884
 30
0.0
  0
VERTEX
  5
3DA
  8
0
  6
CONTINUOUS
 62
     7
 10
123.0675661803
 20
225.9439051269
 30
0.0
  0
VERTEX
  5
3DB
  8
0
  6
CONTINUOUS
 62
     7
 10
122.6513963836
 20
226.2754797194
 30
0.0
  0
VERTEX
  5
3DC
  8
0
  6
CONTINUOUS
 62
     7
 10
122.0478244817
 20
226.5983729864
 30
0.0
  0
VERTEX
  5
3DD
  8
0
  6
CONTINUOUS
 62
     7
 10
121.2633664389
 20
226.9098841525
 30
0.0
  0
VERTEX
  5
3DE
  8
0
  6
CONTINUOUS
 62
     7
 10
120.3059614363
 20
227.2074466771
 30
0.0
  0
VERTEX
  5
3DF
  8
0
  6
CONTINUOUS
 62
     7
 10
119.1848810154
 20
227.4886368404
 30
0.0
  0
VERTEX
  5
3E0
  8
0
  6
CONTINUOUS
 62
     7
 10
117.9105615344
 20
227.7512026361
 30
0.0
  0
VERTEX
  5
3E1
  8
0
  6
CONTINUOUS
 62
     7
 10
116.4945621851
 20
227.9930630587
 30
0.0
  0
VERTEX
  5
3E2
  8
0
  6
CONTINUOUS
 62
     7
 10
114.949365989
 20
228.2123325949
 30
0.0
  0
VERTEX
  5
3E3
  8
0
  6
CONTINUOUS
 62
     7
 10
113.2884060878
 20
228.4073098851
 30
0.0
  0
VERTEX
  5
3E4
  8
0
  6
CONTINUOUS
 62
     7
 10
111.5258104169
 20
228.5765067804
 30
0.0
  0
VERTEX
  5
3E5
  8
0
  6
CONTINUOUS
 62
     7
 10
109.6763819734
 20
228.7186383977
 30
0.0
  0
VERTEX
  5
3E6
  8
0
  6
CONTINUOUS
 62
     7
 10
107.7554766182
 20
228.8326365033
 30
0.0
  0
VERTEX
  5
3E7
  8
0
  6
CONTINUOUS
 62
     7
 10
105.7789087612
 20
228.9176439528
 30
0.0
  0
VERTEX
  5
3E8
  8
0
  6
CONTINUOUS
 62
     7
 10
103.7627709845
 20
228.9730353954
 30
0.0
  0
VERTEX
  5
3E9
  8
0
  6
CONTINUOUS
 62
     7
 10
101.7234770291
 20
228.9983941856
 30
0.0
  0
VERTEX
  5
3EA
  8
0
  6
CONTINUOUS
 62
     7
 10
99.6775000494
 20
228.993538536
 30
0.0
  0
VERTEX
  5
3EB
  8
0
  6
CONTINUOUS
 62
     7
 10
97.6414374355
 20
228.9584984931
 30
0.0
  0
VERTEX
  5
3EC
  8
0
  6
CONTINUOUS
 62
     7
 10
95.6317663195
 20
228.8935362094
 30
0.0
  0
VERTEX
  5
3ED
  8
0
  6
CONTINUOUS
 62
     7
 10
93.6648392356
 20
228.7991325064
 30
0.0
  0
VERTEX
  5
3EE
  8
0
  6
CONTINUOUS
 62
     7
 10
91.7567325826
 20
228.6759918873
 30
0.0
  0
VERTEX
  5
3EF
  8
0
  6
CONTINUOUS
 62
     7
 10
89.9231648986
 20
228.5250382771
 30
0.0
  0
VERTEX
  5
3F0
  8
0
  6
CONTINUOUS
 62
     7
 10
88.1794171182
 20
228.3474078386
 30
0.0
  0
VERTEX
  5
3F1
  8
0
  6
CONTINUOUS
 62
     7
 10
86.5401901016
 20
228.1444512408
 30
0.0
  0
VERTEX
  5
3F2
  8
0
  6
CONTINUOUS
 62
     7
 10
85.0194849926
 20
227.9177306953
 30
0.0
  0
SEQEND
  5
5CE
  8
0
  6
CONTINUOUS
 62
     7
  0
POLYLINE
  5
FD
  8
0
  6
CONTINUOUS
 62
     7
 66
     1
 10
0.0
 20
0.0
 30
0.0
  0
VERTEX
  5
3F3
  8
0
  6
CONTINUOUS
 62
     7
 10
75.0373094526
 20
218.362966407
 30
0.0
  0
VERTEX
  5
3F4
  8
0
  6
CONTINUOUS
 62
     7
 10
75.1143928196
 20
218.0304082134
 30
0.0
  0
VERTEX
  5
3F5
  8
0
  6
CONTINUOUS
 62
     7
 10
75.3881986978
 20
217.6471357755
 30
0.0
  0
VERTEX
  5
3F6
  8
0
  6
CONTINUOUS
 62
     7
 10
75.8595509028
 20
217.2685927452
 30
0.0
  0
VERTEX
  5
3F7
  8
0
  6
CONTINUOUS
 62
     7
 10
76.5263259204
 20
216.8977808235
 30
0.0
  0
VERTEX
  5
3F8
  8
0
  6
CONTINUOUS
 62
     7
 10
77.3848436141
 20
216.5376759727
 30
0.0
  0
VERTEX
  5
3F9
  8
0
  6
CONTINUOUS
 62
     7
 10
78.4297098001
 20
216.1912242935
 30
0.0
  0
VERTEX
  5
3FA
  8
0
  6
CONTINUOUS
 62
     7
 10
79.65397167
 20
215.8612878756
 30
0.0
  0
VERTEX
  5
3FB
  8
0
  6
CONTINUOUS
 62
     7
 10
81.0489965606
 20
215.5506413127
 30
0.0
  0
VERTEX
  5
3FC
  8
0
  6
CONTINUOUS
 62
     7
 10
82.6046368033
 20
215.2619191666
 30
0.0
  0
VERTEX
  5
3FD
  8
0
  6
CONTINUOUS
 62
     7
 10
84.3091461297
 20
214.9976135839
 30
0.0
  0
VERTEX
  5
3FE
  8
0
  6
CONTINUOUS
 62
     7
 10
86.1494466669
 20
214.7600140119
 30
0.0
  0
VERTEX
  5
3FF
  8
0
  6
CONTINUOUS
 62
     7
 10
88.1110421109
 20
214.5512123658
 30
0.0
  0
VERTEX
  5
400
  8
0
  6
CONTINUOUS
 62
     7
 10
90.1782749212
 20
214.3730557563
 30
0.0
  0
VERTEX
  5
401
  8
0
  6
CONTINUOUS
 62
     7
 10
92.3343921818
 20
214.2271358657
 30
0.0
  0
VERTEX
  5
402
  8
0
  6
CONTINUOUS
 62
     7
 10
94.5617494937
 20
214.1147621486
 30
0.0
  0
VERTEX
  5
403
  8
0
  6
CONTINUOUS
 62
     7
 10
96.8419725916
 20
214.0369468244
 30
0.0
  0
VERTEX
  5
404
  8
0
  6
CONTINUOUS
 62
     7
 10
99.1560985902
 20
213.9943997842
 30
0.0
  0
VERTEX
  5
405
  8
0
  6
CONTINUOUS
 62
     7
 10
101.4848803436
 20
213.9874997022
 30
0.0
  0
VERTEX
  5
406
  8
0
  6
CONTINUOUS
 62
     7
 10
103.8088600155
 20
214.0163123221
 30
0.0
  0
VERTEX
  5
407
  8
0
  6
CONTINUOUS
 62
     7
 10
106.1086372675
 20
214.0805783391
 30
0.0
  0
VERTEX
  5
408
  8
0
  6
CONTINUOUS
 62
     7
 10
108.3650845684
 20
214.1797141681
 30
0.0
  0
VERTEX
  5
409
  8
0
  6
CONTINUOUS
 62
     7
 10
110.5595287647
 20
214.3128228317
 30
0.0
  0
VERTEX
  5
40A
  8
0
  6
CONTINUOUS
 62
     7
 10
112.6739314593
 20
214.4787076061
 30
0.0
  0
VERTEX
  5
40B
  8
0
  6
CONTINUOUS
 62
     7
 10
114.6910839794
 20
214.6758846391
 30
0.0
  0
VERTEX
  5
40C
  8
0
  6
CONTINUOUS
 62
     7
 10
116.5947769873
 20
214.9026009317
 30
0.0
  0
VERTEX
  5
40D
  8
0
  6
CONTINUOUS
 62
     7
 10
118.3699430818
 20
215.1568573028
 30
0.0
  0
VERTEX
  5
40E
  8
0
  6
CONTINUOUS
 62
     7
 10
120.0027510248
 20
215.4364389845
 30
0.0
  0
VERTEX
  5
40F
  8
0
  6
CONTINUOUS
 62
     7
 10
121.4808226009
 20
215.7389237714
 30
0.0
  0
VERTEX
  5
410
  8
0
  6
CONTINUOUS
 62
     7
 10
122.7931682677
 20
216.0617359672
 30
0.0
  0
VERTEX
  5
411
  8
0
  6
CONTINUOUS
 62
     7
 10
123.9304188849
 20
216.4021478331
 30
0.0
  0
VERTEX
  5
412
  8
0
  6
CONTINUOUS
 62
     7
 10
124.8847760445
 20
216.7573257034
 30
0.0
  0
VERTEX
  5
413
  8
0
  6
CONTINUOUS
 62
     7
 10
125.650062069
 20
217.1243544263
 30
0.0
  0
VERTEX
  5
414
  8
0
  6
CONTINUOUS
 62
     7
 10
126.2217245499
 20
217.5002671686
 30
0.0
  0
VERTEX
  5
415
  8
0
  6
CONTINUOUS
 62
     7
 10
126.5968509114
 20
217.8820700551
 30
0.0
  0
VERTEX
  5
416
  8
0
  6
CONTINUOUS
 62
     7
 10
126.7741298087
 20
218.266769698
 30
0.0
  0
VERTEX
  5
417
  8
0
  6
CONTINUOUS
 62
     7
 10
126.7896491983
 20
218.4142472746
 30
0.0
  0
SEQEND
  5
5CD
  8
0
  6
CONTINUOUS
 62
     7
  0
POLYLINE
  5
FE
  8
0
  6
CONTINUOUS
 62
     7
 66
     1
 10
0.0
 20
0.0
 30
0.0
  0
VERTEX
  5
418
  8
0
  6
CONTINUOUS
 62
     7
 10
98.134568829
 20
225.8946310218
 30
0.0
  0
VERTEX
  5
419
  8
0
  6
CONTINUOUS
 62
     7
 10
97.6099376543
 20
225.7837459244
 30
0.0
  0
VERTEX
  5
41A
  8
0
  6
CONTINUOUS
 62
     7
 10
97.2495072444
 20
225.6567926875
 30
0.0
  0
VERTEX
  5
41B
  8
0
  6
CONTINUOUS
 62
     7
 10
97.0716885458
 20
225.5200732602
 30
0.0
  0
VERTEX
  5
41C
  8
0
  6
CONTINUOUS
 62
     7
 10
97.086000895
 20
225.3803959436
 30
0.0
  0
VERTEX
  5
41D
  8
0
  6
CONTINUOUS
 62
     7
 10
97.2922697864
 20
225.244777192
 30
0.0
  0
VERTEX
  5
41E
  8
0
  6
CONTINUOUS
 62
     7
 10
97.6807105333
 20
225.1200577452
 30
0.0
  0
VERTEX
  5
41F
  8
0
  6
CONTINUOUS
 62
     7
 10
98.2321776561
 20
225.0125730162
 30
0.0
  0
VERTEX
  5
420
  8
0
  6
CONTINUOUS
 62
     7
 10
98.9191408446
 20
224.9278056224
 30
0.0
  0
VERTEX
  5
421
  8
0
  6
CONTINUOUS
 62
     7
 10
99.7069916389
 20
224.8700998788
 30
0.0
  0
VERTEX
  5
422
  8
0
  6
CONTINUOUS
 62
     7
 10
100.5558225404
 20
224.8424234456
 30
0.0
  0
VERTEX
  5
423
  8
0
  6
CONTINUOUS
 62
     7
 10
101.4225288286
 20
224.8461998876
 30
0.0
  0
VERTEX
  5
424
  8
0
  6
CONTINUOUS
 62
     7
 10
102.2630411574
 20
224.8812363079
 30
0.0
  0
VERTEX
  5
425
  8
0
  6
CONTINUOUS
 62
     7
 10
103.0347072944
 20
224.9457257951
 30
0.0
  0
VERTEX
  5
426
  8
0
  6
CONTINUOUS
 62
     7
 10
103.6984553945
 20
225.0363600504
 30
0.0
  0
VERTEX
  5
427
  8
0
  6
CONTINUOUS
 62
     7
 10
104.2209270933
 20
225.1484946367
 30
0.0
  0
VERTEX
  5
428
  8
0
  6
CONTINUOUS
 62
     7
 10
104.5760764067
 20
225.2764159842
 30
0.0
  0
VERTEX
  5
429
  8
0
  6
CONTINUOUS
 62
     7
 10
104.7464864081
 20
225.4136386207
 30
0.0
  0
VERTEX
  5
42A
  8
0
  6
CONTINUOUS
 62
     7
 10
104.7241754494
 20
225.5532433705
 30
0.0
  0
VERTEX
  5
42B
  8
0
  6
CONTINUOUS
 62
     7
 10
104.5108322936
 20
225.6882394566
 30
0.0
  0
VERTEX
  5
42C
  8
0
  6
CONTINUOUS
 62
     7
 10
104.1176941287
 20
225.8119010837
 30
0.0
  0
VERTEX
  5
42D
  8
0
  6
CONTINUOUS
 62
     7
 10
103.5648185012
 20
225.9181053535
 30
0.0
  0
VERTEX
  5
42E
  8
0
  6
CONTINUOUS
 62
     7
 10
102.880014997
 20
226.0016232796
 30
0.0
  0
VERTEX
  5
42F
  8
0
  6
CONTINUOUS
 62
     7
 10
102.0974638699
 20
226.0583579426
 30
0.0
  0
VERTEX
  5
430
  8
0
  6
CONTINUOUS
 62
     7
 10
101.2560232005
 20
226.0855340944
 30
0.0
  0
VERTEX
  5
431
  8
0
  6
CONTINUOUS
 62
     7
 10
100.3973343018
 20
226.0818272795
 30
0.0
  0
VERTEX
  5
432
  8
0
  6
CONTINUOUS
 62
     7
 10
99.5638776201
 20
226.0474165033
 30
0.0
  0
VERTEX
  5
433
  8
0
  6
CONTINUOUS
 62
     7
 10
98.7969089456
 20
225.9839848319
 30
0.0
  0
VERTEX
  5
434
  8
0
  6
CONTINUOUS
 62
     7
 10
98.134568829
 20
225.8946310218
 30
0.0
  0
SEQEND
  5
5CC
  8
0
  6
CONTINUOUS
 62
     7
  0
POLYLINE
  5
FF
  8
0
  6
CONTINUOUS
 62
     7
 66
     1
 10
0.0
 20
0.0
 30
0.0
  0
VERTEX
  5
435
  8
0
  6
CONTINUOUS
 62
     7
 10
78.3530326421
 20
216.2266578743
 30
0.0
  0
VERTEX
  5
436
  8
0
  6
CONTINUOUS
 62
     7
 10
78.5458500257
 20
215.9980261005
 30
0.0
  0
VERTEX
  5
437
  8
0
  6
CONTINUOUS
 62
     7
 10
79.0121629885
 20
215.6400617829
 30
0.0
  0
VERTEX
  5
438
  8
0
  6
CONTINUOUS
 62
     7
 10
79.6729388942
 20
215.2905389894
 30
0.0
  0
VERTEX
  5
439
  8
0
  6
CONTINUOUS
 62
     7
 10
80.5236539378
 20
214.9526551094
 30
0.0
  0
VERTEX
  5
43A
  8
0
  6
CONTINUOUS
 62
     7
 10
81.5580038544
 20
214.6295343644
 30
0.0
  0
VERTEX
  5
43B
  8
0
  6
CONTINUOUS
 62
     7
 10
82.7678341289
 20
214.3242095818
 30
0.0
  0
VERTEX
  5
43C
  8
0
  6
CONTINUOUS
 62
     7
 10
84.1432164382
 20
214.0395813807
 30
0.0
  0
VERTEX
  5
43D
  8
0
  6
CONTINUOUS
 62
     7
 10
85.6724702287
 20
213.7783901427
 30
0.0
  0
VERTEX
  5
43E
  8
0
  6
CONTINUOUS
 62
     7
 10
87.3423470138
 20
213.5431676845
 30
0.0
  0
VERTEX
  5
43F
  8
0
  6
CONTINUOUS
 62
     7
 10
89.1380076185
 20
213.3362279308
 30
0.0
  0
VERTEX
  5
440
  8
0
  6
CONTINUOUS
 62
     7
 10
91.0432896289
 20
213.1596146033
 30
0.0
  0
VERTEX
  5
441
  8
0
  6
CONTINUOUS
 62
     7
 10
93.0407754825
 20
213.015090452
 30
0.0
  0
VERTEX
  5
442
  8
0
  6
CONTINUOUS
 62
     7
 10
95.1120331399
 20
212.9041029771
 30
0.0
  0
VERTEX
  5
443
  8
0
  6
CONTINUOUS
 62
     7
 10
97.2377482142
 20
212.8277766056
 30
0.0
  0
VERTEX
  5
444
  8
0
  6
CONTINUOUS
 62
     7
 10
99.3980609514
 20
212.7868746548
 30
0.0
  0
VERTEX
  5
445
  8
0
  6
CONTINUOUS
 62
     7
 10
101.5726253343
 20
212.7818194347
 30
0.0
  0
VERTEX
  5
446
  8
0
  6
CONTINUOUS
 62
     7
 10
103.7409945404
 20
212.812658273
 30
0.0
  0
VERTEX
  5
447
  8
0
  6
CONTINUOUS
 62
     7
 10
105.8827587187
 20
212.8790811912
 30
0.0
  0
VERTEX
  5
448
  8
0
  6
CONTINUOUS
 62
     7
 10
107.9778360809
 20
212.9804149252
 30
0.0
  0
VERTEX
  5
449
  8
0
  6
CONTINUOUS
 62
     7
 10
110.0066937827
 20
213.1156343275
 30
0.0
  0
VERTEX
  5
44A
  8
0
  6
CONTINUOUS
 62
     7
 10
111.9505475952
 20
213.2833801072
 30
0.0
  0
SEQEND
  5
5CB
  8
0
  6
CONTINUOUS
 62
     7
  0
LINE
  5
100
  8
0
  6
CONTINUOUS
 62
     7
 10
111.9529610122
 20
214.4177253811
 30
0.0
 11
111.9505475952
 21
213.2833801072
 31
0.0
  0
ARC
  5
101
  8
0
  6
CONTINUOUS
 62
     7
 10
100.9016014035
 20
235.5528633595
 30
0.0
 40
23.54604003135845
 50
253.7071292941
 51
286.424283241
  0
LINE
  5
102
  8
0
  6
CONTINUOUS
 62
     7
 10
121.6008388549
 20
215.7660359557
 30
0.0
 11
121.5972899796
 21
215.096736223
 31
0.0
  0
LINE
  5
103
  8
0
  6
CONTINUOUS
 62
     7
 10
120.2201187926
 20
215.3203494525
 30
0.0
 11
121.5972899796
 21
215.096736223
 31
0.0
  0
LINE
  5
104
  8
0
  6
CONTINUOUS
 62
     7
 10
120.2208820837
 20
215.4777745164
 30
0.0
 11
120.2201187926
 21
215.3203494525
 31
0.0
  0
ARC
  5
105
  8
0
  6
CONTINUOUS
 62
     7
 10
120.6409923253
 20
218.7340538925
 30
0.0
 40
3.760928745978578
 50
284.7304328091
 51
318.9592594022
  0
POLYLINE
  5
106
  8
0
  6
CONTINUOUS
 62
     7
 66
     1
 10
0.0
 20
0.0
 30
0.0
  0
VERTEX
  5
44B
  8
0
  6
CONTINUOUS
 62
     7
 10
83.5372644364
 20
165.7259866282
 30
0.0
  0
VERTEX
  5
44C
  8
0
  6
CONTINUOUS
 62
     7
 10
82.0279257886
 20
165.3507192255
 30
0.0
  0
VERTEX
  5
44D
  8
0
  6
CONTINUOUS
 62
     7
 10
80.6543878035
 20
164.9452772409
 30
0.0
  0
VERTEX
  5
44E
  8
0
  6
CONTINUOUS
 62
     7
 10
79.4273974534
 20
164.5123997965
 30
0.0
  0
VERTEX
  5
44F
  8
0
  6
CONTINUOUS
 62
     7
 10
78.3568793951
 20
164.0550403568
 30
0.0
  0
VERTEX
  5
450
  8
0
  6
CONTINUOUS
 62
     7
 10
77.4517765825
 20
163.5763711781
 30
0.0
  0
VERTEX
  5
451
  8
0
  6
CONTINUOUS
 62
     7
 10
76.7199364757
 20
163.0797753342
 30
0.0
  0
VERTEX
  5
452
  8
0
  6
CONTINUOUS
 62
     7
 10
76.1681794699
 20
162.5687907194
 30
0.0
  0
VERTEX
  5
453
  8
0
  6
CONTINUOUS
 62
     7
 10
75.8020019785
 20
162.047142842
 30
0.0
  0
VERTEX
  5
454
  8
0
  6
CONTINUOUS
 62
     7
 10
75.6256564886
 20
161.5186828822
 30
0.0
  0
VERTEX
  5
455
  8
0
  6
CONTINUOUS
 62
     7
 10
75.6420421717
 20
160.9873714571
 30
0.0
  0
VERTEX
  5
456
  8
0
  6
CONTINUOUS
 62
     7
 10
75.8525586436
 20
160.4572695318
 30
0.0
  0
VERTEX
  5
457
  8
0
  6
CONTINUOUS
 62
     7
 10
76.2571600881
 20
159.9324814315
 30
0.0
  0
VERTEX
  5
458
  8
0
  6
CONTINUOUS
 62
     7
 10
76.8542179777
 20
159.4171430908
 30
0.0
  0
VERTEX
  5
459
  8
0
  6
CONTINUOUS
 62
     7
 10
77.6405571808
 20
158.915371626
 30
0.0
  0
VERTEX
  5
45A
  8
0
  6
CONTINUOUS
 62
     7
 10
78.6113888887
 20
158.4312382013
 30
0.0
  0
VERTEX
  5
45B
  8
0
  6
CONTINUOUS
 62
     7
 10
79.7602814154
 20
157.9687379113
 30
0.0
  0
VERTEX
  5
45C
  8
0
  6
CONTINUOUS
 62
     7
 10
81.0793022384
 20
157.5317179851
 30
0.0
  0
VERTEX
  5
45D
  8
0
  6
CONTINUOUS
 62
     7
 10
82.5588750274
 20
157.1238821742
 30
0.0
  0
VERTEX
  5
45E
  8
0
  6
CONTINUOUS
 62
     7
 10
84.187975658
 20
156.7487150512
 30
0.0
  0
VERTEX
  5
45F
  8
0
  6
CONTINUOUS
 62
     7
 10
85.9541387891
 20
156.4094622801
 30
0.0
  0
VERTEX
  5
460
  8
0
  6
CONTINUOUS
 62
     7
 10
87.8435837124
 20
156.10908342
 30
0.0
  0
VERTEX
  5
461
  8
0
  6
CONTINUOUS
 62
     7
 10
89.8412750835
 20
155.8502306696
 30
0.0
  0
VERTEX
  5
462
  8
0
  6
CONTINUOUS
 62
     7
 10
91.9311308059
 20
155.6351983094
 30
0.0
  0
VERTEX
  5
463
  8
0
  6
CONTINUOUS
 62
     7
 10
94.0961042301
 20
155.4659118463
 30
0.0
  0
VERTEX
  5
464
  8
0
  6
CONTINUOUS
 62
     7
 10
96.3184076365
 20
155.3438876375
 30
0.0
  0
VERTEX
  5
465
  8
0
  6
CONTINUOUS
 62
     7
 10
98.5796316671
 20
155.2702304696
 30
0.0
  0
VERTEX
  5
466
  8
0
  6
CONTINUOUS
 62
     7
 10
100.8609984436
 20
155.2456009912
 30
0.0
  0
VERTEX
  5
467
  8
0
  6
CONTINUOUS
 62
     7
 10
103.1434861549
 20
155.2702261506
 30
0.0
  0
VERTEX
  5
468
  8
0
  6
CONTINUOUS
 62
     7
 10
105.4080673206
 20
155.3438850479
 30
0.0
  0
VERTEX
  5
469
  8
0
  6
CONTINUOUS
 62
     7
 10
107.6359210606
 20
155.4659095473
 30
0.0
  0
VERTEX
  5
46A
  8
0
  6
CONTINUOUS
 62
     7
 10
109.8086080909
 20
155.6351975922
 30
0.0
  0
VERTEX
  5
46B
  8
0
  6
CONTINUOUS
 62
     7
 10
111.908246548
 20
155.8502306338
 30
0.0
  0
VERTEX
  5
46C
  8
0
  6
CONTINUOUS
 62
     7
 10
113.9177217498
 20
156.1090851423
 30
0.0
  0
VERTEX
  5
46D
  8
0
  6
CONTINUOUS
 62
     7
 10
115.8208365784
 20
156.4094613191
 30
0.0
  0
VERTEX
  5
46E
  8
0
  6
CONTINUOUS
 62
     7
 10
117.602433403
 20
156.7487181017
 30
0.0
  0
VERTEX
  5
46F
  8
0
  6
CONTINUOUS
 62
     7
 10
119.2486207587
 20
157.123882881
 30
0.0
  0
VERTEX
  5
470
  8
0
  6
CONTINUOUS
 62
     7
 10
120.7467463058
 20
157.5317215048
 30
0.0
  0
VERTEX
  5
471
  8
0
  6
CONTINUOUS
 62
     7
 10
122.0856558123
 20
157.968735248
 30
0.0
  0
VERTEX
  5
472
  8
0
  6
CONTINUOUS
 62
     7
 10
123.2556056627
 20
158.4312395966
 30
0.0
  0
VERTEX
  5
473
  8
0
  6
CONTINUOUS
 62
     7
 10
124.2484610914
 20
158.9153691266
 30
0.0
  0
VERTEX
  5
474
  8
0
  6
CONTINUOUS
 62
     7
 10
125.0576414179
 20
159.4171397749
 30
0.0
  0
VERTEX
  5
475
  8
0
  6
CONTINUOUS
 62
     7
 10
125.6781598953
 20
159.932480057
 30
0.0
  0
VERTEX
  5
476
  8
0
  6
CONTINUOUS
 62
     7
 10
126.106647726
 20
160.4572673443
 30
0.0
  0
VERTEX
  5
477
  8
0
  6
CONTINUOUS
 62
     7
 10
126.3412978918
 20
160.9873703692
 30
0.0
  0
VERTEX
  5
478
  8
0
  6
CONTINUOUS
 62
     7
 10
126.3818481299
 20
161.5186816649
 30
0.0
  0
VERTEX
  5
479
  8
0
  6
CONTINUOUS
 62
     7
 10
126.2295561695
 20
162.0471460709
 30
0.0
  0
VERTEX
  5
47A
  8
0
  6
CONTINUOUS
 62
     7
 10
125.8871288906
 20
162.5687931283
 30
0.0
  0
VERTEX
  5
47B
  8
0
  6
CONTINUOUS
 62
     7
 10
125.3586123513
 20
163.0797742692
 30
0.0
  0
VERTEX
  5
47C
  8
0
  6
CONTINUOUS
 62
     7
 10
124.6493970187
 20
163.5763721053
 30
0.0
  0
VERTEX
  5
47D
  8
0
  6
CONTINUOUS
 62
     7
 10
123.7660665138
 20
164.0550382809
 30
0.0
  0
VERTEX
  5
47E
  8
0
  6
CONTINUOUS
 62
     7
 10
122.7163694019
 20
164.5123966398
 30
0.0
  0
VERTEX
  5
47F
  8
0
  6
CONTINUOUS
 62
     7
 10
121.5090879285
 20
164.9452786449
 30
0.0
  0
VERTEX
  5
480
  8
0
  6
CONTINUOUS
 62
     7
 10
120.1540034973
 20
165.3507185102
 30
0.0
  0
VERTEX
  5
481
  8
0
  6
CONTINUOUS
 62
     7
 10
118.6617346935
 20
165.7259831302
 30
0.0
  0
VERTEX
  5
482
  8
0
  6
CONTINUOUS
 62
     7
 10
117.0437202945
 20
166.0685741841
 30
0.0
  0
VERTEX
  5
483
  8
0
  6
CONTINUOUS
 62
     7
 10
115.312071369
 20
166.3762390034
 30
0.0
  0
VERTEX
  5
484
  8
0
  6
CONTINUOUS
 62
     7
 10
113.4795835746
 20
166.6469672142
 30
0.0
  0
VERTEX
  5
485
  8
0
  6
CONTINUOUS
 62
     7
 10
111.559494331
 20
166.8790254538
 30
0.0
  0
VERTEX
  5
486
  8
0
  6
CONTINUOUS
 62
     7
 10
109.5655775792
 20
167.0709210066
 30
0.0
  0
VERTEX
  5
487
  8
0
  6
CONTINUOUS
 62
     7
 10
107.5119521845
 20
167.2214385402
 30
0.0
  0
VERTEX
  5
488
  8
0
  6
CONTINUOUS
 62
     7
 10
105.4130179673
 20
167.3296320358
 30
0.0
  0
VERTEX
  5
489
  8
0
  6
CONTINUOUS
 62
     7
 10
103.2834314526
 20
167.394818483
 30
0.0
  0
VERTEX
  5
48A
  8
0
  6
CONTINUOUS
 62
     7
 10
101.1379684716
 20
167.4165950556
 30
0.0
  0
VERTEX
  5
48B
  8
0
  6
CONTINUOUS
 62
     7
 10
98.9915329682
 20
167.3948182284
 30
0.0
  0
VERTEX
  5
48C
  8
0
  6
CONTINUOUS
 62
     7
 10
96.8589761932
 20
167.3296299972
 30
0.0
  0
VERTEX
  5
48D
  8
0
  6
CONTINUOUS
 62
     7
 10
94.7551036031
 20
167.221440326
 30
0.0
  0
VERTEX
  5
48E
  8
0
  6
CONTINUOUS
 62
     7
 10
92.6946360129
 20
167.070917685
 30
0.0
  0
VERTEX
  5
48F
  8
0
  6
CONTINUOUS
 62
     7
 10
90.6919723577
 20
166.8790251978
 30
0.0
  0
VERTEX
  5
490
  8
0
  6
CONTINUOUS
 62
     7
 10
88.761334677
 20
166.6469700373
 30
0.0
  0
VERTEX
  5
491
  8
0
  6
CONTINUOUS
 62
     7
 10
86.916526095
 20
166.3762360437
 30
0.0
  0
VERTEX
  5
492
  8
0
  6
CONTINUOUS
 62
     7
 10
85.1708833672
 20
166.0685753459
 30
0.0
  0
VERTEX
  5
493
  8
0
  6
CONTINUOUS
 62
     7
 10
83.5372644364
 20
165.7259866282
 30
0.0
  0
SEQEND
  5
5CA
  8
0
  6
CONTINUOUS
 62
     7
  0
POLYLINE
  5
107
  8
0
  6
CONTINUOUS
 62
     7
 66
     1
 10
0.0
 20
0.0
 30
0.0
  0
VERTEX
  5
494
  8
0
  6
CONTINUOUS
 62
     7
 10
86.3573023018
 20
136.0334986296
 30
0.0
  0
VERTEX
  5
495
  8
0
  6
CONTINUOUS
 62
     7
 10
88.2423897811
 20
135.7130419982
 30
0.0
  0
VERTEX
  5
496
  8
0
  6
CONTINUOUS
 62
     7
 10
90.2318095503
 20
135.4379559696
 30
0.0
  0
VERTEX
  5
497
  8
0
  6
CONTINUOUS
 62
     7
 10
92.3096145549
 20
135.210670177
 30
0.0
  0
VERTEX
  5
498
  8
0
  6
CONTINUOUS
 62
     7
 10
94.4590270793
 20
135.0331919207
 30
0.0
  0
VERTEX
  5
499
  8
0
  6
CONTINUOUS
 62
     7
 10
96.6625110762
 20
134.9071014887
 30
0.0
  0
VERTEX
  5
49A
  8
0
  6
CONTINUOUS
 62
     7
 10
98.9019846503
 20
134.833526007
 30
0.0
  0
VERTEX
  5
49B
  8
0
  6
CONTINUOUS
 62
     7
 10
101.1589760644
 20
134.8131287845
 30
0.0
  0
VERTEX
  5
49C
  8
0
  6
CONTINUOUS
 62
     7
 10
103.4148590225
 20
134.8460918121
 30
0.0
  0
VERTEX
  5
49D
  8
0
  6
CONTINUOUS
 62
     7
 10
105.6510293412
 20
134.93211488
 30
0.0
  0
VERTEX
  5
49E
  8
0
  6
CONTINUOUS
 62
     7
 10
107.8490581185
 20
135.0704316708
 30
0.0
  0
VERTEX
  5
49F
  8
0
  6
CONTINUOUS
 62
     7
 10
109.9909364153
 20
135.2598041691
 30
0.0
  0
VERTEX
  5
4A0
  8
0
  6
CONTINUOUS
 62
     7
 10
112.0592275233
 20
135.4985463668
 30
0.0
  0
VERTEX
  5
4A1
  8
0
  6
CONTINUOUS
 62
     7
 10
114.0371978898
 20
135.7845566214
 30
0.0
  0
VERTEX
  5
4A2
  8
0
  6
CONTINUOUS
 62
     7
 10
115.9090920366
 20
136.1153131192
 30
0.0
  0
VERTEX
  5
4A3
  8
0
  6
CONTINUOUS
 62
     7
 10
117.6601762165
 20
136.4879316344
 30
0.0
  0
VERTEX
  5
4A4
  8
0
  6
CONTINUOUS
 62
     7
 10
119.2769049214
 20
136.8991903695
 30
0.0
  0
VERTEX
  5
4A5
  8
0
  6
CONTINUOUS
 62
     7
 10
120.7470003815
 20
137.3455750347
 30
0.0
  0
VERTEX
  5
4A6
  8
0
  6
CONTINUOUS
 62
     7
 10
122.0596167365
 20
137.8233001483
 30
0.0
  0
VERTEX
  5
4A7
  8
0
  6
CONTINUOUS
 62
     7
 10
123.2053227199
 20
138.3283736509
 30
0.0
  0
VERTEX
  5
4A8
  8
0
  6
CONTINUOUS
 62
     7
 10
124.1762233359
 20
138.8566212194
 30
0.0
  0
VERTEX
  5
4A9
  8
0
  6
CONTINUOUS
 62
     7
 10
124.9659594722
 20
139.4037384781
 30
0.0
  0
VERTEX
  5
4AA
  8
0
  6
CONTINUOUS
 62
     7
 10
125.569746913
 20
139.9653244664
 30
0.0
  0
VERTEX
  5
4AB
  8
0
  6
CONTINUOUS
 62
     7
 10
125.9843204068
 20
140.5369383269
 30
0.0
  0
VERTEX
  5
4AC
  8
0
  6
CONTINUOUS
 62
     7
 10
126.207995976
 20
141.11411801
 30
0.0
  0
VERTEX
  5
4AD
  8
0
  6
CONTINUOUS
 62
     7
 10
126.2508524627
 20
141.4897905536
 30
0.0
  0
SEQEND
  5
5C9
  8
0
  6
CONTINUOUS
 62
     7
  0
POLYLINE
  5
108
  8
0
  6
CONTINUOUS
 62
     7
 66
     1
 10
0.0
 20
0.0
 30
0.0
  0
VERTEX
  5
4AE
  8
0
  6
CONTINUOUS
 62
     7
 10
78.0718434187
 20
138.678266265
 30
0.0
  0
VERTEX
  5
4AF
  8
0
  6
CONTINUOUS
 62
     7
 10
78.6436603932
 20
138.3690788231
 30
0.0
  0
VERTEX
  5
4B0
  8
0
  6
CONTINUOUS
 62
     7
 10
79.7550692044
 20
137.8620351119
 30
0.0
  0
SEQEND
  5
5C8
  8
0
  6
CONTINUOUS
 62
     7
  0
POLYLINE
  5
109
  8
0
  6
CONTINUOUS
 62
     7
 66
     1
 10
0.0
 20
0.0
 30
0.0
  0
VERTEX
  5
4B1
  8
0
  6
CONTINUOUS
 62
     7
 10
85.6216603269
 20
165.2239001339
 30
0.0
  0
VERTEX
  5
4B2
  8
0
  6
CONTINUOUS
 62
     7
 10
84.2220118961
 20
164.87230002
 30
0.0
  0
VERTEX
  5
4B3
  8
0
  6
CONTINUOUS
 62
     7
 10
82.9580754362
 20
164.491189609
 30
0.0
  0
VERTEX
  5
4B4
  8
0
  6
CONTINUOUS
 62
     7
 10
81.8409470748
 20
164.0834997848
 30
0.0
  0
VERTEX
  5
4B5
  8
0
  6
CONTINUOUS
 62
     7
 10
80.880734086
 20
163.6524000238
 30
0.0
  0
VERTEX
  5
4B6
  8
0
  6
CONTINUOUS
 62
     7
 10
80.0863784704
 20
163.2012999699
 30
0.0
  0
VERTEX
  5
4B7
  8
0
  6
CONTINUOUS
 62
     7
 10
79.4656287571
 20
162.733812456
 30
0.0
  0
VERTEX
  5
4B8
  8
0
  6
CONTINUOUS
 62
     7
 10
79.0249546723
 20
162.2537282365
 30
0.0
  0
VERTEX
  5
4B9
  8
0
  6
CONTINUOUS
 62
     7
 10
78.7693876019
 20
161.7650067651
 30
0.0
  0
VERTEX
  5
4BA
  8
0
  6
CONTINUOUS
 62
     7
 10
78.7024675893
 20
161.2717412474
 30
0.0
  0
VERTEX
  5
4BB
  8
0
  6
CONTINUOUS
 62
     7
 10
78.82620346
 20
160.7781166226
 30
0.0
  0
VERTEX
  5
4BC
  8
0
  6
CONTINUOUS
 62
     7
 10
79.1409380156
 20
160.2883938177
 30
0.0
  0
VERTEX
  5
4BD
  8
0
  6
CONTINUOUS
 62
     7
 10
79.6453735093
 20
159.8068528728
 30
0.0
  0
VERTEX
  5
4BE
  8
0
  6
CONTINUOUS
 62
     7
 10
80.336450412
 20
159.3377747532
 30
0.0
  0
VERTEX
  5
4BF
  8
0
  6
CONTINUOUS
 62
     7
 10
81.2094122121
 20
158.8853780136
 30
0.0
  0
VERTEX
  5
4C0
  8
0
  6
CONTINUOUS
 62
     7
 10
82.2577479029
 20
158.45379098
 30
0.0
  0
VERTEX
  5
4C1
  8
0
  6
CONTINUOUS
 62
     7
 10
83.4732190383
 20
158.0470055692
 30
0.0
  0
VERTEX
  5
4C2
  8
0
  6
CONTINUOUS
 62
     7
 10
84.8459591615
 20
157.6688176391
 30
0.0
  0
VERTEX
  5
4C3
  8
0
  6
CONTINUOUS
 62
     7
 10
86.3644194548
 20
157.3228139799
 30
0.0
  0
VERTEX
  5
4C4
  8
0
  6
CONTINUOUS
 62
     7
 10
88.0155842027
 20
157.0122972139
 30
0.0
  0
VERTEX
  5
4C5
  8
0
  6
CONTINUOUS
 62
     7
 10
89.785032107
 20
156.740257856
 30
0.0
  0
VERTEX
  5
4C6
  8
0
  6
CONTINUOUS
 62
     7
 10
91.6570347801
 20
156.5093439374
 30
0.0
  0
VERTEX
  5
4C7
  8
0
  6
CONTINUOUS
 62
     7
 10
93.6147727574
 20
156.3218121039
 30
0.0
  0
VERTEX
  5
4C8
  8
0
  6
CONTINUOUS
 62
     7
 10
95.6404266801
 20
156.1795185628
 30
0.0
  0
VERTEX
  5
4C9
  8
0
  6
CONTINUOUS
 62
     7
 10
97.7154861344
 20
156.0838633887
 30
0.0
  0
VERTEX
  5
4CA
  8
0
  6
CONTINUOUS
 62
     7
 10
99.8208610206
 20
156.0357950172
 30
0.0
  0
VERTEX
  5
4CB
  8
0
  6
CONTINUOUS
 62
     7
 10
101.9370966718
 20
156.0357963032
 30
0.0
  0
VERTEX
  5
4CC
  8
0
  6
CONTINUOUS
 62
     7
 10
104.0446587292
 20
156.0838622462
 30
0.0
  0
VERTEX
  5
4CD
  8
0
  6
CONTINUOUS
 62
     7
 10
106.1240753181
 20
156.1795182775
 30
0.0
  0
VERTEX
  5
4CE
  8
0
  6
CONTINUOUS
 62
     7
 10
108.156220203
 20
156.3218128519
 30
0.0
  0
VERTEX
  5
4CF
  8
0
  6
CONTINUOUS
 62
     7
 10
110.1224810861
 20
156.5093404796
 30
0.0
  0
VERTEX
  5
4D0
  8
0
  6
CONTINUOUS
 62
     7
 10
112.0049860605
 20
156.7402559759
 30
0.0
  0
VERTEX
  5
4D1
  8
0
  6
CONTINUOUS
 62
     7
 10
113.7868064296
 20
157.0122965063
 30
0.0
  0
VERTEX
  5
4D2
  8
0
  6
CONTINUOUS
 62
     7
 10
115.4521154702
 20
157.3228155317
 30
0.0
  0
VERTEX
  5
4D3
  8
0
  6
CONTINUOUS
 62
     7
 10
116.9863375966
 20
157.6688186233
 30
0.0
  0
VERTEX
  5
4D4
  8
0
  6
CONTINUOUS
 62
     7
 10
118.3762699061
 20
158.0470054291
 30
0.0
  0
VERTEX
  5
4D5
  8
0
  6
CONTINUOUS
 62
     7
 10
119.6102644497
 20
158.4537936304
 30
0.0
  0
VERTEX
  5
4D6
  8
0
  6
CONTINUOUS
 62
     7
 10
120.6782481037
 20
158.8853784303
 30
0.0
  0
VERTEX
  5
4D7
  8
0
  6
CONTINUOUS
 62
     7
 10
121.5718066787
 20
159.3377733705
 30
0.0
  0
VERTEX
  5
4D8
  8
0
  6
CONTINUOUS
 62
     7
 10
122.2842341817
 20
159.8068528728
 30
0.0
  0
VERTEX
  5
4D9
  8
0
  6
CONTINUOUS
 62
     7
 10
122.8105734697
 20
160.2883931329
 30
0.0
  0
VERTEX
  5
4DA
  8
0
  6
CONTINUOUS
 62
     7
 10
123.1476005761
 20
160.7781167589
 30
0.0
  0
VERTEX
  5
4DB
  8
0
  6
CONTINUOUS
 62
     7
 10
123.2937930963
 20
161.2717411118
 30
0.0
  0
VERTEX
  5
4DC
  8
0
  6
CONTINUOUS
 62
     7
 10
123.2493342679
 20
161.7650067651
 30
0.0
  0
VERTEX
  5
4DD
  8
0
  6
CONTINUOUS
 62
     7
 10
123.0160012606
 20
162.2537283708
 30
0.0
  0
VERTEX
  5
4DE
  8
0
  6
CONTINUOUS
 62
     7
 10
122.5971811587
 20
162.733811788
 30
0.0
  0
VERTEX
  5
4DF
  8
0
  6
CONTINUOUS
 62
     7
 10
121.9977310997
 20
163.2013003355
 30
0.0
  0
VERTEX
  5
4E0
  8
0
  6
CONTINUOUS
 62
     7
 10
121.2238900459
 20
163.6524032416
 30
0.0
  0
VERTEX
  5
4E1
  8
0
  6
CONTINUOUS
 62
     7
 10
120.2832866434
 20
164.0835004766
 30
0.0
  0
VERTEX
  5
4E2
  8
0
  6
CONTINUOUS
 62
     7
 10
119.1847161342
 20
164.4911918397
 30
0.0
  0
VERTEX
  5
4E3
  8
0
  6
CONTINUOUS
 62
     7
 10
117.9381356836
 20
164.8722998893
 30
0.0
  0
VERTEX
  5
4E4
  8
0
  6
CONTINUOUS
 62
     7
 10
116.5544890117
 20
165.2238971387
 30
0.0
  0
VERTEX
  5
4E5
  8
0
  6
CONTINUOUS
 62
     7
 10
115.0456451447
 20
165.543314664
 30
0.0
  0
VERTEX
  5
4E6
  8
0
  6
CONTINUOUS
 62
     7
 10
113.4243516123
 20
165.8281433266
 30
0.0
  0
VERTEX
  5
4E7
  8
0
  6
CONTINUOUS
 62
     7
 10
111.7040015775
 20
166.0762725052
 30
0.0
  0
VERTEX
  5
4E8
  8
0
  6
CONTINUOUS
 62
     7
 10
109.8986483893
 20
166.2858681794
 30
0.0
  0
VERTEX
  5
4E9
  8
0
  6
CONTINUOUS
 62
     7
 10
108.0228633167
 20
166.4553966353
 30
0.0
  0
VERTEX
  5
4EA
  8
0
  6
CONTINUOUS
 62
     7
 10
106.0916204294
 20
166.5836287325
 30
0.0
  0
VERTEX
  5
4EB
  8
0
  6
CONTINUOUS
 62
     7
 10
104.1202676259
 20
166.6696314616
 30
0.0
  0
VERTEX
  5
4EC
  8
0
  6
CONTINUOUS
 62
     7
 10
102.1243424271
 20
166.7127896456
 30
0.0
  0
VERTEX
  5
4ED
  8
0
  6
CONTINUOUS
 62
     7
 10
100.1195669831
 20
166.7127883633
 30
0.0
  0
VERTEX
  5
4EE
  8
0
  6
CONTINUOUS
 62
     7
 10
98.1216786591
 20
166.6696324879
 30
0.0
  0
VERTEX
  5
4EF
  8
0
  6
CONTINUOUS
 62
     7
 10
96.1464082034
 20
166.5836289893
 30
0.0
  0
VERTEX
  5
4F0
  8
0
  6
CONTINUOUS
 62
     7
 10
94.209349809
 20
166.4553956067
 30
0.0
  0
VERTEX
  5
4F1
  8
0
  6
CONTINUOUS
 62
     7
 10
92.3258433033
 20
166.2858668914
 30
0.0
  0
VERTEX
  5
4F2
  8
0
  6
CONTINUOUS
 62
     7
 10
90.5109403181
 20
166.0762739251
 30
0.0
  0
VERTEX
  5
4F3
  8
0
  6
CONTINUOUS
 62
     7
 10
88.7793035395
 20
165.8281442325
 30
0.0
  0
VERTEX
  5
4F4
  8
0
  6
CONTINUOUS
 62
     7
 10
87.1450361696
 20
165.5433132363
 30
0.0
  0
VERTEX
  5
4F5
  8
0
  6
CONTINUOUS
 62
     7
 10
85.6216603269
 20
165.2239001339
 30
0.0
  0
SEQEND
  5
5C7
  8
0
  6
CONTINUOUS
 62
     7
  0
ARC
  5
10A
  8
0
  6
CONTINUOUS
 62
     7
 10
98.3329873651
 20
100.9305045013
 30
0.0
 40
57.55408781594336
 50
95.0814578679
 51
101.7317575682
  0
POLYLINE
  5
10B
  8
0
  6
CONTINUOUS
 62
     7
 66
     1
 10
0.0
 20
0.0
 30
0.0
  0
VERTEX
  5
4F6
  8
0
  6
CONTINUOUS
 62
     7
 10
73.6373994296
 20
146.4179046754
 30
0.0
  0
VERTEX
  5
4F7
  8
0
  6
CONTINUOUS
 62
     7
 10
73.0641532153
 20
146.4728694054
 30
0.0
  0
VERTEX
  5
4F8
  8
0
  6
CONTINUOUS
 62
     7
 10
72.5272390792
 20
146.3264765616
 30
0.0
  0
VERTEX
  5
4F9
  8
0
  6
CONTINUOUS
 62
     7
 10
72.0577021059
 20
145.9876924414
 30
0.0
  0
VERTEX
  5
4FA
  8
0
  6
CONTINUOUS
 62
     7
 10
71.6826130933
 20
145.4765623027
 30
0.0
  0
VERTEX
  5
4FB
  8
0
  6
CONTINUOUS
 62
     7
 10
71.4234443932
 20
144.8229906618
 30
0.0
  0
VERTEX
  5
4FC
  8
0
  6
CONTINUOUS
 62
     7
 10
71.2949538321
 20
144.0649269965
 30
0.0
  0
VERTEX
  5
4FD
  8
0
  6
CONTINUOUS
 62
     7
 10
71.3043927081
 20
143.2461898753
 30
0.0
  0
VERTEX
  5
4FE
  8
0
  6
CONTINUOUS
 62
     7
 10
71.451105488
 20
142.413976225
 30
0.0
  0
VERTEX
  5
4FF
  8
0
  6
CONTINUOUS
 62
     7
 10
71.7265922394
 20
141.6161926768
 30
0.0
  0
VERTEX
  5
500
  8
0
  6
CONTINUOUS
 62
     7
 10
72.1150242431
 20
140.8987877026
 30
0.0
  0
VERTEX
  5
501
  8
0
  6
CONTINUOUS
 62
     7
 10
72.5941260421
 20
140.3031664003
 30
0.0
  0
VERTEX
  5
502
  8
0
  6
CONTINUOUS
 62
     7
 10
73.1363452266
 20
139.8638644182
 30
0.0
  0
VERTEX
  5
503
  8
0
  6
CONTINUOUS
 62
     7
 10
73.710488111
 20
139.6065276399
 30
0.0
  0
VERTEX
  5
504
  8
0
  6
CONTINUOUS
 62
     7
 10
74.2833251547
 20
139.5464446591
 30
0.0
  0
VERTEX
  5
505
  8
0
  6
CONTINUOUS
 62
     7
 10
74.8216308125
 20
139.6875330753
 30
0.0
  0
VERTEX
  5
506
  8
0
  6
CONTINUOUS
 62
     7
 10
75.2939738102
 20
140.0220600854
 30
0.0
  0
VERTEX
  5
507
  8
0
  6
CONTINUOUS
 62
     7
 10
75.6727080145
 20
140.5309372426
 30
0.0
  0
VERTEX
  5
508
  8
0
  6
CONTINUOUS
 62
     7
 10
75.9354584425
 20
141.1847978397
 30
0.0
  0
VERTEX
  5
509
  8
0
  6
CONTINUOUS
 62
     7
 10
76.0666965954
 20
141.9456037905
 30
0.0
  0
VERTEX
  5
50A
  8
0
  6
CONTINUOUS
 62
     7
 10
76.0585234961
 20
142.7689221228
 30
0.0
  0
VERTEX
  5
50B
  8
0
  6
CONTINUOUS
 62
     7
 10
75.9113046688
 20
143.6065063184
 30
0.0
  0
VERTEX
  5
50C
  8
0
  6
CONTINUOUS
 62
     7
 10
75.6336742426
 20
144.4092057357
 30
0.0
  0
VERTEX
  5
50D
  8
0
  6
CONTINUOUS
 62
     7
 10
75.2419021409
 20
145.1299680289
 30
0.0
  0
VERTEX
  5
50E
  8
0
  6
CONTINUOUS
 62
     7
 10
74.7590966202
 20
145.7265974562
 30
0.0
  0
VERTEX
  5
50F
  8
0
  6
CONTINUOUS
 62
     7
 10
74.2135910678
 20
146.1643457791
 30
0.0
  0
VERTEX
  5
510
  8
0
  6
CONTINUOUS
 62
     7
 10
73.6373994296
 20
146.4179046754
 30
0.0
  0
SEQEND
  5
5C6
  8
0
  6
CONTINUOUS
 62
     7
  0
ARC
  5
10C
  8
0
  6
CONTINUOUS
 62
     7
 10
81.1713663065
 20
134.1047908585
 30
0.0
 40
5.532978023952261
 50
20.4007324286
 51
89.1343981679
  0
ARC
  5
10D
  8
0
  6
CONTINUOUS
 62
     7
 10
92.1547089149
 20
169.7994880907
 30
0.0
 40
34.26006374373434
 50
248.7814173277
 51
260.2576667629
  0
POLYLINE
  5
10E
  8
0
  6
CONTINUOUS
 62
     7
 66
     1
 10
0.0
 20
0.0
 30
0.0
  0
VERTEX
  5
511
  8
0
  6
CONTINUOUS
 62
     7
 10
94.3564012477
 20
156.2828816044
 30
0.0
  0
VERTEX
  5
512
  8
0
  6
CONTINUOUS
 62
     7
 10
94.3871044646
 20
156.344879013
 30
0.0
  0
VERTEX
  5
513
  8
0
  6
CONTINUOUS
 62
     7
 10
94.4031865997
 20
156.6195525434
 30
0.0
  0
VERTEX
  5
514
  8
0
  6
CONTINUOUS
 62
     7
 10
94.2254544107
 20
156.8893789001
 30
0.0
  0
VERTEX
  5
515
  8
0
  6
CONTINUOUS
 62
     7
 10
93.8600442706
 20
157.1462434662
 30
0.0
  0
VERTEX
  5
516
  8
0
  6
CONTINUOUS
 62
     7
 10
93.3186110973
 20
157.3824886783
 30
0.0
  0
VERTEX
  5
517
  8
0
  6
CONTINUOUS
 62
     7
 10
92.6179832441
 20
157.5911152368
 30
0.0
  0
SEQEND
  5
5C5
  8
0
  6
CONTINUOUS
 62
     7
  0
POLYLINE
  5
10F
  8
0
  6
CONTINUOUS
 62
     7
 66
     1
 10
0.0
 20
0.0
 30
0.0
  0
VERTEX
  5
518
  8
0
  6
CONTINUOUS
 62
     7
 10
92.6179832441
 20
157.5911152368
 30
0.0
  0
VERTEX
  5
519
  8
0
  6
CONTINUOUS
 62
     7
 10
92.3697352808
 20
157.6709250204
 30
0.0
  0
VERTEX
  5
51A
  8
0
  6
CONTINUOUS
 62
     7
 10
92.2103068428
 20
157.7634036377
 30
0.0
  0
VERTEX
  5
51B
  8
0
  6
CONTINUOUS
 62
     7
 10
92.1493648925
 20
157.8628678591
 30
0.0
  0
VERTEX
  5
51C
  8
0
  6
CONTINUOUS
 62
     7
 10
92.1904660988
 20
157.9632392473
 30
0.0
  0
VERTEX
  5
51D
  8
0
  6
CONTINUOUS
 62
     7
 10
92.3309565725
 20
158.0583939513
 30
0.0
  0
VERTEX
  5
51E
  8
0
  6
CONTINUOUS
 62
     7
 10
92.5621372433
 20
158.1425449313
 30
0.0
  0
VERTEX
  5
51F
  8
0
  6
CONTINUOUS
 62
     7
 10
92.8698581463
 20
158.2105805648
 30
0.0
  0
VERTEX
  5
520
  8
0
  6
CONTINUOUS
 62
     7
 10
93.2353094527
 20
158.2583921671
 30
0.0
  0
SEQEND
  5
5C4
  8
0
  6
CONTINUOUS
 62
     7
  0
ARC
  5
110
  8
0
  6
CONTINUOUS
 62
     8
 10
116.4832151654
 20
178.6934600107
 30
0.0
 40
0.9234339647111641
 50
251.782030056
 51
298.4593799308
  0
POLYLINE
  5
111
  8
0
  6
CONTINUOUS
 62
     8
 66
     1
 10
0.0
 20
0.0
 30
0.0
  0
VERTEX
  5
521
  8
0
  6
CONTINUOUS
 62
     8
 10
116.064832454
 20
177.8842926217
 30
0.0
  0
VERTEX
  5
522
  8
0
  6
CONTINUOUS
 62
     8
 10
116.0648782337
 20
177.883006614
 30
0.0
  0
VERTEX
  5
523
  8
0
  6
CONTINUOUS
 62
     8
 10
116.0996639205
 20
177.8469179252
 30
0.0
  0
VERTEX
  5
524
  8
0
  6
CONTINUOUS
 62
     8
 10
116.1945193756
 20
177.8163140547
 30
0.0
  0
SEQEND
  5
5C3
  8
0
  6
CONTINUOUS
 62
     8
  0
ARC
  5
112
  8
0
  6
CONTINUOUS
 62
     8
 10
115.2733738859
 20
176.3566206339
 30
0.0
 40
0.3168499268289618
 50
170.4339202242
 51
250.6341310486
  0
POLYLINE
  5
113
  8
0
  6
CONTINUOUS
 62
     8
 66
     1
 10
0.0
 20
0.0
 30
0.0
  0
VERTEX
  5
525
  8
0
  6
CONTINUOUS
 62
     8
 10
115.3516243976
 20
176.8951722175
 30
0.0
  0
VERTEX
  5
526
  8
0
  6
CONTINUOUS
 62
     8
 10
115.2616626615
 20
176.8944129364
 30
0.0
  0
VERTEX
  5
527
  8
0
  6
CONTINUOUS
 62
     8
 10
115.1470068138
 20
176.8369732977
 30
0.0
  0
VERTEX
  5
528
  8
0
  6
CONTINUOUS
 62
     8
 10
115.0495789407
 20
176.7246014683
 30
0.0
  0
VERTEX
  5
529
  8
0
  6
CONTINUOUS
 62
     8
 10
114.9842319597
 20
176.5744060488
 30
0.0
  0
VERTEX
  5
52A
  8
0
  6
CONTINUOUS
 62
     8
 10
114.9609298858
 20
176.4092763354
 30
0.0
  0
SEQEND
  5
5C2
  8
0
  6
CONTINUOUS
 62
     8
  0
ARC
  5
114
  8
0
  6
CONTINUOUS
 62
     8
 10
113.7790448267
 20
176.3324800816
 30
0.0
 40
1.441747686150243
 50
172.1266858774
 51
248.9482452077
  0
POLYLINE
  5
115
  8
0
  6
CONTINUOUS
 62
     8
 66
     1
 10
0.0
 20
0.0
 30
0.0
  0
VERTEX
  5
52B
  8
0
  6
CONTINUOUS
 62
     8
 10
114.0658410168
 20
178.6648779938
 30
0.0
  0
VERTEX
  5
52C
  8
0
  6
CONTINUOUS
 62
     8
 10
113.783608402
 20
178.6791437494
 30
0.0
  0
VERTEX
  5
52D
  8
0
  6
CONTINUOUS
 62
     8
 10
113.3511056934
 20
178.5336262761
 30
0.0
  0
VERTEX
  5
52E
  8
0
  6
CONTINUOUS
 62
     8
 10
112.9527898735
 20
178.2024887057
 30
0.0
  0
VERTEX
  5
52F
  8
0
  6
CONTINUOUS
 62
     8
 10
112.6320416761
 20
177.7215431544
 30
0.0
  0
VERTEX
  5
530
  8
0
  6
CONTINUOUS
 62
     8
 10
112.4238417948
 20
177.1430447396
 30
0.0
  0
VERTEX
  5
531
  8
0
  6
CONTINUOUS
 62
     8
 10
112.3508879604
 20
176.5299752861
 30
0.0
  0
SEQEND
  5
5C1
  8
0
  6
CONTINUOUS
 62
     8
  0
POLYLINE
  5
116
  8
0
  6
CONTINUOUS
 62
     8
 66
     1
 10
0.0
 20
0.0
 30
0.0
  0
VERTEX
  5
532
  8
0
  6
CONTINUOUS
 62
     8
 10
114.288586049
 20
176.5299757853
 30
0.0
  0
VERTEX
  5
533
  8
0
  6
CONTINUOUS
 62
     8
 10
114.3153808875
 20
176.3442132542
 30
0.0
  0
VERTEX
  5
534
  8
0
  6
CONTINUOUS
 62
     8
 10
114.3927961653
 20
176.1990222228
 30
0.0
  0
VERTEX
  5
535
  8
0
  6
CONTINUOUS
 62
     8
 10
114.5090185948
 20
176.1165020538
 30
0.0
  0
VERTEX
  5
536
  8
0
  6
CONTINUOUS
 62
     8
 10
114.6463335843
 20
176.109183334
 30
0.0
  0
VERTEX
  5
537
  8
0
  6
CONTINUOUS
 62
     8
 10
114.744962501
 20
176.150549137
 30
0.0
  0
SEQEND
  5
5C0
  8
0
  6
CONTINUOUS
 62
     8
  0
POLYLINE
  5
117
  8
0
  6
CONTINUOUS
 62
     8
 66
     1
 10
0.0
 20
0.0
 30
0.0
  0
VERTEX
  5
538
  8
0
  6
CONTINUOUS
 62
     8
 10
114.9282208034
 20
176.9875907997
 30
0.0
  0
VERTEX
  5
539
  8
0
  6
CONTINUOUS
 62
     8
 10
114.902832408
 20
177.0215271477
 30
0.0
  0
VERTEX
  5
53A
  8
0
  6
CONTINUOUS
 62
     8
 10
114.7867047917
 20
177.1041940032
 30
0.0
  0
VERTEX
  5
53B
  8
0
  6
CONTINUOUS
 62
     8
 10
114.6493943058
 20
177.1116944911
 30
0.0
  0
VERTEX
  5
53C
  8
0
  6
CONTINUOUS
 62
     8
 10
114.5118043517
 20
177.0428488194
 30
0.0
  0
VERTEX
  5
53D
  8
0
  6
CONTINUOUS
 62
     8
 10
114.3949010334
 20
176.9081123723
 30
0.0
  0
VERTEX
  5
53E
  8
0
  6
CONTINUOUS
 62
     8
 10
114.3165101732
 20
176.7280047339
 30
0.0
  0
VERTEX
  5
53F
  8
0
  6
CONTINUOUS
 62
     8
 10
114.288586049
 20
176.5299757853
 30
0.0
  0
SEQEND
  5
5BF
  8
0
  6
CONTINUOUS
 62
     8
  0
LINE
  5
118
  8
0
  6
CONTINUOUS
 62
     8
 10
111.375973654
 20
176.7174167757
 30
0.0
 11
111.3850379045
 21
176.933836735
 31
0.0
  0
ARC
  5
119
  8
0
  6
CONTINUOUS
 62
     8
 10
113.2011560906
 20
176.609260596
 30
0.0
 40
1.828384173578271
 50
176.6087475314
 51
223.9622793565
  0
LINE
  5
11A
  8
0
  6
CONTINUOUS
 62
     8
 10
109.7671126551
 20
177.0706193584
 30
0.0
 11
109.7761024425
 21
177.2871528307
 31
0.0
  0
ARC
  5
11B
  8
0
  6
CONTINUOUS
 62
     8
 10
111.5889635239
 20
176.9640884644
 30
0.0
 40
1.824962854209863
 50
176.6534976761
 51
224.0319606613
  0
LINE
  5
11C
  8
0
  6
CONTINUOUS
 62
     8
 10
108.5551492139
 20
177.3366887193
 30
0.0
 11
108.564083788
 21
177.5533064948
 31
0.0
  0
ARC
  5
11D
  8
0
  6
CONTINUOUS
 62
     8
 10
110.3744971979
 20
177.2313792734
 30
0.0
 40
1.822393252373146
 50
176.6872408549
 51
224.0842907869
  0
LINE
  5
11E
  8
0
  6
CONTINUOUS
 62
     8
 10
107.3467303592
 20
177.6019799165
 30
0.0
 11
107.3556087639
 21
177.8186784049
 31
0.0
  0
ARC
  5
11F
  8
0
  6
CONTINUOUS
 62
     8
 10
109.1635875989
 20
177.4978856874
 30
0.0
 40
1.81983676139294
 50
176.7209053074
 51
224.1363312238
  0
ARC
  5
120
  8
0
  6
CONTINUOUS
 62
     8
 10
107.2325006918
 20
177.7760678691
 30
0.0
 40
1.436478263959817
 50
172.4011008198
 51
249.3092193278
  0
POLYLINE
  5
121
  8
0
  6
CONTINUOUS
 62
     8
 66
     1
 10
0.0
 20
0.0
 30
0.0
  0
VERTEX
  5
540
  8
0
  6
CONTINUOUS
 62
     8
 10
107.5223659105
 20
180.081445018
 30
0.0
  0
VERTEX
  5
541
  8
0
  6
CONTINUOUS
 62
     8
 10
107.2374750139
 20
180.0966512979
 30
0.0
  0
VERTEX
  5
542
  8
0
  6
CONTINUOUS
 62
     8
 10
106.8050414123
 20
179.9530025359
 30
0.0
  0
VERTEX
  5
543
  8
0
  6
CONTINUOUS
 62
     8
 10
106.4072231109
 20
179.6250466005
 30
0.0
  0
VERTEX
  5
544
  8
0
  6
CONTINUOUS
 62
     8
 10
106.0873455191
 20
179.1482515393
 30
0.0
  0
VERTEX
  5
545
  8
0
  6
CONTINUOUS
 62
     8
 10
105.8802930539
 20
178.5744201945
 30
0.0
  0
VERTEX
  5
546
  8
0
  6
CONTINUOUS
 62
     8
 10
105.8086374634
 20
177.9660239424
 30
0.0
  0
SEQEND
  5
5BE
  8
0
  6
CONTINUOUS
 62
     8
  0
ARC
  5
122
  8
0
  6
CONTINUOUS
 62
     8
 10
105.5804398665
 20
178.4816594435
 30
0.0
 40
0.3157513402505092
 50
170.916984533
 51
250.9619238597
  0
POLYLINE
  5
123
  8
0
  6
CONTINUOUS
 62
     8
 66
     1
 10
0.0
 20
0.0
 30
0.0
  0
VERTEX
  5
547
  8
0
  6
CONTINUOUS
 62
     8
 10
105.6582622307
 20
179.0109894967
 30
0.0
  0
VERTEX
  5
548
  8
0
  6
CONTINUOUS
 62
     8
 10
105.568070132
 20
179.0105179338
 30
0.0
  0
VERTEX
  5
549
  8
0
  6
CONTINUOUS
 62
     8
 10
105.4535012226
 20
178.9540190469
 30
0.0
  0
VERTEX
  5
54A
  8
0
  6
CONTINUOUS
 62
     8
 10
105.3563530856
 20
178.8431416085
 30
0.0
  0
VERTEX
  5
54B
  8
0
  6
CONTINUOUS
 62
     8
 10
105.291435838
 20
178.694766605
 30
0.0
  0
VERTEX
  5
54C
  8
0
  6
CONTINUOUS
 62
     8
 10
105.2686478438
 20
178.531505641
 30
0.0
  0
SEQEND
  5
5BD
  8
0
  6
CONTINUOUS
 62
     8
  0
POLYLINE
  5
124
  8
0
  6
CONTINUOUS
 62
     8
 66
     1
 10
0.0
 20
0.0
 30
0.0
  0
VERTEX
  5
54D
  8
0
  6
CONTINUOUS
 62
     8
 10
104.0721687602
 20
180.4462554571
 30
0.0
  0
VERTEX
  5
54E
  8
0
  6
CONTINUOUS
 62
     8
 10
103.9807124025
 20
180.4759762037
 30
0.0
  0
VERTEX
  5
54F
  8
0
  6
CONTINUOUS
 62
     8
 10
103.9488208181
 20
180.5108401323
 30
0.0
  0
SEQEND
  5
5BC
  8
0
  6
CONTINUOUS
 62
     8
  0
ARC
  5
125
  8
0
  6
CONTINUOUS
 62
     8
 10
104.3570013913
 20
181.3301835913
 30
0.0
 40
0.9286864778761451
 50
252.1392398206
 51
298.1184829285
  0
LINE
  5
126
  8
0
  6
CONTINUOUS
 62
     8
 10
97.1277343148
 20
254.7010225168
 30
0.0
 11
97.2548335247
 21
254.6176750497
 31
0.0
  0
POLYLINE
  5
127
  8
0
  6
CONTINUOUS
 62
     8
 66
     1
 10
0.0
 20
0.0
 30
0.0
  0
VERTEX
  5
550
  8
0
  6
CONTINUOUS
 62
     8
 10
104.3334451628
 20
254.5725641257
 30
0.0
  0
VERTEX
  5
551
  8
0
  6
CONTINUOUS
 62
     8
 10
104.5106030563
 20
254.6411841819
 30
0.0
  0
VERTEX
  5
552
  8
0
  6
CONTINUOUS
 62
     8
 10
104.6178739405
 20
254.7506025011
 30
0.0
  0
VERTEX
  5
553
  8
0
  6
CONTINUOUS
 62
     8
 10
104.6085703516
 20
254.7873879507
 30
0.0
  0
SEQEND
  5
5BB
  8
0
  6
CONTINUOUS
 62
     8
  0
LINE
  5
128
  8
0
  6
CONTINUOUS
 62
     8
 10
90.9416190195
 20
196.7721255608
 30
0.0
 11
90.9392066044
 21
197.272662178
 31
0.0
  0
POLYLINE
  5
129
  8
0
  6
CONTINUOUS
 62
     8
 66
     1
 10
0.0
 20
0.0
 30
0.0
  0
VERTEX
  5
554
  8
0
  6
CONTINUOUS
 62
     8
 10
126.813923233
 20
221.8801122319
 30
0.0
  0
VERTEX
  5
555
  8
0
  6
CONTINUOUS
 62
     8
 10
126.7984111553
 20
221.7357974142
 30
0.0
  0
VERTEX
  5
556
  8
0
  6
CONTINUOUS
 62
     8
 10
126.6209960059
 20
221.3601678967
 30
0.0
  0
VERTEX
  5
557
  8
0
  6
CONTINUOUS
 62
     8
 10
126.2455048261
 20
220.9873645174
 30
0.0
  0
VERTEX
  5
558
  8
0
  6
CONTINUOUS
 62
     8
 10
125.6732481625
 20
220.6203101867
 30
0.0
  0
VERTEX
  5
559
  8
0
  6
CONTINUOUS
 62
     8
 10
124.9071397574
 20
220.2619283604
 30
0.0
  0
VERTEX
  5
55A
  8
0
  6
CONTINUOUS
 62
     8
 10
123.9517352703
 20
219.9151161561
 30
0.0
  0
VERTEX
  5
55B
  8
0
  6
CONTINUOUS
 62
     8
 10
122.8132177654
 20
219.582720288
 30
0.0
  0
VERTEX
  5
55C
  8
0
  6
CONTINUOUS
 62
     8
 10
121.4993932312
 20
219.2675079562
 30
0.0
  0
VERTEX
  5
55D
  8
0
  6
CONTINUOUS
 62
     8
 10
120.0196405763
 20
218.9721429716
 30
0.0
  0
VERTEX
  5
55E
  8
0
  6
CONTINUOUS
 62
     8
 10
118.3849613997
 20
218.6991407148
 30
0.0
  0
VERTEX
  5
55F
  8
0
  6
CONTINUOUS
 62
     8
 10
116.6077480167
 20
218.4508667091
 30
0.0
  0
VERTEX
  5
560
  8
0
  6
CONTINUOUS
 62
     8
 10
114.7018478981
 20
218.2294839301
 30
0.0
  0
VERTEX
  5
561
  8
0
  6
CONTINUOUS
 62
     8
 10
112.6823465515
 20
218.0369448351
 30
0.0
  0
VERTEX
  5
562
  8
0
  6
CONTINUOUS
 62
     8
 10
110.5654731654
 20
217.8749614742
 30
0.0
  0
VERTEX
  5
563
  8
0
  6
CONTINUOUS
 62
     8
 10
108.3684578043
 20
217.744983053
 30
0.0
  0
VERTEX
  5
564
  8
0
  6
CONTINUOUS
 62
     8
 10
106.109361549
 20
217.6481783636
 30
0.0
  0
VERTEX
  5
565
  8
0
  6
CONTINUOUS
 62
     8
 10
103.8068812354
 20
217.5854234533
 30
0.0
  0
VERTEX
  5
566
  8
0
  6
CONTINUOUS
 62
     8
 10
101.4801687912
 20
217.557288292
 30
0.0
  0
VERTEX
  5
567
  8
0
  6
CONTINUOUS
 62
     8
 10
99.1486493694
 20
217.5640261366
 30
0.0
  0
VERTEX
  5
568
  8
0
  6
CONTINUOUS
 62
     8
 10
96.8318057006
 20
217.6055727773
 30
0.0
  0
VERTEX
  5
569
  8
0
  6
CONTINUOUS
 62
     8
 10
94.5489095035
 20
217.681558372
 30
0.0
  0
VERTEX
  5
56A
  8
0
  6
CONTINUOUS
 62
     8
 10
92.3189477432
 20
217.7912895931
 30
0.0
  0
VERTEX
  5
56B
  8
0
  6
CONTINUOUS
 62
     8
 10
90.1603178369
 20
217.9337778421
 30
0.0
  0
VERTEX
  5
56C
  8
0
  6
CONTINUOUS
 62
     8
 10
88.0906861736
 20
218.1077442317
 30
0.0
  0
VERTEX
  5
56D
  8
0
  6
CONTINUOUS
 62
     8
 10
86.1268262495
 20
218.3116342498
 30
0.0
  0
VERTEX
  5
56E
  8
0
  6
CONTINUOUS
 62
     8
 10
84.2844144955
 20
218.5436439409
 30
0.0
  0
VERTEX
  5
56F
  8
0
  6
CONTINUOUS
 62
     8
 10
82.5779643092
 20
218.8017302923
 30
0.0
  0
VERTEX
  5
570
  8
0
  6
CONTINUOUS
 62
     8
 10
81.020568553
 20
219.0836574079
 30
0.0
  0
VERTEX
  5
571
  8
0
  6
CONTINUOUS
 62
     8
 10
79.6239864809
 20
219.386991476
 30
0.0
  0
VERTEX
  5
572
  8
0
  6
CONTINUOUS
 62
     8
 10
78.3983764595
 20
219.7091596477
 30
0.0
  0
VERTEX
  5
573
  8
0
  6
CONTINUOUS
 62
     8
 10
77.3523796901
 20
220.0474523758
 30
0.0
  0
VERTEX
  5
574
  8
0
  6
CONTINUOUS
 62
     8
 10
76.4929552217
 20
220.399074725
 30
0.0
  0
VERTEX
  5
575
  8
0
  6
CONTINUOUS
 62
     8
 10
75.8255013754
 20
220.7611497839
 30
0.0
  0
VERTEX
  5
576
  8
0
  6
CONTINUOUS
 62
     8
 10
75.3537002162
 20
221.130771546
 30
0.0
  0
VERTEX
  5
577
  8
0
  6
CONTINUOUS
 62
     8
 10
75.0796752281
 20
221.5050089403
 30
0.0
  0
VERTEX
  5
578
  8
0
  6
CONTINUOUS
 62
     8
 10
75.0025842226
 20
221.8301989848
 30
0.0
  0
SEQEND
  5
5BA
  8
0
  6
CONTINUOUS
 62
     8
  0
LINE
  5
12A
  8
0
  6
CONTINUOUS
 62
     8
 10
79.7550692044
 20
137.8620351119
 30
0.0
 11
79.2657310377
 21
138.987114916
 31
0.0
  0
POLYLINE
  5
12B
  8
0
  6
CONTINUOUS
 62
     8
 66
     1
 10
0.0
 20
0.0
 30
0.0
  0
VERTEX
  5
579
  8
0
  6
CONTINUOUS
 62
     8
 10
77.8977992247
 20
149.5198102457
 30
0.0
  0
VERTEX
  5
57A
  8
0
  6
CONTINUOUS
 62
     8
 10
78.063646416
 20
150.8853006798
 30
0.0
  0
VERTEX
  5
57B
  8
0
  6
CONTINUOUS
 62
     8
 10
78.3703438407
 20
152.2649554364
 30
0.0
  0
VERTEX
  5
57C
  8
0
  6
CONTINUOUS
 62
     8
 10
78.7772034836
 20
153.3809781119
 30
0.0
  0
VERTEX
  5
57D
  8
0
  6
CONTINUOUS
 62
     8
 10
79.3175643822
 20
154.3086171277
 30
0.0
  0
VERTEX
  5
57E
  8
0
  6
CONTINUOUS
 62
     8
 10
79.9345982249
 20
154.9501811199
 30
0.0
  0
VERTEX
  5
57F
  8
0
  6
CONTINUOUS
 62
     8
 10
80.6786129218
 20
155.3728089866
 30
0.0
  0
VERTEX
  5
580
  8
0
  6
CONTINUOUS
 62
     8
 10
81.3874230135
 20
155.531307218
 30
0.0
  0
VERTEX
  5
581
  8
0
  6
CONTINUOUS
 62
     8
 10
82.1701735015
 20
155.5062465305
 30
0.0
  0
VERTEX
  5
582
  8
0
  6
CONTINUOUS
 62
     8
 10
82.4406944653
 20
155.4562540976
 30
0.0
  0
VERTEX
  5
583
  8
0
  6
CONTINUOUS
 62
     8
 10
82.5719512242
 20
155.4251010563
 30
0.0
  0
VERTEX
  5
584
  8
0
  6
CONTINUOUS
 62
     8
 10
83.5514000485
 20
155.0601267746
 30
0.0
  0
VERTEX
  5
585
  8
0
  6
CONTINUOUS
 62
     8
 10
84.5485607308
 20
154.4708236979
 30
0.0
  0
VERTEX
  5
586
  8
0
  6
CONTINUOUS
 62
     8
 10
85.6910170064
 20
153.5256395658
 30
0.0
  0
VERTEX
  5
587
  8
0
  6
CONTINUOUS
 62
     8
 10
86.7507703255
 20
152.3660105311
 30
0.0
  0
VERTEX
  5
588
  8
0
  6
CONTINUOUS
 62
     8
 10
87.6494227759
 20
151.1007616401
 30
0.0
  0
VERTEX
  5
589
  8
0
  6
CONTINUOUS
 62
     8
 10
88.4109732028
 20
149.7245015562
 30
0.0
  0
VERTEX
  5
58A
  8
0
  6
CONTINUOUS
 62
     8
 10
89.0344910112
 20
148.2152673664
 30
0.0
  0
VERTEX
  5
58B
  8
0
  6
CONTINUOUS
 62
     8
 10
89.4765234165
 20
146.6529218519
 30
0.0
  0
VERTEX
  5
58C
  8
0
  6
CONTINUOUS
 62
     8
 10
89.7310710026
 20
144.996665867
 30
0.0
  0
VERTEX
  5
58D
  8
0
  6
CONTINUOUS
 62
     8
 10
89.7700961174
 20
143.3479980522
 30
0.0
  0
VERTEX
  5
58E
  8
0
  6
CONTINUOUS
 62
     8
 10
89.5761227706
 20
141.664024929
 30
0.0
  0
VERTEX
  5
58F
  8
0
  6
CONTINUOUS
 62
     8
 10
89.1507153527
 20
140.0665738775
 30
0.0
  0
VERTEX
  5
590
  8
0
  6
CONTINUOUS
 62
     8
 10
88.5297080393
 20
138.6472517714
 30
0.0
  0
VERTEX
  5
591
  8
0
  6
CONTINUOUS
 62
     8
 10
87.7217241969
 20
137.3917885014
 30
0.0
  0
VERTEX
  5
592
  8
0
  6
CONTINUOUS
 62
     8
 10
86.3573023018
 20
136.0334986296
 30
0.0
  0
SEQEND
  5
5B9
  8
0
  6
CONTINUOUS
 62
     8
  0
LINE
  5
12C
  8
0
  6
CONTINUOUS
 62
     8
 10
93.2353094527
 20
158.2583921671
 30
0.0
 11
93.2387967091
 21
157.4104003092
 31
0.0
  0
POLYLINE
  5
12D
  8
0
  6
CONTINUOUS
 62
     8
 66
     1
 10
0.0
 20
0.0
 30
0.0
  0
VERTEX
  5
593
  8
0
  6
CONTINUOUS
 62
     8
 10
74.9153313433
 20
148.4449127521
 30
0.0
  0
VERTEX
  5
594
  8
0
  6
CONTINUOUS
 62
     8
 10
75.6201893156
 20
148.1597421982
 30
0.0
  0
VERTEX
  5
595
  8
0
  6
CONTINUOUS
 62
     8
 10
76.301057933
 20
147.6880644636
 30
0.0
  0
VERTEX
  5
596
  8
0
  6
CONTINUOUS
 62
     8
 10
76.9314305811
 20
147.0477742337
 30
0.0
  0
VERTEX
  5
597
  8
0
  6
CONTINUOUS
 62
     8
 10
77.4866965543
 20
146.2634588172
 30
0.0
  0
VERTEX
  5
598
  8
0
  6
CONTINUOUS
 62
     8
 10
77.9451556695
 20
145.3654415993
 30
0.0
  0
VERTEX
  5
599
  8
0
  6
CONTINUOUS
 62
     8
 10
78.288821507
 20
144.3886266124
 30
0.0
  0
VERTEX
  5
59A
  8
0
  6
CONTINUOUS
 62
     8
 10
78.5042897436
 20
143.3710600283
 30
0.0
  0
VERTEX
  5
59B
  8
0
  6
CONTINUOUS
 62
     8
 10
78.5831558116
 20
142.3524130515
 30
0.0
  0
VERTEX
  5
59C
  8
0
  6
CONTINUOUS
 62
     8
 10
78.5224785462
 20
141.3723557707
 30
0.0
  0
VERTEX
  5
59D
  8
0
  6
CONTINUOUS
 62
     8
 10
78.3247639873
 20
140.4689712907
 30
0.0
  0
VERTEX
  5
59E
  8
0
  6
CONTINUOUS
 62
     8
 10
77.9979573086
 20
139.6771997451
 30
0.0
  0
VERTEX
  5
59F
  8
0
  6
CONTINUOUS
 62
     8
 10
77.5549622732
 20
139.027495672
 30
0.0
  0
VERTEX
  5
5A0
  8
0
  6
CONTINUOUS
 62
     8
 10
77.0132201965
 20
138.544619929
 30
0.0
  0
VERTEX
  5
5A1
  8
0
  6
CONTINUOUS
 62
     8
 10
76.3938558634
 20
138.246746016
 30
0.0
  0
VERTEX
  5
5A2
  8
0
  6
CONTINUOUS
 62
     8
 10
76.2939467655
 20
138.2183347263
 30
0.0
  0
SEQEND
  5
5B8
  8
0
  6
CONTINUOUS
 62
     8
  0
POLYLINE
  5
12E
  8
0
  6
CONTINUOUS
 62
     8
 66
     1
 10
0.0
 20
0.0
 30
0.0
  0
VERTEX
  5
5A3
  8
0
  6
CONTINUOUS
 62
     8
 10
73.6936661681
 20
148.4647804663
 30
0.0
  0
VERTEX
  5
5A4
  8
0
  6
CONTINUOUS
 62
     8
 10
74.2137278474
 20
148.5330478373
 30
0.0
  0
VERTEX
  5
5A5
  8
0
  6
CONTINUOUS
 62
     8
 10
74.9153313433
 20
148.4449127521
 30
0.0
  0
SEQEND
  5
5B7
  8
0
  6
CONTINUOUS
 62
     8
  0
POLYLINE
  5
12F
  8
0
  6
CONTINUOUS
 62
     8
 66
     1
 10
0.0
 20
0.0
 30
0.0
  0
VERTEX
  5
5A6
  8
0
  6
CONTINUOUS
 62
     8
 10
81.2549531566
 20
139.637137472
 30
0.0
  0
VERTEX
  5
5A7
  8
0
  6
CONTINUOUS
 62
     8
 10
82.2325155378
 20
140.3383170976
 30
0.0
  0
VERTEX
  5
5A8
  8
0
  6
CONTINUOUS
 62
     8
 10
83.2941968479
 20
141.7126827806
 30
0.0
  0
VERTEX
  5
5A9
  8
0
  6
CONTINUOUS
 62
     8
 10
83.6101077761
 20
142.4985955259
 30
0.0
  0
VERTEX
  5
5AA
  8
0
  6
CONTINUOUS
 62
     8
 10
83.7658523517
 20
143.3745001019
 30
0.0
  0
VERTEX
  5
5AB
  8
0
  6
CONTINUOUS
 62
     8
 10
83.5434813252
 20
145.020676669
 30
0.0
  0
VERTEX
  5
5AC
  8
0
  6
CONTINUOUS
 62
     8
 10
82.7448837197
 20
146.5319850119
 30
0.0
  0
VERTEX
  5
5AD
  8
0
  6
CONTINUOUS
 62
     8
 10
81.4958965915
 20
147.8666035675
 30
0.0
  0
VERTEX
  5
5AE
  8
0
  6
CONTINUOUS
 62
     8
 10
80.0291851334
 20
148.8811085298
 30
0.0
  0
VERTEX
  5
5AF
  8
0
  6
CONTINUOUS
 62
     8
 10
78.7806287375
 20
149.3969269681
 30
0.0
  0
VERTEX
  5
5B0
  8
0
  6
CONTINUOUS
 62
     8
 10
78.7021593336
 20
149.4166461911
 30
0.0
  0
VERTEX
  5
5B1
  8
0
  6
CONTINUOUS
 62
     8
 10
77.7177463353
 20
149.4543370858
 30
0.0
  0
SEQEND
  5
5B6
  8
0
  6
CONTINUOUS
 62
     8
  0
ARC
  5
130
  8
0
  6
CONTINUOUS
 62
     8
 10
77.4038714548
 20
138.9612538327
 30
0.0
 40
2.595460008116425
 50
334.9432357787
 51
4.7153693185
  0
POLYLINE
  5
131
  8
0
  6
CONTINUOUS
 62
     8
 66
     1
 10
0.0
 20
0.0
 30
0.0
  0
VERTEX
  5
5B2
  8
0
  6
CONTINUOUS
 62
     8
 10
80.3963774832
 20
139.3258124053
 30
0.0
  0
VERTEX
  5
5B3
  8
0
  6
CONTINUOUS
 62
     8
 10
80.7280624829
 20
139.3880991754
 30
0.0
  0
VERTEX
  5
5B4
  8
0
  6
CONTINUOUS
 62
     8
 10
81.2549531566
 20
139.637137472
 30
0.0
  0
SEQEND
  5
5B5
  8
0
  6
CONTINUOUS
 62
     8
  0
TEXT
  5
132
  8
0
  6
CONTINUOUS
 62
     7
 10
0.0
 20
6.732893805
 30
0.0
 40
3.633
  1
Edition tudiante de SolidWorks.
 41
0.6671875
 11
0.0
 21
5.4495
 31
0.0
 73
     1
  0
TEXT
  5
133
  8
0
  6
CONTINUOUS
 62
     7
 10
0.0
 20
1.283393805
 30
0.0
 40
3.633
  1
A usage universitaire uniquement.
 41
0.6681818182
 11
0.0
 21
0.0
 31
0.0
 73
     1
  0
ENDSEC
  0
EOF
