  0
SECTION
  2
HEADER
  9
$ACADVER
  1
AC1009
  9
$DWGCODEPAGE
  3
ansi_1252
  9
$INSBASE
 10
0.0
 20
0.0
 30
0.0
  9
$EXTMIN
 10
0.0
 20
0.0
 30
0.0
  9
$EXTMAX
 10
1189.0
 20
841.0
 30
0.0
  9
$LIMMIN
 10
0.0
 20
0.0
  9
$LIMMAX
 10
1189.0
 20
841.0
  9
$ORTHOMODE
 70
     0
  9
$REGENMODE
 70
     1
  9
$FILLMODE
 70
     1
  9
$QTEXTMODE
 70
     0
  9
$MIRRTEXT
 70
     1
  9
$DRAGMODE
 70
     2
  9
$LTSCALE
 40
1.0
  9
$OSMODE
 70
    37
  9
$ATTMODE
 70
     1
  9
$TEXTSIZE
 40
3.5
  9
$TRACEWID
 40
1.0
  9
$TEXTSTYLE
  7
STANDARD
  9
$CLAYER
  8
0
  9
$CELTYPE
  6
BYLAYER
  9
$CECOLOR
 62
   256
  9
$DIMSCALE
 40
1.0
  9
$DIMASZ
 40
3.302
  9
$DIMEXO
 40
1.0
  9
$DIMDLI
 40
3.75
  9
$DIMRND
 40
0.0
  9
$DIMDLE
 40
0.0
  9
$DIMEXE
 40
1.0
  9
$DIMTP
 40
0.0
  9
$DIMTM
 40
0.0
  9
$DIMTXT
 40
3.5
  9
$DIMCEN
 40
2.5
  9
$DIMTSZ
 40
0.0
  9
$DIMTOL
 70
     0
  9
$DIMLIM
 70
     0
  9
$DIMTIH
 70
     1
  9
$DIMTOH
 70
     1
  9
$DIMSE1
 70
     0
  9
$DIMSE2
 70
     0
  9
$DIMTAD
 70
     1
  9
$DIMZIN
 70
     0
  9
$DIMBLK
  1

  9
$DIMASO
 70
     1
  9
$DIMSHO
 70
     1
  9
$DIMPOST
  1

  9
$DIMAPOST
  1

  9
$DIMALT
 70
     0
  9
$DIMALTD
 70
     3
  9
$DIMALTF
 40
0.0393700787
  9
$DIMLFAC
 40
2.0
  9
$DIMTOFL
 70
     1
  9
$DIMTVP
 40
0.0
  9
$DIMTIX
 70
     0
  9
$DIMSOXD
 70
     0
  9
$DIMSAH
 70
     0
  9
$DIMBLK1
  1

  9
$DIMBLK2
  1

  9
$DIMSTYLE
  2
ISO-25
  9
$DIMCLRD
 70
     0
  9
$DIMCLRE
 70
     0
  9
$DIMCLRT
 70
     0
  9
$DIMTFAC
 40
1.0
  9
$DIMGAP
 40
1.524
  9
$LUNITS
 70
     2
  9
$LUPREC
 70
     2
  9
$SKETCHINC
 40
1.0
  9
$FILLETRAD
 40
10.0
  9
$AUNITS
 70
     0
  9
$AUPREC
 70
     2
  9
$MENU
  1
.
  9
$ELEVATION
 40
0.0
  9
$PELEVATION
 40
0.0
  9
$THICKNESS
 40
0.0
  9
$LIMCHECK
 70
     0
  9
$CHAMFERA
 40
10.0
  9
$CHAMFERB
 40
10.0
  9
$SKPOLY
 70
     0
  9
$TDCREATE
 40
2456568.366293808
  9
$TDUPDATE
 40
2456568.366294167
  9
$TDINDWG
 40
0.0000000116
  9
$TDUSRTIMER
 40
0.0000000116
  9
$USRTIMER
 70
     1
  9
$ANGBASE
 50
0.0
  9
$ANGDIR
 70
     0
  9
$PDMODE
 70
     0
  9
$PDSIZE
 40
-1.0
  9
$PLINEWID
 40
0.0
  9
$COORDS
 70
     1
  9
$SPLFRAME
 70
     0
  9
$SPLINETYPE
 70
     6
  9
$SPLINESEGS
 70
     8
  9
$ATTDIA
 70
     0
  9
$ATTREQ
 70
     1
  9
$HANDLING
 70
     1
  9
$HANDSEED
  5
98
  9
$SURFTAB1
 70
     6
  9
$SURFTAB2
 70
     6
  9
$SURFTYPE
 70
     6
  9
$SURFU
 70
     6
  9
$SURFV
 70
     6
  9
$UCSNAME
  2

  9
$UCSORG
 10
0.0
 20
0.0
 30
0.0
  9
$UCSXDIR
 10
1.0
 20
0.0
 30
0.0
  9
$UCSYDIR
 10
0.0
 20
1.0
 30
0.0
  9
$PUCSNAME
  2

  9
$PUCSORG
 10
0.0
 20
0.0
 30
0.0
  9
$PUCSXDIR
 10
1.0
 20
0.0
 30
0.0
  9
$PUCSYDIR
 10
0.0
 20
1.0
 30
0.0
  9
$USERI1
 70
     0
  9
$USERI2
 70
     0
  9
$USERI3
 70
     0
  9
$USERI4
 70
     0
  9
$USERI5
 70
     0
  9
$USERR1
 40
0.0
  9
$USERR2
 40
0.0
  9
$USERR3
 40
0.0
  9
$USERR4
 40
0.0
  9
$USERR5
 40
0.0
  9
$WORLDVIEW
 70
     1
  9
$SHADEDGE
 70
     3
  9
$SHADEDIF
 70
    70
  9
$TILEMODE
 70
     1
  9
$MAXACTVP
 70
    64
  9
$PLIMCHECK
 70
     0
  9
$PEXTMIN
 10
1.0000000000E+20
 20
1.0000000000E+20
 30
1.0000000000E+20
  9
$PEXTMAX
 10
-1.0000000000E+20
 20
-1.0000000000E+20
 30
-1.0000000000E+20
  9
$PLIMMIN
 10
0.0
 20
0.0
  9
$PLIMMAX
 10
420.0
 20
297.0
  9
$UNITMODE
 70
     0
  9
$VISRETAIN
 70
     1
  9
$PLINEGEN
 70
     0
  9
$PSLTSCALE
 70
     1
  0
ENDSEC
  0
SECTION
  2
TABLES
  0
TABLE
  2
VPORT
 70
     1
  0
VPORT
  2
*ACTIVE
 70
     0
 10
0.0
 20
0.0
 11
1.0
 21
1.0
 12
594.5
 22
420.5
 13
0.0
 23
0.0
 14
10.0
 24
10.0
 15
10.0
 25
10.0
 16
0.0
 26
0.0
 36
1.0
 17
0.0
 27
0.0
 37
0.0
 40
841.0
 41
1.4137931034
 42
50.0
 43
0.0
 44
0.0
 50
0.0
 51
0.0
 71
     0
 72
  2000
 73
     1
 74
     3
 75
     0
 76
     0
 77
     0
 78
     0
  0
ENDTAB
  0
TABLE
  2
LTYPE
 70
     6
  0
LTYPE
  2
CONTINUOUS
 70
     0
  3
Solid line
 72
    65
 73
     0
 40
0.0
  0
LTYPE
  2
HIDDEN
 70
     0
  3
Hidden __ __ __ __ __ __ __ __ __ __ __ __ __ __
 72
    65
 73
     2
 40
1.905
 49
1.27
 49
-0.635
  0
LTYPE
  2
PHANTOM
 70
     0
  3
Phantom ______  __  __  ______  __  __  ______
 72
    65
 73
     6
 40
12.7
 49
6.35
 49
-1.27
 49
1.27
 49
-1.27
 49
1.27
 49
-1.27
  0
LTYPE
  2
CENTER
 70
     0
  3
Center ____ _ ____ _ ____ _ ____ _ ____ _ ____
 72
    65
 73
     4
 40
10.16
 49
6.35
 49
-1.27
 49
1.27
 49
-1.27
  0
LTYPE
  2
CENTERX2
 70
     0
  3
Center (2x) ________  __  ________  __  _____
 72
    65
 73
     4
 40
20.32
 49
12.7
 49
-2.54
 49
2.54
 49
-2.54
  0
LTYPE
  2
DOT2
 70
     0
  3
Dot (.5x) ........................................
 72
    65
 73
     2
 40
0.635
 49
0.0
 49
-0.635
  0
ENDTAB
  0
TABLE
  2
LAYER
 70
     1
  0
LAYER
  2
0
 70
     0
 62
     7
  6
CONTINUOUS
  0
ENDTAB
  0
TABLE
  2
STYLE
 70
     1
  0
STYLE
  2
STANDARD
 70
     0
 40
0.0
 41
1.0
 50
0.0
 71
     0
 42
3.5
  3
txt
  4

  0
ENDTAB
  0
TABLE
  2
VIEW
 70
     0
  0
ENDTAB
  0
TABLE
  2
UCS
 70
     0
  0
ENDTAB
  0
TABLE
  2
APPID
 70
     1
  0
APPID
  2
ACAD
 70
     0
  0
ENDTAB
  0
TABLE
  2
DIMSTYLE
 70
     1
  0
DIMSTYLE
  2
ISO-25
 70
     0
  3

  4

  5

  6

  7

 40
1.0
 41
2.5
 42
0.625
 43
3.75
 44
1.25
 45
0.0
 46
0.0
 47
0.0
 48
0.0
140
2.5
141
2.5
142
0.0
143
0.0393700787
144
1.0
145
0.0
146
1.0
147
0.625
 71
     0
 72
     0
 73
     0
 74
     0
 75
     0
 76
     0
 77
     1
 78
     8
170
     0
171
     3
172
     1
173
     0
174
     0
175
     0
176
     0
177
     0
178
     0
  0
ENDTAB
  0
ENDSEC
  0
SECTION
  2
BLOCKS
  0
BLOCK
  8
0
  2
$MODEL_SPACE
 70
     0
 10
0.0
 20
0.0
 30
0.0
  3
$MODEL_SPACE
  1

  0
ENDBLK
  5
21
  8
0
  0
BLOCK
 67
     1
  8
0
  2
$PAPER_SPACE
 70
     0
 10
0.0
 20
0.0
 30
0.0
  3
$PAPER_SPACE
  1

  0
ENDBLK
  5
1D
 67
     1
  8
0
  0
ENDSEC
  0
SECTION
  2
ENTITIES
  0
CIRCLE
  5
44
  8
0
  6
CONTINUOUS
 62
     7
 10
525.9178077743
 20
532.4326271059
 30
0.0
 40
1.0
  0
CIRCLE
  5
45
  8
0
  6
CONTINUOUS
 62
     7
 10
269.3503664746
 20
532.4326271059
 30
0.0
 40
1.0
  0
CIRCLE
  5
46
  8
0
  6
CONTINUOUS
 62
     7
 10
397.6340871244
 20
417.2504350523
 30
0.0
 40
1.0
  0
LINE
  5
47
  8
0
  6
CONTINUOUS
 62
     7
 10
642.087436695
 20
419.09142531
 30
0.0
 11
418.6584269527
 21
642.5204350523
 31
0.0
  0
ARC
  5
48
  8
0
  6
CONTINUOUS
 62
     7
 10
640.4964464373
 20
417.5004350523
 30
0.0
 40
2.250000000000059
 50
270.0
 51
45.0
  0
LINE
  5
49
  8
0
  6
CONTINUOUS
 62
     7
 10
154.7717278116
 20
415.2504350523
 30
0.0
 11
640.4964464373
 21
415.2504350523
 31
0.0
  0
ARC
  5
4A
  8
0
  6
CONTINUOUS
 62
     7
 10
154.7717278116
 20
417.5004350523
 30
0.0
 40
2.249999999999978
 50
135.0
 51
270.0000000001
  0
LINE
  5
4B
  8
0
  6
CONTINUOUS
 62
     7
 10
376.6097472962
 20
642.5204350523
 30
0.0
 11
153.1807375539
 21
419.09142531
 31
0.0
  0
LINE
  5
4C
  8
0
  6
CONTINUOUS
 62
     7
 10
418.6584269527
 20
642.5204350523
 30
0.0
 11
376.6097472962
 21
642.5204350523
 31
0.0
  0
CIRCLE
  5
4D
  8
0
  6
CONTINUOUS
 62
     7
 10
158.7232994745
 20
419.1906302777
 30
0.0
 40
1.0
  0
CIRCLE
  5
4E
  8
0
  6
CONTINUOUS
 62
     7
 10
397.6340871244
 20
640.5204350523
 30
0.0
 40
1.0
  0
CIRCLE
  5
4F
  8
0
  6
CONTINUOUS
 62
     7
 10
636.5448747744
 20
419.1906302777
 30
0.0
 40
1.0
  0
CIRCLE
  5
50
  8
0
  6
CONTINUOUS
 62
     7
 10
812.4065755627
 20
657.283965242
 30
0.0
 40
1.000000000000114
  0
CIRCLE
  5
51
  8
0
  6
CONTINUOUS
 62
     7
 10
812.4065755627
 20
403.833965242
 30
0.0
 40
1.0
  0
CIRCLE
  5
52
  8
0
  6
CONTINUOUS
 62
     7
 10
651.5065755627
 20
530.553965242
 30
0.0
 40
1.000000000000114
  0
LINE
  5
53
  8
0
  6
CONTINUOUS
 62
     7
 10
649.0065755627
 20
659.783965242
 30
0.0
 11
649.0065755627
 21
401.333965242
 31
0.0
  0
LINE
  5
54
  8
0
  6
CONTINUOUS
 62
     7
 10
814.9065755627
 20
659.783965242
 30
0.0
 11
649.0065755627
 21
659.783965242
 31
0.0
  0
LINE
  5
55
  8
0
  6
CONTINUOUS
 62
     7
 10
814.9065755627
 20
401.333965242
 30
0.0
 11
814.9065755627
 21
659.783965242
 31
0.0
  0
LINE
  5
56
  8
0
  6
CONTINUOUS
 62
     7
 10
649.0065755627
 20
401.333965242
 30
0.0
 11
814.9065755627
 21
401.333965242
 31
0.0
  0
CIRCLE
  5
57
  8
0
  6
CONTINUOUS
 62
     7
 10
651.5065755627
 20
403.833965242
 30
0.0
 40
1.0
  0
CIRCLE
  5
58
  8
0
  6
CONTINUOUS
 62
     7
 10
651.5065755627
 20
657.283965242
 30
0.0
 40
1.000000000000114
  0
CIRCLE
  5
59
  8
0
  6
CONTINUOUS
 62
     7
 10
812.4065755627
 20
530.553965242
 30
0.0
 40
1.0
  0
CIRCLE
  5
5A
  8
0
  6
CONTINUOUS
 62
     7
 10
823.5065755627
 20
689.1891800643
 30
0.0
 40
1.0
  0
CIRCLE
  5
5B
  8
0
  6
CONTINUOUS
 62
     7
 10
823.5065755627
 20
403.7591800643
 30
0.0
 40
1.0
  0
CIRCLE
  5
5C
  8
0
  6
CONTINUOUS
 62
     7
 10
1000.4065755627
 20
546.4791800643
 30
0.0
 40
0.9999999999998863
  0
LINE
  5
5D
  8
0
  6
CONTINUOUS
 62
     7
 10
1002.9065755627
 20
401.2591800643
 30
0.0
 11
1002.9065755627
 21
691.6891800643
 31
0.0
  0
LINE
  5
5E
  8
0
  6
CONTINUOUS
 62
     7
 10
821.0065755627
 20
401.2591800643
 30
0.0
 11
1002.9065755627
 21
401.2591800643
 31
0.0
  0
LINE
  5
5F
  8
0
  6
CONTINUOUS
 62
     7
 10
821.0065755627
 20
691.6891800643
 30
0.0
 11
821.0065755627
 21
401.2591800643
 31
0.0
  0
LINE
  5
60
  8
0
  6
CONTINUOUS
 62
     7
 10
1002.9065755627
 20
691.6891800643
 30
0.0
 11
821.0065755627
 21
691.6891800643
 31
0.0
  0
CIRCLE
  5
61
  8
0
  6
CONTINUOUS
 62
     7
 10
1000.4065755627
 20
689.1891800643
 30
0.0
 40
1.000000000000114
  0
CIRCLE
  5
62
  8
0
  6
CONTINUOUS
 62
     7
 10
1000.4065755627
 20
403.7591800643
 30
0.0
 40
1.0
  0
CIRCLE
  5
63
  8
0
  6
CONTINUOUS
 62
     7
 10
823.5065755627
 20
546.4791800643
 30
0.0
 40
0.9999999999998863
  0
CIRCLE
  5
64
  8
0
  6
CONTINUOUS
 62
     7
 10
635.5065755627
 20
392.1891800643
 30
0.0
 40
1.0
  0
CIRCLE
  5
65
  8
0
  6
CONTINUOUS
 62
     7
 10
635.5065755627
 20
106.7591800643
 30
0.0
 40
1.0
  0
CIRCLE
  5
66
  8
0
  6
CONTINUOUS
 62
     7
 10
812.4065755627
 20
249.4791800643
 30
0.0
 40
1.0
  0
LINE
  5
67
  8
0
  6
CONTINUOUS
 62
     7
 10
814.9065755627
 20
104.2591800643
 30
0.0
 11
814.9065755627
 21
394.6891800643
 31
0.0
  0
LINE
  5
68
  8
0
  6
CONTINUOUS
 62
     7
 10
633.0065755627
 20
104.2591800643
 30
0.0
 11
814.9065755627
 21
104.2591800643
 31
0.0
  0
LINE
  5
69
  8
0
  6
CONTINUOUS
 62
     7
 10
633.0065755627
 20
394.6891800643
 30
0.0
 11
633.0065755627
 21
104.2591800643
 31
0.0
  0
LINE
  5
6A
  8
0
  6
CONTINUOUS
 62
     7
 10
814.9065755627
 20
394.6891800643
 30
0.0
 11
633.0065755627
 21
394.6891800643
 31
0.0
  0
CIRCLE
  5
6B
  8
0
  6
CONTINUOUS
 62
     7
 10
812.4065755627
 20
392.1891800643
 30
0.0
 40
1.0
  0
CIRCLE
  5
6C
  8
0
  6
CONTINUOUS
 62
     7
 10
812.4065755627
 20
106.7591800643
 30
0.0
 40
1.0
  0
CIRCLE
  5
6D
  8
0
  6
CONTINUOUS
 62
     7
 10
635.5065755627
 20
249.4791800643
 30
0.0
 40
1.0
  0
CIRCLE
  5
6E
  8
0
  6
CONTINUOUS
 62
     7
 10
823.5065755627
 20
392.1891800643
 30
0.0
 40
1.0
  0
CIRCLE
  5
6F
  8
0
  6
CONTINUOUS
 62
     7
 10
823.5065755627
 20
106.7591800643
 30
0.0
 40
1.0
  0
CIRCLE
  5
70
  8
0
  6
CONTINUOUS
 62
     7
 10
1000.4065755627
 20
249.4791800643
 30
0.0
 40
1.0
  0
LINE
  5
71
  8
0
  6
CONTINUOUS
 62
     7
 10
1002.9065755627
 20
104.2591800643
 30
0.0
 11
1002.9065755627
 21
394.6891800643
 31
0.0
  0
LINE
  5
72
  8
0
  6
CONTINUOUS
 62
     7
 10
821.0065755627
 20
104.2591800643
 30
0.0
 11
1002.9065755627
 21
104.2591800643
 31
0.0
  0
LINE
  5
73
  8
0
  6
CONTINUOUS
 62
     7
 10
821.0065755627
 20
394.6891800643
 30
0.0
 11
821.0065755627
 21
104.2591800643
 31
0.0
  0
LINE
  5
74
  8
0
  6
CONTINUOUS
 62
     7
 10
1002.9065755627
 20
394.6891800643
 30
0.0
 11
821.0065755627
 21
394.6891800643
 31
0.0
  0
CIRCLE
  5
75
  8
0
  6
CONTINUOUS
 62
     7
 10
1000.4065755627
 20
392.1891800643
 30
0.0
 40
1.0
  0
CIRCLE
  5
76
  8
0
  6
CONTINUOUS
 62
     7
 10
1000.4065755627
 20
106.7591800643
 30
0.0
 40
1.0
  0
CIRCLE
  5
77
  8
0
  6
CONTINUOUS
 62
     7
 10
823.5065755627
 20
249.4791800643
 30
0.0
 40
1.0
  0
CIRCLE
  5
78
  8
0
  6
CONTINUOUS
 62
     7
 10
458.3965755627
 20
248.0415939033
 30
0.0
 40
1.0
  0
CIRCLE
  5
79
  8
0
  6
CONTINUOUS
 62
     7
 10
458.3965755627
 20
106.7591800643
 30
0.0
 40
1.0
  0
LINE
  5
7A
  8
0
  6
CONTINUOUS
 62
     7
 10
627.0065755627
 20
104.2591800643
 30
0.0
 11
627.0065755627
 21
391.0591800643
 31
0.0
  0
LINE
  5
7B
  8
0
  6
CONTINUOUS
 62
     7
 10
455.8965755627
 20
104.2591800643
 30
0.0
 11
627.0065755627
 21
104.2591800643
 31
0.0
  0
LINE
  5
7C
  8
0
  6
CONTINUOUS
 62
     7
 10
455.8965755627
 20
391.0591800643
 30
0.0
 11
455.8965755627
 21
104.2591800643
 31
0.0
  0
CIRCLE
  5
7D
  8
0
  6
CONTINUOUS
 62
     7
 10
624.5065755627
 20
388.5591800643
 30
0.0
 40
1.0
  0
CIRCLE
  5
7E
  8
0
  6
CONTINUOUS
 62
     7
 10
624.5065755627
 20
106.7591800643
 30
0.0
 40
1.0
  0
CIRCLE
  5
7F
  8
0
  6
CONTINUOUS
 62
     7
 10
624.5065755627
 20
247.6591800643
 30
0.0
 40
1.0
  0
CIRCLE
  5
80
  8
0
  6
CONTINUOUS
 62
     7
 10
458.3965755627
 20
388.5591800643
 30
0.0
 40
1.0
  0
LINE
  5
81
  8
0
  6
CONTINUOUS
 62
     7
 10
627.0065755627
 20
391.0591800643
 30
0.0
 11
455.8965755627
 21
391.0591800643
 31
0.0
  0
CIRCLE
  5
82
  8
0
  6
CONTINUOUS
 62
     7
 10
281.2865755627
 20
248.0415939033
 30
0.0
 40
1.0
  0
CIRCLE
  5
83
  8
0
  6
CONTINUOUS
 62
     7
 10
281.2865755627
 20
106.7591800643
 30
0.0
 40
1.0
  0
CIRCLE
  5
84
  8
0
  6
CONTINUOUS
 62
     7
 10
281.2865755627
 20
388.5591800643
 30
0.0
 40
1.0
  0
LINE
  5
85
  8
0
  6
CONTINUOUS
 62
     7
 10
449.8965755627
 20
104.2591800643
 30
0.0
 11
449.8965755627
 21
391.0591800643
 31
0.0
  0
LINE
  5
86
  8
0
  6
CONTINUOUS
 62
     7
 10
278.7865755627
 20
104.2591800643
 30
0.0
 11
449.8965755627
 21
104.2591800643
 31
0.0
  0
LINE
  5
87
  8
0
  6
CONTINUOUS
 62
     7
 10
278.7865755627
 20
391.0591800643
 30
0.0
 11
278.7865755627
 21
104.2591800643
 31
0.0
  0
CIRCLE
  5
88
  8
0
  6
CONTINUOUS
 62
     7
 10
447.3965755627
 20
388.5591800643
 30
0.0
 40
1.0
  0
CIRCLE
  5
89
  8
0
  6
CONTINUOUS
 62
     7
 10
447.3965755627
 20
106.7591800643
 30
0.0
 40
1.0
  0
CIRCLE
  5
8A
  8
0
  6
CONTINUOUS
 62
     7
 10
447.3965755627
 20
247.6591800643
 30
0.0
 40
1.0
  0
LINE
  5
8B
  8
0
  6
CONTINUOUS
 62
     7
 10
449.8965755627
 20
391.0591800643
 30
0.0
 11
278.7865755627
 21
391.0591800643
 31
0.0
  0
CIRCLE
  5
8C
  8
0
  6
CONTINUOUS
 62
     7
 10
270.2865755627
 20
255.106157989
 30
0.0
 40
1.0
  0
CIRCLE
  5
8D
  8
0
  6
CONTINUOUS
 62
     7
 10
151.8165755627
 20
250.6591800643
 30
0.0
 40
1.000000000000028
  0
LINE
  5
8E
  8
0
  6
CONTINUOUS
 62
     7
 10
272.7865755627
 20
391.0591800643
 30
0.0
 11
149.3165755627
 21
391.0591800643
 31
0.0
  0
LINE
  5
8F
  8
0
  6
CONTINUOUS
 62
     7
 10
272.7865755627
 20
104.2591800643
 30
0.0
 11
272.7865755627
 21
391.0591800643
 31
0.0
  0
LINE
  5
90
  8
0
  6
CONTINUOUS
 62
     7
 10
149.3165755627
 20
104.2591800643
 30
0.0
 11
272.7865755627
 21
104.2591800643
 31
0.0
  0
CIRCLE
  5
91
  8
0
  6
CONTINUOUS
 62
     7
 10
151.8165755627
 20
388.5591800643
 30
0.0
 40
1.000000000000028
  0
CIRCLE
  5
92
  8
0
  6
CONTINUOUS
 62
     7
 10
151.8165755627
 20
106.7591800643
 30
0.0
 40
1.000000000000028
  0
CIRCLE
  5
93
  8
0
  6
CONTINUOUS
 62
     7
 10
270.2865755627
 20
106.7591800643
 30
0.0
 40
1.0
  0
CIRCLE
  5
94
  8
0
  6
CONTINUOUS
 62
     7
 10
270.2865755627
 20
388.5591800643
 30
0.0
 40
1.0
  0
LINE
  5
95
  8
0
  6
CONTINUOUS
 62
     7
 10
149.3165755627
 20
391.0591800643
 30
0.0
 11
149.3165755627
 21
104.2591800643
 31
0.0
  0
TEXT
  5
96
  8
0
  6
CONTINUOUS
 62
     7
 10
0.0
 20
26.9636366189
 30
0.0
 40
14.5493
  1
Edition étudiante de SolidWorks.
 41
0.6671875
 11
0.0
 21
21.82395
 31
0.0
 73
     1
  0
TEXT
  5
97
  8
0
  6
CONTINUOUS
 62
     7
 10
0.0
 20
5.1396866189
 30
0.0
 40
14.5493
  1
A usage universitaire uniquement.
 41
0.6681818182
 11
0.0
 21
0.0
 31
0.0
 73
     1
  0
ENDSEC
  0
EOF
