  0
SECTION
  2
HEADER
  9
$ACADVER
  1
AC1009
  9
$DWGCODEPAGE
  3
ansi_1252
  9
$INSBASE
 10
0.0
 20
0.0
 30
0.0
  9
$EXTMIN
 10
0.0
 20
0.0
 30
0.0
  9
$EXTMAX
 10
210.0
 20
297.0
 30
0.0
  9
$LIMMIN
 10
0.0
 20
0.0
  9
$LIMMAX
 10
210.0
 20
297.0
  9
$ORTHOMODE
 70
     0
  9
$REGENMODE
 70
     1
  9
$FILLMODE
 70
     1
  9
$QTEXTMODE
 70
     0
  9
$MIRRTEXT
 70
     1
  9
$DRAGMODE
 70
     2
  9
$LTSCALE
 40
1.0
  9
$OSMODE
 70
    37
  9
$ATTMODE
 70
     1
  9
$TEXTSIZE
 40
3.5
  9
$TRACEWID
 40
1.0
  9
$TEXTSTYLE
  7
STANDARD
  9
$CLAYER
  8
0
  9
$CELTYPE
  6
BYLAYER
  9
$CECOLOR
 62
   256
  9
$DIMSCALE
 40
1.0
  9
$DIMASZ
 40
3.302
  9
$DIMEXO
 40
1.0
  9
$DIMDLI
 40
3.75
  9
$DIMRND
 40
0.0
  9
$DIMDLE
 40
0.0
  9
$DIMEXE
 40
1.0
  9
$DIMTP
 40
0.0
  9
$DIMTM
 40
0.0
  9
$DIMTXT
 40
3.5
  9
$DIMCEN
 40
2.5
  9
$DIMTSZ
 40
0.0
  9
$DIMTOL
 70
     0
  9
$DIMLIM
 70
     0
  9
$DIMTIH
 70
     1
  9
$DIMTOH
 70
     1
  9
$DIMSE1
 70
     0
  9
$DIMSE2
 70
     0
  9
$DIMTAD
 70
     1
  9
$DIMZIN
 70
     0
  9
$DIMBLK
  1

  9
$DIMASO
 70
     1
  9
$DIMSHO
 70
     1
  9
$DIMPOST
  1

  9
$DIMAPOST
  1

  9
$DIMALT
 70
     0
  9
$DIMALTD
 70
     3
  9
$DIMALTF
 40
0.0393700787
  9
$DIMLFAC
 40
1.0
  9
$DIMTOFL
 70
     1
  9
$DIMTVP
 40
0.0
  9
$DIMTIX
 70
     0
  9
$DIMSOXD
 70
     0
  9
$DIMSAH
 70
     0
  9
$DIMBLK1
  1

  9
$DIMBLK2
  1

  9
$DIMSTYLE
  2
ISO-25
  9
$DIMCLRD
 70
     0
  9
$DIMCLRE
 70
     0
  9
$DIMCLRT
 70
     0
  9
$DIMTFAC
 40
1.0
  9
$DIMGAP
 40
1.524
  9
$LUNITS
 70
     2
  9
$LUPREC
 70
     2
  9
$SKETCHINC
 40
1.0
  9
$FILLETRAD
 40
10.0
  9
$AUNITS
 70
     0
  9
$AUPREC
 70
     2
  9
$MENU
  1
.
  9
$ELEVATION
 40
0.0
  9
$PELEVATION
 40
0.0
  9
$THICKNESS
 40
0.0
  9
$LIMCHECK
 70
     0
  9
$CHAMFERA
 40
10.0
  9
$CHAMFERB
 40
10.0
  9
$SKPOLY
 70
     0
  9
$TDCREATE
 40
2456441.660297569
  9
$TDUPDATE
 40
2456441.660297743
  9
$TDINDWG
 40
0.0000000116
  9
$TDUSRTIMER
 40
0.0000000116
  9
$USRTIMER
 70
     1
  9
$ANGBASE
 50
0.0
  9
$ANGDIR
 70
     0
  9
$PDMODE
 70
     0
  9
$PDSIZE
 40
-1.0
  9
$PLINEWID
 40
0.0
  9
$COORDS
 70
     1
  9
$SPLFRAME
 70
     0
  9
$SPLINETYPE
 70
     6
  9
$SPLINESEGS
 70
     8
  9
$ATTDIA
 70
     0
  9
$ATTREQ
 70
     1
  9
$HANDLING
 70
     1
  9
$HANDSEED
  5
1C5
  9
$SURFTAB1
 70
     6
  9
$SURFTAB2
 70
     6
  9
$SURFTYPE
 70
     6
  9
$SURFU
 70
     6
  9
$SURFV
 70
     6
  9
$UCSNAME
  2

  9
$UCSORG
 10
0.0
 20
0.0
 30
0.0
  9
$UCSXDIR
 10
1.0
 20
0.0
 30
0.0
  9
$UCSYDIR
 10
0.0
 20
1.0
 30
0.0
  9
$PUCSNAME
  2

  9
$PUCSORG
 10
0.0
 20
0.0
 30
0.0
  9
$PUCSXDIR
 10
1.0
 20
0.0
 30
0.0
  9
$PUCSYDIR
 10
0.0
 20
1.0
 30
0.0
  9
$USERI1
 70
     0
  9
$USERI2
 70
     0
  9
$USERI3
 70
     0
  9
$USERI4
 70
     0
  9
$USERI5
 70
     0
  9
$USERR1
 40
0.0
  9
$USERR2
 40
0.0
  9
$USERR3
 40
0.0
  9
$USERR4
 40
0.0
  9
$USERR5
 40
0.0
  9
$WORLDVIEW
 70
     1
  9
$SHADEDGE
 70
     3
  9
$SHADEDIF
 70
    70
  9
$TILEMODE
 70
     1
  9
$MAXACTVP
 70
    64
  9
$PLIMCHECK
 70
     0
  9
$PEXTMIN
 10
1.0000000000E+20
 20
1.0000000000E+20
 30
1.0000000000E+20
  9
$PEXTMAX
 10
-1.0000000000E+20
 20
-1.0000000000E+20
 30
-1.0000000000E+20
  9
$PLIMMIN
 10
0.0
 20
0.0
  9
$PLIMMAX
 10
420.0
 20
297.0
  9
$UNITMODE
 70
     0
  9
$VISRETAIN
 70
     1
  9
$PLINEGEN
 70
     0
  9
$PSLTSCALE
 70
     1
  0
ENDSEC
  0
SECTION
  2
TABLES
  0
TABLE
  2
VPORT
 70
     1
  0
VPORT
  2
*ACTIVE
 70
     0
 10
0.0
 20
0.0
 11
1.0
 21
1.0
 12
105.0
 22
148.5
 13
0.0
 23
0.0
 14
10.0
 24
10.0
 15
10.0
 25
10.0
 16
0.0
 26
0.0
 36
1.0
 17
0.0
 27
0.0
 37
0.0
 40
297.0
 41
0.7070707071
 42
50.0
 43
0.0
 44
0.0
 50
0.0
 51
0.0
 71
     0
 72
  2000
 73
     1
 74
     3
 75
     0
 76
     0
 77
     0
 78
     0
  0
ENDTAB
  0
TABLE
  2
LTYPE
 70
     6
  0
LTYPE
  2
CONTINUOUS
 70
     0
  3
Solid line
 72
    65
 73
     0
 40
0.0
  0
LTYPE
  2
HIDDEN
 70
     0
  3
Hidden __ __ __ __ __ __ __ __ __ __ __ __ __ __
 72
    65
 73
     2
 40
1.905
 49
1.27
 49
-0.635
  0
LTYPE
  2
PHANTOM
 70
     0
  3
Phantom ______  __  __  ______  __  __  ______
 72
    65
 73
     6
 40
12.7
 49
6.35
 49
-1.27
 49
1.27
 49
-1.27
 49
1.27
 49
-1.27
  0
LTYPE
  2
CENTER
 70
     0
  3
Center ____ _ ____ _ ____ _ ____ _ ____ _ ____
 72
    65
 73
     4
 40
10.16
 49
6.35
 49
-1.27
 49
1.27
 49
-1.27
  0
LTYPE
  2
CENTERX2
 70
     0
  3
Center (2x) ________  __  ________  __  _____
 72
    65
 73
     4
 40
20.32
 49
12.7
 49
-2.54
 49
2.54
 49
-2.54
  0
LTYPE
  2
DOT2
 70
     0
  3
Dot (.5x) ........................................
 72
    65
 73
     2
 40
0.635
 49
0.0
 49
-0.635
  0
ENDTAB
  0
TABLE
  2
LAYER
 70
     1
  0
LAYER
  2
0
 70
     0
 62
     7
  6
CONTINUOUS
  0
ENDTAB
  0
TABLE
  2
STYLE
 70
     1
  0
STYLE
  2
STANDARD
 70
     0
 40
0.0
 41
1.0
 50
0.0
 71
     0
 42
3.5
  3
txt
  4

  0
ENDTAB
  0
TABLE
  2
VIEW
 70
     0
  0
ENDTAB
  0
TABLE
  2
UCS
 70
     0
  0
ENDTAB
  0
TABLE
  2
APPID
 70
     1
  0
APPID
  2
ACAD
 70
     0
  0
ENDTAB
  0
TABLE
  2
DIMSTYLE
 70
     1
  0
DIMSTYLE
  2
ISO-25
 70
     0
  3

  4

  5

  6

  7

 40
1.0
 41
2.5
 42
0.625
 43
3.75
 44
1.25
 45
0.0
 46
0.0
 47
0.0
 48
0.0
140
2.5
141
2.5
142
0.0
143
0.0393700787
144
1.0
145
0.0
146
1.0
147
0.625
 71
     0
 72
     0
 73
     0
 74
     0
 75
     0
 76
     0
 77
     1
 78
     8
170
     0
171
     3
172
     1
173
     0
174
     0
175
     0
176
     0
177
     0
178
     0
  0
ENDTAB
  0
ENDSEC
  0
SECTION
  2
BLOCKS
  0
BLOCK
  8
0
  2
$MODEL_SPACE
 70
     0
 10
0.0
 20
0.0
 30
0.0
  3
$MODEL_SPACE
  1

  0
ENDBLK
  5
21
  8
0
  0
BLOCK
 67
     1
  8
0
  2
$PAPER_SPACE
 70
     0
 10
0.0
 20
0.0
 30
0.0
  3
$PAPER_SPACE
  1

  0
ENDBLK
  5
1D
 67
     1
  8
0
  0
ENDSEC
  0
SECTION
  2
ENTITIES
  0
LINE
  5
44
  8
0
  6
CONTINUOUS
 62
     7
 10
110.3837566414
 20
152.8202631306
 30
0.0
 11
110.3837566414
 21
153.6202631686
 31
0.0
  0
LINE
  5
45
  8
0
  6
CONTINUOUS
 62
     7
 10
105.1837561616
 20
153.6202631686
 30
0.0
 11
105.1837561616
 21
152.8202631306
 31
0.0
  0
LINE
  5
46
  8
0
  6
CONTINUOUS
 62
     7
 10
105.1837561616
 20
143.4202631498
 30
0.0
 11
105.1837561616
 21
142.8202632377
 31
0.0
  0
LINE
  5
47
  8
0
  6
CONTINUOUS
 62
     7
 10
110.3837566414
 20
142.8202632377
 30
0.0
 11
110.3837566414
 21
143.4202631498
 31
0.0
  0
LINE
  5
48
  8
0
  6
CONTINUOUS
 62
     7
 10
110.2837563456
 20
143.4202631498
 30
0.0
 11
110.2837563456
 21
152.8202631306
 31
0.0
  0
LINE
  5
49
  8
0
  6
CONTINUOUS
 62
     7
 10
105.283756923
 20
152.8202631306
 30
0.0
 11
105.283756923
 21
143.4202631498
 31
0.0
  0
LINE
  5
4A
  8
0
  6
CONTINUOUS
 62
     7
 10
110.5303123557
 20
153.6202631686
 30
0.0
 11
110.5303123557
 21
159.2202633181
 31
0.0
  0
LINE
  5
4B
  8
0
  6
CONTINUOUS
 62
     7
 10
105.0372004472
 20
159.2202633181
 30
0.0
 11
105.0372004472
 21
153.6202631686
 31
0.0
  0
LINE
  5
4C
  8
0
  6
CONTINUOUS
 62
     7
 10
109.7654301637
 20
159.2202633181
 30
0.0
 11
109.7654301637
 21
153.6202631686
 31
0.0
  0
LINE
  5
4D
  8
0
  6
CONTINUOUS
 62
     7
 10
105.8020826393
 20
153.6202631686
 30
0.0
 11
105.8020826393
 21
159.2202633181
 31
0.0
  0
LINE
  5
4E
  8
0
  6
CONTINUOUS
 62
     7
 10
110.8837567233
 20
153.6202631686
 30
0.0
 11
110.8837567233
 21
159.2202633181
 31
0.0
  0
LINE
  5
4F
  8
0
  6
CONTINUOUS
 62
     7
 10
104.6837560796
 20
159.2202633181
 30
0.0
 11
104.6837560796
 21
153.6202631686
 31
0.0
  0
LINE
  5
50
  8
0
  6
CONTINUOUS
 62
     7
 10
105.0372004472
 20
142.8202632377
 30
0.0
 11
105.0372004472
 21
137.220262506
 31
0.0
  0
LINE
  5
51
  8
0
  6
CONTINUOUS
 62
     7
 10
110.5303123557
 20
137.220262506
 30
0.0
 11
110.5303123557
 21
142.8202632377
 31
0.0
  0
LINE
  5
52
  8
0
  6
CONTINUOUS
 62
     7
 10
105.8020826393
 20
137.220262506
 30
0.0
 11
105.8020826393
 21
142.8202632377
 31
0.0
  0
LINE
  5
53
  8
0
  6
CONTINUOUS
 62
     7
 10
109.7654301637
 20
142.8202632377
 30
0.0
 11
109.7654301637
 21
137.220262506
 31
0.0
  0
LINE
  5
54
  8
0
  6
CONTINUOUS
 62
     7
 10
104.6837560796
 20
142.8202632377
 30
0.0
 11
104.6837560796
 21
137.220262506
 31
0.0
  0
LINE
  5
55
  8
0
  6
CONTINUOUS
 62
     7
 10
110.8837567233
 20
137.220262506
 30
0.0
 11
110.8837567233
 21
142.8202632377
 31
0.0
  0
LINE
  5
56
  8
0
  6
CONTINUOUS
 62
     7
 10
125.1791559123
 20
149.4103706935
 30
0.0
 11
126.1791560762
 21
149.4103706935
 31
0.0
  0
LINE
  5
57
  8
0
  6
CONTINUOUS
 62
     7
 10
131.1791559645
 20
154.7103707706
 30
0.0
 11
126.1791560762
 21
154.7103707706
 31
0.0
  0
LINE
  5
58
  8
0
  6
CONTINUOUS
 62
     7
 10
126.1791560762
 20
149.7103706496
 30
0.0
 11
131.1791559645
 21
149.7103706496
 31
0.0
  0
ARC
  5
59
  8
0
  6
CONTINUOUS
 62
     7
 10
131.1791560441
 20
152.2103707395
 30
0.0
 40
2.5
 50
270.0
 51
0.0
  0
ARC
  5
5A
  8
0
  6
CONTINUOUS
 62
     7
 10
131.1791560441
 20
152.2103707395
 30
0.0
 40
2.5
 50
0.0
 51
90.0
  0
LINE
  5
5B
  8
0
  6
CONTINUOUS
 62
     7
 10
125.1791559123
 20
153.880370737
 30
0.0
 11
123.1791560502
 21
153.880370737
 31
0.0
  0
LINE
  5
5C
  8
0
  6
CONTINUOUS
 62
     7
 10
123.1791560502
 20
153.0803707281
 30
0.0
 11
125.1791559123
 21
153.0803707281
 31
0.0
  0
LINE
  5
5D
  8
0
  6
CONTINUOUS
 62
     7
 10
125.1791559123
 20
151.3403707212
 30
0.0
 11
123.1791560502
 21
151.3403707212
 31
0.0
  0
LINE
  5
5E
  8
0
  6
CONTINUOUS
 62
     7
 10
123.1791560502
 20
150.5403706832
 30
0.0
 11
125.1791559123
 21
150.5403706832
 31
0.0
  0
LINE
  5
5F
  8
0
  6
CONTINUOUS
 62
     7
 10
123.1791560502
 20
151.3403707212
 30
0.0
 11
121.179156188
 21
151.3403707212
 31
0.0
  0
LINE
  5
60
  8
0
  6
CONTINUOUS
 62
     7
 10
121.179156188
 20
150.5403706832
 30
0.0
 11
123.1791560502
 21
150.5403706832
 31
0.0
  0
LINE
  5
61
  8
0
  6
CONTINUOUS
 62
     7
 10
123.1791560502
 20
153.880370737
 30
0.0
 11
121.179156188
 21
153.880370737
 31
0.0
  0
LINE
  5
62
  8
0
  6
CONTINUOUS
 62
     7
 10
121.179156188
 20
153.0803707281
 30
0.0
 11
123.1791560502
 21
153.0803707281
 31
0.0
  0
LINE
  5
63
  8
0
  6
CONTINUOUS
 62
     7
 10
124.7517431118
 20
137.8710967982
 30
0.0
 11
130.751743164
 21
137.8710967982
 31
0.0
  0
LINE
  5
64
  8
0
  6
CONTINUOUS
 62
     7
 10
130.751743164
 20
142.5710971961
 30
0.0
 11
124.7517431118
 21
142.5710971961
 31
0.0
  0
LINE
  5
65
  8
0
  6
CONTINUOUS
 62
     7
 10
130.751743164
 20
139.0210967073
 30
0.0
 11
134.6517430582
 21
139.0210967073
 31
0.0
  0
LINE
  5
66
  8
0
  6
CONTINUOUS
 62
     7
 10
134.6517430582
 20
141.421097287
 30
0.0
 11
130.751743164
 21
141.421097287
 31
0.0
  0
ARC
  5
67
  8
0
  6
CONTINUOUS
 62
     7
 10
134.6517433128
 20
140.3210969036
 30
0.0
 40
1.099999999999994
 50
0.0
 51
90.0
  0
ARC
  5
68
  8
0
  6
CONTINUOUS
 62
     7
 10
134.6517433128
 20
140.1210969036
 30
0.0
 40
1.099999999999994
 50
270.0
 51
0.0
  0
LINE
  5
69
  8
0
  6
CONTINUOUS
 62
     7
 10
105.8020826393
 20
158.0202630283
 30
0.0
 11
109.7654301637
 21
158.0202630283
 31
0.0
  0
LINE
  5
6A
  8
0
  6
CONTINUOUS
 62
     7
 10
109.7654301637
 20
138.2202636013
 30
0.0
 11
105.8020826393
 21
138.2202636013
 31
0.0
  0
LINE
  5
6B
  8
0
  6
CONTINUOUS
 62
     7
 10
105.1837561616
 20
152.8202631306
 30
0.0
 11
110.3837566414
 21
152.8202631306
 31
0.0
  0
LINE
  5
6C
  8
0
  6
CONTINUOUS
 62
     7
 10
105.1837561616
 20
143.4202631498
 30
0.0
 11
110.3837566414
 21
143.4202631498
 31
0.0
  0
LINE
  5
6D
  8
0
  6
CONTINUOUS
 62
     7
 10
105.2719142251
 20
159.2202633181
 30
0.0
 11
105.2719142251
 21
153.6202631686
 31
0.0
  0
LINE
  5
6E
  8
0
  6
CONTINUOUS
 62
     7
 10
105.2719142251
 20
159.2202633181
 30
0.0
 11
105.5231040307
 21
159.2202633181
 31
0.0
  0
LINE
  5
6F
  8
0
  6
CONTINUOUS
 62
     7
 10
105.5231040307
 20
159.2202633181
 30
0.0
 11
105.5231040307
 21
153.6202631686
 31
0.0
  0
LINE
  5
70
  8
0
  6
CONTINUOUS
 62
     7
 10
105.2719142251
 20
153.6202631686
 30
0.0
 11
105.5231040307
 21
153.6202631686
 31
0.0
  0
LINE
  5
71
  8
0
  6
CONTINUOUS
 62
     7
 10
110.0444092379
 20
159.2202633181
 30
0.0
 11
110.0444092379
 21
153.6202631686
 31
0.0
  0
LINE
  5
72
  8
0
  6
CONTINUOUS
 62
     7
 10
110.2955990434
 20
159.2202633181
 30
0.0
 11
110.2955990434
 21
153.6202631686
 31
0.0
  0
LINE
  5
73
  8
0
  6
CONTINUOUS
 62
     7
 10
110.0444092379
 20
153.6202631686
 30
0.0
 11
110.2955990434
 21
153.6202631686
 31
0.0
  0
LINE
  5
74
  8
0
  6
CONTINUOUS
 62
     7
 10
110.0444092379
 20
159.2202633181
 30
0.0
 11
110.2955990434
 21
159.2202633181
 31
0.0
  0
LINE
  5
75
  8
0
  6
CONTINUOUS
 62
     7
 10
105.1766129174
 20
159.2202633181
 30
0.0
 11
105.1766129174
 21
153.6202631686
 31
0.0
  0
LINE
  5
76
  8
0
  6
CONTINUOUS
 62
     7
 10
105.1766129174
 20
159.2202633181
 30
0.0
 11
105.2719142251
 21
159.2202633181
 31
0.0
  0
LINE
  5
77
  8
0
  6
CONTINUOUS
 62
     7
 10
105.1766129174
 20
153.6202631686
 30
0.0
 11
105.2719142251
 21
153.6202631686
 31
0.0
  0
LINE
  5
78
  8
0
  6
CONTINUOUS
 62
     7
 10
110.3908998855
 20
159.2202633181
 30
0.0
 11
110.3908998855
 21
153.6202631686
 31
0.0
  0
LINE
  5
79
  8
0
  6
CONTINUOUS
 62
     7
 10
110.2955990434
 20
153.6202631686
 30
0.0
 11
110.3908998855
 21
153.6202631686
 31
0.0
  0
LINE
  5
7A
  8
0
  6
CONTINUOUS
 62
     7
 10
110.2955990434
 20
159.2202633181
 30
0.0
 11
110.3908998855
 21
159.2202633181
 31
0.0
  0
LINE
  5
7B
  8
0
  6
CONTINUOUS
 62
     7
 10
110.3908998855
 20
153.6202631686
 30
0.0
 11
110.5303123557
 21
153.6202631686
 31
0.0
  0
LINE
  5
7C
  8
0
  6
CONTINUOUS
 62
     7
 10
110.3908998855
 20
159.2202633181
 30
0.0
 11
110.5303123557
 21
159.2202633181
 31
0.0
  0
LINE
  5
7D
  8
0
  6
CONTINUOUS
 62
     7
 10
105.0372004472
 20
159.2202633181
 30
0.0
 11
105.1766129174
 21
159.2202633181
 31
0.0
  0
LINE
  5
7E
  8
0
  6
CONTINUOUS
 62
     7
 10
105.0372004472
 20
153.6202631686
 30
0.0
 11
105.1766129174
 21
153.6202631686
 31
0.0
  0
LINE
  5
7F
  8
0
  6
CONTINUOUS
 62
     7
 10
109.79832308
 20
159.2202633181
 30
0.0
 11
109.79832308
 21
153.6202631686
 31
0.0
  0
LINE
  5
80
  8
0
  6
CONTINUOUS
 62
     7
 10
109.79832308
 20
153.6202631686
 30
0.0
 11
110.0444092379
 21
153.6202631686
 31
0.0
  0
LINE
  5
81
  8
0
  6
CONTINUOUS
 62
     7
 10
109.79832308
 20
159.2202633181
 30
0.0
 11
110.0444092379
 21
159.2202633181
 31
0.0
  0
LINE
  5
82
  8
0
  6
CONTINUOUS
 62
     7
 10
105.7691901886
 20
159.2202633181
 30
0.0
 11
105.7691901886
 21
153.6202631686
 31
0.0
  0
LINE
  5
83
  8
0
  6
CONTINUOUS
 62
     7
 10
105.5231040307
 20
159.2202633181
 30
0.0
 11
105.7691901886
 21
159.2202633181
 31
0.0
  0
LINE
  5
84
  8
0
  6
CONTINUOUS
 62
     7
 10
105.5231040307
 20
153.6202631686
 30
0.0
 11
105.7691901886
 21
153.6202631686
 31
0.0
  0
LINE
  5
85
  8
0
  6
CONTINUOUS
 62
     7
 10
109.7654301637
 20
153.6202631686
 30
0.0
 11
109.79832308
 21
153.6202631686
 31
0.0
  0
LINE
  5
86
  8
0
  6
CONTINUOUS
 62
     7
 10
109.7654301637
 20
159.2202633181
 30
0.0
 11
109.79832308
 21
159.2202633181
 31
0.0
  0
LINE
  5
87
  8
0
  6
CONTINUOUS
 62
     7
 10
105.7691901886
 20
159.2202633181
 30
0.0
 11
105.8020826393
 21
159.2202633181
 31
0.0
  0
LINE
  5
88
  8
0
  6
CONTINUOUS
 62
     7
 10
105.7691901886
 20
153.6202631686
 30
0.0
 11
105.8020826393
 21
153.6202631686
 31
0.0
  0
LINE
  5
89
  8
0
  6
CONTINUOUS
 62
     7
 10
110.5303123557
 20
153.6202631686
 30
0.0
 11
110.8837567233
 21
153.6202631686
 31
0.0
  0
LINE
  5
8A
  8
0
  6
CONTINUOUS
 62
     7
 10
110.5303123557
 20
159.2202633181
 30
0.0
 11
110.8837567233
 21
159.2202633181
 31
0.0
  0
LINE
  5
8B
  8
0
  6
CONTINUOUS
 62
     7
 10
104.6837560796
 20
159.2202633181
 30
0.0
 11
105.0372004472
 21
159.2202633181
 31
0.0
  0
LINE
  5
8C
  8
0
  6
CONTINUOUS
 62
     7
 10
104.6837560796
 20
153.6202631686
 30
0.0
 11
105.0372004472
 21
153.6202631686
 31
0.0
  0
LINE
  5
8D
  8
0
  6
CONTINUOUS
 62
     7
 10
109.715565756
 20
159.2202633181
 30
0.0
 11
109.7654301637
 21
159.2202633181
 31
0.0
  0
LINE
  5
8E
  8
0
  6
CONTINUOUS
 62
     7
 10
105.8020826393
 20
159.2202633181
 30
0.0
 11
105.8519475125
 21
159.2202633181
 31
0.0
  0
LINE
  5
8F
  8
0
  6
CONTINUOUS
 62
     7
 10
105.8519475125
 20
159.2202633181
 30
0.0
 11
105.8851668575
 21
159.2202633181
 31
0.0
  0
LINE
  5
90
  8
0
  6
CONTINUOUS
 62
     7
 10
109.6851669215
 20
159.2202633181
 30
0.0
 11
109.715565756
 21
159.2202633181
 31
0.0
  0
LINE
  5
91
  8
0
  6
CONTINUOUS
 62
     7
 10
106.0481687971
 20
159.7202629344
 30
0.0
 11
109.5193444715
 21
159.7202629344
 31
0.0
  0
LINE
  5
92
  8
0
  6
CONTINUOUS
 62
     7
 10
109.5193444715
 20
159.7202629344
 30
0.0
 11
109.5193444715
 21
159.3202631483
 31
0.0
  0
LINE
  5
93
  8
0
  6
CONTINUOUS
 62
     7
 10
109.5193444715
 20
159.3202631483
 30
0.0
 11
106.0481687971
 21
159.3202631483
 31
0.0
  0
LINE
  5
94
  8
0
  6
CONTINUOUS
 62
     7
 10
106.0481687971
 20
159.3202631483
 30
0.0
 11
106.0481687971
 21
159.7202629344
 31
0.0
  0
LINE
  5
95
  8
0
  6
CONTINUOUS
 62
     7
 10
109.5193444715
 20
159.3202631483
 30
0.0
 11
109.5193444715
 21
159.2202633181
 31
0.0
  0
LINE
  5
96
  8
0
  6
CONTINUOUS
 62
     7
 10
106.0481687971
 20
159.3202631483
 30
0.0
 11
106.0481687971
 21
159.2202633181
 31
0.0
  0
LINE
  5
97
  8
0
  6
CONTINUOUS
 62
     7
 10
105.5231040307
 20
137.220262506
 30
0.0
 11
105.5231040307
 21
142.8202632377
 31
0.0
  0
LINE
  5
98
  8
0
  6
CONTINUOUS
 62
     7
 10
105.5231040307
 20
137.220262506
 30
0.0
 11
105.2719142251
 21
137.220262506
 31
0.0
  0
LINE
  5
99
  8
0
  6
CONTINUOUS
 62
     7
 10
105.2719142251
 20
137.220262506
 30
0.0
 11
105.2719142251
 21
142.8202632377
 31
0.0
  0
LINE
  5
9A
  8
0
  6
CONTINUOUS
 62
     7
 10
105.5231040307
 20
142.8202632377
 30
0.0
 11
105.2719142251
 21
142.8202632377
 31
0.0
  0
LINE
  5
9B
  8
0
  6
CONTINUOUS
 62
     7
 10
110.2955990434
 20
137.220262506
 30
0.0
 11
110.2955990434
 21
142.8202632377
 31
0.0
  0
LINE
  5
9C
  8
0
  6
CONTINUOUS
 62
     7
 10
110.0444092379
 20
137.220262506
 30
0.0
 11
110.0444092379
 21
142.8202632377
 31
0.0
  0
LINE
  5
9D
  8
0
  6
CONTINUOUS
 62
     7
 10
110.2955990434
 20
137.220262506
 30
0.0
 11
110.0444092379
 21
137.220262506
 31
0.0
  0
LINE
  5
9E
  8
0
  6
CONTINUOUS
 62
     7
 10
110.2955990434
 20
142.8202632377
 30
0.0
 11
110.0444092379
 21
142.8202632377
 31
0.0
  0
LINE
  5
9F
  8
0
  6
CONTINUOUS
 62
     7
 10
110.3908998855
 20
137.220262506
 30
0.0
 11
110.3908998855
 21
142.8202632377
 31
0.0
  0
LINE
  5
A0
  8
0
  6
CONTINUOUS
 62
     7
 10
110.3908998855
 20
137.220262506
 30
0.0
 11
110.2955990434
 21
137.220262506
 31
0.0
  0
LINE
  5
A1
  8
0
  6
CONTINUOUS
 62
     7
 10
110.3908998855
 20
142.8202632377
 30
0.0
 11
110.2955990434
 21
142.8202632377
 31
0.0
  0
LINE
  5
A2
  8
0
  6
CONTINUOUS
 62
     7
 10
105.1766129174
 20
137.220262506
 30
0.0
 11
105.1766129174
 21
142.8202632377
 31
0.0
  0
LINE
  5
A3
  8
0
  6
CONTINUOUS
 62
     7
 10
105.2719142251
 20
142.8202632377
 30
0.0
 11
105.1766129174
 21
142.8202632377
 31
0.0
  0
LINE
  5
A4
  8
0
  6
CONTINUOUS
 62
     7
 10
105.2719142251
 20
137.220262506
 30
0.0
 11
105.1766129174
 21
137.220262506
 31
0.0
  0
LINE
  5
A5
  8
0
  6
CONTINUOUS
 62
     7
 10
105.1766129174
 20
142.8202632377
 30
0.0
 11
105.0372004472
 21
142.8202632377
 31
0.0
  0
LINE
  5
A6
  8
0
  6
CONTINUOUS
 62
     7
 10
105.1766129174
 20
137.220262506
 30
0.0
 11
105.0372004472
 21
137.220262506
 31
0.0
  0
LINE
  5
A7
  8
0
  6
CONTINUOUS
 62
     7
 10
110.5303123557
 20
137.220262506
 30
0.0
 11
110.3908998855
 21
137.220262506
 31
0.0
  0
LINE
  5
A8
  8
0
  6
CONTINUOUS
 62
     7
 10
110.5303123557
 20
142.8202632377
 30
0.0
 11
110.3908998855
 21
142.8202632377
 31
0.0
  0
LINE
  5
A9
  8
0
  6
CONTINUOUS
 62
     7
 10
109.79832308
 20
137.220262506
 30
0.0
 11
109.79832308
 21
142.8202632377
 31
0.0
  0
LINE
  5
AA
  8
0
  6
CONTINUOUS
 62
     7
 10
110.0444092379
 20
137.220262506
 30
0.0
 11
109.79832308
 21
137.220262506
 31
0.0
  0
LINE
  5
AB
  8
0
  6
CONTINUOUS
 62
     7
 10
110.0444092379
 20
142.8202632377
 30
0.0
 11
109.79832308
 21
142.8202632377
 31
0.0
  0
LINE
  5
AC
  8
0
  6
CONTINUOUS
 62
     7
 10
105.7691901886
 20
137.220262506
 30
0.0
 11
105.7691901886
 21
142.8202632377
 31
0.0
  0
LINE
  5
AD
  8
0
  6
CONTINUOUS
 62
     7
 10
105.7691901886
 20
142.8202632377
 30
0.0
 11
105.5231040307
 21
142.8202632377
 31
0.0
  0
LINE
  5
AE
  8
0
  6
CONTINUOUS
 62
     7
 10
105.7691901886
 20
137.220262506
 30
0.0
 11
105.5231040307
 21
137.220262506
 31
0.0
  0
LINE
  5
AF
  8
0
  6
CONTINUOUS
 62
     7
 10
105.8020826393
 20
142.8202632377
 30
0.0
 11
105.7691901886
 21
142.8202632377
 31
0.0
  0
LINE
  5
B0
  8
0
  6
CONTINUOUS
 62
     7
 10
105.8020826393
 20
137.220262506
 30
0.0
 11
105.7691901886
 21
137.220262506
 31
0.0
  0
LINE
  5
B1
  8
0
  6
CONTINUOUS
 62
     7
 10
109.79832308
 20
137.220262506
 30
0.0
 11
109.7654301637
 21
137.220262506
 31
0.0
  0
LINE
  5
B2
  8
0
  6
CONTINUOUS
 62
     7
 10
109.79832308
 20
142.8202632377
 30
0.0
 11
109.7654301637
 21
142.8202632377
 31
0.0
  0
LINE
  5
B3
  8
0
  6
CONTINUOUS
 62
     7
 10
105.0372004472
 20
142.8202632377
 30
0.0
 11
104.6837560796
 21
142.8202632377
 31
0.0
  0
LINE
  5
B4
  8
0
  6
CONTINUOUS
 62
     7
 10
105.0372004472
 20
137.220262506
 30
0.0
 11
104.6837560796
 21
137.220262506
 31
0.0
  0
LINE
  5
B5
  8
0
  6
CONTINUOUS
 62
     7
 10
110.8837567233
 20
137.220262506
 30
0.0
 11
110.5303123557
 21
137.220262506
 31
0.0
  0
LINE
  5
B6
  8
0
  6
CONTINUOUS
 62
     7
 10
110.8837567233
 20
142.8202632377
 30
0.0
 11
110.5303123557
 21
142.8202632377
 31
0.0
  0
LINE
  5
B7
  8
0
  6
CONTINUOUS
 62
     7
 10
109.7654301637
 20
137.220262506
 30
0.0
 11
109.715565756
 21
137.220262506
 31
0.0
  0
LINE
  5
B8
  8
0
  6
CONTINUOUS
 62
     7
 10
105.8519475125
 20
137.220262506
 30
0.0
 11
105.8020826393
 21
137.220262506
 31
0.0
  0
LINE
  5
B9
  8
0
  6
CONTINUOUS
 62
     7
 10
105.8851668575
 20
137.220262506
 30
0.0
 11
105.8519475125
 21
137.220262506
 31
0.0
  0
LINE
  5
BA
  8
0
  6
CONTINUOUS
 62
     7
 10
109.715565756
 20
137.220262506
 30
0.0
 11
109.6851669215
 21
137.220262506
 31
0.0
  0
LINE
  5
BB
  8
0
  6
CONTINUOUS
 62
     7
 10
109.5193444715
 20
136.7202633554
 30
0.0
 11
106.0481687971
 21
136.7202633554
 31
0.0
  0
LINE
  5
BC
  8
0
  6
CONTINUOUS
 62
     7
 10
106.0481687971
 20
137.1202626759
 30
0.0
 11
109.5193444715
 21
137.1202626759
 31
0.0
  0
LINE
  5
BD
  8
0
  6
CONTINUOUS
 62
     7
 10
109.5193444715
 20
137.1202626759
 30
0.0
 11
109.5193444715
 21
136.7202633554
 31
0.0
  0
LINE
  5
BE
  8
0
  6
CONTINUOUS
 62
     7
 10
106.0481687971
 20
136.7202633554
 30
0.0
 11
106.0481687971
 21
137.1202626759
 31
0.0
  0
LINE
  5
BF
  8
0
  6
CONTINUOUS
 62
     7
 10
109.5193444715
 20
137.1202626759
 30
0.0
 11
109.5193444715
 21
137.220262506
 31
0.0
  0
LINE
  5
C0
  8
0
  6
CONTINUOUS
 62
     7
 10
106.0481687971
 20
137.1202626759
 30
0.0
 11
106.0481687971
 21
137.220262506
 31
0.0
  0
LINE
  5
C1
  8
0
  6
CONTINUOUS
 62
     7
 10
108.9634794705
 20
137.220262506
 30
0.0
 11
108.9634794705
 21
138.2202636013
 31
0.0
  0
LINE
  5
C2
  8
0
  6
CONTINUOUS
 62
     7
 10
108.9634794705
 20
137.220262506
 30
0.0
 11
106.6068552398
 21
137.220262506
 31
0.0
  0
LINE
  5
C3
  8
0
  6
CONTINUOUS
 62
     7
 10
106.6068552398
 20
138.2202636013
 30
0.0
 11
106.6068552398
 21
137.220262506
 31
0.0
  0
LINE
  5
C4
  8
0
  6
CONTINUOUS
 62
     7
 10
105.8851668575
 20
137.220262506
 30
0.0
 11
105.8851668575
 21
138.2202636013
 31
0.0
  0
LINE
  5
C5
  8
0
  6
CONTINUOUS
 62
     7
 10
106.6068552398
 20
137.220262506
 30
0.0
 11
105.8851668575
 21
137.220262506
 31
0.0
  0
LINE
  5
C6
  8
0
  6
CONTINUOUS
 62
     7
 10
109.6851669215
 20
159.2202633181
 30
0.0
 11
109.6851669215
 21
158.0202630283
 31
0.0
  0
LINE
  5
C7
  8
0
  6
CONTINUOUS
 62
     7
 10
108.9634794705
 20
158.0202630283
 30
0.0
 11
108.9634794705
 21
159.2202633181
 31
0.0
  0
LINE
  5
C8
  8
0
  6
CONTINUOUS
 62
     7
 10
108.9634794705
 20
159.2202633181
 30
0.0
 11
109.6851669215
 21
159.2202633181
 31
0.0
  0
LINE
  5
C9
  8
0
  6
CONTINUOUS
 62
     7
 10
109.6851669215
 20
138.2202636013
 30
0.0
 11
109.6851669215
 21
137.220262506
 31
0.0
  0
LINE
  5
CA
  8
0
  6
CONTINUOUS
 62
     7
 10
109.6851669215
 20
137.220262506
 30
0.0
 11
108.9634794705
 21
137.220262506
 31
0.0
  0
LINE
  5
CB
  8
0
  6
CONTINUOUS
 62
     7
 10
105.8851668575
 20
158.0202630283
 30
0.0
 11
105.8851668575
 21
159.2202633181
 31
0.0
  0
LINE
  5
CC
  8
0
  6
CONTINUOUS
 62
     7
 10
106.6068552398
 20
159.2202633181
 30
0.0
 11
106.6068552398
 21
158.0202630283
 31
0.0
  0
LINE
  5
CD
  8
0
  6
CONTINUOUS
 62
     7
 10
105.8851668575
 20
159.2202633181
 30
0.0
 11
106.6068552398
 21
159.2202633181
 31
0.0
  0
LINE
  5
CE
  8
0
  6
CONTINUOUS
 62
     7
 10
108.9634794705
 20
159.2202633181
 30
0.0
 11
106.6068552398
 21
159.2202633181
 31
0.0
  0
LINE
  5
CF
  8
0
  6
CONTINUOUS
 62
     7
 10
104.6837560796
 20
137.220262506
 30
0.0
 11
103.4851672091
 21
137.220262506
 31
0.0
  0
LINE
  5
D0
  8
0
  6
CONTINUOUS
 62
     7
 10
103.4851672091
 20
137.220262506
 30
0.0
 11
103.4851672091
 21
159.2202633181
 31
0.0
  0
LINE
  5
D1
  8
0
  6
CONTINUOUS
 62
     7
 10
104.6837560796
 20
159.2202633181
 30
0.0
 11
103.4851672091
 21
159.2202633181
 31
0.0
  0
LINE
  5
D2
  8
0
  6
CONTINUOUS
 62
     7
 10
104.1851669513
 20
152.020263209
 30
0.0
 11
104.1851669513
 21
144.4202633137
 31
0.0
  0
LINE
  5
D3
  8
0
  6
CONTINUOUS
 62
     7
 10
104.1851669513
 20
144.4202633137
 30
0.0
 11
105.283756923
 21
144.4202633137
 31
0.0
  0
LINE
  5
D4
  8
0
  6
CONTINUOUS
 62
     7
 10
105.283756923
 20
152.020263209
 30
0.0
 11
104.1851669513
 21
152.020263209
 31
0.0
  0
LINE
  5
D5
  8
0
  6
CONTINUOUS
 62
     7
 10
111.3851672933
 20
144.4202633137
 30
0.0
 11
111.3851672933
 21
152.020263209
 31
0.0
  0
LINE
  5
D6
  8
0
  6
CONTINUOUS
 62
     7
 10
112.0851670355
 20
159.2202633181
 30
0.0
 11
110.8837567233
 21
159.2202633181
 31
0.0
  0
LINE
  5
D7
  8
0
  6
CONTINUOUS
 62
     7
 10
112.0851670355
 20
137.220262506
 30
0.0
 11
112.0851670355
 21
159.2202633181
 31
0.0
  0
LINE
  5
D8
  8
0
  6
CONTINUOUS
 62
     7
 10
112.0851670355
 20
137.220262506
 30
0.0
 11
110.8837567233
 21
137.220262506
 31
0.0
  0
LINE
  5
D9
  8
0
  6
CONTINUOUS
 62
     7
 10
110.2837563456
 20
144.4202633137
 30
0.0
 11
111.3851672933
 21
144.4202633137
 31
0.0
  0
LINE
  5
DA
  8
0
  6
CONTINUOUS
 62
     7
 10
111.3851672933
 20
152.020263209
 30
0.0
 11
110.2837563456
 21
152.020263209
 31
0.0
  0
LINE
  5
DB
  8
0
  6
CONTINUOUS
 62
     7
 10
126.1791560762
 20
154.7103707706
 30
0.0
 11
125.1791559123
 21
154.7103707706
 31
0.0
  0
LINE
  5
DC
  8
0
  6
CONTINUOUS
 62
     7
 10
125.1791559123
 20
149.4103706935
 30
0.0
 11
125.1791559123
 21
154.7103707706
 31
0.0
  0
LINE
  5
DD
  8
0
  6
CONTINUOUS
 62
     7
 10
126.1791560762
 20
149.4103706935
 30
0.0
 11
126.1791560762
 21
154.7103707706
 31
0.0
  0
ARC
  5
DE
  8
0
  6
CONTINUOUS
 62
     7
 10
121.1791560441
 20
150.9403707395
 30
0.0
 40
0.4000000000000057
 50
90.0
 51
270.0
  0
ARC
  5
DF
  8
0
  6
CONTINUOUS
 62
     7
 10
121.1791560441
 20
153.4803707395
 30
0.0
 40
0.4000000000000057
 50
90.0
 51
270.0
  0
LINE
  5
E0
  8
0
  6
CONTINUOUS
 62
     7
 10
111.6305004769
 20
161.7267140681
 30
0.0
 11
111.6305004769
 21
170.7267136806
 31
0.0
  0
LINE
  5
E1
  8
0
  6
CONTINUOUS
 62
     7
 10
111.6305004769
 20
170.7267136806
 30
0.0
 11
120.8805005961
 21
170.7267136806
 31
0.0
  0
LINE
  5
E2
  8
0
  6
CONTINUOUS
 62
     7
 10
111.6305004769
 20
161.7267140681
 30
0.0
 11
120.8805005961
 21
161.7267140681
 31
0.0
  0
LINE
  5
E3
  8
0
  6
CONTINUOUS
 62
     7
 10
123.5805006661
 20
170.7267136806
 30
0.0
 11
123.5805006661
 21
161.7267140681
 31
0.0
  0
LINE
  5
E4
  8
0
  6
CONTINUOUS
 62
     7
 10
123.5805006661
 20
170.7267136806
 30
0.0
 11
120.8805005961
 21
170.7267136806
 31
0.0
  0
LINE
  5
E5
  8
0
  6
CONTINUOUS
 62
     7
 10
120.8805005961
 20
166.2267138744
 30
0.0
 11
120.8805005961
 21
161.7267140681
 31
0.0
  0
LINE
  5
E6
  8
0
  6
CONTINUOUS
 62
     7
 10
120.8805005961
 20
170.7267136806
 30
0.0
 11
120.8805005961
 21
166.2267138744
 31
0.0
  0
LINE
  5
E7
  8
0
  6
CONTINUOUS
 62
     7
 10
123.5805006661
 20
161.7267140681
 30
0.0
 11
120.8805005961
 21
161.7267140681
 31
0.0
  0
LINE
  5
E8
  8
0
  6
CONTINUOUS
 62
     7
 10
109.8805006557
 20
161.7367183352
 30
0.0
 11
111.6305004769
 21
161.7367183352
 31
0.0
  0
LINE
  5
E9
  8
0
  6
CONTINUOUS
 62
     7
 10
109.8805006557
 20
170.7167150015
 30
0.0
 11
111.6305004769
 21
170.7167150015
 31
0.0
  0
LINE
  5
EA
  8
0
  6
CONTINUOUS
 62
     7
 10
109.8805006557
 20
161.7367183352
 30
0.0
 11
109.8805006557
 21
170.7167150015
 31
0.0
  0
LINE
  5
EB
  8
0
  6
CONTINUOUS
 62
     7
 10
109.4805008695
 20
163.7267143959
 30
0.0
 11
109.8805006557
 21
163.7267143959
 31
0.0
  0
LINE
  5
EC
  8
0
  6
CONTINUOUS
 62
     7
 10
109.4805008695
 20
164.7267145598
 30
0.0
 11
109.8805006557
 21
164.7267145598
 31
0.0
  0
LINE
  5
ED
  8
0
  6
CONTINUOUS
 62
     7
 10
109.4805008695
 20
163.7267143959
 30
0.0
 11
109.4805008695
 21
164.7267145598
 31
0.0
  0
LINE
  5
EE
  8
0
  6
CONTINUOUS
 62
     7
 10
109.4805008695
 20
167.7267141202
 30
0.0
 11
109.8805006557
 21
167.7267141202
 31
0.0
  0
LINE
  5
EF
  8
0
  6
CONTINUOUS
 62
     7
 10
109.4805008695
 20
164.7267145598
 30
0.0
 11
109.4805008695
 21
167.7267141202
 31
0.0
  0
LINE
  5
F0
  8
0
  6
CONTINUOUS
 62
     7
 10
109.4805008695
 20
168.7267142841
 30
0.0
 11
109.8805006557
 21
168.7267142841
 31
0.0
  0
LINE
  5
F1
  8
0
  6
CONTINUOUS
 62
     7
 10
109.4805008695
 20
167.7267141202
 30
0.0
 11
109.4805008695
 21
168.7267142841
 31
0.0
  0
LINE
  5
F2
  8
0
  6
CONTINUOUS
 62
     7
 10
109.8805006557
 20
161.7367108846
 30
0.0
 11
111.6305004769
 21
161.7367108846
 31
0.0
  0
LINE
  5
F3
  8
0
  6
CONTINUOUS
 62
     7
 10
113.8805006129
 20
171.4267143542
 30
0.0
 11
113.8805006129
 21
170.7267136806
 31
0.0
  0
LINE
  5
F4
  8
0
  6
CONTINUOUS
 62
     7
 10
111.8805005179
 20
171.4267143542
 30
0.0
 11
111.8805005179
 21
170.7267136806
 31
0.0
  0
LINE
  5
F5
  8
0
  6
CONTINUOUS
 62
     7
 10
111.8805005179
 20
171.4267143542
 30
0.0
 11
113.8805006129
 21
171.4267143542
 31
0.0
  0
LINE
  5
F6
  8
0
  6
CONTINUOUS
 62
     7
 10
118.830500586
 20
161.0412573935
 30
0.0
 11
118.830500586
 21
161.7267140681
 31
0.0
  0
LINE
  5
F7
  8
0
  6
CONTINUOUS
 62
     7
 10
121.080500722
 20
161.0412573935
 30
0.0
 11
121.080500722
 21
161.7267140681
 31
0.0
  0
LINE
  5
F8
  8
0
  6
CONTINUOUS
 62
     7
 10
121.080500722
 20
161.0412573935
 30
0.0
 11
118.830500586
 21
161.0412573935
 31
0.0
  0
LINE
  5
F9
  8
0
  6
CONTINUOUS
 62
     7
 10
120.1517434754
 20
138.221097135
 30
0.0
 11
120.1517434754
 21
142.2210968593
 31
0.0
  0
LINE
  5
FA
  8
0
  6
CONTINUOUS
 62
     7
 10
120.1517434754
 20
142.2210968593
 30
0.0
 11
118.9517434184
 21
142.2210968593
 31
0.0
  0
LINE
  5
FB
  8
0
  6
CONTINUOUS
 62
     7
 10
118.9517434184
 20
138.221097135
 30
0.0
 11
120.1517434754
 21
138.221097135
 31
0.0
  0
LINE
  5
FC
  8
0
  6
CONTINUOUS
 62
     7
 10
117.9517433709
 20
138.3810964906
 30
0.0
 11
119.0517432485
 21
137.2810964966
 31
0.0
  0
LINE
  5
FD
  8
0
  6
CONTINUOUS
 62
     7
 10
119.0517432485
 20
143.1610965663
 30
0.0
 11
117.9517433709
 21
142.0610965723
 31
0.0
  0
LINE
  5
FE
  8
0
  6
CONTINUOUS
 62
     7
 10
124.7517431118
 20
143.1610965663
 30
0.0
 11
124.7517431118
 21
137.2810964966
 31
0.0
  0
LINE
  5
FF
  8
0
  6
CONTINUOUS
 62
     7
 10
119.0517432485
 20
137.2810964966
 30
0.0
 11
124.7517431118
 21
137.2810964966
 31
0.0
  0
LINE
  5
100
  8
0
  6
CONTINUOUS
 62
     7
 10
119.0517432485
 20
143.1610965663
 30
0.0
 11
124.7517431118
 21
143.1610965663
 31
0.0
  0
LINE
  5
101
  8
0
  6
CONTINUOUS
 62
     7
 10
117.9517433709
 20
142.0610965723
 30
0.0
 11
117.9517433709
 21
138.3810964906
 31
0.0
  0
LINE
  5
102
  8
0
  6
CONTINUOUS
 62
     7
 10
118.9517434184
 20
142.2210968593
 30
0.0
 11
118.9517434184
 21
138.221097135
 31
0.0
  0
LINE
  5
103
  8
0
  6
CONTINUOUS
 62
     7
 10
124.2517430299
 20
136.2210968071
 30
0.0
 11
124.2517430299
 21
137.2810964966
 31
0.0
  0
LINE
  5
104
  8
0
  6
CONTINUOUS
 62
     7
 10
116.251743312
 20
136.2210968071
 30
0.0
 11
124.2517430299
 21
136.2210968071
 31
0.0
  0
LINE
  5
105
  8
0
  6
CONTINUOUS
 62
     7
 10
116.251743312
 20
137.2210969711
 30
0.0
 11
116.251743312
 21
136.2210968071
 31
0.0
  0
LINE
  5
106
  8
0
  6
CONTINUOUS
 62
     7
 10
117.451743289
 20
137.2210969711
 30
0.0
 11
116.251743312
 21
137.2210969711
 31
0.0
  0
LINE
  5
107
  8
0
  6
CONTINUOUS
 62
     7
 10
117.451743289
 20
143.2210970232
 30
0.0
 11
117.451743289
 21
137.2210969711
 31
0.0
  0
LINE
  5
108
  8
0
  6
CONTINUOUS
 62
     7
 10
116.251743312
 20
143.2210970232
 30
0.0
 11
117.451743289
 21
143.2210970232
 31
0.0
  0
LINE
  5
109
  8
0
  6
CONTINUOUS
 62
     7
 10
116.251743312
 20
144.2210971871
 30
0.0
 11
116.251743312
 21
143.2210970232
 31
0.0
  0
LINE
  5
10A
  8
0
  6
CONTINUOUS
 62
     7
 10
124.2517430299
 20
144.2210971871
 30
0.0
 11
116.251743312
 21
144.2210971871
 31
0.0
  0
LINE
  5
10B
  8
0
  6
CONTINUOUS
 62
     7
 10
124.2517430299
 20
143.1610965663
 30
0.0
 11
124.2517430299
 21
144.2210971871
 31
0.0
  0
LINE
  5
10C
  8
0
  6
CONTINUOUS
 62
     7
 10
130.751743164
 20
142.5710971961
 30
0.0
 11
130.751743164
 21
137.8710967982
 31
0.0
  0
LINE
  5
10D
  8
0
  6
CONTINUOUS
 62
     7
 10
114.9517433448
 20
143.0110968211
 30
0.0
 11
114.9517433448
 21
142.5110967392
 31
0.0
  0
LINE
  5
10E
  8
0
  6
CONTINUOUS
 62
     7
 10
114.9517433448
 20
142.5110967392
 30
0.0
 11
117.451743289
 21
142.5110967392
 31
0.0
  0
LINE
  5
10F
  8
0
  6
CONTINUOUS
 62
     7
 10
114.9517433448
 20
143.0110968211
 30
0.0
 11
117.451743289
 21
143.0110968211
 31
0.0
  0
LINE
  5
110
  8
0
  6
CONTINUOUS
 62
     7
 10
114.9517433448
 20
140.4710970381
 30
0.0
 11
114.9517433448
 21
139.9710969562
 31
0.0
  0
LINE
  5
111
  8
0
  6
CONTINUOUS
 62
     7
 10
114.9517433448
 20
139.9710969562
 30
0.0
 11
117.451743289
 21
139.9710969562
 31
0.0
  0
LINE
  5
112
  8
0
  6
CONTINUOUS
 62
     7
 10
114.9517433448
 20
140.4710970381
 30
0.0
 11
117.451743289
 21
140.4710970381
 31
0.0
  0
LINE
  5
113
  8
0
  6
CONTINUOUS
 62
     7
 10
114.9517433448
 20
137.9310972551
 30
0.0
 11
114.9517433448
 21
137.4310971731
 31
0.0
  0
LINE
  5
114
  8
0
  6
CONTINUOUS
 62
     7
 10
114.9517433448
 20
137.9310972551
 30
0.0
 11
117.451743289
 21
137.9310972551
 31
0.0
  0
LINE
  5
115
  8
0
  6
CONTINUOUS
 62
     7
 10
114.9517433448
 20
137.4310971731
 30
0.0
 11
117.451743289
 21
137.4310971731
 31
0.0
  0
LINE
  5
116
  8
0
  6
CONTINUOUS
 62
     7
 10
135.7517430522
 20
140.3210972929
 30
0.0
 11
135.7517430522
 21
140.1210967013
 31
0.0
  0
ARC
  5
117
  8
0
  6
CONTINUOUS
 62
     7
 10
115.9419560441
 20
137.6680707395
 30
0.0
 40
0.4999999999999962
 50
31.7391125085
 51
148.2608874915
  0
ARC
  5
118
  8
0
  6
CONTINUOUS
 62
     7
 10
115.9419560441
 20
137.6680707395
 30
0.0
 40
0.5000000000000145
 50
208.2908551474
 51
331.7091448526
  0
CIRCLE
  5
119
  8
0
  6
CONTINUOUS
 62
     7
 10
104.5814560441
 20
162.5080707395
 30
0.0
 40
0.4000000000000057
  0
ARC
  5
11A
  8
0
  6
CONTINUOUS
 62
     7
 10
107.7814560441
 20
136.9080707395
 30
0.0
 40
0.7750000000000057
 50
194.0242395442
 51
345.9757604558
  0
ARC
  5
11B
  8
0
  6
CONTINUOUS
 62
     7
 10
99.7814560441
 20
155.7480707395
 30
0.0
 40
0.5
 50
0.0
 51
104.4775121859
  0
ARC
  5
11C
  8
0
  6
CONTINUOUS
 62
     7
 10
99.7814560441
 20
155.7480707395
 30
0.0
 40
0.5000000000000193
 50
255.5224878141
 51
0.0
  0
CIRCLE
  5
11D
  8
0
  6
CONTINUOUS
 62
     7
 10
108.2814560441
 20
176.7080707395
 30
0.0
 40
0.5
  0
CIRCLE
  5
11E
  8
0
  6
CONTINUOUS
 62
     7
 10
108.2814560441
 20
129.2080707395
 30
0.0
 40
0.5
  0
ARC
  5
11F
  8
0
  6
CONTINUOUS
 62
     7
 10
99.7814560441
 20
158.6497707395
 30
0.0
 40
0.5
 50
0.0
 51
104.4775121859
  0
ARC
  5
120
  8
0
  6
CONTINUOUS
 62
     7
 10
99.7814560441
 20
158.6497707395
 30
0.0
 40
0.5000000000000158
 50
255.5224878141
 51
0.0
  0
ARC
  5
121
  8
0
  6
CONTINUOUS
 62
     7
 10
99.7814560441
 20
153.2080707395
 30
0.0
 40
0.5000000000000193
 50
0.0
 51
104.4775121859
  0
LINE
  5
122
  8
0
  6
CONTINUOUS
 62
     7
 10
99.2816818842
 20
153.2230707379
 30
0.0
 11
99.2816818842
 21
153.1930707423
 31
0.0
  0
ARC
  5
123
  8
0
  6
CONTINUOUS
 62
     7
 10
99.7814560441
 20
153.2080707395
 30
0.0
 40
0.5000000000000158
 50
255.5224878141
 51
0.0
  0
CIRCLE
  5
124
  8
0
  6
CONTINUOUS
 62
     7
 10
117.1814560441
 20
149.9780707395
 30
0.0
 40
1.000000000000014
  0
ARC
  5
125
  8
0
  6
CONTINUOUS
 62
     7
 10
107.7814560441
 20
159.5080707395
 30
0.0
 40
0.7750000000000028
 50
15.8903160989
 51
164.1096839011
  0
CIRCLE
  5
126
  8
0
  6
CONTINUOUS
 62
     7
 10
104.5814560441
 20
171.7080707395
 30
0.0
 40
0.4000000000000057
  0
CIRCLE
  5
127
  8
0
  6
CONTINUOUS
 62
     7
 10
113.4814560441
 20
176.7080707395
 30
0.0
 40
0.5
  0
ARC
  5
128
  8
0
  6
CONTINUOUS
 62
     7
 10
99.7814560441
 20
134.6680707395
 30
0.0
 40
0.5
 50
0.0
 51
104.4775121859
  0
ARC
  5
129
  8
0
  6
CONTINUOUS
 62
     7
 10
99.7814560441
 20
134.6680707395
 30
0.0
 40
0.5000000000000193
 50
255.5224878141
 51
0.0
  0
CIRCLE
  5
12A
  8
0
  6
CONTINUOUS
 62
     7
 10
113.4814560441
 20
129.2080707395
 30
0.0
 40
0.5
  0
CIRCLE
  5
12B
  8
0
  6
CONTINUOUS
 62
     7
 10
98.1814560441
 20
176.2080707395
 30
0.0
 40
1.600000000000009
  0
ARC
  5
12C
  8
0
  6
CONTINUOUS
 62
     7
 10
115.9419560441
 20
140.2080707395
 30
0.0
 40
0.5000000000000112
 50
31.7391125085
 51
148.2608874915
  0
ARC
  5
12D
  8
0
  6
CONTINUOUS
 62
     7
 10
115.9419560441
 20
140.2080707395
 30
0.0
 40
0.500000000000001
 50
208.2908551474
 51
331.7091448526
  0
CIRCLE
  5
12E
  8
0
  6
CONTINUOUS
 62
     7
 10
120.1814560441
 20
130.2080707395
 30
0.0
 40
1.599999999999994
  0
CIRCLE
  5
12F
  8
0
  6
CONTINUOUS
 62
     7
 10
117.1814560441
 20
147.4380707395
 30
0.0
 40
1.000000000000014
  0
ARC
  5
130
  8
0
  6
CONTINUOUS
 62
     7
 10
112.8794560441
 20
171.2080707395
 30
0.0
 40
1.600000000000009
 50
0.0
 51
197.884417502
  0
POLYLINE
  5
131
  8
0
  6
CONTINUOUS
 62
     7
 66
     1
 10
0.0
 20
0.0
 30
0.0
  0
VERTEX
  5
1BD
  8
0
  6
CONTINUOUS
 62
     7
 10
114.4053315009
 20
170.7267136806
 30
0.0
  0
VERTEX
  5
1BE
  8
0
  6
CONTINUOUS
 62
     7
 10
114.4537433945
 20
170.9223789656
 30
0.0
  0
VERTEX
  5
1BF
  8
0
  6
CONTINUOUS
 62
     7
 10
114.4794560467
 20
171.2080714786
 30
0.0
  0
SEQEND
  5
1C4
  8
0
  6
CONTINUOUS
 62
     7
  0
CIRCLE
  5
132
  8
0
  6
CONTINUOUS
 62
     7
 10
114.6814560441
 20
149.9780707395
 30
0.0
 40
0.6000000000000085
  0
ARC
  5
133
  8
0
  6
CONTINUOUS
 62
     7
 10
99.7814560441
 20
137.2080707395
 30
0.0
 40
0.5
 50
0.0
 51
104.4775121859
  0
ARC
  5
134
  8
0
  6
CONTINUOUS
 62
     7
 10
99.7814560441
 20
137.2080707395
 30
0.0
 40
0.5000000000000193
 50
255.5224878141
 51
0.0
  0
ARC
  5
135
  8
0
  6
CONTINUOUS
 62
     7
 10
115.9419560441
 20
142.7480707395
 30
0.0
 40
0.5000000000000112
 50
31.7391125085
 51
148.2608874915
  0
ARC
  5
136
  8
0
  6
CONTINUOUS
 62
     7
 10
115.9419560441
 20
142.7480707395
 30
0.0
 40
0.500000000000001
 50
208.2908551474
 51
331.7091448526
  0
CIRCLE
  5
137
  8
0
  6
CONTINUOUS
 62
     7
 10
117.1814560441
 20
156.9780707395
 30
0.0
 40
1.000000000000014
  0
CIRCLE
  5
138
  8
0
  6
CONTINUOUS
 62
     7
 10
114.6814560441
 20
156.9780707395
 30
0.0
 40
0.6000000000000085
  0
CIRCLE
  5
139
  8
0
  6
CONTINUOUS
 62
     7
 10
114.6814560441
 20
154.4380707395
 30
0.0
 40
0.6000000000000085
  0
POLYLINE
  5
13A
  8
0
  6
CONTINUOUS
 62
     7
 66
     1
 10
0.0
 20
0.0
 30
0.0
  0
VERTEX
  5
1C0
  8
0
  6
CONTINUOUS
 62
     7
 10
121.57945586
 20
161.2080707708
 30
0.0
  0
VERTEX
  5
1C1
  8
0
  6
CONTINUOUS
 62
     7
 10
121.5537434407
 20
161.4937614212
 30
0.0
  0
VERTEX
  5
1C2
  8
0
  6
CONTINUOUS
 62
     7
 10
121.4930640497
 20
161.7267140681
 30
0.0
  0
SEQEND
  5
1C3
  8
0
  6
CONTINUOUS
 62
     7
  0
ARC
  5
13B
  8
0
  6
CONTINUOUS
 62
     7
 10
119.9794560441
 20
161.2080707395
 30
0.0
 40
1.600000000000009
 50
161.0857811145
 51
0.0
  0
ARC
  5
13C
  8
0
  6
CONTINUOUS
 62
     7
 10
99.7814560441
 20
142.6680707395
 30
0.0
 40
0.5000000000000158
 50
0.0
 51
104.4775121859
  0
ARC
  5
13D
  8
0
  6
CONTINUOUS
 62
     7
 10
99.7814560441
 20
142.6680707395
 30
0.0
 40
0.5000000000000158
 50
255.5224878141
 51
0.0
  0
ARC
  5
13E
  8
0
  6
CONTINUOUS
 62
     7
 10
99.7814560441
 20
139.7480707395
 30
0.0
 40
0.5000000000000158
 50
0.0
 51
104.4775121859
  0
ARC
  5
13F
  8
0
  6
CONTINUOUS
 62
     7
 10
99.7814560441
 20
139.7480707395
 30
0.0
 40
0.5
 50
255.5224878141
 51
0.0
  0
ARC
  5
140
  8
0
  6
CONTINUOUS
 62
     7
 10
109.6794560441
 20
166.2070707395
 30
0.0
 40
1.600000000000025
 50
97.1430534299
 51
262.8569465701
  0
CIRCLE
  5
141
  8
0
  6
CONTINUOUS
 62
     7
 10
114.6814560441
 20
147.4380707395
 30
0.0
 40
0.6000000000000085
  0
ARC
  5
142
  8
0
  6
CONTINUOUS
 62
     7
 10
99.7814560441
 20
163.7297707395
 30
0.0
 40
0.5
 50
0.0
 51
104.4775121859
  0
ARC
  5
143
  8
0
  6
CONTINUOUS
 62
     7
 10
99.7814560441
 20
163.7297707395
 30
0.0
 40
0.5
 50
255.5224878141
 51
0.0
  0
ARC
  5
144
  8
0
  6
CONTINUOUS
 62
     7
 10
99.7814560441
 20
147.7480707395
 30
0.0
 40
0.5
 50
0.0
 51
104.4775121859
  0
ARC
  5
145
  8
0
  6
CONTINUOUS
 62
     7
 10
99.7814560441
 20
147.7480707395
 30
0.0
 40
0.5000000000000193
 50
255.5224878141
 51
0.0
  0
ARC
  5
146
  8
0
  6
CONTINUOUS
 62
     7
 10
99.7814560441
 20
150.6680707395
 30
0.0
 40
0.5
 50
0.0
 51
104.4775121859
  0
ARC
  5
147
  8
0
  6
CONTINUOUS
 62
     7
 10
99.7814560441
 20
150.6680707395
 30
0.0
 40
0.5
 50
255.5224878141
 51
0.0
  0
ARC
  5
148
  8
0
  6
CONTINUOUS
 62
     7
 10
99.7814560441
 20
171.7480707395
 30
0.0
 40
0.5000000000000158
 50
0.0
 51
104.4775121859
  0
ARC
  5
149
  8
0
  6
CONTINUOUS
 62
     7
 10
99.7814560441
 20
171.7480707395
 30
0.0
 40
0.5
 50
255.5224878141
 51
0.0
  0
CIRCLE
  5
14A
  8
0
  6
CONTINUOUS
 62
     7
 10
103.0808560441
 20
130.3800707395
 30
0.0
 40
0.5
  0
ARC
  5
14B
  8
0
  6
CONTINUOUS
 62
     7
 10
99.7814560441
 20
161.1897707395
 30
0.0
 40
0.5
 50
0.0
 51
104.4775121859
  0
ARC
  5
14C
  8
0
  6
CONTINUOUS
 62
     7
 10
99.7814560441
 20
161.1897707395
 30
0.0
 40
0.5000000000000158
 50
255.5224878141
 51
0.0
  0
CIRCLE
  5
14D
  8
0
  6
CONTINUOUS
 62
     7
 10
98.1814560441
 20
130.2080707395
 30
0.0
 40
1.600000000000009
  0
ARC
  5
14E
  8
0
  6
CONTINUOUS
 62
     7
 10
99.7814560441
 20
145.2080707395
 30
0.0
 40
0.5
 50
0.0
 51
104.4775121859
  0
ARC
  5
14F
  8
0
  6
CONTINUOUS
 62
     7
 10
99.7814560441
 20
145.2080707395
 30
0.0
 40
0.5
 50
255.5224878141
 51
0.0
  0
CIRCLE
  5
150
  8
0
  6
CONTINUOUS
 62
     7
 10
117.1814560441
 20
154.4380707395
 30
0.0
 40
1.000000000000014
  0
LINE
  5
151
  8
0
  6
CONTINUOUS
 62
     7
 10
94.1814558544
 20
180.2080710912
 30
0.0
 11
94.1814558544
 21
173.1930700624
 31
0.0
  0
LINE
  5
152
  8
0
  6
CONTINUOUS
 62
     7
 10
94.1814558544
 20
163.22307098
 30
0.0
 11
94.1814558544
 21
163.1930702859
 31
0.0
  0
LINE
  5
153
  8
0
  6
CONTINUOUS
 62
     7
 10
94.1814558544
 20
153.2230707379
 30
0.0
 11
94.1814558544
 21
153.1930707423
 31
0.0
  0
LINE
  5
154
  8
0
  6
CONTINUOUS
 62
     7
 10
94.1814558544
 20
143.2230704957
 30
0.0
 11
94.1814558544
 21
143.193070733
 31
0.0
  0
LINE
  5
155
  8
0
  6
CONTINUOUS
 62
     7
 10
94.1814558544
 20
133.2230707193
 30
0.0
 11
94.1814558544
 21
126.2080715531
 31
0.0
  0
ARC
  5
156
  8
0
  6
CONTINUOUS
 62
     7
 10
99.7814560441
 20
169.2080707395
 30
0.0
 40
0.5
 50
0.0
 51
104.4775121859
  0
ARC
  5
157
  8
0
  6
CONTINUOUS
 62
     7
 10
99.7814560441
 20
169.2080707395
 30
0.0
 40
0.5000000000000158
 50
255.5224878141
 51
0.0
  0
CIRCLE
  5
158
  8
0
  6
CONTINUOUS
 62
     7
 10
120.1814560441
 20
176.2080707395
 30
0.0
 40
1.599999999999994
  0
LINE
  5
159
  8
0
  6
CONTINUOUS
 62
     7
 10
124.1814561152
 20
180.2080710912
 30
0.0
 11
94.1814558544
 21
180.2080710912
 31
0.0
  0
LINE
  5
15A
  8
0
  6
CONTINUOUS
 62
     7
 10
124.1814561152
 20
126.2080715531
 30
0.0
 11
124.1814561152
 21
136.2210968071
 31
0.0
  0
LINE
  5
15B
  8
0
  6
CONTINUOUS
 62
     7
 10
124.1814561152
 20
144.2210971871
 30
0.0
 11
124.1814561152
 21
150.5403706832
 31
0.0
  0
LINE
  5
15C
  8
0
  6
CONTINUOUS
 62
     7
 10
124.1814561152
 20
151.3403707212
 30
0.0
 11
124.1814561152
 21
153.0803707281
 31
0.0
  0
LINE
  5
15D
  8
0
  6
CONTINUOUS
 62
     7
 10
124.1814561152
 20
153.880370737
 30
0.0
 11
124.1814561152
 21
180.2080710912
 31
0.0
  0
ARC
  5
15E
  8
0
  6
CONTINUOUS
 62
     7
 10
99.7814560441
 20
166.6680707395
 30
0.0
 40
0.5
 50
0.0
 51
104.4775121859
  0
ARC
  5
15F
  8
0
  6
CONTINUOUS
 62
     7
 10
99.7814560441
 20
166.6680707395
 30
0.0
 40
0.5000000000000158
 50
255.5224878141
 51
0.0
  0
LINE
  5
160
  8
0
  6
CONTINUOUS
 62
     7
 10
94.1814558544
 20
126.2080715531
 30
0.0
 11
124.1814561152
 21
126.2080715531
 31
0.0
  0
LINE
  5
161
  8
0
  6
CONTINUOUS
 62
     7
 10
93.7618484684
 20
173.1930700624
 30
0.0
 11
93.7618484684
 21
163.22307098
 31
0.0
  0
LINE
  5
162
  8
0
  6
CONTINUOUS
 62
     7
 10
98.0010630526
 20
173.1930700624
 30
0.0
 11
93.7618484684
 21
173.1930700624
 31
0.0
  0
LINE
  5
163
  8
0
  6
CONTINUOUS
 62
     7
 10
98.0010630526
 20
163.22307098
 30
0.0
 11
98.0010630526
 21
173.1930700624
 31
0.0
  0
LINE
  5
164
  8
0
  6
CONTINUOUS
 62
     7
 10
93.7618484684
 20
163.22307098
 30
0.0
 11
98.0010630526
 21
163.22307098
 31
0.0
  0
CIRCLE
  5
165
  8
0
  6
CONTINUOUS
 62
     7
 10
95.8814560441
 20
170.7829503277
 30
0.0
 40
1.724999999999994
  0
CIRCLE
  5
166
  8
0
  6
CONTINUOUS
 62
     7
 10
95.8814560441
 20
165.6331911514
 30
0.0
 40
1.724999999999966
  0
LINE
  5
167
  8
0
  6
CONTINUOUS
 62
     7
 10
92.1064561196
 20
163.22307098
 30
0.0
 11
92.1064561196
 21
173.1930700624
 31
0.0
  0
LINE
  5
168
  8
0
  6
CONTINUOUS
 62
     7
 10
92.1064561196
 20
173.1930700624
 30
0.0
 11
93.7618484684
 21
173.1930700624
 31
0.0
  0
LINE
  5
169
  8
0
  6
CONTINUOUS
 62
     7
 10
93.7618484684
 20
163.22307098
 30
0.0
 11
92.1064561196
 21
163.22307098
 31
0.0
  0
LINE
  5
16A
  8
0
  6
CONTINUOUS
 62
     7
 10
99.6564554014
 20
173.1930700624
 30
0.0
 11
99.6564554014
 21
163.22307098
 31
0.0
  0
LINE
  5
16B
  8
0
  6
CONTINUOUS
 62
     7
 10
98.0010630526
 20
173.1930700624
 30
0.0
 11
99.6564554014
 21
173.1930700624
 31
0.0
  0
LINE
  5
16C
  8
0
  6
CONTINUOUS
 62
     7
 10
99.6564554014
 20
163.22307098
 30
0.0
 11
98.0010630526
 21
163.22307098
 31
0.0
  0
LINE
  5
16D
  8
0
  6
CONTINUOUS
 62
     7
 10
96.2312335112
 20
169.1124746138
 30
0.0
 11
96.2312335112
 21
172.4721164936
 31
0.0
  0
LINE
  5
16E
  8
0
  6
CONTINUOUS
 62
     7
 10
95.4511819371
 20
169.1124746138
 30
0.0
 11
96.2312335112
 21
169.1124746138
 31
0.0
  0
LINE
  5
16F
  8
0
  6
CONTINUOUS
 62
     7
 10
96.2312335112
 20
167.3223571414
 30
0.0
 11
95.5316798725
 21
167.3223571414
 31
0.0
  0
LINE
  5
170
  8
0
  6
CONTINUOUS
 62
     7
 10
95.4511819371
 20
167.30366736
 30
0.0
 11
95.4511819371
 21
163.9627152616
 31
0.0
  0
LINE
  5
171
  8
0
  6
CONTINUOUS
 62
     7
 10
95.4511819371
 20
163.9627152616
 30
0.0
 11
96.2312335112
 21
163.9627152616
 31
0.0
  0
LINE
  5
172
  8
0
  6
CONTINUOUS
 62
     7
 10
96.2312335112
 20
163.9627152616
 30
0.0
 11
96.2312335112
 21
167.3223571414
 31
0.0
  0
LINE
  5
173
  8
0
  6
CONTINUOUS
 62
     7
 10
96.2312335112
 20
172.4721164936
 30
0.0
 11
95.5316798725
 21
172.4721164936
 31
0.0
  0
LINE
  5
174
  8
0
  6
CONTINUOUS
 62
     7
 10
95.4511819371
 20
172.4534267122
 30
0.0
 11
95.4511819371
 21
169.1124746138
 31
0.0
  0
LINE
  5
175
  8
0
  6
CONTINUOUS
 62
     7
 10
93.7618484684
 20
143.193070733
 30
0.0
 11
93.7618484684
 21
133.2230707193
 31
0.0
  0
LINE
  5
176
  8
0
  6
CONTINUOUS
 62
     7
 10
98.0010630526
 20
133.2230707193
 30
0.0
 11
98.0010630526
 21
143.193070733
 31
0.0
  0
CIRCLE
  5
177
  8
0
  6
CONTINUOUS
 62
     7
 10
95.8814560441
 20
135.6331911514
 30
0.0
 40
1.724999999999994
  0
LINE
  5
178
  8
0
  6
CONTINUOUS
 62
     7
 10
98.0010630526
 20
143.193070733
 30
0.0
 11
93.7618484684
 21
143.193070733
 31
0.0
  0
CIRCLE
  5
179
  8
0
  6
CONTINUOUS
 62
     7
 10
95.8814560441
 20
140.7829503277
 30
0.0
 40
1.724999999999994
  0
LINE
  5
17A
  8
0
  6
CONTINUOUS
 62
     7
 10
93.7618484684
 20
133.2230707193
 30
0.0
 11
98.0010630526
 21
133.2230707193
 31
0.0
  0
LINE
  5
17B
  8
0
  6
CONTINUOUS
 62
     7
 10
99.6564554014
 20
143.193070733
 30
0.0
 11
99.6564554014
 21
133.2230707193
 31
0.0
  0
LINE
  5
17C
  8
0
  6
CONTINUOUS
 62
     7
 10
98.0010630526
 20
143.193070733
 30
0.0
 11
99.6564554014
 21
143.193070733
 31
0.0
  0
LINE
  5
17D
  8
0
  6
CONTINUOUS
 62
     7
 10
99.6564554014
 20
133.2230707193
 30
0.0
 11
98.0010630526
 21
133.2230707193
 31
0.0
  0
LINE
  5
17E
  8
0
  6
CONTINUOUS
 62
     7
 10
92.1064561196
 20
133.2230707193
 30
0.0
 11
92.1064561196
 21
143.193070733
 31
0.0
  0
LINE
  5
17F
  8
0
  6
CONTINUOUS
 62
     7
 10
92.1064561196
 20
143.193070733
 30
0.0
 11
93.7618484684
 21
143.193070733
 31
0.0
  0
LINE
  5
180
  8
0
  6
CONTINUOUS
 62
     7
 10
93.7618484684
 20
133.2230707193
 30
0.0
 11
92.1064561196
 21
133.2230707193
 31
0.0
  0
LINE
  5
181
  8
0
  6
CONTINUOUS
 62
     7
 10
96.2312335112
 20
142.4721162328
 30
0.0
 11
95.5316798725
 21
142.4721162328
 31
0.0
  0
LINE
  5
182
  8
0
  6
CONTINUOUS
 62
     7
 10
95.4511819371
 20
133.9627159322
 30
0.0
 11
96.2312335112
 21
133.9627159322
 31
0.0
  0
LINE
  5
183
  8
0
  6
CONTINUOUS
 62
     7
 10
96.2312335112
 20
133.9627159322
 30
0.0
 11
96.2312335112
 21
137.3223578119
 31
0.0
  0
LINE
  5
184
  8
0
  6
CONTINUOUS
 62
     7
 10
96.2312335112
 20
137.3223578119
 30
0.0
 11
95.5316798725
 21
137.3223578119
 31
0.0
  0
LINE
  5
185
  8
0
  6
CONTINUOUS
 62
     7
 10
96.2312335112
 20
139.112474353
 30
0.0
 11
96.2312335112
 21
142.4721162328
 31
0.0
  0
LINE
  5
186
  8
0
  6
CONTINUOUS
 62
     7
 10
95.4511819371
 20
139.112474353
 30
0.0
 11
96.2312335112
 21
139.112474353
 31
0.0
  0
LINE
  5
187
  8
0
  6
CONTINUOUS
 62
     7
 10
95.4511819371
 20
137.3036661679
 30
0.0
 11
95.4511819371
 21
133.9627159322
 31
0.0
  0
LINE
  5
188
  8
0
  6
CONTINUOUS
 62
     7
 10
95.4511819371
 20
142.4534264514
 30
0.0
 11
95.4511819371
 21
139.112474353
 31
0.0
  0
LINE
  5
189
  8
0
  6
CONTINUOUS
 62
     7
 10
93.7618484684
 20
153.1930707423
 30
0.0
 11
93.7618484684
 21
143.2230704957
 31
0.0
  0
LINE
  5
18A
  8
0
  6
CONTINUOUS
 62
     7
 10
93.7618484684
 20
143.2230704957
 30
0.0
 11
92.1064561196
 21
143.2230704957
 31
0.0
  0
LINE
  5
18B
  8
0
  6
CONTINUOUS
 62
     7
 10
92.1064561196
 20
143.2230704957
 30
0.0
 11
92.1064561196
 21
153.1930707423
 31
0.0
  0
LINE
  5
18C
  8
0
  6
CONTINUOUS
 62
     7
 10
92.1064561196
 20
153.1930707423
 30
0.0
 11
93.7618484684
 21
153.1930707423
 31
0.0
  0
LINE
  5
18D
  8
0
  6
CONTINUOUS
 62
     7
 10
98.0010630526
 20
143.2230704957
 30
0.0
 11
98.0010630526
 21
153.1930707423
 31
0.0
  0
LINE
  5
18E
  8
0
  6
CONTINUOUS
 62
     7
 10
99.6564554014
 20
153.1930707423
 30
0.0
 11
99.6564554014
 21
143.2230704957
 31
0.0
  0
LINE
  5
18F
  8
0
  6
CONTINUOUS
 62
     7
 10
99.6564554014
 20
143.2230704957
 30
0.0
 11
98.0010630526
 21
143.2230704957
 31
0.0
  0
LINE
  5
190
  8
0
  6
CONTINUOUS
 62
     7
 10
98.0010630526
 20
153.1930707423
 30
0.0
 11
99.6564554014
 21
153.1930707423
 31
0.0
  0
CIRCLE
  5
191
  8
0
  6
CONTINUOUS
 62
     7
 10
95.8814560441
 20
145.6331911514
 30
0.0
 40
1.724999999999994
  0
CIRCLE
  5
192
  8
0
  6
CONTINUOUS
 62
     7
 10
95.8814560441
 20
150.7829503277
 30
0.0
 40
1.724999999999994
  0
LINE
  5
193
  8
0
  6
CONTINUOUS
 62
     7
 10
93.7618484684
 20
143.2230704957
 30
0.0
 11
98.0010630526
 21
143.2230704957
 31
0.0
  0
LINE
  5
194
  8
0
  6
CONTINUOUS
 62
     7
 10
98.0010630526
 20
153.1930707423
 30
0.0
 11
93.7618484684
 21
153.1930707423
 31
0.0
  0
LINE
  5
195
  8
0
  6
CONTINUOUS
 62
     7
 10
96.2312335112
 20
149.1124745952
 30
0.0
 11
96.2312335112
 21
152.4721161839
 31
0.0
  0
LINE
  5
196
  8
0
  6
CONTINUOUS
 62
     7
 10
95.4511819371
 20
149.1124745952
 30
0.0
 11
96.2312335112
 21
149.1124745952
 31
0.0
  0
LINE
  5
197
  8
0
  6
CONTINUOUS
 62
     7
 10
96.2312335112
 20
143.9627157086
 30
0.0
 11
96.2312335112
 21
147.3223571228
 31
0.0
  0
LINE
  5
198
  8
0
  6
CONTINUOUS
 62
     7
 10
95.4511819371
 20
143.9627157086
 30
0.0
 11
96.2312335112
 21
143.9627157086
 31
0.0
  0
LINE
  5
199
  8
0
  6
CONTINUOUS
 62
     7
 10
96.2312335112
 20
147.3223571228
 30
0.0
 11
95.5316798725
 21
147.3223571228
 31
0.0
  0
LINE
  5
19A
  8
0
  6
CONTINUOUS
 62
     7
 10
95.4511819371
 20
152.4534260533
 30
0.0
 11
95.4511819371
 21
149.1124745952
 31
0.0
  0
LINE
  5
19B
  8
0
  6
CONTINUOUS
 62
     7
 10
96.2312335112
 20
152.4721161839
 30
0.0
 11
95.5316798725
 21
152.4721161839
 31
0.0
  0
LINE
  5
19C
  8
0
  6
CONTINUOUS
 62
     7
 10
95.4511819371
 20
147.3036668757
 30
0.0
 11
95.4511819371
 21
143.9627157086
 31
0.0
  0
LINE
  5
19D
  8
0
  6
CONTINUOUS
 62
     7
 10
93.7618484684
 20
163.1930702859
 30
0.0
 11
93.7618484684
 21
153.2230707379
 31
0.0
  0
LINE
  5
19E
  8
0
  6
CONTINUOUS
 62
     7
 10
92.1064561196
 20
153.2230707379
 30
0.0
 11
92.1064561196
 21
163.1930702859
 31
0.0
  0
LINE
  5
19F
  8
0
  6
CONTINUOUS
 62
     7
 10
92.1064561196
 20
163.1930702859
 30
0.0
 11
93.7618484684
 21
163.1930702859
 31
0.0
  0
LINE
  5
1A0
  8
0
  6
CONTINUOUS
 62
     7
 10
93.7618484684
 20
153.2230707379
 30
0.0
 11
92.1064561196
 21
153.2230707379
 31
0.0
  0
LINE
  5
1A1
  8
0
  6
CONTINUOUS
 62
     7
 10
98.0010630526
 20
153.2230707379
 30
0.0
 11
98.0010630526
 21
163.1930702859
 31
0.0
  0
LINE
  5
1A2
  8
0
  6
CONTINUOUS
 62
     7
 10
98.0010630526
 20
163.1930702859
 30
0.0
 11
99.6564554014
 21
163.1930702859
 31
0.0
  0
LINE
  5
1A3
  8
0
  6
CONTINUOUS
 62
     7
 10
99.6564554014
 20
163.1930702859
 30
0.0
 11
99.6564554014
 21
153.2230707379
 31
0.0
  0
LINE
  5
1A4
  8
0
  6
CONTINUOUS
 62
     7
 10
99.6564554014
 20
153.2230707379
 30
0.0
 11
98.0010630526
 21
153.2230707379
 31
0.0
  0
LINE
  5
1A5
  8
0
  6
CONTINUOUS
 62
     7
 10
98.0010630526
 20
163.1930702859
 30
0.0
 11
93.7618484684
 21
163.1930702859
 31
0.0
  0
CIRCLE
  5
1A6
  8
0
  6
CONTINUOUS
 62
     7
 10
95.8814560441
 20
160.7829503277
 30
0.0
 40
1.725000000000023
  0
CIRCLE
  5
1A7
  8
0
  6
CONTINUOUS
 62
     7
 10
95.8814560441
 20
155.6331911514
 30
0.0
 40
1.725000000000023
  0
LINE
  5
1A8
  8
0
  6
CONTINUOUS
 62
     7
 10
93.7618484684
 20
153.2230707379
 30
0.0
 11
98.0010630526
 21
153.2230707379
 31
0.0
  0
LINE
  5
1A9
  8
0
  6
CONTINUOUS
 62
     7
 10
95.4511819371
 20
162.4534260044
 30
0.0
 11
95.4511819371
 21
159.1124743717
 31
0.0
  0
LINE
  5
1AA
  8
0
  6
CONTINUOUS
 62
     7
 10
96.2312335112
 20
153.9627154269
 30
0.0
 11
96.2312335112
 21
157.3223568993
 31
0.0
  0
LINE
  5
1AB
  8
0
  6
CONTINUOUS
 62
     7
 10
95.4511819371
 20
153.9627154269
 30
0.0
 11
96.2312335112
 21
153.9627154269
 31
0.0
  0
LINE
  5
1AC
  8
0
  6
CONTINUOUS
 62
     7
 10
96.2312335112
 20
157.3223568993
 30
0.0
 11
95.5316798725
 21
157.3223568993
 31
0.0
  0
LINE
  5
1AD
  8
0
  6
CONTINUOUS
 62
     7
 10
96.2312335112
 20
162.4721157858
 30
0.0
 11
95.5316798725
 21
162.4721157858
 31
0.0
  0
LINE
  5
1AE
  8
0
  6
CONTINUOUS
 62
     7
 10
95.4511819371
 20
159.1124743717
 30
0.0
 11
96.2312335112
 21
159.1124743717
 31
0.0
  0
LINE
  5
1AF
  8
0
  6
CONTINUOUS
 62
     7
 10
96.2312335112
 20
159.1124743717
 30
0.0
 11
96.2312335112
 21
162.4721157858
 31
0.0
  0
LINE
  5
1B0
  8
0
  6
CONTINUOUS
 62
     7
 10
95.4511819371
 20
157.3036671178
 30
0.0
 11
95.4511819371
 21
153.9627154269
 31
0.0
  0
LINE
  5
1B1
  8
0
  6
CONTINUOUS
 62
     8
 10
109.7654301637
 20
157.7202630723
 30
0.0
 11
105.8020826393
 21
157.7202630723
 31
0.0
  0
LINE
  5
1B2
  8
0
  6
CONTINUOUS
 62
     8
 10
105.8020826393
 20
138.5202630916
 30
0.0
 11
109.7654301637
 21
138.5202630916
 31
0.0
  0
LINE
  5
1B3
  8
0
  6
CONTINUOUS
 62
     8
 10
109.715565756
 20
159.2202633181
 30
0.0
 11
109.715565756
 21
158.0202630283
 31
0.0
  0
LINE
  5
1B4
  8
0
  6
CONTINUOUS
 62
     8
 10
105.8519475125
 20
159.2202633181
 30
0.0
 11
105.8519475125
 21
158.0202630283
 31
0.0
  0
LINE
  5
1B5
  8
0
  6
CONTINUOUS
 62
     8
 10
109.715565756
 20
137.220262506
 30
0.0
 11
109.715565756
 21
138.2202636013
 31
0.0
  0
LINE
  5
1B6
  8
0
  6
CONTINUOUS
 62
     8
 10
105.8519475125
 20
137.220262506
 30
0.0
 11
105.8519475125
 21
138.2202636013
 31
0.0
  0
LINE
  5
1B7
  8
0
  6
CONTINUOUS
 62
     8
 10
131.1791559645
 20
149.7103706496
 30
0.0
 11
131.1791559645
 21
154.7103707706
 31
0.0
  0
LINE
  5
1B8
  8
0
  6
CONTINUOUS
 62
     8
 10
123.1791560502
 20
153.0803707281
 30
0.0
 11
123.1791560502
 21
153.880370737
 31
0.0
  0
LINE
  5
1B9
  8
0
  6
CONTINUOUS
 62
     8
 10
123.1791560502
 20
151.3403707212
 30
0.0
 11
123.1791560502
 21
150.5403706832
 31
0.0
  0
LINE
  5
1BA
  8
0
  6
CONTINUOUS
 62
     8
 10
134.6517430582
 20
139.0210967073
 30
0.0
 11
134.6517430582
 21
141.421097287
 31
0.0
  0
TEXT
  5
1BB
  8
0
  6
CONTINUOUS
 62
     7
 10
0.0
 20
6.732893805
 30
0.0
 40
3.633
  1
Edition tudiante de SolidWorks.
 41
0.6671875
 11
0.0
 21
5.4495
 31
0.0
 73
     1
  0
TEXT
  5
1BC
  8
0
  6
CONTINUOUS
 62
     7
 10
0.0
 20
1.283393805
 30
0.0
 40
3.633
  1
A usage universitaire uniquement.
 41
0.6681818182
 11
0.0
 21
0.0
 31
0.0
 73
     1
  0
ENDSEC
  0
EOF
