  0
SECTION
  2
HEADER
  9
$ACADVER
  1
AC1009
  9
$DWGCODEPAGE
  3
ansi_1252
  9
$INSBASE
 10
0.0
 20
0.0
 30
0.0
  9
$EXTMIN
 10
0.0
 20
0.0
 30
0.0
  9
$EXTMAX
 10
210.0
 20
297.0
 30
0.0
  9
$LIMMIN
 10
0.0
 20
0.0
  9
$LIMMAX
 10
210.0
 20
297.0
  9
$ORTHOMODE
 70
     0
  9
$REGENMODE
 70
     1
  9
$FILLMODE
 70
     1
  9
$QTEXTMODE
 70
     0
  9
$MIRRTEXT
 70
     1
  9
$DRAGMODE
 70
     2
  9
$LTSCALE
 40
1.0
  9
$OSMODE
 70
    37
  9
$ATTMODE
 70
     1
  9
$TEXTSIZE
 40
3.5
  9
$TRACEWID
 40
1.0
  9
$TEXTSTYLE
  7
STANDARD
  9
$CLAYER
  8
0
  9
$CELTYPE
  6
BYLAYER
  9
$CECOLOR
 62
   256
  9
$DIMSCALE
 40
1.0
  9
$DIMASZ
 40
3.302
  9
$DIMEXO
 40
1.0
  9
$DIMDLI
 40
3.75
  9
$DIMRND
 40
0.0
  9
$DIMDLE
 40
0.0
  9
$DIMEXE
 40
1.0
  9
$DIMTP
 40
0.0
  9
$DIMTM
 40
0.0
  9
$DIMTXT
 40
3.5
  9
$DIMCEN
 40
2.5
  9
$DIMTSZ
 40
0.0
  9
$DIMTOL
 70
     0
  9
$DIMLIM
 70
     0
  9
$DIMTIH
 70
     1
  9
$DIMTOH
 70
     1
  9
$DIMSE1
 70
     0
  9
$DIMSE2
 70
     0
  9
$DIMTAD
 70
     1
  9
$DIMZIN
 70
     0
  9
$DIMBLK
  1

  9
$DIMASO
 70
     1
  9
$DIMSHO
 70
     1
  9
$DIMPOST
  1

  9
$DIMAPOST
  1

  9
$DIMALT
 70
     0
  9
$DIMALTD
 70
     3
  9
$DIMALTF
 40
0.0393700787
  9
$DIMLFAC
 40
1.0
  9
$DIMTOFL
 70
     1
  9
$DIMTVP
 40
0.0
  9
$DIMTIX
 70
     0
  9
$DIMSOXD
 70
     0
  9
$DIMSAH
 70
     0
  9
$DIMBLK1
  1

  9
$DIMBLK2
  1

  9
$DIMSTYLE
  2
ISO-25
  9
$DIMCLRD
 70
     0
  9
$DIMCLRE
 70
     0
  9
$DIMCLRT
 70
     0
  9
$DIMTFAC
 40
1.0
  9
$DIMGAP
 40
1.524
  9
$LUNITS
 70
     2
  9
$LUPREC
 70
     2
  9
$SKETCHINC
 40
1.0
  9
$FILLETRAD
 40
10.0
  9
$AUNITS
 70
     0
  9
$AUPREC
 70
     2
  9
$MENU
  1
.
  9
$ELEVATION
 40
0.0
  9
$PELEVATION
 40
0.0
  9
$THICKNESS
 40
0.0
  9
$LIMCHECK
 70
     0
  9
$CHAMFERA
 40
10.0
  9
$CHAMFERB
 40
10.0
  9
$SKPOLY
 70
     0
  9
$TDCREATE
 40
2456441.659290509
  9
$TDUPDATE
 40
2456441.659290695
  9
$TDINDWG
 40
0.0000000116
  9
$TDUSRTIMER
 40
0.0000000116
  9
$USRTIMER
 70
     1
  9
$ANGBASE
 50
0.0
  9
$ANGDIR
 70
     0
  9
$PDMODE
 70
     0
  9
$PDSIZE
 40
-1.0
  9
$PLINEWID
 40
0.0
  9
$COORDS
 70
     1
  9
$SPLFRAME
 70
     0
  9
$SPLINETYPE
 70
     6
  9
$SPLINESEGS
 70
     8
  9
$ATTDIA
 70
     0
  9
$ATTREQ
 70
     1
  9
$HANDLING
 70
     1
  9
$HANDSEED
  5
FA
  9
$SURFTAB1
 70
     6
  9
$SURFTAB2
 70
     6
  9
$SURFTYPE
 70
     6
  9
$SURFU
 70
     6
  9
$SURFV
 70
     6
  9
$UCSNAME
  2

  9
$UCSORG
 10
0.0
 20
0.0
 30
0.0
  9
$UCSXDIR
 10
1.0
 20
0.0
 30
0.0
  9
$UCSYDIR
 10
0.0
 20
1.0
 30
0.0
  9
$PUCSNAME
  2

  9
$PUCSORG
 10
0.0
 20
0.0
 30
0.0
  9
$PUCSXDIR
 10
1.0
 20
0.0
 30
0.0
  9
$PUCSYDIR
 10
0.0
 20
1.0
 30
0.0
  9
$USERI1
 70
     0
  9
$USERI2
 70
     0
  9
$USERI3
 70
     0
  9
$USERI4
 70
     0
  9
$USERI5
 70
     0
  9
$USERR1
 40
0.0
  9
$USERR2
 40
0.0
  9
$USERR3
 40
0.0
  9
$USERR4
 40
0.0
  9
$USERR5
 40
0.0
  9
$WORLDVIEW
 70
     1
  9
$SHADEDGE
 70
     3
  9
$SHADEDIF
 70
    70
  9
$TILEMODE
 70
     1
  9
$MAXACTVP
 70
    64
  9
$PLIMCHECK
 70
     0
  9
$PEXTMIN
 10
1.0000000000E+20
 20
1.0000000000E+20
 30
1.0000000000E+20
  9
$PEXTMAX
 10
-1.0000000000E+20
 20
-1.0000000000E+20
 30
-1.0000000000E+20
  9
$PLIMMIN
 10
0.0
 20
0.0
  9
$PLIMMAX
 10
420.0
 20
297.0
  9
$UNITMODE
 70
     0
  9
$VISRETAIN
 70
     1
  9
$PLINEGEN
 70
     0
  9
$PSLTSCALE
 70
     1
  0
ENDSEC
  0
SECTION
  2
TABLES
  0
TABLE
  2
VPORT
 70
     1
  0
VPORT
  2
*ACTIVE
 70
     0
 10
0.0
 20
0.0
 11
1.0
 21
1.0
 12
105.0
 22
148.5
 13
0.0
 23
0.0
 14
10.0
 24
10.0
 15
10.0
 25
10.0
 16
0.0
 26
0.0
 36
1.0
 17
0.0
 27
0.0
 37
0.0
 40
297.0
 41
0.7070707071
 42
50.0
 43
0.0
 44
0.0
 50
0.0
 51
0.0
 71
     0
 72
  2000
 73
     1
 74
     3
 75
     0
 76
     0
 77
     0
 78
     0
  0
ENDTAB
  0
TABLE
  2
LTYPE
 70
     6
  0
LTYPE
  2
CONTINUOUS
 70
     0
  3
Solid line
 72
    65
 73
     0
 40
0.0
  0
LTYPE
  2
HIDDEN
 70
     0
  3
Hidden __ __ __ __ __ __ __ __ __ __ __ __ __ __
 72
    65
 73
     2
 40
1.905
 49
1.27
 49
-0.635
  0
LTYPE
  2
PHANTOM
 70
     0
  3
Phantom ______  __  __  ______  __  __  ______
 72
    65
 73
     6
 40
12.7
 49
6.35
 49
-1.27
 49
1.27
 49
-1.27
 49
1.27
 49
-1.27
  0
LTYPE
  2
CENTER
 70
     0
  3
Center ____ _ ____ _ ____ _ ____ _ ____ _ ____
 72
    65
 73
     4
 40
10.16
 49
6.35
 49
-1.27
 49
1.27
 49
-1.27
  0
LTYPE
  2
CENTERX2
 70
     0
  3
Center (2x) ________  __  ________  __  _____
 72
    65
 73
     4
 40
20.32
 49
12.7
 49
-2.54
 49
2.54
 49
-2.54
  0
LTYPE
  2
DOT2
 70
     0
  3
Dot (.5x) ........................................
 72
    65
 73
     2
 40
0.635
 49
0.0
 49
-0.635
  0
ENDTAB
  0
TABLE
  2
LAYER
 70
     1
  0
LAYER
  2
0
 70
     0
 62
     7
  6
CONTINUOUS
  0
ENDTAB
  0
TABLE
  2
STYLE
 70
     1
  0
STYLE
  2
STANDARD
 70
     0
 40
0.0
 41
1.0
 50
0.0
 71
     0
 42
3.5
  3
txt
  4

  0
ENDTAB
  0
TABLE
  2
VIEW
 70
     0
  0
ENDTAB
  0
TABLE
  2
UCS
 70
     0
  0
ENDTAB
  0
TABLE
  2
APPID
 70
     1
  0
APPID
  2
ACAD
 70
     0
  0
ENDTAB
  0
TABLE
  2
DIMSTYLE
 70
     1
  0
DIMSTYLE
  2
ISO-25
 70
     0
  3

  4

  5

  6

  7

 40
1.0
 41
2.5
 42
0.625
 43
3.75
 44
1.25
 45
0.0
 46
0.0
 47
0.0
 48
0.0
140
2.5
141
2.5
142
0.0
143
0.0393700787
144
1.0
145
0.0
146
1.0
147
0.625
 71
     0
 72
     0
 73
     0
 74
     0
 75
     0
 76
     0
 77
     1
 78
     8
170
     0
171
     3
172
     1
173
     0
174
     0
175
     0
176
     0
177
     0
178
     0
  0
ENDTAB
  0
ENDSEC
  0
SECTION
  2
BLOCKS
  0
BLOCK
  8
0
  2
$MODEL_SPACE
 70
     0
 10
0.0
 20
0.0
 30
0.0
  3
$MODEL_SPACE
  1

  0
ENDBLK
  5
21
  8
0
  0
BLOCK
 67
     1
  8
0
  2
$PAPER_SPACE
 70
     0
 10
0.0
 20
0.0
 30
0.0
  3
$PAPER_SPACE
  1

  0
ENDBLK
  5
1D
 67
     1
  8
0
  0
ENDSEC
  0
SECTION
  2
ENTITIES
  0
LINE
  5
44
  8
0
  6
CONTINUOUS
 62
     7
 10
105.2218484566
 20
153.6538351447
 30
0.0
 11
107.7218484566
 21
153.6538351447
 31
0.0
  0
LINE
  5
45
  8
0
  6
CONTINUOUS
 62
     7
 10
107.7218484566
 20
156.0538351447
 30
0.0
 11
105.2218484566
 21
156.0538351447
 31
0.0
  0
LINE
  5
46
  8
0
  6
CONTINUOUS
 62
     7
 10
105.2218484566
 20
154.2788351447
 30
0.0
 11
103.2218484566
 21
154.2788351447
 31
0.0
  0
LINE
  5
47
  8
0
  6
CONTINUOUS
 62
     7
 10
103.2218484566
 20
154.0288351447
 30
0.0
 11
105.2218484566
 21
154.0288351447
 31
0.0
  0
LINE
  5
48
  8
0
  6
CONTINUOUS
 62
     7
 10
105.2218484566
 20
155.6788351447
 30
0.0
 11
103.2218484566
 21
155.6788351447
 31
0.0
  0
LINE
  5
49
  8
0
  6
CONTINUOUS
 62
     7
 10
103.2218484566
 20
155.4288351447
 30
0.0
 11
105.2218484566
 21
155.4288351447
 31
0.0
  0
LINE
  5
4A
  8
0
  6
CONTINUOUS
 62
     7
 10
105.2218484566
 20
154.9788351447
 30
0.0
 11
103.2218484566
 21
154.9788351447
 31
0.0
  0
LINE
  5
4B
  8
0
  6
CONTINUOUS
 62
     7
 10
103.2218484566
 20
154.7288351447
 30
0.0
 11
105.2218484566
 21
154.7288351447
 31
0.0
  0
LINE
  5
4C
  8
0
  6
CONTINUOUS
 62
     7
 10
103.2218484566
 20
155.6788351447
 30
0.0
 11
102.7218484566
 21
155.6788351447
 31
0.0
  0
LINE
  5
4D
  8
0
  6
CONTINUOUS
 62
     7
 10
102.7218484566
 20
155.4288351447
 30
0.0
 11
103.2218484566
 21
155.4288351447
 31
0.0
  0
LINE
  5
4E
  8
0
  6
CONTINUOUS
 62
     7
 10
103.2218484566
 20
154.2788351447
 30
0.0
 11
102.7218484566
 21
154.2788351447
 31
0.0
  0
LINE
  5
4F
  8
0
  6
CONTINUOUS
 62
     7
 10
102.7218484566
 20
154.0288351447
 30
0.0
 11
103.2218484566
 21
154.0288351447
 31
0.0
  0
LINE
  5
50
  8
0
  6
CONTINUOUS
 62
     7
 10
103.2218484566
 20
154.9788351447
 30
0.0
 11
102.7218484566
 21
154.9788351447
 31
0.0
  0
LINE
  5
51
  8
0
  6
CONTINUOUS
 62
     7
 10
102.7218484566
 20
154.7288351447
 30
0.0
 11
103.2218484566
 21
154.7288351447
 31
0.0
  0
LINE
  5
52
  8
0
  6
CONTINUOUS
 62
     7
 10
90.2971284566
 20
161.9677475719
 30
0.0
 11
90.2971284566
 21
162.1677475719
 31
0.0
  0
LINE
  5
53
  8
0
  6
CONTINUOUS
 62
     7
 10
89.1471284566
 20
162.1677475719
 30
0.0
 11
89.1471284566
 21
161.9677475719
 31
0.0
  0
LINE
  5
54
  8
0
  6
CONTINUOUS
 62
     7
 10
90.2971284566
 20
161.4677475719
 30
0.0
 11
90.2971284566
 21
161.6677475719
 31
0.0
  0
LINE
  5
55
  8
0
  6
CONTINUOUS
 62
     7
 10
89.1471284566
 20
161.6677475719
 30
0.0
 11
89.1471284566
 21
161.4677475719
 31
0.0
  0
ARC
  5
56
  8
0
  6
CONTINUOUS
 62
     7
 10
89.1721284566
 20
162.6677475719
 30
0.0
 40
0.0249999999999915
 50
90.0
 51
180.0
  0
ARC
  5
57
  8
0
  6
CONTINUOUS
 62
     7
 10
90.2721284566
 20
162.6677475719
 30
0.0
 40
0.0249999999999915
 50
0.0
 51
90.0
  0
ARC
  5
58
  8
0
  6
CONTINUOUS
 62
     7
 10
90.2721284566
 20
162.4677475719
 30
0.0
 40
0.0250000000000057
 50
270.0
 51
0.0
  0
ARC
  5
59
  8
0
  6
CONTINUOUS
 62
     7
 10
89.1721284566
 20
162.4677475719
 30
0.0
 40
0.0250000000000057
 50
180.0
 51
270.0
  0
ARC
  5
5A
  8
0
  6
CONTINUOUS
 62
     7
 10
90.2721284566
 20
161.9677475719
 30
0.0
 40
0.0250000000000057
 50
270.0
 51
0.0
  0
ARC
  5
5B
  8
0
  6
CONTINUOUS
 62
     7
 10
89.1721284566
 20
161.9677475719
 30
0.0
 40
0.0250000000000057
 50
180.0
 51
270.0
  0
ARC
  5
5C
  8
0
  6
CONTINUOUS
 62
     7
 10
89.1721284566
 20
162.1677475719
 30
0.0
 40
0.0249999999999915
 50
90.0
 51
180.0
  0
ARC
  5
5D
  8
0
  6
CONTINUOUS
 62
     7
 10
90.2721284566
 20
162.1677475719
 30
0.0
 40
0.0249999999999915
 50
0.0
 51
90.0
  0
LINE
  5
5E
  8
0
  6
CONTINUOUS
 62
     7
 10
90.2971284566
 20
163.1292351447
 30
0.0
 11
90.2971284566
 21
163.3292351447
 31
0.0
  0
LINE
  5
5F
  8
0
  6
CONTINUOUS
 62
     7
 10
89.1471284566
 20
163.3292351447
 30
0.0
 11
89.1471284566
 21
163.1292351447
 31
0.0
  0
ARC
  5
60
  8
0
  6
CONTINUOUS
 62
     7
 10
90.2721284566
 20
161.4677475719
 30
0.0
 40
0.0250000000000057
 50
270.0
 51
0.0
  0
ARC
  5
61
  8
0
  6
CONTINUOUS
 62
     7
 10
89.1721284566
 20
161.4677475719
 30
0.0
 40
0.0250000000000057
 50
180.0
 51
270.0
  0
ARC
  5
62
  8
0
  6
CONTINUOUS
 62
     7
 10
89.1721284566
 20
163.3292351447
 30
0.0
 40
0.0249999999999915
 50
90.0
 51
180.0
  0
ARC
  5
63
  8
0
  6
CONTINUOUS
 62
     7
 10
90.2721284566
 20
163.3292351447
 30
0.0
 40
0.0249999999999915
 50
0.0
 51
90.0
  0
LINE
  5
64
  8
0
  6
CONTINUOUS
 62
     7
 10
90.2971284566
 20
162.4677475719
 30
0.0
 11
90.2971284566
 21
162.6677475719
 31
0.0
  0
LINE
  5
65
  8
0
  6
CONTINUOUS
 62
     7
 10
89.1471284566
 20
162.6677475719
 30
0.0
 11
89.1471284566
 21
162.4677475719
 31
0.0
  0
ARC
  5
66
  8
0
  6
CONTINUOUS
 62
     7
 10
90.2721284566
 20
163.1292351447
 30
0.0
 40
0.0250000000000057
 50
270.0
 51
0.0
  0
ARC
  5
67
  8
0
  6
CONTINUOUS
 62
     7
 10
89.1721284566
 20
163.1292351447
 30
0.0
 40
0.0250000000000057
 50
180.0
 51
270.0
  0
ARC
  5
68
  8
0
  6
CONTINUOUS
 62
     7
 10
89.1721284566
 20
161.6677475719
 30
0.0
 40
0.0249999999999915
 50
90.0
 51
180.0
  0
ARC
  5
69
  8
0
  6
CONTINUOUS
 62
     7
 10
90.2721284566
 20
161.6677475719
 30
0.0
 40
0.0249999999999915
 50
0.0
 51
90.0
  0
LINE
  5
6A
  8
0
  6
CONTINUOUS
 62
     7
 10
89.1721284566
 20
163.7042351447
 30
0.0
 11
89.1721284566
 21
163.3542351447
 31
0.0
  0
LINE
  5
6B
  8
0
  6
CONTINUOUS
 62
     7
 10
90.2721284566
 20
163.3542351447
 30
0.0
 11
90.2721284566
 21
163.7042351447
 31
0.0
  0
ARC
  5
6C
  8
0
  6
CONTINUOUS
 62
     7
 10
89.5721284566
 20
163.7042351447
 30
0.0
 40
0.4000000000000057
 50
90.0
 51
180.0
  0
ARC
  5
6D
  8
0
  6
CONTINUOUS
 62
     7
 10
89.8721284566
 20
163.7042351447
 30
0.0
 40
0.4000000000000057
 50
0.0
 51
90.0
  0
LINE
  5
6E
  8
0
  6
CONTINUOUS
 62
     7
 10
89.1721284566
 20
161.4427475719
 30
0.0
 11
89.1721284566
 21
161.0042351447
 31
0.0
  0
LINE
  5
6F
  8
0
  6
CONTINUOUS
 62
     7
 10
90.2721284566
 20
161.0042351447
 30
0.0
 11
90.2721284566
 21
161.4427475719
 31
0.0
  0
ARC
  5
70
  8
0
  6
CONTINUOUS
 62
     7
 10
89.5721284566
 20
161.0042351447
 30
0.0
 40
0.4000000000000057
 50
180.0
 51
270.0
  0
ARC
  5
71
  8
0
  6
CONTINUOUS
 62
     7
 10
89.8721284566
 20
161.0042351447
 30
0.0
 40
0.3999999999999915
 50
270.0
 51
0.0
  0
LINE
  5
72
  8
0
  6
CONTINUOUS
 62
     7
 10
89.1721284566
 20
161.9427475719
 30
0.0
 11
89.1721284566
 21
161.6927475719
 31
0.0
  0
LINE
  5
73
  8
0
  6
CONTINUOUS
 62
     7
 10
90.2721284566
 20
161.6927475719
 30
0.0
 11
90.2721284566
 21
161.9427475719
 31
0.0
  0
LINE
  5
74
  8
0
  6
CONTINUOUS
 62
     7
 10
89.1721284566
 20
162.4427475719
 30
0.0
 11
89.1721284566
 21
162.1927475719
 31
0.0
  0
LINE
  5
75
  8
0
  6
CONTINUOUS
 62
     7
 10
90.2721284566
 20
162.1927475719
 30
0.0
 11
90.2721284566
 21
162.4427475719
 31
0.0
  0
LINE
  5
76
  8
0
  6
CONTINUOUS
 62
     7
 10
89.1721284566
 20
163.1042351447
 30
0.0
 11
89.1721284566
 21
162.6927475719
 31
0.0
  0
LINE
  5
77
  8
0
  6
CONTINUOUS
 62
     7
 10
90.2721284566
 20
162.6927475719
 30
0.0
 11
90.2721284566
 21
163.1042351447
 31
0.0
  0
LINE
  5
78
  8
0
  6
CONTINUOUS
 62
     7
 10
89.8471284566
 20
164.1042351447
 30
0.0
 11
89.8471284566
 21
164.6042351447
 31
0.0
  0
LINE
  5
79
  8
0
  6
CONTINUOUS
 62
     7
 10
89.5971284566
 20
164.6042351447
 30
0.0
 11
89.5971284566
 21
164.1042351447
 31
0.0
  0
LINE
  5
7A
  8
0
  6
CONTINUOUS
 62
     7
 10
89.8471284566
 20
164.6042351447
 30
0.0
 11
89.8471284566
 21
165.1042351447
 31
0.0
  0
LINE
  5
7B
  8
0
  6
CONTINUOUS
 62
     7
 10
89.5971284566
 20
165.1042351447
 30
0.0
 11
89.5971284566
 21
164.6042351447
 31
0.0
  0
LINE
  5
7C
  8
0
  6
CONTINUOUS
 62
     7
 10
89.5971284566
 20
160.6042351447
 30
0.0
 11
89.5971284566
 21
160.1042351447
 31
0.0
  0
LINE
  5
7D
  8
0
  6
CONTINUOUS
 62
     7
 10
89.8471284566
 20
160.1042351447
 30
0.0
 11
89.8471284566
 21
160.6042351447
 31
0.0
  0
LINE
  5
7E
  8
0
  6
CONTINUOUS
 62
     7
 10
89.5971284566
 20
160.1042351447
 30
0.0
 11
89.5971284566
 21
159.6042351447
 31
0.0
  0
LINE
  5
7F
  8
0
  6
CONTINUOUS
 62
     7
 10
89.8471284566
 20
159.6042351447
 30
0.0
 11
89.8471284566
 21
160.1042351447
 31
0.0
  0
LINE
  5
80
  8
0
  6
CONTINUOUS
 62
     7
 10
88.4725084566
 20
158.1045051447
 30
0.0
 11
87.5225084566
 21
158.1045051447
 31
0.0
  0
LINE
  5
81
  8
0
  6
CONTINUOUS
 62
     7
 10
87.5225084566
 20
156.1045051447
 30
0.0
 11
88.4725084566
 21
156.1045051447
 31
0.0
  0
LINE
  5
82
  8
0
  6
CONTINUOUS
 62
     7
 10
87.5175084566
 20
158.1045051447
 30
0.0
 11
87.0175084566
 21
158.1045051447
 31
0.0
  0
LINE
  5
83
  8
0
  6
CONTINUOUS
 62
     7
 10
87.0175084566
 20
156.1045051447
 30
0.0
 11
87.5175084566
 21
156.1045051447
 31
0.0
  0
LINE
  5
84
  8
0
  6
CONTINUOUS
 62
     7
 10
107.7218484566
 20
156.0538351447
 30
0.0
 11
107.7218484566
 21
153.6538351447
 31
0.0
  0
LINE
  5
85
  8
0
  6
CONTINUOUS
 62
     7
 10
105.2218484566
 20
156.0538351447
 30
0.0
 11
105.2218484566
 21
153.6538351447
 31
0.0
  0
ARC
  5
86
  8
0
  6
CONTINUOUS
 62
     7
 10
102.7218484566
 20
155.5538351447
 30
0.0
 40
0.125
 50
90.0
 51
180.0
  0
ARC
  5
87
  8
0
  6
CONTINUOUS
 62
     7
 10
102.7218484566
 20
155.5538351447
 30
0.0
 40
0.125
 50
180.0
 51
270.0
  0
ARC
  5
88
  8
0
  6
CONTINUOUS
 62
     7
 10
102.7218484566
 20
154.1538351447
 30
0.0
 40
0.125
 50
90.0
 51
180.0
  0
ARC
  5
89
  8
0
  6
CONTINUOUS
 62
     7
 10
102.7218484566
 20
154.1538351447
 30
0.0
 40
0.125
 50
180.0
 51
270.0
  0
ARC
  5
8A
  8
0
  6
CONTINUOUS
 62
     7
 10
102.7218484566
 20
154.8538351447
 30
0.0
 40
0.1250000000000284
 50
90.0
 51
180.0
  0
ARC
  5
8B
  8
0
  6
CONTINUOUS
 62
     7
 10
102.7218484566
 20
154.8538351447
 30
0.0
 40
0.125
 50
180.0
 51
270.0
  0
LINE
  5
8C
  8
0
  6
CONTINUOUS
 62
     7
 10
89.1721284566
 20
162.6927475719
 30
0.0
 11
90.2721284566
 21
162.6927475719
 31
0.0
  0
LINE
  5
8D
  8
0
  6
CONTINUOUS
 62
     7
 10
90.2721284566
 20
162.4427475719
 30
0.0
 11
89.1721284566
 21
162.4427475719
 31
0.0
  0
LINE
  5
8E
  8
0
  6
CONTINUOUS
 62
     7
 10
90.2721284566
 20
161.9427475719
 30
0.0
 11
89.1721284566
 21
161.9427475719
 31
0.0
  0
LINE
  5
8F
  8
0
  6
CONTINUOUS
 62
     7
 10
89.1721284566
 20
162.1927475719
 30
0.0
 11
90.2721284566
 21
162.1927475719
 31
0.0
  0
LINE
  5
90
  8
0
  6
CONTINUOUS
 62
     7
 10
90.2721284566
 20
161.4427475719
 30
0.0
 11
89.1721284566
 21
161.4427475719
 31
0.0
  0
LINE
  5
91
  8
0
  6
CONTINUOUS
 62
     7
 10
89.1721284566
 20
163.3542351447
 30
0.0
 11
90.2721284566
 21
163.3542351447
 31
0.0
  0
LINE
  5
92
  8
0
  6
CONTINUOUS
 62
     7
 10
90.2721284566
 20
163.1042351447
 30
0.0
 11
89.1721284566
 21
163.1042351447
 31
0.0
  0
LINE
  5
93
  8
0
  6
CONTINUOUS
 62
     7
 10
89.1721284566
 20
161.6927475719
 30
0.0
 11
90.2721284566
 21
161.6927475719
 31
0.0
  0
LINE
  5
94
  8
0
  6
CONTINUOUS
 62
     7
 10
89.5721284566
 20
164.1042351447
 30
0.0
 11
89.8721284566
 21
164.1042351447
 31
0.0
  0
LINE
  5
95
  8
0
  6
CONTINUOUS
 62
     7
 10
89.5721284566
 20
160.6042351447
 30
0.0
 11
89.8721284566
 21
160.6042351447
 31
0.0
  0
ARC
  5
96
  8
0
  6
CONTINUOUS
 62
     7
 10
89.7221284566
 20
165.1042351447
 30
0.0
 40
0.1250000000000142
 50
0.0
 51
180.0
  0
ARC
  5
97
  8
0
  6
CONTINUOUS
 62
     7
 10
89.7221284566
 20
159.6042351447
 30
0.0
 40
0.1250000000000142
 50
180.0
 51
0.0
  0
LINE
  5
98
  8
0
  6
CONTINUOUS
 62
     7
 10
92.4225084566
 20
158.3545051447
 30
0.0
 11
88.4725084566
 21
158.3545051447
 31
0.0
  0
LINE
  5
99
  8
0
  6
CONTINUOUS
 62
     7
 10
92.4225084566
 20
155.8545051447
 30
0.0
 11
92.4225084566
 21
158.3545051447
 31
0.0
  0
LINE
  5
9A
  8
0
  6
CONTINUOUS
 62
     7
 10
88.4725084566
 20
155.8545051447
 30
0.0
 11
92.4225084566
 21
155.8545051447
 31
0.0
  0
LINE
  5
9B
  8
0
  6
CONTINUOUS
 62
     7
 10
88.4725084566
 20
158.3545051447
 30
0.0
 11
88.4725084566
 21
155.8545051447
 31
0.0
  0
LINE
  5
9C
  8
0
  6
CONTINUOUS
 62
     7
 10
87.5225084566
 20
156.1045051447
 30
0.0
 11
87.5225084566
 21
158.1045051447
 31
0.0
  0
LINE
  5
9D
  8
0
  6
CONTINUOUS
 62
     7
 10
87.0175084566
 20
156.1045051447
 30
0.0
 11
87.0175084566
 21
158.1045051447
 31
0.0
  0
LINE
  5
9E
  8
0
  6
CONTINUOUS
 62
     7
 10
87.5175084566
 20
156.1045051447
 30
0.0
 11
87.5175084566
 21
158.1045051447
 31
0.0
  0
CIRCLE
  5
9F
  8
0
  6
CONTINUOUS
 62
     7
 10
101.7528384566
 20
158.1446351447
 30
0.0
 40
0.3505199999999888
  0
CIRCLE
  5
A0
  8
0
  6
CONTINUOUS
 62
     7
 10
101.7528384566
 20
166.1938951447
 30
0.0
 40
0.3505199999999888
  0
CIRCLE
  5
A1
  8
0
  6
CONTINUOUS
 62
     7
 10
101.7223584566
 20
164.6038551447
 30
0.0
 40
0.199389999999994
  0
CIRCLE
  5
A2
  8
0
  6
CONTINUOUS
 62
     7
 10
102.4729284566
 20
148.6996451447
 30
0.0
 40
0.199389999999994
  0
CIRCLE
  5
A3
  8
0
  6
CONTINUOUS
 62
     7
 10
102.4970584566
 20
151.2396451447
 30
0.0
 40
0.199389999999994
  0
ARC
  5
A4
  8
0
  6
CONTINUOUS
 62
     7
 10
92.4221484566
 20
157.1045051447
 30
0.0
 40
0.275589999999994
 50
270.0
 51
89.9251551708
  0
CIRCLE
  5
A5
  8
0
  6
CONTINUOUS
 62
     7
 10
95.9730684566
 20
150.7392651447
 30
0.0
 40
0.1993900000000224
  0
CIRCLE
  5
A6
  8
0
  6
CONTINUOUS
 62
     7
 10
95.3380684566
 20
166.8542951447
 30
0.0
 40
0.1993900000000224
  0
CIRCLE
  5
A7
  8
0
  6
CONTINUOUS
 62
     7
 10
97.2430684566
 20
162.8537951447
 30
0.0
 40
0.2413000000000238
  0
CIRCLE
  5
A8
  8
0
  6
CONTINUOUS
 62
     7
 10
98.7226184566
 20
159.9048551447
 30
0.0
 40
0.2501900000000035
  0
CIRCLE
  5
A9
  8
0
  6
CONTINUOUS
 62
     7
 10
97.2227484566
 20
146.9787951447
 30
0.0
 40
0.2997200000000078
  0
CIRCLE
  5
AA
  8
0
  6
CONTINUOUS
 62
     7
 10
94.7221184566
 20
146.9787951447
 30
0.0
 40
0.2997200000000078
  0
CIRCLE
  5
AB
  8
0
  6
CONTINUOUS
 62
     7
 10
93.4724384566
 20
168.7796151447
 30
0.0
 40
0.250189999999975
  0
CIRCLE
  5
AC
  8
0
  6
CONTINUOUS
 62
     7
 10
95.9730684566
 20
168.7796151447
 30
0.0
 40
0.250189999999975
  0
CIRCLE
  5
AD
  8
0
  6
CONTINUOUS
 62
     7
 10
97.2722784566
 20
145.3544651447
 30
0.0
 40
0.2501900000000035
  0
CIRCLE
  5
AE
  8
0
  6
CONTINUOUS
 62
     7
 10
95.9832284566
 20
159.6267251447
 30
0.0
 40
0.2997200000000078
  0
LINE
  5
AF
  8
0
  6
CONTINUOUS
 62
     7
 10
103.4724484566
 20
170.6044051447
 30
0.0
 11
88.4724484566
 21
170.6044051447
 31
0.0
  0
LINE
  5
B0
  8
0
  6
CONTINUOUS
 62
     7
 10
103.4724484566
 20
143.6044051447
 30
0.0
 11
103.4724484566
 21
154.0288351447
 31
0.0
  0
LINE
  5
B1
  8
0
  6
CONTINUOUS
 62
     7
 10
103.4724484566
 20
154.2788351447
 30
0.0
 11
103.4724484566
 21
154.7288351447
 31
0.0
  0
LINE
  5
B2
  8
0
  6
CONTINUOUS
 62
     7
 10
103.4724484566
 20
154.9788351447
 30
0.0
 11
103.4724484566
 21
155.4288351447
 31
0.0
  0
LINE
  5
B3
  8
0
  6
CONTINUOUS
 62
     7
 10
103.4724484566
 20
155.6788351447
 30
0.0
 11
103.4724484566
 21
170.6044051447
 31
0.0
  0
LINE
  5
B4
  8
0
  6
CONTINUOUS
 62
     7
 10
88.4724484566
 20
143.6044051447
 30
0.0
 11
103.4724484566
 21
143.6044051447
 31
0.0
  0
CIRCLE
  5
B5
  8
0
  6
CONTINUOUS
 62
     7
 10
94.6827484566
 20
164.8273751447
 30
0.0
 40
0.2997200000000078
  0
CIRCLE
  5
B6
  8
0
  6
CONTINUOUS
 62
     7
 10
95.9743384566
 20
161.3056651447
 30
0.0
 40
0.8001000000000431
  0
CIRCLE
  5
B7
  8
0
  6
CONTINUOUS
 62
     7
 10
98.4724284566
 20
168.7796151447
 30
0.0
 40
0.250189999999975
  0
CIRCLE
  5
B8
  8
0
  6
CONTINUOUS
 62
     7
 10
98.7226184566
 20
154.8045351447
 30
0.0
 40
0.2501900000000035
  0
CIRCLE
  5
B9
  8
0
  6
CONTINUOUS
 62
     7
 10
94.7030684566
 20
162.8537951447
 30
0.0
 40
0.2413000000000238
  0
CIRCLE
  5
BA
  8
0
  6
CONTINUOUS
 62
     7
 10
96.6080684566
 20
166.8542951447
 30
0.0
 40
0.1993900000000224
  0
CIRCLE
  5
BB
  8
0
  6
CONTINUOUS
 62
     7
 10
95.9730684566
 20
149.4692651447
 30
0.0
 40
0.1993900000000224
  0
CIRCLE
  5
BC
  8
0
  6
CONTINUOUS
 62
     7
 10
99.9722984566
 20
158.3745051447
 30
0.0
 40
0.250189999999975
  0
CIRCLE
  5
BD
  8
0
  6
CONTINUOUS
 62
     7
 10
102.4729284566
 20
149.9696451447
 30
0.0
 40
0.1993900000000224
  0
CIRCLE
  5
BE
  8
0
  6
CONTINUOUS
 62
     7
 10
102.4729284566
 20
152.5096451447
 30
0.0
 40
0.199389999999994
  0
CIRCLE
  5
BF
  8
0
  6
CONTINUOUS
 62
     7
 10
101.7528384566
 20
161.7946151447
 30
0.0
 40
0.3505199999999888
  0
CIRCLE
  5
C0
  8
0
  6
CONTINUOUS
 62
     7
 10
100.4726784566
 20
147.8538251447
 30
0.0
 40
0.199389999999994
  0
CIRCLE
  5
C1
  8
0
  6
CONTINUOUS
 62
     7
 10
99.9722984566
 20
157.1045051447
 30
0.0
 40
0.2501900000000035
  0
CIRCLE
  5
C2
  8
0
  6
CONTINUOUS
 62
     7
 10
97.2227484566
 20
153.2297351447
 30
0.0
 40
0.2997199999999793
  0
CIRCLE
  5
C3
  8
0
  6
CONTINUOUS
 62
     7
 10
101.4721684566
 20
145.6046551447
 30
0.0
 40
0.8000999999999863
  0
CIRCLE
  5
C4
  8
0
  6
CONTINUOUS
 62
     7
 10
94.7221184566
 20
153.2297351447
 30
0.0
 40
0.2997199999999793
  0
CIRCLE
  5
C5
  8
0
  6
CONTINUOUS
 62
     7
 10
90.4726984566
 20
145.6046551447
 30
0.0
 40
0.8000999999999863
  0
CIRCLE
  5
C6
  8
0
  6
CONTINUOUS
 62
     7
 10
101.4721684566
 20
168.6043551447
 30
0.0
 40
0.8001000000000147
  0
CIRCLE
  5
C7
  8
0
  6
CONTINUOUS
 62
     7
 10
90.4726984566
 20
168.6043551447
 30
0.0
 40
0.8001000000000431
  0
CIRCLE
  5
C8
  8
0
  6
CONTINUOUS
 62
     7
 10
94.6725884566
 20
145.3544651447
 30
0.0
 40
0.2501900000000035
  0
CIRCLE
  5
C9
  8
0
  6
CONTINUOUS
 62
     7
 10
93.2224484566
 20
161.3056651447
 30
0.0
 40
0.2000000000000171
  0
CIRCLE
  5
CA
  8
0
  6
CONTINUOUS
 62
     7
 10
98.7224484566
 20
161.3056651447
 30
0.0
 40
0.2000000000000171
  0
CIRCLE
  5
CB
  8
0
  6
CONTINUOUS
 62
     7
 10
99.1724484566
 20
162.5644051447
 30
0.0
 40
0.1999999999999602
  0
CIRCLE
  5
CC
  8
0
  6
CONTINUOUS
 62
     7
 10
99.1724484566
 20
163.8344051447
 30
0.0
 40
0.2000000000000171
  0
CIRCLE
  5
CD
  8
0
  6
CONTINUOUS
 62
     7
 10
99.1724484566
 20
165.1044051447
 30
0.0
 40
0.1999999999999886
  0
ARC
  5
CE
  8
0
  6
CONTINUOUS
 62
     7
 10
102.7218484566
 20
155.5538351447
 30
0.0
 40
0.1993900000000055
 50
270.0
 51
321.1773328023
  0
ARC
  5
CF
  8
0
  6
CONTINUOUS
 62
     7
 10
102.7218484566
 20
155.5538351447
 30
0.0
 40
0.1993899999999944
 50
38.8226671977
 51
270.0
  0
ARC
  5
D0
  8
0
  6
CONTINUOUS
 62
     7
 10
102.7218484566
 20
154.8540651447
 30
0.0
 40
0.1993900000000224
 50
270.0
 51
321.0924502247
  0
ARC
  5
D1
  8
0
  6
CONTINUOUS
 62
     7
 10
102.7218484566
 20
154.8540651447
 30
0.0
 40
0.1993900000000224
 50
38.7378856889
 51
270.0
  0
ARC
  5
D2
  8
0
  6
CONTINUOUS
 62
     7
 10
102.7218484566
 20
154.1542951447
 30
0.0
 40
0.1993900000000047
 50
270.0
 51
321.0074660292
  0
ARC
  5
D3
  8
0
  6
CONTINUOUS
 62
     7
 10
102.7218484566
 20
154.1542951447
 30
0.0
 40
0.19939
 50
38.6532047037
 51
270.0
  0
CIRCLE
  5
D4
  8
0
  6
CONTINUOUS
 62
     7
 10
95.2224984566
 20
154.8045351447
 30
0.0
 40
0.199389999999994
  0
CIRCLE
  5
D5
  8
0
  6
CONTINUOUS
 62
     7
 10
89.7221284566
 20
154.8045351447
 30
0.0
 40
0.199389999999994
  0
CIRCLE
  5
D6
  8
0
  6
CONTINUOUS
 62
     7
 10
89.7221284566
 20
153.3541951447
 30
0.0
 40
0.199389999999994
  0
CIRCLE
  5
D7
  8
0
  6
CONTINUOUS
 62
     7
 10
89.7221284566
 20
147.8538251447
 30
0.0
 40
0.199389999999994
  0
CIRCLE
  5
D8
  8
0
  6
CONTINUOUS
 62
     7
 10
91.7223784566
 20
153.3541951447
 30
0.0
 40
0.199389999999994
  0
CIRCLE
  5
D9
  8
0
  6
CONTINUOUS
 62
     7
 10
91.7223784566
 20
147.8538251447
 30
0.0
 40
0.199389999999994
  0
ARC
  5
DA
  8
0
  6
CONTINUOUS
 62
     7
 10
89.7221284566
 20
159.6038651447
 30
0.0
 40
0.1993900000000033
 50
270.0
 51
51.1773328023
  0
ARC
  5
DB
  8
0
  6
CONTINUOUS
 62
     7
 10
89.7221284566
 20
159.6038651447
 30
0.0
 40
0.1993899999999944
 50
128.8226671977
 51
270.0
  0
ARC
  5
DC
  8
0
  6
CONTINUOUS
 62
     7
 10
89.7221284566
 20
165.1042351447
 30
0.0
 40
0.1993900000000255
 50
308.8226671977
 51
231.1773328023
  0
CIRCLE
  5
DD
  8
0
  6
CONTINUOUS
 62
     7
 10
91.7223784566
 20
159.6038651447
 30
0.0
 40
0.199389999999994
  0
CIRCLE
  5
DE
  8
0
  6
CONTINUOUS
 62
     7
 10
91.7223784566
 20
165.1042351447
 30
0.0
 40
0.1993900000000224
  0
CIRCLE
  5
DF
  8
0
  6
CONTINUOUS
 62
     7
 10
100.4726784566
 20
153.3541951447
 30
0.0
 40
0.199389999999994
  0
CIRCLE
  5
E0
  8
0
  6
CONTINUOUS
 62
     7
 10
97.2837084566
 20
164.8273751447
 30
0.0
 40
0.2997200000000078
  0
CIRCLE
  5
E1
  8
0
  6
CONTINUOUS
 62
     7
 10
95.9730684566
 20
157.1045051447
 30
0.0
 40
0.8000999999999863
  0
CIRCLE
  5
E2
  8
0
  6
CONTINUOUS
 62
     7
 10
99.9722984566
 20
155.8345051447
 30
0.0
 40
0.2501900000000319
  0
CIRCLE
  5
E3
  8
0
  6
CONTINUOUS
 62
     7
 10
101.7223584566
 20
163.3338551447
 30
0.0
 40
0.199389999999994
  0
LINE
  5
E4
  8
0
  6
CONTINUOUS
 62
     7
 10
88.4724484566
 20
170.6044051447
 30
0.0
 11
88.4724484566
 21
158.1045051447
 31
0.0
  0
LINE
  5
E5
  8
0
  6
CONTINUOUS
 62
     7
 10
88.4724484566
 20
156.1045051447
 30
0.0
 11
88.4724484566
 21
143.6044051447
 31
0.0
  0
LINE
  5
E6
  8
0
  6
CONTINUOUS
 62
     8
 10
103.2218484566
 20
154.1538351447
 30
0.0
 11
103.2218484566
 21
154.2788351447
 31
0.0
  0
LINE
  5
E7
  8
0
  6
CONTINUOUS
 62
     8
 10
103.2218484566
 20
154.0288351447
 30
0.0
 11
103.2218484566
 21
154.1538351447
 31
0.0
  0
LINE
  5
E8
  8
0
  6
CONTINUOUS
 62
     8
 10
103.2218484566
 20
155.5538351447
 30
0.0
 11
103.2218484566
 21
155.6788351447
 31
0.0
  0
LINE
  5
E9
  8
0
  6
CONTINUOUS
 62
     8
 10
103.2218484566
 20
155.4288351447
 30
0.0
 11
103.2218484566
 21
155.5538351447
 31
0.0
  0
LINE
  5
EA
  8
0
  6
CONTINUOUS
 62
     8
 10
103.2218484566
 20
154.8538351447
 30
0.0
 11
103.2218484566
 21
154.9788351447
 31
0.0
  0
LINE
  5
EB
  8
0
  6
CONTINUOUS
 62
     8
 10
103.2218484566
 20
154.7288351447
 30
0.0
 11
103.2218484566
 21
154.8538351447
 31
0.0
  0
LINE
  5
EC
  8
0
  6
CONTINUOUS
 62
     8
 10
89.1471284566
 20
161.9677475719
 30
0.0
 11
90.2971284566
 21
161.9677475719
 31
0.0
  0
LINE
  5
ED
  8
0
  6
CONTINUOUS
 62
     8
 10
90.2971284566
 20
162.1677475719
 30
0.0
 11
89.1471284566
 21
162.1677475719
 31
0.0
  0
LINE
  5
EE
  8
0
  6
CONTINUOUS
 62
     8
 10
89.1471284566
 20
161.4677475719
 30
0.0
 11
90.2971284566
 21
161.4677475719
 31
0.0
  0
LINE
  5
EF
  8
0
  6
CONTINUOUS
 62
     8
 10
90.2971284566
 20
161.6677475719
 30
0.0
 11
89.1471284566
 21
161.6677475719
 31
0.0
  0
LINE
  5
F0
  8
0
  6
CONTINUOUS
 62
     8
 10
90.2971284566
 20
162.6677475719
 30
0.0
 11
89.1471284566
 21
162.6677475719
 31
0.0
  0
LINE
  5
F1
  8
0
  6
CONTINUOUS
 62
     8
 10
89.1471284566
 20
162.4677475719
 30
0.0
 11
90.2971284566
 21
162.4677475719
 31
0.0
  0
LINE
  5
F2
  8
0
  6
CONTINUOUS
 62
     8
 10
89.1471284566
 20
163.1292351447
 30
0.0
 11
90.2971284566
 21
163.1292351447
 31
0.0
  0
LINE
  5
F3
  8
0
  6
CONTINUOUS
 62
     8
 10
90.2971284566
 20
163.3292351447
 30
0.0
 11
89.1471284566
 21
163.3292351447
 31
0.0
  0
LINE
  5
F4
  8
0
  6
CONTINUOUS
 62
     8
 10
89.1721284566
 20
163.7042351447
 30
0.0
 11
90.2721284566
 21
163.7042351447
 31
0.0
  0
LINE
  5
F5
  8
0
  6
CONTINUOUS
 62
     8
 10
89.1721284566
 20
161.0042351447
 30
0.0
 11
90.2721284566
 21
161.0042351447
 31
0.0
  0
LINE
  5
F6
  8
0
  6
CONTINUOUS
 62
     8
 10
89.5971284566
 20
164.6042351447
 30
0.0
 11
89.8471284566
 21
164.6042351447
 31
0.0
  0
LINE
  5
F7
  8
0
  6
CONTINUOUS
 62
     8
 10
89.5971284566
 20
160.1042351447
 30
0.0
 11
89.8471284566
 21
160.1042351447
 31
0.0
  0
TEXT
  5
F8
  8
0
  6
CONTINUOUS
 62
     7
 10
0.0
 20
6.732893805
 30
0.0
 40
3.633
  1
Edition étudiante de SolidWorks.
 41
0.6671875
 11
0.0
 21
5.4495
 31
0.0
 73
     1
  0
TEXT
  5
F9
  8
0
  6
CONTINUOUS
 62
     7
 10
0.0
 20
1.283393805
 30
0.0
 40
3.633
  1
A usage universitaire uniquement.
 41
0.6681818182
 11
0.0
 21
0.0
 31
0.0
 73
     1
  0
ENDSEC
  0
EOF
