  0
SECTION
  2
HEADER
  9
$ACADVER
  1
AC1009
  9
$DWGCODEPAGE
  3
ansi_1252
  9
$INSBASE
 10
0.0
 20
0.0
 30
0.0
  9
$EXTMIN
 10
0.0
 20
0.0
 30
0.0
  9
$EXTMAX
 10
210.0
 20
297.0
 30
0.0
  9
$LIMMIN
 10
0.0
 20
0.0
  9
$LIMMAX
 10
210.0
 20
297.0
  9
$ORTHOMODE
 70
     0
  9
$REGENMODE
 70
     1
  9
$FILLMODE
 70
     1
  9
$QTEXTMODE
 70
     0
  9
$MIRRTEXT
 70
     1
  9
$DRAGMODE
 70
     2
  9
$LTSCALE
 40
1.0
  9
$OSMODE
 70
    37
  9
$ATTMODE
 70
     1
  9
$TEXTSIZE
 40
3.5
  9
$TRACEWID
 40
1.0
  9
$TEXTSTYLE
  7
STANDARD
  9
$CLAYER
  8
0
  9
$CELTYPE
  6
BYLAYER
  9
$CECOLOR
 62
   256
  9
$DIMSCALE
 40
1.0
  9
$DIMASZ
 40
3.302
  9
$DIMEXO
 40
1.0
  9
$DIMDLI
 40
3.75
  9
$DIMRND
 40
0.0
  9
$DIMDLE
 40
0.0
  9
$DIMEXE
 40
1.0
  9
$DIMTP
 40
0.0
  9
$DIMTM
 40
0.0
  9
$DIMTXT
 40
3.5
  9
$DIMCEN
 40
2.5
  9
$DIMTSZ
 40
0.0
  9
$DIMTOL
 70
     0
  9
$DIMLIM
 70
     0
  9
$DIMTIH
 70
     1
  9
$DIMTOH
 70
     1
  9
$DIMSE1
 70
     0
  9
$DIMSE2
 70
     0
  9
$DIMTAD
 70
     1
  9
$DIMZIN
 70
     0
  9
$DIMBLK
  1

  9
$DIMASO
 70
     1
  9
$DIMSHO
 70
     1
  9
$DIMPOST
  1

  9
$DIMAPOST
  1

  9
$DIMALT
 70
     0
  9
$DIMALTD
 70
     3
  9
$DIMALTF
 40
0.0393700787
  9
$DIMLFAC
 40
2.0
  9
$DIMTOFL
 70
     1
  9
$DIMTVP
 40
0.0
  9
$DIMTIX
 70
     0
  9
$DIMSOXD
 70
     0
  9
$DIMSAH
 70
     0
  9
$DIMBLK1
  1

  9
$DIMBLK2
  1

  9
$DIMSTYLE
  2
ISO-25
  9
$DIMCLRD
 70
     0
  9
$DIMCLRE
 70
     0
  9
$DIMCLRT
 70
     0
  9
$DIMTFAC
 40
1.0
  9
$DIMGAP
 40
1.524
  9
$LUNITS
 70
     2
  9
$LUPREC
 70
     2
  9
$SKETCHINC
 40
1.0
  9
$FILLETRAD
 40
10.0
  9
$AUNITS
 70
     0
  9
$AUPREC
 70
     2
  9
$MENU
  1
.
  9
$ELEVATION
 40
0.0
  9
$PELEVATION
 40
0.0
  9
$THICKNESS
 40
0.0
  9
$LIMCHECK
 70
     0
  9
$CHAMFERA
 40
10.0
  9
$CHAMFERB
 40
10.0
  9
$SKPOLY
 70
     0
  9
$TDCREATE
 40
2456441.66671897
  9
$TDUPDATE
 40
2456441.666719514
  9
$TDINDWG
 40
0.0000000116
  9
$TDUSRTIMER
 40
0.0000000116
  9
$USRTIMER
 70
     1
  9
$ANGBASE
 50
0.0
  9
$ANGDIR
 70
     0
  9
$PDMODE
 70
     0
  9
$PDSIZE
 40
-1.0
  9
$PLINEWID
 40
0.0
  9
$COORDS
 70
     1
  9
$SPLFRAME
 70
     0
  9
$SPLINETYPE
 70
     6
  9
$SPLINESEGS
 70
     8
  9
$ATTDIA
 70
     0
  9
$ATTREQ
 70
     1
  9
$HANDLING
 70
     1
  9
$HANDSEED
  5
468
  9
$SURFTAB1
 70
     6
  9
$SURFTAB2
 70
     6
  9
$SURFTYPE
 70
     6
  9
$SURFU
 70
     6
  9
$SURFV
 70
     6
  9
$UCSNAME
  2

  9
$UCSORG
 10
0.0
 20
0.0
 30
0.0
  9
$UCSXDIR
 10
1.0
 20
0.0
 30
0.0
  9
$UCSYDIR
 10
0.0
 20
1.0
 30
0.0
  9
$PUCSNAME
  2

  9
$PUCSORG
 10
0.0
 20
0.0
 30
0.0
  9
$PUCSXDIR
 10
1.0
 20
0.0
 30
0.0
  9
$PUCSYDIR
 10
0.0
 20
1.0
 30
0.0
  9
$USERI1
 70
     0
  9
$USERI2
 70
     0
  9
$USERI3
 70
     0
  9
$USERI4
 70
     0
  9
$USERI5
 70
     0
  9
$USERR1
 40
0.0
  9
$USERR2
 40
0.0
  9
$USERR3
 40
0.0
  9
$USERR4
 40
0.0
  9
$USERR5
 40
0.0
  9
$WORLDVIEW
 70
     1
  9
$SHADEDGE
 70
     3
  9
$SHADEDIF
 70
    70
  9
$TILEMODE
 70
     1
  9
$MAXACTVP
 70
    64
  9
$PLIMCHECK
 70
     0
  9
$PEXTMIN
 10
1.0000000000E+20
 20
1.0000000000E+20
 30
1.0000000000E+20
  9
$PEXTMAX
 10
-1.0000000000E+20
 20
-1.0000000000E+20
 30
-1.0000000000E+20
  9
$PLIMMIN
 10
0.0
 20
0.0
  9
$PLIMMAX
 10
420.0
 20
297.0
  9
$UNITMODE
 70
     0
  9
$VISRETAIN
 70
     1
  9
$PLINEGEN
 70
     0
  9
$PSLTSCALE
 70
     1
  0
ENDSEC
  0
SECTION
  2
TABLES
  0
TABLE
  2
VPORT
 70
     1
  0
VPORT
  2
*ACTIVE
 70
     0
 10
0.0
 20
0.0
 11
1.0
 21
1.0
 12
105.0
 22
148.5
 13
0.0
 23
0.0
 14
10.0
 24
10.0
 15
10.0
 25
10.0
 16
0.0
 26
0.0
 36
1.0
 17
0.0
 27
0.0
 37
0.0
 40
297.0
 41
0.7070707071
 42
50.0
 43
0.0
 44
0.0
 50
0.0
 51
0.0
 71
     0
 72
  2000
 73
     1
 74
     3
 75
     0
 76
     0
 77
     0
 78
     0
  0
ENDTAB
  0
TABLE
  2
LTYPE
 70
     6
  0
LTYPE
  2
CONTINUOUS
 70
     0
  3
Solid line
 72
    65
 73
     0
 40
0.0
  0
LTYPE
  2
HIDDEN
 70
     0
  3
Hidden __ __ __ __ __ __ __ __ __ __ __ __ __ __
 72
    65
 73
     2
 40
1.905
 49
1.27
 49
-0.635
  0
LTYPE
  2
PHANTOM
 70
     0
  3
Phantom ______  __  __  ______  __  __  ______
 72
    65
 73
     6
 40
12.7
 49
6.35
 49
-1.27
 49
1.27
 49
-1.27
 49
1.27
 49
-1.27
  0
LTYPE
  2
CENTER
 70
     0
  3
Center ____ _ ____ _ ____ _ ____ _ ____ _ ____
 72
    65
 73
     4
 40
10.16
 49
6.35
 49
-1.27
 49
1.27
 49
-1.27
  0
LTYPE
  2
CENTERX2
 70
     0
  3
Center (2x) ________  __  ________  __  _____
 72
    65
 73
     4
 40
20.32
 49
12.7
 49
-2.54
 49
2.54
 49
-2.54
  0
LTYPE
  2
DOT2
 70
     0
  3
Dot (.5x) ........................................
 72
    65
 73
     2
 40
0.635
 49
0.0
 49
-0.635
  0
ENDTAB
  0
TABLE
  2
LAYER
 70
     1
  0
LAYER
  2
0
 70
     0
 62
     7
  6
CONTINUOUS
  0
ENDTAB
  0
TABLE
  2
STYLE
 70
     1
  0
STYLE
  2
STANDARD
 70
     0
 40
0.0
 41
1.0
 50
0.0
 71
     0
 42
3.5
  3
txt
  4

  0
ENDTAB
  0
TABLE
  2
VIEW
 70
     0
  0
ENDTAB
  0
TABLE
  2
UCS
 70
     0
  0
ENDTAB
  0
TABLE
  2
APPID
 70
     1
  0
APPID
  2
ACAD
 70
     0
  0
ENDTAB
  0
TABLE
  2
DIMSTYLE
 70
     1
  0
DIMSTYLE
  2
ISO-25
 70
     0
  3

  4

  5

  6

  7

 40
1.0
 41
2.5
 42
0.625
 43
3.75
 44
1.25
 45
0.0
 46
0.0
 47
0.0
 48
0.0
140
2.5
141
2.5
142
0.0
143
0.0393700787
144
1.0
145
0.0
146
1.0
147
0.625
 71
     0
 72
     0
 73
     0
 74
     0
 75
     0
 76
     0
 77
     1
 78
     8
170
     0
171
     3
172
     1
173
     0
174
     0
175
     0
176
     0
177
     0
178
     0
  0
ENDTAB
  0
ENDSEC
  0
SECTION
  2
BLOCKS
  0
BLOCK
  8
0
  2
$MODEL_SPACE
 70
     0
 10
0.0
 20
0.0
 30
0.0
  3
$MODEL_SPACE
  1

  0
ENDBLK
  5
21
  8
0
  0
BLOCK
 67
     1
  8
0
  2
$PAPER_SPACE
 70
     0
 10
0.0
 20
0.0
 30
0.0
  3
$PAPER_SPACE
  1

  0
ENDBLK
  5
1D
 67
     1
  8
0
  0
ENDSEC
  0
SECTION
  2
ENTITIES
  0
ARC
  5
44
  8
0
  6
CONTINUOUS
 62
     7
 10
102.1427675222
 20
149.7478080142
 30
0.0
 40
0.3500000000000227
 50
90.0
 51
180.0
  0
ARC
  5
45
  8
0
  6
CONTINUOUS
 62
     7
 10
102.3427675222
 20
149.7478080142
 30
0.0
 40
0.3500000000000227
 50
0.0
 51
90.0
  0
ARC
  5
46
  8
0
  6
CONTINUOUS
 62
     7
 10
102.1427675222
 20
148.2844247764
 30
0.0
 40
0.3500000000000227
 50
180.0
 51
270.0
  0
ARC
  5
47
  8
0
  6
CONTINUOUS
 62
     7
 10
102.3427675222
 20
148.2844247764
 30
0.0
 40
0.3500000000000227
 50
270.0
 51
360.0
  0
LINE
  5
48
  8
0
  6
CONTINUOUS
 62
     7
 10
102.3427675475
 20
150.0978082255
 30
0.0
 11
102.142767538
 21
150.0978082255
 31
0.0
  0
LINE
  5
49
  8
0
  6
CONTINUOUS
 62
     7
 10
102.142767538
 20
147.9344250471
 30
0.0
 11
102.3427675475
 21
147.9344250471
 31
0.0
  0
ARC
  5
4A
  8
0
  6
CONTINUOUS
 62
     7
 10
103.8948737961
 20
149.7331647711
 30
0.0
 40
0.3500000000000227
 50
90.0
 51
180.0
  0
ARC
  5
4B
  8
0
  6
CONTINUOUS
 62
     7
 10
104.0948737961
 20
149.7331647711
 30
0.0
 40
0.3500000000000227
 50
0.0
 51
90.0
  0
ARC
  5
4C
  8
0
  6
CONTINUOUS
 62
     7
 10
103.8948737961
 20
148.2697815333
 30
0.0
 40
0.3500000000000227
 50
180.0
 51
270.0
  0
ARC
  5
4D
  8
0
  6
CONTINUOUS
 62
     7
 10
104.0948737961
 20
148.2697815333
 30
0.0
 40
0.3500000000000227
 50
270.0
 51
360.0
  0
LINE
  5
4E
  8
0
  6
CONTINUOUS
 62
     7
 10
104.0948737875
 20
150.0831650406
 30
0.0
 11
103.894873778
 21
150.0831650406
 31
0.0
  0
LINE
  5
4F
  8
0
  6
CONTINUOUS
 62
     7
 10
103.894873778
 20
147.9197818622
 30
0.0
 11
104.0948737875
 21
147.9197818622
 31
0.0
  0
LINE
  5
50
  8
0
  6
CONTINUOUS
 62
     7
 10
106.061406573
 20
147.1200188458
 30
0.0
 11
105.7364064266
 21
147.1200188458
 31
0.0
  0
LINE
  5
51
  8
0
  6
CONTINUOUS
 62
     7
 10
105.7364064266
 20
146.8700192705
 30
0.0
 11
106.061406573
 21
146.8700192705
 31
0.0
  0
LINE
  5
52
  8
0
  6
CONTINUOUS
 62
     7
 10
109.0614063662
 20
150.6800189451
 30
0.0
 11
109.3864062798
 21
150.6800189451
 31
0.0
  0
LINE
  5
53
  8
0
  6
CONTINUOUS
 62
     7
 10
109.3864062798
 20
150.9300194517
 30
0.0
 11
109.0614063662
 21
150.9300194517
 31
0.0
  0
LINE
  5
54
  8
0
  6
CONTINUOUS
 62
     7
 10
109.0614063662
 20
154.4900186196
 30
0.0
 11
109.3864062798
 21
154.4900186196
 31
0.0
  0
LINE
  5
55
  8
0
  6
CONTINUOUS
 62
     7
 10
109.3864062798
 20
154.7400191263
 30
0.0
 11
109.0614063662
 21
154.7400191263
 31
0.0
  0
LINE
  5
56
  8
0
  6
CONTINUOUS
 62
     7
 10
106.061406573
 20
153.4700192347
 30
0.0
 11
105.7364064266
 21
153.4700192347
 31
0.0
  0
LINE
  5
57
  8
0
  6
CONTINUOUS
 62
     7
 10
105.7364064266
 20
153.2200187281
 30
0.0
 11
106.061406573
 21
153.2200187281
 31
0.0
  0
LINE
  5
58
  8
0
  6
CONTINUOUS
 62
     7
 10
109.0614063662
 20
153.2200187281
 30
0.0
 11
109.3864062798
 21
153.2200187281
 31
0.0
  0
LINE
  5
59
  8
0
  6
CONTINUOUS
 62
     7
 10
109.3864062798
 20
153.4700192347
 30
0.0
 11
109.0614063662
 21
153.4700192347
 31
0.0
  0
LINE
  5
5A
  8
0
  6
CONTINUOUS
 62
     7
 10
109.0614063662
 20
149.4100190535
 30
0.0
 11
109.3864062798
 21
149.4100190535
 31
0.0
  0
LINE
  5
5B
  8
0
  6
CONTINUOUS
 62
     7
 10
109.3864062798
 20
149.6600195602
 30
0.0
 11
109.0614063662
 21
149.6600195602
 31
0.0
  0
LINE
  5
5C
  8
0
  6
CONTINUOUS
 62
     7
 10
106.061406573
 20
154.7400191263
 30
0.0
 11
105.7364064266
 21
154.7400191263
 31
0.0
  0
LINE
  5
5D
  8
0
  6
CONTINUOUS
 62
     7
 10
105.7364064266
 20
154.4900186196
 30
0.0
 11
106.061406573
 21
154.4900186196
 31
0.0
  0
LINE
  5
5E
  8
0
  6
CONTINUOUS
 62
     7
 10
106.061406573
 20
148.3900187373
 30
0.0
 11
105.7364064266
 21
148.3900187373
 31
0.0
  0
LINE
  5
5F
  8
0
  6
CONTINUOUS
 62
     7
 10
105.7364064266
 20
148.140019162
 30
0.0
 11
106.061406573
 21
148.140019162
 31
0.0
  0
LINE
  5
60
  8
0
  6
CONTINUOUS
 62
     7
 10
106.061406573
 20
149.6600195602
 30
0.0
 11
105.7364064266
 21
149.6600195602
 31
0.0
  0
LINE
  5
61
  8
0
  6
CONTINUOUS
 62
     7
 10
105.7364064266
 20
149.4100190535
 30
0.0
 11
106.061406573
 21
149.4100190535
 31
0.0
  0
LINE
  5
62
  8
0
  6
CONTINUOUS
 62
     7
 10
109.0614063662
 20
151.9500188366
 30
0.0
 11
109.3864062798
 21
151.9500188366
 31
0.0
  0
LINE
  5
63
  8
0
  6
CONTINUOUS
 62
     7
 10
109.3864062798
 20
152.2000193432
 30
0.0
 11
109.0614063662
 21
152.2000193432
 31
0.0
  0
LINE
  5
64
  8
0
  6
CONTINUOUS
 62
     7
 10
106.061406573
 20
150.9300194517
 30
0.0
 11
105.7364064266
 21
150.9300194517
 31
0.0
  0
LINE
  5
65
  8
0
  6
CONTINUOUS
 62
     7
 10
105.7364064266
 20
150.6800189451
 30
0.0
 11
106.061406573
 21
150.6800189451
 31
0.0
  0
LINE
  5
66
  8
0
  6
CONTINUOUS
 62
     7
 10
109.0614063662
 20
148.140019162
 30
0.0
 11
109.3864062798
 21
148.140019162
 31
0.0
  0
LINE
  5
67
  8
0
  6
CONTINUOUS
 62
     7
 10
109.3864062798
 20
148.3900187373
 30
0.0
 11
109.0614063662
 21
148.3900187373
 31
0.0
  0
LINE
  5
68
  8
0
  6
CONTINUOUS
 62
     7
 10
109.0614063662
 20
146.8700192705
 30
0.0
 11
109.3864062798
 21
146.8700192705
 31
0.0
  0
LINE
  5
69
  8
0
  6
CONTINUOUS
 62
     7
 10
109.3864062798
 20
147.1200188458
 30
0.0
 11
109.0614063662
 21
147.1200188458
 31
0.0
  0
LINE
  5
6A
  8
0
  6
CONTINUOUS
 62
     7
 10
106.061406573
 20
152.2000193432
 30
0.0
 11
105.7364064266
 21
152.2000193432
 31
0.0
  0
LINE
  5
6B
  8
0
  6
CONTINUOUS
 62
     7
 10
105.7364064266
 20
151.9500188366
 30
0.0
 11
106.061406573
 21
151.9500188366
 31
0.0
  0
LINE
  5
6C
  8
0
  6
CONTINUOUS
 62
     7
 10
106.061406573
 20
156.0100190178
 30
0.0
 11
105.7364064266
 21
156.0100190178
 31
0.0
  0
LINE
  5
6D
  8
0
  6
CONTINUOUS
 62
     7
 10
105.7364064266
 20
155.7600185111
 30
0.0
 11
106.061406573
 21
155.7600185111
 31
0.0
  0
LINE
  5
6E
  8
0
  6
CONTINUOUS
 62
     7
 10
109.0614063662
 20
155.7600185111
 30
0.0
 11
109.3864062798
 21
155.7600185111
 31
0.0
  0
LINE
  5
6F
  8
0
  6
CONTINUOUS
 62
     7
 10
109.3864062798
 20
156.0100190178
 30
0.0
 11
109.0614063662
 21
156.0100190178
 31
0.0
  0
LINE
  5
70
  8
0
  6
CONTINUOUS
 62
     7
 10
100.3895864353
 20
156.0112893418
 30
0.0
 11
100.0645865218
 21
156.0112893418
 31
0.0
  0
LINE
  5
71
  8
0
  6
CONTINUOUS
 62
     7
 10
100.0645865218
 20
155.7612888351
 30
0.0
 11
100.3895864353
 21
155.7612888351
 31
0.0
  0
LINE
  5
72
  8
0
  6
CONTINUOUS
 62
     7
 10
100.3895864353
 20
153.4712895587
 30
0.0
 11
100.0645865218
 21
153.4712895587
 31
0.0
  0
LINE
  5
73
  8
0
  6
CONTINUOUS
 62
     7
 10
100.0645865218
 20
153.2212890521
 30
0.0
 11
100.3895864353
 21
153.2212890521
 31
0.0
  0
LINE
  5
74
  8
0
  6
CONTINUOUS
 62
     7
 10
103.3895864614
 20
155.7612888351
 30
0.0
 11
103.7145864623
 21
155.7612888351
 31
0.0
  0
LINE
  5
75
  8
0
  6
CONTINUOUS
 62
     7
 10
103.7145864623
 20
156.0112893418
 30
0.0
 11
103.3895864614
 21
156.0112893418
 31
0.0
  0
LINE
  5
76
  8
0
  6
CONTINUOUS
 62
     7
 10
103.3895864614
 20
151.9512891606
 30
0.0
 11
103.7145864623
 21
151.9512891606
 31
0.0
  0
LINE
  5
77
  8
0
  6
CONTINUOUS
 62
     7
 10
103.7145864623
 20
152.2012896672
 30
0.0
 11
103.3895864614
 21
152.2012896672
 31
0.0
  0
LINE
  5
78
  8
0
  6
CONTINUOUS
 62
     7
 10
103.3895864614
 20
153.2212890521
 30
0.0
 11
103.7145864623
 21
153.2212890521
 31
0.0
  0
LINE
  5
79
  8
0
  6
CONTINUOUS
 62
     7
 10
103.7145864623
 20
153.4712895587
 30
0.0
 11
103.3895864614
 21
153.4712895587
 31
0.0
  0
LINE
  5
7A
  8
0
  6
CONTINUOUS
 62
     7
 10
100.3895864353
 20
152.2012896672
 30
0.0
 11
100.0645865218
 21
152.2012896672
 31
0.0
  0
LINE
  5
7B
  8
0
  6
CONTINUOUS
 62
     7
 10
100.0645865218
 20
151.9512891606
 30
0.0
 11
100.3895864353
 21
151.9512891606
 31
0.0
  0
LINE
  5
7C
  8
0
  6
CONTINUOUS
 62
     7
 10
100.3895864353
 20
154.7412894503
 30
0.0
 11
100.0645865218
 21
154.7412894503
 31
0.0
  0
LINE
  5
7D
  8
0
  6
CONTINUOUS
 62
     7
 10
100.0645865218
 20
154.4912889436
 30
0.0
 11
100.3895864353
 21
154.4912889436
 31
0.0
  0
LINE
  5
7E
  8
0
  6
CONTINUOUS
 62
     7
 10
103.3895864614
 20
154.4912889436
 30
0.0
 11
103.7145864623
 21
154.4912889436
 31
0.0
  0
LINE
  5
7F
  8
0
  6
CONTINUOUS
 62
     7
 10
103.7145864623
 20
154.7412894503
 30
0.0
 11
103.3895864614
 21
154.7412894503
 31
0.0
  0
LINE
  5
80
  8
0
  6
CONTINUOUS
 62
     7
 10
96.19762646
 20
142.095859053
 30
0.0
 11
96.697626542
 21
142.095859053
 31
0.0
  0
LINE
  5
81
  8
0
  6
CONTINUOUS
 62
     7
 10
96.697626542
 20
142.345859094
 30
0.0
 11
96.19762646
 21
142.345859094
 31
0.0
  0
ARC
  5
82
  8
0
  6
CONTINUOUS
 62
     7
 10
98.0535588902
 20
146.1401691662
 30
0.0
 40
0.0250000000000057
 50
0.0
 51
90.0
  0
ARC
  5
83
  8
0
  6
CONTINUOUS
 62
     7
 10
98.0535588902
 20
145.0401691662
 30
0.0
 40
0.0250000000000057
 50
270.0
 51
0.0
  0
ARC
  5
84
  8
0
  6
CONTINUOUS
 62
     7
 10
98.3535588902
 20
145.0401691662
 30
0.0
 40
0.0250000000000057
 50
180.0
 51
270.0
  0
ARC
  5
85
  8
0
  6
CONTINUOUS
 62
     7
 10
98.3535588902
 20
146.1401691662
 30
0.0
 40
0.0249999999999915
 50
90.0
 51
180.0
  0
LINE
  5
86
  8
0
  6
CONTINUOUS
 62
     7
 10
97.3535588939
 20
145.0151692912
 30
0.0
 11
97.5535590199
 21
145.0151692912
 31
0.0
  0
LINE
  5
87
  8
0
  6
CONTINUOUS
 62
     7
 10
97.5535590199
 20
146.1651692003
 30
0.0
 11
97.3535588939
 21
146.1651692003
 31
0.0
  0
ARC
  5
88
  8
0
  6
CONTINUOUS
 62
     7
 10
97.5535588902
 20
146.1401691662
 30
0.0
 40
0.0250000000000057
 50
0.0
 51
90.0
  0
ARC
  5
89
  8
0
  6
CONTINUOUS
 62
     7
 10
97.5535588902
 20
145.0401691662
 30
0.0
 40
0.0250000000000057
 50
270.0
 51
0.0
  0
ARC
  5
8A
  8
0
  6
CONTINUOUS
 62
     7
 10
98.5535588902
 20
146.1401691662
 30
0.0
 40
0.0250000000000057
 50
0.0
 51
90.0
  0
ARC
  5
8B
  8
0
  6
CONTINUOUS
 62
     7
 10
98.5535588902
 20
145.0401691662
 30
0.0
 40
0.0250000000000057
 50
270.0
 51
0.0
  0
ARC
  5
8C
  8
0
  6
CONTINUOUS
 62
     7
 10
97.8535588902
 20
145.0401691662
 30
0.0
 40
0.0250000000000057
 50
180.0
 51
270.0
  0
ARC
  5
8D
  8
0
  6
CONTINUOUS
 62
     7
 10
97.8535588902
 20
146.1401691662
 30
0.0
 40
0.0249999999999915
 50
90.0
 51
180.0
  0
LINE
  5
8E
  8
0
  6
CONTINUOUS
 62
     7
 10
98.3535590579
 20
145.0151692912
 30
0.0
 11
98.5535587181
 21
145.0151692912
 31
0.0
  0
LINE
  5
8F
  8
0
  6
CONTINUOUS
 62
     7
 10
98.5535587181
 20
146.1651692003
 30
0.0
 11
98.3535590579
 21
146.1651692003
 31
0.0
  0
ARC
  5
90
  8
0
  6
CONTINUOUS
 62
     7
 10
97.3535588902
 20
145.0401691662
 30
0.0
 40
0.0250000000000057
 50
180.0
 51
270.0
  0
ARC
  5
91
  8
0
  6
CONTINUOUS
 62
     7
 10
97.3535588902
 20
146.1401691662
 30
0.0
 40
0.0249999999999915
 50
90.0
 51
180.0
  0
LINE
  5
92
  8
0
  6
CONTINUOUS
 62
     7
 10
99.0150462833
 20
145.0151692912
 30
0.0
 11
99.2150464092
 21
145.0151692912
 31
0.0
  0
LINE
  5
93
  8
0
  6
CONTINUOUS
 62
     7
 10
99.2150464092
 20
146.1651692003
 30
0.0
 11
99.0150462833
 21
146.1651692003
 31
0.0
  0
ARC
  5
94
  8
0
  6
CONTINUOUS
 62
     7
 10
99.015046463
 20
145.0401691662
 30
0.0
 40
0.0250000000000057
 50
180.0
 51
270.0
  0
ARC
  5
95
  8
0
  6
CONTINUOUS
 62
     7
 10
99.015046463
 20
146.1401691662
 30
0.0
 40
0.0250000000000057
 50
90.0
 51
180.0
  0
ARC
  5
96
  8
0
  6
CONTINUOUS
 62
     7
 10
99.215046463
 20
146.1401691662
 30
0.0
 40
0.0249999999999915
 50
0.0
 51
90.0
  0
ARC
  5
97
  8
0
  6
CONTINUOUS
 62
     7
 10
99.215046463
 20
145.0401691662
 30
0.0
 40
0.0250000000000057
 50
270.0
 51
0.0
  0
LINE
  5
98
  8
0
  6
CONTINUOUS
 62
     7
 10
97.8535589759
 20
145.0151692912
 30
0.0
 11
98.0535591018
 21
145.0151692912
 31
0.0
  0
LINE
  5
99
  8
0
  6
CONTINUOUS
 62
     7
 10
98.0535591018
 20
146.1651692003
 30
0.0
 11
97.8535589759
 21
146.1651692003
 31
0.0
  0
LINE
  5
9A
  8
0
  6
CONTINUOUS
 62
     7
 10
97.8285590184
 20
146.1401687771
 30
0.0
 11
97.5785589774
 21
146.1401687771
 31
0.0
  0
LINE
  5
9B
  8
0
  6
CONTINUOUS
 62
     7
 10
97.5785589774
 20
145.0401687831
 30
0.0
 11
97.8285590184
 21
145.0401687831
 31
0.0
  0
LINE
  5
9C
  8
0
  6
CONTINUOUS
 62
     7
 10
98.3285591003
 20
146.1401687771
 30
0.0
 11
98.0785590593
 21
146.1401687771
 31
0.0
  0
LINE
  5
9D
  8
0
  6
CONTINUOUS
 62
     7
 10
98.0785590593
 20
145.0401687831
 30
0.0
 11
98.3285591003
 21
145.0401687831
 31
0.0
  0
ARC
  5
9E
  8
0
  6
CONTINUOUS
 62
     7
 10
99.590046463
 20
145.7401691662
 30
0.0
 40
0.4000000000000341
 50
0.0
 51
90.0
  0
ARC
  5
9F
  8
0
  6
CONTINUOUS
 62
     7
 10
99.590046463
 20
145.4401691662
 30
0.0
 40
0.4000000000000057
 50
270.0
 51
0.0
  0
LINE
  5
A0
  8
0
  6
CONTINUOUS
 62
     7
 10
99.5900464707
 20
146.1401687771
 30
0.0
 11
99.2400463667
 21
146.1401687771
 31
0.0
  0
LINE
  5
A1
  8
0
  6
CONTINUOUS
 62
     7
 10
99.2400463667
 20
145.0401687831
 30
0.0
 11
99.5900464707
 21
145.0401687831
 31
0.0
  0
LINE
  5
A2
  8
0
  6
CONTINUOUS
 62
     7
 10
98.9900463258
 20
146.1401687771
 30
0.0
 11
98.5785586756
 21
146.1401687771
 31
0.0
  0
LINE
  5
A3
  8
0
  6
CONTINUOUS
 62
     7
 10
98.5785586756
 20
145.0401687831
 30
0.0
 11
98.9900463258
 21
145.0401687831
 31
0.0
  0
ARC
  5
A4
  8
0
  6
CONTINUOUS
 62
     7
 10
96.890046463
 20
145.7401691662
 30
0.0
 40
0.4000000000000341
 50
90.0
 51
180.0
  0
ARC
  5
A5
  8
0
  6
CONTINUOUS
 62
     7
 10
96.890046463
 20
145.4401691662
 30
0.0
 40
0.4000000000000057
 50
180.0
 51
270.0
  0
LINE
  5
A6
  8
0
  6
CONTINUOUS
 62
     7
 10
97.3285589364
 20
146.1401687771
 30
0.0
 11
96.8900466335
 21
146.1401687771
 31
0.0
  0
LINE
  5
A7
  8
0
  6
CONTINUOUS
 62
     7
 10
96.8900466335
 20
145.0401687831
 30
0.0
 11
97.3285589364
 21
145.0401687831
 31
0.0
  0
LINE
  5
A8
  8
0
  6
CONTINUOUS
 62
     7
 10
96.4900463816
 20
145.7151690334
 30
0.0
 11
95.9900462997
 21
145.7151690334
 31
0.0
  0
LINE
  5
A9
  8
0
  6
CONTINUOUS
 62
     7
 10
95.9900462997
 20
145.4651694581
 30
0.0
 11
96.4900463816
 21
145.4651694581
 31
0.0
  0
LINE
  5
AA
  8
0
  6
CONTINUOUS
 62
     7
 10
95.9900462997
 20
145.7151690334
 30
0.0
 11
95.4900466834
 21
145.7151690334
 31
0.0
  0
LINE
  5
AB
  8
0
  6
CONTINUOUS
 62
     7
 10
95.4900466834
 20
145.4651694581
 30
0.0
 11
95.9900462997
 21
145.4651694581
 31
0.0
  0
LINE
  5
AC
  8
0
  6
CONTINUOUS
 62
     7
 10
100.4900465716
 20
145.4651694581
 30
0.0
 11
100.9900464208
 21
145.4651694581
 31
0.0
  0
LINE
  5
AD
  8
0
  6
CONTINUOUS
 62
     7
 10
100.9900464208
 20
145.7151690334
 30
0.0
 11
100.4900465716
 21
145.7151690334
 31
0.0
  0
LINE
  5
AE
  8
0
  6
CONTINUOUS
 62
     7
 10
99.9900464897
 20
145.4651694581
 30
0.0
 11
100.4900465716
 21
145.4651694581
 31
0.0
  0
LINE
  5
AF
  8
0
  6
CONTINUOUS
 62
     7
 10
100.4900465716
 20
145.7151690334
 30
0.0
 11
99.9900464897
 21
145.7151690334
 31
0.0
  0
ARC
  5
B0
  8
0
  6
CONTINUOUS
 62
     7
 10
111.621676463
 20
157.522816739
 30
0.0
 40
0.0250000000000057
 50
270.0
 51
0.0
  0
ARC
  5
B1
  8
0
  6
CONTINUOUS
 62
     7
 10
110.521676463
 20
157.522816739
 30
0.0
 40
0.0250000000000057
 50
180.0
 51
270.0
  0
LINE
  5
B2
  8
0
  6
CONTINUOUS
 62
     7
 10
110.4966764335
 20
157.7228162274
 30
0.0
 11
110.4966764335
 21
157.5228165672
 31
0.0
  0
LINE
  5
B3
  8
0
  6
CONTINUOUS
 62
     7
 10
111.6466768083
 20
157.5228165672
 30
0.0
 11
111.6466768083
 21
157.7228162274
 31
0.0
  0
LINE
  5
B4
  8
0
  6
CONTINUOUS
 62
     7
 10
110.4966764335
 20
158.2228172407
 30
0.0
 11
110.4966764335
 21
158.0228175804
 31
0.0
  0
LINE
  5
B5
  8
0
  6
CONTINUOUS
 62
     7
 10
111.6466768083
 20
158.0228175804
 30
0.0
 11
111.6466768083
 21
158.2228172407
 31
0.0
  0
ARC
  5
B6
  8
0
  6
CONTINUOUS
 62
     7
 10
111.621676463
 20
158.522816739
 30
0.0
 40
0.0250000000000057
 50
270.0
 51
0.0
  0
ARC
  5
B7
  8
0
  6
CONTINUOUS
 62
     7
 10
110.521676463
 20
158.522816739
 30
0.0
 40
0.0250000000000057
 50
180.0
 51
270.0
  0
ARC
  5
B8
  8
0
  6
CONTINUOUS
 62
     7
 10
110.521676463
 20
157.0613291662
 30
0.0
 40
0.0250000000000057
 50
90.0
 51
180.0
  0
ARC
  5
B9
  8
0
  6
CONTINUOUS
 62
     7
 10
111.621676463
 20
157.0613291662
 30
0.0
 40
0.0250000000000057
 50
0.0
 51
90.0
  0
LINE
  5
BA
  8
0
  6
CONTINUOUS
 62
     7
 10
110.4966764335
 20
157.0613294676
 30
0.0
 11
110.4966764335
 21
156.8613298074
 31
0.0
  0
LINE
  5
BB
  8
0
  6
CONTINUOUS
 62
     7
 10
111.6466768083
 20
156.8613298074
 30
0.0
 11
111.6466768083
 21
157.0613294676
 31
0.0
  0
ARC
  5
BC
  8
0
  6
CONTINUOUS
 62
     7
 10
111.621676463
 20
156.8613291662
 30
0.0
 40
0.0250000000000341
 50
270.0
 51
0.0
  0
ARC
  5
BD
  8
0
  6
CONTINUOUS
 62
     7
 10
110.521676463
 20
156.8613291662
 30
0.0
 40
0.0250000000000341
 50
180.0
 51
270.0
  0
ARC
  5
BE
  8
0
  6
CONTINUOUS
 62
     7
 10
111.621676463
 20
158.022816739
 30
0.0
 40
0.0250000000000057
 50
270.0
 51
0.0
  0
ARC
  5
BF
  8
0
  6
CONTINUOUS
 62
     7
 10
110.521676463
 20
158.022816739
 30
0.0
 40
0.0250000000000057
 50
180.0
 51
270.0
  0
ARC
  5
C0
  8
0
  6
CONTINUOUS
 62
     7
 10
110.521676463
 20
157.722816739
 30
0.0
 40
0.0250000000000057
 50
90.0
 51
180.0
  0
ARC
  5
C1
  8
0
  6
CONTINUOUS
 62
     7
 10
111.621676463
 20
157.722816739
 30
0.0
 40
0.0250000000000057
 50
0.0
 51
90.0
  0
LINE
  5
C2
  8
0
  6
CONTINUOUS
 62
     7
 10
110.4966764335
 20
158.7228163913
 30
0.0
 11
110.4966764335
 21
158.5228167311
 31
0.0
  0
LINE
  5
C3
  8
0
  6
CONTINUOUS
 62
     7
 10
111.6466768083
 20
158.5228167311
 30
0.0
 11
111.6466768083
 21
158.7228163913
 31
0.0
  0
ARC
  5
C4
  8
0
  6
CONTINUOUS
 62
     7
 10
110.521676463
 20
158.222816739
 30
0.0
 40
0.0250000000000057
 50
90.0
 51
180.0
  0
ARC
  5
C5
  8
0
  6
CONTINUOUS
 62
     7
 10
111.621676463
 20
158.222816739
 30
0.0
 40
0.0250000000000057
 50
0.0
 51
90.0
  0
ARC
  5
C6
  8
0
  6
CONTINUOUS
 62
     7
 10
110.521676463
 20
158.722816739
 30
0.0
 40
0.0250000000000057
 50
90.0
 51
180.0
  0
ARC
  5
C7
  8
0
  6
CONTINUOUS
 62
     7
 10
111.621676463
 20
158.722816739
 30
0.0
 40
0.0250000000000057
 50
0.0
 51
90.0
  0
LINE
  5
C8
  8
0
  6
CONTINUOUS
 62
     7
 10
111.6216763851
 20
157.0863298908
 30
0.0
 11
111.6216763851
 21
157.497816144
 31
0.0
  0
LINE
  5
C9
  8
0
  6
CONTINUOUS
 62
     7
 10
110.5216763911
 20
157.497816144
 30
0.0
 11
110.5216763911
 21
157.0863298908
 31
0.0
  0
LINE
  5
CA
  8
0
  6
CONTINUOUS
 62
     7
 10
111.6216763851
 20
158.2478176639
 30
0.0
 11
111.6216763851
 21
158.4978163079
 31
0.0
  0
LINE
  5
CB
  8
0
  6
CONTINUOUS
 62
     7
 10
110.5216763911
 20
158.4978163079
 30
0.0
 11
110.5216763911
 21
158.2478176639
 31
0.0
  0
LINE
  5
CC
  8
0
  6
CONTINUOUS
 62
     7
 10
111.6216763851
 20
156.4863290474
 30
0.0
 11
111.6216763851
 21
156.8363293842
 31
0.0
  0
LINE
  5
CD
  8
0
  6
CONTINUOUS
 62
     7
 10
110.5216763911
 20
156.8363293842
 30
0.0
 11
110.5216763911
 21
156.4863290474
 31
0.0
  0
LINE
  5
CE
  8
0
  6
CONTINUOUS
 62
     7
 10
111.6216763851
 20
157.7478166506
 30
0.0
 11
111.6216763851
 21
157.9978171572
 31
0.0
  0
LINE
  5
CF
  8
0
  6
CONTINUOUS
 62
     7
 10
110.5216763911
 20
157.9978171572
 30
0.0
 11
110.5216763911
 21
157.7478166506
 31
0.0
  0
LINE
  5
D0
  8
0
  6
CONTINUOUS
 62
     7
 10
111.6216763851
 20
158.7478168145
 30
0.0
 11
111.6216763851
 21
159.1863300488
 31
0.0
  0
LINE
  5
D1
  8
0
  6
CONTINUOUS
 62
     7
 10
110.5216763911
 20
159.1863300488
 30
0.0
 11
110.5216763911
 21
158.7478168145
 31
0.0
  0
ARC
  5
D2
  8
0
  6
CONTINUOUS
 62
     7
 10
111.221676463
 20
156.4863291662
 30
0.0
 40
0.4000000000000341
 50
270.0
 51
0.0
  0
ARC
  5
D3
  8
0
  6
CONTINUOUS
 62
     7
 10
110.921676463
 20
156.4863291662
 30
0.0
 40
0.4000000000000341
 50
180.0
 51
270.0
  0
ARC
  5
D4
  8
0
  6
CONTINUOUS
 62
     7
 10
111.221676463
 20
159.1863291662
 30
0.0
 40
0.3999999999999915
 50
0.0
 51
90.0
  0
ARC
  5
D5
  8
0
  6
CONTINUOUS
 62
     7
 10
110.921676463
 20
159.1863291662
 30
0.0
 40
0.4000000000000057
 50
90.0
 51
180.0
  0
LINE
  5
D6
  8
0
  6
CONTINUOUS
 62
     7
 10
111.1966766414
 20
159.5863293693
 30
0.0
 11
111.1966766414
 21
160.0863285199
 31
0.0
  0
LINE
  5
D7
  8
0
  6
CONTINUOUS
 62
     7
 10
110.9466766004
 20
160.0863285199
 30
0.0
 11
110.9466766004
 21
159.5863293693
 31
0.0
  0
LINE
  5
D8
  8
0
  6
CONTINUOUS
 62
     7
 10
111.1966766414
 20
160.0863285199
 30
0.0
 11
111.1966766414
 21
160.5863295332
 31
0.0
  0
LINE
  5
D9
  8
0
  6
CONTINUOUS
 62
     7
 10
110.9466766004
 20
160.5863295332
 30
0.0
 11
110.9466766004
 21
160.0863285199
 31
0.0
  0
LINE
  5
DA
  8
0
  6
CONTINUOUS
 62
     7
 10
110.9466766004
 20
156.0863297269
 30
0.0
 11
110.9466766004
 21
155.5863287136
 31
0.0
  0
LINE
  5
DB
  8
0
  6
CONTINUOUS
 62
     7
 10
111.1966766414
 20
155.5863287136
 30
0.0
 11
111.1966766414
 21
156.0863297269
 31
0.0
  0
LINE
  5
DC
  8
0
  6
CONTINUOUS
 62
     7
 10
110.9466766004
 20
155.5863287136
 30
0.0
 11
110.9466766004
 21
155.086329563
 31
0.0
  0
LINE
  5
DD
  8
0
  6
CONTINUOUS
 62
     7
 10
111.1966766414
 20
155.086329563
 30
0.0
 11
111.1966766414
 21
155.5863287136
 31
0.0
  0
ARC
  5
DE
  8
0
  6
CONTINUOUS
 62
     7
 10
113.390786463
 20
157.540596739
 30
0.0
 40
0.0249999999999915
 50
270.0
 51
0.0
  0
ARC
  5
DF
  8
0
  6
CONTINUOUS
 62
     7
 10
112.290786463
 20
157.540596739
 30
0.0
 40
0.0249999999999915
 50
180.0
 51
270.0
  0
ARC
  5
E0
  8
0
  6
CONTINUOUS
 62
     7
 10
112.290786463
 20
157.0791091662
 30
0.0
 40
0.0250000000000341
 50
90.0
 51
180.0
  0
ARC
  5
E1
  8
0
  6
CONTINUOUS
 62
     7
 10
113.390786463
 20
157.0791091662
 30
0.0
 40
0.0250000000000341
 50
0.0
 51
90.0
  0
ARC
  5
E2
  8
0
  6
CONTINUOUS
 62
     7
 10
113.390786463
 20
158.540596739
 30
0.0
 40
0.0249999999999915
 50
270.0
 51
0.0
  0
ARC
  5
E3
  8
0
  6
CONTINUOUS
 62
     7
 10
112.290786463
 20
158.540596739
 30
0.0
 40
0.0249999999999915
 50
180.0
 51
270.0
  0
LINE
  5
E4
  8
0
  6
CONTINUOUS
 62
     7
 10
112.2657865283
 20
158.7405972019
 30
0.0
 11
112.2657865283
 21
158.5405975417
 31
0.0
  0
LINE
  5
E5
  8
0
  6
CONTINUOUS
 62
     7
 10
113.4157864374
 20
158.5405975417
 30
0.0
 11
113.4157864374
 21
158.7405972019
 31
0.0
  0
LINE
  5
E6
  8
0
  6
CONTINUOUS
 62
     7
 10
112.2657865283
 20
158.2405961886
 30
0.0
 11
112.2657865283
 21
158.0405965284
 31
0.0
  0
LINE
  5
E7
  8
0
  6
CONTINUOUS
 62
     7
 10
113.4157864374
 20
158.0405965284
 30
0.0
 11
113.4157864374
 21
158.2405961886
 31
0.0
  0
ARC
  5
E8
  8
0
  6
CONTINUOUS
 62
     7
 10
112.290786463
 20
158.240596739
 30
0.0
 40
0.0250000000000057
 50
90.0
 51
180.0
  0
ARC
  5
E9
  8
0
  6
CONTINUOUS
 62
     7
 10
113.390786463
 20
158.240596739
 30
0.0
 40
0.0250000000000057
 50
0.0
 51
90.0
  0
ARC
  5
EA
  8
0
  6
CONTINUOUS
 62
     7
 10
112.290786463
 20
158.740596739
 30
0.0
 40
0.0250000000000057
 50
90.0
 51
180.0
  0
ARC
  5
EB
  8
0
  6
CONTINUOUS
 62
     7
 10
113.390786463
 20
158.740596739
 30
0.0
 40
0.0250000000000057
 50
0.0
 51
90.0
  0
ARC
  5
EC
  8
0
  6
CONTINUOUS
 62
     7
 10
113.390786463
 20
158.040596739
 30
0.0
 40
0.0249999999999915
 50
270.0
 51
0.0
  0
ARC
  5
ED
  8
0
  6
CONTINUOUS
 62
     7
 10
112.290786463
 20
158.040596739
 30
0.0
 40
0.0249999999999915
 50
180.0
 51
270.0
  0
LINE
  5
EE
  8
0
  6
CONTINUOUS
 62
     7
 10
112.2657865283
 20
157.0791084156
 30
0.0
 11
112.2657865283
 21
156.8791087553
 31
0.0
  0
LINE
  5
EF
  8
0
  6
CONTINUOUS
 62
     7
 10
113.4157864374
 20
156.8791087553
 30
0.0
 11
113.4157864374
 21
157.0791084156
 31
0.0
  0
ARC
  5
F0
  8
0
  6
CONTINUOUS
 62
     7
 10
112.290786463
 20
157.740596739
 30
0.0
 40
0.0250000000000057
 50
90.0
 51
180.0
  0
ARC
  5
F1
  8
0
  6
CONTINUOUS
 62
     7
 10
113.390786463
 20
157.740596739
 30
0.0
 40
0.0250000000000057
 50
0.0
 51
90.0
  0
ARC
  5
F2
  8
0
  6
CONTINUOUS
 62
     7
 10
113.390786463
 20
156.8791091662
 30
0.0
 40
0.0250000000000057
 50
270.0
 51
0.0
  0
ARC
  5
F3
  8
0
  6
CONTINUOUS
 62
     7
 10
112.290786463
 20
156.8791091662
 30
0.0
 40
0.0250000000000057
 50
180.0
 51
270.0
  0
LINE
  5
F4
  8
0
  6
CONTINUOUS
 62
     7
 10
112.2657865283
 20
157.740597038
 30
0.0
 11
112.2657865283
 21
157.5405973777
 31
0.0
  0
LINE
  5
F5
  8
0
  6
CONTINUOUS
 62
     7
 10
113.4157864374
 20
157.5405973777
 30
0.0
 11
113.4157864374
 21
157.740597038
 31
0.0
  0
LINE
  5
F6
  8
0
  6
CONTINUOUS
 62
     7
 10
113.3907860142
 20
158.2655966118
 30
0.0
 11
113.3907860142
 21
158.5155971185
 31
0.0
  0
LINE
  5
F7
  8
0
  6
CONTINUOUS
 62
     7
 10
112.2907860202
 20
158.5155971185
 30
0.0
 11
112.2907860202
 21
158.2655966118
 31
0.0
  0
LINE
  5
F8
  8
0
  6
CONTINUOUS
 62
     7
 10
113.3907860142
 20
158.7655976251
 30
0.0
 11
113.3907860142
 21
159.2041089967
 31
0.0
  0
LINE
  5
F9
  8
0
  6
CONTINUOUS
 62
     7
 10
112.2907860202
 20
159.2041089967
 30
0.0
 11
112.2907860202
 21
158.7655976251
 31
0.0
  0
LINE
  5
FA
  8
0
  6
CONTINUOUS
 62
     7
 10
113.3907860142
 20
157.1041088388
 30
0.0
 11
113.3907860142
 21
157.5155969546
 31
0.0
  0
LINE
  5
FB
  8
0
  6
CONTINUOUS
 62
     7
 10
112.2907860202
 20
157.5155969546
 30
0.0
 11
112.2907860202
 21
157.1041088388
 31
0.0
  0
LINE
  5
FC
  8
0
  6
CONTINUOUS
 62
     7
 10
113.3907860142
 20
157.7655974612
 30
0.0
 11
113.3907860142
 21
158.0155961052
 31
0.0
  0
LINE
  5
FD
  8
0
  6
CONTINUOUS
 62
     7
 10
112.2907860202
 20
158.0155961052
 30
0.0
 11
112.2907860202
 21
157.7655974612
 31
0.0
  0
ARC
  5
FE
  8
0
  6
CONTINUOUS
 62
     7
 10
112.990786463
 20
156.5041091662
 30
0.0
 40
0.4000000000000057
 50
270.0
 51
0.0
  0
ARC
  5
FF
  8
0
  6
CONTINUOUS
 62
     7
 10
112.690786463
 20
156.5041091662
 30
0.0
 40
0.3999999999999915
 50
180.0
 51
270.0
  0
LINE
  5
100
  8
0
  6
CONTINUOUS
 62
     7
 10
113.3907860142
 20
156.504109858
 30
0.0
 11
113.3907860142
 21
156.8541083321
 31
0.0
  0
LINE
  5
101
  8
0
  6
CONTINUOUS
 62
     7
 10
112.2907860202
 20
156.8541083321
 30
0.0
 11
112.2907860202
 21
156.504109858
 31
0.0
  0
ARC
  5
102
  8
0
  6
CONTINUOUS
 62
     7
 10
112.990786463
 20
159.2041091662
 30
0.0
 40
0.4000000000000341
 50
0.0
 51
90.0
  0
ARC
  5
103
  8
0
  6
CONTINUOUS
 62
     7
 10
112.690786463
 20
159.2041091662
 30
0.0
 40
0.4000000000000341
 50
90.0
 51
180.0
  0
LINE
  5
104
  8
0
  6
CONTINUOUS
 62
     7
 10
112.7157866952
 20
156.1041086749
 30
0.0
 11
112.7157866952
 21
155.6041095242
 31
0.0
  0
LINE
  5
105
  8
0
  6
CONTINUOUS
 62
     7
 10
112.9657862705
 20
155.6041095242
 30
0.0
 11
112.9657862705
 21
156.1041086749
 31
0.0
  0
LINE
  5
106
  8
0
  6
CONTINUOUS
 62
     7
 10
112.9657862705
 20
159.6041083172
 30
0.0
 11
112.9657862705
 21
160.1041093305
 31
0.0
  0
LINE
  5
107
  8
0
  6
CONTINUOUS
 62
     7
 10
112.7157866952
 20
160.1041093305
 30
0.0
 11
112.7157866952
 21
159.6041083172
 31
0.0
  0
LINE
  5
108
  8
0
  6
CONTINUOUS
 62
     7
 10
112.9657862705
 20
160.1041093305
 30
0.0
 11
112.9657862705
 21
160.6041084811
 31
0.0
  0
LINE
  5
109
  8
0
  6
CONTINUOUS
 62
     7
 10
112.7157866952
 20
160.6041084811
 30
0.0
 11
112.7157866952
 21
160.1041093305
 31
0.0
  0
LINE
  5
10A
  8
0
  6
CONTINUOUS
 62
     7
 10
112.7157866952
 20
155.6041095242
 30
0.0
 11
112.7157866952
 21
155.1041085109
 31
0.0
  0
LINE
  5
10B
  8
0
  6
CONTINUOUS
 62
     7
 10
112.9657862705
 20
155.1041085109
 30
0.0
 11
112.9657862705
 21
155.6041095242
 31
0.0
  0
ARC
  5
10C
  8
0
  6
CONTINUOUS
 62
     7
 10
91.189736463
 20
157.377376739
 30
0.0
 40
0.0250000000000057
 50
90.0
 51
180.0
  0
ARC
  5
10D
  8
0
  6
CONTINUOUS
 62
     7
 10
92.289736463
 20
157.377376739
 30
0.0
 40
0.0250000000000057
 50
0.0
 51
90.0
  0
ARC
  5
10E
  8
0
  6
CONTINUOUS
 62
     7
 10
91.189736463
 20
156.7158891662
 30
0.0
 40
0.0250000000000057
 50
90.0
 51
180.0
  0
ARC
  5
10F
  8
0
  6
CONTINUOUS
 62
     7
 10
92.289736463
 20
156.7158891662
 30
0.0
 40
0.0250000000000057
 50
0.0
 51
90.0
  0
ARC
  5
110
  8
0
  6
CONTINUOUS
 62
     7
 10
92.289736463
 20
157.177376739
 30
0.0
 40
0.0250000000000057
 50
270.0
 51
0.0
  0
ARC
  5
111
  8
0
  6
CONTINUOUS
 62
     7
 10
91.189736463
 20
157.177376739
 30
0.0
 40
0.0250000000000057
 50
180.0
 51
270.0
  0
ARC
  5
112
  8
0
  6
CONTINUOUS
 62
     7
 10
92.289736463
 20
156.5158891662
 30
0.0
 40
0.0250000000000057
 50
270.0
 51
0.0
  0
ARC
  5
113
  8
0
  6
CONTINUOUS
 62
     7
 10
91.189736463
 20
156.5158891662
 30
0.0
 40
0.0250000000000057
 50
180.0
 51
270.0
  0
LINE
  5
114
  8
0
  6
CONTINUOUS
 62
     7
 10
91.1647364494
 20
157.8773766592
 30
0.0
 11
91.1647364494
 21
157.677376999
 31
0.0
  0
LINE
  5
115
  8
0
  6
CONTINUOUS
 62
     7
 10
92.3147363585
 20
157.677376999
 30
0.0
 11
92.3147363585
 21
157.8773766592
 31
0.0
  0
LINE
  5
116
  8
0
  6
CONTINUOUS
 62
     7
 10
91.1647364494
 20
156.7158888862
 30
0.0
 11
91.1647364494
 21
156.5158892259
 31
0.0
  0
LINE
  5
117
  8
0
  6
CONTINUOUS
 62
     7
 10
92.3147363585
 20
156.5158892259
 30
0.0
 11
92.3147363585
 21
156.7158888862
 31
0.0
  0
ARC
  5
118
  8
0
  6
CONTINUOUS
 62
     7
 10
92.289736463
 20
157.677376739
 30
0.0
 40
0.0250000000000057
 50
270.0
 51
0.0
  0
ARC
  5
119
  8
0
  6
CONTINUOUS
 62
     7
 10
91.189736463
 20
157.677376739
 30
0.0
 40
0.0250000000000057
 50
180.0
 51
270.0
  0
ARC
  5
11A
  8
0
  6
CONTINUOUS
 62
     7
 10
91.189736463
 20
158.377376739
 30
0.0
 40
0.0250000000000057
 50
90.0
 51
180.0
  0
ARC
  5
11B
  8
0
  6
CONTINUOUS
 62
     7
 10
92.289736463
 20
158.377376739
 30
0.0
 40
0.0250000000000057
 50
0.0
 51
90.0
  0
LINE
  5
11C
  8
0
  6
CONTINUOUS
 62
     7
 10
91.1647364494
 20
158.3773758099
 30
0.0
 11
91.1647364494
 21
158.1773761496
 31
0.0
  0
LINE
  5
11D
  8
0
  6
CONTINUOUS
 62
     7
 10
92.3147363585
 20
158.1773761496
 30
0.0
 11
92.3147363585
 21
158.3773758099
 31
0.0
  0
ARC
  5
11E
  8
0
  6
CONTINUOUS
 62
     7
 10
92.289736463
 20
158.177376739
 30
0.0
 40
0.0250000000000057
 50
270.0
 51
0.0
  0
ARC
  5
11F
  8
0
  6
CONTINUOUS
 62
     7
 10
91.189736463
 20
158.177376739
 30
0.0
 40
0.0250000000000057
 50
180.0
 51
270.0
  0
ARC
  5
120
  8
0
  6
CONTINUOUS
 62
     7
 10
91.189736463
 20
157.877376739
 30
0.0
 40
0.0250000000000057
 50
90.0
 51
180.0
  0
ARC
  5
121
  8
0
  6
CONTINUOUS
 62
     7
 10
92.289736463
 20
157.877376739
 30
0.0
 40
0.0250000000000057
 50
0.0
 51
90.0
  0
LINE
  5
122
  8
0
  6
CONTINUOUS
 62
     7
 10
91.1647364494
 20
157.3773775086
 30
0.0
 11
91.1647364494
 21
157.1773759857
 31
0.0
  0
LINE
  5
123
  8
0
  6
CONTINUOUS
 62
     7
 10
92.3147363585
 20
157.1773759857
 30
0.0
 11
92.3147363585
 21
157.3773775086
 31
0.0
  0
LINE
  5
124
  8
0
  6
CONTINUOUS
 62
     7
 10
92.2897368666
 20
157.9023770824
 30
0.0
 11
92.2897368666
 21
158.1523775891
 31
0.0
  0
LINE
  5
125
  8
0
  6
CONTINUOUS
 62
     7
 10
91.1897368726
 20
158.1523775891
 30
0.0
 11
91.1897368726
 21
157.9023770824
 31
0.0
  0
LINE
  5
126
  8
0
  6
CONTINUOUS
 62
     7
 10
92.2897368666
 20
158.4023762331
 30
0.0
 11
92.2897368666
 21
158.8408894673
 31
0.0
  0
LINE
  5
127
  8
0
  6
CONTINUOUS
 62
     7
 10
91.1897368726
 20
158.8408894673
 30
0.0
 11
91.1897368726
 21
158.4023762331
 31
0.0
  0
ARC
  5
128
  8
0
  6
CONTINUOUS
 62
     7
 10
91.889736463
 20
158.8408891662
 30
0.0
 40
0.4000000000000057
 50
0.0
 51
90.0
  0
ARC
  5
129
  8
0
  6
CONTINUOUS
 62
     7
 10
91.589736463
 20
158.8408891662
 30
0.0
 40
0.4000000000000057
 50
90.0
 51
180.0
  0
LINE
  5
12A
  8
0
  6
CONTINUOUS
 62
     7
 10
92.2897368666
 20
156.140888466
 30
0.0
 11
92.2897368666
 21
156.4908888027
 31
0.0
  0
LINE
  5
12B
  8
0
  6
CONTINUOUS
 62
     7
 10
91.1897368726
 20
156.4908888027
 30
0.0
 11
91.1897368726
 21
156.140888466
 31
0.0
  0
LINE
  5
12C
  8
0
  6
CONTINUOUS
 62
     7
 10
92.2897368666
 20
157.4023760692
 30
0.0
 11
92.2897368666
 21
157.6523765758
 31
0.0
  0
LINE
  5
12D
  8
0
  6
CONTINUOUS
 62
     7
 10
91.1897368726
 20
157.6523765758
 30
0.0
 11
91.1897368726
 21
157.4023760692
 31
0.0
  0
ARC
  5
12E
  8
0
  6
CONTINUOUS
 62
     7
 10
91.889736463
 20
156.1408891662
 30
0.0
 40
0.4000000000000057
 50
270.0
 51
0.0
  0
ARC
  5
12F
  8
0
  6
CONTINUOUS
 62
     7
 10
91.589736463
 20
156.1408891662
 30
0.0
 40
0.4000000000000057
 50
180.0
 51
270.0
  0
LINE
  5
130
  8
0
  6
CONTINUOUS
 62
     7
 10
92.2897368666
 20
156.7408893094
 30
0.0
 11
92.2897368666
 21
157.1523774252
 31
0.0
  0
LINE
  5
131
  8
0
  6
CONTINUOUS
 62
     7
 10
91.1897368726
 20
157.1523774252
 30
0.0
 11
91.1897368726
 21
156.7408893094
 31
0.0
  0
LINE
  5
132
  8
0
  6
CONTINUOUS
 62
     7
 10
91.6147366163
 20
155.7408891455
 30
0.0
 11
91.6147366163
 21
155.2408899948
 31
0.0
  0
LINE
  5
133
  8
0
  6
CONTINUOUS
 62
     7
 10
91.8647361916
 20
155.2408899948
 30
0.0
 11
91.8647361916
 21
155.7408891455
 31
0.0
  0
LINE
  5
134
  8
0
  6
CONTINUOUS
 62
     7
 10
91.8647361916
 20
159.7408898011
 30
0.0
 11
91.8647361916
 21
160.2408889517
 31
0.0
  0
LINE
  5
135
  8
0
  6
CONTINUOUS
 62
     7
 10
91.6147366163
 20
160.2408889517
 30
0.0
 11
91.6147366163
 21
159.7408898011
 31
0.0
  0
LINE
  5
136
  8
0
  6
CONTINUOUS
 62
     7
 10
91.6147366163
 20
155.2408899948
 30
0.0
 11
91.6147366163
 21
154.7408889815
 31
0.0
  0
LINE
  5
137
  8
0
  6
CONTINUOUS
 62
     7
 10
91.8647361916
 20
154.7408889815
 30
0.0
 11
91.8647361916
 21
155.2408899948
 31
0.0
  0
LINE
  5
138
  8
0
  6
CONTINUOUS
 62
     7
 10
91.8647361916
 20
159.2408887878
 30
0.0
 11
91.8647361916
 21
159.7408898011
 31
0.0
  0
LINE
  5
139
  8
0
  6
CONTINUOUS
 62
     7
 10
91.6147366163
 20
159.7408898011
 30
0.0
 11
91.6147366163
 21
159.2408887878
 31
0.0
  0
ARC
  5
13A
  8
0
  6
CONTINUOUS
 62
     7
 10
92.939796463
 20
157.377376739
 30
0.0
 40
0.0250000000000057
 50
90.0
 51
180.0
  0
ARC
  5
13B
  8
0
  6
CONTINUOUS
 62
     7
 10
94.039796463
 20
157.377376739
 30
0.0
 40
0.0250000000000057
 50
0.0
 51
90.0
  0
ARC
  5
13C
  8
0
  6
CONTINUOUS
 62
     7
 10
94.039796463
 20
157.177376739
 30
0.0
 40
0.0250000000000057
 50
270.0
 51
0.0
  0
ARC
  5
13D
  8
0
  6
CONTINUOUS
 62
     7
 10
92.939796463
 20
157.177376739
 30
0.0
 40
0.0250000000000057
 50
180.0
 51
270.0
  0
ARC
  5
13E
  8
0
  6
CONTINUOUS
 62
     7
 10
92.939796463
 20
156.7158891662
 30
0.0
 40
0.0250000000000057
 50
90.0
 51
180.0
  0
ARC
  5
13F
  8
0
  6
CONTINUOUS
 62
     7
 10
94.039796463
 20
156.7158891662
 30
0.0
 40
0.0250000000000057
 50
0.0
 51
90.0
  0
LINE
  5
140
  8
0
  6
CONTINUOUS
 62
     7
 10
92.9147968066
 20
158.3773758099
 30
0.0
 11
92.9147968066
 21
158.1773761496
 31
0.0
  0
LINE
  5
141
  8
0
  6
CONTINUOUS
 62
     7
 10
94.0647967157
 20
158.1773761496
 30
0.0
 11
94.0647967157
 21
158.3773758099
 31
0.0
  0
LINE
  5
142
  8
0
  6
CONTINUOUS
 62
     7
 10
92.9147968066
 20
157.8773766592
 30
0.0
 11
92.9147968066
 21
157.677376999
 31
0.0
  0
LINE
  5
143
  8
0
  6
CONTINUOUS
 62
     7
 10
94.0647967157
 20
157.677376999
 30
0.0
 11
94.0647967157
 21
157.8773766592
 31
0.0
  0
ARC
  5
144
  8
0
  6
CONTINUOUS
 62
     7
 10
94.039796463
 20
158.177376739
 30
0.0
 40
0.0250000000000057
 50
270.0
 51
0.0
  0
ARC
  5
145
  8
0
  6
CONTINUOUS
 62
     7
 10
92.939796463
 20
158.177376739
 30
0.0
 40
0.0250000000000057
 50
180.0
 51
270.0
  0
ARC
  5
146
  8
0
  6
CONTINUOUS
 62
     7
 10
94.039796463
 20
157.677376739
 30
0.0
 40
0.0250000000000057
 50
270.0
 51
0.0
  0
ARC
  5
147
  8
0
  6
CONTINUOUS
 62
     7
 10
92.939796463
 20
157.677376739
 30
0.0
 40
0.0250000000000057
 50
180.0
 51
270.0
  0
ARC
  5
148
  8
0
  6
CONTINUOUS
 62
     7
 10
92.939796463
 20
158.377376739
 30
0.0
 40
0.0250000000000057
 50
90.0
 51
180.0
  0
ARC
  5
149
  8
0
  6
CONTINUOUS
 62
     7
 10
94.039796463
 20
158.377376739
 30
0.0
 40
0.0250000000000057
 50
0.0
 51
90.0
  0
LINE
  5
14A
  8
0
  6
CONTINUOUS
 62
     7
 10
92.9147968066
 20
157.3773775086
 30
0.0
 11
92.9147968066
 21
157.1773759857
 31
0.0
  0
LINE
  5
14B
  8
0
  6
CONTINUOUS
 62
     7
 10
94.0647967157
 20
157.1773759857
 30
0.0
 11
94.0647967157
 21
157.3773775086
 31
0.0
  0
LINE
  5
14C
  8
0
  6
CONTINUOUS
 62
     7
 10
92.9147968066
 20
156.7158888862
 30
0.0
 11
92.9147968066
 21
156.5158892259
 31
0.0
  0
LINE
  5
14D
  8
0
  6
CONTINUOUS
 62
     7
 10
94.0647967157
 20
156.5158892259
 30
0.0
 11
94.0647967157
 21
156.7158888862
 31
0.0
  0
ARC
  5
14E
  8
0
  6
CONTINUOUS
 62
     7
 10
92.939796463
 20
157.877376739
 30
0.0
 40
0.0250000000000057
 50
90.0
 51
180.0
  0
ARC
  5
14F
  8
0
  6
CONTINUOUS
 62
     7
 10
94.039796463
 20
157.877376739
 30
0.0
 40
0.0250000000000057
 50
0.0
 51
90.0
  0
ARC
  5
150
  8
0
  6
CONTINUOUS
 62
     7
 10
94.039796463
 20
156.5158891662
 30
0.0
 40
0.0250000000000057
 50
270.0
 51
0.0
  0
ARC
  5
151
  8
0
  6
CONTINUOUS
 62
     7
 10
92.939796463
 20
156.5158891662
 30
0.0
 40
0.0250000000000057
 50
180.0
 51
270.0
  0
LINE
  5
152
  8
0
  6
CONTINUOUS
 62
     7
 10
94.0397962925
 20
157.9023770824
 30
0.0
 11
94.0397962925
 21
158.1523775891
 31
0.0
  0
LINE
  5
153
  8
0
  6
CONTINUOUS
 62
     7
 10
92.9397962984
 20
158.1523775891
 30
0.0
 11
92.9397962984
 21
157.9023770824
 31
0.0
  0
LINE
  5
154
  8
0
  6
CONTINUOUS
 62
     7
 10
94.0397962925
 20
157.4023760692
 30
0.0
 11
94.0397962925
 21
157.6523765758
 31
0.0
  0
LINE
  5
155
  8
0
  6
CONTINUOUS
 62
     7
 10
92.9397962984
 20
157.6523765758
 30
0.0
 11
92.9397962984
 21
157.4023760692
 31
0.0
  0
LINE
  5
156
  8
0
  6
CONTINUOUS
 62
     7
 10
94.0397962925
 20
156.7408893094
 30
0.0
 11
94.0397962925
 21
157.1523774252
 31
0.0
  0
LINE
  5
157
  8
0
  6
CONTINUOUS
 62
     7
 10
92.9397962984
 20
157.1523774252
 30
0.0
 11
92.9397962984
 21
156.7408893094
 31
0.0
  0
LINE
  5
158
  8
0
  6
CONTINUOUS
 62
     7
 10
94.0397962925
 20
156.140888466
 30
0.0
 11
94.0397962925
 21
156.4908888027
 31
0.0
  0
LINE
  5
159
  8
0
  6
CONTINUOUS
 62
     7
 10
92.9397962984
 20
156.4908888027
 30
0.0
 11
92.9397962984
 21
156.140888466
 31
0.0
  0
ARC
  5
15A
  8
0
  6
CONTINUOUS
 62
     7
 10
93.639796463
 20
158.8408891662
 30
0.0
 40
0.4000000000000057
 50
0.0
 51
90.0
  0
ARC
  5
15B
  8
0
  6
CONTINUOUS
 62
     7
 10
93.339796463
 20
158.8408891662
 30
0.0
 40
0.3999999999999915
 50
90.0
 51
180.0
  0
LINE
  5
15C
  8
0
  6
CONTINUOUS
 62
     7
 10
94.0397962925
 20
158.4023762331
 30
0.0
 11
94.0397962925
 21
158.8408894673
 31
0.0
  0
LINE
  5
15D
  8
0
  6
CONTINUOUS
 62
     7
 10
92.9397962984
 20
158.8408894673
 30
0.0
 11
92.9397962984
 21
158.4023762331
 31
0.0
  0
ARC
  5
15E
  8
0
  6
CONTINUOUS
 62
     7
 10
93.639796463
 20
156.1408891662
 30
0.0
 40
0.4000000000000057
 50
270.0
 51
0.0
  0
ARC
  5
15F
  8
0
  6
CONTINUOUS
 62
     7
 10
93.339796463
 20
156.1408891662
 30
0.0
 40
0.4000000000000057
 50
180.0
 51
270.0
  0
LINE
  5
160
  8
0
  6
CONTINUOUS
 62
     7
 10
93.3647960421
 20
155.7408891455
 30
0.0
 11
93.3647960421
 21
155.2408899948
 31
0.0
  0
LINE
  5
161
  8
0
  6
CONTINUOUS
 62
     7
 10
93.6147965488
 20
155.2408899948
 30
0.0
 11
93.6147965488
 21
155.7408891455
 31
0.0
  0
LINE
  5
162
  8
0
  6
CONTINUOUS
 62
     7
 10
93.6147965488
 20
159.7408898011
 30
0.0
 11
93.6147965488
 21
160.2408889517
 31
0.0
  0
LINE
  5
163
  8
0
  6
CONTINUOUS
 62
     7
 10
93.3647960421
 20
160.2408889517
 30
0.0
 11
93.3647960421
 21
159.7408898011
 31
0.0
  0
LINE
  5
164
  8
0
  6
CONTINUOUS
 62
     7
 10
93.6147965488
 20
159.2408887878
 30
0.0
 11
93.6147965488
 21
159.7408898011
 31
0.0
  0
LINE
  5
165
  8
0
  6
CONTINUOUS
 62
     7
 10
93.3647960421
 20
159.7408898011
 30
0.0
 11
93.3647960421
 21
159.2408887878
 31
0.0
  0
LINE
  5
166
  8
0
  6
CONTINUOUS
 62
     7
 10
93.3647960421
 20
155.2408899948
 30
0.0
 11
93.3647960421
 21
154.7408889815
 31
0.0
  0
LINE
  5
167
  8
0
  6
CONTINUOUS
 62
     7
 10
93.6147965488
 20
154.7408889815
 30
0.0
 11
93.6147965488
 21
155.2408899948
 31
0.0
  0
LINE
  5
168
  8
0
  6
CONTINUOUS
 62
     7
 10
117.2400064763
 20
151.7402691603
 30
0.0
 11
118.1900067252
 21
151.7402691603
 31
0.0
  0
LINE
  5
169
  8
0
  6
CONTINUOUS
 62
     7
 10
118.1900067252
 20
153.7402685568
 30
0.0
 11
117.2400064763
 21
153.7402685568
 31
0.0
  0
LINE
  5
16A
  8
0
  6
CONTINUOUS
 62
     7
 10
117.2400064763
 20
144.2396490671
 30
0.0
 11
118.1900067252
 21
144.2396490671
 31
0.0
  0
LINE
  5
16B
  8
0
  6
CONTINUOUS
 62
     7
 10
118.1900067252
 20
146.2396489293
 30
0.0
 11
117.2400064763
 21
146.2396489293
 31
0.0
  0
LINE
  5
16C
  8
0
  6
CONTINUOUS
 62
     7
 10
87.2401868921
 20
153.7415388808
 30
0.0
 11
86.290185712
 21
153.7415388808
 31
0.0
  0
LINE
  5
16D
  8
0
  6
CONTINUOUS
 62
     7
 10
86.290185712
 20
151.7415394843
 30
0.0
 11
87.2401868921
 21
151.7415394843
 31
0.0
  0
LINE
  5
16E
  8
0
  6
CONTINUOUS
 62
     7
 10
87.2401868921
 20
146.2409192533
 30
0.0
 11
86.290185712
 21
146.2409192533
 31
0.0
  0
LINE
  5
16F
  8
0
  6
CONTINUOUS
 62
     7
 10
86.290185712
 20
144.2409193911
 30
0.0
 11
87.2401868921
 21
144.2409193911
 31
0.0
  0
LINE
  5
170
  8
0
  6
CONTINUOUS
 62
     7
 10
118.1950060648
 20
144.2396490671
 30
0.0
 11
118.6950061467
 21
144.2396490671
 31
0.0
  0
LINE
  5
171
  8
0
  6
CONTINUOUS
 62
     7
 10
118.6950061467
 20
146.2396489293
 30
0.0
 11
118.1950060648
 21
146.2396489293
 31
0.0
  0
LINE
  5
172
  8
0
  6
CONTINUOUS
 62
     7
 10
86.2851863724
 20
146.2409192533
 30
0.0
 11
85.7851872218
 21
146.2409192533
 31
0.0
  0
LINE
  5
173
  8
0
  6
CONTINUOUS
 62
     7
 10
85.7851872218
 20
144.2409193911
 30
0.0
 11
86.2851863724
 21
144.2409193911
 31
0.0
  0
LINE
  5
174
  8
0
  6
CONTINUOUS
 62
     7
 10
118.1950060648
 20
151.7402691603
 30
0.0
 11
118.6950061467
 21
151.7402691603
 31
0.0
  0
LINE
  5
175
  8
0
  6
CONTINUOUS
 62
     7
 10
118.6950061467
 20
153.7402685568
 30
0.0
 11
118.1950060648
 21
153.7402685568
 31
0.0
  0
LINE
  5
176
  8
0
  6
CONTINUOUS
 62
     7
 10
86.2851863724
 20
153.7415388808
 30
0.0
 11
85.7851872218
 21
153.7415388808
 31
0.0
  0
LINE
  5
177
  8
0
  6
CONTINUOUS
 62
     7
 10
85.7851872218
 20
151.7415394843
 30
0.0
 11
86.2851863724
 21
151.7415394843
 31
0.0
  0
LINE
  5
178
  8
0
  6
CONTINUOUS
 62
     7
 10
102.142767538
 20
149.9774785549
 30
0.0
 11
102.142767538
 21
149.7406972409
 31
0.0
  0
POLYLINE
  5
179
  8
0
  6
CONTINUOUS
 62
     7
 66
     1
 10
0.0
 20
0.0
 30
0.0
  0
VERTEX
  5
3E4
  8
0
  6
CONTINUOUS
 62
     7
 10
102.142767538
 20
149.7406972409
 30
0.0
  0
VERTEX
  5
3E5
  8
0
  6
CONTINUOUS
 62
     7
 10
102.0954143253
 20
149.7400378645
 30
0.0
  0
VERTEX
  5
3E6
  8
0
  6
CONTINUOUS
 62
     7
 10
101.9837032302
 20
149.7328480542
 30
0.0
  0
VERTEX
  5
3E7
  8
0
  6
CONTINUOUS
 62
     7
 10
101.895115012
 20
149.7195441112
 30
0.0
  0
VERTEX
  5
3E8
  8
0
  6
CONTINUOUS
 62
     7
 10
101.824014587
 20
149.6981348679
 30
0.0
  0
VERTEX
  5
3E9
  8
0
  6
CONTINUOUS
 62
     7
 10
101.793938805
 20
149.6736829937
 30
0.0
  0
VERTEX
  5
3EA
  8
0
  6
CONTINUOUS
 62
     7
 10
101.7927776786
 20
149.6681667701
 30
0.0
  0
VERTEX
  5
3EB
  8
0
  6
CONTINUOUS
 62
     7
 10
101.7927675505
 20
149.6675995946
 30
0.0
  0
SEQEND
  5
467
  8
0
  6
CONTINUOUS
 62
     7
  0
ARC
  5
17A
  8
0
  6
CONTINUOUS
 62
     7
 10
102.1236332912
 20
149.6464928875
 30
0.0
 40
0.3315382805046242
 50
86.691419436
 51
176.3499128204
  0
LINE
  5
17B
  8
0
  6
CONTINUOUS
 62
     7
 10
102.3427675475
 20
149.7406972409
 30
0.0
 11
102.3427675475
 21
149.9774785549
 31
0.0
  0
LINE
  5
17C
  8
0
  6
CONTINUOUS
 62
     7
 10
102.3427675475
 20
149.7406972409
 30
0.0
 11
102.142767538
 21
149.7406972409
 31
0.0
  0
LINE
  5
17D
  8
0
  6
CONTINUOUS
 62
     7
 10
102.3427675475
 20
149.9774785549
 30
0.0
 11
102.142767538
 21
149.9774785549
 31
0.0
  0
ARC
  5
17E
  8
0
  6
CONTINUOUS
 62
     7
 10
102.4285640484
 20
149.2770317733
 30
0.0
 40
0.4715365366263914
 50
55.9232231199
 51
100.4834153368
  0
ARC
  5
17F
  8
0
  6
CONTINUOUS
 62
     7
 10
102.3619017944
 20
149.6464928875
 30
0.0
 40
0.3315382805046242
 50
3.6500871796
 51
93.308580564
  0
LINE
  5
180
  8
0
  6
CONTINUOUS
 62
     7
 10
102.692767535
 20
149.6675995946
 30
0.0
 11
102.692767535
 21
148.360900937
 31
0.0
  0
ARC
  5
181
  8
0
  6
CONTINUOUS
 62
     7
 10
102.4286162472
 20
148.7445307096
 30
0.0
 40
0.4657764541856268
 50
259.3789130371
 51
304.5496594572
  0
LINE
  5
182
  8
0
  6
CONTINUOUS
 62
     7
 10
102.3427675475
 20
148.2867341325
 30
0.0
 11
102.3427675475
 21
149.7406972409
 31
0.0
  0
ARC
  5
183
  8
0
  6
CONTINUOUS
 62
     7
 10
102.3677679573
 20
148.3730878652
 30
0.0
 40
0.3252279919337298
 50
265.5913006418
 51
357.8525124566
  0
LINE
  5
184
  8
0
  6
CONTINUOUS
 62
     7
 10
102.3427675475
 20
148.0488221929
 30
0.0
 11
102.3427675475
 21
148.2867341325
 31
0.0
  0
LINE
  5
185
  8
0
  6
CONTINUOUS
 62
     7
 10
102.3427675475
 20
148.2867341325
 30
0.0
 11
102.142767538
 21
148.2867341325
 31
0.0
  0
LINE
  5
186
  8
0
  6
CONTINUOUS
 62
     7
 10
102.142767538
 20
149.7406972409
 30
0.0
 11
102.142767538
 21
148.2867341325
 31
0.0
  0
POLYLINE
  5
187
  8
0
  6
CONTINUOUS
 62
     7
 66
     1
 10
0.0
 20
0.0
 30
0.0
  0
VERTEX
  5
3EC
  8
0
  6
CONTINUOUS
 62
     7
 10
102.142767538
 20
148.2867341325
 30
0.0
  0
VERTEX
  5
3ED
  8
0
  6
CONTINUOUS
 62
     7
 10
102.0948672897
 20
148.2874195859
 30
0.0
  0
VERTEX
  5
3EE
  8
0
  6
CONTINUOUS
 62
     7
 10
101.9831286042
 20
148.2947639957
 30
0.0
  0
VERTEX
  5
3EF
  8
0
  6
CONTINUOUS
 62
     7
 10
101.8947485366
 20
148.3082830742
 30
0.0
  0
VERTEX
  5
3F0
  8
0
  6
CONTINUOUS
 62
     7
 10
101.8236836183
 20
148.330086267
 30
0.0
  0
VERTEX
  5
3F1
  8
0
  6
CONTINUOUS
 62
     7
 10
101.7938686066
 20
148.3549199835
 30
0.0
  0
VERTEX
  5
3F2
  8
0
  6
CONTINUOUS
 62
     7
 10
101.7927776786
 20
148.360326311
 30
0.0
  0
VERTEX
  5
3F3
  8
0
  6
CONTINUOUS
 62
     7
 10
101.7927675505
 20
148.360900937
 30
0.0
  0
SEQEND
  5
466
  8
0
  6
CONTINUOUS
 62
     7
  0
LINE
  5
188
  8
0
  6
CONTINUOUS
 62
     7
 10
101.7927675505
 20
148.360900937
 30
0.0
 11
101.7927675505
 21
149.6675995946
 31
0.0
  0
LINE
  5
189
  8
0
  6
CONTINUOUS
 62
     7
 10
102.3427675475
 20
148.0488221929
 30
0.0
 11
102.142767538
 21
148.0488221929
 31
0.0
  0
LINE
  5
18A
  8
0
  6
CONTINUOUS
 62
     7
 10
102.142767538
 20
148.2867341325
 30
0.0
 11
102.142767538
 21
148.0488221929
 31
0.0
  0
ARC
  5
18B
  8
0
  6
CONTINUOUS
 62
     7
 10
102.1177671282
 20
148.3730878652
 30
0.0
 40
0.3252279919337298
 50
182.1474875434
 51
274.4086993582
  0
LINE
  5
18C
  8
0
  6
CONTINUOUS
 62
     7
 10
101.7927675505
 20
149.6675995946
 30
0.0
 11
101.7927675505
 21
149.7478078887
 31
0.0
  0
LINE
  5
18D
  8
0
  6
CONTINUOUS
 62
     7
 10
102.692767535
 20
149.7478078887
 30
0.0
 11
102.692767535
 21
149.6675995946
 31
0.0
  0
LINE
  5
18E
  8
0
  6
CONTINUOUS
 62
     7
 10
101.7927675505
 20
148.2844244525
 30
0.0
 11
101.7927675505
 21
148.360900937
 31
0.0
  0
LINE
  5
18F
  8
0
  6
CONTINUOUS
 62
     7
 10
102.692767535
 20
148.360900937
 30
0.0
 11
102.692767535
 21
148.2844244525
 31
0.0
  0
LINE
  5
190
  8
0
  6
CONTINUOUS
 62
     7
 10
102.4427674941
 20
147.9083582595
 30
0.0
 11
102.2677675585
 21
147.9083582595
 31
0.0
  0
LINE
  5
191
  8
0
  6
CONTINUOUS
 62
     7
 10
102.4427674941
 20
147.9083582595
 30
0.0
 11
102.4427674941
 21
147.9490142152
 31
0.0
  0
LINE
  5
192
  8
0
  6
CONTINUOUS
 62
     7
 10
102.2677675585
 20
147.9083582595
 30
0.0
 11
102.217767527
 21
147.9083582595
 31
0.0
  0
LINE
  5
193
  8
0
  6
CONTINUOUS
 62
     7
 10
102.217767527
 20
147.9083582595
 30
0.0
 11
102.0427674751
 21
147.9083582595
 31
0.0
  0
LINE
  5
194
  8
0
  6
CONTINUOUS
 62
     7
 10
102.0427674751
 20
147.9490142152
 30
0.0
 11
102.0427674751
 21
147.9083582595
 31
0.0
  0
LINE
  5
195
  8
0
  6
CONTINUOUS
 62
     7
 10
102.2677675585
 20
147.5333584309
 30
0.0
 11
102.217767527
 21
147.5333584309
 31
0.0
  0
LINE
  5
196
  8
0
  6
CONTINUOUS
 62
     7
 10
102.217767527
 20
147.7083585993
 30
0.0
 11
102.217767527
 21
147.5333584309
 31
0.0
  0
LINE
  5
197
  8
0
  6
CONTINUOUS
 62
     7
 10
102.217767527
 20
147.7083585993
 30
0.0
 11
102.2677675585
 21
147.7083585993
 31
0.0
  0
LINE
  5
198
  8
0
  6
CONTINUOUS
 62
     7
 10
102.2677675585
 20
147.5333584309
 30
0.0
 11
102.2677675585
 21
147.7083585993
 31
0.0
  0
LINE
  5
199
  8
0
  6
CONTINUOUS
 62
     7
 10
102.4427674941
 20
147.7083585993
 30
0.0
 11
102.2677675585
 21
147.7083585993
 31
0.0
  0
ARC
  5
19A
  8
0
  6
CONTINUOUS
 62
     7
 10
102.2677675222
 20
147.7083585054
 30
0.0
 40
0.1750000000000114
 50
270.0
 51
0.0
  0
LINE
  5
19B
  8
0
  6
CONTINUOUS
 62
     7
 10
102.2677675585
 20
147.7083585993
 30
0.0
 11
102.2677675585
 21
147.9083582595
 31
0.0
  0
LINE
  5
19C
  8
0
  6
CONTINUOUS
 62
     7
 10
102.4427674941
 20
147.9083582595
 30
0.0
 11
102.4427674941
 21
147.7083585993
 31
0.0
  0
ARC
  5
19D
  8
0
  6
CONTINUOUS
 62
     7
 10
102.2177675222
 20
147.7083585054
 30
0.0
 40
0.1749999999999972
 50
180.0
 51
270.0
  0
LINE
  5
19E
  8
0
  6
CONTINUOUS
 62
     7
 10
102.217767527
 20
147.7083585993
 30
0.0
 11
102.0427674751
 21
147.7083585993
 31
0.0
  0
LINE
  5
19F
  8
0
  6
CONTINUOUS
 62
     7
 10
102.217767527
 20
147.9083582595
 30
0.0
 11
102.217767527
 21
147.7083585993
 31
0.0
  0
LINE
  5
1A0
  8
0
  6
CONTINUOUS
 62
     7
 10
102.0427674751
 20
147.7083585993
 30
0.0
 11
102.0427674751
 21
147.9083582595
 31
0.0
  0
LINE
  5
1A1
  8
0
  6
CONTINUOUS
 62
     7
 10
102.217767527
 20
150.2837430522
 30
0.0
 11
102.0427674751
 21
150.2837430522
 31
0.0
  0
ARC
  5
1A2
  8
0
  6
CONTINUOUS
 62
     7
 10
102.2177675222
 20
150.283743004
 30
0.0
 40
0.1750000000000114
 50
90.0
 51
180.0
  0
LINE
  5
1A3
  8
0
  6
CONTINUOUS
 62
     7
 10
102.217767527
 20
150.2837430522
 30
0.0
 11
102.217767527
 21
150.4587432206
 31
0.0
  0
LINE
  5
1A4
  8
0
  6
CONTINUOUS
 62
     7
 10
102.2677675585
 20
150.2837430522
 30
0.0
 11
102.4427674941
 21
150.2837430522
 31
0.0
  0
LINE
  5
1A5
  8
0
  6
CONTINUOUS
 62
     7
 10
102.4427674941
 20
150.2837430522
 30
0.0
 11
102.4427674941
 21
150.083743392
 31
0.0
  0
LINE
  5
1A6
  8
0
  6
CONTINUOUS
 62
     7
 10
102.0427674751
 20
150.083743392
 30
0.0
 11
102.0427674751
 21
150.2837430522
 31
0.0
  0
LINE
  5
1A7
  8
0
  6
CONTINUOUS
 62
     7
 10
102.2677675585
 20
150.2837430522
 30
0.0
 11
102.217767527
 21
150.2837430522
 31
0.0
  0
LINE
  5
1A8
  8
0
  6
CONTINUOUS
 62
     7
 10
102.217767527
 20
150.4587432206
 30
0.0
 11
102.2677675585
 21
150.4587432206
 31
0.0
  0
LINE
  5
1A9
  8
0
  6
CONTINUOUS
 62
     7
 10
102.2677675585
 20
150.2837430522
 30
0.0
 11
102.2677675585
 21
150.4587432206
 31
0.0
  0
ARC
  5
1AA
  8
0
  6
CONTINUOUS
 62
     7
 10
102.2677675222
 20
150.283743004
 30
0.0
 40
0.1750000000000114
 50
0.0
 51
90.0
  0
ARC
  5
1AB
  8
0
  6
CONTINUOUS
 62
     7
 10
104.180665325
 20
149.2623697994
 30
0.0
 40
0.4715541090436339
 50
55.9239393402
 51
100.4824069417
  0
LINE
  5
1AC
  8
0
  6
CONTINUOUS
 62
     7
 10
104.0948737875
 20
149.726054056
 30
0.0
 11
104.0948737875
 21
149.96283537
 31
0.0
  0
ARC
  5
1AD
  8
0
  6
CONTINUOUS
 62
     7
 10
104.1140080642
 20
149.6318497997
 30
0.0
 40
0.3315381852695448
 50
3.6499101352
 51
93.3085866781
  0
LINE
  5
1AE
  8
0
  6
CONTINUOUS
 62
     7
 10
104.0948737875
 20
149.726054056
 30
0.0
 11
103.894873778
 21
149.726054056
 31
0.0
  0
LINE
  5
1AF
  8
0
  6
CONTINUOUS
 62
     7
 10
103.894873778
 20
149.96283537
 30
0.0
 11
103.894873778
 21
149.726054056
 31
0.0
  0
LINE
  5
1B0
  8
0
  6
CONTINUOUS
 62
     7
 10
104.0948737875
 20
149.96283537
 30
0.0
 11
103.894873778
 21
149.96283537
 31
0.0
  0
POLYLINE
  5
1B1
  8
0
  6
CONTINUOUS
 62
     7
 66
     1
 10
0.0
 20
0.0
 30
0.0
  0
VERTEX
  5
3F4
  8
0
  6
CONTINUOUS
 62
     7
 10
103.894873778
 20
149.726054056
 30
0.0
  0
VERTEX
  5
3F5
  8
0
  6
CONTINUOUS
 62
     7
 10
103.8475205653
 20
149.7253937483
 30
0.0
  0
VERTEX
  5
3F6
  8
0
  6
CONTINUOUS
 62
     7
 10
103.7358095575
 20
149.7182048694
 30
0.0
  0
VERTEX
  5
3F7
  8
0
  6
CONTINUOUS
 62
     7
 10
103.647221252
 20
149.7049009264
 30
0.0
  0
VERTEX
  5
3F8
  8
0
  6
CONTINUOUS
 62
     7
 10
103.5761208561
 20
149.683491683
 30
0.0
  0
VERTEX
  5
3F9
  8
0
  6
CONTINUOUS
 62
     7
 10
103.5460451033
 20
149.6590398088
 30
0.0
  0
VERTEX
  5
3FA
  8
0
  6
CONTINUOUS
 62
     7
 10
103.5448839477
 20
149.6535235852
 30
0.0
  0
VERTEX
  5
3FB
  8
0
  6
CONTINUOUS
 62
     7
 10
103.5448737905
 20
149.6529554785
 30
0.0
  0
SEQEND
  5
465
  8
0
  6
CONTINUOUS
 62
     7
  0
ARC
  5
1B2
  8
0
  6
CONTINUOUS
 62
     7
 10
103.8757395014
 20
149.6318497997
 30
0.0
 40
0.3315381852695448
 50
86.6914133219
 51
176.3500898648
  0
ARC
  5
1B3
  8
0
  6
CONTINUOUS
 62
     7
 10
104.1807226591
 20
148.7298867136
 30
0.0
 40
0.4657756885699066
 50
259.3788738621
 51
304.5496986322
  0
ARC
  5
1B4
  8
0
  6
CONTINUOUS
 62
     7
 10
104.1198741973
 20
148.3584446804
 30
0.0
 40
0.3252279919337298
 50
265.5913006418
 51
357.8525124566
  0
LINE
  5
1B5
  8
0
  6
CONTINUOUS
 62
     7
 10
104.0948737875
 20
148.034179008
 30
0.0
 11
104.0948737875
 21
148.2720909477
 31
0.0
  0
LINE
  5
1B6
  8
0
  6
CONTINUOUS
 62
     7
 10
103.894873778
 20
149.726054056
 30
0.0
 11
103.894873778
 21
148.2720909477
 31
0.0
  0
POLYLINE
  5
1B7
  8
0
  6
CONTINUOUS
 62
     7
 66
     1
 10
0.0
 20
0.0
 30
0.0
  0
VERTEX
  5
3FC
  8
0
  6
CONTINUOUS
 62
     7
 10
103.894873778
 20
148.2720909477
 30
0.0
  0
VERTEX
  5
3FD
  8
0
  6
CONTINUOUS
 62
     7
 10
103.8469736461
 20
148.2727764011
 30
0.0
  0
VERTEX
  5
3FE
  8
0
  6
CONTINUOUS
 62
     7
 10
103.7352348151
 20
148.2801208109
 30
0.0
  0
VERTEX
  5
3FF
  8
0
  6
CONTINUOUS
 62
     7
 10
103.6468548348
 20
148.2936398894
 30
0.0
  0
VERTEX
  5
400
  8
0
  6
CONTINUOUS
 62
     7
 10
103.5757898583
 20
148.3154430822
 30
0.0
  0
VERTEX
  5
401
  8
0
  6
CONTINUOUS
 62
     7
 10
103.5459749048
 20
148.3402767986
 30
0.0
  0
VERTEX
  5
402
  8
0
  6
CONTINUOUS
 62
     7
 10
103.5448839186
 20
148.3456831262
 30
0.0
  0
VERTEX
  5
403
  8
0
  6
CONTINUOUS
 62
     7
 10
103.5448737905
 20
148.3462577522
 30
0.0
  0
SEQEND
  5
464
  8
0
  6
CONTINUOUS
 62
     7
  0
LINE
  5
1B8
  8
0
  6
CONTINUOUS
 62
     7
 10
103.5448737905
 20
148.3462577522
 30
0.0
 11
103.5448737905
 21
149.6529554785
 31
0.0
  0
LINE
  5
1B9
  8
0
  6
CONTINUOUS
 62
     7
 10
104.0948737875
 20
148.2720909477
 30
0.0
 11
104.0948737875
 21
149.726054056
 31
0.0
  0
LINE
  5
1BA
  8
0
  6
CONTINUOUS
 62
     7
 10
104.0948737875
 20
148.2720909477
 30
0.0
 11
103.894873778
 21
148.2720909477
 31
0.0
  0
LINE
  5
1BB
  8
0
  6
CONTINUOUS
 62
     7
 10
104.0948737875
 20
148.034179008
 30
0.0
 11
103.894873778
 21
148.034179008
 31
0.0
  0
LINE
  5
1BC
  8
0
  6
CONTINUOUS
 62
     7
 10
103.894873778
 20
148.2720909477
 30
0.0
 11
103.894873778
 21
148.034179008
 31
0.0
  0
LINE
  5
1BD
  8
0
  6
CONTINUOUS
 62
     7
 10
104.4448737751
 20
149.6529554785
 30
0.0
 11
104.4448737751
 21
148.3462577522
 31
0.0
  0
ARC
  5
1BE
  8
0
  6
CONTINUOUS
 62
     7
 10
103.8698733564
 20
148.3584446671
 30
0.0
 40
0.3252279795925564
 50
182.1474852817
 51
274.4087016199
  0
LINE
  5
1BF
  8
0
  6
CONTINUOUS
 62
     7
 10
103.5448737905
 20
149.6529554785
 30
0.0
 11
103.5448737905
 21
149.7331647039
 31
0.0
  0
LINE
  5
1C0
  8
0
  6
CONTINUOUS
 62
     7
 10
104.4448737751
 20
149.7331647039
 30
0.0
 11
104.4448737751
 21
149.6529554785
 31
0.0
  0
LINE
  5
1C1
  8
0
  6
CONTINUOUS
 62
     7
 10
103.5448737905
 20
148.2697812677
 30
0.0
 11
103.5448737905
 21
148.3462577522
 31
0.0
  0
LINE
  5
1C2
  8
0
  6
CONTINUOUS
 62
     7
 10
104.4448737751
 20
148.3462577522
 30
0.0
 11
104.4448737751
 21
148.2697812677
 31
0.0
  0
LINE
  5
1C3
  8
0
  6
CONTINUOUS
 62
     7
 10
104.0198737985
 20
147.8937150747
 30
0.0
 11
103.969873767
 21
147.8937150747
 31
0.0
  0
LINE
  5
1C4
  8
0
  6
CONTINUOUS
 62
     7
 10
104.1948737923
 20
147.8937150747
 30
0.0
 11
104.0198737985
 21
147.8937150747
 31
0.0
  0
LINE
  5
1C5
  8
0
  6
CONTINUOUS
 62
     7
 10
104.1948737923
 20
147.8937150747
 30
0.0
 11
104.1948737923
 21
147.9343710304
 31
0.0
  0
LINE
  5
1C6
  8
0
  6
CONTINUOUS
 62
     7
 10
103.969873767
 20
147.8937150747
 30
0.0
 11
103.7948737733
 21
147.8937150747
 31
0.0
  0
LINE
  5
1C7
  8
0
  6
CONTINUOUS
 62
     7
 10
103.7948737733
 20
147.9343710304
 30
0.0
 11
103.7948737733
 21
147.8937150747
 31
0.0
  0
LINE
  5
1C8
  8
0
  6
CONTINUOUS
 62
     7
 10
104.1948737923
 20
147.6937154144
 30
0.0
 11
104.0198737985
 21
147.6937154144
 31
0.0
  0
LINE
  5
1C9
  8
0
  6
CONTINUOUS
 62
     7
 10
104.0198737985
 20
147.6937154144
 30
0.0
 11
104.0198737985
 21
147.8937150747
 31
0.0
  0
LINE
  5
1CA
  8
0
  6
CONTINUOUS
 62
     7
 10
104.1948737923
 20
147.8937150747
 30
0.0
 11
104.1948737923
 21
147.6937154144
 31
0.0
  0
LINE
  5
1CB
  8
0
  6
CONTINUOUS
 62
     7
 10
104.0198737985
 20
147.518715246
 30
0.0
 11
104.0198737985
 21
147.6937154144
 31
0.0
  0
ARC
  5
1CC
  8
0
  6
CONTINUOUS
 62
     7
 10
104.0198737961
 20
147.6937152623
 30
0.0
 40
0.1750000000000114
 50
270.0
 51
0.0
  0
LINE
  5
1CD
  8
0
  6
CONTINUOUS
 62
     7
 10
103.969873767
 20
147.6937154144
 30
0.0
 11
103.969873767
 21
147.518715246
 31
0.0
  0
ARC
  5
1CE
  8
0
  6
CONTINUOUS
 62
     7
 10
103.9698737961
 20
147.6937152623
 30
0.0
 40
0.1750000000000114
 50
180.0
 51
270.0
  0
LINE
  5
1CF
  8
0
  6
CONTINUOUS
 62
     7
 10
103.969873767
 20
147.6937154144
 30
0.0
 11
103.7948737733
 21
147.6937154144
 31
0.0
  0
LINE
  5
1D0
  8
0
  6
CONTINUOUS
 62
     7
 10
104.0198737985
 20
147.518715246
 30
0.0
 11
103.969873767
 21
147.518715246
 31
0.0
  0
LINE
  5
1D1
  8
0
  6
CONTINUOUS
 62
     7
 10
103.969873767
 20
147.6937154144
 30
0.0
 11
104.0198737985
 21
147.6937154144
 31
0.0
  0
LINE
  5
1D2
  8
0
  6
CONTINUOUS
 62
     7
 10
103.969873767
 20
147.8937150747
 30
0.0
 11
103.969873767
 21
147.6937154144
 31
0.0
  0
LINE
  5
1D3
  8
0
  6
CONTINUOUS
 62
     7
 10
103.7948737733
 20
147.6937154144
 30
0.0
 11
103.7948737733
 21
147.8937150747
 31
0.0
  0
LINE
  5
1D4
  8
0
  6
CONTINUOUS
 62
     7
 10
103.969873767
 20
150.2690998674
 30
0.0
 11
103.7948737733
 21
150.2690998674
 31
0.0
  0
ARC
  5
1D5
  8
0
  6
CONTINUOUS
 62
     7
 10
103.9698737961
 20
150.2690997609
 30
0.0
 40
0.1750000000000114
 50
90.0
 51
180.0
  0
LINE
  5
1D6
  8
0
  6
CONTINUOUS
 62
     7
 10
103.969873767
 20
150.2690998674
 30
0.0
 11
103.969873767
 21
150.4441000358
 31
0.0
  0
LINE
  5
1D7
  8
0
  6
CONTINUOUS
 62
     7
 10
104.0198737985
 20
150.2690998674
 30
0.0
 11
103.969873767
 21
150.2690998674
 31
0.0
  0
LINE
  5
1D8
  8
0
  6
CONTINUOUS
 62
     7
 10
103.969873767
 20
150.4441000358
 30
0.0
 11
104.0198737985
 21
150.4441000358
 31
0.0
  0
LINE
  5
1D9
  8
0
  6
CONTINUOUS
 62
     7
 10
104.0198737985
 20
150.2690998674
 30
0.0
 11
104.0198737985
 21
150.4441000358
 31
0.0
  0
ARC
  5
1DA
  8
0
  6
CONTINUOUS
 62
     7
 10
104.0198737961
 20
150.2690997609
 30
0.0
 40
0.1750000000000114
 50
0.0
 51
90.0
  0
LINE
  5
1DB
  8
0
  6
CONTINUOUS
 62
     7
 10
104.0198737985
 20
150.2690998674
 30
0.0
 11
104.1948737923
 21
150.2690998674
 31
0.0
  0
LINE
  5
1DC
  8
0
  6
CONTINUOUS
 62
     7
 10
104.1948737923
 20
150.2690998674
 30
0.0
 11
104.1948737923
 21
150.0691002071
 31
0.0
  0
LINE
  5
1DD
  8
0
  6
CONTINUOUS
 62
     7
 10
103.7948737733
 20
150.0691002071
 30
0.0
 11
103.7948737733
 21
150.2690998674
 31
0.0
  0
CIRCLE
  5
1DE
  8
0
  6
CONTINUOUS
 62
     7
 10
96.240616463
 20
155.2408991662
 30
0.0
 40
1.299999999999997
  0
CIRCLE
  5
1DF
  8
0
  6
CONTINUOUS
 62
     7
 10
96.240616463
 20
155.2408991662
 30
0.0
 40
0.875
  0
ARC
  5
1E0
  8
0
  6
CONTINUOUS
 62
     7
 10
94.970616463
 20
155.2408991662
 30
0.0
 40
0.1999999999999961
 50
94.1881251032
 51
265.8118748969
  0
ARC
  5
1E1
  8
0
  6
CONTINUOUS
 62
     7
 10
97.510616463
 20
155.2408991662
 30
0.0
 40
0.2000000000000243
 50
274.1881251006
 51
0.0
  0
ARC
  5
1E2
  8
0
  6
CONTINUOUS
 62
     7
 10
97.510616463
 20
155.2408991662
 30
0.0
 40
0.1999999999999908
 50
0.0
 51
85.8118748994
  0
CIRCLE
  5
1E3
  8
0
  6
CONTINUOUS
 62
     7
 10
104.7388667282
 20
144.4903505279
 30
0.0
 40
0.8749999999999963
  0
CIRCLE
  5
1E4
  8
0
  6
CONTINUOUS
 62
     7
 10
104.7388667282
 20
144.4903505279
 30
0.0
 40
1.300000000000016
  0
ARC
  5
1E5
  8
0
  6
CONTINUOUS
 62
     7
 10
104.7370069934
 20
143.2203518895
 30
0.0
 40
0.2000000000000102
 50
184.1042235323
 51
355.7279733301
  0
ARC
  5
1E6
  8
0
  6
CONTINUOUS
 62
     7
 10
104.740726463
 20
145.7603491662
 30
0.0
 40
0.2000000000000179
 50
4.1042235323
 51
89.9160984312
  0
ARC
  5
1E7
  8
0
  6
CONTINUOUS
 62
     7
 10
104.740726463
 20
145.7603491662
 30
0.0
 40
0.2000000000000179
 50
89.9160984312
 51
175.7279733301
  0
LINE
  5
1E8
  8
0
  6
CONTINUOUS
 62
     7
 10
106.061406573
 20
156.4650185243
 30
0.0
 11
109.0614063662
 21
156.4650185243
 31
0.0
  0
LINE
  5
1E9
  8
0
  6
CONTINUOUS
 62
     7
 10
108.061406668
 20
146.4150188327
 30
0.0
 11
109.0614063662
 21
146.4150188327
 31
0.0
  0
LINE
  5
1EA
  8
0
  6
CONTINUOUS
 62
     7
 10
106.061406573
 20
146.4150188327
 30
0.0
 11
107.0614065041
 21
146.4150188327
 31
0.0
  0
LINE
  5
1EB
  8
0
  6
CONTINUOUS
 62
     7
 10
109.0614063662
 20
156.4650185243
 30
0.0
 11
109.0614063662
 21
146.4150188327
 31
0.0
  0
LINE
  5
1EC
  8
0
  6
CONTINUOUS
 62
     7
 10
106.061406573
 20
156.4650185243
 30
0.0
 11
106.061406573
 21
146.4150188327
 31
0.0
  0
ARC
  5
1ED
  8
0
  6
CONTINUOUS
 62
     7
 10
107.561406463
 20
146.4150191662
 30
0.0
 40
0.5
 50
0.0
 51
180.0
  0
LINE
  5
1EE
  8
0
  6
CONTINUOUS
 62
     7
 10
107.0614065041
 20
146.4150188327
 30
0.0
 11
108.061406668
 21
146.4150188327
 31
0.0
  0
ARC
  5
1EF
  8
0
  6
CONTINUOUS
 62
     7
 10
105.7364064594
 20
146.9950190582
 30
0.0
 40
0.1249997876584573
 50
90.0000150388
 51
269.9999849612
  0
ARC
  5
1F0
  8
0
  6
CONTINUOUS
 62
     7
 10
109.3864060527
 20
150.8050191984
 30
0.0
 40
0.1250002533199465
 50
270.0001040836
 51
89.9998959164
  0
ARC
  5
1F1
  8
0
  6
CONTINUOUS
 62
     7
 10
109.3864062585
 20
154.6150188729
 30
0.0
 40
0.1250002533197421
 50
270.0000097742
 51
89.9999902258
  0
ARC
  5
1F2
  8
0
  6
CONTINUOUS
 62
     7
 10
105.7364067583
 20
153.3450189814
 30
0.0
 40
0.1250002533201806
 50
90.0001520699
 51
269.9998479301
  0
ARC
  5
1F3
  8
0
  6
CONTINUOUS
 62
     7
 10
109.3864062585
 20
153.3450189814
 30
0.0
 40
0.1250002533197421
 50
270.0000097742
 51
89.9999902258
  0
ARC
  5
1F4
  8
0
  6
CONTINUOUS
 62
     7
 10
109.3864060527
 20
149.5350193069
 30
0.0
 40
0.1250002533199465
 50
270.0001040836
 51
89.9998959164
  0
ARC
  5
1F5
  8
0
  6
CONTINUOUS
 62
     7
 10
105.7364067583
 20
154.6150188729
 30
0.0
 40
0.1250002533201806
 50
90.0001520699
 51
269.9998479301
  0
ARC
  5
1F6
  8
0
  6
CONTINUOUS
 62
     7
 10
105.7364064594
 20
148.2650189497
 30
0.0
 40
0.1249997876584573
 50
90.0000150388
 51
269.9999849612
  0
ARC
  5
1F7
  8
0
  6
CONTINUOUS
 62
     7
 10
105.7364069641
 20
149.5350193069
 30
0.0
 40
0.125000253320896
 50
90.0002463795
 51
269.9997536205
  0
ARC
  5
1F8
  8
0
  6
CONTINUOUS
 62
     7
 10
109.3864063132
 20
152.0750190899
 30
0.0
 40
0.1250002533197448
 50
269.999984684
 51
90.000015316
  0
ARC
  5
1F9
  8
0
  6
CONTINUOUS
 62
     7
 10
105.7364069641
 20
150.8050191984
 30
0.0
 40
0.125000253320896
 50
90.0002463795
 51
269.9997536205
  0
ARC
  5
1FA
  8
0
  6
CONTINUOUS
 62
     7
 10
109.3864065574
 20
148.2650189497
 30
0.0
 40
0.1249997876587613
 50
269.9998727431
 51
90.0001272569
  0
ARC
  5
1FB
  8
0
  6
CONTINUOUS
 62
     7
 10
109.3864065574
 20
146.9950190582
 30
0.0
 40
0.1249997876587613
 50
269.9998727431
 51
90.0001272569
  0
ARC
  5
1FC
  8
0
  6
CONTINUOUS
 62
     7
 10
105.7364067036
 20
152.0750190899
 30
0.0
 40
0.1250002533200473
 50
90.0001269795
 51
269.9998730205
  0
ARC
  5
1FD
  8
0
  6
CONTINUOUS
 62
     7
 10
105.7364067583
 20
155.8850187645
 30
0.0
 40
0.1250002533201806
 50
90.0001520699
 51
269.9998479301
  0
ARC
  5
1FE
  8
0
  6
CONTINUOUS
 62
     7
 10
109.3864062585
 20
155.8850187645
 30
0.0
 40
0.1250002533197421
 50
270.0000097742
 51
89.9999902258
  0
LINE
  5
1FF
  8
0
  6
CONTINUOUS
 62
     7
 10
100.3895864353
 20
156.496288611
 30
0.0
 11
103.3895864614
 21
156.496288611
 31
0.0
  0
LINE
  5
200
  8
0
  6
CONTINUOUS
 62
     7
 10
102.3895864721
 20
151.4962887228
 30
0.0
 11
103.3895864614
 21
151.4962887228
 31
0.0
  0
LINE
  5
201
  8
0
  6
CONTINUOUS
 62
     7
 10
100.3895864353
 20
151.4962887228
 30
0.0
 11
101.3895864828
 21
151.4962887228
 31
0.0
  0
LINE
  5
202
  8
0
  6
CONTINUOUS
 62
     7
 10
103.3895864614
 20
156.496288611
 30
0.0
 11
103.3895864614
 21
151.4962887228
 31
0.0
  0
LINE
  5
203
  8
0
  6
CONTINUOUS
 62
     7
 10
100.3895864353
 20
156.496288611
 30
0.0
 11
100.3895864353
 21
151.4962887228
 31
0.0
  0
ARC
  5
204
  8
0
  6
CONTINUOUS
 62
     7
 10
101.889586463
 20
151.4962891662
 30
0.0
 40
0.5
 50
0.0
 51
180.0
  0
LINE
  5
205
  8
0
  6
CONTINUOUS
 62
     7
 10
101.3895864828
 20
151.4962887228
 30
0.0
 11
102.3895864721
 21
151.4962887228
 31
0.0
  0
ARC
  5
206
  8
0
  6
CONTINUOUS
 62
     7
 10
100.0645866983
 20
155.8862890885
 30
0.0
 40
0.125000253319865
 50
90.0000809219
 51
269.9999190781
  0
ARC
  5
207
  8
0
  6
CONTINUOUS
 62
     7
 10
100.0645866983
 20
153.3462893054
 30
0.0
 40
0.125000253319865
 50
90.0000809219
 51
269.9999190781
  0
ARC
  5
208
  8
0
  6
CONTINUOUS
 62
     7
 10
103.7145861984
 20
155.8862890885
 30
0.0
 40
0.1250002533200188
 50
270.0001209426
 51
89.9998790574
  0
ARC
  5
209
  8
0
  6
CONTINUOUS
 62
     7
 10
103.7145862532
 20
152.0762894139
 30
0.0
 40
0.1250002533199152
 50
270.0000958523
 51
89.9999041477
  0
ARC
  5
20A
  8
0
  6
CONTINUOUS
 62
     7
 10
103.7145861984
 20
153.3462893054
 30
0.0
 40
0.1250002533200188
 50
270.0001209426
 51
89.9998790574
  0
ARC
  5
20B
  8
0
  6
CONTINUOUS
 62
     7
 10
100.0645866436
 20
152.0762894139
 30
0.0
 40
0.1250002533197996
 50
90.0000558316
 51
269.9999441684
  0
ARC
  5
20C
  8
0
  6
CONTINUOUS
 62
     7
 10
100.0645866983
 20
154.6162891969
 30
0.0
 40
0.125000253319865
 50
90.0000809219
 51
269.9999190781
  0
ARC
  5
20D
  8
0
  6
CONTINUOUS
 62
     7
 10
103.7145861984
 20
154.6162891969
 30
0.0
 40
0.1250002533200188
 50
270.0001209426
 51
89.9998790574
  0
LINE
  5
20E
  8
0
  6
CONTINUOUS
 62
     7
 10
109.0614063662
 20
156.4635190949
 30
0.0
 11
110.0864064877
 21
156.4635190949
 31
0.0
  0
LINE
  5
20F
  8
0
  6
CONTINUOUS
 62
     7
 10
110.0864064877
 20
156.4635190949
 30
0.0
 11
110.0864064877
 21
146.4135194034
 31
0.0
  0
ARC
  5
210
  8
0
  6
CONTINUOUS
 62
     7
 10
109.386406463
 20
154.6150191662
 30
0.0
 40
0.2000000000000171
 50
0.0
 51
141.3178125465
  0
ARC
  5
211
  8
0
  6
CONTINUOUS
 62
     7
 10
109.386406463
 20
154.6150191662
 30
0.0
 40
0.2000000000000171
 50
218.6821874535
 51
0.0
  0
ARC
  5
212
  8
0
  6
CONTINUOUS
 62
     7
 10
109.386406463
 20
152.0750191662
 30
0.0
 40
0.2000000000000171
 50
0.0
 51
141.3178125465
  0
ARC
  5
213
  8
0
  6
CONTINUOUS
 62
     7
 10
109.386406463
 20
152.0750191662
 30
0.0
 40
0.2000000000000171
 50
218.6821874535
 51
0.0
  0
ARC
  5
214
  8
0
  6
CONTINUOUS
 62
     7
 10
109.386406463
 20
148.2640191662
 30
0.0
 40
0.2000000000000171
 50
0.0
 51
140.9498774638
  0
ARC
  5
215
  8
0
  6
CONTINUOUS
 62
     7
 10
109.386406463
 20
148.2640191662
 30
0.0
 40
0.2000000000000171
 50
218.3161344737
 51
0.0
  0
ARC
  5
216
  8
0
  6
CONTINUOUS
 62
     7
 10
109.386406463
 20
153.3450191662
 30
0.0
 40
0.2000000000000028
 50
0.0
 51
141.3178125465
  0
ARC
  5
217
  8
0
  6
CONTINUOUS
 62
     7
 10
109.386406463
 20
153.3450191662
 30
0.0
 40
0.2000000000000028
 50
218.6821874535
 51
0.0
  0
ARC
  5
218
  8
0
  6
CONTINUOUS
 62
     7
 10
109.386406463
 20
149.5345191662
 30
0.0
 40
0.2000000000000171
 50
0.0
 51
141.1340830301
  0
ARC
  5
219
  8
0
  6
CONTINUOUS
 62
     7
 10
109.386406463
 20
149.5345191662
 30
0.0
 40
0.2000000000000171
 50
218.4989284403
 51
0.0
  0
ARC
  5
21A
  8
0
  6
CONTINUOUS
 62
     7
 10
109.386406463
 20
155.8850191662
 30
0.0
 40
0.2000000000000171
 50
0.0
 51
141.3178125465
  0
ARC
  5
21B
  8
0
  6
CONTINUOUS
 62
     7
 10
109.386406463
 20
155.8850191662
 30
0.0
 40
0.2000000000000171
 50
218.6821874535
 51
0.0
  0
LINE
  5
21C
  8
0
  6
CONTINUOUS
 62
     7
 10
108.6864065376
 20
146.4135194034
 30
0.0
 11
110.0864064877
 21
146.4135194034
 31
0.0
  0
ARC
  5
21D
  8
0
  6
CONTINUOUS
 62
     7
 10
109.386406463
 20
150.8050191662
 30
0.0
 40
0.2000000000000028
 50
0.0
 51
141.3178125465
  0
ARC
  5
21E
  8
0
  6
CONTINUOUS
 62
     7
 10
109.386406463
 20
150.8050191662
 30
0.0
 40
0.2000000000000176
 50
218.6821874535
 51
0.0
  0
LINE
  5
21F
  8
0
  6
CONTINUOUS
 62
     7
 10
108.6864065376
 20
146.4150188327
 30
0.0
 11
108.6864065376
 21
146.4135194034
 31
0.0
  0
ARC
  5
220
  8
0
  6
CONTINUOUS
 62
     7
 10
109.386406463
 20
146.9935191662
 30
0.0
 40
0.2000000000000028
 50
0.0
 51
140.7651902091
  0
ARC
  5
221
  8
0
  6
CONTINUOUS
 62
     7
 10
109.386406463
 20
146.9935191662
 30
0.0
 40
0.2000000000000078
 50
218.1338001844
 51
0.0
  0
ARC
  5
222
  8
0
  6
CONTINUOUS
 62
     7
 10
105.736406463
 20
154.6150191662
 30
0.0
 40
0.2000000000000028
 50
180.0
 51
321.3178125465
  0
ARC
  5
223
  8
0
  6
CONTINUOUS
 62
     7
 10
105.736406463
 20
154.6150191662
 30
0.0
 40
0.2000000000000028
 50
38.6821874535
 51
180.0
  0
ARC
  5
224
  8
0
  6
CONTINUOUS
 62
     7
 10
105.736406463
 20
150.8050191662
 30
0.0
 40
0.2000000000000065
 50
180.0
 51
321.3178125465
  0
ARC
  5
225
  8
0
  6
CONTINUOUS
 62
     7
 10
105.736406463
 20
150.8050191662
 30
0.0
 40
0.2000000000000028
 50
38.6821874535
 51
180.0
  0
LINE
  5
226
  8
0
  6
CONTINUOUS
 62
     7
 10
105.0364064515
 20
156.4635190949
 30
0.0
 11
106.061406573
 21
156.4635190949
 31
0.0
  0
LINE
  5
227
  8
0
  6
CONTINUOUS
 62
     7
 10
106.4364064016
 20
146.4150188327
 30
0.0
 11
106.4364064016
 21
146.4135194034
 31
0.0
  0
LINE
  5
228
  8
0
  6
CONTINUOUS
 62
     7
 10
105.0364064515
 20
146.4135194034
 30
0.0
 11
106.4364064016
 21
146.4135194034
 31
0.0
  0
ARC
  5
229
  8
0
  6
CONTINUOUS
 62
     7
 10
105.736406463
 20
153.3450191662
 30
0.0
 40
0.2000000000000028
 50
180.0
 51
321.3178125465
  0
ARC
  5
22A
  8
0
  6
CONTINUOUS
 62
     7
 10
105.736406463
 20
153.3450191662
 30
0.0
 40
0.2000000000000028
 50
38.6821874535
 51
180.0
  0
ARC
  5
22B
  8
0
  6
CONTINUOUS
 62
     7
 10
105.736406463
 20
148.2640191662
 30
0.0
 40
0.2000000000000028
 50
180.0
 51
321.6838655263
  0
ARC
  5
22C
  8
0
  6
CONTINUOUS
 62
     7
 10
105.736406463
 20
148.2640191662
 30
0.0
 40
0.2000000000000038
 50
39.0501225362
 51
180.0
  0
LINE
  5
22D
  8
0
  6
CONTINUOUS
 62
     7
 10
105.0364064515
 20
156.4635190949
 30
0.0
 11
105.0364064515
 21
146.4135194034
 31
0.0
  0
ARC
  5
22E
  8
0
  6
CONTINUOUS
 62
     7
 10
105.736406463
 20
152.0750191662
 30
0.0
 40
0.1999999999999998
 50
180.0
 51
321.3178125465
  0
ARC
  5
22F
  8
0
  6
CONTINUOUS
 62
     7
 10
105.736406463
 20
152.0750191662
 30
0.0
 40
0.1999999999999998
 50
38.6821874535
 51
180.0
  0
ARC
  5
230
  8
0
  6
CONTINUOUS
 62
     7
 10
105.736406463
 20
146.9935191662
 30
0.0
 40
0.2000000000000171
 50
180.0
 51
321.8661998156
  0
ARC
  5
231
  8
0
  6
CONTINUOUS
 62
     7
 10
105.736406463
 20
146.9935191662
 30
0.0
 40
0.2000000000000171
 50
39.2348097909
 51
180.0
  0
ARC
  5
232
  8
0
  6
CONTINUOUS
 62
     7
 10
105.736406463
 20
155.8850191662
 30
0.0
 40
0.1999999999999998
 50
180.0
 51
321.3178125465
  0
ARC
  5
233
  8
0
  6
CONTINUOUS
 62
     7
 10
105.736406463
 20
155.8850191662
 30
0.0
 40
0.1999999999999998
 50
38.6821874535
 51
180.0
  0
ARC
  5
234
  8
0
  6
CONTINUOUS
 62
     7
 10
105.736406463
 20
149.5345191662
 30
0.0
 40
0.1999999999999993
 50
180.0
 51
321.5010715597
  0
ARC
  5
235
  8
0
  6
CONTINUOUS
 62
     7
 10
105.736406463
 20
149.5345191662
 30
0.0
 40
0.2000000000000173
 50
38.8659169699
 51
180.0
  0
LINE
  5
236
  8
0
  6
CONTINUOUS
 62
     7
 10
106.4364064016
 20
146.4135194034
 30
0.0
 11
107.0614065041
 21
146.4135194034
 31
0.0
  0
LINE
  5
237
  8
0
  6
CONTINUOUS
 62
     7
 10
108.061406668
 20
146.4135194034
 30
0.0
 11
108.6864065376
 21
146.4135194034
 31
0.0
  0
LINE
  5
238
  8
0
  6
CONTINUOUS
 62
     7
 10
99.3645865467
 20
156.4947891817
 30
0.0
 11
99.3645865467
 21
151.4947892934
 31
0.0
  0
LINE
  5
239
  8
0
  6
CONTINUOUS
 62
     7
 10
99.3645865467
 20
156.4947891817
 30
0.0
 11
100.3895864353
 21
156.4947891817
 31
0.0
  0
LINE
  5
23A
  8
0
  6
CONTINUOUS
 62
     7
 10
100.7645864968
 20
151.4962887228
 30
0.0
 11
100.7645864968
 21
151.4947892934
 31
0.0
  0
LINE
  5
23B
  8
0
  6
CONTINUOUS
 62
     7
 10
99.3645865467
 20
151.4947892934
 30
0.0
 11
100.7645864968
 21
151.4947892934
 31
0.0
  0
ARC
  5
23C
  8
0
  6
CONTINUOUS
 62
     7
 10
100.064586463
 20
152.0747891662
 30
0.0
 40
0.2000000000000078
 50
180.0
 51
321.8661998156
  0
ARC
  5
23D
  8
0
  6
CONTINUOUS
 62
     7
 10
100.064586463
 20
152.0747891662
 30
0.0
 40
0.2000000000000028
 50
39.2348097909
 51
180.0
  0
ARC
  5
23E
  8
0
  6
CONTINUOUS
 62
     7
 10
100.064586463
 20
154.6157891662
 30
0.0
 40
0.200000000000017
 50
180.0
 51
321.5010715597
  0
ARC
  5
23F
  8
0
  6
CONTINUOUS
 62
     7
 10
100.064586463
 20
154.6157891662
 30
0.0
 40
0.1999999999999886
 50
38.8659169699
 51
180.0
  0
ARC
  5
240
  8
0
  6
CONTINUOUS
 62
     7
 10
100.064586463
 20
155.8862891662
 30
0.0
 40
0.2000000000000065
 50
180.0
 51
321.3178125465
  0
ARC
  5
241
  8
0
  6
CONTINUOUS
 62
     7
 10
100.064586463
 20
155.8862891662
 30
0.0
 40
0.2000000000000028
 50
38.6821874535
 51
180.0
  0
ARC
  5
242
  8
0
  6
CONTINUOUS
 62
     7
 10
100.064586463
 20
153.3452891662
 30
0.0
 40
0.2000000000000028
 50
180.0
 51
321.6838655263
  0
ARC
  5
243
  8
0
  6
CONTINUOUS
 62
     7
 10
100.064586463
 20
153.3452891662
 30
0.0
 40
0.2000000000000106
 50
39.0501225362
 51
180.0
  0
LINE
  5
244
  8
0
  6
CONTINUOUS
 62
     7
 10
103.0145864581
 20
151.4962887228
 30
0.0
 11
103.0145864581
 21
151.4947892934
 31
0.0
  0
LINE
  5
245
  8
0
  6
CONTINUOUS
 62
     7
 10
103.3895864614
 20
156.4947891817
 30
0.0
 11
104.4145864664
 21
156.4947891817
 31
0.0
  0
LINE
  5
246
  8
0
  6
CONTINUOUS
 62
     7
 10
103.0145864581
 20
151.4947892934
 30
0.0
 11
104.4145864664
 21
151.4947892934
 31
0.0
  0
ARC
  5
247
  8
0
  6
CONTINUOUS
 62
     7
 10
103.714586463
 20
152.0747891662
 30
0.0
 40
0.2000000000000028
 50
0.0
 51
140.7651902091
  0
ARC
  5
248
  8
0
  6
CONTINUOUS
 62
     7
 10
103.714586463
 20
152.0747891662
 30
0.0
 40
0.2000000000000078
 50
218.1338001844
 51
0.0
  0
ARC
  5
249
  8
0
  6
CONTINUOUS
 62
     7
 10
103.714586463
 20
153.3452891662
 30
0.0
 40
0.2000000000000217
 50
0.0
 51
140.9498774638
  0
ARC
  5
24A
  8
0
  6
CONTINUOUS
 62
     7
 10
103.714586463
 20
153.3452891662
 30
0.0
 40
0.1999999999999914
 50
218.3161344737
 51
0.0
  0
ARC
  5
24B
  8
0
  6
CONTINUOUS
 62
     7
 10
103.714586463
 20
154.6157891662
 30
0.0
 40
0.2000000000000028
 50
0.0
 51
141.1340830301
  0
ARC
  5
24C
  8
0
  6
CONTINUOUS
 62
     7
 10
103.714586463
 20
154.6157891662
 30
0.0
 40
0.2000000000000059
 50
218.4989284404
 51
0.0
  0
ARC
  5
24D
  8
0
  6
CONTINUOUS
 62
     7
 10
103.714586463
 20
155.8862891662
 30
0.0
 40
0.1999999999999932
 50
0.0
 51
141.3178125465
  0
ARC
  5
24E
  8
0
  6
CONTINUOUS
 62
     7
 10
103.714586463
 20
155.8862891662
 30
0.0
 40
0.2000000000000287
 50
218.6821874535
 51
0.0
  0
LINE
  5
24F
  8
0
  6
CONTINUOUS
 62
     7
 10
104.4145864664
 20
156.4947891817
 30
0.0
 11
104.4145864664
 21
151.4947892934
 31
0.0
  0
LINE
  5
250
  8
0
  6
CONTINUOUS
 62
     7
 10
102.3895864721
 20
151.4947892934
 30
0.0
 11
103.0145864581
 21
151.4947892934
 31
0.0
  0
LINE
  5
251
  8
0
  6
CONTINUOUS
 62
     7
 10
100.7645864968
 20
151.4947892934
 30
0.0
 11
101.3895864828
 21
151.4947892934
 31
0.0
  0
ARC
  5
252
  8
0
  6
CONTINUOUS
 62
     7
 10
98.60219858
 20
148.9845968916
 30
0.0
 40
1.345000000000015
 50
284.2692473929
 51
75.7307526071
  0
LINE
  5
253
  8
0
  6
CONTINUOUS
 62
     7
 10
98.9337124859
 20
147.6810922683
 30
0.0
 11
98.9706845951
 21
147.5357202649
 31
0.0
  0
ARC
  5
254
  8
0
  6
CONTINUOUS
 62
     7
 10
98.60219858
 20
148.9845968916
 30
0.0
 40
1.495000000000012
 50
284.2692473929
 51
75.7307526071
  0
LINE
  5
255
  8
0
  6
CONTINUOUS
 62
     7
 10
98.9706845951
 20
150.4334736452
 30
0.0
 11
98.9337124859
 21
150.2881007105
 31
0.0
  0
LINE
  5
256
  8
0
  6
CONTINUOUS
 62
     7
 10
98.2521985654
 20
148.2345968321
 30
0.0
 11
98.9521987733
 21
148.2345968321
 31
0.0
  0
LINE
  5
257
  8
0
  6
CONTINUOUS
 62
     7
 10
98.9521987733
 20
148.2345968321
 30
0.0
 11
98.9521987733
 21
149.734597078
 31
0.0
  0
LINE
  5
258
  8
0
  6
CONTINUOUS
 62
     7
 10
98.9521987733
 20
149.734597078
 30
0.0
 11
98.2521985654
 21
149.734597078
 31
0.0
  0
LINE
  5
259
  8
0
  6
CONTINUOUS
 62
     7
 10
98.2521985654
 20
149.734597078
 30
0.0
 11
98.2521985654
 21
148.2345968321
 31
0.0
  0
CIRCLE
  5
25A
  8
0
  6
CONTINUOUS
 62
     7
 10
98.60219858
 20
148.9845968916
 30
0.0
 40
2.0
  0
ARC
  5
25B
  8
0
  6
CONTINUOUS
 62
     7
 10
98.60219858
 20
148.9845968916
 30
0.0
 40
1.595000000000018
 50
282.0977894382
 51
77.9022105618
  0
LINE
  5
25C
  8
0
  6
CONTINUOUS
 62
     7
 10
98.9364799109
 20
147.4250195384
 30
0.0
 11
98.9679171701
 21
147.2783511341
 31
0.0
  0
ARC
  5
25D
  8
0
  6
CONTINUOUS
 62
     7
 10
98.60219858
 20
148.9845968916
 30
0.0
 40
1.745000000000017
 50
282.0977894382
 51
77.9022105618
  0
LINE
  5
25E
  8
0
  6
CONTINUOUS
 62
     7
 10
98.9679171701
 20
150.690842776
 30
0.0
 11
98.9364799109
 21
150.5441743717
 31
0.0
  0
LINE
  5
25F
  8
0
  6
CONTINUOUS
 62
     7
 10
95.3721985218
 20
149.9845966533
 30
0.0
 11
96.8701479953
 21
149.9845966533
 31
0.0
  0
LINE
  5
260
  8
0
  6
CONTINUOUS
 62
     7
 10
98.577198479
 20
151.1345965624
 30
0.0
 11
95.3721985218
 21
151.1345965624
 31
0.0
  0
ARC
  5
261
  8
0
  6
CONTINUOUS
 62
     7
 10
98.57719858
 20
148.9845968916
 30
0.0
 40
2.150000000000006
 50
270.0
 51
90.0
  0
LINE
  5
262
  8
0
  6
CONTINUOUS
 62
     7
 10
95.3721985218
 20
151.1345965624
 30
0.0
 11
95.3721985218
 21
149.9845966533
 31
0.0
  0
LINE
  5
263
  8
0
  6
CONTINUOUS
 62
     7
 10
95.3721985218
 20
147.9845972568
 30
0.0
 11
95.3721985218
 21
146.8345973477
 31
0.0
  0
LINE
  5
264
  8
0
  6
CONTINUOUS
 62
     7
 10
95.3721985218
 20
146.8345973477
 30
0.0
 11
98.577198479
 21
146.8345973477
 31
0.0
  0
LINE
  5
265
  8
0
  6
CONTINUOUS
 62
     7
 10
96.8701479953
 20
147.9845972568
 30
0.0
 11
95.3721985218
 21
147.9845972568
 31
0.0
  0
LINE
  5
266
  8
0
  6
CONTINUOUS
 62
     7
 10
95.3721985218
 20
149.9845966533
 30
0.0
 11
95.3721985218
 21
147.9845972568
 31
0.0
  0
ARC
  5
267
  8
0
  6
CONTINUOUS
 62
     7
 10
98.60219858
 20
148.9845968916
 30
0.0
 40
2.150000000000006
 50
270.0
 51
90.0
  0
LINE
  5
268
  8
0
  6
CONTINUOUS
 62
     7
 10
98.6021984366
 20
151.1345965624
 30
0.0
 11
98.577198479
 21
151.1345965624
 31
0.0
  0
LINE
  5
269
  8
0
  6
CONTINUOUS
 62
     7
 10
98.577198479
 20
146.8345973477
 30
0.0
 11
98.6021984366
 21
146.8345973477
 31
0.0
  0
CIRCLE
  5
26A
  8
0
  6
CONTINUOUS
 62
     7
 10
98.352626463
 20
142.2208591662
 30
0.0
 40
0.2000000000000171
  0
LINE
  5
26B
  8
0
  6
CONTINUOUS
 62
     7
 10
97.8501265866
 20
141.5933593013
 30
0.0
 11
97.7251263332
 21
141.7183590889
 31
0.0
  0
LINE
  5
26C
  8
0
  6
CONTINUOUS
 62
     7
 10
97.8501265866
 20
141.7183590889
 30
0.0
 11
97.7251263332
 21
141.7183590889
 31
0.0
  0
LINE
  5
26D
  8
0
  6
CONTINUOUS
 62
     7
 10
97.8501265866
 20
141.5933593013
 30
0.0
 11
97.8501265866
 21
141.7183590889
 31
0.0
  0
LINE
  5
26E
  8
0
  6
CONTINUOUS
 62
     7
 10
98.8551265557
 20
141.5933593013
 30
0.0
 11
97.8501265866
 21
141.5933593013
 31
0.0
  0
LINE
  5
26F
  8
0
  6
CONTINUOUS
 62
     7
 10
97.8501265866
 20
141.7183590889
 30
0.0
 11
98.8551265557
 21
141.7183590889
 31
0.0
  0
LINE
  5
270
  8
0
  6
CONTINUOUS
 62
     7
 10
98.8551265557
 20
141.5933593013
 30
0.0
 11
98.8551265557
 21
141.7183590889
 31
0.0
  0
LINE
  5
271
  8
0
  6
CONTINUOUS
 62
     7
 10
98.9801263434
 20
141.7183590889
 30
0.0
 11
98.8551265557
 21
141.7183590889
 31
0.0
  0
LINE
  5
272
  8
0
  6
CONTINUOUS
 62
     7
 10
98.9801263434
 20
141.7183590889
 30
0.0
 11
98.8551265557
 21
141.5933593013
 31
0.0
  0
LINE
  5
273
  8
0
  6
CONTINUOUS
 62
     7
 10
98.8551265557
 20
141.7183590889
 30
0.0
 11
98.8551265557
 21
142.7233590581
 31
0.0
  0
LINE
  5
274
  8
0
  6
CONTINUOUS
 62
     7
 10
98.8551265557
 20
142.7233590581
 30
0.0
 11
98.9801263434
 21
142.7233590581
 31
0.0
  0
LINE
  5
275
  8
0
  6
CONTINUOUS
 62
     7
 10
98.9801263434
 20
142.7233590581
 30
0.0
 11
98.9801263434
 21
141.7183590889
 31
0.0
  0
LINE
  5
276
  8
0
  6
CONTINUOUS
 62
     7
 10
97.7251263332
 20
141.7183590889
 30
0.0
 11
97.7251263332
 21
142.7233590581
 31
0.0
  0
LINE
  5
277
  8
0
  6
CONTINUOUS
 62
     7
 10
97.7251263332
 20
142.7233590581
 30
0.0
 11
97.8501265866
 21
142.7233590581
 31
0.0
  0
LINE
  5
278
  8
0
  6
CONTINUOUS
 62
     7
 10
97.8501265866
 20
142.7233590581
 30
0.0
 11
97.8501265866
 21
141.7183590889
 31
0.0
  0
LINE
  5
279
  8
0
  6
CONTINUOUS
 62
     7
 10
98.8551265557
 20
142.7233590581
 30
0.0
 11
97.8501265866
 21
142.7233590581
 31
0.0
  0
LINE
  5
27A
  8
0
  6
CONTINUOUS
 62
     7
 10
97.7251263332
 20
142.7233590581
 30
0.0
 11
97.8501265866
 21
142.8483593114
 31
0.0
  0
LINE
  5
27B
  8
0
  6
CONTINUOUS
 62
     7
 10
97.8501265866
 20
142.7233590581
 30
0.0
 11
97.8501265866
 21
142.8483593114
 31
0.0
  0
LINE
  5
27C
  8
0
  6
CONTINUOUS
 62
     7
 10
98.8551265557
 20
142.8483593114
 30
0.0
 11
98.9801263434
 21
142.7233590581
 31
0.0
  0
LINE
  5
27D
  8
0
  6
CONTINUOUS
 62
     7
 10
98.8551265557
 20
142.7233590581
 30
0.0
 11
98.8551265557
 21
142.8483593114
 31
0.0
  0
LINE
  5
27E
  8
0
  6
CONTINUOUS
 62
     7
 10
97.8501265866
 20
142.8483593114
 30
0.0
 11
98.8551265557
 21
142.8483593114
 31
0.0
  0
LINE
  5
27F
  8
0
  6
CONTINUOUS
 62
     7
 10
96.19762646
 20
141.5933593013
 30
0.0
 11
96.19762646
 21
142.8483593114
 31
0.0
  0
LINE
  5
280
  8
0
  6
CONTINUOUS
 62
     7
 10
96.19762646
 20
141.5933593013
 30
0.0
 11
95.1851265502
 21
141.5933593013
 31
0.0
  0
LINE
  5
281
  8
0
  6
CONTINUOUS
 62
     7
 10
95.1851265502
 20
141.5933593013
 30
0.0
 11
95.1851265502
 21
142.8483593114
 31
0.0
  0
LINE
  5
282
  8
0
  6
CONTINUOUS
 62
     7
 10
96.19762646
 20
142.8483593114
 30
0.0
 11
95.1851265502
 21
142.8483593114
 31
0.0
  0
LINE
  5
283
  8
0
  6
CONTINUOUS
 62
     7
 10
97.7101264518
 20
141.5933593013
 30
0.0
 11
97.7101264518
 21
142.8483593114
 31
0.0
  0
LINE
  5
284
  8
0
  6
CONTINUOUS
 62
     7
 10
96.697626542
 20
141.5933593013
 30
0.0
 11
96.697626542
 21
142.8483593114
 31
0.0
  0
LINE
  5
285
  8
0
  6
CONTINUOUS
 62
     7
 10
97.7101264518
 20
141.5933593013
 30
0.0
 11
96.697626542
 21
141.5933593013
 31
0.0
  0
LINE
  5
286
  8
0
  6
CONTINUOUS
 62
     7
 10
97.7101264518
 20
142.8483593114
 30
0.0
 11
96.697626542
 21
142.8483593114
 31
0.0
  0
LINE
  5
287
  8
0
  6
CONTINUOUS
 62
     7
 10
96.697626542
 20
141.5933593013
 30
0.0
 11
96.19762646
 21
141.5933593013
 31
0.0
  0
LINE
  5
288
  8
0
  6
CONTINUOUS
 62
     7
 10
96.697626542
 20
142.8483593114
 30
0.0
 11
96.19762646
 21
142.8483593114
 31
0.0
  0
LINE
  5
289
  8
0
  6
CONTINUOUS
 62
     7
 10
98.0785590593
 20
146.1401687771
 30
0.0
 11
98.0785590593
 21
145.0401687831
 31
0.0
  0
LINE
  5
28A
  8
0
  6
CONTINUOUS
 62
     7
 10
98.3285591003
 20
145.0401687831
 30
0.0
 11
98.3285591003
 21
146.1401687771
 31
0.0
  0
LINE
  5
28B
  8
0
  6
CONTINUOUS
 62
     7
 10
97.5785589774
 20
146.1401687771
 30
0.0
 11
97.5785589774
 21
145.0401687831
 31
0.0
  0
LINE
  5
28C
  8
0
  6
CONTINUOUS
 62
     7
 10
98.5785586756
 20
146.1401687771
 30
0.0
 11
98.5785586756
 21
145.0401687831
 31
0.0
  0
LINE
  5
28D
  8
0
  6
CONTINUOUS
 62
     7
 10
97.8285590184
 20
145.0401687831
 30
0.0
 11
97.8285590184
 21
146.1401687771
 31
0.0
  0
LINE
  5
28E
  8
0
  6
CONTINUOUS
 62
     7
 10
97.3285589364
 20
145.0401687831
 30
0.0
 11
97.3285589364
 21
146.1401687771
 31
0.0
  0
LINE
  5
28F
  8
0
  6
CONTINUOUS
 62
     7
 10
98.9900463258
 20
145.0401687831
 30
0.0
 11
98.9900463258
 21
146.1401687771
 31
0.0
  0
LINE
  5
290
  8
0
  6
CONTINUOUS
 62
     7
 10
99.2400463667
 20
146.1401687771
 30
0.0
 11
99.2400463667
 21
145.0401687831
 31
0.0
  0
LINE
  5
291
  8
0
  6
CONTINUOUS
 62
     7
 10
99.9900464897
 20
145.7401694566
 30
0.0
 11
99.9900464897
 21
145.4401690349
 31
0.0
  0
LINE
  5
292
  8
0
  6
CONTINUOUS
 62
     7
 10
96.4900463816
 20
145.7401694566
 30
0.0
 11
96.4900463816
 21
145.4401690349
 31
0.0
  0
ARC
  5
293
  8
0
  6
CONTINUOUS
 62
     7
 10
95.490046463
 20
145.5901691662
 30
0.0
 40
0.1250000000000284
 50
90.0
 51
270.0
  0
ARC
  5
294
  8
0
  6
CONTINUOUS
 62
     7
 10
100.990046463
 20
145.5901691662
 30
0.0
 40
0.1250000000000284
 50
270.0
 51
90.0
  0
LINE
  5
295
  8
0
  6
CONTINUOUS
 62
     7
 10
103.6213566779
 20
139.3008400988
 30
0.0
 11
103.620497853
 21
137.7008403721
 31
0.0
  0
POLYLINE
  5
296
  8
0
  6
CONTINUOUS
 62
     7
 66
     1
 10
0.0
 20
0.0
 30
0.0
  0
VERTEX
  5
404
  8
0
  6
CONTINUOUS
 62
     7
 10
103.620497853
 20
137.7008403721
 30
0.0
  0
VERTEX
  5
405
  8
0
  6
CONTINUOUS
 62
     7
 10
103.6090116479
 20
137.7008465421
 30
0.0
  0
VERTEX
  5
406
  8
0
  6
CONTINUOUS
 62
     7
 10
103.5950954477
 20
137.7008541091
 30
0.0
  0
VERTEX
  5
407
  8
0
  6
CONTINUOUS
 62
     7
 10
103.5800264738
 20
137.7008621417
 30
0.0
  0
VERTEX
  5
408
  8
0
  6
CONTINUOUS
 62
     7
 10
103.5651877112
 20
137.700870058
 30
0.0
  0
VERTEX
  5
409
  8
0
  6
CONTINUOUS
 62
     7
 10
103.5519411028
 20
137.7008771593
 30
0.0
  0
VERTEX
  5
40A
  8
0
  6
CONTINUOUS
 62
     7
 10
103.5415023446
 20
137.7008828637
 30
0.0
  0
VERTEX
  5
40B
  8
0
  6
CONTINUOUS
 62
     7
 10
103.5348295056
 20
137.7008863561
 30
0.0
  0
VERTEX
  5
40C
  8
0
  6
CONTINUOUS
 62
     7
 10
103.532535047
 20
137.7008876367
 30
0.0
  0
SEQEND
  5
463
  8
0
  6
CONTINUOUS
 62
     7
  0
LINE
  5
297
  8
0
  6
CONTINUOUS
 62
     7
 10
103.532535047
 20
137.7008876367
 30
0.0
 11
103.5333938719
 21
139.3008873634
 31
0.0
  0
POLYLINE
  5
298
  8
0
  6
CONTINUOUS
 62
     7
 66
     1
 10
0.0
 20
0.0
 30
0.0
  0
VERTEX
  5
40D
  8
0
  6
CONTINUOUS
 62
     7
 10
103.5333938719
 20
139.3008873634
 30
0.0
  0
VERTEX
  5
40E
  8
0
  6
CONTINUOUS
 62
     7
 10
103.5356883306
 20
139.3008861993
 30
0.0
  0
VERTEX
  5
40F
  8
0
  6
CONTINUOUS
 62
     7
 10
103.5423611695
 20
139.300882474
 30
0.0
  0
VERTEX
  5
410
  8
0
  6
CONTINUOUS
 62
     7
 10
103.5527999277
 20
139.3008768861
 30
0.0
  0
VERTEX
  5
411
  8
0
  6
CONTINUOUS
 62
     7
 10
103.5660465652
 20
139.3008699011
 30
0.0
  0
VERTEX
  5
412
  8
0
  6
CONTINUOUS
 62
     7
 10
103.5808852987
 20
139.3008619849
 30
0.0
  0
VERTEX
  5
413
  8
0
  6
CONTINUOUS
 62
     7
 10
103.5959542726
 20
139.3008538358
 30
0.0
  0
VERTEX
  5
414
  8
0
  6
CONTINUOUS
 62
     7
 10
103.6098704729
 20
139.3008463852
 30
0.0
  0
VERTEX
  5
415
  8
0
  6
CONTINUOUS
 62
     7
 10
103.6213566779
 20
139.3008400988
 30
0.0
  0
SEQEND
  5
462
  8
0
  6
CONTINUOUS
 62
     7
  0
LINE
  5
299
  8
0
  6
CONTINUOUS
 62
     7
 10
104.9445719921
 20
137.7001296565
 30
0.0
 11
104.9454307879
 21
139.3001294997
 31
0.0
  0
LINE
  5
29A
  8
0
  6
CONTINUOUS
 62
     7
 10
105.033393623
 20
139.3000822351
 30
0.0
 11
105.0325348272
 21
137.7000825083
 31
0.0
  0
POLYLINE
  5
29B
  8
0
  6
CONTINUOUS
 62
     7
 66
     1
 10
0.0
 20
0.0
 30
0.0
  0
VERTEX
  5
416
  8
0
  6
CONTINUOUS
 62
     7
 10
104.9454307879
 20
139.3001294997
 30
0.0
  0
VERTEX
  5
417
  8
0
  6
CONTINUOUS
 62
     7
 10
104.9569170221
 20
139.3001232133
 30
0.0
  0
VERTEX
  5
418
  8
0
  6
CONTINUOUS
 62
     7
 10
104.9708331932
 20
139.3001157627
 30
0.0
  0
VERTEX
  5
419
  8
0
  6
CONTINUOUS
 62
     7
 10
104.9859022253
 20
139.3001078464
 30
0.0
  0
VERTEX
  5
41A
  8
0
  6
CONTINUOUS
 62
     7
 10
105.0007409879
 20
139.3000996974
 30
0.0
  0
VERTEX
  5
41B
  8
0
  6
CONTINUOUS
 62
     7
 10
105.0139876545
 20
139.3000927124
 30
0.0
  0
VERTEX
  5
41C
  8
0
  6
CONTINUOUS
 62
     7
 10
105.0244263836
 20
139.3000871245
 30
0.0
  0
VERTEX
  5
41D
  8
0
  6
CONTINUOUS
 62
     7
 10
105.0310991934
 20
139.3000833992
 30
0.0
  0
VERTEX
  5
41E
  8
0
  6
CONTINUOUS
 62
     7
 10
105.033393623
 20
139.3000822351
 30
0.0
  0
SEQEND
  5
461
  8
0
  6
CONTINUOUS
 62
     7
  0
POLYLINE
  5
29C
  8
0
  6
CONTINUOUS
 62
     7
 66
     1
 10
0.0
 20
0.0
 30
0.0
  0
VERTEX
  5
41F
  8
0
  6
CONTINUOUS
 62
     7
 10
105.0325348272
 20
137.7000825083
 30
0.0
  0
VERTEX
  5
420
  8
0
  6
CONTINUOUS
 62
     7
 10
105.0302403976
 20
137.7000836725
 30
0.0
  0
VERTEX
  5
421
  8
0
  6
CONTINUOUS
 62
     7
 10
105.0235675878
 20
137.7000872813
 30
0.0
  0
VERTEX
  5
422
  8
0
  6
CONTINUOUS
 62
     7
 10
105.0131287423
 20
137.7000928693
 30
0.0
  0
VERTEX
  5
423
  8
0
  6
CONTINUOUS
 62
     7
 10
104.999882192
 20
137.7000999706
 30
0.0
  0
VERTEX
  5
424
  8
0
  6
CONTINUOUS
 62
     7
 10
104.9850434295
 20
137.7001080033
 30
0.0
  0
VERTEX
  5
425
  8
0
  6
CONTINUOUS
 62
     7
 10
104.9699743974
 20
137.7001160359
 30
0.0
  0
VERTEX
  5
426
  8
0
  6
CONTINUOUS
 62
     7
 10
104.9560582262
 20
137.7001234865
 30
0.0
  0
VERTEX
  5
427
  8
0
  6
CONTINUOUS
 62
     7
 10
104.9445719921
 20
137.7001296565
 30
0.0
  0
SEQEND
  5
460
  8
0
  6
CONTINUOUS
 62
     7
  0
LINE
  5
29D
  8
0
  6
CONTINUOUS
 62
     7
 10
104.2833937329
 20
139.3004847992
 30
0.0
 11
104.2825349371
 21
137.7004850725
 31
0.0
  0
LINE
  5
29E
  8
0
  6
CONTINUOUS
 62
     7
 10
104.2833937329
 20
139.3004847992
 30
0.0
 11
104.9454307879
 21
139.3001294997
 31
0.0
  0
LINE
  5
29F
  8
0
  6
CONTINUOUS
 62
     7
 10
104.2825349371
 20
137.7004850725
 30
0.0
 11
104.9445719921
 21
137.7001296565
 31
0.0
  0
LINE
  5
2A0
  8
0
  6
CONTINUOUS
 62
     7
 10
103.6213566779
 20
139.3008400988
 30
0.0
 11
104.2833937329
 21
139.3004847992
 31
0.0
  0
LINE
  5
2A1
  8
0
  6
CONTINUOUS
 62
     7
 10
103.620497853
 20
137.7008403721
 30
0.0
 11
104.2825349371
 21
137.7004850725
 31
0.0
  0
CIRCLE
  5
2A2
  8
0
  6
CONTINUOUS
 62
     7
 10
101.2529647836
 20
138.5021113444
 30
0.0
 40
0.5549999999999852
  0
CIRCLE
  5
2A3
  8
0
  6
CONTINUOUS
 62
     7
 10
108.8129636945
 20
138.4980533931
 30
0.0
 40
0.5549999999999852
  0
ARC
  5
2A4
  8
0
  6
CONTINUOUS
 62
     7
 10
100.7834613599
 20
139.4273634911
 30
0.0
 40
0.5000000000000048
 50
120.6526626786
 51
179.9692455696
  0
LINE
  5
2A5
  8
0
  6
CONTINUOUS
 62
     7
 10
109.5388377082
 20
139.8526638583
 30
0.0
 11
100.5285451186
 21
139.8575004492
 31
0.0
  0
ARC
  5
2A6
  8
0
  6
CONTINUOUS
 62
     7
 10
109.2834601354
 20
139.4228009798
 30
0.0
 40
0.5000000000000121
 50
359.9692455696
 51
59.2858284607
  0
LINE
  5
2A7
  8
0
  6
CONTINUOUS
 62
     7
 10
109.7824670371
 20
137.5725328759
 30
0.0
 11
109.7834602927
 21
139.4225325272
 31
0.0
  0
LINE
  5
2A8
  8
0
  6
CONTINUOUS
 62
     7
 10
100.5270906255
 20
137.1475007687
 30
0.0
 11
109.537383448
 21
137.1426643524
 31
0.0
  0
LINE
  5
2A9
  8
0
  6
CONTINUOUS
 62
     7
 10
103.5334072888
 20
139.325887321
 30
0.0
 11
103.5333938719
 21
139.3008873634
 31
0.0
  0
LINE
  5
2AA
  8
0
  6
CONTINUOUS
 62
     7
 10
106.5325212196
 20
137.674277306
 30
0.0
 11
106.5334069074
 21
139.3242770642
 31
0.0
  0
LINE
  5
2AB
  8
0
  6
CONTINUOUS
 62
     7
 10
106.5334069074
 20
139.3242770642
 30
0.0
 11
103.5334072888
 21
139.325887321
 31
0.0
  0
ARC
  5
2AC
  8
0
  6
CONTINUOUS
 62
     7
 10
100.7824683427
 20
137.5773637576
 30
0.0
 40
0.5000000000000048
 50
179.9692455696
 51
239.2858284607
  0
LINE
  5
2AD
  8
0
  6
CONTINUOUS
 62
     7
 10
100.2834615295
 20
139.4276319839
 30
0.0
 11
100.2824685068
 21
137.5776320998
 31
0.0
  0
LINE
  5
2AE
  8
0
  6
CONTINUOUS
 62
     7
 10
103.532535047
 20
137.7008876367
 30
0.0
 11
103.5325216301
 21
137.6758876792
 31
0.0
  0
LINE
  5
2AF
  8
0
  6
CONTINUOUS
 62
     7
 10
103.5325216301
 20
137.6758876792
 30
0.0
 11
106.5325212196
 21
137.674277306
 31
0.0
  0
ARC
  5
2B0
  8
0
  6
CONTINUOUS
 62
     7
 10
109.2824671182
 20
137.5728012463
 30
0.0
 40
0.5000000000000007
 50
300.6526626786
 51
359.9692455696
  0
LINE
  5
2B1
  8
0
  6
CONTINUOUS
 62
     7
 10
102.1821997358
 20
137.076612336
 30
0.0
 11
100.7821999022
 21
137.0773638551
 31
0.0
  0
LINE
  5
2B2
  8
0
  6
CONTINUOUS
 62
     7
 10
109.2821987343
 20
137.0728013058
 30
0.0
 11
107.8821987842
 21
137.0735527667
 31
0.0
  0
POLYLINE
  5
2B3
  8
0
  6
CONTINUOUS
 62
     7
 66
     1
 10
0.0
 20
0.0
 30
0.0
  0
VERTEX
  5
428
  8
0
  6
CONTINUOUS
 62
     7
 10
107.8821987842
 20
137.0735527667
 30
0.0
  0
VERTEX
  5
429
  8
0
  6
CONTINUOUS
 62
     7
 10
107.8821955246
 20
137.0668098167
 30
0.0
  0
VERTEX
  5
42A
  8
0
  6
CONTINUOUS
 62
     7
 10
107.8821922649
 20
137.0608248468
 30
0.0
  0
VERTEX
  5
42B
  8
0
  6
CONTINUOUS
 62
     7
 10
107.882189471
 20
137.0556570542
 30
0.0
  0
VERTEX
  5
42C
  8
0
  6
CONTINUOUS
 62
     7
 10
107.8821871427
 20
137.0513573707
 30
0.0
  0
VERTEX
  5
42D
  8
0
  6
CONTINUOUS
 62
     7
 10
107.88218528
 20
137.0479682879
 30
0.0
  0
VERTEX
  5
42E
  8
0
  6
CONTINUOUS
 62
     7
 10
107.882183883
 20
137.0455233333
 30
0.0
  0
VERTEX
  5
42F
  8
0
  6
CONTINUOUS
 62
     7
 10
107.8821829517
 20
137.0440466631
 30
0.0
  0
VERTEX
  5
430
  8
0
  6
CONTINUOUS
 62
     7
 10
107.8821829517
 20
137.0435527711
 30
0.0
  0
SEQEND
  5
45F
  8
0
  6
CONTINUOUS
 62
     7
  0
LINE
  5
2B4
  8
0
  6
CONTINUOUS
 62
     7
 10
107.8821829517
 20
137.0435527711
 30
0.0
 11
102.1821836705
 21
137.0466123404
 31
0.0
  0
POLYLINE
  5
2B5
  8
0
  6
CONTINUOUS
 62
     7
 66
     1
 10
0.0
 20
0.0
 30
0.0
  0
VERTEX
  5
431
  8
0
  6
CONTINUOUS
 62
     7
 10
102.1821836705
 20
137.0466123404
 30
0.0
  0
VERTEX
  5
432
  8
0
  6
CONTINUOUS
 62
     7
 10
102.1821839033
 20
137.0471062324
 30
0.0
  0
VERTEX
  5
433
  8
0
  6
CONTINUOUS
 62
     7
 10
102.1821847182
 20
137.0485829026
 30
0.0
  0
VERTEX
  5
434
  8
0
  6
CONTINUOUS
 62
     7
 10
102.1821859988
 20
137.0510278572
 30
0.0
  0
VERTEX
  5
435
  8
0
  6
CONTINUOUS
 62
     7
 10
102.1821878615
 20
137.05441694
 30
0.0
  0
VERTEX
  5
436
  8
0
  6
CONTINUOUS
 62
     7
 10
102.1821901898
 20
137.0587166235
 30
0.0
  0
VERTEX
  5
437
  8
0
  6
CONTINUOUS
 62
     7
 10
102.1821929837
 20
137.0638844161
 30
0.0
  0
VERTEX
  5
438
  8
0
  6
CONTINUOUS
 62
     7
 10
102.1821961269
 20
137.069869386
 30
0.0
  0
VERTEX
  5
439
  8
0
  6
CONTINUOUS
 62
     7
 10
102.1821997358
 20
137.076612336
 30
0.0
  0
SEQEND
  5
45E
  8
0
  6
CONTINUOUS
 62
     7
  0
POLYLINE
  5
2B6
  8
0
  6
CONTINUOUS
 62
     7
 66
     1
 10
0.0
 20
0.0
 30
0.0
  0
VERTEX
  5
43A
  8
0
  6
CONTINUOUS
 62
     7
 10
100.7821999022
 20
137.0773638551
 30
0.0
  0
VERTEX
  5
43B
  8
0
  6
CONTINUOUS
 62
     7
 10
100.6485288028
 20
137.0956374518
 30
0.0
  0
VERTEX
  5
43C
  8
0
  6
CONTINUOUS
 62
     7
 10
100.5270906255
 20
137.1475007687
 30
0.0
  0
SEQEND
  5
45D
  8
0
  6
CONTINUOUS
 62
     7
  0
POLYLINE
  5
2B7
  8
0
  6
CONTINUOUS
 62
     7
 66
     1
 10
0.0
 20
0.0
 30
0.0
  0
VERTEX
  5
43D
  8
0
  6
CONTINUOUS
 62
     7
 10
109.537383448
 20
137.1426643524
 30
0.0
  0
VERTEX
  5
43E
  8
0
  6
CONTINUOUS
 62
     7
 10
109.4145904292
 20
137.0905736181
 30
0.0
  0
VERTEX
  5
43F
  8
0
  6
CONTINUOUS
 62
     7
 10
109.2821987343
 20
137.0728013058
 30
0.0
  0
SEQEND
  5
45C
  8
0
  6
CONTINUOUS
 62
     7
  0
LINE
  5
2B8
  8
0
  6
CONTINUOUS
 62
     7
 10
107.8837289472
 20
139.9235524074
 30
0.0
 11
109.2837284316
 21
139.92280083
 31
0.0
  0
POLYLINE
  5
2B9
  8
0
  6
CONTINUOUS
 62
     7
 66
     1
 10
0.0
 20
0.0
 30
0.0
  0
VERTEX
  5
440
  8
0
  6
CONTINUOUS
 62
     7
 10
109.2837284316
 20
139.92280083
 30
0.0
  0
VERTEX
  5
441
  8
0
  6
CONTINUOUS
 62
     7
 10
109.4173997638
 20
139.9045273498
 30
0.0
  0
VERTEX
  5
442
  8
0
  6
CONTINUOUS
 62
     7
 10
109.5388377082
 20
139.8526638583
 30
0.0
  0
SEQEND
  5
45B
  8
0
  6
CONTINUOUS
 62
     7
  0
LINE
  5
2BA
  8
0
  6
CONTINUOUS
 62
     7
 10
100.7837298323
 20
139.9273633793
 30
0.0
 11
102.1837295496
 21
139.9266120348
 31
0.0
  0
POLYLINE
  5
2BB
  8
0
  6
CONTINUOUS
 62
     7
 66
     1
 10
0.0
 20
0.0
 30
0.0
  0
VERTEX
  5
443
  8
0
  6
CONTINUOUS
 62
     7
 10
102.1837295496
 20
139.9266120348
 30
0.0
  0
VERTEX
  5
444
  8
0
  6
CONTINUOUS
 62
     7
 10
102.1837331584
 20
139.9333548103
 30
0.0
  0
VERTEX
  5
445
  8
0
  6
CONTINUOUS
 62
     7
 10
102.1837364181
 20
139.9393399548
 30
0.0
  0
VERTEX
  5
446
  8
0
  6
CONTINUOUS
 62
     7
 10
102.1837390956
 20
139.9445076309
 30
0.0
  0
VERTEX
  5
447
  8
0
  6
CONTINUOUS
 62
     7
 10
102.1837414239
 20
139.9488073144
 30
0.0
  0
VERTEX
  5
448
  8
0
  6
CONTINUOUS
 62
     7
 10
102.1837432866
 20
139.9521963973
 30
0.0
  0
VERTEX
  5
449
  8
0
  6
CONTINUOUS
 62
     7
 10
102.1837445671
 20
139.9546413519
 30
0.0
  0
VERTEX
  5
44A
  8
0
  6
CONTINUOUS
 62
     7
 10
102.183745382
 20
139.9561181966
 30
0.0
  0
VERTEX
  5
44B
  8
0
  6
CONTINUOUS
 62
     7
 10
102.1837456149
 20
139.9566120304
 30
0.0
  0
SEQEND
  5
45A
  8
0
  6
CONTINUOUS
 62
     7
  0
LINE
  5
2BC
  8
0
  6
CONTINUOUS
 62
     7
 10
102.1837456149
 20
139.9566120304
 30
0.0
 11
107.8837447797
 21
139.953552403
 31
0.0
  0
POLYLINE
  5
2BD
  8
0
  6
CONTINUOUS
 62
     7
 66
     1
 10
0.0
 20
0.0
 30
0.0
  0
VERTEX
  5
44C
  8
0
  6
CONTINUOUS
 62
     7
 10
107.8837447797
 20
139.953552403
 30
0.0
  0
VERTEX
  5
44D
  8
0
  6
CONTINUOUS
 62
     7
 10
107.8837447797
 20
139.9530585692
 30
0.0
  0
VERTEX
  5
44E
  8
0
  6
CONTINUOUS
 62
     7
 10
107.8837438483
 20
139.9515817244
 30
0.0
  0
VERTEX
  5
44F
  8
0
  6
CONTINUOUS
 62
     7
 10
107.8837424514
 20
139.9491367698
 30
0.0
  0
VERTEX
  5
450
  8
0
  6
CONTINUOUS
 62
     7
 10
107.8837405887
 20
139.9457479198
 30
0.0
  0
VERTEX
  5
451
  8
0
  6
CONTINUOUS
 62
     7
 10
107.8837382604
 20
139.9414482363
 30
0.0
  0
VERTEX
  5
452
  8
0
  6
CONTINUOUS
 62
     7
 10
107.8837354664
 20
139.9362803273
 30
0.0
  0
VERTEX
  5
453
  8
0
  6
CONTINUOUS
 62
     7
 10
107.8837322068
 20
139.9302954156
 30
0.0
  0
VERTEX
  5
454
  8
0
  6
CONTINUOUS
 62
     7
 10
107.8837289472
 20
139.9235524074
 30
0.0
  0
SEQEND
  5
459
  8
0
  6
CONTINUOUS
 62
     7
  0
POLYLINE
  5
2BE
  8
0
  6
CONTINUOUS
 62
     7
 66
     1
 10
0.0
 20
0.0
 30
0.0
  0
VERTEX
  5
455
  8
0
  6
CONTINUOUS
 62
     7
 10
100.5285451186
 20
139.8575004492
 30
0.0
  0
VERTEX
  5
456
  8
0
  6
CONTINUOUS
 62
     7
 10
100.6513381374
 20
139.9095911835
 30
0.0
  0
VERTEX
  5
457
  8
0
  6
CONTINUOUS
 62
     7
 10
100.7837298323
 20
139.9273633793
 30
0.0
  0
SEQEND
  5
458
  8
0
  6
CONTINUOUS
 62
     7
  0
CIRCLE
  5
2BF
  8
0
  6
CONTINUOUS
 62
     7
 10
108.102416463
 20
141.9859091662
 30
0.0
 40
1.25
  0
LINE
  5
2C0
  8
0
  6
CONTINUOUS
 62
     7
 10
109.3524162655
 20
142.6163850189
 30
0.0
 11
109.3524162655
 21
141.9859089725
 31
0.0
  0
LINE
  5
2C1
  8
0
  6
CONTINUOUS
 62
     7
 10
109.3524162655
 20
141.9859089725
 30
0.0
 11
109.3524162655
 21
141.3554329261
 31
0.0
  0
ARC
  5
2C2
  8
0
  6
CONTINUOUS
 62
     7
 10
108.102416463
 20
141.9859091662
 30
0.0
 40
1.400000000000005
 50
26.7655005768
 51
333.2344994232
  0
LINE
  5
2C3
  8
0
  6
CONTINUOUS
 62
     7
 10
102.2327564654
 20
160.8003139332
 30
0.0
 11
97.2477564585
 21
160.8003139332
 31
0.0
  0
LINE
  5
2C4
  8
0
  6
CONTINUOUS
 62
     7
 10
102.2327564654
 20
158.6807057098
 30
0.0
 11
102.2327564654
 21
160.8003139332
 31
0.0
  0
LINE
  5
2C5
  8
0
  6
CONTINUOUS
 62
     7
 10
97.2477564585
 20
158.6807057098
 30
0.0
 11
102.2327564654
 21
158.6807057098
 31
0.0
  0
LINE
  5
2C6
  8
0
  6
CONTINUOUS
 62
     7
 10
97.2477564585
 20
160.8003139332
 30
0.0
 11
97.2477564585
 21
158.6807057098
 31
0.0
  0
CIRCLE
  5
2C7
  8
0
  6
CONTINUOUS
 62
     7
 10
101.0276962571
 20
159.7405091662
 30
0.0
 40
0.8625000000000114
  0
CIRCLE
  5
2C8
  8
0
  6
CONTINUOUS
 62
     7
 10
98.452816669
 20
159.7405091662
 30
0.0
 40
0.8625000000000114
  0
LINE
  5
2C9
  8
0
  6
CONTINUOUS
 62
     7
 10
102.2327564654
 20
157.8530095354
 30
0.0
 11
97.2477564585
 21
157.8530095354
 31
0.0
  0
LINE
  5
2CA
  8
0
  6
CONTINUOUS
 62
     7
 10
97.2477564585
 20
157.8530095354
 30
0.0
 11
97.2477564585
 21
158.6807057098
 31
0.0
  0
LINE
  5
2CB
  8
0
  6
CONTINUOUS
 62
     7
 10
102.2327564654
 20
158.6807057098
 30
0.0
 11
102.2327564654
 21
157.8530095354
 31
0.0
  0
LINE
  5
2CC
  8
0
  6
CONTINUOUS
 62
     7
 10
97.2477564585
 20
161.628008245
 30
0.0
 11
102.2327564654
 21
161.628008245
 31
0.0
  0
LINE
  5
2CD
  8
0
  6
CONTINUOUS
 62
     7
 10
97.2477564585
 20
160.8003139332
 30
0.0
 11
97.2477564585
 21
161.628008245
 31
0.0
  0
LINE
  5
2CE
  8
0
  6
CONTINUOUS
 62
     7
 10
102.2327564654
 20
161.628008245
 30
0.0
 11
102.2327564654
 21
160.8003139332
 31
0.0
  0
LINE
  5
2CF
  8
0
  6
CONTINUOUS
 62
     7
 10
101.8629340918
 20
159.9556453362
 30
0.0
 11
100.1924582754
 21
159.9556453362
 31
0.0
  0
LINE
  5
2D0
  8
0
  6
CONTINUOUS
 62
     7
 10
100.1924582754
 20
159.5656204805
 30
0.0
 11
101.8722792153
 21
159.5656204805
 31
0.0
  0
LINE
  5
2D1
  8
0
  6
CONTINUOUS
 62
     7
 10
100.1924582754
 20
159.9556453362
 30
0.0
 11
100.1924582754
 21
159.5656204805
 31
0.0
  0
LINE
  5
2D2
  8
0
  6
CONTINUOUS
 62
     7
 10
101.8722792153
 20
159.5656204805
 30
0.0
 11
101.8722792153
 21
159.9153972999
 31
0.0
  0
LINE
  5
2D3
  8
0
  6
CONTINUOUS
 62
     7
 10
97.6175785993
 20
159.9556453362
 30
0.0
 11
97.6175785993
 21
159.5656204805
 31
0.0
  0
LINE
  5
2D4
  8
0
  6
CONTINUOUS
 62
     7
 10
97.6175785993
 20
159.5656204805
 30
0.0
 11
99.2973995392
 21
159.5656204805
 31
0.0
  0
LINE
  5
2D5
  8
0
  6
CONTINUOUS
 62
     7
 10
99.2880546485
 20
159.9556453362
 30
0.0
 11
97.6175785993
 21
159.9556453362
 31
0.0
  0
LINE
  5
2D6
  8
0
  6
CONTINUOUS
 62
     7
 10
99.2973995392
 20
159.5656204805
 30
0.0
 11
99.2973995392
 21
159.9153972999
 31
0.0
  0
LINE
  5
2D7
  8
0
  6
CONTINUOUS
 62
     7
 10
107.2327465747
 20
160.8003139332
 30
0.0
 11
102.2477464515
 21
160.8003139332
 31
0.0
  0
LINE
  5
2D8
  8
0
  6
CONTINUOUS
 62
     7
 10
102.2477464515
 20
160.8003139332
 30
0.0
 11
102.2477464515
 21
161.628008245
 31
0.0
  0
LINE
  5
2D9
  8
0
  6
CONTINUOUS
 62
     7
 10
102.2477464515
 20
161.628008245
 30
0.0
 11
107.2327465747
 21
161.628008245
 31
0.0
  0
LINE
  5
2DA
  8
0
  6
CONTINUOUS
 62
     7
 10
107.2327465747
 20
161.628008245
 30
0.0
 11
107.2327465747
 21
160.8003139332
 31
0.0
  0
LINE
  5
2DB
  8
0
  6
CONTINUOUS
 62
     7
 10
102.2477464515
 20
158.6807057098
 30
0.0
 11
107.2327465747
 21
158.6807057098
 31
0.0
  0
LINE
  5
2DC
  8
0
  6
CONTINUOUS
 62
     7
 10
102.2477464515
 20
160.8003139332
 30
0.0
 11
102.2477464515
 21
158.6807057098
 31
0.0
  0
LINE
  5
2DD
  8
0
  6
CONTINUOUS
 62
     7
 10
107.2327465747
 20
158.6807057098
 30
0.0
 11
107.2327465747
 21
160.8003139332
 31
0.0
  0
CIRCLE
  5
2DE
  8
0
  6
CONTINUOUS
 62
     7
 10
103.452806669
 20
159.7405091662
 30
0.0
 40
0.8625000000000114
  0
CIRCLE
  5
2DF
  8
0
  6
CONTINUOUS
 62
     7
 10
106.0276862571
 20
159.7405091662
 30
0.0
 40
0.8625000000000114
  0
LINE
  5
2E0
  8
0
  6
CONTINUOUS
 62
     7
 10
107.2327465747
 20
157.8530095354
 30
0.0
 11
102.2477464515
 21
157.8530095354
 31
0.0
  0
LINE
  5
2E1
  8
0
  6
CONTINUOUS
 62
     7
 10
102.2477464515
 20
157.8530095354
 30
0.0
 11
102.2477464515
 21
158.6807057098
 31
0.0
  0
LINE
  5
2E2
  8
0
  6
CONTINUOUS
 62
     7
 10
107.2327465747
 20
158.6807057098
 30
0.0
 11
107.2327465747
 21
157.8530095354
 31
0.0
  0
LINE
  5
2E3
  8
0
  6
CONTINUOUS
 62
     7
 10
106.8629242011
 20
159.9556453362
 30
0.0
 11
105.1924483848
 21
159.9556453362
 31
0.0
  0
LINE
  5
2E4
  8
0
  6
CONTINUOUS
 62
     7
 10
106.8722690918
 20
159.5656204805
 30
0.0
 11
106.8722690918
 21
159.9153972999
 31
0.0
  0
LINE
  5
2E5
  8
0
  6
CONTINUOUS
 62
     7
 10
105.1924483848
 20
159.9556453362
 30
0.0
 11
105.1924483848
 21
159.5656204805
 31
0.0
  0
LINE
  5
2E6
  8
0
  6
CONTINUOUS
 62
     7
 10
105.1924483848
 20
159.5656204805
 30
0.0
 11
106.8722690918
 21
159.5656204805
 31
0.0
  0
LINE
  5
2E7
  8
0
  6
CONTINUOUS
 62
     7
 10
104.2973895321
 20
159.5656204805
 30
0.0
 11
104.2973895321
 21
159.9153972999
 31
0.0
  0
LINE
  5
2E8
  8
0
  6
CONTINUOUS
 62
     7
 10
104.288044525
 20
159.9556453362
 30
0.0
 11
102.6175687669
 21
159.9556453362
 31
0.0
  0
LINE
  5
2E9
  8
0
  6
CONTINUOUS
 62
     7
 10
102.6175687669
 20
159.5656204805
 30
0.0
 11
104.2973895321
 21
159.5656204805
 31
0.0
  0
LINE
  5
2EA
  8
0
  6
CONTINUOUS
 62
     7
 10
102.6175687669
 20
159.9556453362
 30
0.0
 11
102.6175687669
 21
159.5656204805
 31
0.0
  0
LINE
  5
2EB
  8
0
  6
CONTINUOUS
 62
     7
 10
94.7418104854
 20
137.2035969467
 30
0.0
 11
99.7267208525
 21
137.1737556834
 31
0.0
  0
LINE
  5
2EC
  8
0
  6
CONTINUOUS
 62
     7
 10
99.7394091912
 20
139.2933254898
 30
0.0
 11
94.7544988242
 21
139.3231666949
 31
0.0
  0
LINE
  5
2ED
  8
0
  6
CONTINUOUS
 62
     7
 10
99.7267208525
 20
137.1737556834
 30
0.0
 11
99.7394091912
 21
139.2933254898
 31
0.0
  0
CIRCLE
  5
2EE
  8
0
  6
CONTINUOUS
 62
     7
 10
95.9531930294
 20
138.2561681133
 30
0.0
 40
0.8625000000000026
  0
CIRCLE
  5
2EF
  8
0
  6
CONTINUOUS
 62
     7
 10
98.5280264821
 20
138.2407543542
 30
0.0
 40
0.8625000000000168
  0
LINE
  5
2F0
  8
0
  6
CONTINUOUS
 62
     7
 10
94.7544988242
 20
139.3231666949
 30
0.0
 11
94.7418104854
 21
137.2035969467
 31
0.0
  0
LINE
  5
2F1
  8
0
  6
CONTINUOUS
 62
     7
 10
99.7267208525
 20
137.1737556834
 30
0.0
 11
99.7217662164
 21
136.3460744393
 31
0.0
  0
LINE
  5
2F2
  8
0
  6
CONTINUOUS
 62
     7
 10
99.7217662164
 20
136.3460744393
 30
0.0
 11
94.7368558493
 21
136.3759156735
 31
0.0
  0
LINE
  5
2F3
  8
0
  6
CONTINUOUS
 62
     7
 10
94.7368558493
 20
136.3759156735
 30
0.0
 11
94.7418104854
 21
137.2035969467
 31
0.0
  0
LINE
  5
2F4
  8
0
  6
CONTINUOUS
 62
     7
 10
94.7594534603
 20
140.1508479681
 30
0.0
 11
99.7443640602
 21
140.121006763
 31
0.0
  0
LINE
  5
2F5
  8
0
  6
CONTINUOUS
 62
     7
 10
99.7443640602
 20
140.121006763
 30
0.0
 11
99.7394091912
 21
139.2933254898
 31
0.0
  0
LINE
  5
2F6
  8
0
  6
CONTINUOUS
 62
     7
 10
94.7544988242
 20
139.3231666949
 30
0.0
 11
94.7594534603
 21
140.1508479681
 31
0.0
  0
LINE
  5
2F7
  8
0
  6
CONTINUOUS
 62
     7
 10
95.1166827229
 20
138.0460348515
 30
0.0
 11
96.7871280384
 21
138.0360350082
 31
0.0
  0
LINE
  5
2F8
  8
0
  6
CONTINUOUS
 62
     7
 10
99.3642962069
 20
138.4106397232
 30
0.0
 11
97.6845057678
 21
138.4206954459
 31
0.0
  0
LINE
  5
2F9
  8
0
  6
CONTINUOUS
 62
     7
 10
99.361961614
 20
138.0206212703
 30
0.0
 11
99.3642962069
 21
138.4106397232
 31
0.0
  0
LINE
  5
2FA
  8
0
  6
CONTINUOUS
 62
     7
 10
97.6845057678
 20
138.4206954459
 30
0.0
 11
97.682411689
 21
138.070924913
 31
0.0
  0
LINE
  5
2FB
  8
0
  6
CONTINUOUS
 62
     7
 10
97.6915158328
 20
138.0306211137
 30
0.0
 11
99.361961614
 21
138.0206212703
 31
0.0
  0
LINE
  5
2FC
  8
0
  6
CONTINUOUS
 62
     7
 10
95.1096717265
 20
138.4361091838
 30
0.0
 11
95.1075781134
 21
138.0863387673
 31
0.0
  0
LINE
  5
2FD
  8
0
  6
CONTINUOUS
 62
     7
 10
96.7871280384
 20
138.0360350082
 30
0.0
 11
96.7894628641
 21
138.4260534611
 31
0.0
  0
LINE
  5
2FE
  8
0
  6
CONTINUOUS
 62
     7
 10
96.7894628641
 20
138.4260534611
 30
0.0
 11
95.1096717265
 21
138.4361091838
 31
0.0
  0
LINE
  5
2FF
  8
0
  6
CONTINUOUS
 62
     7
 10
97.6696786468
 20
138.2083919667
 30
0.0
 11
97.6693848145
 21
138.1592645845
 31
0.0
  0
CIRCLE
  5
300
  8
0
  6
CONTINUOUS
 62
     7
 10
111.240586463
 20
146.4905991662
 30
0.0
 40
0.2501900000000319
  0
ARC
  5
301
  8
0
  6
CONTINUOUS
 62
     7
 10
93.489796463
 20
160.2408891662
 30
0.0
 40
0.1993899999999944
 50
308.8226671977
 51
231.1773328023
  0
ARC
  5
302
  8
0
  6
CONTINUOUS
 62
     7
 10
91.739736463
 20
160.2408891662
 30
0.0
 40
0.1993899999999944
 50
308.8226671977
 51
231.1773328023
  0
ARC
  5
303
  8
0
  6
CONTINUOUS
 62
     7
 10
113.290366463
 20
145.2396491662
 30
0.0
 40
0.275589999999994
 50
90.0748448292
 51
270.0
  0
CIRCLE
  5
304
  8
0
  6
CONTINUOUS
 62
     7
 10
93.489796463
 20
143.2406691662
 30
0.0
 40
0.1993900000000224
  0
ARC
  5
305
  8
0
  6
CONTINUOUS
 62
     7
 10
93.489796463
 20
154.7405191662
 30
0.0
 40
0.1993900000000166
 50
270.0
 51
51.1773328023
  0
ARC
  5
306
  8
0
  6
CONTINUOUS
 62
     7
 10
93.489796463
 20
154.7405191662
 30
0.0
 40
0.1993900000000166
 50
128.8226671977
 51
270.0
  0
CIRCLE
  5
307
  8
0
  6
CONTINUOUS
 62
     7
 10
111.240586463
 20
145.2205991662
 30
0.0
 40
0.2501900000000035
  0
ARC
  5
308
  8
0
  6
CONTINUOUS
 62
     7
 10
113.290366463
 20
152.7402691662
 30
0.0
 40
0.275589999999994
 50
90.0748448292
 51
270.0
  0
CIRCLE
  5
309
  8
0
  6
CONTINUOUS
 62
     7
 10
93.489796463
 20
137.7402991662
 30
0.0
 40
0.199389999999994
  0
CIRCLE
  5
30A
  8
0
  6
CONTINUOUS
 62
     7
 10
89.278476463
 20
156.4004091662
 30
0.0
 40
0.250189999999975
  0
LINE
  5
30B
  8
0
  6
CONTINUOUS
 62
     7
 10
117.2401266169
 20
136.4906191662
 30
0.0
 11
117.2401266169
 21
144.2396490671
 31
0.0
  0
LINE
  5
30C
  8
0
  6
CONTINUOUS
 62
     7
 10
117.2401266169
 20
146.2396489293
 30
0.0
 11
117.2401266169
 21
151.7402691603
 31
0.0
  0
LINE
  5
30D
  8
0
  6
CONTINUOUS
 62
     7
 10
117.2401266169
 20
153.7402685568
 30
0.0
 11
117.2401266169
 21
161.4906195388
 31
0.0
  0
CIRCLE
  5
30E
  8
0
  6
CONTINUOUS
 62
     7
 10
110.990396463
 20
137.7402991662
 30
0.0
 40
0.199389999999994
  0
CIRCLE
  5
30F
  8
0
  6
CONTINUOUS
 62
     7
 10
91.739736463
 20
137.7402991662
 30
0.0
 40
0.199389999999994
  0
CIRCLE
  5
310
  8
0
  6
CONTINUOUS
 62
     7
 10
91.739736463
 20
143.2406691662
 30
0.0
 40
0.1993900000000224
  0
CIRCLE
  5
311
  8
0
  6
CONTINUOUS
 62
     7
 10
93.239606463
 20
152.7605891662
 30
0.0
 40
0.2501900000000035
  0
ARC
  5
312
  8
0
  6
CONTINUOUS
 62
     7
 10
91.739736463
 20
154.7405191662
 30
0.0
 40
0.1993900000000166
 50
270.0
 51
51.1773328023
  0
ARC
  5
313
  8
0
  6
CONTINUOUS
 62
     7
 10
91.739736463
 20
154.7405191662
 30
0.0
 40
0.1993900000000166
 50
128.8226671977
 51
270.0
  0
ARC
  5
314
  8
0
  6
CONTINUOUS
 62
     7
 10
95.490046463
 20
145.5901691662
 30
0.0
 40
0.199389999999994
 50
270.0
 51
321.1773328023
  0
ARC
  5
315
  8
0
  6
CONTINUOUS
 62
     7
 10
95.490046463
 20
145.5901691662
 30
0.0
 40
0.1993900000000123
 50
38.8226671977
 51
270.0
  0
CIRCLE
  5
316
  8
0
  6
CONTINUOUS
 62
     7
 10
111.240586463
 20
147.7605991662
 30
0.0
 40
0.250189999999975
  0
ARC
  5
317
  8
0
  6
CONTINUOUS
 62
     7
 10
91.189826463
 20
145.2409191662
 30
0.0
 40
0.275589999999994
 50
270.0
 51
89.9251551708
  0
CIRCLE
  5
318
  8
0
  6
CONTINUOUS
 62
     7
 10
111.240586463
 20
152.7605891662
 30
0.0
 40
0.2501900000000035
  0
CIRCLE
  5
319
  8
0
  6
CONTINUOUS
 62
     7
 10
115.239816463
 20
138.4908691662
 30
0.0
 40
0.8001000000000147
  0
CIRCLE
  5
31A
  8
0
  6
CONTINUOUS
 62
     7
 10
89.240376463
 20
159.4903191662
 30
0.0
 40
0.8000999999999863
  0
CIRCLE
  5
31B
  8
0
  6
CONTINUOUS
 62
     7
 10
93.239606463
 20
146.4905991662
 30
0.0
 40
0.2501900000000319
  0
CIRCLE
  5
31C
  8
0
  6
CONTINUOUS
 62
     7
 10
93.239606463
 20
151.4905891662
 30
0.0
 40
0.2501900000000035
  0
ARC
  5
31D
  8
0
  6
CONTINUOUS
 62
     7
 10
102.240096463
 20
147.7212291662
 30
0.0
 40
0.2413000000000069
 50
270.0
 51
32.8690433713
  0
ARC
  5
31E
  8
0
  6
CONTINUOUS
 62
     7
 10
102.240096463
 20
147.7212291662
 30
0.0
 40
0.2412999999999954
 50
144.8626102312
 51
270.0
  0
ARC
  5
31F
  8
0
  6
CONTINUOUS
 62
     7
 10
112.840786463
 20
160.6041091662
 30
0.0
 40
0.1993900000000033
 50
308.8226671977
 51
231.1773328023
  0
ARC
  5
320
  8
0
  6
CONTINUOUS
 62
     7
 10
111.071676463
 20
160.5863291662
 30
0.0
 40
0.1993900000000077
 50
308.8226671977
 51
231.1773328023
  0
ARC
  5
321
  8
0
  6
CONTINUOUS
 62
     7
 10
100.652596463
 20
148.9912291662
 30
0.0
 40
0.2997200000000029
 50
285.6868095312
 51
74.6838502549
  0
ARC
  5
322
  8
0
  6
CONTINUOUS
 62
     7
 10
95.453216463
 20
147.6907491662
 30
0.0
 40
0.299719999999991
 50
105.6828276262
 51
254.3171723738
  0
LINE
  5
323
  8
0
  6
CONTINUOUS
 62
     7
 10
117.2401266169
 20
161.4906195388
 30
0.0
 11
107.2327465747
 21
161.4906195388
 31
0.0
  0
LINE
  5
324
  8
0
  6
CONTINUOUS
 62
     7
 10
102.2477464515
 20
161.4906195388
 30
0.0
 11
102.2327564654
 21
161.4906195388
 31
0.0
  0
LINE
  5
325
  8
0
  6
CONTINUOUS
 62
     7
 10
97.2477564585
 20
161.4906195388
 30
0.0
 11
87.2401272875
 21
161.4906195388
 31
0.0
  0
CIRCLE
  5
326
  8
0
  6
CONTINUOUS
 62
     7
 10
112.740456463
 20
143.2406691662
 30
0.0
 40
0.1993900000000224
  0
CIRCLE
  5
327
  8
0
  6
CONTINUOUS
 62
     7
 10
110.990396463
 20
143.2406691662
 30
0.0
 40
0.1993900000000224
  0
LINE
  5
328
  8
0
  6
CONTINUOUS
 62
     7
 10
87.2401272875
 20
161.4906195388
 30
0.0
 11
87.2401272875
 21
153.7415388808
 31
0.0
  0
LINE
  5
329
  8
0
  6
CONTINUOUS
 62
     7
 10
87.2401272875
 20
151.7415394843
 30
0.0
 11
87.2401272875
 21
146.2409192533
 31
0.0
  0
LINE
  5
32A
  8
0
  6
CONTINUOUS
 62
     7
 10
87.2401272875
 20
144.2409193911
 30
0.0
 11
87.2401272875
 21
136.4906191662
 31
0.0
  0
LINE
  5
32B
  8
0
  6
CONTINUOUS
 62
     7
 10
87.2401272875
 20
136.4906191662
 30
0.0
 11
94.7375422341
 21
136.4906191662
 31
0.0
  0
LINE
  5
32C
  8
0
  6
CONTINUOUS
 62
     7
 10
99.722631415
 20
136.4906191662
 30
0.0
 11
117.2401266169
 21
136.4906191662
 31
0.0
  0
ARC
  5
32D
  8
0
  6
CONTINUOUS
 62
     7
 10
97.510616463
 20
155.2408991662
 30
0.0
 40
0.2413000000000011
 50
271.7647018656
 51
88.2352981343
  0
ARC
  5
32E
  8
0
  6
CONTINUOUS
 62
     7
 10
100.990416463
 20
145.5901691662
 30
0.0
 40
0.1993900000000123
 50
270.0
 51
141.1773328023
  0
ARC
  5
32F
  8
0
  6
CONTINUOUS
 62
     7
 10
100.990416463
 20
145.5901691662
 30
0.0
 40
0.199389999999994
 50
218.8226671977
 51
270.0
  0
CIRCLE
  5
330
  8
0
  6
CONTINUOUS
 62
     7
 10
111.240586463
 20
151.4905891662
 30
0.0
 40
0.2501900000000035
  0
CIRCLE
  5
331
  8
0
  6
CONTINUOUS
 62
     7
 10
93.239606463
 20
147.7605991662
 30
0.0
 40
0.250189999999975
  0
ARC
  5
332
  8
0
  6
CONTINUOUS
 62
     7
 10
104.740726463
 20
145.7603491662
 30
0.0
 40
0.241300000000009
 50
1.6808002938
 51
178.1513965686
  0
CIRCLE
  5
333
  8
0
  6
CONTINUOUS
 62
     7
 10
93.239606463
 20
150.2205891662
 30
0.0
 40
0.2501900000000319
  0
ARC
  5
334
  8
0
  6
CONTINUOUS
 62
     7
 10
104.740726463
 20
143.2203491662
 30
0.0
 40
0.2413000000000238
 50
270.0
 51
358.3198502588
  0
ARC
  5
335
  8
0
  6
CONTINUOUS
 62
     7
 10
104.740726463
 20
143.2203491662
 30
0.0
 40
0.2413000000000238
 50
181.8479525189
 51
270.0
  0
ARC
  5
336
  8
0
  6
CONTINUOUS
 62
     7
 10
103.990156463
 20
150.2612291662
 30
0.0
 40
0.2412999999999901
 50
328.037356849
 51
215.972979434
  0
ARC
  5
337
  8
0
  6
CONTINUOUS
 62
     7
 10
103.990156463
 20
147.7212291662
 30
0.0
 40
0.2412999999999954
 50
270.0
 51
31.962643151
  0
ARC
  5
338
  8
0
  6
CONTINUOUS
 62
     7
 10
103.990156463
 20
147.7212291662
 30
0.0
 40
0.2413000000000052
 50
144.027020566
 51
270.0
  0
ARC
  5
339
  8
0
  6
CONTINUOUS
 62
     7
 10
112.840786463
 20
155.1037391662
 30
0.0
 40
0.1993900000000255
 50
270.0
 51
51.1773328023
  0
ARC
  5
33A
  8
0
  6
CONTINUOUS
 62
     7
 10
112.840786463
 20
155.1037391662
 30
0.0
 40
0.1993900000000077
 50
128.8226671977
 51
270.0
  0
ARC
  5
33B
  8
0
  6
CONTINUOUS
 62
     7
 10
102.240096463
 20
150.2612291662
 30
0.0
 40
0.241299999999995
 50
327.1309566287
 51
215.1373897688
  0
CIRCLE
  5
33C
  8
0
  6
CONTINUOUS
 62
     7
 10
89.240376463
 20
138.4908691662
 30
0.0
 40
0.8000999999999863
  0
ARC
  5
33D
  8
0
  6
CONTINUOUS
 62
     7
 10
111.071676463
 20
155.0859591662
 30
0.0
 40
0.1993900000000298
 50
270.0
 51
51.1773328023
  0
ARC
  5
33E
  8
0
  6
CONTINUOUS
 62
     7
 10
111.071676463
 20
155.0859591662
 30
0.0
 40
0.1993900000000255
 50
128.8226671977
 51
270.0
  0
ARC
  5
33F
  8
0
  6
CONTINUOUS
 62
     7
 10
95.453216463
 20
150.2904391662
 30
0.0
 40
0.299719999999991
 50
105.6828276262
 51
254.3171723738
  0
CIRCLE
  5
340
  8
0
  6
CONTINUOUS
 62
     7
 10
115.239816463
 20
159.4903191662
 30
0.0
 40
0.8000999999999863
  0
ARC
  5
341
  8
0
  6
CONTINUOUS
 62
     7
 10
91.189826463
 20
152.7415391662
 30
0.0
 40
0.2755900000000153
 50
270.0
 51
89.9251551708
  0
CIRCLE
  5
342
  8
0
  6
CONTINUOUS
 62
     7
 10
93.239606463
 20
145.2205991662
 30
0.0
 40
0.2501900000000035
  0
CIRCLE
  5
343
  8
0
  6
CONTINUOUS
 62
     7
 10
111.240586463
 20
150.2205891662
 30
0.0
 40
0.2501900000000319
  0
ARC
  5
344
  8
0
  6
CONTINUOUS
 62
     7
 10
94.970616463
 20
155.2408991662
 30
0.0
 40
0.2413000000000241
 50
91.7647018645
 51
268.2352981356
  0
CIRCLE
  5
345
  8
0
  6
CONTINUOUS
 62
     7
 10
112.740456463
 20
137.7402991662
 30
0.0
 40
0.199389999999994
  0
LINE
  5
346
  8
0
  6
CONTINUOUS
 62
     7
 10
111.6216763851
 20
157.497816144
 30
0.0
 11
110.5216763911
 21
157.497816144
 31
0.0
  0
LINE
  5
347
  8
0
  6
CONTINUOUS
 62
     7
 10
111.6216763851
 20
158.4978163079
 30
0.0
 11
110.5216763911
 21
158.4978163079
 31
0.0
  0
LINE
  5
348
  8
0
  6
CONTINUOUS
 62
     7
 10
110.5216763911
 20
157.0863298908
 30
0.0
 11
111.6216763851
 21
157.0863298908
 31
0.0
  0
LINE
  5
349
  8
0
  6
CONTINUOUS
 62
     7
 10
111.6216763851
 20
156.8363293842
 30
0.0
 11
110.5216763911
 21
156.8363293842
 31
0.0
  0
LINE
  5
34A
  8
0
  6
CONTINUOUS
 62
     7
 10
111.6216763851
 20
157.9978171572
 30
0.0
 11
110.5216763911
 21
157.9978171572
 31
0.0
  0
LINE
  5
34B
  8
0
  6
CONTINUOUS
 62
     7
 10
110.5216763911
 20
157.7478166506
 30
0.0
 11
111.6216763851
 21
157.7478166506
 31
0.0
  0
LINE
  5
34C
  8
0
  6
CONTINUOUS
 62
     7
 10
110.5216763911
 20
158.2478176639
 30
0.0
 11
111.6216763851
 21
158.2478176639
 31
0.0
  0
LINE
  5
34D
  8
0
  6
CONTINUOUS
 62
     7
 10
110.5216763911
 20
158.7478168145
 30
0.0
 11
111.6216763851
 21
158.7478168145
 31
0.0
  0
LINE
  5
34E
  8
0
  6
CONTINUOUS
 62
     7
 10
111.2216761333
 20
156.0863297269
 30
0.0
 11
110.9216766429
 21
156.0863297269
 31
0.0
  0
LINE
  5
34F
  8
0
  6
CONTINUOUS
 62
     7
 10
111.2216761333
 20
159.5863293693
 30
0.0
 11
110.9216766429
 21
159.5863293693
 31
0.0
  0
ARC
  5
350
  8
0
  6
CONTINUOUS
 62
     7
 10
111.071676463
 20
160.5863291662
 30
0.0
 40
0.125
 50
0.0
 51
180.0
  0
ARC
  5
351
  8
0
  6
CONTINUOUS
 62
     7
 10
111.071676463
 20
155.0863291662
 30
0.0
 40
0.125
 50
180.0
 51
0.0
  0
LINE
  5
352
  8
0
  6
CONTINUOUS
 62
     7
 10
113.3907860142
 20
157.5155969546
 30
0.0
 11
112.2907869515
 21
157.5155969546
 31
0.0
  0
LINE
  5
353
  8
0
  6
CONTINUOUS
 62
     7
 10
112.2907860202
 20
157.1041088388
 30
0.0
 11
113.3907860142
 21
157.1041088388
 31
0.0
  0
LINE
  5
354
  8
0
  6
CONTINUOUS
 62
     7
 10
113.3907860142
 20
158.5155971185
 30
0.0
 11
112.2907869515
 21
158.5155971185
 31
0.0
  0
LINE
  5
355
  8
0
  6
CONTINUOUS
 62
     7
 10
112.2907860202
 20
158.2655966118
 30
0.0
 11
113.3907860142
 21
158.2655966118
 31
0.0
  0
LINE
  5
356
  8
0
  6
CONTINUOUS
 62
     7
 10
112.2907860202
 20
158.7655976251
 30
0.0
 11
113.3907860142
 21
158.7655976251
 31
0.0
  0
LINE
  5
357
  8
0
  6
CONTINUOUS
 62
     7
 10
113.3907860142
 20
158.0155961052
 30
0.0
 11
112.2907869515
 21
158.0155961052
 31
0.0
  0
LINE
  5
358
  8
0
  6
CONTINUOUS
 62
     7
 10
112.2907860202
 20
157.7655974612
 30
0.0
 11
113.3907860142
 21
157.7655974612
 31
0.0
  0
LINE
  5
359
  8
0
  6
CONTINUOUS
 62
     7
 10
113.3907860142
 20
156.8541083321
 30
0.0
 11
112.2907869515
 21
156.8541083321
 31
0.0
  0
LINE
  5
35A
  8
0
  6
CONTINUOUS
 62
     7
 10
112.9907866937
 20
156.1041086749
 30
0.0
 11
112.690786272
 21
156.1041086749
 31
0.0
  0
LINE
  5
35B
  8
0
  6
CONTINUOUS
 62
     7
 10
112.9907866937
 20
159.6041083172
 30
0.0
 11
112.690786272
 21
159.6041083172
 31
0.0
  0
ARC
  5
35C
  8
0
  6
CONTINUOUS
 62
     7
 10
112.840786463
 20
160.6041091662
 30
0.0
 40
0.1250000000000142
 50
0.0
 51
180.0
  0
ARC
  5
35D
  8
0
  6
CONTINUOUS
 62
     7
 10
112.840786463
 20
155.1041091662
 30
0.0
 40
0.1250000000000142
 50
180.0
 51
0.0
  0
LINE
  5
35E
  8
0
  6
CONTINUOUS
 62
     7
 10
91.1897368726
 20
157.4023760692
 30
0.0
 11
92.2897359353
 21
157.4023760692
 31
0.0
  0
LINE
  5
35F
  8
0
  6
CONTINUOUS
 62
     7
 10
91.1897368726
 20
156.7408893094
 30
0.0
 11
92.2897359353
 21
156.7408893094
 31
0.0
  0
LINE
  5
360
  8
0
  6
CONTINUOUS
 62
     7
 10
92.2897368666
 20
157.1523774252
 30
0.0
 11
91.1897368726
 21
157.1523774252
 31
0.0
  0
LINE
  5
361
  8
0
  6
CONTINUOUS
 62
     7
 10
92.2897368666
 20
156.4908888027
 30
0.0
 11
91.1897368726
 21
156.4908888027
 31
0.0
  0
LINE
  5
362
  8
0
  6
CONTINUOUS
 62
     7
 10
92.2897368666
 20
157.6523765758
 30
0.0
 11
91.1897368726
 21
157.6523765758
 31
0.0
  0
LINE
  5
363
  8
0
  6
CONTINUOUS
 62
     7
 10
91.1897368726
 20
158.4023762331
 30
0.0
 11
92.2897359353
 21
158.4023762331
 31
0.0
  0
LINE
  5
364
  8
0
  6
CONTINUOUS
 62
     7
 10
92.2897368666
 20
158.1523775891
 30
0.0
 11
91.1897368726
 21
158.1523775891
 31
0.0
  0
LINE
  5
365
  8
0
  6
CONTINUOUS
 62
     7
 10
91.1897368726
 20
157.9023770824
 30
0.0
 11
92.2897359353
 21
157.9023770824
 31
0.0
  0
LINE
  5
366
  8
0
  6
CONTINUOUS
 62
     7
 10
91.8897366148
 20
159.2408887878
 30
0.0
 11
91.5897361931
 21
159.2408887878
 31
0.0
  0
LINE
  5
367
  8
0
  6
CONTINUOUS
 62
     7
 10
91.8897366148
 20
155.7408891455
 30
0.0
 11
91.5897361931
 21
155.7408891455
 31
0.0
  0
ARC
  5
368
  8
0
  6
CONTINUOUS
 62
     7
 10
91.739736463
 20
160.2408891662
 30
0.0
 40
0.125
 50
0.0
 51
180.0
  0
ARC
  5
369
  8
0
  6
CONTINUOUS
 62
     7
 10
91.739736463
 20
154.7408891662
 30
0.0
 40
0.125
 50
180.0
 51
0.0
  0
LINE
  5
36A
  8
0
  6
CONTINUOUS
 62
     7
 10
92.9397962984
 20
157.4023760692
 30
0.0
 11
94.0397962925
 21
157.4023760692
 31
0.0
  0
LINE
  5
36B
  8
0
  6
CONTINUOUS
 62
     7
 10
94.0397962925
 20
157.1523774252
 30
0.0
 11
92.9397962984
 21
157.1523774252
 31
0.0
  0
LINE
  5
36C
  8
0
  6
CONTINUOUS
 62
     7
 10
92.9397962984
 20
156.7408893094
 30
0.0
 11
94.0397962925
 21
156.7408893094
 31
0.0
  0
LINE
  5
36D
  8
0
  6
CONTINUOUS
 62
     7
 10
94.0397962925
 20
158.1523775891
 30
0.0
 11
92.9397962984
 21
158.1523775891
 31
0.0
  0
LINE
  5
36E
  8
0
  6
CONTINUOUS
 62
     7
 10
94.0397962925
 20
157.6523765758
 30
0.0
 11
92.9397962984
 21
157.6523765758
 31
0.0
  0
LINE
  5
36F
  8
0
  6
CONTINUOUS
 62
     7
 10
92.9397962984
 20
158.4023762331
 30
0.0
 11
94.0397962925
 21
158.4023762331
 31
0.0
  0
LINE
  5
370
  8
0
  6
CONTINUOUS
 62
     7
 10
92.9397962984
 20
157.9023770824
 30
0.0
 11
94.0397962925
 21
157.9023770824
 31
0.0
  0
LINE
  5
371
  8
0
  6
CONTINUOUS
 62
     7
 10
94.0397962925
 20
156.4908888027
 30
0.0
 11
92.9397962984
 21
156.4908888027
 31
0.0
  0
LINE
  5
372
  8
0
  6
CONTINUOUS
 62
     7
 10
93.6397960406
 20
159.2408887878
 30
0.0
 11
93.3397965503
 21
159.2408887878
 31
0.0
  0
LINE
  5
373
  8
0
  6
CONTINUOUS
 62
     7
 10
93.6397960406
 20
155.7408891455
 30
0.0
 11
93.3397965503
 21
155.7408891455
 31
0.0
  0
ARC
  5
374
  8
0
  6
CONTINUOUS
 62
     7
 10
93.489796463
 20
160.2408891662
 30
0.0
 40
0.125
 50
0.0
 51
180.0
  0
ARC
  5
375
  8
0
  6
CONTINUOUS
 62
     7
 10
93.489796463
 20
154.7408891662
 30
0.0
 40
0.125
 50
180.0
 51
0.0
  0
LINE
  5
376
  8
0
  6
CONTINUOUS
 62
     7
 10
117.2400064763
 20
153.9902690634
 30
0.0
 11
113.2900066671
 21
153.9902690634
 31
0.0
  0
LINE
  5
377
  8
0
  6
CONTINUOUS
 62
     7
 10
117.2400064763
 20
151.490269585
 30
0.0
 11
117.2400064763
 21
153.9902690634
 31
0.0
  0
LINE
  5
378
  8
0
  6
CONTINUOUS
 62
     7
 10
113.2900066671
 20
153.9902690634
 30
0.0
 11
113.2900066671
 21
151.490269585
 31
0.0
  0
LINE
  5
379
  8
0
  6
CONTINUOUS
 62
     7
 10
113.2900066671
 20
151.490269585
 30
0.0
 11
117.2400064763
 21
151.490269585
 31
0.0
  0
LINE
  5
37A
  8
0
  6
CONTINUOUS
 62
     7
 10
118.1900067252
 20
153.7402685568
 30
0.0
 11
118.1900067252
 21
151.7402691603
 31
0.0
  0
LINE
  5
37B
  8
0
  6
CONTINUOUS
 62
     7
 10
117.2400064763
 20
146.4896494359
 30
0.0
 11
113.2900066671
 21
146.4896494359
 31
0.0
  0
LINE
  5
37C
  8
0
  6
CONTINUOUS
 62
     7
 10
117.2400064763
 20
143.9896490261
 30
0.0
 11
117.2400064763
 21
146.4896494359
 31
0.0
  0
LINE
  5
37D
  8
0
  6
CONTINUOUS
 62
     7
 10
113.2900066671
 20
146.4896494359
 30
0.0
 11
113.2900066671
 21
143.9896490261
 31
0.0
  0
LINE
  5
37E
  8
0
  6
CONTINUOUS
 62
     7
 10
113.2900066671
 20
143.9896490261
 30
0.0
 11
117.2400064763
 21
143.9896490261
 31
0.0
  0
LINE
  5
37F
  8
0
  6
CONTINUOUS
 62
     7
 10
118.1900067252
 20
146.2396489293
 30
0.0
 11
118.1900067252
 21
144.2396490671
 31
0.0
  0
LINE
  5
380
  8
0
  6
CONTINUOUS
 62
     7
 10
91.1901867014
 20
153.9915393874
 30
0.0
 11
87.2401868921
 21
153.9915393874
 31
0.0
  0
LINE
  5
381
  8
0
  6
CONTINUOUS
 62
     7
 10
91.1901867014
 20
151.4915389777
 30
0.0
 11
91.1901867014
 21
153.9915393874
 31
0.0
  0
LINE
  5
382
  8
0
  6
CONTINUOUS
 62
     7
 10
87.2401868921
 20
151.4915389777
 30
0.0
 11
91.1901867014
 21
151.4915389777
 31
0.0
  0
LINE
  5
383
  8
0
  6
CONTINUOUS
 62
     7
 10
87.2401868921
 20
153.9915393874
 30
0.0
 11
87.2401868921
 21
151.4915389777
 31
0.0
  0
LINE
  5
384
  8
0
  6
CONTINUOUS
 62
     7
 10
86.290185712
 20
151.7415394843
 30
0.0
 11
86.290185712
 21
153.7415388808
 31
0.0
  0
LINE
  5
385
  8
0
  6
CONTINUOUS
 62
     7
 10
91.1901867014
 20
146.4909188286
 30
0.0
 11
87.2401868921
 21
146.4909188286
 31
0.0
  0
LINE
  5
386
  8
0
  6
CONTINUOUS
 62
     7
 10
91.1901867014
 20
143.9909193501
 30
0.0
 11
91.1901867014
 21
146.4909188286
 31
0.0
  0
LINE
  5
387
  8
0
  6
CONTINUOUS
 62
     7
 10
87.2401868921
 20
143.9909193501
 30
0.0
 11
91.1901867014
 21
143.9909193501
 31
0.0
  0
LINE
  5
388
  8
0
  6
CONTINUOUS
 62
     7
 10
87.2401868921
 20
146.4909188286
 30
0.0
 11
87.2401868921
 21
143.9909193501
 31
0.0
  0
LINE
  5
389
  8
0
  6
CONTINUOUS
 62
     7
 10
86.290185712
 20
144.2409193911
 30
0.0
 11
86.290185712
 21
146.2409192533
 31
0.0
  0
LINE
  5
38A
  8
0
  6
CONTINUOUS
 62
     7
 10
118.1950060648
 20
146.2396489293
 30
0.0
 11
118.1950060648
 21
144.2396490671
 31
0.0
  0
LINE
  5
38B
  8
0
  6
CONTINUOUS
 62
     7
 10
118.6950061467
 20
146.2396489293
 30
0.0
 11
118.6950061467
 21
144.2396490671
 31
0.0
  0
LINE
  5
38C
  8
0
  6
CONTINUOUS
 62
     7
 10
85.7851872218
 20
144.2409193911
 30
0.0
 11
85.7851872218
 21
146.2409192533
 31
0.0
  0
LINE
  5
38D
  8
0
  6
CONTINUOUS
 62
     7
 10
86.2851863724
 20
144.2409193911
 30
0.0
 11
86.2851863724
 21
146.2409192533
 31
0.0
  0
LINE
  5
38E
  8
0
  6
CONTINUOUS
 62
     7
 10
118.1950060648
 20
153.7402685568
 30
0.0
 11
118.1950060648
 21
151.7402691603
 31
0.0
  0
LINE
  5
38F
  8
0
  6
CONTINUOUS
 62
     7
 10
118.6950061467
 20
153.7402685568
 30
0.0
 11
118.6950061467
 21
151.7402691603
 31
0.0
  0
LINE
  5
390
  8
0
  6
CONTINUOUS
 62
     7
 10
86.2851863724
 20
151.7415394843
 30
0.0
 11
86.2851863724
 21
153.7415388808
 31
0.0
  0
LINE
  5
391
  8
0
  6
CONTINUOUS
 62
     7
 10
85.7851872218
 20
151.7415394843
 30
0.0
 11
85.7851872218
 21
153.7415388808
 31
0.0
  0
LINE
  5
392
  8
0
  6
CONTINUOUS
 62
     8
 10
102.142767538
 20
150.0978082255
 30
0.0
 11
102.142767538
 21
149.9774785549
 31
0.0
  0
LINE
  5
393
  8
0
  6
CONTINUOUS
 62
     8
 10
102.3427675475
 20
149.9774785549
 30
0.0
 11
102.3427675475
 21
150.0978082255
 31
0.0
  0
LINE
  5
394
  8
0
  6
CONTINUOUS
 62
     8
 10
102.142767538
 20
148.0488221929
 30
0.0
 11
102.142767538
 21
147.9344250471
 31
0.0
  0
LINE
  5
395
  8
0
  6
CONTINUOUS
 62
     8
 10
102.3427675475
 20
147.9344250471
 30
0.0
 11
102.3427675475
 21
148.0488221929
 31
0.0
  0
LINE
  5
396
  8
0
  6
CONTINUOUS
 62
     8
 10
102.2677675585
 20
147.9344250471
 30
0.0
 11
102.2677675585
 21
147.9083582595
 31
0.0
  0
LINE
  5
397
  8
0
  6
CONTINUOUS
 62
     8
 10
102.217767527
 20
147.9083582595
 30
0.0
 11
102.217767527
 21
147.9344250471
 31
0.0
  0
LINE
  5
398
  8
0
  6
CONTINUOUS
 62
     8
 10
102.0427674751
 20
150.083743392
 30
0.0
 11
102.0445449042
 21
150.083743392
 31
0.0
  0
LINE
  5
399
  8
0
  6
CONTINUOUS
 62
     8
 10
102.4427674941
 20
150.083743392
 30
0.0
 11
102.4409901231
 21
150.083743392
 31
0.0
  0
LINE
  5
39A
  8
0
  6
CONTINUOUS
 62
     8
 10
102.2677675585
 20
150.0978082255
 30
0.0
 11
102.2677675585
 21
150.2837430522
 31
0.0
  0
LINE
  5
39B
  8
0
  6
CONTINUOUS
 62
     8
 10
102.217767527
 20
150.2837430522
 30
0.0
 11
102.217767527
 21
150.0978082255
 31
0.0
  0
LINE
  5
39C
  8
0
  6
CONTINUOUS
 62
     8
 10
103.894873778
 20
150.0831650406
 30
0.0
 11
103.894873778
 21
149.96283537
 31
0.0
  0
LINE
  5
39D
  8
0
  6
CONTINUOUS
 62
     8
 10
104.0948737875
 20
149.96283537
 30
0.0
 11
104.0948737875
 21
150.0831650406
 31
0.0
  0
LINE
  5
39E
  8
0
  6
CONTINUOUS
 62
     8
 10
103.894873778
 20
148.034179008
 30
0.0
 11
103.894873778
 21
147.9197818622
 31
0.0
  0
LINE
  5
39F
  8
0
  6
CONTINUOUS
 62
     8
 10
104.0948737875
 20
147.9197818622
 30
0.0
 11
104.0948737875
 21
148.034179008
 31
0.0
  0
LINE
  5
3A0
  8
0
  6
CONTINUOUS
 62
     8
 10
103.969873767
 20
147.8937150747
 30
0.0
 11
103.969873767
 21
147.9197818622
 31
0.0
  0
LINE
  5
3A1
  8
0
  6
CONTINUOUS
 62
     8
 10
104.0198737985
 20
147.9197818622
 30
0.0
 11
104.0198737985
 21
147.8937150747
 31
0.0
  0
LINE
  5
3A2
  8
0
  6
CONTINUOUS
 62
     8
 10
103.7948737733
 20
150.0691002071
 30
0.0
 11
103.7966512024
 21
150.0691002071
 31
0.0
  0
LINE
  5
3A3
  8
0
  6
CONTINUOUS
 62
     8
 10
104.1948737923
 20
150.0691002071
 30
0.0
 11
104.1930964214
 21
150.0691002071
 31
0.0
  0
LINE
  5
3A4
  8
0
  6
CONTINUOUS
 62
     8
 10
104.0198737985
 20
150.0831650406
 30
0.0
 11
104.0198737985
 21
150.2690998674
 31
0.0
  0
LINE
  5
3A5
  8
0
  6
CONTINUOUS
 62
     8
 10
103.969873767
 20
150.2690998674
 30
0.0
 11
103.969873767
 21
150.0831650406
 31
0.0
  0
LINE
  5
3A6
  8
0
  6
CONTINUOUS
 62
     8
 10
98.0535591018
 20
145.0151692912
 30
0.0
 11
98.0535591018
 21
146.1651692003
 31
0.0
  0
LINE
  5
3A7
  8
0
  6
CONTINUOUS
 62
     8
 10
98.3535590579
 20
146.1651692003
 30
0.0
 11
98.3535590579
 21
145.0151692912
 31
0.0
  0
LINE
  5
3A8
  8
0
  6
CONTINUOUS
 62
     8
 10
97.3535588939
 20
146.1651692003
 30
0.0
 11
97.3535588939
 21
145.0151692912
 31
0.0
  0
LINE
  5
3A9
  8
0
  6
CONTINUOUS
 62
     8
 10
97.5535590199
 20
145.0151692912
 30
0.0
 11
97.5535590199
 21
146.1651692003
 31
0.0
  0
LINE
  5
3AA
  8
0
  6
CONTINUOUS
 62
     8
 10
98.5535587181
 20
145.0151692912
 30
0.0
 11
98.5535587181
 21
146.1651692003
 31
0.0
  0
LINE
  5
3AB
  8
0
  6
CONTINUOUS
 62
     8
 10
97.8535589759
 20
146.1651692003
 30
0.0
 11
97.8535589759
 21
145.0151692912
 31
0.0
  0
LINE
  5
3AC
  8
0
  6
CONTINUOUS
 62
     8
 10
99.0150462833
 20
146.1651692003
 30
0.0
 11
99.0150462833
 21
145.0151692912
 31
0.0
  0
LINE
  5
3AD
  8
0
  6
CONTINUOUS
 62
     8
 10
99.2150464092
 20
145.0151692912
 30
0.0
 11
99.2150464092
 21
146.1651692003
 31
0.0
  0
LINE
  5
3AE
  8
0
  6
CONTINUOUS
 62
     8
 10
99.5900464707
 20
146.1401687771
 30
0.0
 11
99.5900464707
 21
145.0401687831
 31
0.0
  0
LINE
  5
3AF
  8
0
  6
CONTINUOUS
 62
     8
 10
96.8900466335
 20
146.1401687771
 30
0.0
 11
96.8900466335
 21
145.0401687831
 31
0.0
  0
LINE
  5
3B0
  8
0
  6
CONTINUOUS
 62
     8
 10
95.9900462997
 20
145.7151690334
 30
0.0
 11
95.9900462997
 21
145.4651694581
 31
0.0
  0
LINE
  5
3B1
  8
0
  6
CONTINUOUS
 62
     8
 10
100.4900465716
 20
145.7151690334
 30
0.0
 11
100.4900465716
 21
145.4651694581
 31
0.0
  0
LINE
  5
3B2
  8
0
  6
CONTINUOUS
 62
     8
 10
110.4966764335
 20
157.5228165672
 30
0.0
 11
111.6466768083
 21
157.5228165672
 31
0.0
  0
LINE
  5
3B3
  8
0
  6
CONTINUOUS
 62
     8
 10
111.6466768083
 20
157.7228162274
 30
0.0
 11
110.4966764335
 21
157.7228162274
 31
0.0
  0
LINE
  5
3B4
  8
0
  6
CONTINUOUS
 62
     8
 10
111.6466768083
 20
158.2228172407
 30
0.0
 11
110.4966764335
 21
158.2228172407
 31
0.0
  0
LINE
  5
3B5
  8
0
  6
CONTINUOUS
 62
     8
 10
110.4966764335
 20
158.0228175804
 30
0.0
 11
111.6466768083
 21
158.0228175804
 31
0.0
  0
LINE
  5
3B6
  8
0
  6
CONTINUOUS
 62
     8
 10
110.4966764335
 20
158.5228167311
 30
0.0
 11
111.6466768083
 21
158.5228167311
 31
0.0
  0
LINE
  5
3B7
  8
0
  6
CONTINUOUS
 62
     8
 10
111.6466768083
 20
157.0613294676
 30
0.0
 11
110.4966764335
 21
157.0613294676
 31
0.0
  0
LINE
  5
3B8
  8
0
  6
CONTINUOUS
 62
     8
 10
110.4966764335
 20
156.8613298074
 30
0.0
 11
111.6466768083
 21
156.8613298074
 31
0.0
  0
LINE
  5
3B9
  8
0
  6
CONTINUOUS
 62
     8
 10
111.6466768083
 20
158.7228163913
 30
0.0
 11
110.4966764335
 21
158.7228163913
 31
0.0
  0
LINE
  5
3BA
  8
0
  6
CONTINUOUS
 62
     8
 10
111.6216763851
 20
156.4863290474
 30
0.0
 11
110.5216763911
 21
156.4863290474
 31
0.0
  0
LINE
  5
3BB
  8
0
  6
CONTINUOUS
 62
     8
 10
111.6216763851
 20
159.1863300488
 30
0.0
 11
110.5216763911
 21
159.1863300488
 31
0.0
  0
LINE
  5
3BC
  8
0
  6
CONTINUOUS
 62
     8
 10
111.1966766414
 20
160.0863285199
 30
0.0
 11
110.9466766004
 21
160.0863285199
 31
0.0
  0
LINE
  5
3BD
  8
0
  6
CONTINUOUS
 62
     8
 10
111.1966766414
 20
155.5863287136
 30
0.0
 11
110.9466766004
 21
155.5863287136
 31
0.0
  0
LINE
  5
3BE
  8
0
  6
CONTINUOUS
 62
     8
 10
112.2657865283
 20
157.5405973777
 30
0.0
 11
113.4157864374
 21
157.5405973777
 31
0.0
  0
LINE
  5
3BF
  8
0
  6
CONTINUOUS
 62
     8
 10
113.4157864374
 20
157.0791084156
 30
0.0
 11
112.2657865283
 21
157.0791084156
 31
0.0
  0
LINE
  5
3C0
  8
0
  6
CONTINUOUS
 62
     8
 10
112.2657865283
 20
158.5405975417
 30
0.0
 11
113.4157864374
 21
158.5405975417
 31
0.0
  0
LINE
  5
3C1
  8
0
  6
CONTINUOUS
 62
     8
 10
113.4157864374
 20
158.7405972019
 30
0.0
 11
112.2657865283
 21
158.7405972019
 31
0.0
  0
LINE
  5
3C2
  8
0
  6
CONTINUOUS
 62
     8
 10
113.4157864374
 20
158.2405961886
 30
0.0
 11
112.2657865283
 21
158.2405961886
 31
0.0
  0
LINE
  5
3C3
  8
0
  6
CONTINUOUS
 62
     8
 10
112.2657865283
 20
158.0405965284
 30
0.0
 11
113.4157864374
 21
158.0405965284
 31
0.0
  0
LINE
  5
3C4
  8
0
  6
CONTINUOUS
 62
     8
 10
112.2657865283
 20
156.8791087553
 30
0.0
 11
113.4157864374
 21
156.8791087553
 31
0.0
  0
LINE
  5
3C5
  8
0
  6
CONTINUOUS
 62
     8
 10
113.4157864374
 20
157.740597038
 30
0.0
 11
112.2657865283
 21
157.740597038
 31
0.0
  0
LINE
  5
3C6
  8
0
  6
CONTINUOUS
 62
     8
 10
113.3907860142
 20
159.2041089967
 30
0.0
 11
112.2907860202
 21
159.2041089967
 31
0.0
  0
LINE
  5
3C7
  8
0
  6
CONTINUOUS
 62
     8
 10
113.3907860142
 20
156.504109858
 30
0.0
 11
112.2907860202
 21
156.504109858
 31
0.0
  0
LINE
  5
3C8
  8
0
  6
CONTINUOUS
 62
     8
 10
112.9657862705
 20
155.6041095242
 30
0.0
 11
112.7157866952
 21
155.6041095242
 31
0.0
  0
LINE
  5
3C9
  8
0
  6
CONTINUOUS
 62
     8
 10
112.9657862705
 20
160.1041093305
 30
0.0
 11
112.7157866952
 21
160.1041093305
 31
0.0
  0
LINE
  5
3CA
  8
0
  6
CONTINUOUS
 62
     8
 10
92.3147363585
 20
157.3773775086
 30
0.0
 11
91.1647364494
 21
157.3773775086
 31
0.0
  0
LINE
  5
3CB
  8
0
  6
CONTINUOUS
 62
     8
 10
92.3147363585
 20
156.7158888862
 30
0.0
 11
91.1647364494
 21
156.7158888862
 31
0.0
  0
LINE
  5
3CC
  8
0
  6
CONTINUOUS
 62
     8
 10
91.1647364494
 20
157.1773759857
 30
0.0
 11
92.3147363585
 21
157.1773759857
 31
0.0
  0
LINE
  5
3CD
  8
0
  6
CONTINUOUS
 62
     8
 10
91.1647364494
 20
156.5158892259
 30
0.0
 11
92.3147363585
 21
156.5158892259
 31
0.0
  0
LINE
  5
3CE
  8
0
  6
CONTINUOUS
 62
     8
 10
92.3147363585
 20
157.8773766592
 30
0.0
 11
91.1647364494
 21
157.8773766592
 31
0.0
  0
LINE
  5
3CF
  8
0
  6
CONTINUOUS
 62
     8
 10
91.1647364494
 20
157.677376999
 30
0.0
 11
92.3147363585
 21
157.677376999
 31
0.0
  0
LINE
  5
3D0
  8
0
  6
CONTINUOUS
 62
     8
 10
92.3147363585
 20
158.3773758099
 30
0.0
 11
91.1647364494
 21
158.3773758099
 31
0.0
  0
LINE
  5
3D1
  8
0
  6
CONTINUOUS
 62
     8
 10
91.1647364494
 20
158.1773761496
 30
0.0
 11
92.3147363585
 21
158.1773761496
 31
0.0
  0
LINE
  5
3D2
  8
0
  6
CONTINUOUS
 62
     8
 10
92.2897368666
 20
158.8408894673
 30
0.0
 11
91.1897368726
 21
158.8408894673
 31
0.0
  0
LINE
  5
3D3
  8
0
  6
CONTINUOUS
 62
     8
 10
92.2897368666
 20
156.140888466
 30
0.0
 11
91.1897368726
 21
156.140888466
 31
0.0
  0
LINE
  5
3D4
  8
0
  6
CONTINUOUS
 62
     8
 10
91.8647361916
 20
155.2408899948
 30
0.0
 11
91.6147366163
 21
155.2408899948
 31
0.0
  0
LINE
  5
3D5
  8
0
  6
CONTINUOUS
 62
     8
 10
91.8647361916
 20
159.7408898011
 30
0.0
 11
91.6147366163
 21
159.7408898011
 31
0.0
  0
LINE
  5
3D6
  8
0
  6
CONTINUOUS
 62
     8
 10
94.0647967157
 20
157.3773775086
 30
0.0
 11
92.9147968066
 21
157.3773775086
 31
0.0
  0
LINE
  5
3D7
  8
0
  6
CONTINUOUS
 62
     8
 10
92.9147968066
 20
157.1773759857
 30
0.0
 11
94.0647967157
 21
157.1773759857
 31
0.0
  0
LINE
  5
3D8
  8
0
  6
CONTINUOUS
 62
     8
 10
94.0647967157
 20
156.7158888862
 30
0.0
 11
92.9147968066
 21
156.7158888862
 31
0.0
  0
LINE
  5
3D9
  8
0
  6
CONTINUOUS
 62
     8
 10
94.0647967157
 20
158.3773758099
 30
0.0
 11
92.9147968066
 21
158.3773758099
 31
0.0
  0
LINE
  5
3DA
  8
0
  6
CONTINUOUS
 62
     8
 10
92.9147968066
 20
158.1773761496
 30
0.0
 11
94.0647967157
 21
158.1773761496
 31
0.0
  0
LINE
  5
3DB
  8
0
  6
CONTINUOUS
 62
     8
 10
94.0647967157
 20
157.8773766592
 30
0.0
 11
92.9147968066
 21
157.8773766592
 31
0.0
  0
LINE
  5
3DC
  8
0
  6
CONTINUOUS
 62
     8
 10
92.9147968066
 20
157.677376999
 30
0.0
 11
94.0647967157
 21
157.677376999
 31
0.0
  0
LINE
  5
3DD
  8
0
  6
CONTINUOUS
 62
     8
 10
92.9147968066
 20
156.5158892259
 30
0.0
 11
94.0647967157
 21
156.5158892259
 31
0.0
  0
LINE
  5
3DE
  8
0
  6
CONTINUOUS
 62
     8
 10
94.0397962925
 20
156.140888466
 30
0.0
 11
92.9397962984
 21
156.140888466
 31
0.0
  0
LINE
  5
3DF
  8
0
  6
CONTINUOUS
 62
     8
 10
94.0397962925
 20
158.8408894673
 30
0.0
 11
92.9397962984
 21
158.8408894673
 31
0.0
  0
LINE
  5
3E0
  8
0
  6
CONTINUOUS
 62
     8
 10
93.6147965488
 20
155.2408899948
 30
0.0
 11
93.3647960421
 21
155.2408899948
 31
0.0
  0
LINE
  5
3E1
  8
0
  6
CONTINUOUS
 62
     8
 10
93.6147965488
 20
159.7408898011
 30
0.0
 11
93.3647960421
 21
159.7408898011
 31
0.0
  0
TEXT
  5
3E2
  8
0
  6
CONTINUOUS
 62
     7
 10
0.0
 20
6.732893805
 30
0.0
 40
3.633
  1
Edition tudiante de SolidWorks.
 41
0.6671875
 11
0.0
 21
5.4495
 31
0.0
 73
     1
  0
TEXT
  5
3E3
  8
0
  6
CONTINUOUS
 62
     7
 10
0.0
 20
1.283393805
 30
0.0
 40
3.633
  1
A usage universitaire uniquement.
 41
0.6681818182
 11
0.0
 21
0.0
 31
0.0
 73
     1
  0
ENDSEC
  0
EOF
