  0
SECTION
  2
HEADER
  9
$ACADVER
  1
AC1009
  9
$DWGCODEPAGE
  3
ansi_1252
  9
$INSBASE
 10
0.0
 20
0.0
 30
0.0
  9
$EXTMIN
 10
0.0
 20
0.0
 30
0.0
  9
$EXTMAX
 10
210.0
 20
297.0
 30
0.0
  9
$LIMMIN
 10
0.0
 20
0.0
  9
$LIMMAX
 10
210.0
 20
297.0
  9
$ORTHOMODE
 70
     0
  9
$REGENMODE
 70
     1
  9
$FILLMODE
 70
     1
  9
$QTEXTMODE
 70
     0
  9
$MIRRTEXT
 70
     1
  9
$DRAGMODE
 70
     2
  9
$LTSCALE
 40
1.0
  9
$OSMODE
 70
    37
  9
$ATTMODE
 70
     1
  9
$TEXTSIZE
 40
3.5
  9
$TRACEWID
 40
1.0
  9
$TEXTSTYLE
  7
STANDARD
  9
$CLAYER
  8
0
  9
$CELTYPE
  6
BYLAYER
  9
$CECOLOR
 62
   256
  9
$DIMSCALE
 40
1.0
  9
$DIMASZ
 40
3.302
  9
$DIMEXO
 40
1.0
  9
$DIMDLI
 40
3.75
  9
$DIMRND
 40
0.0
  9
$DIMDLE
 40
0.0
  9
$DIMEXE
 40
1.0
  9
$DIMTP
 40
0.0
  9
$DIMTM
 40
0.0
  9
$DIMTXT
 40
3.5
  9
$DIMCEN
 40
2.5
  9
$DIMTSZ
 40
0.0
  9
$DIMTOL
 70
     0
  9
$DIMLIM
 70
     0
  9
$DIMTIH
 70
     1
  9
$DIMTOH
 70
     1
  9
$DIMSE1
 70
     0
  9
$DIMSE2
 70
     0
  9
$DIMTAD
 70
     1
  9
$DIMZIN
 70
     0
  9
$DIMBLK
  1

  9
$DIMASO
 70
     1
  9
$DIMSHO
 70
     1
  9
$DIMPOST
  1

  9
$DIMAPOST
  1

  9
$DIMALT
 70
     0
  9
$DIMALTD
 70
     3
  9
$DIMALTF
 40
0.0393700787
  9
$DIMLFAC
 40
0.5
  9
$DIMTOFL
 70
     1
  9
$DIMTVP
 40
0.0
  9
$DIMTIX
 70
     0
  9
$DIMSOXD
 70
     0
  9
$DIMSAH
 70
     0
  9
$DIMBLK1
  1

  9
$DIMBLK2
  1

  9
$DIMSTYLE
  2
ISO-25
  9
$DIMCLRD
 70
     0
  9
$DIMCLRE
 70
     0
  9
$DIMCLRT
 70
     0
  9
$DIMTFAC
 40
1.0
  9
$DIMGAP
 40
1.524
  9
$LUNITS
 70
     2
  9
$LUPREC
 70
     2
  9
$SKETCHINC
 40
1.0
  9
$FILLETRAD
 40
10.0
  9
$AUNITS
 70
     0
  9
$AUPREC
 70
     2
  9
$MENU
  1
.
  9
$ELEVATION
 40
0.0
  9
$PELEVATION
 40
0.0
  9
$THICKNESS
 40
0.0
  9
$LIMCHECK
 70
     0
  9
$CHAMFERA
 40
10.0
  9
$CHAMFERB
 40
10.0
  9
$SKPOLY
 70
     0
  9
$TDCREATE
 40
2456441.661163287
  9
$TDUPDATE
 40
2456441.661163819
  9
$TDINDWG
 40
0.0000000116
  9
$TDUSRTIMER
 40
0.0000000116
  9
$USRTIMER
 70
     1
  9
$ANGBASE
 50
0.0
  9
$ANGDIR
 70
     0
  9
$PDMODE
 70
     0
  9
$PDSIZE
 40
-1.0
  9
$PLINEWID
 40
0.0
  9
$COORDS
 70
     1
  9
$SPLFRAME
 70
     0
  9
$SPLINETYPE
 70
     6
  9
$SPLINESEGS
 70
     8
  9
$ATTDIA
 70
     0
  9
$ATTREQ
 70
     1
  9
$HANDLING
 70
     1
  9
$HANDSEED
  5
1A4
  9
$SURFTAB1
 70
     6
  9
$SURFTAB2
 70
     6
  9
$SURFTYPE
 70
     6
  9
$SURFU
 70
     6
  9
$SURFV
 70
     6
  9
$UCSNAME
  2

  9
$UCSORG
 10
0.0
 20
0.0
 30
0.0
  9
$UCSXDIR
 10
1.0
 20
0.0
 30
0.0
  9
$UCSYDIR
 10
0.0
 20
1.0
 30
0.0
  9
$PUCSNAME
  2

  9
$PUCSORG
 10
0.0
 20
0.0
 30
0.0
  9
$PUCSXDIR
 10
1.0
 20
0.0
 30
0.0
  9
$PUCSYDIR
 10
0.0
 20
1.0
 30
0.0
  9
$USERI1
 70
     0
  9
$USERI2
 70
     0
  9
$USERI3
 70
     0
  9
$USERI4
 70
     0
  9
$USERI5
 70
     0
  9
$USERR1
 40
0.0
  9
$USERR2
 40
0.0
  9
$USERR3
 40
0.0
  9
$USERR4
 40
0.0
  9
$USERR5
 40
0.0
  9
$WORLDVIEW
 70
     1
  9
$SHADEDGE
 70
     3
  9
$SHADEDIF
 70
    70
  9
$TILEMODE
 70
     1
  9
$MAXACTVP
 70
    64
  9
$PLIMCHECK
 70
     0
  9
$PEXTMIN
 10
1.0000000000E+20
 20
1.0000000000E+20
 30
1.0000000000E+20
  9
$PEXTMAX
 10
-1.0000000000E+20
 20
-1.0000000000E+20
 30
-1.0000000000E+20
  9
$PLIMMIN
 10
0.0
 20
0.0
  9
$PLIMMAX
 10
420.0
 20
297.0
  9
$UNITMODE
 70
     0
  9
$VISRETAIN
 70
     1
  9
$PLINEGEN
 70
     0
  9
$PSLTSCALE
 70
     1
  0
ENDSEC
  0
SECTION
  2
TABLES
  0
TABLE
  2
VPORT
 70
     1
  0
VPORT
  2
*ACTIVE
 70
     0
 10
0.0
 20
0.0
 11
1.0
 21
1.0
 12
105.0
 22
148.5
 13
0.0
 23
0.0
 14
10.0
 24
10.0
 15
10.0
 25
10.0
 16
0.0
 26
0.0
 36
1.0
 17
0.0
 27
0.0
 37
0.0
 40
297.0
 41
0.7070707071
 42
50.0
 43
0.0
 44
0.0
 50
0.0
 51
0.0
 71
     0
 72
  2000
 73
     1
 74
     3
 75
     0
 76
     0
 77
     0
 78
     0
  0
ENDTAB
  0
TABLE
  2
LTYPE
 70
     6
  0
LTYPE
  2
CONTINUOUS
 70
     0
  3
Solid line
 72
    65
 73
     0
 40
0.0
  0
LTYPE
  2
HIDDEN
 70
     0
  3
Hidden __ __ __ __ __ __ __ __ __ __ __ __ __ __
 72
    65
 73
     2
 40
1.905
 49
1.27
 49
-0.635
  0
LTYPE
  2
PHANTOM
 70
     0
  3
Phantom ______  __  __  ______  __  __  ______
 72
    65
 73
     6
 40
12.7
 49
6.35
 49
-1.27
 49
1.27
 49
-1.27
 49
1.27
 49
-1.27
  0
LTYPE
  2
CENTER
 70
     0
  3
Center ____ _ ____ _ ____ _ ____ _ ____ _ ____
 72
    65
 73
     4
 40
10.16
 49
6.35
 49
-1.27
 49
1.27
 49
-1.27
  0
LTYPE
  2
CENTERX2
 70
     0
  3
Center (2x) ________  __  ________  __  _____
 72
    65
 73
     4
 40
20.32
 49
12.7
 49
-2.54
 49
2.54
 49
-2.54
  0
LTYPE
  2
DOT2
 70
     0
  3
Dot (.5x) ........................................
 72
    65
 73
     2
 40
0.635
 49
0.0
 49
-0.635
  0
ENDTAB
  0
TABLE
  2
LAYER
 70
     1
  0
LAYER
  2
0
 70
     0
 62
     7
  6
CONTINUOUS
  0
ENDTAB
  0
TABLE
  2
STYLE
 70
     1
  0
STYLE
  2
STANDARD
 70
     0
 40
0.0
 41
1.0
 50
0.0
 71
     0
 42
3.5
  3
txt
  4

  0
ENDTAB
  0
TABLE
  2
VIEW
 70
     0
  0
ENDTAB
  0
TABLE
  2
UCS
 70
     0
  0
ENDTAB
  0
TABLE
  2
APPID
 70
     1
  0
APPID
  2
ACAD
 70
     0
  0
ENDTAB
  0
TABLE
  2
DIMSTYLE
 70
     1
  0
DIMSTYLE
  2
ISO-25
 70
     0
  3

  4

  5

  6

  7

 40
1.0
 41
2.5
 42
0.625
 43
3.75
 44
1.25
 45
0.0
 46
0.0
 47
0.0
 48
0.0
140
2.5
141
2.5
142
0.0
143
0.0393700787
144
1.0
145
0.0
146
1.0
147
0.625
 71
     0
 72
     0
 73
     0
 74
     0
 75
     0
 76
     0
 77
     1
 78
     8
170
     0
171
     3
172
     1
173
     0
174
     0
175
     0
176
     0
177
     0
178
     0
  0
ENDTAB
  0
ENDSEC
  0
SECTION
  2
BLOCKS
  0
BLOCK
  8
0
  2
$MODEL_SPACE
 70
     0
 10
0.0
 20
0.0
 30
0.0
  3
$MODEL_SPACE
  1

  0
ENDBLK
  5
21
  8
0
  0
BLOCK
 67
     1
  8
0
  2
$PAPER_SPACE
 70
     0
 10
0.0
 20
0.0
 30
0.0
  3
$PAPER_SPACE
  1

  0
ENDBLK
  5
1D
 67
     1
  8
0
  0
ENDSEC
  0
SECTION
  2
ENTITIES
  0
ARC
  5
44
  8
0
  6
CONTINUOUS
 62
     7
 10
93.4576222267
 20
148.567553633
 30
0.0
 40
0.0250000000000057
 50
90.0
 51
180.0
  0
ARC
  5
45
  8
0
  6
CONTINUOUS
 62
     7
 10
94.5576222267
 20
148.567553633
 30
0.0
 40
0.0250000000000057
 50
0.0
 51
90.0
  0
ARC
  5
46
  8
0
  6
CONTINUOUS
 62
     7
 10
94.5576222267
 20
148.367553633
 30
0.0
 40
0.0250000000000057
 50
270.0
 51
0.0
  0
ARC
  5
47
  8
0
  6
CONTINUOUS
 62
     7
 10
93.4576222267
 20
148.367553633
 30
0.0
 40
0.0250000000000057
 50
180.0
 51
270.0
  0
ARC
  5
48
  8
0
  6
CONTINUOUS
 62
     7
 10
93.4576222267
 20
149.2290412058
 30
0.0
 40
0.0250000000000057
 50
90.0
 51
180.0
  0
ARC
  5
49
  8
0
  6
CONTINUOUS
 62
     7
 10
94.5576222267
 20
149.2290412058
 30
0.0
 40
0.0250000000000057
 50
0.0
 51
90.0
  0
ARC
  5
4A
  8
0
  6
CONTINUOUS
 62
     7
 10
94.5576222267
 20
147.867553633
 30
0.0
 40
0.0250000000000057
 50
270.0
 51
0.0
  0
ARC
  5
4B
  8
0
  6
CONTINUOUS
 62
     7
 10
93.4576222267
 20
147.867553633
 30
0.0
 40
0.0250000000000057
 50
180.0
 51
270.0
  0
ARC
  5
4C
  8
0
  6
CONTINUOUS
 62
     7
 10
93.4576222267
 20
147.567553633
 30
0.0
 40
0.0250000000000057
 50
90.0
 51
180.0
  0
ARC
  5
4D
  8
0
  6
CONTINUOUS
 62
     7
 10
94.5576222267
 20
147.567553633
 30
0.0
 40
0.0250000000000057
 50
0.0
 51
90.0
  0
LINE
  5
4E
  8
0
  6
CONTINUOUS
 62
     7
 10
94.5826220154
 20
147.8675537107
 30
0.0
 11
94.5826220154
 21
148.0675538366
 31
0.0
  0
LINE
  5
4F
  8
0
  6
CONTINUOUS
 62
     7
 10
93.4326221063
 20
148.0675538366
 30
0.0
 11
93.4326221063
 21
147.8675537107
 31
0.0
  0
ARC
  5
50
  8
0
  6
CONTINUOUS
 62
     7
 10
93.4576222267
 20
148.067553633
 30
0.0
 40
0.0250000000000057
 50
90.0
 51
180.0
  0
ARC
  5
51
  8
0
  6
CONTINUOUS
 62
     7
 10
94.5576222267
 20
148.067553633
 30
0.0
 40
0.0250000000000057
 50
0.0
 51
90.0
  0
ARC
  5
52
  8
0
  6
CONTINUOUS
 62
     7
 10
94.5576222267
 20
147.367553633
 30
0.0
 40
0.0250000000000057
 50
270.0
 51
0.0
  0
ARC
  5
53
  8
0
  6
CONTINUOUS
 62
     7
 10
93.4576222267
 20
147.367553633
 30
0.0
 40
0.0250000000000057
 50
180.0
 51
270.0
  0
LINE
  5
54
  8
0
  6
CONTINUOUS
 62
     7
 10
94.5826220154
 20
148.3675537927
 30
0.0
 11
94.5826220154
 21
148.5675534529
 31
0.0
  0
LINE
  5
55
  8
0
  6
CONTINUOUS
 62
     7
 10
93.4326221063
 20
148.5675534529
 30
0.0
 11
93.4326221063
 21
148.3675537927
 31
0.0
  0
ARC
  5
56
  8
0
  6
CONTINUOUS
 62
     7
 10
94.5576222267
 20
149.0290412058
 30
0.0
 40
0.0250000000000057
 50
270.0
 51
0.0
  0
ARC
  5
57
  8
0
  6
CONTINUOUS
 62
     7
 10
93.4576222267
 20
149.0290412058
 30
0.0
 40
0.0250000000000057
 50
180.0
 51
270.0
  0
LINE
  5
58
  8
0
  6
CONTINUOUS
 62
     7
 10
94.5826220154
 20
149.0290410181
 30
0.0
 11
94.5826220154
 21
149.229041144
 31
0.0
  0
LINE
  5
59
  8
0
  6
CONTINUOUS
 62
     7
 10
93.4326221063
 20
149.229041144
 30
0.0
 11
93.4326221063
 21
149.0290410181
 31
0.0
  0
LINE
  5
5A
  8
0
  6
CONTINUOUS
 62
     7
 10
94.5826220154
 20
147.3675536288
 30
0.0
 11
94.5826220154
 21
147.5675537547
 31
0.0
  0
LINE
  5
5B
  8
0
  6
CONTINUOUS
 62
     7
 10
93.4326221063
 20
147.5675537547
 30
0.0
 11
93.4326221063
 21
147.3675536288
 31
0.0
  0
LINE
  5
5C
  8
0
  6
CONTINUOUS
 62
     7
 10
93.4576225295
 20
147.8425537532
 30
0.0
 11
93.4576225295
 21
147.5925537122
 31
0.0
  0
LINE
  5
5D
  8
0
  6
CONTINUOUS
 62
     7
 10
94.5576225236
 20
147.5925537122
 30
0.0
 11
94.5576225236
 21
147.8425537532
 31
0.0
  0
LINE
  5
5E
  8
0
  6
CONTINUOUS
 62
     7
 10
93.4576225295
 20
149.0040410606
 30
0.0
 11
93.4576225295
 21
148.5925534105
 31
0.0
  0
LINE
  5
5F
  8
0
  6
CONTINUOUS
 62
     7
 10
94.5576225236
 20
148.5925534105
 30
0.0
 11
94.5576225236
 21
149.0040410606
 31
0.0
  0
LINE
  5
60
  8
0
  6
CONTINUOUS
 62
     7
 10
93.4576225295
 20
148.3425538351
 30
0.0
 11
93.4576225295
 21
148.0925537942
 31
0.0
  0
LINE
  5
61
  8
0
  6
CONTINUOUS
 62
     7
 10
94.5576225236
 20
148.0925537942
 30
0.0
 11
94.5576225236
 21
148.3425538351
 31
0.0
  0
ARC
  5
62
  8
0
  6
CONTINUOUS
 62
     7
 10
93.8576222267
 20
149.6040412058
 30
0.0
 40
0.3999999999999915
 50
90.0
 51
180.0
  0
ARC
  5
63
  8
0
  6
CONTINUOUS
 62
     7
 10
94.1576222267
 20
149.6040412058
 30
0.0
 40
0.4000000000000057
 50
0.0
 51
90.0
  0
ARC
  5
64
  8
0
  6
CONTINUOUS
 62
     7
 10
93.8576222267
 20
146.9040412058
 30
0.0
 40
0.4000000000000057
 50
180.0
 51
270.0
  0
ARC
  5
65
  8
0
  6
CONTINUOUS
 62
     7
 10
94.1576222267
 20
146.9040412058
 30
0.0
 40
0.4000000000000057
 50
270.0
 51
0.0
  0
LINE
  5
66
  8
0
  6
CONTINUOUS
 62
     7
 10
93.4576225295
 20
149.6040412055
 30
0.0
 11
93.4576225295
 21
149.2540411016
 31
0.0
  0
LINE
  5
67
  8
0
  6
CONTINUOUS
 62
     7
 10
94.5576225236
 20
149.2540411016
 30
0.0
 11
94.5576225236
 21
149.6040412055
 31
0.0
  0
LINE
  5
68
  8
0
  6
CONTINUOUS
 62
     7
 10
93.4576225295
 20
147.3425536712
 30
0.0
 11
93.4576225295
 21
146.9040413683
 31
0.0
  0
LINE
  5
69
  8
0
  6
CONTINUOUS
 62
     7
 10
94.5576225236
 20
146.9040413683
 30
0.0
 11
94.5576225236
 21
147.3425536712
 31
0.0
  0
LINE
  5
6A
  8
0
  6
CONTINUOUS
 62
     7
 10
93.8826222732
 20
146.0040410345
 30
0.0
 11
93.8826222732
 21
145.5040414182
 31
0.0
  0
LINE
  5
6B
  8
0
  6
CONTINUOUS
 62
     7
 10
94.1326218485
 20
145.5040414182
 30
0.0
 11
94.1326218485
 21
146.0040410345
 31
0.0
  0
LINE
  5
6C
  8
0
  6
CONTINUOUS
 62
     7
 10
94.1326218485
 20
150.5040413065
 30
0.0
 11
94.1326218485
 21
151.0040411556
 31
0.0
  0
LINE
  5
6D
  8
0
  6
CONTINUOUS
 62
     7
 10
93.8826222732
 20
151.0040411556
 30
0.0
 11
93.8826222732
 21
150.5040413065
 31
0.0
  0
LINE
  5
6E
  8
0
  6
CONTINUOUS
 62
     7
 10
94.1326218485
 20
150.0040412245
 30
0.0
 11
94.1326218485
 21
150.5040413065
 31
0.0
  0
LINE
  5
6F
  8
0
  6
CONTINUOUS
 62
     7
 10
93.8826222732
 20
150.5040413065
 30
0.0
 11
93.8826222732
 21
150.0040412245
 31
0.0
  0
LINE
  5
70
  8
0
  6
CONTINUOUS
 62
     7
 10
93.8826222732
 20
146.5040411165
 30
0.0
 11
93.8826222732
 21
146.0040410345
 31
0.0
  0
LINE
  5
71
  8
0
  6
CONTINUOUS
 62
     7
 10
94.1326218485
 20
146.0040410345
 30
0.0
 11
94.1326218485
 21
146.5040411165
 31
0.0
  0
LINE
  5
72
  8
0
  6
CONTINUOUS
 62
     7
 10
94.5826220154
 20
158.3787811285
 30
0.0
 11
94.5826220154
 21
158.5787812544
 31
0.0
  0
LINE
  5
73
  8
0
  6
CONTINUOUS
 62
     7
 10
93.4326221063
 20
158.5787812544
 30
0.0
 11
93.4326221063
 21
158.3787811285
 31
0.0
  0
LINE
  5
74
  8
0
  6
CONTINUOUS
 62
     7
 10
94.5826220154
 20
157.7172934374
 30
0.0
 11
94.5826220154
 21
157.9172935633
 31
0.0
  0
LINE
  5
75
  8
0
  6
CONTINUOUS
 62
     7
 10
93.4326221063
 20
157.9172935633
 30
0.0
 11
93.4326221063
 21
157.7172934374
 31
0.0
  0
ARC
  5
76
  8
0
  6
CONTINUOUS
 62
     7
 10
94.5576222267
 20
158.3787812058
 30
0.0
 40
0.0250000000000057
 50
270.0
 51
0.0
  0
ARC
  5
77
  8
0
  6
CONTINUOUS
 62
     7
 10
93.4576222267
 20
158.3787812058
 30
0.0
 40
0.0250000000000057
 50
180.0
 51
270.0
  0
ARC
  5
78
  8
0
  6
CONTINUOUS
 62
     7
 10
93.4576222267
 20
157.917293633
 30
0.0
 40
0.0250000000000057
 50
90.0
 51
180.0
  0
ARC
  5
79
  8
0
  6
CONTINUOUS
 62
     7
 10
94.5576222267
 20
157.917293633
 30
0.0
 40
0.0250000000000057
 50
0.0
 51
90.0
  0
ARC
  5
7A
  8
0
  6
CONTINUOUS
 62
     7
 10
93.4576222267
 20
157.417293633
 30
0.0
 40
0.0250000000000057
 50
90.0
 51
180.0
  0
ARC
  5
7B
  8
0
  6
CONTINUOUS
 62
     7
 10
94.5576222267
 20
157.417293633
 30
0.0
 40
0.0250000000000057
 50
0.0
 51
90.0
  0
ARC
  5
7C
  8
0
  6
CONTINUOUS
 62
     7
 10
94.5576222267
 20
156.717293633
 30
0.0
 40
0.0250000000000057
 50
270.0
 51
0.0
  0
ARC
  5
7D
  8
0
  6
CONTINUOUS
 62
     7
 10
93.4576222267
 20
156.717293633
 30
0.0
 40
0.0250000000000057
 50
180.0
 51
270.0
  0
ARC
  5
7E
  8
0
  6
CONTINUOUS
 62
     7
 10
93.4576222267
 20
158.5787812058
 30
0.0
 40
0.0250000000000057
 50
90.0
 51
180.0
  0
ARC
  5
7F
  8
0
  6
CONTINUOUS
 62
     7
 10
94.5576222267
 20
158.5787812058
 30
0.0
 40
0.0250000000000057
 50
0.0
 51
90.0
  0
ARC
  5
80
  8
0
  6
CONTINUOUS
 62
     7
 10
94.5576222267
 20
157.217293633
 30
0.0
 40
0.0250000000000057
 50
270.0
 51
0.0
  0
ARC
  5
81
  8
0
  6
CONTINUOUS
 62
     7
 10
93.4576222267
 20
157.217293633
 30
0.0
 40
0.0250000000000057
 50
180.0
 51
270.0
  0
LINE
  5
82
  8
0
  6
CONTINUOUS
 62
     7
 10
94.5826220154
 20
157.2172938211
 30
0.0
 11
94.5826220154
 21
157.4172934813
 31
0.0
  0
LINE
  5
83
  8
0
  6
CONTINUOUS
 62
     7
 10
93.4326221063
 20
157.4172934813
 30
0.0
 11
93.4326221063
 21
157.2172938211
 31
0.0
  0
LINE
  5
84
  8
0
  6
CONTINUOUS
 62
     7
 10
94.5826220154
 20
156.7172937391
 30
0.0
 11
94.5826220154
 21
156.917293865
 31
0.0
  0
LINE
  5
85
  8
0
  6
CONTINUOUS
 62
     7
 10
93.4326221063
 20
156.917293865
 30
0.0
 11
93.4326221063
 21
156.7172937391
 31
0.0
  0
ARC
  5
86
  8
0
  6
CONTINUOUS
 62
     7
 10
93.4576222267
 20
156.917293633
 30
0.0
 40
0.0250000000000057
 50
90.0
 51
180.0
  0
ARC
  5
87
  8
0
  6
CONTINUOUS
 62
     7
 10
94.5576222267
 20
156.917293633
 30
0.0
 40
0.0250000000000057
 50
0.0
 51
90.0
  0
ARC
  5
88
  8
0
  6
CONTINUOUS
 62
     7
 10
94.5576222267
 20
157.717293633
 30
0.0
 40
0.0250000000000057
 50
270.0
 51
0.0
  0
ARC
  5
89
  8
0
  6
CONTINUOUS
 62
     7
 10
93.4576222267
 20
157.717293633
 30
0.0
 40
0.0250000000000057
 50
180.0
 51
270.0
  0
LINE
  5
8A
  8
0
  6
CONTINUOUS
 62
     7
 10
93.4576225295
 20
157.1922938635
 30
0.0
 11
93.4576225295
 21
156.9422938226
 31
0.0
  0
LINE
  5
8B
  8
0
  6
CONTINUOUS
 62
     7
 10
94.5576225236
 20
156.9422938226
 30
0.0
 11
94.5576225236
 21
157.1922938635
 31
0.0
  0
LINE
  5
8C
  8
0
  6
CONTINUOUS
 62
     7
 10
93.4576225295
 20
157.6922934798
 30
0.0
 11
93.4576225295
 21
157.4422934388
 31
0.0
  0
LINE
  5
8D
  8
0
  6
CONTINUOUS
 62
     7
 10
94.5576225236
 20
157.4422934388
 30
0.0
 11
94.5576225236
 21
157.6922934798
 31
0.0
  0
ARC
  5
8E
  8
0
  6
CONTINUOUS
 62
     7
 10
93.8576222267
 20
158.9537812058
 30
0.0
 40
0.3999999999999915
 50
90.0
 51
180.0
  0
ARC
  5
8F
  8
0
  6
CONTINUOUS
 62
     7
 10
94.1576222267
 20
158.9537812058
 30
0.0
 40
0.4000000000000057
 50
0.0
 51
90.0
  0
LINE
  5
90
  8
0
  6
CONTINUOUS
 62
     7
 10
93.4576225295
 20
158.953781083
 30
0.0
 11
93.4576225295
 21
158.6037812119
 31
0.0
  0
LINE
  5
91
  8
0
  6
CONTINUOUS
 62
     7
 10
94.5576225236
 20
158.6037812119
 30
0.0
 11
94.5576225236
 21
158.953781083
 31
0.0
  0
LINE
  5
92
  8
0
  6
CONTINUOUS
 62
     7
 10
93.4576225295
 20
158.3537811709
 30
0.0
 11
93.4576225295
 21
157.9422935208
 31
0.0
  0
LINE
  5
93
  8
0
  6
CONTINUOUS
 62
     7
 10
94.5576225236
 20
157.9422935208
 30
0.0
 11
94.5576225236
 21
158.3537811709
 31
0.0
  0
LINE
  5
94
  8
0
  6
CONTINUOUS
 62
     7
 10
93.4576225295
 20
156.6922935487
 30
0.0
 11
93.4576225295
 21
156.2537812458
 31
0.0
  0
LINE
  5
95
  8
0
  6
CONTINUOUS
 62
     7
 10
94.5576225236
 20
156.2537812458
 30
0.0
 11
94.5576225236
 21
156.6922935487
 31
0.0
  0
ARC
  5
96
  8
0
  6
CONTINUOUS
 62
     7
 10
93.8576222267
 20
156.2537812058
 30
0.0
 40
0.4000000000000057
 50
180.0
 51
270.0
  0
ARC
  5
97
  8
0
  6
CONTINUOUS
 62
     7
 10
94.1576222267
 20
156.2537812058
 30
0.0
 40
0.4000000000000057
 50
270.0
 51
0.0
  0
LINE
  5
98
  8
0
  6
CONTINUOUS
 62
     7
 10
94.1326218485
 20
159.3537813348
 30
0.0
 11
94.1326218485
 21
159.8537814168
 31
0.0
  0
LINE
  5
99
  8
0
  6
CONTINUOUS
 62
     7
 10
93.8826222732
 20
159.8537814168
 30
0.0
 11
93.8826222732
 21
159.3537813348
 31
0.0
  0
LINE
  5
9A
  8
0
  6
CONTINUOUS
 62
     7
 10
94.1326218485
 20
159.8537814168
 30
0.0
 11
94.1326218485
 21
160.3537810331
 31
0.0
  0
LINE
  5
9B
  8
0
  6
CONTINUOUS
 62
     7
 10
93.8826222732
 20
160.3537810331
 30
0.0
 11
93.8826222732
 21
159.8537814168
 31
0.0
  0
LINE
  5
9C
  8
0
  6
CONTINUOUS
 62
     7
 10
93.8826222732
 20
155.3537811449
 30
0.0
 11
93.8826222732
 21
154.8537811793
 31
0.0
  0
LINE
  5
9D
  8
0
  6
CONTINUOUS
 62
     7
 10
94.1326218485
 20
154.8537811793
 30
0.0
 11
94.1326218485
 21
155.3537811449
 31
0.0
  0
LINE
  5
9E
  8
0
  6
CONTINUOUS
 62
     7
 10
93.8826222732
 20
155.8537812268
 30
0.0
 11
93.8826222732
 21
155.3537811449
 31
0.0
  0
LINE
  5
9F
  8
0
  6
CONTINUOUS
 62
     7
 10
94.1326218485
 20
155.3537811449
 30
0.0
 11
94.1326218485
 21
155.8537812268
 31
0.0
  0
LINE
  5
A0
  8
0
  6
CONTINUOUS
 62
     7
 10
98.9577021278
 20
153.1543312046
 30
0.0
 11
98.4577020459
 21
153.1543312046
 31
0.0
  0
LINE
  5
A1
  8
0
  6
CONTINUOUS
 62
     7
 10
98.4577020459
 20
152.6543311954
 30
0.0
 11
98.9577021278
 21
152.6543311954
 31
0.0
  0
LINE
  5
A2
  8
0
  6
CONTINUOUS
 62
     7
 10
100.4827023312
 20
153.1543312046
 30
0.0
 11
98.9577021278
 21
153.1543312046
 31
0.0
  0
LINE
  5
A3
  8
0
  6
CONTINUOUS
 62
     7
 10
98.9577021278
 20
152.6543311954
 30
0.0
 11
100.4827023312
 21
152.6543311954
 31
0.0
  0
LINE
  5
A4
  8
0
  6
CONTINUOUS
 62
     7
 10
100.4827023312
 20
154.4243312271
 30
0.0
 11
98.9577021278
 21
154.4243312271
 31
0.0
  0
LINE
  5
A5
  8
0
  6
CONTINUOUS
 62
     7
 10
98.9577021278
 20
153.9243312616
 30
0.0
 11
100.4827023312
 21
153.9243312616
 31
0.0
  0
LINE
  5
A6
  8
0
  6
CONTINUOUS
 62
     7
 10
100.4827023312
 20
151.8793311732
 30
0.0
 11
98.9577021278
 21
151.8793311732
 31
0.0
  0
LINE
  5
A7
  8
0
  6
CONTINUOUS
 62
     7
 10
98.9577021278
 20
151.3793312076
 30
0.0
 11
100.4827023312
 21
151.3793312076
 31
0.0
  0
LINE
  5
A8
  8
0
  6
CONTINUOUS
 62
     7
 10
98.9577021278
 20
154.4243312271
 30
0.0
 11
98.4827020034
 21
154.4243312271
 31
0.0
  0
LINE
  5
A9
  8
0
  6
CONTINUOUS
 62
     7
 10
98.4827020034
 20
153.9243312616
 30
0.0
 11
98.9577021278
 21
153.9243312616
 31
0.0
  0
LINE
  5
AA
  8
0
  6
CONTINUOUS
 62
     7
 10
98.9577021278
 20
151.8793311732
 30
0.0
 11
98.4827020034
 21
151.8793311732
 31
0.0
  0
LINE
  5
AB
  8
0
  6
CONTINUOUS
 62
     7
 10
98.4827020034
 20
151.3793312076
 30
0.0
 11
98.9577021278
 21
151.3793312076
 31
0.0
  0
LINE
  5
AC
  8
0
  6
CONTINUOUS
 62
     7
 10
95.5323470585
 20
156.6539412195
 30
0.0
 11
95.5323470585
 21
156.1539411375
 31
0.0
  0
LINE
  5
AD
  8
0
  6
CONTINUOUS
 62
     7
 10
96.7818471431
 20
156.1539411375
 30
0.0
 11
96.7818471431
 21
156.6539412195
 31
0.0
  0
LINE
  5
AE
  8
0
  6
CONTINUOUS
 62
     7
 10
95.5320969984
 20
158.6539413145
 30
0.0
 11
95.5320969984
 21
156.6539412195
 31
0.0
  0
LINE
  5
AF
  8
0
  6
CONTINUOUS
 62
     7
 10
96.7820972032
 20
156.6539412195
 30
0.0
 11
96.7820972032
 21
158.6539413145
 31
0.0
  0
LINE
  5
B0
  8
0
  6
CONTINUOUS
 62
     7
 10
96.0320970803
 20
155.9989411214
 30
0.0
 11
96.0320970803
 21
155.4989412723
 31
0.0
  0
LINE
  5
B1
  8
0
  6
CONTINUOUS
 62
     7
 10
96.2820971213
 20
155.4989412723
 30
0.0
 11
96.2820971213
 21
155.9989411214
 31
0.0
  0
LINE
  5
B2
  8
0
  6
CONTINUOUS
 62
     7
 10
96.0320970803
 20
156.1539411375
 30
0.0
 11
96.0320970803
 21
155.9989411214
 31
0.0
  0
LINE
  5
B3
  8
0
  6
CONTINUOUS
 62
     7
 10
96.2820971213
 20
155.9989411214
 30
0.0
 11
96.2820971213
 21
156.1539411375
 31
0.0
  0
LINE
  5
B4
  8
0
  6
CONTINUOUS
 62
     7
 10
96.2820971213
 20
158.6539413145
 30
0.0
 11
96.2820971213
 21
158.8089413305
 31
0.0
  0
LINE
  5
B5
  8
0
  6
CONTINUOUS
 62
     7
 10
96.0320970803
 20
158.8089413305
 30
0.0
 11
96.0320970803
 21
158.6539413145
 31
0.0
  0
LINE
  5
B6
  8
0
  6
CONTINUOUS
 62
     7
 10
96.2820971213
 20
158.8089413305
 30
0.0
 11
96.2820971213
 21
159.3089414125
 31
0.0
  0
LINE
  5
B7
  8
0
  6
CONTINUOUS
 62
     7
 10
96.0320970803
 20
159.3089414125
 30
0.0
 11
96.0320970803
 21
158.8089413305
 31
0.0
  0
LINE
  5
B8
  8
0
  6
CONTINUOUS
 62
     7
 10
96.6668120414
 20
144.2790309263
 30
0.0
 11
96.1668124251
 21
144.2790309263
 31
0.0
  0
LINE
  5
B9
  8
0
  6
CONTINUOUS
 62
     7
 10
96.1668124251
 20
144.029031351
 30
0.0
 11
96.6668120414
 21
144.029031351
 31
0.0
  0
LINE
  5
BA
  8
0
  6
CONTINUOUS
 62
     7
 10
93.1567671537
 20
153.9043612026
 30
0.0
 11
92.2067669049
 21
153.9043612026
 31
0.0
  0
LINE
  5
BB
  8
0
  6
CONTINUOUS
 62
     7
 10
92.2067669049
 20
151.9043611658
 30
0.0
 11
93.1567671537
 21
151.9043611658
 31
0.0
  0
LINE
  5
BC
  8
0
  6
CONTINUOUS
 62
     7
 10
92.2017675653
 20
153.9043612026
 30
0.0
 11
91.7017674833
 21
153.9043612026
 31
0.0
  0
LINE
  5
BD
  8
0
  6
CONTINUOUS
 62
     7
 10
91.7017674833
 20
151.9043611658
 30
0.0
 11
92.2017675653
 21
151.9043611658
 31
0.0
  0
LINE
  5
BE
  8
0
  6
CONTINUOUS
 62
     7
 10
93.4576225295
 20
148.5925534105
 30
0.0
 11
94.5576225236
 21
148.5925534105
 31
0.0
  0
LINE
  5
BF
  8
0
  6
CONTINUOUS
 62
     7
 10
94.5576225236
 20
148.3425538351
 30
0.0
 11
93.4576225295
 21
148.3425538351
 31
0.0
  0
LINE
  5
C0
  8
0
  6
CONTINUOUS
 62
     7
 10
93.4576225295
 20
149.2540411016
 30
0.0
 11
94.5576225236
 21
149.2540411016
 31
0.0
  0
LINE
  5
C1
  8
0
  6
CONTINUOUS
 62
     7
 10
94.5576225236
 20
147.8425537532
 30
0.0
 11
93.4576225295
 21
147.8425537532
 31
0.0
  0
LINE
  5
C2
  8
0
  6
CONTINUOUS
 62
     7
 10
93.4576225295
 20
147.5925537122
 30
0.0
 11
94.5576225236
 21
147.5925537122
 31
0.0
  0
LINE
  5
C3
  8
0
  6
CONTINUOUS
 62
     7
 10
93.4576225295
 20
148.0925537942
 30
0.0
 11
94.5576225236
 21
148.0925537942
 31
0.0
  0
LINE
  5
C4
  8
0
  6
CONTINUOUS
 62
     7
 10
94.5576225236
 20
147.3425536712
 30
0.0
 11
93.4576225295
 21
147.3425536712
 31
0.0
  0
LINE
  5
C5
  8
0
  6
CONTINUOUS
 62
     7
 10
94.5576225236
 20
149.0040410606
 30
0.0
 11
93.4576225295
 21
149.0040410606
 31
0.0
  0
LINE
  5
C6
  8
0
  6
CONTINUOUS
 62
     7
 10
93.85762185
 20
150.0040412245
 30
0.0
 11
94.1576222717
 21
150.0040412245
 31
0.0
  0
LINE
  5
C7
  8
0
  6
CONTINUOUS
 62
     7
 10
93.85762185
 20
146.5040411165
 30
0.0
 11
94.1576222717
 21
146.5040411165
 31
0.0
  0
ARC
  5
C8
  8
0
  6
CONTINUOUS
 62
     7
 10
94.0076222267
 20
145.5040412058
 30
0.0
 40
0.125
 50
180.0
 51
0.0
  0
ARC
  5
C9
  8
0
  6
CONTINUOUS
 62
     7
 10
94.0076222267
 20
151.0040412058
 30
0.0
 40
0.125
 50
0.0
 51
180.0
  0
LINE
  5
CA
  8
0
  6
CONTINUOUS
 62
     7
 10
94.5576225236
 20
158.3537811709
 30
0.0
 11
93.4576225295
 21
158.3537811709
 31
0.0
  0
LINE
  5
CB
  8
0
  6
CONTINUOUS
 62
     7
 10
93.4576225295
 20
157.9422935208
 30
0.0
 11
94.5576225236
 21
157.9422935208
 31
0.0
  0
LINE
  5
CC
  8
0
  6
CONTINUOUS
 62
     7
 10
93.4576225295
 20
157.4422934388
 30
0.0
 11
94.5576225236
 21
157.4422934388
 31
0.0
  0
LINE
  5
CD
  8
0
  6
CONTINUOUS
 62
     7
 10
94.5576225236
 20
156.6922935487
 30
0.0
 11
93.4576225295
 21
156.6922935487
 31
0.0
  0
LINE
  5
CE
  8
0
  6
CONTINUOUS
 62
     7
 10
93.4576225295
 20
158.6037812119
 30
0.0
 11
94.5576225236
 21
158.6037812119
 31
0.0
  0
LINE
  5
CF
  8
0
  6
CONTINUOUS
 62
     7
 10
94.5576225236
 20
157.1922938635
 30
0.0
 11
93.4576225295
 21
157.1922938635
 31
0.0
  0
LINE
  5
D0
  8
0
  6
CONTINUOUS
 62
     7
 10
93.4576225295
 20
156.9422938226
 30
0.0
 11
94.5576225236
 21
156.9422938226
 31
0.0
  0
LINE
  5
D1
  8
0
  6
CONTINUOUS
 62
     7
 10
94.5576225236
 20
157.6922934798
 30
0.0
 11
93.4576225295
 21
157.6922934798
 31
0.0
  0
LINE
  5
D2
  8
0
  6
CONTINUOUS
 62
     7
 10
93.85762185
 20
159.3537813348
 30
0.0
 11
94.1576222717
 21
159.3537813348
 31
0.0
  0
LINE
  5
D3
  8
0
  6
CONTINUOUS
 62
     7
 10
93.85762185
 20
155.8537812268
 30
0.0
 11
94.1576222717
 21
155.8537812268
 31
0.0
  0
ARC
  5
D4
  8
0
  6
CONTINUOUS
 62
     7
 10
94.0076222267
 20
160.3537812058
 30
0.0
 40
0.125
 50
0.0
 51
180.0
  0
ARC
  5
D5
  8
0
  6
CONTINUOUS
 62
     7
 10
94.0076222267
 20
154.8537812058
 30
0.0
 40
0.125
 50
180.0
 51
0.0
  0
LINE
  5
D6
  8
0
  6
CONTINUOUS
 62
     7
 10
100.4827023312
 20
155.441831175
 30
0.0
 11
100.4827023312
 21
150.3668311814
 31
0.0
  0
LINE
  5
D7
  8
0
  6
CONTINUOUS
 62
     7
 10
104.482702172
 20
155.441831175
 30
0.0
 11
100.4827023312
 21
155.441831175
 31
0.0
  0
LINE
  5
D8
  8
0
  6
CONTINUOUS
 62
     7
 10
104.482702172
 20
150.3668311814
 30
0.0
 11
104.482702172
 21
155.441831175
 31
0.0
  0
LINE
  5
D9
  8
0
  6
CONTINUOUS
 62
     7
 10
100.4827023312
 20
150.3668311814
 30
0.0
 11
104.482702172
 21
150.3668311814
 31
0.0
  0
ARC
  5
DA
  8
0
  6
CONTINUOUS
 62
     7
 10
98.4577022267
 20
152.9043312058
 30
0.0
 40
0.25
 50
90.0
 51
270.0
  0
ARC
  5
DB
  8
0
  6
CONTINUOUS
 62
     7
 10
98.4827022267
 20
154.1743312058
 30
0.0
 40
0.25
 50
90.0
 51
270.0
  0
ARC
  5
DC
  8
0
  6
CONTINUOUS
 62
     7
 10
98.4827022267
 20
151.6293312058
 30
0.0
 40
0.25
 50
90.0
 51
270.0
  0
LINE
  5
DD
  8
0
  6
CONTINUOUS
 62
     7
 10
108.2327022045
 20
154.4418312439
 30
0.0
 11
107.2327020406
 21
155.441831175
 31
0.0
  0
LINE
  5
DE
  8
0
  6
CONTINUOUS
 62
     7
 10
108.2327022045
 20
151.3668312289
 30
0.0
 11
108.2327022045
 21
154.4418312439
 31
0.0
  0
LINE
  5
DF
  8
0
  6
CONTINUOUS
 62
     7
 10
107.2327020406
 20
150.3668311814
 30
0.0
 11
108.2327022045
 21
151.3668312289
 31
0.0
  0
CIRCLE
  5
E0
  8
0
  6
CONTINUOUS
 62
     7
 10
106.9077022267
 20
152.9043312058
 30
0.0
 40
0.9375
  0
LINE
  5
E1
  8
0
  6
CONTINUOUS
 62
     7
 10
107.2327020406
 20
155.441831175
 30
0.0
 11
104.482702172
 21
155.441831175
 31
0.0
  0
LINE
  5
E2
  8
0
  6
CONTINUOUS
 62
     7
 10
104.482702172
 20
150.3668311814
 30
0.0
 11
107.2327020406
 21
150.3668311814
 31
0.0
  0
LINE
  5
E3
  8
0
  6
CONTINUOUS
 62
     7
 10
96.7818471431
 20
156.1539411375
 30
0.0
 11
95.5323470585
 21
156.1539411375
 31
0.0
  0
LINE
  5
E4
  8
0
  6
CONTINUOUS
 62
     7
 10
96.7820972032
 20
158.6539413145
 30
0.0
 11
95.5320969984
 21
158.6539413145
 31
0.0
  0
ARC
  5
E5
  8
0
  6
CONTINUOUS
 62
     7
 10
96.1570972267
 20
155.4989412058
 30
0.0
 40
0.125
 50
180.0
 51
0.0
  0
ARC
  5
E6
  8
0
  6
CONTINUOUS
 62
     7
 10
96.1570972267
 20
159.3089412058
 30
0.0
 40
0.125
 50
0.0
 51
180.0
  0
CIRCLE
  5
E7
  8
0
  6
CONTINUOUS
 62
     7
 10
96.1590022267
 20
161.4031712058
 30
0.0
 40
0.75
  0
ARC
  5
E8
  8
0
  6
CONTINUOUS
 62
     7
 10
96.1590022267
 20
161.4031712058
 30
0.0
 40
0.9500000000000052
 50
307.8636463617
 51
232.1363536383
  0
LINE
  5
E9
  8
0
  6
CONTINUOUS
 62
     7
 10
96.159002354
 20
160.6531714385
 30
0.0
 11
96.7420973643
 21
160.6531714385
 31
0.0
  0
LINE
  5
EA
  8
0
  6
CONTINUOUS
 62
     7
 10
95.5759068779
 20
160.6531714385
 30
0.0
 11
96.159002354
 21
160.6531714385
 31
0.0
  0
ARC
  5
EB
  8
0
  6
CONTINUOUS
 62
     7
 10
96.1590022267
 20
160.7681712058
 30
0.0
 40
0.1249999999999854
 50
246.9260819344
 51
293.0739180656
  0
CIRCLE
  5
EC
  8
0
  6
CONTINUOUS
 62
     7
 10
106.1573572267
 20
141.4042312058
 30
0.0
 40
0.8000000000000114
  0
CIRCLE
  5
ED
  8
0
  6
CONTINUOUS
 62
     7
 10
95.1573572267
 20
164.4042312058
 30
0.0
 40
0.7999999999999972
  0
CIRCLE
  5
EE
  8
0
  6
CONTINUOUS
 62
     7
 10
98.9072822267
 20
150.1039812058
 30
0.0
 40
0.375
  0
CIRCLE
  5
EF
  8
0
  6
CONTINUOUS
 62
     7
 10
97.1553172267
 20
156.6813112058
 30
0.0
 40
0.25
  0
CIRCLE
  5
F0
  8
0
  6
CONTINUOUS
 62
     7
 10
103.9072722267
 20
147.1042412058
 30
0.0
 40
0.2250000000000085
  0
ARC
  5
F1
  8
0
  6
CONTINUOUS
 62
     7
 10
102.6575922267
 20
150.1039812058
 30
0.0
 40
0.3750000000000042
 50
0.0
 51
44.50193351
  0
ARC
  5
F2
  8
0
  6
CONTINUOUS
 62
     7
 10
102.6575922267
 20
150.1039812058
 30
0.0
 40
0.3750000000000245
 50
135.49806649
 51
0.0
  0
CIRCLE
  5
F3
  8
0
  6
CONTINUOUS
 62
     7
 10
106.9070122267
 20
161.5047712058
 30
0.0
 40
0.2250000000000085
  0
ARC
  5
F4
  8
0
  6
CONTINUOUS
 62
     7
 10
94.0076222267
 20
160.3541512058
 30
0.0
 40
0.2250000000000085
 50
0.0
 51
236.2510114041
  0
ARC
  5
F5
  8
0
  6
CONTINUOUS
 62
     7
 10
94.0076222267
 20
160.3541512058
 30
0.0
 40
0.2250000000000085
 50
303.7489885959
 51
0.0
  0
CIRCLE
  5
F6
  8
0
  6
CONTINUOUS
 62
     7
 10
97.6048972267
 20
157.9868712058
 30
0.0
 40
0.1000000000000085
  0
CIRCLE
  5
F7
  8
0
  6
CONTINUOUS
 62
     7
 10
106.9076472267
 20
146.8045212058
 30
0.0
 40
0.25
  0
ARC
  5
F8
  8
0
  6
CONTINUOUS
 62
     7
 10
96.1570972267
 20
159.3089412058
 30
0.0
 40
0.3000000000000114
 50
0.0
 51
245.3756816478
  0
ARC
  5
F9
  8
0
  6
CONTINUOUS
 62
     7
 10
96.1570972267
 20
159.3089412058
 30
0.0
 40
0.3000000000000114
 50
294.6243183522
 51
0.0
  0
CIRCLE
  5
FA
  8
0
  6
CONTINUOUS
 62
     7
 10
103.4068922267
 20
145.0557312058
 30
0.0
 40
0.7999999999999972
  0
CIRCLE
  5
FB
  8
0
  6
CONTINUOUS
 62
     7
 10
106.9076472267
 20
144.3038912058
 30
0.0
 40
0.25
  0
CIRCLE
  5
FC
  8
0
  6
CONTINUOUS
 62
     7
 10
98.9075922267
 20
157.6046012058
 30
0.0
 40
0.375
  0
CIRCLE
  5
FD
  8
0
  6
CONTINUOUS
 62
     7
 10
98.9075922267
 20
160.1046012058
 30
0.0
 40
0.375
  0
CIRCLE
  5
FE
  8
0
  6
CONTINUOUS
 62
     7
 10
100.6573422267
 20
161.0540962058
 30
0.0
 40
0.375
  0
CIRCLE
  5
FF
  8
0
  6
CONTINUOUS
 62
     7
 10
100.6573422267
 20
149.7540962058
 30
0.0
 40
0.375
  0
ARC
  5
100
  8
0
  6
CONTINUOUS
 62
     7
 10
97.1067672267
 20
152.9043612058
 30
0.0
 40
0.25
 50
0.0
 51
90.0
  0
ARC
  5
101
  8
0
  6
CONTINUOUS
 62
     7
 10
97.1067672267
 20
152.9043612058
 30
0.0
 40
0.25
 50
270.0
 51
0.0
  0
ARC
  5
102
  8
0
  6
CONTINUOUS
 62
     7
 10
98.4577022267
 20
152.9043312058
 30
0.0
 40
0.3249999999999997
 50
50.2848627682
 51
309.7151372318
  0
ARC
  5
103
  8
0
  6
CONTINUOUS
 62
     7
 10
94.0076222267
 20
154.8537812058
 30
0.0
 40
0.2250000000000085
 50
0.0
 51
56.2510114041
  0
ARC
  5
104
  8
0
  6
CONTINUOUS
 62
     7
 10
94.0076222267
 20
154.8537812058
 30
0.0
 40
0.2250000000000085
 50
123.7489885959
 51
0.0
  0
LINE
  5
105
  8
0
  6
CONTINUOUS
 62
     7
 10
108.1573572769
 20
166.4042312948
 30
0.0
 11
103.1084122256
 21
166.4042312948
 31
0.0
  0
LINE
  5
106
  8
0
  6
CONTINUOUS
 62
     7
 10
98.1234121896
 20
166.4042312948
 30
0.0
 11
93.1573576122
 21
166.4042312948
 31
0.0
  0
LINE
  5
107
  8
0
  6
CONTINUOUS
 62
     7
 10
108.1573572769
 20
139.4042315257
 30
0.0
 11
108.1573572769
 21
151.2914861848
 31
0.0
  0
LINE
  5
108
  8
0
  6
CONTINUOUS
 62
     7
 10
108.1573572769
 20
154.5171761716
 30
0.0
 11
108.1573572769
 21
166.4042312948
 31
0.0
  0
LINE
  5
109
  8
0
  6
CONTINUOUS
 62
     7
 10
93.1573576122
 20
139.4042315257
 30
0.0
 11
98.1649971395
 21
139.4042315257
 31
0.0
  0
LINE
  5
10A
  8
0
  6
CONTINUOUS
 62
     7
 10
103.1499972046
 20
139.4042315257
 30
0.0
 11
108.1573572769
 21
139.4042315257
 31
0.0
  0
LINE
  5
10B
  8
0
  6
CONTINUOUS
 62
     7
 10
93.1573576122
 20
166.4042312948
 30
0.0
 11
93.1573576122
 21
154.1543611854
 31
0.0
  0
LINE
  5
10C
  8
0
  6
CONTINUOUS
 62
     7
 10
93.1573576122
 20
151.6543612413
 30
0.0
 11
93.1573576122
 21
139.4042315257
 31
0.0
  0
CIRCLE
  5
10D
  8
0
  6
CONTINUOUS
 62
     7
 10
96.6022322267
 20
148.4288512058
 30
0.0
 40
0.3250000000000171
  0
ARC
  5
10E
  8
0
  6
CONTINUOUS
 62
     7
 10
98.4577022267
 20
154.1743312058
 30
0.0
 40
0.3249999999999997
 50
50.2848627682
 51
309.7151372318
  0
CIRCLE
  5
10F
  8
0
  6
CONTINUOUS
 62
     7
 10
102.6575922267
 20
160.1046012058
 30
0.0
 40
0.375
  0
POLYLINE
  5
110
  8
0
  6
CONTINUOUS
 62
     7
 66
     1
 10
0.0
 20
0.0
 30
0.0
  0
VERTEX
  5
19C
  8
0
  6
CONTINUOUS
 62
     7
 10
103.0325922361
 20
162.6046009658
 30
0.0
  0
VERTEX
  5
19D
  8
0
  6
CONTINUOUS
 62
     7
 10
103.0208109182
 20
162.6978598831
 30
0.0
  0
VERTEX
  5
19E
  8
0
  6
CONTINUOUS
 62
     7
 10
103.0127520094
 20
162.72496137
 30
0.0
  0
SEQEND
  5
1A3
  8
0
  6
CONTINUOUS
 62
     7
  0
ARC
  5
111
  8
0
  6
CONTINUOUS
 62
     7
 10
102.6575922267
 20
162.6046012058
 30
0.0
 40
0.375
 50
161.2790084539
 51
0.0
  0
POLYLINE
  5
112
  8
0
  6
CONTINUOUS
 62
     7
 66
     1
 10
0.0
 20
0.0
 30
0.0
  0
VERTEX
  5
19F
  8
0
  6
CONTINUOUS
 62
     7
 10
99.2825921453
 20
162.6046009658
 30
0.0
  0
VERTEX
  5
1A0
  8
0
  6
CONTINUOUS
 62
     7
 10
99.2708109147
 20
162.6978598831
 30
0.0
  0
VERTEX
  5
1A1
  8
0
  6
CONTINUOUS
 62
     7
 10
99.2627519477
 20
162.72496137
 30
0.0
  0
SEQEND
  5
1A2
  8
0
  6
CONTINUOUS
 62
     7
  0
ARC
  5
113
  8
0
  6
CONTINUOUS
 62
     7
 10
98.9075922267
 20
162.6046012058
 30
0.0
 40
0.3750000000000078
 50
161.2790084539
 51
0.0
  0
CIRCLE
  5
114
  8
0
  6
CONTINUOUS
 62
     7
 10
106.9070122267
 20
159.0047712058
 30
0.0
 40
0.2249999999999943
  0
CIRCLE
  5
115
  8
0
  6
CONTINUOUS
 62
     7
 10
96.6022322267
 20
147.1588512058
 30
0.0
 40
0.3250000000000171
  0
CIRCLE
  5
116
  8
0
  6
CONTINUOUS
 62
     7
 10
106.9070122267
 20
156.5047712058
 30
0.0
 40
0.2249999999999943
  0
ARC
  5
117
  8
0
  6
CONTINUOUS
 62
     7
 10
94.0076222267
 20
145.5040412058
 30
0.0
 40
0.2250000000000085
 50
0.0
 51
56.2510114041
  0
ARC
  5
118
  8
0
  6
CONTINUOUS
 62
     7
 10
94.0076222267
 20
145.5040412058
 30
0.0
 40
0.2250000000000085
 50
123.7489885959
 51
0.0
  0
CIRCLE
  5
119
  8
0
  6
CONTINUOUS
 62
     7
 10
100.6567072267
 20
146.6552962058
 30
0.0
 40
0.8000000000000114
  0
ARC
  5
11A
  8
0
  6
CONTINUOUS
 62
     7
 10
100.9926472267
 20
151.6545212058
 30
0.0
 40
0.7750000000000129
 50
131.1470283204
 51
163.1374089376
  0
ARC
  5
11B
  8
0
  6
CONTINUOUS
 62
     7
 10
100.9926472267
 20
151.6545212058
 30
0.0
 40
0.7749999999999985
 50
200.7985847245
 51
228.8529716796
  0
ARC
  5
11C
  8
0
  6
CONTINUOUS
 62
     7
 10
103.1576472267
 20
155.4045212058
 30
0.0
 40
0.775000000000004
 50
2.7593963055
 51
177.2406036945
  0
ARC
  5
11D
  8
0
  6
CONTINUOUS
 62
     7
 10
94.0076222267
 20
151.0044112058
 30
0.0
 40
0.2250000000000085
 50
0.0
 51
236.2510114041
  0
ARC
  5
11E
  8
0
  6
CONTINUOUS
 62
     7
 10
94.0076222267
 20
151.0044112058
 30
0.0
 40
0.2250000000000085
 50
303.7489885959
 51
0.0
  0
CIRCLE
  5
11F
  8
0
  6
CONTINUOUS
 62
     7
 10
102.6575922267
 20
157.6046012058
 30
0.0
 40
0.375
  0
ARC
  5
120
  8
0
  6
CONTINUOUS
 62
     7
 10
96.1590022267
 20
160.7681712058
 30
0.0
 40
0.2250000000000042
 50
210.7378686721
 51
329.2621313279
  0
CIRCLE
  5
121
  8
0
  6
CONTINUOUS
 62
     7
 10
95.1061722267
 20
156.8451412058
 30
0.0
 40
0.25
  0
CIRCLE
  5
122
  8
0
  6
CONTINUOUS
 62
     7
 10
102.4074022267
 20
147.1042412058
 30
0.0
 40
0.2250000000000085
  0
ARC
  5
123
  8
0
  6
CONTINUOUS
 62
     7
 10
97.9071572267
 20
141.5054462058
 30
0.0
 40
0.7999999999999958
 50
71.1979236971
 51
288.8020763029
  0
CIRCLE
  5
124
  8
0
  6
CONTINUOUS
 62
     7
 10
95.1573572267
 20
141.4042312058
 30
0.0
 40
0.7999999999999972
  0
CIRCLE
  5
125
  8
0
  6
CONTINUOUS
 62
     7
 10
96.6022322267
 20
149.6988512058
 30
0.0
 40
0.3250000000000171
  0
CIRCLE
  5
126
  8
0
  6
CONTINUOUS
 62
     7
 10
97.3659122267
 20
164.6124612058
 30
0.0
 40
0.5
  0
CIRCLE
  5
127
  8
0
  6
CONTINUOUS
 62
     7
 10
103.8659122267
 20
164.6124612058
 30
0.0
 40
0.5
  0
CIRCLE
  5
128
  8
0
  6
CONTINUOUS
 62
     7
 10
106.9076472267
 20
149.3045212058
 30
0.0
 40
0.25
  0
ARC
  5
129
  8
0
  6
CONTINUOUS
 62
     7
 10
96.1570972267
 20
155.4989412058
 30
0.0
 40
0.3000000000000179
 50
0.0
 51
65.3756816478
  0
ARC
  5
12A
  8
0
  6
CONTINUOUS
 62
     7
 10
96.1570972267
 20
155.4989412058
 30
0.0
 40
0.3000000000000114
 50
114.6243183522
 51
0.0
  0
CIRCLE
  5
12B
  8
0
  6
CONTINUOUS
 62
     7
 10
106.1573572267
 20
164.4042312058
 30
0.0
 40
0.7999999999999972
  0
CIRCLE
  5
12C
  8
0
  6
CONTINUOUS
 62
     7
 10
106.9076472267
 20
152.9045212058
 30
0.0
 40
0.8999999999999915
  0
ARC
  5
12D
  8
0
  6
CONTINUOUS
 62
     7
 10
98.4577022267
 20
151.6343312058
 30
0.0
 40
0.3250000000000051
 50
48.9246511256
 51
308.3148799765
  0
CIRCLE
  5
12E
  8
0
  6
CONTINUOUS
 62
     7
 10
94.5118122267
 20
144.1540312058
 30
0.0
 40
0.1999999999999886
  0
LINE
  5
12F
  8
0
  6
CONTINUOUS
 62
     7
 10
95.1393121682
 20
143.6515309212
 30
0.0
 11
95.0143123805
 21
143.5265315992
 31
0.0
  0
LINE
  5
130
  8
0
  6
CONTINUOUS
 62
     7
 10
95.0143123805
 20
143.6515309212
 30
0.0
 11
95.0143123805
 21
143.5265315992
 31
0.0
  0
LINE
  5
131
  8
0
  6
CONTINUOUS
 62
     7
 10
95.1393121682
 20
143.6515309212
 30
0.0
 11
95.0143123805
 21
143.6515309212
 31
0.0
  0
LINE
  5
132
  8
0
  6
CONTINUOUS
 62
     7
 10
94.0093119457
 20
144.6565313561
 30
0.0
 11
94.0093119457
 21
143.6515309212
 31
0.0
  0
LINE
  5
133
  8
0
  6
CONTINUOUS
 62
     7
 10
95.0143123805
 20
144.6565313561
 30
0.0
 11
94.0093119457
 21
144.6565313561
 31
0.0
  0
LINE
  5
134
  8
0
  6
CONTINUOUS
 62
     7
 10
95.0143123805
 20
143.6515309212
 30
0.0
 11
95.0143123805
 21
144.6565313561
 31
0.0
  0
LINE
  5
135
  8
0
  6
CONTINUOUS
 62
     7
 10
94.0093119457
 20
143.6515309212
 30
0.0
 11
95.0143123805
 21
143.6515309212
 31
0.0
  0
LINE
  5
136
  8
0
  6
CONTINUOUS
 62
     7
 10
94.0093119457
 20
144.7815316094
 30
0.0
 11
95.0143123805
 21
144.7815316094
 31
0.0
  0
LINE
  5
137
  8
0
  6
CONTINUOUS
 62
     7
 10
95.0143123805
 20
144.7815316094
 30
0.0
 11
95.0143123805
 21
144.6565313561
 31
0.0
  0
LINE
  5
138
  8
0
  6
CONTINUOUS
 62
     7
 10
94.0093119457
 20
144.7815316094
 30
0.0
 11
94.0093119457
 21
144.6565313561
 31
0.0
  0
LINE
  5
139
  8
0
  6
CONTINUOUS
 62
     7
 10
95.0143123805
 20
144.7815316094
 30
0.0
 11
95.1393121682
 21
144.6565313561
 31
0.0
  0
LINE
  5
13A
  8
0
  6
CONTINUOUS
 62
     7
 10
95.0143123805
 20
144.6565313561
 30
0.0
 11
95.1393121682
 21
144.6565313561
 31
0.0
  0
LINE
  5
13B
  8
0
  6
CONTINUOUS
 62
     7
 10
94.0093119457
 20
143.5265315992
 30
0.0
 11
93.8843126237
 21
143.6515309212
 31
0.0
  0
LINE
  5
13C
  8
0
  6
CONTINUOUS
 62
     7
 10
94.0093119457
 20
143.6515309212
 30
0.0
 11
93.8843126237
 21
143.6515309212
 31
0.0
  0
LINE
  5
13D
  8
0
  6
CONTINUOUS
 62
     7
 10
94.0093119457
 20
143.6515309212
 30
0.0
 11
94.0093119457
 21
143.5265315992
 31
0.0
  0
LINE
  5
13E
  8
0
  6
CONTINUOUS
 62
     7
 10
93.8843126237
 20
144.6565313561
 30
0.0
 11
94.0093119457
 21
144.6565313561
 31
0.0
  0
LINE
  5
13F
  8
0
  6
CONTINUOUS
 62
     7
 10
93.8843126237
 20
144.6565313561
 30
0.0
 11
94.0093119457
 21
144.7815316094
 31
0.0
  0
LINE
  5
140
  8
0
  6
CONTINUOUS
 62
     7
 10
93.8843126237
 20
143.6515309212
 30
0.0
 11
93.8843126237
 21
144.6565313561
 31
0.0
  0
LINE
  5
141
  8
0
  6
CONTINUOUS
 62
     7
 10
95.0143123805
 20
143.5265315992
 30
0.0
 11
94.0093119457
 21
143.5265315992
 31
0.0
  0
LINE
  5
142
  8
0
  6
CONTINUOUS
 62
     7
 10
95.1393121682
 20
144.6565313561
 30
0.0
 11
95.1393121682
 21
143.6515309212
 31
0.0
  0
LINE
  5
143
  8
0
  6
CONTINUOUS
 62
     7
 10
96.6668120414
 20
144.7815316094
 30
0.0
 11
96.6668120414
 21
143.5265315992
 31
0.0
  0
LINE
  5
144
  8
0
  6
CONTINUOUS
 62
     7
 10
96.6668120414
 20
144.7815316094
 30
0.0
 11
97.6793124169
 21
144.7815316094
 31
0.0
  0
LINE
  5
145
  8
0
  6
CONTINUOUS
 62
     7
 10
97.6793124169
 20
144.7815316094
 30
0.0
 11
97.6793124169
 21
143.5265315992
 31
0.0
  0
LINE
  5
146
  8
0
  6
CONTINUOUS
 62
     7
 10
96.6668120414
 20
143.5265315992
 30
0.0
 11
97.6793124169
 21
143.5265315992
 31
0.0
  0
LINE
  5
147
  8
0
  6
CONTINUOUS
 62
     7
 10
95.1543120496
 20
144.7815316094
 30
0.0
 11
96.1668124251
 21
144.7815316094
 31
0.0
  0
LINE
  5
148
  8
0
  6
CONTINUOUS
 62
     7
 10
96.1668124251
 20
144.7815316094
 30
0.0
 11
96.1668124251
 21
143.5265315992
 31
0.0
  0
LINE
  5
149
  8
0
  6
CONTINUOUS
 62
     7
 10
95.1543120496
 20
144.7815316094
 30
0.0
 11
95.1543120496
 21
143.5265315992
 31
0.0
  0
LINE
  5
14A
  8
0
  6
CONTINUOUS
 62
     7
 10
95.1543120496
 20
143.5265315992
 30
0.0
 11
96.1668124251
 21
143.5265315992
 31
0.0
  0
LINE
  5
14B
  8
0
  6
CONTINUOUS
 62
     7
 10
96.1668124251
 20
144.7815316094
 30
0.0
 11
96.6668120414
 21
144.7815316094
 31
0.0
  0
LINE
  5
14C
  8
0
  6
CONTINUOUS
 62
     7
 10
96.1668124251
 20
143.5265315992
 30
0.0
 11
96.6668120414
 21
143.5265315992
 31
0.0
  0
LINE
  5
14D
  8
0
  6
CONTINUOUS
 62
     7
 10
98.1234121896
 20
163.5526575444
 30
0.0
 11
103.1084122256
 21
163.5526575444
 31
0.0
  0
LINE
  5
14E
  8
0
  6
CONTINUOUS
 62
     7
 10
103.1084122256
 20
163.5526575444
 30
0.0
 11
103.1084122256
 21
162.72496137
 31
0.0
  0
LINE
  5
14F
  8
0
  6
CONTINUOUS
 62
     7
 10
103.1084122256
 20
162.72496137
 30
0.0
 11
98.1234121896
 21
162.72496137
 31
0.0
  0
LINE
  5
150
  8
0
  6
CONTINUOUS
 62
     7
 10
98.1234121896
 20
162.72496137
 30
0.0
 11
98.1234121896
 21
163.5526575444
 31
0.0
  0
LINE
  5
151
  8
0
  6
CONTINUOUS
 62
     7
 10
103.1084122256
 20
165.6722648365
 30
0.0
 11
98.1234121896
 21
165.6722648365
 31
0.0
  0
LINE
  5
152
  8
0
  6
CONTINUOUS
 62
     7
 10
98.1234121896
 20
165.6722648365
 30
0.0
 11
98.1234121896
 21
166.4999610109
 31
0.0
  0
LINE
  5
153
  8
0
  6
CONTINUOUS
 62
     7
 10
98.1234121896
 20
166.4999610109
 30
0.0
 11
103.1084122256
 21
166.4999610109
 31
0.0
  0
LINE
  5
154
  8
0
  6
CONTINUOUS
 62
     7
 10
103.1084122256
 20
166.4999610109
 30
0.0
 11
103.1084122256
 21
165.6722648365
 31
0.0
  0
LINE
  5
155
  8
0
  6
CONTINUOUS
 62
     7
 10
103.1084122256
 20
163.5526575444
 30
0.0
 11
103.1084122256
 21
165.6722648365
 31
0.0
  0
LINE
  5
156
  8
0
  6
CONTINUOUS
 62
     7
 10
98.1234121896
 20
165.6722648365
 30
0.0
 11
98.1234121896
 21
163.5526575444
 31
0.0
  0
CIRCLE
  5
157
  8
0
  6
CONTINUOUS
 62
     7
 10
101.9033520207
 20
164.6124612058
 30
0.0
 40
0.8625000000000114
  0
CIRCLE
  5
158
  8
0
  6
CONTINUOUS
 62
     7
 10
99.3284724326
 20
164.6124612058
 30
0.0
 40
0.8624999999999972
  0
LINE
  5
159
  8
0
  6
CONTINUOUS
 62
     7
 10
100.1730552703
 20
164.4375732464
 30
0.0
 11
100.1730552703
 21
164.7873491345
 31
0.0
  0
LINE
  5
15A
  8
0
  6
CONTINUOUS
 62
     7
 10
100.1637103796
 20
164.8275981022
 30
0.0
 11
98.4932343304
 21
164.8275981022
 31
0.0
  0
LINE
  5
15B
  8
0
  6
CONTINUOUS
 62
     7
 10
101.0681141229
 20
164.4375732464
 30
0.0
 11
102.7479349391
 21
164.4375732464
 31
0.0
  0
LINE
  5
15C
  8
0
  6
CONTINUOUS
 62
     7
 10
101.0681141229
 20
164.8275981022
 30
0.0
 11
101.0681141229
 21
164.4375732464
 31
0.0
  0
LINE
  5
15D
  8
0
  6
CONTINUOUS
 62
     7
 10
102.7479349391
 20
164.4375732464
 30
0.0
 11
102.7479349391
 21
164.7873491345
 31
0.0
  0
LINE
  5
15E
  8
0
  6
CONTINUOUS
 62
     7
 10
98.4932343304
 20
164.4375732464
 30
0.0
 11
100.1730552703
 21
164.4375732464
 31
0.0
  0
LINE
  5
15F
  8
0
  6
CONTINUOUS
 62
     7
 10
98.4932343304
 20
164.8275981022
 30
0.0
 11
98.4932343304
 21
164.4375732464
 31
0.0
  0
LINE
  5
160
  8
0
  6
CONTINUOUS
 62
     7
 10
102.7385898956
 20
164.8275981022
 30
0.0
 11
101.0681141229
 21
164.8275981022
 31
0.0
  0
LINE
  5
161
  8
0
  6
CONTINUOUS
 62
     7
 10
98.1649971395
 20
140.0944868399
 30
0.0
 11
103.1499972046
 21
140.0944868399
 31
0.0
  0
LINE
  5
162
  8
0
  6
CONTINUOUS
 62
     7
 10
98.1649971395
 20
142.2140950633
 30
0.0
 11
98.1649971395
 21
140.0944868399
 31
0.0
  0
LINE
  5
163
  8
0
  6
CONTINUOUS
 62
     7
 10
103.1499972046
 20
142.2140950633
 30
0.0
 11
98.1649971395
 21
142.2140950633
 31
0.0
  0
LINE
  5
164
  8
0
  6
CONTINUOUS
 62
     7
 10
103.1499972046
 20
140.0944868399
 30
0.0
 11
103.1499972046
 21
142.2140950633
 31
0.0
  0
CIRCLE
  5
165
  8
0
  6
CONTINUOUS
 62
     7
 10
99.3700574326
 20
141.1542912058
 30
0.0
 40
0.8624999999999972
  0
CIRCLE
  5
166
  8
0
  6
CONTINUOUS
 62
     7
 10
101.9449370207
 20
141.1542912058
 30
0.0
 40
0.8624999999999972
  0
LINE
  5
167
  8
0
  6
CONTINUOUS
 62
     7
 10
98.1649971395
 20
142.2140950633
 30
0.0
 11
98.1649971395
 21
143.0417912377
 31
0.0
  0
LINE
  5
168
  8
0
  6
CONTINUOUS
 62
     7
 10
98.1649971395
 20
143.0417912377
 30
0.0
 11
103.1499972046
 21
143.0417912377
 31
0.0
  0
LINE
  5
169
  8
0
  6
CONTINUOUS
 62
     7
 10
103.1499972046
 20
143.0417912377
 30
0.0
 11
103.1499972046
 21
142.2140950633
 31
0.0
  0
LINE
  5
16A
  8
0
  6
CONTINUOUS
 62
     7
 10
103.1499972046
 20
139.2667915968
 30
0.0
 11
98.1649971395
 21
139.2667915968
 31
0.0
  0
LINE
  5
16B
  8
0
  6
CONTINUOUS
 62
     7
 10
103.1499972046
 20
140.0944868399
 30
0.0
 11
103.1499972046
 21
139.2667915968
 31
0.0
  0
LINE
  5
16C
  8
0
  6
CONTINUOUS
 62
     7
 10
98.1649971395
 20
139.2667915968
 30
0.0
 11
98.1649971395
 21
140.0944868399
 31
0.0
  0
LINE
  5
16D
  8
0
  6
CONTINUOUS
 62
     7
 10
98.5254743896
 20
141.3291793612
 30
0.0
 11
98.5254743896
 21
140.9794025419
 31
0.0
  0
LINE
  5
16E
  8
0
  6
CONTINUOUS
 62
     7
 10
100.2052953295
 20
141.3291793612
 30
0.0
 11
98.5254743896
 21
141.3291793612
 31
0.0
  0
LINE
  5
16F
  8
0
  6
CONTINUOUS
 62
     7
 10
100.2052953295
 20
140.9391545055
 30
0.0
 11
100.2052953295
 21
141.3291793612
 31
0.0
  0
LINE
  5
170
  8
0
  6
CONTINUOUS
 62
     7
 10
98.534819746
 20
140.9391545055
 30
0.0
 11
100.2052953295
 21
140.9391545055
 31
0.0
  0
LINE
  5
171
  8
0
  6
CONTINUOUS
 62
     7
 10
102.7801748892
 20
141.3291793612
 30
0.0
 11
101.1003540657
 21
141.3291793612
 31
0.0
  0
LINE
  5
172
  8
0
  6
CONTINUOUS
 62
     7
 10
102.7801748892
 20
140.9391545055
 30
0.0
 11
102.7801748892
 21
141.3291793612
 31
0.0
  0
LINE
  5
173
  8
0
  6
CONTINUOUS
 62
     7
 10
101.1096991893
 20
140.9391545055
 30
0.0
 11
102.7801748892
 21
140.9391545055
 31
0.0
  0
LINE
  5
174
  8
0
  6
CONTINUOUS
 62
     7
 10
101.1003540657
 20
141.3291793612
 30
0.0
 11
101.1003540657
 21
140.9794025419
 31
0.0
  0
LINE
  5
175
  8
0
  6
CONTINUOUS
 62
     7
 10
97.1067674286
 20
151.6543612413
 30
0.0
 11
97.1067674286
 21
154.1543611854
 31
0.0
  0
LINE
  5
176
  8
0
  6
CONTINUOUS
 62
     7
 10
93.1567671537
 20
151.6543612413
 30
0.0
 11
97.1067674286
 21
151.6543612413
 31
0.0
  0
LINE
  5
177
  8
0
  6
CONTINUOUS
 62
     7
 10
93.1567671537
 20
154.1543611854
 30
0.0
 11
93.1567671537
 21
151.6543612413
 31
0.0
  0
LINE
  5
178
  8
0
  6
CONTINUOUS
 62
     7
 10
97.1067674286
 20
154.1543611854
 30
0.0
 11
93.1567671537
 21
154.1543611854
 31
0.0
  0
LINE
  5
179
  8
0
  6
CONTINUOUS
 62
     7
 10
92.2067669049
 20
151.9043611658
 30
0.0
 11
92.2067669049
 21
153.9043612026
 31
0.0
  0
LINE
  5
17A
  8
0
  6
CONTINUOUS
 62
     7
 10
92.2017675653
 20
151.9043611658
 30
0.0
 11
92.2017675653
 21
153.9043612026
 31
0.0
  0
LINE
  5
17B
  8
0
  6
CONTINUOUS
 62
     7
 10
91.7017674833
 20
151.9043611658
 30
0.0
 11
91.7017674833
 21
153.9043612026
 31
0.0
  0
LINE
  5
17C
  8
0
  6
CONTINUOUS
 62
     8
 10
94.5826220154
 20
148.5675534529
 30
0.0
 11
93.4326221063
 21
148.5675534529
 31
0.0
  0
LINE
  5
17D
  8
0
  6
CONTINUOUS
 62
     8
 10
93.4326221063
 20
148.3675537927
 30
0.0
 11
94.5826220154
 21
148.3675537927
 31
0.0
  0
LINE
  5
17E
  8
0
  6
CONTINUOUS
 62
     8
 10
94.5826220154
 20
149.229041144
 30
0.0
 11
93.4326221063
 21
149.229041144
 31
0.0
  0
LINE
  5
17F
  8
0
  6
CONTINUOUS
 62
     8
 10
93.4326221063
 20
147.8675537107
 30
0.0
 11
94.5826220154
 21
147.8675537107
 31
0.0
  0
LINE
  5
180
  8
0
  6
CONTINUOUS
 62
     8
 10
94.5826220154
 20
147.5675537547
 30
0.0
 11
93.4326221063
 21
147.5675537547
 31
0.0
  0
LINE
  5
181
  8
0
  6
CONTINUOUS
 62
     8
 10
94.5826220154
 20
148.0675538366
 30
0.0
 11
93.4326221063
 21
148.0675538366
 31
0.0
  0
LINE
  5
182
  8
0
  6
CONTINUOUS
 62
     8
 10
93.4326221063
 20
147.3675536288
 30
0.0
 11
94.5826220154
 21
147.3675536288
 31
0.0
  0
LINE
  5
183
  8
0
  6
CONTINUOUS
 62
     8
 10
93.4326221063
 20
149.0290410181
 30
0.0
 11
94.5826220154
 21
149.0290410181
 31
0.0
  0
LINE
  5
184
  8
0
  6
CONTINUOUS
 62
     8
 10
93.4576225295
 20
149.6040412055
 30
0.0
 11
94.5576225236
 21
149.6040412055
 31
0.0
  0
LINE
  5
185
  8
0
  6
CONTINUOUS
 62
     8
 10
93.4576225295
 20
146.9040413683
 30
0.0
 11
94.5576225236
 21
146.9040413683
 31
0.0
  0
LINE
  5
186
  8
0
  6
CONTINUOUS
 62
     8
 10
93.8826222732
 20
146.0040410345
 30
0.0
 11
94.1326218485
 21
146.0040410345
 31
0.0
  0
LINE
  5
187
  8
0
  6
CONTINUOUS
 62
     8
 10
93.8826222732
 20
150.5040413065
 30
0.0
 11
94.1326218485
 21
150.5040413065
 31
0.0
  0
LINE
  5
188
  8
0
  6
CONTINUOUS
 62
     8
 10
93.4326221063
 20
158.3787811285
 30
0.0
 11
94.5826220154
 21
158.3787811285
 31
0.0
  0
LINE
  5
189
  8
0
  6
CONTINUOUS
 62
     8
 10
94.5826220154
 20
158.5787812544
 30
0.0
 11
93.4326221063
 21
158.5787812544
 31
0.0
  0
LINE
  5
18A
  8
0
  6
CONTINUOUS
 62
     8
 10
93.4326221063
 20
157.7172934374
 30
0.0
 11
94.5826220154
 21
157.7172934374
 31
0.0
  0
LINE
  5
18B
  8
0
  6
CONTINUOUS
 62
     8
 10
94.5826220154
 20
157.9172935633
 30
0.0
 11
93.4326221063
 21
157.9172935633
 31
0.0
  0
LINE
  5
18C
  8
0
  6
CONTINUOUS
 62
     8
 10
94.5826220154
 20
157.4172934813
 30
0.0
 11
93.4326221063
 21
157.4172934813
 31
0.0
  0
LINE
  5
18D
  8
0
  6
CONTINUOUS
 62
     8
 10
93.4326221063
 20
156.7172937391
 30
0.0
 11
94.5826220154
 21
156.7172937391
 31
0.0
  0
LINE
  5
18E
  8
0
  6
CONTINUOUS
 62
     8
 10
93.4326221063
 20
157.2172938211
 30
0.0
 11
94.5826220154
 21
157.2172938211
 31
0.0
  0
LINE
  5
18F
  8
0
  6
CONTINUOUS
 62
     8
 10
94.5826220154
 20
156.917293865
 30
0.0
 11
93.4326221063
 21
156.917293865
 31
0.0
  0
LINE
  5
190
  8
0
  6
CONTINUOUS
 62
     8
 10
93.4576225295
 20
158.953781083
 30
0.0
 11
94.5576225236
 21
158.953781083
 31
0.0
  0
LINE
  5
191
  8
0
  6
CONTINUOUS
 62
     8
 10
93.4576225295
 20
156.2537812458
 30
0.0
 11
94.5576225236
 21
156.2537812458
 31
0.0
  0
LINE
  5
192
  8
0
  6
CONTINUOUS
 62
     8
 10
93.8826222732
 20
159.8537814168
 30
0.0
 11
94.1326218485
 21
159.8537814168
 31
0.0
  0
LINE
  5
193
  8
0
  6
CONTINUOUS
 62
     8
 10
93.8826222732
 20
155.3537811449
 30
0.0
 11
94.1326218485
 21
155.3537811449
 31
0.0
  0
LINE
  5
194
  8
0
  6
CONTINUOUS
 62
     8
 10
98.9577021278
 20
152.6543311954
 30
0.0
 11
98.9577021278
 21
153.1543312046
 31
0.0
  0
LINE
  5
195
  8
0
  6
CONTINUOUS
 62
     8
 10
98.9577021278
 20
153.9243312616
 30
0.0
 11
98.9577021278
 21
154.4243312271
 31
0.0
  0
LINE
  5
196
  8
0
  6
CONTINUOUS
 62
     8
 10
98.9577021278
 20
151.8793311732
 30
0.0
 11
98.9577021278
 21
151.3793312076
 31
0.0
  0
LINE
  5
197
  8
0
  6
CONTINUOUS
 62
     8
 10
96.7818471431
 20
156.6539412195
 30
0.0
 11
95.5323470585
 21
156.6539412195
 31
0.0
  0
LINE
  5
198
  8
0
  6
CONTINUOUS
 62
     8
 10
96.2820971213
 20
155.9989411214
 30
0.0
 11
96.0320970803
 21
155.9989411214
 31
0.0
  0
LINE
  5
199
  8
0
  6
CONTINUOUS
 62
     8
 10
96.2820971213
 20
158.8089413305
 30
0.0
 11
96.0320970803
 21
158.8089413305
 31
0.0
  0
TEXT
  5
19A
  8
0
  6
CONTINUOUS
 62
     7
 10
0.0
 20
6.732893805
 30
0.0
 40
3.633
  1
Edition tudiante de SolidWorks.
 41
0.6671875
 11
0.0
 21
5.4495
 31
0.0
 73
     1
  0
TEXT
  5
19B
  8
0
  6
CONTINUOUS
 62
     7
 10
0.0
 20
1.283393805
 30
0.0
 40
3.633
  1
A usage universitaire uniquement.
 41
0.6681818182
 11
0.0
 21
0.0
 31
0.0
 73
     1
  0
ENDSEC
  0
EOF
