  0
SECTION
  2
HEADER
  9
$ACADVER
  1
AC1009
  9
$DWGCODEPAGE
  3
ansi_1252
  9
$INSBASE
 10
0.0
 20
0.0
 30
0.0
  9
$EXTMIN
 10
0.0
 20
0.0
 30
0.0
  9
$EXTMAX
 10
210.0
 20
297.0
 30
0.0
  9
$LIMMIN
 10
0.0
 20
0.0
  9
$LIMMAX
 10
210.0
 20
297.0
  9
$ORTHOMODE
 70
     0
  9
$REGENMODE
 70
     1
  9
$FILLMODE
 70
     1
  9
$QTEXTMODE
 70
     0
  9
$MIRRTEXT
 70
     1
  9
$DRAGMODE
 70
     2
  9
$LTSCALE
 40
1.0
  9
$OSMODE
 70
    37
  9
$ATTMODE
 70
     1
  9
$TEXTSIZE
 40
3.5
  9
$TRACEWID
 40
1.0
  9
$TEXTSTYLE
  7
STANDARD
  9
$CLAYER
  8
0
  9
$CELTYPE
  6
BYLAYER
  9
$CECOLOR
 62
   256
  9
$DIMSCALE
 40
1.0
  9
$DIMASZ
 40
3.302
  9
$DIMEXO
 40
1.0
  9
$DIMDLI
 40
3.75
  9
$DIMRND
 40
0.0
  9
$DIMDLE
 40
0.0
  9
$DIMEXE
 40
1.0
  9
$DIMTP
 40
0.0
  9
$DIMTM
 40
0.0
  9
$DIMTXT
 40
3.5
  9
$DIMCEN
 40
2.5
  9
$DIMTSZ
 40
0.0
  9
$DIMTOL
 70
     0
  9
$DIMLIM
 70
     0
  9
$DIMTIH
 70
     1
  9
$DIMTOH
 70
     1
  9
$DIMSE1
 70
     0
  9
$DIMSE2
 70
     0
  9
$DIMTAD
 70
     1
  9
$DIMZIN
 70
     0
  9
$DIMBLK
  1

  9
$DIMASO
 70
     1
  9
$DIMSHO
 70
     1
  9
$DIMPOST
  1

  9
$DIMAPOST
  1

  9
$DIMALT
 70
     0
  9
$DIMALTD
 70
     3
  9
$DIMALTF
 40
0.0393700787
  9
$DIMLFAC
 40
1.0
  9
$DIMTOFL
 70
     1
  9
$DIMTVP
 40
0.0
  9
$DIMTIX
 70
     0
  9
$DIMSOXD
 70
     0
  9
$DIMSAH
 70
     0
  9
$DIMBLK1
  1

  9
$DIMBLK2
  1

  9
$DIMSTYLE
  2
ISO-25
  9
$DIMCLRD
 70
     0
  9
$DIMCLRE
 70
     0
  9
$DIMCLRT
 70
     0
  9
$DIMTFAC
 40
1.0
  9
$DIMGAP
 40
1.524
  9
$LUNITS
 70
     2
  9
$LUPREC
 70
     2
  9
$SKETCHINC
 40
1.0
  9
$FILLETRAD
 40
10.0
  9
$AUNITS
 70
     0
  9
$AUPREC
 70
     2
  9
$MENU
  1
.
  9
$ELEVATION
 40
0.0
  9
$PELEVATION
 40
0.0
  9
$THICKNESS
 40
0.0
  9
$LIMCHECK
 70
     0
  9
$CHAMFERA
 40
10.0
  9
$CHAMFERB
 40
10.0
  9
$SKPOLY
 70
     0
  9
$TDCREATE
 40
2456441.658013472
  9
$TDUPDATE
 40
2456441.658013657
  9
$TDINDWG
 40
0.0000000116
  9
$TDUSRTIMER
 40
0.0000000116
  9
$USRTIMER
 70
     1
  9
$ANGBASE
 50
0.0
  9
$ANGDIR
 70
     0
  9
$PDMODE
 70
     0
  9
$PDSIZE
 40
-1.0
  9
$PLINEWID
 40
0.0
  9
$COORDS
 70
     1
  9
$SPLFRAME
 70
     0
  9
$SPLINETYPE
 70
     6
  9
$SPLINESEGS
 70
     8
  9
$ATTDIA
 70
     0
  9
$ATTREQ
 70
     1
  9
$HANDLING
 70
     1
  9
$HANDSEED
  5
160
  9
$SURFTAB1
 70
     6
  9
$SURFTAB2
 70
     6
  9
$SURFTYPE
 70
     6
  9
$SURFU
 70
     6
  9
$SURFV
 70
     6
  9
$UCSNAME
  2

  9
$UCSORG
 10
0.0
 20
0.0
 30
0.0
  9
$UCSXDIR
 10
1.0
 20
0.0
 30
0.0
  9
$UCSYDIR
 10
0.0
 20
1.0
 30
0.0
  9
$PUCSNAME
  2

  9
$PUCSORG
 10
0.0
 20
0.0
 30
0.0
  9
$PUCSXDIR
 10
1.0
 20
0.0
 30
0.0
  9
$PUCSYDIR
 10
0.0
 20
1.0
 30
0.0
  9
$USERI1
 70
     0
  9
$USERI2
 70
     0
  9
$USERI3
 70
     0
  9
$USERI4
 70
     0
  9
$USERI5
 70
     0
  9
$USERR1
 40
0.0
  9
$USERR2
 40
0.0
  9
$USERR3
 40
0.0
  9
$USERR4
 40
0.0
  9
$USERR5
 40
0.0
  9
$WORLDVIEW
 70
     1
  9
$SHADEDGE
 70
     3
  9
$SHADEDIF
 70
    70
  9
$TILEMODE
 70
     1
  9
$MAXACTVP
 70
    64
  9
$PLIMCHECK
 70
     0
  9
$PEXTMIN
 10
1.0000000000E+20
 20
1.0000000000E+20
 30
1.0000000000E+20
  9
$PEXTMAX
 10
-1.0000000000E+20
 20
-1.0000000000E+20
 30
-1.0000000000E+20
  9
$PLIMMIN
 10
0.0
 20
0.0
  9
$PLIMMAX
 10
420.0
 20
297.0
  9
$UNITMODE
 70
     0
  9
$VISRETAIN
 70
     1
  9
$PLINEGEN
 70
     0
  9
$PSLTSCALE
 70
     1
  0
ENDSEC
  0
SECTION
  2
TABLES
  0
TABLE
  2
VPORT
 70
     1
  0
VPORT
  2
*ACTIVE
 70
     0
 10
0.0
 20
0.0
 11
1.0
 21
1.0
 12
105.0
 22
148.5
 13
0.0
 23
0.0
 14
10.0
 24
10.0
 15
10.0
 25
10.0
 16
0.0
 26
0.0
 36
1.0
 17
0.0
 27
0.0
 37
0.0
 40
297.0
 41
0.7070707071
 42
50.0
 43
0.0
 44
0.0
 50
0.0
 51
0.0
 71
     0
 72
  2000
 73
     1
 74
     3
 75
     0
 76
     0
 77
     0
 78
     0
  0
ENDTAB
  0
TABLE
  2
LTYPE
 70
     6
  0
LTYPE
  2
CONTINUOUS
 70
     0
  3
Solid line
 72
    65
 73
     0
 40
0.0
  0
LTYPE
  2
HIDDEN
 70
     0
  3
Hidden __ __ __ __ __ __ __ __ __ __ __ __ __ __
 72
    65
 73
     2
 40
1.905
 49
1.27
 49
-0.635
  0
LTYPE
  2
PHANTOM
 70
     0
  3
Phantom ______  __  __  ______  __  __  ______
 72
    65
 73
     6
 40
12.7
 49
6.35
 49
-1.27
 49
1.27
 49
-1.27
 49
1.27
 49
-1.27
  0
LTYPE
  2
CENTER
 70
     0
  3
Center ____ _ ____ _ ____ _ ____ _ ____ _ ____
 72
    65
 73
     4
 40
10.16
 49
6.35
 49
-1.27
 49
1.27
 49
-1.27
  0
LTYPE
  2
CENTERX2
 70
     0
  3
Center (2x) ________  __  ________  __  _____
 72
    65
 73
     4
 40
20.32
 49
12.7
 49
-2.54
 49
2.54
 49
-2.54
  0
LTYPE
  2
DOT2
 70
     0
  3
Dot (.5x) ........................................
 72
    65
 73
     2
 40
0.635
 49
0.0
 49
-0.635
  0
ENDTAB
  0
TABLE
  2
LAYER
 70
     1
  0
LAYER
  2
0
 70
     0
 62
     7
  6
CONTINUOUS
  0
ENDTAB
  0
TABLE
  2
STYLE
 70
     1
  0
STYLE
  2
STANDARD
 70
     0
 40
0.0
 41
1.0
 50
0.0
 71
     0
 42
3.5
  3
txt
  4

  0
ENDTAB
  0
TABLE
  2
VIEW
 70
     0
  0
ENDTAB
  0
TABLE
  2
UCS
 70
     0
  0
ENDTAB
  0
TABLE
  2
APPID
 70
     1
  0
APPID
  2
ACAD
 70
     0
  0
ENDTAB
  0
TABLE
  2
DIMSTYLE
 70
     1
  0
DIMSTYLE
  2
ISO-25
 70
     0
  3

  4

  5

  6

  7

 40
1.0
 41
2.5
 42
0.625
 43
3.75
 44
1.25
 45
0.0
 46
0.0
 47
0.0
 48
0.0
140
2.5
141
2.5
142
0.0
143
0.0393700787
144
1.0
145
0.0
146
1.0
147
0.625
 71
     0
 72
     0
 73
     0
 74
     0
 75
     0
 76
     0
 77
     1
 78
     8
170
     0
171
     3
172
     1
173
     0
174
     0
175
     0
176
     0
177
     0
178
     0
  0
ENDTAB
  0
ENDSEC
  0
SECTION
  2
BLOCKS
  0
BLOCK
  8
0
  2
$MODEL_SPACE
 70
     0
 10
0.0
 20
0.0
 30
0.0
  3
$MODEL_SPACE
  1

  0
ENDBLK
  5
21
  8
0
  0
BLOCK
 67
     1
  8
0
  2
$PAPER_SPACE
 70
     0
 10
0.0
 20
0.0
 30
0.0
  3
$PAPER_SPACE
  1

  0
ENDBLK
  5
1D
 67
     1
  8
0
  0
ENDSEC
  0
SECTION
  2
ENTITIES
  0
LINE
  5
44
  8
0
  6
CONTINUOUS
 62
     7
 10
104.7667474426
 20
175.9220665905
 30
0.0
 11
99.9514298231
 21
171.7495701215
 31
0.0
  0
LINE
  5
45
  8
0
  6
CONTINUOUS
 62
     7
 10
101.7279808252
 20
170.3096720111
 30
0.0
 11
106.6749743844
 21
174.5962663314
 31
0.0
  0
LINE
  5
46
  8
0
  6
CONTINUOUS
 62
     7
 10
97.8283817486
 20
178.8007629572
 30
0.0
 11
96.0333006913
 21
172.6872783078
 31
0.0
  0
LINE
  5
47
  8
0
  6
CONTINUOUS
 62
     7
 10
98.3062981896
 20
172.4364349215
 30
0.0
 11
100.1504661407
 21
178.7170941791
 31
0.0
  0
LINE
  5
48
  8
0
  6
CONTINUOUS
 62
     7
 10
90.4351163396
 20
177.471312745
 30
0.0
 11
92.2301973968
 21
171.3578280956
 31
0.0
  0
LINE
  5
49
  8
0
  6
CONTINUOUS
 62
     7
 10
94.2779807458
 20
172.3756804362
 30
0.0
 11
92.4338127946
 21
178.6563396938
 31
0.0
  0
LINE
  5
4A
  8
0
  6
CONTINUOUS
 62
     7
 10
84.9342607446
 20
172.3558070029
 30
0.0
 11
89.749578364
 21
168.1833105338
 31
0.0
  0
LINE
  5
4B
  8
0
  6
CONTINUOUS
 62
     7
 10
90.9219908194
 20
170.146697675
 30
0.0
 11
85.9749972601
 21
174.4332919953
 31
0.0
  0
LINE
  5
4C
  8
0
  6
CONTINUOUS
 62
     7
 10
83.0722977478
 20
165.0783826595
 30
0.0
 11
89.3790226088
 21
164.1716125183
 31
0.0
  0
LINE
  5
4D
  8
0
  6
CONTINUOUS
 62
     7
 10
89.3038314998
 20
166.4571729153
 30
0.0
 11
82.8246478337
 21
167.3887388893
 31
0.0
  0
LINE
  5
4E
  8
0
  6
CONTINUOUS
 62
     7
 10
85.4403874448
 20
157.9495705241
 30
0.0
 11
91.236178965
 21
160.5964198236
 31
0.0
  0
LINE
  5
4F
  8
0
  6
CONTINUOUS
 62
     7
 10
89.9372569375
 20
162.4785041995
 30
0.0
 11
83.9829781989
 21
159.7592762125
 31
0.0
  0
LINE
  5
50
  8
0
  6
CONTINUOUS
 62
     7
 10
91.2866780888
 20
153.2327180798
 30
0.0
 11
94.7314134117
 21
158.5928308692
 31
0.0
  0
LINE
  5
51
  8
0
  6
CONTINUOUS
 62
     7
 10
92.6211590317
 20
159.4738907328
 30
0.0
 11
89.0822266491
 21
153.9672044575
 31
0.0
  0
LINE
  5
52
  8
0
  6
CONTINUOUS
 62
     7
 10
98.7550137083
 20
152.4253926501
 30
0.0
 11
98.7550137083
 21
158.7969709915
 31
0.0
  0
LINE
  5
53
  8
0
  6
CONTINUOUS
 62
     7
 10
96.5034178311
 20
158.3972760613
 30
0.0
 11
96.5034178311
 21
151.8514654818
 31
0.0
  0
LINE
  5
54
  8
0
  6
CONTINUOUS
 62
     7
 10
105.4742505128
 20
155.7839143546
 30
0.0
 11
102.0295151898
 21
161.144027144
 31
0.0
  0
LINE
  5
55
  8
0
  6
CONTINUOUS
 62
     7
 10
100.3514435974
 20
159.5904777363
 30
0.0
 11
103.89037598
 21
154.0837914611
 31
0.0
  0
LINE
  5
56
  8
0
  6
CONTINUOUS
 62
     7
 10
109.3110782928
 20
162.2419762823
 30
0.0
 11
103.5152867726
 21
164.8888255818
 31
0.0
  0
LINE
  5
57
  8
0
  6
CONTINUOUS
 62
     7
 10
102.9435153388
 20
162.6746626567
 30
0.0
 11
108.8977940775
 21
159.9554346697
 31
0.0
  0
LINE
  5
58
  8
0
  6
CONTINUOUS
 62
     7
 10
109.0473313378
 20
169.7491894016
 30
0.0
 11
102.7406064769
 21
168.8424192604
 31
0.0
  0
LINE
  5
59
  8
0
  6
CONTINUOUS
 62
     7
 10
103.4566685921
 20
166.670623902
 30
0.0
 11
109.9358522582
 21
167.602189876
 31
0.0
  0
POLYLINE
  5
5A
  8
0
  6
CONTINUOUS
 62
     7
 66
     1
 10
0.0
 20
0.0
 30
0.0
  0
VERTEX
  5
86
  8
0
  6
CONTINUOUS
 62
     7
 10
106.6749482889
 20
174.5962964473
 30
0.0
  0
VERTEX
  5
87
  8
0
  6
CONTINUOUS
 62
     7
 10
106.6749563529
 20
174.5962639687
 30
0.0
  0
VERTEX
  5
88
  8
0
  6
CONTINUOUS
 62
     7
 10
106.6744273738
 20
174.5965567094
 30
0.0
  0
VERTEX
  5
89
  8
0
  6
CONTINUOUS
 62
     7
 10
106.6711445201
 20
174.5990259516
 30
0.0
  0
VERTEX
  5
8A
  8
0
  6
CONTINUOUS
 62
     7
 10
106.6508840421
 20
174.6154451418
 30
0.0
  0
VERTEX
  5
8B
  8
0
  6
CONTINUOUS
 62
     7
 10
106.5611599756
 20
174.6889317739
 30
0.0
  0
VERTEX
  5
8C
  8
0
  6
CONTINUOUS
 62
     7
 10
106.1816857823
 20
174.9830160723
 30
0.0
  0
VERTEX
  5
8D
  8
0
  6
CONTINUOUS
 62
     7
 10
105.794357105
 20
175.2510026362
 30
0.0
  0
VERTEX
  5
8E
  8
0
  6
CONTINUOUS
 62
     7
 10
105.605745465
 20
175.3678669134
 30
0.0
  0
VERTEX
  5
8F
  8
0
  6
CONTINUOUS
 62
     7
 10
105.4081705907
 20
175.4853387588
 30
0.0
  0
VERTEX
  5
90
  8
0
  6
CONTINUOUS
 62
     7
 10
105.2398358412
 20
175.5879005753
 30
0.0
  0
VERTEX
  5
91
  8
0
  6
CONTINUOUS
 62
     7
 10
105.0567827807
 20
175.7052073058
 30
0.0
  0
VERTEX
  5
92
  8
0
  6
CONTINUOUS
 62
     7
 10
104.9240719917
 20
175.7961043611
 30
0.0
  0
VERTEX
  5
93
  8
0
  6
CONTINUOUS
 62
     7
 10
104.8102113978
 20
175.8821661663
 30
0.0
  0
VERTEX
  5
94
  8
0
  6
CONTINUOUS
 62
     7
 10
104.7839886773
 20
175.9041681648
 30
0.0
  0
VERTEX
  5
95
  8
0
  6
CONTINUOUS
 62
     7
 10
104.7711659967
 20
175.9162034807
 30
0.0
  0
VERTEX
  5
96
  8
0
  6
CONTINUOUS
 62
     7
 10
104.7671390174
 20
175.9214560454
 30
0.0
  0
SEQEND
  5
15F
  8
0
  6
CONTINUOUS
 62
     7
  0
POLYLINE
  5
5B
  8
0
  6
CONTINUOUS
 62
     7
 66
     1
 10
0.0
 20
0.0
 30
0.0
  0
VERTEX
  5
97
  8
0
  6
CONTINUOUS
 62
     7
 10
100.1504279059
 20
178.7171054059
 30
0.0
  0
VERTEX
  5
98
  8
0
  6
CONTINUOUS
 62
     7
 10
100.150452249
 20
178.7170824429
 30
0.0
  0
VERTEX
  5
99
  8
0
  6
CONTINUOUS
 62
     7
 10
100.1498489759
 20
178.7170427244
 30
0.0
  0
VERTEX
  5
9A
  8
0
  6
CONTINUOUS
 62
     7
 10
100.1457522905
 20
178.7173451384
 30
0.0
  0
VERTEX
  5
9B
  8
0
  6
CONTINUOUS
 62
     7
 10
100.1198312074
 20
178.7202041987
 30
0.0
  0
VERTEX
  5
9C
  8
0
  6
CONTINUOUS
 62
     7
 10
100.0046206466
 20
178.7335165949
 30
0.0
  0
VERTEX
  5
9D
  8
0
  6
CONTINUOUS
 62
     7
 10
99.5263926655
 20
178.7757568119
 30
0.0
  0
VERTEX
  5
9E
  8
0
  6
CONTINUOUS
 62
     7
 10
99.0556665723
 20
178.7917957628
 30
0.0
  0
VERTEX
  5
9F
  8
0
  6
CONTINUOUS
 62
     7
 10
98.8338147655
 20
178.7881370976
 30
0.0
  0
VERTEX
  5
A0
  8
0
  6
CONTINUOUS
 62
     7
 10
98.60409413
 20
178.780143661
 30
0.0
  0
VERTEX
  5
A1
  8
0
  6
CONTINUOUS
 62
     7
 10
98.4070328229
 20
178.7754155149
 30
0.0
  0
VERTEX
  5
A2
  8
0
  6
CONTINUOUS
 62
     7
 10
98.1896179824
 20
178.7751342601
 30
0.0
  0
VERTEX
  5
A3
  8
0
  6
CONTINUOUS
 62
     7
 10
98.0288319041
 20
178.7798528595
 30
0.0
  0
VERTEX
  5
A4
  8
0
  6
CONTINUOUS
 62
     7
 10
97.8865177525
 20
178.7906949726
 30
0.0
  0
VERTEX
  5
A5
  8
0
  6
CONTINUOUS
 62
     7
 10
97.8525626177
 20
178.7950271586
 30
0.0
  0
VERTEX
  5
A6
  8
0
  6
CONTINUOUS
 62
     7
 10
97.8352687094
 20
178.7982194461
 30
0.0
  0
VERTEX
  5
A7
  8
0
  6
CONTINUOUS
 62
     7
 10
97.8290412479
 20
178.8004610353
 30
0.0
  0
SEQEND
  5
15E
  8
0
  6
CONTINUOUS
 62
     7
  0
POLYLINE
  5
5C
  8
0
  6
CONTINUOUS
 62
     7
 66
     1
 10
0.0
 20
0.0
 30
0.0
  0
VERTEX
  5
A8
  8
0
  6
CONTINUOUS
 62
     7
 10
92.4337745597
 20
178.656328467
 30
0.0
  0
VERTEX
  5
A9
  8
0
  6
CONTINUOUS
 62
     7
 10
92.4338074532
 20
178.6563223102
 30
0.0
  0
VERTEX
  5
AA
  8
0
  6
CONTINUOUS
 62
     7
 10
92.4333214211
 20
178.6559627428
 30
0.0
  0
VERTEX
  5
AB
  8
0
  6
CONTINUOUS
 62
     7
 10
92.4297115726
 20
178.6540023143
 30
0.0
  0
VERTEX
  5
AC
  8
0
  6
CONTINUOUS
 62
     7
 10
92.4063596452
 20
178.6423935134
 30
0.0
  0
VERTEX
  5
AD
  8
0
  6
CONTINUOUS
 62
     7
 10
92.3022411291
 20
178.591305082
 30
0.0
  0
VERTEX
  5
AE
  8
0
  6
CONTINUOUS
 62
     7
 10
91.8770933651
 20
178.368290247
 30
0.0
  0
VERTEX
  5
AF
  8
0
  6
CONTINUOUS
 62
     7
 10
91.4724220647
 20
178.1272893313
 30
0.0
  0
VERTEX
  5
B0
  8
0
  6
CONTINUOUS
 62
     7
 10
91.2877664721
 20
178.0042693242
 30
0.0
  0
VERTEX
  5
B1
  8
0
  6
CONTINUOUS
 62
     7
 10
91.098834754
 20
177.8733484652
 30
0.0
  0
VERTEX
  5
B2
  8
0
  6
CONTINUOUS
 62
     7
 10
90.9356124621
 20
177.7628315094
 30
0.0
  0
VERTEX
  5
B3
  8
0
  6
CONTINUOUS
 62
     7
 10
90.7528635172
 20
177.6450515658
 30
0.0
  0
VERTEX
  5
B4
  8
0
  6
CONTINUOUS
 62
     7
 10
90.6150505933
 20
177.5620935874
 30
0.0
  0
VERTEX
  5
B5
  8
0
  6
CONTINUOUS
 62
     7
 10
90.4894666217
 20
177.4942737141
 30
0.0
  0
VERTEX
  5
B6
  8
0
  6
CONTINUOUS
 62
     7
 10
90.458559588
 20
177.479560649
 30
0.0
  0
VERTEX
  5
B7
  8
0
  6
CONTINUOUS
 62
     7
 10
90.4422851456
 20
177.4728963794
 30
0.0
  0
VERTEX
  5
B8
  8
0
  6
CONTINUOUS
 62
     7
 10
90.4358343771
 20
177.4714153044
 30
0.0
  0
SEQEND
  5
15D
  8
0
  6
CONTINUOUS
 62
     7
  0
POLYLINE
  5
5D
  8
0
  6
CONTINUOUS
 62
     7
 66
     1
 10
0.0
 20
0.0
 30
0.0
  0
VERTEX
  5
B9
  8
0
  6
CONTINUOUS
 62
     7
 10
85.9749711646
 20
174.4332618795
 30
0.0
  0
VERTEX
  5
BA
  8
0
  6
CONTINUOUS
 62
     7
 10
85.975002165
 20
174.4332744836
 30
0.0
  0
VERTEX
  5
BB
  8
0
  6
CONTINUOUS
 62
     7
 10
85.9747876855
 20
174.4327092274
 30
0.0
  0
VERTEX
  5
BC
  8
0
  6
CONTINUOUS
 62
     7
 10
85.9728107754
 20
174.4291083786
 30
0.0
  0
VERTEX
  5
BD
  8
0
  6
CONTINUOUS
 62
     7
 10
85.9594420756
 20
174.4067174286
 30
0.0
  0
VERTEX
  5
BE
  8
0
  6
CONTINUOUS
 62
     7
 10
85.8994724974
 20
174.3074483856
 30
0.0
  0
VERTEX
  5
BF
  8
0
  6
CONTINUOUS
 62
     7
 10
85.6623863616
 20
173.8899841332
 30
0.0
  0
VERTEX
  5
C0
  8
0
  6
CONTINUOUS
 62
     7
 10
85.4522501326
 20
173.4684594387
 30
0.0
  0
VERTEX
  5
C1
  8
0
  6
CONTINUOUS
 62
     7
 10
85.3634176002
 20
173.2651360726
 30
0.0
  0
VERTEX
  5
C2
  8
0
  6
CONTINUOUS
 62
     7
 10
85.2752592851
 20
173.052854239
 30
0.0
  0
VERTEX
  5
C3
  8
0
  6
CONTINUOUS
 62
     7
 10
85.1976979327
 20
172.8716368261
 30
0.0
  0
VERTEX
  5
C4
  8
0
  6
CONTINUOUS
 62
     7
 10
85.1076363822
 20
172.6737524935
 30
0.0
  0
VERTEX
  5
C5
  8
0
  6
CONTINUOUS
 62
     7
 10
85.0365512424
 20
172.5294565092
 30
0.0
  0
VERTEX
  5
C6
  8
0
  6
CONTINUOUS
 62
     7
 10
84.9675694743
 20
172.4045069802
 30
0.0
  0
VERTEX
  5
C7
  8
0
  6
CONTINUOUS
 62
     7
 10
84.9495233066
 20
172.3754199583
 30
0.0
  0
VERTEX
  5
C8
  8
0
  6
CONTINUOUS
 62
     7
 10
84.9394353506
 20
172.36101499
 30
0.0
  0
VERTEX
  5
C9
  8
0
  6
CONTINUOUS
 62
     7
 10
84.9348093483
 20
172.3562814817
 30
0.0
  0
SEQEND
  5
15C
  8
0
  6
CONTINUOUS
 62
     7
  0
POLYLINE
  5
5E
  8
0
  6
CONTINUOUS
 62
     7
 66
     1
 10
0.0
 20
0.0
 30
0.0
  0
VERTEX
  5
CA
  8
0
  6
CONTINUOUS
 62
     7
 10
83.0725027401
 20
165.0790784141
 30
0.0
  0
VERTEX
  5
CB
  8
0
  6
CONTINUOUS
 62
     7
 10
83.071006605
 20
165.0788594293
 30
0.0
  0
VERTEX
  5
CC
  8
0
  6
CONTINUOUS
 62
     7
 10
83.0690218442
 20
165.0826216837
 30
0.0
  0
VERTEX
  5
CD
  8
0
  6
CONTINUOUS
 62
     7
 10
83.066207009
 20
165.0916766125
 30
0.0
  0
VERTEX
  5
CE
  8
0
  6
CONTINUOUS
 62
     7
 10
83.0609778824
 20
165.1142371233
 30
0.0
  0
VERTEX
  5
CF
  8
0
  6
CONTINUOUS
 62
     7
 10
83.0432760621
 20
165.2132743417
 30
0.0
  0
VERTEX
  5
D0
  8
0
  6
CONTINUOUS
 62
     7
 10
83.0123448147
 20
165.4133124476
 30
0.0
  0
VERTEX
  5
D1
  8
0
  6
CONTINUOUS
 62
     7
 10
82.9808276623
 20
165.6065496454
 30
0.0
  0
VERTEX
  5
D2
  8
0
  6
CONTINUOUS
 62
     7
 10
82.9506010021
 20
165.7813755329
 30
0.0
  0
VERTEX
  5
D3
  8
0
  6
CONTINUOUS
 62
     7
 10
82.9228287176
 20
165.9516446193
 30
0.0
  0
VERTEX
  5
D4
  8
0
  6
CONTINUOUS
 62
     7
 10
82.8773500074
 20
166.3009892431
 30
0.0
  0
VERTEX
  5
D5
  8
0
  6
CONTINUOUS
 62
     7
 10
82.8459761004
 20
166.665451632
 30
0.0
  0
VERTEX
  5
D6
  8
0
  6
CONTINUOUS
 62
     7
 10
82.8280812477
 20
167.0399830521
 30
0.0
  0
VERTEX
  5
D7
  8
0
  6
CONTINUOUS
 62
     7
 10
82.8242068363
 20
167.2289057045
 30
0.0
  0
VERTEX
  5
D8
  8
0
  6
CONTINUOUS
 62
     7
 10
82.8237028799
 20
167.3250277919
 30
0.0
  0
VERTEX
  5
D9
  8
0
  6
CONTINUOUS
 62
     7
 10
82.8240520851
 20
167.3747397907
 30
0.0
  0
VERTEX
  5
DA
  8
0
  6
CONTINUOUS
 62
     7
 10
82.824152718
 20
167.3797474021
 30
0.0
  0
VERTEX
  5
DB
  8
0
  6
CONTINUOUS
 62
     7
 10
82.824305048
 20
167.3848276967
 30
0.0
  0
VERTEX
  5
DC
  8
0
  6
CONTINUOUS
 62
     7
 10
82.8244223517
 20
167.3871739707
 30
0.0
  0
VERTEX
  5
DD
  8
0
  6
CONTINUOUS
 62
     7
 10
82.8244953747
 20
167.3880683385
 30
0.0
  0
VERTEX
  5
DE
  8
0
  6
CONTINUOUS
 62
     7
 10
82.8245737951
 20
167.3886023387
 30
0.0
  0
VERTEX
  5
DF
  8
0
  6
CONTINUOUS
 62
     7
 10
82.8246614275
 20
167.3887268092
 30
0.0
  0
VERTEX
  5
E0
  8
0
  6
CONTINUOUS
 62
     7
 10
82.8247865964
 20
167.3881353291
 30
0.0
  0
VERTEX
  5
E1
  8
0
  6
CONTINUOUS
 62
     7
 10
82.8250702797
 20
167.3840373041
 30
0.0
  0
VERTEX
  5
E2
  8
0
  6
CONTINUOUS
 62
     7
 10
82.8259292752
 20
167.3579731735
 30
0.0
  0
VERTEX
  5
E3
  8
0
  6
CONTINUOUS
 62
     7
 10
82.8291485523
 20
167.2420407386
 30
0.0
  0
VERTEX
  5
E4
  8
0
  6
CONTINUOUS
 62
     7
 10
82.8553972176
 20
166.7626690191
 30
0.0
  0
VERTEX
  5
E5
  8
0
  6
CONTINUOUS
 62
     7
 10
82.906512828
 20
166.2944516581
 30
0.0
  0
VERTEX
  5
E6
  8
0
  6
CONTINUOUS
 62
     7
 10
82.9417070572
 20
166.0753786652
 30
0.0
  0
VERTEX
  5
E7
  8
0
  6
CONTINUOUS
 62
     7
 10
82.9823117872
 20
165.8491338391
 30
0.0
  0
VERTEX
  5
E8
  8
0
  6
CONTINUOUS
 62
     7
 10
83.0150365557
 20
165.6547512174
 30
0.0
  0
VERTEX
  5
E9
  8
0
  6
CONTINUOUS
 62
     7
 10
83.0462563056
 20
165.4395893732
 30
0.0
  0
VERTEX
  5
EA
  8
0
  6
CONTINUOUS
 62
     7
 10
83.0644679794
 20
165.2797683386
 30
0.0
  0
VERTEX
  5
EB
  8
0
  6
CONTINUOUS
 62
     7
 10
83.0739896388
 20
165.1373597463
 30
0.0
  0
VERTEX
  5
EC
  8
0
  6
CONTINUOUS
 62
     7
 10
83.0745338678
 20
165.1031336915
 30
0.0
  0
VERTEX
  5
ED
  8
0
  6
CONTINUOUS
 62
     7
 10
83.073835253
 20
165.0855615003
 30
0.0
  0
VERTEX
  5
EE
  8
0
  6
CONTINUOUS
 62
     7
 10
83.0725027401
 20
165.0790784141
 30
0.0
  0
SEQEND
  5
15B
  8
0
  6
CONTINUOUS
 62
     7
  0
POLYLINE
  5
5F
  8
0
  6
CONTINUOUS
 62
     7
 66
     1
 10
0.0
 20
0.0
 30
0.0
  0
VERTEX
  5
EF
  8
0
  6
CONTINUOUS
 62
     7
 10
83.9829947528
 20
159.7592399646
 30
0.0
  0
VERTEX
  5
F0
  8
0
  6
CONTINUOUS
 62
     7
 10
83.9829961657
 20
159.7592733994
 30
0.0
  0
VERTEX
  5
F1
  8
0
  6
CONTINUOUS
 62
     7
 10
83.9834212428
 20
159.7588434862
 30
0.0
  0
VERTEX
  5
F2
  8
0
  6
CONTINUOUS
 62
     7
 10
83.985875452
 20
159.7555493788
 30
0.0
  0
VERTEX
  5
F3
  8
0
  6
CONTINUOUS
 62
     7
 10
84.0006894178
 20
159.734087245
 30
0.0
  0
VERTEX
  5
F4
  8
0
  6
CONTINUOUS
 62
     7
 10
84.0660754524
 20
159.6382991472
 30
0.0
  0
VERTEX
  5
F5
  8
0
  6
CONTINUOUS
 62
     7
 10
84.3473251532
 20
159.2492170945
 30
0.0
  0
VERTEX
  5
F6
  8
0
  6
CONTINUOUS
 62
     7
 10
84.6434637577
 20
158.8829627708
 30
0.0
  0
VERTEX
  5
F7
  8
0
  6
CONTINUOUS
 62
     7
 10
84.7915108294
 20
158.7176942783
 30
0.0
  0
VERTEX
  5
F8
  8
0
  6
CONTINUOUS
 62
     7
 10
84.9479868897
 20
158.5493175936
 30
0.0
  0
VERTEX
  5
F9
  8
0
  6
CONTINUOUS
 62
     7
 10
85.0806078963
 20
158.4034848719
 30
0.0
  0
VERTEX
  5
FA
  8
0
  6
CONTINUOUS
 62
     7
 10
85.2231968965
 20
158.2393578814
 30
0.0
  0
VERTEX
  5
FB
  8
0
  6
CONTINUOUS
 62
     7
 10
85.3249233063
 20
158.1147538457
 30
0.0
  0
VERTEX
  5
FC
  8
0
  6
CONTINUOUS
 62
     7
 10
85.4099253336
 20
158.000099912
 30
0.0
  0
VERTEX
  5
FD
  8
0
  6
CONTINUOUS
 62
     7
 10
85.4288871704
 20
157.971601355
 30
0.0
  0
VERTEX
  5
FE
  8
0
  6
CONTINUOUS
 62
     7
 10
85.4377997021
 20
157.9564409873
 30
0.0
  0
VERTEX
  5
FF
  8
0
  6
CONTINUOUS
 62
     7
 10
85.4401837419
 20
157.9502666572
 30
0.0
  0
SEQEND
  5
15A
  8
0
  6
CONTINUOUS
 62
     7
  0
POLYLINE
  5
60
  8
0
  6
CONTINUOUS
 62
     7
 66
     1
 10
0.0
 20
0.0
 30
0.0
  0
VERTEX
  5
100
  8
0
  6
CONTINUOUS
 62
     7
 10
89.0822601723
 20
153.9671829135
 30
0.0
  0
VERTEX
  5
101
  8
0
  6
CONTINUOUS
 62
     7
 10
89.0822432846
 20
153.9672118046
 30
0.0
  0
VERTEX
  5
102
  8
0
  6
CONTINUOUS
 62
     7
 10
89.0828333109
 20
153.9670799526
 30
0.0
  0
VERTEX
  5
103
  8
0
  6
CONTINUOUS
 62
     7
 10
89.0866788519
 20
153.9656356188
 30
0.0
  0
VERTEX
  5
104
  8
0
  6
CONTINUOUS
 62
     7
 10
89.1107444586
 20
153.9555895575
 30
0.0
  0
VERTEX
  5
105
  8
0
  6
CONTINUOUS
 62
     7
 10
89.2175376468
 20
153.910357841
 30
0.0
  0
VERTEX
  5
106
  8
0
  6
CONTINUOUS
 62
     7
 10
89.6644935901
 20
153.7350962578
 30
0.0
  0
VERTEX
  5
107
  8
0
  6
CONTINUOUS
 62
     7
 10
90.1116332744
 20
153.5870881313
 30
0.0
  0
VERTEX
  5
108
  8
0
  6
CONTINUOUS
 62
     7
 10
90.3255292893
 20
153.528095718
 30
0.0
  0
VERTEX
  5
109
  8
0
  6
CONTINUOUS
 62
     7
 10
90.5481966363
 20
153.4710455822
 30
0.0
  0
VERTEX
  5
10A
  8
0
  6
CONTINUOUS
 62
     7
 10
90.7386076485
 20
153.4200636193
 30
0.0
  0
VERTEX
  5
10B
  8
0
  6
CONTINUOUS
 62
     7
 10
90.947294899
 20
153.3590806424
 30
0.0
  0
VERTEX
  5
10C
  8
0
  6
CONTINUOUS
 62
     7
 10
91.1002386283
 20
153.3092545065
 30
0.0
  0
VERTEX
  5
10D
  8
0
  6
CONTINUOUS
 62
     7
 10
91.2337334805
 20
153.2587570453
 30
0.0
  0
VERTEX
  5
10E
  8
0
  6
CONTINUOUS
 62
     7
 10
91.2650926759
 20
153.2450340764
 30
0.0
  0
VERTEX
  5
10F
  8
0
  6
CONTINUOUS
 62
     7
 10
91.2807866882
 20
153.237098842
 30
0.0
  0
VERTEX
  5
110
  8
0
  6
CONTINUOUS
 62
     7
 10
91.286130365
 20
153.2331935742
 30
0.0
  0
SEQEND
  5
159
  8
0
  6
CONTINUOUS
 62
     7
  0
POLYLINE
  5
61
  8
0
  6
CONTINUOUS
 62
     7
 66
     1
 10
0.0
 20
0.0
 30
0.0
  0
VERTEX
  5
111
  8
0
  6
CONTINUOUS
 62
     7
 10
96.5034576801
 20
151.8514654818
 30
0.0
  0
VERTEX
  5
112
  8
0
  6
CONTINUOUS
 62
     7
 10
96.5034278536
 20
151.8514806564
 30
0.0
  0
VERTEX
  5
113
  8
0
  6
CONTINUOUS
 62
     7
 10
96.5039954999
 20
151.8516887277
 30
0.0
  0
VERTEX
  5
114
  8
0
  6
CONTINUOUS
 62
     7
 10
96.5080114406
 20
151.8525527333
 30
0.0
  0
VERTEX
  5
115
  8
0
  6
CONTINUOUS
 62
     7
 10
96.5336880281
 20
151.857112298
 30
0.0
  0
VERTEX
  5
116
  8
0
  6
CONTINUOUS
 62
     7
 10
96.6479822871
 20
151.8767977132
 30
0.0
  0
VERTEX
  5
117
  8
0
  6
CONTINUOUS
 62
     7
 10
97.1187391191
 20
151.9710009137
 30
0.0
  0
VERTEX
  5
118
  8
0
  6
CONTINUOUS
 62
     7
 10
97.5749161927
 20
152.0882305188
 30
0.0
  0
VERTEX
  5
119
  8
0
  6
CONTINUOUS
 62
     7
 10
97.7867506774
 20
152.1542438591
 30
0.0
  0
VERTEX
  5
11A
  8
0
  6
CONTINUOUS
 62
     7
 10
98.0049140017
 20
152.2266332874
 30
0.0
  0
VERTEX
  5
11B
  8
0
  6
CONTINUOUS
 62
     7
 10
98.1926608686
 20
152.2866884962
 30
0.0
  0
VERTEX
  5
11C
  8
0
  6
CONTINUOUS
 62
     7
 10
98.4011896418
 20
152.3482111972
 30
0.0
  0
VERTEX
  5
11D
  8
0
  6
CONTINUOUS
 62
     7
 10
98.5567921372
 20
152.3889824071
 30
0.0
  0
VERTEX
  5
11E
  8
0
  6
CONTINUOUS
 62
     7
 10
98.696396142
 20
152.4186740056
 30
0.0
  0
VERTEX
  5
11F
  8
0
  6
CONTINUOUS
 62
     7
 10
98.730196373
 20
152.4240835705
 30
0.0
  0
VERTEX
  5
120
  8
0
  6
CONTINUOUS
 62
     7
 10
98.7476891279
 20
152.4258928501
 30
0.0
  0
VERTEX
  5
121
  8
0
  6
CONTINUOUS
 62
     7
 10
98.754295862
 20
152.4254965396
 30
0.0
  0
SEQEND
  5
158
  8
0
  6
CONTINUOUS
 62
     7
  0
POLYLINE
  5
62
  8
0
  6
CONTINUOUS
 62
     7
 66
     1
 10
0.0
 20
0.0
 30
0.0
  0
VERTEX
  5
122
  8
0
  6
CONTINUOUS
 62
     7
 10
103.8904095032
 20
154.0838130051
 30
0.0
  0
VERTEX
  5
123
  8
0
  6
CONTINUOUS
 62
     7
 10
103.8903762075
 20
154.0838096453
 30
0.0
  0
VERTEX
  5
124
  8
0
  6
CONTINUOUS
 62
     7
 10
103.8907412501
 20
154.0842915788
 30
0.0
  0
VERTEX
  5
125
  8
0
  6
CONTINUOUS
 62
     7
 10
103.8936525578
 20
154.087189608
 30
0.0
  0
VERTEX
  5
126
  8
0
  6
CONTINUOUS
 62
     7
 10
103.9127879909
 20
154.1049071692
 30
0.0
  0
VERTEX
  5
127
  8
0
  6
CONTINUOUS
 62
     7
 10
103.9982957011
 20
154.1832597359
 30
0.0
  0
VERTEX
  5
128
  8
0
  6
CONTINUOUS
 62
     7
 10
104.3433914538
 20
154.5170188696
 30
0.0
  0
VERTEX
  5
129
  8
0
  6
CONTINUOUS
 62
     7
 10
104.663772919
 20
154.862266635
 30
0.0
  0
VERTEX
  5
12A
  8
0
  6
CONTINUOUS
 62
     7
 10
104.8062899214
 20
155.0323269597
 30
0.0
  0
VERTEX
  5
12B
  8
0
  6
CONTINUOUS
 62
     7
 10
104.9506839091
 20
155.21117282
 30
0.0
  0
VERTEX
  5
12C
  8
0
  6
CONTINUOUS
 62
     7
 10
105.0761583268
 20
155.3631980962
 30
0.0
  0
VERTEX
  5
12D
  8
0
  6
CONTINUOUS
 62
     7
 10
105.2183222107
 20
155.5276934521
 30
0.0
  0
VERTEX
  5
12E
  8
0
  6
CONTINUOUS
 62
     7
 10
105.3271807794
 20
155.6461174369
 30
0.0
  0
VERTEX
  5
12F
  8
0
  6
CONTINUOUS
 62
     7
 10
105.4285706516
 20
155.7465712222
 30
0.0
  0
VERTEX
  5
130
  8
0
  6
CONTINUOUS
 62
     7
 10
105.4540805837
 20
155.7693958223
 30
0.0
  0
VERTEX
  5
131
  8
0
  6
CONTINUOUS
 62
     7
 10
105.4678182551
 20
155.7803751825
 30
0.0
  0
VERTEX
  5
132
  8
0
  6
CONTINUOUS
 62
     7
 10
105.4735904552
 20
155.783613655
 30
0.0
  0
SEQEND
  5
157
  8
0
  6
CONTINUOUS
 62
     7
  0
POLYLINE
  5
63
  8
0
  6
CONTINUOUS
 62
     7
 66
     1
 10
0.0
 20
0.0
 30
0.0
  0
VERTEX
  5
133
  8
0
  6
CONTINUOUS
 62
     7
 10
108.8978106314
 20
159.9554709176
 30
0.0
  0
VERTEX
  5
134
  8
0
  6
CONTINUOUS
 62
     7
 10
108.8977844377
 20
159.9554500902
 30
0.0
  0
VERTEX
  5
135
  8
0
  6
CONTINUOUS
 62
     7
 10
108.8978309782
 20
159.9560528754
 30
0.0
  0
VERTEX
  5
136
  8
0
  6
CONTINUOUS
 62
     7
 10
108.8987133332
 20
159.9600648245
 30
0.0
  0
VERTEX
  5
137
  8
0
  6
CONTINUOUS
 62
     7
 10
108.9052322471
 20
159.9853151816
 30
0.0
  0
VERTEX
  5
138
  8
0
  6
CONTINUOUS
 62
     7
 10
108.9348053147
 20
160.0974585135
 30
0.0
  0
VERTEX
  5
139
  8
0
  6
CONTINUOUS
 62
     7
 10
109.0446745249
 20
160.5648074137
 30
0.0
  0
VERTEX
  5
13A
  8
0
  6
CONTINUOUS
 62
     7
 10
109.1275415303
 20
161.0284596133
 30
0.0
  0
VERTEX
  5
13B
  8
0
  6
CONTINUOUS
 62
     7
 10
109.1554929091
 20
161.2485739709
 30
0.0
  0
VERTEX
  5
13C
  8
0
  6
CONTINUOUS
 62
     7
 10
109.1802734892
 20
161.4770939662
 30
0.0
  0
VERTEX
  5
13D
  8
0
  6
CONTINUOUS
 62
     7
 10
109.2036382168
 20
161.6728223587
 30
0.0
  0
VERTEX
  5
13E
  8
0
  6
CONTINUOUS
 62
     7
 10
109.2343011827
 20
161.8880642564
 30
0.0
  0
VERTEX
  5
13F
  8
0
  6
CONTINUOUS
 62
     7
 10
109.2618539983
 20
162.0465422375
 30
0.0
  0
VERTEX
  5
140
  8
0
  6
CONTINUOUS
 62
     7
 10
109.2928391698
 20
162.1858648427
 30
0.0
  0
VERTEX
  5
141
  8
0
  6
CONTINUOUS
 62
     7
 10
109.3019595798
 20
162.2188578287
 30
0.0
  0
VERTEX
  5
142
  8
0
  6
CONTINUOUS
 62
     7
 10
109.3075805542
 20
162.2355214002
 30
0.0
  0
VERTEX
  5
143
  8
0
  6
CONTINUOUS
 62
     7
 10
109.3106855875
 20
162.2413664636
 30
0.0
  0
SEQEND
  5
156
  8
0
  6
CONTINUOUS
 62
     7
  0
POLYLINE
  5
64
  8
0
  6
CONTINUOUS
 62
     7
 66
     1
 10
0.0
 20
0.0
 30
0.0
  0
VERTEX
  5
144
  8
0
  6
CONTINUOUS
 62
     7
 10
109.9358465871
 20
167.6022293194
 30
0.0
  0
VERTEX
  5
145
  8
0
  6
CONTINUOUS
 62
     7
 10
109.9358358117
 20
167.6021976369
 30
0.0
  0
VERTEX
  5
146
  8
0
  6
CONTINUOUS
 62
     7
 10
109.9355490738
 20
167.6027298938
 30
0.0
  0
VERTEX
  5
147
  8
0
  6
CONTINUOUS
 62
     7
 10
109.9341223346
 20
167.6065819972
 30
0.0
  0
VERTEX
  5
148
  8
0
  6
CONTINUOUS
 62
     7
 10
109.9259550203
 20
167.6313483403
 30
0.0
  0
VERTEX
  5
149
  8
0
  6
CONTINUOUS
 62
     7
 10
109.8902042052
 20
167.7416777219
 30
0.0
  0
VERTEX
  5
14A
  8
0
  6
CONTINUOUS
 62
     7
 10
109.7299641751
 20
168.1942364149
 30
0.0
  0
VERTEX
  5
14B
  8
0
  6
CONTINUOUS
 62
     7
 10
109.5490070319
 20
168.6290867513
 30
0.0
  0
VERTEX
  5
14C
  8
0
  6
CONTINUOUS
 62
     7
 10
109.4535184218
 20
168.8293703886
 30
0.0
  0
VERTEX
  5
14D
  8
0
  6
CONTINUOUS
 62
     7
 10
109.3508179353
 20
169.0350110351
 30
0.0
  0
VERTEX
  5
14E
  8
0
  6
CONTINUOUS
 62
     7
 10
109.2646548369
 20
169.2123001621
 30
0.0
  0
VERTEX
  5
14F
  8
0
  6
CONTINUOUS
 62
     7
 10
109.1740816097
 20
169.4099508199
 30
0.0
  0
VERTEX
  5
150
  8
0
  6
CONTINUOUS
 62
     7
 10
109.1115808479
 20
169.5581671582
 30
0.0
  0
VERTEX
  5
151
  8
0
  6
CONTINUOUS
 62
     7
 10
109.0623237458
 20
169.6921246404
 30
0.0
  0
VERTEX
  5
152
  8
0
  6
CONTINUOUS
 62
     7
 10
109.0521589679
 20
169.7248109724
 30
0.0
  0
VERTEX
  5
153
  8
0
  6
CONTINUOUS
 62
     7
 10
109.0478786256
 20
169.741868189
 30
0.0
  0
VERTEX
  5
154
  8
0
  6
CONTINUOUS
 62
     7
 10
109.0473306659
 20
169.7484640769
 30
0.0
  0
SEQEND
  5
155
  8
0
  6
CONTINUOUS
 62
     7
  0
CIRCLE
  5
65
  8
0
  6
CONTINUOUS
 62
     7
 10
96.3955948553
 20
165.5464630225
 30
0.0
 40
6.899999999999977
  0
CIRCLE
  5
66
  8
0
  6
CONTINUOUS
 62
     7
 10
96.3955948553
 20
165.5464630225
 30
0.0
 40
7.149999999999977
  0
LINE
  5
67
  8
0
  6
CONTINUOUS
 62
     7
 10
81.3955948553
 20
178.0464630225
 30
0.0
 11
81.3955948553
 21
153.0464630225
 31
0.0
  0
ARC
  5
68
  8
0
  6
CONTINUOUS
 62
     7
 10
83.8955948553
 20
178.0464630225
 30
0.0
 40
2.500000000000014
 50
90.0
 51
180.0
  0
LINE
  5
69
  8
0
  6
CONTINUOUS
 62
     7
 10
108.8955948553
 20
180.5464630225
 30
0.0
 11
83.8955948553
 21
180.5464630225
 31
0.0
  0
ARC
  5
6A
  8
0
  6
CONTINUOUS
 62
     7
 10
108.8955948553
 20
178.0464630225
 30
0.0
 40
2.5
 50
0.0
 51
90.0
  0
CIRCLE
  5
6B
  8
0
  6
CONTINUOUS
 62
     7
 10
83.8955948553
 20
153.0464630225
 30
0.0
 40
1.049999999999983
  0
CIRCLE
  5
6C
  8
0
  6
CONTINUOUS
 62
     7
 10
108.8955948553
 20
153.0464630225
 30
0.0
 40
1.050000000000011
  0
CIRCLE
  5
6D
  8
0
  6
CONTINUOUS
 62
     7
 10
83.8955948553
 20
178.0464630225
 30
0.0
 40
1.049999999999997
  0
CIRCLE
  5
6E
  8
0
  6
CONTINUOUS
 62
     7
 10
108.8955948553
 20
178.0464630225
 30
0.0
 40
1.049999999999997
  0
CIRCLE
  5
6F
  8
0
  6
CONTINUOUS
 62
     7
 10
96.3955948553
 20
165.5464630225
 30
0.0
 40
14.25
  0
LINE
  5
70
  8
0
  6
CONTINUOUS
 62
     7
 10
111.3955948553
 20
153.0464630225
 30
0.0
 11
111.3955948553
 21
178.0464630225
 31
0.0
  0
ARC
  5
71
  8
0
  6
CONTINUOUS
 62
     7
 10
108.8955948553
 20
153.0464630225
 30
0.0
 40
2.5
 50
270.0
 51
0.0
  0
LINE
  5
72
  8
0
  6
CONTINUOUS
 62
     7
 10
83.8955948553
 20
150.5464630225
 30
0.0
 11
108.8955948553
 21
150.5464630225
 31
0.0
  0
ARC
  5
73
  8
0
  6
CONTINUOUS
 62
     7
 10
83.8955948553
 20
153.0464630225
 30
0.0
 40
2.500000000000014
 50
180.0
 51
270.0
  0
LINE
  5
74
  8
0
  6
CONTINUOUS
 62
     7
 10
105.4313267699
 20
154.5274771905
 30
0.0
 11
105.1057889278
 21
155.3332116238
 31
0.0
  0
LINE
  5
75
  8
0
  6
CONTINUOUS
 62
     7
 10
103.9915590952
 20
158.0910272341
 30
0.0
 11
103.3490323647
 21
159.6813366979
 31
0.0
  0
ARC
  5
76
  8
0
  6
CONTINUOUS
 62
     7
 10
101.9582565828
 20
159.1194268078
 30
0.0
 40
1.49999999999999
 50
22.0
 51
72.4016241426
  0
LINE
  5
77
  8
0
  6
CONTINUOUS
 62
     7
 10
91.4194794554
 20
157.6040408134
 30
0.0
 11
86.2673420037
 21
155.5224421639
 31
0.0
  0
LINE
  5
78
  8
0
  6
CONTINUOUS
 62
     7
 10
85.3766090233
 20
156.5107311079
 30
0.0
 11
90.5304685307
 21
158.5930255132
 31
0.0
  0
ARC
  5
79
  8
0
  6
CONTINUOUS
 62
     7
 10
89.9685586406
 20
159.983801295
 30
0.0
 40
1.499999999999964
 50
292.0
 51
17.3340985673
  0
ARC
  5
7A
  8
0
  6
CONTINUOUS
 62
     7
 10
88.0990202935
 20
167.3949355109
 30
0.0
 40
1.50000000000004
 50
10.9820832833
 51
22.0
  0
LINE
  5
7B
  8
0
  6
CONTINUOUS
 62
     7
 10
89.4897960754
 20
167.9568454011
 30
0.0
 11
89.209071941
 21
168.6516620155
 31
0.0
  0
LINE
  5
7C
  8
0
  6
CONTINUOUS
 62
     7
 10
87.3569509653
 20
173.2358222932
 30
0.0
 11
86.3715739967
 21
175.6747158741
 31
0.0
  0
LINE
  5
7D
  8
0
  6
CONTINUOUS
 62
     7
 10
87.3598629407
 20
176.5654488546
 30
0.0
 11
89.4313457536
 21
171.4383489771
 31
0.0
  0
ARC
  5
7E
  8
0
  6
CONTINUOUS
 62
     7
 10
90.8329331278
 20
171.9734992372
 30
0.0
 40
1.499999999999973
 50
257.2643087431
 51
287.3340985673
  0
ARC
  5
7F
  8
0
  6
CONTINUOUS
 62
     7
 10
98.2440673437
 20
173.8430375843
 30
0.0
 40
1.500000000000015
 50
280.9820832833
 51
292.0
  0
LINE
  5
80
  8
0
  6
CONTINUOUS
 62
     7
 10
98.8059772339
 20
172.4522618025
 30
0.0
 11
102.4715124789
 21
173.9332341732
 31
0.0
  0
LINE
  5
81
  8
0
  6
CONTINUOUS
 62
     7
 10
105.8027237632
 20
175.2791308958
 30
0.0
 11
106.5238477069
 21
175.5704838812
 31
0.0
  0
LINE
  5
82
  8
0
  6
CONTINUOUS
 62
     7
 10
107.4145806874
 20
174.5821949371
 30
0.0
 11
105.9984205606
 21
174.010029106
 31
0.0
  0
LINE
  5
83
  8
0
  6
CONTINUOUS
 62
     7
 10
103.6109729365
 20
162.3698449853
 30
0.0
 11
106.419615714
 21
155.4182101709
 31
0.0
  0
TEXT
  5
84
  8
0
  6
CONTINUOUS
 62
     7
 10
0.0
 20
6.732893805
 30
0.0
 40
3.633
  1
Edition étudiante de SolidWorks.
 41
0.6671875
 11
0.0
 21
5.4495
 31
0.0
 73
     1
  0
TEXT
  5
85
  8
0
  6
CONTINUOUS
 62
     7
 10
0.0
 20
1.283393805
 30
0.0
 40
3.633
  1
A usage universitaire uniquement.
 41
0.6681818182
 11
0.0
 21
0.0
 31
0.0
 73
     1
  0
ENDSEC
  0
EOF
