  0
SECTION
  2
HEADER
  9
$ACADVER
  1
AC1009
  9
$DWGCODEPAGE
  3
ansi_1252
  9
$INSBASE
 10
0.0
 20
0.0
 30
0.0
  9
$EXTMIN
 10
0.0
 20
0.0
 30
0.0
  9
$EXTMAX
 10
297.0
 20
210.0
 30
0.0
  9
$LIMMIN
 10
0.0
 20
0.0
  9
$LIMMAX
 10
297.0
 20
210.0
  9
$ORTHOMODE
 70
     0
  9
$REGENMODE
 70
     1
  9
$FILLMODE
 70
     1
  9
$QTEXTMODE
 70
     0
  9
$MIRRTEXT
 70
     1
  9
$DRAGMODE
 70
     2
  9
$LTSCALE
 40
1.0
  9
$OSMODE
 70
    37
  9
$ATTMODE
 70
     1
  9
$TEXTSIZE
 40
3.5
  9
$TRACEWID
 40
1.0
  9
$TEXTSTYLE
  7
STANDARD
  9
$CLAYER
  8
0
  9
$CELTYPE
  6
BYLAYER
  9
$CECOLOR
 62
   256
  9
$DIMSCALE
 40
1.0
  9
$DIMASZ
 40
3.302
  9
$DIMEXO
 40
1.0
  9
$DIMDLI
 40
3.75
  9
$DIMRND
 40
0.0
  9
$DIMDLE
 40
0.0
  9
$DIMEXE
 40
1.0
  9
$DIMTP
 40
0.0
  9
$DIMTM
 40
0.0
  9
$DIMTXT
 40
3.5
  9
$DIMCEN
 40
2.5
  9
$DIMTSZ
 40
0.0
  9
$DIMTOL
 70
     0
  9
$DIMLIM
 70
     0
  9
$DIMTIH
 70
     1
  9
$DIMTOH
 70
     1
  9
$DIMSE1
 70
     0
  9
$DIMSE2
 70
     0
  9
$DIMTAD
 70
     1
  9
$DIMZIN
 70
     0
  9
$DIMBLK
  1

  9
$DIMASO
 70
     1
  9
$DIMSHO
 70
     1
  9
$DIMPOST
  1

  9
$DIMAPOST
  1

  9
$DIMALT
 70
     0
  9
$DIMALTD
 70
     3
  9
$DIMALTF
 40
0.0393700787
  9
$DIMLFAC
 40
1.0
  9
$DIMTOFL
 70
     1
  9
$DIMTVP
 40
0.0
  9
$DIMTIX
 70
     0
  9
$DIMSOXD
 70
     0
  9
$DIMSAH
 70
     0
  9
$DIMBLK1
  1

  9
$DIMBLK2
  1

  9
$DIMSTYLE
  2
ISO-25
  9
$DIMCLRD
 70
     0
  9
$DIMCLRE
 70
     0
  9
$DIMCLRT
 70
     0
  9
$DIMTFAC
 40
1.0
  9
$DIMGAP
 40
1.524
  9
$LUNITS
 70
     2
  9
$LUPREC
 70
     2
  9
$SKETCHINC
 40
1.0
  9
$FILLETRAD
 40
10.0
  9
$AUNITS
 70
     0
  9
$AUPREC
 70
     2
  9
$MENU
  1
.
  9
$ELEVATION
 40
0.0
  9
$PELEVATION
 40
0.0
  9
$THICKNESS
 40
0.0
  9
$LIMCHECK
 70
     0
  9
$CHAMFERA
 40
10.0
  9
$CHAMFERB
 40
10.0
  9
$SKPOLY
 70
     0
  9
$TDCREATE
 40
2456463.704046377
  9
$TDUPDATE
 40
2456463.704046736
  9
$TDINDWG
 40
0.0000000116
  9
$TDUSRTIMER
 40
0.0000000116
  9
$USRTIMER
 70
     1
  9
$ANGBASE
 50
0.0
  9
$ANGDIR
 70
     0
  9
$PDMODE
 70
     0
  9
$PDSIZE
 40
-1.0
  9
$PLINEWID
 40
0.0
  9
$COORDS
 70
     1
  9
$SPLFRAME
 70
     0
  9
$SPLINETYPE
 70
     6
  9
$SPLINESEGS
 70
     8
  9
$ATTDIA
 70
     0
  9
$ATTREQ
 70
     1
  9
$HANDLING
 70
     1
  9
$HANDSEED
  5
14B
  9
$SURFTAB1
 70
     6
  9
$SURFTAB2
 70
     6
  9
$SURFTYPE
 70
     6
  9
$SURFU
 70
     6
  9
$SURFV
 70
     6
  9
$UCSNAME
  2

  9
$UCSORG
 10
0.0
 20
0.0
 30
0.0
  9
$UCSXDIR
 10
1.0
 20
0.0
 30
0.0
  9
$UCSYDIR
 10
0.0
 20
1.0
 30
0.0
  9
$PUCSNAME
  2

  9
$PUCSORG
 10
0.0
 20
0.0
 30
0.0
  9
$PUCSXDIR
 10
1.0
 20
0.0
 30
0.0
  9
$PUCSYDIR
 10
0.0
 20
1.0
 30
0.0
  9
$USERI1
 70
     0
  9
$USERI2
 70
     0
  9
$USERI3
 70
     0
  9
$USERI4
 70
     0
  9
$USERI5
 70
     0
  9
$USERR1
 40
0.0
  9
$USERR2
 40
0.0
  9
$USERR3
 40
0.0
  9
$USERR4
 40
0.0
  9
$USERR5
 40
0.0
  9
$WORLDVIEW
 70
     1
  9
$SHADEDGE
 70
     3
  9
$SHADEDIF
 70
    70
  9
$TILEMODE
 70
     1
  9
$MAXACTVP
 70
    64
  9
$PLIMCHECK
 70
     0
  9
$PEXTMIN
 10
1.0000000000E+20
 20
1.0000000000E+20
 30
1.0000000000E+20
  9
$PEXTMAX
 10
-1.0000000000E+20
 20
-1.0000000000E+20
 30
-1.0000000000E+20
  9
$PLIMMIN
 10
0.0
 20
0.0
  9
$PLIMMAX
 10
420.0
 20
297.0
  9
$UNITMODE
 70
     0
  9
$VISRETAIN
 70
     1
  9
$PLINEGEN
 70
     0
  9
$PSLTSCALE
 70
     1
  0
ENDSEC
  0
SECTION
  2
TABLES
  0
TABLE
  2
VPORT
 70
     1
  0
VPORT
  2
*ACTIVE
 70
     0
 10
0.0
 20
0.0
 11
1.0
 21
1.0
 12
148.5
 22
105.0
 13
0.0
 23
0.0
 14
10.0
 24
10.0
 15
10.0
 25
10.0
 16
0.0
 26
0.0
 36
1.0
 17
0.0
 27
0.0
 37
0.0
 40
210.0
 41
1.4142857143
 42
50.0
 43
0.0
 44
0.0
 50
0.0
 51
0.0
 71
     0
 72
  2000
 73
     1
 74
     3
 75
     0
 76
     0
 77
     0
 78
     0
  0
ENDTAB
  0
TABLE
  2
LTYPE
 70
     6
  0
LTYPE
  2
CONTINUOUS
 70
     0
  3
Solid line
 72
    65
 73
     0
 40
0.0
  0
LTYPE
  2
HIDDEN
 70
     0
  3
Hidden __ __ __ __ __ __ __ __ __ __ __ __ __ __
 72
    65
 73
     2
 40
1.905
 49
1.27
 49
-0.635
  0
LTYPE
  2
PHANTOM
 70
     0
  3
Phantom ______  __  __  ______  __  __  ______
 72
    65
 73
     6
 40
12.7
 49
6.35
 49
-1.27
 49
1.27
 49
-1.27
 49
1.27
 49
-1.27
  0
LTYPE
  2
CENTER
 70
     0
  3
Center ____ _ ____ _ ____ _ ____ _ ____ _ ____
 72
    65
 73
     4
 40
10.16
 49
6.35
 49
-1.27
 49
1.27
 49
-1.27
  0
LTYPE
  2
CENTERX2
 70
     0
  3
Center (2x) ________  __  ________  __  _____
 72
    65
 73
     4
 40
20.32
 49
12.7
 49
-2.54
 49
2.54
 49
-2.54
  0
LTYPE
  2
DOT2
 70
     0
  3
Dot (.5x) ........................................
 72
    65
 73
     2
 40
0.635
 49
0.0
 49
-0.635
  0
ENDTAB
  0
TABLE
  2
LAYER
 70
     1
  0
LAYER
  2
0
 70
     0
 62
     7
  6
CONTINUOUS
  0
ENDTAB
  0
TABLE
  2
STYLE
 70
     1
  0
STYLE
  2
STANDARD
 70
     0
 40
0.0
 41
1.0
 50
0.0
 71
     0
 42
3.5
  3
txt
  4

  0
ENDTAB
  0
TABLE
  2
VIEW
 70
     0
  0
ENDTAB
  0
TABLE
  2
UCS
 70
     0
  0
ENDTAB
  0
TABLE
  2
APPID
 70
     1
  0
APPID
  2
ACAD
 70
     0
  0
ENDTAB
  0
TABLE
  2
DIMSTYLE
 70
     1
  0
DIMSTYLE
  2
ISO-25
 70
     0
  3

  4

  5

  6

  7

 40
1.0
 41
2.5
 42
0.625
 43
3.75
 44
1.25
 45
0.0
 46
0.0
 47
0.0
 48
0.0
140
2.5
141
2.5
142
0.0
143
0.0393700787
144
1.0
145
0.0
146
1.0
147
0.625
 71
     0
 72
     0
 73
     0
 74
     0
 75
     0
 76
     0
 77
     1
 78
     8
170
     0
171
     3
172
     1
173
     0
174
     0
175
     0
176
     0
177
     0
178
     0
  0
ENDTAB
  0
ENDSEC
  0
SECTION
  2
BLOCKS
  0
BLOCK
  8
0
  2
$MODEL_SPACE
 70
     0
 10
0.0
 20
0.0
 30
0.0
  3
$MODEL_SPACE
  1

  0
ENDBLK
  5
21
  8
0
  0
BLOCK
 67
     1
  8
0
  2
$PAPER_SPACE
 70
     0
 10
0.0
 20
0.0
 30
0.0
  3
$PAPER_SPACE
  1

  0
ENDBLK
  5
1D
 67
     1
  8
0
  0
ENDSEC
  0
SECTION
  2
ENTITIES
  0
LINE
  5
44
  8
0
  6
CONTINUOUS
 62
     7
 10
139.3609112391
 20
100.41746296
 30
0.0
 11
138.7881631643
 21
100.41746296
 31
0.0
  0
LINE
  5
45
  8
0
  6
CONTINUOUS
 62
     7
 10
144.3621711485
 20
100.41746296
 30
0.0
 11
143.789423132
 21
100.41746296
 31
0.0
  0
ARC
  5
46
  8
0
  6
CONTINUOUS
 62
     7
 10
134.1750572347
 20
119.5128280717
 30
0.0
 40
0.0500000000000114
 50
270.0
 51
0.0
  0
ARC
  5
47
  8
0
  6
CONTINUOUS
 62
     7
 10
131.9750572347
 20
119.5128280717
 30
0.0
 40
0.0499999999999829
 50
180.0
 51
270.0
  0
ARC
  5
48
  8
0
  6
CONTINUOUS
 62
     7
 10
131.9750572347
 20
118.9128280717
 30
0.0
 40
0.0500000000000114
 50
90.0
 51
180.0
  0
ARC
  5
49
  8
0
  6
CONTINUOUS
 62
     7
 10
134.1750572347
 20
118.9128280717
 30
0.0
 40
0.0500000000000114
 50
0.0
 51
90.0
  0
ARC
  5
4A
  8
0
  6
CONTINUOUS
 62
     7
 10
131.9750572347
 20
119.9128280717
 30
0.0
 40
0.0500000000000114
 50
90.0
 51
180.0
  0
ARC
  5
4B
  8
0
  6
CONTINUOUS
 62
     7
 10
134.1750572347
 20
119.9128280717
 30
0.0
 40
0.0500000000000114
 50
0.0
 51
90.0
  0
LINE
  5
4C
  8
0
  6
CONTINUOUS
 62
     7
 10
131.9250575878
 20
119.9128291012
 30
0.0
 11
131.9250575878
 21
119.5128297807
 31
0.0
  0
LINE
  5
4D
  8
0
  6
CONTINUOUS
 62
     7
 10
134.225057406
 20
119.5128297807
 30
0.0
 11
134.225057406
 21
119.9128291012
 31
0.0
  0
ARC
  5
4E
  8
0
  6
CONTINUOUS
 62
     7
 10
131.9750572347
 20
116.589852926
 30
0.0
 40
0.0500000000000114
 50
90.0
 51
180.0
  0
ARC
  5
4F
  8
0
  6
CONTINUOUS
 62
     7
 10
134.1750572347
 20
116.589852926
 30
0.0
 40
0.0500000000000114
 50
0.0
 51
90.0
  0
ARC
  5
50
  8
0
  6
CONTINUOUS
 62
     7
 10
134.1750572347
 20
117.5128280717
 30
0.0
 40
0.0500000000000114
 50
270.0
 51
0.0
  0
ARC
  5
51
  8
0
  6
CONTINUOUS
 62
     7
 10
131.9750572347
 20
117.5128280717
 30
0.0
 40
0.0499999999999972
 50
180.0
 51
270.0
  0
ARC
  5
52
  8
0
  6
CONTINUOUS
 62
     7
 10
131.9750572347
 20
117.9128280717
 30
0.0
 40
0.0499999999999972
 50
90.0
 51
180.0
  0
ARC
  5
53
  8
0
  6
CONTINUOUS
 62
     7
 10
134.1750572347
 20
117.9128280717
 30
0.0
 40
0.0500000000000114
 50
0.0
 51
90.0
  0
LINE
  5
54
  8
0
  6
CONTINUOUS
 62
     7
 10
131.9250575878
 20
116.5898515285
 30
0.0
 11
131.9250575878
 21
116.189852208
 31
0.0
  0
LINE
  5
55
  8
0
  6
CONTINUOUS
 62
     7
 10
134.225057406
 20
116.189852208
 30
0.0
 11
134.225057406
 21
116.5898515285
 31
0.0
  0
ARC
  5
56
  8
0
  6
CONTINUOUS
 62
     7
 10
134.1750572347
 20
118.5128280717
 30
0.0
 40
0.0500000000000114
 50
270.0
 51
0.0
  0
ARC
  5
57
  8
0
  6
CONTINUOUS
 62
     7
 10
131.9750572347
 20
118.5128280717
 30
0.0
 40
0.0499999999999829
 50
180.0
 51
270.0
  0
LINE
  5
58
  8
0
  6
CONTINUOUS
 62
     7
 10
131.9250575878
 20
118.9128270747
 30
0.0
 11
131.9250575878
 21
118.5128277541
 31
0.0
  0
LINE
  5
59
  8
0
  6
CONTINUOUS
 62
     7
 10
134.225057406
 20
118.5128277541
 30
0.0
 11
134.225057406
 21
118.9128270747
 31
0.0
  0
ARC
  5
5A
  8
0
  6
CONTINUOUS
 62
     7
 10
134.1750572347
 20
116.189852926
 30
0.0
 40
0.0500000000000114
 50
270.0
 51
0.0
  0
ARC
  5
5B
  8
0
  6
CONTINUOUS
 62
     7
 10
131.9750572347
 20
116.189852926
 30
0.0
 40
0.0499999999999972
 50
180.0
 51
270.0
  0
LINE
  5
5C
  8
0
  6
CONTINUOUS
 62
     7
 10
131.9250575878
 20
117.9128287734
 30
0.0
 11
131.9250575878
 21
117.5128294529
 31
0.0
  0
LINE
  5
5D
  8
0
  6
CONTINUOUS
 62
     7
 10
134.225057406
 20
117.5128294529
 30
0.0
 11
134.225057406
 21
117.9128287734
 31
0.0
  0
ARC
  5
5E
  8
0
  6
CONTINUOUS
 62
     7
 10
133.3750572347
 20
120.839852926
 30
0.0
 40
0.8000000000000114
 50
0.0
 51
90.0
  0
ARC
  5
5F
  8
0
  6
CONTINUOUS
 62
     7
 10
132.7750572347
 20
120.839852926
 30
0.0
 40
0.8000000000000114
 50
90.0
 51
180.0
  0
LINE
  5
60
  8
0
  6
CONTINUOUS
 62
     7
 10
134.1750570253
 20
119.9628262223
 30
0.0
 11
134.1750570253
 21
120.8398526908
 31
0.0
  0
LINE
  5
61
  8
0
  6
CONTINUOUS
 62
     7
 10
131.9750575029
 20
120.8398526908
 30
0.0
 11
131.9750575029
 21
119.9628262223
 31
0.0
  0
LINE
  5
62
  8
0
  6
CONTINUOUS
 62
     7
 10
134.1750570253
 20
118.962827921
 30
0.0
 11
134.1750570253
 21
119.4628289343
 31
0.0
  0
LINE
  5
63
  8
0
  6
CONTINUOUS
 62
     7
 10
131.9750575029
 20
119.4628289343
 30
0.0
 11
131.9750575029
 21
118.962827921
 31
0.0
  0
LINE
  5
64
  8
0
  6
CONTINUOUS
 62
     7
 10
134.1750570253
 20
115.4398544134
 30
0.0
 11
134.1750570253
 21
116.1398513616
 31
0.0
  0
LINE
  5
65
  8
0
  6
CONTINUOUS
 62
     7
 10
131.9750575029
 20
116.1398513616
 30
0.0
 11
131.9750575029
 21
115.4398544134
 31
0.0
  0
LINE
  5
66
  8
0
  6
CONTINUOUS
 62
     7
 10
134.1750570253
 20
116.6398523749
 30
0.0
 11
134.1750570253
 21
117.4628286065
 31
0.0
  0
LINE
  5
67
  8
0
  6
CONTINUOUS
 62
     7
 10
131.9750575029
 20
117.4628286065
 30
0.0
 11
131.9750575029
 21
116.6398523749
 31
0.0
  0
LINE
  5
68
  8
0
  6
CONTINUOUS
 62
     7
 10
134.1750570253
 20
117.9628296198
 30
0.0
 11
134.1750570253
 21
118.4628269078
 31
0.0
  0
LINE
  5
69
  8
0
  6
CONTINUOUS
 62
     7
 10
131.9750575029
 20
118.4628269078
 30
0.0
 11
131.9750575029
 21
117.9628296198
 31
0.0
  0
ARC
  5
6A
  8
0
  6
CONTINUOUS
 62
     7
 10
133.3750572347
 20
115.439852926
 30
0.0
 40
0.8000000000000114
 50
270.0
 51
0.0
  0
ARC
  5
6B
  8
0
  6
CONTINUOUS
 62
     7
 10
132.7750572347
 20
115.439852926
 30
0.0
 40
0.8000000000000114
 50
180.0
 51
270.0
  0
LINE
  5
6C
  8
0
  6
CONTINUOUS
 62
     7
 10
132.8250574559
 20
114.6398520471
 30
0.0
 11
132.8250574559
 21
113.6398537458
 31
0.0
  0
LINE
  5
6D
  8
0
  6
CONTINUOUS
 62
     7
 10
133.3250570722
 20
113.6398537458
 30
0.0
 11
133.3250570722
 21
114.6398520471
 31
0.0
  0
LINE
  5
6E
  8
0
  6
CONTINUOUS
 62
     7
 10
132.8250574559
 20
113.6398537458
 30
0.0
 11
132.8250574559
 21
112.6398517193
 31
0.0
  0
LINE
  5
6F
  8
0
  6
CONTINUOUS
 62
     7
 10
133.3250570722
 20
112.6398517193
 30
0.0
 11
133.3250570722
 21
113.6398537458
 31
0.0
  0
LINE
  5
70
  8
0
  6
CONTINUOUS
 62
     7
 10
133.3250570722
 20
121.6398513318
 30
0.0
 11
133.3250570722
 21
122.6398533584
 31
0.0
  0
LINE
  5
71
  8
0
  6
CONTINUOUS
 62
     7
 10
132.8250574559
 20
122.6398533584
 30
0.0
 11
132.8250574559
 21
121.6398513318
 31
0.0
  0
LINE
  5
72
  8
0
  6
CONTINUOUS
 62
     7
 10
133.3250570722
 20
122.6398533584
 30
0.0
 11
133.3250570722
 21
123.6398516597
 31
0.0
  0
LINE
  5
73
  8
0
  6
CONTINUOUS
 62
     7
 10
132.8250574559
 20
123.6398516597
 30
0.0
 11
132.8250574559
 21
122.6398533584
 31
0.0
  0
LINE
  5
74
  8
0
  6
CONTINUOUS
 62
     7
 10
126.5751970612
 20
109.6403932573
 30
0.0
 11
124.6753167041
 21
109.6403932573
 31
0.0
  0
LINE
  5
75
  8
0
  6
CONTINUOUS
 62
     7
 10
124.6753167041
 20
105.6403926016
 30
0.0
 11
126.5751970612
 21
105.6403926016
 31
0.0
  0
LINE
  5
76
  8
0
  6
CONTINUOUS
 62
     7
 10
124.6653180249
 20
109.6403932573
 30
0.0
 11
123.665317861
 21
109.6403932573
 31
0.0
  0
LINE
  5
77
  8
0
  6
CONTINUOUS
 62
     7
 10
123.665317861
 20
105.6403926016
 30
0.0
 11
124.6653180249
 21
105.6403926016
 31
0.0
  0
CIRCLE
  5
78
  8
0
  6
CONTINUOUS
 62
     7
 10
141.5806745692
 20
93.5525809047
 30
0.0
 40
4.749999999999972
  0
CIRCLE
  5
79
  8
0
  6
CONTINUOUS
 62
     7
 10
141.5806745692
 20
93.5525809047
 30
0.0
 40
5.749999999999972
  0
CIRCLE
  5
7A
  8
0
  6
CONTINUOUS
 62
     7
 10
141.5806745692
 20
93.5525809047
 30
0.0
 40
6.149999999999977
  0
CIRCLE
  5
7B
  8
0
  6
CONTINUOUS
 62
     7
 10
141.5806745692
 20
93.5525809047
 30
0.0
 40
6.349999999999994
  0
LINE
  5
7C
  8
0
  6
CONTINUOUS
 62
     7
 10
136.5806746442
 20
88.5525809975
 30
0.0
 11
137.6662780211
 21
88.5525809975
 31
0.0
  0
LINE
  5
7D
  8
0
  6
CONTINUOUS
 62
     7
 10
145.4950710439
 20
88.5525809975
 30
0.0
 11
146.5806746535
 21
88.5525809975
 31
0.0
  0
LINE
  5
7E
  8
0
  6
CONTINUOUS
 62
     7
 10
136.5806746442
 20
98.552580774
 30
0.0
 11
136.5806746442
 21
97.4669771643
 31
0.0
  0
LINE
  5
7F
  8
0
  6
CONTINUOUS
 62
     7
 10
136.5806746442
 20
89.6381846072
 30
0.0
 11
136.5806746442
 21
88.5525809975
 31
0.0
  0
LINE
  5
80
  8
0
  6
CONTINUOUS
 62
     7
 10
146.5806746535
 20
98.552580774
 30
0.0
 11
145.4950710439
 21
98.552580774
 31
0.0
  0
LINE
  5
81
  8
0
  6
CONTINUOUS
 62
     7
 10
137.6662780211
 20
98.552580774
 30
0.0
 11
136.5806746442
 21
98.552580774
 31
0.0
  0
LINE
  5
82
  8
0
  6
CONTINUOUS
 62
     7
 10
146.5806746535
 20
88.5525809975
 30
0.0
 11
146.5806746535
 21
89.6381846072
 31
0.0
  0
LINE
  5
83
  8
0
  6
CONTINUOUS
 62
     7
 10
146.5806746535
 20
97.4669771643
 30
0.0
 11
146.5806746535
 21
98.552580774
 31
0.0
  0
LINE
  5
84
  8
0
  6
CONTINUOUS
 62
     7
 10
147.0806747355
 20
99.5525809379
 30
0.0
 11
143.6597369291
 21
99.5525809379
 31
0.0
  0
LINE
  5
85
  8
0
  6
CONTINUOUS
 62
     7
 10
139.5016122522
 20
99.5525809379
 30
0.0
 11
136.0806747951
 21
99.5525809379
 31
0.0
  0
ARC
  5
86
  8
0
  6
CONTINUOUS
 62
     7
 10
147.0806745692
 20
99.0525809047
 30
0.0
 40
0.5
 50
360.0
 51
90.0
  0
LINE
  5
87
  8
0
  6
CONTINUOUS
 62
     7
 10
147.5806743518
 20
88.0525809155
 30
0.0
 11
147.5806743518
 21
91.4735187219
 31
0.0
  0
LINE
  5
88
  8
0
  6
CONTINUOUS
 62
     7
 10
147.5806743518
 20
95.6316430495
 30
0.0
 11
147.5806743518
 21
99.0525817872
 31
0.0
  0
ARC
  5
89
  8
0
  6
CONTINUOUS
 62
     7
 10
147.0806745692
 20
88.0525809047
 30
0.0
 40
0.5
 50
270.0
 51
0.0
  0
LINE
  5
8A
  8
0
  6
CONTINUOUS
 62
     7
 10
136.0806747951
 20
87.5525808336
 30
0.0
 11
139.5016122522
 21
87.5525808336
 31
0.0
  0
LINE
  5
8B
  8
0
  6
CONTINUOUS
 62
     7
 10
143.6597369291
 20
87.5525808336
 30
0.0
 11
147.0806747355
 21
87.5525808336
 31
0.0
  0
ARC
  5
8C
  8
0
  6
CONTINUOUS
 62
     7
 10
136.0806745692
 20
88.0525809047
 30
0.0
 40
0.5
 50
180.0
 51
270.0
  0
LINE
  5
8D
  8
0
  6
CONTINUOUS
 62
     7
 10
135.5806747131
 20
99.0525817872
 30
0.0
 11
135.5806747131
 21
95.6316430495
 31
0.0
  0
LINE
  5
8E
  8
0
  6
CONTINUOUS
 62
     7
 10
135.5806747131
 20
91.4735187219
 30
0.0
 11
135.5806747131
 21
88.0525809155
 31
0.0
  0
ARC
  5
8F
  8
0
  6
CONTINUOUS
 62
     7
 10
136.0806745692
 20
99.0525809047
 30
0.0
 40
0.5
 50
90.0
 51
180.0
  0
LINE
  5
90
  8
0
  6
CONTINUOUS
 62
     7
 10
144.5806747914
 20
87.0805730486
 30
0.0
 11
143.5806746275
 21
87.0805730486
 31
0.0
  0
LINE
  5
91
  8
0
  6
CONTINUOUS
 62
     7
 10
143.5806746275
 20
87.3752872833
 30
0.0
 11
143.5806746275
 21
87.0805730486
 31
0.0
  0
LINE
  5
92
  8
0
  6
CONTINUOUS
 62
     7
 10
144.5806747914
 20
87.3752872833
 30
0.0
 11
143.5806746275
 21
87.3752872833
 31
0.0
  0
LINE
  5
93
  8
0
  6
CONTINUOUS
 62
     7
 10
144.5806747914
 20
87.3752872833
 30
0.0
 11
144.5806747914
 21
87.0805730486
 31
0.0
  0
LINE
  5
94
  8
0
  6
CONTINUOUS
 62
     7
 10
144.5806747914
 20
87.5025809185
 30
0.0
 11
143.5806746275
 21
87.5025809185
 31
0.0
  0
LINE
  5
95
  8
0
  6
CONTINUOUS
 62
     7
 10
143.5806746275
 20
87.3752872833
 30
0.0
 11
143.5806746275
 21
87.5025809185
 31
0.0
  0
LINE
  5
96
  8
0
  6
CONTINUOUS
 62
     7
 10
144.5806747914
 20
87.3752872833
 30
0.0
 11
144.5806747914
 21
87.5025809185
 31
0.0
  0
LINE
  5
97
  8
0
  6
CONTINUOUS
 62
     7
 10
144.5806747914
 20
87.0803094843
 30
0.0
 11
143.5806746275
 21
87.0803094843
 31
0.0
  0
LINE
  5
98
  8
0
  6
CONTINUOUS
 62
     7
 10
143.5806746275
 20
87.0805730486
 30
0.0
 11
143.5806746275
 21
87.0803094843
 31
0.0
  0
LINE
  5
99
  8
0
  6
CONTINUOUS
 62
     7
 10
144.5806747914
 20
87.0805730486
 30
0.0
 11
144.5806747914
 21
87.0803094843
 31
0.0
  0
LINE
  5
9A
  8
0
  6
CONTINUOUS
 62
     7
 10
143.5806746275
 20
87.0803094843
 30
0.0
 11
143.5806746275
 21
87.0510650241
 31
0.0
  0
LINE
  5
9B
  8
0
  6
CONTINUOUS
 62
     7
 10
144.5806747914
 20
87.0803094843
 30
0.0
 11
144.5806747914
 21
87.065820899
 31
0.0
  0
LINE
  5
9C
  8
0
  6
CONTINUOUS
 62
     7
 10
138.5806746228
 20
87.0805730486
 30
0.0
 11
139.5806745539
 21
87.0805730486
 31
0.0
  0
LINE
  5
9D
  8
0
  6
CONTINUOUS
 62
     7
 10
138.5806746228
 20
87.3752872833
 30
0.0
 11
139.5806745539
 21
87.3752872833
 31
0.0
  0
LINE
  5
9E
  8
0
  6
CONTINUOUS
 62
     7
 10
139.5806745539
 20
87.3752872833
 30
0.0
 11
139.5806745539
 21
87.0805730486
 31
0.0
  0
LINE
  5
9F
  8
0
  6
CONTINUOUS
 62
     7
 10
138.5806746228
 20
87.3752872833
 30
0.0
 11
138.5806746228
 21
87.0805730486
 31
0.0
  0
LINE
  5
A0
  8
0
  6
CONTINUOUS
 62
     7
 10
138.5806746228
 20
87.5025809185
 30
0.0
 11
139.5806745539
 21
87.5025809185
 31
0.0
  0
LINE
  5
A1
  8
0
  6
CONTINUOUS
 62
     7
 10
139.5806745539
 20
87.3752872833
 30
0.0
 11
139.5806745539
 21
87.5025809185
 31
0.0
  0
LINE
  5
A2
  8
0
  6
CONTINUOUS
 62
     7
 10
138.5806746228
 20
87.3752872833
 30
0.0
 11
138.5806746228
 21
87.5025809185
 31
0.0
  0
LINE
  5
A3
  8
0
  6
CONTINUOUS
 62
     7
 10
138.5806746228
 20
87.0803094843
 30
0.0
 11
139.5806745539
 21
87.0803094843
 31
0.0
  0
LINE
  5
A4
  8
0
  6
CONTINUOUS
 62
     7
 10
139.5806745539
 20
87.0805730486
 30
0.0
 11
139.5806745539
 21
87.0803094843
 31
0.0
  0
LINE
  5
A5
  8
0
  6
CONTINUOUS
 62
     7
 10
138.5806746228
 20
87.0805730486
 30
0.0
 11
138.5806746228
 21
87.0803094843
 31
0.0
  0
LINE
  5
A6
  8
0
  6
CONTINUOUS
 62
     7
 10
139.5806745539
 20
87.0803094843
 30
0.0
 11
139.5806745539
 21
87.0629147069
 31
0.0
  0
LINE
  5
A7
  8
0
  6
CONTINUOUS
 62
     7
 10
138.5806746228
 20
87.0803094843
 30
0.0
 11
138.5806746228
 21
87.0492261277
 31
0.0
  0
LINE
  5
A8
  8
0
  6
CONTINUOUS
 62
     7
 10
138.5806746228
 20
99.7298749538
 30
0.0
 11
138.5806746228
 21
100.0245882572
 31
0.0
  0
LINE
  5
A9
  8
0
  6
CONTINUOUS
 62
     7
 10
138.5806746228
 20
100.0245882572
 30
0.0
 11
139.5806745539
 21
100.0245882572
 31
0.0
  0
LINE
  5
AA
  8
0
  6
CONTINUOUS
 62
     7
 10
138.5806746228
 20
99.7298749538
 30
0.0
 11
139.5806745539
 21
99.7298749538
 31
0.0
  0
LINE
  5
AB
  8
0
  6
CONTINUOUS
 62
     7
 10
139.5806745539
 20
99.7298749538
 30
0.0
 11
139.5806745539
 21
100.0245882572
 31
0.0
  0
LINE
  5
AC
  8
0
  6
CONTINUOUS
 62
     7
 10
138.5806746228
 20
99.6025817843
 30
0.0
 11
139.5806745539
 21
99.6025817843
 31
0.0
  0
LINE
  5
AD
  8
0
  6
CONTINUOUS
 62
     7
 10
138.5806746228
 20
99.7298749538
 30
0.0
 11
138.5806746228
 21
99.6025817843
 31
0.0
  0
LINE
  5
AE
  8
0
  6
CONTINUOUS
 62
     7
 10
139.5806745539
 20
99.7298749538
 30
0.0
 11
139.5806745539
 21
99.6025817843
 31
0.0
  0
LINE
  5
AF
  8
0
  6
CONTINUOUS
 62
     7
 10
138.5806746228
 20
100.0248527528
 30
0.0
 11
139.5806745539
 21
100.0248527528
 31
0.0
  0
LINE
  5
B0
  8
0
  6
CONTINUOUS
 62
     7
 10
138.5806746228
 20
100.0245882572
 30
0.0
 11
138.5806746228
 21
100.0248527528
 31
0.0
  0
LINE
  5
B1
  8
0
  6
CONTINUOUS
 62
     7
 10
139.5806745539
 20
100.0245882572
 30
0.0
 11
139.5806745539
 21
100.0248527528
 31
0.0
  0
LINE
  5
B2
  8
0
  6
CONTINUOUS
 62
     7
 10
138.5806746228
 20
100.0656316431
 30
0.0
 11
139.5806745539
 21
100.0656316431
 31
0.0
  0
LINE
  5
B3
  8
0
  6
CONTINUOUS
 62
     7
 10
138.5806746228
 20
100.0248527528
 30
0.0
 11
138.5806746228
 21
100.0656316431
 31
0.0
  0
LINE
  5
B4
  8
0
  6
CONTINUOUS
 62
     7
 10
139.5806745539
 20
100.0248527528
 30
0.0
 11
139.5806745539
 21
100.0656316431
 31
0.0
  0
LINE
  5
B5
  8
0
  6
CONTINUOUS
 62
     7
 10
138.5806746228
 20
100.0656316431
 30
0.0
 11
138.5806746228
 21
100.230600536
 31
0.0
  0
LINE
  5
B6
  8
0
  6
CONTINUOUS
 62
     7
 10
139.5806745539
 20
100.0656316431
 30
0.0
 11
139.5806745539
 21
100.2120281012
 31
0.0
  0
LINE
  5
B7
  8
0
  6
CONTINUOUS
 62
     7
 10
143.5806746275
 20
99.7298749538
 30
0.0
 11
143.5806746275
 21
100.0245882572
 31
0.0
  0
LINE
  5
B8
  8
0
  6
CONTINUOUS
 62
     7
 10
144.5806747914
 20
100.0245882572
 30
0.0
 11
143.5806746275
 21
100.0245882572
 31
0.0
  0
LINE
  5
B9
  8
0
  6
CONTINUOUS
 62
     7
 10
144.5806747914
 20
99.7298749538
 30
0.0
 11
144.5806747914
 21
100.0245882572
 31
0.0
  0
LINE
  5
BA
  8
0
  6
CONTINUOUS
 62
     7
 10
144.5806747914
 20
99.7298749538
 30
0.0
 11
143.5806746275
 21
99.7298749538
 31
0.0
  0
LINE
  5
BB
  8
0
  6
CONTINUOUS
 62
     7
 10
144.5806747914
 20
99.6025817843
 30
0.0
 11
143.5806746275
 21
99.6025817843
 31
0.0
  0
LINE
  5
BC
  8
0
  6
CONTINUOUS
 62
     7
 10
143.5806746275
 20
99.7298749538
 30
0.0
 11
143.5806746275
 21
99.6025817843
 31
0.0
  0
LINE
  5
BD
  8
0
  6
CONTINUOUS
 62
     7
 10
144.5806747914
 20
99.7298749538
 30
0.0
 11
144.5806747914
 21
99.6025817843
 31
0.0
  0
LINE
  5
BE
  8
0
  6
CONTINUOUS
 62
     7
 10
144.5806747914
 20
100.0248527528
 30
0.0
 11
143.5806746275
 21
100.0248527528
 31
0.0
  0
LINE
  5
BF
  8
0
  6
CONTINUOUS
 62
     7
 10
143.5806746275
 20
100.0245882572
 30
0.0
 11
143.5806746275
 21
100.0248527528
 31
0.0
  0
LINE
  5
C0
  8
0
  6
CONTINUOUS
 62
     7
 10
144.5806747914
 20
100.0245882572
 30
0.0
 11
144.5806747914
 21
100.0248527528
 31
0.0
  0
LINE
  5
C1
  8
0
  6
CONTINUOUS
 62
     7
 10
144.5806747914
 20
100.0656316431
 30
0.0
 11
143.5806746275
 21
100.0656316431
 31
0.0
  0
LINE
  5
C2
  8
0
  6
CONTINUOUS
 62
     7
 10
143.5806746275
 20
100.0248527528
 30
0.0
 11
143.5806746275
 21
100.0656316431
 31
0.0
  0
LINE
  5
C3
  8
0
  6
CONTINUOUS
 62
     7
 10
144.5806747914
 20
100.0248527528
 30
0.0
 11
144.5806747914
 21
100.0656316431
 31
0.0
  0
LINE
  5
C4
  8
0
  6
CONTINUOUS
 62
     7
 10
143.5806746275
 20
100.0656316431
 30
0.0
 11
143.5806746275
 21
100.2287602426
 31
0.0
  0
LINE
  5
C5
  8
0
  6
CONTINUOUS
 62
     7
 10
144.5806747914
 20
100.0656316431
 30
0.0
 11
144.5806747914
 21
100.2140043677
 31
0.0
  0
LINE
  5
C6
  8
0
  6
CONTINUOUS
 62
     7
 10
134.1750570253
 20
119.4628289343
 30
0.0
 11
131.9750575029
 21
119.4628289343
 31
0.0
  0
LINE
  5
C7
  8
0
  6
CONTINUOUS
 62
     7
 10
131.9750575029
 20
118.962827921
 30
0.0
 11
134.1750570253
 21
118.962827921
 31
0.0
  0
LINE
  5
C8
  8
0
  6
CONTINUOUS
 62
     7
 10
131.9750575029
 20
119.9628262223
 30
0.0
 11
134.1750570253
 21
119.9628262223
 31
0.0
  0
LINE
  5
C9
  8
0
  6
CONTINUOUS
 62
     7
 10
131.9750575029
 20
116.6398523749
 30
0.0
 11
134.1750570253
 21
116.6398523749
 31
0.0
  0
LINE
  5
CA
  8
0
  6
CONTINUOUS
 62
     7
 10
134.1750570253
 20
117.4628286065
 30
0.0
 11
131.9750575029
 21
117.4628286065
 31
0.0
  0
LINE
  5
CB
  8
0
  6
CONTINUOUS
 62
     7
 10
131.9750575029
 20
117.9628296198
 30
0.0
 11
134.1750570253
 21
117.9628296198
 31
0.0
  0
LINE
  5
CC
  8
0
  6
CONTINUOUS
 62
     7
 10
134.1750570253
 20
118.4628269078
 30
0.0
 11
131.9750575029
 21
118.4628269078
 31
0.0
  0
LINE
  5
CD
  8
0
  6
CONTINUOUS
 62
     7
 10
134.1750570253
 20
116.1398513616
 30
0.0
 11
131.9750575029
 21
116.1398513616
 31
0.0
  0
LINE
  5
CE
  8
0
  6
CONTINUOUS
 62
     7
 10
133.375057453
 20
121.6398513318
 30
0.0
 11
132.7750570752
 21
121.6398513318
 31
0.0
  0
LINE
  5
CF
  8
0
  6
CONTINUOUS
 62
     7
 10
133.375057453
 20
114.6398520471
 30
0.0
 11
132.7750570752
 21
114.6398520471
 31
0.0
  0
ARC
  5
D0
  8
0
  6
CONTINUOUS
 62
     7
 10
133.0750572347
 20
112.639852926
 30
0.0
 40
0.25
 50
180.0
 51
0.0
  0
ARC
  5
D1
  8
0
  6
CONTINUOUS
 62
     7
 10
133.0750572347
 20
123.639852926
 30
0.0
 40
0.25
 50
0.0
 51
180.0
  0
CIRCLE
  5
D2
  8
0
  6
CONTINUOUS
 62
     7
 10
130.0753172347
 20
107.640392926
 30
0.0
 40
0.5
  0
LINE
  5
D3
  8
0
  6
CONTINUOUS
 62
     7
 10
134.475317286
 20
108.1915719808
 30
0.0
 11
134.475317286
 21
107.089213878
 31
0.0
  0
LINE
  5
D4
  8
0
  6
CONTINUOUS
 62
     7
 10
124.6753167041
 20
105.6403926016
 30
0.0
 11
124.6753167041
 21
109.6403932573
 31
0.0
  0
LINE
  5
D5
  8
0
  6
CONTINUOUS
 62
     7
 10
124.6653180249
 20
105.6403926016
 30
0.0
 11
124.6653180249
 21
109.6403932573
 31
0.0
  0
LINE
  5
D6
  8
0
  6
CONTINUOUS
 62
     7
 10
123.665317861
 20
105.6403926016
 30
0.0
 11
123.665317861
 21
109.6403932573
 31
0.0
  0
LINE
  5
D7
  8
0
  6
CONTINUOUS
 62
     7
 10
132.6055703365
 20
105.9903929384
 30
0.0
 11
132.6055703365
 21
105.7903932781
 31
0.0
  0
LINE
  5
D8
  8
0
  6
CONTINUOUS
 62
     7
 10
132.6055703365
 20
105.9903929384
 30
0.0
 11
133.0555705034
 21
105.9903929384
 31
0.0
  0
LINE
  5
D9
  8
0
  6
CONTINUOUS
 62
     7
 10
133.0555705034
 20
105.9903929384
 30
0.0
 11
133.0555705034
 21
105.7903932781
 31
0.0
  0
LINE
  5
DA
  8
0
  6
CONTINUOUS
 62
     7
 10
133.0555705034
 20
105.7903932781
 30
0.0
 11
132.6055703365
 21
105.7903932781
 31
0.0
  0
LINE
  5
DB
  8
0
  6
CONTINUOUS
 62
     7
 10
132.1555701696
 20
105.9903929384
 30
0.0
 11
132.6055703365
 21
105.9903929384
 31
0.0
  0
LINE
  5
DC
  8
0
  6
CONTINUOUS
 62
     7
 10
132.1555701696
 20
105.7903932781
 30
0.0
 11
132.1555701696
 21
105.9903929384
 31
0.0
  0
LINE
  5
DD
  8
0
  6
CONTINUOUS
 62
     7
 10
132.6055703365
 20
105.7903932781
 30
0.0
 11
132.1555701696
 21
105.7903932781
 31
0.0
  0
LINE
  5
DE
  8
0
  6
CONTINUOUS
 62
     7
 10
133.0555705034
 20
109.2903929205
 30
0.0
 11
132.6055703365
 21
109.2903929205
 31
0.0
  0
LINE
  5
DF
  8
0
  6
CONTINUOUS
 62
     7
 10
132.6055703365
 20
109.2903929205
 30
0.0
 11
132.6055703365
 21
109.4903925808
 31
0.0
  0
LINE
  5
E0
  8
0
  6
CONTINUOUS
 62
     7
 10
133.0555705034
 20
109.4903925808
 30
0.0
 11
133.0555705034
 21
109.2903929205
 31
0.0
  0
LINE
  5
E1
  8
0
  6
CONTINUOUS
 62
     7
 10
132.6055703365
 20
109.4903925808
 30
0.0
 11
133.0555705034
 21
109.4903925808
 31
0.0
  0
LINE
  5
E2
  8
0
  6
CONTINUOUS
 62
     7
 10
132.6055703365
 20
109.2903929205
 30
0.0
 11
132.1555701696
 21
109.2903929205
 31
0.0
  0
LINE
  5
E3
  8
0
  6
CONTINUOUS
 62
     7
 10
132.1555701696
 20
109.2903929205
 30
0.0
 11
132.1555701696
 21
109.4903925808
 31
0.0
  0
LINE
  5
E4
  8
0
  6
CONTINUOUS
 62
     7
 10
132.1555701696
 20
109.4903925808
 30
0.0
 11
132.6055703365
 21
109.4903925808
 31
0.0
  0
LINE
  5
E5
  8
0
  6
CONTINUOUS
 62
     7
 10
134.17531733
 20
107.6403929294
 30
0.0
 11
134.3753174559
 21
107.6403929294
 31
0.0
  0
LINE
  5
E6
  8
0
  6
CONTINUOUS
 62
     7
 10
134.17531733
 20
108.0903930963
 30
0.0
 11
134.3753174559
 21
108.0903930963
 31
0.0
  0
LINE
  5
E7
  8
0
  6
CONTINUOUS
 62
     7
 10
134.17531733
 20
107.6403929294
 30
0.0
 11
134.17531733
 21
108.0903930963
 31
0.0
  0
LINE
  5
E8
  8
0
  6
CONTINUOUS
 62
     7
 10
134.3753174559
 20
108.0903930963
 30
0.0
 11
134.3753174559
 21
107.6403929294
 31
0.0
  0
LINE
  5
E9
  8
0
  6
CONTINUOUS
 62
     7
 10
134.3753174559
 20
107.1903927626
 30
0.0
 11
134.17531733
 21
107.1903927626
 31
0.0
  0
LINE
  5
EA
  8
0
  6
CONTINUOUS
 62
     7
 10
134.17531733
 20
107.1903927626
 30
0.0
 11
134.17531733
 21
107.6403929294
 31
0.0
  0
LINE
  5
EB
  8
0
  6
CONTINUOUS
 62
     7
 10
134.3753174559
 20
107.6403929294
 30
0.0
 11
134.3753174559
 21
107.1903927626
 31
0.0
  0
LINE
  5
EC
  8
0
  6
CONTINUOUS
 62
     7
 10
127.9753176175
 20
107.6403929294
 30
0.0
 11
128.1753172778
 21
107.6403929294
 31
0.0
  0
LINE
  5
ED
  8
0
  6
CONTINUOUS
 62
     7
 10
127.9753176175
 20
108.0903930963
 30
0.0
 11
128.1753172778
 21
108.0903930963
 31
0.0
  0
LINE
  5
EE
  8
0
  6
CONTINUOUS
 62
     7
 10
128.1753172778
 20
108.0903930963
 30
0.0
 11
128.1753172778
 21
107.6403929294
 31
0.0
  0
LINE
  5
EF
  8
0
  6
CONTINUOUS
 62
     7
 10
127.9753176175
 20
107.6403929294
 30
0.0
 11
127.9753176175
 21
108.0903930963
 31
0.0
  0
LINE
  5
F0
  8
0
  6
CONTINUOUS
 62
     7
 10
128.1753172778
 20
107.1903927626
 30
0.0
 11
127.9753176175
 21
107.1903927626
 31
0.0
  0
LINE
  5
F1
  8
0
  6
CONTINUOUS
 62
     7
 10
128.1753172778
 20
107.6403929294
 30
0.0
 11
128.1753172778
 21
107.1903927626
 31
0.0
  0
LINE
  5
F2
  8
0
  6
CONTINUOUS
 62
     7
 10
127.9753176175
 20
107.1903927626
 30
0.0
 11
127.9753176175
 21
107.6403929294
 31
0.0
  0
CIRCLE
  5
F3
  8
0
  6
CONTINUOUS
 62
     7
 10
136.0751972347
 20
116.042712926
 30
0.0
 40
0.4000000000000057
  0
CIRCLE
  5
F4
  8
0
  6
CONTINUOUS
 62
     7
 10
147.9751972347
 20
118.560192926
 30
0.0
 40
0.4000000000000057
  0
CIRCLE
  5
F5
  8
0
  6
CONTINUOUS
 62
     7
 10
147.9751972347
 20
123.640192926
 30
0.0
 40
0.4000000000000057
  0
CIRCLE
  5
F6
  8
0
  6
CONTINUOUS
 62
     7
 10
155.0739972347
 20
103.139512926
 30
0.0
 40
0.3987799999999879
  0
CIRCLE
  5
F7
  8
0
  6
CONTINUOUS
 62
     7
 10
140.0752972347
 20
103.040452926
 30
0.0
 40
0.3987800000000163
  0
CIRCLE
  5
F8
  8
0
  6
CONTINUOUS
 62
     7
 10
129.0745572347
 20
100.139772926
 30
0.0
 40
0.3987800000000021
  0
CIRCLE
  5
F9
  8
0
  6
CONTINUOUS
 62
     7
 10
133.0750572347
 20
100.139772926
 30
0.0
 40
0.3987800000000021
  0
CIRCLE
  5
FA
  8
0
  6
CONTINUOUS
 62
     7
 10
129.0745572347
 20
112.639112926
 30
0.0
 40
0.3987800000000021
  0
ARC
  5
FB
  8
0
  6
CONTINUOUS
 62
     7
 10
133.0750572347
 20
112.639112926
 30
0.0
 40
0.398780000000011
 50
270.0
 51
51.1773328023
  0
ARC
  5
FC
  8
0
  6
CONTINUOUS
 62
     7
 10
133.0750572347
 20
112.639112926
 30
0.0
 40
0.398780000000011
 50
128.8226671977
 51
270.0
  0
CIRCLE
  5
FD
  8
0
  6
CONTINUOUS
 62
     7
 10
150.5756572347
 20
100.139772926
 30
0.0
 40
0.3987800000000021
  0
CIRCLE
  5
FE
  8
0
  6
CONTINUOUS
 62
     7
 10
153.1359772347
 20
109.720652926
 30
0.0
 40
0.7010399999999919
  0
CIRCLE
  5
FF
  8
0
  6
CONTINUOUS
 62
     7
 10
153.1359772347
 20
125.819172926
 30
0.0
 40
0.7010400000000203
  0
CIRCLE
  5
100
  8
0
  6
CONTINUOUS
 62
     7
 10
153.0750172347
 20
122.639092926
 30
0.0
 40
0.3987800000000021
  0
CIRCLE
  5
101
  8
0
  6
CONTINUOUS
 62
     7
 10
154.5761572347
 20
90.830672926
 30
0.0
 40
0.3987800000000021
  0
CIRCLE
  5
102
  8
0
  6
CONTINUOUS
 62
     7
 10
154.6244172347
 20
95.910672926
 30
0.0
 40
0.3987800000000021
  0
CIRCLE
  5
103
  8
0
  6
CONTINUOUS
 62
     7
 10
149.5748972347
 20
107.640392926
 30
0.0
 40
0.5003800000000069
  0
CIRCLE
  5
104
  8
0
  6
CONTINUOUS
 62
     7
 10
152.5746372347
 20
84.640692926
 30
0.0
 40
1.600200000000001
  0
CIRCLE
  5
105
  8
0
  6
CONTINUOUS
 62
     7
 10
130.5756972347
 20
84.640692926
 30
0.0
 40
1.600200000000001
  0
CIRCLE
  5
106
  8
0
  6
CONTINUOUS
 62
     7
 10
130.5756972347
 20
130.640092926
 30
0.0
 40
1.600200000000001
  0
ARC
  5
107
  8
0
  6
CONTINUOUS
 62
     7
 10
132.3740172347
 20
109.390452926
 30
0.0
 40
0.5511800000000091
 50
270.0
 51
349.5406553571
  0
ARC
  5
108
  8
0
  6
CONTINUOUS
 62
     7
 10
132.3740172347
 20
109.390452926
 30
0.0
 40
0.5511800000000022
 50
10.4466599946
 51
270.0
  0
CIRCLE
  5
109
  8
0
  6
CONTINUOUS
 62
     7
 10
134.4745972347
 20
107.640392926
 30
0.0
 40
0.5511800000000164
  0
CIRCLE
  5
10A
  8
0
  6
CONTINUOUS
 62
     7
 10
140.3064372347
 20
127.139972926
 30
0.0
 40
0.3987799999999879
  0
CIRCLE
  5
10B
  8
0
  6
CONTINUOUS
 62
     7
 10
144.1164372347
 20
119.138972926
 30
0.0
 40
0.482600000000005
  0
CIRCLE
  5
10C
  8
0
  6
CONTINUOUS
 62
     7
 10
147.0755372347
 20
113.241092926
 30
0.0
 40
0.5003800000000211
  0
ARC
  5
10D
  8
0
  6
CONTINUOUS
 62
     7
 10
144.0757972347
 20
87.388972926
 30
0.0
 40
0.5994399999999918
 50
270.0
 51
15.8389737106
  0
ARC
  5
10E
  8
0
  6
CONTINUOUS
 62
     7
 10
144.0757972347
 20
87.388972926
 30
0.0
 40
0.599439999999991
 50
169.8008671347
 51
270.0
  0
ARC
  5
10F
  8
0
  6
CONTINUOUS
 62
     7
 10
139.0745372347
 20
87.388972926
 30
0.0
 40
0.5994399999999936
 50
270.0
 51
10.5576170709
  0
ARC
  5
110
  8
0
  6
CONTINUOUS
 62
     7
 10
139.0745372347
 20
87.388972926
 30
0.0
 40
0.5994399999999918
 50
164.1610262894
 51
270.0
  0
CIRCLE
  5
111
  8
0
  6
CONTINUOUS
 62
     7
 10
136.5751772347
 20
130.990612926
 30
0.0
 40
0.5003800000000069
  0
CIRCLE
  5
112
  8
0
  6
CONTINUOUS
 62
     7
 10
141.5764372347
 20
130.990612926
 30
0.0
 40
0.5003800000000069
  0
CIRCLE
  5
113
  8
0
  6
CONTINUOUS
 62
     7
 10
144.1748572347
 20
84.140312926
 30
0.0
 40
0.5003799999999927
  0
CIRCLE
  5
114
  8
0
  6
CONTINUOUS
 62
     7
 10
141.5967572347
 20
112.684832926
 30
0.0
 40
0.5994400000000013
  0
CIRCLE
  5
115
  8
0
  6
CONTINUOUS
 62
     7
 10
144.1977172347
 20
123.086132926
 30
0.0
 40
0.5994400000000155
  0
LINE
  5
116
  8
0
  6
CONTINUOUS
 62
     7
 10
156.575197322
 20
134.6401943268
 30
0.0
 11
126.5751970612
 21
134.6401943268
 31
0.0
  0
LINE
  5
117
  8
0
  6
CONTINUOUS
 62
     7
 10
156.575197322
 20
80.640192926
 30
0.0
 11
156.575197322
 21
134.6401943268
 31
0.0
  0
LINE
  5
118
  8
0
  6
CONTINUOUS
 62
     7
 10
126.5751970612
 20
80.640192926
 30
0.0
 11
156.575197322
 21
80.640192926
 31
0.0
  0
LINE
  5
119
  8
0
  6
CONTINUOUS
 62
     7
 10
126.5751970612
 20
134.6401943268
 30
0.0
 11
126.5751970612
 21
80.640192926
 31
0.0
  0
CIRCLE
  5
11A
  8
0
  6
CONTINUOUS
 62
     7
 10
138.9957972347
 20
123.086132926
 30
0.0
 40
0.5994400000000155
  0
CIRCLE
  5
11B
  8
0
  6
CONTINUOUS
 62
     7
 10
141.5789772347
 20
116.042712926
 30
0.0
 40
1.600200000000001
  0
CIRCLE
  5
11C
  8
0
  6
CONTINUOUS
 62
     7
 10
138.9754772347
 20
84.140312926
 30
0.0
 40
0.5003799999999927
  0
CIRCLE
  5
11D
  8
0
  6
CONTINUOUS
 62
     7
 10
146.5751572347
 20
130.990612926
 30
0.0
 40
0.5003800000000069
  0
ARC
  5
11E
  8
0
  6
CONTINUOUS
 62
     7
 10
139.0745372347
 20
99.890852926
 30
0.0
 40
0.5994400000000152
 50
328.9751808781
 51
214.354625789
  0
ARC
  5
11F
  8
0
  6
CONTINUOUS
 62
     7
 10
144.0757972347
 20
99.890852926
 30
0.0
 40
0.5994400000000015
 50
325.645374211
 51
210.5230701385
  0
CIRCLE
  5
120
  8
0
  6
CONTINUOUS
 62
     7
 10
147.0755372347
 20
103.040452926
 30
0.0
 40
0.5003800000000069
  0
CIRCLE
  5
121
  8
0
  6
CONTINUOUS
 62
     7
 10
139.0364372347
 20
119.138972926
 30
0.0
 40
0.482600000000005
  0
CIRCLE
  5
122
  8
0
  6
CONTINUOUS
 62
     7
 10
142.8464372347
 20
127.139972926
 30
0.0
 40
0.3987799999999879
  0
CIRCLE
  5
123
  8
0
  6
CONTINUOUS
 62
     7
 10
128.0737972347
 20
107.640392926
 30
0.0
 40
0.5511800000000022
  0
ARC
  5
124
  8
0
  6
CONTINUOUS
 62
     7
 10
132.3740172347
 20
105.890332926
 30
0.0
 40
0.5511800000000031
 50
270.0
 51
349.5533400054
  0
ARC
  5
125
  8
0
  6
CONTINUOUS
 62
     7
 10
132.3740172347
 20
105.890332926
 30
0.0
 40
0.551180000000004
 50
10.4593446429
 51
270.0
  0
CIRCLE
  5
126
  8
0
  6
CONTINUOUS
 62
     7
 10
130.0753172347
 20
107.640392926
 30
0.0
 40
0.6502399999999966
  0
CIRCLE
  5
127
  8
0
  6
CONTINUOUS
 62
     7
 10
152.5746372347
 20
130.640092926
 30
0.0
 40
1.600200000000001
  0
CIRCLE
  5
128
  8
0
  6
CONTINUOUS
 62
     7
 10
141.5764372347
 20
107.640392926
 30
0.0
 40
1.600200000000001
  0
CIRCLE
  5
129
  8
0
  6
CONTINUOUS
 62
     7
 10
149.5748972347
 20
105.100392926
 30
0.0
 40
0.5003800000000069
  0
CIRCLE
  5
12A
  8
0
  6
CONTINUOUS
 62
     7
 10
149.5748972347
 20
110.180392926
 30
0.0
 40
0.5003800000000069
  0
CIRCLE
  5
12B
  8
0
  6
CONTINUOUS
 62
     7
 10
154.5761572347
 20
93.370672926
 30
0.0
 40
0.3987800000000021
  0
CIRCLE
  5
12C
  8
0
  6
CONTINUOUS
 62
     7
 10
154.5761572347
 20
98.450672926
 30
0.0
 40
0.3987800000000021
  0
CIRCLE
  5
12D
  8
0
  6
CONTINUOUS
 62
     7
 10
153.0750172347
 20
120.099092926
 30
0.0
 40
0.3987799999999879
  0
CIRCLE
  5
12E
  8
0
  6
CONTINUOUS
 62
     7
 10
153.1359772347
 20
117.020612926
 30
0.0
 40
0.7010400000000061
  0
CIRCLE
  5
12F
  8
0
  6
CONTINUOUS
 62
     7
 10
150.5756572347
 20
89.139032926
 30
0.0
 40
0.3987800000000163
  0
ARC
  5
130
  8
0
  6
CONTINUOUS
 62
     7
 10
133.0750572347
 20
123.639852926
 30
0.0
 40
0.3987799999999889
 50
308.8226671977
 51
231.1773328023
  0
CIRCLE
  5
131
  8
0
  6
CONTINUOUS
 62
     7
 10
129.0745572347
 20
123.639852926
 30
0.0
 40
0.3987800000000021
  0
CIRCLE
  5
132
  8
0
  6
CONTINUOUS
 62
     7
 10
133.0750572347
 20
89.139032926
 30
0.0
 40
0.3987800000000163
  0
CIRCLE
  5
133
  8
0
  6
CONTINUOUS
 62
     7
 10
129.0745572347
 20
89.139032926
 30
0.0
 40
0.3987800000000163
  0
CIRCLE
  5
134
  8
0
  6
CONTINUOUS
 62
     7
 10
129.0745572347
 20
103.040452926
 30
0.0
 40
0.3987800000000163
  0
CIRCLE
  5
135
  8
0
  6
CONTINUOUS
 62
     7
 10
155.0739972347
 20
101.739972926
 30
0.0
 40
0.3987800000000021
  0
CIRCLE
  5
136
  8
0
  6
CONTINUOUS
 62
     7
 10
155.0739972347
 20
104.539052926
 30
0.0
 40
0.3987800000000021
  0
CIRCLE
  5
137
  8
0
  6
CONTINUOUS
 62
     7
 10
147.9751972347
 20
121.100192926
 30
0.0
 40
0.3999999999999915
  0
CIRCLE
  5
138
  8
0
  6
CONTINUOUS
 62
     7
 10
147.0751972347
 20
116.042712926
 30
0.0
 40
0.4000000000000057
  0
LINE
  5
139
  8
0
  6
CONTINUOUS
 62
     8
 10
144.5628478803
 20
87.039530594
 30
0.0
 11
143.5887464002
 21
87.039530594
 31
0.0
  0
LINE
  5
13A
  8
0
  6
CONTINUOUS
 62
     8
 10
138.5874864325
 20
87.039530594
 30
0.0
 11
139.561588029
 21
87.039530594
 31
0.0
  0
LINE
  5
13B
  8
0
  6
CONTINUOUS
 62
     8
 10
138.7112498895
 20
100.3676651419
 30
0.0
 11
139.4378245139
 21
100.3676651419
 31
0.0
  0
LINE
  5
13C
  8
0
  6
CONTINUOUS
 62
     8
 10
144.4390844234
 20
100.3676651419
 30
0.0
 11
143.7125098572
 21
100.3676651419
 31
0.0
  0
LINE
  5
13D
  8
0
  6
CONTINUOUS
 62
     8
 10
131.9250575878
 20
119.5128297807
 30
0.0
 11
134.225057406
 21
119.5128297807
 31
0.0
  0
LINE
  5
13E
  8
0
  6
CONTINUOUS
 62
     8
 10
134.225057406
 20
118.9128270747
 30
0.0
 11
131.9250575878
 21
118.9128270747
 31
0.0
  0
LINE
  5
13F
  8
0
  6
CONTINUOUS
 62
     8
 10
134.225057406
 20
119.9128291012
 30
0.0
 11
131.9250575878
 21
119.9128291012
 31
0.0
  0
LINE
  5
140
  8
0
  6
CONTINUOUS
 62
     8
 10
134.225057406
 20
116.5898515285
 30
0.0
 11
131.9250575878
 21
116.5898515285
 31
0.0
  0
LINE
  5
141
  8
0
  6
CONTINUOUS
 62
     8
 10
131.9250575878
 20
117.5128294529
 30
0.0
 11
134.225057406
 21
117.5128294529
 31
0.0
  0
LINE
  5
142
  8
0
  6
CONTINUOUS
 62
     8
 10
134.225057406
 20
117.9128287734
 30
0.0
 11
131.9250575878
 21
117.9128287734
 31
0.0
  0
LINE
  5
143
  8
0
  6
CONTINUOUS
 62
     8
 10
131.9250575878
 20
116.189852208
 30
0.0
 11
134.225057406
 21
116.189852208
 31
0.0
  0
LINE
  5
144
  8
0
  6
CONTINUOUS
 62
     8
 10
131.9250575878
 20
118.5128277541
 30
0.0
 11
134.225057406
 21
118.5128277541
 31
0.0
  0
LINE
  5
145
  8
0
  6
CONTINUOUS
 62
     8
 10
134.1750570253
 20
120.8398526908
 30
0.0
 11
131.9750575029
 21
120.8398526908
 31
0.0
  0
LINE
  5
146
  8
0
  6
CONTINUOUS
 62
     8
 10
134.1750570253
 20
115.4398544134
 30
0.0
 11
131.9750575029
 21
115.4398544134
 31
0.0
  0
LINE
  5
147
  8
0
  6
CONTINUOUS
 62
     8
 10
133.3250570722
 20
113.6398537458
 30
0.0
 11
132.8250574559
 21
113.6398537458
 31
0.0
  0
LINE
  5
148
  8
0
  6
CONTINUOUS
 62
     8
 10
133.3250570722
 20
122.6398533584
 30
0.0
 11
132.8250574559
 21
122.6398533584
 31
0.0
  0
TEXT
  5
149
  8
0
  6
CONTINUOUS
 62
     7
 10
0.0
 20
6.732893805
 30
0.0
 40
3.633
  1
Edition étudiante de SolidWorks.
 41
0.6671875
 11
0.0
 21
5.4495
 31
0.0
 73
     1
  0
TEXT
  5
14A
  8
0
  6
CONTINUOUS
 62
     7
 10
0.0
 20
1.283393805
 30
0.0
 40
3.633
  1
A usage universitaire uniquement.
 41
0.6681818182
 11
0.0
 21
0.0
 31
0.0
 73
     1
  0
ENDSEC
  0
EOF
