  0
SECTION
  2
HEADER
  9
$ACADVER
  1
AC1009
  9
$DWGCODEPAGE
  3
ansi_1252
  9
$INSBASE
 10
0.0
 20
0.0
 30
0.0
  9
$EXTMIN
 10
0.0
 20
0.0
 30
0.0
  9
$EXTMAX
 10
210.0
 20
297.0
 30
0.0
  9
$LIMMIN
 10
0.0
 20
0.0
  9
$LIMMAX
 10
210.0
 20
297.0
  9
$ORTHOMODE
 70
     0
  9
$REGENMODE
 70
     1
  9
$FILLMODE
 70
     1
  9
$QTEXTMODE
 70
     0
  9
$MIRRTEXT
 70
     1
  9
$DRAGMODE
 70
     2
  9
$LTSCALE
 40
1.0
  9
$OSMODE
 70
    37
  9
$ATTMODE
 70
     1
  9
$TEXTSIZE
 40
3.5
  9
$TRACEWID
 40
1.0
  9
$TEXTSTYLE
  7
STANDARD
  9
$CLAYER
  8
0
  9
$CELTYPE
  6
BYLAYER
  9
$CECOLOR
 62
   256
  9
$DIMSCALE
 40
1.0
  9
$DIMASZ
 40
3.302
  9
$DIMEXO
 40
1.0
  9
$DIMDLI
 40
3.75
  9
$DIMRND
 40
0.0
  9
$DIMDLE
 40
0.0
  9
$DIMEXE
 40
1.0
  9
$DIMTP
 40
0.0
  9
$DIMTM
 40
0.0
  9
$DIMTXT
 40
3.5
  9
$DIMCEN
 40
2.5
  9
$DIMTSZ
 40
0.0
  9
$DIMTOL
 70
     0
  9
$DIMLIM
 70
     0
  9
$DIMTIH
 70
     1
  9
$DIMTOH
 70
     1
  9
$DIMSE1
 70
     0
  9
$DIMSE2
 70
     0
  9
$DIMTAD
 70
     1
  9
$DIMZIN
 70
     0
  9
$DIMBLK
  1

  9
$DIMASO
 70
     1
  9
$DIMSHO
 70
     1
  9
$DIMPOST
  1

  9
$DIMAPOST
  1

  9
$DIMALT
 70
     0
  9
$DIMALTD
 70
     3
  9
$DIMALTF
 40
0.0393700787
  9
$DIMLFAC
 40
2.0
  9
$DIMTOFL
 70
     1
  9
$DIMTVP
 40
0.0
  9
$DIMTIX
 70
     0
  9
$DIMSOXD
 70
     0
  9
$DIMSAH
 70
     0
  9
$DIMBLK1
  1

  9
$DIMBLK2
  1

  9
$DIMSTYLE
  2
ISO-25
  9
$DIMCLRD
 70
     0
  9
$DIMCLRE
 70
     0
  9
$DIMCLRT
 70
     0
  9
$DIMTFAC
 40
1.0
  9
$DIMGAP
 40
1.524
  9
$LUNITS
 70
     2
  9
$LUPREC
 70
     2
  9
$SKETCHINC
 40
1.0
  9
$FILLETRAD
 40
10.0
  9
$AUNITS
 70
     0
  9
$AUPREC
 70
     2
  9
$MENU
  1
.
  9
$ELEVATION
 40
0.0
  9
$PELEVATION
 40
0.0
  9
$THICKNESS
 40
0.0
  9
$LIMCHECK
 70
     0
  9
$CHAMFERA
 40
10.0
  9
$CHAMFERB
 40
10.0
  9
$SKPOLY
 70
     0
  9
$TDCREATE
 40
2456631.388931458
  9
$TDUPDATE
 40
2456631.388931644
  9
$TDINDWG
 40
0.0000000116
  9
$TDUSRTIMER
 40
0.0000000116
  9
$USRTIMER
 70
     1
  9
$ANGBASE
 50
0.0
  9
$ANGDIR
 70
     0
  9
$PDMODE
 70
     0
  9
$PDSIZE
 40
-1.0
  9
$PLINEWID
 40
0.0
  9
$COORDS
 70
     1
  9
$SPLFRAME
 70
     0
  9
$SPLINETYPE
 70
     6
  9
$SPLINESEGS
 70
     8
  9
$ATTDIA
 70
     0
  9
$ATTREQ
 70
     1
  9
$HANDLING
 70
     1
  9
$HANDSEED
  5
515
  9
$SURFTAB1
 70
     6
  9
$SURFTAB2
 70
     6
  9
$SURFTYPE
 70
     6
  9
$SURFU
 70
     6
  9
$SURFV
 70
     6
  9
$UCSNAME
  2

  9
$UCSORG
 10
0.0
 20
0.0
 30
0.0
  9
$UCSXDIR
 10
1.0
 20
0.0
 30
0.0
  9
$UCSYDIR
 10
0.0
 20
1.0
 30
0.0
  9
$PUCSNAME
  2

  9
$PUCSORG
 10
0.0
 20
0.0
 30
0.0
  9
$PUCSXDIR
 10
1.0
 20
0.0
 30
0.0
  9
$PUCSYDIR
 10
0.0
 20
1.0
 30
0.0
  9
$USERI1
 70
     0
  9
$USERI2
 70
     0
  9
$USERI3
 70
     0
  9
$USERI4
 70
     0
  9
$USERI5
 70
     0
  9
$USERR1
 40
0.0
  9
$USERR2
 40
0.0
  9
$USERR3
 40
0.0
  9
$USERR4
 40
0.0
  9
$USERR5
 40
0.0
  9
$WORLDVIEW
 70
     1
  9
$SHADEDGE
 70
     3
  9
$SHADEDIF
 70
    70
  9
$TILEMODE
 70
     1
  9
$MAXACTVP
 70
    64
  9
$PLIMCHECK
 70
     0
  9
$PEXTMIN
 10
1.0000000000E+20
 20
1.0000000000E+20
 30
1.0000000000E+20
  9
$PEXTMAX
 10
-1.0000000000E+20
 20
-1.0000000000E+20
 30
-1.0000000000E+20
  9
$PLIMMIN
 10
0.0
 20
0.0
  9
$PLIMMAX
 10
420.0
 20
297.0
  9
$UNITMODE
 70
     0
  9
$VISRETAIN
 70
     1
  9
$PLINEGEN
 70
     0
  9
$PSLTSCALE
 70
     1
  0
ENDSEC
  0
SECTION
  2
TABLES
  0
TABLE
  2
VPORT
 70
     1
  0
VPORT
  2
*ACTIVE
 70
     0
 10
0.0
 20
0.0
 11
1.0
 21
1.0
 12
105.0
 22
148.5
 13
0.0
 23
0.0
 14
10.0
 24
10.0
 15
10.0
 25
10.0
 16
0.0
 26
0.0
 36
1.0
 17
0.0
 27
0.0
 37
0.0
 40
297.0
 41
0.7070707071
 42
50.0
 43
0.0
 44
0.0
 50
0.0
 51
0.0
 71
     0
 72
  2000
 73
     1
 74
     3
 75
     0
 76
     0
 77
     0
 78
     0
  0
ENDTAB
  0
TABLE
  2
LTYPE
 70
     6
  0
LTYPE
  2
CONTINUOUS
 70
     0
  3
Solid line
 72
    65
 73
     0
 40
0.0
  0
LTYPE
  2
HIDDEN
 70
     0
  3
Hidden __ __ __ __ __ __ __ __ __ __ __ __ __ __
 72
    65
 73
     2
 40
1.905
 49
1.27
 49
-0.635
  0
LTYPE
  2
PHANTOM
 70
     0
  3
Phantom ______  __  __  ______  __  __  ______
 72
    65
 73
     6
 40
12.7
 49
6.35
 49
-1.27
 49
1.27
 49
-1.27
 49
1.27
 49
-1.27
  0
LTYPE
  2
CENTER
 70
     0
  3
Center ____ _ ____ _ ____ _ ____ _ ____ _ ____
 72
    65
 73
     4
 40
10.16
 49
6.35
 49
-1.27
 49
1.27
 49
-1.27
  0
LTYPE
  2
CENTERX2
 70
     0
  3
Center (2x) ________  __  ________  __  _____
 72
    65
 73
     4
 40
20.32
 49
12.7
 49
-2.54
 49
2.54
 49
-2.54
  0
LTYPE
  2
DOT2
 70
     0
  3
Dot (.5x) ........................................
 72
    65
 73
     2
 40
0.635
 49
0.0
 49
-0.635
  0
ENDTAB
  0
TABLE
  2
LAYER
 70
     1
  0
LAYER
  2
0
 70
     0
 62
     7
  6
CONTINUOUS
  0
ENDTAB
  0
TABLE
  2
STYLE
 70
     1
  0
STYLE
  2
STANDARD
 70
     0
 40
0.0
 41
1.0
 50
0.0
 71
     0
 42
3.5
  3
txt
  4

  0
ENDTAB
  0
TABLE
  2
VIEW
 70
     0
  0
ENDTAB
  0
TABLE
  2
UCS
 70
     0
  0
ENDTAB
  0
TABLE
  2
APPID
 70
     1
  0
APPID
  2
ACAD
 70
     0
  0
ENDTAB
  0
TABLE
  2
DIMSTYLE
 70
     1
  0
DIMSTYLE
  2
ISO-25
 70
     0
  3

  4

  5

  6

  7

 40
1.0
 41
2.5
 42
0.625
 43
3.75
 44
1.25
 45
0.0
 46
0.0
 47
0.0
 48
0.0
140
2.5
141
2.5
142
0.0
143
0.0393700787
144
1.0
145
0.0
146
1.0
147
0.625
 71
     0
 72
     0
 73
     0
 74
     0
 75
     0
 76
     0
 77
     1
 78
     8
170
     0
171
     3
172
     1
173
     0
174
     0
175
     0
176
     0
177
     0
178
     0
  0
ENDTAB
  0
ENDSEC
  0
SECTION
  2
BLOCKS
  0
BLOCK
  8
0
  2
$MODEL_SPACE
 70
     0
 10
0.0
 20
0.0
 30
0.0
  3
$MODEL_SPACE
  1

  0
ENDBLK
  5
21
  8
0
  0
BLOCK
 67
     1
  8
0
  2
$PAPER_SPACE
 70
     0
 10
0.0
 20
0.0
 30
0.0
  3
$PAPER_SPACE
  1

  0
ENDBLK
  5
1D
 67
     1
  8
0
  0
ENDSEC
  0
SECTION
  2
ENTITIES
  0
LINE
  5
44
  8
0
  6
CONTINUOUS
 62
     7
 10
31.5488603191
 20
175.3121515136
 30
0.0
 11
30.0618232107
 21
175.3625434857
 31
0.0
  0
LINE
  5
45
  8
0
  6
CONTINUOUS
 62
     7
 10
29.9626744353
 20
166.6466500637
 30
0.0
 11
31.4477730194
 21
166.6207251294
 31
0.0
  0
LINE
  5
46
  8
0
  6
CONTINUOUS
 62
     7
 10
33.0276187587
 20
175.2634885023
 30
0.0
 11
31.548887882
 21
175.3136030565
 31
0.0
  0
LINE
  5
47
  8
0
  6
CONTINUOUS
 62
     7
 10
31.4477669718
 20
166.6192776067
 30
0.0
 11
32.9245818526
 21
166.5935013186
 31
0.0
  0
LINE
  5
48
  8
0
  6
CONTINUOUS
 62
     7
 10
40.4627509496
 20
173.6381948178
 30
0.0
 11
40.9506015348
 21
174.8368380975
 31
0.0
  0
LINE
  5
49
  8
0
  6
CONTINUOUS
 62
     7
 10
39.5340620189
 20
175.3892781705
 30
0.0
 11
39.0544170398
 21
174.1852834979
 31
0.0
  0
LINE
  5
4A
  8
0
  6
CONTINUOUS
 62
     7
 10
48.9536866844
 20
167.2954504737
 30
0.0
 11
49.4942409603
 21
168.4510629899
 31
0.0
  0
LINE
  5
4B
  8
0
  6
CONTINUOUS
 62
     7
 10
48.1233013121
 20
169.0616756367
 30
0.0
 11
47.5906800122
 21
167.9006758319
 31
0.0
  0
LINE
  5
4C
  8
0
  6
CONTINUOUS
 62
     7
 10
48.5036155814
 20
169.9917305295
 30
0.0
 11
49.0384347853
 21
171.1581586904
 31
0.0
  0
LINE
  5
4D
  8
0
  6
CONTINUOUS
 62
     7
 10
47.6695601832
 20
171.7590044466
 30
0.0
 11
47.142609044
 21
170.5872264182
 31
0.0
  0
LINE
  5
4E
  8
0
  6
CONTINUOUS
 62
     7
 10
47.3786991539
 20
176.7265184999
 30
0.0
 11
47.8993239564
 21
177.9191653514
 31
0.0
  0
LINE
  5
4F
  8
0
  6
CONTINUOUS
 62
     7
 10
46.5367274517
 20
178.4975107611
 30
0.0
 11
46.0238061645
 21
177.2995982014
 31
0.0
  0
LINE
  5
50
  8
0
  6
CONTINUOUS
 62
     7
 10
46.9447419785
 20
179.3230843129
 30
0.0
 11
47.4599442149
 21
180.525535763
 31
0.0
  0
LINE
  5
51
  8
0
  6
CONTINUOUS
 62
     7
 10
46.1001529888
 20
181.0958863372
 30
0.0
 11
45.5925901033
 21
179.888198412
 31
0.0
  0
LINE
  5
52
  8
0
  6
CONTINUOUS
 62
     7
 10
36.7086501892
 20
164.159360464
 30
0.0
 11
36.5052457416
 21
163.6603087997
 31
0.0
  0
LINE
  5
53
  8
0
  6
CONTINUOUS
 62
     7
 10
37.2277152334
 20
163.3836905386
 30
0.0
 11
37.4329778966
 21
163.8815795851
 31
0.0
  0
ARC
  5
54
  8
0
  6
CONTINUOUS
 62
     7
 10
39.6101392994
 20
161.294106717
 30
0.0
 40
1.202372984515449
 50
196.4441864055
 51
272.3076982517
  0
LINE
  5
55
  8
0
  6
CONTINUOUS
 62
     7
 10
39.661141267
 20
160.0851593589
 30
0.0
 11
40.9518742642
 21
160.0784645106
 31
0.0
  0
LINE
  5
56
  8
0
  6
CONTINUOUS
 62
     7
 10
41.0251948425
 20
160.005072924
 30
0.0
 11
41.6115949527
 21
160.0021137473
 31
0.0
  0
LINE
  5
57
  8
0
  6
CONTINUOUS
 62
     7
 10
41.7395552277
 20
160.0743789216
 30
0.0
 11
42.4158165662
 21
160.0708712503
 31
0.0
  0
LINE
  5
58
  8
0
  6
CONTINUOUS
 62
     7
 10
42.4887176207
 20
159.9976874846
 30
0.0
 11
43.0718263311
 21
159.9947449174
 31
0.0
  0
LINE
  5
59
  8
0
  6
CONTINUOUS
 62
     7
 10
43.2018127076
 20
160.0667944002
 30
0.0
 11
43.8715286979
 21
160.0633206787
 31
0.0
  0
LINE
  5
5A
  8
0
  6
CONTINUOUS
 62
     7
 10
43.9440245926
 20
159.990343505
 30
0.0
 11
44.5238587669
 21
159.9874174623
 31
0.0
  0
LINE
  5
5B
  8
0
  6
CONTINUOUS
 62
     7
 10
44.6558518974
 20
160.0592525059
 30
0.0
 11
45.7848852326
 21
160.0533963708
 31
0.0
  0
LINE
  5
5C
  8
0
  6
CONTINUOUS
 62
     7
 10
45.856837845
 20
159.9806907913
 30
0.0
 11
46.4323891558
 21
159.9777863613
 31
0.0
  0
LINE
  5
5D
  8
0
  6
CONTINUOUS
 62
     7
 10
46.5670009502
 20
160.0493396479
 30
0.0
 11
47.5081694622
 21
160.0444579408
 31
0.0
  0
ARC
  5
5E
  8
0
  6
CONTINUOUS
 62
     7
 10
47.5897390746
 20
161.2049359926
 30
0.0
 40
1.150029437276921
 50
265.8887763576
 51
343.7815836007
  0
LINE
  5
5F
  8
0
  6
CONTINUOUS
 62
     7
 10
51.661400389
 20
163.9900051623
 30
0.0
 11
51.4338984028
 21
163.527169534
 31
0.0
  0
LINE
  5
60
  8
0
  6
CONTINUOUS
 62
     7
 10
52.1042291584
 20
163.2108460979
 30
0.0
 11
52.3333300169
 21
163.6725798895
 31
0.0
  0
LINE
  5
61
  8
0
  6
CONTINUOUS
 62
     7
 10
66.5021280127
 20
189.4205723005
 30
0.0
 11
64.5996027478
 21
185.6381652823
 31
0.0
  0
LINE
  5
62
  8
0
  6
CONTINUOUS
 62
     7
 10
65.5992672689
 20
185.1288410872
 30
0.0
 11
67.518906039
 21
188.8982293313
 31
0.0
  0
LINE
  5
63
  8
0
  6
CONTINUOUS
 62
     7
 10
69.8759863924
 20
189.2084037437
 30
0.0
 11
67.9257101274
 21
185.4581844762
 31
0.0
  0
LINE
  5
64
  8
0
  6
CONTINUOUS
 62
     7
 10
68.9093436631
 20
184.9397863984
 30
0.0
 11
70.8763506564
 21
188.677116472
 31
0.0
  0
LINE
  5
65
  8
0
  6
CONTINUOUS
 62
     7
 10
73.2040488311
 20
188.9989133184
 30
0.0
 11
71.2075982009
 21
185.2804157308
 31
0.0
  0
LINE
  5
66
  8
0
  6
CONTINUOUS
 62
     7
 10
72.175597526
 20
184.7534559552
 30
0.0
 11
74.1884132434
 21
188.4591959873
 31
0.0
  0
LINE
  5
67
  8
0
  6
CONTINUOUS
 62
     7
 10
76.4872388815
 20
188.7920490922
 30
0.0
 11
74.4461384922
 21
185.1048120929
 31
0.0
  0
LINE
  5
68
  8
0
  6
CONTINUOUS
 62
     7
 10
75.3989026263
 20
184.5697819802
 30
0.0
 11
77.4560189086
 21
188.2443947113
 31
0.0
  0
LINE
  5
69
  8
0
  6
CONTINUOUS
 62
     7
 10
79.7264572257
 20
188.5877624318
 30
0.0
 11
77.6421812497
 21
184.9313299482
 31
0.0
  0
LINE
  5
6A
  8
0
  6
CONTINUOUS
 62
     7
 10
78.580100265
 20
184.3887092626
 30
0.0
 11
80.6800585271
 21
188.0326521947
 31
0.0
  0
LINE
  5
6B
  8
0
  6
CONTINUOUS
 62
     7
 10
82.9225758158
 20
188.386006306
 30
0.0
 11
80.7965497311
 21
184.7599274632
 31
0.0
  0
LINE
  5
6C
  8
0
  6
CONTINUOUS
 62
     7
 10
81.7200093337
 20
184.2101764208
 30
0.0
 11
83.8613989671
 21
187.8239015441
 31
0.0
  0
LINE
  5
6D
  8
0
  6
CONTINUOUS
 62
     7
 10
86.0764481601
 20
188.1867346275
 30
0.0
 11
83.9100503803
 21
184.5905640886
 31
0.0
  0
LINE
  5
6E
  8
0
  6
CONTINUOUS
 62
     7
 10
84.8194322476
 20
184.0341238533
 30
0.0
 11
87.0008890265
 21
187.6180773231
 31
0.0
  0
LINE
  5
6F
  8
0
  6
CONTINUOUS
 62
     7
 10
89.1888989748
 20
187.9899009425
 30
0.0
 11
86.9834624273
 21
184.4231988947
 31
0.0
  0
LINE
  5
70
  8
0
  6
CONTINUOUS
 62
     7
 10
87.8791469895
 20
183.8604998107
 30
0.0
 11
90.0993515134
 21
187.4151220217
 31
0.0
  0
LINE
  5
71
  8
0
  6
CONTINUOUS
 62
     7
 10
92.2607389342
 20
187.7954654541
 30
0.0
 11
90.0175525686
 21
184.2577978226
 31
0.0
  0
LINE
  5
72
  8
0
  6
CONTINUOUS
 62
     7
 10
90.899911521
 20
183.6892463826
 30
0.0
 11
93.1575877163
 21
187.2149717186
 31
0.0
  0
LINE
  5
73
  8
0
  6
CONTINUOUS
 62
     7
 10
95.2927568558
 20
187.6033835584
 30
0.0
 11
93.0130671124
 21
184.0943221527
 31
0.0
  0
LINE
  5
74
  8
0
  6
CONTINUOUS
 62
     7
 10
93.8824642896
 20
183.5203132631
 30
0.0
 11
96.1763779152
 21
187.0175700596
 31
0.0
  0
LINE
  5
75
  8
0
  6
CONTINUOUS
 62
     7
 10
98.285719558
 20
187.4136138606
 30
0.0
 11
95.9707319713
 21
183.9327366153
 31
0.0
  0
LINE
  5
76
  8
0
  6
CONTINUOUS
 62
     7
 10
96.8275247478
 20
183.3536460661
 30
0.0
 11
99.1564818854
 21
186.8228563068
 31
0.0
  0
LINE
  5
77
  8
0
  6
CONTINUOUS
 62
     7
 10
101.2403736154
 20
187.2261180036
 30
0.0
 11
98.8912541454
 21
183.7730088781
 31
0.0
  0
LINE
  5
78
  8
0
  6
CONTINUOUS
 62
     7
 10
99.735794436
 20
183.1891995535
 30
0.0
 11
102.0986401639
 21
186.6307790246
 31
0.0
  0
LINE
  5
79
  8
0
  6
CONTINUOUS
 62
     7
 10
104.1574497319
 20
187.0408564761
 30
0.0
 11
101.7753262209
 21
183.6151057602
 31
0.0
  0
LINE
  5
7A
  8
0
  6
CONTINUOUS
 62
     7
 10
102.6079571761
 20
183.026922411
 30
0.0
 11
105.0035741344
 21
186.4412803908
 31
0.0
  0
LINE
  5
7B
  8
0
  6
CONTINUOUS
 62
     7
 10
107.0376584021
 20
186.8577927923
 30
0.0
 11
104.6236217938
 21
183.4589969067
 31
0.0
  0
LINE
  5
7C
  8
0
  6
CONTINUOUS
 62
     7
 10
105.4446801872
 20
182.8667683794
 30
0.0
 11
107.8719874043
 21
186.254307846
 31
0.0
  0
POLYLINE
  5
7D
  8
0
  6
CONTINUOUS
 62
     7
 66
     1
 10
0.0
 20
0.0
 30
0.0
  0
VERTEX
  5
127
  8
0
  6
CONTINUOUS
 62
     7
 10
29.5165235783
 20
174.6456910668
 30
0.0
  0
VERTEX
  5
128
  8
0
  6
CONTINUOUS
 62
     7
 10
29.3650516932
 20
174.1136327092
 30
0.0
  0
VERTEX
  5
129
  8
0
  6
CONTINUOUS
 62
     7
 10
29.2382041728
 20
173.4656068769
 30
0.0
  0
VERTEX
  5
12A
  8
0
  6
CONTINUOUS
 62
     7
 10
29.1405513451
 20
172.7263345103
 30
0.0
  0
VERTEX
  5
12B
  8
0
  6
CONTINUOUS
 62
     7
 10
29.0755731738
 20
171.9235410963
 30
0.0
  0
VERTEX
  5
12C
  8
0
  6
CONTINUOUS
 62
     7
 10
29.0455680454
 20
171.0869991895
 30
0.0
  0
VERTEX
  5
12D
  8
0
  6
CONTINUOUS
 62
     7
 10
29.0515926654
 20
170.2475333861
 30
0.0
  0
VERTEX
  5
12E
  8
0
  6
CONTINUOUS
 62
     7
 10
29.0934350211
 20
169.4360423096
 30
0.0
  0
VERTEX
  5
12F
  8
0
  6
CONTINUOUS
 62
     7
 10
29.1696198969
 20
168.6825034447
 30
0.0
  0
VERTEX
  5
130
  8
0
  6
CONTINUOUS
 62
     7
 10
29.2774471715
 20
168.0150050762
 30
0.0
  0
VERTEX
  5
131
  8
0
  6
CONTINUOUS
 62
     7
 10
29.4130609451
 20
167.4587897164
 30
0.0
  0
VERTEX
  5
132
  8
0
  6
CONTINUOUS
 62
     7
 10
29.5715558816
 20
167.0353643351
 30
0.0
  0
VERTEX
  5
133
  8
0
  6
CONTINUOUS
 62
     7
 10
29.7471218031
 20
166.7616348554
 30
0.0
  0
VERTEX
  5
134
  8
0
  6
CONTINUOUS
 62
     7
 10
29.9332216887
 20
166.649195099
 30
0.0
  0
VERTEX
  5
135
  8
0
  6
CONTINUOUS
 62
     7
 10
30.1228123907
 20
166.7036985629
 30
0.0
  0
VERTEX
  5
136
  8
0
  6
CONTINUOUS
 62
     7
 10
30.3085970442
 20
166.9244605974
 30
0.0
  0
VERTEX
  5
137
  8
0
  6
CONTINUOUS
 62
     7
 10
30.483303598
 20
167.3042603159
 30
0.0
  0
VERTEX
  5
138
  8
0
  6
CONTINUOUS
 62
     7
 10
30.6399860646
 20
167.8294212475
 30
0.0
  0
VERTEX
  5
139
  8
0
  6
CONTINUOUS
 62
     7
 10
30.7723242507
 20
168.4801953658
 30
0.0
  0
VERTEX
  5
13A
  8
0
  6
CONTINUOUS
 62
     7
 10
30.874912847
 20
169.2314383529
 30
0.0
  0
VERTEX
  5
13B
  8
0
  6
CONTINUOUS
 62
     7
 10
30.9435199189
 20
170.0536018871
 30
0.0
  0
VERTEX
  5
13C
  8
0
  6
CONTINUOUS
 62
     7
 10
30.9752939981
 20
170.9139722146
 30
0.0
  0
VERTEX
  5
13D
  8
0
  6
CONTINUOUS
 62
     7
 10
30.9689097189
 20
171.7780862951
 30
0.0
  0
VERTEX
  5
13E
  8
0
  6
CONTINUOUS
 62
     7
 10
30.924632833
 20
172.6113011288
 30
0.0
  0
VERTEX
  5
13F
  8
0
  6
CONTINUOUS
 62
     7
 10
30.8443101453
 20
173.3803244423
 30
0.0
  0
VERTEX
  5
140
  8
0
  6
CONTINUOUS
 62
     7
 10
30.73127201
 20
174.0547140837
 30
0.0
  0
VERTEX
  5
141
  8
0
  6
CONTINUOUS
 62
     7
 10
30.5901677262
 20
174.608176065
 30
0.0
  0
VERTEX
  5
142
  8
0
  6
CONTINUOUS
 62
     7
 10
30.4267377581
 20
175.0196305101
 30
0.0
  0
VERTEX
  5
143
  8
0
  6
CONTINUOUS
 62
     7
 10
30.2475444157
 20
175.2739854787
 30
0.0
  0
VERTEX
  5
144
  8
0
  6
CONTINUOUS
 62
     7
 10
30.059675936
 20
175.3626063614
 30
0.0
  0
VERTEX
  5
145
  8
0
  6
CONTINUOUS
 62
     7
 10
29.8704449197
 20
175.2834570643
 30
0.0
  0
VERTEX
  5
146
  8
0
  6
CONTINUOUS
 62
     7
 10
29.6870938791
 20
175.0409742327
 30
0.0
  0
VERTEX
  5
147
  8
0
  6
CONTINUOUS
 62
     7
 10
29.5165235783
 20
174.6456910668
 30
0.0
  0
SEQEND
  5
514
  8
0
  6
CONTINUOUS
 62
     7
  0
POLYLINE
  5
7E
  8
0
  6
CONTINUOUS
 62
     7
 66
     1
 10
0.0
 20
0.0
 30
0.0
  0
VERTEX
  5
148
  8
0
  6
CONTINUOUS
 62
     7
 10
29.7155271394
 20
173.1345191008
 30
0.0
  0
VERTEX
  5
149
  8
0
  6
CONTINUOUS
 62
     7
 10
29.5998867671
 20
172.7056631724
 30
0.0
  0
VERTEX
  5
14A
  8
0
  6
CONTINUOUS
 62
     7
 10
29.5114266401
 20
172.1628661763
 30
0.0
  0
VERTEX
  5
14B
  8
0
  6
CONTINUOUS
 62
     7
 10
29.4559399306
 20
171.542769599
 30
0.0
  0
VERTEX
  5
14C
  8
0
  6
CONTINUOUS
 62
     7
 10
29.4370361126
 20
170.8868159785
 30
0.0
  0
VERTEX
  5
14D
  8
0
  6
CONTINUOUS
 62
     7
 10
29.4559400095
 20
170.2386311022
 30
0.0
  0
VERTEX
  5
14E
  8
0
  6
CONTINUOUS
 62
     7
 10
29.5114267432
 20
169.64133591
 30
0.0
  0
VERTEX
  5
14F
  8
0
  6
CONTINUOUS
 62
     7
 10
29.5998866005
 20
169.1348878856
 30
0.0
  0
VERTEX
  5
150
  8
0
  6
CONTINUOUS
 62
     7
 10
29.7155272175
 20
168.7535545072
 30
0.0
  0
VERTEX
  5
151
  8
0
  6
CONTINUOUS
 62
     7
 10
29.8507061167
 20
168.5236412445
 30
0.0
  0
VERTEX
  5
152
  8
0
  6
CONTINUOUS
 62
     7
 10
29.9963885388
 20
168.4616291781
 30
0.0
  0
VERTEX
  5
153
  8
0
  6
CONTINUOUS
 62
     7
 10
30.1427141893
 20
168.5728300381
 30
0.0
  0
VERTEX
  5
154
  8
0
  6
CONTINUOUS
 62
     7
 10
30.2796503071
 20
168.8507409025
 30
0.0
  0
VERTEX
  5
155
  8
0
  6
CONTINUOUS
 62
     7
 10
30.3976916423
 20
169.2771910403
 30
0.0
  0
VERTEX
  5
156
  8
0
  6
CONTINUOUS
 62
     7
 10
30.4885522268
 20
169.8233796697
 30
0.0
  0
VERTEX
  5
157
  8
0
  6
CONTINUOUS
 62
     7
 10
30.5457964665
 20
170.451750573
 30
0.0
  0
VERTEX
  5
158
  8
0
  6
CONTINUOUS
 62
     7
 10
30.5653437198
 20
171.1186467155
 30
0.0
  0
VERTEX
  5
159
  8
0
  6
CONTINUOUS
 62
     7
 10
30.5457963849
 20
171.7775090118
 30
0.0
  0
VERTEX
  5
15A
  8
0
  6
CONTINUOUS
 62
     7
 10
30.4885521206
 20
172.3823562986
 30
0.0
  0
VERTEX
  5
15B
  8
0
  6
CONTINUOUS
 62
     7
 10
30.3976915092
 20
172.8912071427
 30
0.0
  0
VERTEX
  5
15C
  8
0
  6
CONTINUOUS
 62
     7
 10
30.2796503588
 20
173.2691508504
 30
0.0
  0
VERTEX
  5
15D
  8
0
  6
CONTINUOUS
 62
     7
 10
30.1427139765
 20
173.4907894761
 30
0.0
  0
VERTEX
  5
15E
  8
0
  6
CONTINUOUS
 62
     7
 10
29.9963883295
 20
173.5418600713
 30
0.0
  0
VERTEX
  5
15F
  8
0
  6
CONTINUOUS
 62
     7
 10
29.8507062047
 20
173.4199798003
 30
0.0
  0
VERTEX
  5
160
  8
0
  6
CONTINUOUS
 62
     7
 10
29.7155271394
 20
173.1345191008
 30
0.0
  0
SEQEND
  5
513
  8
0
  6
CONTINUOUS
 62
     7
  0
LINE
  5
7F
  8
0
  6
CONTINUOUS
 62
     7
 10
33.4098917397
 20
174.9161120992
 30
0.0
 11
34.8873902755
 21
174.866976505
 31
0.0
  0
LINE
  5
80
  8
0
  6
CONTINUOUS
 62
     7
 10
33.4098917397
 20
174.9161120992
 30
0.0
 11
32.9311807512
 21
178.3463677097
 31
0.0
  0
LINE
  5
81
  8
0
  6
CONTINUOUS
 62
     7
 10
34.4703911364
 20
167.3169884264
 30
0.0
 11
33.9770526794
 21
170.8520587519
 31
0.0
  0
LINE
  5
82
  8
0
  6
CONTINUOUS
 62
     7
 10
35.4649383878
 20
170.8140061308
 30
0.0
 11
33.9770526794
 21
170.8520587519
 31
0.0
  0
POLYLINE
  5
83
  8
0
  6
CONTINUOUS
 62
     7
 66
     1
 10
0.0
 20
0.0
 30
0.0
  0
VERTEX
  5
161
  8
0
  6
CONTINUOUS
 62
     7
 10
33.4098917397
 20
174.9161120992
 30
0.0
  0
VERTEX
  5
162
  8
0
  6
CONTINUOUS
 62
     7
 10
33.2232431182
 20
175.1727542583
 30
0.0
  0
VERTEX
  5
163
  8
0
  6
CONTINUOUS
 62
     7
 10
33.0276187587
 20
175.2634885023
 30
0.0
  0
SEQEND
  5
512
  8
0
  6
CONTINUOUS
 62
     7
  0
ARC
  5
84
  8
0
  6
CONTINUOUS
 62
     7
 10
25.6231073405
 20
171.4791810881
 30
0.0
 40
9.864283860863447
 50
356.1334587624
 51
20.0866322948
  0
ARC
  5
85
  8
0
  6
CONTINUOUS
 62
     7
 10
28.7483779908
 20
169.884952961
 30
0.0
 40
5.317361433042199
 50
321.7567866687
 51
10.4791093711
  0
LINE
  5
86
  8
0
  6
CONTINUOUS
 62
     7
 10
35.2651225477
 20
161.6222349342
 30
0.0
 11
34.7147387632
 21
161.626676089
 31
0.0
  0
LINE
  5
87
  8
0
  6
CONTINUOUS
 62
     7
 10
34.7147387632
 20
161.626676089
 30
0.0
 11
35.1228676599
 21
162.6415803397
 31
0.0
  0
LINE
  5
88
  8
0
  6
CONTINUOUS
 62
     7
 10
34.7147387632
 20
161.626676089
 30
0.0
 11
34.4578239906
 21
163.481881622
 31
0.0
  0
LINE
  5
89
  8
0
  6
CONTINUOUS
 62
     7
 10
34.4578239906
 20
163.481881622
 30
0.0
 11
34.8629961653
 21
164.5037178351
 31
0.0
  0
LINE
  5
8A
  8
0
  6
CONTINUOUS
 62
     7
 10
32.9880679569
 20
163.498917743
 30
0.0
 11
34.4703911364
 21
167.3169884264
 31
0.0
  0
LINE
  5
8B
  8
0
  6
CONTINUOUS
 62
     7
 10
32.9880679569
 20
163.498917743
 30
0.0
 11
32.5675646893
 21
166.5997320911
 31
0.0
  0
LINE
  5
8C
  8
0
  6
CONTINUOUS
 62
     7
 10
34.4578239906
 20
163.481881622
 30
0.0
 11
32.9880679569
 21
163.498917743
 31
0.0
  0
POLYLINE
  5
8D
  8
0
  6
CONTINUOUS
 62
     7
 66
     1
 10
0.0
 20
0.0
 30
0.0
  0
VERTEX
  5
164
  8
0
  6
CONTINUOUS
 62
     7
 10
39.5072082424
 20
175.1404413942
 30
0.0
  0
VERTEX
  5
165
  8
0
  6
CONTINUOUS
 62
     7
 10
39.5989527078
 20
174.9042419859
 30
0.0
  0
VERTEX
  5
166
  8
0
  6
CONTINUOUS
 62
     7
 10
39.7891127453
 20
174.7001329117
 30
0.0
  0
VERTEX
  5
167
  8
0
  6
CONTINUOUS
 62
     7
 10
40.0486063459
 20
174.5593634874
 30
0.0
  0
VERTEX
  5
168
  8
0
  6
CONTINUOUS
 62
     7
 10
40.337697524
 20
174.5034280136
 30
0.0
  0
VERTEX
  5
169
  8
0
  6
CONTINUOUS
 62
     7
 10
40.6121802804
 20
174.5407685115
 30
0.0
  0
VERTEX
  5
16A
  8
0
  6
CONTINUOUS
 62
     7
 10
40.8302371477
 20
174.6655170075
 30
0.0
  0
VERTEX
  5
16B
  8
0
  6
CONTINUOUS
 62
     7
 10
40.9587892573
 20
174.8585131524
 30
0.0
  0
VERTEX
  5
16C
  8
0
  6
CONTINUOUS
 62
     7
 10
40.9784886937
 20
175.0903067535
 30
0.0
  0
VERTEX
  5
16D
  8
0
  6
CONTINUOUS
 62
     7
 10
40.8865392127
 20
175.325687414
 30
0.0
  0
VERTEX
  5
16E
  8
0
  6
CONTINUOUS
 62
     7
 10
40.6969709978
 20
175.5289960239
 30
0.0
  0
VERTEX
  5
16F
  8
0
  6
CONTINUOUS
 62
     7
 10
40.4385185106
 20
175.6694576667
 30
0.0
  0
VERTEX
  5
170
  8
0
  6
CONTINUOUS
 62
     7
 10
40.1503145156
 20
175.7257503636
 30
0.0
  0
VERTEX
  5
171
  8
0
  6
CONTINUOUS
 62
     7
 10
39.8760309179
 20
175.689231069
 30
0.0
  0
VERTEX
  5
172
  8
0
  6
CONTINUOUS
 62
     7
 10
39.6573829334
 20
175.5652784902
 30
0.0
  0
VERTEX
  5
173
  8
0
  6
CONTINUOUS
 62
     7
 10
39.5277890242
 20
175.3725946879
 30
0.0
  0
VERTEX
  5
174
  8
0
  6
CONTINUOUS
 62
     7
 10
39.5072082424
 20
175.1404413942
 30
0.0
  0
SEQEND
  5
511
  8
0
  6
CONTINUOUS
 62
     7
  0
POLYLINE
  5
8E
  8
0
  6
CONTINUOUS
 62
     7
 66
     1
 10
0.0
 20
0.0
 30
0.0
  0
VERTEX
  5
175
  8
0
  6
CONTINUOUS
 62
     7
 10
49.5311304209
 20
168.7426502679
 30
0.0
  0
VERTEX
  5
176
  8
0
  6
CONTINUOUS
 62
     7
 10
49.4363271047
 20
168.9797358268
 30
0.0
  0
VERTEX
  5
177
  8
0
  6
CONTINUOUS
 62
     7
 10
49.2464505221
 20
169.1831210155
 30
0.0
  0
VERTEX
  5
178
  8
0
  6
CONTINUOUS
 62
     7
 10
48.9902819147
 20
169.3220161293
 30
0.0
  0
VERTEX
  5
179
  8
0
  6
CONTINUOUS
 62
     7
 10
48.7065938249
 20
169.3753403279
 30
0.0
  0
VERTEX
  5
17A
  8
0
  6
CONTINUOUS
 62
     7
 10
48.4383925729
 20
169.3348944343
 30
0.0
  0
VERTEX
  5
17B
  8
0
  6
CONTINUOUS
 62
     7
 10
48.2264711628
 20
169.2066570621
 30
0.0
  0
VERTEX
  5
17C
  8
0
  6
CONTINUOUS
 62
     7
 10
48.1032152417
 20
169.0099784407
 30
0.0
  0
VERTEX
  5
17D
  8
0
  6
CONTINUOUS
 62
     7
 10
48.0876147981
 20
168.7747339337
 30
0.0
  0
VERTEX
  5
17E
  8
0
  6
CONTINUOUS
 62
     7
 10
48.1822335594
 20
168.536820237
 30
0.0
  0
VERTEX
  5
17F
  8
0
  6
CONTINUOUS
 62
     7
 10
48.3727045385
 20
168.332635444
 30
0.0
  0
VERTEX
  5
180
  8
0
  6
CONTINUOUS
 62
     7
 10
48.6298978248
 20
168.1934404291
 30
0.0
  0
VERTEX
  5
181
  8
0
  6
CONTINUOUS
 62
     7
 10
48.914440654
 20
168.1404917205
 30
0.0
  0
VERTEX
  5
182
  8
0
  6
CONTINUOUS
 62
     7
 10
49.1828264669
 20
168.1817657508
 30
0.0
  0
VERTEX
  5
183
  8
0
  6
CONTINUOUS
 62
     7
 10
49.3941536862
 20
168.3108015728
 30
0.0
  0
VERTEX
  5
184
  8
0
  6
CONTINUOUS
 62
     7
 10
49.5163847244
 20
168.5077812446
 30
0.0
  0
VERTEX
  5
185
  8
0
  6
CONTINUOUS
 62
     7
 10
49.5311304209
 20
168.7426502679
 30
0.0
  0
SEQEND
  5
510
  8
0
  6
CONTINUOUS
 62
     7
  0
POLYLINE
  5
8F
  8
0
  6
CONTINUOUS
 62
     7
 66
     1
 10
0.0
 20
0.0
 30
0.0
  0
VERTEX
  5
186
  8
0
  6
CONTINUOUS
 62
     7
 10
49.0731019512
 20
171.4410958934
 30
0.0
  0
VERTEX
  5
187
  8
0
  6
CONTINUOUS
 62
     7
 10
48.9789681716
 20
171.6759519391
 30
0.0
  0
VERTEX
  5
188
  8
0
  6
CONTINUOUS
 62
     7
 10
48.7901454701
 20
171.878010938
 30
0.0
  0
VERTEX
  5
189
  8
0
  6
CONTINUOUS
 62
     7
 10
48.5352566125
 20
172.0166796094
 30
0.0
  0
VERTEX
  5
18A
  8
0
  6
CONTINUOUS
 62
     7
 10
48.2528808201
 20
172.070916078
 30
0.0
  0
VERTEX
  5
18B
  8
0
  6
CONTINUOUS
 62
     7
 10
47.9858270737
 20
172.0323802543
 30
0.0
  0
VERTEX
  5
18C
  8
0
  6
CONTINUOUS
 62
     7
 10
47.774713148
 20
171.906767549
 30
0.0
  0
VERTEX
  5
18D
  8
0
  6
CONTINUOUS
 62
     7
 10
47.6518010884
 20
171.7130264954
 30
0.0
  0
VERTEX
  5
18E
  8
0
  6
CONTINUOUS
 62
     7
 10
47.6360257394
 20
171.4805883954
 30
0.0
  0
VERTEX
  5
18F
  8
0
  6
CONTINUOUS
 62
     7
 10
47.7299760915
 20
171.2449180221
 30
0.0
  0
VERTEX
  5
190
  8
0
  6
CONTINUOUS
 62
     7
 10
47.9193859835
 20
171.0420731165
 30
0.0
  0
VERTEX
  5
191
  8
0
  6
CONTINUOUS
 62
     7
 10
48.1752895911
 20
170.9031018292
 30
0.0
  0
VERTEX
  5
192
  8
0
  6
CONTINUOUS
 62
     7
 10
48.4585119809
 20
170.849231082
 30
0.0
  0
VERTEX
  5
193
  8
0
  6
CONTINUOUS
 62
     7
 10
48.725749542
 20
170.8885789569
 30
0.0
  0
VERTEX
  5
194
  8
0
  6
CONTINUOUS
 62
     7
 10
48.9362755244
 20
171.0149821181
 30
0.0
  0
VERTEX
  5
195
  8
0
  6
CONTINUOUS
 62
     7
 10
49.0581735911
 20
171.2090212364
 30
0.0
  0
VERTEX
  5
196
  8
0
  6
CONTINUOUS
 62
     7
 10
49.0731019512
 20
171.4410958934
 30
0.0
  0
SEQEND
  5
50F
  8
0
  6
CONTINUOUS
 62
     7
  0
LINE
  5
90
  8
0
  6
CONTINUOUS
 62
     7
 10
31.84153484
 20
175.303685794
 30
0.0
 11
32.9311807512
 21
178.3463677097
 31
0.0
  0
POLYLINE
  5
91
  8
0
  6
CONTINUOUS
 62
     7
 66
     1
 10
0.0
 20
0.0
 30
0.0
  0
VERTEX
  5
197
  8
0
  6
CONTINUOUS
 62
     7
 10
46.5080464209
 20
178.2392726742
 30
0.0
  0
VERTEX
  5
198
  8
0
  6
CONTINUOUS
 62
     7
 10
46.6003339961
 20
178.0091651033
 30
0.0
  0
VERTEX
  5
199
  8
0
  6
CONTINUOUS
 62
     7
 10
46.7870967782
 20
177.8096474749
 30
0.0
  0
VERTEX
  5
19A
  8
0
  6
CONTINUOUS
 62
     7
 10
47.0397744649
 20
177.671262365
 30
0.0
  0
VERTEX
  5
19B
  8
0
  6
CONTINUOUS
 62
     7
 10
47.3196891389
 20
177.6151452254
 30
0.0
  0
VERTEX
  5
19C
  8
0
  6
CONTINUOUS
 62
     7
 10
47.584045059
 20
177.6497620387
 30
0.0
  0
VERTEX
  5
19D
  8
0
  6
CONTINUOUS
 62
     7
 10
47.7925547178
 20
177.7696776071
 30
0.0
  0
VERTEX
  5
19E
  8
0
  6
CONTINUOUS
 62
     7
 10
47.9136047101
 20
177.9564680134
 30
0.0
  0
VERTEX
  5
19F
  8
0
  6
CONTINUOUS
 62
     7
 10
47.9289779439
 20
178.1816297827
 30
0.0
  0
VERTEX
  5
1A0
  8
0
  6
CONTINUOUS
 62
     7
 10
47.8365089565
 20
178.410961843
 30
0.0
  0
VERTEX
  5
1A1
  8
0
  6
CONTINUOUS
 62
     7
 10
47.6503173594
 20
178.6097165729
 30
0.0
  0
VERTEX
  5
1A2
  8
0
  6
CONTINUOUS
 62
     7
 10
47.398628853
 20
178.7477982941
 30
0.0
  0
VERTEX
  5
1A3
  8
0
  6
CONTINUOUS
 62
     7
 10
47.119541026
 20
178.8042546268
 30
0.0
  0
VERTEX
  5
1A4
  8
0
  6
CONTINUOUS
 62
     7
 10
46.8553665246
 20
178.7704133282
 30
0.0
  0
VERTEX
  5
1A5
  8
0
  6
CONTINUOUS
 62
     7
 10
46.6462853186
 20
178.6512628665
 30
0.0
  0
VERTEX
  5
1A6
  8
0
  6
CONTINUOUS
 62
     7
 10
46.5242465073
 20
178.4647736331
 30
0.0
  0
VERTEX
  5
1A7
  8
0
  6
CONTINUOUS
 62
     7
 10
46.5080464209
 20
178.2392726742
 30
0.0
  0
SEQEND
  5
50E
  8
0
  6
CONTINUOUS
 62
     7
  0
POLYLINE
  5
92
  8
0
  6
CONTINUOUS
 62
     7
 66
     1
 10
0.0
 20
0.0
 30
0.0
  0
VERTEX
  5
1A8
  8
0
  6
CONTINUOUS
 62
     7
 10
46.073164137
 20
180.8450226263
 30
0.0
  0
VERTEX
  5
1A9
  8
0
  6
CONTINUOUS
 62
     7
 10
46.1648136998
 20
180.6170414433
 30
0.0
  0
VERTEX
  5
1AA
  8
0
  6
CONTINUOUS
 62
     7
 10
46.3505565059
 20
180.4188031032
 30
0.0
  0
VERTEX
  5
1AB
  8
0
  6
CONTINUOUS
 62
     7
 10
46.6019889119
 20
180.2806533232
 30
0.0
  0
VERTEX
  5
1AC
  8
0
  6
CONTINUOUS
 62
     7
 10
46.8806246937
 20
180.223691727
 30
0.0
  0
VERTEX
  5
1AD
  8
0
  6
CONTINUOUS
 62
     7
 10
47.1438644588
 20
180.2565150741
 30
0.0
  0
VERTEX
  5
1AE
  8
0
  6
CONTINUOUS
 62
     7
 10
47.3515908367
 20
180.3739641792
 30
0.0
  0
VERTEX
  5
1AF
  8
0
  6
CONTINUOUS
 62
     7
 10
47.4723082768
 20
180.5579926974
 30
0.0
  0
VERTEX
  5
1B0
  8
0
  6
CONTINUOUS
 62
     7
 10
47.4878482069
 20
180.7805175981
 30
0.0
  0
VERTEX
  5
1B1
  8
0
  6
CONTINUOUS
 62
     7
 10
47.3960181745
 20
181.007737063
 30
0.0
  0
VERTEX
  5
1B2
  8
0
  6
CONTINUOUS
 62
     7
 10
47.2108403024
 20
181.2052221169
 30
0.0
  0
VERTEX
  5
1B3
  8
0
  6
CONTINUOUS
 62
     7
 10
46.9603872945
 20
181.3430683093
 30
0.0
  0
VERTEX
  5
1B4
  8
0
  6
CONTINUOUS
 62
     7
 10
46.6825707856
 20
181.4003591492
 30
0.0
  0
VERTEX
  5
1B5
  8
0
  6
CONTINUOUS
 62
     7
 10
46.4195114965
 20
181.3682975238
 30
0.0
  0
VERTEX
  5
1B6
  8
0
  6
CONTINUOUS
 62
     7
 10
46.2112198261
 20
181.2516038901
 30
0.0
  0
VERTEX
  5
1B7
  8
0
  6
CONTINUOUS
 62
     7
 10
46.0895233454
 20
181.0678767669
 30
0.0
  0
VERTEX
  5
1B8
  8
0
  6
CONTINUOUS
 62
     7
 10
46.073164137
 20
180.8450226263
 30
0.0
  0
SEQEND
  5
50D
  8
0
  6
CONTINUOUS
 62
     7
  0
POLYLINE
  5
93
  8
0
  6
CONTINUOUS
 62
     7
 66
     1
 10
0.0
 20
0.0
 30
0.0
  0
VERTEX
  5
1B9
  8
0
  6
CONTINUOUS
 62
     7
 10
37.1171503842
 20
163.70180154
 30
0.0
  0
VERTEX
  5
1BA
  8
0
  6
CONTINUOUS
 62
     7
 10
36.9688653746
 20
163.7278778377
 30
0.0
  0
VERTEX
  5
1BB
  8
0
  6
CONTINUOUS
 62
     7
 10
36.8361295266
 20
163.7986487544
 30
0.0
  0
VERTEX
  5
1BC
  8
0
  6
CONTINUOUS
 62
     7
 10
36.739217582
 20
163.903325357
 30
0.0
  0
VERTEX
  5
1BD
  8
0
  6
CONTINUOUS
 62
     7
 10
36.6929077214
 20
164.0259251072
 30
0.0
  0
VERTEX
  5
1BE
  8
0
  6
CONTINUOUS
 62
     7
 10
36.7042506952
 20
164.1477342687
 30
0.0
  0
VERTEX
  5
1BF
  8
0
  6
CONTINUOUS
 62
     7
 10
36.7714564741
 20
164.250189045
 30
0.0
  0
VERTEX
  5
1C0
  8
0
  6
CONTINUOUS
 62
     7
 10
36.8842438619
 20
164.3177073277
 30
0.0
  0
VERTEX
  5
1C1
  8
0
  6
CONTINUOUS
 62
     7
 10
37.0254009985
 20
164.3400544583
 30
0.0
  0
VERTEX
  5
1C2
  8
0
  6
CONTINUOUS
 62
     7
 10
37.17345935
 20
164.3138779155
 30
0.0
  0
VERTEX
  5
1C3
  8
0
  6
CONTINUOUS
 62
     7
 10
37.3059168628
 20
164.24318283
 30
0.0
  0
VERTEX
  5
1C4
  8
0
  6
CONTINUOUS
 62
     7
 10
37.4026806562
 20
164.1387163389
 30
0.0
  0
VERTEX
  5
1C5
  8
0
  6
CONTINUOUS
 62
     7
 10
37.4490401024
 20
164.0163381439
 30
0.0
  0
VERTEX
  5
1C6
  8
0
  6
CONTINUOUS
 62
     7
 10
37.4379350553
 20
163.8946290841
 30
0.0
  0
VERTEX
  5
1C7
  8
0
  6
CONTINUOUS
 62
     7
 10
37.3709965189
 20
163.7920974311
 30
0.0
  0
VERTEX
  5
1C8
  8
0
  6
CONTINUOUS
 62
     7
 10
37.2583683761
 20
163.7243700841
 30
0.0
  0
VERTEX
  5
1C9
  8
0
  6
CONTINUOUS
 62
     7
 10
37.1171503842
 20
163.70180154
 30
0.0
  0
SEQEND
  5
50C
  8
0
  6
CONTINUOUS
 62
     7
  0
POLYLINE
  5
94
  8
0
  6
CONTINUOUS
 62
     7
 66
     1
 10
0.0
 20
0.0
 30
0.0
  0
VERTEX
  5
1CA
  8
0
  6
CONTINUOUS
 62
     7
 10
40.9518742642
 20
160.0784645106
 30
0.0
  0
VERTEX
  5
1CB
  8
0
  6
CONTINUOUS
 62
     7
 10
40.9676446227
 20
160.0795388096
 30
0.0
  0
VERTEX
  5
1CC
  8
0
  6
CONTINUOUS
 62
     7
 10
41.1022442202
 20
160.1858116907
 30
0.0
  0
VERTEX
  5
1CD
  8
0
  6
CONTINUOUS
 62
     7
 10
41.2214037137
 20
160.455452226
 30
0.0
  0
VERTEX
  5
1CE
  8
0
  6
CONTINUOUS
 62
     7
 10
41.3120136286
 20
160.8596795745
 30
0.0
  0
VERTEX
  5
1CF
  8
0
  6
CONTINUOUS
 62
     7
 10
41.3231432557
 20
160.934137794
 30
0.0
  0
SEQEND
  5
50B
  8
0
  6
CONTINUOUS
 62
     7
  0
POLYLINE
  5
95
  8
0
  6
CONTINUOUS
 62
     7
 66
     1
 10
0.0
 20
0.0
 30
0.0
  0
VERTEX
  5
1D0
  8
0
  6
CONTINUOUS
 62
     7
 10
41.4182907826
 20
160.9334859812
 30
0.0
  0
VERTEX
  5
1D1
  8
0
  6
CONTINUOUS
 62
     7
 10
41.4019641643
 20
160.8214962968
 30
0.0
  0
VERTEX
  5
1D2
  8
0
  6
CONTINUOUS
 62
     7
 10
41.3071245561
 20
160.3989365663
 30
0.0
  0
VERTEX
  5
1D3
  8
0
  6
CONTINUOUS
 62
     7
 10
41.182417624
 20
160.1171455746
 30
0.0
  0
VERTEX
  5
1D4
  8
0
  6
CONTINUOUS
 62
     7
 10
41.0415733114
 20
160.0061817496
 30
0.0
  0
VERTEX
  5
1D5
  8
0
  6
CONTINUOUS
 62
     7
 10
41.0251948425
 20
160.005072924
 30
0.0
  0
SEQEND
  5
50A
  8
0
  6
CONTINUOUS
 62
     7
  0
POLYLINE
  5
96
  8
0
  6
CONTINUOUS
 62
     7
 66
     1
 10
0.0
 20
0.0
 30
0.0
  0
VERTEX
  5
1D6
  8
0
  6
CONTINUOUS
 62
     7
 10
41.8355383362
 20
160.2349153728
 30
0.0
  0
VERTEX
  5
1D7
  8
0
  6
CONTINUOUS
 62
     7
 10
41.9475786553
 20
160.5915276196
 30
0.0
  0
VERTEX
  5
1D8
  8
0
  6
CONTINUOUS
 62
     7
 10
42.0072232568
 20
160.9294586893
 30
0.0
  0
SEQEND
  5
509
  8
0
  6
CONTINUOUS
 62
     7
  0
POLYLINE
  5
97
  8
0
  6
CONTINUOUS
 62
     7
 66
     1
 10
0.0
 20
0.0
 30
0.0
  0
VERTEX
  5
1D9
  8
0
  6
CONTINUOUS
 62
     7
 10
41.6115949527
 20
160.0021137473
 30
0.0
  0
VERTEX
  5
1DA
  8
0
  6
CONTINUOUS
 62
     7
 10
41.7000379588
 20
160.0361480201
 30
0.0
  0
VERTEX
  5
1DB
  8
0
  6
CONTINUOUS
 62
     7
 10
41.8355383362
 20
160.2349153728
 30
0.0
  0
SEQEND
  5
508
  8
0
  6
CONTINUOUS
 62
     7
  0
POLYLINE
  5
98
  8
0
  6
CONTINUOUS
 62
     7
 66
     1
 10
0.0
 20
0.0
 30
0.0
  0
VERTEX
  5
1DC
  8
0
  6
CONTINUOUS
 62
     7
 10
42.4158165662
 20
160.0708712503
 30
0.0
  0
VERTEX
  5
1DD
  8
0
  6
CONTINUOUS
 62
     7
 10
42.4318405566
 20
160.0719409764
 30
0.0
  0
VERTEX
  5
1DE
  8
0
  6
CONTINUOUS
 62
     7
 10
42.5686041463
 20
160.1779007021
 30
0.0
  0
VERTEX
  5
1DF
  8
0
  6
CONTINUOUS
 62
     7
 10
42.6896782769
 20
160.4467668627
 30
0.0
  0
VERTEX
  5
1E0
  8
0
  6
CONTINUOUS
 62
     7
 10
42.7817433942
 20
160.8498400721
 30
0.0
  0
VERTEX
  5
1E1
  8
0
  6
CONTINUOUS
 62
     7
 10
42.793051722
 20
160.924086128
 30
0.0
  0
SEQEND
  5
507
  8
0
  6
CONTINUOUS
 62
     7
  0
POLYLINE
  5
99
  8
0
  6
CONTINUOUS
 62
     7
 66
     1
 10
0.0
 20
0.0
 30
0.0
  0
VERTEX
  5
1E2
  8
0
  6
CONTINUOUS
 62
     7
 10
42.8881211559
 20
160.9234348526
 30
0.0
  0
VERTEX
  5
1E3
  8
0
  6
CONTINUOUS
 62
     7
 10
42.8715327894
 20
160.811764239
 30
0.0
  0
VERTEX
  5
1E4
  8
0
  6
CONTINUOUS
 62
     7
 10
42.7751723226
 20
160.390410873
 30
0.0
  0
VERTEX
  5
1E5
  8
0
  6
CONTINUOUS
 62
     7
 10
42.6484645627
 20
160.1094288522
 30
0.0
  0
VERTEX
  5
1E6
  8
0
  6
CONTINUOUS
 62
     7
 10
42.5053591259
 20
159.9987916262
 30
0.0
  0
VERTEX
  5
1E7
  8
0
  6
CONTINUOUS
 62
     7
 10
42.4887176207
 20
159.9976874846
 30
0.0
  0
SEQEND
  5
506
  8
0
  6
CONTINUOUS
 62
     7
  0
POLYLINE
  5
9A
  8
0
  6
CONTINUOUS
 62
     7
 66
     1
 10
0.0
 20
0.0
 30
0.0
  0
VERTEX
  5
1E8
  8
0
  6
CONTINUOUS
 62
     7
 10
43.2993239776
 20
160.226868563
 30
0.0
  0
VERTEX
  5
1E9
  8
0
  6
CONTINUOUS
 62
     7
 10
43.4131411363
 20
160.5824616727
 30
0.0
  0
VERTEX
  5
1EA
  8
0
  6
CONTINUOUS
 62
     7
 10
43.4737312616
 20
160.91943028
 30
0.0
  0
SEQEND
  5
505
  8
0
  6
CONTINUOUS
 62
     7
  0
POLYLINE
  5
9B
  8
0
  6
CONTINUOUS
 62
     7
 66
     1
 10
0.0
 20
0.0
 30
0.0
  0
VERTEX
  5
1EB
  8
0
  6
CONTINUOUS
 62
     7
 10
43.0718263311
 20
159.9947449174
 30
0.0
  0
VERTEX
  5
1EC
  8
0
  6
CONTINUOUS
 62
     7
 10
43.1616734785
 20
160.0286749849
 30
0.0
  0
VERTEX
  5
1ED
  8
0
  6
CONTINUOUS
 62
     7
 10
43.2993239776
 20
160.226868563
 30
0.0
  0
SEQEND
  5
504
  8
0
  6
CONTINUOUS
 62
     7
  0
POLYLINE
  5
9C
  8
0
  6
CONTINUOUS
 62
     7
 66
     1
 10
0.0
 20
0.0
 30
0.0
  0
VERTEX
  5
1EE
  8
0
  6
CONTINUOUS
 62
     7
 10
43.8715286979
 20
160.0633206787
 30
0.0
  0
VERTEX
  5
1EF
  8
0
  6
CONTINUOUS
 62
     7
 10
43.8878032242
 20
160.0643858662
 30
0.0
  0
VERTEX
  5
1F0
  8
0
  6
CONTINUOUS
 62
     7
 10
44.0267043621
 20
160.1700342745
 30
0.0
  0
VERTEX
  5
1F1
  8
0
  6
CONTINUOUS
 62
     7
 10
44.1496696905
 20
160.4381304971
 30
0.0
  0
VERTEX
  5
1F2
  8
0
  6
CONTINUOUS
 62
     7
 10
44.2431721687
 20
160.8400561428
 30
0.0
  0
VERTEX
  5
1F3
  8
0
  6
CONTINUOUS
 62
     7
 10
44.2546570047
 20
160.9140912416
 30
0.0
  0
SEQEND
  5
503
  8
0
  6
CONTINUOUS
 62
     7
  0
POLYLINE
  5
9D
  8
0
  6
CONTINUOUS
 62
     7
 66
     1
 10
0.0
 20
0.0
 30
0.0
  0
VERTEX
  5
1F4
  8
0
  6
CONTINUOUS
 62
     7
 10
44.3496585687
 20
160.9134404336
 30
0.0
  0
VERTEX
  5
1F5
  8
0
  6
CONTINUOUS
 62
     7
 10
44.3328116641
 20
160.8020870793
 30
0.0
  0
VERTEX
  5
1F6
  8
0
  6
CONTINUOUS
 62
     7
 10
44.2349489771
 20
160.3819332142
 30
0.0
  0
VERTEX
  5
1F7
  8
0
  6
CONTINUOUS
 62
     7
 10
44.1062648716
 20
160.101755537
 30
0.0
  0
VERTEX
  5
1F8
  8
0
  6
CONTINUOUS
 62
     7
 10
43.9609259254
 20
159.9914429975
 30
0.0
  0
VERTEX
  5
1F9
  8
0
  6
CONTINUOUS
 62
     7
 10
43.9440245926
 20
159.990343505
 30
0.0
  0
SEQEND
  5
502
  8
0
  6
CONTINUOUS
 62
     7
  0
POLYLINE
  5
9E
  8
0
  6
CONTINUOUS
 62
     7
 66
     1
 10
0.0
 20
0.0
 30
0.0
  0
VERTEX
  5
1FA
  8
0
  6
CONTINUOUS
 62
     7
 10
44.7548672403
 20
160.2188670636
 30
0.0
  0
VERTEX
  5
1FB
  8
0
  6
CONTINUOUS
 62
     7
 10
44.8704394724
 20
160.5734468477
 30
0.0
  0
VERTEX
  5
1FC
  8
0
  6
CONTINUOUS
 62
     7
 10
44.9319635249
 20
160.9094584626
 30
0.0
  0
SEQEND
  5
501
  8
0
  6
CONTINUOUS
 62
     7
  0
POLYLINE
  5
9F
  8
0
  6
CONTINUOUS
 62
     7
 66
     1
 10
0.0
 20
0.0
 30
0.0
  0
VERTEX
  5
1FD
  8
0
  6
CONTINUOUS
 62
     7
 10
44.5238587669
 20
159.9874174623
 30
0.0
  0
VERTEX
  5
1FE
  8
0
  6
CONTINUOUS
 62
     7
 10
44.6150929124
 20
160.0212439569
 30
0.0
  0
VERTEX
  5
1FF
  8
0
  6
CONTINUOUS
 62
     7
 10
44.7548672403
 20
160.2188670636
 30
0.0
  0
SEQEND
  5
500
  8
0
  6
CONTINUOUS
 62
     7
  0
POLYLINE
  5
A0
  8
0
  6
CONTINUOUS
 62
     7
 66
     1
 10
0.0
 20
0.0
 30
0.0
  0
VERTEX
  5
200
  8
0
  6
CONTINUOUS
 62
     7
 10
45.7848852326
 20
160.0533963708
 30
0.0
  0
VERTEX
  5
201
  8
0
  6
CONTINUOUS
 62
     7
 10
45.8014865247
 20
160.0544556059
 30
0.0
  0
VERTEX
  5
202
  8
0
  6
CONTINUOUS
 62
     7
 10
45.943175554
 20
160.1596949427
 30
0.0
  0
VERTEX
  5
203
  8
0
  6
CONTINUOUS
 62
     7
 10
46.0686074083
 20
160.4267793018
 30
0.0
  0
VERTEX
  5
204
  8
0
  6
CONTINUOUS
 62
     7
 10
46.1639844719
 20
160.8271967466
 30
0.0
  0
VERTEX
  5
205
  8
0
  6
CONTINUOUS
 62
     7
 10
46.1756995049
 20
160.9009545886
 30
0.0
  0
SEQEND
  5
4FF
  8
0
  6
CONTINUOUS
 62
     7
  0
POLYLINE
  5
A1
  8
0
  6
CONTINUOUS
 62
     7
 66
     1
 10
0.0
 20
0.0
 30
0.0
  0
VERTEX
  5
206
  8
0
  6
CONTINUOUS
 62
     7
 10
46.2705976203
 20
160.9003044923
 30
0.0
  0
VERTEX
  5
207
  8
0
  6
CONTINUOUS
 62
     7
 10
46.253413541
 20
160.7893681031
 30
0.0
  0
VERTEX
  5
208
  8
0
  6
CONTINUOUS
 62
     7
 10
46.1535916975
 20
160.3707906889
 30
0.0
  0
VERTEX
  5
209
  8
0
  6
CONTINUOUS
 62
     7
 10
46.0223300356
 20
160.0916700871
 30
0.0
  0
VERTEX
  5
20A
  8
0
  6
CONTINUOUS
 62
     7
 10
45.8740780604
 20
159.9817841866
 30
0.0
  0
VERTEX
  5
20B
  8
0
  6
CONTINUOUS
 62
     7
 10
45.856837845
 20
159.9806907913
 30
0.0
  0
SEQEND
  5
4FE
  8
0
  6
CONTINUOUS
 62
     7
  0
POLYLINE
  5
A2
  8
0
  6
CONTINUOUS
 62
     7
 66
     1
 10
0.0
 20
0.0
 30
0.0
  0
VERTEX
  5
20C
  8
0
  6
CONTINUOUS
 62
     7
 10
46.667976598
 20
160.2083502046
 30
0.0
  0
VERTEX
  5
20D
  8
0
  6
CONTINUOUS
 62
     7
 10
46.7858377929
 20
160.5615982232
 30
0.0
  0
VERTEX
  5
20E
  8
0
  6
CONTINUOUS
 62
     7
 10
46.8485798501
 20
160.8963520813
 30
0.0
  0
SEQEND
  5
4FD
  8
0
  6
CONTINUOUS
 62
     7
  0
POLYLINE
  5
A3
  8
0
  6
CONTINUOUS
 62
     7
 66
     1
 10
0.0
 20
0.0
 30
0.0
  0
VERTEX
  5
20F
  8
0
  6
CONTINUOUS
 62
     7
 10
46.4323891558
 20
159.9777863613
 30
0.0
  0
VERTEX
  5
210
  8
0
  6
CONTINUOUS
 62
     7
 10
46.5254323075
 20
160.0114767931
 30
0.0
  0
VERTEX
  5
211
  8
0
  6
CONTINUOUS
 62
     7
 10
46.667976598
 20
160.2083502046
 30
0.0
  0
SEQEND
  5
4FC
  8
0
  6
CONTINUOUS
 62
     7
  0
POLYLINE
  5
A4
  8
0
  6
CONTINUOUS
 62
     7
 66
     1
 10
0.0
 20
0.0
 30
0.0
  0
VERTEX
  5
212
  8
0
  6
CONTINUOUS
 62
     7
 10
52.0514427545
 20
163.5215433064
 30
0.0
  0
VERTEX
  5
213
  8
0
  6
CONTINUOUS
 62
     7
 10
52.1839320589
 20
163.5435249826
 30
0.0
  0
VERTEX
  5
214
  8
0
  6
CONTINUOUS
 62
     7
 10
52.2879926306
 20
163.6093864658
 30
0.0
  0
VERTEX
  5
215
  8
0
  6
CONTINUOUS
 62
     7
 10
52.347811735
 20
163.7090600082
 30
0.0
  0
VERTEX
  5
216
  8
0
  6
CONTINUOUS
 62
     7
 10
52.3543407925
 20
163.8273546086
 30
0.0
  0
VERTEX
  5
217
  8
0
  6
CONTINUOUS
 62
     7
 10
52.3066347585
 20
163.9462807056
 30
0.0
  0
VERTEX
  5
218
  8
0
  6
CONTINUOUS
 62
     7
 10
52.2119620594
 20
164.0477802131
 30
0.0
  0
VERTEX
  5
219
  8
0
  6
CONTINUOUS
 62
     7
 10
52.0847005246
 20
164.1164428123
 30
0.0
  0
VERTEX
  5
21A
  8
0
  6
CONTINUOUS
 62
     7
 10
51.9441723205
 20
164.1418296713
 30
0.0
  0
VERTEX
  5
21B
  8
0
  6
CONTINUOUS
 62
     7
 10
51.8117319535
 20
164.1200571042
 30
0.0
  0
VERTEX
  5
21C
  8
0
  6
CONTINUOUS
 62
     7
 10
51.7075240115
 20
164.0543928668
 30
0.0
  0
VERTEX
  5
21D
  8
0
  6
CONTINUOUS
 62
     7
 10
51.6474523971
 20
163.9547918816
 30
0.0
  0
VERTEX
  5
21E
  8
0
  6
CONTINUOUS
 62
     7
 10
51.6407136066
 20
163.8364026507
 30
0.0
  0
VERTEX
  5
21F
  8
0
  6
CONTINUOUS
 62
     7
 10
51.688376015
 20
163.7172673783
 30
0.0
  0
VERTEX
  5
220
  8
0
  6
CONTINUOUS
 62
     7
 10
51.783196276
 20
163.6155694686
 30
0.0
  0
VERTEX
  5
221
  8
0
  6
CONTINUOUS
 62
     7
 10
51.9107101282
 20
163.5468354672
 30
0.0
  0
VERTEX
  5
222
  8
0
  6
CONTINUOUS
 62
     7
 10
52.0514427545
 20
163.5215433064
 30
0.0
  0
SEQEND
  5
4FB
  8
0
  6
CONTINUOUS
 62
     7
  0
POLYLINE
  5
A5
  8
0
  6
CONTINUOUS
 62
     7
 66
     1
 10
0.0
 20
0.0
 30
0.0
  0
VERTEX
  5
223
  8
0
  6
CONTINUOUS
 62
     7
 10
66.4771151957
 20
189.1948649696
 30
0.0
  0
VERTEX
  5
224
  8
0
  6
CONTINUOUS
 62
     7
 10
66.4809628473
 20
189.3661769226
 30
0.0
  0
VERTEX
  5
225
  8
0
  6
CONTINUOUS
 62
     7
 10
66.5655640915
 20
189.5060036319
 30
0.0
  0
VERTEX
  5
226
  8
0
  6
CONTINUOUS
 62
     7
 10
66.7179056136
 20
189.5930952167
 30
0.0
  0
VERTEX
  5
227
  8
0
  6
CONTINUOUS
 62
     7
 10
66.9147277162
 20
189.6142963276
 30
0.0
  0
VERTEX
  5
228
  8
0
  6
CONTINUOUS
 62
     7
 10
67.1260737835
 20
189.5664767248
 30
0.0
  0
VERTEX
  5
229
  8
0
  6
CONTINUOUS
 62
     7
 10
67.3198783994
 20
189.4569595212
 30
0.0
  0
VERTEX
  5
22A
  8
0
  6
CONTINUOUS
 62
     7
 10
67.4667611155
 20
189.3023720767
 30
0.0
  0
VERTEX
  5
22B
  8
0
  6
CONTINUOUS
 62
     7
 10
67.5444341831
 20
189.1261543288
 30
0.0
  0
VERTEX
  5
22C
  8
0
  6
CONTINUOUS
 62
     7
 10
67.5410618559
 20
188.9550293286
 30
0.0
  0
VERTEX
  5
22D
  8
0
  6
CONTINUOUS
 62
     7
 10
67.4570478818
 20
188.815012153
 30
0.0
  0
VERTEX
  5
22E
  8
0
  6
CONTINUOUS
 62
     7
 10
67.3050581149
 20
188.7274573576
 30
0.0
  0
VERTEX
  5
22F
  8
0
  6
CONTINUOUS
 62
     7
 10
67.1081571166
 20
188.7057959609
 30
0.0
  0
VERTEX
  5
230
  8
0
  6
CONTINUOUS
 62
     7
 10
66.8963311948
 20
188.7534268165
 30
0.0
  0
VERTEX
  5
231
  8
0
  6
CONTINUOUS
 62
     7
 10
66.7019433841
 20
188.8631383967
 30
0.0
  0
VERTEX
  5
232
  8
0
  6
CONTINUOUS
 62
     7
 10
66.5547048382
 20
189.0181851446
 30
0.0
  0
VERTEX
  5
233
  8
0
  6
CONTINUOUS
 62
     7
 10
66.4771151957
 20
189.1948649696
 30
0.0
  0
SEQEND
  5
4FA
  8
0
  6
CONTINUOUS
 62
     7
  0
POLYLINE
  5
A6
  8
0
  6
CONTINUOUS
 62
     7
 66
     1
 10
0.0
 20
0.0
 30
0.0
  0
VERTEX
  5
234
  8
0
  6
CONTINUOUS
 62
     7
 10
69.8500132355
 20
188.9777283981
 30
0.0
  0
VERTEX
  5
235
  8
0
  6
CONTINUOUS
 62
     7
 10
69.8523577727
 20
189.1479666248
 30
0.0
  0
VERTEX
  5
236
  8
0
  6
CONTINUOUS
 62
     7
 10
69.9345801147
 20
189.2869564878
 30
0.0
  0
VERTEX
  5
237
  8
0
  6
CONTINUOUS
 62
     7
 10
70.0840364471
 20
189.3735746048
 30
0.0
  0
VERTEX
  5
238
  8
0
  6
CONTINUOUS
 62
     7
 10
70.2778929474
 20
189.3947372582
 30
0.0
  0
VERTEX
  5
239
  8
0
  6
CONTINUOUS
 62
     7
 10
70.4866573963
 20
189.3473178722
 30
0.0
  0
VERTEX
  5
23A
  8
0
  6
CONTINUOUS
 62
     7
 10
70.6786498944
 20
189.2385784572
 30
0.0
  0
VERTEX
  5
23B
  8
0
  6
CONTINUOUS
 62
     7
 10
70.8247636428
 20
189.085028589
 30
0.0
  0
VERTEX
  5
23C
  8
0
  6
CONTINUOUS
 62
     7
 10
70.9028271941
 20
188.9099515455
 30
0.0
  0
VERTEX
  5
23D
  8
0
  6
CONTINUOUS
 62
     7
 10
70.9009465028
 20
188.7398980399
 30
0.0
  0
VERTEX
  5
23E
  8
0
  6
CONTINUOUS
 62
     7
 10
70.8193007775
 20
188.6007204852
 30
0.0
  0
VERTEX
  5
23F
  8
0
  6
CONTINUOUS
 62
     7
 10
70.6701976234
 20
188.5136450351
 30
0.0
  0
VERTEX
  5
240
  8
0
  6
CONTINUOUS
 62
     7
 10
70.4762628647
 20
188.4920283834
 30
0.0
  0
VERTEX
  5
241
  8
0
  6
CONTINUOUS
 62
     7
 10
70.2670350291
 20
188.539260951
 30
0.0
  0
VERTEX
  5
242
  8
0
  6
CONTINUOUS
 62
     7
 10
70.0744649888
 20
188.6481922573
 30
0.0
  0
VERTEX
  5
243
  8
0
  6
CONTINUOUS
 62
     7
 10
69.9279989815
 20
188.8021952543
 30
0.0
  0
VERTEX
  5
244
  8
0
  6
CONTINUOUS
 62
     7
 10
69.8500132355
 20
188.9777283981
 30
0.0
  0
SEQEND
  5
4F9
  8
0
  6
CONTINUOUS
 62
     7
  0
POLYLINE
  5
A7
  8
0
  6
CONTINUOUS
 62
     7
 66
     1
 10
0.0
 20
0.0
 30
0.0
  0
VERTEX
  5
245
  8
0
  6
CONTINUOUS
 62
     7
 10
73.1771790342
 20
188.7635359246
 30
0.0
  0
VERTEX
  5
246
  8
0
  6
CONTINUOUS
 62
     7
 10
73.178060717
 20
188.9327136966
 30
0.0
  0
VERTEX
  5
247
  8
0
  6
CONTINUOUS
 62
     7
 10
73.2579606377
 20
189.0708764789
 30
0.0
  0
VERTEX
  5
248
  8
0
  6
CONTINUOUS
 62
     7
 10
73.4045908524
 20
189.1570262378
 30
0.0
  0
VERTEX
  5
249
  8
0
  6
CONTINUOUS
 62
     7
 10
73.5955485662
 20
189.1781492138
 30
0.0
  0
VERTEX
  5
24A
  8
0
  6
CONTINUOUS
 62
     7
 10
73.8017840879
 20
189.1311234709
 30
0.0
  0
VERTEX
  5
24B
  8
0
  6
CONTINUOUS
 62
     7
 10
73.991993181
 20
189.0231510507
 30
0.0
  0
VERTEX
  5
24C
  8
0
  6
CONTINUOUS
 62
     7
 10
74.1373428445
 20
188.8706250824
 30
0.0
  0
VERTEX
  5
24D
  8
0
  6
CONTINUOUS
 62
     7
 10
74.2157816557
 20
188.6966739531
 30
0.0
  0
VERTEX
  5
24E
  8
0
  6
CONTINUOUS
 62
     7
 10
74.2153502595
 20
188.5276788638
 30
0.0
  0
VERTEX
  5
24F
  8
0
  6
CONTINUOUS
 62
     7
 10
74.1360189858
 20
188.38933095
 30
0.0
  0
VERTEX
  5
250
  8
0
  6
CONTINUOUS
 62
     7
 10
73.9897408653
 20
188.3027297824
 30
0.0
  0
VERTEX
  5
251
  8
0
  6
CONTINUOUS
 62
     7
 10
73.7987078799
 20
188.2811588099
 30
0.0
  0
VERTEX
  5
252
  8
0
  6
CONTINUOUS
 62
     7
 10
73.5920225424
 20
188.3279997833
 30
0.0
  0
VERTEX
  5
253
  8
0
  6
CONTINUOUS
 62
     7
 10
73.4012438543
 20
188.4361615108
 30
0.0
  0
VERTEX
  5
254
  8
0
  6
CONTINUOUS
 62
     7
 10
73.2555430434
 20
188.5891347127
 30
0.0
  0
VERTEX
  5
255
  8
0
  6
CONTINUOUS
 62
     7
 10
73.1771790342
 20
188.7635359246
 30
0.0
  0
SEQEND
  5
4F8
  8
0
  6
CONTINUOUS
 62
     7
  0
POLYLINE
  5
A8
  8
0
  6
CONTINUOUS
 62
     7
 66
     1
 10
0.0
 20
0.0
 30
0.0
  0
VERTEX
  5
256
  8
0
  6
CONTINUOUS
 62
     7
 10
76.4595364359
 20
188.5522280747
 30
0.0
  0
VERTEX
  5
257
  8
0
  6
CONTINUOUS
 62
     7
 10
76.4589943126
 20
188.7203584214
 30
0.0
  0
VERTEX
  5
258
  8
0
  6
CONTINUOUS
 62
     7
 10
76.5366266661
 20
188.8577037231
 30
0.0
  0
VERTEX
  5
259
  8
0
  6
CONTINUOUS
 62
     7
 10
76.6804906285
 20
188.943390001
 30
0.0
  0
VERTEX
  5
25A
  8
0
  6
CONTINUOUS
 62
     7
 10
76.8686121039
 20
188.9644722949
 30
0.0
  0
VERTEX
  5
25B
  8
0
  6
CONTINUOUS
 62
     7
 10
77.0723652071
 20
188.9178340879
 30
0.0
  0
VERTEX
  5
25C
  8
0
  6
CONTINUOUS
 62
     7
 10
77.2608237098
 20
188.8106177808
 30
0.0
  0
VERTEX
  5
25D
  8
0
  6
CONTINUOUS
 62
     7
 10
77.4054213246
 20
188.6591018422
 30
0.0
  0
VERTEX
  5
25E
  8
0
  6
CONTINUOUS
 62
     7
 10
77.4842135365
 20
188.4862625845
 30
0.0
  0
VERTEX
  5
25F
  8
0
  6
CONTINUOUS
 62
     7
 10
77.4851975374
 20
188.3183126109
 30
0.0
  0
VERTEX
  5
260
  8
0
  6
CONTINUOUS
 62
     7
 10
77.4081212932
 20
188.1807849892
 30
0.0
  0
VERTEX
  5
261
  8
0
  6
CONTINUOUS
 62
     7
 10
77.26460355
 20
188.0946534175
 30
0.0
  0
VERTEX
  5
262
  8
0
  6
CONTINUOUS
 62
     7
 10
77.0764144308
 20
188.0731287058
 30
0.0
  0
VERTEX
  5
263
  8
0
  6
CONTINUOUS
 62
     7
 10
76.8722199241
 20
188.1195844654
 30
0.0
  0
VERTEX
  5
264
  8
0
  6
CONTINUOUS
 62
     7
 10
76.68320435
 20
188.2269872427
 30
0.0
  0
VERTEX
  5
265
  8
0
  6
CONTINUOUS
 62
     7
 10
76.5382614786
 20
188.3789443278
 30
0.0
  0
VERTEX
  5
266
  8
0
  6
CONTINUOUS
 62
     7
 10
76.4595364359
 20
188.5522280747
 30
0.0
  0
SEQEND
  5
4F7
  8
0
  6
CONTINUOUS
 62
     7
  0
POLYLINE
  5
A9
  8
0
  6
CONTINUOUS
 62
     7
 66
     1
 10
0.0
 20
0.0
 30
0.0
  0
VERTEX
  5
267
  8
0
  6
CONTINUOUS
 62
     7
 10
79.6979845676
 20
188.3437469656
 30
0.0
  0
VERTEX
  5
268
  8
0
  6
CONTINUOUS
 62
     7
 10
79.6960565173
 20
188.5108426799
 30
0.0
  0
VERTEX
  5
269
  8
0
  6
CONTINUOUS
 62
     7
 10
79.7714745878
 20
188.647379939
 30
0.0
  0
VERTEX
  5
26A
  8
0
  6
CONTINUOUS
 62
     7
 10
79.9126352374
 20
188.7326072366
 30
0.0
  0
VERTEX
  5
26B
  8
0
  6
CONTINUOUS
 62
     7
 10
80.0979765913
 20
188.7536482013
 30
0.0
  0
VERTEX
  5
26C
  8
0
  6
CONTINUOUS
 62
     7
 10
80.2992949552
 20
188.7073914081
 30
0.0
  0
VERTEX
  5
26D
  8
0
  6
CONTINUOUS
 62
     7
 10
80.4860324984
 20
188.6009207152
 30
0.0
  0
VERTEX
  5
26E
  8
0
  6
CONTINUOUS
 62
     7
 10
80.6298827783
 20
188.4504016722
 30
0.0
  0
VERTEX
  5
26F
  8
0
  6
CONTINUOUS
 62
     7
 10
80.70901435
 20
188.2786600469
 30
0.0
  0
VERTEX
  5
270
  8
0
  6
CONTINUOUS
 62
     7
 10
80.7113737655
 20
188.1117425876
 30
0.0
  0
VERTEX
  5
271
  8
0
  6
CONTINUOUS
 62
     7
 10
80.6365019331
 20
187.975025609
 30
0.0
  0
VERTEX
  5
272
  8
0
  6
CONTINUOUS
 62
     7
 10
80.4956840911
 20
187.8893588576
 30
0.0
  0
VERTEX
  5
273
  8
0
  6
CONTINUOUS
 62
     7
 10
80.3102801144
 20
187.8678811023
 30
0.0
  0
VERTEX
  5
274
  8
0
  6
CONTINUOUS
 62
     7
 10
80.1085308701
 20
187.913957579
 30
0.0
  0
VERTEX
  5
275
  8
0
  6
CONTINUOUS
 62
     7
 10
79.9212461056
 20
188.0206121157
 30
0.0
  0
VERTEX
  5
276
  8
0
  6
CONTINUOUS
 62
     7
 10
79.7770540018
 20
188.1715664911
 30
0.0
  0
VERTEX
  5
277
  8
0
  6
CONTINUOUS
 62
     7
 10
79.6979845676
 20
188.3437469656
 30
0.0
  0
SEQEND
  5
4F6
  8
0
  6
CONTINUOUS
 62
     7
  0
POLYLINE
  5
AA
  8
0
  6
CONTINUOUS
 62
     7
 66
     1
 10
0.0
 20
0.0
 30
0.0
  0
VERTEX
  5
278
  8
0
  6
CONTINUOUS
 62
     7
 10
82.8933986601
 20
188.1380362527
 30
0.0
  0
VERTEX
  5
279
  8
0
  6
CONTINUOUS
 62
     7
 10
82.8901237609
 20
188.3041097459
 30
0.0
  0
VERTEX
  5
27A
  8
0
  6
CONTINUOUS
 62
     7
 10
82.9633769902
 20
188.4398483925
 30
0.0
  0
VERTEX
  5
27B
  8
0
  6
CONTINUOUS
 62
     7
 10
83.1018954995
 20
188.5246211543
 30
0.0
  0
VERTEX
  5
27C
  8
0
  6
CONTINUOUS
 62
     7
 10
83.2845113719
 20
188.5456201792
 30
0.0
  0
VERTEX
  5
27D
  8
0
  6
CONTINUOUS
 62
     7
 10
83.4834414398
 20
188.4997388183
 30
0.0
  0
VERTEX
  5
27E
  8
0
  6
CONTINUOUS
 62
     7
 10
83.6684869414
 20
188.3940034574
 30
0.0
  0
VERTEX
  5
27F
  8
0
  6
CONTINUOUS
 62
     7
 10
83.8115969293
 20
188.2444682803
 30
0.0
  0
VERTEX
  5
280
  8
0
  6
CONTINUOUS
 62
     7
 10
83.8910542837
 20
188.0738103202
 30
0.0
  0
VERTEX
  5
281
  8
0
  6
CONTINUOUS
 62
     7
 10
83.8947503445
 20
187.9079129989
 30
0.0
  0
VERTEX
  5
282
  8
0
  6
CONTINUOUS
 62
     7
 10
83.8220313997
 20
187.771997329
 30
0.0
  0
VERTEX
  5
283
  8
0
  6
CONTINUOUS
 62
     7
 10
83.6838546539
 20
187.6867906875
 30
0.0
  0
VERTEX
  5
284
  8
0
  6
CONTINUOUS
 62
     7
 10
83.5011786756
 20
187.6653605442
 30
0.0
  0
VERTEX
  5
285
  8
0
  6
CONTINUOUS
 62
     7
 10
83.3018302761
 20
187.7110635353
 30
0.0
  0
VERTEX
  5
286
  8
0
  6
CONTINUOUS
 62
     7
 10
83.1162448336
 20
187.8169803166
 30
0.0
  0
VERTEX
  5
287
  8
0
  6
CONTINUOUS
 62
     7
 10
82.9727987375
 20
187.9669449771
 30
0.0
  0
VERTEX
  5
288
  8
0
  6
CONTINUOUS
 62
     7
 10
82.8933986601
 20
188.1380362527
 30
0.0
  0
SEQEND
  5
4F5
  8
0
  6
CONTINUOUS
 62
     7
  0
POLYLINE
  5
AB
  8
0
  6
CONTINUOUS
 62
     7
 66
     1
 10
0.0
 20
0.0
 30
0.0
  0
VERTEX
  5
289
  8
0
  6
CONTINUOUS
 62
     7
 10
86.046630837
 20
187.9350410788
 30
0.0
  0
VERTEX
  5
28A
  8
0
  6
CONTINUOUS
 62
     7
 10
86.0420423948
 20
188.1001048402
 30
0.0
  0
VERTEX
  5
28B
  8
0
  6
CONTINUOUS
 62
     7
 10
86.1131834445
 20
188.2350538461
 30
0.0
  0
VERTEX
  5
28C
  8
0
  6
CONTINUOUS
 62
     7
 10
86.2491146939
 20
188.3193767602
 30
0.0
  0
VERTEX
  5
28D
  8
0
  6
CONTINUOUS
 62
     7
 10
86.4290628814
 20
188.3403329703
 30
0.0
  0
VERTEX
  5
28E
  8
0
  6
CONTINUOUS
 62
     7
 10
86.625649901
 20
188.2948211968
 30
0.0
  0
VERTEX
  5
28F
  8
0
  6
CONTINUOUS
 62
     7
 10
86.8090315878
 20
188.1898110965
 30
0.0
  0
VERTEX
  5
290
  8
0
  6
CONTINUOUS
 62
     7
 10
86.9514082437
 20
188.0412470092
 30
0.0
  0
VERTEX
  5
291
  8
0
  6
CONTINUOUS
 62
     7
 10
87.031173675
 20
187.8716593063
 30
0.0
  0
VERTEX
  5
292
  8
0
  6
CONTINUOUS
 62
     7
 10
87.0361733562
 20
187.7067696705
 30
0.0
  0
VERTEX
  5
293
  8
0
  6
CONTINUOUS
 62
     7
 10
86.9655572311
 20
187.5716461317
 30
0.0
  0
VERTEX
  5
294
  8
0
  6
CONTINUOUS
 62
     7
 10
86.8299643911
 20
187.4868949542
 30
0.0
  0
VERTEX
  5
295
  8
0
  6
CONTINUOUS
 62
     7
 10
86.6499607945
 20
187.4655130406
 30
0.0
  0
VERTEX
  5
296
  8
0
  6
CONTINUOUS
 62
     7
 10
86.4529653452
 20
187.5108485054
 30
0.0
  0
VERTEX
  5
297
  8
0
  6
CONTINUOUS
 62
     7
 10
86.2690531186
 20
187.6160375063
 30
0.0
  0
VERTEX
  5
298
  8
0
  6
CONTINUOUS
 62
     7
 10
86.1263436672
 20
187.7650254899
 30
0.0
  0
VERTEX
  5
299
  8
0
  6
CONTINUOUS
 62
     7
 10
86.046630837
 20
187.9350410788
 30
0.0
  0
SEQEND
  5
4F4
  8
0
  6
CONTINUOUS
 62
     7
  0
POLYLINE
  5
AC
  8
0
  6
CONTINUOUS
 62
     7
 66
     1
 10
0.0
 20
0.0
 30
0.0
  0
VERTEX
  5
29A
  8
0
  6
CONTINUOUS
 62
     7
 10
89.1585108717
 20
187.7347080259
 30
0.0
  0
VERTEX
  5
29B
  8
0
  6
CONTINUOUS
 62
     7
 10
89.1526435
 20
187.8987741718
 30
0.0
  0
VERTEX
  5
29C
  8
0
  6
CONTINUOUS
 62
     7
 10
89.2217212599
 20
188.0329425098
 30
0.0
  0
VERTEX
  5
29D
  8
0
  6
CONTINUOUS
 62
     7
 10
89.3551209229
 20
188.1168200498
 30
0.0
  0
VERTEX
  5
29E
  8
0
  6
CONTINUOUS
 62
     7
 10
89.5324553973
 20
188.1377327631
 30
0.0
  0
VERTEX
  5
29F
  8
0
  6
CONTINUOUS
 62
     7
 10
89.7267434594
 20
188.0925848639
 30
0.0
  0
VERTEX
  5
2A0
  8
0
  6
CONTINUOUS
 62
     7
 10
89.9084888885
 20
187.9882901583
 30
0.0
  0
VERTEX
  5
2A1
  8
0
  6
CONTINUOUS
 62
     7
 10
90.0501390902
 20
187.8406846319
 30
0.0
  0
VERTEX
  5
2A2
  8
0
  6
CONTINUOUS
 62
     7
 10
90.1301977593
 20
187.672153879
 30
0.0
  0
VERTEX
  5
2A3
  8
0
  6
CONTINUOUS
 62
     7
 10
90.1364667273
 20
187.5082598469
 30
0.0
  0
VERTEX
  5
2A4
  8
0
  6
CONTINUOUS
 62
     7
 10
90.067904761
 20
187.3739194148
 30
0.0
  0
VERTEX
  5
2A5
  8
0
  6
CONTINUOUS
 62
     7
 10
89.9348401969
 20
187.289619119
 30
0.0
  0
VERTEX
  5
2A6
  8
0
  6
CONTINUOUS
 62
     7
 10
89.7574548421
 20
187.2682860161
 30
0.0
  0
VERTEX
  5
2A7
  8
0
  6
CONTINUOUS
 62
     7
 10
89.5627679726
 20
187.3132596327
 30
0.0
  0
VERTEX
  5
2A8
  8
0
  6
CONTINUOUS
 62
     7
 10
89.3805011757
 20
187.4177307715
 30
0.0
  0
VERTEX
  5
2A9
  8
0
  6
CONTINUOUS
 62
     7
 10
89.2385214482
 20
187.5657547152
 30
0.0
  0
VERTEX
  5
2AA
  8
0
  6
CONTINUOUS
 62
     7
 10
89.1585108717
 20
187.7347080259
 30
0.0
  0
SEQEND
  5
4F3
  8
0
  6
CONTINUOUS
 62
     7
  0
POLYLINE
  5
AD
  8
0
  6
CONTINUOUS
 62
     7
 66
     1
 10
0.0
 20
0.0
 30
0.0
  0
VERTEX
  5
2AB
  8
0
  6
CONTINUOUS
 62
     7
 10
92.2298469162
 20
187.5369850675
 30
0.0
  0
VERTEX
  5
2AC
  8
0
  6
CONTINUOUS
 62
     7
 10
92.2227342145
 20
187.7000654996
 30
0.0
  0
VERTEX
  5
2AD
  8
0
  6
CONTINUOUS
 62
     7
 10
92.289798443
 20
187.8334618483
 30
0.0
  0
VERTEX
  5
2AE
  8
0
  6
CONTINUOUS
 62
     7
 10
92.420718449
 20
187.9168985737
 30
0.0
  0
VERTEX
  5
2AF
  8
0
  6
CONTINUOUS
 62
     7
 10
92.5954939916
 20
187.9377669996
 30
0.0
  0
VERTEX
  5
2B0
  8
0
  6
CONTINUOUS
 62
     7
 10
92.787523835
 20
187.892977536
 30
0.0
  0
VERTEX
  5
2B1
  8
0
  6
CONTINUOUS
 62
     7
 10
92.9676621429
 20
187.7893884137
 30
0.0
  0
VERTEX
  5
2B2
  8
0
  6
CONTINUOUS
 62
     7
 10
93.1085904578
 20
187.6427293053
 30
0.0
  0
VERTEX
  5
2B3
  8
0
  6
CONTINUOUS
 62
     7
 10
93.1889280246
 20
187.4752424411
 30
0.0
  0
VERTEX
  5
2B4
  8
0
  6
CONTINUOUS
 62
     7
 10
93.1964329502
 20
187.3123321452
 30
0.0
  0
VERTEX
  5
2B5
  8
0
  6
CONTINUOUS
 62
     7
 10
93.1298800717
 20
187.1787658031
 30
0.0
  0
VERTEX
  5
2B6
  8
0
  6
CONTINUOUS
 62
     7
 10
92.9992874314
 20
187.0949120115
 30
0.0
  0
VERTEX
  5
2B7
  8
0
  6
CONTINUOUS
 62
     7
 10
92.8244698416
 20
187.0736281236
 30
0.0
  0
VERTEX
  5
2B8
  8
0
  6
CONTINUOUS
 62
     7
 10
92.6320460767
 20
187.1182455841
 30
0.0
  0
VERTEX
  5
2B9
  8
0
  6
CONTINUOUS
 62
     7
 10
92.451399817
 20
187.2220084353
 30
0.0
  0
VERTEX
  5
2BA
  8
0
  6
CONTINUOUS
 62
     7
 10
92.3101407372
 20
187.369080875
 30
0.0
  0
VERTEX
  5
2BB
  8
0
  6
CONTINUOUS
 62
     7
 10
92.2298469162
 20
187.5369850675
 30
0.0
  0
SEQEND
  5
4F2
  8
0
  6
CONTINUOUS
 62
     7
  0
POLYLINE
  5
AE
  8
0
  6
CONTINUOUS
 62
     7
 66
     1
 10
0.0
 20
0.0
 30
0.0
  0
VERTEX
  5
2BC
  8
0
  6
CONTINUOUS
 62
     7
 10
95.2614273043
 20
187.3418214534
 30
0.0
  0
VERTEX
  5
2BD
  8
0
  6
CONTINUOUS
 62
     7
 10
95.2531007889
 20
187.5039279342
 30
0.0
  0
VERTEX
  5
2BE
  8
0
  6
CONTINUOUS
 62
     7
 10
95.3181943216
 20
187.6365611913
 30
0.0
  0
VERTEX
  5
2BF
  8
0
  6
CONTINUOUS
 62
     7
 10
95.4466907428
 20
187.7195612382
 30
0.0
  0
VERTEX
  5
2C0
  8
0
  6
CONTINUOUS
 62
     7
 10
95.6189551656
 20
187.7403849871
 30
0.0
  0
VERTEX
  5
2C1
  8
0
  6
CONTINUOUS
 62
     7
 10
95.808773139
 20
187.6959482079
 30
0.0
  0
VERTEX
  5
2C2
  8
0
  6
CONTINUOUS
 62
     7
 10
95.9873261453
 20
187.593055487
 30
0.0
  0
VERTEX
  5
2C3
  8
0
  6
CONTINUOUS
 62
     7
 10
96.1275437463
 20
187.4473304538
 30
0.0
  0
VERTEX
  5
2C4
  8
0
  6
CONTINUOUS
 62
     7
 10
96.2081452512
 20
187.2808747284
 30
0.0
  0
VERTEX
  5
2C5
  8
0
  6
CONTINUOUS
 62
     7
 10
96.2168548756
 20
187.1189364398
 30
0.0
  0
VERTEX
  5
2C6
  8
0
  6
CONTINUOUS
 62
     7
 10
96.1522606358
 20
186.9861357446
 30
0.0
  0
VERTEX
  5
2C7
  8
0
  6
CONTINUOUS
 62
     7
 10
96.0240917194
 20
186.9027237149
 30
0.0
  0
VERTEX
  5
2C8
  8
0
  6
CONTINUOUS
 62
     7
 10
95.851786097
 20
186.8814898385
 30
0.0
  0
VERTEX
  5
2C9
  8
0
  6
CONTINUOUS
 62
     7
 10
95.6615866557
 20
186.9257563557
 30
0.0
  0
VERTEX
  5
2CA
  8
0
  6
CONTINUOUS
 62
     7
 10
95.4825310698
 20
187.0288206556
 30
0.0
  0
VERTEX
  5
2CB
  8
0
  6
CONTINUOUS
 62
     7
 10
95.3419892504
 20
187.1749535324
 30
0.0
  0
VERTEX
  5
2CC
  8
0
  6
CONTINUOUS
 62
     7
 10
95.2614273043
 20
187.3418214534
 30
0.0
  0
SEQEND
  5
4F1
  8
0
  6
CONTINUOUS
 62
     7
  0
POLYLINE
  5
AF
  8
0
  6
CONTINUOUS
 62
     7
 66
     1
 10
0.0
 20
0.0
 30
0.0
  0
VERTEX
  5
2CD
  8
0
  6
CONTINUOUS
 62
     7
 10
98.2540167933
 20
187.1491679507
 30
0.0
  0
VERTEX
  5
2CE
  8
0
  6
CONTINUOUS
 62
     7
 10
98.2445092578
 20
187.3103118947
 30
0.0
  0
VERTEX
  5
2CF
  8
0
  6
CONTINUOUS
 62
     7
 10
98.3076792283
 20
187.4421904532
 30
0.0
  0
VERTEX
  5
2D0
  8
0
  6
CONTINUOUS
 62
     7
 10
98.4338011516
 20
187.5247582619
 30
0.0
  0
VERTEX
  5
2D1
  8
0
  6
CONTINUOUS
 62
     7
 10
98.6036065001
 20
187.5455366152
 30
0.0
  0
VERTEX
  5
2D2
  8
0
  6
CONTINUOUS
 62
     7
 10
98.7912501214
 20
187.5014473983
 30
0.0
  0
VERTEX
  5
2D3
  8
0
  6
CONTINUOUS
 62
     7
 10
98.9682468083
 20
187.3992415801
 30
0.0
  0
VERTEX
  5
2D4
  8
0
  6
CONTINUOUS
 62
     7
 10
99.1077570167
 20
187.2544390128
 30
0.0
  0
VERTEX
  5
2D5
  8
0
  6
CONTINUOUS
 62
     7
 10
99.1886101768
 20
187.0890017671
 30
0.0
  0
VERTEX
  5
2D6
  8
0
  6
CONTINUOUS
 62
     7
 10
99.198491963
 20
186.9280241031
 30
0.0
  0
VERTEX
  5
2D7
  8
0
  6
CONTINUOUS
 62
     7
 10
99.1358149603
 20
186.7959802589
 30
0.0
  0
VERTEX
  5
2D8
  8
0
  6
CONTINUOUS
 62
     7
 10
99.0100151975
 20
186.7130058052
 30
0.0
  0
VERTEX
  5
2D9
  8
0
  6
CONTINUOUS
 62
     7
 10
98.8401748728
 20
186.6918222101
 30
0.0
  0
VERTEX
  5
2DA
  8
0
  6
CONTINUOUS
 62
     7
 10
98.6521564605
 20
186.7357432303
 30
0.0
  0
VERTEX
  5
2DB
  8
0
  6
CONTINUOUS
 62
     7
 10
98.4746678818
 20
186.838118169
 30
0.0
  0
VERTEX
  5
2DC
  8
0
  6
CONTINUOUS
 62
     7
 10
98.3348344366
 20
186.9833235482
 30
0.0
  0
VERTEX
  5
2DD
  8
0
  6
CONTINUOUS
 62
     7
 10
98.2540167933
 20
187.1491679507
 30
0.0
  0
SEQEND
  5
4F0
  8
0
  6
CONTINUOUS
 62
     7
  0
POLYLINE
  5
B0
  8
0
  6
CONTINUOUS
 62
     7
 66
     1
 10
0.0
 20
0.0
 30
0.0
  0
VERTEX
  5
2DE
  8
0
  6
CONTINUOUS
 62
     7
 10
101.2083638795
 20
186.9589763737
 30
0.0
  0
VERTEX
  5
2DF
  8
0
  6
CONTINUOUS
 62
     7
 10
101.1977071615
 20
187.1191689974
 30
0.0
  0
VERTEX
  5
2E0
  8
0
  6
CONTINUOUS
 62
     7
 10
101.2589950839
 20
187.2503013957
 30
0.0
  0
VERTEX
  5
2E1
  8
0
  6
CONTINUOUS
 62
     7
 10
101.3827946147
 20
187.332441064
 30
0.0
  0
VERTEX
  5
2E2
  8
0
  6
CONTINUOUS
 62
     7
 10
101.550187267
 20
187.3531736218
 30
0.0
  0
VERTEX
  5
2E3
  8
0
  6
CONTINUOUS
 62
     7
 10
101.7356974561
 20
187.309426674
 30
0.0
  0
VERTEX
  5
2E4
  8
0
  6
CONTINUOUS
 62
     7
 10
101.9111617984
 20
187.2078987312
 30
0.0
  0
VERTEX
  5
2E5
  8
0
  6
CONTINUOUS
 62
     7
 10
102.0499722702
 20
187.064006957
 30
0.0
  0
VERTEX
  5
2E6
  8
0
  6
CONTINUOUS
 62
     7
 10
102.1310652068
 20
186.8995757632
 30
0.0
  0
VERTEX
  5
2E7
  8
0
  6
CONTINUOUS
 62
     7
 10
102.1420875655
 20
186.7395475386
 30
0.0
  0
VERTEX
  5
2E8
  8
0
  6
CONTINUOUS
 62
     7
 10
102.0812832082
 20
186.6082521721
 30
0.0
  0
VERTEX
  5
2E9
  8
0
  6
CONTINUOUS
 62
     7
 10
101.9578038128
 20
186.5257108867
 30
0.0
  0
VERTEX
  5
2EA
  8
0
  6
CONTINUOUS
 62
     7
 10
101.7903789856
 20
186.5045780932
 30
0.0
  0
VERTEX
  5
2EB
  8
0
  6
CONTINUOUS
 62
     7
 10
101.6045037174
 20
186.5481586675
 30
0.0
  0
VERTEX
  5
2EC
  8
0
  6
CONTINUOUS
 62
     7
 10
101.42855469
 20
186.6498535291
 30
0.0
  0
VERTEX
  5
2ED
  8
0
  6
CONTINUOUS
 62
     7
 10
101.2894252017
 20
186.7941429704
 30
0.0
  0
VERTEX
  5
2EE
  8
0
  6
CONTINUOUS
 62
     7
 10
101.2083638795
 20
186.9589763737
 30
0.0
  0
SEQEND
  5
4EF
  8
0
  6
CONTINUOUS
 62
     7
  0
POLYLINE
  5
B1
  8
0
  6
CONTINUOUS
 62
     7
 66
     1
 10
0.0
 20
0.0
 30
0.0
  0
VERTEX
  5
2EF
  8
0
  6
CONTINUOUS
 62
     7
 10
104.1251974916
 20
186.7711997963
 30
0.0
  0
VERTEX
  5
2F0
  8
0
  6
CONTINUOUS
 62
     7
 10
104.1134198496
 20
186.9304522946
 30
0.0
  0
VERTEX
  5
2F1
  8
0
  6
CONTINUOUS
 62
     7
 10
104.1728693135
 20
187.060846723
 30
0.0
  0
VERTEX
  5
2F2
  8
0
  6
CONTINUOUS
 62
     7
 10
104.2943939705
 20
187.1425625049
 30
0.0
  0
VERTEX
  5
2F3
  8
0
  6
CONTINUOUS
 62
     7
 10
104.4594223211
 20
187.1632486859
 30
0.0
  0
VERTEX
  5
2F4
  8
0
  6
CONTINUOUS
 62
     7
 10
104.6428384405
 20
187.1198388655
 30
0.0
  0
VERTEX
  5
2F5
  8
0
  6
CONTINUOUS
 62
     7
 10
104.816794408
 20
187.0189799132
 30
0.0
  0
VERTEX
  5
2F6
  8
0
  6
CONTINUOUS
 62
     7
 10
104.9549121505
 20
186.8759875138
 30
0.0
  0
VERTEX
  5
2F7
  8
0
  6
CONTINUOUS
 62
     7
 10
105.0362307281
 20
186.7125503408
 30
0.0
  0
VERTEX
  5
2F8
  8
0
  6
CONTINUOUS
 62
     7
 10
105.0483656311
 20
186.5534603923
 30
0.0
  0
VERTEX
  5
2F9
  8
0
  6
CONTINUOUS
 62
     7
 10
104.9893910863
 20
186.4229052316
 30
0.0
  0
VERTEX
  5
2FA
  8
0
  6
CONTINUOUS
 62
     7
 10
104.8681840218
 20
186.3407928023
 30
0.0
  0
VERTEX
  5
2FB
  8
0
  6
CONTINUOUS
 62
     7
 10
104.7031267174
 20
186.319711265
 30
0.0
  0
VERTEX
  5
2FC
  8
0
  6
CONTINUOUS
 62
     7
 10
104.5193544344
 20
186.3629565385
 30
0.0
  0
VERTEX
  5
2FD
  8
0
  6
CONTINUOUS
 62
     7
 10
104.3449213524
 20
186.4639802187
 30
0.0
  0
VERTEX
  5
2FE
  8
0
  6
CONTINUOUS
 62
     7
 10
104.206488212
 20
186.607365271
 30
0.0
  0
VERTEX
  5
2FF
  8
0
  6
CONTINUOUS
 62
     7
 10
104.1251974916
 20
186.7711997963
 30
0.0
  0
SEQEND
  5
4EE
  8
0
  6
CONTINUOUS
 62
     7
  0
POLYLINE
  5
B2
  8
0
  6
CONTINUOUS
 62
     7
 66
     1
 10
0.0
 20
0.0
 30
0.0
  0
VERTEX
  5
300
  8
0
  6
CONTINUOUS
 62
     7
 10
107.0052265762
 20
186.5857925786
 30
0.0
  0
VERTEX
  5
301
  8
0
  6
CONTINUOUS
 62
     7
 10
106.9923575749
 20
186.744115816
 30
0.0
  0
VERTEX
  5
302
  8
0
  6
CONTINUOUS
 62
     7
 10
107.0500101881
 20
186.8737803845
 30
0.0
  0
VERTEX
  5
303
  8
0
  6
CONTINUOUS
 62
     7
 10
107.169307038
 20
186.9550764245
 30
0.0
  0
VERTEX
  5
304
  8
0
  6
CONTINUOUS
 62
     7
 10
107.3320174464
 20
186.9757157313
 30
0.0
  0
VERTEX
  5
305
  8
0
  6
CONTINUOUS
 62
     7
 10
107.5133765764
 20
186.9326380942
 30
0.0
  0
VERTEX
  5
306
  8
0
  6
CONTINUOUS
 62
     7
 10
107.6858489083
 20
186.8324393357
 30
0.0
  0
VERTEX
  5
307
  8
0
  6
CONTINUOUS
 62
     7
 10
107.8232795245
 20
186.690335191
 30
0.0
  0
VERTEX
  5
308
  8
0
  6
CONTINUOUS
 62
     7
 10
107.9048121732
 20
186.5278800861
 30
0.0
  0
VERTEX
  5
309
  8
0
  6
CONTINUOUS
 62
     7
 10
107.918030286
 20
186.3697175796
 30
0.0
  0
VERTEX
  5
30A
  8
0
  6
CONTINUOUS
 62
     7
 10
107.8608451958
 20
186.2398944025
 30
0.0
  0
VERTEX
  5
30B
  8
0
  6
CONTINUOUS
 62
     7
 10
107.7418623751
 20
186.1582066596
 30
0.0
  0
VERTEX
  5
30C
  8
0
  6
CONTINUOUS
 62
     7
 10
107.5791271609
 20
186.1371767207
 30
0.0
  0
VERTEX
  5
30D
  8
0
  6
CONTINUOUS
 62
     7
 10
107.3974194944
 20
186.1800916756
 30
0.0
  0
VERTEX
  5
30E
  8
0
  6
CONTINUOUS
 62
     7
 10
107.2244784889
 20
186.2804529468
 30
0.0
  0
VERTEX
  5
30F
  8
0
  6
CONTINUOUS
 62
     7
 10
107.0867349934
 20
186.4229448914
 30
0.0
  0
VERTEX
  5
310
  8
0
  6
CONTINUOUS
 62
     7
 10
107.0052265762
 20
186.5857925786
 30
0.0
  0
SEQEND
  5
4ED
  8
0
  6
CONTINUOUS
 62
     7
  0
LINE
  5
B3
  8
0
  6
CONTINUOUS
 62
     7
 10
35.3554580031
 20
160.9749456115
 30
0.0
 11
35.8241514156
 21
162.1257696114
 31
0.0
  0
LINE
  5
B4
  8
0
  6
CONTINUOUS
 62
     7
 10
35.3554580031
 20
160.9749456115
 30
0.0
 11
34.1744292461
 21
169.4377355138
 31
0.0
  0
LINE
  5
B5
  8
0
  6
CONTINUOUS
 62
     7
 10
34.1744292461
 20
169.4377355138
 30
0.0
 11
34.6277479374
 21
170.6239128626
 31
0.0
  0
LINE
  5
B6
  8
0
  6
CONTINUOUS
 62
     7
 10
35.8241514156
 20
162.1257696114
 30
0.0
 11
34.6277479374
 21
170.6239128626
 31
0.0
  0
LINE
  5
B7
  8
0
  6
CONTINUOUS
 62
     7
 10
55.5170093413
 20
160.8370750369
 30
0.0
 11
35.3554580031
 21
160.9749456115
 31
0.0
  0
LINE
  5
B8
  8
0
  6
CONTINUOUS
 62
     7
 10
55.31810988
 20
161.949597568
 30
0.0
 11
35.8241514156
 21
162.1257696114
 31
0.0
  0
POLYLINE
  5
B9
  8
0
  6
CONTINUOUS
 62
     7
 66
     1
 10
0.0
 20
0.0
 30
0.0
  0
VERTEX
  5
311
  8
0
  6
CONTINUOUS
 62
     7
 10
48.5036155814
 20
169.9917305295
 30
0.0
  0
VERTEX
  5
312
  8
0
  6
CONTINUOUS
 62
     7
 10
48.4018102152
 20
169.8488263939
 30
0.0
  0
VERTEX
  5
313
  8
0
  6
CONTINUOUS
 62
     7
 10
48.1922237273
 20
169.7223835743
 30
0.0
  0
VERTEX
  5
314
  8
0
  6
CONTINUOUS
 62
     7
 10
47.926330377
 20
169.6825527127
 30
0.0
  0
VERTEX
  5
315
  8
0
  6
CONTINUOUS
 62
     7
 10
47.6446520204
 20
169.7355690472
 30
0.0
  0
VERTEX
  5
316
  8
0
  6
CONTINUOUS
 62
     7
 10
47.3902551899
 20
169.873444208
 30
0.0
  0
VERTEX
  5
317
  8
0
  6
CONTINUOUS
 62
     7
 10
47.2020828348
 20
170.0751193077
 30
0.0
  0
VERTEX
  5
318
  8
0
  6
CONTINUOUS
 62
     7
 10
47.1089106961
 20
170.3097262609
 30
0.0
  0
VERTEX
  5
319
  8
0
  6
CONTINUOUS
 62
     7
 10
47.1248866872
 20
170.5413708841
 30
0.0
  0
VERTEX
  5
31A
  8
0
  6
CONTINUOUS
 62
     7
 10
47.142609044
 20
170.5872264182
 30
0.0
  0
SEQEND
  5
4EC
  8
0
  6
CONTINUOUS
 62
     7
  0
POLYLINE
  5
BA
  8
0
  6
CONTINUOUS
 62
     7
 66
     1
 10
0.0
 20
0.0
 30
0.0
  0
VERTEX
  5
31B
  8
0
  6
CONTINUOUS
 62
     7
 10
45.9949626347
 20
177.0421658364
 30
0.0
  0
VERTEX
  5
31C
  8
0
  6
CONTINUOUS
 62
     7
 10
46.0113501834
 20
177.2669415992
 30
0.0
  0
VERTEX
  5
31D
  8
0
  6
CONTINUOUS
 62
     7
 10
46.0238061645
 20
177.2995982014
 30
0.0
  0
SEQEND
  5
4EB
  8
0
  6
CONTINUOUS
 62
     7
  0
POLYLINE
  5
BB
  8
0
  6
CONTINUOUS
 62
     7
 66
     1
 10
0.0
 20
0.0
 30
0.0
  0
VERTEX
  5
31E
  8
0
  6
CONTINUOUS
 62
     7
 10
47.3786991539
 20
176.7265184999
 30
0.0
  0
VERTEX
  5
31F
  8
0
  6
CONTINUOUS
 62
     7
 10
47.2722949837
 20
176.577278597
 30
0.0
  0
VERTEX
  5
320
  8
0
  6
CONTINUOUS
 62
     7
 10
47.0647098058
 20
176.4572652323
 30
0.0
  0
VERTEX
  5
321
  8
0
  6
CONTINUOUS
 62
     7
 10
46.801671055
 20
176.4221263231
 30
0.0
  0
VERTEX
  5
322
  8
0
  6
CONTINUOUS
 62
     7
 10
46.5232654609
 20
176.4773750476
 30
0.0
  0
VERTEX
  5
323
  8
0
  6
CONTINUOUS
 62
     7
 10
46.272057076
 20
176.6146773501
 30
0.0
  0
VERTEX
  5
324
  8
0
  6
CONTINUOUS
 62
     7
 10
46.0864976404
 20
176.8130637652
 30
0.0
  0
VERTEX
  5
325
  8
0
  6
CONTINUOUS
 62
     7
 10
45.9949626347
 20
177.0421658364
 30
0.0
  0
SEQEND
  5
4EA
  8
0
  6
CONTINUOUS
 62
     7
  0
POLYLINE
  5
BC
  8
0
  6
CONTINUOUS
 62
     7
 66
     1
 10
0.0
 20
0.0
 30
0.0
  0
VERTEX
  5
326
  8
0
  6
CONTINUOUS
 62
     7
 10
39.0274339438
 20
173.9372705691
 30
0.0
  0
VERTEX
  5
327
  8
0
  6
CONTINUOUS
 62
     7
 10
39.048159403
 20
174.1686444948
 30
0.0
  0
VERTEX
  5
328
  8
0
  6
CONTINUOUS
 62
     7
 10
39.0544170398
 20
174.1852834979
 30
0.0
  0
SEQEND
  5
4E9
  8
0
  6
CONTINUOUS
 62
     7
  0
POLYLINE
  5
BD
  8
0
  6
CONTINUOUS
 62
     7
 66
     1
 10
0.0
 20
0.0
 30
0.0
  0
VERTEX
  5
329
  8
0
  6
CONTINUOUS
 62
     7
 10
40.4627509496
 20
173.6381948178
 30
0.0
  0
VERTEX
  5
32A
  8
0
  6
CONTINUOUS
 62
     7
 10
40.3428385196
 20
173.467197847
 30
0.0
  0
VERTEX
  5
32B
  8
0
  6
CONTINUOUS
 62
     7
 10
40.125809986
 20
173.3423757576
 30
0.0
  0
VERTEX
  5
32C
  8
0
  6
CONTINUOUS
 62
     7
 10
39.852757542
 20
173.3045154913
 30
0.0
  0
VERTEX
  5
32D
  8
0
  6
CONTINUOUS
 62
     7
 10
39.5652806727
 20
173.3595624452
 30
0.0
  0
VERTEX
  5
32E
  8
0
  6
CONTINUOUS
 62
     7
 10
39.3073374477
 20
173.4992095684
 30
0.0
  0
VERTEX
  5
32F
  8
0
  6
CONTINUOUS
 62
     7
 10
39.118425088
 20
173.7021346171
 30
0.0
  0
VERTEX
  5
330
  8
0
  6
CONTINUOUS
 62
     7
 10
39.0274339438
 20
173.9372705691
 30
0.0
  0
SEQEND
  5
4E8
  8
0
  6
CONTINUOUS
 62
     7
  0
POLYLINE
  5
BE
  8
0
  6
CONTINUOUS
 62
     7
 66
     1
 10
0.0
 20
0.0
 30
0.0
  0
VERTEX
  5
331
  8
0
  6
CONTINUOUS
 62
     7
 10
52.710407155
 20
163.8228400616
 30
0.0
  0
VERTEX
  5
332
  8
0
  6
CONTINUOUS
 62
     7
 10
52.6975525806
 20
163.5863465989
 30
0.0
  0
VERTEX
  5
333
  8
0
  6
CONTINUOUS
 62
     7
 10
52.5781665245
 20
163.3869270768
 30
0.0
  0
VERTEX
  5
334
  8
0
  6
CONTINUOUS
 62
     7
 10
52.3701932363
 20
163.2550044092
 30
0.0
  0
VERTEX
  5
335
  8
0
  6
CONTINUOUS
 62
     7
 10
52.1051757462
 20
163.210834746
 30
0.0
  0
VERTEX
  5
336
  8
0
  6
CONTINUOUS
 62
     7
 10
51.8235008804
 20
163.2613204782
 30
0.0
  0
VERTEX
  5
337
  8
0
  6
CONTINUOUS
 62
     7
 10
51.5682197165
 20
163.3988622604
 30
0.0
  0
VERTEX
  5
338
  8
0
  6
CONTINUOUS
 62
     7
 10
51.3784259635
 20
163.6024571257
 30
0.0
  0
VERTEX
  5
339
  8
0
  6
CONTINUOUS
 62
     7
 10
51.2831453589
 20
163.84093624
 30
0.0
  0
VERTEX
  5
33A
  8
0
  6
CONTINUOUS
 62
     7
 10
51.2968329673
 20
164.0778117584
 30
0.0
  0
VERTEX
  5
33B
  8
0
  6
CONTINUOUS
 62
     7
 10
51.4172343881
 20
164.2769409786
 30
0.0
  0
VERTEX
  5
33C
  8
0
  6
CONTINUOUS
 62
     7
 10
51.6257979502
 20
164.408070039
 30
0.0
  0
VERTEX
  5
33D
  8
0
  6
CONTINUOUS
 62
     7
 10
51.8906348405
 20
164.451407694
 30
0.0
  0
VERTEX
  5
33E
  8
0
  6
CONTINUOUS
 62
     7
 10
52.1714768754
 20
164.4005387475
 30
0.0
  0
VERTEX
  5
33F
  8
0
  6
CONTINUOUS
 62
     7
 10
52.4257479707
 20
164.2632871942
 30
0.0
  0
VERTEX
  5
340
  8
0
  6
CONTINUOUS
 62
     7
 10
52.6149461432
 20
164.0604860036
 30
0.0
  0
VERTEX
  5
341
  8
0
  6
CONTINUOUS
 62
     7
 10
52.710407155
 20
163.8228400616
 30
0.0
  0
SEQEND
  5
4E7
  8
0
  6
CONTINUOUS
 62
     7
  0
LINE
  5
BF
  8
0
  6
CONTINUOUS
 62
     7
 10
34.6277479374
 20
170.6239128626
 30
0.0
 11
36.127518247
 21
170.5861593499
 31
0.0
  0
LINE
  5
C0
  8
0
  6
CONTINUOUS
 62
     7
 10
36.127518247
 20
170.5861593499
 30
0.0
 11
35.1398528902
 21
177.456835288
 31
0.0
  0
LINE
  5
C1
  8
0
  6
CONTINUOUS
 62
     7
 10
35.1398528902
 20
177.456835288
 30
0.0
 11
33.6578106451
 21
177.5134498833
 31
0.0
  0
LINE
  5
C2
  8
0
  6
CONTINUOUS
 62
     7
 10
33.6578106451
 20
177.5134498833
 30
0.0
 11
32.5316515971
 21
185.5126417007
 31
0.0
  0
LINE
  5
C3
  8
0
  6
CONTINUOUS
 62
     7
 10
32.5316515971
 20
185.5126417007
 30
0.0
 11
51.2840430421
 21
184.5137740426
 31
0.0
  0
POLYLINE
  5
C4
  8
0
  6
CONTINUOUS
 62
     7
 66
     1
 10
0.0
 20
0.0
 30
0.0
  0
VERTEX
  5
342
  8
0
  6
CONTINUOUS
 62
     7
 10
37.8262884571
 20
164.0115550315
 30
0.0
  0
VERTEX
  5
343
  8
0
  6
CONTINUOUS
 62
     7
 10
37.80430408
 20
163.7682382205
 30
0.0
  0
VERTEX
  5
344
  8
0
  6
CONTINUOUS
 62
     7
 10
37.6707051166
 20
163.5630980279
 30
0.0
  0
VERTEX
  5
345
  8
0
  6
CONTINUOUS
 62
     7
 10
37.4455972446
 20
163.4274318747
 30
0.0
  0
VERTEX
  5
346
  8
0
  6
CONTINUOUS
 62
     7
 10
37.1631111644
 20
163.3820762153
 30
0.0
  0
VERTEX
  5
347
  8
0
  6
CONTINUOUS
 62
     7
 10
36.8663031703
 20
163.4341245992
 30
0.0
  0
VERTEX
  5
348
  8
0
  6
CONTINUOUS
 62
     7
 10
36.6005632369
 20
163.575744575
 30
0.0
  0
VERTEX
  5
349
  8
0
  6
CONTINUOUS
 62
     7
 10
36.4065795637
 20
163.7853086654
 30
0.0
  0
VERTEX
  5
34A
  8
0
  6
CONTINUOUS
 62
     7
 10
36.3140213294
 20
164.0307289881
 30
0.0
  0
VERTEX
  5
34B
  8
0
  6
CONTINUOUS
 62
     7
 10
36.3369343705
 20
164.2744500592
 30
0.0
  0
VERTEX
  5
34C
  8
0
  6
CONTINUOUS
 62
     7
 10
36.4716248393
 20
164.4792824576
 30
0.0
  0
VERTEX
  5
34D
  8
0
  6
CONTINUOUS
 62
     7
 10
36.6973478399
 20
164.6141078827
 30
0.0
  0
VERTEX
  5
34E
  8
0
  6
CONTINUOUS
 62
     7
 10
36.9796123487
 20
164.6585823609
 30
0.0
  0
VERTEX
  5
34F
  8
0
  6
CONTINUOUS
 62
     7
 10
37.2754918577
 20
164.606128518
 30
0.0
  0
VERTEX
  5
350
  8
0
  6
CONTINUOUS
 62
     7
 10
37.5401402975
 20
164.4648163364
 30
0.0
  0
VERTEX
  5
351
  8
0
  6
CONTINUOUS
 62
     7
 10
37.7335088295
 20
164.256092981
 30
0.0
  0
VERTEX
  5
352
  8
0
  6
CONTINUOUS
 62
     7
 10
37.8262884571
 20
164.0115550315
 30
0.0
  0
SEQEND
  5
4E6
  8
0
  6
CONTINUOUS
 62
     7
  0
POLYLINE
  5
C5
  8
0
  6
CONTINUOUS
 62
     7
 66
     1
 10
0.0
 20
0.0
 30
0.0
  0
VERTEX
  5
353
  8
0
  6
CONTINUOUS
 62
     7
 10
45.5654397339
 20
179.6381010296
 30
0.0
  0
VERTEX
  5
354
  8
0
  6
CONTINUOUS
 62
     7
 10
45.5819814556
 20
179.8602555424
 30
0.0
  0
VERTEX
  5
355
  8
0
  6
CONTINUOUS
 62
     7
 10
45.5925901033
 20
179.888198412
 30
0.0
  0
SEQEND
  5
4E5
  8
0
  6
CONTINUOUS
 62
     7
  0
POLYLINE
  5
C6
  8
0
  6
CONTINUOUS
 62
     7
 66
     1
 10
0.0
 20
0.0
 30
0.0
  0
VERTEX
  5
356
  8
0
  6
CONTINUOUS
 62
     7
 10
46.9447419785
 20
179.3230843129
 30
0.0
  0
VERTEX
  5
357
  8
0
  6
CONTINUOUS
 62
     7
 10
46.8367572997
 20
179.1717495766
 30
0.0
  0
VERTEX
  5
358
  8
0
  6
CONTINUOUS
 62
     7
 10
46.6299495599
 20
179.0541811109
 30
0.0
  0
VERTEX
  5
359
  8
0
  6
CONTINUOUS
 62
     7
 10
46.3680165402
 20
179.0208212939
 30
0.0
  0
VERTEX
  5
35A
  8
0
  6
CONTINUOUS
 62
     7
 10
46.0908764208
 20
179.0769095262
 30
0.0
  0
VERTEX
  5
35B
  8
0
  6
CONTINUOUS
 62
     7
 10
45.8408989739
 20
179.2139817587
 30
0.0
  0
VERTEX
  5
35C
  8
0
  6
CONTINUOUS
 62
     7
 10
45.6563464667
 20
179.4111035485
 30
0.0
  0
VERTEX
  5
35D
  8
0
  6
CONTINUOUS
 62
     7
 10
45.5654397339
 20
179.6381010296
 30
0.0
  0
SEQEND
  5
4E4
  8
0
  6
CONTINUOUS
 62
     7
  0
POLYLINE
  5
C7
  8
0
  6
CONTINUOUS
 62
     7
 66
     1
 10
0.0
 20
0.0
 30
0.0
  0
VERTEX
  5
35E
  8
0
  6
CONTINUOUS
 62
     7
 10
48.9536866844
 20
167.2954504737
 30
0.0
  0
VERTEX
  5
35F
  8
0
  6
CONTINUOUS
 62
     7
 10
48.8539480107
 20
167.1554695788
 30
0.0
  0
VERTEX
  5
360
  8
0
  6
CONTINUOUS
 62
     7
 10
48.6435662399
 20
167.0264182722
 30
0.0
  0
VERTEX
  5
361
  8
0
  6
CONTINUOUS
 62
     7
 10
48.3765354643
 20
166.9846776613
 30
0.0
  0
VERTEX
  5
362
  8
0
  6
CONTINUOUS
 62
     7
 10
48.093550722
 20
167.0367780418
 30
0.0
  0
VERTEX
  5
363
  8
0
  6
CONTINUOUS
 62
     7
 10
47.8378793241
 20
167.1748717363
 30
0.0
  0
VERTEX
  5
364
  8
0
  6
CONTINUOUS
 62
     7
 10
47.6486597197
 20
167.3778710285
 30
0.0
  0
VERTEX
  5
365
  8
0
  6
CONTINUOUS
 62
     7
 10
47.5548295876
 20
167.6146975638
 30
0.0
  0
VERTEX
  5
366
  8
0
  6
CONTINUOUS
 62
     7
 10
47.57063609
 20
167.8491204548
 30
0.0
  0
VERTEX
  5
367
  8
0
  6
CONTINUOUS
 62
     7
 10
47.5906800122
 20
167.9006758319
 30
0.0
  0
SEQEND
  5
4E3
  8
0
  6
CONTINUOUS
 62
     7
  0
LINE
  5
C8
  8
0
  6
CONTINUOUS
 62
     7
 10
34.6907250249
 20
176.2470839237
 30
0.0
 11
35.1398528902
 21
177.456835288
 31
0.0
  0
LINE
  5
C9
  8
0
  6
CONTINUOUS
 62
     7
 10
35.4951379848
 20
170.6020790732
 30
0.0
 11
35.4649383878
 21
170.8140061308
 31
0.0
  0
LINE
  5
CA
  8
0
  6
CONTINUOUS
 62
     7
 10
34.8873902755
 20
174.866976505
 30
0.0
 11
34.6907250249
 21
176.2470839237
 31
0.0
  0
LINE
  5
CB
  8
0
  6
CONTINUOUS
 62
     7
 10
33.2167694074
 20
176.2999511588
 30
0.0
 11
33.6578106451
 21
177.5134498833
 31
0.0
  0
LINE
  5
CC
  8
0
  6
CONTINUOUS
 62
     7
 10
34.6907250249
 20
176.2470839237
 30
0.0
 11
33.2167694074
 21
176.2999511588
 31
0.0
  0
LINE
  5
CD
  8
0
  6
CONTINUOUS
 62
     7
 10
32.1046551248
 20
184.2689269053
 30
0.0
 11
32.5316515971
 21
185.5126417007
 31
0.0
  0
LINE
  5
CE
  8
0
  6
CONTINUOUS
 62
     7
 10
33.2167694074
 20
176.2999511588
 30
0.0
 11
32.1046551248
 21
184.2689269053
 31
0.0
  0
LINE
  5
CF
  8
0
  6
CONTINUOUS
 62
     7
 10
57.0066984637
 20
172.7184922155
 30
0.0
 11
64.8231059293
 21
130.6917491698
 31
0.0
  0
LINE
  5
D0
  8
0
  6
CONTINUOUS
 62
     7
 10
64.8231059293
 20
130.6917491698
 30
0.0
 11
174.5444346211
 21
136.5985009963
 31
0.0
  0
POLYLINE
  5
D1
  8
0
  6
CONTINUOUS
 62
     7
 66
     1
 10
0.0
 20
0.0
 30
0.0
  0
VERTEX
  5
368
  8
0
  6
CONTINUOUS
 62
     7
 10
108.5476368885
 20
183.1912352064
 30
0.0
  0
VERTEX
  5
369
  8
0
  6
CONTINUOUS
 62
     7
 10
108.4477737374
 20
183.3908501561
 30
0.0
  0
VERTEX
  5
36A
  8
0
  6
CONTINUOUS
 62
     7
 10
108.2797347346
 20
183.5648093918
 30
0.0
  0
VERTEX
  5
36B
  8
0
  6
CONTINUOUS
 62
     7
 10
108.0690013031
 20
183.686753956
 30
0.0
  0
VERTEX
  5
36C
  8
0
  6
CONTINUOUS
 62
     7
 10
107.8475052978
 20
183.7381680387
 30
0.0
  0
VERTEX
  5
36D
  8
0
  6
CONTINUOUS
 62
     7
 10
107.6488537665
 20
183.7111738973
 30
0.0
  0
VERTEX
  5
36E
  8
0
  6
CONTINUOUS
 62
     7
 10
107.5032822956
 20
183.6097503008
 30
0.0
  0
VERTEX
  5
36F
  8
0
  6
CONTINUOUS
 62
     7
 10
107.433053587
 20
183.4492134025
 30
0.0
  0
VERTEX
  5
370
  8
0
  6
CONTINUOUS
 62
     7
 10
107.4490105348
 20
183.2539533146
 30
0.0
  0
VERTEX
  5
371
  8
0
  6
CONTINUOUS
 62
     7
 10
107.5488381168
 20
183.0537467729
 30
0.0
  0
VERTEX
  5
372
  8
0
  6
CONTINUOUS
 62
     7
 10
107.7173460477
 20
182.8792032097
 30
0.0
  0
VERTEX
  5
373
  8
0
  6
CONTINUOUS
 62
     7
 10
107.9287782002
 20
182.7570238803
 30
0.0
  0
VERTEX
  5
374
  8
0
  6
CONTINUOUS
 62
     7
 10
108.1507948122
 20
182.7058574702
 30
0.0
  0
VERTEX
  5
375
  8
0
  6
CONTINUOUS
 62
     7
 10
108.3494819435
 20
182.7334432043
 30
0.0
  0
VERTEX
  5
376
  8
0
  6
CONTINUOUS
 62
     7
 10
108.4945850834
 20
182.8354492003
 30
0.0
  0
VERTEX
  5
377
  8
0
  6
CONTINUOUS
 62
     7
 10
108.5641144747
 20
182.9962227883
 30
0.0
  0
VERTEX
  5
378
  8
0
  6
CONTINUOUS
 62
     7
 10
108.5476368885
 20
183.1912352064
 30
0.0
  0
SEQEND
  5
4E2
  8
0
  6
CONTINUOUS
 62
     7
  0
POLYLINE
  5
D2
  8
0
  6
CONTINUOUS
 62
     7
 66
     1
 10
0.0
 20
0.0
 30
0.0
  0
VERTEX
  5
379
  8
0
  6
CONTINUOUS
 62
     7
 10
102.0861581314
 20
184.0621163785
 30
0.0
  0
VERTEX
  5
37A
  8
0
  6
CONTINUOUS
 62
     7
 10
101.9966936973
 20
184.0396904419
 30
0.0
  0
VERTEX
  5
37B
  8
0
  6
CONTINUOUS
 62
     7
 10
101.8457472833
 20
183.937207275
 30
0.0
  0
VERTEX
  5
37C
  8
0
  6
CONTINUOUS
 62
     7
 10
101.7711785719
 20
183.7748651662
 30
0.0
  0
VERTEX
  5
37D
  8
0
  6
CONTINUOUS
 62
     7
 10
101.7844961354
 20
183.5773277041
 30
0.0
  0
VERTEX
  5
37E
  8
0
  6
CONTINUOUS
 62
     7
 10
101.8837923709
 20
183.3747194832
 30
0.0
  0
VERTEX
  5
37F
  8
0
  6
CONTINUOUS
 62
     7
 10
102.0539598678
 20
183.1980187103
 30
0.0
  0
VERTEX
  5
380
  8
0
  6
CONTINUOUS
 62
     7
 10
102.26898804
 20
183.0742582288
 30
0.0
  0
VERTEX
  5
381
  8
0
  6
CONTINUOUS
 62
     7
 10
102.4959844736
 20
183.0223287678
 30
0.0
  0
VERTEX
  5
382
  8
0
  6
CONTINUOUS
 62
     7
 10
102.7002719431
 20
183.050084529
 30
0.0
  0
VERTEX
  5
383
  8
0
  6
CONTINUOUS
 62
     7
 10
102.8507410503
 20
183.1531645923
 30
0.0
  0
VERTEX
  5
384
  8
0
  6
CONTINUOUS
 62
     7
 10
102.9245870711
 20
183.3157496689
 30
0.0
  0
VERTEX
  5
385
  8
0
  6
CONTINUOUS
 62
     7
 10
102.920551603
 20
183.4724490716
 30
0.0
  0
SEQEND
  5
4E1
  8
0
  6
CONTINUOUS
 62
     7
  0
POLYLINE
  5
D3
  8
0
  6
CONTINUOUS
 62
     7
 66
     1
 10
0.0
 20
0.0
 30
0.0
  0
VERTEX
  5
386
  8
0
  6
CONTINUOUS
 62
     7
 10
96.2793637593
 20
184.3968059565
 30
0.0
  0
VERTEX
  5
387
  8
0
  6
CONTINUOUS
 62
     7
 10
96.2016989367
 20
184.3765088673
 30
0.0
  0
VERTEX
  5
388
  8
0
  6
CONTINUOUS
 62
     7
 10
96.0451511675
 20
184.2729445968
 30
0.0
  0
VERTEX
  5
389
  8
0
  6
CONTINUOUS
 62
     7
 10
95.9660439735
 20
184.1087567331
 30
0.0
  0
VERTEX
  5
38A
  8
0
  6
CONTINUOUS
 62
     7
 10
95.9765827315
 20
183.9088884204
 30
0.0
  0
VERTEX
  5
38B
  8
0
  6
CONTINUOUS
 62
     7
 10
96.0752884101
 20
183.7038203136
 30
0.0
  0
VERTEX
  5
38C
  8
0
  6
CONTINUOUS
 62
     7
 10
96.2471460258
 20
183.5249083489
 30
0.0
  0
VERTEX
  5
38D
  8
0
  6
CONTINUOUS
 62
     7
 10
96.4658851655
 20
183.3995253337
 30
0.0
  0
VERTEX
  5
38E
  8
0
  6
CONTINUOUS
 62
     7
 10
96.6980446159
 20
183.3468103047
 30
0.0
  0
VERTEX
  5
38F
  8
0
  6
CONTINUOUS
 62
     7
 10
96.9081535596
 20
183.3747359472
 30
0.0
  0
VERTEX
  5
390
  8
0
  6
CONTINUOUS
 62
     7
 10
97.0642158876
 20
183.478912097
 30
0.0
  0
VERTEX
  5
391
  8
0
  6
CONTINUOUS
 62
     7
 10
97.1425758668
 20
183.6433494607
 30
0.0
  0
VERTEX
  5
392
  8
0
  6
CONTINUOUS
 62
     7
 10
97.1380215576
 20
183.8161628444
 30
0.0
  0
SEQEND
  5
4E0
  8
0
  6
CONTINUOUS
 62
     7
  0
POLYLINE
  5
D4
  8
0
  6
CONTINUOUS
 62
     7
 66
     1
 10
0.0
 20
0.0
 30
0.0
  0
VERTEX
  5
393
  8
0
  6
CONTINUOUS
 62
     7
 10
90.3230274443
 20
184.739552748
 30
0.0
  0
VERTEX
  5
394
  8
0
  6
CONTINUOUS
 62
     7
 10
90.2583864254
 20
184.7219478615
 30
0.0
  0
VERTEX
  5
395
  8
0
  6
CONTINUOUS
 62
     7
 10
90.0959964632
 20
184.6172804594
 30
0.0
  0
VERTEX
  5
396
  8
0
  6
CONTINUOUS
 62
     7
 10
90.0121423319
 20
184.4512048736
 30
0.0
  0
VERTEX
  5
397
  8
0
  6
CONTINUOUS
 62
     7
 10
90.0197534296
 20
184.2489504104
 30
0.0
  0
VERTEX
  5
398
  8
0
  6
CONTINUOUS
 62
     7
 10
90.117806525
 20
184.0413620022
 30
0.0
  0
VERTEX
  5
399
  8
0
  6
CONTINUOUS
 62
     7
 10
90.2913844349
 20
183.8601828741
 30
0.0
  0
VERTEX
  5
39A
  8
0
  6
CONTINUOUS
 62
     7
 10
90.5139570542
 20
183.733134175
 30
0.0
  0
VERTEX
  5
39B
  8
0
  6
CONTINUOUS
 62
     7
 10
90.7514708142
 20
183.6796101361
 30
0.0
  0
VERTEX
  5
39C
  8
0
  6
CONTINUOUS
 62
     7
 10
90.9676338929
 20
183.7077053389
 30
0.0
  0
VERTEX
  5
39D
  8
0
  6
CONTINUOUS
 62
     7
 10
91.1295278877
 20
183.8130003024
 30
0.0
  0
VERTEX
  5
39E
  8
0
  6
CONTINUOUS
 62
     7
 10
91.2126112984
 20
183.9793320608
 30
0.0
  0
VERTEX
  5
39F
  8
0
  6
CONTINUOUS
 62
     7
 10
91.207362181
 20
184.1693780545
 30
0.0
  0
SEQEND
  5
4DF
  8
0
  6
CONTINUOUS
 62
     7
  0
POLYLINE
  5
D5
  8
0
  6
CONTINUOUS
 62
     7
 66
     1
 10
0.0
 20
0.0
 30
0.0
  0
VERTEX
  5
3A0
  8
0
  6
CONTINUOUS
 62
     7
 10
84.2112885432
 20
185.0906130661
 30
0.0
  0
VERTEX
  5
3A1
  8
0
  6
CONTINUOUS
 62
     7
 10
84.1609876929
 20
185.0763427014
 30
0.0
  0
VERTEX
  5
3A2
  8
0
  6
CONTINUOUS
 62
     7
 10
83.9925043251
 20
184.9705493412
 30
0.0
  0
VERTEX
  5
3A3
  8
0
  6
CONTINUOUS
 62
     7
 10
83.9036785163
 20
184.8025429038
 30
0.0
  0
VERTEX
  5
3A4
  8
0
  6
CONTINUOUS
 62
     7
 10
83.9082087773
 20
184.5978447519
 30
0.0
  0
VERTEX
  5
3A5
  8
0
  6
CONTINUOUS
 62
     7
 10
84.0055384554
 20
184.387673636
 30
0.0
  0
VERTEX
  5
3A6
  8
0
  6
CONTINUOUS
 62
     7
 10
84.1808720307
 20
184.2041689646
 30
0.0
  0
VERTEX
  5
3A7
  8
0
  6
CONTINUOUS
 62
     7
 10
84.4074036587
 20
184.0754098484
 30
0.0
  0
VERTEX
  5
3A8
  8
0
  6
CONTINUOUS
 62
     7
 10
84.6504710998
 20
184.0210524092
 30
0.0
  0
VERTEX
  5
3A9
  8
0
  6
CONTINUOUS
 62
     7
 10
84.872937291
 20
184.0493164325
 30
0.0
  0
VERTEX
  5
3AA
  8
0
  6
CONTINUOUS
 62
     7
 10
85.0409149945
 20
184.1557535786
 30
0.0
  0
VERTEX
  5
3AB
  8
0
  6
CONTINUOUS
 62
     7
 10
85.1289386364
 20
184.3240235232
 30
0.0
  0
VERTEX
  5
3AC
  8
0
  6
CONTINUOUS
 62
     7
 10
85.1237850714
 20
184.5284502347
 30
0.0
  0
VERTEX
  5
3AD
  8
0
  6
CONTINUOUS
 62
     7
 10
85.1237850714
 20
184.5284502347
 30
0.0
  0
SEQEND
  5
4DE
  8
0
  6
CONTINUOUS
 62
     7
  0
LINE
  5
D6
  8
0
  6
CONTINUOUS
 62
     7
 10
78.8835731056
 20
184.8846899037
 30
0.0
 11
78.8781300533
 21
184.9058681483
 31
0.0
  0
POLYLINE
  5
D7
  8
0
  6
CONTINUOUS
 62
     7
 66
     1
 10
0.0
 20
0.0
 30
0.0
  0
VERTEX
  5
3AE
  8
0
  6
CONTINUOUS
 62
     7
 10
77.9379836973
 20
185.4502543492
 30
0.0
  0
VERTEX
  5
3AF
  8
0
  6
CONTINUOUS
 62
     7
 10
77.9034294619
 20
185.4400463797
 30
0.0
  0
VERTEX
  5
3B0
  8
0
  6
CONTINUOUS
 62
     7
 10
77.7285887547
 20
185.3331034986
 30
0.0
  0
VERTEX
  5
3B1
  8
0
  6
CONTINUOUS
 62
     7
 10
77.6345594285
 20
185.163121278
 30
0.0
  0
VERTEX
  5
3B2
  8
0
  6
CONTINUOUS
 62
     7
 10
77.6358407242
 20
184.9559201397
 30
0.0
  0
VERTEX
  5
3B3
  8
0
  6
CONTINUOUS
 62
     7
 10
77.7323770253
 20
184.7431012383
 30
0.0
  0
VERTEX
  5
3B4
  8
0
  6
CONTINUOUS
 62
     7
 10
77.9094968348
 20
184.5572106889
 30
0.0
  0
VERTEX
  5
3B5
  8
0
  6
CONTINUOUS
 62
     7
 10
78.1401178311
 20
184.4266946629
 30
0.0
  0
VERTEX
  5
3B6
  8
0
  6
CONTINUOUS
 62
     7
 10
78.3889555868
 20
184.3714779443
 30
0.0
  0
VERTEX
  5
3B7
  8
0
  6
CONTINUOUS
 62
     7
 10
78.6179815468
 20
184.3999101391
 30
0.0
  0
VERTEX
  5
3B8
  8
0
  6
CONTINUOUS
 62
     7
 10
78.7923089639
 20
184.5075135321
 30
0.0
  0
VERTEX
  5
3B9
  8
0
  6
CONTINUOUS
 62
     7
 10
78.8855077444
 20
184.6777666393
 30
0.0
  0
VERTEX
  5
3BA
  8
0
  6
CONTINUOUS
 62
     7
 10
78.8835731056
 20
184.8846899037
 30
0.0
  0
VERTEX
  5
3BB
  8
0
  6
CONTINUOUS
 62
     7
 10
78.8835731056
 20
184.8846899037
 30
0.0
  0
SEQEND
  5
4DD
  8
0
  6
CONTINUOUS
 62
     7
  0
LINE
  5
D8
  8
0
  6
CONTINUOUS
 62
     7
 10
72.4773957347
 20
185.2504041646
 30
0.0
 11
72.4670010264
 21
185.2899506473
 31
0.0
  0
POLYLINE
  5
D9
  8
0
  6
CONTINUOUS
 62
     7
 66
     1
 10
0.0
 20
0.0
 30
0.0
  0
VERTEX
  5
3BC
  8
0
  6
CONTINUOUS
 62
     7
 10
71.4966295713
 20
185.8187516542
 30
0.0
  0
VERTEX
  5
3BD
  8
0
  6
CONTINUOUS
 62
     7
 10
71.4793221969
 20
185.8134302709
 30
0.0
  0
VERTEX
  5
3BE
  8
0
  6
CONTINUOUS
 62
     7
 10
71.2978407003
 20
185.7053138862
 30
0.0
  0
VERTEX
  5
3BF
  8
0
  6
CONTINUOUS
 62
     7
 10
71.1983602649
 20
185.533309529
 30
0.0
  0
VERTEX
  5
3C0
  8
0
  6
CONTINUOUS
 62
     7
 10
71.1962142139
 20
185.3235439367
 30
0.0
  0
VERTEX
  5
3C1
  8
0
  6
CONTINUOUS
 62
     7
 10
71.2918823149
 20
185.1080096849
 30
0.0
  0
VERTEX
  5
3C2
  8
0
  6
CONTINUOUS
 62
     7
 10
71.4708219094
 20
184.9196704089
 30
0.0
  0
VERTEX
  5
3C3
  8
0
  6
CONTINUOUS
 62
     7
 10
71.705673691
 20
184.7873487927
 30
0.0
  0
VERTEX
  5
3C4
  8
0
  6
CONTINUOUS
 62
     7
 10
71.9605027471
 20
184.7312461221
 30
0.0
  0
VERTEX
  5
3C5
  8
0
  6
CONTINUOUS
 62
     7
 10
72.1963614628
 20
184.7598454735
 30
0.0
  0
VERTEX
  5
3C6
  8
0
  6
CONTINUOUS
 62
     7
 10
72.3773171384
 20
184.8686400322
 30
0.0
  0
VERTEX
  5
3C7
  8
0
  6
CONTINUOUS
 62
     7
 10
72.4759395997
 20
185.0409228346
 30
0.0
  0
VERTEX
  5
3C8
  8
0
  6
CONTINUOUS
 62
     7
 10
72.4773957347
 20
185.2504041646
 30
0.0
  0
VERTEX
  5
3C9
  8
0
  6
CONTINUOUS
 62
     7
 10
72.4773957347
 20
185.2504041646
 30
0.0
  0
SEQEND
  5
4DC
  8
0
  6
CONTINUOUS
 62
     7
  0
LINE
  5
DA
  8
0
  6
CONTINUOUS
 62
     7
 10
65.8985500062
 20
185.6259756737
 30
0.0
 11
65.8825863261
 21
185.6851576932
 31
0.0
  0
POLYLINE
  5
DB
  8
0
  6
CONTINUOUS
 62
     7
 66
     1
 10
0.0
 20
0.0
 30
0.0
  0
VERTEX
  5
3CA
  8
0
  6
CONTINUOUS
 62
     7
 10
64.8803889809
 20
186.1963950749
 30
0.0
  0
VERTEX
  5
3CB
  8
0
  6
CONTINUOUS
 62
     7
 10
64.6935051062
 20
186.0875714853
 30
0.0
  0
VERTEX
  5
3CC
  8
0
  6
CONTINUOUS
 62
     7
 10
64.5883114689
 20
185.9134970187
 30
0.0
  0
VERTEX
  5
3CD
  8
0
  6
CONTINUOUS
 62
     7
 10
64.5825536065
 20
185.701102949
 30
0.0
  0
VERTEX
  5
3CE
  8
0
  6
CONTINUOUS
 62
     7
 10
64.6772685299
 20
185.4827834483
 30
0.0
  0
VERTEX
  5
3CF
  8
0
  6
CONTINUOUS
 62
     7
 10
64.8580622412
 20
185.2919300813
 30
0.0
  0
VERTEX
  5
3D0
  8
0
  6
CONTINUOUS
 62
     7
 10
65.0972908331
 20
185.1577522832
 30
0.0
  0
VERTEX
  5
3D1
  8
0
  6
CONTINUOUS
 62
     7
 10
65.3583463471
 20
185.1007356146
 30
0.0
  0
VERTEX
  5
3D2
  8
0
  6
CONTINUOUS
 62
     7
 10
65.6013258977
 20
185.1295008409
 30
0.0
  0
VERTEX
  5
3D3
  8
0
  6
CONTINUOUS
 62
     7
 10
65.7892090426
 20
185.2395119653
 30
0.0
  0
VERTEX
  5
3D4
  8
0
  6
CONTINUOUS
 62
     7
 10
65.8935134319
 20
185.4138728975
 30
0.0
  0
VERTEX
  5
3D5
  8
0
  6
CONTINUOUS
 62
     7
 10
65.8985500062
 20
185.6259756737
 30
0.0
  0
VERTEX
  5
3D6
  8
0
  6
CONTINUOUS
 62
     7
 10
65.8985500062
 20
185.6259756737
 30
0.0
  0
SEQEND
  5
4DB
  8
0
  6
CONTINUOUS
 62
     7
  0
POLYLINE
  5
DC
  8
0
  6
CONTINUOUS
 62
     7
 66
     1
 10
0.0
 20
0.0
 30
0.0
  0
VERTEX
  5
3D7
  8
0
  6
CONTINUOUS
 62
     7
 10
180.522719601
 20
123.7689357148
 30
0.0
  0
VERTEX
  5
3D8
  8
0
  6
CONTINUOUS
 62
     7
 10
180.2765281179
 20
124.2482584116
 30
0.0
  0
VERTEX
  5
3D9
  8
0
  6
CONTINUOUS
 62
     7
 10
179.9394984515
 20
124.6785862699
 30
0.0
  0
VERTEX
  5
3DA
  8
0
  6
CONTINUOUS
 62
     7
 10
179.5386577783
 20
125.0255880193
 30
0.0
  0
VERTEX
  5
3DB
  8
0
  6
CONTINUOUS
 62
     7
 10
179.1060332482
 20
125.2615431381
 30
0.0
  0
VERTEX
  5
3DC
  8
0
  6
CONTINUOUS
 62
     7
 10
178.6761989891
 20
125.3674511061
 30
0.0
  0
VERTEX
  5
3DD
  8
0
  6
CONTINUOUS
 62
     7
 10
178.283610601
 20
125.3345440205
 30
0.0
  0
VERTEX
  5
3DE
  8
0
  6
CONTINUOUS
 62
     7
 10
177.9599459337
 20
125.165050768
 30
0.0
  0
VERTEX
  5
3DF
  8
0
  6
CONTINUOUS
 62
     7
 10
177.7315776776
 20
124.8721531869
 30
0.0
  0
VERTEX
  5
3E0
  8
0
  6
CONTINUOUS
 62
     7
 10
177.6173753347
 20
124.4790961285
 30
0.0
  0
VERTEX
  5
3E1
  8
0
  6
CONTINUOUS
 62
     7
 10
177.6270824115
 20
124.0174492189
 30
0.0
  0
VERTEX
  5
3E2
  8
0
  6
CONTINUOUS
 62
     7
 10
177.7603585532
 20
123.5246505126
 30
0.0
  0
VERTEX
  5
3E3
  8
0
  6
CONTINUOUS
 62
     7
 10
178.0066608905
 20
123.0409517422
 30
0.0
  0
VERTEX
  5
3E4
  8
0
  6
CONTINUOUS
 62
     7
 10
178.3460289401
 20
122.606061128
 30
0.0
  0
VERTEX
  5
3E5
  8
0
  6
CONTINUOUS
 62
     7
 10
178.7506895819
 20
122.2557523699
 30
0.0
  0
VERTEX
  5
3E6
  8
0
  6
CONTINUOUS
 62
     7
 10
179.1873996998
 20
122.0188038526
 30
0.0
  0
VERTEX
  5
3E7
  8
0
  6
CONTINUOUS
 62
     7
 10
179.620299461
 20
121.9145265481
 30
0.0
  0
VERTEX
  5
3E8
  8
0
  6
CONTINUOUS
 62
     7
 10
180.0139499656
 20
121.9511719228
 30
0.0
  0
VERTEX
  5
3E9
  8
0
  6
CONTINUOUS
 62
     7
 10
180.3363361864
 20
122.1253241829
 30
0.0
  0
VERTEX
  5
3EA
  8
0
  6
CONTINUOUS
 62
     7
 10
180.5615013899
 20
122.4223209919
 30
0.0
  0
VERTEX
  5
3EB
  8
0
  6
CONTINUOUS
 62
     7
 10
180.6715815326
 20
122.8176210052
 30
0.0
  0
VERTEX
  5
3EC
  8
0
  6
CONTINUOUS
 62
     7
 10
180.6581449481
 20
123.2789345746
 30
0.0
  0
VERTEX
  5
3ED
  8
0
  6
CONTINUOUS
 62
     7
 10
180.522719601
 20
123.7689357148
 30
0.0
  0
SEQEND
  5
4DA
  8
0
  6
CONTINUOUS
 62
     7
  0
POLYLINE
  5
DD
  8
0
  6
CONTINUOUS
 62
     7
 66
     1
 10
0.0
 20
0.0
 30
0.0
  0
VERTEX
  5
3EE
  8
0
  6
CONTINUOUS
 62
     7
 10
57.2175843217
 20
186.1215524842
 30
0.0
  0
VERTEX
  5
3EF
  8
0
  6
CONTINUOUS
 62
     7
 10
57.0427796831
 20
186.6081978644
 30
0.0
  0
VERTEX
  5
3F0
  8
0
  6
CONTINUOUS
 62
     7
 10
56.7173402447
 20
187.0644329892
 30
0.0
  0
VERTEX
  5
3F1
  8
0
  6
CONTINUOUS
 62
     7
 10
56.2674216232
 20
187.4539061492
 30
0.0
  0
VERTEX
  5
3F2
  8
0
  6
CONTINUOUS
 62
     7
 10
55.7288983195
 20
187.7455549497
 30
0.0
  0
VERTEX
  5
3F3
  8
0
  6
CONTINUOUS
 62
     7
 10
55.144672872
 20
187.915961481
 30
0.0
  0
VERTEX
  5
3F4
  8
0
  6
CONTINUOUS
 62
     7
 10
54.5614070132
 20
187.9511927978
 30
0.0
  0
VERTEX
  5
3F5
  8
0
  6
CONTINUOUS
 62
     7
 10
54.0259575551
 20
187.8479628552
 30
0.0
  0
VERTEX
  5
3F6
  8
0
  6
CONTINUOUS
 62
     7
 10
53.5816980445
 20
187.6140340176
 30
0.0
  0
VERTEX
  5
3F7
  8
0
  6
CONTINUOUS
 62
     7
 10
53.2650289715
 20
187.2677817354
 30
0.0
  0
VERTEX
  5
3F8
  8
0
  6
CONTINUOUS
 62
     7
 10
53.1022889911
 20
186.836881469
 30
0.0
  0
VERTEX
  5
3F9
  8
0
  6
CONTINUOUS
 62
     7
 10
53.107397937
 20
186.3561937825
 30
0.0
  0
VERTEX
  5
3FA
  8
0
  6
CONTINUOUS
 62
     7
 10
53.2805045531
 20
185.8649577033
 30
0.0
  0
VERTEX
  5
3FB
  8
0
  6
CONTINUOUS
 62
     7
 10
53.6077932292
 20
185.4035148149
 30
0.0
  0
VERTEX
  5
3FC
  8
0
  6
CONTINUOUS
 62
     7
 10
54.0625342337
 20
185.0098731333
 30
0.0
  0
VERTEX
  5
3FD
  8
0
  6
CONTINUOUS
 62
     7
 10
54.6073086865
 20
184.7164171986
 30
0.0
  0
VERTEX
  5
3FE
  8
0
  6
CONTINUOUS
 62
     7
 10
55.1972292229
 20
184.5471386804
 30
0.0
  0
VERTEX
  5
3FF
  8
0
  6
CONTINUOUS
 62
     7
 10
55.7838345902
 20
184.5156118321
 30
0.0
  0
VERTEX
  5
400
  8
0
  6
CONTINUOUS
 62
     7
 10
56.3192077691
 20
184.6239465135
 30
0.0
  0
VERTEX
  5
401
  8
0
  6
CONTINUOUS
 62
     7
 10
56.7599908779
 20
184.8627601897
 30
0.0
  0
VERTEX
  5
402
  8
0
  6
CONTINUOUS
 62
     7
 10
57.0708871761
 20
185.212126522
 30
0.0
  0
VERTEX
  5
403
  8
0
  6
CONTINUOUS
 62
     7
 10
57.227404007
 20
185.64338277
 30
0.0
  0
VERTEX
  5
404
  8
0
  6
CONTINUOUS
 62
     7
 10
57.2175843217
 20
186.1215524842
 30
0.0
  0
SEQEND
  5
4D9
  8
0
  6
CONTINUOUS
 62
     7
  0
LINE
  5
DE
  8
0
  6
CONTINUOUS
 62
     7
 10
158.1992208101
 20
182.5972700673
 30
0.0
 11
107.5265249277
 21
185.7721817391
 31
0.0
  0
LINE
  5
DF
  8
0
  6
CONTINUOUS
 62
     7
 10
106.3202694553
 20
185.8477600069
 30
0.0
 11
104.6601237233
 21
185.9517768935
 31
0.0
  0
LINE
  5
E0
  8
0
  6
CONTINUOUS
 62
     7
 10
103.4527506216
 20
186.0274251867
 30
0.0
 11
101.7573333172
 21
186.1336520233
 31
0.0
  0
LINE
  5
E1
  8
0
  6
CONTINUOUS
 62
     7
 10
100.5486945501
 20
186.2093796171
 30
0.0
 11
98.8174597144
 21
186.317850611
 31
0.0
  0
LINE
  5
E2
  8
0
  6
CONTINUOUS
 62
     7
 10
97.6073947247
 20
186.3936675651
 30
0.0
 11
95.8397914959
 21
186.5044172307
 31
0.0
  0
LINE
  5
E3
  8
0
  6
CONTINUOUS
 62
     7
 10
94.6281252196
 20
186.5803345139
 30
0.0
 11
92.8236010997
 21
186.693397468
 31
0.0
  0
LINE
  5
E4
  8
0
  6
CONTINUOUS
 62
     7
 10
91.6101422124
 20
186.7694270677
 30
0.0
 11
89.7681394218
 21
186.8848382582
 31
0.0
  0
LINE
  5
E5
  8
0
  6
CONTINUOUS
 62
     7
 10
88.5526817732
 20
186.9609930909
 30
0.0
 11
86.6726378098
 21
187.0787877616
 31
0.0
  0
LINE
  5
E6
  8
0
  6
CONTINUOUS
 62
     7
 10
85.4549608608
 20
187.1550816451
 30
0.0
 11
83.5363108077
 21
187.2752951909
 31
0.0
  0
LINE
  5
E7
  8
0
  6
CONTINUOUS
 62
     7
 10
82.3161721839
 20
187.3517433113
 30
0.0
 11
80.3583499945
 21
187.4744111981
 31
0.0
  0
LINE
  5
E8
  8
0
  6
CONTINUOUS
 62
     7
 10
79.1354890252
 20
187.5510298878
 30
0.0
 11
77.1379254648
 21
187.6761877811
 31
0.0
  0
LINE
  5
E9
  8
0
  6
CONTINUOUS
 62
     7
 10
75.9120623292
 20
187.7529945724
 30
0.0
 11
73.8741851101
 21
187.880678329
 31
0.0
  0
LINE
  5
EA
  8
0
  6
CONTINUOUS
 62
     7
 10
72.6450199428
 20
187.95769201
 30
0.0
 11
70.5662538712
 21
188.087937669
 31
0.0
  0
LINE
  5
EB
  8
0
  6
CONTINUOUS
 62
     7
 10
69.3334634303
 20
188.1651784925
 30
0.0
 11
67.2132377903
 21
188.298021812
 31
0.0
  0
LINE
  5
EC
  8
0
  6
CONTINUOUS
 62
     7
 10
65.9764695123
 20
188.375511868
 30
0.0
 11
51.2054431269
 21
189.3009945813
 31
0.0
  0
LINE
  5
ED
  8
0
  6
CONTINUOUS
 62
     7
 10
182.5715092002
 20
120.9752448455
 30
0.0
 11
175.9832948384
 21
137.6326512027
 31
0.0
  0
LINE
  5
EE
  8
0
  6
CONTINUOUS
 62
     7
 10
162.1594236338
 20
172.5844344082
 30
0.0
 11
158.1992208101
 21
182.5972700673
 31
0.0
  0
LINE
  5
EF
  8
0
  6
CONTINUOUS
 62
     7
 10
65.562954054
 20
109.7070477159
 30
0.0
 11
182.5715092002
 21
120.9752448455
 31
0.0
  0
LINE
  5
F0
  8
0
  6
CONTINUOUS
 62
     7
 10
51.2054431269
 20
189.3009945813
 30
0.0
 11
65.562954054
 21
109.7070477159
 31
0.0
  0
POLYLINE
  5
F1
  8
0
  6
CONTINUOUS
 62
     7
 66
     1
 10
0.0
 20
0.0
 30
0.0
  0
VERTEX
  5
405
  8
0
  6
CONTINUOUS
 62
     7
 10
155.6176587944
 20
180.5041134998
 30
0.0
  0
VERTEX
  5
406
  8
0
  6
CONTINUOUS
 62
     7
 10
155.823776566
 20
180.108282389
 30
0.0
  0
VERTEX
  5
407
  8
0
  6
CONTINUOUS
 62
     7
 10
156.1203361872
 20
179.7381471122
 30
0.0
  0
VERTEX
  5
408
  8
0
  6
CONTINUOUS
 62
     7
 10
156.4830999047
 20
179.4240962754
 30
0.0
  0
VERTEX
  5
409
  8
0
  6
CONTINUOUS
 62
     7
 10
156.8823114118
 20
179.1918861837
 30
0.0
  0
VERTEX
  5
40A
  8
0
  6
CONTINUOUS
 62
     7
 10
157.2852270244
 20
179.0604639964
 30
0.0
  0
VERTEX
  5
40B
  8
0
  6
CONTINUOUS
 62
     7
 10
157.6588840051
 20
179.0403819658
 30
0.0
  0
VERTEX
  5
40C
  8
0
  6
CONTINUOUS
 62
     7
 10
157.972883827
 20
179.13297735
 30
0.0
  0
VERTEX
  5
40D
  8
0
  6
CONTINUOUS
 62
     7
 10
158.2018968617
 20
179.3303571303
 30
0.0
  0
VERTEX
  5
40E
  8
0
  6
CONTINUOUS
 62
     7
 10
158.3276671827
 20
179.616158706
 30
0.0
  0
VERTEX
  5
40F
  8
0
  6
CONTINUOUS
 62
     7
 10
158.3404017676
 20
179.967001602
 30
0.0
  0
VERTEX
  5
410
  8
0
  6
CONTINUOUS
 62
     7
 10
158.2394458752
 20
180.3544415709
 30
0.0
  0
VERTEX
  5
411
  8
0
  6
CONTINUOUS
 62
     7
 10
158.0332072383
 20
180.747289462
 30
0.0
  0
VERTEX
  5
412
  8
0
  6
CONTINUOUS
 62
     7
 10
157.7384057057
 20
181.114069488
 30
0.0
  0
VERTEX
  5
413
  8
0
  6
CONTINUOUS
 62
     7
 10
157.3787142362
 20
181.4254615647
 30
0.0
  0
VERTEX
  5
414
  8
0
  6
CONTINUOUS
 62
     7
 10
156.9829143497
 20
181.656551783
 30
0.0
  0
VERTEX
  5
415
  8
0
  6
CONTINUOUS
 62
     7
 10
156.5826752896
 20
181.7887480641
 30
0.0
  0
VERTEX
  5
416
  8
0
  6
CONTINUOUS
 62
     7
 10
156.2101012844
 20
181.8112528492
 30
0.0
  0
VERTEX
  5
417
  8
0
  6
CONTINUOUS
 62
     7
 10
155.895247048
 20
181.7219596543
 30
0.0
  0
VERTEX
  5
418
  8
0
  6
CONTINUOUS
 62
     7
 10
155.6637222221
 20
181.5277125997
 30
0.0
  0
VERTEX
  5
419
  8
0
  6
CONTINUOUS
 62
     7
 10
155.5345714623
 20
181.2438801843
 30
0.0
  0
VERTEX
  5
41A
  8
0
  6
CONTINUOUS
 62
     7
 10
155.5186603606
 20
180.8932194207
 30
0.0
  0
VERTEX
  5
41B
  8
0
  6
CONTINUOUS
 62
     7
 10
155.6176587944
 20
180.5041134998
 30
0.0
  0
SEQEND
  5
4D8
  8
0
  6
CONTINUOUS
 62
     7
  0
POLYLINE
  5
F2
  8
0
  6
CONTINUOUS
 62
     7
 66
     1
 10
0.0
 20
0.0
 30
0.0
  0
VERTEX
  5
41C
  8
0
  6
CONTINUOUS
 62
     7
 10
66.4214719617
 20
113.6785652417
 30
0.0
  0
VERTEX
  5
41D
  8
0
  6
CONTINUOUS
 62
     7
 10
66.6331046369
 20
113.0446652116
 30
0.0
  0
VERTEX
  5
41E
  8
0
  6
CONTINUOUS
 62
     7
 10
67.0158569407
 20
112.4781467571
 30
0.0
  0
VERTEX
  5
41F
  8
0
  6
CONTINUOUS
 62
     7
 10
67.5384189822
 20
112.0258242321
 30
0.0
  0
VERTEX
  5
420
  8
0
  6
CONTINUOUS
 62
     7
 10
68.1576907706
 20
111.7250048358
 30
0.0
  0
VERTEX
  5
421
  8
0
  6
CONTINUOUS
 62
     7
 10
68.822529941
 20
111.6002357458
 30
0.0
  0
VERTEX
  5
422
  8
0
  6
CONTINUOUS
 62
     7
 10
69.4782213558
 20
111.6612748078
 30
0.0
  0
VERTEX
  5
423
  8
0
  6
CONTINUOUS
 62
     7
 10
70.0711606597
 20
111.9024066741
 30
0.0
  0
VERTEX
  5
424
  8
0
  6
CONTINUOUS
 62
     7
 10
70.5533591581
 20
112.3031553321
 30
0.0
  0
VERTEX
  5
425
  8
0
  6
CONTINUOUS
 62
     7
 10
70.8863066051
 20
112.830248816
 30
0.0
  0
VERTEX
  5
426
  8
0
  6
CONTINUOUS
 62
     7
 10
71.0439351609
 20
113.4405574434
 30
0.0
  0
VERTEX
  5
427
  8
0
  6
CONTINUOUS
 62
     7
 10
71.0144013806
 20
114.0847339765
 30
0.0
  0
VERTEX
  5
428
  8
0
  6
CONTINUOUS
 62
     7
 10
70.8007948426
 20
114.7111671019
 30
0.0
  0
VERTEX
  5
429
  8
0
  6
CONTINUOUS
 62
     7
 10
70.4206380533
 20
115.2699839496
 30
0.0
  0
VERTEX
  5
42A
  8
0
  6
CONTINUOUS
 62
     7
 10
69.9044335444
 20
115.7168092821
 30
0.0
  0
VERTEX
  5
42B
  8
0
  6
CONTINUOUS
 62
     7
 10
69.2932455569
 20
116.0160903519
 30
0.0
  0
VERTEX
  5
42C
  8
0
  6
CONTINUOUS
 62
     7
 10
68.6356511179
 20
116.1437607442
 30
0.0
  0
VERTEX
  5
42D
  8
0
  6
CONTINUOUS
 62
     7
 10
67.984074345
 20
116.0891450364
 30
0.0
  0
VERTEX
  5
42E
  8
0
  6
CONTINUOUS
 62
     7
 10
67.3908133344
 20
115.8559191399
 30
0.0
  0
VERTEX
  5
42F
  8
0
  6
CONTINUOUS
 62
     7
 10
66.9039499246
 20
115.4620454224
 30
0.0
  0
VERTEX
  5
430
  8
0
  6
CONTINUOUS
 62
     7
 10
66.5634740098
 20
114.9386207265
 30
0.0
  0
VERTEX
  5
431
  8
0
  6
CONTINUOUS
 62
     7
 10
66.3978607588
 20
114.3276009624
 30
0.0
  0
VERTEX
  5
432
  8
0
  6
CONTINUOUS
 62
     7
 10
66.4214719617
 20
113.6785652417
 30
0.0
  0
SEQEND
  5
4D7
  8
0
  6
CONTINUOUS
 62
     7
  0
LINE
  5
F3
  8
0
  6
CONTINUOUS
 62
     7
 10
69.2099916166
 20
185.4369329184
 30
0.0
 11
69.1968916465
 21
185.4861378636
 31
0.0
  0
POLYLINE
  5
F4
  8
0
  6
CONTINUOUS
 62
     7
 66
     1
 10
0.0
 20
0.0
 30
0.0
  0
VERTEX
  5
433
  8
0
  6
CONTINUOUS
 62
     7
 10
68.2108100708
 20
186.0064112031
 30
0.0
  0
VERTEX
  5
434
  8
0
  6
CONTINUOUS
 62
     7
 10
68.2027199702
 20
186.0038739293
 30
0.0
  0
VERTEX
  5
435
  8
0
  6
CONTINUOUS
 62
     7
 10
68.0178076866
 20
185.895161529
 30
0.0
  0
VERTEX
  5
436
  8
0
  6
CONTINUOUS
 62
     7
 10
67.9155043579
 20
185.7221282178
 30
0.0
  0
VERTEX
  5
437
  8
0
  6
CONTINUOUS
 62
     7
 10
67.9115764561
 20
185.5110565203
 30
0.0
  0
VERTEX
  5
438
  8
0
  6
CONTINUOUS
 62
     7
 10
68.0067786551
 20
185.2941385658
 30
0.0
  0
VERTEX
  5
439
  8
0
  6
CONTINUOUS
 62
     7
 10
68.1866409672
 20
185.1045505774
 30
0.0
  0
VERTEX
  5
43A
  8
0
  6
CONTINUOUS
 62
     7
 10
68.4236624541
 20
184.971307326
 30
0.0
  0
VERTEX
  5
43B
  8
0
  6
CONTINUOUS
 62
     7
 10
68.6815745695
 20
184.914751243
 30
0.0
  0
VERTEX
  5
43C
  8
0
  6
CONTINUOUS
 62
     7
 10
68.9209567095
 20
184.9434337097
 30
0.0
  0
VERTEX
  5
43D
  8
0
  6
CONTINUOUS
 62
     7
 10
69.1053379678
 20
185.0528333124
 30
0.0
  0
VERTEX
  5
43E
  8
0
  6
CONTINUOUS
 62
     7
 10
69.2067678822
 20
185.2261490364
 30
0.0
  0
VERTEX
  5
43F
  8
0
  6
CONTINUOUS
 62
     7
 10
69.2099916166
 20
185.4369329184
 30
0.0
  0
VERTEX
  5
440
  8
0
  6
CONTINUOUS
 62
     7
 10
69.2099916166
 20
185.4369329184
 30
0.0
  0
SEQEND
  5
4D6
  8
0
  6
CONTINUOUS
 62
     7
  0
LINE
  5
F5
  8
0
  6
CONTINUOUS
 62
     7
 10
75.7016397103
 20
185.0663393262
 30
0.0
 11
75.6937938921
 21
185.0965457962
 31
0.0
  0
POLYLINE
  5
F6
  8
0
  6
CONTINUOUS
 62
     7
 66
     1
 10
0.0
 20
0.0
 30
0.0
  0
VERTEX
  5
441
  8
0
  6
CONTINUOUS
 62
     7
 10
74.7387315815
 20
185.6333784833
 30
0.0
  0
VERTEX
  5
442
  8
0
  6
CONTINUOUS
 62
     7
 10
74.7126075823
 20
185.625504287
 30
0.0
  0
VERTEX
  5
443
  8
0
  6
CONTINUOUS
 62
     7
 10
74.5344802435
 20
185.5179778487
 30
0.0
  0
VERTEX
  5
444
  8
0
  6
CONTINUOUS
 62
     7
 10
74.4377595523
 20
185.346990317
 30
0.0
  0
VERTEX
  5
445
  8
0
  6
CONTINUOUS
 62
     7
 10
74.437351027
 20
185.1385147242
 30
0.0
  0
VERTEX
  5
446
  8
0
  6
CONTINUOUS
 62
     7
 10
74.5334620138
 20
184.9243468041
 30
0.0
  0
VERTEX
  5
447
  8
0
  6
CONTINUOUS
 62
     7
 10
74.7114851127
 20
184.7372400345
 30
0.0
  0
VERTEX
  5
448
  8
0
  6
CONTINUOUS
 62
     7
 10
74.944206049
 20
184.6058272745
 30
0.0
  0
VERTEX
  5
449
  8
0
  6
CONTINUOUS
 62
     7
 10
75.1960108224
 20
184.550171006
 30
0.0
  0
VERTEX
  5
44A
  8
0
  6
CONTINUOUS
 62
     7
 10
75.4284181173
 20
184.578686922
 30
0.0
  0
VERTEX
  5
44B
  8
0
  6
CONTINUOUS
 62
     7
 10
75.606024767
 20
184.6868826867
 30
0.0
  0
VERTEX
  5
44C
  8
0
  6
CONTINUOUS
 62
     7
 10
75.7019025491
 20
184.8581447746
 30
0.0
  0
VERTEX
  5
44D
  8
0
  6
CONTINUOUS
 62
     7
 10
75.7016397103
 20
185.0663393262
 30
0.0
  0
VERTEX
  5
44E
  8
0
  6
CONTINUOUS
 62
     7
 10
75.7016397103
 20
185.0663393262
 30
0.0
  0
SEQEND
  5
4D5
  8
0
  6
CONTINUOUS
 62
     7
  0
LINE
  5
F7
  8
0
  6
CONTINUOUS
 62
     7
 10
82.0240187553
 20
184.7054089234
 30
0.0
 11
82.0208494935
 21
184.7178618327
 31
0.0
  0
POLYLINE
  5
F8
  8
0
  6
CONTINUOUS
 62
     7
 66
     1
 10
0.0
 20
0.0
 30
0.0
  0
VERTEX
  5
44F
  8
0
  6
CONTINUOUS
 62
     7
 10
81.0952299628
 20
185.2693449329
 30
0.0
  0
VERTEX
  5
450
  8
0
  6
CONTINUOUS
 62
     7
 10
81.0526189034
 20
185.2570082454
 30
0.0
  0
VERTEX
  5
451
  8
0
  6
CONTINUOUS
 62
     7
 10
80.8809921899
 20
185.1506430299
 30
0.0
  0
VERTEX
  5
452
  8
0
  6
CONTINUOUS
 62
     7
 10
80.7895947035
 20
184.9816543966
 30
0.0
  0
VERTEX
  5
453
  8
0
  6
CONTINUOUS
 62
     7
 10
80.7925218345
 20
184.7757123134
 30
0.0
  0
VERTEX
  5
454
  8
0
  6
CONTINUOUS
 62
     7
 10
80.8894641521
 20
184.5642255757
 30
0.0
  0
VERTEX
  5
455
  8
0
  6
CONTINUOUS
 62
     7
 10
81.065686699
 20
184.3795356691
 30
0.0
  0
VERTEX
  5
456
  8
0
  6
CONTINUOUS
 62
     7
 10
81.2942448967
 20
184.2499041077
 30
0.0
  0
VERTEX
  5
457
  8
0
  6
CONTINUOUS
 62
     7
 10
81.5401714366
 20
184.1951202401
 30
0.0
  0
VERTEX
  5
458
  8
0
  6
CONTINUOUS
 62
     7
 10
81.7658842932
 20
184.2234684603
 30
0.0
  0
VERTEX
  5
459
  8
0
  6
CONTINUOUS
 62
     7
 10
81.9370026936
 20
184.3304856775
 30
0.0
  0
VERTEX
  5
45A
  8
0
  6
CONTINUOUS
 62
     7
 10
82.0275839973
 20
184.4997414695
 30
0.0
  0
VERTEX
  5
45B
  8
0
  6
CONTINUOUS
 62
     7
 10
82.0240187553
 20
184.7054089234
 30
0.0
  0
VERTEX
  5
45C
  8
0
  6
CONTINUOUS
 62
     7
 10
82.0240187553
 20
184.7054089234
 30
0.0
  0
SEQEND
  5
4D4
  8
0
  6
CONTINUOUS
 62
     7
  0
POLYLINE
  5
F9
  8
0
  6
CONTINUOUS
 62
     7
 66
     1
 10
0.0
 20
0.0
 30
0.0
  0
VERTEX
  5
45D
  8
0
  6
CONTINUOUS
 62
     7
 10
87.2869614921
 20
184.9140281626
 30
0.0
  0
VERTEX
  5
45E
  8
0
  6
CONTINUOUS
 62
     7
 10
87.229319941
 20
184.8980041732
 30
0.0
  0
VERTEX
  5
45F
  8
0
  6
CONTINUOUS
 62
     7
 10
87.0639156636
 20
184.7927766785
 30
0.0
  0
VERTEX
  5
460
  8
0
  6
CONTINUOUS
 62
     7
 10
86.9776030335
 20
184.6257412369
 30
0.0
  0
VERTEX
  5
461
  8
0
  6
CONTINUOUS
 62
     7
 10
86.9836949557
 20
184.4222721616
 30
0.0
  0
VERTEX
  5
462
  8
0
  6
CONTINUOUS
 62
     7
 10
87.0813939569
 20
184.2134004314
 30
0.0
  0
VERTEX
  5
463
  8
0
  6
CONTINUOUS
 62
     7
 10
87.2558467556
 20
184.0310658819
 30
0.0
  0
VERTEX
  5
464
  8
0
  6
CONTINUOUS
 62
     7
 10
87.4803826819
 20
183.9031676855
 30
0.0
  0
VERTEX
  5
465
  8
0
  6
CONTINUOUS
 62
     7
 10
87.7206463357
 20
183.8492301406
 30
0.0
  0
VERTEX
  5
466
  8
0
  6
CONTINUOUS
 62
     7
 10
87.9399305636
 20
183.8774097742
 30
0.0
  0
VERTEX
  5
467
  8
0
  6
CONTINUOUS
 62
     7
 10
88.1048340564
 20
183.983272865
 30
0.0
  0
VERTEX
  5
468
  8
0
  6
CONTINUOUS
 62
     7
 10
88.1903581991
 20
184.1505682365
 30
0.0
  0
VERTEX
  5
469
  8
0
  6
CONTINUOUS
 62
     7
 10
88.1836573688
 20
184.3537690058
 30
0.0
  0
VERTEX
  5
46A
  8
0
  6
CONTINUOUS
 62
     7
 10
88.1836573688
 20
184.3537690058
 30
0.0
  0
SEQEND
  5
4D3
  8
0
  6
CONTINUOUS
 62
     7
  0
POLYLINE
  5
FA
  8
0
  6
CONTINUOUS
 62
     7
 66
     1
 10
0.0
 20
0.0
 30
0.0
  0
VERTEX
  5
46B
  8
0
  6
CONTINUOUS
 62
     7
 10
93.3202478098
 20
184.5671559899
 30
0.0
  0
VERTEX
  5
46C
  8
0
  6
CONTINUOUS
 62
     7
 10
93.2489360861
 20
184.5481302362
 30
0.0
  0
VERTEX
  5
46D
  8
0
  6
CONTINUOUS
 62
     7
 10
93.0894973807
 20
184.444017236
 30
0.0
  0
VERTEX
  5
46E
  8
0
  6
CONTINUOUS
 62
     7
 10
93.0080430811
 20
184.278890868
 30
0.0
  0
VERTEX
  5
46F
  8
0
  6
CONTINUOUS
 62
     7
 10
93.0171375644
 20
184.0778364902
 30
0.0
  0
VERTEX
  5
470
  8
0
  6
CONTINUOUS
 62
     7
 10
93.1155245544
 20
183.8715159455
 30
0.0
  0
VERTEX
  5
471
  8
0
  6
CONTINUOUS
 62
     7
 10
93.2882389143
 20
183.6914775041
 30
0.0
  0
VERTEX
  5
472
  8
0
  6
CONTINUOUS
 62
     7
 10
93.5088798728
 20
183.5652671053
 30
0.0
  0
VERTEX
  5
473
  8
0
  6
CONTINUOUS
 62
     7
 10
93.7436908113
 20
183.5121506302
 30
0.0
  0
VERTEX
  5
474
  8
0
  6
CONTINUOUS
 62
     7
 10
93.956798553
 20
183.5401610171
 30
0.0
  0
VERTEX
  5
475
  8
0
  6
CONTINUOUS
 62
     7
 10
94.1157449577
 20
183.6448937563
 30
0.0
  0
VERTEX
  5
476
  8
0
  6
CONTINUOUS
 62
     7
 10
94.1964393394
 20
183.8102729894
 30
0.0
  0
VERTEX
  5
477
  8
0
  6
CONTINUOUS
 62
     7
 10
94.1915635351
 20
183.9915590189
 30
0.0
  0
SEQEND
  5
4D2
  8
0
  6
CONTINUOUS
 62
     7
  0
POLYLINE
  5
FB
  8
0
  6
CONTINUOUS
 62
     7
 66
     1
 10
0.0
 20
0.0
 30
0.0
  0
VERTEX
  5
478
  8
0
  6
CONTINUOUS
 62
     7
 10
99.2010990896
 20
184.2284695222
 30
0.0
  0
VERTEX
  5
479
  8
0
  6
CONTINUOUS
 62
     7
 10
99.1173866586
 20
184.2070423901
 30
0.0
  0
VERTEX
  5
47A
  8
0
  6
CONTINUOUS
 62
     7
 10
98.9636689457
 20
184.1040213822
 30
0.0
  0
VERTEX
  5
47B
  8
0
  6
CONTINUOUS
 62
     7
 10
98.8868564784
 20
183.9407615476
 30
0.0
  0
VERTEX
  5
47C
  8
0
  6
CONTINUOUS
 62
     7
 10
98.8988025823
 20
183.7420654601
 30
0.0
  0
VERTEX
  5
47D
  8
0
  6
CONTINUOUS
 62
     7
 10
98.997811171
 20
183.5382347043
 30
0.0
  0
VERTEX
  5
47E
  8
0
  6
CONTINUOUS
 62
     7
 10
99.168819863
 20
183.3604352091
 30
0.0
  0
VERTEX
  5
47F
  8
0
  6
CONTINUOUS
 62
     7
 10
99.3856884908
 20
183.2358687529
 30
0.0
  0
VERTEX
  5
480
  8
0
  6
CONTINUOUS
 62
     7
 10
99.6152433081
 20
183.183549364
 30
0.0
  0
VERTEX
  5
481
  8
0
  6
CONTINUOUS
 62
     7
 10
99.8224128418
 20
183.2113901131
 30
0.0
  0
VERTEX
  5
482
  8
0
  6
CONTINUOUS
 62
     7
 10
99.9756497347
 20
183.3150154088
 30
0.0
  0
VERTEX
  5
483
  8
0
  6
CONTINUOUS
 62
     7
 10
100.0517273934
 20
183.4785214448
 30
0.0
  0
VERTEX
  5
484
  8
0
  6
CONTINUOUS
 62
     7
 10
100.0474517248
 20
183.6431417304
 30
0.0
  0
SEQEND
  5
4D1
  8
0
  6
CONTINUOUS
 62
     7
  0
POLYLINE
  5
FC
  8
0
  6
CONTINUOUS
 62
     7
 66
     1
 10
0.0
 20
0.0
 30
0.0
  0
VERTEX
  5
485
  8
0
  6
CONTINUOUS
 62
     7
 10
104.9352286921
 20
183.8977169121
 30
0.0
  0
VERTEX
  5
486
  8
0
  6
CONTINUOUS
 62
     7
 10
104.8402959674
 20
183.8744137369
 30
0.0
  0
VERTEX
  5
487
  8
0
  6
CONTINUOUS
 62
     7
 10
104.6920646581
 20
183.7724630051
 30
0.0
  0
VERTEX
  5
488
  8
0
  6
CONTINUOUS
 62
     7
 10
104.6196900936
 20
183.6110284869
 30
0.0
  0
VERTEX
  5
489
  8
0
  6
CONTINUOUS
 62
     7
 10
104.6343444973
 20
183.4146362694
 30
0.0
  0
VERTEX
  5
48A
  8
0
  6
CONTINUOUS
 62
     7
 10
104.7339133539
 20
183.2132360464
 30
0.0
  0
VERTEX
  5
48B
  8
0
  6
CONTINUOUS
 62
     7
 10
104.9032472936
 20
183.0376205018
 30
0.0
  0
VERTEX
  5
48C
  8
0
  6
CONTINUOUS
 62
     7
 10
105.116463345
 20
182.9146556733
 30
0.0
  0
VERTEX
  5
48D
  8
0
  6
CONTINUOUS
 62
     7
 10
105.3409475662
 20
182.8631104904
 30
0.0
  0
VERTEX
  5
48E
  8
0
  6
CONTINUOUS
 62
     7
 10
105.5424080907
 20
182.8907812362
 30
0.0
  0
VERTEX
  5
48F
  8
0
  6
CONTINUOUS
 62
     7
 10
105.6901663512
 20
182.9933215638
 30
0.0
  0
VERTEX
  5
490
  8
0
  6
CONTINUOUS
 62
     7
 10
105.7618300635
 20
183.1549958791
 30
0.0
  0
VERTEX
  5
491
  8
0
  6
CONTINUOUS
 62
     7
 10
105.7580014476
 20
183.3040375185
 30
0.0
  0
SEQEND
  5
4D0
  8
0
  6
CONTINUOUS
 62
     7
  0
POLYLINE
  5
FD
  8
0
  6
CONTINUOUS
 62
     7
 66
     1
 10
0.0
 20
0.0
 30
0.0
  0
VERTEX
  5
492
  8
0
  6
CONTINUOUS
 62
     7
 10
111.3143466129
 20
183.0332899696
 30
0.0
  0
VERTEX
  5
493
  8
0
  6
CONTINUOUS
 62
     7
 10
111.2142436277
 20
183.2317322319
 30
0.0
  0
VERTEX
  5
494
  8
0
  6
CONTINUOUS
 62
     7
 10
111.0470187473
 20
183.4046395567
 30
0.0
  0
VERTEX
  5
495
  8
0
  6
CONTINUOUS
 62
     7
 10
110.8380304346
 20
183.5258116134
 30
0.0
  0
VERTEX
  5
496
  8
0
  6
CONTINUOUS
 62
     7
 10
110.6189469846
 20
183.5768495706
 30
0.0
  0
VERTEX
  5
497
  8
0
  6
CONTINUOUS
 62
     7
 10
110.4230108312
 20
183.5499335074
 30
0.0
  0
VERTEX
  5
498
  8
0
  6
CONTINUOUS
 62
     7
 10
110.2800454727
 20
183.4490318136
 30
0.0
  0
VERTEX
  5
499
  8
0
  6
CONTINUOUS
 62
     7
 10
110.211915605
 20
183.2893827254
 30
0.0
  0
VERTEX
  5
49A
  8
0
  6
CONTINUOUS
 62
     7
 10
110.2291422638
 20
183.0952418457
 30
0.0
  0
VERTEX
  5
49B
  8
0
  6
CONTINUOUS
 62
     7
 10
110.3292146175
 20
182.8962149504
 30
0.0
  0
VERTEX
  5
49C
  8
0
  6
CONTINUOUS
 62
     7
 10
110.496903999
 20
182.7227303626
 30
0.0
  0
VERTEX
  5
49D
  8
0
  6
CONTINUOUS
 62
     7
 10
110.7065797215
 20
182.6013265786
 30
0.0
  0
VERTEX
  5
49E
  8
0
  6
CONTINUOUS
 62
     7
 10
110.9261721952
 20
182.550533555
 30
0.0
  0
VERTEX
  5
49F
  8
0
  6
CONTINUOUS
 62
     7
 10
111.1221388531
 20
182.5780342609
 30
0.0
  0
VERTEX
  5
4A0
  8
0
  6
CONTINUOUS
 62
     7
 10
111.2646402831
 20
182.6795113025
 30
0.0
  0
VERTEX
  5
4A1
  8
0
  6
CONTINUOUS
 62
     7
 10
111.332082169
 20
182.8393940295
 30
0.0
  0
VERTEX
  5
4A2
  8
0
  6
CONTINUOUS
 62
     7
 10
111.3143466129
 20
183.0332899696
 30
0.0
  0
SEQEND
  5
4CF
  8
0
  6
CONTINUOUS
 62
     7
  0
LINE
  5
FE
  8
0
  6
CONTINUOUS
 62
     7
 10
51.2054431269
 20
189.3009945813
 30
0.0
 11
50.6570423602
 21
188.0208485805
 31
0.0
  0
LINE
  5
FF
  8
0
  6
CONTINUOUS
 62
     7
 10
65.562954054
 20
109.7070477159
 30
0.0
 11
64.8205601417
 21
108.7985341123
 31
0.0
  0
LINE
  5
100
  8
0
  6
CONTINUOUS
 62
     7
 10
50.6570423602
 20
188.0208485805
 30
0.0
 11
64.8205601417
 21
108.7985341123
 31
0.0
  0
LINE
  5
101
  8
0
  6
CONTINUOUS
 62
     7
 10
182.5715092002
 20
120.9752448455
 30
0.0
 11
181.3511603856
 21
120.2174293322
 31
0.0
  0
LINE
  5
102
  8
0
  6
CONTINUOUS
 62
     7
 10
64.8205601417
 20
108.7985341123
 30
0.0
 11
181.3511603856
 21
120.2174293322
 31
0.0
  0
ARC
  5
103
  8
0
  6
CONTINUOUS
 62
     7
 10
67.8203644153
 20
112.7657637657
 30
0.0
 40
2.448317687686672
 50
338.8635241491
 51
120.6904156098
  0
LINE
  5
104
  8
0
  6
CONTINUOUS
 62
     7
 10
164.798151241
 20
172.4837677148
 30
0.0
 11
58.8985518967
 21
176.5238045529
 31
0.0
  0
LINE
  5
105
  8
0
  6
CONTINUOUS
 62
     7
 10
178.1412311396
 20
139.1836246222
 30
0.0
 11
164.798151241
 21
172.4837677148
 31
0.0
  0
LINE
  5
106
  8
0
  6
CONTINUOUS
 62
     7
 10
67.0490367872
 20
133.8976756595
 30
0.0
 11
178.1412311396
 21
139.1836246222
 31
0.0
  0
LINE
  5
107
  8
0
  6
CONTINUOUS
 62
     7
 10
58.8985518967
 20
176.5238045529
 30
0.0
 11
67.0490367872
 21
133.8976756595
 31
0.0
  0
LINE
  5
108
  8
0
  6
CONTINUOUS
 62
     7
 10
168.3417125424
 20
143.8615825323
 30
0.0
 11
158.9297785539
 21
168.2605441037
 31
0.0
  0
ARC
  5
109
  8
0
  6
CONTINUOUS
 62
     7
 10
157.4098508482
 20
167.6854828297
 30
0.0
 40
1.625077136468334
 50
20.7240252831
 51
82.8760399402
  0
LINE
  5
10A
  8
0
  6
CONTINUOUS
 62
     7
 10
157.6113871314
 20
169.2980146359
 30
0.0
 11
73.1618105068
 21
171.7947344136
 31
0.0
  0
ARC
  5
10B
  8
0
  6
CONTINUOUS
 62
     7
 10
73.0261508003
 20
170.8158218287
 30
0.0
 40
0.9882678811755203
 50
82.1100862353
 51
191.8479935316
  0
LINE
  5
10C
  8
0
  6
CONTINUOUS
 62
     7
 10
72.0589372249
 20
170.612914696
 30
0.0
 11
78.4791507962
 21
140.7641841752
 31
0.0
  0
ARC
  5
10D
  8
0
  6
CONTINUOUS
 62
     7
 10
80.1747288637
 20
141.1865419938
 30
0.0
 40
1.747389799070284
 50
193.9873605597
 51
271.1084312711
  0
LINE
  5
10E
  8
0
  6
CONTINUOUS
 62
     7
 10
80.2085313654
 20
139.4394791727
 30
0.0
 11
167.8187631856
 21
142.7116899046
 31
0.0
  0
POLYLINE
  5
10F
  8
0
  6
CONTINUOUS
 62
     7
 66
     1
 10
0.0
 20
0.0
 30
0.0
  0
VERTEX
  5
4A3
  8
0
  6
CONTINUOUS
 62
     7
 10
167.8187631856
 20
142.7116899046
 30
0.0
  0
VERTEX
  5
4A4
  8
0
  6
CONTINUOUS
 62
     7
 10
167.9967458436
 20
142.7401447444
 30
0.0
  0
VERTEX
  5
4A5
  8
0
  6
CONTINUOUS
 62
     7
 10
168.1511912929
 20
142.8104460491
 30
0.0
  0
VERTEX
  5
4A6
  8
0
  6
CONTINUOUS
 62
     7
 10
168.2761800865
 20
142.919812697
 30
0.0
  0
VERTEX
  5
4A7
  8
0
  6
CONTINUOUS
 62
     7
 10
168.3669650018
 20
143.0639673264
 30
0.0
  0
VERTEX
  5
4A8
  8
0
  6
CONTINUOUS
 62
     7
 10
168.4201210862
 20
143.2373076546
 30
0.0
  0
VERTEX
  5
4A9
  8
0
  6
CONTINUOUS
 62
     7
 10
168.4336755798
 20
143.4331363167
 30
0.0
  0
VERTEX
  5
4AA
  8
0
  6
CONTINUOUS
 62
     7
 10
168.4071800118
 20
143.6439195365
 30
0.0
  0
VERTEX
  5
4AB
  8
0
  6
CONTINUOUS
 62
     7
 10
168.3417125424
 20
143.8615825323
 30
0.0
  0
SEQEND
  5
4CE
  8
0
  6
CONTINUOUS
 62
     7
  0
LINE
  5
110
  8
0
  6
CONTINUOUS
 62
     7
 10
58.8985518967
 20
176.5238045529
 30
0.0
 11
57.0066984637
 21
172.7184922155
 31
0.0
  0
LINE
  5
111
  8
0
  6
CONTINUOUS
 62
     7
 10
67.0490367872
 20
133.8976756595
 30
0.0
 11
64.8231059293
 21
130.6917491698
 31
0.0
  0
LINE
  5
112
  8
0
  6
CONTINUOUS
 62
     7
 10
178.1412311396
 20
139.1836246222
 30
0.0
 11
174.5444346211
 21
136.5985009963
 31
0.0
  0
ARC
  5
113
  8
0
  6
CONTINUOUS
 62
     7
 10
72.6456464437
 20
169.7676982309
 30
0.0
 40
1.249171001271563
 50
87.2745107561
 51
119.0134941267
  0
LINE
  5
114
  8
0
  6
CONTINUOUS
 62
     7
 10
156.9418860436
 20
168.6618947475
 30
0.0
 11
72.7050455534
 21
171.0154561946
 31
0.0
  0
ARC
  5
115
  8
0
  6
CONTINUOUS
 62
     7
 10
156.7447560971
 20
167.059234943
 30
0.0
 40
1.614737955370349
 50
20.6316355107
 51
82.9877416218
  0
LINE
  5
116
  8
0
  6
CONTINUOUS
 62
     7
 10
167.6014474635
 20
143.287129392
 30
0.0
 11
158.255933037
 21
167.6282014807
 31
0.0
  0
ARC
  5
117
  8
0
  6
CONTINUOUS
 62
     7
 10
166.4958582956
 20
142.8316391187
 30
0.0
 40
1.195741944287162
 50
354.0022121886
 51
22.3911088665
  0
LINE
  5
118
  8
0
  6
CONTINUOUS
 62
     7
 10
72.7050455534
 20
171.0154561946
 30
0.0
 11
73.1618105068
 21
171.7947344136
 31
0.0
  0
LINE
  5
119
  8
0
  6
CONTINUOUS
 62
     7
 10
156.9418860436
 20
168.6618947475
 30
0.0
 11
157.6113871314
 21
169.2980146359
 31
0.0
  0
ARC
  5
11A
  8
0
  6
CONTINUOUS
 62
     7
 10
54.2428933015
 20
184.1987046432
 30
0.0
 40
2.483257302512774
 50
15.6248494345
 51
117.3962302732
  0
LINE
  5
11B
  8
0
  6
CONTINUOUS
 62
     7
 10
167.6014474635
 20
143.287129392
 30
0.0
 11
168.3417125424
 21
143.8615825323
 31
0.0
  0
ARC
  5
11C
  8
0
  6
CONTINUOUS
 62
     7
 10
176.9800875987
 20
122.1767586942
 30
0.0
 40
2.477067553371047
 50
19.3547186071
 51
74.377919066
  0
ARC
  5
11D
  8
0
  6
CONTINUOUS
 62
     7
 10
177.6099303742
 20
122.2538251962
 30
0.0
 40
1.862254142741026
 50
350.5992443084
 51
23.5436282176
  0
LINE
  5
11E
  8
0
  6
CONTINUOUS
 62
     7
 10
158.255933037
 20
167.6282014807
 30
0.0
 11
158.9297785539
 21
168.2605441037
 31
0.0
  0
ARC
  5
11F
  8
0
  6
CONTINUOUS
 62
     7
 10
155.124995392
 20
178.5712454862
 30
0.0
 40
2.286808394890721
 50
12.6059743153
 51
79.6951410104
  0
POLYLINE
  5
120
  8
0
  6
CONTINUOUS
 62
     8
 66
     1
 10
0.0
 20
0.0
 30
0.0
  0
VERTEX
  5
4AC
  8
0
  6
CONTINUOUS
 62
     8
 10
31.4476915428
 20
166.631683413
 30
0.0
  0
VERTEX
  5
4AD
  8
0
  6
CONTINUOUS
 62
     8
 10
31.611041519
 20
166.677551099
 30
0.0
  0
VERTEX
  5
4AE
  8
0
  6
CONTINUOUS
 62
     8
 10
31.8004553172
 20
166.8976191561
 30
0.0
  0
VERTEX
  5
4AF
  8
0
  6
CONTINUOUS
 62
     8
 10
31.9785719019
 20
167.2762774343
 30
0.0
  0
VERTEX
  5
4B0
  8
0
  6
CONTINUOUS
 62
     8
 10
32.1383103581
 20
167.7998882083
 30
0.0
  0
VERTEX
  5
4B1
  8
0
  6
CONTINUOUS
 62
     8
 10
32.2732280671
 20
168.4487606685
 30
0.0
  0
VERTEX
  5
4B2
  8
0
  6
CONTINUOUS
 62
     8
 10
32.3778152725
 20
169.1978244356
 30
0.0
  0
VERTEX
  5
4B3
  8
0
  6
CONTINUOUS
 62
     8
 10
32.4477584268
 20
170.0176188868
 30
0.0
  0
VERTEX
  5
4B4
  8
0
  6
CONTINUOUS
 62
     8
 10
32.4801511501
 20
170.8755277597
 30
0.0
  0
VERTEX
  5
4B5
  8
0
  6
CONTINUOUS
 62
     8
 10
32.4736425755
 20
171.737190578
 30
0.0
  0
VERTEX
  5
4B6
  8
0
  6
CONTINUOUS
 62
     8
 10
32.4285035664
 20
172.5680666951
 30
0.0
  0
VERTEX
  5
4B7
  8
0
  6
CONTINUOUS
 62
     8
 10
32.3466164704
 20
173.3349608144
 30
0.0
  0
VERTEX
  5
4B8
  8
0
  6
CONTINUOUS
 62
     8
 10
32.2313758016
 20
174.0075174727
 30
0.0
  0
VERTEX
  5
4B9
  8
0
  6
CONTINUOUS
 62
     8
 10
32.0875205747
 20
174.5595150207
 30
0.0
  0
VERTEX
  5
4BA
  8
0
  6
CONTINUOUS
 62
     8
 10
31.9209022627
 20
174.9699285252
 30
0.0
  0
VERTEX
  5
4BB
  8
0
  6
CONTINUOUS
 62
     8
 10
31.7382104056
 20
175.2237017418
 30
0.0
  0
VERTEX
  5
4BC
  8
0
  6
CONTINUOUS
 62
     8
 10
31.548825648
 20
175.311219138
 30
0.0
  0
SEQEND
  5
4CD
  8
0
  6
CONTINUOUS
 62
     8
  0
POLYLINE
  5
121
  8
0
  6
CONTINUOUS
 62
     8
 66
     1
 10
0.0
 20
0.0
 30
0.0
  0
VERTEX
  5
4BD
  8
0
  6
CONTINUOUS
 62
     8
 10
39.8708610525
 20
160.3088804642
 30
0.0
  0
VERTEX
  5
4BE
  8
0
  6
CONTINUOUS
 62
     8
 10
39.7440421121
 20
160.1179254325
 30
0.0
  0
VERTEX
  5
4BF
  8
0
  6
CONTINUOUS
 62
     8
 10
39.6609364167
 20
160.0851611694
 30
0.0
  0
SEQEND
  5
4CC
  8
0
  6
CONTINUOUS
 62
     8
  0
POLYLINE
  5
122
  8
0
  6
CONTINUOUS
 62
     8
 66
     1
 10
0.0
 20
0.0
 30
0.0
  0
VERTEX
  5
4C0
  8
0
  6
CONTINUOUS
 62
     8
 10
40.0271169707
 20
160.9430004025
 30
0.0
  0
VERTEX
  5
4C1
  8
0
  6
CONTINUOUS
 62
     8
 10
39.9757097577
 20
160.6513135649
 30
0.0
  0
VERTEX
  5
4C2
  8
0
  6
CONTINUOUS
 62
     8
 10
39.8708610525
 20
160.3088804642
 30
0.0
  0
SEQEND
  5
4CB
  8
0
  6
CONTINUOUS
 62
     8
  0
POLYLINE
  5
123
  8
0
  6
CONTINUOUS
 62
     8
 66
     1
 10
0.0
 20
0.0
 30
0.0
  0
VERTEX
  5
4C3
  8
0
  6
CONTINUOUS
 62
     8
 10
47.7360633836
 20
160.264689402
 30
0.0
  0
VERTEX
  5
4C4
  8
0
  6
CONTINUOUS
 62
     8
 10
47.5982566888
 20
160.0766861887
 30
0.0
  0
VERTEX
  5
4C5
  8
0
  6
CONTINUOUS
 62
     8
 10
47.5081694622
 20
160.0444579408
 30
0.0
  0
SEQEND
  5
4CA
  8
0
  6
CONTINUOUS
 62
     8
  0
POLYLINE
  5
124
  8
0
  6
CONTINUOUS
 62
     8
 66
     1
 10
0.0
 20
0.0
 30
0.0
  0
VERTEX
  5
4C6
  8
0
  6
CONTINUOUS
 62
     8
 10
47.9058479814
 20
160.889123325
 30
0.0
  0
VERTEX
  5
4C7
  8
0
  6
CONTINUOUS
 62
     8
 10
47.8499910795
 20
160.6018836673
 30
0.0
  0
VERTEX
  5
4C8
  8
0
  6
CONTINUOUS
 62
     8
 10
47.7360633836
 20
160.264689402
 30
0.0
  0
SEQEND
  5
4C9
  8
0
  6
CONTINUOUS
 62
     8
  0
TEXT
  5
125
  8
0
  6
CONTINUOUS
 62
     7
 10
0.0
 20
6.732893805
 30
0.0
 40
3.633
  1
Edition tudiante de SolidWorks.
 41
0.6671875
 11
0.0
 21
5.4495
 31
0.0
 73
     1
  0
TEXT
  5
126
  8
0
  6
CONTINUOUS
 62
     7
 10
0.0
 20
1.283393805
 30
0.0
 40
3.633
  1
A usage universitaire uniquement.
 41
0.6681818182
 11
0.0
 21
0.0
 31
0.0
 73
     1
  0
ENDSEC
  0
EOF
