  0
SECTION
  2
HEADER
  9
$ACADVER
  1
AC1009
  9
$DWGCODEPAGE
  3
ansi_1252
  9
$INSBASE
 10
0.0
 20
0.0
 30
0.0
  9
$EXTMIN
 10
0.0
 20
0.0
 30
0.0
  9
$EXTMAX
 10
210.0
 20
297.0
 30
0.0
  9
$LIMMIN
 10
0.0
 20
0.0
  9
$LIMMAX
 10
210.0
 20
297.0
  9
$ORTHOMODE
 70
     0
  9
$REGENMODE
 70
     1
  9
$FILLMODE
 70
     1
  9
$QTEXTMODE
 70
     0
  9
$MIRRTEXT
 70
     1
  9
$DRAGMODE
 70
     2
  9
$LTSCALE
 40
1.0
  9
$OSMODE
 70
    37
  9
$ATTMODE
 70
     1
  9
$TEXTSIZE
 40
3.5
  9
$TRACEWID
 40
1.0
  9
$TEXTSTYLE
  7
STANDARD
  9
$CLAYER
  8
0
  9
$CELTYPE
  6
BYLAYER
  9
$CECOLOR
 62
   256
  9
$DIMSCALE
 40
1.0
  9
$DIMASZ
 40
3.302
  9
$DIMEXO
 40
1.0
  9
$DIMDLI
 40
3.75
  9
$DIMRND
 40
0.0
  9
$DIMDLE
 40
0.0
  9
$DIMEXE
 40
1.0
  9
$DIMTP
 40
0.0
  9
$DIMTM
 40
0.0
  9
$DIMTXT
 40
3.5
  9
$DIMCEN
 40
2.5
  9
$DIMTSZ
 40
0.0
  9
$DIMTOL
 70
     0
  9
$DIMLIM
 70
     0
  9
$DIMTIH
 70
     1
  9
$DIMTOH
 70
     1
  9
$DIMSE1
 70
     0
  9
$DIMSE2
 70
     0
  9
$DIMTAD
 70
     1
  9
$DIMZIN
 70
     0
  9
$DIMBLK
  1

  9
$DIMASO
 70
     1
  9
$DIMSHO
 70
     1
  9
$DIMPOST
  1

  9
$DIMAPOST
  1

  9
$DIMALT
 70
     0
  9
$DIMALTD
 70
     3
  9
$DIMALTF
 40
0.0393700787
  9
$DIMLFAC
 40
2.0
  9
$DIMTOFL
 70
     1
  9
$DIMTVP
 40
0.0
  9
$DIMTIX
 70
     0
  9
$DIMSOXD
 70
     0
  9
$DIMSAH
 70
     0
  9
$DIMBLK1
  1

  9
$DIMBLK2
  1

  9
$DIMSTYLE
  2
ISO-25
  9
$DIMCLRD
 70
     0
  9
$DIMCLRE
 70
     0
  9
$DIMCLRT
 70
     0
  9
$DIMTFAC
 40
1.0
  9
$DIMGAP
 40
1.524
  9
$LUNITS
 70
     2
  9
$LUPREC
 70
     2
  9
$SKETCHINC
 40
1.0
  9
$FILLETRAD
 40
10.0
  9
$AUNITS
 70
     0
  9
$AUPREC
 70
     2
  9
$MENU
  1
.
  9
$ELEVATION
 40
0.0
  9
$PELEVATION
 40
0.0
  9
$THICKNESS
 40
0.0
  9
$LIMCHECK
 70
     0
  9
$CHAMFERA
 40
10.0
  9
$CHAMFERB
 40
10.0
  9
$SKPOLY
 70
     0
  9
$TDCREATE
 40
2456631.390609572
  9
$TDUPDATE
 40
2456631.390609942
  9
$TDINDWG
 40
0.0000000116
  9
$TDUSRTIMER
 40
0.0000000116
  9
$USRTIMER
 70
     1
  9
$ANGBASE
 50
0.0
  9
$ANGDIR
 70
     0
  9
$PDMODE
 70
     0
  9
$PDSIZE
 40
-1.0
  9
$PLINEWID
 40
0.0
  9
$COORDS
 70
     1
  9
$SPLFRAME
 70
     0
  9
$SPLINETYPE
 70
     6
  9
$SPLINESEGS
 70
     8
  9
$ATTDIA
 70
     0
  9
$ATTREQ
 70
     1
  9
$HANDLING
 70
     1
  9
$HANDSEED
  5
322
  9
$SURFTAB1
 70
     6
  9
$SURFTAB2
 70
     6
  9
$SURFTYPE
 70
     6
  9
$SURFU
 70
     6
  9
$SURFV
 70
     6
  9
$UCSNAME
  2

  9
$UCSORG
 10
0.0
 20
0.0
 30
0.0
  9
$UCSXDIR
 10
1.0
 20
0.0
 30
0.0
  9
$UCSYDIR
 10
0.0
 20
1.0
 30
0.0
  9
$PUCSNAME
  2

  9
$PUCSORG
 10
0.0
 20
0.0
 30
0.0
  9
$PUCSXDIR
 10
1.0
 20
0.0
 30
0.0
  9
$PUCSYDIR
 10
0.0
 20
1.0
 30
0.0
  9
$USERI1
 70
     0
  9
$USERI2
 70
     0
  9
$USERI3
 70
     0
  9
$USERI4
 70
     0
  9
$USERI5
 70
     0
  9
$USERR1
 40
0.0
  9
$USERR2
 40
0.0
  9
$USERR3
 40
0.0
  9
$USERR4
 40
0.0
  9
$USERR5
 40
0.0
  9
$WORLDVIEW
 70
     1
  9
$SHADEDGE
 70
     3
  9
$SHADEDIF
 70
    70
  9
$TILEMODE
 70
     1
  9
$MAXACTVP
 70
    64
  9
$PLIMCHECK
 70
     0
  9
$PEXTMIN
 10
1.0000000000E+20
 20
1.0000000000E+20
 30
1.0000000000E+20
  9
$PEXTMAX
 10
-1.0000000000E+20
 20
-1.0000000000E+20
 30
-1.0000000000E+20
  9
$PLIMMIN
 10
0.0
 20
0.0
  9
$PLIMMAX
 10
420.0
 20
297.0
  9
$UNITMODE
 70
     0
  9
$VISRETAIN
 70
     1
  9
$PLINEGEN
 70
     0
  9
$PSLTSCALE
 70
     1
  0
ENDSEC
  0
SECTION
  2
TABLES
  0
TABLE
  2
VPORT
 70
     1
  0
VPORT
  2
*ACTIVE
 70
     0
 10
0.0
 20
0.0
 11
1.0
 21
1.0
 12
105.0
 22
148.5
 13
0.0
 23
0.0
 14
10.0
 24
10.0
 15
10.0
 25
10.0
 16
0.0
 26
0.0
 36
1.0
 17
0.0
 27
0.0
 37
0.0
 40
297.0
 41
0.7070707071
 42
50.0
 43
0.0
 44
0.0
 50
0.0
 51
0.0
 71
     0
 72
  2000
 73
     1
 74
     3
 75
     0
 76
     0
 77
     0
 78
     0
  0
ENDTAB
  0
TABLE
  2
LTYPE
 70
     6
  0
LTYPE
  2
CONTINUOUS
 70
     0
  3
Solid line
 72
    65
 73
     0
 40
0.0
  0
LTYPE
  2
HIDDEN
 70
     0
  3
Hidden __ __ __ __ __ __ __ __ __ __ __ __ __ __
 72
    65
 73
     2
 40
1.905
 49
1.27
 49
-0.635
  0
LTYPE
  2
PHANTOM
 70
     0
  3
Phantom ______  __  __  ______  __  __  ______
 72
    65
 73
     6
 40
12.7
 49
6.35
 49
-1.27
 49
1.27
 49
-1.27
 49
1.27
 49
-1.27
  0
LTYPE
  2
CENTER
 70
     0
  3
Center ____ _ ____ _ ____ _ ____ _ ____ _ ____
 72
    65
 73
     4
 40
10.16
 49
6.35
 49
-1.27
 49
1.27
 49
-1.27
  0
LTYPE
  2
CENTERX2
 70
     0
  3
Center (2x) ________  __  ________  __  _____
 72
    65
 73
     4
 40
20.32
 49
12.7
 49
-2.54
 49
2.54
 49
-2.54
  0
LTYPE
  2
DOT2
 70
     0
  3
Dot (.5x) ........................................
 72
    65
 73
     2
 40
0.635
 49
0.0
 49
-0.635
  0
ENDTAB
  0
TABLE
  2
LAYER
 70
     1
  0
LAYER
  2
0
 70
     0
 62
     7
  6
CONTINUOUS
  0
ENDTAB
  0
TABLE
  2
STYLE
 70
     1
  0
STYLE
  2
STANDARD
 70
     0
 40
0.0
 41
1.0
 50
0.0
 71
     0
 42
3.5
  3
txt
  4

  0
ENDTAB
  0
TABLE
  2
VIEW
 70
     0
  0
ENDTAB
  0
TABLE
  2
UCS
 70
     0
  0
ENDTAB
  0
TABLE
  2
APPID
 70
     1
  0
APPID
  2
ACAD
 70
     0
  0
ENDTAB
  0
TABLE
  2
DIMSTYLE
 70
     1
  0
DIMSTYLE
  2
ISO-25
 70
     0
  3

  4

  5

  6

  7

 40
1.0
 41
2.5
 42
0.625
 43
3.75
 44
1.25
 45
0.0
 46
0.0
 47
0.0
 48
0.0
140
2.5
141
2.5
142
0.0
143
0.0393700787
144
1.0
145
0.0
146
1.0
147
0.625
 71
     0
 72
     0
 73
     0
 74
     0
 75
     0
 76
     0
 77
     1
 78
     8
170
     0
171
     3
172
     1
173
     0
174
     0
175
     0
176
     0
177
     0
178
     0
  0
ENDTAB
  0
ENDSEC
  0
SECTION
  2
BLOCKS
  0
BLOCK
  8
0
  2
$MODEL_SPACE
 70
     0
 10
0.0
 20
0.0
 30
0.0
  3
$MODEL_SPACE
  1

  0
ENDBLK
  5
21
  8
0
  0
BLOCK
 67
     1
  8
0
  2
$PAPER_SPACE
 70
     0
 10
0.0
 20
0.0
 30
0.0
  3
$PAPER_SPACE
  1

  0
ENDBLK
  5
1D
 67
     1
  8
0
  0
ENDSEC
  0
SECTION
  2
ENTITIES
  0
LINE
  5
44
  8
0
  6
CONTINUOUS
 62
     7
 10
76.5716400187
 20
250.9731494045
 30
0.0
 11
76.5716400187
 21
252.9731534576
 31
0.0
  0
LINE
  5
45
  8
0
  6
CONTINUOUS
 62
     7
 10
64.5716380517
 20
252.9731534576
 30
0.0
 11
64.5716380517
 21
250.9731494045
 31
0.0
  0
LINE
  5
46
  8
0
  6
CONTINUOUS
 62
     7
 10
76.5696395378
 20
252.9731534576
 30
0.0
 11
76.5696395378
 21
254.9731500601
 31
0.0
  0
LINE
  5
47
  8
0
  6
CONTINUOUS
 62
     7
 10
64.5736385326
 20
254.9731500601
 30
0.0
 11
64.5736385326
 21
252.9731534576
 31
0.0
  0
LINE
  5
48
  8
0
  6
CONTINUOUS
 62
     7
 10
72.27163801
 20
159.7931508129
 30
0.0
 11
73.5716413896
 21
159.7931508129
 31
0.0
  0
LINE
  5
49
  8
0
  6
CONTINUOUS
 62
     7
 10
73.5716413896
 20
160.7931509768
 30
0.0
 11
72.27163801
 21
160.7931509768
 31
0.0
  0
LINE
  5
4A
  8
0
  6
CONTINUOUS
 62
     7
 10
72.27163801
 20
164.8731522417
 30
0.0
 11
73.5716413896
 21
164.8731522417
 31
0.0
  0
LINE
  5
4B
  8
0
  6
CONTINUOUS
 62
     7
 10
73.5716413896
 20
165.8731505429
 30
0.0
 11
72.27163801
 21
165.8731505429
 31
0.0
  0
LINE
  5
4C
  8
0
  6
CONTINUOUS
 62
     7
 10
72.27163801
 20
169.9531518077
 30
0.0
 11
73.5716413896
 21
169.9531518077
 31
0.0
  0
LINE
  5
4D
  8
0
  6
CONTINUOUS
 62
     7
 10
73.5716413896
 20
170.953150109
 30
0.0
 11
72.27163801
 21
170.953150109
 31
0.0
  0
LINE
  5
4E
  8
0
  6
CONTINUOUS
 62
     7
 10
60.2716397683
 20
160.7931509768
 30
0.0
 11
58.971640114
 21
160.7931509768
 31
0.0
  0
LINE
  5
4F
  8
0
  6
CONTINUOUS
 62
     7
 10
58.971640114
 20
159.7931508129
 30
0.0
 11
60.2716397683
 21
159.7931508129
 31
0.0
  0
LINE
  5
50
  8
0
  6
CONTINUOUS
 62
     7
 10
72.27163801
 20
175.0331513738
 30
0.0
 11
73.5716413896
 21
175.0331513738
 31
0.0
  0
LINE
  5
51
  8
0
  6
CONTINUOUS
 62
     7
 10
73.5716413896
 20
176.0331496751
 30
0.0
 11
72.27163801
 21
176.0331496751
 31
0.0
  0
LINE
  5
52
  8
0
  6
CONTINUOUS
 62
     7
 10
60.2716397683
 20
165.8731505429
 30
0.0
 11
58.971640114
 21
165.8731505429
 31
0.0
  0
LINE
  5
53
  8
0
  6
CONTINUOUS
 62
     7
 10
58.971640114
 20
164.8731522417
 30
0.0
 11
60.2716397683
 21
164.8731522417
 31
0.0
  0
LINE
  5
54
  8
0
  6
CONTINUOUS
 62
     7
 10
72.27163801
 20
180.1131509399
 30
0.0
 11
73.5716413896
 21
180.1131509399
 31
0.0
  0
LINE
  5
55
  8
0
  6
CONTINUOUS
 62
     7
 10
73.5716413896
 20
181.1131529664
 30
0.0
 11
72.27163801
 21
181.1131529664
 31
0.0
  0
LINE
  5
56
  8
0
  6
CONTINUOUS
 62
     7
 10
60.2716397683
 20
170.953150109
 30
0.0
 11
58.971640114
 21
170.953150109
 31
0.0
  0
LINE
  5
57
  8
0
  6
CONTINUOUS
 62
     7
 10
58.971640114
 20
169.9531518077
 30
0.0
 11
60.2716397683
 21
169.9531518077
 31
0.0
  0
LINE
  5
58
  8
0
  6
CONTINUOUS
 62
     7
 10
72.27163801
 20
185.193150506
 30
0.0
 11
73.5716413896
 21
185.193150506
 31
0.0
  0
LINE
  5
59
  8
0
  6
CONTINUOUS
 62
     7
 10
73.5716413896
 20
186.1931525325
 30
0.0
 11
72.27163801
 21
186.1931525325
 31
0.0
  0
LINE
  5
5A
  8
0
  6
CONTINUOUS
 62
     7
 10
60.2716397683
 20
176.0331496751
 30
0.0
 11
58.971640114
 21
176.0331496751
 31
0.0
  0
LINE
  5
5B
  8
0
  6
CONTINUOUS
 62
     7
 10
58.971640114
 20
175.0331513738
 30
0.0
 11
60.2716397683
 21
175.0331513738
 31
0.0
  0
LINE
  5
5C
  8
0
  6
CONTINUOUS
 62
     7
 10
72.27163801
 20
190.273150072
 30
0.0
 11
73.5716413896
 21
190.273150072
 31
0.0
  0
LINE
  5
5D
  8
0
  6
CONTINUOUS
 62
     7
 10
73.5716413896
 20
191.2731520986
 30
0.0
 11
72.27163801
 21
191.2731520986
 31
0.0
  0
LINE
  5
5E
  8
0
  6
CONTINUOUS
 62
     7
 10
60.2716397683
 20
181.1131529664
 30
0.0
 11
58.971640114
 21
181.1131529664
 31
0.0
  0
LINE
  5
5F
  8
0
  6
CONTINUOUS
 62
     7
 10
58.971640114
 20
180.1131509399
 30
0.0
 11
60.2716397683
 21
180.1131509399
 31
0.0
  0
LINE
  5
60
  8
0
  6
CONTINUOUS
 62
     7
 10
72.27163801
 20
195.3531496381
 30
0.0
 11
73.5716413896
 21
195.3531496381
 31
0.0
  0
LINE
  5
61
  8
0
  6
CONTINUOUS
 62
     7
 10
73.5716413896
 20
196.3531516647
 30
0.0
 11
72.27163801
 21
196.3531516647
 31
0.0
  0
LINE
  5
62
  8
0
  6
CONTINUOUS
 62
     7
 10
60.2716397683
 20
186.1931525325
 30
0.0
 11
58.971640114
 21
186.1931525325
 31
0.0
  0
LINE
  5
63
  8
0
  6
CONTINUOUS
 62
     7
 10
58.971640114
 20
185.193150506
 30
0.0
 11
60.2716397683
 21
185.193150506
 31
0.0
  0
LINE
  5
64
  8
0
  6
CONTINUOUS
 62
     7
 10
72.27163801
 20
200.4331492042
 30
0.0
 11
73.5716413896
 21
200.4331492042
 31
0.0
  0
LINE
  5
65
  8
0
  6
CONTINUOUS
 62
     7
 10
73.5716413896
 20
201.4331512308
 30
0.0
 11
72.27163801
 21
201.4331512308
 31
0.0
  0
LINE
  5
66
  8
0
  6
CONTINUOUS
 62
     7
 10
60.2716397683
 20
191.2731520986
 30
0.0
 11
58.971640114
 21
191.2731520986
 31
0.0
  0
LINE
  5
67
  8
0
  6
CONTINUOUS
 62
     7
 10
58.971640114
 20
190.273150072
 30
0.0
 11
60.2716397683
 21
190.273150072
 31
0.0
  0
LINE
  5
68
  8
0
  6
CONTINUOUS
 62
     7
 10
60.2716397683
 20
196.3531516647
 30
0.0
 11
58.971640114
 21
196.3531516647
 31
0.0
  0
LINE
  5
69
  8
0
  6
CONTINUOUS
 62
     7
 10
58.971640114
 20
195.3531496381
 30
0.0
 11
60.2716397683
 21
195.3531496381
 31
0.0
  0
LINE
  5
6A
  8
0
  6
CONTINUOUS
 62
     7
 10
60.2716397683
 20
201.4331512308
 30
0.0
 11
58.971640114
 21
201.4331512308
 31
0.0
  0
LINE
  5
6B
  8
0
  6
CONTINUOUS
 62
     7
 10
58.971640114
 20
200.4331492042
 30
0.0
 11
60.2716397683
 21
200.4331492042
 31
0.0
  0
ARC
  5
6C
  8
0
  6
CONTINUOUS
 62
     7
 10
88.7916398714
 20
197.0331511254
 30
0.0
 40
0.1000000000000085
 50
270.0
 51
0.0
  0
ARC
  5
6D
  8
0
  6
CONTINUOUS
 62
     7
 10
84.3916398714
 20
197.0331511254
 30
0.0
 40
0.1000000000000085
 50
180.0
 51
270.0
  0
LINE
  5
6E
  8
0
  6
CONTINUOUS
 62
     7
 10
84.2916391979
 20
197.8331498956
 30
0.0
 11
84.2916391979
 21
197.0331512546
 31
0.0
  0
LINE
  5
6F
  8
0
  6
CONTINUOUS
 62
     7
 10
88.891640697
 20
197.0331512546
 30
0.0
 11
88.891640697
 21
197.8331498956
 31
0.0
  0
ARC
  5
70
  8
0
  6
CONTINUOUS
 62
     7
 10
84.3916398714
 20
197.8331511254
 30
0.0
 40
0.1000000000000227
 50
90.0
 51
180.0
  0
ARC
  5
71
  8
0
  6
CONTINUOUS
 62
     7
 10
88.7916398714
 20
197.8331511254
 30
0.0
 40
0.1000000000000227
 50
0.0
 51
90.0
  0
ARC
  5
72
  8
0
  6
CONTINUOUS
 62
     7
 10
88.7916398714
 20
199.6791014167
 30
0.0
 40
0.1000000000000085
 50
270.0
 51
0.0
  0
ARC
  5
73
  8
0
  6
CONTINUOUS
 62
     7
 10
84.3916398714
 20
199.6791014167
 30
0.0
 40
0.1000000000000085
 50
180.0
 51
270.0
  0
LINE
  5
74
  8
0
  6
CONTINUOUS
 62
     7
 10
84.2916391979
 20
200.4791043853
 30
0.0
 11
84.2916391979
 21
199.6790982937
 31
0.0
  0
LINE
  5
75
  8
0
  6
CONTINUOUS
 62
     7
 10
88.891640697
 20
199.6790982937
 30
0.0
 11
88.891640697
 21
200.4791043853
 31
0.0
  0
ARC
  5
76
  8
0
  6
CONTINUOUS
 62
     7
 10
84.3916398714
 20
200.4791014167
 30
0.0
 40
0.1000000000000085
 50
90.0
 51
180.0
  0
ARC
  5
77
  8
0
  6
CONTINUOUS
 62
     7
 10
88.7916398714
 20
200.4791014167
 30
0.0
 40
0.1000000000000085
 50
0.0
 51
90.0
  0
ARC
  5
78
  8
0
  6
CONTINUOUS
 62
     7
 10
88.7916398714
 20
201.6791014167
 30
0.0
 40
0.1000000000000085
 50
270.0
 51
0.0
  0
ARC
  5
79
  8
0
  6
CONTINUOUS
 62
     7
 10
84.3916398714
 20
201.6791014167
 30
0.0
 40
0.1000000000000085
 50
180.0
 51
270.0
  0
LINE
  5
7A
  8
0
  6
CONTINUOUS
 62
     7
 10
84.2916391979
 20
202.4791009879
 30
0.0
 11
84.2916391979
 21
201.6791023468
 31
0.0
  0
LINE
  5
7B
  8
0
  6
CONTINUOUS
 62
     7
 10
88.891640697
 20
201.6791023468
 30
0.0
 11
88.891640697
 21
202.4791009879
 31
0.0
  0
ARC
  5
7C
  8
0
  6
CONTINUOUS
 62
     7
 10
84.3916398714
 20
202.4791014167
 30
0.0
 40
0.1000000000000227
 50
90.0
 51
180.0
  0
ARC
  5
7D
  8
0
  6
CONTINUOUS
 62
     7
 10
88.7916398714
 20
202.4791014167
 30
0.0
 40
0.1000000000000227
 50
0.0
 51
90.0
  0
ARC
  5
7E
  8
0
  6
CONTINUOUS
 62
     7
 10
88.7916398714
 20
203.6791014167
 30
0.0
 40
0.1000000000000085
 50
270.0
 51
0.0
  0
ARC
  5
7F
  8
0
  6
CONTINUOUS
 62
     7
 10
84.3916398714
 20
203.6791014167
 30
0.0
 40
0.1000000000000085
 50
180.0
 51
270.0
  0
LINE
  5
80
  8
0
  6
CONTINUOUS
 62
     7
 10
84.2916391979
 20
204.479105041
 30
0.0
 11
84.2916391979
 21
203.6790989494
 31
0.0
  0
LINE
  5
81
  8
0
  6
CONTINUOUS
 62
     7
 10
88.891640697
 20
203.6790989494
 30
0.0
 11
88.891640697
 21
204.479105041
 31
0.0
  0
ARC
  5
82
  8
0
  6
CONTINUOUS
 62
     7
 10
84.3916398714
 20
204.4791014167
 30
0.0
 40
0.1000000000000227
 50
90.0
 51
180.0
  0
ARC
  5
83
  8
0
  6
CONTINUOUS
 62
     7
 10
88.7916398714
 20
204.4791014167
 30
0.0
 40
0.1000000000000227
 50
0.0
 51
90.0
  0
ARC
  5
84
  8
0
  6
CONTINUOUS
 62
     7
 10
87.1916398714
 20
195.5331511254
 30
0.0
 40
1.599999999999994
 50
270.0
 51
0.0
  0
ARC
  5
85
  8
0
  6
CONTINUOUS
 62
     7
 10
85.9916398714
 20
195.5331511254
 30
0.0
 40
1.599999999999994
 50
180.0
 51
270.0
  0
LINE
  5
86
  8
0
  6
CONTINUOUS
 62
     7
 10
88.7916390042
 20
195.5331519401
 30
0.0
 11
88.7916390042
 21
196.9331495618
 31
0.0
  0
LINE
  5
87
  8
0
  6
CONTINUOUS
 62
     7
 10
84.391639028
 20
196.9331495618
 30
0.0
 11
84.391639028
 21
195.5331519401
 31
0.0
  0
LINE
  5
88
  8
0
  6
CONTINUOUS
 62
     7
 10
88.7916390042
 20
197.9331515884
 30
0.0
 11
88.7916390042
 21
199.5791040515
 31
0.0
  0
LINE
  5
89
  8
0
  6
CONTINUOUS
 62
     7
 10
84.391639028
 20
199.5791040515
 30
0.0
 11
84.391639028
 21
197.9331515884
 31
0.0
  0
LINE
  5
8A
  8
0
  6
CONTINUOUS
 62
     7
 10
88.7916390042
 20
200.5790986275
 30
0.0
 11
88.7916390042
 21
201.5791006541
 31
0.0
  0
LINE
  5
8B
  8
0
  6
CONTINUOUS
 62
     7
 10
84.391639028
 20
201.5791006541
 30
0.0
 11
84.391639028
 21
200.5790986275
 31
0.0
  0
LINE
  5
8C
  8
0
  6
CONTINUOUS
 62
     7
 10
88.7916390042
 20
202.5791026806
 30
0.0
 11
88.7916390042
 21
203.5791047072
 31
0.0
  0
LINE
  5
8D
  8
0
  6
CONTINUOUS
 62
     7
 10
84.391639028
 20
203.5791047072
 30
0.0
 11
84.391639028
 21
202.5791026806
 31
0.0
  0
LINE
  5
8E
  8
0
  6
CONTINUOUS
 62
     7
 10
88.7916390042
 20
204.5790992832
 30
0.0
 11
88.7916390042
 21
206.3331522202
 31
0.0
  0
LINE
  5
8F
  8
0
  6
CONTINUOUS
 62
     7
 10
84.391639028
 20
206.3331522202
 30
0.0
 11
84.391639028
 21
204.5790992832
 31
0.0
  0
ARC
  5
90
  8
0
  6
CONTINUOUS
 62
     7
 10
87.1916398714
 20
206.3331511254
 30
0.0
 40
1.600000000000023
 50
360.0
 51
90.0
  0
ARC
  5
91
  8
0
  6
CONTINUOUS
 62
     7
 10
85.9916398714
 20
206.3331511254
 30
0.0
 40
1.600000000000023
 50
90.0
 51
180.0
  0
LINE
  5
92
  8
0
  6
CONTINUOUS
 62
     7
 10
86.0916398655
 20
192.7731514132
 30
0.0
 11
86.0916398655
 21
190.7731510853
 31
0.0
  0
LINE
  5
93
  8
0
  6
CONTINUOUS
 62
     7
 10
87.0916400294
 20
190.7731510853
 30
0.0
 11
87.0916400294
 21
192.7731514132
 31
0.0
  0
LINE
  5
94
  8
0
  6
CONTINUOUS
 62
     7
 10
86.0916398655
 20
193.9331509327
 30
0.0
 11
86.0916398655
 21
192.7731514132
 31
0.0
  0
LINE
  5
95
  8
0
  6
CONTINUOUS
 62
     7
 10
87.0916400294
 20
192.7731514132
 30
0.0
 11
87.0916400294
 21
193.9331509327
 31
0.0
  0
LINE
  5
96
  8
0
  6
CONTINUOUS
 62
     7
 10
87.0916400294
 20
207.9331495022
 30
0.0
 11
87.0916400294
 21
209.0931527471
 31
0.0
  0
LINE
  5
97
  8
0
  6
CONTINUOUS
 62
     7
 10
86.0916398655
 20
209.0931527471
 30
0.0
 11
86.0916398655
 21
207.9331495022
 31
0.0
  0
LINE
  5
98
  8
0
  6
CONTINUOUS
 62
     7
 10
87.0916400294
 20
209.0931527471
 30
0.0
 11
87.0916400294
 21
211.0931493496
 31
0.0
  0
LINE
  5
99
  8
0
  6
CONTINUOUS
 62
     7
 10
86.0916398655
 20
211.0931493496
 30
0.0
 11
86.0916398655
 21
209.0931527471
 31
0.0
  0
LINE
  5
9A
  8
0
  6
CONTINUOUS
 62
     7
 10
84.2916391979
 20
235.7131533479
 30
0.0
 11
84.2916391979
 21
234.9131547069
 31
0.0
  0
LINE
  5
9B
  8
0
  6
CONTINUOUS
 62
     7
 10
88.891640697
 20
234.9131547069
 30
0.0
 11
88.891640697
 21
235.7131533479
 31
0.0
  0
ARC
  5
9C
  8
0
  6
CONTINUOUS
 62
     7
 10
88.7916398714
 20
234.9131511254
 30
0.0
 40
0.1000000000000227
 50
270.0
 51
0.0
  0
ARC
  5
9D
  8
0
  6
CONTINUOUS
 62
     7
 10
84.3916398714
 20
234.9131511254
 30
0.0
 40
0.0999999999999943
 50
180.0
 51
270.0
  0
ARC
  5
9E
  8
0
  6
CONTINUOUS
 62
     7
 10
84.3916398714
 20
235.7131511254
 30
0.0
 40
0.1000000000000227
 50
90.0
 51
180.0
  0
ARC
  5
9F
  8
0
  6
CONTINUOUS
 62
     7
 10
88.7916398714
 20
235.7131511254
 30
0.0
 40
0.0999999999999943
 50
0.0
 51
90.0
  0
LINE
  5
A0
  8
0
  6
CONTINUOUS
 62
     7
 10
84.2916391979
 20
238.359100387
 30
0.0
 11
84.2916391979
 21
237.559101746
 31
0.0
  0
LINE
  5
A1
  8
0
  6
CONTINUOUS
 62
     7
 10
88.891640697
 20
237.559101746
 30
0.0
 11
88.891640697
 21
238.359100387
 31
0.0
  0
ARC
  5
A2
  8
0
  6
CONTINUOUS
 62
     7
 10
88.7916398714
 20
237.5591014167
 30
0.0
 40
0.1000000000000227
 50
270.0
 51
0.0
  0
ARC
  5
A3
  8
0
  6
CONTINUOUS
 62
     7
 10
84.3916398714
 20
237.5591014167
 30
0.0
 40
0.0999999999999943
 50
180.0
 51
270.0
  0
ARC
  5
A4
  8
0
  6
CONTINUOUS
 62
     7
 10
84.3916398714
 20
238.3591014167
 30
0.0
 40
0.1000000000000227
 50
90.0
 51
180.0
  0
ARC
  5
A5
  8
0
  6
CONTINUOUS
 62
     7
 10
88.7916398714
 20
238.3591014167
 30
0.0
 40
0.1000000000000085
 50
0.0
 51
90.0
  0
LINE
  5
A6
  8
0
  6
CONTINUOUS
 62
     7
 10
84.2916391979
 20
240.3591044402
 30
0.0
 11
84.2916391979
 21
239.5590983486
 31
0.0
  0
LINE
  5
A7
  8
0
  6
CONTINUOUS
 62
     7
 10
88.891640697
 20
239.5590983486
 30
0.0
 11
88.891640697
 21
240.3591044402
 31
0.0
  0
ARC
  5
A8
  8
0
  6
CONTINUOUS
 62
     7
 10
88.7916398714
 20
239.5591014167
 30
0.0
 40
0.1000000000000227
 50
270.0
 51
0.0
  0
ARC
  5
A9
  8
0
  6
CONTINUOUS
 62
     7
 10
84.3916398714
 20
239.5591014167
 30
0.0
 40
0.0999999999999943
 50
180.0
 51
270.0
  0
ARC
  5
AA
  8
0
  6
CONTINUOUS
 62
     7
 10
84.3916398714
 20
240.3591014167
 30
0.0
 40
0.1000000000000227
 50
90.0
 51
180.0
  0
ARC
  5
AB
  8
0
  6
CONTINUOUS
 62
     7
 10
88.7916398714
 20
240.3591014167
 30
0.0
 40
0.1000000000000085
 50
0.0
 51
90.0
  0
LINE
  5
AC
  8
0
  6
CONTINUOUS
 62
     7
 10
84.2916391979
 20
242.3591010427
 30
0.0
 11
84.2916391979
 21
241.5591024017
 31
0.0
  0
LINE
  5
AD
  8
0
  6
CONTINUOUS
 62
     7
 10
88.891640697
 20
241.5591024017
 30
0.0
 11
88.891640697
 21
242.3591010427
 31
0.0
  0
ARC
  5
AE
  8
0
  6
CONTINUOUS
 62
     7
 10
88.7916398714
 20
241.5591014167
 30
0.0
 40
0.1000000000000227
 50
270.0
 51
0.0
  0
ARC
  5
AF
  8
0
  6
CONTINUOUS
 62
     7
 10
84.3916398714
 20
241.5591014167
 30
0.0
 40
0.0999999999999943
 50
180.0
 51
270.0
  0
ARC
  5
B0
  8
0
  6
CONTINUOUS
 62
     7
 10
84.3916398714
 20
242.3591014167
 30
0.0
 40
0.1000000000000227
 50
90.0
 51
180.0
  0
ARC
  5
B1
  8
0
  6
CONTINUOUS
 62
     7
 10
88.7916398714
 20
242.3591014167
 30
0.0
 40
0.1000000000000085
 50
0.0
 51
90.0
  0
ARC
  5
B2
  8
0
  6
CONTINUOUS
 62
     7
 10
87.1916398714
 20
233.4131511254
 30
0.0
 40
1.600000000000009
 50
270.0
 51
0.0
  0
ARC
  5
B3
  8
0
  6
CONTINUOUS
 62
     7
 10
85.9916398714
 20
233.4131511254
 30
0.0
 40
1.599999999999994
 50
180.0
 51
270.0
  0
LINE
  5
B4
  8
0
  6
CONTINUOUS
 62
     7
 10
88.7916390042
 20
233.4131516671
 30
0.0
 11
88.7916390042
 21
234.8131530141
 31
0.0
  0
LINE
  5
B5
  8
0
  6
CONTINUOUS
 62
     7
 10
84.391639028
 20
234.8131530141
 30
0.0
 11
84.391639028
 21
233.4131516671
 31
0.0
  0
LINE
  5
B6
  8
0
  6
CONTINUOUS
 62
     7
 10
88.7916390042
 20
235.8131475901
 30
0.0
 11
88.7916390042
 21
237.4591000533
 31
0.0
  0
LINE
  5
B7
  8
0
  6
CONTINUOUS
 62
     7
 10
84.391639028
 20
237.4591000533
 30
0.0
 11
84.391639028
 21
235.8131475901
 31
0.0
  0
LINE
  5
B8
  8
0
  6
CONTINUOUS
 62
     7
 10
88.7916390042
 20
238.4591020798
 30
0.0
 11
88.7916390042
 21
239.4591041064
 31
0.0
  0
LINE
  5
B9
  8
0
  6
CONTINUOUS
 62
     7
 10
84.391639028
 20
239.4591041064
 30
0.0
 11
84.391639028
 21
238.4591020798
 31
0.0
  0
LINE
  5
BA
  8
0
  6
CONTINUOUS
 62
     7
 10
88.7916390042
 20
240.4590986824
 30
0.0
 11
88.7916390042
 21
241.4591007089
 31
0.0
  0
LINE
  5
BB
  8
0
  6
CONTINUOUS
 62
     7
 10
84.391639028
 20
241.4591007089
 30
0.0
 11
84.391639028
 21
240.4590986824
 31
0.0
  0
LINE
  5
BC
  8
0
  6
CONTINUOUS
 62
     7
 10
88.7916390042
 20
242.4591027355
 30
0.0
 11
88.7916390042
 21
244.2131482219
 31
0.0
  0
LINE
  5
BD
  8
0
  6
CONTINUOUS
 62
     7
 10
84.391639028
 20
244.2131482219
 30
0.0
 11
84.391639028
 21
242.4591027355
 31
0.0
  0
ARC
  5
BE
  8
0
  6
CONTINUOUS
 62
     7
 10
87.1916398714
 20
244.2131511254
 30
0.0
 40
1.600000000000009
 50
0.0
 51
90.0
  0
ARC
  5
BF
  8
0
  6
CONTINUOUS
 62
     7
 10
85.9916398714
 20
244.2131511254
 30
0.0
 40
1.600000000000009
 50
90.0
 51
180.0
  0
LINE
  5
C0
  8
0
  6
CONTINUOUS
 62
     7
 10
86.0916398655
 20
230.6531511402
 30
0.0
 11
86.0916398655
 21
228.6531545376
 31
0.0
  0
LINE
  5
C1
  8
0
  6
CONTINUOUS
 62
     7
 10
87.0916400294
 20
228.6531545376
 30
0.0
 11
87.0916400294
 21
230.6531511402
 31
0.0
  0
LINE
  5
C2
  8
0
  6
CONTINUOUS
 62
     7
 10
86.0916398655
 20
231.813154385
 30
0.0
 11
86.0916398655
 21
230.6531511402
 31
0.0
  0
LINE
  5
C3
  8
0
  6
CONTINUOUS
 62
     7
 10
87.0916400294
 20
230.6531511402
 30
0.0
 11
87.0916400294
 21
231.813154385
 31
0.0
  0
LINE
  5
C4
  8
0
  6
CONTINUOUS
 62
     7
 10
87.0916400294
 20
245.8131529545
 30
0.0
 11
87.0916400294
 21
246.9731487488
 31
0.0
  0
LINE
  5
C5
  8
0
  6
CONTINUOUS
 62
     7
 10
86.0916398655
 20
246.9731487488
 30
0.0
 11
86.0916398655
 21
245.8131529545
 31
0.0
  0
LINE
  5
C6
  8
0
  6
CONTINUOUS
 62
     7
 10
87.0916400294
 20
246.9731487488
 30
0.0
 11
87.0916400294
 21
248.9731528019
 31
0.0
  0
LINE
  5
C7
  8
0
  6
CONTINUOUS
 62
     7
 10
86.0916398655
 20
248.9731528019
 30
0.0
 11
86.0916398655
 21
246.9731487488
 31
0.0
  0
ARC
  5
C8
  8
0
  6
CONTINUOUS
 62
     7
 10
88.7916398714
 20
146.2331511254
 30
0.0
 40
0.1000000000000085
 50
270.0
 51
0.0
  0
ARC
  5
C9
  8
0
  6
CONTINUOUS
 62
     7
 10
84.3916398714
 20
146.2331511254
 30
0.0
 40
0.0999999999999943
 50
180.0
 51
270.0
  0
ARC
  5
CA
  8
0
  6
CONTINUOUS
 62
     7
 10
84.3916398714
 20
147.0331511254
 30
0.0
 40
0.1000000000000227
 50
90.0
 51
180.0
  0
ARC
  5
CB
  8
0
  6
CONTINUOUS
 62
     7
 10
88.7916398714
 20
147.0331511254
 30
0.0
 40
0.1000000000000085
 50
0.0
 51
90.0
  0
LINE
  5
CC
  8
0
  6
CONTINUOUS
 62
     7
 10
84.2916391979
 20
147.0331514409
 30
0.0
 11
84.2916391979
 21
146.2331509372
 31
0.0
  0
LINE
  5
CD
  8
0
  6
CONTINUOUS
 62
     7
 10
88.891640697
 20
146.2331509372
 30
0.0
 11
88.891640697
 21
147.0331514409
 31
0.0
  0
ARC
  5
CE
  8
0
  6
CONTINUOUS
 62
     7
 10
88.7916398714
 20
148.8791014167
 30
0.0
 40
0.0999999999999943
 50
270.0
 51
0.0
  0
ARC
  5
CF
  8
0
  6
CONTINUOUS
 62
     7
 10
84.3916398714
 20
148.8791014167
 30
0.0
 40
0.1000000000000085
 50
180.0
 51
270.0
  0
LINE
  5
D0
  8
0
  6
CONTINUOUS
 62
     7
 10
84.2916391979
 20
149.679101274
 30
0.0
 11
84.2916391979
 21
148.8791007703
 31
0.0
  0
LINE
  5
D1
  8
0
  6
CONTINUOUS
 62
     7
 10
88.891640697
 20
148.8791007703
 30
0.0
 11
88.891640697
 21
149.679101274
 31
0.0
  0
ARC
  5
D2
  8
0
  6
CONTINUOUS
 62
     7
 10
84.3916398714
 20
149.6791014167
 30
0.0
 40
0.0999999999999943
 50
90.0
 51
180.0
  0
ARC
  5
D3
  8
0
  6
CONTINUOUS
 62
     7
 10
88.7916398714
 20
149.6791014167
 30
0.0
 40
0.1000000000000085
 50
0.0
 51
90.0
  0
ARC
  5
D4
  8
0
  6
CONTINUOUS
 62
     7
 10
88.7916398714
 20
150.8791014167
 30
0.0
 40
0.1000000000000227
 50
270.0
 51
0.0
  0
ARC
  5
D5
  8
0
  6
CONTINUOUS
 62
     7
 10
84.3916398714
 20
150.8791014167
 30
0.0
 40
0.1000000000000085
 50
180.0
 51
270.0
  0
LINE
  5
D6
  8
0
  6
CONTINUOUS
 62
     7
 10
84.2916391979
 20
151.6791016018
 30
0.0
 11
84.2916391979
 21
150.8791010981
 31
0.0
  0
LINE
  5
D7
  8
0
  6
CONTINUOUS
 62
     7
 10
88.891640697
 20
150.8791010981
 30
0.0
 11
88.891640697
 21
151.6791016018
 31
0.0
  0
ARC
  5
D8
  8
0
  6
CONTINUOUS
 62
     7
 10
84.3916398714
 20
151.6791014167
 30
0.0
 40
0.1000000000000227
 50
90.0
 51
180.0
  0
ARC
  5
D9
  8
0
  6
CONTINUOUS
 62
     7
 10
88.7916398714
 20
151.6791014167
 30
0.0
 40
0.1000000000000227
 50
0.0
 51
90.0
  0
LINE
  5
DA
  8
0
  6
CONTINUOUS
 62
     7
 10
84.2916391979
 20
153.6791019296
 30
0.0
 11
84.2916391979
 21
152.879101426
 31
0.0
  0
LINE
  5
DB
  8
0
  6
CONTINUOUS
 62
     7
 10
88.891640697
 20
152.879101426
 30
0.0
 11
88.891640697
 21
153.6791019296
 31
0.0
  0
ARC
  5
DC
  8
0
  6
CONTINUOUS
 62
     7
 10
84.3916398714
 20
153.6791014167
 30
0.0
 40
0.1000000000000227
 50
90.0
 51
180.0
  0
ARC
  5
DD
  8
0
  6
CONTINUOUS
 62
     7
 10
88.7916398714
 20
153.6791014167
 30
0.0
 40
0.1000000000000227
 50
0.0
 51
90.0
  0
ARC
  5
DE
  8
0
  6
CONTINUOUS
 62
     7
 10
88.7916398714
 20
152.8791014167
 30
0.0
 40
0.0999999999999943
 50
270.0
 51
0.0
  0
ARC
  5
DF
  8
0
  6
CONTINUOUS
 62
     7
 10
84.3916398714
 20
152.8791014167
 30
0.0
 40
0.1000000000000085
 50
180.0
 51
270.0
  0
ARC
  5
E0
  8
0
  6
CONTINUOUS
 62
     7
 10
87.1916398714
 20
144.7331511254
 30
0.0
 40
1.600000000000009
 50
270.0
 51
0.0
  0
ARC
  5
E1
  8
0
  6
CONTINUOUS
 62
     7
 10
85.9916398714
 20
144.7331511254
 30
0.0
 40
1.600000000000023
 50
180.0
 51
270.0
  0
LINE
  5
E2
  8
0
  6
CONTINUOUS
 62
     7
 10
88.7916390042
 20
144.7331506913
 30
0.0
 11
88.7916390042
 21
146.1331511071
 31
0.0
  0
LINE
  5
E3
  8
0
  6
CONTINUOUS
 62
     7
 10
84.391639028
 20
146.1331511071
 30
0.0
 11
84.391639028
 21
144.7331506913
 31
0.0
  0
LINE
  5
E4
  8
0
  6
CONTINUOUS
 62
     7
 10
88.7916390042
 20
147.133151271
 30
0.0
 11
88.7916390042
 21
148.7791009402
 31
0.0
  0
LINE
  5
E5
  8
0
  6
CONTINUOUS
 62
     7
 10
84.391639028
 20
148.7791009402
 30
0.0
 11
84.391639028
 21
147.133151271
 31
0.0
  0
LINE
  5
E6
  8
0
  6
CONTINUOUS
 62
     7
 10
88.7916390042
 20
149.7791011041
 30
0.0
 11
88.7916390042
 21
150.779101268
 31
0.0
  0
LINE
  5
E7
  8
0
  6
CONTINUOUS
 62
     7
 10
84.391639028
 20
150.779101268
 30
0.0
 11
84.391639028
 21
149.7791011041
 31
0.0
  0
LINE
  5
E8
  8
0
  6
CONTINUOUS
 62
     7
 10
88.7916390042
 20
151.7791014319
 30
0.0
 11
88.7916390042
 21
152.7791015958
 31
0.0
  0
LINE
  5
E9
  8
0
  6
CONTINUOUS
 62
     7
 10
84.391639028
 20
152.7791015958
 30
0.0
 11
84.391639028
 21
151.7791014319
 31
0.0
  0
LINE
  5
EA
  8
0
  6
CONTINUOUS
 62
     7
 10
88.7916390042
 20
153.7791017597
 30
0.0
 11
88.7916390042
 21
155.5331509715
 31
0.0
  0
LINE
  5
EB
  8
0
  6
CONTINUOUS
 62
     7
 10
84.391639028
 20
155.5331509715
 30
0.0
 11
84.391639028
 21
153.7791017597
 31
0.0
  0
ARC
  5
EC
  8
0
  6
CONTINUOUS
 62
     7
 10
87.1916398714
 20
155.5331511254
 30
0.0
 40
1.600000000000023
 50
0.0
 51
90.0
  0
ARC
  5
ED
  8
0
  6
CONTINUOUS
 62
     7
 10
85.9916398714
 20
155.5331511254
 30
0.0
 40
1.599999999999994
 50
90.0
 51
180.0
  0
LINE
  5
EE
  8
0
  6
CONTINUOUS
 62
     7
 10
86.0916398655
 20
141.9731510958
 30
0.0
 11
86.0916398655
 21
139.9731512336
 31
0.0
  0
LINE
  5
EF
  8
0
  6
CONTINUOUS
 62
     7
 10
87.0916400294
 20
139.9731512336
 30
0.0
 11
87.0916400294
 21
141.9731510958
 31
0.0
  0
LINE
  5
F0
  8
0
  6
CONTINUOUS
 62
     7
 10
86.0916398655
 20
143.1331515467
 30
0.0
 11
86.0916398655
 21
141.9731510958
 31
0.0
  0
LINE
  5
F1
  8
0
  6
CONTINUOUS
 62
     7
 10
87.0916400294
 20
141.9731510958
 30
0.0
 11
87.0916400294
 21
143.1331515467
 31
0.0
  0
LINE
  5
F2
  8
0
  6
CONTINUOUS
 62
     7
 10
87.0916400294
 20
157.1331519788
 30
0.0
 11
87.0916400294
 21
158.2931514984
 31
0.0
  0
LINE
  5
F3
  8
0
  6
CONTINUOUS
 62
     7
 10
86.0916398655
 20
158.2931514984
 30
0.0
 11
86.0916398655
 21
157.1331519788
 31
0.0
  0
LINE
  5
F4
  8
0
  6
CONTINUOUS
 62
     7
 10
87.0916400294
 20
158.2931514984
 30
0.0
 11
87.0916400294
 21
160.2931518262
 31
0.0
  0
LINE
  5
F5
  8
0
  6
CONTINUOUS
 62
     7
 10
86.0916398655
 20
160.2931518262
 30
0.0
 11
86.0916398655
 21
158.2931514984
 31
0.0
  0
LINE
  5
F6
  8
0
  6
CONTINUOUS
 62
     7
 10
67.2550168077
 20
250.9731494045
 30
0.0
 11
67.2550168077
 21
248.9731528019
 31
0.0
  0
LINE
  5
F7
  8
0
  6
CONTINUOUS
 62
     7
 10
73.8882649879
 20
248.9731528019
 30
0.0
 11
73.8882649879
 21
250.9731494045
 31
0.0
  0
LINE
  5
F8
  8
0
  6
CONTINUOUS
 62
     7
 10
67.2550168077
 20
248.9731528019
 30
0.0
 11
73.8882649879
 21
248.9731528019
 31
0.0
  0
LINE
  5
F9
  8
0
  6
CONTINUOUS
 62
     7
 10
64.5736385326
 20
254.9731500601
 30
0.0
 11
76.5696395378
 21
254.9731500601
 31
0.0
  0
LINE
  5
FA
  8
0
  6
CONTINUOUS
 62
     7
 10
79.5716405104
 20
250.9731494045
 30
0.0
 11
73.8882649879
 21
250.9731494045
 31
0.0
  0
LINE
  5
FB
  8
0
  6
CONTINUOUS
 62
     7
 10
79.5716405104
 20
248.9731528019
 30
0.0
 11
79.5716405104
 21
250.9731494045
 31
0.0
  0
LINE
  5
FC
  8
0
  6
CONTINUOUS
 62
     7
 10
82.5716391395
 20
248.9731528019
 30
0.0
 11
79.5716405104
 21
248.9731528019
 31
0.0
  0
LINE
  5
FD
  8
0
  6
CONTINUOUS
 62
     7
 10
82.5716391395
 20
226.5731536006
 30
0.0
 11
82.5716391395
 21
248.9731528019
 31
0.0
  0
LINE
  5
FE
  8
0
  6
CONTINUOUS
 62
     7
 10
58.5716407935
 20
226.5731536006
 30
0.0
 11
82.5716391395
 21
226.5731536006
 31
0.0
  0
LINE
  5
FF
  8
0
  6
CONTINUOUS
 62
     7
 10
58.5716407935
 20
248.9731528019
 30
0.0
 11
58.5716407935
 21
226.5731536006
 31
0.0
  0
LINE
  5
100
  8
0
  6
CONTINUOUS
 62
     7
 10
61.5716394226
 20
248.9731528019
 30
0.0
 11
58.5716407935
 21
248.9731528019
 31
0.0
  0
LINE
  5
101
  8
0
  6
CONTINUOUS
 62
     7
 10
61.5716394226
 20
250.9731494045
 30
0.0
 11
61.5716394226
 21
248.9731528019
 31
0.0
  0
LINE
  5
102
  8
0
  6
CONTINUOUS
 62
     7
 10
67.2550168077
 20
250.9731494045
 30
0.0
 11
61.5716394226
 21
250.9731494045
 31
0.0
  0
LINE
  5
103
  8
0
  6
CONTINUOUS
 62
     7
 10
64.5716380517
 20
248.9731528019
 30
0.0
 11
64.5716380517
 21
243.3731474137
 31
0.0
  0
LINE
  5
104
  8
0
  6
CONTINUOUS
 62
     7
 10
64.5716380517
 20
243.3731474137
 30
0.0
 11
76.5716400187
 21
243.3731474137
 31
0.0
  0
LINE
  5
105
  8
0
  6
CONTINUOUS
 62
     7
 10
76.5716400187
 20
243.3731474137
 30
0.0
 11
76.5716400187
 21
248.9731528019
 31
0.0
  0
LINE
  5
106
  8
0
  6
CONTINUOUS
 62
     7
 10
67.2550168077
 20
248.9731528019
 30
0.0
 11
64.5716380517
 21
248.9731528019
 31
0.0
  0
LINE
  5
107
  8
0
  6
CONTINUOUS
 62
     7
 10
76.5716400187
 20
248.9731528019
 30
0.0
 11
73.8882649879
 21
248.9731528019
 31
0.0
  0
LINE
  5
108
  8
0
  6
CONTINUOUS
 62
     7
 10
72.27163801
 20
157.9731509244
 30
0.0
 11
72.27163801
 21
203.2531492567
 31
0.0
  0
LINE
  5
109
  8
0
  6
CONTINUOUS
 62
     7
 10
60.2716397683
 20
157.9731509244
 30
0.0
 11
60.2716397683
 21
203.2531492567
 31
0.0
  0
LINE
  5
10A
  8
0
  6
CONTINUOUS
 62
     7
 10
64.271640424
 20
203.2531492567
 30
0.0
 11
60.2716397683
 21
203.2531492567
 31
0.0
  0
ARC
  5
10B
  8
0
  6
CONTINUOUS
 62
     7
 10
66.2716398714
 20
203.2531511254
 30
0.0
 40
2.0
 50
180.0
 51
0.0
  0
LINE
  5
10C
  8
0
  6
CONTINUOUS
 62
     7
 10
72.27163801
 20
203.2531492567
 30
0.0
 11
68.2716410796
 21
203.2531492567
 31
0.0
  0
LINE
  5
10D
  8
0
  6
CONTINUOUS
 62
     7
 10
72.27163801
 20
157.9731509244
 30
0.0
 11
60.2716397683
 21
157.9731509244
 31
0.0
  0
LINE
  5
10E
  8
0
  6
CONTINUOUS
 62
     7
 10
68.2716410796
 20
203.2531492567
 30
0.0
 11
64.271640424
 21
203.2531492567
 31
0.0
  0
ARC
  5
10F
  8
0
  6
CONTINUOUS
 62
     7
 10
73.5716388408
 20
160.2931508949
 30
0.0
 40
0.5000000819628828
 50
270.0002920696
 51
89.9997079304
  0
ARC
  5
110
  8
0
  6
CONTINUOUS
 62
     7
 10
73.5716387748
 20
165.3731513923
 30
0.0
 40
0.499999150640649
 50
270.000299632
 51
89.999700368
  0
ARC
  5
111
  8
0
  6
CONTINUOUS
 62
     7
 10
73.5716409256
 20
170.4531509584
 30
0.0
 40
0.4999991506340272
 50
270.0000531651
 51
89.9999468349
  0
ARC
  5
112
  8
0
  6
CONTINUOUS
 62
     7
 10
58.9716389375
 20
160.2931508949
 30
0.0
 40
0.5000000819577707
 50
89.9998651822
 51
270.0001348178
  0
ARC
  5
113
  8
0
  6
CONTINUOUS
 62
     7
 10
73.5716409256
 20
175.5331505244
 30
0.0
 40
0.4999991506340272
 50
270.0000531651
 51
89.9999468349
  0
ARC
  5
114
  8
0
  6
CONTINUOUS
 62
     7
 10
58.9716390035
 20
165.3731513923
 30
0.0
 40
0.4999991506350452
 50
89.9998727431
 51
270.0001272569
  0
ARC
  5
115
  8
0
  6
CONTINUOUS
 62
     7
 10
73.5716375789
 20
180.6131519532
 30
0.0
 40
0.5000010132934819
 50
270.0004366628
 51
89.9995633372
  0
ARC
  5
116
  8
0
  6
CONTINUOUS
 62
     7
 10
58.9716368527
 20
170.4531509584
 30
0.0
 40
0.4999991506444482
 50
89.9996262799
 51
270.0003737201
  0
ARC
  5
117
  8
0
  6
CONTINUOUS
 62
     7
 10
73.5716377979
 20
185.6931515192
 30
0.0
 40
0.5000010132918611
 50
270.0004115724
 51
89.9995884276
  0
ARC
  5
118
  8
0
  6
CONTINUOUS
 62
     7
 10
58.9716368527
 20
175.5331505244
 30
0.0
 40
0.4999991506444482
 50
89.9996262799
 51
270.0003737201
  0
ARC
  5
119
  8
0
  6
CONTINUOUS
 62
     7
 10
73.5716367559
 20
190.7731510853
 30
0.0
 40
0.5000010133004317
 50
270.0005309732
 51
89.9994690268
  0
ARC
  5
11A
  8
0
  6
CONTINUOUS
 62
     7
 10
58.9716401993
 20
180.6131519532
 30
0.0
 40
0.5000010132789684
 50
90.0000097742
 51
269.9999902258
  0
ARC
  5
11B
  8
0
  6
CONTINUOUS
 62
     7
 10
73.571636537
 20
195.8531506514
 30
0.0
 40
0.5000010133025087
 50
270.0005560637
 51
89.9994439364
  0
ARC
  5
11C
  8
0
  6
CONTINUOUS
 62
     7
 10
58.9716399804
 20
185.6931515192
 30
0.0
 40
0.5000010132789791
 50
89.999984684
 51
270.000015316
  0
ARC
  5
11D
  8
0
  6
CONTINUOUS
 62
     7
 10
73.5716375789
 20
200.9331502175
 30
0.0
 40
0.5000010132934819
 50
270.0004366628
 51
89.9995633372
  0
ARC
  5
11E
  8
0
  6
CONTINUOUS
 62
     7
 10
58.9716410223
 20
190.7731510853
 30
0.0
 40
0.5000010132797862
 50
90.0001040836
 51
269.9998959164
  0
ARC
  5
11F
  8
0
  6
CONTINUOUS
 62
     7
 10
58.9716412413
 20
195.8531506514
 30
0.0
 40
0.5000010132802318
 50
90.0001291739
 51
269.9998708261
  0
ARC
  5
120
  8
0
  6
CONTINUOUS
 62
     7
 10
58.9716401993
 20
200.9331502175
 30
0.0
 40
0.5000010132789684
 50
90.0000097742
 51
269.9999902258
  0
LINE
  5
121
  8
0
  6
CONTINUOUS
 62
     7
 10
76.3716403584
 20
157.9731509244
 30
0.0
 11
76.3716403584
 21
203.2531492567
 31
0.0
  0
LINE
  5
122
  8
0
  6
CONTINUOUS
 62
     7
 10
76.3716403584
 20
157.9731509244
 30
0.0
 11
72.27163801
 21
157.9731509244
 31
0.0
  0
LINE
  5
123
  8
0
  6
CONTINUOUS
 62
     7
 10
76.3716403584
 20
203.2531492567
 30
0.0
 11
72.27163801
 21
203.2531492567
 31
0.0
  0
ARC
  5
124
  8
0
  6
CONTINUOUS
 62
     7
 10
73.5716398714
 20
200.9331511254
 30
0.0
 40
0.8000000000000059
 50
0.0
 51
141.3178125465
  0
ARC
  5
125
  8
0
  6
CONTINUOUS
 62
     7
 10
73.5716398714
 20
200.9331511254
 30
0.0
 40
0.7999999999999972
 50
218.6821874535
 51
0.0
  0
ARC
  5
126
  8
0
  6
CONTINUOUS
 62
     7
 10
73.5716398714
 20
195.8531511254
 30
0.0
 40
0.7999999999999972
 50
0.0
 51
141.3178125465
  0
ARC
  5
127
  8
0
  6
CONTINUOUS
 62
     7
 10
73.5716398714
 20
195.8531511254
 30
0.0
 40
0.7999999999999972
 50
218.6821874535
 51
0.0
  0
ARC
  5
128
  8
0
  6
CONTINUOUS
 62
     7
 10
73.5716398714
 20
190.7731511254
 30
0.0
 40
0.8000000000000114
 50
0.0
 51
141.3178125465
  0
ARC
  5
129
  8
0
  6
CONTINUOUS
 62
     7
 10
73.5716398714
 20
190.7731511254
 30
0.0
 40
0.8000000000000114
 50
218.6821874535
 51
0.0
  0
ARC
  5
12A
  8
0
  6
CONTINUOUS
 62
     7
 10
73.5716398714
 20
185.6931511254
 30
0.0
 40
0.7999999999999993
 50
0.0
 51
141.3178125465
  0
ARC
  5
12B
  8
0
  6
CONTINUOUS
 62
     7
 10
73.5716398714
 20
185.6931511254
 30
0.0
 40
0.8000000000000104
 50
218.6821874535
 51
0.0
  0
ARC
  5
12C
  8
0
  6
CONTINUOUS
 62
     7
 10
73.5716398714
 20
180.6131511254
 30
0.0
 40
0.7999999999999993
 50
0.0
 51
141.3178125465
  0
ARC
  5
12D
  8
0
  6
CONTINUOUS
 62
     7
 10
73.5716398714
 20
180.6131511254
 30
0.0
 40
0.8000000000000215
 50
218.6821874535
 51
0.0
  0
ARC
  5
12E
  8
0
  6
CONTINUOUS
 62
     7
 10
73.5716398714
 20
175.5331511254
 30
0.0
 40
0.7999999999999993
 50
0.0
 51
141.3178125465
  0
ARC
  5
12F
  8
0
  6
CONTINUOUS
 62
     7
 10
73.5716398714
 20
175.5331511254
 30
0.0
 40
0.8000000000000104
 50
218.6821874535
 51
0.0
  0
ARC
  5
130
  8
0
  6
CONTINUOUS
 62
     7
 10
73.5716398714
 20
170.4531511254
 30
0.0
 40
0.7999999999999993
 50
0.0
 51
141.3178125465
  0
ARC
  5
131
  8
0
  6
CONTINUOUS
 62
     7
 10
73.5716398714
 20
170.4531511254
 30
0.0
 40
0.7999999999999993
 50
218.6821874535
 51
0.0
  0
ARC
  5
132
  8
0
  6
CONTINUOUS
 62
     7
 10
73.5716398714
 20
165.3731511254
 30
0.0
 40
0.8000000000000114
 50
0.0
 51
141.3178125465
  0
ARC
  5
133
  8
0
  6
CONTINUOUS
 62
     7
 10
73.5716398714
 20
165.3731511254
 30
0.0
 40
0.8000000000000114
 50
218.6821874535
 51
0.0
  0
ARC
  5
134
  8
0
  6
CONTINUOUS
 62
     7
 10
73.5716398714
 20
160.2931511254
 30
0.0
 40
0.7999999999999972
 50
0.0
 51
141.3178125465
  0
ARC
  5
135
  8
0
  6
CONTINUOUS
 62
     7
 10
73.5716398714
 20
160.2931511254
 30
0.0
 40
0.8000000000000104
 50
218.6821874535
 51
0.0
  0
LINE
  5
136
  8
0
  6
CONTINUOUS
 62
     7
 10
56.1716411452
 20
157.9731509244
 30
0.0
 11
56.1716411452
 21
203.2531492567
 31
0.0
  0
LINE
  5
137
  8
0
  6
CONTINUOUS
 62
     7
 10
60.2716397683
 20
203.2531492567
 30
0.0
 11
56.1716411452
 21
203.2531492567
 31
0.0
  0
ARC
  5
138
  8
0
  6
CONTINUOUS
 62
     7
 10
58.9716398714
 20
200.9331511254
 30
0.0
 40
0.8000000000000043
 50
180.0
 51
321.3178125465
  0
ARC
  5
139
  8
0
  6
CONTINUOUS
 62
     7
 10
58.9716398714
 20
200.9331511254
 30
0.0
 40
0.8000000000000043
 50
38.6821874535
 51
180.0
  0
ARC
  5
13A
  8
0
  6
CONTINUOUS
 62
     7
 10
58.9716398714
 20
195.8531511254
 30
0.0
 40
0.8000000000000043
 50
180.0
 51
321.3178125465
  0
ARC
  5
13B
  8
0
  6
CONTINUOUS
 62
     7
 10
58.9716398714
 20
195.8531511254
 30
0.0
 40
0.8000000000000043
 50
38.6821874535
 51
180.0
  0
ARC
  5
13C
  8
0
  6
CONTINUOUS
 62
     7
 10
58.9716398714
 20
190.7731511254
 30
0.0
 40
0.7999999999999982
 50
180.0
 51
321.3178125465
  0
ARC
  5
13D
  8
0
  6
CONTINUOUS
 62
     7
 10
58.9716398714
 20
190.7731511254
 30
0.0
 40
0.8000000000000059
 50
38.6821874535
 51
180.0
  0
ARC
  5
13E
  8
0
  6
CONTINUOUS
 62
     7
 10
58.9716398714
 20
185.6931511254
 30
0.0
 40
0.8000000000000043
 50
180.0
 51
321.3178125465
  0
ARC
  5
13F
  8
0
  6
CONTINUOUS
 62
     7
 10
58.9716398714
 20
185.6931511254
 30
0.0
 40
0.8000000000000059
 50
38.6821874535
 51
180.0
  0
ARC
  5
140
  8
0
  6
CONTINUOUS
 62
     7
 10
58.9716398714
 20
180.6131511254
 30
0.0
 40
0.8000000000000048
 50
180.0
 51
321.3178125465
  0
ARC
  5
141
  8
0
  6
CONTINUOUS
 62
     7
 10
58.9716398714
 20
180.6131511254
 30
0.0
 40
0.8000000000000043
 50
38.6821874535
 51
180.0
  0
ARC
  5
142
  8
0
  6
CONTINUOUS
 62
     7
 10
58.9716398714
 20
175.5331511254
 30
0.0
 40
0.7999999999999972
 50
180.0
 51
321.3178125465
  0
ARC
  5
143
  8
0
  6
CONTINUOUS
 62
     7
 10
58.9716398714
 20
175.5331511254
 30
0.0
 40
0.8000000000000115
 50
38.6821874535
 51
180.0
  0
ARC
  5
144
  8
0
  6
CONTINUOUS
 62
     7
 10
58.9716398714
 20
170.4531511254
 30
0.0
 40
0.8000000000000043
 50
180.0
 51
321.3178125465
  0
ARC
  5
145
  8
0
  6
CONTINUOUS
 62
     7
 10
58.9716398714
 20
170.4531511254
 30
0.0
 40
0.8000000000000115
 50
38.6821874535
 51
180.0
  0
ARC
  5
146
  8
0
  6
CONTINUOUS
 62
     7
 10
58.9716398714
 20
165.3731511254
 30
0.0
 40
0.8000000000000043
 50
180.0
 51
321.3178125465
  0
ARC
  5
147
  8
0
  6
CONTINUOUS
 62
     7
 10
58.9716398714
 20
165.3731511254
 30
0.0
 40
0.8000000000000115
 50
38.6821874535
 51
180.0
  0
ARC
  5
148
  8
0
  6
CONTINUOUS
 62
     7
 10
58.9716398714
 20
160.2931511254
 30
0.0
 40
0.7999999999999982
 50
180.0
 51
321.3178125465
  0
ARC
  5
149
  8
0
  6
CONTINUOUS
 62
     7
 10
58.9716398714
 20
160.2931511254
 30
0.0
 40
0.800000000000017
 50
38.6821874535
 51
180.0
  0
LINE
  5
14A
  8
0
  6
CONTINUOUS
 62
     7
 10
60.2716397683
 20
157.9731509244
 30
0.0
 11
56.1716411452
 21
157.9731509244
 31
0.0
  0
LINE
  5
14B
  8
0
  6
CONTINUOUS
 62
     7
 10
88.7916390042
 20
196.9331495618
 30
0.0
 11
84.391639028
 21
196.9331495618
 31
0.0
  0
LINE
  5
14C
  8
0
  6
CONTINUOUS
 62
     7
 10
84.391639028
 20
197.9331515884
 30
0.0
 11
88.7916390042
 21
197.9331515884
 31
0.0
  0
LINE
  5
14D
  8
0
  6
CONTINUOUS
 62
     7
 10
88.7916390042
 20
199.5791040515
 30
0.0
 11
84.391639028
 21
199.5791040515
 31
0.0
  0
LINE
  5
14E
  8
0
  6
CONTINUOUS
 62
     7
 10
84.391639028
 20
200.5790986275
 30
0.0
 11
88.7916390042
 21
200.5790986275
 31
0.0
  0
LINE
  5
14F
  8
0
  6
CONTINUOUS
 62
     7
 10
88.7916390042
 20
201.5791006541
 30
0.0
 11
84.391639028
 21
201.5791006541
 31
0.0
  0
LINE
  5
150
  8
0
  6
CONTINUOUS
 62
     7
 10
84.391639028
 20
202.5791026806
 30
0.0
 11
88.7916390042
 21
202.5791026806
 31
0.0
  0
LINE
  5
151
  8
0
  6
CONTINUOUS
 62
     7
 10
88.7916390042
 20
203.5791047072
 30
0.0
 11
84.391639028
 21
203.5791047072
 31
0.0
  0
LINE
  5
152
  8
0
  6
CONTINUOUS
 62
     7
 10
84.391639028
 20
204.5790992832
 30
0.0
 11
88.7916390042
 21
204.5790992832
 31
0.0
  0
LINE
  5
153
  8
0
  6
CONTINUOUS
 62
     7
 10
87.1916398595
 20
193.9331509327
 30
0.0
 11
85.9916400353
 21
193.9331509327
 31
0.0
  0
LINE
  5
154
  8
0
  6
CONTINUOUS
 62
     7
 10
87.1916398595
 20
207.9331495022
 30
0.0
 11
85.9916400353
 21
207.9331495022
 31
0.0
  0
ARC
  5
155
  8
0
  6
CONTINUOUS
 62
     7
 10
86.5916398714
 20
190.7731511254
 30
0.0
 40
0.5
 50
180.0
 51
0.0
  0
ARC
  5
156
  8
0
  6
CONTINUOUS
 62
     7
 10
86.5916398714
 20
211.0931511254
 30
0.0
 40
0.5
 50
0.0
 51
180.0
  0
LINE
  5
157
  8
0
  6
CONTINUOUS
 62
     7
 10
88.7916390042
 20
234.8131530141
 30
0.0
 11
84.391639028
 21
234.8131530141
 31
0.0
  0
LINE
  5
158
  8
0
  6
CONTINUOUS
 62
     7
 10
84.391639028
 20
235.8131475901
 30
0.0
 11
88.7916390042
 21
235.8131475901
 31
0.0
  0
LINE
  5
159
  8
0
  6
CONTINUOUS
 62
     7
 10
88.7916390042
 20
237.4591000533
 30
0.0
 11
84.391639028
 21
237.4591000533
 31
0.0
  0
LINE
  5
15A
  8
0
  6
CONTINUOUS
 62
     7
 10
84.391639028
 20
238.4591020798
 30
0.0
 11
88.7916390042
 21
238.4591020798
 31
0.0
  0
LINE
  5
15B
  8
0
  6
CONTINUOUS
 62
     7
 10
88.7916390042
 20
239.4591041064
 30
0.0
 11
84.391639028
 21
239.4591041064
 31
0.0
  0
LINE
  5
15C
  8
0
  6
CONTINUOUS
 62
     7
 10
84.391639028
 20
240.4590986824
 30
0.0
 11
88.7916390042
 21
240.4590986824
 31
0.0
  0
LINE
  5
15D
  8
0
  6
CONTINUOUS
 62
     7
 10
88.7916390042
 20
241.4591007089
 30
0.0
 11
84.391639028
 21
241.4591007089
 31
0.0
  0
LINE
  5
15E
  8
0
  6
CONTINUOUS
 62
     7
 10
84.391639028
 20
242.4591027355
 30
0.0
 11
88.7916390042
 21
242.4591027355
 31
0.0
  0
LINE
  5
15F
  8
0
  6
CONTINUOUS
 62
     7
 10
87.1916398595
 20
231.813154385
 30
0.0
 11
85.9916400353
 21
231.813154385
 31
0.0
  0
LINE
  5
160
  8
0
  6
CONTINUOUS
 62
     7
 10
87.1916398595
 20
245.8131529545
 30
0.0
 11
85.9916400353
 21
245.8131529545
 31
0.0
  0
ARC
  5
161
  8
0
  6
CONTINUOUS
 62
     7
 10
86.5916398714
 20
228.6531511254
 30
0.0
 40
0.5
 50
180.0
 51
0.0
  0
ARC
  5
162
  8
0
  6
CONTINUOUS
 62
     7
 10
86.5916398714
 20
248.9731511254
 30
0.0
 40
0.5
 50
0.0
 51
180.0
  0
LINE
  5
163
  8
0
  6
CONTINUOUS
 62
     7
 10
88.7916390042
 20
146.1331511071
 30
0.0
 11
84.391639028
 21
146.1331511071
 31
0.0
  0
LINE
  5
164
  8
0
  6
CONTINUOUS
 62
     7
 10
84.391639028
 20
147.133151271
 30
0.0
 11
88.7916390042
 21
147.133151271
 31
0.0
  0
LINE
  5
165
  8
0
  6
CONTINUOUS
 62
     7
 10
88.7916390042
 20
148.7791009402
 30
0.0
 11
84.391639028
 21
148.7791009402
 31
0.0
  0
LINE
  5
166
  8
0
  6
CONTINUOUS
 62
     7
 10
84.391639028
 20
149.7791011041
 30
0.0
 11
88.7916390042
 21
149.7791011041
 31
0.0
  0
LINE
  5
167
  8
0
  6
CONTINUOUS
 62
     7
 10
88.7916390042
 20
150.779101268
 30
0.0
 11
84.391639028
 21
150.779101268
 31
0.0
  0
LINE
  5
168
  8
0
  6
CONTINUOUS
 62
     7
 10
84.391639028
 20
151.7791014319
 30
0.0
 11
88.7916390042
 21
151.7791014319
 31
0.0
  0
LINE
  5
169
  8
0
  6
CONTINUOUS
 62
     7
 10
84.391639028
 20
153.7791017597
 30
0.0
 11
88.7916390042
 21
153.7791017597
 31
0.0
  0
LINE
  5
16A
  8
0
  6
CONTINUOUS
 62
     7
 10
88.7916390042
 20
152.7791015958
 30
0.0
 11
84.391639028
 21
152.7791015958
 31
0.0
  0
LINE
  5
16B
  8
0
  6
CONTINUOUS
 62
     7
 10
87.1916398595
 20
143.1331515467
 30
0.0
 11
85.9916400353
 21
143.1331515467
 31
0.0
  0
LINE
  5
16C
  8
0
  6
CONTINUOUS
 62
     7
 10
87.1916398595
 20
157.1331519788
 30
0.0
 11
85.9916400353
 21
157.1331519788
 31
0.0
  0
ARC
  5
16D
  8
0
  6
CONTINUOUS
 62
     7
 10
86.5916398714
 20
139.9731511254
 30
0.0
 40
0.5
 50
180.0
 51
0.0
  0
ARC
  5
16E
  8
0
  6
CONTINUOUS
 62
     7
 10
86.5916398714
 20
160.2931511254
 30
0.0
 40
0.5
 50
0.0
 51
180.0
  0
CIRCLE
  5
16F
  8
0
  6
CONTINUOUS
 62
     7
 10
68.8116398714
 20
145.0531511254
 30
0.0
 40
0.8000000000000114
  0
LINE
  5
170
  8
0
  6
CONTINUOUS
 62
     7
 10
71.3216405551
 20
143.043151327
 30
0.0
 11
70.8216395418
 21
142.5431512451
 31
0.0
  0
LINE
  5
171
  8
0
  6
CONTINUOUS
 62
     7
 10
70.8216395418
 20
143.043151327
 30
0.0
 11
70.8216395418
 21
142.5431512451
 31
0.0
  0
LINE
  5
172
  8
0
  6
CONTINUOUS
 62
     7
 10
71.3216405551
 20
143.043151327
 30
0.0
 11
70.8216395418
 21
143.043151327
 31
0.0
  0
LINE
  5
173
  8
0
  6
CONTINUOUS
 62
     7
 10
66.8016415278
 20
143.043151327
 30
0.0
 11
70.8216395418
 21
143.043151327
 31
0.0
  0
LINE
  5
174
  8
0
  6
CONTINUOUS
 62
     7
 10
70.8216395418
 20
142.5431512451
 30
0.0
 11
66.8016415278
 21
142.5431512451
 31
0.0
  0
LINE
  5
175
  8
0
  6
CONTINUOUS
 62
     7
 10
66.8016415278
 20
143.043151327
 30
0.0
 11
66.8016415278
 21
142.5431512451
 31
0.0
  0
LINE
  5
176
  8
0
  6
CONTINUOUS
 62
     7
 10
66.8016415278
 20
147.0631512036
 30
0.0
 11
66.8016415278
 21
143.043151327
 31
0.0
  0
LINE
  5
177
  8
0
  6
CONTINUOUS
 62
     7
 10
70.8216395418
 20
147.0631512036
 30
0.0
 11
66.8016415278
 21
147.0631512036
 31
0.0
  0
LINE
  5
178
  8
0
  6
CONTINUOUS
 62
     7
 10
70.8216395418
 20
143.043151327
 30
0.0
 11
70.8216395418
 21
147.0631512036
 31
0.0
  0
LINE
  5
179
  8
0
  6
CONTINUOUS
 62
     7
 10
71.3216405551
 20
147.0631512036
 30
0.0
 11
71.3216405551
 21
143.043151327
 31
0.0
  0
LINE
  5
17A
  8
0
  6
CONTINUOUS
 62
     7
 10
70.8216395418
 20
147.0631512036
 30
0.0
 11
71.3216405551
 21
147.0631512036
 31
0.0
  0
LINE
  5
17B
  8
0
  6
CONTINUOUS
 62
     7
 10
66.8016415278
 20
142.5431512451
 30
0.0
 11
66.3016405146
 21
143.043151327
 31
0.0
  0
LINE
  5
17C
  8
0
  6
CONTINUOUS
 62
     7
 10
66.8016415278
 20
143.043151327
 30
0.0
 11
66.3016405146
 21
143.043151327
 31
0.0
  0
LINE
  5
17D
  8
0
  6
CONTINUOUS
 62
     7
 10
70.8216395418
 20
147.5631512856
 30
0.0
 11
71.3216405551
 21
147.0631512036
 31
0.0
  0
LINE
  5
17E
  8
0
  6
CONTINUOUS
 62
     7
 10
70.8216395418
 20
147.5631512856
 30
0.0
 11
70.8216395418
 21
147.0631512036
 31
0.0
  0
LINE
  5
17F
  8
0
  6
CONTINUOUS
 62
     7
 10
66.3016405146
 20
143.043151327
 30
0.0
 11
66.3016405146
 21
147.0631512036
 31
0.0
  0
LINE
  5
180
  8
0
  6
CONTINUOUS
 62
     7
 10
66.3016405146
 20
147.0631512036
 30
0.0
 11
66.8016415278
 21
147.0631512036
 31
0.0
  0
LINE
  5
181
  8
0
  6
CONTINUOUS
 62
     7
 10
66.8016415278
 20
147.5631512856
 30
0.0
 11
70.8216395418
 21
147.5631512856
 31
0.0
  0
LINE
  5
182
  8
0
  6
CONTINUOUS
 62
     7
 10
66.8016415278
 20
147.5631512856
 30
0.0
 11
66.8016415278
 21
147.0631512036
 31
0.0
  0
LINE
  5
183
  8
0
  6
CONTINUOUS
 62
     7
 10
66.3016405146
 20
147.0631512036
 30
0.0
 11
66.8016415278
 21
147.5631512856
 31
0.0
  0
CIRCLE
  5
184
  8
0
  6
CONTINUOUS
 62
     7
 10
73.8916398714
 20
145.0531511254
 30
0.0
 40
0.8000000000000114
  0
LINE
  5
185
  8
0
  6
CONTINUOUS
 62
     7
 10
76.4016401212
 20
147.0631512036
 30
0.0
 11
76.4016401212
 21
143.043151327
 31
0.0
  0
LINE
  5
186
  8
0
  6
CONTINUOUS
 62
     7
 10
76.4016401212
 20
143.043151327
 30
0.0
 11
75.9016391079
 21
143.043151327
 31
0.0
  0
LINE
  5
187
  8
0
  6
CONTINUOUS
 62
     7
 10
75.9016391079
 20
143.043151327
 30
0.0
 11
75.9016391079
 21
147.0631512036
 31
0.0
  0
LINE
  5
188
  8
0
  6
CONTINUOUS
 62
     7
 10
75.9016391079
 20
147.0631512036
 30
0.0
 11
76.4016401212
 21
147.0631512036
 31
0.0
  0
LINE
  5
189
  8
0
  6
CONTINUOUS
 62
     7
 10
76.4016401212
 20
143.043151327
 30
0.0
 11
75.9016391079
 21
142.5431512451
 31
0.0
  0
LINE
  5
18A
  8
0
  6
CONTINUOUS
 62
     7
 10
75.9016391079
 20
143.043151327
 30
0.0
 11
75.9016391079
 21
142.5431512451
 31
0.0
  0
LINE
  5
18B
  8
0
  6
CONTINUOUS
 62
     7
 10
71.8816410939
 20
143.043151327
 30
0.0
 11
75.9016391079
 21
143.043151327
 31
0.0
  0
LINE
  5
18C
  8
0
  6
CONTINUOUS
 62
     7
 10
75.9016391079
 20
142.5431512451
 30
0.0
 11
71.8816410939
 21
142.5431512451
 31
0.0
  0
LINE
  5
18D
  8
0
  6
CONTINUOUS
 62
     7
 10
71.8816410939
 20
143.043151327
 30
0.0
 11
71.8816410939
 21
142.5431512451
 31
0.0
  0
LINE
  5
18E
  8
0
  6
CONTINUOUS
 62
     7
 10
71.8816410939
 20
147.0631512036
 30
0.0
 11
71.8816410939
 21
143.043151327
 31
0.0
  0
LINE
  5
18F
  8
0
  6
CONTINUOUS
 62
     7
 10
75.9016391079
 20
147.0631512036
 30
0.0
 11
71.8816410939
 21
147.0631512036
 31
0.0
  0
LINE
  5
190
  8
0
  6
CONTINUOUS
 62
     7
 10
71.8816410939
 20
147.5631512856
 30
0.0
 11
75.9016391079
 21
147.5631512856
 31
0.0
  0
LINE
  5
191
  8
0
  6
CONTINUOUS
 62
     7
 10
75.9016391079
 20
147.5631512856
 30
0.0
 11
75.9016391079
 21
147.0631512036
 31
0.0
  0
LINE
  5
192
  8
0
  6
CONTINUOUS
 62
     7
 10
71.8816410939
 20
147.5631512856
 30
0.0
 11
71.8816410939
 21
147.0631512036
 31
0.0
  0
LINE
  5
193
  8
0
  6
CONTINUOUS
 62
     7
 10
71.8816410939
 20
142.5431512451
 30
0.0
 11
71.3816400806
 21
143.043151327
 31
0.0
  0
LINE
  5
194
  8
0
  6
CONTINUOUS
 62
     7
 10
71.8816410939
 20
143.043151327
 30
0.0
 11
71.3816400806
 21
143.043151327
 31
0.0
  0
LINE
  5
195
  8
0
  6
CONTINUOUS
 62
     7
 10
75.9016391079
 20
147.5631512856
 30
0.0
 11
76.4016401212
 21
147.0631512036
 31
0.0
  0
LINE
  5
196
  8
0
  6
CONTINUOUS
 62
     7
 10
71.3816400806
 20
143.043151327
 30
0.0
 11
71.3816400806
 21
147.0631512036
 31
0.0
  0
LINE
  5
197
  8
0
  6
CONTINUOUS
 62
     7
 10
71.3816400806
 20
147.0631512036
 30
0.0
 11
71.8816410939
 21
147.0631512036
 31
0.0
  0
LINE
  5
198
  8
0
  6
CONTINUOUS
 62
     7
 10
71.3816400806
 20
147.0631512036
 30
0.0
 11
71.8816410939
 21
147.5631512856
 31
0.0
  0
CIRCLE
  5
199
  8
0
  6
CONTINUOUS
 62
     7
 10
53.5716398714
 20
206.0131511254
 30
0.0
 40
0.799999999999983
  0
LINE
  5
19A
  8
0
  6
CONTINUOUS
 62
     7
 10
51.5616391043
 20
204.0031545019
 30
0.0
 11
51.5716415088
 21
204.0031545019
 31
0.0
  0
LINE
  5
19B
  8
0
  6
CONTINUOUS
 62
     7
 10
51.5716415088
 20
203.5031534886
 30
0.0
 11
51.5616391043
 21
203.5031534886
 31
0.0
  0
LINE
  5
19C
  8
0
  6
CONTINUOUS
 62
     7
 10
51.5616391043
 20
204.0031545019
 30
0.0
 11
51.5616391043
 21
203.5031534886
 31
0.0
  0
LINE
  5
19D
  8
0
  6
CONTINUOUS
 62
     7
 10
51.5716415088
 20
208.0231525158
 30
0.0
 11
51.5616391043
 21
208.0231525158
 31
0.0
  0
LINE
  5
19E
  8
0
  6
CONTINUOUS
 62
     7
 10
51.5616391043
 20
208.0231525158
 30
0.0
 11
51.5616391043
 21
204.0031545019
 31
0.0
  0
LINE
  5
19F
  8
0
  6
CONTINUOUS
 62
     7
 10
51.061638091
 20
204.0031545019
 30
0.0
 11
51.5616391043
 21
203.5031534886
 31
0.0
  0
LINE
  5
1A0
  8
0
  6
CONTINUOUS
 62
     7
 10
51.5616391043
 20
204.0031545019
 30
0.0
 11
51.061638091
 21
204.0031545019
 31
0.0
  0
LINE
  5
1A1
  8
0
  6
CONTINUOUS
 62
     7
 10
51.061638091
 20
204.0031545019
 30
0.0
 11
51.061638091
 21
208.0231525158
 31
0.0
  0
LINE
  5
1A2
  8
0
  6
CONTINUOUS
 62
     7
 10
51.5616391043
 20
208.0231525158
 30
0.0
 11
51.061638091
 21
208.0231525158
 31
0.0
  0
LINE
  5
1A3
  8
0
  6
CONTINUOUS
 62
     7
 10
51.5616391043
 20
208.0231525158
 30
0.0
 11
51.5616391043
 21
208.5231535291
 31
0.0
  0
LINE
  5
1A4
  8
0
  6
CONTINUOUS
 62
     7
 10
51.5616391043
 20
208.5231535291
 30
0.0
 11
51.5716415088
 21
208.5231535291
 31
0.0
  0
LINE
  5
1A5
  8
0
  6
CONTINUOUS
 62
     7
 10
51.5616391043
 20
208.5231535291
 30
0.0
 11
51.061638091
 21
208.0231525158
 31
0.0
  0
CIRCLE
  5
1A6
  8
0
  6
CONTINUOUS
 62
     7
 10
53.5716398714
 20
200.9331511254
 30
0.0
 40
0.8000000000000114
  0
LINE
  5
1A7
  8
0
  6
CONTINUOUS
 62
     7
 10
51.5616391043
 20
198.9231474852
 30
0.0
 11
51.5716415088
 21
198.9231474852
 31
0.0
  0
LINE
  5
1A8
  8
0
  6
CONTINUOUS
 62
     7
 10
51.5716415088
 20
198.4231539225
 30
0.0
 11
51.5616391043
 21
198.4231539225
 31
0.0
  0
LINE
  5
1A9
  8
0
  6
CONTINUOUS
 62
     7
 10
51.5616391043
 20
198.9231474852
 30
0.0
 11
51.5616391043
 21
198.4231539225
 31
0.0
  0
LINE
  5
1AA
  8
0
  6
CONTINUOUS
 62
     7
 10
51.5716415088
 20
202.9431529498
 30
0.0
 11
51.5616391043
 21
202.9431529498
 31
0.0
  0
LINE
  5
1AB
  8
0
  6
CONTINUOUS
 62
     7
 10
51.5616391043
 20
202.9431529498
 30
0.0
 11
51.5616391043
 21
198.9231474852
 31
0.0
  0
LINE
  5
1AC
  8
0
  6
CONTINUOUS
 62
     7
 10
51.061638091
 20
198.9231474852
 30
0.0
 11
51.5616391043
 21
198.4231539225
 31
0.0
  0
LINE
  5
1AD
  8
0
  6
CONTINUOUS
 62
     7
 10
51.5616391043
 20
198.9231474852
 30
0.0
 11
51.061638091
 21
198.9231474852
 31
0.0
  0
LINE
  5
1AE
  8
0
  6
CONTINUOUS
 62
     7
 10
51.5616391043
 20
202.9431529498
 30
0.0
 11
51.5616391043
 21
203.443153963
 31
0.0
  0
LINE
  5
1AF
  8
0
  6
CONTINUOUS
 62
     7
 10
51.5616391043
 20
203.443153963
 30
0.0
 11
51.5716415088
 21
203.443153963
 31
0.0
  0
LINE
  5
1B0
  8
0
  6
CONTINUOUS
 62
     7
 10
51.061638091
 20
198.9231474852
 30
0.0
 11
51.061638091
 21
202.9431529498
 31
0.0
  0
LINE
  5
1B1
  8
0
  6
CONTINUOUS
 62
     7
 10
51.5616391043
 20
202.9431529498
 30
0.0
 11
51.061638091
 21
202.9431529498
 31
0.0
  0
LINE
  5
1B2
  8
0
  6
CONTINUOUS
 62
     7
 10
51.5616391043
 20
203.443153963
 30
0.0
 11
51.061638091
 21
202.9431529498
 31
0.0
  0
CIRCLE
  5
1B3
  8
0
  6
CONTINUOUS
 62
     7
 10
53.5716398714
 20
195.8531511254
 30
0.0
 40
0.8000000000000114
  0
LINE
  5
1B4
  8
0
  6
CONTINUOUS
 62
     7
 10
51.5616391043
 20
193.8431516444
 30
0.0
 11
51.5716415088
 21
193.8431516444
 31
0.0
  0
LINE
  5
1B5
  8
0
  6
CONTINUOUS
 62
     7
 10
51.5716415088
 20
193.3431506311
 30
0.0
 11
51.5616391043
 21
193.3431506311
 31
0.0
  0
LINE
  5
1B6
  8
0
  6
CONTINUOUS
 62
     7
 10
51.5616391043
 20
193.8431516444
 30
0.0
 11
51.5616391043
 21
193.3431506311
 31
0.0
  0
LINE
  5
1B7
  8
0
  6
CONTINUOUS
 62
     7
 10
51.5716415088
 20
197.8631533837
 30
0.0
 11
51.5616391043
 21
197.8631533837
 31
0.0
  0
LINE
  5
1B8
  8
0
  6
CONTINUOUS
 62
     7
 10
51.5616391043
 20
197.8631533837
 30
0.0
 11
51.5616391043
 21
193.8431516444
 31
0.0
  0
LINE
  5
1B9
  8
0
  6
CONTINUOUS
 62
     7
 10
51.061638091
 20
193.8431516444
 30
0.0
 11
51.5616391043
 21
193.3431506311
 31
0.0
  0
LINE
  5
1BA
  8
0
  6
CONTINUOUS
 62
     7
 10
51.5616391043
 20
193.8431516444
 30
0.0
 11
51.061638091
 21
193.8431516444
 31
0.0
  0
LINE
  5
1BB
  8
0
  6
CONTINUOUS
 62
     7
 10
51.061638091
 20
193.8431516444
 30
0.0
 11
51.061638091
 21
197.8631533837
 31
0.0
  0
LINE
  5
1BC
  8
0
  6
CONTINUOUS
 62
     7
 10
51.5616391043
 20
197.8631533837
 30
0.0
 11
51.061638091
 21
197.8631533837
 31
0.0
  0
LINE
  5
1BD
  8
0
  6
CONTINUOUS
 62
     7
 10
51.5616391043
 20
197.8631533837
 30
0.0
 11
51.5616391043
 21
198.363154397
 31
0.0
  0
LINE
  5
1BE
  8
0
  6
CONTINUOUS
 62
     7
 10
51.5616391043
 20
198.363154397
 30
0.0
 11
51.5716415088
 21
198.363154397
 31
0.0
  0
LINE
  5
1BF
  8
0
  6
CONTINUOUS
 62
     7
 10
51.5616391043
 20
198.363154397
 30
0.0
 11
51.061638091
 21
197.8631533837
 31
0.0
  0
CIRCLE
  5
1C0
  8
0
  6
CONTINUOUS
 62
     7
 10
53.5716398714
 20
190.7731511254
 30
0.0
 40
0.8000000000000114
  0
LINE
  5
1C1
  8
0
  6
CONTINUOUS
 62
     7
 10
51.5616391043
 20
188.7631520783
 30
0.0
 11
51.5716415088
 21
188.7631520783
 31
0.0
  0
LINE
  5
1C2
  8
0
  6
CONTINUOUS
 62
     7
 10
51.5716415088
 20
188.2631510651
 30
0.0
 11
51.5616391043
 21
188.2631510651
 31
0.0
  0
LINE
  5
1C3
  8
0
  6
CONTINUOUS
 62
     7
 10
51.5616391043
 20
188.7631520783
 30
0.0
 11
51.5616391043
 21
188.2631510651
 31
0.0
  0
LINE
  5
1C4
  8
0
  6
CONTINUOUS
 62
     7
 10
51.5716415088
 20
192.7831500923
 30
0.0
 11
51.5616391043
 21
192.7831500923
 31
0.0
  0
LINE
  5
1C5
  8
0
  6
CONTINUOUS
 62
     7
 10
51.5616391043
 20
192.7831500923
 30
0.0
 11
51.5616391043
 21
188.7631520783
 31
0.0
  0
LINE
  5
1C6
  8
0
  6
CONTINUOUS
 62
     7
 10
51.061638091
 20
188.7631520783
 30
0.0
 11
51.5616391043
 21
188.2631510651
 31
0.0
  0
LINE
  5
1C7
  8
0
  6
CONTINUOUS
 62
     7
 10
51.5616391043
 20
188.7631520783
 30
0.0
 11
51.061638091
 21
188.7631520783
 31
0.0
  0
LINE
  5
1C8
  8
0
  6
CONTINUOUS
 62
     7
 10
51.061638091
 20
188.7631520783
 30
0.0
 11
51.061638091
 21
192.7831500923
 31
0.0
  0
LINE
  5
1C9
  8
0
  6
CONTINUOUS
 62
     7
 10
51.5616391043
 20
192.7831500923
 30
0.0
 11
51.061638091
 21
192.7831500923
 31
0.0
  0
LINE
  5
1CA
  8
0
  6
CONTINUOUS
 62
     7
 10
51.5616391043
 20
192.7831500923
 30
0.0
 11
51.5616391043
 21
193.2831511056
 31
0.0
  0
LINE
  5
1CB
  8
0
  6
CONTINUOUS
 62
     7
 10
51.5616391043
 20
193.2831511056
 30
0.0
 11
51.5716415088
 21
193.2831511056
 31
0.0
  0
LINE
  5
1CC
  8
0
  6
CONTINUOUS
 62
     7
 10
51.5616391043
 20
193.2831511056
 30
0.0
 11
51.061638091
 21
192.7831500923
 31
0.0
  0
CIRCLE
  5
1CD
  8
0
  6
CONTINUOUS
 62
     7
 10
53.5716398714
 20
185.6931511254
 30
0.0
 40
0.8000000000000398
  0
LINE
  5
1CE
  8
0
  6
CONTINUOUS
 62
     7
 10
51.5616391043
 20
183.6831525123
 30
0.0
 11
51.5716415088
 21
183.6831525123
 31
0.0
  0
LINE
  5
1CF
  8
0
  6
CONTINUOUS
 62
     7
 10
51.5716415088
 20
183.183151499
 30
0.0
 11
51.5616391043
 21
183.183151499
 31
0.0
  0
LINE
  5
1D0
  8
0
  6
CONTINUOUS
 62
     7
 10
51.5616391043
 20
183.6831525123
 30
0.0
 11
51.5616391043
 21
183.183151499
 31
0.0
  0
LINE
  5
1D1
  8
0
  6
CONTINUOUS
 62
     7
 10
51.5716415088
 20
187.7031505262
 30
0.0
 11
51.5616391043
 21
187.7031505262
 31
0.0
  0
LINE
  5
1D2
  8
0
  6
CONTINUOUS
 62
     7
 10
51.5616391043
 20
187.7031505262
 30
0.0
 11
51.5616391043
 21
183.6831525123
 31
0.0
  0
LINE
  5
1D3
  8
0
  6
CONTINUOUS
 62
     7
 10
51.061638091
 20
183.6831525123
 30
0.0
 11
51.5616391043
 21
183.183151499
 31
0.0
  0
LINE
  5
1D4
  8
0
  6
CONTINUOUS
 62
     7
 10
51.5616391043
 20
183.6831525123
 30
0.0
 11
51.061638091
 21
183.6831525123
 31
0.0
  0
LINE
  5
1D5
  8
0
  6
CONTINUOUS
 62
     7
 10
51.061638091
 20
183.6831525123
 30
0.0
 11
51.061638091
 21
187.7031505262
 31
0.0
  0
LINE
  5
1D6
  8
0
  6
CONTINUOUS
 62
     7
 10
51.5616391043
 20
187.7031505262
 30
0.0
 11
51.061638091
 21
187.7031505262
 31
0.0
  0
LINE
  5
1D7
  8
0
  6
CONTINUOUS
 62
     7
 10
51.5616391043
 20
187.7031505262
 30
0.0
 11
51.5616391043
 21
188.2031515395
 31
0.0
  0
LINE
  5
1D8
  8
0
  6
CONTINUOUS
 62
     7
 10
51.5616391043
 20
188.2031515395
 30
0.0
 11
51.5716415088
 21
188.2031515395
 31
0.0
  0
LINE
  5
1D9
  8
0
  6
CONTINUOUS
 62
     7
 10
51.5616391043
 20
188.2031515395
 30
0.0
 11
51.061638091
 21
187.7031505262
 31
0.0
  0
CIRCLE
  5
1DA
  8
0
  6
CONTINUOUS
 62
     7
 10
86.5916398714
 20
180.6131511254
 30
0.0
 40
0.8000000000000114
  0
LINE
  5
1DB
  8
0
  6
CONTINUOUS
 62
     7
 10
89.1016390364
 20
178.6031529462
 30
0.0
 11
88.6016398857
 21
178.1031519329
 31
0.0
  0
LINE
  5
1DC
  8
0
  6
CONTINUOUS
 62
     7
 10
88.6016398857
 20
178.6031529462
 30
0.0
 11
88.6016398857
 21
178.1031519329
 31
0.0
  0
LINE
  5
1DD
  8
0
  6
CONTINUOUS
 62
     7
 10
88.6016398857
 20
178.6031529462
 30
0.0
 11
89.1016390364
 21
178.6031529462
 31
0.0
  0
LINE
  5
1DE
  8
0
  6
CONTINUOUS
 62
     7
 10
88.6016398857
 20
178.6031529462
 30
0.0
 11
88.6016398857
 21
182.6231509602
 31
0.0
  0
LINE
  5
1DF
  8
0
  6
CONTINUOUS
 62
     7
 10
88.6016398857
 20
182.6231509602
 30
0.0
 11
89.1016390364
 21
182.6231509602
 31
0.0
  0
LINE
  5
1E0
  8
0
  6
CONTINUOUS
 62
     7
 10
89.1016390364
 20
182.6231509602
 30
0.0
 11
89.1016390364
 21
178.6031529462
 31
0.0
  0
LINE
  5
1E1
  8
0
  6
CONTINUOUS
 62
     7
 10
84.5816400091
 20
178.6031529462
 30
0.0
 11
88.6016398857
 21
178.6031529462
 31
0.0
  0
LINE
  5
1E2
  8
0
  6
CONTINUOUS
 62
     7
 10
84.5816400091
 20
182.6231509602
 30
0.0
 11
84.5816400091
 21
178.6031529462
 31
0.0
  0
LINE
  5
1E3
  8
0
  6
CONTINUOUS
 62
     7
 10
88.6016398857
 20
182.6231509602
 30
0.0
 11
84.5816400091
 21
182.6231509602
 31
0.0
  0
LINE
  5
1E4
  8
0
  6
CONTINUOUS
 62
     7
 10
88.6016398857
 20
178.1031519329
 30
0.0
 11
84.5816400091
 21
178.1031519329
 31
0.0
  0
LINE
  5
1E5
  8
0
  6
CONTINUOUS
 62
     7
 10
84.5816400091
 20
178.1031519329
 30
0.0
 11
84.5816400091
 21
178.6031529462
 31
0.0
  0
LINE
  5
1E6
  8
0
  6
CONTINUOUS
 62
     7
 10
88.6016398857
 20
183.1231519734
 30
0.0
 11
89.1016390364
 21
182.6231509602
 31
0.0
  0
LINE
  5
1E7
  8
0
  6
CONTINUOUS
 62
     7
 10
88.6016398857
 20
183.1231519734
 30
0.0
 11
88.6016398857
 21
182.6231509602
 31
0.0
  0
LINE
  5
1E8
  8
0
  6
CONTINUOUS
 62
     7
 10
84.0816389958
 20
178.6031529462
 30
0.0
 11
84.5816400091
 21
178.6031529462
 31
0.0
  0
LINE
  5
1E9
  8
0
  6
CONTINUOUS
 62
     7
 10
84.5816400091
 20
178.1031519329
 30
0.0
 11
84.0816389958
 21
178.6031529462
 31
0.0
  0
LINE
  5
1EA
  8
0
  6
CONTINUOUS
 62
     7
 10
84.0816389958
 20
178.6031529462
 30
0.0
 11
84.0816389958
 21
182.6231509602
 31
0.0
  0
LINE
  5
1EB
  8
0
  6
CONTINUOUS
 62
     7
 10
84.0816389958
 20
182.6231509602
 30
0.0
 11
84.5816400091
 21
182.6231509602
 31
0.0
  0
LINE
  5
1EC
  8
0
  6
CONTINUOUS
 62
     7
 10
84.5816400091
 20
183.1231519734
 30
0.0
 11
88.6016398857
 21
183.1231519734
 31
0.0
  0
LINE
  5
1ED
  8
0
  6
CONTINUOUS
 62
     7
 10
84.5816400091
 20
182.6231509602
 30
0.0
 11
84.5816400091
 21
183.1231519734
 31
0.0
  0
LINE
  5
1EE
  8
0
  6
CONTINUOUS
 62
     7
 10
84.0816389958
 20
182.6231509602
 30
0.0
 11
84.5816400091
 21
183.1231519734
 31
0.0
  0
CIRCLE
  5
1EF
  8
0
  6
CONTINUOUS
 62
     7
 10
86.5916398714
 20
170.4531511254
 30
0.0
 40
0.799999999999983
  0
LINE
  5
1F0
  8
0
  6
CONTINUOUS
 62
     7
 10
89.1016390364
 20
168.4431500887
 30
0.0
 11
88.6016398857
 21
167.9431528007
 31
0.0
  0
LINE
  5
1F1
  8
0
  6
CONTINUOUS
 62
     7
 10
88.6016398857
 20
168.4431500887
 30
0.0
 11
88.6016398857
 21
167.9431528007
 31
0.0
  0
LINE
  5
1F2
  8
0
  6
CONTINUOUS
 62
     7
 10
88.6016398857
 20
168.4431500887
 30
0.0
 11
89.1016390364
 21
168.4431500887
 31
0.0
  0
LINE
  5
1F3
  8
0
  6
CONTINUOUS
 62
     7
 10
88.6016398857
 20
168.4431500887
 30
0.0
 11
88.6016398857
 21
172.463151828
 31
0.0
  0
LINE
  5
1F4
  8
0
  6
CONTINUOUS
 62
     7
 10
88.6016398857
 20
172.463151828
 30
0.0
 11
89.1016390364
 21
172.463151828
 31
0.0
  0
LINE
  5
1F5
  8
0
  6
CONTINUOUS
 62
     7
 10
89.1016390364
 20
172.463151828
 30
0.0
 11
89.1016390364
 21
168.4431500887
 31
0.0
  0
LINE
  5
1F6
  8
0
  6
CONTINUOUS
 62
     7
 10
84.5816400091
 20
168.4431500887
 30
0.0
 11
88.6016398857
 21
168.4431500887
 31
0.0
  0
LINE
  5
1F7
  8
0
  6
CONTINUOUS
 62
     7
 10
84.5816400091
 20
172.463151828
 30
0.0
 11
84.5816400091
 21
168.4431500887
 31
0.0
  0
LINE
  5
1F8
  8
0
  6
CONTINUOUS
 62
     7
 10
88.6016398857
 20
172.463151828
 30
0.0
 11
84.5816400091
 21
172.463151828
 31
0.0
  0
LINE
  5
1F9
  8
0
  6
CONTINUOUS
 62
     7
 10
88.6016398857
 20
167.9431528007
 30
0.0
 11
84.5816400091
 21
167.9431528007
 31
0.0
  0
LINE
  5
1FA
  8
0
  6
CONTINUOUS
 62
     7
 10
84.5816400091
 20
167.9431528007
 30
0.0
 11
84.5816400091
 21
168.4431500887
 31
0.0
  0
LINE
  5
1FB
  8
0
  6
CONTINUOUS
 62
     7
 10
84.0816389958
 20
168.4431500887
 30
0.0
 11
84.5816400091
 21
168.4431500887
 31
0.0
  0
LINE
  5
1FC
  8
0
  6
CONTINUOUS
 62
     7
 10
84.5816400091
 20
167.9431528007
 30
0.0
 11
84.0816389958
 21
168.4431500887
 31
0.0
  0
LINE
  5
1FD
  8
0
  6
CONTINUOUS
 62
     7
 10
88.6016398857
 20
172.9631528413
 30
0.0
 11
89.1016390364
 21
172.463151828
 31
0.0
  0
LINE
  5
1FE
  8
0
  6
CONTINUOUS
 62
     7
 10
88.6016398857
 20
172.9631528413
 30
0.0
 11
88.6016398857
 21
172.463151828
 31
0.0
  0
LINE
  5
1FF
  8
0
  6
CONTINUOUS
 62
     7
 10
84.0816389958
 20
168.4431500887
 30
0.0
 11
84.0816389958
 21
172.463151828
 31
0.0
  0
LINE
  5
200
  8
0
  6
CONTINUOUS
 62
     7
 10
84.0816389958
 20
172.463151828
 30
0.0
 11
84.5816400091
 21
172.463151828
 31
0.0
  0
LINE
  5
201
  8
0
  6
CONTINUOUS
 62
     7
 10
84.5816400091
 20
172.9631528413
 30
0.0
 11
88.6016398857
 21
172.9631528413
 31
0.0
  0
LINE
  5
202
  8
0
  6
CONTINUOUS
 62
     7
 10
84.5816400091
 20
172.463151828
 30
0.0
 11
84.5816400091
 21
172.9631528413
 31
0.0
  0
LINE
  5
203
  8
0
  6
CONTINUOUS
 62
     7
 10
84.0816389958
 20
172.463151828
 30
0.0
 11
84.5816400091
 21
172.9631528413
 31
0.0
  0
CIRCLE
  5
204
  8
0
  6
CONTINUOUS
 62
     7
 10
86.5916398714
 20
185.6931511254
 30
0.0
 40
0.799999999999983
  0
LINE
  5
205
  8
0
  6
CONTINUOUS
 62
     7
 10
88.6016398857
 20
183.6831525123
 30
0.0
 11
88.6016398857
 21
187.7031505262
 31
0.0
  0
LINE
  5
206
  8
0
  6
CONTINUOUS
 62
     7
 10
88.6016398857
 20
187.7031505262
 30
0.0
 11
89.1016390364
 21
187.7031505262
 31
0.0
  0
LINE
  5
207
  8
0
  6
CONTINUOUS
 62
     7
 10
89.1016390364
 20
187.7031505262
 30
0.0
 11
89.1016390364
 21
183.6831525123
 31
0.0
  0
LINE
  5
208
  8
0
  6
CONTINUOUS
 62
     7
 10
88.6016398857
 20
183.6831525123
 30
0.0
 11
89.1016390364
 21
183.6831525123
 31
0.0
  0
LINE
  5
209
  8
0
  6
CONTINUOUS
 62
     7
 10
84.5816400091
 20
183.6831525123
 30
0.0
 11
88.6016398857
 21
183.6831525123
 31
0.0
  0
LINE
  5
20A
  8
0
  6
CONTINUOUS
 62
     7
 10
88.6016398857
 20
183.6831525123
 30
0.0
 11
88.6016398857
 21
183.183151499
 31
0.0
  0
LINE
  5
20B
  8
0
  6
CONTINUOUS
 62
     7
 10
88.6016398857
 20
183.183151499
 30
0.0
 11
84.5816400091
 21
183.183151499
 31
0.0
  0
LINE
  5
20C
  8
0
  6
CONTINUOUS
 62
     7
 10
84.5816400091
 20
183.183151499
 30
0.0
 11
84.5816400091
 21
183.6831525123
 31
0.0
  0
LINE
  5
20D
  8
0
  6
CONTINUOUS
 62
     7
 10
89.1016390364
 20
183.6831525123
 30
0.0
 11
88.6016398857
 21
183.183151499
 31
0.0
  0
LINE
  5
20E
  8
0
  6
CONTINUOUS
 62
     7
 10
84.5816400091
 20
187.7031505262
 30
0.0
 11
84.5816400091
 21
183.6831525123
 31
0.0
  0
LINE
  5
20F
  8
0
  6
CONTINUOUS
 62
     7
 10
88.6016398857
 20
187.7031505262
 30
0.0
 11
84.5816400091
 21
187.7031505262
 31
0.0
  0
LINE
  5
210
  8
0
  6
CONTINUOUS
 62
     7
 10
84.0816389958
 20
183.6831525123
 30
0.0
 11
84.5816400091
 21
183.6831525123
 31
0.0
  0
LINE
  5
211
  8
0
  6
CONTINUOUS
 62
     7
 10
84.5816400091
 20
183.183151499
 30
0.0
 11
84.0816389958
 21
183.6831525123
 31
0.0
  0
LINE
  5
212
  8
0
  6
CONTINUOUS
 62
     7
 10
88.6016398857
 20
188.2031515395
 30
0.0
 11
89.1016390364
 21
187.7031505262
 31
0.0
  0
LINE
  5
213
  8
0
  6
CONTINUOUS
 62
     7
 10
88.6016398857
 20
188.2031515395
 30
0.0
 11
88.6016398857
 21
187.7031505262
 31
0.0
  0
LINE
  5
214
  8
0
  6
CONTINUOUS
 62
     7
 10
84.5816400091
 20
188.2031515395
 30
0.0
 11
88.6016398857
 21
188.2031515395
 31
0.0
  0
LINE
  5
215
  8
0
  6
CONTINUOUS
 62
     7
 10
84.5816400091
 20
187.7031505262
 30
0.0
 11
84.5816400091
 21
188.2031515395
 31
0.0
  0
LINE
  5
216
  8
0
  6
CONTINUOUS
 62
     7
 10
84.0816389958
 20
183.6831525123
 30
0.0
 11
84.0816389958
 21
187.7031505262
 31
0.0
  0
LINE
  5
217
  8
0
  6
CONTINUOUS
 62
     7
 10
84.0816389958
 20
187.7031505262
 30
0.0
 11
84.5816400091
 21
187.7031505262
 31
0.0
  0
LINE
  5
218
  8
0
  6
CONTINUOUS
 62
     7
 10
84.0816389958
 20
187.7031505262
 30
0.0
 11
84.5816400091
 21
188.2031515395
 31
0.0
  0
CIRCLE
  5
219
  8
0
  6
CONTINUOUS
 62
     7
 10
86.5916398714
 20
175.5331511254
 30
0.0
 40
0.799999999999983
  0
LINE
  5
21A
  8
0
  6
CONTINUOUS
 62
     7
 10
88.6016398857
 20
173.5231496548
 30
0.0
 11
88.6016398857
 21
177.5431513941
 31
0.0
  0
LINE
  5
21B
  8
0
  6
CONTINUOUS
 62
     7
 10
88.6016398857
 20
177.5431513941
 30
0.0
 11
89.1016390364
 21
177.5431513941
 31
0.0
  0
LINE
  5
21C
  8
0
  6
CONTINUOUS
 62
     7
 10
89.1016390364
 20
177.5431513941
 30
0.0
 11
89.1016390364
 21
173.5231496548
 31
0.0
  0
LINE
  5
21D
  8
0
  6
CONTINUOUS
 62
     7
 10
88.6016398857
 20
173.5231496548
 30
0.0
 11
89.1016390364
 21
173.5231496548
 31
0.0
  0
LINE
  5
21E
  8
0
  6
CONTINUOUS
 62
     7
 10
89.1016390364
 20
173.5231496548
 30
0.0
 11
88.6016398857
 21
173.0231523668
 31
0.0
  0
LINE
  5
21F
  8
0
  6
CONTINUOUS
 62
     7
 10
88.6016398857
 20
173.5231496548
 30
0.0
 11
88.6016398857
 21
173.0231523668
 31
0.0
  0
LINE
  5
220
  8
0
  6
CONTINUOUS
 62
     7
 10
84.5816400091
 20
173.5231496548
 30
0.0
 11
88.6016398857
 21
173.5231496548
 31
0.0
  0
LINE
  5
221
  8
0
  6
CONTINUOUS
 62
     7
 10
88.6016398857
 20
173.0231523668
 30
0.0
 11
84.5816400091
 21
173.0231523668
 31
0.0
  0
LINE
  5
222
  8
0
  6
CONTINUOUS
 62
     7
 10
84.5816400091
 20
173.0231523668
 30
0.0
 11
84.5816400091
 21
173.5231496548
 31
0.0
  0
LINE
  5
223
  8
0
  6
CONTINUOUS
 62
     7
 10
84.5816400091
 20
177.5431513941
 30
0.0
 11
84.5816400091
 21
173.5231496548
 31
0.0
  0
LINE
  5
224
  8
0
  6
CONTINUOUS
 62
     7
 10
88.6016398857
 20
177.5431513941
 30
0.0
 11
84.5816400091
 21
177.5431513941
 31
0.0
  0
LINE
  5
225
  8
0
  6
CONTINUOUS
 62
     7
 10
84.0816389958
 20
173.5231496548
 30
0.0
 11
84.0816389958
 21
177.5431513941
 31
0.0
  0
LINE
  5
226
  8
0
  6
CONTINUOUS
 62
     7
 10
84.0816389958
 20
177.5431513941
 30
0.0
 11
84.5816400091
 21
177.5431513941
 31
0.0
  0
LINE
  5
227
  8
0
  6
CONTINUOUS
 62
     7
 10
84.0816389958
 20
173.5231496548
 30
0.0
 11
84.5816400091
 21
173.5231496548
 31
0.0
  0
LINE
  5
228
  8
0
  6
CONTINUOUS
 62
     7
 10
84.5816400091
 20
178.0431524074
 30
0.0
 11
88.6016398857
 21
178.0431524074
 31
0.0
  0
LINE
  5
229
  8
0
  6
CONTINUOUS
 62
     7
 10
88.6016398857
 20
178.0431524074
 30
0.0
 11
88.6016398857
 21
177.5431513941
 31
0.0
  0
LINE
  5
22A
  8
0
  6
CONTINUOUS
 62
     7
 10
84.5816400091
 20
177.5431513941
 30
0.0
 11
84.5816400091
 21
178.0431524074
 31
0.0
  0
LINE
  5
22B
  8
0
  6
CONTINUOUS
 62
     7
 10
84.5816400091
 20
173.0231523668
 30
0.0
 11
84.0816389958
 21
173.5231496548
 31
0.0
  0
LINE
  5
22C
  8
0
  6
CONTINUOUS
 62
     7
 10
88.6016398857
 20
178.0431524074
 30
0.0
 11
89.1016390364
 21
177.5431513941
 31
0.0
  0
LINE
  5
22D
  8
0
  6
CONTINUOUS
 62
     7
 10
84.0816389958
 20
177.5431513941
 30
0.0
 11
84.5816400091
 21
178.0431524074
 31
0.0
  0
CIRCLE
  5
22E
  8
0
  6
CONTINUOUS
 62
     7
 10
53.5716398714
 20
180.6131511254
 30
0.0
 40
0.799999999999983
  0
LINE
  5
22F
  8
0
  6
CONTINUOUS
 62
     7
 10
51.5616391043
 20
178.6031529462
 30
0.0
 11
51.5716415088
 21
178.6031529462
 31
0.0
  0
LINE
  5
230
  8
0
  6
CONTINUOUS
 62
     7
 10
51.5716415088
 20
178.1031519329
 30
0.0
 11
51.5616391043
 21
178.1031519329
 31
0.0
  0
LINE
  5
231
  8
0
  6
CONTINUOUS
 62
     7
 10
51.5616391043
 20
178.6031529462
 30
0.0
 11
51.5616391043
 21
178.1031519329
 31
0.0
  0
LINE
  5
232
  8
0
  6
CONTINUOUS
 62
     7
 10
51.5716415088
 20
182.6231509602
 30
0.0
 11
51.5616391043
 21
182.6231509602
 31
0.0
  0
LINE
  5
233
  8
0
  6
CONTINUOUS
 62
     7
 10
51.5616391043
 20
182.6231509602
 30
0.0
 11
51.5616391043
 21
178.6031529462
 31
0.0
  0
LINE
  5
234
  8
0
  6
CONTINUOUS
 62
     7
 10
51.061638091
 20
178.6031529462
 30
0.0
 11
51.5616391043
 21
178.1031519329
 31
0.0
  0
LINE
  5
235
  8
0
  6
CONTINUOUS
 62
     7
 10
51.5616391043
 20
178.6031529462
 30
0.0
 11
51.061638091
 21
178.6031529462
 31
0.0
  0
LINE
  5
236
  8
0
  6
CONTINUOUS
 62
     7
 10
51.5616391043
 20
182.6231509602
 30
0.0
 11
51.5616391043
 21
183.1231519734
 31
0.0
  0
LINE
  5
237
  8
0
  6
CONTINUOUS
 62
     7
 10
51.5616391043
 20
183.1231519734
 30
0.0
 11
51.5716415088
 21
183.1231519734
 31
0.0
  0
LINE
  5
238
  8
0
  6
CONTINUOUS
 62
     7
 10
51.061638091
 20
178.6031529462
 30
0.0
 11
51.061638091
 21
182.6231509602
 31
0.0
  0
LINE
  5
239
  8
0
  6
CONTINUOUS
 62
     7
 10
51.5616391043
 20
182.6231509602
 30
0.0
 11
51.061638091
 21
182.6231509602
 31
0.0
  0
LINE
  5
23A
  8
0
  6
CONTINUOUS
 62
     7
 10
51.5616391043
 20
183.1231519734
 30
0.0
 11
51.061638091
 21
182.6231509602
 31
0.0
  0
CIRCLE
  5
23B
  8
0
  6
CONTINUOUS
 62
     7
 10
53.5716398714
 20
175.5331511254
 30
0.0
 40
0.8000000000000398
  0
LINE
  5
23C
  8
0
  6
CONTINUOUS
 62
     7
 10
51.5616391043
 20
173.5231496548
 30
0.0
 11
51.5716415088
 21
173.5231496548
 31
0.0
  0
LINE
  5
23D
  8
0
  6
CONTINUOUS
 62
     7
 10
51.5716415088
 20
173.0231523668
 30
0.0
 11
51.5616391043
 21
173.0231523668
 31
0.0
  0
LINE
  5
23E
  8
0
  6
CONTINUOUS
 62
     7
 10
51.5616391043
 20
173.5231496548
 30
0.0
 11
51.5616391043
 21
173.0231523668
 31
0.0
  0
LINE
  5
23F
  8
0
  6
CONTINUOUS
 62
     7
 10
51.5716415088
 20
177.5431513941
 30
0.0
 11
51.5616391043
 21
177.5431513941
 31
0.0
  0
LINE
  5
240
  8
0
  6
CONTINUOUS
 62
     7
 10
51.5616391043
 20
177.5431513941
 30
0.0
 11
51.5616391043
 21
173.5231496548
 31
0.0
  0
LINE
  5
241
  8
0
  6
CONTINUOUS
 62
     7
 10
51.061638091
 20
173.5231496548
 30
0.0
 11
51.5616391043
 21
173.0231523668
 31
0.0
  0
LINE
  5
242
  8
0
  6
CONTINUOUS
 62
     7
 10
51.5616391043
 20
173.5231496548
 30
0.0
 11
51.061638091
 21
173.5231496548
 31
0.0
  0
LINE
  5
243
  8
0
  6
CONTINUOUS
 62
     7
 10
51.061638091
 20
173.5231496548
 30
0.0
 11
51.061638091
 21
177.5431513941
 31
0.0
  0
LINE
  5
244
  8
0
  6
CONTINUOUS
 62
     7
 10
51.5616391043
 20
177.5431513941
 30
0.0
 11
51.061638091
 21
177.5431513941
 31
0.0
  0
LINE
  5
245
  8
0
  6
CONTINUOUS
 62
     7
 10
51.5616391043
 20
177.5431513941
 30
0.0
 11
51.5616391043
 21
178.0431524074
 31
0.0
  0
LINE
  5
246
  8
0
  6
CONTINUOUS
 62
     7
 10
51.5616391043
 20
178.0431524074
 30
0.0
 11
51.5716415088
 21
178.0431524074
 31
0.0
  0
LINE
  5
247
  8
0
  6
CONTINUOUS
 62
     7
 10
51.5616391043
 20
178.0431524074
 30
0.0
 11
51.061638091
 21
177.5431513941
 31
0.0
  0
CIRCLE
  5
248
  8
0
  6
CONTINUOUS
 62
     7
 10
53.5716398714
 20
170.4531511254
 30
0.0
 40
0.799999999999983
  0
LINE
  5
249
  8
0
  6
CONTINUOUS
 62
     7
 10
51.5616391043
 20
168.4431500887
 30
0.0
 11
51.5716415088
 21
168.4431500887
 31
0.0
  0
LINE
  5
24A
  8
0
  6
CONTINUOUS
 62
     7
 10
51.5716415088
 20
167.9431528007
 30
0.0
 11
51.5616391043
 21
167.9431528007
 31
0.0
  0
LINE
  5
24B
  8
0
  6
CONTINUOUS
 62
     7
 10
51.5616391043
 20
168.4431500887
 30
0.0
 11
51.5616391043
 21
167.9431528007
 31
0.0
  0
LINE
  5
24C
  8
0
  6
CONTINUOUS
 62
     7
 10
51.5716415088
 20
172.463151828
 30
0.0
 11
51.5616391043
 21
172.463151828
 31
0.0
  0
LINE
  5
24D
  8
0
  6
CONTINUOUS
 62
     7
 10
51.5616391043
 20
172.463151828
 30
0.0
 11
51.5616391043
 21
168.4431500887
 31
0.0
  0
LINE
  5
24E
  8
0
  6
CONTINUOUS
 62
     7
 10
51.061638091
 20
168.4431500887
 30
0.0
 11
51.5616391043
 21
167.9431528007
 31
0.0
  0
LINE
  5
24F
  8
0
  6
CONTINUOUS
 62
     7
 10
51.5616391043
 20
168.4431500887
 30
0.0
 11
51.061638091
 21
168.4431500887
 31
0.0
  0
LINE
  5
250
  8
0
  6
CONTINUOUS
 62
     7
 10
51.5616391043
 20
172.463151828
 30
0.0
 11
51.5616391043
 21
172.9631528413
 31
0.0
  0
LINE
  5
251
  8
0
  6
CONTINUOUS
 62
     7
 10
51.5616391043
 20
172.9631528413
 30
0.0
 11
51.5716415088
 21
172.9631528413
 31
0.0
  0
LINE
  5
252
  8
0
  6
CONTINUOUS
 62
     7
 10
51.061638091
 20
168.4431500887
 30
0.0
 11
51.061638091
 21
172.463151828
 31
0.0
  0
LINE
  5
253
  8
0
  6
CONTINUOUS
 62
     7
 10
51.5616391043
 20
172.463151828
 30
0.0
 11
51.061638091
 21
172.463151828
 31
0.0
  0
LINE
  5
254
  8
0
  6
CONTINUOUS
 62
     7
 10
51.5616391043
 20
172.9631528413
 30
0.0
 11
51.061638091
 21
172.463151828
 31
0.0
  0
CIRCLE
  5
255
  8
0
  6
CONTINUOUS
 62
     7
 10
53.5716398714
 20
165.3731511254
 30
0.0
 40
0.799999999999983
  0
LINE
  5
256
  8
0
  6
CONTINUOUS
 62
     7
 10
51.5616391043
 20
163.3631505227
 30
0.0
 11
51.5716415088
 21
163.3631505227
 31
0.0
  0
LINE
  5
257
  8
0
  6
CONTINUOUS
 62
     7
 10
51.5716415088
 20
162.863151372
 30
0.0
 11
51.5616391043
 21
162.863151372
 31
0.0
  0
LINE
  5
258
  8
0
  6
CONTINUOUS
 62
     7
 10
51.5616391043
 20
163.3631505227
 30
0.0
 11
51.5616391043
 21
162.863151372
 31
0.0
  0
LINE
  5
259
  8
0
  6
CONTINUOUS
 62
     7
 10
51.5716415088
 20
167.3831522619
 30
0.0
 11
51.5616391043
 21
167.3831522619
 31
0.0
  0
LINE
  5
25A
  8
0
  6
CONTINUOUS
 62
     7
 10
51.5616391043
 20
167.3831522619
 30
0.0
 11
51.5616391043
 21
163.3631505227
 31
0.0
  0
LINE
  5
25B
  8
0
  6
CONTINUOUS
 62
     7
 10
51.061638091
 20
163.3631505227
 30
0.0
 11
51.5616391043
 21
162.863151372
 31
0.0
  0
LINE
  5
25C
  8
0
  6
CONTINUOUS
 62
     7
 10
51.5616391043
 20
163.3631505227
 30
0.0
 11
51.061638091
 21
163.3631505227
 31
0.0
  0
LINE
  5
25D
  8
0
  6
CONTINUOUS
 62
     7
 10
51.5616391043
 20
167.3831522619
 30
0.0
 11
51.5616391043
 21
167.8831495499
 31
0.0
  0
LINE
  5
25E
  8
0
  6
CONTINUOUS
 62
     7
 10
51.5616391043
 20
167.8831495499
 30
0.0
 11
51.5716415088
 21
167.8831495499
 31
0.0
  0
LINE
  5
25F
  8
0
  6
CONTINUOUS
 62
     7
 10
51.061638091
 20
163.3631505227
 30
0.0
 11
51.061638091
 21
167.3831522619
 31
0.0
  0
LINE
  5
260
  8
0
  6
CONTINUOUS
 62
     7
 10
51.5616391043
 20
167.3831522619
 30
0.0
 11
51.061638091
 21
167.3831522619
 31
0.0
  0
LINE
  5
261
  8
0
  6
CONTINUOUS
 62
     7
 10
51.5616391043
 20
167.8831495499
 30
0.0
 11
51.061638091
 21
167.3831522619
 31
0.0
  0
CIRCLE
  5
262
  8
0
  6
CONTINUOUS
 62
     7
 10
53.5716398714
 20
160.2931511254
 30
0.0
 40
0.8000000000000114
  0
LINE
  5
263
  8
0
  6
CONTINUOUS
 62
     7
 10
51.5616391043
 20
158.2831509566
 30
0.0
 11
51.5716415088
 21
158.2831509566
 31
0.0
  0
LINE
  5
264
  8
0
  6
CONTINUOUS
 62
     7
 10
51.5716415088
 20
157.7831518059
 30
0.0
 11
51.5616391043
 21
157.7831518059
 31
0.0
  0
LINE
  5
265
  8
0
  6
CONTINUOUS
 62
     7
 10
51.5616391043
 20
158.2831509566
 30
0.0
 11
51.5616391043
 21
157.7831518059
 31
0.0
  0
LINE
  5
266
  8
0
  6
CONTINUOUS
 62
     7
 10
51.5716415088
 20
162.3031508332
 30
0.0
 11
51.5616391043
 21
162.3031508332
 31
0.0
  0
LINE
  5
267
  8
0
  6
CONTINUOUS
 62
     7
 10
51.5616391043
 20
162.3031508332
 30
0.0
 11
51.5616391043
 21
158.2831509566
 31
0.0
  0
LINE
  5
268
  8
0
  6
CONTINUOUS
 62
     7
 10
51.061638091
 20
158.2831509566
 30
0.0
 11
51.5616391043
 21
157.7831518059
 31
0.0
  0
LINE
  5
269
  8
0
  6
CONTINUOUS
 62
     7
 10
51.5616391043
 20
158.2831509566
 30
0.0
 11
51.061638091
 21
158.2831509566
 31
0.0
  0
LINE
  5
26A
  8
0
  6
CONTINUOUS
 62
     7
 10
51.5616391043
 20
162.3031508332
 30
0.0
 11
51.5616391043
 21
162.8031518465
 31
0.0
  0
LINE
  5
26B
  8
0
  6
CONTINUOUS
 62
     7
 10
51.5616391043
 20
162.8031518465
 30
0.0
 11
51.5716415088
 21
162.8031518465
 31
0.0
  0
LINE
  5
26C
  8
0
  6
CONTINUOUS
 62
     7
 10
51.061638091
 20
158.2831509566
 30
0.0
 11
51.061638091
 21
162.3031508332
 31
0.0
  0
LINE
  5
26D
  8
0
  6
CONTINUOUS
 62
     7
 10
51.5616391043
 20
162.3031508332
 30
0.0
 11
51.061638091
 21
162.3031508332
 31
0.0
  0
LINE
  5
26E
  8
0
  6
CONTINUOUS
 62
     7
 10
51.5616391043
 20
162.8031518465
 30
0.0
 11
51.061638091
 21
162.3031508332
 31
0.0
  0
CIRCLE
  5
26F
  8
0
  6
CONTINUOUS
 62
     7
 10
53.5716398714
 20
155.2131511254
 30
0.0
 40
0.799999999999983
  0
LINE
  5
270
  8
0
  6
CONTINUOUS
 62
     7
 10
51.5616391043
 20
153.2031513905
 30
0.0
 11
51.5716415088
 21
153.2031513905
 31
0.0
  0
LINE
  5
271
  8
0
  6
CONTINUOUS
 62
     7
 10
51.5716415088
 20
152.7031503772
 30
0.0
 11
51.5616391043
 21
152.7031503772
 31
0.0
  0
LINE
  5
272
  8
0
  6
CONTINUOUS
 62
     7
 10
51.5616391043
 20
153.2031513905
 30
0.0
 11
51.5616391043
 21
152.7031503772
 31
0.0
  0
LINE
  5
273
  8
0
  6
CONTINUOUS
 62
     7
 10
51.5716415088
 20
157.2231512671
 30
0.0
 11
51.5616391043
 21
157.2231512671
 31
0.0
  0
LINE
  5
274
  8
0
  6
CONTINUOUS
 62
     7
 10
51.5616391043
 20
157.2231512671
 30
0.0
 11
51.5616391043
 21
153.2031513905
 31
0.0
  0
LINE
  5
275
  8
0
  6
CONTINUOUS
 62
     7
 10
51.061638091
 20
153.2031513905
 30
0.0
 11
51.5616391043
 21
152.7031503772
 31
0.0
  0
LINE
  5
276
  8
0
  6
CONTINUOUS
 62
     7
 10
51.5616391043
 20
153.2031513905
 30
0.0
 11
51.061638091
 21
153.2031513905
 31
0.0
  0
LINE
  5
277
  8
0
  6
CONTINUOUS
 62
     7
 10
51.5616391043
 20
157.2231512671
 30
0.0
 11
51.5616391043
 21
157.7231504178
 31
0.0
  0
LINE
  5
278
  8
0
  6
CONTINUOUS
 62
     7
 10
51.5616391043
 20
157.7231504178
 30
0.0
 11
51.5716415088
 21
157.7231504178
 31
0.0
  0
LINE
  5
279
  8
0
  6
CONTINUOUS
 62
     7
 10
51.061638091
 20
153.2031513905
 30
0.0
 11
51.061638091
 21
157.2231512671
 31
0.0
  0
LINE
  5
27A
  8
0
  6
CONTINUOUS
 62
     7
 10
51.5616391043
 20
157.2231512671
 30
0.0
 11
51.061638091
 21
157.2231512671
 31
0.0
  0
LINE
  5
27B
  8
0
  6
CONTINUOUS
 62
     7
 10
51.5616391043
 20
157.7231504178
 30
0.0
 11
51.061638091
 21
157.2231512671
 31
0.0
  0
CIRCLE
  5
27C
  8
0
  6
CONTINUOUS
 62
     7
 10
53.5716398714
 20
150.1331511254
 30
0.0
 40
0.8000000000000114
  0
LINE
  5
27D
  8
0
  6
CONTINUOUS
 62
     7
 10
51.5616391043
 20
148.1231508931
 30
0.0
 11
51.5716415088
 21
148.1231508931
 31
0.0
  0
LINE
  5
27E
  8
0
  6
CONTINUOUS
 62
     7
 10
51.5716415088
 20
147.6231508111
 30
0.0
 11
51.5616391043
 21
147.6231508111
 31
0.0
  0
LINE
  5
27F
  8
0
  6
CONTINUOUS
 62
     7
 10
51.5616391043
 20
148.1231508931
 30
0.0
 11
51.5616391043
 21
147.6231508111
 31
0.0
  0
LINE
  5
280
  8
0
  6
CONTINUOUS
 62
     7
 10
51.5716415088
 20
152.143151701
 30
0.0
 11
51.5616391043
 21
152.143151701
 31
0.0
  0
LINE
  5
281
  8
0
  6
CONTINUOUS
 62
     7
 10
51.5616391043
 20
152.143151701
 30
0.0
 11
51.5616391043
 21
148.1231508931
 31
0.0
  0
LINE
  5
282
  8
0
  6
CONTINUOUS
 62
     7
 10
51.061638091
 20
148.1231508931
 30
0.0
 11
51.5616391043
 21
147.6231508111
 31
0.0
  0
LINE
  5
283
  8
0
  6
CONTINUOUS
 62
     7
 10
51.5616391043
 20
148.1231508931
 30
0.0
 11
51.061638091
 21
148.1231508931
 31
0.0
  0
LINE
  5
284
  8
0
  6
CONTINUOUS
 62
     7
 10
51.5616391043
 20
152.143151701
 30
0.0
 11
51.5616391043
 21
152.6431508517
 31
0.0
  0
LINE
  5
285
  8
0
  6
CONTINUOUS
 62
     7
 10
51.5616391043
 20
152.6431508517
 30
0.0
 11
51.5716415088
 21
152.6431508517
 31
0.0
  0
LINE
  5
286
  8
0
  6
CONTINUOUS
 62
     7
 10
51.061638091
 20
148.1231508931
 30
0.0
 11
51.061638091
 21
152.143151701
 31
0.0
  0
LINE
  5
287
  8
0
  6
CONTINUOUS
 62
     7
 10
51.5616391043
 20
152.143151701
 30
0.0
 11
51.061638091
 21
152.143151701
 31
0.0
  0
LINE
  5
288
  8
0
  6
CONTINUOUS
 62
     7
 10
51.5616391043
 20
152.6431508517
 30
0.0
 11
51.061638091
 21
152.143151701
 31
0.0
  0
CIRCLE
  5
289
  8
0
  6
CONTINUOUS
 62
     7
 10
53.5716398714
 20
145.0531511254
 30
0.0
 40
0.799999999999983
  0
LINE
  5
28A
  8
0
  6
CONTINUOUS
 62
     7
 10
51.5616391043
 20
143.043151327
 30
0.0
 11
51.5716415088
 21
143.043151327
 31
0.0
  0
LINE
  5
28B
  8
0
  6
CONTINUOUS
 62
     7
 10
51.5716415088
 20
142.5431512451
 30
0.0
 11
51.5616391043
 21
142.5431512451
 31
0.0
  0
LINE
  5
28C
  8
0
  6
CONTINUOUS
 62
     7
 10
51.5616391043
 20
143.043151327
 30
0.0
 11
51.5616391043
 21
142.5431512451
 31
0.0
  0
LINE
  5
28D
  8
0
  6
CONTINUOUS
 62
     7
 10
51.5716415088
 20
147.0631512036
 30
0.0
 11
51.5616391043
 21
147.0631512036
 31
0.0
  0
LINE
  5
28E
  8
0
  6
CONTINUOUS
 62
     7
 10
51.5616391043
 20
147.0631512036
 30
0.0
 11
51.5616391043
 21
143.043151327
 31
0.0
  0
LINE
  5
28F
  8
0
  6
CONTINUOUS
 62
     7
 10
51.061638091
 20
143.043151327
 30
0.0
 11
51.5616391043
 21
142.5431512451
 31
0.0
  0
LINE
  5
290
  8
0
  6
CONTINUOUS
 62
     7
 10
51.5616391043
 20
143.043151327
 30
0.0
 11
51.061638091
 21
143.043151327
 31
0.0
  0
LINE
  5
291
  8
0
  6
CONTINUOUS
 62
     7
 10
51.5616391043
 20
147.0631512036
 30
0.0
 11
51.5616391043
 21
147.5631512856
 31
0.0
  0
LINE
  5
292
  8
0
  6
CONTINUOUS
 62
     7
 10
51.5616391043
 20
147.5631512856
 30
0.0
 11
51.5716415088
 21
147.5631512856
 31
0.0
  0
LINE
  5
293
  8
0
  6
CONTINUOUS
 62
     7
 10
51.061638091
 20
143.043151327
 30
0.0
 11
51.061638091
 21
147.0631512036
 31
0.0
  0
LINE
  5
294
  8
0
  6
CONTINUOUS
 62
     7
 10
51.5616391043
 20
147.0631512036
 30
0.0
 11
51.061638091
 21
147.0631512036
 31
0.0
  0
LINE
  5
295
  8
0
  6
CONTINUOUS
 62
     7
 10
51.5616391043
 20
147.5631512856
 30
0.0
 11
51.061638091
 21
147.0631512036
 31
0.0
  0
CIRCLE
  5
296
  8
0
  6
CONTINUOUS
 62
     7
 10
86.5916398714
 20
165.3731511254
 30
0.0
 40
0.8000000000000114
  0
LINE
  5
297
  8
0
  6
CONTINUOUS
 62
     7
 10
89.1016390364
 20
163.3631505227
 30
0.0
 11
88.6016398857
 21
162.863151372
 31
0.0
  0
LINE
  5
298
  8
0
  6
CONTINUOUS
 62
     7
 10
88.6016398857
 20
163.3631505227
 30
0.0
 11
88.6016398857
 21
162.863151372
 31
0.0
  0
LINE
  5
299
  8
0
  6
CONTINUOUS
 62
     7
 10
88.6016398857
 20
163.3631505227
 30
0.0
 11
89.1016390364
 21
163.3631505227
 31
0.0
  0
LINE
  5
29A
  8
0
  6
CONTINUOUS
 62
     7
 10
84.5816400091
 20
163.3631505227
 30
0.0
 11
88.6016398857
 21
163.3631505227
 31
0.0
  0
LINE
  5
29B
  8
0
  6
CONTINUOUS
 62
     7
 10
88.6016398857
 20
162.863151372
 30
0.0
 11
84.5816400091
 21
162.863151372
 31
0.0
  0
LINE
  5
29C
  8
0
  6
CONTINUOUS
 62
     7
 10
84.5816400091
 20
162.863151372
 30
0.0
 11
84.5816400091
 21
163.3631505227
 31
0.0
  0
LINE
  5
29D
  8
0
  6
CONTINUOUS
 62
     7
 10
88.6016398857
 20
163.3631505227
 30
0.0
 11
88.6016398857
 21
167.3831522619
 31
0.0
  0
LINE
  5
29E
  8
0
  6
CONTINUOUS
 62
     7
 10
88.6016398857
 20
167.3831522619
 30
0.0
 11
89.1016390364
 21
167.3831522619
 31
0.0
  0
LINE
  5
29F
  8
0
  6
CONTINUOUS
 62
     7
 10
89.1016390364
 20
167.3831522619
 30
0.0
 11
89.1016390364
 21
163.3631505227
 31
0.0
  0
LINE
  5
2A0
  8
0
  6
CONTINUOUS
 62
     7
 10
84.5816400091
 20
167.3831522619
 30
0.0
 11
84.5816400091
 21
163.3631505227
 31
0.0
  0
LINE
  5
2A1
  8
0
  6
CONTINUOUS
 62
     7
 10
88.6016398857
 20
167.3831522619
 30
0.0
 11
84.5816400091
 21
167.3831522619
 31
0.0
  0
LINE
  5
2A2
  8
0
  6
CONTINUOUS
 62
     7
 10
88.6016398857
 20
167.8831495499
 30
0.0
 11
89.1016390364
 21
167.3831522619
 31
0.0
  0
LINE
  5
2A3
  8
0
  6
CONTINUOUS
 62
     7
 10
88.6016398857
 20
167.8831495499
 30
0.0
 11
88.6016398857
 21
167.3831522619
 31
0.0
  0
LINE
  5
2A4
  8
0
  6
CONTINUOUS
 62
     7
 10
84.0816389958
 20
163.3631505227
 30
0.0
 11
84.5816400091
 21
163.3631505227
 31
0.0
  0
LINE
  5
2A5
  8
0
  6
CONTINUOUS
 62
     7
 10
84.5816400091
 20
162.863151372
 30
0.0
 11
84.0816389958
 21
163.3631505227
 31
0.0
  0
LINE
  5
2A6
  8
0
  6
CONTINUOUS
 62
     7
 10
84.5816400091
 20
167.8831495499
 30
0.0
 11
88.6016398857
 21
167.8831495499
 31
0.0
  0
LINE
  5
2A7
  8
0
  6
CONTINUOUS
 62
     7
 10
84.5816400091
 20
167.3831522619
 30
0.0
 11
84.5816400091
 21
167.8831495499
 31
0.0
  0
LINE
  5
2A8
  8
0
  6
CONTINUOUS
 62
     7
 10
84.0816389958
 20
163.3631505227
 30
0.0
 11
84.0816389958
 21
167.3831522619
 31
0.0
  0
LINE
  5
2A9
  8
0
  6
CONTINUOUS
 62
     7
 10
84.0816389958
 20
167.3831522619
 30
0.0
 11
84.5816400091
 21
167.3831522619
 31
0.0
  0
LINE
  5
2AA
  8
0
  6
CONTINUOUS
 62
     7
 10
84.0816389958
 20
167.3831522619
 30
0.0
 11
84.5816400091
 21
167.8831495499
 31
0.0
  0
CIRCLE
  5
2AB
  8
0
  6
CONTINUOUS
 62
     7
 10
78.9716398714
 20
145.0531511254
 30
0.0
 40
0.8000000000000114
  0
LINE
  5
2AC
  8
0
  6
CONTINUOUS
 62
     7
 10
81.4816396872
 20
147.0631512036
 30
0.0
 11
81.4816396872
 21
143.043151327
 31
0.0
  0
LINE
  5
2AD
  8
0
  6
CONTINUOUS
 62
     7
 10
81.4816396872
 20
143.043151327
 30
0.0
 11
80.9816405366
 21
143.043151327
 31
0.0
  0
LINE
  5
2AE
  8
0
  6
CONTINUOUS
 62
     7
 10
80.9816405366
 20
143.043151327
 30
0.0
 11
80.9816405366
 21
147.0631512036
 31
0.0
  0
LINE
  5
2AF
  8
0
  6
CONTINUOUS
 62
     7
 10
80.9816405366
 20
147.0631512036
 30
0.0
 11
81.4816396872
 21
147.0631512036
 31
0.0
  0
LINE
  5
2B0
  8
0
  6
CONTINUOUS
 62
     7
 10
81.4816396872
 20
143.043151327
 30
0.0
 11
80.9816405366
 21
142.5431512451
 31
0.0
  0
LINE
  5
2B1
  8
0
  6
CONTINUOUS
 62
     7
 10
80.9816405366
 20
143.043151327
 30
0.0
 11
80.9816405366
 21
142.5431512451
 31
0.0
  0
LINE
  5
2B2
  8
0
  6
CONTINUOUS
 62
     7
 10
76.96164066
 20
143.043151327
 30
0.0
 11
80.9816405366
 21
143.043151327
 31
0.0
  0
LINE
  5
2B3
  8
0
  6
CONTINUOUS
 62
     7
 10
80.9816405366
 20
142.5431512451
 30
0.0
 11
76.96164066
 21
142.5431512451
 31
0.0
  0
LINE
  5
2B4
  8
0
  6
CONTINUOUS
 62
     7
 10
76.96164066
 20
143.043151327
 30
0.0
 11
76.96164066
 21
142.5431512451
 31
0.0
  0
LINE
  5
2B5
  8
0
  6
CONTINUOUS
 62
     7
 10
76.96164066
 20
147.0631512036
 30
0.0
 11
76.96164066
 21
143.043151327
 31
0.0
  0
LINE
  5
2B6
  8
0
  6
CONTINUOUS
 62
     7
 10
80.9816405366
 20
147.0631512036
 30
0.0
 11
76.96164066
 21
147.0631512036
 31
0.0
  0
LINE
  5
2B7
  8
0
  6
CONTINUOUS
 62
     7
 10
80.9816405366
 20
147.5631512856
 30
0.0
 11
81.4816396872
 21
147.0631512036
 31
0.0
  0
LINE
  5
2B8
  8
0
  6
CONTINUOUS
 62
     7
 10
80.9816405366
 20
147.5631512856
 30
0.0
 11
80.9816405366
 21
147.0631512036
 31
0.0
  0
LINE
  5
2B9
  8
0
  6
CONTINUOUS
 62
     7
 10
76.96164066
 20
142.5431512451
 30
0.0
 11
76.4616396467
 21
143.043151327
 31
0.0
  0
LINE
  5
2BA
  8
0
  6
CONTINUOUS
 62
     7
 10
76.96164066
 20
143.043151327
 30
0.0
 11
76.4616396467
 21
143.043151327
 31
0.0
  0
LINE
  5
2BB
  8
0
  6
CONTINUOUS
 62
     7
 10
76.4616396467
 20
143.043151327
 30
0.0
 11
76.4616396467
 21
147.0631512036
 31
0.0
  0
LINE
  5
2BC
  8
0
  6
CONTINUOUS
 62
     7
 10
76.4616396467
 20
147.0631512036
 30
0.0
 11
76.96164066
 21
147.0631512036
 31
0.0
  0
LINE
  5
2BD
  8
0
  6
CONTINUOUS
 62
     7
 10
76.96164066
 20
147.5631512856
 30
0.0
 11
80.9816405366
 21
147.5631512856
 31
0.0
  0
LINE
  5
2BE
  8
0
  6
CONTINUOUS
 62
     7
 10
76.96164066
 20
147.5631512856
 30
0.0
 11
76.96164066
 21
147.0631512036
 31
0.0
  0
LINE
  5
2BF
  8
0
  6
CONTINUOUS
 62
     7
 10
76.4616396467
 20
147.0631512036
 30
0.0
 11
76.96164066
 21
147.5631512856
 31
0.0
  0
CIRCLE
  5
2C0
  8
0
  6
CONTINUOUS
 62
     7
 10
53.5716398714
 20
139.9731511254
 30
0.0
 40
0.799999999999983
  0
LINE
  5
2C1
  8
0
  6
CONTINUOUS
 62
     7
 10
55.5816408436
 20
137.4631512133
 30
0.0
 11
55.5816408436
 21
137.9631512953
 31
0.0
  0
LINE
  5
2C2
  8
0
  6
CONTINUOUS
 62
     7
 10
56.0816381316
 20
137.9631512953
 30
0.0
 11
55.5816408436
 21
137.9631512953
 31
0.0
  0
LINE
  5
2C3
  8
0
  6
CONTINUOUS
 62
     7
 10
55.5816408436
 20
137.4631512133
 30
0.0
 11
56.0816381316
 21
137.9631512953
 31
0.0
  0
LINE
  5
2C4
  8
0
  6
CONTINUOUS
 62
     7
 10
56.0816381316
 20
137.9731509058
 30
0.0
 11
56.0816381316
 21
137.9631512953
 31
0.0
  0
LINE
  5
2C5
  8
0
  6
CONTINUOUS
 62
     7
 10
55.5816408436
 20
137.9631512953
 30
0.0
 11
55.5816408436
 21
137.9731509058
 31
0.0
  0
LINE
  5
2C6
  8
0
  6
CONTINUOUS
 62
     7
 10
51.5616391043
 20
137.9631512953
 30
0.0
 11
55.5816408436
 21
137.9631512953
 31
0.0
  0
LINE
  5
2C7
  8
0
  6
CONTINUOUS
 62
     7
 10
55.5816408436
 20
137.4631512133
 30
0.0
 11
51.5616391043
 21
137.4631512133
 31
0.0
  0
LINE
  5
2C8
  8
0
  6
CONTINUOUS
 62
     7
 10
51.5616391043
 20
137.9631512953
 30
0.0
 11
51.5616391043
 21
137.4631512133
 31
0.0
  0
LINE
  5
2C9
  8
0
  6
CONTINUOUS
 62
     7
 10
51.5716415088
 20
141.9831507062
 30
0.0
 11
51.5616391043
 21
141.9831507062
 31
0.0
  0
LINE
  5
2CA
  8
0
  6
CONTINUOUS
 62
     7
 10
51.5616391043
 20
141.9831507062
 30
0.0
 11
51.5616391043
 21
137.9631512953
 31
0.0
  0
LINE
  5
2CB
  8
0
  6
CONTINUOUS
 62
     7
 10
51.061638091
 20
137.9631512953
 30
0.0
 11
51.5616391043
 21
137.4631512133
 31
0.0
  0
LINE
  5
2CC
  8
0
  6
CONTINUOUS
 62
     7
 10
51.5616391043
 20
137.9631512953
 30
0.0
 11
51.061638091
 21
137.9631512953
 31
0.0
  0
LINE
  5
2CD
  8
0
  6
CONTINUOUS
 62
     7
 10
51.5616391043
 20
141.9831507062
 30
0.0
 11
51.5616391043
 21
142.4831507882
 31
0.0
  0
LINE
  5
2CE
  8
0
  6
CONTINUOUS
 62
     7
 10
51.5616391043
 20
142.4831507882
 30
0.0
 11
51.5716415088
 21
142.4831507882
 31
0.0
  0
LINE
  5
2CF
  8
0
  6
CONTINUOUS
 62
     7
 10
51.061638091
 20
137.9631512953
 30
0.0
 11
51.061638091
 21
141.9831507062
 31
0.0
  0
LINE
  5
2D0
  8
0
  6
CONTINUOUS
 62
     7
 10
51.5616391043
 20
141.9831507062
 30
0.0
 11
51.061638091
 21
141.9831507062
 31
0.0
  0
LINE
  5
2D1
  8
0
  6
CONTINUOUS
 62
     7
 10
51.5616391043
 20
142.4831507882
 30
0.0
 11
51.061638091
 21
141.9831507062
 31
0.0
  0
ARC
  5
2D2
  8
0
  6
CONTINUOUS
 62
     7
 10
86.5916398714
 20
228.6531511254
 30
0.0
 40
1.000000000000008
 50
270.0
 51
60.0
  0
ARC
  5
2D3
  8
0
  6
CONTINUOUS
 62
     7
 10
86.5916398714
 20
228.6531511254
 30
0.0
 40
1.000000000000008
 50
120.0
 51
270.0
  0
ARC
  5
2D4
  8
0
  6
CONTINUOUS
 62
     7
 10
86.5916398714
 20
139.9731511254
 30
0.0
 40
1.000000000000001
 50
120.0
 51
60.0
  0
ARC
  5
2D5
  8
0
  6
CONTINUOUS
 62
     7
 10
86.5916398714
 20
190.7731511254
 30
0.0
 40
0.9999999999999836
 50
120.0
 51
60.0
  0
ARC
  5
2D6
  8
0
  6
CONTINUOUS
 62
     7
 10
86.5916398714
 20
160.2931511254
 30
0.0
 40
1.0
 50
90.0
 51
240.0
  0
ARC
  5
2D7
  8
0
  6
CONTINUOUS
 62
     7
 10
86.5916398714
 20
160.2931511254
 30
0.0
 40
1.0
 50
300.0
 51
90.0
  0
CIRCLE
  5
2D8
  8
0
  6
CONTINUOUS
 62
     7
 10
53.5716398714
 20
211.0931511254
 30
0.0
 40
1.000000000000028
  0
CIRCLE
  5
2D9
  8
0
  6
CONTINUOUS
 62
     7
 10
53.5716398714
 20
200.9331511254
 30
0.0
 40
1.0
  0
CIRCLE
  5
2DA
  8
0
  6
CONTINUOUS
 62
     7
 10
53.5716398714
 20
190.7731511254
 30
0.0
 40
1.0
  0
CIRCLE
  5
2DB
  8
0
  6
CONTINUOUS
 62
     7
 10
53.5716398714
 20
180.6131511254
 30
0.0
 40
1.0
  0
CIRCLE
  5
2DC
  8
0
  6
CONTINUOUS
 62
     7
 10
53.5716398714
 20
170.4531511254
 30
0.0
 40
1.0
  0
CIRCLE
  5
2DD
  8
0
  6
CONTINUOUS
 62
     7
 10
53.5716398714
 20
160.2931511254
 30
0.0
 40
1.0
  0
CIRCLE
  5
2DE
  8
0
  6
CONTINUOUS
 62
     7
 10
53.5716398714
 20
150.1331511254
 30
0.0
 40
1.0
  0
CIRCLE
  5
2DF
  8
0
  6
CONTINUOUS
 62
     7
 10
53.5716398714
 20
139.9731511254
 30
0.0
 40
1.0
  0
LINE
  5
2E0
  8
0
  6
CONTINUOUS
 62
     7
 10
51.5716415088
 20
250.9731494045
 30
0.0
 11
51.5716415088
 21
137.9731509058
 31
0.0
  0
LINE
  5
2E1
  8
0
  6
CONTINUOUS
 62
     7
 10
61.5716394226
 20
250.9731494045
 30
0.0
 11
51.5716415088
 21
250.9731494045
 31
0.0
  0
LINE
  5
2E2
  8
0
  6
CONTINUOUS
 62
     7
 10
89.5716402869
 20
250.9731494045
 30
0.0
 11
79.5716405104
 21
250.9731494045
 31
0.0
  0
CIRCLE
  5
2E3
  8
0
  6
CONTINUOUS
 62
     7
 10
53.5716398714
 20
145.0531511254
 30
0.0
 40
1.0
  0
CIRCLE
  5
2E4
  8
0
  6
CONTINUOUS
 62
     7
 10
53.5716398714
 20
155.2131511254
 30
0.0
 40
1.0
  0
CIRCLE
  5
2E5
  8
0
  6
CONTINUOUS
 62
     7
 10
53.5716398714
 20
165.3731511254
 30
0.0
 40
1.0
  0
CIRCLE
  5
2E6
  8
0
  6
CONTINUOUS
 62
     7
 10
53.5716398714
 20
175.5331511254
 30
0.0
 40
1.0
  0
CIRCLE
  5
2E7
  8
0
  6
CONTINUOUS
 62
     7
 10
53.5716398714
 20
185.6931511254
 30
0.0
 40
1.000000000000028
  0
CIRCLE
  5
2E8
  8
0
  6
CONTINUOUS
 62
     7
 10
53.5716398714
 20
195.8531511254
 30
0.0
 40
1.0
  0
CIRCLE
  5
2E9
  8
0
  6
CONTINUOUS
 62
     7
 10
53.5716398714
 20
206.0131511254
 30
0.0
 40
1.0
  0
CIRCLE
  5
2EA
  8
0
  6
CONTINUOUS
 62
     7
 10
53.5716398714
 20
216.1731511254
 30
0.0
 40
1.0
  0
ARC
  5
2EB
  8
0
  6
CONTINUOUS
 62
     7
 10
86.5916398714
 20
211.0931511254
 30
0.0
 40
1.000000000000008
 50
90.0
 51
240.0
  0
ARC
  5
2EC
  8
0
  6
CONTINUOUS
 62
     7
 10
86.5916398714
 20
211.0931511254
 30
0.0
 40
1.000000000000001
 50
300.0
 51
90.0
  0
ARC
  5
2ED
  8
0
  6
CONTINUOUS
 62
     7
 10
86.5916398714
 20
248.9731511254
 30
0.0
 40
1.000000000000015
 50
300.0
 51
240.0
  0
LINE
  5
2EE
  8
0
  6
CONTINUOUS
 62
     7
 10
51.5716415088
 20
137.9731509058
 30
0.0
 11
89.5716402869
 21
137.9731509058
 31
0.0
  0
LINE
  5
2EF
  8
0
  6
CONTINUOUS
 62
     7
 10
89.5716402869
 20
137.9731509058
 30
0.0
 11
89.5716402869
 21
250.9731494045
 31
0.0
  0
CIRCLE
  5
2F0
  8
0
  6
CONTINUOUS
 62
     7
 10
53.5716398714
 20
129.8131511254
 30
0.0
 40
0.9999999999999716
  0
CIRCLE
  5
2F1
  8
0
  6
CONTINUOUS
 62
     7
 10
163.5716398714
 20
221.0131511254
 30
0.0
 40
3.0
  0
CIRCLE
  5
2F2
  8
0
  6
CONTINUOUS
 62
     7
 10
53.5716398714
 20
35.0131511254
 30
0.0
 40
3.000000000000014
  0
LINE
  5
2F3
  8
0
  6
CONTINUOUS
 62
     7
 10
168.5716401975
 20
226.0131530618
 30
0.0
 11
168.5716401975
 21
30.0131507372
 31
0.0
  0
LINE
  5
2F4
  8
0
  6
CONTINUOUS
 62
     7
 10
48.5716391544
 20
30.0131507372
 30
0.0
 11
48.5716391544
 21
226.0131530618
 31
0.0
  0
LINE
  5
2F5
  8
0
  6
CONTINUOUS
 62
     7
 10
48.5716391544
 20
226.0131530618
 30
0.0
 11
51.5716415088
 21
226.0131530618
 31
0.0
  0
LINE
  5
2F6
  8
0
  6
CONTINUOUS
 62
     7
 10
89.5716402869
 20
226.0131530618
 30
0.0
 11
168.5716401975
 21
226.0131530618
 31
0.0
  0
ARC
  5
2F7
  8
0
  6
CONTINUOUS
 62
     7
 10
53.5716398714
 20
221.0131511254
 30
0.0
 40
3.000000000000006
 50
131.8103148958
 51
228.1896851042
  0
CIRCLE
  5
2F8
  8
0
  6
CONTINUOUS
 62
     7
 10
163.5716398714
 20
35.0131511254
 30
0.0
 40
3.000000000000007
  0
CIRCLE
  5
2F9
  8
0
  6
CONTINUOUS
 62
     7
 10
53.5716398714
 20
134.8931511254
 30
0.0
 40
1.0
  0
LINE
  5
2FA
  8
0
  6
CONTINUOUS
 62
     7
 10
168.5716401975
 20
30.0131507372
 30
0.0
 11
48.5716391544
 21
30.0131507372
 31
0.0
  0
LINE
  5
2FB
  8
0
  6
CONTINUOUS
 62
     8
 10
64.5736385326
 20
252.9731534576
 30
0.0
 11
76.5696395378
 21
252.9731534576
 31
0.0
  0
LINE
  5
2FC
  8
0
  6
CONTINUOUS
 62
     8
 10
84.2916391979
 20
197.0331512546
 30
0.0
 11
88.891640697
 21
197.0331512546
 31
0.0
  0
LINE
  5
2FD
  8
0
  6
CONTINUOUS
 62
     8
 10
88.891640697
 20
197.8331498956
 30
0.0
 11
84.2916391979
 21
197.8331498956
 31
0.0
  0
LINE
  5
2FE
  8
0
  6
CONTINUOUS
 62
     8
 10
84.2916391979
 20
199.6790982937
 30
0.0
 11
88.891640697
 21
199.6790982937
 31
0.0
  0
LINE
  5
2FF
  8
0
  6
CONTINUOUS
 62
     8
 10
88.891640697
 20
200.4791043853
 30
0.0
 11
84.2916391979
 21
200.4791043853
 31
0.0
  0
LINE
  5
300
  8
0
  6
CONTINUOUS
 62
     8
 10
84.2916391979
 20
201.6791023468
 30
0.0
 11
88.891640697
 21
201.6791023468
 31
0.0
  0
LINE
  5
301
  8
0
  6
CONTINUOUS
 62
     8
 10
88.891640697
 20
202.4791009879
 30
0.0
 11
84.2916391979
 21
202.4791009879
 31
0.0
  0
LINE
  5
302
  8
0
  6
CONTINUOUS
 62
     8
 10
84.2916391979
 20
203.6790989494
 30
0.0
 11
88.891640697
 21
203.6790989494
 31
0.0
  0
LINE
  5
303
  8
0
  6
CONTINUOUS
 62
     8
 10
88.891640697
 20
204.479105041
 30
0.0
 11
84.2916391979
 21
204.479105041
 31
0.0
  0
LINE
  5
304
  8
0
  6
CONTINUOUS
 62
     8
 10
88.7916390042
 20
195.5331519401
 30
0.0
 11
84.391639028
 21
195.5331519401
 31
0.0
  0
LINE
  5
305
  8
0
  6
CONTINUOUS
 62
     8
 10
88.7916390042
 20
206.3331522202
 30
0.0
 11
84.391639028
 21
206.3331522202
 31
0.0
  0
LINE
  5
306
  8
0
  6
CONTINUOUS
 62
     8
 10
87.0916400294
 20
192.7731514132
 30
0.0
 11
86.0916398655
 21
192.7731514132
 31
0.0
  0
LINE
  5
307
  8
0
  6
CONTINUOUS
 62
     8
 10
87.0916400294
 20
209.0931527471
 30
0.0
 11
86.0916398655
 21
209.0931527471
 31
0.0
  0
LINE
  5
308
  8
0
  6
CONTINUOUS
 62
     8
 10
88.891640697
 20
235.7131533479
 30
0.0
 11
84.2916391979
 21
235.7131533479
 31
0.0
  0
LINE
  5
309
  8
0
  6
CONTINUOUS
 62
     8
 10
84.2916391979
 20
234.9131547069
 30
0.0
 11
88.891640697
 21
234.9131547069
 31
0.0
  0
LINE
  5
30A
  8
0
  6
CONTINUOUS
 62
     8
 10
88.891640697
 20
238.359100387
 30
0.0
 11
84.2916391979
 21
238.359100387
 31
0.0
  0
LINE
  5
30B
  8
0
  6
CONTINUOUS
 62
     8
 10
84.2916391979
 20
237.559101746
 30
0.0
 11
88.891640697
 21
237.559101746
 31
0.0
  0
LINE
  5
30C
  8
0
  6
CONTINUOUS
 62
     8
 10
88.891640697
 20
240.3591044402
 30
0.0
 11
84.2916391979
 21
240.3591044402
 31
0.0
  0
LINE
  5
30D
  8
0
  6
CONTINUOUS
 62
     8
 10
84.2916391979
 20
239.5590983486
 30
0.0
 11
88.891640697
 21
239.5590983486
 31
0.0
  0
LINE
  5
30E
  8
0
  6
CONTINUOUS
 62
     8
 10
88.891640697
 20
242.3591010427
 30
0.0
 11
84.2916391979
 21
242.3591010427
 31
0.0
  0
LINE
  5
30F
  8
0
  6
CONTINUOUS
 62
     8
 10
84.2916391979
 20
241.5591024017
 30
0.0
 11
88.891640697
 21
241.5591024017
 31
0.0
  0
LINE
  5
310
  8
0
  6
CONTINUOUS
 62
     8
 10
88.7916390042
 20
233.4131516671
 30
0.0
 11
84.391639028
 21
233.4131516671
 31
0.0
  0
LINE
  5
311
  8
0
  6
CONTINUOUS
 62
     8
 10
88.7916390042
 20
244.2131482219
 30
0.0
 11
84.391639028
 21
244.2131482219
 31
0.0
  0
LINE
  5
312
  8
0
  6
CONTINUOUS
 62
     8
 10
87.0916400294
 20
230.6531511402
 30
0.0
 11
86.0916398655
 21
230.6531511402
 31
0.0
  0
LINE
  5
313
  8
0
  6
CONTINUOUS
 62
     8
 10
87.0916400294
 20
246.9731487488
 30
0.0
 11
86.0916398655
 21
246.9731487488
 31
0.0
  0
LINE
  5
314
  8
0
  6
CONTINUOUS
 62
     8
 10
84.2916391979
 20
146.2331509372
 30
0.0
 11
88.891640697
 21
146.2331509372
 31
0.0
  0
LINE
  5
315
  8
0
  6
CONTINUOUS
 62
     8
 10
88.891640697
 20
147.0331514409
 30
0.0
 11
84.2916391979
 21
147.0331514409
 31
0.0
  0
LINE
  5
316
  8
0
  6
CONTINUOUS
 62
     8
 10
84.2916391979
 20
148.8791007703
 30
0.0
 11
88.891640697
 21
148.8791007703
 31
0.0
  0
LINE
  5
317
  8
0
  6
CONTINUOUS
 62
     8
 10
88.891640697
 20
149.679101274
 30
0.0
 11
84.2916391979
 21
149.679101274
 31
0.0
  0
LINE
  5
318
  8
0
  6
CONTINUOUS
 62
     8
 10
84.2916391979
 20
150.8791010981
 30
0.0
 11
88.891640697
 21
150.8791010981
 31
0.0
  0
LINE
  5
319
  8
0
  6
CONTINUOUS
 62
     8
 10
88.891640697
 20
151.6791016018
 30
0.0
 11
84.2916391979
 21
151.6791016018
 31
0.0
  0
LINE
  5
31A
  8
0
  6
CONTINUOUS
 62
     8
 10
88.891640697
 20
153.6791019296
 30
0.0
 11
84.2916391979
 21
153.6791019296
 31
0.0
  0
LINE
  5
31B
  8
0
  6
CONTINUOUS
 62
     8
 10
84.2916391979
 20
152.879101426
 30
0.0
 11
88.891640697
 21
152.879101426
 31
0.0
  0
LINE
  5
31C
  8
0
  6
CONTINUOUS
 62
     8
 10
88.7916390042
 20
144.7331506913
 30
0.0
 11
84.391639028
 21
144.7331506913
 31
0.0
  0
LINE
  5
31D
  8
0
  6
CONTINUOUS
 62
     8
 10
88.7916390042
 20
155.5331509715
 30
0.0
 11
84.391639028
 21
155.5331509715
 31
0.0
  0
LINE
  5
31E
  8
0
  6
CONTINUOUS
 62
     8
 10
87.0916400294
 20
141.9731510958
 30
0.0
 11
86.0916398655
 21
141.9731510958
 31
0.0
  0
LINE
  5
31F
  8
0
  6
CONTINUOUS
 62
     8
 10
87.0916400294
 20
158.2931514984
 30
0.0
 11
86.0916398655
 21
158.2931514984
 31
0.0
  0
TEXT
  5
320
  8
0
  6
CONTINUOUS
 62
     7
 10
0.0
 20
6.732893805
 30
0.0
 40
3.633
  1
Edition tudiante de SolidWorks.
 41
0.6671875
 11
0.0
 21
5.4495
 31
0.0
 73
     1
  0
TEXT
  5
321
  8
0
  6
CONTINUOUS
 62
     7
 10
0.0
 20
1.283393805
 30
0.0
 40
3.633
  1
A usage universitaire uniquement.
 41
0.6681818182
 11
0.0
 21
0.0
 31
0.0
 73
     1
  0
ENDSEC
  0
EOF
