  0
SECTION
  2
HEADER
  9
$ACADVER
  1
AC1009
  9
$DWGCODEPAGE
  3
ansi_1252
  9
$INSBASE
 10
0.0
 20
0.0
 30
0.0
  9
$EXTMIN
 10
0.0
 20
0.0
 30
0.0
  9
$EXTMAX
 10
210.0
 20
297.0
 30
0.0
  9
$LIMMIN
 10
0.0
 20
0.0
  9
$LIMMAX
 10
210.0
 20
297.0
  9
$ORTHOMODE
 70
     0
  9
$REGENMODE
 70
     1
  9
$FILLMODE
 70
     1
  9
$QTEXTMODE
 70
     0
  9
$MIRRTEXT
 70
     1
  9
$DRAGMODE
 70
     2
  9
$LTSCALE
 40
1.0
  9
$OSMODE
 70
    37
  9
$ATTMODE
 70
     1
  9
$TEXTSIZE
 40
3.5
  9
$TRACEWID
 40
1.0
  9
$TEXTSTYLE
  7
STANDARD
  9
$CLAYER
  8
0
  9
$CELTYPE
  6
BYLAYER
  9
$CECOLOR
 62
   256
  9
$DIMSCALE
 40
1.0
  9
$DIMASZ
 40
3.302
  9
$DIMEXO
 40
1.0
  9
$DIMDLI
 40
3.75
  9
$DIMRND
 40
0.0
  9
$DIMDLE
 40
0.0
  9
$DIMEXE
 40
1.0
  9
$DIMTP
 40
0.0
  9
$DIMTM
 40
0.0
  9
$DIMTXT
 40
3.5
  9
$DIMCEN
 40
2.5
  9
$DIMTSZ
 40
0.0
  9
$DIMTOL
 70
     0
  9
$DIMLIM
 70
     0
  9
$DIMTIH
 70
     1
  9
$DIMTOH
 70
     1
  9
$DIMSE1
 70
     0
  9
$DIMSE2
 70
     0
  9
$DIMTAD
 70
     1
  9
$DIMZIN
 70
     0
  9
$DIMBLK
  1

  9
$DIMASO
 70
     1
  9
$DIMSHO
 70
     1
  9
$DIMPOST
  1

  9
$DIMAPOST
  1

  9
$DIMALT
 70
     0
  9
$DIMALTD
 70
     3
  9
$DIMALTF
 40
0.0393700787
  9
$DIMLFAC
 40
0.5
  9
$DIMTOFL
 70
     1
  9
$DIMTVP
 40
0.0
  9
$DIMTIX
 70
     0
  9
$DIMSOXD
 70
     0
  9
$DIMSAH
 70
     0
  9
$DIMBLK1
  1

  9
$DIMBLK2
  1

  9
$DIMSTYLE
  2
ISO-25
  9
$DIMCLRD
 70
     0
  9
$DIMCLRE
 70
     0
  9
$DIMCLRT
 70
     0
  9
$DIMTFAC
 40
1.0
  9
$DIMGAP
 40
1.524
  9
$LUNITS
 70
     2
  9
$LUPREC
 70
     2
  9
$SKETCHINC
 40
1.0
  9
$FILLETRAD
 40
10.0
  9
$AUNITS
 70
     0
  9
$AUPREC
 70
     2
  9
$MENU
  1
.
  9
$ELEVATION
 40
0.0
  9
$PELEVATION
 40
0.0
  9
$THICKNESS
 40
0.0
  9
$LIMCHECK
 70
     0
  9
$CHAMFERA
 40
10.0
  9
$CHAMFERB
 40
10.0
  9
$SKPOLY
 70
     0
  9
$TDCREATE
 40
2456455.334852153
  9
$TDUPDATE
 40
2456455.334852245
  9
$TDINDWG
 40
0.0000000116
  9
$TDUSRTIMER
 40
0.0000000116
  9
$USRTIMER
 70
     1
  9
$ANGBASE
 50
0.0
  9
$ANGDIR
 70
     0
  9
$PDMODE
 70
     0
  9
$PDSIZE
 40
-1.0
  9
$PLINEWID
 40
0.0
  9
$COORDS
 70
     1
  9
$SPLFRAME
 70
     0
  9
$SPLINETYPE
 70
     6
  9
$SPLINESEGS
 70
     8
  9
$ATTDIA
 70
     0
  9
$ATTREQ
 70
     1
  9
$HANDLING
 70
     1
  9
$HANDSEED
  5
224
  9
$SURFTAB1
 70
     6
  9
$SURFTAB2
 70
     6
  9
$SURFTYPE
 70
     6
  9
$SURFU
 70
     6
  9
$SURFV
 70
     6
  9
$UCSNAME
  2

  9
$UCSORG
 10
0.0
 20
0.0
 30
0.0
  9
$UCSXDIR
 10
1.0
 20
0.0
 30
0.0
  9
$UCSYDIR
 10
0.0
 20
1.0
 30
0.0
  9
$PUCSNAME
  2

  9
$PUCSORG
 10
0.0
 20
0.0
 30
0.0
  9
$PUCSXDIR
 10
1.0
 20
0.0
 30
0.0
  9
$PUCSYDIR
 10
0.0
 20
1.0
 30
0.0
  9
$USERI1
 70
     0
  9
$USERI2
 70
     0
  9
$USERI3
 70
     0
  9
$USERI4
 70
     0
  9
$USERI5
 70
     0
  9
$USERR1
 40
0.0
  9
$USERR2
 40
0.0
  9
$USERR3
 40
0.0
  9
$USERR4
 40
0.0
  9
$USERR5
 40
0.0
  9
$WORLDVIEW
 70
     1
  9
$SHADEDGE
 70
     3
  9
$SHADEDIF
 70
    70
  9
$TILEMODE
 70
     1
  9
$MAXACTVP
 70
    64
  9
$PLIMCHECK
 70
     0
  9
$PEXTMIN
 10
1.0000000000E+20
 20
1.0000000000E+20
 30
1.0000000000E+20
  9
$PEXTMAX
 10
-1.0000000000E+20
 20
-1.0000000000E+20
 30
-1.0000000000E+20
  9
$PLIMMIN
 10
0.0
 20
0.0
  9
$PLIMMAX
 10
420.0
 20
297.0
  9
$UNITMODE
 70
     0
  9
$VISRETAIN
 70
     1
  9
$PLINEGEN
 70
     0
  9
$PSLTSCALE
 70
     1
  0
ENDSEC
  0
SECTION
  2
TABLES
  0
TABLE
  2
VPORT
 70
     1
  0
VPORT
  2
*ACTIVE
 70
     0
 10
0.0
 20
0.0
 11
1.0
 21
1.0
 12
105.0
 22
148.5
 13
0.0
 23
0.0
 14
10.0
 24
10.0
 15
10.0
 25
10.0
 16
0.0
 26
0.0
 36
1.0
 17
0.0
 27
0.0
 37
0.0
 40
297.0
 41
0.7070707071
 42
50.0
 43
0.0
 44
0.0
 50
0.0
 51
0.0
 71
     0
 72
  2000
 73
     1
 74
     3
 75
     0
 76
     0
 77
     0
 78
     0
  0
ENDTAB
  0
TABLE
  2
LTYPE
 70
     6
  0
LTYPE
  2
CONTINUOUS
 70
     0
  3
Solid line
 72
    65
 73
     0
 40
0.0
  0
LTYPE
  2
HIDDEN
 70
     0
  3
Hidden __ __ __ __ __ __ __ __ __ __ __ __ __ __
 72
    65
 73
     2
 40
1.905
 49
1.27
 49
-0.635
  0
LTYPE
  2
PHANTOM
 70
     0
  3
Phantom ______  __  __  ______  __  __  ______
 72
    65
 73
     6
 40
12.7
 49
6.35
 49
-1.27
 49
1.27
 49
-1.27
 49
1.27
 49
-1.27
  0
LTYPE
  2
CENTER
 70
     0
  3
Center ____ _ ____ _ ____ _ ____ _ ____ _ ____
 72
    65
 73
     4
 40
10.16
 49
6.35
 49
-1.27
 49
1.27
 49
-1.27
  0
LTYPE
  2
CENTERX2
 70
     0
  3
Center (2x) ________  __  ________  __  _____
 72
    65
 73
     4
 40
20.32
 49
12.7
 49
-2.54
 49
2.54
 49
-2.54
  0
LTYPE
  2
DOT2
 70
     0
  3
Dot (.5x) ........................................
 72
    65
 73
     2
 40
0.635
 49
0.0
 49
-0.635
  0
ENDTAB
  0
TABLE
  2
LAYER
 70
     1
  0
LAYER
  2
0
 70
     0
 62
     7
  6
CONTINUOUS
  0
ENDTAB
  0
TABLE
  2
STYLE
 70
     1
  0
STYLE
  2
STANDARD
 70
     0
 40
0.0
 41
1.0
 50
0.0
 71
     0
 42
3.5
  3
txt
  4

  0
ENDTAB
  0
TABLE
  2
VIEW
 70
     0
  0
ENDTAB
  0
TABLE
  2
UCS
 70
     0
  0
ENDTAB
  0
TABLE
  2
APPID
 70
     1
  0
APPID
  2
ACAD
 70
     0
  0
ENDTAB
  0
TABLE
  2
DIMSTYLE
 70
     1
  0
DIMSTYLE
  2
ISO-25
 70
     0
  3

  4

  5

  6

  7

 40
1.0
 41
2.5
 42
0.625
 43
3.75
 44
1.25
 45
0.0
 46
0.0
 47
0.0
 48
0.0
140
2.5
141
2.5
142
0.0
143
0.0393700787
144
1.0
145
0.0
146
1.0
147
0.625
 71
     0
 72
     0
 73
     0
 74
     0
 75
     0
 76
     0
 77
     1
 78
     8
170
     0
171
     3
172
     1
173
     0
174
     0
175
     0
176
     0
177
     0
178
     0
  0
ENDTAB
  0
ENDSEC
  0
SECTION
  2
BLOCKS
  0
BLOCK
  8
0
  2
$MODEL_SPACE
 70
     0
 10
0.0
 20
0.0
 30
0.0
  3
$MODEL_SPACE
  1

  0
ENDBLK
  5
21
  8
0
  0
BLOCK
 67
     1
  8
0
  2
$PAPER_SPACE
 70
     0
 10
0.0
 20
0.0
 30
0.0
  3
$PAPER_SPACE
  1

  0
ENDBLK
  5
1D
 67
     1
  8
0
  0
ENDSEC
  0
SECTION
  2
ENTITIES
  0
LINE
  5
44
  8
0
  6
CONTINUOUS
 62
     7
 10
77.2660128617
 20
161.1082778061
 30
0.0
 11
77.2660128617
 21
157.6441761909
 31
0.0
  0
LINE
  5
45
  8
0
  6
CONTINUOUS
 62
     7
 10
125.2660128617
 20
157.6441761909
 30
0.0
 11
125.2660128617
 21
161.1082778061
 31
0.0
  0
LINE
  5
46
  8
0
  6
CONTINUOUS
 62
     7
 10
89.2660128617
 20
171.5005826515
 30
0.0
 11
89.2660128617
 21
161.1082778061
 31
0.0
  0
LINE
  5
47
  8
0
  6
CONTINUOUS
 62
     7
 10
113.2660128617
 20
161.1082778061
 30
0.0
 11
113.2660128617
 21
171.5005826515
 31
0.0
  0
POLYLINE
  5
48
  8
0
  6
CONTINUOUS
 62
     7
 66
     1
 10
0.0
 20
0.0
 30
0.0
  0
VERTEX
  5
55
  8
0
  6
CONTINUOUS
 62
     7
 10
109.751294236
 20
156.865637119
 30
0.0
  0
VERTEX
  5
56
  8
0
  6
CONTINUOUS
 62
     7
 10
109.1960408152
 20
156.6050940252
 30
0.0
  0
VERTEX
  5
57
  8
0
  6
CONTINUOUS
 62
     7
 10
108.6088559707
 20
156.3626836632
 30
0.0
  0
VERTEX
  5
58
  8
0
  6
CONTINUOUS
 62
     7
 10
107.9921040886
 20
156.1393821338
 30
0.0
  0
VERTEX
  5
59
  8
0
  6
CONTINUOUS
 62
     7
 10
107.3482686111
 20
155.9360885936
 30
0.0
  0
VERTEX
  5
5A
  8
0
  6
CONTINUOUS
 62
     7
 10
106.6799420364
 20
155.7536216338
 30
0.0
  0
VERTEX
  5
5B
  8
0
  6
CONTINUOUS
 62
     7
 10
105.9898154797
 20
155.5927159846
 30
0.0
  0
VERTEX
  5
5C
  8
0
  6
CONTINUOUS
 62
     7
 10
105.2806678371
 20
155.4540195561
 30
0.0
  0
VERTEX
  5
5D
  8
0
  6
CONTINUOUS
 62
     7
 10
104.5553545958
 20
155.33809083
 30
0.0
  0
VERTEX
  5
5E
  8
0
  6
CONTINUOUS
 62
     7
 10
103.8167963364
 20
155.2453966103
 30
0.0
  0
VERTEX
  5
5F
  8
0
  6
CONTINUOUS
 62
     7
 10
103.0679669721
 20
155.1763101438
 30
0.0
  0
VERTEX
  5
60
  8
0
  6
CONTINUOUS
 62
     7
 10
102.3118817747
 20
155.1311096175
 30
0.0
  0
VERTEX
  5
61
  8
0
  6
CONTINUOUS
 62
     7
 10
101.5515852323
 20
155.1099770379
 30
0.0
  0
VERTEX
  5
62
  8
0
  6
CONTINUOUS
 62
     7
 10
100.7901387907
 20
155.1129974984
 30
0.0
  0
VERTEX
  5
63
  8
0
  6
CONTINUOUS
 62
     7
 10
100.0306085261
 20
155.1401588368
 30
0.0
  0
VERTEX
  5
64
  8
0
  6
CONTINUOUS
 62
     7
 10
99.2760527987
 20
155.1913516838
 30
0.0
  0
VERTEX
  5
65
  8
0
  6
CONTINUOUS
 62
     7
 10
98.5295099381
 20
155.2663699039
 30
0.0
  0
VERTEX
  5
66
  8
0
  6
CONTINUOUS
 62
     7
 10
97.793986009
 20
155.3649114253
 30
0.0
  0
VERTEX
  5
67
  8
0
  6
CONTINUOUS
 62
     7
 10
97.0724427065
 20
155.4865794561
 30
0.0
  0
VERTEX
  5
68
  8
0
  6
CONTINUOUS
 62
     7
 10
96.367785431
 20
155.6308840819
 30
0.0
  0
VERTEX
  5
69
  8
0
  6
CONTINUOUS
 62
     7
 10
95.6828515886
 20
155.7972442391
 30
0.0
  0
VERTEX
  5
6A
  8
0
  6
CONTINUOUS
 62
     7
 10
95.0203991661
 20
155.984990054
 30
0.0
  0
VERTEX
  5
6B
  8
0
  6
CONTINUOUS
 62
     7
 10
94.3830956255
 20
156.1933655404
 30
0.0
  0
VERTEX
  5
6C
  8
0
  6
CONTINUOUS
 62
     7
 10
93.7735071634
 20
156.4215316437
 30
0.0
  0
VERTEX
  5
6D
  8
0
  6
CONTINUOUS
 62
     7
 10
93.1940883773
 20
156.6685696198
 30
0.0
  0
VERTEX
  5
6E
  8
0
  6
CONTINUOUS
 62
     7
 10
92.6471723822
 20
156.9334847337
 30
0.0
  0
VERTEX
  5
6F
  8
0
  6
CONTINUOUS
 62
     7
 10
92.1349614157
 20
157.2152102659
 30
0.0
  0
VERTEX
  5
70
  8
0
  6
CONTINUOUS
 62
     7
 10
91.6595179706
 20
157.512611807
 30
0.0
  0
VERTEX
  5
71
  8
0
  6
CONTINUOUS
 62
     7
 10
91.22275649
 20
157.824491826
 30
0.0
  0
VERTEX
  5
72
  8
0
  6
CONTINUOUS
 62
     7
 10
90.826435658
 20
158.1495944922
 30
0.0
  0
VERTEX
  5
73
  8
0
  6
CONTINUOUS
 62
     7
 10
90.4721513188
 20
158.4866107319
 30
0.0
  0
VERTEX
  5
74
  8
0
  6
CONTINUOUS
 62
     7
 10
90.1613300505
 20
158.8341834995
 30
0.0
  0
VERTEX
  5
75
  8
0
  6
CONTINUOUS
 62
     7
 10
89.8952234204
 20
159.1909132423
 30
0.0
  0
VERTEX
  5
76
  8
0
  6
CONTINUOUS
 62
     7
 10
89.6749029463
 20
159.5553635355
 30
0.0
  0
VERTEX
  5
77
  8
0
  6
CONTINUOUS
 62
     7
 10
89.5012557807
 20
159.9260668663
 30
0.0
  0
VERTEX
  5
78
  8
0
  6
CONTINUOUS
 62
     7
 10
89.3749811396
 20
160.3015305434
 30
0.0
  0
VERTEX
  5
79
  8
0
  6
CONTINUOUS
 62
     7
 10
89.2965874864
 20
160.6802427069
 30
0.0
  0
VERTEX
  5
7A
  8
0
  6
CONTINUOUS
 62
     7
 10
89.2663904847
 20
161.0606784167
 30
0.0
  0
VERTEX
  5
7B
  8
0
  6
CONTINUOUS
 62
     7
 10
89.2660128617
 20
161.1082778061
 30
0.0
  0
SEQEND
  5
223
  8
0
  6
CONTINUOUS
 62
     7
  0
ARC
  5
49
  8
0
  6
CONTINUOUS
 62
     7
 10
108.0244224857
 20
161.8733889841
 30
0.0
 40
5.297137414184684
 50
289.0262273623
 51
351.6952281622
  0
POLYLINE
  5
4A
  8
0
  6
CONTINUOUS
 62
     7
 66
     1
 10
0.0
 20
0.0
 30
0.0
  0
VERTEX
  5
7C
  8
0
  6
CONTINUOUS
 62
     7
 10
118.2365756102
 20
152.6229964318
 30
0.0
  0
VERTEX
  5
7D
  8
0
  6
CONTINUOUS
 62
     7
 10
117.4637437315
 20
152.2534272332
 30
0.0
  0
VERTEX
  5
7E
  8
0
  6
CONTINUOUS
 62
     7
 10
116.6587527576
 20
151.9014385208
 30
0.0
  0
VERTEX
  5
7F
  8
0
  6
CONTINUOUS
 62
     7
 10
115.8232009233
 20
151.5677291356
 30
0.0
  0
VERTEX
  5
80
  8
0
  6
CONTINUOUS
 62
     7
 10
114.9587471397
 20
151.2529616266
 30
0.0
  0
VERTEX
  5
81
  8
0
  6
CONTINUOUS
 62
     7
 10
114.0671076996
 20
150.9577609356
 30
0.0
  0
VERTEX
  5
82
  8
0
  6
CONTINUOUS
 62
     7
 10
113.1500528707
 20
150.6827131563
 30
0.0
  0
VERTEX
  5
83
  8
0
  6
CONTINUOUS
 62
     7
 10
112.2094033803
 20
150.4283643706
 30
0.0
  0
VERTEX
  5
84
  8
0
  6
CONTINUOUS
 62
     7
 10
111.247026801
 20
150.1952195644
 30
0.0
  0
VERTEX
  5
85
  8
0
  6
CONTINUOUS
 62
     7
 10
110.2648338425
 20
149.9837416252
 30
0.0
  0
VERTEX
  5
86
  8
0
  6
CONTINUOUS
 62
     7
 10
109.2647745578
 20
149.7943504229
 30
0.0
  0
VERTEX
  5
87
  8
0
  6
CONTINUOUS
 62
     7
 10
108.2488344722
 20
149.6274219761
 30
0.0
  0
VERTEX
  5
88
  8
0
  6
CONTINUOUS
 62
     7
 10
107.2190306407
 20
149.4832877058
 30
0.0
  0
VERTEX
  5
89
  8
0
  6
CONTINUOUS
 62
     7
 10
106.1774076434
 20
149.3622337774
 30
0.0
  0
VERTEX
  5
8A
  8
0
  6
CONTINUOUS
 62
     7
 10
105.1260335264
 20
149.264500532
 30
0.0
  0
VERTEX
  5
8B
  8
0
  6
CONTINUOUS
 62
     7
 10
104.0669956956
 20
149.1902820102
 30
0.0
  0
VERTEX
  5
8C
  8
0
  6
CONTINUOUS
 62
     7
 10
103.0023967727
 20
149.1397255658
 30
0.0
  0
VERTEX
  5
8D
  8
0
  6
CONTINUOUS
 62
     7
 10
101.9343504203
 20
149.112931574
 30
0.0
  0
VERTEX
  5
8E
  8
0
  6
CONTINUOUS
 62
     7
 10
100.8649771455
 20
149.1099532319
 30
0.0
  0
VERTEX
  5
8F
  8
0
  6
CONTINUOUS
 62
     7
 10
99.79640009
 20
149.1307964525
 30
0.0
  0
VERTEX
  5
90
  8
0
  6
CONTINUOUS
 62
     7
 10
98.7307408147
 20
149.1754198537
 30
0.0
  0
VERTEX
  5
91
  8
0
  6
CONTINUOUS
 62
     7
 10
97.6701150873
 20
149.2437348398
 30
0.0
  0
VERTEX
  5
92
  8
0
  6
CONTINUOUS
 62
     7
 10
96.6166286821
 20
149.3356057777
 30
0.0
  0
VERTEX
  5
93
  8
0
  6
CONTINUOUS
 62
     7
 10
95.5723731988
 20
149.4508502662
 30
0.0
  0
VERTEX
  5
94
  8
0
  6
CONTINUOUS
 62
     7
 10
94.53942191
 20
149.589239498
 30
0.0
  0
VERTEX
  5
95
  8
0
  6
CONTINUOUS
 62
     7
 10
93.5198256449
 20
149.7504987142
 30
0.0
  0
VERTEX
  5
96
  8
0
  6
CONTINUOUS
 62
     7
 10
92.5156087175
 20
149.9343077494
 30
0.0
  0
VERTEX
  5
97
  8
0
  6
CONTINUOUS
 62
     7
 10
91.5287649076
 20
150.1403016678
 30
0.0
  0
VERTEX
  5
98
  8
0
  6
CONTINUOUS
 62
     7
 10
90.5612535022
 20
150.3680714876
 30
0.0
  0
VERTEX
  5
99
  8
0
  6
CONTINUOUS
 62
     7
 10
89.6149954056
 20
150.6171649929
 30
0.0
  0
VERTEX
  5
9A
  8
0
  6
CONTINUOUS
 62
     7
 10
88.6918693257
 20
150.8870876316
 30
0.0
  0
VERTEX
  5
9B
  8
0
  6
CONTINUOUS
 62
     7
 10
87.7937080438
 20
151.1773034972
 30
0.0
  0
VERTEX
  5
9C
  8
0
  6
CONTINUOUS
 62
     7
 10
86.9222947761
 20
151.4872363931
 30
0.0
  0
VERTEX
  5
9D
  8
0
  6
CONTINUOUS
 62
     7
 10
86.079359633
 20
151.8162709762
 30
0.0
  0
VERTEX
  5
9E
  8
0
  6
CONTINUOUS
 62
     7
 10
85.2665761841
 20
152.1637539787
 30
0.0
  0
VERTEX
  5
9F
  8
0
  6
CONTINUOUS
 62
     7
 10
84.4855581357
 20
152.5289955053
 30
0.0
  0
VERTEX
  5
A0
  8
0
  6
CONTINUOUS
 62
     7
 10
83.737856127
 20
152.9112704027
 30
0.0
  0
VERTEX
  5
A1
  8
0
  6
CONTINUOUS
 62
     7
 10
83.0249546509
 20
153.3098196997
 30
0.0
  0
VERTEX
  5
A2
  8
0
  6
CONTINUOUS
 62
     7
 10
82.3482691075
 20
153.7238521133
 30
0.0
  0
VERTEX
  5
A3
  8
0
  6
CONTINUOUS
 62
     7
 10
81.7091429931
 20
154.1525456206
 30
0.0
  0
VERTEX
  5
A4
  8
0
  6
CONTINUOUS
 62
     7
 10
81.1088452336
 20
154.5950490904
 30
0.0
  0
VERTEX
  5
A5
  8
0
  6
CONTINUOUS
 62
     7
 10
80.5485676646
 20
155.0504839728
 30
0.0
  0
VERTEX
  5
A6
  8
0
  6
CONTINUOUS
 62
     7
 10
80.0294226654
 20
155.5179460442
 30
0.0
  0
VERTEX
  5
A7
  8
0
  6
CONTINUOUS
 62
     7
 10
79.5524409502
 20
155.9965072018
 30
0.0
  0
VERTEX
  5
A8
  8
0
  6
CONTINUOUS
 62
     7
 10
79.1185695222
 20
156.4852173068
 30
0.0
  0
VERTEX
  5
A9
  8
0
  6
CONTINUOUS
 62
     7
 10
78.7286697928
 20
156.9831060704
 30
0.0
  0
VERTEX
  5
AA
  8
0
  6
CONTINUOUS
 62
     7
 10
78.383515872
 20
157.4891849807
 30
0.0
  0
VERTEX
  5
AB
  8
0
  6
CONTINUOUS
 62
     7
 10
78.0837930308
 20
158.0024492649
 30
0.0
  0
VERTEX
  5
AC
  8
0
  6
CONTINUOUS
 62
     7
 10
77.8300963412
 20
158.521879884
 30
0.0
  0
VERTEX
  5
AD
  8
0
  6
CONTINUOUS
 62
     7
 10
77.6229294946
 20
159.0464455569
 30
0.0
  0
VERTEX
  5
AE
  8
0
  6
CONTINUOUS
 62
     7
 10
77.4627038015
 20
159.5751048068
 30
0.0
  0
VERTEX
  5
AF
  8
0
  6
CONTINUOUS
 62
     7
 10
77.3497373752
 20
160.1068080298
 30
0.0
  0
VERTEX
  5
B0
  8
0
  6
CONTINUOUS
 62
     7
 10
77.2842545
 20
160.6404995784
 30
0.0
  0
VERTEX
  5
B1
  8
0
  6
CONTINUOUS
 62
     7
 10
77.2663851863
 20
161.1751198573
 30
0.0
  0
VERTEX
  5
B2
  8
0
  6
CONTINUOUS
 62
     7
 10
77.2961649117
 20
161.7096074275
 30
0.0
  0
VERTEX
  5
B3
  8
0
  6
CONTINUOUS
 62
     7
 10
77.3735345516
 20
162.2429011134
 30
0.0
  0
VERTEX
  5
B4
  8
0
  6
CONTINUOUS
 62
     7
 10
77.4983404955
 20
162.7739421098
 30
0.0
  0
VERTEX
  5
B5
  8
0
  6
CONTINUOUS
 62
     7
 10
77.6703349528
 20
163.3016760839
 30
0.0
  0
VERTEX
  5
B6
  8
0
  6
CONTINUOUS
 62
     7
 10
77.8891764446
 20
163.8250552687
 30
0.0
  0
VERTEX
  5
B7
  8
0
  6
CONTINUOUS
 62
     7
 10
78.1544304811
 20
164.3430405433
 30
0.0
  0
VERTEX
  5
B8
  8
0
  6
CONTINUOUS
 62
     7
 10
78.4655704252
 20
164.854603496
 30
0.0
  0
VERTEX
  5
B9
  8
0
  6
CONTINUOUS
 62
     7
 10
78.8219785372
 20
165.3587284658
 30
0.0
  0
VERTEX
  5
BA
  8
0
  6
CONTINUOUS
 62
     7
 10
79.2229472019
 20
165.8544145592
 30
0.0
  0
VERTEX
  5
BB
  8
0
  6
CONTINUOUS
 62
     7
 10
79.667680333
 20
166.3406776374
 30
0.0
  0
VERTEX
  5
BC
  8
0
  6
CONTINUOUS
 62
     7
 10
80.1552949542
 20
166.8165522701
 30
0.0
  0
VERTEX
  5
BD
  8
0
  6
CONTINUOUS
 62
     7
 10
80.6848229516
 20
167.2810936522
 30
0.0
  0
VERTEX
  5
BE
  8
0
  6
CONTINUOUS
 62
     7
 10
81.2552129965
 20
167.7333794799
 30
0.0
  0
VERTEX
  5
BF
  8
0
  6
CONTINUOUS
 62
     7
 10
81.8653326322
 20
168.1725117814
 30
0.0
  0
VERTEX
  5
C0
  8
0
  6
CONTINUOUS
 62
     7
 10
82.5139705228
 20
168.5976187003
 30
0.0
  0
VERTEX
  5
C1
  8
0
  6
CONTINUOUS
 62
     7
 10
83.1998388576
 20
169.007856226
 30
0.0
  0
VERTEX
  5
C2
  8
0
  6
CONTINUOUS
 62
     7
 10
83.9215759086
 20
169.4024098701
 30
0.0
  0
VERTEX
  5
C3
  8
0
  6
CONTINUOUS
 62
     7
 10
84.6777487338
 20
169.7804962826
 30
0.0
  0
VERTEX
  5
C4
  8
0
  6
CONTINUOUS
 62
     7
 10
85.4668560218
 20
170.1413648082
 30
0.0
  0
VERTEX
  5
C5
  8
0
  6
CONTINUOUS
 62
     7
 10
86.2873310733
 20
170.4842989756
 30
0.0
  0
VERTEX
  5
C6
  8
0
  6
CONTINUOUS
 62
     7
 10
87.1375449111
 20
170.8086179208
 30
0.0
  0
VERTEX
  5
C7
  8
0
  6
CONTINUOUS
 62
     7
 10
88.0158095141
 20
171.1136777387
 30
0.0
  0
VERTEX
  5
C8
  8
0
  6
CONTINUOUS
 62
     7
 10
88.9203811694
 20
171.3988727612
 30
0.0
  0
VERTEX
  5
C9
  8
0
  6
CONTINUOUS
 62
     7
 10
89.2660128617
 20
171.5005826515
 30
0.0
  0
SEQEND
  5
222
  8
0
  6
CONTINUOUS
 62
     7
  0
POLYLINE
  5
4B
  8
0
  6
CONTINUOUS
 62
     7
 66
     1
 10
0.0
 20
0.0
 30
0.0
  0
VERTEX
  5
CA
  8
0
  6
CONTINUOUS
 62
     7
 10
113.2660128617
 20
171.5005826515
 30
0.0
  0
VERTEX
  5
CB
  8
0
  6
CONTINUOUS
 62
     7
 10
113.3816005283
 20
171.4670004046
 30
0.0
  0
VERTEX
  5
CC
  8
0
  6
CONTINUOUS
 62
     7
 10
114.2924702932
 20
171.1868616201
 30
0.0
  0
VERTEX
  5
CD
  8
0
  6
CONTINUOUS
 62
     7
 10
115.1774772326
 20
170.8867127404
 30
0.0
  0
VERTEX
  5
CE
  8
0
  6
CONTINUOUS
 62
     7
 10
116.0348642473
 20
170.5671496832
 30
0.0
  0
VERTEX
  5
CF
  8
0
  6
CONTINUOUS
 62
     7
 10
116.8629290745
 20
170.2288069115
 30
0.0
  0
VERTEX
  5
D0
  8
0
  6
CONTINUOUS
 62
     7
 10
117.6600276684
 20
169.8723561735
 30
0.0
  0
VERTEX
  5
D1
  8
0
  6
CONTINUOUS
 62
     7
 10
118.4245774634
 20
169.4985051691
 30
0.0
  0
VERTEX
  5
D2
  8
0
  6
CONTINUOUS
 62
     7
 10
119.1550605166
 20
169.1079961449
 30
0.0
  0
VERTEX
  5
D3
  8
0
  6
CONTINUOUS
 62
     7
 10
119.8500265216
 20
168.7016044205
 30
0.0
  0
VERTEX
  5
D4
  8
0
  6
CONTINUOUS
 62
     7
 10
120.5080956877
 20
168.2801368489
 30
0.0
  0
VERTEX
  5
D5
  8
0
  6
CONTINUOUS
 62
     7
 10
121.1279614795
 20
167.844430215
 30
0.0
  0
VERTEX
  5
D6
  8
0
  6
CONTINUOUS
 62
     7
 10
121.7083932108
 20
167.3953495741
 30
0.0
  0
VERTEX
  5
D7
  8
0
  6
CONTINUOUS
 62
     7
 10
122.2482384881
 20
166.9337865342
 30
0.0
  0
VERTEX
  5
D8
  8
0
  6
CONTINUOUS
 62
     7
 10
122.7464254987
 20
166.4606574859
 30
0.0
  0
VERTEX
  5
D9
  8
0
  6
CONTINUOUS
 62
     7
 10
123.2019651383
 20
165.9769017831
 30
0.0
  0
VERTEX
  5
DA
  8
0
  6
CONTINUOUS
 62
     7
 10
123.6139529752
 20
165.4834798782
 30
0.0
  0
VERTEX
  5
DB
  8
0
  6
CONTINUOUS
 62
     7
 10
123.9815710455
 20
164.9813714145
 30
0.0
  0
VERTEX
  5
DC
  8
0
  6
CONTINUOUS
 62
     7
 10
124.3040894778
 20
164.471573282
 30
0.0
  0
VERTEX
  5
DD
  8
0
  6
CONTINUOUS
 62
     7
 10
124.5808679415
 20
163.9550976376
 30
0.0
  0
VERTEX
  5
DE
  8
0
  6
CONTINUOUS
 62
     7
 10
124.8113569185
 20
163.4329698959
 30
0.0
  0
VERTEX
  5
DF
  8
0
  6
CONTINUOUS
 62
     7
 10
124.9950987943
 20
162.9062266933
 30
0.0
  0
VERTEX
  5
E0
  8
0
  6
CONTINUOUS
 62
     7
 10
125.1317287665
 20
162.3759138296
 30
0.0
  0
VERTEX
  5
E1
  8
0
  6
CONTINUOUS
 62
     7
 10
125.2209755689
 20
161.8430841919
 30
0.0
  0
VERTEX
  5
E2
  8
0
  6
CONTINUOUS
 62
     7
 10
125.2626620102
 20
161.3087956642
 30
0.0
  0
VERTEX
  5
E3
  8
0
  6
CONTINUOUS
 62
     7
 10
125.2567053259
 20
160.7741090268
 30
0.0
  0
VERTEX
  5
E4
  8
0
  6
CONTINUOUS
 62
     7
 10
125.2031173423
 20
160.2400858506
 30
0.0
  0
VERTEX
  5
E5
  8
0
  6
CONTINUOUS
 62
     7
 10
125.1020044535
 20
159.7077863891
 30
0.0
  0
VERTEX
  5
E6
  8
0
  6
CONTINUOUS
 62
     7
 10
124.9535674098
 20
159.1782674738
 30
0.0
  0
VERTEX
  5
E7
  8
0
  6
CONTINUOUS
 62
     7
 10
124.7581009192
 20
158.6525804153
 30
0.0
  0
VERTEX
  5
E8
  8
0
  6
CONTINUOUS
 62
     7
 10
124.5159930622
 20
158.1317689166
 30
0.0
  0
VERTEX
  5
E9
  8
0
  6
CONTINUOUS
 62
     7
 10
124.2277245217
 20
157.6168670008
 30
0.0
  0
VERTEX
  5
EA
  8
0
  6
CONTINUOUS
 62
     7
 10
123.8938676281
 20
157.108896958
 30
0.0
  0
VERTEX
  5
EB
  8
0
  6
CONTINUOUS
 62
     7
 10
123.5150852235
 20
156.6088673157
 30
0.0
  0
VERTEX
  5
EC
  8
0
  6
CONTINUOUS
 62
     7
 10
123.0921293451
 20
156.1177708364
 30
0.0
  0
VERTEX
  5
ED
  8
0
  6
CONTINUOUS
 62
     7
 10
122.6258397327
 20
155.6365825468
 30
0.0
  0
VERTEX
  5
EE
  8
0
  6
CONTINUOUS
 62
     7
 10
122.1171421613
 20
155.1662578016
 30
0.0
  0
VERTEX
  5
EF
  8
0
  6
CONTINUOUS
 62
     7
 10
121.5670466027
 20
154.7077303871
 30
0.0
  0
VERTEX
  5
F0
  8
0
  6
CONTINUOUS
 62
     7
 10
120.9766452208
 20
154.2619106671
 30
0.0
  0
VERTEX
  5
F1
  8
0
  6
CONTINUOUS
 62
     7
 10
120.3471102028
 20
153.8296837753
 30
0.0
  0
VERTEX
  5
F2
  8
0
  6
CONTINUOUS
 62
     7
 10
119.6796914323
 20
153.4119078582
 30
0.0
  0
VERTEX
  5
F3
  8
0
  6
CONTINUOUS
 62
     7
 10
118.9757140074
 20
153.0094123712
 30
0.0
  0
VERTEX
  5
F4
  8
0
  6
CONTINUOUS
 62
     7
 10
118.2365756102
 20
152.6229964318
 30
0.0
  0
SEQEND
  5
221
  8
0
  6
CONTINUOUS
 62
     7
  0
POLYLINE
  5
4C
  8
0
  6
CONTINUOUS
 62
     7
 66
     1
 10
0.0
 20
0.0
 30
0.0
  0
VERTEX
  5
F5
  8
0
  6
CONTINUOUS
 62
     7
 10
89.2660128617
 20
165.9655761777
 30
0.0
  0
VERTEX
  5
F6
  8
0
  6
CONTINUOUS
 62
     7
 10
89.023037642
 20
165.9413219088
 30
0.0
  0
VERTEX
  5
F7
  8
0
  6
CONTINUOUS
 62
     7
 10
88.6354641535
 20
165.9230036682
 30
0.0
  0
VERTEX
  5
F8
  8
0
  6
CONTINUOUS
 62
     7
 10
88.2463550291
 20
165.9291177916
 30
0.0
  0
VERTEX
  5
F9
  8
0
  6
CONTINUOUS
 62
     7
 10
87.861846752
 20
165.9595678558
 30
0.0
  0
VERTEX
  5
FA
  8
0
  6
CONTINUOUS
 62
     7
 10
87.4880032476
 20
166.0138736449
 30
0.0
  0
VERTEX
  5
FB
  8
0
  6
CONTINUOUS
 62
     7
 10
87.1307202512
 20
166.0911787243
 30
0.0
  0
VERTEX
  5
FC
  8
0
  6
CONTINUOUS
 62
     7
 10
86.795632329
 20
166.1902639466
 30
0.0
  0
VERTEX
  5
FD
  8
0
  6
CONTINUOUS
 62
     7
 10
86.4880240179
 20
166.3095666788
 30
0.0
  0
VERTEX
  5
FE
  8
0
  6
CONTINUOUS
 62
     7
 10
86.2127464845
 20
166.4472054455
 30
0.0
  0
VERTEX
  5
FF
  8
0
  6
CONTINUOUS
 62
     7
 10
85.9741410201
 20
166.6010096011
 30
0.0
  0
VERTEX
  5
100
  8
0
  6
CONTINUOUS
 62
     7
 10
85.7759705754
 20
166.7685535622
 30
0.0
  0
VERTEX
  5
101
  8
0
  6
CONTINUOUS
 62
     7
 10
85.6213604166
 20
166.9471950604
 30
0.0
  0
VERTEX
  5
102
  8
0
  6
CONTINUOUS
 62
     7
 10
85.5127488384
 20
167.1341168126
 30
0.0
  0
VERTEX
  5
103
  8
0
  6
CONTINUOUS
 62
     7
 10
85.4518487101
 20
167.3263709511
 30
0.0
  0
VERTEX
  5
104
  8
0
  6
CONTINUOUS
 62
     7
 10
85.4396204632
 20
167.5209255133
 30
0.0
  0
VERTEX
  5
105
  8
0
  6
CONTINUOUS
 62
     7
 10
85.4762569445
 20
167.7147122576
 30
0.0
  0
VERTEX
  5
106
  8
0
  6
CONTINUOUS
 62
     7
 10
85.5611803748
 20
167.9046750511
 30
0.0
  0
VERTEX
  5
107
  8
0
  6
CONTINUOUS
 62
     7
 10
85.6930514608
 20
168.0878180672
 30
0.0
  0
VERTEX
  5
108
  8
0
  6
CONTINUOUS
 62
     7
 10
85.8697905167
 20
168.2612530312
 30
0.0
  0
VERTEX
  5
109
  8
0
  6
CONTINUOUS
 62
     7
 10
86.088610262
 20
168.4222447699
 30
0.0
  0
VERTEX
  5
10A
  8
0
  6
CONTINUOUS
 62
     7
 10
86.3460597787
 20
168.5682543476
 30
0.0
  0
VERTEX
  5
10B
  8
0
  6
CONTINUOUS
 62
     7
 10
86.6380789341
 20
168.6969791059
 30
0.0
  0
VERTEX
  5
10C
  8
0
  6
CONTINUOUS
 62
     7
 10
86.9600624116
 20
168.8063889786
 30
0.0
  0
VERTEX
  5
10D
  8
0
  6
CONTINUOUS
 62
     7
 10
87.3069323394
 20
168.8947585066
 30
0.0
  0
VERTEX
  5
10E
  8
0
  6
CONTINUOUS
 62
     7
 10
87.6732183717
 20
168.9606940496
 30
0.0
  0
VERTEX
  5
10F
  8
0
  6
CONTINUOUS
 62
     7
 10
88.0531439588
 20
169.0031557647
 30
0.0
  0
VERTEX
  5
110
  8
0
  6
CONTINUOUS
 62
     7
 10
88.4407174472
 20
169.0214740053
 30
0.0
  0
VERTEX
  5
111
  8
0
  6
CONTINUOUS
 62
     7
 10
88.8298265717
 20
169.0153598819
 30
0.0
  0
VERTEX
  5
112
  8
0
  6
CONTINUOUS
 62
     7
 10
89.2143348487
 20
168.9849098178
 30
0.0
  0
VERTEX
  5
113
  8
0
  6
CONTINUOUS
 62
     7
 10
89.2660128617
 20
168.9789014958
 30
0.0
  0
SEQEND
  5
220
  8
0
  6
CONTINUOUS
 62
     7
  0
POLYLINE
  5
4D
  8
0
  6
CONTINUOUS
 62
     7
 66
     1
 10
0.0
 20
0.0
 30
0.0
  0
VERTEX
  5
114
  8
0
  6
CONTINUOUS
 62
     7
 10
116.1859659448
 20
153.6483012646
 30
0.0
  0
VERTEX
  5
115
  8
0
  6
CONTINUOUS
 62
     7
 10
115.8939467894
 20
153.5195765062
 30
0.0
  0
VERTEX
  5
116
  8
0
  6
CONTINUOUS
 62
     7
 10
115.5719633119
 20
153.4101666335
 30
0.0
  0
VERTEX
  5
117
  8
0
  6
CONTINUOUS
 62
     7
 10
115.2250933841
 20
153.3217971056
 30
0.0
  0
VERTEX
  5
118
  8
0
  6
CONTINUOUS
 62
     7
 10
114.8588073518
 20
153.2558615626
 30
0.0
  0
VERTEX
  5
119
  8
0
  6
CONTINUOUS
 62
     7
 10
114.4788817647
 20
153.2133998475
 30
0.0
  0
VERTEX
  5
11A
  8
0
  6
CONTINUOUS
 62
     7
 10
114.0913082762
 20
153.1950816068
 30
0.0
  0
VERTEX
  5
11B
  8
0
  6
CONTINUOUS
 62
     7
 10
113.7021991518
 20
153.2011957303
 30
0.0
  0
VERTEX
  5
11C
  8
0
  6
CONTINUOUS
 62
     7
 10
113.3176908748
 20
153.2316457944
 30
0.0
  0
VERTEX
  5
11D
  8
0
  6
CONTINUOUS
 62
     7
 10
112.9438473703
 20
153.2859515835
 30
0.0
  0
VERTEX
  5
11E
  8
0
  6
CONTINUOUS
 62
     7
 10
112.5865643739
 20
153.3632566629
 30
0.0
  0
VERTEX
  5
11F
  8
0
  6
CONTINUOUS
 62
     7
 10
112.2514764518
 20
153.4623418853
 30
0.0
  0
VERTEX
  5
120
  8
0
  6
CONTINUOUS
 62
     7
 10
111.9438681406
 20
153.5816446175
 30
0.0
  0
VERTEX
  5
121
  8
0
  6
CONTINUOUS
 62
     7
 10
111.6685906072
 20
153.7192833842
 30
0.0
  0
VERTEX
  5
122
  8
0
  6
CONTINUOUS
 62
     7
 10
111.4299851428
 20
153.8730875397
 30
0.0
  0
VERTEX
  5
123
  8
0
  6
CONTINUOUS
 62
     7
 10
111.2318146981
 20
154.0406315008
 30
0.0
  0
VERTEX
  5
124
  8
0
  6
CONTINUOUS
 62
     7
 10
111.0772045393
 20
154.219272999
 30
0.0
  0
VERTEX
  5
125
  8
0
  6
CONTINUOUS
 62
     7
 10
110.9685929611
 20
154.4061947512
 30
0.0
  0
VERTEX
  5
126
  8
0
  6
CONTINUOUS
 62
     7
 10
110.9076928328
 20
154.5984488898
 30
0.0
  0
VERTEX
  5
127
  8
0
  6
CONTINUOUS
 62
     7
 10
110.895464586
 20
154.793003452
 30
0.0
  0
VERTEX
  5
128
  8
0
  6
CONTINUOUS
 62
     7
 10
110.9321010672
 20
154.9867901962
 30
0.0
  0
VERTEX
  5
129
  8
0
  6
CONTINUOUS
 62
     7
 10
111.0170244975
 20
155.1767529898
 30
0.0
  0
VERTEX
  5
12A
  8
0
  6
CONTINUOUS
 62
     7
 10
111.1488955835
 20
155.3598960059
 30
0.0
  0
VERTEX
  5
12B
  8
0
  6
CONTINUOUS
 62
     7
 10
111.3256346394
 20
155.5333309698
 30
0.0
  0
VERTEX
  5
12C
  8
0
  6
CONTINUOUS
 62
     7
 10
111.5444543847
 20
155.6943227086
 30
0.0
  0
VERTEX
  5
12D
  8
0
  6
CONTINUOUS
 62
     7
 10
111.8019039014
 20
155.8403322862
 30
0.0
  0
VERTEX
  5
12E
  8
0
  6
CONTINUOUS
 62
     7
 10
112.0939230568
 20
155.9690570446
 30
0.0
  0
VERTEX
  5
12F
  8
0
  6
CONTINUOUS
 62
     7
 10
112.4159065343
 20
156.0784669173
 30
0.0
  0
VERTEX
  5
130
  8
0
  6
CONTINUOUS
 62
     7
 10
112.7627764621
 20
156.1668364452
 30
0.0
  0
VERTEX
  5
131
  8
0
  6
CONTINUOUS
 62
     7
 10
113.1290624944
 20
156.2327719882
 30
0.0
  0
VERTEX
  5
132
  8
0
  6
CONTINUOUS
 62
     7
 10
113.5089880815
 20
156.2752337033
 30
0.0
  0
VERTEX
  5
133
  8
0
  6
CONTINUOUS
 62
     7
 10
113.89656157
 20
156.293551944
 30
0.0
  0
VERTEX
  5
134
  8
0
  6
CONTINUOUS
 62
     7
 10
114.2856706944
 20
156.2874378205
 30
0.0
  0
VERTEX
  5
135
  8
0
  6
CONTINUOUS
 62
     7
 10
114.6701789714
 20
156.2569877564
 30
0.0
  0
VERTEX
  5
136
  8
0
  6
CONTINUOUS
 62
     7
 10
115.0440224759
 20
156.2026819673
 30
0.0
  0
VERTEX
  5
137
  8
0
  6
CONTINUOUS
 62
     7
 10
115.4013054723
 20
156.1253768879
 30
0.0
  0
VERTEX
  5
138
  8
0
  6
CONTINUOUS
 62
     7
 10
115.7363933944
 20
156.0262916655
 30
0.0
  0
VERTEX
  5
139
  8
0
  6
CONTINUOUS
 62
     7
 10
116.0440017056
 20
155.9069889333
 30
0.0
  0
VERTEX
  5
13A
  8
0
  6
CONTINUOUS
 62
     7
 10
116.3192792389
 20
155.7693501667
 30
0.0
  0
VERTEX
  5
13B
  8
0
  6
CONTINUOUS
 62
     7
 10
116.5578847033
 20
155.6155460111
 30
0.0
  0
VERTEX
  5
13C
  8
0
  6
CONTINUOUS
 62
     7
 10
116.7560551481
 20
155.44800205
 30
0.0
  0
VERTEX
  5
13D
  8
0
  6
CONTINUOUS
 62
     7
 10
116.9106653069
 20
155.2693605518
 30
0.0
  0
VERTEX
  5
13E
  8
0
  6
CONTINUOUS
 62
     7
 10
117.0192768851
 20
155.0824387996
 30
0.0
  0
VERTEX
  5
13F
  8
0
  6
CONTINUOUS
 62
     7
 10
117.0801770134
 20
154.890184661
 30
0.0
  0
VERTEX
  5
140
  8
0
  6
CONTINUOUS
 62
     7
 10
117.0924052602
 20
154.6956300988
 30
0.0
  0
VERTEX
  5
141
  8
0
  6
CONTINUOUS
 62
     7
 10
117.0557687789
 20
154.5018433546
 30
0.0
  0
VERTEX
  5
142
  8
0
  6
CONTINUOUS
 62
     7
 10
116.9708453487
 20
154.311880561
 30
0.0
  0
VERTEX
  5
143
  8
0
  6
CONTINUOUS
 62
     7
 10
116.8389742627
 20
154.1287375449
 30
0.0
  0
VERTEX
  5
144
  8
0
  6
CONTINUOUS
 62
     7
 10
116.6622352068
 20
153.955302581
 30
0.0
  0
VERTEX
  5
145
  8
0
  6
CONTINUOUS
 62
     7
 10
116.4434154615
 20
153.7943108422
 30
0.0
  0
VERTEX
  5
146
  8
0
  6
CONTINUOUS
 62
     7
 10
116.1859659448
 20
153.6483012646
 30
0.0
  0
SEQEND
  5
21F
  8
0
  6
CONTINUOUS
 62
     7
  0
POLYLINE
  5
4E
  8
0
  6
CONTINUOUS
 62
     7
 66
     1
 10
0.0
 20
0.0
 30
0.0
  0
VERTEX
  5
147
  8
0
  6
CONTINUOUS
 62
     7
 10
118.2365756102
 20
149.1588948167
 30
0.0
  0
VERTEX
  5
148
  8
0
  6
CONTINUOUS
 62
     7
 10
117.4637437315
 20
148.7893256181
 30
0.0
  0
VERTEX
  5
149
  8
0
  6
CONTINUOUS
 62
     7
 10
116.6587527576
 20
148.4373369057
 30
0.0
  0
VERTEX
  5
14A
  8
0
  6
CONTINUOUS
 62
     7
 10
115.8232009233
 20
148.1036275204
 30
0.0
  0
VERTEX
  5
14B
  8
0
  6
CONTINUOUS
 62
     7
 10
114.9587471397
 20
147.7888600114
 30
0.0
  0
VERTEX
  5
14C
  8
0
  6
CONTINUOUS
 62
     7
 10
114.0671076996
 20
147.4936593205
 30
0.0
  0
VERTEX
  5
14D
  8
0
  6
CONTINUOUS
 62
     7
 10
113.1500528707
 20
147.2186115412
 30
0.0
  0
VERTEX
  5
14E
  8
0
  6
CONTINUOUS
 62
     7
 10
112.2094033803
 20
146.9642627555
 30
0.0
  0
VERTEX
  5
14F
  8
0
  6
CONTINUOUS
 62
     7
 10
111.247026801
 20
146.7311179493
 30
0.0
  0
VERTEX
  5
150
  8
0
  6
CONTINUOUS
 62
     7
 10
110.2648338425
 20
146.5196400101
 30
0.0
  0
VERTEX
  5
151
  8
0
  6
CONTINUOUS
 62
     7
 10
109.2647745578
 20
146.3302488077
 30
0.0
  0
VERTEX
  5
152
  8
0
  6
CONTINUOUS
 62
     7
 10
108.2488344722
 20
146.163320361
 30
0.0
  0
VERTEX
  5
153
  8
0
  6
CONTINUOUS
 62
     7
 10
107.2190306407
 20
146.0191860907
 30
0.0
  0
VERTEX
  5
154
  8
0
  6
CONTINUOUS
 62
     7
 10
106.1774076434
 20
145.8981321622
 30
0.0
  0
VERTEX
  5
155
  8
0
  6
CONTINUOUS
 62
     7
 10
105.1260335264
 20
145.8003989169
 30
0.0
  0
VERTEX
  5
156
  8
0
  6
CONTINUOUS
 62
     7
 10
104.0669956956
 20
145.726180395
 30
0.0
  0
VERTEX
  5
157
  8
0
  6
CONTINUOUS
 62
     7
 10
103.0023967727
 20
145.6756239507
 30
0.0
  0
VERTEX
  5
158
  8
0
  6
CONTINUOUS
 62
     7
 10
101.9343504203
 20
145.6488299589
 30
0.0
  0
VERTEX
  5
159
  8
0
  6
CONTINUOUS
 62
     7
 10
100.8649771455
 20
145.6458516167
 30
0.0
  0
VERTEX
  5
15A
  8
0
  6
CONTINUOUS
 62
     7
 10
99.79640009
 20
145.6666948374
 30
0.0
  0
VERTEX
  5
15B
  8
0
  6
CONTINUOUS
 62
     7
 10
98.7307408147
 20
145.7113182386
 30
0.0
  0
VERTEX
  5
15C
  8
0
  6
CONTINUOUS
 62
     7
 10
97.6701150873
 20
145.7796332247
 30
0.0
  0
VERTEX
  5
15D
  8
0
  6
CONTINUOUS
 62
     7
 10
96.6166286821
 20
145.8715041626
 30
0.0
  0
VERTEX
  5
15E
  8
0
  6
CONTINUOUS
 62
     7
 10
95.5723731988
 20
145.9867486511
 30
0.0
  0
VERTEX
  5
15F
  8
0
  6
CONTINUOUS
 62
     7
 10
94.53942191
 20
146.1251378829
 30
0.0
  0
VERTEX
  5
160
  8
0
  6
CONTINUOUS
 62
     7
 10
93.5198256449
 20
146.286397099
 30
0.0
  0
VERTEX
  5
161
  8
0
  6
CONTINUOUS
 62
     7
 10
92.5156087175
 20
146.4702061342
 30
0.0
  0
VERTEX
  5
162
  8
0
  6
CONTINUOUS
 62
     7
 10
91.5287649076
 20
146.6762000527
 30
0.0
  0
VERTEX
  5
163
  8
0
  6
CONTINUOUS
 62
     7
 10
90.5612535022
 20
146.9039698725
 30
0.0
  0
VERTEX
  5
164
  8
0
  6
CONTINUOUS
 62
     7
 10
89.6149954056
 20
147.1530633778
 30
0.0
  0
VERTEX
  5
165
  8
0
  6
CONTINUOUS
 62
     7
 10
88.6918693257
 20
147.4229860164
 30
0.0
  0
VERTEX
  5
166
  8
0
  6
CONTINUOUS
 62
     7
 10
87.7937080438
 20
147.7132018821
 30
0.0
  0
VERTEX
  5
167
  8
0
  6
CONTINUOUS
 62
     7
 10
86.9222947761
 20
148.023134778
 30
0.0
  0
VERTEX
  5
168
  8
0
  6
CONTINUOUS
 62
     7
 10
86.079359633
 20
148.352169361
 30
0.0
  0
VERTEX
  5
169
  8
0
  6
CONTINUOUS
 62
     7
 10
85.2665761841
 20
148.6996523635
 30
0.0
  0
VERTEX
  5
16A
  8
0
  6
CONTINUOUS
 62
     7
 10
84.4855581357
 20
149.0648938901
 30
0.0
  0
VERTEX
  5
16B
  8
0
  6
CONTINUOUS
 62
     7
 10
83.737856127
 20
149.4471687876
 30
0.0
  0
VERTEX
  5
16C
  8
0
  6
CONTINUOUS
 62
     7
 10
83.0249546509
 20
149.8457180845
 30
0.0
  0
VERTEX
  5
16D
  8
0
  6
CONTINUOUS
 62
     7
 10
82.3482691075
 20
150.2597504982
 30
0.0
  0
VERTEX
  5
16E
  8
0
  6
CONTINUOUS
 62
     7
 10
81.7091429931
 20
150.6884440055
 30
0.0
  0
VERTEX
  5
16F
  8
0
  6
CONTINUOUS
 62
     7
 10
81.1088452336
 20
151.1309474752
 30
0.0
  0
VERTEX
  5
170
  8
0
  6
CONTINUOUS
 62
     7
 10
80.5485676646
 20
151.5863823577
 30
0.0
  0
VERTEX
  5
171
  8
0
  6
CONTINUOUS
 62
     7
 10
80.0294226654
 20
152.053844429
 30
0.0
  0
VERTEX
  5
172
  8
0
  6
CONTINUOUS
 62
     7
 10
79.5524409502
 20
152.5324055867
 30
0.0
  0
VERTEX
  5
173
  8
0
  6
CONTINUOUS
 62
     7
 10
79.1185695222
 20
153.0211156916
 30
0.0
  0
VERTEX
  5
174
  8
0
  6
CONTINUOUS
 62
     7
 10
78.7286697928
 20
153.5190044553
 30
0.0
  0
VERTEX
  5
175
  8
0
  6
CONTINUOUS
 62
     7
 10
78.383515872
 20
154.0250833656
 30
0.0
  0
VERTEX
  5
176
  8
0
  6
CONTINUOUS
 62
     7
 10
78.0837930308
 20
154.5383476497
 30
0.0
  0
VERTEX
  5
177
  8
0
  6
CONTINUOUS
 62
     7
 10
77.8300963412
 20
155.0577782689
 30
0.0
  0
VERTEX
  5
178
  8
0
  6
CONTINUOUS
 62
     7
 10
77.6229294946
 20
155.5823439418
 30
0.0
  0
VERTEX
  5
179
  8
0
  6
CONTINUOUS
 62
     7
 10
77.4627038015
 20
156.1110031917
 30
0.0
  0
VERTEX
  5
17A
  8
0
  6
CONTINUOUS
 62
     7
 10
77.3497373752
 20
156.6427064147
 30
0.0
  0
VERTEX
  5
17B
  8
0
  6
CONTINUOUS
 62
     7
 10
77.2842545
 20
157.1763979633
 30
0.0
  0
VERTEX
  5
17C
  8
0
  6
CONTINUOUS
 62
     7
 10
77.2660128617
 20
157.6441761909
 30
0.0
  0
SEQEND
  5
21E
  8
0
  6
CONTINUOUS
 62
     7
  0
ARC
  5
4F
  8
0
  6
CONTINUOUS
 62
     7
 10
114.7787485069
 20
159.1777815143
 30
0.0
 40
10.59880459936738
 50
289.0411349341
 51
351.6803205904
  0
POLYLINE
  5
50
  8
0
  6
CONTINUOUS
 62
     7
 66
     1
 10
0.0
 20
0.0
 30
0.0
  0
VERTEX
  5
17D
  8
0
  6
CONTINUOUS
 62
     7
 10
109.751294236
 20
167.2579419644
 30
0.0
  0
VERTEX
  5
17E
  8
0
  6
CONTINUOUS
 62
     7
 10
109.1960408152
 20
166.9973988706
 30
0.0
  0
VERTEX
  5
17F
  8
0
  6
CONTINUOUS
 62
     7
 10
108.6088559707
 20
166.7549885086
 30
0.0
  0
VERTEX
  5
180
  8
0
  6
CONTINUOUS
 62
     7
 10
107.9921040886
 20
166.5316869792
 30
0.0
  0
VERTEX
  5
181
  8
0
  6
CONTINUOUS
 62
     7
 10
107.3482686111
 20
166.328393439
 30
0.0
  0
VERTEX
  5
182
  8
0
  6
CONTINUOUS
 62
     7
 10
106.6799420364
 20
166.1459264793
 30
0.0
  0
VERTEX
  5
183
  8
0
  6
CONTINUOUS
 62
     7
 10
105.9898154797
 20
165.98502083
 30
0.0
  0
VERTEX
  5
184
  8
0
  6
CONTINUOUS
 62
     7
 10
105.2806678371
 20
165.8463244015
 30
0.0
  0
VERTEX
  5
185
  8
0
  6
CONTINUOUS
 62
     7
 10
104.5553545958
 20
165.7303956754
 30
0.0
  0
VERTEX
  5
186
  8
0
  6
CONTINUOUS
 62
     7
 10
103.8167963364
 20
165.6377014557
 30
0.0
  0
VERTEX
  5
187
  8
0
  6
CONTINUOUS
 62
     7
 10
103.0679669721
 20
165.5686149892
 30
0.0
  0
VERTEX
  5
188
  8
0
  6
CONTINUOUS
 62
     7
 10
102.3118817747
 20
165.5234144629
 30
0.0
  0
VERTEX
  5
189
  8
0
  6
CONTINUOUS
 62
     7
 10
101.5515852323
 20
165.5022818833
 30
0.0
  0
VERTEX
  5
18A
  8
0
  6
CONTINUOUS
 62
     7
 10
100.7901387907
 20
165.5053023439
 30
0.0
  0
VERTEX
  5
18B
  8
0
  6
CONTINUOUS
 62
     7
 10
100.0306085261
 20
165.5324636822
 30
0.0
  0
VERTEX
  5
18C
  8
0
  6
CONTINUOUS
 62
     7
 10
99.2760527987
 20
165.5836565292
 30
0.0
  0
VERTEX
  5
18D
  8
0
  6
CONTINUOUS
 62
     7
 10
98.5295099381
 20
165.6586747493
 30
0.0
  0
VERTEX
  5
18E
  8
0
  6
CONTINUOUS
 62
     7
 10
97.793986009
 20
165.7572162708
 30
0.0
  0
VERTEX
  5
18F
  8
0
  6
CONTINUOUS
 62
     7
 10
97.0724427065
 20
165.8788843015
 30
0.0
  0
VERTEX
  5
190
  8
0
  6
CONTINUOUS
 62
     7
 10
96.367785431
 20
166.0231889274
 30
0.0
  0
VERTEX
  5
191
  8
0
  6
CONTINUOUS
 62
     7
 10
95.6828515886
 20
166.1895490845
 30
0.0
  0
VERTEX
  5
192
  8
0
  6
CONTINUOUS
 62
     7
 10
95.0203991661
 20
166.3772948994
 30
0.0
  0
VERTEX
  5
193
  8
0
  6
CONTINUOUS
 62
     7
 10
94.3830956255
 20
166.5856703858
 30
0.0
  0
VERTEX
  5
194
  8
0
  6
CONTINUOUS
 62
     7
 10
93.7735071634
 20
166.8138364892
 30
0.0
  0
VERTEX
  5
195
  8
0
  6
CONTINUOUS
 62
     7
 10
93.1940883773
 20
167.0608744652
 30
0.0
  0
VERTEX
  5
196
  8
0
  6
CONTINUOUS
 62
     7
 10
92.6471723822
 20
167.3257895791
 30
0.0
  0
VERTEX
  5
197
  8
0
  6
CONTINUOUS
 62
     7
 10
92.1349614157
 20
167.6075151113
 30
0.0
  0
VERTEX
  5
198
  8
0
  6
CONTINUOUS
 62
     7
 10
91.6595179706
 20
167.9049166524
 30
0.0
  0
VERTEX
  5
199
  8
0
  6
CONTINUOUS
 62
     7
 10
91.22275649
 20
168.2167966715
 30
0.0
  0
VERTEX
  5
19A
  8
0
  6
CONTINUOUS
 62
     7
 10
90.826435658
 20
168.5418993376
 30
0.0
  0
VERTEX
  5
19B
  8
0
  6
CONTINUOUS
 62
     7
 10
90.4721513188
 20
168.8789155773
 30
0.0
  0
VERTEX
  5
19C
  8
0
  6
CONTINUOUS
 62
     7
 10
90.1613300504
 20
169.2264883449
 30
0.0
  0
VERTEX
  5
19D
  8
0
  6
CONTINUOUS
 62
     7
 10
89.8952234204
 20
169.5832180877
 30
0.0
  0
VERTEX
  5
19E
  8
0
  6
CONTINUOUS
 62
     7
 10
89.6749029463
 20
169.9476683809
 30
0.0
  0
VERTEX
  5
19F
  8
0
  6
CONTINUOUS
 62
     7
 10
89.5012557807
 20
170.3183717117
 30
0.0
  0
VERTEX
  5
1A0
  8
0
  6
CONTINUOUS
 62
     7
 10
89.3749811396
 20
170.6938353888
 30
0.0
  0
VERTEX
  5
1A1
  8
0
  6
CONTINUOUS
 62
     7
 10
89.2965874864
 20
171.0725475523
 30
0.0
  0
VERTEX
  5
1A2
  8
0
  6
CONTINUOUS
 62
     7
 10
89.2663904847
 20
171.4529832621
 30
0.0
  0
VERTEX
  5
1A3
  8
0
  6
CONTINUOUS
 62
     7
 10
89.284511727
 20
171.8336106379
 30
0.0
  0
VERTEX
  5
1A4
  8
0
  6
CONTINUOUS
 62
     7
 10
89.3508782457
 20
172.2128970274
 30
0.0
  0
VERTEX
  5
1A5
  8
0
  6
CONTINUOUS
 62
     7
 10
89.465222806
 20
172.5893151784
 30
0.0
  0
VERTEX
  5
1A6
  8
0
  6
CONTINUOUS
 62
     7
 10
89.6270849829
 20
172.9613493878
 30
0.0
  0
VERTEX
  5
1A7
  8
0
  6
CONTINUOUS
 62
     7
 10
89.8358130145
 20
173.3275016051
 30
0.0
  0
VERTEX
  5
1A8
  8
0
  6
CONTINUOUS
 62
     7
 10
90.0905664267
 20
173.6862974646
 30
0.0
  0
VERTEX
  5
1A9
  8
0
  6
CONTINUOUS
 62
     7
 10
90.3903194173
 20
174.0362922219
 30
0.0
  0
VERTEX
  5
1AA
  8
0
  6
CONTINUOUS
 62
     7
 10
90.7338649869
 20
174.3760765718
 30
0.0
  0
VERTEX
  5
1AB
  8
0
  6
CONTINUOUS
 62
     7
 10
91.1198197988
 20
174.7042823226
 30
0.0
  0
VERTEX
  5
1AC
  8
0
  6
CONTINUOUS
 62
     7
 10
91.5466297491
 20
175.0195879055
 30
0.0
  0
VERTEX
  5
1AD
  8
0
  6
CONTINUOUS
 62
     7
 10
92.0125762248
 20
175.3207236962
 30
0.0
  0
VERTEX
  5
1AE
  8
0
  6
CONTINUOUS
 62
     7
 10
92.5157830239
 20
175.6064771273
 30
0.0
  0
VERTEX
  5
1AF
  8
0
  6
CONTINUOUS
 62
     7
 10
93.0542239102
 20
175.8756975704
 30
0.0
  0
VERTEX
  5
1B0
  8
0
  6
CONTINUOUS
 62
     7
 10
93.6257307723
 20
176.12730097
 30
0.0
  0
VERTEX
  5
1B1
  8
0
  6
CONTINUOUS
 62
     7
 10
94.2280023538
 20
176.3602742078
 30
0.0
  0
VERTEX
  5
1B2
  8
0
  6
CONTINUOUS
 62
     7
 10
94.8586135196
 20
176.573679183
 30
0.0
  0
VERTEX
  5
1B3
  8
0
  6
CONTINUOUS
 62
     7
 10
95.5150250211
 20
176.7666565889
 30
0.0
  0
VERTEX
  5
1B4
  8
0
  6
CONTINUOUS
 62
     7
 10
96.1945937208
 20
176.9384293737
 30
0.0
  0
VERTEX
  5
1B5
  8
0
  6
CONTINUOUS
 62
     7
 10
96.8945832356
 20
177.088305869
 30
0.0
  0
VERTEX
  5
1B6
  8
0
  6
CONTINUOUS
 62
     7
 10
97.6121749545
 20
177.2156825751
 30
0.0
  0
VERTEX
  5
1B7
  8
0
  6
CONTINUOUS
 62
     7
 10
98.3444793891
 20
177.3200465909
 30
0.0
  0
VERTEX
  5
1B8
  8
0
  6
CONTINUOUS
 62
     7
 10
99.0885478078
 20
177.4009776794
 30
0.0
  0
VERTEX
  5
1B9
  8
0
  6
CONTINUOUS
 62
     7
 10
99.8413841098
 20
177.4581499595
 30
0.0
  0
VERTEX
  5
1BA
  8
0
  6
CONTINUOUS
 62
     7
 10
100.599956889
 20
177.4913332189
 30
0.0
  0
VERTEX
  5
1BB
  8
0
  6
CONTINUOUS
 62
     7
 10
101.3612116405
 20
177.50039384
 30
0.0
  0
VERTEX
  5
1BC
  8
0
  6
CONTINUOUS
 62
     7
 10
102.1220830601
 20
177.4852953392
 30
0.0
  0
VERTEX
  5
1BD
  8
0
  6
CONTINUOUS
 62
     7
 10
102.8795073872
 20
177.4460985126
 30
0.0
  0
VERTEX
  5
1BE
  8
0
  6
CONTINUOUS
 62
     7
 10
103.6304347413
 20
177.382961192
 30
0.0
  0
VERTEX
  5
1BF
  8
0
  6
CONTINUOUS
 62
     7
 10
104.371841403
 20
177.2961376092
 30
0.0
  0
VERTEX
  5
1C0
  8
0
  6
CONTINUOUS
 62
     7
 10
105.1007419893
 20
177.1859773721
 30
0.0
  0
VERTEX
  5
1C1
  8
0
  6
CONTINUOUS
 62
     7
 10
105.8142014749
 20
177.0529240571
 30
0.0
  0
VERTEX
  5
1C2
  8
0
  6
CONTINUOUS
 62
     7
 10
106.5093470102
 20
176.897513423
 30
0.0
  0
VERTEX
  5
1C3
  8
0
  6
CONTINUOUS
 62
     7
 10
107.1833794894
 20
176.7203712534
 30
0.0
  0
VERTEX
  5
1C4
  8
0
  6
CONTINUOUS
 62
     7
 10
107.8335848218
 20
176.5222108374
 30
0.0
  0
VERTEX
  5
1C5
  8
0
  6
CONTINUOUS
 62
     7
 10
108.4573448599
 20
176.303830097
 30
0.0
  0
VERTEX
  5
1C6
  8
0
  6
CONTINUOUS
 62
     7
 10
109.0521479421
 20
176.0661083745
 30
0.0
  0
VERTEX
  5
1C7
  8
0
  6
CONTINUOUS
 62
     7
 10
109.6155990065
 20
175.8100028913
 30
0.0
  0
VERTEX
  5
1C8
  8
0
  6
CONTINUOUS
 62
     7
 10
110.1454292343
 20
175.5365448937
 30
0.0
  0
VERTEX
  5
1C9
  8
0
  6
CONTINUOUS
 62
     7
 10
110.6395051864
 20
175.2468355007
 30
0.0
  0
VERTEX
  5
1CA
  8
0
  6
CONTINUOUS
 62
     7
 10
111.0958373932
 20
174.9420412696
 30
0.0
  0
VERTEX
  5
1CB
  8
0
  6
CONTINUOUS
 62
     7
 10
111.512588366
 20
174.6233894993
 30
0.0
  0
VERTEX
  5
1CC
  8
0
  6
CONTINUOUS
 62
     7
 10
111.8880799957
 20
174.2921632881
 30
0.0
  0
VERTEX
  5
1CD
  8
0
  6
CONTINUOUS
 62
     7
 10
112.22080031
 20
173.9496963668
 30
0.0
  0
VERTEX
  5
1CE
  8
0
  6
CONTINUOUS
 62
     7
 10
112.5094095617
 20
173.5973677291
 30
0.0
  0
VERTEX
  5
1CF
  8
0
  6
CONTINUOUS
 62
     7
 10
112.7527456232
 20
173.2365960779
 30
0.0
  0
VERTEX
  5
1D0
  8
0
  6
CONTINUOUS
 62
     7
 10
112.949828666
 20
172.8688341133
 30
0.0
  0
VERTEX
  5
1D1
  8
0
  6
CONTINUOUS
 62
     7
 10
113.0998651064
 20
172.495562683
 30
0.0
  0
VERTEX
  5
1D2
  8
0
  6
CONTINUOUS
 62
     7
 10
113.2022508004
 20
172.1182848193
 30
0.0
  0
VERTEX
  5
1D3
  8
0
  6
CONTINUOUS
 62
     7
 10
113.256573477
 20
171.738519687
 30
0.0
  0
VERTEX
  5
1D4
  8
0
  6
CONTINUOUS
 62
     7
 10
113.2626143981
 20
171.3577964662
 30
0.0
  0
VERTEX
  5
1D5
  8
0
  6
CONTINUOUS
 62
     7
 10
113.2203492388
 20
170.977648195
 30
0.0
  0
VERTEX
  5
1D6
  8
0
  6
CONTINUOUS
 62
     7
 10
113.1299481862
 20
170.5996055963
 30
0.0
  0
VERTEX
  5
1D7
  8
0
  6
CONTINUOUS
 62
     7
 10
112.9917752534
 20
170.2251909142
 30
0.0
  0
VERTEX
  5
1D8
  8
0
  6
CONTINUOUS
 62
     7
 10
112.8063868139
 20
169.8559117845
 30
0.0
  0
VERTEX
  5
1D9
  8
0
  6
CONTINUOUS
 62
     7
 10
112.5745293617
 20
169.4932551638
 30
0.0
  0
VERTEX
  5
1DA
  8
0
  6
CONTINUOUS
 62
     7
 10
112.2971365047
 20
169.1386813425
 30
0.0
  0
VERTEX
  5
1DB
  8
0
  6
CONTINUOUS
 62
     7
 10
111.9753252062
 20
168.7936180642
 30
0.0
  0
VERTEX
  5
1DC
  8
0
  6
CONTINUOUS
 62
     7
 10
111.6103912867
 20
168.4594547768
 30
0.0
  0
VERTEX
  5
1DD
  8
0
  6
CONTINUOUS
 62
     7
 10
111.2038042063
 20
168.1375370381
 30
0.0
  0
VERTEX
  5
1DE
  8
0
  6
CONTINUOUS
 62
     7
 10
110.7572011476
 20
167.829161097
 30
0.0
  0
VERTEX
  5
1DF
  8
0
  6
CONTINUOUS
 62
     7
 10
110.2723804235
 20
167.5355686748
 30
0.0
  0
VERTEX
  5
1E0
  8
0
  6
CONTINUOUS
 62
     7
 10
109.751294236
 20
167.2579419644
 30
0.0
  0
SEQEND
  5
21D
  8
0
  6
CONTINUOUS
 62
     7
  0
POLYLINE
  5
51
  8
0
  6
CONTINUOUS
 62
     7
 66
     1
 10
0.0
 20
0.0
 30
0.0
  0
VERTEX
  5
1E1
  8
0
  6
CONTINUOUS
 62
     7
 10
104.1651506646
 20
170.0510137501
 30
0.0
  0
VERTEX
  5
1E2
  8
0
  6
CONTINUOUS
 62
     7
 10
103.8347038611
 20
169.9027852183
 30
0.0
  0
VERTEX
  5
1E3
  8
0
  6
CONTINUOUS
 62
     7
 10
103.4741415041
 20
169.7732894006
 30
0.0
  0
VERTEX
  5
1E4
  8
0
  6
CONTINUOUS
 62
     7
 10
103.0876908578
 20
169.6640445169
 30
0.0
  0
VERTEX
  5
1E5
  8
0
  6
CONTINUOUS
 62
     7
 10
102.6798827025
 20
169.5763313638
 30
0.0
  0
VERTEX
  5
1E6
  8
0
  6
CONTINUOUS
 62
     7
 10
102.2554982161
 20
169.5111782976
 30
0.0
  0
VERTEX
  5
1E7
  8
0
  6
CONTINUOUS
 62
     7
 10
101.8195129185
 20
169.4693491785
 30
0.0
  0
VERTEX
  5
1E8
  8
0
  6
CONTINUOUS
 62
     7
 10
101.3770383389
 20
169.4513344147
 30
0.0
  0
VERTEX
  5
1E9
  8
0
  6
CONTINUOUS
 62
     7
 10
100.9332620871
 20
169.4573452129
 30
0.0
  0
VERTEX
  5
1EA
  8
0
  6
CONTINUOUS
 62
     7
 10
100.4933870338
 20
169.4873111019
 30
0.0
  0
VERTEX
  5
1EB
  8
0
  6
CONTINUOUS
 62
     7
 10
100.062570312
 20
169.540880759
 30
0.0
  0
VERTEX
  5
1EC
  8
0
  6
CONTINUOUS
 62
     7
 10
99.6458628538
 20
169.6174261291
 30
0.0
  0
VERTEX
  5
1ED
  8
0
  6
CONTINUOUS
 62
     7
 10
99.248150173
 20
169.7160497876
 30
0.0
  0
VERTEX
  5
1EE
  8
0
  6
CONTINUOUS
 62
     7
 10
98.8740950874
 20
169.8355954623
 30
0.0
  0
VERTEX
  5
1EF
  8
0
  6
CONTINUOUS
 62
     7
 10
98.5280830507
 20
169.9746615895
 30
0.0
  0
VERTEX
  5
1F0
  8
0
  6
CONTINUOUS
 62
     7
 10
98.2141707377
 20
170.131617746
 30
0.0
  0
VERTEX
  5
1F1
  8
0
  6
CONTINUOUS
 62
     7
 10
97.9360384833
 20
170.3046237643
 30
0.0
  0
VERTEX
  5
1F2
  8
0
  6
CONTINUOUS
 62
     7
 10
97.6969471339
 20
170.4916513071
 30
0.0
  0
VERTEX
  5
1F3
  8
0
  6
CONTINUOUS
 62
     7
 10
97.4996998169
 20
170.6905076475
 30
0.0
  0
VERTEX
  5
1F4
  8
0
  6
CONTINUOUS
 62
     7
 10
97.3466090768
 20
170.8988613766
 30
0.0
  0
VERTEX
  5
1F5
  8
0
  6
CONTINUOUS
 62
     7
 10
97.2394697625
 20
171.1142697375
 30
0.0
  0
VERTEX
  5
1F6
  8
0
  6
CONTINUOUS
 62
     7
 10
97.1795379845
 20
171.3342072642
 30
0.0
  0
VERTEX
  5
1F7
  8
0
  6
CONTINUOUS
 62
     7
 10
97.1675163882
 20
171.5560953901
 30
0.0
  0
VERTEX
  5
1F8
  8
0
  6
CONTINUOUS
 62
     7
 10
97.2035459158
 20
171.7773326799
 30
0.0
  0
VERTEX
  5
1F9
  8
0
  6
CONTINUOUS
 62
     7
 10
97.2872041539
 20
171.9953253287
 30
0.0
  0
VERTEX
  5
1FA
  8
0
  6
CONTINUOUS
 62
     7
 10
97.4175102863
 20
172.2075175719
 30
0.0
  0
VERTEX
  5
1FB
  8
0
  6
CONTINUOUS
 62
     7
 10
97.5929365926
 20
172.4114216495
 30
0.0
  0
VERTEX
  5
1FC
  8
0
  6
CONTINUOUS
 62
     7
 10
97.8114263599
 20
172.6046469727
 30
0.0
  0
VERTEX
  5
1FD
  8
0
  6
CONTINUOUS
 62
     7
 10
98.0704179954
 20
172.7849281512
 30
0.0
  0
VERTEX
  5
1FE
  8
0
  6
CONTINUOUS
 62
     7
 10
98.3668750589
 20
172.9501515529
 30
0.0
  0
VERTEX
  5
1FF
  8
0
  6
CONTINUOUS
 62
     7
 10
98.6973218624
 20
173.0983800847
 30
0.0
  0
VERTEX
  5
200
  8
0
  6
CONTINUOUS
 62
     7
 10
99.0578842193
 20
173.2278759024
 30
0.0
  0
VERTEX
  5
201
  8
0
  6
CONTINUOUS
 62
     7
 10
99.4443348657
 20
173.3371207861
 30
0.0
  0
VERTEX
  5
202
  8
0
  6
CONTINUOUS
 62
     7
 10
99.852143021
 20
173.4248339392
 30
0.0
  0
VERTEX
  5
203
  8
0
  6
CONTINUOUS
 62
     7
 10
100.2765275074
 20
173.4899870054
 30
0.0
  0
VERTEX
  5
204
  8
0
  6
CONTINUOUS
 62
     7
 10
100.7125128049
 20
173.5318161245
 30
0.0
  0
VERTEX
  5
205
  8
0
  6
CONTINUOUS
 62
     7
 10
101.1549873846
 20
173.5498308883
 30
0.0
  0
VERTEX
  5
206
  8
0
  6
CONTINUOUS
 62
     7
 10
101.5987636364
 20
173.5438200901
 30
0.0
  0
VERTEX
  5
207
  8
0
  6
CONTINUOUS
 62
     7
 10
102.0386386896
 20
173.5138542011
 30
0.0
  0
VERTEX
  5
208
  8
0
  6
CONTINUOUS
 62
     7
 10
102.4694554115
 20
173.460284544
 30
0.0
  0
VERTEX
  5
209
  8
0
  6
CONTINUOUS
 62
     7
 10
102.8861628697
 20
173.3837391739
 30
0.0
  0
VERTEX
  5
20A
  8
0
  6
CONTINUOUS
 62
     7
 10
103.2838755504
 20
173.2851155154
 30
0.0
  0
VERTEX
  5
20B
  8
0
  6
CONTINUOUS
 62
     7
 10
103.6579306361
 20
173.1655698407
 30
0.0
  0
VERTEX
  5
20C
  8
0
  6
CONTINUOUS
 62
     7
 10
104.0039426728
 20
173.0265037135
 30
0.0
  0
VERTEX
  5
20D
  8
0
  6
CONTINUOUS
 62
     7
 10
104.3178549857
 20
172.869547557
 30
0.0
  0
VERTEX
  5
20E
  8
0
  6
CONTINUOUS
 62
     7
 10
104.5959872401
 20
172.6965415387
 30
0.0
  0
VERTEX
  5
20F
  8
0
  6
CONTINUOUS
 62
     7
 10
104.8350785896
 20
172.5095139958
 30
0.0
  0
VERTEX
  5
210
  8
0
  6
CONTINUOUS
 62
     7
 10
105.0323259066
 20
172.3106576555
 30
0.0
  0
VERTEX
  5
211
  8
0
  6
CONTINUOUS
 62
     7
 10
105.1854166467
 20
172.1023039264
 30
0.0
  0
VERTEX
  5
212
  8
0
  6
CONTINUOUS
 62
     7
 10
105.292555961
 20
171.8868955654
 30
0.0
  0
VERTEX
  5
213
  8
0
  6
CONTINUOUS
 62
     7
 10
105.3524877389
 20
171.6669580388
 30
0.0
  0
VERTEX
  5
214
  8
0
  6
CONTINUOUS
 62
     7
 10
105.3645093353
 20
171.4450699129
 30
0.0
  0
VERTEX
  5
215
  8
0
  6
CONTINUOUS
 62
     7
 10
105.3284798077
 20
171.2238326231
 30
0.0
  0
VERTEX
  5
216
  8
0
  6
CONTINUOUS
 62
     7
 10
105.2448215696
 20
171.0058399743
 30
0.0
  0
VERTEX
  5
217
  8
0
  6
CONTINUOUS
 62
     7
 10
105.1145154372
 20
170.7936477311
 30
0.0
  0
VERTEX
  5
218
  8
0
  6
CONTINUOUS
 62
     7
 10
104.9390891308
 20
170.5897436535
 30
0.0
  0
VERTEX
  5
219
  8
0
  6
CONTINUOUS
 62
     7
 10
104.7205993636
 20
170.3965183303
 30
0.0
  0
VERTEX
  5
21A
  8
0
  6
CONTINUOUS
 62
     7
 10
104.4616077281
 20
170.2162371518
 30
0.0
  0
VERTEX
  5
21B
  8
0
  6
CONTINUOUS
 62
     7
 10
104.1651506646
 20
170.0510137501
 30
0.0
  0
SEQEND
  5
21C
  8
0
  6
CONTINUOUS
 62
     7
  0
ARC
  5
52
  8
0
  6
CONTINUOUS
 62
     7
 10
103.3250793727
 20
168.4132640974
 30
0.0
 40
2.082000736792467
 50
58.8480637528
 51
149.6404043164
  0
TEXT
  5
53
  8
0
  6
CONTINUOUS
 62
     7
 10
0.0
 20
6.732893805
 30
0.0
 40
3.633
  1
Edition tudiante de SolidWorks.
 41
0.6671875
 11
0.0
 21
5.4495
 31
0.0
 73
     1
  0
TEXT
  5
54
  8
0
  6
CONTINUOUS
 62
     7
 10
0.0
 20
1.283393805
 30
0.0
 40
3.633
  1
A usage universitaire uniquement.
 41
0.6681818182
 11
0.0
 21
0.0
 31
0.0
 73
     1
  0
ENDSEC
  0
EOF
