  0
SECTION
  2
HEADER
  9
$ACADVER
  1
AC1009
  9
$DWGCODEPAGE
  3
ansi_1252
  9
$INSBASE
 10
0.0
 20
0.0
 30
0.0
  9
$EXTMIN
 10
0.0
 20
0.0
 30
0.0
  9
$EXTMAX
 10
210.0
 20
297.0
 30
0.0
  9
$LIMMIN
 10
0.0
 20
0.0
  9
$LIMMAX
 10
210.0
 20
297.0
  9
$ORTHOMODE
 70
     0
  9
$REGENMODE
 70
     1
  9
$FILLMODE
 70
     1
  9
$QTEXTMODE
 70
     0
  9
$MIRRTEXT
 70
     1
  9
$DRAGMODE
 70
     2
  9
$LTSCALE
 40
1.0
  9
$OSMODE
 70
    37
  9
$ATTMODE
 70
     1
  9
$TEXTSIZE
 40
3.5
  9
$TRACEWID
 40
1.0
  9
$TEXTSTYLE
  7
STANDARD
  9
$CLAYER
  8
0
  9
$CELTYPE
  6
BYLAYER
  9
$CECOLOR
 62
   256
  9
$DIMSCALE
 40
1.0
  9
$DIMASZ
 40
3.302
  9
$DIMEXO
 40
1.0
  9
$DIMDLI
 40
3.75
  9
$DIMRND
 40
0.0
  9
$DIMDLE
 40
0.0
  9
$DIMEXE
 40
1.0
  9
$DIMTP
 40
0.0
  9
$DIMTM
 40
0.0
  9
$DIMTXT
 40
3.5
  9
$DIMCEN
 40
2.5
  9
$DIMTSZ
 40
0.0
  9
$DIMTOL
 70
     0
  9
$DIMLIM
 70
     0
  9
$DIMTIH
 70
     1
  9
$DIMTOH
 70
     1
  9
$DIMSE1
 70
     0
  9
$DIMSE2
 70
     0
  9
$DIMTAD
 70
     1
  9
$DIMZIN
 70
     0
  9
$DIMBLK
  1

  9
$DIMASO
 70
     1
  9
$DIMSHO
 70
     1
  9
$DIMPOST
  1

  9
$DIMAPOST
  1

  9
$DIMALT
 70
     0
  9
$DIMALTD
 70
     3
  9
$DIMALTF
 40
0.0393700787
  9
$DIMLFAC
 40
1.0
  9
$DIMTOFL
 70
     1
  9
$DIMTVP
 40
0.0
  9
$DIMTIX
 70
     0
  9
$DIMSOXD
 70
     0
  9
$DIMSAH
 70
     0
  9
$DIMBLK1
  1

  9
$DIMBLK2
  1

  9
$DIMSTYLE
  2
ISO-25
  9
$DIMCLRD
 70
     0
  9
$DIMCLRE
 70
     0
  9
$DIMCLRT
 70
     0
  9
$DIMTFAC
 40
1.0
  9
$DIMGAP
 40
1.524
  9
$LUNITS
 70
     2
  9
$LUPREC
 70
     2
  9
$SKETCHINC
 40
1.0
  9
$FILLETRAD
 40
10.0
  9
$AUNITS
 70
     0
  9
$AUPREC
 70
     2
  9
$MENU
  1
.
  9
$ELEVATION
 40
0.0
  9
$PELEVATION
 40
0.0
  9
$THICKNESS
 40
0.0
  9
$LIMCHECK
 70
     0
  9
$CHAMFERA
 40
10.0
  9
$CHAMFERB
 40
10.0
  9
$SKPOLY
 70
     0
  9
$TDCREATE
 40
2456430.618841343
  9
$TDUPDATE
 40
2456430.618841343
  9
$TDINDWG
 40
0.0000000116
  9
$TDUSRTIMER
 40
0.0000000116
  9
$USRTIMER
 70
     1
  9
$ANGBASE
 50
0.0
  9
$ANGDIR
 70
     0
  9
$PDMODE
 70
     0
  9
$PDSIZE
 40
-1.0
  9
$PLINEWID
 40
0.0
  9
$COORDS
 70
     1
  9
$SPLFRAME
 70
     0
  9
$SPLINETYPE
 70
     6
  9
$SPLINESEGS
 70
     8
  9
$ATTDIA
 70
     0
  9
$ATTREQ
 70
     1
  9
$HANDLING
 70
     1
  9
$HANDSEED
  5
199
  9
$SURFTAB1
 70
     6
  9
$SURFTAB2
 70
     6
  9
$SURFTYPE
 70
     6
  9
$SURFU
 70
     6
  9
$SURFV
 70
     6
  9
$UCSNAME
  2

  9
$UCSORG
 10
0.0
 20
0.0
 30
0.0
  9
$UCSXDIR
 10
1.0
 20
0.0
 30
0.0
  9
$UCSYDIR
 10
0.0
 20
1.0
 30
0.0
  9
$PUCSNAME
  2

  9
$PUCSORG
 10
0.0
 20
0.0
 30
0.0
  9
$PUCSXDIR
 10
1.0
 20
0.0
 30
0.0
  9
$PUCSYDIR
 10
0.0
 20
1.0
 30
0.0
  9
$USERI1
 70
     0
  9
$USERI2
 70
     0
  9
$USERI3
 70
     0
  9
$USERI4
 70
     0
  9
$USERI5
 70
     0
  9
$USERR1
 40
0.0
  9
$USERR2
 40
0.0
  9
$USERR3
 40
0.0
  9
$USERR4
 40
0.0
  9
$USERR5
 40
0.0
  9
$WORLDVIEW
 70
     1
  9
$SHADEDGE
 70
     3
  9
$SHADEDIF
 70
    70
  9
$TILEMODE
 70
     1
  9
$MAXACTVP
 70
    64
  9
$PLIMCHECK
 70
     0
  9
$PEXTMIN
 10
1.0000000000E+20
 20
1.0000000000E+20
 30
1.0000000000E+20
  9
$PEXTMAX
 10
-1.0000000000E+20
 20
-1.0000000000E+20
 30
-1.0000000000E+20
  9
$PLIMMIN
 10
0.0
 20
0.0
  9
$PLIMMAX
 10
420.0
 20
297.0
  9
$UNITMODE
 70
     0
  9
$VISRETAIN
 70
     1
  9
$PLINEGEN
 70
     0
  9
$PSLTSCALE
 70
     1
  0
ENDSEC
  0
SECTION
  2
TABLES
  0
TABLE
  2
VPORT
 70
     1
  0
VPORT
  2
*ACTIVE
 70
     0
 10
0.0
 20
0.0
 11
1.0
 21
1.0
 12
105.0
 22
148.5
 13
0.0
 23
0.0
 14
10.0
 24
10.0
 15
10.0
 25
10.0
 16
0.0
 26
0.0
 36
1.0
 17
0.0
 27
0.0
 37
0.0
 40
297.0
 41
0.7070707071
 42
50.0
 43
0.0
 44
0.0
 50
0.0
 51
0.0
 71
     0
 72
  2000
 73
     1
 74
     3
 75
     0
 76
     0
 77
     0
 78
     0
  0
ENDTAB
  0
TABLE
  2
LTYPE
 70
     6
  0
LTYPE
  2
CONTINUOUS
 70
     0
  3
Solid line
 72
    65
 73
     0
 40
0.0
  0
LTYPE
  2
HIDDEN
 70
     0
  3
Hidden __ __ __ __ __ __ __ __ __ __ __ __ __ __
 72
    65
 73
     2
 40
1.905
 49
1.27
 49
-0.635
  0
LTYPE
  2
PHANTOM
 70
     0
  3
Phantom ______  __  __  ______  __  __  ______
 72
    65
 73
     6
 40
12.7
 49
6.35
 49
-1.27
 49
1.27
 49
-1.27
 49
1.27
 49
-1.27
  0
LTYPE
  2
CENTER
 70
     0
  3
Center ____ _ ____ _ ____ _ ____ _ ____ _ ____
 72
    65
 73
     4
 40
10.16
 49
6.35
 49
-1.27
 49
1.27
 49
-1.27
  0
LTYPE
  2
CENTERX2
 70
     0
  3
Center (2x) ________  __  ________  __  _____
 72
    65
 73
     4
 40
20.32
 49
12.7
 49
-2.54
 49
2.54
 49
-2.54
  0
LTYPE
  2
DOT2
 70
     0
  3
Dot (.5x) ........................................
 72
    65
 73
     2
 40
0.635
 49
0.0
 49
-0.635
  0
ENDTAB
  0
TABLE
  2
LAYER
 70
     1
  0
LAYER
  2
0
 70
     0
 62
     7
  6
CONTINUOUS
  0
ENDTAB
  0
TABLE
  2
STYLE
 70
     1
  0
STYLE
  2
STANDARD
 70
     0
 40
0.0
 41
1.0
 50
0.0
 71
     0
 42
3.5
  3
txt
  4

  0
ENDTAB
  0
TABLE
  2
VIEW
 70
     0
  0
ENDTAB
  0
TABLE
  2
UCS
 70
     0
  0
ENDTAB
  0
TABLE
  2
APPID
 70
     1
  0
APPID
  2
ACAD
 70
     0
  0
ENDTAB
  0
TABLE
  2
DIMSTYLE
 70
     1
  0
DIMSTYLE
  2
ISO-25
 70
     0
  3

  4

  5

  6

  7

 40
1.0
 41
2.5
 42
0.625
 43
3.75
 44
1.25
 45
0.0
 46
0.0
 47
0.0
 48
0.0
140
2.5
141
2.5
142
0.0
143
0.0393700787
144
1.0
145
0.0
146
1.0
147
0.625
 71
     0
 72
     0
 73
     0
 74
     0
 75
     0
 76
     0
 77
     1
 78
     8
170
     0
171
     3
172
     1
173
     0
174
     0
175
     0
176
     0
177
     0
178
     0
  0
ENDTAB
  0
ENDSEC
  0
SECTION
  2
BLOCKS
  0
BLOCK
  8
0
  2
$MODEL_SPACE
 70
     0
 10
0.0
 20
0.0
 30
0.0
  3
$MODEL_SPACE
  1

  0
ENDBLK
  5
21
  8
0
  0
BLOCK
 67
     1
  8
0
  2
$PAPER_SPACE
 70
     0
 10
0.0
 20
0.0
 30
0.0
  3
$PAPER_SPACE
  1

  0
ENDBLK
  5
1D
 67
     1
  8
0
  0
ENDSEC
  0
SECTION
  2
ENTITIES
  0
POLYLINE
  5
44
  8
0
  6
CONTINUOUS
 62
     7
 66
     1
 10
0.0
 20
0.0
 30
0.0
  0
VERTEX
  5
9C
  8
0
  6
CONTINUOUS
 62
     7
 10
96.3016470476
 20
166.8270696638
 30
0.0
  0
VERTEX
  5
9D
  8
0
  6
CONTINUOUS
 62
     7
 10
96.1743326366
 20
167.0563563144
 30
0.0
  0
VERTEX
  5
9E
  8
0
  6
CONTINUOUS
 62
     7
 10
95.9968842543
 20
167.2915317639
 30
0.0
  0
VERTEX
  5
9F
  8
0
  6
CONTINUOUS
 62
     7
 10
95.7783548151
 20
167.5141233789
 30
0.0
  0
VERTEX
  5
A0
  8
0
  6
CONTINUOUS
 62
     7
 10
95.5167083786
 20
167.723578797
 30
0.0
  0
VERTEX
  5
A1
  8
0
  6
CONTINUOUS
 62
     7
 10
95.2120067902
 20
167.9173569031
 30
0.0
  0
VERTEX
  5
A2
  8
0
  6
CONTINUOUS
 62
     7
 10
94.8685162004
 20
168.0915434998
 30
0.0
  0
VERTEX
  5
A3
  8
0
  6
CONTINUOUS
 62
     7
 10
94.4941218192
 20
168.2426529081
 30
0.0
  0
VERTEX
  5
A4
  8
0
  6
CONTINUOUS
 62
     7
 10
94.0963872965
 20
168.3692858204
 30
0.0
  0
VERTEX
  5
A5
  8
0
  6
CONTINUOUS
 62
     7
 10
93.6801151655
 20
168.4717188369
 30
0.0
  0
VERTEX
  5
A6
  8
0
  6
CONTINUOUS
 62
     7
 10
93.2491512334
 20
168.5504524626
 30
0.0
  0
VERTEX
  5
A7
  8
0
  6
CONTINUOUS
 62
     7
 10
92.8069984448
 20
168.6058981324
 30
0.0
  0
VERTEX
  5
A8
  8
0
  6
CONTINUOUS
 62
     7
 10
92.3571257471
 20
168.6383343198
 30
0.0
  0
VERTEX
  5
A9
  8
0
  6
CONTINUOUS
 62
     7
 10
91.9030685145
 20
168.6479460927
 30
0.0
  0
VERTEX
  5
AA
  8
0
  6
CONTINUOUS
 62
     7
 10
91.4484272426
 20
168.6348691941
 30
0.0
  0
VERTEX
  5
AB
  8
0
  6
CONTINUOUS
 62
     7
 10
90.9968609035
 20
168.5992179594
 30
0.0
  0
VERTEX
  5
AC
  8
0
  6
CONTINUOUS
 62
     7
 10
90.5521926842
 20
168.5411186721
 30
0.0
  0
VERTEX
  5
AD
  8
0
  6
CONTINUOUS
 62
     7
 10
90.1178801236
 20
168.4606357288
 30
0.0
  0
VERTEX
  5
AE
  8
0
  6
CONTINUOUS
 62
     7
 10
89.6972109138
 20
168.3577048743
 30
0.0
  0
VERTEX
  5
AF
  8
0
  6
CONTINUOUS
 62
     7
 10
89.2932680914
 20
168.2320214229
 30
0.0
  0
VERTEX
  5
B0
  8
0
  6
CONTINUOUS
 62
     7
 10
88.908958379
 20
168.0828808559
 30
0.0
  0
VERTEX
  5
B1
  8
0
  6
CONTINUOUS
 62
     7
 10
88.5471886624
 20
167.9089970254
 30
0.0
  0
VERTEX
  5
B2
  8
0
  6
CONTINUOUS
 62
     7
 10
88.2113579943
 20
167.7084313731
 30
0.0
  0
VERTEX
  5
B3
  8
0
  6
CONTINUOUS
 62
     7
 10
87.9063832909
 20
167.4790614234
 30
0.0
  0
VERTEX
  5
B4
  8
0
  6
CONTINUOUS
 62
     7
 10
87.6680208738
 20
167.2511736549
 30
0.0
  0
VERTEX
  5
B5
  8
0
  6
CONTINUOUS
 62
     7
 10
87.4731364417
 20
167.0113351529
 30
0.0
  0
VERTEX
  5
B6
  8
0
  6
CONTINUOUS
 62
     7
 10
87.3214067482
 20
166.7620457986
 30
0.0
  0
VERTEX
  5
B7
  8
0
  6
CONTINUOUS
 62
     7
 10
87.2649278952
 20
166.6295653544
 30
0.0
  0
SEQEND
  5
198
  8
0
  6
CONTINUOUS
 62
     7
  0
ARC
  5
45
  8
0
  6
CONTINUOUS
 62
     7
 10
89.4405112816
 20
166.415780761
 30
0.0
 40
2.27752142483315
 50
185.7193309883
 51
249.6579533371
  0
ARC
  5
46
  8
0
  6
CONTINUOUS
 62
     7
 10
93.6652597346
 20
166.7655210026
 30
0.0
 40
2.766506456557984
 50
279.0930158922
 51
352.1096299418
  0
ARC
  5
47
  8
0
  6
CONTINUOUS
 62
     7
 10
90.5296047492
 20
168.0513688502
 30
0.0
 40
4.214075160135409
 50
243.4923568788
 51
253.730085053
  0
LINE
  5
48
  8
0
  6
CONTINUOUS
 62
     7
 10
96.0802834177
 20
157.6451470792
 30
0.0
 11
95.9669695333
 21
165.1848004598
 31
0.0
  0
LINE
  5
49
  8
0
  6
CONTINUOUS
 62
     7
 10
87.6745949297
 20
164.9983667574
 30
0.0
 11
87.9307349366
 21
157.44985492
 31
0.0
  0
ARC
  5
4A
  8
0
  6
CONTINUOUS
 62
     7
 10
82.349724933
 20
160.6996515911
 30
0.0
 40
2.447316800257345
 50
106.7702234515
 51
176.3659909273
  0
LINE
  5
4B
  8
0
  6
CONTINUOUS
 62
     7
 10
79.9040963901
 20
160.8558658743
 30
0.0
 11
80.8286333574
 21
143.121480981
 31
0.0
  0
LINE
  5
4C
  8
0
  6
CONTINUOUS
 62
     7
 10
84.2326238134
 20
164.1797731615
 30
0.0
 11
81.6435902397
 21
163.0428829744
 31
0.0
  0
LINE
  5
4D
  8
0
  6
CONTINUOUS
 62
     7
 10
104.0297781441
 20
162.375187973
 30
0.0
 11
95.9979022144
 21
163.1266087892
 31
0.0
  0
LINE
  5
4E
  8
0
  6
CONTINUOUS
 62
     7
 10
87.7118037468
 20
163.9018133527
 30
0.0
 11
84.419133508
 21
164.209858569
 31
0.0
  0
ARC
  5
4F
  8
0
  6
CONTINUOUS
 62
     7
 10
124.9680787751
 20
151.6302563293
 30
0.0
 40
0.8455761639389514
 50
356.9408839848
 51
64.8558290421
  0
LINE
  5
50
  8
0
  6
CONTINUOUS
 62
     7
 10
125.4469417339
 20
144.8967620708
 30
0.0
 11
125.8124499969
 21
151.5851310722
 31
0.0
  0
LINE
  5
51
  8
0
  6
CONTINUOUS
 62
     7
 10
125.3273619102
 20
152.3957069664
 30
0.0
 11
104.2917805985
 21
162.3035966557
 31
0.0
  0
LINE
  5
52
  8
0
  6
CONTINUOUS
 62
     7
 10
73.8471316558
 20
143.2332196751
 30
0.0
 11
73.9443687199
 21
141.821092549
 31
0.0
  0
LINE
  5
53
  8
0
  6
CONTINUOUS
 62
     7
 10
130.8916569898
 20
143.4224063487
 30
0.0
 11
130.9869048255
 21
144.8253639586
 31
0.0
  0
ARC
  5
54
  8
0
  6
CONTINUOUS
 62
     7
 10
103.956480463
 20
161.5917204266
 30
0.0
 40
0.7868887763754089
 50
64.7791407473
 51
84.6552233256
  0
ARC
  5
55
  8
0
  6
CONTINUOUS
 62
     7
 10
100.9018949345
 20
157.8678613174
 30
0.0
 40
6.406207240029509
 50
245.4604541874
 51
294.5395458126
  0
ARC
  5
56
  8
0
  6
CONTINUOUS
 62
     7
 10
102.8614150398
 20
150.8665419055
 30
0.0
 40
1.367208303690898
 50
1.0411308344
 51
59.1490350941
  0
ARC
  5
57
  8
0
  6
CONTINUOUS
 62
     7
 10
100.9011843639
 20
158.0835678996
 30
0.0
 40
7.924509640182736
 50
245.1740227557
 51
294.8259772443
  0
ARC
  5
58
  8
0
  6
CONTINUOUS
 62
     7
 10
98.9252859182
 20
150.8747754174
 30
0.0
 40
1.35141688526499
 50
120.4079688327
 51
179.2958184292
  0
ARC
  5
59
  8
0
  6
CONTINUOUS
 62
     7
 10
100.9737841962
 20
138.4033946045
 30
0.0
 40
6.832585359848083
 50
242.2437209406
 51
297.7562790594
  0
LINE
  5
5A
  8
0
  6
CONTINUOUS
 62
     7
 10
97.5739710982
 20
150.8913843006
 30
0.0
 11
97.7917705951
 21
132.3569897105
 31
0.0
  0
LINE
  5
5B
  8
0
  6
CONTINUOUS
 62
     7
 10
104.2283976297
 20
150.8913843006
 30
0.0
 11
104.1557977973
 21
132.3569897105
 31
0.0
  0
LINE
  5
5C
  8
0
  6
CONTINUOUS
 62
     7
 10
96.0684606715
 20
158.4318062682
 30
0.0
 11
106.1894153143
 21
153.3840891836
 31
0.0
  0
LINE
  5
5D
  8
0
  6
CONTINUOUS
 62
     7
 10
103.5625286341
 20
152.0402958292
 30
0.0
 11
106.1894153143
 21
153.3840891836
 31
0.0
  0
LINE
  5
5E
  8
0
  6
CONTINUOUS
 62
     7
 10
91.419809142
 20
155.5710697511
 30
0.0
 11
98.2412612349
 21
152.0402958292
 31
0.0
  0
POLYLINE
  5
5F
  8
0
  6
CONTINUOUS
 62
     7
 66
     1
 10
0.0
 20
0.0
 30
0.0
  0
VERTEX
  5
B8
  8
0
  6
CONTINUOUS
 62
     7
 10
91.419809142
 20
155.5710697511
 30
0.0
  0
VERTEX
  5
B9
  8
0
  6
CONTINUOUS
 62
     7
 10
91.9023742136
 20
155.5597332131
 30
0.0
  0
VERTEX
  5
BA
  8
0
  6
CONTINUOUS
 62
     7
 10
92.386383361
 20
155.5766013013
 30
0.0
  0
VERTEX
  5
BB
  8
0
  6
CONTINUOUS
 62
     7
 10
92.8649072067
 20
155.6214225483
 30
0.0
  0
VERTEX
  5
BC
  8
0
  6
CONTINUOUS
 62
     7
 10
93.3311068981
 20
155.6935295954
 30
0.0
  0
VERTEX
  5
BD
  8
0
  6
CONTINUOUS
 62
     7
 10
93.778343225
 20
155.7918513494
 30
0.0
  0
VERTEX
  5
BE
  8
0
  6
CONTINUOUS
 62
     7
 10
94.2002812003
 20
155.9149323475
 30
0.0
  0
VERTEX
  5
BF
  8
0
  6
CONTINUOUS
 62
     7
 10
94.5909878901
 20
156.0609587815
 30
0.0
  0
VERTEX
  5
C0
  8
0
  6
CONTINUOUS
 62
     7
 10
94.9450215342
 20
156.2277904615
 30
0.0
  0
VERTEX
  5
C1
  8
0
  6
CONTINUOUS
 62
     7
 10
95.2575103171
 20
156.4129978587
 30
0.0
  0
VERTEX
  5
C2
  8
0
  6
CONTINUOUS
 62
     7
 10
95.524219512
 20
156.6139032696
 30
0.0
  0
VERTEX
  5
C3
  8
0
  6
CONTINUOUS
 62
     7
 10
95.7416061106
 20
156.8276250854
 30
0.0
  0
VERTEX
  5
C4
  8
0
  6
CONTINUOUS
 62
     7
 10
95.9068604414
 20
157.051124134
 30
0.0
  0
VERTEX
  5
C5
  8
0
  6
CONTINUOUS
 62
     7
 10
96.0179346568
 20
157.2812510864
 30
0.0
  0
VERTEX
  5
C6
  8
0
  6
CONTINUOUS
 62
     7
 10
96.0735583151
 20
157.5147939744
 30
0.0
  0
VERTEX
  5
C7
  8
0
  6
CONTINUOUS
 62
     7
 10
96.0802834177
 20
157.6451470792
 30
0.0
  0
SEQEND
  5
197
  8
0
  6
CONTINUOUS
 62
     7
  0
POLYLINE
  5
60
  8
0
  6
CONTINUOUS
 62
     7
 66
     1
 10
0.0
 20
0.0
 30
0.0
  0
VERTEX
  5
C8
  8
0
  6
CONTINUOUS
 62
     7
 10
94.5153019643
 20
168.0564749011
 30
0.0
  0
VERTEX
  5
C9
  8
0
  6
CONTINUOUS
 62
     7
 10
94.1937260903
 20
168.1893569995
 30
0.0
  0
VERTEX
  5
CA
  8
0
  6
CONTINUOUS
 62
     7
 10
93.8392653498
 20
168.3033893956
 30
0.0
  0
VERTEX
  5
CB
  8
0
  6
CONTINUOUS
 62
     7
 10
93.4568170577
 20
168.3970738969
 30
0.0
  0
VERTEX
  5
CC
  8
0
  6
CONTINUOUS
 62
     7
 10
93.0516209716
 20
168.4691857438
 30
0.0
  0
VERTEX
  5
CD
  8
0
  6
CONTINUOUS
 62
     7
 10
92.6291929174
 20
168.5187859416
 30
0.0
  0
VERTEX
  5
CE
  8
0
  6
CONTINUOUS
 62
     7
 10
92.195256816
 20
168.5452305141
 30
0.0
  0
VERTEX
  5
CF
  8
0
  6
CONTINUOUS
 62
     7
 10
91.7556755587
 20
168.5481767506
 30
0.0
  0
VERTEX
  5
D0
  8
0
  6
CONTINUOUS
 62
     7
 10
91.3163811096
 20
168.527586496
 30
0.0
  0
VERTEX
  5
D1
  8
0
  6
CONTINUOUS
 62
     7
 10
90.8833041697
 20
168.4837265161
 30
0.0
  0
VERTEX
  5
D2
  8
0
  6
CONTINUOUS
 62
     7
 10
90.4623037185
 20
168.41716594
 30
0.0
  0
VERTEX
  5
D3
  8
0
  6
CONTINUOUS
 62
     7
 10
90.0590967554
 20
168.328770757
 30
0.0
  0
VERTEX
  5
D4
  8
0
  6
CONTINUOUS
 62
     7
 10
89.6791885991
 20
168.2196953199
 30
0.0
  0
VERTEX
  5
D5
  8
0
  6
CONTINUOUS
 62
     7
 10
89.3278041636
 20
168.0913707902
 30
0.0
  0
VERTEX
  5
D6
  8
0
  6
CONTINUOUS
 62
     7
 10
89.0098207081
 20
167.9454904492
 30
0.0
  0
VERTEX
  5
D7
  8
0
  6
CONTINUOUS
 62
     7
 10
88.7297026617
 20
167.7839918043
 30
0.0
  0
VERTEX
  5
D8
  8
0
  6
CONTINUOUS
 62
     7
 10
88.4914392287
 20
167.609035433
 30
0.0
  0
VERTEX
  5
D9
  8
0
  6
CONTINUOUS
 62
     7
 10
88.2984855999
 20
167.4229805407
 30
0.0
  0
VERTEX
  5
DA
  8
0
  6
CONTINUOUS
 62
     7
 10
88.1537087006
 20
167.2283572552
 30
0.0
  0
VERTEX
  5
DB
  8
0
  6
CONTINUOUS
 62
     7
 10
88.0593385072
 20
167.0278357451
 30
0.0
  0
VERTEX
  5
DC
  8
0
  6
CONTINUOUS
 62
     7
 10
88.0169260337
 20
166.8241923287
 30
0.0
  0
VERTEX
  5
DD
  8
0
  6
CONTINUOUS
 62
     7
 10
88.0273091348
 20
166.6202728325
 30
0.0
  0
VERTEX
  5
DE
  8
0
  6
CONTINUOUS
 62
     7
 10
88.0905872688
 20
166.4189535625
 30
0.0
  0
VERTEX
  5
DF
  8
0
  6
CONTINUOUS
 62
     7
 10
88.2061063158
 20
166.2231003595
 30
0.0
  0
VERTEX
  5
E0
  8
0
  6
CONTINUOUS
 62
     7
 10
88.3724544426
 20
166.0355263199
 30
0.0
  0
VERTEX
  5
E1
  8
0
  6
CONTINUOUS
 62
     7
 10
88.5874698424
 20
165.8589488668
 30
0.0
  0
VERTEX
  5
E2
  8
0
  6
CONTINUOUS
 62
     7
 10
88.8482609594
 20
165.6959469514
 30
0.0
  0
VERTEX
  5
E3
  8
0
  6
CONTINUOUS
 62
     7
 10
89.151239533
 20
165.5489192353
 30
0.0
  0
VERTEX
  5
E4
  8
0
  6
CONTINUOUS
 62
     7
 10
89.4921664769
 20
165.4200441567
 30
0.0
  0
VERTEX
  5
E5
  8
0
  6
CONTINUOUS
 62
     7
 10
89.8662102578
 20
165.3112428
 30
0.0
  0
VERTEX
  5
E6
  8
0
  6
CONTINUOUS
 62
     7
 10
90.2680170579
 20
165.224145475
 30
0.0
  0
VERTEX
  5
E7
  8
0
  6
CONTINUOUS
 62
     7
 10
90.6917916379
 20
165.1600628605
 30
0.0
  0
VERTEX
  5
E8
  8
0
  6
CONTINUOUS
 62
     7
 10
91.131387452
 20
165.1199624765
 30
0.0
  0
VERTEX
  5
E9
  8
0
  6
CONTINUOUS
 62
     7
 10
91.5804042477
 20
165.1044511304
 30
0.0
  0
VERTEX
  5
EA
  8
0
  6
CONTINUOUS
 62
     7
 10
92.0322911161
 20
165.1137638264
 30
0.0
  0
VERTEX
  5
EB
  8
0
  6
CONTINUOUS
 62
     7
 10
92.4804527564
 20
165.1477594537
 30
0.0
  0
VERTEX
  5
EC
  8
0
  6
CONTINUOUS
 62
     7
 10
92.9183566083
 20
165.205923377
 30
0.0
  0
VERTEX
  5
ED
  8
0
  6
CONTINUOUS
 62
     7
 10
93.3396384728
 20
165.2873768541
 30
0.0
  0
VERTEX
  5
EE
  8
0
  6
CONTINUOUS
 62
     7
 10
93.7382043081
 20
165.3908930135
 30
0.0
  0
VERTEX
  5
EF
  8
0
  6
CONTINUOUS
 62
     7
 10
94.1083260332
 20
165.5149189439
 30
0.0
  0
VERTEX
  5
F0
  8
0
  6
CONTINUOUS
 62
     7
 10
94.4447294008
 20
165.6576032854
 30
0.0
  0
VERTEX
  5
F1
  8
0
  6
CONTINUOUS
 62
     7
 10
94.7426722838
 20
165.8168285872
 30
0.0
  0
VERTEX
  5
F2
  8
0
  6
CONTINUOUS
 62
     7
 10
94.9980120618
 20
165.9902475934
 30
0.0
  0
VERTEX
  5
F3
  8
0
  6
CONTINUOUS
 62
     7
 10
95.2072611515
 20
166.1753225628
 30
0.0
  0
VERTEX
  5
F4
  8
0
  6
CONTINUOUS
 62
     7
 10
95.3676301003
 20
166.3693667009
 30
0.0
  0
VERTEX
  5
F5
  8
0
  6
CONTINUOUS
 62
     7
 10
95.477058023
 20
166.5695867965
 30
0.0
  0
VERTEX
  5
F6
  8
0
  6
CONTINUOUS
 62
     7
 10
95.5342304972
 20
166.7731261933
 30
0.0
  0
VERTEX
  5
F7
  8
0
  6
CONTINUOUS
 62
     7
 10
95.5385853336
 20
166.9771073001
 30
0.0
  0
VERTEX
  5
F8
  8
0
  6
CONTINUOUS
 62
     7
 10
95.4903068808
 20
167.1786729277
 30
0.0
  0
VERTEX
  5
F9
  8
0
  6
CONTINUOUS
 62
     7
 10
95.3903097218
 20
167.3750258456
 30
0.0
  0
VERTEX
  5
FA
  8
0
  6
CONTINUOUS
 62
     7
 10
95.2402127547
 20
167.5634660577
 30
0.0
  0
VERTEX
  5
FB
  8
0
  6
CONTINUOUS
 62
     7
 10
95.0423047284
 20
167.7414254098
 30
0.0
  0
VERTEX
  5
FC
  8
0
  6
CONTINUOUS
 62
     7
 10
94.7995023381
 20
167.9064992423
 30
0.0
  0
VERTEX
  5
FD
  8
0
  6
CONTINUOUS
 62
     7
 10
94.5153019643
 20
168.0564749011
 30
0.0
  0
SEQEND
  5
196
  8
0
  6
CONTINUOUS
 62
     7
  0
POLYLINE
  5
61
  8
0
  6
CONTINUOUS
 62
     7
 66
     1
 10
0.0
 20
0.0
 30
0.0
  0
VERTEX
  5
FE
  8
0
  6
CONTINUOUS
 62
     7
 10
88.3672519226
 20
164.8105933306
 30
0.0
  0
VERTEX
  5
FF
  8
0
  6
CONTINUOUS
 62
     7
 10
88.7208160689
 20
164.6558908017
 30
0.0
  0
VERTEX
  5
100
  8
0
  6
CONTINUOUS
 62
     7
 10
89.1104465833
 20
164.5200638179
 30
0.0
  0
VERTEX
  5
101
  8
0
  6
CONTINUOUS
 62
     7
 10
89.5316571486
 20
164.4047723571
 30
0.0
  0
VERTEX
  5
102
  8
0
  6
CONTINUOUS
 62
     7
 10
89.9795480323
 20
164.3114330856
 30
0.0
  0
VERTEX
  5
103
  8
0
  6
CONTINUOUS
 62
     7
 10
90.4488673297
 20
164.2411980878
 30
0.0
  0
VERTEX
  5
104
  8
0
  6
CONTINUOUS
 62
     7
 10
90.9340786118
 20
164.1949373212
 30
0.0
  0
VERTEX
  5
105
  8
0
  6
CONTINUOUS
 62
     7
 10
91.4294338314
 20
164.1732252202
 30
0.0
  0
VERTEX
  5
106
  8
0
  6
CONTINUOUS
 62
     7
 10
91.9290501713
 20
164.1763317833
 30
0.0
  0
VERTEX
  5
107
  8
0
  6
CONTINUOUS
 62
     7
 10
92.4269893925
 20
164.2042183637
 30
0.0
  0
VERTEX
  5
108
  8
0
  6
CONTINUOUS
 62
     7
 10
92.9173381589
 20
164.2565382731
 30
0.0
  0
VERTEX
  5
109
  8
0
  6
CONTINUOUS
 62
     7
 10
93.3942877868
 20
164.3326421805
 30
0.0
  0
VERTEX
  5
10A
  8
0
  6
CONTINUOUS
 62
     7
 10
93.8522118874
 20
164.4315881726
 30
0.0
  0
VERTEX
  5
10B
  8
0
  6
CONTINUOUS
 62
     7
 10
94.2857404484
 20
164.5521562212
 30
0.0
  0
VERTEX
  5
10C
  8
0
  6
CONTINUOUS
 62
     7
 10
94.6898290177
 20
164.6928667029
 30
0.0
  0
VERTEX
  5
10D
  8
0
  6
CONTINUOUS
 62
     7
 10
95.0598218152
 20
164.8520025252
 30
0.0
  0
VERTEX
  5
10E
  8
0
  6
CONTINUOUS
 62
     7
 10
95.3915077938
 20
165.0276343417
 30
0.0
  0
VERTEX
  5
10F
  8
0
  6
CONTINUOUS
 62
     7
 10
95.6811688824
 20
165.217648289
 30
0.0
  0
VERTEX
  5
110
  8
0
  6
CONTINUOUS
 62
     7
 10
95.9256198784
 20
165.4197756478
 30
0.0
  0
VERTEX
  5
111
  8
0
  6
CONTINUOUS
 62
     7
 10
96.1222396797
 20
165.6316238231
 30
0.0
  0
VERTEX
  5
112
  8
0
  6
CONTINUOUS
 62
     7
 10
96.268993775
 20
165.8507080516
 30
0.0
  0
VERTEX
  5
113
  8
0
  6
CONTINUOUS
 62
     7
 10
96.3644481126
 20
166.0744832709
 30
0.0
  0
VERTEX
  5
114
  8
0
  6
CONTINUOUS
 62
     7
 10
96.4077746504
 20
166.3003756347
 30
0.0
  0
VERTEX
  5
115
  8
0
  6
CONTINUOUS
 62
     7
 10
96.3987490445
 20
166.5258132108
 30
0.0
  0
VERTEX
  5
116
  8
0
  6
CONTINUOUS
 62
     7
 10
96.3377410527
 20
166.7482554665
 30
0.0
  0
VERTEX
  5
117
  8
0
  6
CONTINUOUS
 62
     7
 10
96.3051947909
 20
166.8229989063
 30
0.0
  0
SEQEND
  5
195
  8
0
  6
CONTINUOUS
 62
     7
  0
POLYLINE
  5
62
  8
0
  6
CONTINUOUS
 62
     7
 66
     1
 10
0.0
 20
0.0
 30
0.0
  0
VERTEX
  5
118
  8
0
  6
CONTINUOUS
 62
     7
 10
87.2572204186
 20
166.6244642204
 30
0.0
  0
VERTEX
  5
119
  8
0
  6
CONTINUOUS
 62
     7
 10
87.2041303663
 20
166.4696361938
 30
0.0
  0
VERTEX
  5
11A
  8
0
  6
CONTINUOUS
 62
     7
 10
87.1711594965
 20
166.2438450288
 30
0.0
  0
VERTEX
  5
11B
  8
0
  6
CONTINUOUS
 62
     7
 10
87.1905714345
 20
166.0182402432
 30
0.0
  0
VERTEX
  5
11C
  8
0
  6
CONTINUOUS
 62
     7
 10
87.2624137822
 20
165.7953970655
 30
0.0
  0
VERTEX
  5
11D
  8
0
  6
CONTINUOUS
 62
     7
 10
87.3861282302
 20
165.5778850631
 30
0.0
  0
VERTEX
  5
11E
  8
0
  6
CONTINUOUS
 62
     7
 10
87.5605450882
 20
165.3682372003
 30
0.0
  0
VERTEX
  5
11F
  8
0
  6
CONTINUOUS
 62
     7
 10
87.7838856882
 20
165.1689181893
 30
0.0
  0
VERTEX
  5
120
  8
0
  6
CONTINUOUS
 62
     7
 10
88.0537731594
 20
164.9822926098
 30
0.0
  0
VERTEX
  5
121
  8
0
  6
CONTINUOUS
 62
     7
 10
88.3672519226
 20
164.8105933306
 30
0.0
  0
SEQEND
  5
194
  8
0
  6
CONTINUOUS
 62
     7
  0
ARC
  5
63
  8
0
  6
CONTINUOUS
 62
     7
 10
91.6759834409
 20
171.9003567572
 30
0.0
 40
8.232669372014335
 50
253.8858922735
 51
287.0188810439
  0
ARC
  5
64
  8
0
  6
CONTINUOUS
 62
     7
 10
95.0907330393
 20
160.7219670755
 30
0.0
 40
7.617313954783719
 50
216.8009443951
 51
235.4051714108
  0
LINE
  5
65
  8
0
  6
CONTINUOUS
 62
     7
 10
97.5739710982
 20
150.8913843006
 30
0.0
 11
90.7658549002
 21
154.4514885478
 31
0.0
  0
LINE
  5
66
  8
0
  6
CONTINUOUS
 62
     7
 10
81.8542017205
 20
141.7358555017
 30
0.0
 11
97.7917705951
 21
132.3569897105
 31
0.0
  0
LINE
  5
67
  8
0
  6
CONTINUOUS
 62
     7
 10
80.9650521815
 20
159.5765302435
 30
0.0
 11
81.8542017205
 21
141.7358555017
 31
0.0
  0
LINE
  5
68
  8
0
  6
CONTINUOUS
 62
     7
 10
87.2891591533
 20
156.2695243942
 30
0.0
 11
80.9650521815
 21
159.5765302435
 31
0.0
  0
ARC
  5
69
  8
0
  6
CONTINUOUS
 62
     7
 10
88.3067240003
 20
158.77584637
 30
0.0
 40
2.705011656912695
 50
247.9028843482
 51
284.6615460407
  0
ARC
  5
6A
  8
0
  6
CONTINUOUS
 62
     7
 10
105.5600147616
 20
152.3966884205
 30
0.0
 40
1.170942066298797
 50
349.0176197999
 51
57.4852717205
  0
LINE
  5
6B
  8
0
  6
CONTINUOUS
 62
     7
 10
106.7095119786
 20
152.173615628
 30
0.0
 11
104.2283976297
 21
150.8913843006
 31
0.0
  0
ARC
  5
6C
  8
0
  6
CONTINUOUS
 62
     7
 10
92.0425067869
 20
154.4565682989
 30
0.0
 40
1.276661992791482
 50
119.1930985915
 51
180.2279766064
  0
POLYLINE
  5
6D
  8
0
  6
CONTINUOUS
 62
     7
 66
     1
 10
0.0
 20
0.0
 30
0.0
  0
VERTEX
  5
122
  8
0
  6
CONTINUOUS
 62
     7
 10
93.801575138
 20
167.74151363
 30
0.0
  0
VERTEX
  5
123
  8
0
  6
CONTINUOUS
 62
     7
 10
94.045001221
 20
167.6094922768
 30
0.0
  0
VERTEX
  5
124
  8
0
  6
CONTINUOUS
 62
     7
 10
94.2450843288
 20
167.4624686537
 30
0.0
  0
VERTEX
  5
125
  8
0
  6
CONTINUOUS
 62
     7
 10
94.3978383246
 20
167.3032138321
 30
0.0
  0
VERTEX
  5
126
  8
0
  6
CONTINUOUS
 62
     7
 10
94.5001480752
 20
167.1347508389
 30
0.0
  0
VERTEX
  5
127
  8
0
  6
CONTINUOUS
 62
     7
 10
94.5498407033
 20
166.9603017999
 30
0.0
  0
VERTEX
  5
128
  8
0
  6
CONTINUOUS
 62
     7
 10
94.5457416405
 20
166.7832297361
 30
0.0
  0
VERTEX
  5
129
  8
0
  6
CONTINUOUS
 62
     7
 10
94.4877133782
 20
166.6069757788
 30
0.0
  0
VERTEX
  5
12A
  8
0
  6
CONTINUOUS
 62
     7
 10
94.376674962
 20
166.4349927887
 30
0.0
  0
VERTEX
  5
12B
  8
0
  6
CONTINUOUS
 62
     7
 10
94.2146005522
 20
166.2706765972
 30
0.0
  0
VERTEX
  5
12C
  8
0
  6
CONTINUOUS
 62
     7
 10
94.0044957788
 20
166.1172962946
 30
0.0
  0
VERTEX
  5
12D
  8
0
  6
CONTINUOUS
 62
     7
 10
93.7503511587
 20
165.9779251816
 30
0.0
  0
VERTEX
  5
12E
  8
0
  6
CONTINUOUS
 62
     7
 10
93.4570724931
 20
165.8553741333
 30
0.0
  0
VERTEX
  5
12F
  8
0
  6
CONTINUOUS
 62
     7
 10
93.1303889026
 20
165.752129202
 30
0.0
  0
VERTEX
  5
130
  8
0
  6
CONTINUOUS
 62
     7
 10
92.776739956
 20
165.6702952826
 30
0.0
  0
VERTEX
  5
131
  8
0
  6
CONTINUOUS
 62
     7
 10
92.4031441496
 20
165.611547576
 30
0.0
  0
VERTEX
  5
132
  8
0
  6
CONTINUOUS
 62
     7
 10
92.0170517569
 20
165.5770924153
 30
0.0
  0
VERTEX
  5
133
  8
0
  6
CONTINUOUS
 62
     7
 10
91.6261857444
 20
165.5676387564
 30
0.0
  0
VERTEX
  5
134
  8
0
  6
CONTINUOUS
 62
     7
 10
91.2383749779
 20
165.5833813071
 30
0.0
  0
VERTEX
  5
135
  8
0
  6
CONTINUOUS
 62
     7
 10
90.8613843066
 20
165.6239958783
 30
0.0
  0
VERTEX
  5
136
  8
0
  6
CONTINUOUS
 62
     7
 10
90.5027462603
 20
165.6886471202
 30
0.0
  0
VERTEX
  5
137
  8
0
  6
CONTINUOUS
 62
     7
 10
90.1695990359
 20
165.7760083742
 30
0.0
  0
VERTEX
  5
138
  8
0
  6
CONTINUOUS
 62
     7
 10
89.868535174
 20
165.8842929528
 30
0.0
  0
VERTEX
  5
139
  8
0
  6
CONTINUOUS
 62
     7
 10
89.605464858
 20
166.0112957889
 30
0.0
  0
VERTEX
  5
13A
  8
0
  6
CONTINUOUS
 62
     7
 10
89.3854971473
 20
166.1544440753
 30
0.0
  0
VERTEX
  5
13B
  8
0
  6
CONTINUOUS
 62
     7
 10
89.2128417144
 20
166.3108552838
 30
0.0
  0
VERTEX
  5
13C
  8
0
  6
CONTINUOUS
 62
     7
 10
89.0907328525
 20
166.4774007941
 30
0.0
  0
VERTEX
  5
13D
  8
0
  6
CONTINUOUS
 62
     7
 10
89.021376706
 20
166.6507733023
 30
0.0
  0
VERTEX
  5
13E
  8
0
  6
CONTINUOUS
 62
     7
 10
89.0059218908
 20
166.8275561953
 30
0.0
  0
VERTEX
  5
13F
  8
0
  6
CONTINUOUS
 62
     7
 10
89.0444529664
 20
167.0042931684
 30
0.0
  0
VERTEX
  5
140
  8
0
  6
CONTINUOUS
 62
     7
 10
89.1360056221
 20
167.1775565164
 30
0.0
  0
VERTEX
  5
141
  8
0
  6
CONTINUOUS
 62
     7
 10
89.2786019654
 20
167.3440127195
 30
0.0
  0
VERTEX
  5
142
  8
0
  6
CONTINUOUS
 62
     7
 10
89.4693039623
 20
167.5004841678
 30
0.0
  0
VERTEX
  5
143
  8
0
  6
CONTINUOUS
 62
     7
 10
89.7042828734
 20
167.6440060905
 30
0.0
  0
VERTEX
  5
144
  8
0
  6
CONTINUOUS
 62
     7
 10
89.9789024452
 20
167.7718779812
 30
0.0
  0
VERTEX
  5
145
  8
0
  6
CONTINUOUS
 62
     7
 10
90.2878136333
 20
167.8817090057
 30
0.0
  0
VERTEX
  5
146
  8
0
  6
CONTINUOUS
 62
     7
 10
90.6250587277
 20
167.9714570563
 30
0.0
  0
VERTEX
  5
147
  8
0
  6
CONTINUOUS
 62
     7
 10
90.9841829027
 20
168.0394612501
 30
0.0
  0
VERTEX
  5
148
  8
0
  6
CONTINUOUS
 62
     7
 10
91.3583513873
 20
168.0844677736
 30
0.0
  0
VERTEX
  5
149
  8
0
  6
CONTINUOUS
 62
     7
 10
91.7404706301
 20
168.1056490429
 30
0.0
  0
VERTEX
  5
14A
  8
0
  6
CONTINUOUS
 62
     7
 10
92.1233119938
 20
168.1026161853
 30
0.0
  0
VERTEX
  5
14B
  8
0
  6
CONTINUOUS
 62
     7
 10
92.4996366349
 20
168.0754248578
 30
0.0
  0
VERTEX
  5
14C
  8
0
  6
CONTINUOUS
 62
     7
 10
92.8623203041
 20
168.0245744166
 30
0.0
  0
VERTEX
  5
14D
  8
0
  6
CONTINUOUS
 62
     7
 10
93.204476817
 20
167.9510004336
 30
0.0
  0
VERTEX
  5
14E
  8
0
  6
CONTINUOUS
 62
     7
 10
93.5195789143
 20
167.856060547
 30
0.0
  0
VERTEX
  5
14F
  8
0
  6
CONTINUOUS
 62
     7
 10
93.801575138
 20
167.74151363
 30
0.0
  0
SEQEND
  5
193
  8
0
  6
CONTINUOUS
 62
     7
  0
LINE
  5
6E
  8
0
  6
CONTINUOUS
 62
     7
 10
125.6107292732
 20
151.3260660738
 30
0.0
 11
125.2477602906
 21
144.6301066522
 31
0.0
  0
LINE
  5
6F
  8
0
  6
CONTINUOUS
 62
     7
 10
104.1557977973
 20
132.3569897105
 30
0.0
 11
125.2477602906
 21
144.6301066522
 31
0.0
  0
LINE
  5
70
  8
0
  6
CONTINUOUS
 62
     7
 10
125.6107292732
 20
151.3260660738
 30
0.0
 11
106.7095119786
 21
152.173615628
 31
0.0
  0
ARC
  5
71
  8
0
  6
CONTINUOUS
 62
     7
 10
89.624231007
 20
157.7740698793
 30
0.0
 40
1.734709123034708
 50
193.3286732894
 51
248.6039051591
  0
LINE
  5
72
  8
0
  6
CONTINUOUS
 62
     7
 10
87.9307349366
 20
157.44985492
 30
0.0
 11
87.936248661
 21
157.3741557119
 31
0.0
  0
ARC
  5
73
  8
0
  6
CONTINUOUS
 62
     7
 10
91.6057622242
 20
161.6491477535
 30
0.0
 40
6.080921866953787
 50
244.5368249462
 51
268.2476360918
  0
POLYLINE
  5
74
  8
0
  6
CONTINUOUS
 62
     7
 66
     1
 10
0.0
 20
0.0
 30
0.0
  0
VERTEX
  5
150
  8
0
  6
CONTINUOUS
 62
     7
 10
93.4835403636
 20
166.7756298154
 30
0.0
  0
VERTEX
  5
151
  8
0
  6
CONTINUOUS
 62
     7
 10
93.2244611021
 20
166.8802634651
 30
0.0
  0
VERTEX
  5
152
  8
0
  6
CONTINUOUS
 62
     7
 10
92.9326244257
 20
166.9649195692
 30
0.0
  0
VERTEX
  5
153
  8
0
  6
CONTINUOUS
 62
     7
 10
92.6147890583
 20
167.0276943042
 30
0.0
  0
VERTEX
  5
154
  8
0
  6
CONTINUOUS
 62
     7
 10
92.2782737043
 20
167.0671807712
 30
0.0
  0
VERTEX
  5
155
  8
0
  6
CONTINUOUS
 62
     7
 10
91.9307976071
 20
167.0824961124
 30
0.0
  0
VERTEX
  5
156
  8
0
  6
CONTINUOUS
 62
     7
 10
91.5803150599
 20
167.0732983382
 30
0.0
  0
VERTEX
  5
157
  8
0
  6
CONTINUOUS
 62
     7
 10
91.2348463623
 20
167.0397928043
 30
0.0
  0
VERTEX
  5
158
  8
0
  6
CONTINUOUS
 62
     7
 10
90.9023076303
 20
166.9827283253
 30
0.0
  0
VERTEX
  5
159
  8
0
  6
CONTINUOUS
 62
     7
 10
90.5903418611
 20
166.9033829315
 30
0.0
  0
VERTEX
  5
15A
  8
0
  6
CONTINUOUS
 62
     7
 10
90.3061537254
 20
166.8035393167
 30
0.0
  0
VERTEX
  5
15B
  8
0
  6
CONTINUOUS
 62
     7
 10
90.0563506954
 20
166.6854500758
 30
0.0
  0
VERTEX
  5
15C
  8
0
  6
CONTINUOUS
 62
     7
 10
89.8467933064
 20
166.5517929277
 30
0.0
  0
VERTEX
  5
15D
  8
0
  6
CONTINUOUS
 62
     7
 10
89.6824575577
 20
166.4056162542
 30
0.0
  0
VERTEX
  5
15E
  8
0
  6
CONTINUOUS
 62
     7
 10
89.567312643
 20
166.2502754804
 30
0.0
  0
VERTEX
  5
15F
  8
0
  6
CONTINUOUS
 62
     7
 10
89.5042173342
 20
166.0893610659
 30
0.0
  0
VERTEX
  5
160
  8
0
  6
CONTINUOUS
 62
     7
 10
89.5000319076
 20
166.0687400505
 30
0.0
  0
SEQEND
  5
192
  8
0
  6
CONTINUOUS
 62
     7
  0
ARC
  5
75
  8
0
  6
CONTINUOUS
 62
     7
 10
93.1567294611
 20
165.8326145485
 30
0.0
 40
0.9980396582892817
 50
19.8792018931
 51
70.885755136
  0
LINE
  5
76
  8
0
  6
CONTINUOUS
 62
     7
 10
106.1894153143
 20
153.3840891836
 30
0.0
 11
125.2280042268
 21
152.4200156275
 31
0.0
  0
ARC
  5
77
  8
0
  6
CONTINUOUS
 62
     7
 10
124.7747672671
 20
151.6475237176
 30
0.0
 40
0.8956380365262847
 50
338.9664419232
 51
59.5989710597
  0
LINE
  5
78
  8
0
  6
CONTINUOUS
 62
     7
 10
84.5756245794
 20
164.1637344449
 30
0.0
 11
87.7567518399
 21
162.5771814973
 31
0.0
  0
LINE
  5
79
  8
0
  6
CONTINUOUS
 62
     7
 10
125.2280042268
 20
152.4200156275
 30
0.0
 11
104.1877179842
 21
162.3316555352
 31
0.0
  0
ARC
  5
7A
  8
0
  6
CONTINUOUS
 62
     7
 10
82.6394890521
 20
143.389433684
 30
0.0
 40
1.830572860676267
 50
188.4169927894
 51
244.5968705815
  0
ARC
  5
7B
  8
0
  6
CONTINUOUS
 62
     7
 10
125.1086234611
 20
144.9417547514
 30
0.0
 40
0.341296930838511
 50
294.0586085823
 51
352.4247298034
  0
LINE
  5
7C
  8
0
  6
CONTINUOUS
 62
     7
 10
130.3782431982
 20
145.5711353894
 30
0.0
 11
125.6102167027
 21
147.8845009288
 31
0.0
  0
POLYLINE
  5
7D
  8
0
  6
CONTINUOUS
 62
     7
 66
     1
 10
0.0
 20
0.0
 30
0.0
  0
VERTEX
  5
161
  8
0
  6
CONTINUOUS
 62
     7
 10
130.6080896002
 20
144.3138382308
 30
0.0
  0
VERTEX
  5
162
  8
0
  6
CONTINUOUS
 62
     7
 10
130.7731793785
 20
144.4334402108
 30
0.0
  0
VERTEX
  5
163
  8
0
  6
CONTINUOUS
 62
     7
 10
130.8936341655
 20
144.568427746
 30
0.0
  0
VERTEX
  5
164
  8
0
  6
CONTINUOUS
 62
     7
 10
130.9658838505
 20
144.7146291106
 30
0.0
  0
VERTEX
  5
165
  8
0
  6
CONTINUOUS
 62
     7
 10
130.9878598613
 20
144.8675504121
 30
0.0
  0
VERTEX
  5
166
  8
0
  6
CONTINUOUS
 62
     7
 10
130.9590425277
 20
145.0225182944
 30
0.0
  0
VERTEX
  5
167
  8
0
  6
CONTINUOUS
 62
     7
 10
130.8804589093
 20
145.1748250623
 30
0.0
  0
VERTEX
  5
168
  8
0
  6
CONTINUOUS
 62
     7
 10
130.7546333493
 20
145.3198714748
 30
0.0
  0
VERTEX
  5
169
  8
0
  6
CONTINUOUS
 62
     7
 10
130.5854944459
 20
145.4533029336
 30
0.0
  0
VERTEX
  5
16A
  8
0
  6
CONTINUOUS
 62
     7
 10
130.3782431982
 20
145.5711353894
 30
0.0
  0
SEQEND
  5
191
  8
0
  6
CONTINUOUS
 62
     7
  0
LINE
  5
7E
  8
0
  6
CONTINUOUS
 62
     7
 10
102.237102753
 20
127.4269841971
 30
0.0
 11
130.6080896002
 21
144.3138382308
 31
0.0
  0
ARC
  5
7F
  8
0
  6
CONTINUOUS
 62
     7
 10
100.9263497779
 20
129.850515634
 30
0.0
 40
2.755281834515672
 50
241.5935169625
 51
298.4064830375
  0
LINE
  5
80
  8
0
  6
CONTINUOUS
 62
     7
 10
74.2287865191
 20
142.7126895466
 30
0.0
 11
99.6155968027
 21
127.4269841971
 31
0.0
  0
POLYLINE
  5
81
  8
0
  6
CONTINUOUS
 62
     7
 66
     1
 10
0.0
 20
0.0
 30
0.0
  0
VERTEX
  5
16B
  8
0
  6
CONTINUOUS
 62
     7
 10
74.463435996
 20
143.9962603054
 30
0.0
  0
VERTEX
  5
16C
  8
0
  6
CONTINUOUS
 62
     7
 10
74.2538124844
 20
143.8759748435
 30
0.0
  0
VERTEX
  5
16D
  8
0
  6
CONTINUOUS
 62
     7
 10
74.082662854
 20
143.7397633142
 30
0.0
  0
VERTEX
  5
16E
  8
0
  6
CONTINUOUS
 62
     7
 10
73.9552503416
 20
143.5916920258
 30
0.0
  0
VERTEX
  5
16F
  8
0
  6
CONTINUOUS
 62
     7
 10
73.8755538534
 20
143.436205825
 30
0.0
  0
VERTEX
  5
170
  8
0
  6
CONTINUOUS
 62
     7
 10
73.8461343374
 20
143.2779996511
 30
0.0
  0
VERTEX
  5
171
  8
0
  6
CONTINUOUS
 62
     7
 10
73.8680403116
 20
143.121879554
 30
0.0
  0
VERTEX
  5
172
  8
0
  6
CONTINUOUS
 62
     7
 10
73.9407573853
 20
142.9726169231
 30
0.0
  0
VERTEX
  5
173
  8
0
  6
CONTINUOUS
 62
     7
 10
74.0622055436
 20
142.8348002878
 30
0.0
  0
VERTEX
  5
174
  8
0
  6
CONTINUOUS
 62
     7
 10
74.2287865191
 20
142.7126895466
 30
0.0
  0
SEQEND
  5
190
  8
0
  6
CONTINUOUS
 62
     7
  0
LINE
  5
82
  8
0
  6
CONTINUOUS
 62
     7
 10
80.6256932246
 20
147.0142603419
 30
0.0
 11
74.463435996
 21
143.9962603054
 31
0.0
  0
LINE
  5
83
  8
0
  6
CONTINUOUS
 62
     7
 10
99.6155968027
 20
127.4269841971
 30
0.0
 11
99.6266005978
 21
125.9298855972
 31
0.0
  0
LINE
  5
84
  8
0
  6
CONTINUOUS
 62
     7
 10
102.237102753
 20
127.4269841971
 30
0.0
 11
102.2383253969
 21
125.9298855972
 31
0.0
  0
ARC
  5
85
  8
0
  6
CONTINUOUS
 62
     7
 10
100.9324629973
 20
128.3211435633
 30
0.0
 40
2.724590109958672
 50
241.3611121504
 51
298.6388878496
  0
LINE
  5
86
  8
0
  6
CONTINUOUS
 62
     7
 10
74.2287865191
 20
142.7126895466
 30
0.0
 11
74.3250535016
 21
141.297588813
 31
0.0
  0
LINE
  5
87
  8
0
  6
CONTINUOUS
 62
     7
 10
74.3250535016
 20
141.297588813
 30
0.0
 11
99.6266005978
 21
125.9298855972
 31
0.0
  0
LINE
  5
88
  8
0
  6
CONTINUOUS
 62
     7
 10
130.6080896002
 20
144.3138382308
 30
0.0
 11
130.5137978779
 21
142.9079224438
 31
0.0
  0
LINE
  5
89
  8
0
  6
CONTINUOUS
 62
     7
 10
102.2383253969
 20
125.9298855972
 30
0.0
 11
130.5137978779
 21
142.9079224438
 31
0.0
  0
ARC
  5
8A
  8
0
  6
CONTINUOUS
 62
     7
 10
88.5296592355
 20
156.2846905421
 30
0.0
 40
1.240592788188634
 50
118.5762740485
 51
180.7004537839
  0
LINE
  5
8B
  8
0
  6
CONTINUOUS
 62
     7
 10
84.5756245794
 20
164.1637344449
 30
0.0
 11
81.9605450425
 21
163.0139722507
 31
0.0
  0
LINE
  5
8C
  8
0
  6
CONTINUOUS
 62
     7
 10
81.5995602665
 20
160.6540166315
 30
0.0
 11
87.936248661
 21
157.3741557119
 31
0.0
  0
POLYLINE
  5
8D
  8
0
  6
CONTINUOUS
 62
     7
 66
     1
 10
0.0
 20
0.0
 30
0.0
  0
VERTEX
  5
175
  8
0
  6
CONTINUOUS
 62
     7
 10
81.9605450425
 20
163.0139722507
 30
0.0
  0
VERTEX
  5
176
  8
0
  6
CONTINUOUS
 62
     7
 10
81.6589307607
 20
162.8655720621
 30
0.0
  0
VERTEX
  5
177
  8
0
  6
CONTINUOUS
 62
     7
 10
81.3943542468
 20
162.7020289279
 30
0.0
  0
VERTEX
  5
178
  8
0
  6
CONTINUOUS
 62
     7
 10
81.1707350869
 20
162.5256277691
 30
0.0
  0
VERTEX
  5
179
  8
0
  6
CONTINUOUS
 62
     7
 10
80.991445242
 20
162.338852123
 30
0.0
  0
VERTEX
  5
17A
  8
0
  6
CONTINUOUS
 62
     7
 10
80.8592538111
 20
162.1443531051
 30
0.0
  0
VERTEX
  5
17B
  8
0
  6
CONTINUOUS
 62
     7
 10
80.7762780263
 20
161.9449150426
 30
0.0
  0
VERTEX
  5
17C
  8
0
  6
CONTINUOUS
 62
     7
 10
80.7439416489
 20
161.7434180252
 30
0.0
  0
VERTEX
  5
17D
  8
0
  6
CONTINUOUS
 62
     7
 10
80.7629419596
 20
161.5427977159
 30
0.0
  0
VERTEX
  5
17E
  8
0
  6
CONTINUOUS
 62
     7
 10
80.8332265105
 20
161.346002883
 30
0.0
  0
VERTEX
  5
17F
  8
0
  6
CONTINUOUS
 62
     7
 10
80.9539807325
 20
161.1559512261
 30
0.0
  0
VERTEX
  5
180
  8
0
  6
CONTINUOUS
 62
     7
 10
81.1236273554
 20
160.9754841876
 30
0.0
  0
VERTEX
  5
181
  8
0
  6
CONTINUOUS
 62
     7
 10
81.3398384022
 20
160.8073215399
 30
0.0
  0
VERTEX
  5
182
  8
0
  6
CONTINUOUS
 62
     7
 10
81.5995602665
 20
160.6540166315
 30
0.0
  0
SEQEND
  5
18F
  8
0
  6
CONTINUOUS
 62
     7
  0
ARC
  5
8E
  8
0
  6
CONTINUOUS
 62
     7
 10
82.1429186745
 20
159.6084776543
 30
0.0
 40
1.17829967004638
 50
117.460546054
 51
181.5536592184
  0
ARC
  5
8F
  8
0
  6
CONTINUOUS
 62
     7
 10
84.3875130064
 20
163.816510236
 30
0.0
 40
0.3949058307633231
 50
61.5530153953
 51
113.0925832348
  0
ARC
  5
90
  8
0
  6
CONTINUOUS
 62
     7
 10
74.6301459493
 20
141.919614143
 30
0.0
 40
0.6928180950644242
 50
188.1754098506
 51
243.87286429
  0
ARC
  5
91
  8
0
  6
CONTINUOUS
 62
     7
 10
130.2189169916
 20
143.5204955976
 30
0.0
 40
0.679853370894065
 50
295.705265398
 51
351.704411797
  0
LINE
  5
92
  8
0
  6
CONTINUOUS
 62
     8
 10
104.1877179842
 20
162.3316555352
 30
0.0
 11
95.9983521437
 21
163.096671494
 31
0.0
  0
LINE
  5
93
  8
0
  6
CONTINUOUS
 62
     8
 10
87.7128606173
 20
163.8706671083
 30
0.0
 11
84.5756245794
 21
164.1637344449
 31
0.0
  0
ARC
  5
94
  8
0
  6
CONTINUOUS
 62
     8
 10
81.4791730801
 20
161.082573469
 30
0.0
 40
1.591378803190207
 50
188.2183806034
 51
251.151535158
  0
ARC
  5
95
  8
0
  6
CONTINUOUS
 62
     8
 10
81.7730559482
 20
162.7103556555
 30
0.0
 40
0.3568405769918663
 50
58.3038710869
 51
111.2760043507
  0
POLYLINE
  5
96
  8
0
  6
CONTINUOUS
 62
     8
 66
     1
 10
0.0
 20
0.0
 30
0.0
  0
VERTEX
  5
183
  8
0
  6
CONTINUOUS
 62
     8
 10
104.1877179842
 20
162.3316555352
 30
0.0
  0
VERTEX
  5
184
  8
0
  6
CONTINUOUS
 62
     8
 10
104.074035671
 20
162.3688802119
 30
0.0
  0
VERTEX
  5
185
  8
0
  6
CONTINUOUS
 62
     8
 10
104.0297781441
 20
162.375187973
 30
0.0
  0
SEQEND
  5
18E
  8
0
  6
CONTINUOUS
 62
     8
  0
POLYLINE
  5
97
  8
0
  6
CONTINUOUS
 62
     8
 66
     1
 10
0.0
 20
0.0
 30
0.0
  0
VERTEX
  5
186
  8
0
  6
CONTINUOUS
 62
     8
 10
125.2280042268
 20
152.4200156275
 30
0.0
  0
VERTEX
  5
187
  8
0
  6
CONTINUOUS
 62
     8
 10
125.2944235464
 20
152.4084688481
 30
0.0
  0
VERTEX
  5
188
  8
0
  6
CONTINUOUS
 62
     8
 10
125.3273619102
 20
152.3957069664
 30
0.0
  0
SEQEND
  5
18D
  8
0
  6
CONTINUOUS
 62
     8
  0
ARC
  5
98
  8
0
  6
CONTINUOUS
 62
     8
 10
125.4846162744
 20
151.6323311723
 30
0.0
 40
0.3312141286939212
 50
292.3807493868
 51
351.8070988911
  0
POLYLINE
  5
99
  8
0
  6
CONTINUOUS
 62
     8
 66
     1
 10
0.0
 20
0.0
 30
0.0
  0
VERTEX
  5
189
  8
0
  6
CONTINUOUS
 62
     8
 10
104.1877179842
 20
162.3316555352
 30
0.0
  0
VERTEX
  5
18A
  8
0
  6
CONTINUOUS
 62
     8
 10
104.2570394346
 20
162.3173953549
 30
0.0
  0
VERTEX
  5
18B
  8
0
  6
CONTINUOUS
 62
     8
 10
104.2917805985
 20
162.3035966557
 30
0.0
  0
SEQEND
  5
18C
  8
0
  6
CONTINUOUS
 62
     8
  0
TEXT
  5
9A
  8
0
  6
CONTINUOUS
 62
     7
 10
0.0
 20
6.732893805
 30
0.0
 40
3.633
  1
Edition étudiante de SolidWorks.
 41
0.6671875
 11
0.0
 21
5.4495
 31
0.0
 73
     1
  0
TEXT
  5
9B
  8
0
  6
CONTINUOUS
 62
     7
 10
0.0
 20
1.283393805
 30
0.0
 40
3.633
  1
A usage universitaire uniquement.
 41
0.6681818182
 11
0.0
 21
0.0
 31
0.0
 73
     1
  0
ENDSEC
  0
EOF
