  0
SECTION
  2
HEADER
  9
$ACADVER
  1
AC1009
  9
$DWGCODEPAGE
  3
ansi_1252
  9
$INSBASE
 10
0.0
 20
0.0
 30
0.0
  9
$EXTMIN
 10
0.0
 20
0.0
 30
0.0
  9
$EXTMAX
 10
297.0
 20
420.0
 30
0.0
  9
$LIMMIN
 10
0.0
 20
0.0
  9
$LIMMAX
 10
297.0
 20
420.0
  9
$ORTHOMODE
 70
     0
  9
$REGENMODE
 70
     1
  9
$FILLMODE
 70
     1
  9
$QTEXTMODE
 70
     0
  9
$MIRRTEXT
 70
     1
  9
$DRAGMODE
 70
     2
  9
$LTSCALE
 40
1.0
  9
$OSMODE
 70
    37
  9
$ATTMODE
 70
     1
  9
$TEXTSIZE
 40
3.5
  9
$TRACEWID
 40
1.0
  9
$TEXTSTYLE
  7
STANDARD
  9
$CLAYER
  8
0
  9
$CELTYPE
  6
BYLAYER
  9
$CECOLOR
 62
   256
  9
$DIMSCALE
 40
1.0
  9
$DIMASZ
 40
3.302
  9
$DIMEXO
 40
1.0
  9
$DIMDLI
 40
3.75
  9
$DIMRND
 40
0.0
  9
$DIMDLE
 40
0.0
  9
$DIMEXE
 40
1.0
  9
$DIMTP
 40
0.0
  9
$DIMTM
 40
0.0
  9
$DIMTXT
 40
3.5
  9
$DIMCEN
 40
2.5
  9
$DIMTSZ
 40
0.0
  9
$DIMTOL
 70
     0
  9
$DIMLIM
 70
     0
  9
$DIMTIH
 70
     1
  9
$DIMTOH
 70
     1
  9
$DIMSE1
 70
     0
  9
$DIMSE2
 70
     0
  9
$DIMTAD
 70
     1
  9
$DIMZIN
 70
     0
  9
$DIMBLK
  1

  9
$DIMASO
 70
     1
  9
$DIMSHO
 70
     1
  9
$DIMPOST
  1

  9
$DIMAPOST
  1

  9
$DIMALT
 70
     0
  9
$DIMALTD
 70
     3
  9
$DIMALTF
 40
0.0393700787
  9
$DIMLFAC
 40
5.0
  9
$DIMTOFL
 70
     1
  9
$DIMTVP
 40
0.0
  9
$DIMTIX
 70
     0
  9
$DIMSOXD
 70
     0
  9
$DIMSAH
 70
     0
  9
$DIMBLK1
  1

  9
$DIMBLK2
  1

  9
$DIMSTYLE
  2
ISO-25
  9
$DIMCLRD
 70
     0
  9
$DIMCLRE
 70
     0
  9
$DIMCLRT
 70
     0
  9
$DIMTFAC
 40
1.0
  9
$DIMGAP
 40
1.524
  9
$LUNITS
 70
     2
  9
$LUPREC
 70
     2
  9
$SKETCHINC
 40
1.0
  9
$FILLETRAD
 40
10.0
  9
$AUNITS
 70
     0
  9
$AUPREC
 70
     2
  9
$MENU
  1
.
  9
$ELEVATION
 40
0.0
  9
$PELEVATION
 40
0.0
  9
$THICKNESS
 40
0.0
  9
$LIMCHECK
 70
     0
  9
$CHAMFERA
 40
10.0
  9
$CHAMFERB
 40
10.0
  9
$SKPOLY
 70
     0
  9
$TDCREATE
 40
2456427.350384792
  9
$TDUPDATE
 40
2456427.350384792
  9
$TDINDWG
 40
0.0000000116
  9
$TDUSRTIMER
 40
0.0000000116
  9
$USRTIMER
 70
     1
  9
$ANGBASE
 50
0.0
  9
$ANGDIR
 70
     0
  9
$PDMODE
 70
     0
  9
$PDSIZE
 40
-1.0
  9
$PLINEWID
 40
0.0
  9
$COORDS
 70
     1
  9
$SPLFRAME
 70
     0
  9
$SPLINETYPE
 70
     6
  9
$SPLINESEGS
 70
     8
  9
$ATTDIA
 70
     0
  9
$ATTREQ
 70
     1
  9
$HANDLING
 70
     1
  9
$HANDSEED
  5
99
  9
$SURFTAB1
 70
     6
  9
$SURFTAB2
 70
     6
  9
$SURFTYPE
 70
     6
  9
$SURFU
 70
     6
  9
$SURFV
 70
     6
  9
$UCSNAME
  2

  9
$UCSORG
 10
0.0
 20
0.0
 30
0.0
  9
$UCSXDIR
 10
1.0
 20
0.0
 30
0.0
  9
$UCSYDIR
 10
0.0
 20
1.0
 30
0.0
  9
$PUCSNAME
  2

  9
$PUCSORG
 10
0.0
 20
0.0
 30
0.0
  9
$PUCSXDIR
 10
1.0
 20
0.0
 30
0.0
  9
$PUCSYDIR
 10
0.0
 20
1.0
 30
0.0
  9
$USERI1
 70
     0
  9
$USERI2
 70
     0
  9
$USERI3
 70
     0
  9
$USERI4
 70
     0
  9
$USERI5
 70
     0
  9
$USERR1
 40
0.0
  9
$USERR2
 40
0.0
  9
$USERR3
 40
0.0
  9
$USERR4
 40
0.0
  9
$USERR5
 40
0.0
  9
$WORLDVIEW
 70
     1
  9
$SHADEDGE
 70
     3
  9
$SHADEDIF
 70
    70
  9
$TILEMODE
 70
     1
  9
$MAXACTVP
 70
    64
  9
$PLIMCHECK
 70
     0
  9
$PEXTMIN
 10
1.0000000000E+20
 20
1.0000000000E+20
 30
1.0000000000E+20
  9
$PEXTMAX
 10
-1.0000000000E+20
 20
-1.0000000000E+20
 30
-1.0000000000E+20
  9
$PLIMMIN
 10
0.0
 20
0.0
  9
$PLIMMAX
 10
420.0
 20
297.0
  9
$UNITMODE
 70
     0
  9
$VISRETAIN
 70
     1
  9
$PLINEGEN
 70
     0
  9
$PSLTSCALE
 70
     1
  0
ENDSEC
  0
SECTION
  2
TABLES
  0
TABLE
  2
VPORT
 70
     1
  0
VPORT
  2
*ACTIVE
 70
     0
 10
0.0
 20
0.0
 11
1.0
 21
1.0
 12
148.5
 22
210.0
 13
0.0
 23
0.0
 14
10.0
 24
10.0
 15
10.0
 25
10.0
 16
0.0
 26
0.0
 36
1.0
 17
0.0
 27
0.0
 37
0.0
 40
420.0
 41
0.7071428571
 42
50.0
 43
0.0
 44
0.0
 50
0.0
 51
0.0
 71
     0
 72
  2000
 73
     1
 74
     3
 75
     0
 76
     0
 77
     0
 78
     0
  0
ENDTAB
  0
TABLE
  2
LTYPE
 70
     6
  0
LTYPE
  2
CONTINUOUS
 70
     0
  3
Solid line
 72
    65
 73
     0
 40
0.0
  0
LTYPE
  2
HIDDEN
 70
     0
  3
Hidden __ __ __ __ __ __ __ __ __ __ __ __ __ __
 72
    65
 73
     2
 40
1.905
 49
1.27
 49
-0.635
  0
LTYPE
  2
PHANTOM
 70
     0
  3
Phantom ______  __  __  ______  __  __  ______
 72
    65
 73
     6
 40
12.7
 49
6.35
 49
-1.27
 49
1.27
 49
-1.27
 49
1.27
 49
-1.27
  0
LTYPE
  2
CENTER
 70
     0
  3
Center ____ _ ____ _ ____ _ ____ _ ____ _ ____
 72
    65
 73
     4
 40
10.16
 49
6.35
 49
-1.27
 49
1.27
 49
-1.27
  0
LTYPE
  2
CENTERX2
 70
     0
  3
Center (2x) ________  __  ________  __  _____
 72
    65
 73
     4
 40
20.32
 49
12.7
 49
-2.54
 49
2.54
 49
-2.54
  0
LTYPE
  2
DOT2
 70
     0
  3
Dot (.5x) ........................................
 72
    65
 73
     2
 40
0.635
 49
0.0
 49
-0.635
  0
ENDTAB
  0
TABLE
  2
LAYER
 70
     1
  0
LAYER
  2
0
 70
     0
 62
     7
  6
CONTINUOUS
  0
ENDTAB
  0
TABLE
  2
STYLE
 70
     1
  0
STYLE
  2
STANDARD
 70
     0
 40
0.0
 41
1.0
 50
0.0
 71
     0
 42
3.5
  3
txt
  4

  0
ENDTAB
  0
TABLE
  2
VIEW
 70
     0
  0
ENDTAB
  0
TABLE
  2
UCS
 70
     0
  0
ENDTAB
  0
TABLE
  2
APPID
 70
     1
  0
APPID
  2
ACAD
 70
     0
  0
ENDTAB
  0
TABLE
  2
DIMSTYLE
 70
     1
  0
DIMSTYLE
  2
ISO-25
 70
     0
  3

  4

  5

  6

  7

 40
1.0
 41
2.5
 42
0.625
 43
3.75
 44
1.25
 45
0.0
 46
0.0
 47
0.0
 48
0.0
140
2.5
141
2.5
142
0.0
143
0.0393700787
144
1.0
145
0.0
146
1.0
147
0.625
 71
     0
 72
     0
 73
     0
 74
     0
 75
     0
 76
     0
 77
     1
 78
     8
170
     0
171
     3
172
     1
173
     0
174
     0
175
     0
176
     0
177
     0
178
     0
  0
ENDTAB
  0
ENDSEC
  0
SECTION
  2
BLOCKS
  0
BLOCK
  8
0
  2
$MODEL_SPACE
 70
     0
 10
0.0
 20
0.0
 30
0.0
  3
$MODEL_SPACE
  1

  0
ENDBLK
  5
21
  8
0
  0
BLOCK
 67
     1
  8
0
  2
$PAPER_SPACE
 70
     0
 10
0.0
 20
0.0
 30
0.0
  3
$PAPER_SPACE
  1

  0
ENDBLK
  5
1D
 67
     1
  8
0
  0
ENDSEC
  0
SECTION
  2
ENTITIES
  0
LINE
  5
44
  8
0
  6
CONTINUOUS
 62
     7
 10
69.7603045685
 20
17.603720763
 30
0.0
 11
114.7603045685
 21
17.603720763
 31
0.0
  0
LINE
  5
45
  8
0
  6
CONTINUOUS
 62
     7
 10
69.7603045685
 20
397.9613553791
 30
0.0
 11
69.7603045685
 21
17.603720763
 31
0.0
  0
LINE
  5
46
  8
0
  6
CONTINUOUS
 62
     7
 10
114.7603045685
 20
397.9613553791
 30
0.0
 11
69.7603045685
 21
397.9613553791
 31
0.0
  0
LINE
  5
47
  8
0
  6
CONTINUOUS
 62
     7
 10
114.7603045685
 20
397.9613553791
 30
0.0
 11
114.7603045685
 21
17.603720763
 31
0.0
  0
CIRCLE
  5
48
  8
0
  6
CONTINUOUS
 62
     7
 10
79.7603045685
 20
27.603720763
 30
0.0
 40
2.0
  0
CIRCLE
  5
49
  8
0
  6
CONTINUOUS
 62
     7
 10
221.7603045685
 20
81.353720763
 30
0.0
 40
0.5
  0
CIRCLE
  5
4A
  8
0
  6
CONTINUOUS
 62
     7
 10
221.7603045685
 20
191.353720763
 30
0.0
 40
0.5
  0
CIRCLE
  5
4B
  8
0
  6
CONTINUOUS
 62
     7
 10
221.7603045685
 20
303.2113553791
 30
0.0
 40
0.5
  0
CIRCLE
  5
4C
  8
0
  6
CONTINUOUS
 62
     7
 10
221.7603045685
 20
358.2113553791
 30
0.0
 40
0.5
  0
CIRCLE
  5
4D
  8
0
  6
CONTINUOUS
 62
     7
 10
221.7603045685
 20
248.2113553791
 30
0.0
 40
0.5
  0
CIRCLE
  5
4E
  8
0
  6
CONTINUOUS
 62
     7
 10
221.7603045685
 20
136.353720763
 30
0.0
 40
0.5
  0
LINE
  5
4F
  8
0
  6
CONTINUOUS
 62
     7
 10
121.2603045685
 20
373.4006952074
 30
0.0
 11
121.2603045685
 21
229.7453202543
 31
0.0
  0
ARC
  5
50
  8
0
  6
CONTINUOUS
 62
     7
 10
121.7906346544
 20
229.2149901684
 30
0.0
 40
0.7500000000000563
 50
135.0
 51
315.0
  0
LINE
  5
51
  8
0
  6
CONTINUOUS
 62
     7
 10
122.3209647403
 20
228.6846600825
 30
0.0
 11
211.1996443967
 21
228.6846600825
 31
0.0
  0
ARC
  5
52
  8
0
  6
CONTINUOUS
 62
     7
 10
211.7299744826
 20
229.2149901684
 30
0.0
 40
0.7500000000000061
 50
225.0
 51
45.0
  0
LINE
  5
53
  8
0
  6
CONTINUOUS
 62
     7
 10
212.2603045685
 20
229.7453202543
 30
0.0
 11
212.2603045685
 21
373.4006952074
 31
0.0
  0
ARC
  5
54
  8
0
  6
CONTINUOUS
 62
     7
 10
211.7299744826
 20
373.9310252932
 30
0.0
 40
0.7500000000000865
 50
315.0
 51
135.0
  0
LINE
  5
55
  8
0
  6
CONTINUOUS
 62
     7
 10
211.1996443967
 20
374.4613553791
 30
0.0
 11
122.3209647403
 21
374.4613553791
 31
0.0
  0
ARC
  5
56
  8
0
  6
CONTINUOUS
 62
     7
 10
121.7906346544
 20
373.9310252932
 30
0.0
 40
0.7500000000000865
 50
45.0
 51
225.0
  0
LINE
  5
57
  8
0
  6
CONTINUOUS
 62
     7
 10
211.1996443967
 20
210.3709515835
 30
0.0
 11
122.3209647403
 21
210.3709515835
 31
0.0
  0
ARC
  5
58
  8
0
  6
CONTINUOUS
 62
     7
 10
121.7906346544
 20
209.8406214976
 30
0.0
 40
0.7500000000000161
 50
45.0
 51
225.0
  0
LINE
  5
59
  8
0
  6
CONTINUOUS
 62
     7
 10
121.2603045685
 20
209.3102914117
 30
0.0
 11
121.2603045685
 21
66.1643809348
 31
0.0
  0
ARC
  5
5A
  8
0
  6
CONTINUOUS
 62
     7
 10
121.7906346544
 20
65.6340508489
 30
0.0
 40
0.7500000000000261
 50
135.0
 51
315.0
  0
LINE
  5
5B
  8
0
  6
CONTINUOUS
 62
     7
 10
122.3209647403
 20
65.103720763
 30
0.0
 11
211.1996443967
 21
65.103720763
 31
0.0
  0
ARC
  5
5C
  8
0
  6
CONTINUOUS
 62
     7
 10
211.7299744826
 20
65.6340508489
 30
0.0
 40
0.7500000000000161
 50
225.0
 51
45.0
  0
LINE
  5
5D
  8
0
  6
CONTINUOUS
 62
     7
 10
212.2603045685
 20
66.1643809348
 30
0.0
 11
212.2603045685
 21
209.3102914117
 31
0.0
  0
ARC
  5
5E
  8
0
  6
CONTINUOUS
 62
     7
 10
211.7299744826
 20
209.8406214976
 30
0.0
 40
0.7500000000000262
 50
315.0
 51
135.0
  0
ARC
  5
5F
  8
0
  6
CONTINUOUS
 62
     7
 10
119.2299744826
 20
398.491685465
 30
0.0
 40
0.7500000000000504
 50
252.9687515418
 51
45.0
  0
LINE
  5
60
  8
0
  6
CONTINUOUS
 62
     7
 10
119.7603045685
 20
401.9613553791
 30
0.0
 11
119.7603045685
 21
399.0220155509
 31
0.0
  0
LINE
  5
61
  8
0
  6
CONTINUOUS
 62
     7
 10
169.7603045685
 20
401.9613553791
 30
0.0
 11
119.7603045685
 21
401.9613553791
 31
0.0
  0
ARC
  5
62
  8
0
  6
CONTINUOUS
 62
     7
 10
220.2906346544
 20
343.9310252932
 30
0.0
 40
0.7500000000000463
 50
45.0
 51
225.0
  0
LINE
  5
63
  8
0
  6
CONTINUOUS
 62
     7
 10
219.7603045685
 20
318.0220155509
 30
0.0
 11
219.7603045685
 21
343.4006952074
 31
0.0
  0
ARC
  5
64
  8
0
  6
CONTINUOUS
 62
     7
 10
220.2906346544
 20
317.491685465
 30
0.0
 40
0.7500000000000262
 50
135.0
 51
315.0
  0
LINE
  5
65
  8
0
  6
CONTINUOUS
 62
     7
 10
223.7603045685
 20
316.9613553791
 30
0.0
 11
220.8209647403
 21
316.9613553791
 31
0.0
  0
LINE
  5
66
  8
0
  6
CONTINUOUS
 62
     7
 10
223.7603045685
 20
289.4613553791
 30
0.0
 11
223.7603045685
 21
316.9613553791
 31
0.0
  0
LINE
  5
67
  8
0
  6
CONTINUOUS
 62
     7
 10
220.8209647403
 20
289.4613553791
 30
0.0
 11
223.7603045685
 21
289.4613553791
 31
0.0
  0
ARC
  5
68
  8
0
  6
CONTINUOUS
 62
     7
 10
220.2906346544
 20
288.9310252932
 30
0.0
 40
0.7500000000000061
 50
45.0
 51
225.0
  0
LINE
  5
69
  8
0
  6
CONTINUOUS
 62
     7
 10
219.7603045685
 20
263.0220155509
 30
0.0
 11
219.7603045685
 21
288.4006952074
 31
0.0
  0
ARC
  5
6A
  8
0
  6
CONTINUOUS
 62
     7
 10
220.2906346544
 20
262.491685465
 30
0.0
 40
0.7500000000000262
 50
135.0
 51
315.0
  0
LINE
  5
6B
  8
0
  6
CONTINUOUS
 62
     7
 10
223.7603045685
 20
261.9613553791
 30
0.0
 11
220.8209647403
 21
261.9613553791
 31
0.0
  0
LINE
  5
6C
  8
0
  6
CONTINUOUS
 62
     7
 10
223.7603045685
 20
234.4613553791
 30
0.0
 11
223.7603045685
 21
261.9613553791
 31
0.0
  0
LINE
  5
6D
  8
0
  6
CONTINUOUS
 62
     7
 10
220.8209647403
 20
234.4613553791
 30
0.0
 11
223.7603045685
 21
234.4613553791
 31
0.0
  0
ARC
  5
6E
  8
0
  6
CONTINUOUS
 62
     7
 10
220.2906346544
 20
233.9310252932
 30
0.0
 40
0.7500000000000061
 50
45.0
 51
225.0
  0
LINE
  5
6F
  8
0
  6
CONTINUOUS
 62
     7
 10
219.7603045685
 20
206.1643809348
 30
0.0
 11
219.7603045685
 21
233.4006952074
 31
0.0
  0
ARC
  5
70
  8
0
  6
CONTINUOUS
 62
     7
 10
220.2906346544
 20
205.6340508489
 30
0.0
 40
0.7500000000000061
 50
135.0
 51
315.0
  0
LINE
  5
71
  8
0
  6
CONTINUOUS
 62
     7
 10
223.7603045685
 20
205.103720763
 30
0.0
 11
220.8209647403
 21
205.103720763
 31
0.0
  0
LINE
  5
72
  8
0
  6
CONTINUOUS
 62
     7
 10
223.7603045685
 20
177.603720763
 30
0.0
 11
223.7603045685
 21
205.103720763
 31
0.0
  0
LINE
  5
73
  8
0
  6
CONTINUOUS
 62
     7
 10
220.8209647403
 20
177.603720763
 30
0.0
 11
223.7603045685
 21
177.603720763
 31
0.0
  0
ARC
  5
74
  8
0
  6
CONTINUOUS
 62
     7
 10
220.2906346544
 20
177.0733906771
 30
0.0
 40
0.7500000000000061
 50
45.0
 51
225.0
  0
LINE
  5
75
  8
0
  6
CONTINUOUS
 62
     7
 10
219.7603045685
 20
151.1643809348
 30
0.0
 11
219.7603045685
 21
176.5430605912
 31
0.0
  0
ARC
  5
76
  8
0
  6
CONTINUOUS
 62
     7
 10
220.2906346544
 20
150.6340508489
 30
0.0
 40
0.7500000000000463
 50
135.0
 51
315.0
  0
LINE
  5
77
  8
0
  6
CONTINUOUS
 62
     7
 10
223.7603045685
 20
150.103720763
 30
0.0
 11
220.8209647403
 21
150.103720763
 31
0.0
  0
LINE
  5
78
  8
0
  6
CONTINUOUS
 62
     7
 10
223.7603045685
 20
122.603720763
 30
0.0
 11
223.7603045685
 21
150.103720763
 31
0.0
  0
LINE
  5
79
  8
0
  6
CONTINUOUS
 62
     7
 10
220.8209647403
 20
122.603720763
 30
0.0
 11
223.7603045685
 21
122.603720763
 31
0.0
  0
ARC
  5
7A
  8
0
  6
CONTINUOUS
 62
     7
 10
220.2906346544
 20
122.0733906771
 30
0.0
 40
0.7500000000000161
 50
45.0
 51
225.0
  0
LINE
  5
7B
  8
0
  6
CONTINUOUS
 62
     7
 10
219.7603045685
 20
96.1643809348
 30
0.0
 11
219.7603045685
 21
121.5430605912
 31
0.0
  0
ARC
  5
7C
  8
0
  6
CONTINUOUS
 62
     7
 10
220.2906346544
 20
95.6340508489
 30
0.0
 40
0.7500000000000262
 50
135.0
 51
315.0
  0
LINE
  5
7D
  8
0
  6
CONTINUOUS
 62
     7
 10
223.7603045685
 20
95.103720763
 30
0.0
 11
220.8209647403
 21
95.103720763
 31
0.0
  0
LINE
  5
7E
  8
0
  6
CONTINUOUS
 62
     7
 10
223.7603045685
 20
67.603720763
 30
0.0
 11
223.7603045685
 21
95.103720763
 31
0.0
  0
LINE
  5
7F
  8
0
  6
CONTINUOUS
 62
     7
 10
220.8209647403
 20
67.603720763
 30
0.0
 11
223.7603045685
 21
67.603720763
 31
0.0
  0
ARC
  5
80
  8
0
  6
CONTINUOUS
 62
     7
 10
220.2906346544
 20
67.0733906771
 30
0.0
 40
0.7500000000000161
 50
45.0
 51
225.0
  0
LINE
  5
81
  8
0
  6
CONTINUOUS
 62
     7
 10
219.7603045685
 20
17.603720763
 30
0.0
 11
219.7603045685
 21
66.5430605912
 31
0.0
  0
LINE
  5
82
  8
0
  6
CONTINUOUS
 62
     7
 10
119.0103045685
 20
17.603720763
 30
0.0
 11
219.7603045685
 21
17.603720763
 31
0.0
  0
LINE
  5
83
  8
0
  6
CONTINUOUS
 62
     7
 10
119.0103045685
 20
17.603720763
 30
0.0
 11
119.0103045685
 21
397.7745765968
 31
0.0
  0
LINE
  5
84
  8
0
  6
CONTINUOUS
 62
     7
 10
169.7603045685
 20
399.0220155509
 30
0.0
 11
169.7603045685
 21
401.9613553791
 31
0.0
  0
ARC
  5
85
  8
0
  6
CONTINUOUS
 62
     7
 10
170.2906346544
 20
398.491685465
 30
0.0
 40
0.7500000000000463
 50
135.0
 51
315.0
  0
LINE
  5
86
  8
0
  6
CONTINUOUS
 62
     7
 10
219.7603045685
 20
397.9613553791
 30
0.0
 11
170.8209647403
 21
397.9613553791
 31
0.0
  0
LINE
  5
87
  8
0
  6
CONTINUOUS
 62
     7
 10
219.7603045685
 20
373.0220155509
 30
0.0
 11
219.7603045685
 21
397.9613553791
 31
0.0
  0
ARC
  5
88
  8
0
  6
CONTINUOUS
 62
     7
 10
220.2906346544
 20
372.491685465
 30
0.0
 40
0.7499999999999859
 50
135.0
 51
315.0
  0
LINE
  5
89
  8
0
  6
CONTINUOUS
 62
     7
 10
223.7603045685
 20
371.9613553791
 30
0.0
 11
220.8209647403
 21
371.9613553791
 31
0.0
  0
LINE
  5
8A
  8
0
  6
CONTINUOUS
 62
     7
 10
223.7603045685
 20
344.4613553791
 30
0.0
 11
223.7603045685
 21
371.9613553791
 31
0.0
  0
LINE
  5
8B
  8
0
  6
CONTINUOUS
 62
     7
 10
220.8209647403
 20
344.4613553791
 30
0.0
 11
223.7603045685
 21
344.4613553791
 31
0.0
  0
LINE
  5
8C
  8
0
  6
CONTINUOUS
 62
     7
 10
209.7603045685
 20
207.8709515835
 30
0.0
 11
123.7603045685
 21
207.8709515835
 31
0.0
  0
LINE
  5
8D
  8
0
  6
CONTINUOUS
 62
     7
 10
123.7603045685
 20
67.603720763
 30
0.0
 11
209.7603045685
 21
67.603720763
 31
0.0
  0
LINE
  5
8E
  8
0
  6
CONTINUOUS
 62
     7
 10
209.7603045685
 20
67.603720763
 30
0.0
 11
209.7603045685
 21
207.8709515835
 31
0.0
  0
LINE
  5
8F
  8
0
  6
CONTINUOUS
 62
     7
 10
123.7603045685
 20
207.8709515835
 30
0.0
 11
123.7603045685
 21
67.603720763
 31
0.0
  0
LINE
  5
90
  8
0
  6
CONTINUOUS
 62
     7
 10
123.7603045685
 20
371.9613553791
 30
0.0
 11
123.7603045685
 21
231.1846600825
 31
0.0
  0
LINE
  5
91
  8
0
  6
CONTINUOUS
 62
     7
 10
209.7603045685
 20
371.9613553791
 30
0.0
 11
123.7603045685
 21
371.9613553791
 31
0.0
  0
LINE
  5
92
  8
0
  6
CONTINUOUS
 62
     7
 10
123.7603045685
 20
231.1846600825
 30
0.0
 11
209.7603045685
 21
231.1846600825
 31
0.0
  0
LINE
  5
93
  8
0
  6
CONTINUOUS
 62
     7
 10
209.7603045685
 20
231.1846600825
 30
0.0
 11
209.7603045685
 21
371.9613553791
 31
0.0
  0
LINE
  5
94
  8
0
  6
CONTINUOUS
 62
     7
 10
118.6996443967
 20
397.9613553791
 30
0.0
 11
114.7603045685
 21
397.9613553791
 31
0.0
  0
ARC
  5
95
  8
0
  6
CONTINUOUS
 62
     7
 10
119.2299744826
 20
398.491685465
 30
0.0
 40
0.7500000000000764
 50
225.0
 51
252.9687515418
  0
LINE
  5
96
  8
0
  6
CONTINUOUS
 62
     7
 10
114.7603045685
 20
17.603720763
 30
0.0
 11
119.0103045685
 21
17.603720763
 31
0.0
  0
TEXT
  5
97
  8
0
  6
CONTINUOUS
 62
     7
 10
0.0
 20
9.5222355241
 30
0.0
 40
5.1381
  1
Edition étudiante de SolidWorks.
 41
0.6671875
 11
0.0
 21
7.70715
 31
0.0
 73
     1
  0
TEXT
  5
98
  8
0
  6
CONTINUOUS
 62
     7
 10
0.0
 20
1.8150855241
 30
0.0
 40
5.1381
  1
A usage universitaire uniquement.
 41
0.6681818182
 11
0.0
 21
0.0
 31
0.0
 73
     1
  0
ENDSEC
  0
EOF
