  0
SECTION
  2
HEADER
  9
$ACADVER
  1
AC1009
  9
$DWGCODEPAGE
  3
ansi_1252
  9
$INSBASE
 10
0.0
 20
0.0
 30
0.0
  9
$EXTMIN
 10
0.0
 20
0.0
 30
0.0
  9
$EXTMAX
 10
297.0
 20
420.0
 30
0.0
  9
$LIMMIN
 10
0.0
 20
0.0
  9
$LIMMAX
 10
297.0
 20
420.0
  9
$ORTHOMODE
 70
     0
  9
$REGENMODE
 70
     1
  9
$FILLMODE
 70
     1
  9
$QTEXTMODE
 70
     0
  9
$MIRRTEXT
 70
     1
  9
$DRAGMODE
 70
     2
  9
$LTSCALE
 40
1.0
  9
$OSMODE
 70
    37
  9
$ATTMODE
 70
     1
  9
$TEXTSIZE
 40
3.5
  9
$TRACEWID
 40
1.0
  9
$TEXTSTYLE
  7
STANDARD
  9
$CLAYER
  8
0
  9
$CELTYPE
  6
BYLAYER
  9
$CECOLOR
 62
   256
  9
$DIMSCALE
 40
1.0
  9
$DIMASZ
 40
3.302
  9
$DIMEXO
 40
1.0
  9
$DIMDLI
 40
3.75
  9
$DIMRND
 40
0.0
  9
$DIMDLE
 40
0.0
  9
$DIMEXE
 40
1.0
  9
$DIMTP
 40
0.0
  9
$DIMTM
 40
0.0
  9
$DIMTXT
 40
3.5
  9
$DIMCEN
 40
2.5
  9
$DIMTSZ
 40
0.0
  9
$DIMTOL
 70
     0
  9
$DIMLIM
 70
     0
  9
$DIMTIH
 70
     1
  9
$DIMTOH
 70
     1
  9
$DIMSE1
 70
     0
  9
$DIMSE2
 70
     0
  9
$DIMTAD
 70
     1
  9
$DIMZIN
 70
     0
  9
$DIMBLK
  1

  9
$DIMASO
 70
     1
  9
$DIMSHO
 70
     1
  9
$DIMPOST
  1

  9
$DIMAPOST
  1

  9
$DIMALT
 70
     0
  9
$DIMALTD
 70
     3
  9
$DIMALTF
 40
0.0393700787
  9
$DIMLFAC
 40
5.0
  9
$DIMTOFL
 70
     1
  9
$DIMTVP
 40
0.0
  9
$DIMTIX
 70
     0
  9
$DIMSOXD
 70
     0
  9
$DIMSAH
 70
     0
  9
$DIMBLK1
  1

  9
$DIMBLK2
  1

  9
$DIMSTYLE
  2
ISO-25
  9
$DIMCLRD
 70
     0
  9
$DIMCLRE
 70
     0
  9
$DIMCLRT
 70
     0
  9
$DIMTFAC
 40
1.0
  9
$DIMGAP
 40
1.524
  9
$LUNITS
 70
     2
  9
$LUPREC
 70
     2
  9
$SKETCHINC
 40
1.0
  9
$FILLETRAD
 40
10.0
  9
$AUNITS
 70
     0
  9
$AUPREC
 70
     2
  9
$MENU
  1
.
  9
$ELEVATION
 40
0.0
  9
$PELEVATION
 40
0.0
  9
$THICKNESS
 40
0.0
  9
$LIMCHECK
 70
     0
  9
$CHAMFERA
 40
10.0
  9
$CHAMFERB
 40
10.0
  9
$SKPOLY
 70
     0
  9
$TDCREATE
 40
2456427.348798484
  9
$TDUPDATE
 40
2456427.348798669
  9
$TDINDWG
 40
0.0000000116
  9
$TDUSRTIMER
 40
0.0000000116
  9
$USRTIMER
 70
     1
  9
$ANGBASE
 50
0.0
  9
$ANGDIR
 70
     0
  9
$PDMODE
 70
     0
  9
$PDSIZE
 40
-1.0
  9
$PLINEWID
 40
0.0
  9
$COORDS
 70
     1
  9
$SPLFRAME
 70
     0
  9
$SPLINETYPE
 70
     6
  9
$SPLINESEGS
 70
     8
  9
$ATTDIA
 70
     0
  9
$ATTREQ
 70
     1
  9
$HANDLING
 70
     1
  9
$HANDSEED
  5
EC
  9
$SURFTAB1
 70
     6
  9
$SURFTAB2
 70
     6
  9
$SURFTYPE
 70
     6
  9
$SURFU
 70
     6
  9
$SURFV
 70
     6
  9
$UCSNAME
  2

  9
$UCSORG
 10
0.0
 20
0.0
 30
0.0
  9
$UCSXDIR
 10
1.0
 20
0.0
 30
0.0
  9
$UCSYDIR
 10
0.0
 20
1.0
 30
0.0
  9
$PUCSNAME
  2

  9
$PUCSORG
 10
0.0
 20
0.0
 30
0.0
  9
$PUCSXDIR
 10
1.0
 20
0.0
 30
0.0
  9
$PUCSYDIR
 10
0.0
 20
1.0
 30
0.0
  9
$USERI1
 70
     0
  9
$USERI2
 70
     0
  9
$USERI3
 70
     0
  9
$USERI4
 70
     0
  9
$USERI5
 70
     0
  9
$USERR1
 40
0.0
  9
$USERR2
 40
0.0
  9
$USERR3
 40
0.0
  9
$USERR4
 40
0.0
  9
$USERR5
 40
0.0
  9
$WORLDVIEW
 70
     1
  9
$SHADEDGE
 70
     3
  9
$SHADEDIF
 70
    70
  9
$TILEMODE
 70
     1
  9
$MAXACTVP
 70
    64
  9
$PLIMCHECK
 70
     0
  9
$PEXTMIN
 10
1.0000000000E+20
 20
1.0000000000E+20
 30
1.0000000000E+20
  9
$PEXTMAX
 10
-1.0000000000E+20
 20
-1.0000000000E+20
 30
-1.0000000000E+20
  9
$PLIMMIN
 10
0.0
 20
0.0
  9
$PLIMMAX
 10
420.0
 20
297.0
  9
$UNITMODE
 70
     0
  9
$VISRETAIN
 70
     1
  9
$PLINEGEN
 70
     0
  9
$PSLTSCALE
 70
     1
  0
ENDSEC
  0
SECTION
  2
TABLES
  0
TABLE
  2
VPORT
 70
     1
  0
VPORT
  2
*ACTIVE
 70
     0
 10
0.0
 20
0.0
 11
1.0
 21
1.0
 12
148.5
 22
210.0
 13
0.0
 23
0.0
 14
10.0
 24
10.0
 15
10.0
 25
10.0
 16
0.0
 26
0.0
 36
1.0
 17
0.0
 27
0.0
 37
0.0
 40
420.0
 41
0.7071428571
 42
50.0
 43
0.0
 44
0.0
 50
0.0
 51
0.0
 71
     0
 72
  2000
 73
     1
 74
     3
 75
     0
 76
     0
 77
     0
 78
     0
  0
ENDTAB
  0
TABLE
  2
LTYPE
 70
     6
  0
LTYPE
  2
CONTINUOUS
 70
     0
  3
Solid line
 72
    65
 73
     0
 40
0.0
  0
LTYPE
  2
HIDDEN
 70
     0
  3
Hidden __ __ __ __ __ __ __ __ __ __ __ __ __ __
 72
    65
 73
     2
 40
1.905
 49
1.27
 49
-0.635
  0
LTYPE
  2
PHANTOM
 70
     0
  3
Phantom ______  __  __  ______  __  __  ______
 72
    65
 73
     6
 40
12.7
 49
6.35
 49
-1.27
 49
1.27
 49
-1.27
 49
1.27
 49
-1.27
  0
LTYPE
  2
CENTER
 70
     0
  3
Center ____ _ ____ _ ____ _ ____ _ ____ _ ____
 72
    65
 73
     4
 40
10.16
 49
6.35
 49
-1.27
 49
1.27
 49
-1.27
  0
LTYPE
  2
CENTERX2
 70
     0
  3
Center (2x) ________  __  ________  __  _____
 72
    65
 73
     4
 40
20.32
 49
12.7
 49
-2.54
 49
2.54
 49
-2.54
  0
LTYPE
  2
DOT2
 70
     0
  3
Dot (.5x) ........................................
 72
    65
 73
     2
 40
0.635
 49
0.0
 49
-0.635
  0
ENDTAB
  0
TABLE
  2
LAYER
 70
     1
  0
LAYER
  2
0
 70
     0
 62
     7
  6
CONTINUOUS
  0
ENDTAB
  0
TABLE
  2
STYLE
 70
     1
  0
STYLE
  2
STANDARD
 70
     0
 40
0.0
 41
1.0
 50
0.0
 71
     0
 42
3.5
  3
txt
  4

  0
ENDTAB
  0
TABLE
  2
VIEW
 70
     0
  0
ENDTAB
  0
TABLE
  2
UCS
 70
     0
  0
ENDTAB
  0
TABLE
  2
APPID
 70
     1
  0
APPID
  2
ACAD
 70
     0
  0
ENDTAB
  0
TABLE
  2
DIMSTYLE
 70
     1
  0
DIMSTYLE
  2
ISO-25
 70
     0
  3

  4

  5

  6

  7

 40
1.0
 41
2.5
 42
0.625
 43
3.75
 44
1.25
 45
0.0
 46
0.0
 47
0.0
 48
0.0
140
2.5
141
2.5
142
0.0
143
0.0393700787
144
1.0
145
0.0
146
1.0
147
0.625
 71
     0
 72
     0
 73
     0
 74
     0
 75
     0
 76
     0
 77
     1
 78
     8
170
     0
171
     3
172
     1
173
     0
174
     0
175
     0
176
     0
177
     0
178
     0
  0
ENDTAB
  0
ENDSEC
  0
SECTION
  2
BLOCKS
  0
BLOCK
  8
0
  2
$MODEL_SPACE
 70
     0
 10
0.0
 20
0.0
 30
0.0
  3
$MODEL_SPACE
  1

  0
ENDBLK
  5
21
  8
0
  0
BLOCK
 67
     1
  8
0
  2
$PAPER_SPACE
 70
     0
 10
0.0
 20
0.0
 30
0.0
  3
$PAPER_SPACE
  1

  0
ENDBLK
  5
1D
 67
     1
  8
0
  0
ENDSEC
  0
SECTION
  2
ENTITIES
  0
CIRCLE
  5
44
  8
0
  6
CONTINUOUS
 62
     7
 10
27.93371607
 20
260.983270566
 30
0.0
 40
0.5
  0
CIRCLE
  5
45
  8
0
  6
CONTINUOUS
 62
     7
 10
101.2725508431
 20
334.322105339
 30
0.0
 40
0.5000000003968523
  0
CIRCLE
  5
46
  8
0
  6
CONTINUOUS
 62
     7
 10
272.5456747929
 20
260.983270566
 30
0.0
 40
0.5000000000006821
  0
CIRCLE
  5
47
  8
0
  6
CONTINUOUS
 62
     7
 10
199.2068400199
 20
334.322105339
 30
0.0
 40
0.500000000376474
  0
CIRCLE
  5
48
  8
0
  6
CONTINUOUS
 62
     7
 10
23.2396954328
 20
67.6935919834
 30
0.0
 40
0.4999999999999432
  0
CIRCLE
  5
49
  8
0
  6
CONTINUOUS
 62
     7
 10
23.2396954328
 20
146.4435919834
 30
0.0
 40
0.4999999999999432
  0
CIRCLE
  5
4A
  8
0
  6
CONTINUOUS
 62
     7
 10
23.2396954328
 20
249.9056345184
 30
0.0
 40
0.4999999999998046
  0
CIRCLE
  5
4B
  8
0
  6
CONTINUOUS
 62
     7
 10
277.2396954302
 20
249.9056345184
 30
0.0
 40
0.4999999999998863
  0
CIRCLE
  5
4C
  8
0
  6
CONTINUOUS
 62
     7
 10
277.2396954302
 20
146.4435919834
 30
0.0
 40
0.5
  0
ARC
  5
4D
  8
0
  6
CONTINUOUS
 62
     7
 10
41.7396954325
 20
73.1935919834
 30
0.0
 40
1.5
 50
180.0
 51
270.0
  0
LINE
  5
4E
  8
0
  6
CONTINUOUS
 62
     7
 10
41.7396954325
 20
71.6935919834
 30
0.0
 11
85.7396954325
 21
71.6935919834
 31
0.0
  0
ARC
  5
4F
  8
0
  6
CONTINUOUS
 62
     7
 10
85.7396954325
 20
73.1935919834
 30
0.0
 40
1.5
 50
270.0
 51
0.0
  0
LINE
  5
50
  8
0
  6
CONTINUOUS
 62
     7
 10
87.2396954325
 20
73.1935919834
 30
0.0
 11
87.2396954325
 21
86.1935919834
 31
0.0
  0
ARC
  5
51
  8
0
  6
CONTINUOUS
 62
     7
 10
85.7396954325
 20
86.1935919834
 30
0.0
 40
1.5
 50
0.0
 51
90.0
  0
LINE
  5
52
  8
0
  6
CONTINUOUS
 62
     7
 10
85.7396954325
 20
87.6935919834
 30
0.0
 11
41.7396954325
 21
87.6935919834
 31
0.0
  0
ARC
  5
53
  8
0
  6
CONTINUOUS
 62
     7
 10
41.7396954325
 20
86.1935919834
 30
0.0
 40
1.5
 50
90.0
 51
180.0
  0
LINE
  5
54
  8
0
  6
CONTINUOUS
 62
     7
 10
40.2396954325
 20
86.1935919834
 30
0.0
 11
40.2396954325
 21
73.1935919834
 31
0.0
  0
ARC
  5
55
  8
0
  6
CONTINUOUS
 62
     7
 10
24.7093653469
 20
105.7239220693
 30
0.0
 40
0.7500000000000137
 50
224.9999999983
 51
45.0000000002
  0
LINE
  5
56
  8
0
  6
CONTINUOUS
 62
     7
 10
25.2396954328
 20
131.6329318116
 30
0.0
 11
25.2396954328
 21
106.2542521552
 31
0.0
  0
ARC
  5
57
  8
0
  6
CONTINUOUS
 62
     7
 10
24.7093653469
 20
132.1632618975
 30
0.0
 40
0.7500000000268107
 50
315.0000000009
 51
135.0000000009
  0
LINE
  5
58
  8
0
  6
CONTINUOUS
 62
     7
 10
21.2396954327
 20
132.6935919834
 30
0.0
 11
24.179035261
 21
132.6935919834
 31
0.0
  0
LINE
  5
59
  8
0
  6
CONTINUOUS
 62
     7
 10
21.2396954327
 20
160.1935919834
 30
0.0
 11
21.2396954327
 21
132.6935919834
 31
0.0
  0
LINE
  5
5A
  8
0
  6
CONTINUOUS
 62
     7
 10
24.1790352609
 20
160.1935919834
 30
0.0
 11
21.2396954327
 21
160.1935919834
 31
0.0
  0
ARC
  5
5B
  8
0
  6
CONTINUOUS
 62
     7
 10
24.7093653468
 20
160.7239220693
 30
0.0
 40
0.7499999999766406
 50
224.999999999
 51
45.0
  0
LINE
  5
5C
  8
0
  6
CONTINUOUS
 62
     7
 10
25.2396954327
 20
186.6329318117
 30
0.0
 11
25.2396954327
 21
161.2542521552
 31
0.0
  0
ARC
  5
5D
  8
0
  6
CONTINUOUS
 62
     7
 10
24.7093653468
 20
187.1632618975
 30
0.0
 40
0.7499999999783639
 50
314.9999999997
 51
134.9999999997
  0
LINE
  5
5E
  8
0
  6
CONTINUOUS
 62
     7
 10
21.2396954327
 20
187.6935919834
 30
0.0
 11
24.179035261
 21
187.6935919834
 31
0.0
  0
LINE
  5
5F
  8
0
  6
CONTINUOUS
 62
     7
 10
21.2396954327
 20
215.1935919834
 30
0.0
 11
21.2396954327
 21
187.6935919834
 31
0.0
  0
LINE
  5
60
  8
0
  6
CONTINUOUS
 62
     7
 10
24.179035261
 20
215.1935919834
 30
0.0
 11
21.2396954327
 21
215.1935919834
 31
0.0
  0
ARC
  5
61
  8
0
  6
CONTINUOUS
 62
     7
 10
24.7093653469
 20
215.7239220693
 30
0.0
 40
0.7499999999897464
 50
224.9999999987
 51
44.9999999986
  0
LINE
  5
62
  8
0
  6
CONTINUOUS
 62
     7
 10
25.2396954327
 20
241.6329318117
 30
0.0
 11
25.2396954327
 21
216.2542521552
 31
0.0
  0
ARC
  5
63
  8
0
  6
CONTINUOUS
 62
     7
 10
24.7093653469
 20
242.1632618976
 30
0.0
 40
0.7499999999788588
 50
315.0000000016
 51
135.0000000015
  0
LINE
  5
64
  8
0
  6
CONTINUOUS
 62
     7
 10
21.2396954327
 20
242.6935919834
 30
0.0
 11
24.179035261
 21
242.6935919834
 31
0.0
  0
LINE
  5
65
  8
0
  6
CONTINUOUS
 62
     7
 10
21.2396954327
 20
257.1176770534
 30
0.0
 11
21.2396954327
 21
242.6935919834
 31
0.0
  0
LINE
  5
66
  8
0
  6
CONTINUOUS
 62
     7
 10
31.7993095826
 20
267.6772912033
 30
0.0
 11
21.2396954327
 21
257.1176770534
 31
0.0
  0
LINE
  5
67
  8
0
  6
CONTINUOUS
 62
     7
 10
33.8777367067
 20
265.5988640791
 30
0.0
 11
31.7993095826
 21
267.6772912033
 31
0.0
  0
ARC
  5
68
  8
0
  6
CONTINUOUS
 62
     7
 10
34.6277367068
 20
265.5988640792
 30
0.0
 40
0.750000000073122
 50
180.0000000049
 51
0.0000000049
  0
LINE
  5
69
  8
0
  6
CONTINUOUS
 62
     7
 10
53.3231731895
 20
283.5443005619
 30
0.0
 11
35.3777367069
 21
265.5988640793
 31
0.0
  0
ARC
  5
6A
  8
0
  6
CONTINUOUS
 62
     7
 10
53.3231731894
 20
284.2943005618
 30
0.0
 40
0.7499999999388933
 50
270.0000000052
 51
90.0000000052
  0
LINE
  5
6B
  8
0
  6
CONTINUOUS
 62
     7
 10
51.2447460652
 20
287.1227276859
 30
0.0
 11
53.3231731894
 21
285.0443005618
 31
0.0
  0
LINE
  5
6C
  8
0
  6
CONTINUOUS
 62
     7
 10
70.6901825479
 20
306.5681641685
 30
0.0
 11
51.2447460652
 21
287.1227276859
 31
0.0
  0
LINE
  5
6D
  8
0
  6
CONTINUOUS
 62
     7
 10
72.7686096719
 20
304.4897370444
 30
0.0
 11
70.6901825479
 21
306.5681641685
 31
0.0
  0
ARC
  5
6E
  8
0
  6
CONTINUOUS
 62
     7
 10
73.518609672
 20
304.4897370445
 30
0.0
 40
0.7500000000922995
 50
180.0000000033
 51
0.0000000033
  0
LINE
  5
6F
  8
0
  6
CONTINUOUS
 62
     7
 10
92.2140461548
 20
322.4351735271
 30
0.0
 11
74.2686096721
 21
304.4897370445
 31
0.0
  0
ARC
  5
70
  8
0
  6
CONTINUOUS
 62
     7
 10
92.2140461591
 20
323.1851735315
 30
0.0
 40
0.7500000044036597
 50
269.9999996673
 51
89.9999996673
  0
LINE
  5
71
  8
0
  6
CONTINUOUS
 62
     7
 10
90.1356190394
 20
326.01360066
 30
0.0
 11
92.2140461635
 21
323.9351735359
 31
0.0
  0
LINE
  5
72
  8
0
  6
CONTINUOUS
 62
     7
 10
109.581055522
 20
345.4590371427
 30
0.0
 11
90.1356190394
 21
326.01360066
 31
0.0
  0
LINE
  5
73
  8
0
  6
CONTINUOUS
 62
     7
 10
111.6594826458
 20
343.3806100189
 30
0.0
 11
109.581055522
 21
345.4590371427
 31
0.0
  0
ARC
  5
74
  8
0
  6
CONTINUOUS
 62
     7
 10
112.4094826416
 20
343.3806100143
 30
0.0
 40
0.7499999957902901
 50
179.999999653
 51
359.999999653
  0
LINE
  5
75
  8
0
  6
CONTINUOUS
 62
     7
 10
131.10491912
 20
361.3260464924
 30
0.0
 11
113.1594826374
 21
343.3806100098
 31
0.0
  0
ARC
  5
76
  8
0
  6
CONTINUOUS
 62
     7
 10
131.1049191244
 20
362.0760464967
 30
0.0
 40
0.7500000043430077
 50
269.9999996613
 51
89.9999996613
  0
LINE
  5
77
  8
0
  6
CONTINUOUS
 62
     7
 10
129.0264919959
 20
364.9044736165
 30
0.0
 11
131.1049191289
 21
362.8260465011
 31
0.0
  0
LINE
  5
78
  8
0
  6
CONTINUOUS
 62
     7
 10
210.3437718236
 20
326.01360066
 30
0.0
 11
190.8983353409
 21
345.4590371427
 31
0.0
  0
LINE
  5
79
  8
0
  6
CONTINUOUS
 62
     7
 10
208.2653446995
 20
323.9351735359
 30
0.0
 11
210.3437718236
 21
326.01360066
 31
0.0
  0
ARC
  5
7A
  8
0
  6
CONTINUOUS
 62
     7
 10
208.2653447038
 20
323.1851735315
 30
0.0
 40
0.7500000044036028
 50
90.0000003327
 51
270.0000003327
  0
LINE
  5
7B
  8
0
  6
CONTINUOUS
 62
     7
 10
226.2107811908
 20
304.4897370445
 30
0.0
 11
208.2653447082
 21
322.4351735271
 31
0.0
  0
ARC
  5
7C
  8
0
  6
CONTINUOUS
 62
     7
 10
226.9607811909
 20
304.4897370445
 30
0.0
 40
0.7500000000925127
 50
179.9999999967
 51
359.9999999967
  0
LINE
  5
7D
  8
0
  6
CONTINUOUS
 62
     7
 10
229.7892083151
 20
306.5681641685
 30
0.0
 11
227.710781191
 21
304.4897370444
 31
0.0
  0
LINE
  5
7E
  8
0
  6
CONTINUOUS
 62
     7
 10
249.2346447977
 20
287.1227276859
 30
0.0
 11
229.7892083151
 21
306.5681641685
 31
0.0
  0
LINE
  5
7F
  8
0
  6
CONTINUOUS
 62
     7
 10
247.1562176736
 20
285.0443005618
 30
0.0
 11
249.2346447977
 21
287.1227276859
 31
0.0
  0
ARC
  5
80
  8
0
  6
CONTINUOUS
 62
     7
 10
247.1562176735
 20
284.2943005618
 30
0.0
 40
0.7499999999388365
 50
89.9999999948
 51
269.9999999948
  0
LINE
  5
81
  8
0
  6
CONTINUOUS
 62
     7
 10
265.1016541561
 20
265.5988640793
 30
0.0
 11
247.1562176735
 21
283.5443005619
 31
0.0
  0
ARC
  5
82
  8
0
  6
CONTINUOUS
 62
     7
 10
265.8516541562
 20
265.5988640792
 30
0.0
 40
0.7500000000733849
 50
179.9999999951
 51
359.9999999951
  0
LINE
  5
83
  8
0
  6
CONTINUOUS
 62
     7
 10
268.6800812804
 20
267.6772912033
 30
0.0
 11
266.6016541562
 21
265.5988640791
 31
0.0
  0
LINE
  5
84
  8
0
  6
CONTINUOUS
 62
     7
 10
279.2396954302
 20
257.1176770534
 30
0.0
 11
268.6800812804
 21
267.6772912033
 31
0.0
  0
LINE
  5
85
  8
0
  6
CONTINUOUS
 62
     7
 10
279.2396954302
 20
242.6935919834
 30
0.0
 11
279.2396954302
 21
257.1176770534
 31
0.0
  0
LINE
  5
86
  8
0
  6
CONTINUOUS
 62
     7
 10
276.300355602
 20
242.6935919834
 30
0.0
 11
279.2396954302
 21
242.6935919834
 31
0.0
  0
ARC
  5
87
  8
0
  6
CONTINUOUS
 62
     7
 10
275.7700255161
 20
242.1632618976
 30
0.0
 40
0.7499999999786829
 50
44.9999999985
 51
224.9999999984
  0
LINE
  5
88
  8
0
  6
CONTINUOUS
 62
     7
 10
275.2396954302
 20
216.2542521552
 30
0.0
 11
275.2396954302
 21
241.6329318117
 31
0.0
  0
ARC
  5
89
  8
0
  6
CONTINUOUS
 62
     7
 10
275.7700255161
 20
215.7239220693
 30
0.0
 40
0.749999999988209
 50
135.0000000014
 51
315.0000000013
  0
LINE
  5
8A
  8
0
  6
CONTINUOUS
 62
     7
 10
279.2396954302
 20
215.1935919834
 30
0.0
 11
276.300355602
 21
215.1935919834
 31
0.0
  0
LINE
  5
8B
  8
0
  6
CONTINUOUS
 62
     7
 10
279.2396954302
 20
187.6935919834
 30
0.0
 11
279.2396954302
 21
215.1935919834
 31
0.0
  0
LINE
  5
8C
  8
0
  6
CONTINUOUS
 62
     7
 10
276.300355602
 20
187.6935919834
 30
0.0
 11
279.2396954302
 21
187.6935919834
 31
0.0
  0
ARC
  5
8D
  8
0
  6
CONTINUOUS
 62
     7
 10
275.7700255161
 20
187.1632618975
 30
0.0
 40
0.7499999999784016
 50
45.0000000003
 51
225.0000000003
  0
LINE
  5
8E
  8
0
  6
CONTINUOUS
 62
     7
 10
275.2396954303
 20
161.2542521552
 30
0.0
 11
275.2396954303
 21
186.6329318117
 31
0.0
  0
ARC
  5
8F
  8
0
  6
CONTINUOUS
 62
     7
 10
275.7700255161
 20
160.7239220693
 30
0.0
 40
0.7499999999766732
 50
135.0
 51
315.000000001
  0
LINE
  5
90
  8
0
  6
CONTINUOUS
 62
     7
 10
279.2396954302
 20
160.1935919834
 30
0.0
 11
276.300355602
 21
160.1935919834
 31
0.0
  0
LINE
  5
91
  8
0
  6
CONTINUOUS
 62
     7
 10
279.2396954302
 20
132.6935919834
 30
0.0
 11
279.2396954302
 21
160.1935919834
 31
0.0
  0
LINE
  5
92
  8
0
  6
CONTINUOUS
 62
     7
 10
276.300355602
 20
132.6935919834
 30
0.0
 11
279.2396954302
 21
132.6935919834
 31
0.0
  0
ARC
  5
93
  8
0
  6
CONTINUOUS
 62
     7
 10
275.7700255161
 20
132.1632618975
 30
0.0
 40
0.7500000000318802
 50
44.9999999991
 51
224.9999999991
  0
LINE
  5
94
  8
0
  6
CONTINUOUS
 62
     7
 10
275.2396954301
 20
106.2542521552
 30
0.0
 11
275.2396954301
 21
131.6329318116
 31
0.0
  0
ARC
  5
95
  8
0
  6
CONTINUOUS
 62
     7
 10
275.770025516
 20
105.7239220693
 30
0.0
 40
0.7500000000016138
 50
134.9999999998
 51
315.0000000017
  0
LINE
  5
96
  8
0
  6
CONTINUOUS
 62
     7
 10
279.2396954302
 20
105.1935919834
 30
0.0
 11
276.3003556019
 21
105.1935919834
 31
0.0
  0
LINE
  5
97
  8
0
  6
CONTINUOUS
 62
     7
 10
279.2396954302
 20
55.1935919834
 30
0.0
 11
279.2396954302
 21
105.1935919834
 31
0.0
  0
LINE
  5
98
  8
0
  6
CONTINUOUS
 62
     7
 10
21.2396954327
 20
55.1935919834
 30
0.0
 11
279.2396954302
 21
55.1935919834
 31
0.0
  0
LINE
  5
99
  8
0
  6
CONTINUOUS
 62
     7
 10
21.2396954327
 20
105.1935919834
 30
0.0
 11
21.2396954327
 21
55.1935919834
 31
0.0
  0
CIRCLE
  5
9A
  8
0
  6
CONTINUOUS
 62
     7
 10
277.2396954302
 20
92.6935919834
 30
0.0
 40
0.5
  0
CIRCLE
  5
9B
  8
0
  6
CONTINUOUS
 62
     7
 10
277.2396954302
 20
201.4435919834
 30
0.0
 40
0.4999999999999432
  0
CIRCLE
  5
9C
  8
0
  6
CONTINUOUS
 62
     7
 10
277.2396954302
 20
67.6935919834
 30
0.0
 40
0.5
  0
CIRCLE
  5
9D
  8
0
  6
CONTINUOUS
 62
     7
 10
23.2396954328
 20
201.4435919834
 30
0.0
 40
0.5000000000000568
  0
CIRCLE
  5
9E
  8
0
  6
CONTINUOUS
 62
     7
 10
23.2396954328
 20
92.6935919834
 30
0.0
 40
0.4999999999999432
  0
CIRCLE
  5
9F
  8
0
  6
CONTINUOUS
 62
     7
 10
159.4320835869
 20
374.0968617719
 30
0.0
 40
0.4999999999999716
  0
CIRCLE
  5
A0
  8
0
  6
CONTINUOUS
 62
     7
 10
238.097712994
 20
295.4312323648
 30
0.0
 40
0.499999999987665
  0
CIRCLE
  5
A1
  8
0
  6
CONTINUOUS
 62
     7
 10
141.047307276
 20
374.0968617719
 30
0.0
 40
0.5
  0
CIRCLE
  5
A2
  8
0
  6
CONTINUOUS
 62
     7
 10
62.3816778689
 20
295.4312323648
 30
0.0
 40
0.4999999999869971
  0
LINE
  5
A3
  8
0
  6
CONTINUOUS
 62
     7
 10
29.8003556046
 20
102.6935919834
 30
0.0
 11
113.2859600341
 21
102.6935919834
 31
0.0
  0
ARC
  5
A4
  8
0
  6
CONTINUOUS
 62
     7
 10
113.81629012
 20
103.2239220693
 30
0.0
 40
0.7500000000000061
 50
225.0
 51
45.0
  0
LINE
  5
A5
  8
0
  6
CONTINUOUS
 62
     7
 10
114.3466202058
 20
103.7542521552
 30
0.0
 11
114.3466202058
 21
245.0839519748
 31
0.0
  0
ARC
  5
A6
  8
0
  6
CONTINUOUS
 62
     7
 10
113.81629012
 20
245.6142820607
 30
0.0
 40
0.7500000000000061
 50
315.0
 51
135.0
  0
LINE
  5
A7
  8
0
  6
CONTINUOUS
 62
     7
 10
113.2859600341
 20
246.1446121466
 30
0.0
 11
29.8003556045
 21
246.1446121466
 31
0.0
  0
ARC
  5
A8
  8
0
  6
CONTINUOUS
 62
     7
 10
29.2700255186
 20
245.6142820607
 30
0.0
 40
0.7500000000037065
 50
44.9999999997
 51
224.9999999997
  0
LINE
  5
A9
  8
0
  6
CONTINUOUS
 62
     7
 10
28.7396954327
 20
245.0839519748
 30
0.0
 11
28.7396954327
 21
103.7542521553
 31
0.0
  0
ARC
  5
AA
  8
0
  6
CONTINUOUS
 62
     7
 10
29.2700255187
 20
103.2239220693
 30
0.0
 40
0.7500000000343271
 50
135.0
 51
315.0
  0
LINE
  5
AB
  8
0
  6
CONTINUOUS
 62
     7
 10
270.6790352584
 20
246.1446121466
 30
0.0
 11
187.1934308289
 21
246.1446121466
 31
0.0
  0
ARC
  5
AC
  8
0
  6
CONTINUOUS
 62
     7
 10
186.663100743
 20
245.6142820607
 30
0.0
 40
0.7500000000000262
 50
45.0
 51
225.0
  0
LINE
  5
AD
  8
0
  6
CONTINUOUS
 62
     7
 10
186.1327706571
 20
245.0839519748
 30
0.0
 11
186.1327706571
 21
103.7542521552
 31
0.0
  0
ARC
  5
AE
  8
0
  6
CONTINUOUS
 62
     7
 10
186.663100743
 20
103.2239220693
 30
0.0
 40
0.7500000000000161
 50
135.0
 51
315.0
  0
LINE
  5
AF
  8
0
  6
CONTINUOUS
 62
     7
 10
187.1934308289
 20
102.6935919834
 30
0.0
 11
270.6790352584
 21
102.6935919834
 31
0.0
  0
ARC
  5
B0
  8
0
  6
CONTINUOUS
 62
     7
 10
271.2093653443
 20
103.2239220693
 30
0.0
 40
0.7500000000343622
 50
225.0
 51
45.0
  0
LINE
  5
B1
  8
0
  6
CONTINUOUS
 62
     7
 10
271.7396954302
 20
103.7542521553
 30
0.0
 11
271.7396954302
 21
245.0839519748
 31
0.0
  0
ARC
  5
B2
  8
0
  6
CONTINUOUS
 62
     7
 10
271.2093653443
 20
245.6142820607
 30
0.0
 40
0.750000000003724
 50
315.0000000003
 51
135.0000000003
  0
LINE
  5
B3
  8
0
  6
CONTINUOUS
 62
     7
 10
160.908443092
 20
365.5113983907
 30
0.0
 11
139.5709477709
 21
365.5113983907
 31
0.0
  0
LINE
  5
B4
  8
0
  6
CONTINUOUS
 62
     7
 10
139.5709477709
 20
365.5113983907
 30
0.0
 11
27.8910863017
 21
253.7046700405
 31
0.0
  0
ARC
  5
B5
  8
0
  6
CONTINUOUS
 62
     7
 10
28.9523484086
 20
252.6446121457
 30
0.0
 40
1.500000000000008
 50
135.0325251554
 51
270.0
  0
LINE
  5
B6
  8
0
  6
CONTINUOUS
 62
     7
 10
28.9523484086
 20
251.1446121457
 30
0.0
 11
271.5270424543
 21
251.1446121457
 31
0.0
  0
ARC
  5
B7
  8
0
  6
CONTINUOUS
 62
     7
 10
271.5270424543
 20
252.6446121457
 30
0.0
 40
1.499999999999998
 50
270.0
 51
44.9674748446
  0
LINE
  5
B8
  8
0
  6
CONTINUOUS
 62
     7
 10
272.5883045612
 20
253.7046700405
 30
0.0
 11
160.908443092
 21
365.5113983907
 31
0.0
  0
LINE
  5
B9
  8
0
  6
CONTINUOUS
 62
     7
 10
120.4072803776
 20
102.6935919834
 30
0.0
 11
180.0721104853
 21
102.6935919834
 31
0.0
  0
ARC
  5
BA
  8
0
  6
CONTINUOUS
 62
     7
 10
180.6024405712
 20
103.2239220693
 30
0.0
 40
0.7500000000000161
 50
225.0
 51
45.0
  0
LINE
  5
BB
  8
0
  6
CONTINUOUS
 62
     7
 10
181.1327706571
 20
103.7542521552
 30
0.0
 11
181.1327706571
 21
245.0839519748
 31
0.0
  0
ARC
  5
BC
  8
0
  6
CONTINUOUS
 62
     7
 10
180.6024405712
 20
245.6142820607
 30
0.0
 40
0.7500000000000061
 50
315.0
 51
135.0
  0
LINE
  5
BD
  8
0
  6
CONTINUOUS
 62
     7
 10
180.0721104853
 20
246.1446121466
 30
0.0
 11
120.4072803776
 21
246.1446121466
 31
0.0
  0
ARC
  5
BE
  8
0
  6
CONTINUOUS
 62
     7
 10
119.8769502917
 20
245.6142820607
 30
0.0
 40
0.7500000000000061
 50
45.0
 51
225.0
  0
LINE
  5
BF
  8
0
  6
CONTINUOUS
 62
     7
 10
119.3466202058
 20
245.0839519748
 30
0.0
 11
119.3466202058
 21
103.7542521552
 31
0.0
  0
ARC
  5
C0
  8
0
  6
CONTINUOUS
 62
     7
 10
119.8769502917
 20
103.2239220693
 30
0.0
 40
0.7500000000000061
 50
135.0
 51
315.0
  0
CIRCLE
  5
C1
  8
0
  6
CONTINUOUS
 62
     7
 10
101.6958894218
 20
79.6963306507
 30
0.0
 40
6.000000002685297
  0
LINE
  5
C2
  8
0
  6
CONTINUOUS
 62
     7
 10
150.2396954315
 20
386.1176770521
 30
0.0
 11
129.0264919959
 21
364.9044736165
 31
0.0
  0
LINE
  5
C3
  8
0
  6
CONTINUOUS
 62
     7
 10
171.4528988671
 20
364.9044736165
 30
0.0
 11
150.2396954315
 21
386.1176770521
 31
0.0
  0
LINE
  5
C4
  8
0
  6
CONTINUOUS
 62
     7
 10
169.3744717341
 20
362.8260465011
 30
0.0
 11
171.4528988671
 21
364.9044736165
 31
0.0
  0
ARC
  5
C5
  8
0
  6
CONTINUOUS
 62
     7
 10
169.3744717385
 20
362.0760464967
 30
0.0
 40
0.7500000043426667
 50
90.0000003387
 51
270.0000003387
  0
LINE
  5
C6
  8
0
  6
CONTINUOUS
 62
     7
 10
187.3199082256
 20
343.3806100098
 30
0.0
 11
169.3744717429
 21
361.3260464924
 31
0.0
  0
ARC
  5
C7
  8
0
  6
CONTINUOUS
 62
     7
 10
188.0699082213
 20
343.3806100143
 30
0.0
 40
0.7499999957902901
 50
180.000000347
 51
0.000000347
  0
LINE
  5
C8
  8
0
  6
CONTINUOUS
 62
     7
 10
190.8983353409
 20
345.4590371427
 30
0.0
 11
188.8199082171
 21
343.3806100189
 31
0.0
  0
LINE
  5
C9
  8
0
  6
CONTINUOUS
 62
     7
 10
24.179035261
 20
105.1935919834
 30
0.0
 11
21.2396954327
 21
105.1935919834
 31
0.0
  0
ARC
  5
CA
  8
0
  6
CONTINUOUS
 62
     7
 10
32.7396954327
 20
106.6935919834
 30
0.0
 40
1.5
 50
180.0
 51
270.0
  0
ARC
  5
CB
  8
0
  6
CONTINUOUS
 62
     7
 10
110.3466202058
 20
106.6935919834
 30
0.0
 40
1.5
 50
270.0
 51
0.0
  0
ARC
  5
CC
  8
0
  6
CONTINUOUS
 62
     7
 10
110.3466202058
 20
242.1446121466
 30
0.0
 40
1.5
 50
0.0
 51
90.0
  0
ARC
  5
CD
  8
0
  6
CONTINUOUS
 62
     7
 10
32.7396954327
 20
242.1446121466
 30
0.0
 40
1.5
 50
90.0
 51
180.0
  0
LINE
  5
CE
  8
0
  6
CONTINUOUS
 62
     7
 10
110.3466202058
 20
243.6446121466
 30
0.0
 11
32.7396954327
 21
243.6446121466
 31
0.0
  0
LINE
  5
CF
  8
0
  6
CONTINUOUS
 62
     7
 10
32.7396954327
 20
105.1935919834
 30
0.0
 11
110.3466202058
 21
105.1935919834
 31
0.0
  0
LINE
  5
D0
  8
0
  6
CONTINUOUS
 62
     7
 10
111.8466202058
 20
106.6935919834
 30
0.0
 11
111.8466202058
 21
242.1446121466
 31
0.0
  0
LINE
  5
D1
  8
0
  6
CONTINUOUS
 62
     7
 10
31.2396954327
 20
242.1446121466
 30
0.0
 11
31.2396954327
 21
106.6935919834
 31
0.0
  0
ARC
  5
D2
  8
0
  6
CONTINUOUS
 62
     7
 10
177.1327706571
 20
242.1446121466
 30
0.0
 40
1.5
 50
0.0
 51
90.0
  0
LINE
  5
D3
  8
0
  6
CONTINUOUS
 62
     7
 10
177.1327706571
 20
243.6446121466
 30
0.0
 11
123.3466202058
 21
243.6446121466
 31
0.0
  0
ARC
  5
D4
  8
0
  6
CONTINUOUS
 62
     7
 10
123.3466202058
 20
242.1446121466
 30
0.0
 40
1.5
 50
90.0
 51
180.0
  0
ARC
  5
D5
  8
0
  6
CONTINUOUS
 62
     7
 10
123.3466202058
 20
106.6935919834
 30
0.0
 40
1.5
 50
180.0
 51
270.0
  0
ARC
  5
D6
  8
0
  6
CONTINUOUS
 62
     7
 10
177.1327706571
 20
106.6935919834
 30
0.0
 40
1.5
 50
270.0
 51
0.0
  0
LINE
  5
D7
  8
0
  6
CONTINUOUS
 62
     7
 10
178.6327706571
 20
106.6935919834
 30
0.0
 11
178.6327706571
 21
242.1446121466
 31
0.0
  0
LINE
  5
D8
  8
0
  6
CONTINUOUS
 62
     7
 10
123.3466202058
 20
105.1935919834
 30
0.0
 11
177.1327706571
 21
105.1935919834
 31
0.0
  0
LINE
  5
D9
  8
0
  6
CONTINUOUS
 62
     7
 10
121.8466202058
 20
242.1446121466
 30
0.0
 11
121.8466202058
 21
106.6935919834
 31
0.0
  0
ARC
  5
DA
  8
0
  6
CONTINUOUS
 62
     7
 10
141.2278020204
 20
361.5113983907
 30
0.0
 40
1.500000000000057
 50
90.0
 51
135.0
  0
LINE
  5
DB
  8
0
  6
CONTINUOUS
 62
     7
 10
33.8003556045
 20
256.2052723184
 30
0.0
 11
140.1671418486
 21
362.5720585624
 31
0.0
  0
ARC
  5
DC
  8
0
  6
CONTINUOUS
 62
     7
 10
34.8610157763
 20
255.1446121466
 30
0.0
 40
1.500000000000042
 50
135.0
 51
270.0
  0
LINE
  5
DD
  8
0
  6
CONTINUOUS
 62
     7
 10
265.6183750866
 20
253.6446121466
 30
0.0
 11
34.8610157763
 21
253.6446121466
 31
0.0
  0
ARC
  5
DE
  8
0
  6
CONTINUOUS
 62
     7
 10
265.6183750866
 20
255.1446121466
 30
0.0
 40
1.500000000000012
 50
270.0
 51
45.0
  0
LINE
  5
DF
  8
0
  6
CONTINUOUS
 62
     7
 10
160.3122490143
 20
362.5720585624
 30
0.0
 11
266.6790352584
 21
256.2052723184
 31
0.0
  0
ARC
  5
E0
  8
0
  6
CONTINUOUS
 62
     7
 10
159.2515888426
 20
361.5113983907
 30
0.0
 40
1.500000000000057
 50
45.0
 51
90.0
  0
LINE
  5
E1
  8
0
  6
CONTINUOUS
 62
     7
 10
141.2278020204
 20
363.0113983907
 30
0.0
 11
159.2515888426
 21
363.0113983907
 31
0.0
  0
ARC
  5
E2
  8
0
  6
CONTINUOUS
 62
     7
 10
267.7396954302
 20
242.1446121466
 30
0.0
 40
1.500000000000057
 50
0.0
 51
90.0
  0
ARC
  5
E3
  8
0
  6
CONTINUOUS
 62
     7
 10
190.1327706571
 20
242.1446121466
 30
0.0
 40
1.5
 50
90.0
 51
180.0
  0
ARC
  5
E4
  8
0
  6
CONTINUOUS
 62
     7
 10
190.1327706571
 20
106.6935919834
 30
0.0
 40
1.500000000000014
 50
180.0
 51
270.0
  0
LINE
  5
E5
  8
0
  6
CONTINUOUS
 62
     7
 10
188.6327706571
 20
106.6935919834
 30
0.0
 11
188.6327706571
 21
242.1446121466
 31
0.0
  0
LINE
  5
E6
  8
0
  6
CONTINUOUS
 62
     7
 10
269.2396954302
 20
242.1446121466
 30
0.0
 11
269.2396954302
 21
106.6935919834
 31
0.0
  0
LINE
  5
E7
  8
0
  6
CONTINUOUS
 62
     7
 10
267.7396954302
 20
105.1935919834
 30
0.0
 11
190.1327706571
 21
105.1935919834
 31
0.0
  0
ARC
  5
E8
  8
0
  6
CONTINUOUS
 62
     7
 10
267.7396954302
 20
106.6935919834
 30
0.0
 40
1.5
 50
270.0
 51
0.0
  0
LINE
  5
E9
  8
0
  6
CONTINUOUS
 62
     7
 10
190.1327706571
 20
243.6446121466
 30
0.0
 11
267.7396954302
 21
243.6446121466
 31
0.0
  0
TEXT
  5
EA
  8
0
  6
CONTINUOUS
 62
     7
 10
0.0
 20
9.5222355241
 30
0.0
 40
5.1381
  1
Edition étudiante de SolidWorks.
 41
0.6671875
 11
0.0
 21
7.70715
 31
0.0
 73
     1
  0
TEXT
  5
EB
  8
0
  6
CONTINUOUS
 62
     7
 10
0.0
 20
1.8150855241
 30
0.0
 40
5.1381
  1
A usage universitaire uniquement.
 41
0.6681818182
 11
0.0
 21
0.0
 31
0.0
 73
     1
  0
ENDSEC
  0
EOF
