  0
SECTION
  2
HEADER
  9
$ACADVER
  1
AC1009
  9
$DWGCODEPAGE
  3
ansi_1252
  9
$INSBASE
 10
0.0
 20
0.0
 30
0.0
  9
$EXTMIN
 10
0.0
 20
0.0
 30
0.0
  9
$EXTMAX
 10
210.0
 20
297.0
 30
0.0
  9
$LIMMIN
 10
0.0
 20
0.0
  9
$LIMMAX
 10
210.0
 20
297.0
  9
$ORTHOMODE
 70
     0
  9
$REGENMODE
 70
     1
  9
$FILLMODE
 70
     1
  9
$QTEXTMODE
 70
     0
  9
$MIRRTEXT
 70
     1
  9
$DRAGMODE
 70
     2
  9
$LTSCALE
 40
1.0
  9
$OSMODE
 70
    37
  9
$ATTMODE
 70
     1
  9
$TEXTSIZE
 40
3.5
  9
$TRACEWID
 40
1.0
  9
$TEXTSTYLE
  7
STANDARD
  9
$CLAYER
  8
0
  9
$CELTYPE
  6
BYLAYER
  9
$CECOLOR
 62
   256
  9
$DIMSCALE
 40
1.0
  9
$DIMASZ
 40
3.302
  9
$DIMEXO
 40
1.0
  9
$DIMDLI
 40
3.75
  9
$DIMRND
 40
0.0
  9
$DIMDLE
 40
0.0
  9
$DIMEXE
 40
1.0
  9
$DIMTP
 40
0.0
  9
$DIMTM
 40
0.0
  9
$DIMTXT
 40
3.5
  9
$DIMCEN
 40
2.5
  9
$DIMTSZ
 40
0.0
  9
$DIMTOL
 70
     0
  9
$DIMLIM
 70
     0
  9
$DIMTIH
 70
     1
  9
$DIMTOH
 70
     1
  9
$DIMSE1
 70
     0
  9
$DIMSE2
 70
     0
  9
$DIMTAD
 70
     1
  9
$DIMZIN
 70
     0
  9
$DIMBLK
  1

  9
$DIMASO
 70
     1
  9
$DIMSHO
 70
     1
  9
$DIMPOST
  1

  9
$DIMAPOST
  1

  9
$DIMALT
 70
     0
  9
$DIMALTD
 70
     3
  9
$DIMALTF
 40
0.0393700787
  9
$DIMLFAC
 40
1.0
  9
$DIMTOFL
 70
     1
  9
$DIMTVP
 40
0.0
  9
$DIMTIX
 70
     0
  9
$DIMSOXD
 70
     0
  9
$DIMSAH
 70
     0
  9
$DIMBLK1
  1

  9
$DIMBLK2
  1

  9
$DIMSTYLE
  2
ISO-25
  9
$DIMCLRD
 70
     0
  9
$DIMCLRE
 70
     0
  9
$DIMCLRT
 70
     0
  9
$DIMTFAC
 40
1.0
  9
$DIMGAP
 40
1.524
  9
$LUNITS
 70
     2
  9
$LUPREC
 70
     2
  9
$SKETCHINC
 40
1.0
  9
$FILLETRAD
 40
10.0
  9
$AUNITS
 70
     0
  9
$AUPREC
 70
     2
  9
$MENU
  1
.
  9
$ELEVATION
 40
0.0
  9
$PELEVATION
 40
0.0
  9
$THICKNESS
 40
0.0
  9
$LIMCHECK
 70
     0
  9
$CHAMFERA
 40
10.0
  9
$CHAMFERB
 40
10.0
  9
$SKPOLY
 70
     0
  9
$TDCREATE
 40
2456430.618492882
  9
$TDUPDATE
 40
2456430.618493055
  9
$TDINDWG
 40
0.0000000116
  9
$TDUSRTIMER
 40
0.0000000116
  9
$USRTIMER
 70
     1
  9
$ANGBASE
 50
0.0
  9
$ANGDIR
 70
     0
  9
$PDMODE
 70
     0
  9
$PDSIZE
 40
-1.0
  9
$PLINEWID
 40
0.0
  9
$COORDS
 70
     1
  9
$SPLFRAME
 70
     0
  9
$SPLINETYPE
 70
     6
  9
$SPLINESEGS
 70
     8
  9
$ATTDIA
 70
     0
  9
$ATTREQ
 70
     1
  9
$HANDLING
 70
     1
  9
$HANDSEED
  5
291
  9
$SURFTAB1
 70
     6
  9
$SURFTAB2
 70
     6
  9
$SURFTYPE
 70
     6
  9
$SURFU
 70
     6
  9
$SURFV
 70
     6
  9
$UCSNAME
  2

  9
$UCSORG
 10
0.0
 20
0.0
 30
0.0
  9
$UCSXDIR
 10
1.0
 20
0.0
 30
0.0
  9
$UCSYDIR
 10
0.0
 20
1.0
 30
0.0
  9
$PUCSNAME
  2

  9
$PUCSORG
 10
0.0
 20
0.0
 30
0.0
  9
$PUCSXDIR
 10
1.0
 20
0.0
 30
0.0
  9
$PUCSYDIR
 10
0.0
 20
1.0
 30
0.0
  9
$USERI1
 70
     0
  9
$USERI2
 70
     0
  9
$USERI3
 70
     0
  9
$USERI4
 70
     0
  9
$USERI5
 70
     0
  9
$USERR1
 40
0.0
  9
$USERR2
 40
0.0
  9
$USERR3
 40
0.0
  9
$USERR4
 40
0.0
  9
$USERR5
 40
0.0
  9
$WORLDVIEW
 70
     1
  9
$SHADEDGE
 70
     3
  9
$SHADEDIF
 70
    70
  9
$TILEMODE
 70
     1
  9
$MAXACTVP
 70
    64
  9
$PLIMCHECK
 70
     0
  9
$PEXTMIN
 10
1.0000000000E+20
 20
1.0000000000E+20
 30
1.0000000000E+20
  9
$PEXTMAX
 10
-1.0000000000E+20
 20
-1.0000000000E+20
 30
-1.0000000000E+20
  9
$PLIMMIN
 10
0.0
 20
0.0
  9
$PLIMMAX
 10
420.0
 20
297.0
  9
$UNITMODE
 70
     0
  9
$VISRETAIN
 70
     1
  9
$PLINEGEN
 70
     0
  9
$PSLTSCALE
 70
     1
  0
ENDSEC
  0
SECTION
  2
TABLES
  0
TABLE
  2
VPORT
 70
     1
  0
VPORT
  2
*ACTIVE
 70
     0
 10
0.0
 20
0.0
 11
1.0
 21
1.0
 12
105.0
 22
148.5
 13
0.0
 23
0.0
 14
10.0
 24
10.0
 15
10.0
 25
10.0
 16
0.0
 26
0.0
 36
1.0
 17
0.0
 27
0.0
 37
0.0
 40
297.0
 41
0.7070707071
 42
50.0
 43
0.0
 44
0.0
 50
0.0
 51
0.0
 71
     0
 72
  2000
 73
     1
 74
     3
 75
     0
 76
     0
 77
     0
 78
     0
  0
ENDTAB
  0
TABLE
  2
LTYPE
 70
     6
  0
LTYPE
  2
CONTINUOUS
 70
     0
  3
Solid line
 72
    65
 73
     0
 40
0.0
  0
LTYPE
  2
HIDDEN
 70
     0
  3
Hidden __ __ __ __ __ __ __ __ __ __ __ __ __ __
 72
    65
 73
     2
 40
1.905
 49
1.27
 49
-0.635
  0
LTYPE
  2
PHANTOM
 70
     0
  3
Phantom ______  __  __  ______  __  __  ______
 72
    65
 73
     6
 40
12.7
 49
6.35
 49
-1.27
 49
1.27
 49
-1.27
 49
1.27
 49
-1.27
  0
LTYPE
  2
CENTER
 70
     0
  3
Center ____ _ ____ _ ____ _ ____ _ ____ _ ____
 72
    65
 73
     4
 40
10.16
 49
6.35
 49
-1.27
 49
1.27
 49
-1.27
  0
LTYPE
  2
CENTERX2
 70
     0
  3
Center (2x) ________  __  ________  __  _____
 72
    65
 73
     4
 40
20.32
 49
12.7
 49
-2.54
 49
2.54
 49
-2.54
  0
LTYPE
  2
DOT2
 70
     0
  3
Dot (.5x) ........................................
 72
    65
 73
     2
 40
0.635
 49
0.0
 49
-0.635
  0
ENDTAB
  0
TABLE
  2
LAYER
 70
     1
  0
LAYER
  2
0
 70
     0
 62
     7
  6
CONTINUOUS
  0
ENDTAB
  0
TABLE
  2
STYLE
 70
     1
  0
STYLE
  2
STANDARD
 70
     0
 40
0.0
 41
1.0
 50
0.0
 71
     0
 42
3.5
  3
txt
  4

  0
ENDTAB
  0
TABLE
  2
VIEW
 70
     0
  0
ENDTAB
  0
TABLE
  2
UCS
 70
     0
  0
ENDTAB
  0
TABLE
  2
APPID
 70
     1
  0
APPID
  2
ACAD
 70
     0
  0
ENDTAB
  0
TABLE
  2
DIMSTYLE
 70
     1
  0
DIMSTYLE
  2
ISO-25
 70
     0
  3

  4

  5

  6

  7

 40
1.0
 41
2.5
 42
0.625
 43
3.75
 44
1.25
 45
0.0
 46
0.0
 47
0.0
 48
0.0
140
2.5
141
2.5
142
0.0
143
0.0393700787
144
1.0
145
0.0
146
1.0
147
0.625
 71
     0
 72
     0
 73
     0
 74
     0
 75
     0
 76
     0
 77
     1
 78
     8
170
     0
171
     3
172
     1
173
     0
174
     0
175
     0
176
     0
177
     0
178
     0
  0
ENDTAB
  0
ENDSEC
  0
SECTION
  2
BLOCKS
  0
BLOCK
  8
0
  2
$MODEL_SPACE
 70
     0
 10
0.0
 20
0.0
 30
0.0
  3
$MODEL_SPACE
  1

  0
ENDBLK
  5
21
  8
0
  0
BLOCK
 67
     1
  8
0
  2
$PAPER_SPACE
 70
     0
 10
0.0
 20
0.0
 30
0.0
  3
$PAPER_SPACE
  1

  0
ENDBLK
  5
1D
 67
     1
  8
0
  0
ENDSEC
  0
SECTION
  2
ENTITIES
  0
POLYLINE
  5
44
  8
0
  6
CONTINUOUS
 62
     7
 66
     1
 10
0.0
 20
0.0
 30
0.0
  0
VERTEX
  5
6B
  8
0
  6
CONTINUOUS
 62
     7
 10
123.8490387656
 20
162.5150406327
 30
0.0
  0
VERTEX
  5
6C
  8
0
  6
CONTINUOUS
 62
     7
 10
123.8601485475
 20
162.6996035908
 30
0.0
  0
VERTEX
  5
6D
  8
0
  6
CONTINUOUS
 62
     7
 10
123.8538794415
 20
163.0994725332
 30
0.0
  0
VERTEX
  5
6E
  8
0
  6
CONTINUOUS
 62
     7
 10
123.8176998957
 20
163.4957624549
 30
0.0
  0
VERTEX
  5
6F
  8
0
  6
CONTINUOUS
 62
     7
 10
123.7521998811
 20
163.8874754304
 30
0.0
  0
VERTEX
  5
70
  8
0
  6
CONTINUOUS
 62
     7
 10
123.6578937368
 20
164.2739519639
 30
0.0
  0
VERTEX
  5
71
  8
0
  6
CONTINUOUS
 62
     7
 10
123.5351881673
 20
164.6546600408
 30
0.0
  0
VERTEX
  5
72
  8
0
  6
CONTINUOUS
 62
     7
 10
123.3843557206
 20
165.0291898438
 30
0.0
  0
VERTEX
  5
73
  8
0
  6
CONTINUOUS
 62
     7
 10
123.2055174452
 20
165.397229462
 30
0.0
  0
VERTEX
  5
74
  8
0
  6
CONTINUOUS
 62
     7
 10
122.9986455431
 20
165.7585199952
 30
0.0
  0
VERTEX
  5
75
  8
0
  6
CONTINUOUS
 62
     7
 10
122.7635981233
 20
166.1127912211
 30
0.0
  0
VERTEX
  5
76
  8
0
  6
CONTINUOUS
 62
     7
 10
122.5001966106
 20
166.4596839584
 30
0.0
  0
VERTEX
  5
77
  8
0
  6
CONTINUOUS
 62
     7
 10
122.208349052
 20
166.7986727189
 30
0.0
  0
VERTEX
  5
78
  8
0
  6
CONTINUOUS
 62
     7
 10
121.8882066951
 20
167.1290108408
 30
0.0
  0
VERTEX
  5
79
  8
0
  6
CONTINUOUS
 62
     7
 10
121.5403183357
 20
167.4497248842
 30
0.0
  0
VERTEX
  5
7A
  8
0
  6
CONTINUOUS
 62
     7
 10
121.1657282782
 20
167.759677253
 30
0.0
  0
VERTEX
  5
7B
  8
0
  6
CONTINUOUS
 62
     7
 10
120.7659687524
 20
168.0576911785
 30
0.0
  0
VERTEX
  5
7C
  8
0
  6
CONTINUOUS
 62
     7
 10
120.3429366056
 20
168.34270037
 30
0.0
  0
VERTEX
  5
7D
  8
0
  6
CONTINUOUS
 62
     7
 10
119.8986977817
 20
168.6138702319
 30
0.0
  0
VERTEX
  5
7E
  8
0
  6
CONTINUOUS
 62
     7
 10
119.4354513353
 20
168.8705692658
 30
0.0
  0
VERTEX
  5
7F
  8
0
  6
CONTINUOUS
 62
     7
 10
118.9552368035
 20
169.1124687796
 30
0.0
  0
VERTEX
  5
80
  8
0
  6
CONTINUOUS
 62
     7
 10
118.4596125949
 20
169.3395929275
 30
0.0
  0
VERTEX
  5
81
  8
0
  6
CONTINUOUS
 62
     7
 10
117.9499202063
 20
169.5520864085
 30
0.0
  0
VERTEX
  5
82
  8
0
  6
CONTINUOUS
 62
     7
 10
117.4273237035
 20
169.7501545598
 30
0.0
  0
VERTEX
  5
83
  8
0
  6
CONTINUOUS
 62
     7
 10
116.8928550752
 20
169.9340210163
 30
0.0
  0
VERTEX
  5
84
  8
0
  6
CONTINUOUS
 62
     7
 10
116.3474548653
 20
170.1039015739
 30
0.0
  0
VERTEX
  5
85
  8
0
  6
CONTINUOUS
 62
     7
 10
115.7920045221
 20
170.2599901983
 30
0.0
  0
VERTEX
  5
86
  8
0
  6
CONTINUOUS
 62
     7
 10
115.2273503325
 20
170.4024531412
 30
0.0
  0
VERTEX
  5
87
  8
0
  6
CONTINUOUS
 62
     7
 10
114.6543202152
 20
170.5314279963
 30
0.0
  0
VERTEX
  5
88
  8
0
  6
CONTINUOUS
 62
     7
 10
114.0737349653
 20
170.6470254912
 30
0.0
  0
VERTEX
  5
89
  8
0
  6
CONTINUOUS
 62
     7
 10
113.4864154066
 20
170.7493325983
 30
0.0
  0
VERTEX
  5
8A
  8
0
  6
CONTINUOUS
 62
     7
 10
112.8931866159
 20
170.8384161023
 30
0.0
  0
VERTEX
  5
8B
  8
0
  6
CONTINUOUS
 62
     7
 10
112.2948800988
 20
170.9143261305
 30
0.0
  0
VERTEX
  5
8C
  8
0
  6
CONTINUOUS
 62
     7
 10
111.6923345511
 20
170.9770993759
 30
0.0
  0
VERTEX
  5
8D
  8
0
  6
CONTINUOUS
 62
     7
 10
111.0863956573
 20
171.0267618826
 30
0.0
  0
VERTEX
  5
8E
  8
0
  6
CONTINUOUS
 62
     7
 10
110.4779152379
 20
171.0633313386
 30
0.0
  0
VERTEX
  5
8F
  8
0
  6
CONTINUOUS
 62
     7
 10
109.8677499629
 20
171.0868188604
 30
0.0
  0
VERTEX
  5
90
  8
0
  6
CONTINUOUS
 62
     7
 10
109.2567597782
 20
171.0972302747
 30
0.0
  0
VERTEX
  5
91
  8
0
  6
CONTINUOUS
 62
     7
 10
108.6458061485
 20
171.0945669033
 30
0.0
  0
VERTEX
  5
92
  8
0
  6
CONTINUOUS
 62
     7
 10
108.0357830644
 20
171.078827062
 30
0.0
  0
VERTEX
  5
93
  8
0
  6
CONTINUOUS
 62
     7
 10
107.4275781039
 20
171.0500072729
 30
0.0
  0
VERTEX
  5
94
  8
0
  6
CONTINUOUS
 62
     7
 10
106.822045681
 20
171.0080992156
 30
0.0
  0
VERTEX
  5
95
  8
0
  6
CONTINUOUS
 62
     7
 10
106.2200341308
 20
170.9530883846
 30
0.0
  0
VERTEX
  5
96
  8
0
  6
CONTINUOUS
 62
     7
 10
105.6223838724
 20
170.8849523696
 30
0.0
  0
VERTEX
  5
97
  8
0
  6
CONTINUOUS
 62
     7
 10
105.0299257239
 20
170.8036585287
 30
0.0
  0
VERTEX
  5
98
  8
0
  6
CONTINUOUS
 62
     7
 10
104.443479488
 20
170.7091610014
 30
0.0
  0
VERTEX
  5
99
  8
0
  6
CONTINUOUS
 62
     7
 10
103.8638529656
 20
170.6013970066
 30
0.0
  0
VERTEX
  5
9A
  8
0
  6
CONTINUOUS
 62
     7
 10
103.2918416365
 20
170.480282383
 30
0.0
  0
VERTEX
  5
9B
  8
0
  6
CONTINUOUS
 62
     7
 10
102.7282293465
 20
170.3457063621
 30
0.0
  0
VERTEX
  5
9C
  8
0
  6
CONTINUOUS
 62
     7
 10
102.1737904985
 20
170.1975256364
 30
0.0
  0
VERTEX
  5
9D
  8
0
  6
CONTINUOUS
 62
     7
 10
101.6292944524
 20
170.0355579247
 30
0.0
  0
VERTEX
  5
9E
  8
0
  6
CONTINUOUS
 62
     7
 10
101.0955131186
 20
169.8595754854
 30
0.0
  0
VERTEX
  5
9F
  8
0
  6
CONTINUOUS
 62
     7
 10
100.573233089
 20
169.6692994488
 30
0.0
  0
VERTEX
  5
A0
  8
0
  6
CONTINUOUS
 62
     7
 10
100.0632740399
 20
169.4643965253
 30
0.0
  0
VERTEX
  5
A1
  8
0
  6
CONTINUOUS
 62
     7
 10
99.5665154788
 20
169.2444806977
 30
0.0
  0
VERTEX
  5
A2
  8
0
  6
CONTINUOUS
 62
     7
 10
99.0839338963
 20
169.0091239787
 30
0.0
  0
VERTEX
  5
A3
  8
0
  6
CONTINUOUS
 62
     7
 10
98.6166514668
 20
168.7578821081
 30
0.0
  0
VERTEX
  5
A4
  8
0
  6
CONTINUOUS
 62
     7
 10
98.165994594
 20
168.4903425523
 30
0.0
  0
VERTEX
  5
A5
  8
0
  6
CONTINUOUS
 62
     7
 10
97.7335544492
 20
168.2062017645
 30
0.0
  0
VERTEX
  5
A6
  8
0
  6
CONTINUOUS
 62
     7
 10
97.321491692
 20
167.905573803
 30
0.0
  0
VERTEX
  5
A7
  8
0
  6
CONTINUOUS
 62
     7
 10
96.9322043086
 20
167.5889515656
 30
0.0
  0
VERTEX
  5
A8
  8
0
  6
CONTINUOUS
 62
     7
 10
96.5681085742
 20
167.2571941035
 30
0.0
  0
VERTEX
  5
A9
  8
0
  6
CONTINUOUS
 62
     7
 10
96.2315597275
 20
166.9116105962
 30
0.0
  0
VERTEX
  5
AA
  8
0
  6
CONTINUOUS
 62
     7
 10
95.9245948123
 20
166.5538499799
 30
0.0
  0
VERTEX
  5
AB
  8
0
  6
CONTINUOUS
 62
     7
 10
95.6487265748
 20
166.1857093447
 30
0.0
  0
VERTEX
  5
AC
  8
0
  6
CONTINUOUS
 62
     7
 10
95.4048686764
 20
165.8089391127
 30
0.0
  0
VERTEX
  5
AD
  8
0
  6
CONTINUOUS
 62
     7
 10
95.1934016637
 20
165.4251185456
 30
0.0
  0
VERTEX
  5
AE
  8
0
  6
CONTINUOUS
 62
     7
 10
95.0143220854
 20
165.0356248663
 30
0.0
  0
VERTEX
  5
AF
  8
0
  6
CONTINUOUS
 62
     7
 10
94.8674009379
 20
164.6416698707
 30
0.0
  0
VERTEX
  5
B0
  8
0
  6
CONTINUOUS
 62
     7
 10
94.7523045957
 20
164.244360732
 30
0.0
  0
VERTEX
  5
B1
  8
0
  6
CONTINUOUS
 62
     7
 10
94.6686668802
 20
163.8447517577
 30
0.0
  0
VERTEX
  5
B2
  8
0
  6
CONTINUOUS
 62
     7
 10
94.6161230146
 20
163.4438720842
 30
0.0
  0
VERTEX
  5
B3
  8
0
  6
CONTINUOUS
 62
     7
 10
94.5943228691
 20
163.0427284652
 30
0.0
  0
VERTEX
  5
B4
  8
0
  6
CONTINUOUS
 62
     7
 10
94.6008352847
 20
162.7400437099
 30
0.0
  0
SEQEND
  5
290
  8
0
  6
CONTINUOUS
 62
     7
  0
LINE
  5
45
  8
0
  6
CONTINUOUS
 62
     7
 10
123.2694152114
 20
152.3011686804
 30
0.0
 11
123.8528182103
 21
162.5145964973
 31
0.0
  0
LINE
  5
46
  8
0
  6
CONTINUOUS
 62
     7
 10
94.5980179484
 20
162.7406075228
 30
0.0
 11
94.701671437
 21
160.1976041568
 31
0.0
  0
ARC
  5
47
  8
0
  6
CONTINUOUS
 62
     7
 10
92.7085595268
 20
156.698547874
 30
0.0
 40
2.348307587151987
 50
119.5221690609
 51
188.741350657
  0
POLYLINE
  5
48
  8
0
  6
CONTINUOUS
 62
     7
 66
     1
 10
0.0
 20
0.0
 30
0.0
  0
VERTEX
  5
B5
  8
0
  6
CONTINUOUS
 62
     7
 10
90.3875287917
 20
156.3416657496
 30
0.0
  0
VERTEX
  5
B6
  8
0
  6
CONTINUOUS
 62
     7
 10
90.4006298281
 20
156.1702229778
 30
0.0
  0
VERTEX
  5
B7
  8
0
  6
CONTINUOUS
 62
     7
 10
90.4429389498
 20
155.8505985783
 30
0.0
  0
VERTEX
  5
B8
  8
0
  6
CONTINUOUS
 62
     7
 10
90.507635657
 20
155.5295325748
 30
0.0
  0
VERTEX
  5
B9
  8
0
  6
CONTINUOUS
 62
     7
 10
90.5935324198
 20
155.2090722758
 30
0.0
  0
VERTEX
  5
BA
  8
0
  6
CONTINUOUS
 62
     7
 10
90.6994677669
 20
154.8913831455
 30
0.0
  0
VERTEX
  5
BB
  8
0
  6
CONTINUOUS
 62
     7
 10
90.8243451695
 20
154.5785290593
 30
0.0
  0
VERTEX
  5
BC
  8
0
  6
CONTINUOUS
 62
     7
 10
90.967121508
 20
154.2725388195
 30
0.0
  0
VERTEX
  5
BD
  8
0
  6
CONTINUOUS
 62
     7
 10
91.1268002891
 20
153.9754297153
 30
0.0
  0
VERTEX
  5
BE
  8
0
  6
CONTINUOUS
 62
     7
 10
91.3023502696
 20
153.6893430286
 30
0.0
  0
VERTEX
  5
BF
  8
0
  6
CONTINUOUS
 62
     7
 10
91.4928453952
 20
153.4163001243
 30
0.0
  0
VERTEX
  5
C0
  8
0
  6
CONTINUOUS
 62
     7
 10
91.697475743
 20
153.1582774198
 30
0.0
  0
VERTEX
  5
C1
  8
0
  6
CONTINUOUS
 62
     7
 10
91.9155494817
 20
152.9172822112
 30
0.0
  0
VERTEX
  5
C2
  8
0
  6
CONTINUOUS
 62
     7
 10
92.1464958613
 20
152.6954226245
 30
0.0
  0
VERTEX
  5
C3
  8
0
  6
CONTINUOUS
 62
     7
 10
92.3898066952
 20
152.4950276743
 30
0.0
  0
VERTEX
  5
C4
  8
0
  6
CONTINUOUS
 62
     7
 10
92.6448421969
 20
152.3188132517
 30
0.0
  0
VERTEX
  5
C5
  8
0
  6
CONTINUOUS
 62
     7
 10
92.9102895242
 20
152.1700850041
 30
0.0
  0
VERTEX
  5
C6
  8
0
  6
CONTINUOUS
 62
     7
 10
93.1829126705
 20
152.0528014353
 30
0.0
  0
VERTEX
  5
C7
  8
0
  6
CONTINUOUS
 62
     7
 10
93.4299456417
 20
151.9770498064
 30
0.0
  0
VERTEX
  5
C8
  8
0
  6
CONTINUOUS
 62
     7
 10
93.6737028061
 20
151.930832511
 30
0.0
  0
VERTEX
  5
C9
  8
0
  6
CONTINUOUS
 62
     7
 10
93.9125479157
 20
151.9136620286
 30
0.0
  0
VERTEX
  5
CA
  8
0
  6
CONTINUOUS
 62
     7
 10
94.1704683262
 20
151.927871787
 30
0.0
  0
VERTEX
  5
CB
  8
0
  6
CONTINUOUS
 62
     7
 10
94.4161934379
 20
151.9756012923
 30
0.0
  0
VERTEX
  5
CC
  8
0
  6
CONTINUOUS
 62
     7
 10
94.6468437022
 20
152.054495399
 30
0.0
  0
VERTEX
  5
CD
  8
0
  6
CONTINUOUS
 62
     7
 10
94.7497485469
 20
152.1063031523
 30
0.0
  0
SEQEND
  5
28F
  8
0
  6
CONTINUOUS
 62
     7
  0
LINE
  5
49
  8
0
  6
CONTINUOUS
 62
     7
 10
95.1589987245
 20
160.4083512153
 30
0.0
 11
91.5482977965
 21
158.7444561879
 31
0.0
  0
LINE
  5
4A
  8
0
  6
CONTINUOUS
 62
     7
 10
94.7509873959
 20
152.102380421
 30
0.0
 11
97.6806968807
 21
153.5666540838
 31
0.0
  0
POLYLINE
  5
4B
  8
0
  6
CONTINUOUS
 62
     7
 66
     1
 10
0.0
 20
0.0
 30
0.0
  0
VERTEX
  5
CE
  8
0
  6
CONTINUOUS
 62
     7
 10
95.585504702
 20
160.4539095417
 30
0.0
  0
VERTEX
  5
CF
  8
0
  6
CONTINUOUS
 62
     7
 10
95.5729570511
 20
160.4711272361
 30
0.0
  0
VERTEX
  5
D0
  8
0
  6
CONTINUOUS
 62
     7
 10
95.5160551219
 20
160.4856354102
 30
0.0
  0
VERTEX
  5
D1
  8
0
  6
CONTINUOUS
 62
     7
 10
95.4281207538
 20
160.4878528653
 30
0.0
  0
VERTEX
  5
D2
  8
0
  6
CONTINUOUS
 62
     7
 10
95.3196391328
 20
160.4695620485
 30
0.0
  0
VERTEX
  5
D3
  8
0
  6
CONTINUOUS
 62
     7
 10
95.1620154973
 20
160.4097730548
 30
0.0
  0
SEQEND
  5
28E
  8
0
  6
CONTINUOUS
 62
     7
  0
ARC
  5
4C
  8
0
  6
CONTINUOUS
 62
     7
 10
106.217047207
 20
157.2163240101
 30
0.0
 40
4.131346653170522
 50
157.0577377957
 51
186.2971260569
  0
ARC
  5
4D
  8
0
  6
CONTINUOUS
 62
     7
 10
106.1485514251
 20
157.4885354987
 30
0.0
 40
3.968485744938142
 50
133.6602349043
 51
160.2931995606
  0
POLYLINE
  5
4E
  8
0
  6
CONTINUOUS
 62
     7
 66
     1
 10
0.0
 20
0.0
 30
0.0
  0
VERTEX
  5
D4
  8
0
  6
CONTINUOUS
 62
     7
 10
103.4087863217
 20
160.3595224868
 30
0.0
  0
VERTEX
  5
D5
  8
0
  6
CONTINUOUS
 62
     7
 10
104.0085229215
 20
160.2138372486
 30
0.0
  0
VERTEX
  5
D6
  8
0
  6
CONTINUOUS
 62
     7
 10
104.6253081213
 20
160.0835075956
 30
0.0
  0
VERTEX
  5
D7
  8
0
  6
CONTINUOUS
 62
     7
 10
105.2571947172
 20
159.9690222297
 30
0.0
  0
VERTEX
  5
D8
  8
0
  6
CONTINUOUS
 62
     7
 10
105.9021640615
 20
159.8708132935
 30
0.0
  0
VERTEX
  5
D9
  8
0
  6
CONTINUOUS
 62
     7
 10
106.5581349368
 20
159.789253623
 30
0.0
  0
VERTEX
  5
DA
  8
0
  6
CONTINUOUS
 62
     7
 10
107.22297299
 20
159.7246543463
 30
0.0
  0
VERTEX
  5
DB
  8
0
  6
CONTINUOUS
 62
     7
 10
107.8945006506
 20
159.6772628587
 30
0.0
  0
VERTEX
  5
DC
  8
0
  6
CONTINUOUS
 62
     7
 10
108.5705074464
 20
159.6472611993
 30
0.0
  0
VERTEX
  5
DD
  8
0
  6
CONTINUOUS
 62
     7
 10
109.2487606268
 20
159.6347648478
 30
0.0
  0
VERTEX
  5
DE
  8
0
  6
CONTINUOUS
 62
     7
 10
109.9270159979
 20
159.6398219587
 30
0.0
  0
VERTEX
  5
DF
  8
0
  6
CONTINUOUS
 62
     7
 10
110.6030288673
 20
159.6624130406
 30
0.0
  0
VERTEX
  5
E0
  8
0
  6
CONTINUOUS
 62
     7
 10
111.2745649995
 20
159.7024510861
 30
0.0
  0
VERTEX
  5
E1
  8
0
  6
CONTINUOUS
 62
     7
 10
111.9394114785
 20
159.7597821501
 30
0.0
  0
VERTEX
  5
E2
  8
0
  6
CONTINUOUS
 62
     7
 10
112.5953873775
 20
159.8341863685
 30
0.0
  0
VERTEX
  5
E3
  8
0
  6
CONTINUOUS
 62
     7
 10
113.2403541386
 20
159.925379406
 30
0.0
  0
VERTEX
  5
E4
  8
0
  6
CONTINUOUS
 62
     7
 10
113.8722255703
 20
160.0330143137
 30
0.0
  0
VERTEX
  5
E5
  8
0
  6
CONTINUOUS
 62
     7
 10
114.4889773749
 20
160.1566837738
 30
0.0
  0
VERTEX
  5
E6
  8
0
  6
CONTINUOUS
 62
     7
 10
115.0886561285
 20
160.2959227044
 30
0.0
  0
VERTEX
  5
E7
  8
0
  6
CONTINUOUS
 62
     7
 10
115.6693876419
 20
160.4502111927
 30
0.0
  0
VERTEX
  5
E8
  8
0
  6
CONTINUOUS
 62
     7
 10
116.2293846414
 20
160.6189777221
 30
0.0
  0
VERTEX
  5
E9
  8
0
  6
CONTINUOUS
 62
     7
 10
116.7669537192
 20
160.8016026565
 30
0.0
  0
VERTEX
  5
EA
  8
0
  6
CONTINUOUS
 62
     7
 10
117.2805015124
 20
160.9974219411
 30
0.0
  0
VERTEX
  5
EB
  8
0
  6
CONTINUOUS
 62
     7
 10
117.7685400821
 20
161.2057309819
 30
0.0
  0
VERTEX
  5
EC
  8
0
  6
CONTINUOUS
 62
     7
 10
118.229691473
 20
161.4257886596
 30
0.0
  0
VERTEX
  5
ED
  8
0
  6
CONTINUOUS
 62
     7
 10
118.6626914465
 20
161.6568214405
 30
0.0
  0
VERTEX
  5
EE
  8
0
  6
CONTINUOUS
 62
     7
 10
119.06639239
 20
161.8980275405
 30
0.0
  0
VERTEX
  5
EF
  8
0
  6
CONTINUOUS
 62
     7
 10
119.4397654144
 20
162.1485811069
 30
0.0
  0
VERTEX
  5
F0
  8
0
  6
CONTINUOUS
 62
     7
 10
119.7819016613
 20
162.4076363781
 30
0.0
  0
VERTEX
  5
F1
  8
0
  6
CONTINUOUS
 62
     7
 10
120.0920128492
 20
162.6743317882
 30
0.0
  0
VERTEX
  5
F2
  8
0
  6
CONTINUOUS
 62
     7
 10
120.3694310969
 20
162.9477939837
 30
0.0
  0
VERTEX
  5
F3
  8
0
  6
CONTINUOUS
 62
     7
 10
120.613608065
 20
163.2271417232
 30
0.0
  0
VERTEX
  5
F4
  8
0
  6
CONTINUOUS
 62
     7
 10
120.8241134663
 20
163.5114896351
 30
0.0
  0
VERTEX
  5
F5
  8
0
  6
CONTINUOUS
 62
     7
 10
121.0006329957
 20
163.7999518088
 30
0.0
  0
VERTEX
  5
F6
  8
0
  6
CONTINUOUS
 62
     7
 10
121.1429657357
 20
164.091645204
 30
0.0
  0
VERTEX
  5
F7
  8
0
  6
CONTINUOUS
 62
     7
 10
121.2510210951
 20
164.3856928579
 30
0.0
  0
VERTEX
  5
F8
  8
0
  6
CONTINUOUS
 62
     7
 10
121.3248153397
 20
164.6812268831
 30
0.0
  0
VERTEX
  5
F9
  8
0
  6
CONTINUOUS
 62
     7
 10
121.3644677727
 20
164.9773912434
 30
0.0
  0
VERTEX
  5
FA
  8
0
  6
CONTINUOUS
 62
     7
 10
121.370196624
 20
165.2733443053
 30
0.0
  0
VERTEX
  5
FB
  8
0
  6
CONTINUOUS
 62
     7
 10
121.3423147037
 20
165.5682611595
 30
0.0
  0
VERTEX
  5
FC
  8
0
  6
CONTINUOUS
 62
     7
 10
121.2812248752
 20
165.861335716
 30
0.0
  0
VERTEX
  5
FD
  8
0
  6
CONTINUOUS
 62
     7
 10
121.187415399
 20
166.1517825724
 30
0.0
  0
VERTEX
  5
FE
  8
0
  6
CONTINUOUS
 62
     7
 10
121.0614551964
 20
166.4388386632
 30
0.0
  0
VERTEX
  5
FF
  8
0
  6
CONTINUOUS
 62
     7
 10
120.9039890769
 20
166.721764695
 30
0.0
  0
VERTEX
  5
100
  8
0
  6
CONTINUOUS
 62
     7
 10
120.7157329725
 20
166.9998463778
 30
0.0
  0
VERTEX
  5
101
  8
0
  6
CONTINUOUS
 62
     7
 10
120.4974692157
 20
167.2723954619
 30
0.0
  0
VERTEX
  5
102
  8
0
  6
CONTINUOUS
 62
     7
 10
120.2500418933
 20
167.5387505921
 30
0.0
  0
VERTEX
  5
103
  8
0
  6
CONTINUOUS
 62
     7
 10
119.9743523076
 20
167.7982779915
 30
0.0
  0
VERTEX
  5
104
  8
0
  6
CONTINUOUS
 62
     7
 10
119.6713545688
 20
168.0503719877
 30
0.0
  0
VERTEX
  5
105
  8
0
  6
CONTINUOUS
 62
     7
 10
119.3420513402
 20
168.2944553954
 30
0.0
  0
VERTEX
  5
106
  8
0
  6
CONTINUOUS
 62
     7
 10
118.9874897542
 20
168.5299797688
 30
0.0
  0
VERTEX
  5
107
  8
0
  6
CONTINUOUS
 62
     7
 10
118.6087575127
 20
168.7564255378
 30
0.0
  0
VERTEX
  5
108
  8
0
  6
CONTINUOUS
 62
     7
 10
118.2069791815
 20
168.9733020412
 30
0.0
  0
VERTEX
  5
109
  8
0
  6
CONTINUOUS
 62
     7
 10
117.7833126881
 20
169.1801474721
 30
0.0
  0
VERTEX
  5
10A
  8
0
  6
CONTINUOUS
 62
     7
 10
117.3389460234
 20
169.3765287468
 30
0.0
  0
VERTEX
  5
10B
  8
0
  6
CONTINUOUS
 62
     7
 10
116.8750941523
 20
169.5620413106
 30
0.0
  0
VERTEX
  5
10C
  8
0
  6
CONTINUOUS
 62
     7
 10
116.3929961291
 20
169.736308894
 30
0.0
  0
VERTEX
  5
10D
  8
0
  6
CONTINUOUS
 62
     7
 10
115.8939124159
 20
169.8989832289
 30
0.0
  0
VERTEX
  5
10E
  8
0
  6
CONTINUOUS
 62
     7
 10
115.3791223965
 20
170.0497437369
 30
0.0
  0
VERTEX
  5
10F
  8
0
  6
CONTINUOUS
 62
     7
 10
114.8499220802
 20
170.1882972005
 30
0.0
  0
VERTEX
  5
110
  8
0
  6
CONTINUOUS
 62
     7
 10
114.3076219841
 20
170.3143774251
 30
0.0
  0
VERTEX
  5
111
  8
0
  6
CONTINUOUS
 62
     7
 10
113.7535451856
 20
170.4277449021
 30
0.0
  0
VERTEX
  5
112
  8
0
  6
CONTINUOUS
 62
     7
 10
113.1890255299
 20
170.5281864806
 30
0.0
  0
VERTEX
  5
113
  8
0
  6
CONTINUOUS
 62
     7
 10
112.6154059826
 20
170.6155150542
 30
0.0
  0
VERTEX
  5
114
  8
0
  6
CONTINUOUS
 62
     7
 10
112.0340371109
 20
170.6895692702
 30
0.0
  0
VERTEX
  5
115
  8
0
  6
CONTINUOUS
 62
     7
 10
111.4462756799
 20
170.7502132674
 30
0.0
  0
VERTEX
  5
116
  8
0
  6
CONTINUOUS
 62
     7
 10
110.8534833478
 20
170.7973364453
 30
0.0
  0
VERTEX
  5
117
  8
0
  6
CONTINUOUS
 62
     7
 10
110.257025444
 20
170.8308532707
 30
0.0
  0
VERTEX
  5
118
  8
0
  6
CONTINUOUS
 62
     7
 10
109.6582698136
 20
170.8507031246
 30
0.0
  0
VERTEX
  5
119
  8
0
  6
CONTINUOUS
 62
     7
 10
109.0585857115
 20
170.8568501912
 30
0.0
  0
VERTEX
  5
11A
  8
0
  6
CONTINUOUS
 62
     7
 10
108.459342729
 20
170.8492833919
 30
0.0
  0
VERTEX
  5
11B
  8
0
  6
CONTINUOUS
 62
     7
 10
107.8619097356
 20
170.828016365
 30
0.0
  0
VERTEX
  5
11C
  8
0
  6
CONTINUOUS
 62
     7
 10
107.2676538182
 20
170.7930874904
 30
0.0
  0
VERTEX
  5
11D
  8
0
  6
CONTINUOUS
 62
     7
 10
106.6779392015
 20
170.7445599609
 30
0.0
  0
VERTEX
  5
11E
  8
0
  6
CONTINUOUS
 62
     7
 10
106.0941261315
 20
170.6825218974
 30
0.0
  0
VERTEX
  5
11F
  8
0
  6
CONTINUOUS
 62
     7
 10
105.5175697055
 20
170.6070865062
 30
0.0
  0
VERTEX
  5
120
  8
0
  6
CONTINUOUS
 62
     7
 10
104.9496186316
 20
170.5183922769
 30
0.0
  0
VERTEX
  5
121
  8
0
  6
CONTINUOUS
 62
     7
 10
104.3916139018
 20
170.4166032157
 30
0.0
  0
VERTEX
  5
122
  8
0
  6
CONTINUOUS
 62
     7
 10
103.8448873626
 20
170.3019091118
 30
0.0
  0
VERTEX
  5
123
  8
0
  6
CONTINUOUS
 62
     7
 10
103.3107601683
 20
170.1745258305
 30
0.0
  0
VERTEX
  5
124
  8
0
  6
CONTINUOUS
 62
     7
 10
102.7905411011
 20
170.0346956281
 30
0.0
  0
VERTEX
  5
125
  8
0
  6
CONTINUOUS
 62
     7
 10
102.2855247468
 20
169.8826874812
 30
0.0
  0
VERTEX
  5
126
  8
0
  6
CONTINUOUS
 62
     7
 10
101.7969895106
 20
169.7187974248
 30
0.0
  0
VERTEX
  5
127
  8
0
  6
CONTINUOUS
 62
     7
 10
101.3261954642
 20
169.5433488893
 30
0.0
  0
VERTEX
  5
128
  8
0
  6
CONTINUOUS
 62
     7
 10
100.8743820119
 20
169.3566930279
 30
0.0
  0
VERTEX
  5
129
  8
0
  6
CONTINUOUS
 62
     7
 10
100.4427653687
 20
169.1592090264
 30
0.0
  0
VERTEX
  5
12A
  8
0
  6
CONTINUOUS
 62
     7
 10
100.032535842
 20
168.9513043825
 30
0.0
  0
VERTEX
  5
12B
  8
0
  6
CONTINUOUS
 62
     7
 10
99.6448549136
 20
168.7334151461
 30
0.0
  0
VERTEX
  5
12C
  8
0
  6
CONTINUOUS
 62
     7
 10
99.2808521177
 20
168.506006107
 30
0.0
  0
VERTEX
  5
12D
  8
0
  6
CONTINUOUS
 62
     7
 10
98.9416217161
 20
168.2695709181
 30
0.0
  0
VERTEX
  5
12E
  8
0
  6
CONTINUOUS
 62
     7
 10
98.6282191706
 20
168.0246321428
 30
0.0
  0
VERTEX
  5
12F
  8
0
  6
CONTINUOUS
 62
     7
 10
98.3416574206
 20
167.7717412107
 30
0.0
  0
VERTEX
  5
130
  8
0
  6
CONTINUOUS
 62
     7
 10
98.082902971
 20
167.5114782705
 30
0.0
  0
VERTEX
  5
131
  8
0
  6
CONTINUOUS
 62
     7
 10
97.8528718044
 20
167.2444519246
 30
0.0
  0
VERTEX
  5
132
  8
0
  6
CONTINUOUS
 62
     7
 10
97.6524251312
 20
166.9712988325
 30
0.0
  0
VERTEX
  5
133
  8
0
  6
CONTINUOUS
 62
     7
 10
97.4823649964
 20
166.6926831685
 30
0.0
  0
VERTEX
  5
134
  8
0
  6
CONTINUOUS
 62
     7
 10
97.3434297661
 20
166.4092959213
 30
0.0
  0
VERTEX
  5
135
  8
0
  6
CONTINUOUS
 62
     7
 10
97.2362895196
 20
166.1218540211
 30
0.0
  0
VERTEX
  5
136
  8
0
  6
CONTINUOUS
 62
     7
 10
97.1615413783
 20
165.8310992832
 30
0.0
  0
VERTEX
  5
137
  8
0
  6
CONTINUOUS
 62
     7
 10
97.1197048041
 20
165.5377971561
 30
0.0
  0
VERTEX
  5
138
  8
0
  6
CONTINUOUS
 62
     7
 10
97.1112169085
 20
165.2427352643
 30
0.0
  0
VERTEX
  5
139
  8
0
  6
CONTINUOUS
 62
     7
 10
97.1364278123
 20
164.9467217372
 30
0.0
  0
VERTEX
  5
13A
  8
0
  6
CONTINUOUS
 62
     7
 10
97.1955961021
 20
164.6505833165
 30
0.0
  0
VERTEX
  5
13B
  8
0
  6
CONTINUOUS
 62
     7
 10
97.2888844346
 20
164.3551632389
 30
0.0
  0
VERTEX
  5
13C
  8
0
  6
CONTINUOUS
 62
     7
 10
97.4163553382
 20
164.0613188898
 30
0.0
  0
VERTEX
  5
13D
  8
0
  6
CONTINUOUS
 62
     7
 10
97.577967269
 20
163.769919229
 30
0.0
  0
VERTEX
  5
13E
  8
0
  6
CONTINUOUS
 62
     7
 10
97.7735709762
 20
163.4818419913
 30
0.0
  0
SEQEND
  5
28D
  8
0
  6
CONTINUOUS
 62
     7
  0
ARC
  5
4F
  8
0
  6
CONTINUOUS
 62
     7
 10
98.4070211447
 20
160.4728311561
 30
0.0
 40
3.074964279810451
 50
101.8881876804
 51
140.3587250796
  0
ARC
  5
50
  8
0
  6
CONTINUOUS
 62
     7
 10
98.2133099452
 20
160.5484999733
 30
0.0
 40
2.878262283166035
 50
139.0584364589
 51
177.2662048108
  0
ARC
  5
51
  8
0
  6
CONTINUOUS
 62
     7
 10
101.5402323739
 20
153.6852154707
 30
0.0
 40
6.66057499036364
 50
192.4841628686
 51
245.2936197361
  0
POLYLINE
  5
52
  8
0
  6
CONTINUOUS
 62
     7
 66
     1
 10
0.0
 20
0.0
 30
0.0
  0
VERTEX
  5
13F
  8
0
  6
CONTINUOUS
 62
     7
 10
123.2694152114
 20
152.3011686804
 30
0.0
  0
VERTEX
  5
140
  8
0
  6
CONTINUOUS
 62
     7
 10
123.2446183841
 20
152.0309575975
 30
0.0
  0
VERTEX
  5
141
  8
0
  6
CONTINUOUS
 62
     7
 10
123.1826458349
 20
151.6724809378
 30
0.0
  0
VERTEX
  5
142
  8
0
  6
CONTINUOUS
 62
     7
 10
123.0873529887
 20
151.3149949053
 30
0.0
  0
VERTEX
  5
143
  8
0
  6
CONTINUOUS
 62
     7
 10
122.9586279698
 20
150.9593759177
 30
0.0
  0
VERTEX
  5
144
  8
0
  6
CONTINUOUS
 62
     7
 10
122.7964448091
 20
150.6065132071
 30
0.0
  0
VERTEX
  5
145
  8
0
  6
CONTINUOUS
 62
     7
 10
122.6008667889
 20
150.2573063728
 30
0.0
  0
VERTEX
  5
146
  8
0
  6
CONTINUOUS
 62
     7
 10
122.3720495405
 20
149.9126627304
 30
0.0
  0
VERTEX
  5
147
  8
0
  6
CONTINUOUS
 62
     7
 10
122.1102438514
 20
149.5734944643
 30
0.0
  0
VERTEX
  5
148
  8
0
  6
CONTINUOUS
 62
     7
 10
121.8157981368
 20
149.2407155908
 30
0.0
  0
VERTEX
  5
149
  8
0
  6
CONTINUOUS
 62
     7
 10
121.4891605321
 20
148.9152387431
 30
0.0
  0
VERTEX
  5
14A
  8
0
  6
CONTINUOUS
 62
     7
 10
121.1308805635
 20
148.5979717934
 30
0.0
  0
VERTEX
  5
14B
  8
0
  6
CONTINUOUS
 62
     7
 10
120.741610355
 20
148.2898143272
 30
0.0
  0
VERTEX
  5
14C
  8
0
  6
CONTINUOUS
 62
     7
 10
120.3221053322
 20
147.9916539913
 30
0.0
  0
VERTEX
  5
14D
  8
0
  6
CONTINUOUS
 62
     7
 10
119.8732243882
 20
147.7043627365
 30
0.0
  0
VERTEX
  5
14E
  8
0
  6
CONTINUOUS
 62
     7
 10
119.3959294784
 20
147.4287929808
 30
0.0
  0
VERTEX
  5
14F
  8
0
  6
CONTINUOUS
 62
     7
 10
118.8912846159
 20
147.1657737203
 30
0.0
  0
VERTEX
  5
150
  8
0
  6
CONTINUOUS
 62
     7
 10
118.3604542471
 20
146.916106618
 30
0.0
  0
VERTEX
  5
151
  8
0
  6
CONTINUOUS
 62
     7
 10
117.8047009876
 20
146.6805621011
 30
0.0
  0
VERTEX
  5
152
  8
0
  6
CONTINUOUS
 62
     7
 10
117.2253827121
 20
146.4598755011
 30
0.0
  0
VERTEX
  5
153
  8
0
  6
CONTINUOUS
 62
     7
 10
116.6239489904
 20
146.2547432697
 30
0.0
  0
VERTEX
  5
154
  8
0
  6
CONTINUOUS
 62
     7
 10
116.0019368781
 20
146.0658193069
 30
0.0
  0
VERTEX
  5
155
  8
0
  6
CONTINUOUS
 62
     7
 10
115.36096607
 20
145.8937114351
 30
0.0
  0
VERTEX
  5
156
  8
0
  6
CONTINUOUS
 62
     7
 10
114.7027334379
 20
145.7389780549
 30
0.0
  0
VERTEX
  5
157
  8
0
  6
CONTINUOUS
 62
     7
 10
114.0290069786
 20
145.602125016
 30
0.0
  0
VERTEX
  5
158
  8
0
  6
CONTINUOUS
 62
     7
 10
113.3416192088
 20
145.4836027371
 30
0.0
  0
VERTEX
  5
159
  8
0
  6
CONTINUOUS
 62
     7
 10
112.6424600476
 20
145.3838036031
 30
0.0
  0
VERTEX
  5
15A
  8
0
  6
CONTINUOUS
 62
     7
 10
111.933469237
 20
145.3030596709
 30
0.0
  0
VERTEX
  5
15B
  8
0
  6
CONTINUOUS
 62
     7
 10
111.2166283565
 20
145.2416407068
 30
0.0
  0
VERTEX
  5
15C
  8
0
  6
CONTINUOUS
 62
     7
 10
110.4939524933
 20
145.1997525783
 30
0.0
  0
VERTEX
  5
15D
  8
0
  6
CONTINUOUS
 62
     7
 10
109.7674816349
 20
145.1775360189
 30
0.0
  0
VERTEX
  5
15E
  8
0
  6
CONTINUOUS
 62
     7
 10
109.039271855
 20
145.1750657795
 30
0.0
  0
VERTEX
  5
15F
  8
0
  6
CONTINUOUS
 62
     7
 10
108.3113863669
 20
145.1923501763
 30
0.0
  0
VERTEX
  5
160
  8
0
  6
CONTINUOUS
 62
     7
 10
107.5858865189
 20
145.2293310404
 30
0.0
  0
VERTEX
  5
161
  8
0
  6
CONTINUOUS
 62
     7
 10
106.8648228108
 20
145.2858840695
 30
0.0
  0
VERTEX
  5
162
  8
0
  6
CONTINUOUS
 62
     7
 10
106.1502260045
 20
145.3618195789
 30
0.0
  0
VERTEX
  5
163
  8
0
  6
CONTINUOUS
 62
     7
 10
105.4440984073
 20
145.4568836405
 30
0.0
  0
VERTEX
  5
164
  8
0
  6
CONTINUOUS
 62
     7
 10
104.7484053963
 20
145.5707595995
 30
0.0
  0
VERTEX
  5
165
  8
0
  6
CONTINUOUS
 62
     7
 10
104.0650672563
 20
145.7030699503
 30
0.0
  0
VERTEX
  5
166
  8
0
  6
CONTINUOUS
 62
     7
 10
103.3959513918
 20
145.8533785506
 30
0.0
  0
VERTEX
  5
167
  8
0
  6
CONTINUOUS
 62
     7
 10
102.7428649751
 20
146.0211931484
 30
0.0
  0
VERTEX
  5
168
  8
0
  6
CONTINUOUS
 62
     7
 10
102.1075480797
 20
146.2059681969
 30
0.0
  0
VERTEX
  5
169
  8
0
  6
CONTINUOUS
 62
     7
 10
101.4916673472
 20
146.4071079233
 30
0.0
  0
VERTEX
  5
16A
  8
0
  6
CONTINUOUS
 62
     7
 10
100.8968102249
 20
146.6239696231
 30
0.0
  0
VERTEX
  5
16B
  8
0
  6
CONTINUOUS
 62
     7
 10
100.3244798046
 20
146.8558671433
 30
0.0
  0
VERTEX
  5
16C
  8
0
  6
CONTINUOUS
 62
     7
 10
99.7760902867
 20
147.1020745214
 30
0.0
  0
VERTEX
  5
16D
  8
0
  6
CONTINUOUS
 62
     7
 10
99.2529630835
 20
147.3618297446
 30
0.0
  0
VERTEX
  5
16E
  8
0
  6
CONTINUOUS
 62
     7
 10
98.7563235704
 20
147.6343385941
 30
0.0
  0
SEQEND
  5
28C
  8
0
  6
CONTINUOUS
 62
     7
  0
POLYLINE
  5
53
  8
0
  6
CONTINUOUS
 62
     7
 66
     1
 10
0.0
 20
0.0
 30
0.0
  0
VERTEX
  5
16F
  8
0
  6
CONTINUOUS
 62
     7
 10
110.4320237649
 20
166.1529799168
 30
0.0
  0
VERTEX
  5
170
  8
0
  6
CONTINUOUS
 62
     7
 10
110.248268121
 20
166.225110284
 30
0.0
  0
VERTEX
  5
171
  8
0
  6
CONTINUOUS
 62
     7
 10
110.0451480598
 20
166.2849028551
 30
0.0
  0
VERTEX
  5
172
  8
0
  6
CONTINUOUS
 62
     7
 10
109.8265653254
 20
166.3312447831
 30
0.0
  0
VERTEX
  5
173
  8
0
  6
CONTINUOUS
 62
     7
 10
109.596694676
 20
166.3632766642
 30
0.0
  0
VERTEX
  5
174
  8
0
  6
CONTINUOUS
 62
     7
 10
109.3599087464
 20
166.3804060541
 30
0.0
  0
VERTEX
  5
175
  8
0
  6
CONTINUOUS
 62
     7
 10
109.1207006774
 20
166.382316667
 30
0.0
  0
VERTEX
  5
176
  8
0
  6
CONTINUOUS
 62
     7
 10
108.8836054411
 20
166.3689732474
 30
0.0
  0
VERTEX
  5
177
  8
0
  6
CONTINUOUS
 62
     7
 10
108.653120744
 20
166.3406221109
 30
0.0
  0
VERTEX
  5
178
  8
0
  6
CONTINUOUS
 62
     7
 10
108.4336283699
 20
166.2977873558
 30
0.0
  0
VERTEX
  5
179
  8
0
  6
CONTINUOUS
 62
     7
 10
108.2293168366
 20
166.2412627447
 30
0.0
  0
VERTEX
  5
17A
  8
0
  6
CONTINUOUS
 62
     7
 10
108.0441062816
 20
166.1720992664
 30
0.0
  0
VERTEX
  5
17B
  8
0
  6
CONTINUOUS
 62
     7
 10
107.8815765527
 20
166.0915883983
 30
0.0
  0
VERTEX
  5
17C
  8
0
  6
CONTINUOUS
 62
     7
 10
107.7448995625
 20
166.0012411252
 30
0.0
  0
VERTEX
  5
17D
  8
0
  6
CONTINUOUS
 62
     7
 10
107.6367770517
 20
165.9027628143
 30
0.0
  0
VERTEX
  5
17E
  8
0
  6
CONTINUOUS
 62
     7
 10
107.5593849824
 20
165.7980241124
 30
0.0
  0
VERTEX
  5
17F
  8
0
  6
CONTINUOUS
 62
     7
 10
107.5143258484
 20
165.6890281225
 30
0.0
  0
VERTEX
  5
180
  8
0
  6
CONTINUOUS
 62
     7
 10
107.5025902061
 20
165.5778742161
 30
0.0
  0
VERTEX
  5
181
  8
0
  6
CONTINUOUS
 62
     7
 10
107.524528712
 20
165.4667189621
 30
0.0
  0
VERTEX
  5
182
  8
0
  6
CONTINUOUS
 62
     7
 10
107.5798358613
 20
165.3577347801
 30
0.0
  0
VERTEX
  5
183
  8
0
  6
CONTINUOUS
 62
     7
 10
107.6675464706
 20
165.2530670583
 30
0.0
  0
VERTEX
  5
184
  8
0
  6
CONTINUOUS
 62
     7
 10
107.7860457125
 20
165.1547906018
 30
0.0
  0
VERTEX
  5
185
  8
0
  6
CONTINUOUS
 62
     7
 10
107.9330932081
 20
165.0648663833
 30
0.0
  0
VERTEX
  5
186
  8
0
  6
CONTINUOUS
 62
     7
 10
108.1058613072
 20
164.9850996529
 30
0.0
  0
VERTEX
  5
187
  8
0
  6
CONTINUOUS
 62
     7
 10
108.3009872612
 20
164.9171005093
 30
0.0
  0
VERTEX
  5
188
  8
0
  6
CONTINUOUS
 62
     7
 10
108.5146385277
 20
164.8622480366
 30
0.0
  0
VERTEX
  5
189
  8
0
  6
CONTINUOUS
 62
     7
 10
108.742589975
 20
164.8216590687
 30
0.0
  0
VERTEX
  5
18A
  8
0
  6
CONTINUOUS
 62
     7
 10
108.9803112944
 20
164.7961625428
 30
0.0
  0
VERTEX
  5
18B
  8
0
  6
CONTINUOUS
 62
     7
 10
109.2230625168
 20
164.7862802639
 30
0.0
  0
VERTEX
  5
18C
  8
0
  6
CONTINUOUS
 62
     7
 10
109.4659951889
 20
164.7922147077
 30
0.0
  0
VERTEX
  5
18D
  8
0
  6
CONTINUOUS
 62
     7
 10
109.7042565208
 20
164.8138442694
 30
0.0
  0
VERTEX
  5
18E
  8
0
  6
CONTINUOUS
 62
     7
 10
109.9330936831
 20
164.8507261189
 30
0.0
  0
VERTEX
  5
18F
  8
0
  6
CONTINUOUS
 62
     7
 10
110.1479554258
 20
164.9021065642
 30
0.0
  0
VERTEX
  5
190
  8
0
  6
CONTINUOUS
 62
     7
 10
110.3445883044
 20
164.9669385791
 30
0.0
  0
VERTEX
  5
191
  8
0
  6
CONTINUOUS
 62
     7
 10
110.5191250276
 20
165.0439059164
 30
0.0
  0
VERTEX
  5
192
  8
0
  6
CONTINUOUS
 62
     7
 10
110.6681627743
 20
165.1314530323
 30
0.0
  0
VERTEX
  5
193
  8
0
  6
CONTINUOUS
 62
     7
 10
110.7888297279
 20
165.2278198884
 30
0.0
  0
VERTEX
  5
194
  8
0
  6
CONTINUOUS
 62
     7
 10
110.8788385354
 20
165.3310805928
 30
0.0
  0
VERTEX
  5
195
  8
0
  6
CONTINUOUS
 62
     7
 10
110.9365258723
 20
165.4391847783
 30
0.0
  0
VERTEX
  5
196
  8
0
  6
CONTINUOUS
 62
     7
 10
110.9608777631
 20
165.550000614
 30
0.0
  0
VERTEX
  5
197
  8
0
  6
CONTINUOUS
 62
     7
 10
110.9515407446
 20
165.661358376
 30
0.0
  0
VERTEX
  5
198
  8
0
  6
CONTINUOUS
 62
     7
 10
110.9088193415
 20
165.771093583
 30
0.0
  0
VERTEX
  5
199
  8
0
  6
CONTINUOUS
 62
     7
 10
110.8336606451
 20
165.8770888008
 30
0.0
  0
VERTEX
  5
19A
  8
0
  6
CONTINUOUS
 62
     7
 10
110.7276270239
 20
165.977313345
 30
0.0
  0
VERTEX
  5
19B
  8
0
  6
CONTINUOUS
 62
     7
 10
110.5928581686
 20
166.0698602389
 30
0.0
  0
VERTEX
  5
19C
  8
0
  6
CONTINUOUS
 62
     7
 10
110.4320237649
 20
166.1529799168
 30
0.0
  0
SEQEND
  5
28B
  8
0
  6
CONTINUOUS
 62
     7
  0
ARC
  5
54
  8
0
  6
CONTINUOUS
 62
     7
 10
103.0483604685
 20
167.6573422362
 30
0.0
 40
6.727421979043264
 50
218.3649828502
 51
242.4626679367
  0
ARC
  5
55
  8
0
  6
CONTINUOUS
 62
     7
 10
106.9163455781
 20
174.6812082597
 30
0.0
 40
14.74495355418866
 50
241.7536444471
 51
256.238431207
  0
POLYLINE
  5
56
  8
0
  6
CONTINUOUS
 62
     7
 66
     1
 10
0.0
 20
0.0
 30
0.0
  0
VERTEX
  5
19D
  8
0
  6
CONTINUOUS
 62
     7
 10
90.6043675592
 20
156.0641889425
 30
0.0
  0
VERTEX
  5
19E
  8
0
  6
CONTINUOUS
 62
     7
 10
90.6308610381
 20
155.7887298527
 30
0.0
  0
VERTEX
  5
19F
  8
0
  6
CONTINUOUS
 62
     7
 10
90.6801615964
 20
155.5043566869
 30
0.0
  0
VERTEX
  5
1A0
  8
0
  6
CONTINUOUS
 62
     7
 10
90.7515998003
 20
155.2146689974
 30
0.0
  0
VERTEX
  5
1A1
  8
0
  6
CONTINUOUS
 62
     7
 10
90.8442403516
 20
154.9233168692
 30
0.0
  0
VERTEX
  5
1A2
  8
0
  6
CONTINUOUS
 62
     7
 10
90.9568944188
 20
154.633959761
 30
0.0
  0
VERTEX
  5
1A3
  8
0
  6
CONTINUOUS
 62
     7
 10
91.0881341378
 20
154.3502258123
 30
0.0
  0
VERTEX
  5
1A4
  8
0
  6
CONTINUOUS
 62
     7
 10
91.2363091487
 20
154.0756718042
 30
0.0
  0
VERTEX
  5
1A5
  8
0
  6
CONTINUOUS
 62
     7
 10
91.3995650539
 20
153.8137439453
 30
0.0
  0
VERTEX
  5
1A6
  8
0
  6
CONTINUOUS
 62
     7
 10
91.5758637077
 20
153.5677396486
 30
0.0
  0
VERTEX
  5
1A7
  8
0
  6
CONTINUOUS
 62
     7
 10
91.7630052589
 20
153.340770472
 30
0.0
  0
VERTEX
  5
1A8
  8
0
  6
CONTINUOUS
 62
     7
 10
91.9586518763
 20
153.1357264178
 30
0.0
  0
VERTEX
  5
1A9
  8
0
  6
CONTINUOUS
 62
     7
 10
92.1603530875
 20
152.9552418134
 30
0.0
  0
VERTEX
  5
1AA
  8
0
  6
CONTINUOUS
 62
     7
 10
92.3655726496
 20
152.8016630377
 30
0.0
  0
VERTEX
  5
1AB
  8
0
  6
CONTINUOUS
 62
     7
 10
92.5717168502
 20
152.6770184003
 30
0.0
  0
VERTEX
  5
1AC
  8
0
  6
CONTINUOUS
 62
     7
 10
92.7761641088
 20
152.5829905263
 30
0.0
  0
VERTEX
  5
1AD
  8
0
  6
CONTINUOUS
 62
     7
 10
92.9762957062
 20
152.5208916485
 30
0.0
  0
VERTEX
  5
1AE
  8
0
  6
CONTINUOUS
 62
     7
 10
93.1695274241
 20
152.4916422461
 30
0.0
  0
VERTEX
  5
1AF
  8
0
  6
CONTINUOUS
 62
     7
 10
93.3533418205
 20
152.4957535028
 30
0.0
  0
VERTEX
  5
1B0
  8
0
  6
CONTINUOUS
 62
     7
 10
93.5253208074
 20
152.5333140755
 30
0.0
  0
VERTEX
  5
1B1
  8
0
  6
CONTINUOUS
 62
     7
 10
93.6831781367
 20
152.6039816649
 30
0.0
  0
VERTEX
  5
1B2
  8
0
  6
CONTINUOUS
 62
     7
 10
93.8247913407
 20
152.7069798624
 30
0.0
  0
VERTEX
  5
1B3
  8
0
  6
CONTINUOUS
 62
     7
 10
93.9482326179
 20
152.8411007041
 30
0.0
  0
VERTEX
  5
1B4
  8
0
  6
CONTINUOUS
 62
     7
 10
94.0517981119
 20
153.0047132951
 30
0.0
  0
VERTEX
  5
1B5
  8
0
  6
CONTINUOUS
 62
     7
 10
94.1340349972
 20
153.1957787755
 30
0.0
  0
VERTEX
  5
1B6
  8
0
  6
CONTINUOUS
 62
     7
 10
94.1937657717
 20
153.4118717813
 30
0.0
  0
VERTEX
  5
1B7
  8
0
  6
CONTINUOUS
 62
     7
 10
94.2301091591
 20
153.6502084129
 30
0.0
  0
VERTEX
  5
1B8
  8
0
  6
CONTINUOUS
 62
     7
 10
94.2424970532
 20
153.9076805645
 30
0.0
  0
VERTEX
  5
1B9
  8
0
  6
CONTINUOUS
 62
     7
 10
94.230686984
 20
154.1808962988
 30
0.0
  0
VERTEX
  5
1BA
  8
0
  6
CONTINUOUS
 62
     7
 10
94.1947696633
 20
154.4662257705
 30
0.0
  0
VERTEX
  5
1BB
  8
0
  6
CONTINUOUS
 62
     7
 10
94.1351712614
 20
154.7598520285
 30
0.0
  0
VERTEX
  5
1BC
  8
0
  6
CONTINUOUS
 62
     7
 10
94.0526501849
 20
155.0578258604
 30
0.0
  0
VERTEX
  5
1BD
  8
0
  6
CONTINUOUS
 62
     7
 10
93.9482882601
 20
155.3561236976
 30
0.0
  0
VERTEX
  5
1BE
  8
0
  6
CONTINUOUS
 62
     7
 10
93.8234763664
 20
155.6507074781
 30
0.0
  0
VERTEX
  5
1BF
  8
0
  6
CONTINUOUS
 62
     7
 10
93.6798947157
 20
155.9375852807
 30
0.0
  0
VERTEX
  5
1C0
  8
0
  6
CONTINUOUS
 62
     7
 10
93.5194881187
 20
156.2128714964
 30
0.0
  0
VERTEX
  5
1C1
  8
0
  6
CONTINUOUS
 62
     7
 10
93.3444367145
 20
156.4728452998
 30
0.0
  0
VERTEX
  5
1C2
  8
0
  6
CONTINUOUS
 62
     7
 10
93.1571227651
 20
156.7140062235
 30
0.0
  0
VERTEX
  5
1C3
  8
0
  6
CONTINUOUS
 62
     7
 10
92.9600942137
 20
156.9331257188
 30
0.0
  0
VERTEX
  5
1C4
  8
0
  6
CONTINUOUS
 62
     7
 10
92.7560257849
 20
157.1272937052
 30
0.0
  0
VERTEX
  5
1C5
  8
0
  6
CONTINUOUS
 62
     7
 10
92.5476784475
 20
157.2939592643
 30
0.0
  0
VERTEX
  5
1C6
  8
0
  6
CONTINUOUS
 62
     7
 10
92.3378580829
 20
157.4309648067
 30
0.0
  0
VERTEX
  5
1C7
  8
0
  6
CONTINUOUS
 62
     7
 10
92.1293741875
 20
157.5365732332
 30
0.0
  0
VERTEX
  5
1C8
  8
0
  6
CONTINUOUS
 62
     7
 10
91.9249993976
 20
157.609487807
 30
0.0
  0
VERTEX
  5
1C9
  8
0
  6
CONTINUOUS
 62
     7
 10
91.7274305649
 20
157.6488646509
 30
0.0
  0
VERTEX
  5
1CA
  8
0
  6
CONTINUOUS
 62
     7
 10
91.5392520253
 20
157.6543179637
 30
0.0
  0
VERTEX
  5
1CB
  8
0
  6
CONTINUOUS
 62
     7
 10
91.3629016079
 20
157.6259182173
 30
0.0
  0
VERTEX
  5
1CC
  8
0
  6
CONTINUOUS
 62
     7
 10
91.2006398247
 20
157.5641837368
 30
0.0
  0
VERTEX
  5
1CD
  8
0
  6
CONTINUOUS
 62
     7
 10
91.0545225713
 20
157.4700661785
 30
0.0
  0
VERTEX
  5
1CE
  8
0
  6
CONTINUOUS
 62
     7
 10
90.9263775631
 20
157.344930507
 30
0.0
  0
VERTEX
  5
1CF
  8
0
  6
CONTINUOUS
 62
     7
 10
90.8177846282
 20
157.1905301248
 30
0.0
  0
VERTEX
  5
1D0
  8
0
  6
CONTINUOUS
 62
     7
 10
90.7300598867
 20
157.0089778347
 30
0.0
  0
VERTEX
  5
1D1
  8
0
  6
CONTINUOUS
 62
     7
 10
90.66424377
 20
156.8027133153
 30
0.0
  0
VERTEX
  5
1D2
  8
0
  6
CONTINUOUS
 62
     7
 10
90.621092766
 20
156.574467766
 30
0.0
  0
VERTEX
  5
1D3
  8
0
  6
CONTINUOUS
 62
     7
 10
90.6010747289
 20
156.3272263423
 30
0.0
  0
VERTEX
  5
1D4
  8
0
  6
CONTINUOUS
 62
     7
 10
90.6043675592
 20
156.0641889425
 30
0.0
  0
SEQEND
  5
28A
  8
0
  6
CONTINUOUS
 62
     7
  0
ARC
  5
57
  8
0
  6
CONTINUOUS
 62
     7
 10
92.290441049
 20
154.7339259621
 30
0.0
 40
6.749759957918661
 50
12.2357048577
 51
53.6600311848
  0
POLYLINE
  5
58
  8
0
  6
CONTINUOUS
 62
     7
 66
     1
 10
0.0
 20
0.0
 30
0.0
  0
VERTEX
  5
1D5
  8
0
  6
CONTINUOUS
 62
     7
 10
91.2002175945
 20
155.7328230853
 30
0.0
  0
VERTEX
  5
1D6
  8
0
  6
CONTINUOUS
 62
     7
 10
91.2001314127
 20
155.9461444523
 30
0.0
  0
VERTEX
  5
1D7
  8
0
  6
CONTINUOUS
 62
     7
 10
91.223359299
 20
156.1427424897
 30
0.0
  0
VERTEX
  5
1D8
  8
0
  6
CONTINUOUS
 62
     7
 10
91.2695204986
 20
156.318799912
 30
0.0
  0
VERTEX
  5
1D9
  8
0
  6
CONTINUOUS
 62
     7
 10
91.337797168
 20
156.4708664675
 30
0.0
  0
VERTEX
  5
1DA
  8
0
  6
CONTINUOUS
 62
     7
 10
91.4269441443
 20
156.5959277332
 30
0.0
  0
VERTEX
  5
1DB
  8
0
  6
CONTINUOUS
 62
     7
 10
91.5353067425
 20
156.6914678281
 30
0.0
  0
VERTEX
  5
1DC
  8
0
  6
CONTINUOUS
 62
     7
 10
91.6608467255
 20
156.7555245415
 30
0.0
  0
VERTEX
  5
1DD
  8
0
  6
CONTINUOUS
 62
     7
 10
91.801176423
 20
156.7867353582
 30
0.0
  0
VERTEX
  5
1DE
  8
0
  6
CONTINUOUS
 62
     7
 10
91.9536007763
 20
156.7843728973
 30
0.0
  0
VERTEX
  5
1DF
  8
0
  6
CONTINUOUS
 62
     7
 10
92.1151668504
 20
156.7483683936
 30
0.0
  0
VERTEX
  5
1E0
  8
0
  6
CONTINUOUS
 62
     7
 10
92.2827201014
 20
156.6793220353
 30
0.0
  0
VERTEX
  5
1E1
  8
0
  6
CONTINUOUS
 62
     7
 10
92.4529664209
 20
156.5784992432
 30
0.0
  0
VERTEX
  5
1E2
  8
0
  6
CONTINUOUS
 62
     7
 10
92.6225387206
 20
156.4478123161
 30
0.0
  0
VERTEX
  5
1E3
  8
0
  6
CONTINUOUS
 62
     7
 10
92.7880665842
 20
156.2897872817
 30
0.0
  0
VERTEX
  5
1E4
  8
0
  6
CONTINUOUS
 62
     7
 10
92.9462473164
 20
156.1075162469
 30
0.0
  0
VERTEX
  5
1E5
  8
0
  6
CONTINUOUS
 62
     7
 10
93.0939165789
 20
155.9045960332
 30
0.0
  0
VERTEX
  5
1E6
  8
0
  6
CONTINUOUS
 62
     7
 10
93.2281167303
 20
155.6850543669
 30
0.0
  0
VERTEX
  5
1E7
  8
0
  6
CONTINUOUS
 62
     7
 10
93.3461609976
 20
155.4532653535
 30
0.0
  0
VERTEX
  5
1E8
  8
0
  6
CONTINUOUS
 62
     7
 10
93.4456916908
 20
155.2138563715
 30
0.0
  0
VERTEX
  5
1E9
  8
0
  6
CONTINUOUS
 62
     7
 10
93.5247308483
 20
154.9716088402
 30
0.0
  0
VERTEX
  5
1EA
  8
0
  6
CONTINUOUS
 62
     7
 10
93.5817219399
 20
154.7313555358
 30
0.0
  0
VERTEX
  5
1EB
  8
0
  6
CONTINUOUS
 62
     7
 10
93.6155615598
 20
154.4978772355
 30
0.0
  0
VERTEX
  5
1EC
  8
0
  6
CONTINUOUS
 62
     7
 10
93.625620384
 20
154.2758014505
 30
0.0
  0
VERTEX
  5
1ED
  8
0
  6
CONTINUOUS
 62
     7
 10
93.6117530386
 20
154.0695058766
 30
0.0
  0
VERTEX
  5
1EE
  8
0
  6
CONTINUOUS
 62
     7
 10
93.5742968884
 20
153.8830289499
 30
0.0
  0
VERTEX
  5
1EF
  8
0
  6
CONTINUOUS
 62
     7
 10
93.5140601075
 20
153.7199895685
 30
0.0
  0
VERTEX
  5
1F0
  8
0
  6
CONTINUOUS
 62
     7
 10
93.4322997027
 20
153.5835176529
 30
0.0
  0
VERTEX
  5
1F1
  8
0
  6
CONTINUOUS
 62
     7
 10
93.3306904228
 20
153.4761967874
 30
0.0
  0
VERTEX
  5
1F2
  8
0
  6
CONTINUOUS
 62
     7
 10
93.2112856827
 20
153.4000197505
 30
0.0
  0
VERTEX
  5
1F3
  8
0
  6
CONTINUOUS
 62
     7
 10
93.0764717687
 20
153.3563573158
 30
0.0
  0
VERTEX
  5
1F4
  8
0
  6
CONTINUOUS
 62
     7
 10
92.9289166612
 20
153.3459403191
 30
0.0
  0
VERTEX
  5
1F5
  8
0
  6
CONTINUOUS
 62
     7
 10
92.7715148205
 20
153.3688546507
 30
0.0
  0
VERTEX
  5
1F6
  8
0
  6
CONTINUOUS
 62
     7
 10
92.6073292447
 20
153.4245485562
 30
0.0
  0
VERTEX
  5
1F7
  8
0
  6
CONTINUOUS
 62
     7
 10
92.4395320278
 20
153.511851425
 30
0.0
  0
VERTEX
  5
1F8
  8
0
  6
CONTINUOUS
 62
     7
 10
92.2713445404
 20
153.6290031007
 30
0.0
  0
VERTEX
  5
1F9
  8
0
  6
CONTINUOUS
 62
     7
 10
92.1059782313
 20
153.7736926691
 30
0.0
  0
VERTEX
  5
1FA
  8
0
  6
CONTINUOUS
 62
     7
 10
91.9465769258
 20
153.9431056514
 30
0.0
  0
VERTEX
  5
1FB
  8
0
  6
CONTINUOUS
 62
     7
 10
91.7961613705
 20
154.1339785394
 30
0.0
  0
VERTEX
  5
1FC
  8
0
  6
CONTINUOUS
 62
     7
 10
91.6575766724
 20
154.3426596486
 30
0.0
  0
VERTEX
  5
1FD
  8
0
  6
CONTINUOUS
 62
     7
 10
91.5334431896
 20
154.5651753188
 30
0.0
  0
VERTEX
  5
1FE
  8
0
  6
CONTINUOUS
 62
     7
 10
91.4261113656
 20
154.7973005429
 30
0.0
  0
VERTEX
  5
1FF
  8
0
  6
CONTINUOUS
 62
     7
 10
91.3376209566
 20
155.0346331527
 30
0.0
  0
VERTEX
  5
200
  8
0
  6
CONTINUOUS
 62
     7
 10
91.2696650794
 20
155.2726707112
 30
0.0
  0
VERTEX
  5
201
  8
0
  6
CONTINUOUS
 62
     7
 10
91.2235595002
 20
155.5068892656
 30
0.0
  0
VERTEX
  5
202
  8
0
  6
CONTINUOUS
 62
     7
 10
91.2002175945
 20
155.7328230853
 30
0.0
  0
SEQEND
  5
289
  8
0
  6
CONTINUOUS
 62
     7
  0
ARC
  5
59
  8
0
  6
CONTINUOUS
 62
     7
 10
101.5124325767
 20
151.3647490985
 30
0.0
 40
5.470875909443543
 50
101.3747874968
 51
118.6798937923
  0
ARC
  5
5A
  8
0
  6
CONTINUOUS
 62
     7
 10
101.3502881669
 20
152.9969873302
 30
0.0
 40
3.84217633277022
 50
78.5862372168
 51
103.8056316746
  0
POLYLINE
  5
5B
  8
0
  6
CONTINUOUS
 62
     7
 66
     1
 10
0.0
 20
0.0
 30
0.0
  0
VERTEX
  5
203
  8
0
  6
CONTINUOUS
 62
     7
 10
100.4334338149
 20
156.7281663756
 30
0.0
  0
VERTEX
  5
204
  8
0
  6
CONTINUOUS
 62
     7
 10
100.0617438551
 20
157.2325421728
 30
0.0
  0
VERTEX
  5
205
  8
0
  6
CONTINUOUS
 62
     7
 10
99.720122227
 20
157.7597884372
 30
0.0
  0
VERTEX
  5
206
  8
0
  6
CONTINUOUS
 62
     7
 10
99.414184264
 20
158.2946930996
 30
0.0
  0
VERTEX
  5
207
  8
0
  6
CONTINUOUS
 62
     7
 10
99.1493198145
 20
158.8221639741
 30
0.0
  0
VERTEX
  5
208
  8
0
  6
CONTINUOUS
 62
     7
 10
98.9220408817
 20
159.3207779769
 30
0.0
  0
VERTEX
  5
209
  8
0
  6
CONTINUOUS
 62
     7
 10
98.6940473545
 20
159.7448621508
 30
0.0
  0
VERTEX
  5
20A
  8
0
  6
CONTINUOUS
 62
     7
 10
98.4541287685
 20
160.1091887252
 30
0.0
  0
VERTEX
  5
20B
  8
0
  6
CONTINUOUS
 62
     7
 10
98.2012251235
 20
160.424778342
 30
0.0
  0
VERTEX
  5
20C
  8
0
  6
CONTINUOUS
 62
     7
 10
97.9342943715
 20
160.7027141693
 30
0.0
  0
SEQEND
  5
288
  8
0
  6
CONTINUOUS
 62
     7
  0
ARC
  5
5C
  8
0
  6
CONTINUOUS
 62
     7
 10
77.3604988045
 20
221.5065199983
 30
0.0
 40
64.19021628981318
 50
287.1515299059
 51
288.6939487394
  0
POLYLINE
  5
5D
  8
0
  6
CONTINUOUS
 62
     7
 66
     1
 10
0.0
 20
0.0
 30
0.0
  0
VERTEX
  5
20D
  8
0
  6
CONTINUOUS
 62
     7
 10
102.4124977936
 20
158.8267366683
 30
0.0
  0
VERTEX
  5
20E
  8
0
  6
CONTINUOUS
 62
     7
 10
101.6453133297
 20
159.1475982194
 30
0.0
  0
VERTEX
  5
20F
  8
0
  6
CONTINUOUS
 62
     7
 10
100.8335975442
 20
159.4855005524
 30
0.0
  0
VERTEX
  5
210
  8
0
  6
CONTINUOUS
 62
     7
 10
99.9476414981
 20
159.8521062678
 30
0.0
  0
VERTEX
  5
211
  8
0
  6
CONTINUOUS
 62
     7
 10
99.2633748519
 20
160.1549627388
 30
0.0
  0
VERTEX
  5
212
  8
0
  6
CONTINUOUS
 62
     7
 10
98.5983517129
 20
160.4466025006
 30
0.0
  0
VERTEX
  5
213
  8
0
  6
CONTINUOUS
 62
     7
 10
97.9342943715
 20
160.7027141693
 30
0.0
  0
SEQEND
  5
287
  8
0
  6
CONTINUOUS
 62
     7
  0
POLYLINE
  5
5E
  8
0
  6
CONTINUOUS
 62
     7
 66
     1
 10
0.0
 20
0.0
 30
0.0
  0
VERTEX
  5
214
  8
0
  6
CONTINUOUS
 62
     7
 10
99.9380952629
 20
161.6920713425
 30
0.0
  0
VERTEX
  5
215
  8
0
  6
CONTINUOUS
 62
     7
 10
99.6852644593
 20
161.5793255738
 30
0.0
  0
VERTEX
  5
216
  8
0
  6
CONTINUOUS
 62
     7
 10
99.4474621737
 20
161.4615372784
 30
0.0
  0
VERTEX
  5
217
  8
0
  6
CONTINUOUS
 62
     7
 10
99.1865331545
 20
161.3213346615
 30
0.0
  0
VERTEX
  5
218
  8
0
  6
CONTINUOUS
 62
     7
 10
98.8740573165
 20
161.1481469716
 30
0.0
  0
VERTEX
  5
219
  8
0
  6
CONTINUOUS
 62
     7
 10
98.3930610684
 20
160.9025019354
 30
0.0
  0
VERTEX
  5
21A
  8
0
  6
CONTINUOUS
 62
     7
 10
97.9342943715
 20
160.7027141693
 30
0.0
  0
SEQEND
  5
286
  8
0
  6
CONTINUOUS
 62
     7
  0
ARC
  5
5F
  8
0
  6
CONTINUOUS
 62
     7
 10
119.8177273778
 20
186.5521814848
 30
0.0
 40
33.8685636045952
 50
225.4055142491
 51
229.7496854652
  0
ARC
  5
60
  8
0
  6
CONTINUOUS
 62
     8
 10
98.3928346586
 20
162.9470302366
 30
0.0
 40
3.800432823235967
 50
183.1202197507
 51
216.5124860692
  0
POLYLINE
  5
61
  8
0
  6
CONTINUOUS
 62
     8
 66
     1
 10
0.0
 20
0.0
 30
0.0
  0
VERTEX
  5
21B
  8
0
  6
CONTINUOUS
 62
     8
 10
123.8528206361
 20
162.51463897
 30
0.0
  0
VERTEX
  5
21C
  8
0
  6
CONTINUOUS
 62
     8
 10
123.8424146069
 20
162.3804213765
 30
0.0
  0
VERTEX
  5
21D
  8
0
  6
CONTINUOUS
 62
     8
 10
123.7923156162
 20
162.0448810761
 30
0.0
  0
VERTEX
  5
21E
  8
0
  6
CONTINUOUS
 62
     8
 10
123.7076164255
 20
161.7099026247
 30
0.0
  0
VERTEX
  5
21F
  8
0
  6
CONTINUOUS
 62
     8
 10
123.588152382
 20
161.3763054827
 30
0.0
  0
VERTEX
  5
220
  8
0
  6
CONTINUOUS
 62
     8
 10
123.4338473332
 20
161.0449227337
 30
0.0
  0
VERTEX
  5
221
  8
0
  6
CONTINUOUS
 62
     8
 10
123.244717381
 20
160.7165988467
 30
0.0
  0
VERTEX
  5
222
  8
0
  6
CONTINUOUS
 62
     8
 10
123.0208743982
 20
160.3921872359
 30
0.0
  0
VERTEX
  5
223
  8
0
  6
CONTINUOUS
 62
     8
 10
122.7625292575
 20
160.0725476225
 30
0.0
  0
VERTEX
  5
224
  8
0
  6
CONTINUOUS
 62
     8
 10
122.4699947248
 20
159.7585432054
 30
0.0
  0
VERTEX
  5
225
  8
0
  6
CONTINUOUS
 62
     8
 10
122.1436879689
 20
159.4510376501
 30
0.0
  0
VERTEX
  5
226
  8
0
  6
CONTINUOUS
 62
     8
 10
121.7841326377
 20
159.1508919082
 30
0.0
  0
VERTEX
  5
227
  8
0
  6
CONTINUOUS
 62
     8
 10
121.3919604565
 20
158.8589608824
 30
0.0
  0
VERTEX
  5
228
  8
0
  6
CONTINUOUS
 62
     8
 10
120.9679123011
 20
158.5760899559
 30
0.0
  0
VERTEX
  5
229
  8
0
  6
CONTINUOUS
 62
     8
 10
120.5128387061
 20
158.3031114057
 30
0.0
  0
VERTEX
  5
22A
  8
0
  6
CONTINUOUS
 62
     8
 10
120.0276997702
 20
158.0408407246
 30
0.0
  0
VERTEX
  5
22B
  8
0
  6
CONTINUOUS
 62
     8
 10
119.5135644231
 20
157.7900728769
 30
0.0
  0
VERTEX
  5
22C
  8
0
  6
CONTINUOUS
 62
     8
 10
118.9716090301
 20
157.5515785176
 30
0.0
  0
VERTEX
  5
22D
  8
0
  6
CONTINUOUS
 62
     8
 10
118.4031153078
 20
157.3261002037
 30
0.0
  0
VERTEX
  5
22E
  8
0
  6
CONTINUOUS
 62
     8
 10
117.8094675407
 20
157.1143486317
 30
0.0
  0
VERTEX
  5
22F
  8
0
  6
CONTINUOUS
 62
     8
 10
117.1921490879
 20
156.9169989339
 30
0.0
  0
VERTEX
  5
230
  8
0
  6
CONTINUOUS
 62
     8
 10
116.5527381822
 20
156.734687068
 30
0.0
  0
VERTEX
  5
231
  8
0
  6
CONTINUOUS
 62
     8
 10
115.89290303
 20
156.5680063353
 30
0.0
  0
VERTEX
  5
232
  8
0
  6
CONTINUOUS
 62
     8
 10
115.2143962303
 20
156.4175040618
 30
0.0
  0
VERTEX
  5
233
  8
0
  6
CONTINUOUS
 62
     8
 10
114.5190485381
 20
156.2836784771
 30
0.0
  0
VERTEX
  5
234
  8
0
  6
CONTINUOUS
 62
     8
 10
113.8087620085
 20
156.1669758236
 30
0.0
  0
VERTEX
  5
235
  8
0
  6
CONTINUOUS
 62
     8
 10
113.0855025639
 20
156.0677877275
 30
0.0
  0
VERTEX
  5
236
  8
0
  6
CONTINUOUS
 62
     8
 10
112.3512920369
 20
155.9864488613
 30
0.0
  0
VERTEX
  5
237
  8
0
  6
CONTINUOUS
 62
     8
 10
111.6081997475
 20
155.9232349225
 30
0.0
  0
VERTEX
  5
238
  8
0
  6
CONTINUOUS
 62
     8
 10
110.8583336805
 20
155.8783609541
 30
0.0
  0
VERTEX
  5
239
  8
0
  6
CONTINUOUS
 62
     8
 10
110.1038313348
 20
155.8519800239
 30
0.0
  0
VERTEX
  5
23A
  8
0
  6
CONTINUOUS
 62
     8
 10
109.3468503217
 20
155.8441822793
 30
0.0
  0
VERTEX
  5
23B
  8
0
  6
CONTINUOUS
 62
     8
 10
108.5895587926
 20
155.8549943894
 30
0.0
  0
VERTEX
  5
23C
  8
0
  6
CONTINUOUS
 62
     8
 10
107.8341257778
 20
155.8843793786
 30
0.0
  0
VERTEX
  5
23D
  8
0
  6
CONTINUOUS
 62
     8
 10
107.0827115233
 20
155.9322368567
 30
0.0
  0
VERTEX
  5
23E
  8
0
  6
CONTINUOUS
 62
     8
 10
106.3374579073
 20
155.9984036405
 30
0.0
  0
VERTEX
  5
23F
  8
0
  6
CONTINUOUS
 62
     8
 10
105.6004790216
 20
156.0826547604
 30
0.0
  0
VERTEX
  5
240
  8
0
  6
CONTINUOUS
 62
     8
 10
104.8738519962
 20
156.1847048403
 30
0.0
  0
VERTEX
  5
241
  8
0
  6
CONTINUOUS
 62
     8
 10
104.159608147
 20
156.3042098342
 30
0.0
  0
VERTEX
  5
242
  8
0
  6
CONTINUOUS
 62
     8
 10
103.4597245148
 20
156.4407691002
 30
0.0
  0
VERTEX
  5
243
  8
0
  6
CONTINUOUS
 62
     8
 10
102.7761158651
 20
156.593927787
 30
0.0
  0
VERTEX
  5
244
  8
0
  6
CONTINUOUS
 62
     8
 10
102.1106272055
 20
156.7631795077
 30
0.0
  0
SEQEND
  5
285
  8
0
  6
CONTINUOUS
 62
     8
  0
POLYLINE
  5
62
  8
0
  6
CONTINUOUS
 62
     8
 66
     1
 10
0.0
 20
0.0
 30
0.0
  0
VERTEX
  5
245
  8
0
  6
CONTINUOUS
 62
     8
 10
102.1106272055
 20
156.7631795077
 30
0.0
  0
VERTEX
  5
246
  8
0
  6
CONTINUOUS
 62
     8
 10
102.1717975129
 20
156.0681810306
 30
0.0
  0
VERTEX
  5
247
  8
0
  6
CONTINUOUS
 62
     8
 10
102.1558864403
 20
155.3874832173
 30
0.0
  0
VERTEX
  5
248
  8
0
  6
CONTINUOUS
 62
     8
 10
102.1058355782
 20
154.9736027117
 30
0.0
  0
VERTEX
  5
249
  8
0
  6
CONTINUOUS
 62
     8
 10
102.0254625326
 20
154.5747916981
 30
0.0
  0
VERTEX
  5
24A
  8
0
  6
CONTINUOUS
 62
     8
 10
101.9127944028
 20
154.1856550652
 30
0.0
  0
VERTEX
  5
24B
  8
0
  6
CONTINUOUS
 62
     8
 10
101.7702764398
 20
153.8173596654
 30
0.0
  0
VERTEX
  5
24C
  8
0
  6
CONTINUOUS
 62
     8
 10
101.6064509551
 20
153.4860452614
 30
0.0
  0
VERTEX
  5
24D
  8
0
  6
CONTINUOUS
 62
     8
 10
101.4174556325
 20
153.1789898228
 30
0.0
  0
VERTEX
  5
24E
  8
0
  6
CONTINUOUS
 62
     8
 10
101.1994701269
 20
152.8928029322
 30
0.0
  0
VERTEX
  5
24F
  8
0
  6
CONTINUOUS
 62
     8
 10
100.9583178397
 20
152.6378044843
 30
0.0
  0
VERTEX
  5
250
  8
0
  6
CONTINUOUS
 62
     8
 10
100.7054713584
 20
152.4244011998
 30
0.0
  0
VERTEX
  5
251
  8
0
  6
CONTINUOUS
 62
     8
 10
100.4348630111
 20
152.2459654858
 30
0.0
  0
VERTEX
  5
252
  8
0
  6
CONTINUOUS
 62
     8
 10
100.1397547192
 20
152.1020184047
 30
0.0
  0
VERTEX
  5
253
  8
0
  6
CONTINUOUS
 62
     8
 10
99.831124303
 20
152.0017914409
 30
0.0
  0
VERTEX
  5
254
  8
0
  6
CONTINUOUS
 62
     8
 10
99.5385795965
 20
151.9511438905
 30
0.0
  0
VERTEX
  5
255
  8
0
  6
CONTINUOUS
 62
     8
 10
99.2403617106
 20
151.9421489692
 30
0.0
  0
VERTEX
  5
256
  8
0
  6
CONTINUOUS
 62
     8
 10
98.9276631724
 20
151.9789689373
 30
0.0
  0
VERTEX
  5
257
  8
0
  6
CONTINUOUS
 62
     8
 10
98.6161499612
 20
152.0635222186
 30
0.0
  0
VERTEX
  5
258
  8
0
  6
CONTINUOUS
 62
     8
 10
98.3491613234
 20
152.1761706364
 30
0.0
  0
VERTEX
  5
259
  8
0
  6
CONTINUOUS
 62
     8
 10
98.0885109454
 20
152.3241705509
 30
0.0
  0
VERTEX
  5
25A
  8
0
  6
CONTINUOUS
 62
     8
 10
97.8272910524
 20
152.5137541887
 30
0.0
  0
VERTEX
  5
25B
  8
0
  6
CONTINUOUS
 62
     8
 10
97.5774910158
 20
152.737543965
 30
0.0
  0
VERTEX
  5
25C
  8
0
  6
CONTINUOUS
 62
     8
 10
97.3252940143
 20
153.0113972034
 30
0.0
  0
VERTEX
  5
25D
  8
0
  6
CONTINUOUS
 62
     8
 10
97.1151180231
 20
153.2839768321
 30
0.0
  0
SEQEND
  5
284
  8
0
  6
CONTINUOUS
 62
     8
  0
LINE
  5
63
  8
0
  6
CONTINUOUS
 62
     8
 10
95.3397135916
 20
160.4729467532
 30
0.0
 11
95.3383233661
 21
160.6857804918
 31
0.0
  0
POLYLINE
  5
64
  8
0
  6
CONTINUOUS
 62
     8
 66
     1
 10
0.0
 20
0.0
 30
0.0
  0
VERTEX
  5
25E
  8
0
  6
CONTINUOUS
 62
     8
 10
91.5493302395
 20
158.7449313236
 30
0.0
  0
VERTEX
  5
25F
  8
0
  6
CONTINUOUS
 62
     8
 10
91.6603460518
 20
158.7889362841
 30
0.0
  0
VERTEX
  5
260
  8
0
  6
CONTINUOUS
 62
     8
 10
91.8605554918
 20
158.8369082754
 30
0.0
  0
VERTEX
  5
261
  8
0
  6
CONTINUOUS
 62
     8
 10
92.0738512955
 20
158.8506963014
 30
0.0
  0
VERTEX
  5
262
  8
0
  6
CONTINUOUS
 62
     8
 10
92.298145243
 20
158.8299912024
 30
0.0
  0
VERTEX
  5
263
  8
0
  6
CONTINUOUS
 62
     8
 10
92.531215254
 20
158.7748366514
 30
0.0
  0
VERTEX
  5
264
  8
0
  6
CONTINUOUS
 62
     8
 10
92.7707269903
 20
158.6856353511
 30
0.0
  0
VERTEX
  5
265
  8
0
  6
CONTINUOUS
 62
     8
 10
93.0142575931
 20
158.5631510589
 30
0.0
  0
VERTEX
  5
266
  8
0
  6
CONTINUOUS
 62
     8
 10
93.2593213136
 20
158.4085061575
 30
0.0
  0
VERTEX
  5
267
  8
0
  6
CONTINUOUS
 62
     8
 10
93.5033967339
 20
158.2231745646
 30
0.0
  0
VERTEX
  5
268
  8
0
  6
CONTINUOUS
 62
     8
 10
93.7439552144
 20
158.0089698637
 30
0.0
  0
VERTEX
  5
269
  8
0
  6
CONTINUOUS
 62
     8
 10
93.9784901544
 20
157.7680286371
 30
0.0
  0
VERTEX
  5
26A
  8
0
  6
CONTINUOUS
 62
     8
 10
94.2045466058
 20
157.5027890925
 30
0.0
  0
VERTEX
  5
26B
  8
0
  6
CONTINUOUS
 62
     8
 10
94.4197507498
 20
157.2159651833
 30
0.0
  0
VERTEX
  5
26C
  8
0
  6
CONTINUOUS
 62
     8
 10
94.6218387291
 20
156.9105165393
 30
0.0
  0
VERTEX
  5
26D
  8
0
  6
CONTINUOUS
 62
     8
 10
94.8086843207
 20
156.5896146279
 30
0.0
  0
VERTEX
  5
26E
  8
0
  6
CONTINUOUS
 62
     8
 10
94.9783249527
 20
156.2566056676
 30
0.0
  0
VERTEX
  5
26F
  8
0
  6
CONTINUOUS
 62
     8
 10
95.1289855897
 20
155.9149708995
 30
0.0
  0
VERTEX
  5
270
  8
0
  6
CONTINUOUS
 62
     8
 10
95.2591000601
 20
155.5682848908
 30
0.0
  0
VERTEX
  5
271
  8
0
  6
CONTINUOUS
 62
     8
 10
95.3673294523
 20
155.2201725944
 30
0.0
  0
VERTEX
  5
272
  8
0
  6
CONTINUOUS
 62
     8
 10
95.4525772748
 20
154.8742659114
 30
0.0
  0
VERTEX
  5
273
  8
0
  6
CONTINUOUS
 62
     8
 10
95.5140011539
 20
154.5341605118
 30
0.0
  0
VERTEX
  5
274
  8
0
  6
CONTINUOUS
 62
     8
 10
95.5510209221
 20
154.2033736454
 30
0.0
  0
VERTEX
  5
275
  8
0
  6
CONTINUOUS
 62
     8
 10
95.5633230388
 20
153.8853036359
 30
0.0
  0
VERTEX
  5
276
  8
0
  6
CONTINUOUS
 62
     8
 10
95.5508613638
 20
153.5831916902
 30
0.0
  0
VERTEX
  5
277
  8
0
  6
CONTINUOUS
 62
     8
 10
95.5138543882
 20
153.3000865798
 30
0.0
  0
VERTEX
  5
278
  8
0
  6
CONTINUOUS
 62
     8
 10
95.452779096
 20
153.0388126613
 30
0.0
  0
VERTEX
  5
279
  8
0
  6
CONTINUOUS
 62
     8
 10
95.3683616956
 20
152.8019416051
 30
0.0
  0
VERTEX
  5
27A
  8
0
  6
CONTINUOUS
 62
     8
 10
95.2615655084
 20
152.5917681004
 30
0.0
  0
VERTEX
  5
27B
  8
0
  6
CONTINUOUS
 62
     8
 10
95.1335763471
 20
152.410289704
 30
0.0
  0
VERTEX
  5
27C
  8
0
  6
CONTINUOUS
 62
     8
 10
94.9857857355
 20
152.2591908987
 30
0.0
  0
VERTEX
  5
27D
  8
0
  6
CONTINUOUS
 62
     8
 10
94.8197723425
 20
152.139831341
 30
0.0
  0
VERTEX
  5
27E
  8
0
  6
CONTINUOUS
 62
     8
 10
94.7513789288
 20
152.1025762059
 30
0.0
  0
SEQEND
  5
283
  8
0
  6
CONTINUOUS
 62
     8
  0
ARC
  5
65
  8
0
  6
CONTINUOUS
 62
     8
 10
96.6187450152
 20
155.6468650502
 30
0.0
 40
2.326430540702809
 50
297.0402163503
 51
12.8542131178
  0
ARC
  5
66
  8
0
  6
CONTINUOUS
 62
     8
 10
95.5178480771
 20
159.2984943863
 30
0.0
 40
1.165201560894626
 50
48.4837362577
 51
107.9100316662
  0
POLYLINE
  5
67
  8
0
  6
CONTINUOUS
 62
     8
 66
     1
 10
0.0
 20
0.0
 30
0.0
  0
VERTEX
  5
27F
  8
0
  6
CONTINUOUS
 62
     8
 10
95.4293038953
 20
160.4878230299
 30
0.0
  0
VERTEX
  5
280
  8
0
  6
CONTINUOUS
 62
     8
 10
95.4224845331
 20
160.5179558393
 30
0.0
  0
VERTEX
  5
281
  8
0
  6
CONTINUOUS
 62
     8
 10
95.3383233661
 20
160.6857804918
 30
0.0
  0
SEQEND
  5
282
  8
0
  6
CONTINUOUS
 62
     8
  0
ARC
  5
68
  8
0
  6
CONTINUOUS
 62
     8
 10
96.9732170972
 20
158.8318532445
 30
0.0
 40
2.103280800806417
 50
62.8100461744
 51
130.1501368924
  0
TEXT
  5
69
  8
0
  6
CONTINUOUS
 62
     7
 10
0.0
 20
6.732893805
 30
0.0
 40
3.633
  1
Edition tudiante de SolidWorks.
 41
0.6671875
 11
0.0
 21
5.4495
 31
0.0
 73
     1
  0
TEXT
  5
6A
  8
0
  6
CONTINUOUS
 62
     7
 10
0.0
 20
1.283393805
 30
0.0
 40
3.633
  1
A usage universitaire uniquement.
 41
0.6681818182
 11
0.0
 21
0.0
 31
0.0
 73
     1
  0
ENDSEC
  0
EOF
