  0
SECTION
  2
HEADER
  9
$ACADVER
  1
AC1009
  9
$DWGCODEPAGE
  3
ansi_1252
  9
$INSBASE
 10
0.0
 20
0.0
 30
0.0
  9
$EXTMIN
 10
0.0
 20
0.0
 30
0.0
  9
$EXTMAX
 10
210.0
 20
297.0
 30
0.0
  9
$LIMMIN
 10
0.0
 20
0.0
  9
$LIMMAX
 10
210.0
 20
297.0
  9
$ORTHOMODE
 70
     0
  9
$REGENMODE
 70
     1
  9
$FILLMODE
 70
     1
  9
$QTEXTMODE
 70
     0
  9
$MIRRTEXT
 70
     1
  9
$DRAGMODE
 70
     2
  9
$LTSCALE
 40
1.0
  9
$OSMODE
 70
    37
  9
$ATTMODE
 70
     1
  9
$TEXTSIZE
 40
3.5
  9
$TRACEWID
 40
1.0
  9
$TEXTSTYLE
  7
STANDARD
  9
$CLAYER
  8
0
  9
$CELTYPE
  6
BYLAYER
  9
$CECOLOR
 62
   256
  9
$DIMSCALE
 40
1.0
  9
$DIMASZ
 40
3.302
  9
$DIMEXO
 40
1.0
  9
$DIMDLI
 40
3.75
  9
$DIMRND
 40
0.0
  9
$DIMDLE
 40
0.0
  9
$DIMEXE
 40
1.0
  9
$DIMTP
 40
0.0
  9
$DIMTM
 40
0.0
  9
$DIMTXT
 40
3.5
  9
$DIMCEN
 40
2.5
  9
$DIMTSZ
 40
0.0
  9
$DIMTOL
 70
     0
  9
$DIMLIM
 70
     0
  9
$DIMTIH
 70
     1
  9
$DIMTOH
 70
     1
  9
$DIMSE1
 70
     0
  9
$DIMSE2
 70
     0
  9
$DIMTAD
 70
     1
  9
$DIMZIN
 70
     0
  9
$DIMBLK
  1

  9
$DIMASO
 70
     1
  9
$DIMSHO
 70
     1
  9
$DIMPOST
  1

  9
$DIMAPOST
  1

  9
$DIMALT
 70
     0
  9
$DIMALTD
 70
     3
  9
$DIMALTF
 40
0.0393700787
  9
$DIMLFAC
 40
0.5
  9
$DIMTOFL
 70
     1
  9
$DIMTVP
 40
0.0
  9
$DIMTIX
 70
     0
  9
$DIMSOXD
 70
     0
  9
$DIMSAH
 70
     0
  9
$DIMBLK1
  1

  9
$DIMBLK2
  1

  9
$DIMSTYLE
  2
ISO-25
  9
$DIMCLRD
 70
     0
  9
$DIMCLRE
 70
     0
  9
$DIMCLRT
 70
     0
  9
$DIMTFAC
 40
1.0
  9
$DIMGAP
 40
1.524
  9
$LUNITS
 70
     2
  9
$LUPREC
 70
     2
  9
$SKETCHINC
 40
1.0
  9
$FILLETRAD
 40
10.0
  9
$AUNITS
 70
     0
  9
$AUPREC
 70
     2
  9
$MENU
  1
.
  9
$ELEVATION
 40
0.0
  9
$PELEVATION
 40
0.0
  9
$THICKNESS
 40
0.0
  9
$LIMCHECK
 70
     0
  9
$CHAMFERA
 40
10.0
  9
$CHAMFERB
 40
10.0
  9
$SKPOLY
 70
     0
  9
$TDCREATE
 40
2456430.617237766
  9
$TDUPDATE
 40
2456430.617237766
  9
$TDINDWG
 40
0.0000000116
  9
$TDUSRTIMER
 40
0.0000000116
  9
$USRTIMER
 70
     1
  9
$ANGBASE
 50
0.0
  9
$ANGDIR
 70
     0
  9
$PDMODE
 70
     0
  9
$PDSIZE
 40
-1.0
  9
$PLINEWID
 40
0.0
  9
$COORDS
 70
     1
  9
$SPLFRAME
 70
     0
  9
$SPLINETYPE
 70
     6
  9
$SPLINESEGS
 70
     8
  9
$ATTDIA
 70
     0
  9
$ATTREQ
 70
     1
  9
$HANDLING
 70
     1
  9
$HANDSEED
  5
189
  9
$SURFTAB1
 70
     6
  9
$SURFTAB2
 70
     6
  9
$SURFTYPE
 70
     6
  9
$SURFU
 70
     6
  9
$SURFV
 70
     6
  9
$UCSNAME
  2

  9
$UCSORG
 10
0.0
 20
0.0
 30
0.0
  9
$UCSXDIR
 10
1.0
 20
0.0
 30
0.0
  9
$UCSYDIR
 10
0.0
 20
1.0
 30
0.0
  9
$PUCSNAME
  2

  9
$PUCSORG
 10
0.0
 20
0.0
 30
0.0
  9
$PUCSXDIR
 10
1.0
 20
0.0
 30
0.0
  9
$PUCSYDIR
 10
0.0
 20
1.0
 30
0.0
  9
$USERI1
 70
     0
  9
$USERI2
 70
     0
  9
$USERI3
 70
     0
  9
$USERI4
 70
     0
  9
$USERI5
 70
     0
  9
$USERR1
 40
0.0
  9
$USERR2
 40
0.0
  9
$USERR3
 40
0.0
  9
$USERR4
 40
0.0
  9
$USERR5
 40
0.0
  9
$WORLDVIEW
 70
     1
  9
$SHADEDGE
 70
     3
  9
$SHADEDIF
 70
    70
  9
$TILEMODE
 70
     1
  9
$MAXACTVP
 70
    64
  9
$PLIMCHECK
 70
     0
  9
$PEXTMIN
 10
1.0000000000E+20
 20
1.0000000000E+20
 30
1.0000000000E+20
  9
$PEXTMAX
 10
-1.0000000000E+20
 20
-1.0000000000E+20
 30
-1.0000000000E+20
  9
$PLIMMIN
 10
0.0
 20
0.0
  9
$PLIMMAX
 10
420.0
 20
297.0
  9
$UNITMODE
 70
     0
  9
$VISRETAIN
 70
     1
  9
$PLINEGEN
 70
     0
  9
$PSLTSCALE
 70
     1
  0
ENDSEC
  0
SECTION
  2
TABLES
  0
TABLE
  2
VPORT
 70
     1
  0
VPORT
  2
*ACTIVE
 70
     0
 10
0.0
 20
0.0
 11
1.0
 21
1.0
 12
105.0
 22
148.5
 13
0.0
 23
0.0
 14
10.0
 24
10.0
 15
10.0
 25
10.0
 16
0.0
 26
0.0
 36
1.0
 17
0.0
 27
0.0
 37
0.0
 40
297.0
 41
0.7070707071
 42
50.0
 43
0.0
 44
0.0
 50
0.0
 51
0.0
 71
     0
 72
  2000
 73
     1
 74
     3
 75
     0
 76
     0
 77
     0
 78
     0
  0
ENDTAB
  0
TABLE
  2
LTYPE
 70
     6
  0
LTYPE
  2
CONTINUOUS
 70
     0
  3
Solid line
 72
    65
 73
     0
 40
0.0
  0
LTYPE
  2
HIDDEN
 70
     0
  3
Hidden __ __ __ __ __ __ __ __ __ __ __ __ __ __
 72
    65
 73
     2
 40
1.905
 49
1.27
 49
-0.635
  0
LTYPE
  2
PHANTOM
 70
     0
  3
Phantom ______  __  __  ______  __  __  ______
 72
    65
 73
     6
 40
12.7
 49
6.35
 49
-1.27
 49
1.27
 49
-1.27
 49
1.27
 49
-1.27
  0
LTYPE
  2
CENTER
 70
     0
  3
Center ____ _ ____ _ ____ _ ____ _ ____ _ ____
 72
    65
 73
     4
 40
10.16
 49
6.35
 49
-1.27
 49
1.27
 49
-1.27
  0
LTYPE
  2
CENTERX2
 70
     0
  3
Center (2x) ________  __  ________  __  _____
 72
    65
 73
     4
 40
20.32
 49
12.7
 49
-2.54
 49
2.54
 49
-2.54
  0
LTYPE
  2
DOT2
 70
     0
  3
Dot (.5x) ........................................
 72
    65
 73
     2
 40
0.635
 49
0.0
 49
-0.635
  0
ENDTAB
  0
TABLE
  2
LAYER
 70
     1
  0
LAYER
  2
0
 70
     0
 62
     7
  6
CONTINUOUS
  0
ENDTAB
  0
TABLE
  2
STYLE
 70
     1
  0
STYLE
  2
STANDARD
 70
     0
 40
0.0
 41
1.0
 50
0.0
 71
     0
 42
3.5
  3
txt
  4

  0
ENDTAB
  0
TABLE
  2
VIEW
 70
     0
  0
ENDTAB
  0
TABLE
  2
UCS
 70
     0
  0
ENDTAB
  0
TABLE
  2
APPID
 70
     1
  0
APPID
  2
ACAD
 70
     0
  0
ENDTAB
  0
TABLE
  2
DIMSTYLE
 70
     1
  0
DIMSTYLE
  2
ISO-25
 70
     0
  3

  4

  5

  6

  7

 40
1.0
 41
2.5
 42
0.625
 43
3.75
 44
1.25
 45
0.0
 46
0.0
 47
0.0
 48
0.0
140
2.5
141
2.5
142
0.0
143
0.0393700787
144
1.0
145
0.0
146
1.0
147
0.625
 71
     0
 72
     0
 73
     0
 74
     0
 75
     0
 76
     0
 77
     1
 78
     8
170
     0
171
     3
172
     1
173
     0
174
     0
175
     0
176
     0
177
     0
178
     0
  0
ENDTAB
  0
ENDSEC
  0
SECTION
  2
BLOCKS
  0
BLOCK
  8
0
  2
$MODEL_SPACE
 70
     0
 10
0.0
 20
0.0
 30
0.0
  3
$MODEL_SPACE
  1

  0
ENDBLK
  5
21
  8
0
  0
BLOCK
 67
     1
  8
0
  2
$PAPER_SPACE
 70
     0
 10
0.0
 20
0.0
 30
0.0
  3
$PAPER_SPACE
  1

  0
ENDBLK
  5
1D
 67
     1
  8
0
  0
ENDSEC
  0
SECTION
  2
ENTITIES
  0
LINE
  5
44
  8
0
  6
CONTINUOUS
 62
     7
 10
116.3320719106
 20
153.8370894874
 30
0.0
 11
116.6646868711
 21
154.0400408173
 31
0.0
  0
LINE
  5
45
  8
0
  6
CONTINUOUS
 62
     7
 10
118.1092909973
 20
157.0626454237
 30
0.0
 11
118.0579696057
 21
157.448707152
 31
0.0
  0
LINE
  5
46
  8
0
  6
CONTINUOUS
 62
     7
 10
115.1004185317
 20
153.7291728833
 30
0.0
 11
115.1928061687
 21
153.6832975772
 31
0.0
  0
LINE
  5
47
  8
0
  6
CONTINUOUS
 62
     7
 10
117.4597856326
 20
158.4298655349
 30
0.0
 11
117.3657592172
 21
158.4725971116
 31
0.0
  0
POLYLINE
  5
48
  8
0
  6
CONTINUOUS
 62
     7
 66
     1
 10
0.0
 20
0.0
 30
0.0
  0
VERTEX
  5
85
  8
0
  6
CONTINUOUS
 62
     7
 10
112.7535441671
 20
162.6748005092
 30
0.0
  0
VERTEX
  5
86
  8
0
  6
CONTINUOUS
 62
     7
 10
112.6576220659
 20
162.6317935353
 30
0.0
  0
VERTEX
  5
87
  8
0
  6
CONTINUOUS
 62
     7
 10
112.4610198
 20
162.5564418493
 30
0.0
  0
VERTEX
  5
88
  8
0
  6
CONTINUOUS
 62
     7
 10
112.2421514941
 20
162.4884958427
 30
0.0
  0
VERTEX
  5
89
  8
0
  6
CONTINUOUS
 62
     7
 10
112.0032468331
 20
162.4295110363
 30
0.0
  0
VERTEX
  5
8A
  8
0
  6
CONTINUOUS
 62
     7
 10
111.7473529355
 20
162.3809165333
 30
0.0
  0
VERTEX
  5
8B
  8
0
  6
CONTINUOUS
 62
     7
 10
111.4778123657
 20
162.3438411025
 30
0.0
  0
VERTEX
  5
8C
  8
0
  6
CONTINUOUS
 62
     7
 10
111.1981780742
 20
162.3191234568
 30
0.0
  0
VERTEX
  5
8D
  8
0
  6
CONTINUOUS
 62
     7
 10
110.9121435418
 20
162.3073238017
 30
0.0
  0
VERTEX
  5
8E
  8
0
  6
CONTINUOUS
 62
     7
 10
110.6234847594
 20
162.308733749
 30
0.0
  0
VERTEX
  5
8F
  8
0
  6
CONTINUOUS
 62
     7
 10
110.3360097543
 20
162.3233829618
 30
0.0
  0
VERTEX
  5
90
  8
0
  6
CONTINUOUS
 62
     7
 10
110.0536047543
 20
162.3510304586
 30
0.0
  0
VERTEX
  5
91
  8
0
  6
CONTINUOUS
 62
     7
 10
109.7800198579
 20
162.3911685824
 30
0.0
  0
VERTEX
  5
92
  8
0
  6
CONTINUOUS
 62
     7
 10
109.5188780516
 20
162.44302065
 30
0.0
  0
VERTEX
  5
93
  8
0
  6
CONTINUOUS
 62
     7
 10
109.2736490443
 20
162.5055250721
 30
0.0
  0
VERTEX
  5
94
  8
0
  6
CONTINUOUS
 62
     7
 10
109.0475942179
 20
162.5773114335
 30
0.0
  0
VERTEX
  5
95
  8
0
  6
CONTINUOUS
 62
     7
 10
108.8436963349
 20
162.6566670314
 30
0.0
  0
VERTEX
  5
96
  8
0
  6
CONTINUOUS
 62
     7
 10
108.6645619943
 20
162.7414955759
 30
0.0
  0
VERTEX
  5
97
  8
0
  6
CONTINUOUS
 62
     7
 10
108.5122793419
 20
162.8292767148
 30
0.0
  0
VERTEX
  5
98
  8
0
  6
CONTINUOUS
 62
     7
 10
108.3882095033
 20
162.9170503937
 30
0.0
  0
VERTEX
  5
99
  8
0
  6
CONTINUOUS
 62
     7
 10
108.2926944611
 20
163.0014800829
 30
0.0
  0
VERTEX
  5
9A
  8
0
  6
CONTINUOUS
 62
     7
 10
108.2246920112
 20
163.0791021336
 30
0.0
  0
VERTEX
  5
9B
  8
0
  6
CONTINUOUS
 62
     7
 10
108.181651122
 20
163.1465340092
 30
0.0
  0
VERTEX
  5
9C
  8
0
  6
CONTINUOUS
 62
     7
 10
108.1587904675
 20
163.2025814719
 30
0.0
  0
VERTEX
  5
9D
  8
0
  6
CONTINUOUS
 62
     7
 10
108.1506293591
 20
163.25111576
 30
0.0
  0
VERTEX
  5
9E
  8
0
  6
CONTINUOUS
 62
     7
 10
108.151703417
 20
163.2601115123
 30
0.0
  0
SEQEND
  5
188
  8
0
  6
CONTINUOUS
 62
     7
  0
LINE
  5
49
  8
0
  6
CONTINUOUS
 62
     7
 10
112.2105401613
 20
164.0427067091
 30
0.0
 11
110.4024061212
 21
164.8209784584
 31
0.0
  0
LINE
  5
4A
  8
0
  6
CONTINUOUS
 62
     7
 10
115.3584235114
 20
162.6877691727
 30
0.0
 11
113.4718375766
 21
163.4998088242
 31
0.0
  0
POLYLINE
  5
4B
  8
0
  6
CONTINUOUS
 62
     7
 66
     1
 10
0.0
 20
0.0
 30
0.0
  0
VERTEX
  5
9F
  8
0
  6
CONTINUOUS
 62
     7
 10
113.363470756
 20
163.0107521369
 30
0.0
  0
VERTEX
  5
A0
  8
0
  6
CONTINUOUS
 62
     7
 10
113.3635192741
 20
163.0109500611
 30
0.0
  0
VERTEX
  5
A1
  8
0
  6
CONTINUOUS
 62
     7
 10
113.3445411601
 20
162.9955801278
 30
0.0
  0
VERTEX
  5
A2
  8
0
  6
CONTINUOUS
 62
     7
 10
113.3019594665
 20
162.9655989804
 30
0.0
  0
VERTEX
  5
A3
  8
0
  6
CONTINUOUS
 62
     7
 10
113.2323994247
 20
162.922019869
 30
0.0
  0
VERTEX
  5
A4
  8
0
  6
CONTINUOUS
 62
     7
 10
113.1328082141
 20
162.8652972857
 30
0.0
  0
VERTEX
  5
A5
  8
0
  6
CONTINUOUS
 62
     7
 10
113.0035238891
 20
162.7971011504
 30
0.0
  0
VERTEX
  5
A6
  8
0
  6
CONTINUOUS
 62
     7
 10
112.8469629846
 20
162.719387425
 30
0.0
  0
VERTEX
  5
A7
  8
0
  6
CONTINUOUS
 62
     7
 10
112.7510718717
 20
162.6740074219
 30
0.0
  0
SEQEND
  5
187
  8
0
  6
CONTINUOUS
 62
     7
  0
ARC
  5
4C
  8
0
  6
CONTINUOUS
 62
     7
 10
115.4311268843
 20
157.8837421953
 30
0.0
 40
3.514057968994711
 50
352.9013824361
 51
63.6487975213
  0
LINE
  5
4D
  8
0
  6
CONTINUOUS
 62
     7
 10
116.9914613967
 20
161.0343751228
 30
0.0
 11
115.3603443771
 21
161.7476032818
 31
0.0
  0
POLYLINE
  5
4E
  8
0
  6
CONTINUOUS
 62
     7
 66
     1
 10
0.0
 20
0.0
 30
0.0
  0
VERTEX
  5
A8
  8
0
  6
CONTINUOUS
 62
     7
 10
118.8751907374
 20
156.7401309326
 30
0.0
  0
VERTEX
  5
A9
  8
0
  6
CONTINUOUS
 62
     7
 10
118.8894743669
 20
156.9953839383
 30
0.0
  0
VERTEX
  5
AA
  8
0
  6
CONTINUOUS
 62
     7
 10
118.9171040983
 20
157.449252551
 30
0.0
  0
SEQEND
  5
186
  8
0
  6
CONTINUOUS
 62
     7
  0
LINE
  5
4F
  8
0
  6
CONTINUOUS
 62
     7
 10
118.4881331525
 20
149.9324996877
 30
0.0
 11
118.8747980666
 21
156.7382240309
 31
0.0
  0
LINE
  5
50
  8
0
  6
CONTINUOUS
 62
     7
 10
108.4398602779
 20
164.7736793226
 30
0.0
 11
108.3342466107
 21
164.8198603388
 31
0.0
  0
ARC
  5
51
  8
0
  6
CONTINUOUS
 62
     7
 10
107.1117336143
 20
160.9710817196
 30
0.0
 40
4.037256618736034
 50
72.420700896
 51
156.963615521
  0
LINE
  5
52
  8
0
  6
CONTINUOUS
 62
     7
 10
110.1230716822
 20
151.2560992199
 30
0.0
 11
101.2178254522
 21
146.3290419016
 31
0.0
  0
LINE
  5
53
  8
0
  6
CONTINUOUS
 62
     7
 10
101.2178254522
 20
146.3290419016
 30
0.0
 11
101.0388084493
 21
151.3280942828
 31
0.0
  0
ARC
  5
54
  8
0
  6
CONTINUOUS
 62
     7
 10
109.531460126
 20
151.357481385
 30
0.0
 40
8.492702520565308
 50
119.3440201236
 51
180.1982596569
  0
LINE
  5
55
  8
0
  6
CONTINUOUS
 62
     7
 10
105.3695915981
 20
158.760510931
 30
0.0
 11
113.272427888
 21
162.5276888452
 31
0.0
  0
ARC
  5
56
  8
0
  6
CONTINUOUS
 62
     7
 10
114.4414718983
 20
160.6349388867
 30
0.0
 40
2.224672178874653
 50
14.9711454163
 51
121.7012667591
  0
LINE
  5
57
  8
0
  6
CONTINUOUS
 62
     7
 10
96.2019636647
 20
154.098537124
 30
0.0
 11
101.0388084493
 21
151.3280942828
 31
0.0
  0
ARC
  5
58
  8
0
  6
CONTINUOUS
 62
     7
 10
103.9712187286
 20
154.3252031134
 30
0.0
 40
7.77256082115107
 50
117.4211385779
 51
181.6711153942
  0
LINE
  5
59
  8
0
  6
CONTINUOUS
 62
     7
 10
100.3917422633
 20
161.2244820578
 30
0.0
 11
105.3695915981
 21
158.760510931
 31
0.0
  0
LINE
  5
5A
  8
0
  6
CONTINUOUS
 62
     7
 10
96.4970027685
 20
149.2205374799
 30
0.0
 11
101.2178254522
 21
146.3290419016
 31
0.0
  0
LINE
  5
5B
  8
0
  6
CONTINUOUS
 62
     7
 10
96.4970027685
 20
149.2205374799
 30
0.0
 11
96.2019636647
 21
154.098537124
 31
0.0
  0
LINE
  5
5C
  8
0
  6
CONTINUOUS
 62
     7
 10
100.3917422633
 20
161.2244820578
 30
0.0
 11
108.2899784743
 21
164.711225108
 31
0.0
  0
LINE
  5
5D
  8
0
  6
CONTINUOUS
 62
     7
 10
108.2899784743
 20
164.711225108
 30
0.0
 11
108.5906086003
 21
164.5794752944
 31
0.0
  0
POLYLINE
  5
5E
  8
0
  6
CONTINUOUS
 62
     7
 66
     1
 10
0.0
 20
0.0
 30
0.0
  0
VERTEX
  5
AB
  8
0
  6
CONTINUOUS
 62
     7
 10
112.9498923875
 20
162.6690385917
 30
0.0
  0
VERTEX
  5
AC
  8
0
  6
CONTINUOUS
 62
     7
 10
112.7112798391
 20
162.5679292568
 30
0.0
  0
VERTEX
  5
AD
  8
0
  6
CONTINUOUS
 62
     7
 10
112.4482638447
 20
162.4793146019
 30
0.0
  0
VERTEX
  5
AE
  8
0
  6
CONTINUOUS
 62
     7
 10
112.1640028583
 20
162.4043514414
 30
0.0
  0
VERTEX
  5
AF
  8
0
  6
CONTINUOUS
 62
     7
 10
111.8619609772
 20
162.3440260381
 30
0.0
  0
VERTEX
  5
B0
  8
0
  6
CONTINUOUS
 62
     7
 10
111.545861207
 20
162.2991371827
 30
0.0
  0
VERTEX
  5
B1
  8
0
  6
CONTINUOUS
 62
     7
 10
111.2196330853
 20
162.2702822288
 30
0.0
  0
VERTEX
  5
B2
  8
0
  6
CONTINUOUS
 62
     7
 10
110.8873557106
 20
162.2578464975
 30
0.0
  0
VERTEX
  5
B3
  8
0
  6
CONTINUOUS
 62
     7
 10
110.5531974015
 20
162.2619963753
 30
0.0
  0
VERTEX
  5
B4
  8
0
  6
CONTINUOUS
 62
     7
 10
110.2213533469
 20
162.2826763164
 30
0.0
  0
VERTEX
  5
B5
  8
0
  6
CONTINUOUS
 62
     7
 10
109.8959826899
 20
162.3196098446
 30
0.0
  0
VERTEX
  5
B6
  8
0
  6
CONTINUOUS
 62
     7
 10
109.5811465073
 20
162.3723045226
 30
0.0
  0
VERTEX
  5
B7
  8
0
  6
CONTINUOUS
 62
     7
 10
109.28074811
 20
162.4400607345
 30
0.0
  0
VERTEX
  5
B8
  8
0
  6
CONTINUOUS
 62
     7
 10
108.9984769897
 20
162.5219840126
 30
0.0
  0
VERTEX
  5
B9
  8
0
  6
CONTINUOUS
 62
     7
 10
108.737757591
 20
162.6170005366
 30
0.0
  0
VERTEX
  5
BA
  8
0
  6
CONTINUOUS
 62
     7
 10
108.501703894
 20
162.7238753545
 30
0.0
  0
VERTEX
  5
BB
  8
0
  6
CONTINUOUS
 62
     7
 10
108.293080573
 20
162.8412328105
 30
0.0
  0
VERTEX
  5
BC
  8
0
  6
CONTINUOUS
 62
     7
 10
108.1142712546
 20
162.9675786316
 30
0.0
  0
VERTEX
  5
BD
  8
0
  6
CONTINUOUS
 62
     7
 10
107.9672541562
 20
163.1013231122
 30
0.0
  0
VERTEX
  5
BE
  8
0
  6
CONTINUOUS
 62
     7
 10
107.8535851486
 20
163.2408048468
 30
0.0
  0
VERTEX
  5
BF
  8
0
  6
CONTINUOUS
 62
     7
 10
107.7743880698
 20
163.3843144931
 30
0.0
  0
VERTEX
  5
C0
  8
0
  6
CONTINUOUS
 62
     7
 10
107.7303519287
 20
163.5301180975
 30
0.0
  0
VERTEX
  5
C1
  8
0
  6
CONTINUOUS
 62
     7
 10
107.721734482
 20
163.6764795753
 30
0.0
  0
VERTEX
  5
C2
  8
0
  6
CONTINUOUS
 62
     7
 10
107.7483715529
 20
163.8216820099
 30
0.0
  0
VERTEX
  5
C3
  8
0
  6
CONTINUOUS
 62
     7
 10
107.8096913818
 20
163.9640475097
 30
0.0
  0
VERTEX
  5
C4
  8
0
  6
CONTINUOUS
 62
     7
 10
107.9047332608
 20
164.1019554355
 30
0.0
  0
VERTEX
  5
C5
  8
0
  6
CONTINUOUS
 62
     7
 10
108.0321697015
 20
164.2338588829
 30
0.0
  0
VERTEX
  5
C6
  8
0
  6
CONTINUOUS
 62
     7
 10
108.1903314093
 20
164.3582993695
 30
0.0
  0
VERTEX
  5
C7
  8
0
  6
CONTINUOUS
 62
     7
 10
108.377234392
 20
164.4739197333
 30
0.0
  0
VERTEX
  5
C8
  8
0
  6
CONTINUOUS
 62
     7
 10
108.5906086003
 20
164.5794752944
 30
0.0
  0
SEQEND
  5
185
  8
0
  6
CONTINUOUS
 62
     7
  0
LINE
  5
5F
  8
0
  6
CONTINUOUS
 62
     7
 10
112.9498923875
 20
162.6690385917
 30
0.0
 11
113.272427888
 21
162.5276888452
 31
0.0
  0
POLYLINE
  5
60
  8
0
  6
CONTINUOUS
 62
     7
 66
     1
 10
0.0
 20
0.0
 30
0.0
  0
VERTEX
  5
C9
  8
0
  6
CONTINUOUS
 62
     7
 10
118.1231186655
 20
156.6594967789
 30
0.0
  0
VERTEX
  5
CA
  8
0
  6
CONTINUOUS
 62
     7
 10
118.1244433348
 20
156.8889719323
 30
0.0
  0
VERTEX
  5
CB
  8
0
  6
CONTINUOUS
 62
     7
 10
118.1034106792
 20
157.103320629
 30
0.0
  0
VERTEX
  5
CC
  8
0
  6
CONTINUOUS
 62
     7
 10
118.0602450299
 20
157.2991875452
 30
0.0
  0
VERTEX
  5
CD
  8
0
  6
CONTINUOUS
 62
     7
 10
117.9955049047
 20
157.4734633111
 30
0.0
  0
VERTEX
  5
CE
  8
0
  6
CONTINUOUS
 62
     7
 10
117.9100816358
 20
157.623334447
 30
0.0
  0
VERTEX
  5
CF
  8
0
  6
CONTINUOUS
 62
     7
 10
117.8051932988
 20
157.7463313885
 30
0.0
  0
VERTEX
  5
D0
  8
0
  6
CONTINUOUS
 62
     7
 10
117.6823735593
 20
157.8403736738
 30
0.0
  0
VERTEX
  5
D1
  8
0
  6
CONTINUOUS
 62
     7
 10
117.5434551182
 20
157.9038112474
 30
0.0
  0
VERTEX
  5
D2
  8
0
  6
CONTINUOUS
 62
     7
 10
117.3905475278
 20
157.9354607449
 30
0.0
  0
VERTEX
  5
D3
  8
0
  6
CONTINUOUS
 62
     7
 10
117.2260092846
 20
157.9346355753
 30
0.0
  0
VERTEX
  5
D4
  8
0
  6
CONTINUOUS
 62
     7
 10
117.0524142682
 20
157.9011686214
 30
0.0
  0
VERTEX
  5
D5
  8
0
  6
CONTINUOUS
 62
     7
 10
116.8725127825
 20
157.8354264438
 30
0.0
  0
VERTEX
  5
D6
  8
0
  6
CONTINUOUS
 62
     7
 10
116.6891876673
 20
157.7383140023
 30
0.0
  0
VERTEX
  5
D7
  8
0
  6
CONTINUOUS
 62
     7
 10
116.505406165
 20
157.6112691107
 30
0.0
  0
VERTEX
  5
D8
  8
0
  6
CONTINUOUS
 62
     7
 10
116.3241684371
 20
157.4562460991
 30
0.0
  0
VERTEX
  5
D9
  8
0
  6
CONTINUOUS
 62
     7
 10
116.1484538259
 20
157.2756884797
 30
0.0
  0
VERTEX
  5
DA
  8
0
  6
CONTINUOUS
 62
     7
 10
115.9811661121
 20
157.0724907708
 30
0.0
  0
VERTEX
  5
DB
  8
0
  6
CONTINUOUS
 62
     7
 10
115.825079141
 20
156.8499500162
 30
0.0
  0
VERTEX
  5
DC
  8
0
  6
CONTINUOUS
 62
     7
 10
115.6827842482
 20
156.6117079246
 30
0.0
  0
VERTEX
  5
DD
  8
0
  6
CONTINUOUS
 62
     7
 10
115.5566409131
 20
156.3616849169
 30
0.0
  0
VERTEX
  5
DE
  8
0
  6
CONTINUOUS
 62
     7
 10
115.4487319988
 20
156.1040076878
 30
0.0
  0
VERTEX
  5
DF
  8
0
  6
CONTINUOUS
 62
     7
 10
115.3608248018
 20
155.8429321419
 30
0.0
  0
VERTEX
  5
E0
  8
0
  6
CONTINUOUS
 62
     7
 10
115.294338943
 20
155.5827637392
 30
0.0
  0
VERTEX
  5
E1
  8
0
  6
CONTINUOUS
 62
     7
 10
115.2503218889
 20
155.3277773573
 30
0.0
  0
VERTEX
  5
E2
  8
0
  6
CONTINUOUS
 62
     7
 10
115.229432621
 20
155.082138767
 30
0.0
  0
VERTEX
  5
E3
  8
0
  6
CONTINUOUS
 62
     7
 10
115.2319336809
 20
154.8498296983
 30
0.0
  0
VERTEX
  5
E4
  8
0
  6
CONTINUOUS
 62
     7
 10
115.2576915287
 20
154.6345782839
 30
0.0
  0
VERTEX
  5
E5
  8
0
  6
CONTINUOUS
 62
     7
 10
115.3061848853
 20
154.4397963959
 30
0.0
  0
VERTEX
  5
E6
  8
0
  6
CONTINUOUS
 62
     7
 10
115.3765204868
 20
154.2685250818
 30
0.0
  0
VERTEX
  5
E7
  8
0
  6
CONTINUOUS
 62
     7
 10
115.4674554867
 20
154.1233889568
 30
0.0
  0
VERTEX
  5
E8
  8
0
  6
CONTINUOUS
 62
     7
 10
115.5774255973
 20
154.0065600671
 30
0.0
  0
VERTEX
  5
E9
  8
0
  6
CONTINUOUS
 62
     7
 10
115.7045779682
 20
153.9197313963
 30
0.0
  0
VERTEX
  5
EA
  8
0
  6
CONTINUOUS
 62
     7
 10
115.8468077679
 20
153.8640998878
 30
0.0
  0
VERTEX
  5
EB
  8
0
  6
CONTINUOUS
 62
     7
 10
116.00179744
 20
153.8403585948
 30
0.0
  0
VERTEX
  5
EC
  8
0
  6
CONTINUOUS
 62
     7
 10
116.167057665
 20
153.8486973634
 30
0.0
  0
VERTEX
  5
ED
  8
0
  6
CONTINUOUS
 62
     7
 10
116.3399691413
 20
153.8888113055
 30
0.0
  0
VERTEX
  5
EE
  8
0
  6
CONTINUOUS
 62
     7
 10
116.5178244124
 20
153.9599162278
 30
0.0
  0
VERTEX
  5
EF
  8
0
  6
CONTINUOUS
 62
     7
 10
116.6978690874
 20
154.0607701461
 30
0.0
  0
VERTEX
  5
F0
  8
0
  6
CONTINUOUS
 62
     7
 10
116.8773419349
 20
154.1897000228
 30
0.0
  0
VERTEX
  5
F1
  8
0
  6
CONTINUOUS
 62
     7
 10
117.0535134482
 20
154.3446329174
 30
0.0
  0
VERTEX
  5
F2
  8
0
  6
CONTINUOUS
 62
     7
 10
117.2237225967
 20
154.5231308153
 30
0.0
  0
VERTEX
  5
F3
  8
0
  6
CONTINUOUS
 62
     7
 10
117.3854115713
 20
154.7224284995
 30
0.0
  0
VERTEX
  5
F4
  8
0
  6
CONTINUOUS
 62
     7
 10
117.5361584091
 20
154.9394739359
 30
0.0
  0
VERTEX
  5
F5
  8
0
  6
CONTINUOUS
 62
     7
 10
117.6737074344
 20
155.1709707495
 30
0.0
  0
VERTEX
  5
F6
  8
0
  6
CONTINUOUS
 62
     7
 10
117.7959974852
 20
155.4134224683
 30
0.0
  0
VERTEX
  5
F7
  8
0
  6
CONTINUOUS
 62
     7
 10
117.9011878996
 20
155.6631782942
 30
0.0
  0
VERTEX
  5
F8
  8
0
  6
CONTINUOUS
 62
     7
 10
117.9876822266
 20
155.9164802233
 30
0.0
  0
VERTEX
  5
F9
  8
0
  6
CONTINUOUS
 62
     7
 10
118.0541495929
 20
156.1695113741
 30
0.0
  0
VERTEX
  5
FA
  8
0
  6
CONTINUOUS
 62
     7
 10
118.0995436116
 20
156.4184453926
 30
0.0
  0
VERTEX
  5
FB
  8
0
  6
CONTINUOUS
 62
     7
 10
118.1231186655
 20
156.6594967789
 30
0.0
  0
SEQEND
  5
184
  8
0
  6
CONTINUOUS
 62
     7
  0
ARC
  5
61
  8
0
  6
CONTINUOUS
 62
     7
 10
115.6413243351
 20
154.7245538628
 30
0.0
 40
1.124600031471426
 50
240.5258582969
 51
307.8949911775
  0
ARC
  5
62
  8
0
  6
CONTINUOUS
 62
     7
 10
116.8998236227
 20
157.4042624873
 30
0.0
 40
1.158998466768656
 50
2.1976873234
 51
66.4235196077
  0
ARC
  5
63
  8
0
  6
CONTINUOUS
 62
     7
 10
108.3085247092
 20
164.0703000274
 30
0.0
 40
0.5820917231399516
 50
359.5654361805
 51
61.0134788835
  0
ARC
  5
64
  8
0
  6
CONTINUOUS
 62
     7
 10
91.8510654847
 20
114.8539497635
 30
0.0
 40
53.23201147346629
 50
65.7824647489
 51
68.5363527457
  0
ARC
  5
65
  8
0
  6
CONTINUOUS
 62
     7
 10
109.4700982817
 20
162.3812777635
 30
0.0
 40
2.61176901508092
 50
69.0861308635
 51
116.8622428506
  0
POLYLINE
  5
66
  8
0
  6
CONTINUOUS
 62
     7
 66
     1
 10
0.0
 20
0.0
 30
0.0
  0
VERTEX
  5
FC
  8
0
  6
CONTINUOUS
 62
     7
 10
114.8429335005
 20
154.8714567942
 30
0.0
  0
VERTEX
  5
FD
  8
0
  6
CONTINUOUS
 62
     7
 10
114.8646019093
 20
155.1478167379
 30
0.0
  0
VERTEX
  5
FE
  8
0
  6
CONTINUOUS
 62
     7
 10
114.9097305905
 20
155.4342143336
 30
0.0
  0
VERTEX
  5
FF
  8
0
  6
CONTINUOUS
 62
     7
 10
114.9777988133
 20
155.7268898959
 30
0.0
  0
VERTEX
  5
100
  8
0
  6
CONTINUOUS
 62
     7
 10
115.0679628447
 20
156.0219743704
 30
0.0
  0
VERTEX
  5
101
  8
0
  6
CONTINUOUS
 62
     7
 10
115.1790657672
 20
156.3155477533
 30
0.0
  0
VERTEX
  5
102
  8
0
  6
CONTINUOUS
 62
     7
 10
115.3096531279
 20
156.6036993156
 30
0.0
  0
VERTEX
  5
103
  8
0
  6
CONTINUOUS
 62
     7
 10
115.4579941738
 20
156.8825882765
 30
0.0
  0
VERTEX
  5
104
  8
0
  6
CONTINUOUS
 62
     7
 10
115.6221082515
 20
157.1485035238
 30
0.0
  0
VERTEX
  5
105
  8
0
  6
CONTINUOUS
 62
     7
 10
115.7997957826
 20
157.3979209974
 30
0.0
  0
VERTEX
  5
106
  8
0
  6
CONTINUOUS
 62
     7
 10
115.9886730885
 20
157.627557419
 30
0.0
  0
VERTEX
  5
107
  8
0
  6
CONTINUOUS
 62
     7
 10
116.1862102239
 20
157.8344191738
 30
0.0
  0
VERTEX
  5
108
  8
0
  6
CONTINUOUS
 62
     7
 10
116.3897709065
 20
158.0158453251
 30
0.0
  0
VERTEX
  5
109
  8
0
  6
CONTINUOUS
 62
     7
 10
116.5966535906
 20
158.169543942
 30
0.0
  0
VERTEX
  5
10A
  8
0
  6
CONTINUOUS
 62
     7
 10
116.8041327397
 20
158.2936211571
 30
0.0
  0
VERTEX
  5
10B
  8
0
  6
CONTINUOUS
 62
     7
 10
117.0094993889
 20
158.3866026112
 30
0.0
  0
VERTEX
  5
10C
  8
0
  6
CONTINUOUS
 62
     7
 10
117.2101001656
 20
158.4474471823
 30
0.0
  0
VERTEX
  5
10D
  8
0
  6
CONTINUOUS
 62
     7
 10
117.4033740365
 20
158.4755531279
 30
0.0
  0
VERTEX
  5
10E
  8
0
  6
CONTINUOUS
 62
     7
 10
117.5868861688
 20
158.4707569711
 30
0.0
  0
VERTEX
  5
10F
  8
0
  6
CONTINUOUS
 62
     7
 10
117.7583584309
 20
158.4333256345
 30
0.0
  0
VERTEX
  5
110
  8
0
  6
CONTINUOUS
 62
     7
 10
117.9156961919
 20
158.3639424623
 30
0.0
  0
VERTEX
  5
111
  8
0
  6
CONTINUOUS
 62
     7
 10
118.0570112177
 20
158.2636878674
 30
0.0
  0
VERTEX
  5
112
  8
0
  6
CONTINUOUS
 62
     7
 10
118.1806405883
 20
158.1340153933
 30
0.0
  0
VERTEX
  5
113
  8
0
  6
CONTINUOUS
 62
     7
 10
118.2851616711
 20
157.9767240014
 30
0.0
  0
VERTEX
  5
114
  8
0
  6
CONTINUOUS
 62
     7
 10
118.369403284
 20
157.7939273771
 30
0.0
  0
VERTEX
  5
115
  8
0
  6
CONTINUOUS
 62
     7
 10
118.4324532542
 20
157.5880210018
 30
0.0
  0
VERTEX
  5
116
  8
0
  6
CONTINUOUS
 62
     7
 10
118.4736626338
 20
157.3616476729
 30
0.0
  0
VERTEX
  5
117
  8
0
  6
CONTINUOUS
 62
     7
 10
118.4926468687
 20
157.1176620685
 30
0.0
  0
VERTEX
  5
118
  8
0
  6
CONTINUOUS
 62
     7
 10
118.4892842295
 20
156.8590948615
 30
0.0
  0
SEQEND
  5
183
  8
0
  6
CONTINUOUS
 62
     7
  0
ARC
  5
67
  8
0
  6
CONTINUOUS
 62
     7
 10
113.3677197661
 20
158.3887209242
 30
0.0
 40
3.814105730357788
 50
245.4746970274
 51
292.7541903362
  0
POLYLINE
  5
68
  8
0
  6
CONTINUOUS
 62
     7
 66
     1
 10
0.0
 20
0.0
 30
0.0
  0
VERTEX
  5
119
  8
0
  6
CONTINUOUS
 62
     7
 10
110.1775468075
 20
155.7221558472
 30
0.0
  0
VERTEX
  5
11A
  8
0
  6
CONTINUOUS
 62
     7
 10
110.1939991162
 20
156.082578861
 30
0.0
  0
VERTEX
  5
11B
  8
0
  6
CONTINUOUS
 62
     7
 10
110.2346858562
 20
156.4541069393
 30
0.0
  0
VERTEX
  5
11C
  8
0
  6
CONTINUOUS
 62
     7
 10
110.29939912
 20
156.8338758139
 30
0.0
  0
VERTEX
  5
11D
  8
0
  6
CONTINUOUS
 62
     7
 10
110.3877243091
 20
157.2189270436
 30
0.0
  0
VERTEX
  5
11E
  8
0
  6
CONTINUOUS
 62
     7
 10
110.4990412972
 20
157.6062359972
 30
0.0
  0
VERTEX
  5
11F
  8
0
  6
CONTINUOUS
 62
     7
 10
110.6325281991
 20
157.9927412793
 30
0.0
  0
VERTEX
  5
120
  8
0
  6
CONTINUOUS
 62
     7
 10
110.7871677551
 20
158.3753751392
 30
0.0
  0
VERTEX
  5
121
  8
0
  6
CONTINUOUS
 62
     7
 10
110.9617562807
 20
158.7510943639
 30
0.0
  0
VERTEX
  5
122
  8
0
  6
CONTINUOUS
 62
     7
 10
111.1549150672
 20
159.1169111363
 30
0.0
  0
VERTEX
  5
123
  8
0
  6
CONTINUOUS
 62
     7
 10
111.3651040654
 20
159.4699233308
 30
0.0
  0
VERTEX
  5
124
  8
0
  6
CONTINUOUS
 62
     7
 10
111.5906376233
 20
159.8073437268
 30
0.0
  0
VERTEX
  5
125
  8
0
  6
CONTINUOUS
 62
     7
 10
111.8297020087
 20
160.1265276473
 30
0.0
  0
VERTEX
  5
126
  8
0
  6
CONTINUOUS
 62
     7
 10
112.0803744001
 20
160.424998568
 30
0.0
  0
VERTEX
  5
127
  8
0
  6
CONTINUOUS
 62
     7
 10
112.3406430081
 20
160.7004712963
 30
0.0
  0
VERTEX
  5
128
  8
0
  6
CONTINUOUS
 62
     7
 10
112.6084279645
 20
160.9508723823
 30
0.0
  0
VERTEX
  5
129
  8
0
  6
CONTINUOUS
 62
     7
 10
112.881602613
 20
161.174357499
 30
0.0
  0
VERTEX
  5
12A
  8
0
  6
CONTINUOUS
 62
     7
 10
113.1580148389
 20
161.3693256053
 30
0.0
  0
VERTEX
  5
12B
  8
0
  6
CONTINUOUS
 62
     7
 10
113.435508088
 20
161.5344297836
 30
0.0
  0
VERTEX
  5
12C
  8
0
  6
CONTINUOUS
 62
     7
 10
113.7119417526
 20
161.6685847289
 30
0.0
  0
VERTEX
  5
12D
  8
0
  6
CONTINUOUS
 62
     7
 10
113.9852106315
 20
161.7709709343
 30
0.0
  0
VERTEX
  5
12E
  8
0
  6
CONTINUOUS
 62
     7
 10
114.2532632115
 20
161.8410356944
 30
0.0
  0
VERTEX
  5
12F
  8
0
  6
CONTINUOUS
 62
     7
 10
114.5141185625
 20
161.8784911045
 30
0.0
  0
VERTEX
  5
130
  8
0
  6
CONTINUOUS
 62
     7
 10
114.7658816806
 20
161.8833092855
 30
0.0
  0
VERTEX
  5
131
  8
0
  6
CONTINUOUS
 62
     7
 10
115.0067571658
 20
161.8557151078
 30
0.0
  0
VERTEX
  5
132
  8
0
  6
CONTINUOUS
 62
     7
 10
115.2350611623
 20
161.7961767114
 30
0.0
  0
VERTEX
  5
133
  8
0
  6
CONTINUOUS
 62
     7
 10
115.3603443771
 20
161.7476032818
 30
0.0
  0
SEQEND
  5
182
  8
0
  6
CONTINUOUS
 62
     7
  0
LINE
  5
69
  8
0
  6
CONTINUOUS
 62
     7
 10
110.1775468075
 20
155.7221558472
 30
0.0
 11
111.7845033211
 21
154.9187312685
 31
0.0
  0
ARC
  5
6A
  8
0
  6
CONTINUOUS
 62
     7
 10
114.6136420229
 20
157.093607886
 30
0.0
 40
3.882730852377482
 50
345.108896598
 51
356.5372852156
  0
POLYLINE
  5
6B
  8
0
  6
CONTINUOUS
 62
     7
 66
     1
 10
0.0
 20
0.0
 30
0.0
  0
VERTEX
  5
134
  8
0
  6
CONTINUOUS
 62
     7
 10
118.3659752189
 20
156.0958130881
 30
0.0
  0
VERTEX
  5
135
  8
0
  6
CONTINUOUS
 62
     7
 10
118.2797904842
 20
155.8053629507
 30
0.0
  0
VERTEX
  5
136
  8
0
  6
CONTINUOUS
 62
     7
 10
118.1732747803
 20
155.5162034211
 30
0.0
  0
VERTEX
  5
137
  8
0
  6
CONTINUOUS
 62
     7
 10
118.0477741684
 20
155.2319143538
 30
0.0
  0
VERTEX
  5
138
  8
0
  6
CONTINUOUS
 62
     7
 10
117.9048530848
 20
154.9560120113
 30
0.0
  0
VERTEX
  5
139
  8
0
  6
CONTINUOUS
 62
     7
 10
117.746277969
 20
154.6919136468
 30
0.0
  0
VERTEX
  5
13A
  8
0
  6
CONTINUOUS
 62
     7
 10
117.5739995351
 20
154.4429028428
 30
0.0
  0
VERTEX
  5
13B
  8
0
  6
CONTINUOUS
 62
     7
 10
117.3901336647
 20
154.2120955817
 30
0.0
  0
VERTEX
  5
13C
  8
0
  6
CONTINUOUS
 62
     7
 10
117.1969408703
 20
154.0024070607
 30
0.0
  0
VERTEX
  5
13D
  8
0
  6
CONTINUOUS
 62
     7
 10
116.9968042622
 20
153.8165193117
 30
0.0
  0
VERTEX
  5
13E
  8
0
  6
CONTINUOUS
 62
     7
 10
116.7922059501
 20
153.6568497579
 30
0.0
  0
VERTEX
  5
13F
  8
0
  6
CONTINUOUS
 62
     7
 10
116.5857018214
 20
153.5255209134
 30
0.0
  0
VERTEX
  5
140
  8
0
  6
CONTINUOUS
 62
     7
 10
116.37989467
 20
153.4243315227
 30
0.0
  0
VERTEX
  5
141
  8
0
  6
CONTINUOUS
 62
     7
 10
116.1774056912
 20
153.3547295269
 30
0.0
  0
VERTEX
  5
142
  8
0
  6
CONTINUOUS
 62
     7
 10
115.9808444206
 20
153.3177873367
 30
0.0
  0
VERTEX
  5
143
  8
0
  6
CONTINUOUS
 62
     7
 10
115.7927772688
 20
153.3141799713
 30
0.0
  0
VERTEX
  5
144
  8
0
  6
CONTINUOUS
 62
     7
 10
115.6156948914
 20
153.3441666996
 30
0.0
  0
VERTEX
  5
145
  8
0
  6
CONTINUOUS
 62
     7
 10
115.451978728
 20
153.4075768662
 30
0.0
  0
VERTEX
  5
146
  8
0
  6
CONTINUOUS
 62
     7
 10
115.3038671462
 20
153.5038006149
 30
0.0
  0
VERTEX
  5
147
  8
0
  6
CONTINUOUS
 62
     7
 10
115.1734217244
 20
153.6317852114
 30
0.0
  0
VERTEX
  5
148
  8
0
  6
CONTINUOUS
 62
     7
 10
115.0624943034
 20
153.7900376287
 30
0.0
  0
VERTEX
  5
149
  8
0
  6
CONTINUOUS
 62
     7
 10
114.9726955139
 20
153.9766339726
 30
0.0
  0
VERTEX
  5
14A
  8
0
  6
CONTINUOUS
 62
     7
 10
114.9053655501
 20
154.1892361989
 30
0.0
  0
SEQEND
  5
181
  8
0
  6
CONTINUOUS
 62
     7
  0
ARC
  5
6C
  8
0
  6
CONTINUOUS
 62
     7
 10
117.3162450014
 20
154.7538299667
 30
0.0
 40
2.476106995121071
 50
177.2771539299
 51
193.1803351744
  0
ARC
  5
6D
  8
0
  6
CONTINUOUS
 62
     7
 10
113.335955342
 20
157.5549824218
 30
0.0
 40
3.713663425579005
 50
245.000881354
 51
294.999118646
  0
LINE
  5
6E
  8
0
  6
CONTINUOUS
 62
     7
 10
111.7665451339
 20
154.1892361989
 30
0.0
 11
111.7845033211
 21
154.9187312685
 31
0.0
  0
LINE
  5
6F
  8
0
  6
CONTINUOUS
 62
     7
 10
111.6231957354
 20
147.219180201
 30
0.0
 11
111.7665451339
 21
154.1892361989
 31
0.0
  0
LINE
  5
70
  8
0
  6
CONTINUOUS
 62
     7
 10
114.9053655501
 20
154.1892361989
 30
0.0
 11
114.6481313576
 21
147.219180201
 31
0.0
  0
ARC
  5
71
  8
0
  6
CONTINUOUS
 62
     7
 10
113.1356635465
 20
150.1339804117
 30
0.0
 40
3.283842132028512
 50
242.5755423435
 51
297.4244576565
  0
LINE
  5
72
  8
0
  6
CONTINUOUS
 62
     7
 10
109.4800807497
 20
150.9003478911
 30
0.0
 11
109.8069147755
 21
150.724094769
 31
0.0
  0
ARC
  5
73
  8
0
  6
CONTINUOUS
 62
     7
 10
109.9216126545
 20
150.8875193247
 30
0.0
 40
0.1996576791349222
 50
234.9372890541
 51
8.7504391666
  0
LINE
  5
74
  8
0
  6
CONTINUOUS
 62
     7
 10
107.2442850594
 20
149.6633362203
 30
0.0
 11
111.6231957354
 21
147.219180201
 31
0.0
  0
LINE
  5
75
  8
0
  6
CONTINUOUS
 62
     7
 10
110.118946387
 20
150.9178934394
 30
0.0
 11
110.1775468075
 21
155.7221558472
 31
0.0
  0
LINE
  5
76
  8
0
  6
CONTINUOUS
 62
     7
 10
117.9935887555
 20
149.2479729202
 30
0.0
 11
118.3659752189
 21
156.0958130881
 31
0.0
  0
LINE
  5
77
  8
0
  6
CONTINUOUS
 62
     7
 10
117.9935887555
 20
149.2479729202
 30
0.0
 11
114.6481313576
 21
147.219180201
 31
0.0
  0
ARC
  5
78
  8
0
  6
CONTINUOUS
 62
     7
 10
117.6079700369
 20
150.0474757748
 30
0.0
 40
0.8876410369891496
 50
295.7490884144
 51
352.5575700088
  0
ARC
  5
79
  8
0
  6
CONTINUOUS
 62
     8
 10
109.1269954098
 20
163.1057109082
 30
0.0
 40
0.9888465603311227
 50
103.8311904549
 51
170.9376555825
  0
ARC
  5
7A
  8
0
  6
CONTINUOUS
 62
     8
 10
112.8455796718
 20
162.4631970953
 30
0.0
 40
0.2307636546131256
 50
63.1258257591
 51
113.4163081844
  0
POLYLINE
  5
7B
  8
0
  6
CONTINUOUS
 62
     8
 66
     1
 10
0.0
 20
0.0
 30
0.0
  0
VERTEX
  5
14B
  8
0
  6
CONTINUOUS
 62
     8
 10
113.2087131024
 20
162.9085292268
 30
0.0
  0
VERTEX
  5
14C
  8
0
  6
CONTINUOUS
 62
     8
 10
113.1342461972
 20
162.943965531
 30
0.0
  0
VERTEX
  5
14D
  8
0
  6
CONTINUOUS
 62
     8
 10
112.9323318718
 20
163.0218670546
 30
0.0
  0
VERTEX
  5
14E
  8
0
  6
CONTINUOUS
 62
     8
 10
112.7332107714
 20
163.1000959854
 30
0.0
  0
VERTEX
  5
14F
  8
0
  6
CONTINUOUS
 62
     8
 10
112.4868938403
 20
163.2034048207
 30
0.0
  0
VERTEX
  5
150
  8
0
  6
CONTINUOUS
 62
     8
 10
112.2150288043
 20
163.3246996144
 30
0.0
  0
VERTEX
  5
151
  8
0
  6
CONTINUOUS
 62
     8
 10
111.9094003452
 20
163.466122847
 30
0.0
  0
VERTEX
  5
152
  8
0
  6
CONTINUOUS
 62
     8
 10
111.5958562983
 20
163.6113932765
 30
0.0
  0
VERTEX
  5
153
  8
0
  6
CONTINUOUS
 62
     8
 10
111.2657047636
 20
163.7585094106
 30
0.0
  0
VERTEX
  5
154
  8
0
  6
CONTINUOUS
 62
     8
 10
110.8798641105
 20
163.914958933
 30
0.0
  0
VERTEX
  5
155
  8
0
  6
CONTINUOUS
 62
     8
 10
110.4823908846
 20
164.0496123505
 30
0.0
  0
VERTEX
  5
156
  8
0
  6
CONTINUOUS
 62
     8
 10
110.0515020081
 20
164.1535304881
 30
0.0
  0
VERTEX
  5
157
  8
0
  6
CONTINUOUS
 62
     8
 10
109.6178643994
 20
164.1986116123
 30
0.0
  0
VERTEX
  5
158
  8
0
  6
CONTINUOUS
 62
     8
 10
109.2975270233
 20
164.1803702621
 30
0.0
  0
VERTEX
  5
159
  8
0
  6
CONTINUOUS
 62
     8
 10
108.9937944055
 20
164.1071569875
 30
0.0
  0
VERTEX
  5
15A
  8
0
  6
CONTINUOUS
 62
     8
 10
108.8905996898
 20
164.0658851546
 30
0.0
  0
SEQEND
  5
180
  8
0
  6
CONTINUOUS
 62
     8
  0
ARC
  5
7C
  8
0
  6
CONTINUOUS
 62
     8
 10
109.7159403611
 20
160.8782381281
 30
0.0
 40
3.868530487517676
 50
65.3527607428
 51
106.9114776091
  0
POLYLINE
  5
7D
  8
0
  6
CONTINUOUS
 62
     8
 66
     1
 10
0.0
 20
0.0
 30
0.0
  0
VERTEX
  5
15B
  8
0
  6
CONTINUOUS
 62
     8
 10
113.6869519478
 20
163.4012577001
 30
0.0
  0
VERTEX
  5
15C
  8
0
  6
CONTINUOUS
 62
     8
 10
113.8189703047
 20
163.3151172831
 30
0.0
  0
VERTEX
  5
15D
  8
0
  6
CONTINUOUS
 62
     8
 10
113.8551078102
 20
163.2415366968
 30
0.0
  0
VERTEX
  5
15E
  8
0
  6
CONTINUOUS
 62
     8
 10
113.8133329899
 20
163.1589279208
 30
0.0
  0
VERTEX
  5
15F
  8
0
  6
CONTINUOUS
 62
     8
 10
113.7034830965
 20
163.0685375968
 30
0.0
  0
VERTEX
  5
160
  8
0
  6
CONTINUOUS
 62
     8
 10
113.5207600928
 20
162.9573583076
 30
0.0
  0
VERTEX
  5
161
  8
0
  6
CONTINUOUS
 62
     8
 10
113.2715852334
 20
162.8259506177
 30
0.0
  0
VERTEX
  5
162
  8
0
  6
CONTINUOUS
 62
     8
 10
112.9498923875
 20
162.6690385917
 30
0.0
  0
SEQEND
  5
17F
  8
0
  6
CONTINUOUS
 62
     8
  0
POLYLINE
  5
7E
  8
0
  6
CONTINUOUS
 62
     8
 66
     1
 10
0.0
 20
0.0
 30
0.0
  0
VERTEX
  5
163
  8
0
  6
CONTINUOUS
 62
     8
 10
111.7845033211
 20
154.9187312685
 30
0.0
  0
VERTEX
  5
164
  8
0
  6
CONTINUOUS
 62
     8
 10
111.8039757987
 20
155.2821319884
 30
0.0
  0
VERTEX
  5
165
  8
0
  6
CONTINUOUS
 62
     8
 10
111.8476572034
 20
155.6569475754
 30
0.0
  0
VERTEX
  5
166
  8
0
  6
CONTINUOUS
 62
     8
 10
111.9153170279
 20
156.040287092
 30
0.0
  0
VERTEX
  5
167
  8
0
  6
CONTINUOUS
 62
     8
 10
112.0065178811
 20
156.4291623639
 30
0.0
  0
VERTEX
  5
168
  8
0
  6
CONTINUOUS
 62
     8
 10
112.1206168567
 20
156.8205162978
 30
0.0
  0
VERTEX
  5
169
  8
0
  6
CONTINUOUS
 62
     8
 10
112.2567695242
 20
157.2112526948
 30
0.0
  0
VERTEX
  5
16A
  8
0
  6
CONTINUOUS
 62
     8
 10
112.4139365516
 20
157.5982670893
 30
0.0
  0
VERTEX
  5
16B
  8
0
  6
CONTINUOUS
 62
     8
 10
112.5908929012
 20
157.9784781079
 30
0.0
  0
VERTEX
  5
16C
  8
0
  6
CONTINUOUS
 62
     8
 10
112.786239485
 20
158.3488588166
 30
0.0
  0
VERTEX
  5
16D
  8
0
  6
CONTINUOUS
 62
     8
 10
112.9984171014
 20
158.7064675169
 30
0.0
  0
VERTEX
  5
16E
  8
0
  6
CONTINUOUS
 62
     8
 10
113.2257224218
 20
159.0484774619
 30
0.0
  0
VERTEX
  5
16F
  8
0
  6
CONTINUOUS
 62
     8
 10
113.4663257498
 20
159.3722049853
 30
0.0
  0
VERTEX
  5
170
  8
0
  6
CONTINUOUS
 62
     8
 10
113.7182902331
 20
159.6751355795
 30
0.0
  0
VERTEX
  5
171
  8
0
  6
CONTINUOUS
 62
     8
 10
113.979592182
 20
159.9549475113
 30
0.0
  0
VERTEX
  5
172
  8
0
  6
CONTINUOUS
 62
     8
 10
114.2481421283
 20
160.2095326293
 30
0.0
  0
VERTEX
  5
173
  8
0
  6
CONTINUOUS
 62
     8
 10
114.5218062545
 20
160.4370140929
 30
0.0
  0
VERTEX
  5
174
  8
0
  6
CONTINUOUS
 62
     8
 10
114.7984278254
 20
160.63576083
 30
0.0
  0
VERTEX
  5
175
  8
0
  6
CONTINUOUS
 62
     8
 10
115.0758482724
 20
160.8043986151
 30
0.0
  0
VERTEX
  5
176
  8
0
  6
CONTINUOUS
 62
     8
 10
115.3519276043
 20
160.9418177391
 30
0.0
  0
VERTEX
  5
177
  8
0
  6
CONTINUOUS
 62
     8
 10
115.6245638543
 20
161.0471773198
 30
0.0
  0
VERTEX
  5
178
  8
0
  6
CONTINUOUS
 62
     8
 10
115.8917113089
 20
161.1199063745
 30
0.0
  0
VERTEX
  5
179
  8
0
  6
CONTINUOUS
 62
     8
 10
116.1513973143
 20
161.1597018365
 30
0.0
  0
VERTEX
  5
17A
  8
0
  6
CONTINUOUS
 62
     8
 10
116.4017374972
 20
161.1665237513
 30
0.0
  0
VERTEX
  5
17B
  8
0
  6
CONTINUOUS
 62
     8
 10
116.6409492893
 20
161.1405879295
 30
0.0
  0
VERTEX
  5
17C
  8
0
  6
CONTINUOUS
 62
     8
 10
116.8673636891
 20
161.0823563621
 30
0.0
  0
VERTEX
  5
17D
  8
0
  6
CONTINUOUS
 62
     8
 10
116.9915045823
 20
161.0343562386
 30
0.0
  0
SEQEND
  5
17E
  8
0
  6
CONTINUOUS
 62
     8
  0
ARC
  5
7F
  8
0
  6
CONTINUOUS
 62
     8
 10
118.145214295
 20
157.5601225454
 30
0.0
 40
0.7809122443667448
 50
296.1421697298
 51
351.8550855167
  0
ARC
  5
80
  8
0
  6
CONTINUOUS
 62
     8
 10
118.0542988422
 20
156.8651307201
 30
0.0
 40
0.8300552888682682
 50
292.0545203441
 51
351.3491681275
  0
ARC
  5
81
  8
0
  6
CONTINUOUS
 62
     8
 10
107.6072282009
 20
161.4418336581
 30
0.0
 40
3.455375525686165
 50
77.8540802103
 51
152.026185852
  0
LINE
  5
82
  8
0
  6
CONTINUOUS
 62
     8
 10
109.8069147755
 20
150.724094769
 30
0.0
 11
110.1181649427
 21
150.897171038
 31
0.0
  0
TEXT
  5
83
  8
0
  6
CONTINUOUS
 62
     7
 10
0.0
 20
6.732893805
 30
0.0
 40
3.633
  1
Edition étudiante de SolidWorks.
 41
0.6671875
 11
0.0
 21
5.4495
 31
0.0
 73
     1
  0
TEXT
  5
84
  8
0
  6
CONTINUOUS
 62
     7
 10
0.0
 20
1.283393805
 30
0.0
 40
3.633
  1
A usage universitaire uniquement.
 41
0.6681818182
 11
0.0
 21
0.0
 31
0.0
 73
     1
  0
ENDSEC
  0
EOF
