  0
SECTION
  2
HEADER
  9
$ACADVER
  1
AC1009
  9
$DWGCODEPAGE
  3
ansi_1252
  9
$INSBASE
 10
0.0
 20
0.0
 30
0.0
  9
$EXTMIN
 10
0.0
 20
0.0
 30
0.0
  9
$EXTMAX
 10
297.0
 20
210.0
 30
0.0
  9
$LIMMIN
 10
0.0
 20
0.0
  9
$LIMMAX
 10
297.0
 20
210.0
  9
$ORTHOMODE
 70
     0
  9
$REGENMODE
 70
     1
  9
$FILLMODE
 70
     1
  9
$QTEXTMODE
 70
     0
  9
$MIRRTEXT
 70
     1
  9
$DRAGMODE
 70
     2
  9
$LTSCALE
 40
1.0
  9
$OSMODE
 70
    37
  9
$ATTMODE
 70
     1
  9
$TEXTSIZE
 40
3.5
  9
$TRACEWID
 40
1.0
  9
$TEXTSTYLE
  7
STANDARD
  9
$CLAYER
  8
0
  9
$CELTYPE
  6
BYLAYER
  9
$CECOLOR
 62
   256
  9
$DIMSCALE
 40
1.0
  9
$DIMASZ
 40
3.302
  9
$DIMEXO
 40
1.0
  9
$DIMDLI
 40
3.75
  9
$DIMRND
 40
0.0
  9
$DIMDLE
 40
0.0
  9
$DIMEXE
 40
1.0
  9
$DIMTP
 40
0.0
  9
$DIMTM
 40
0.0
  9
$DIMTXT
 40
3.5
  9
$DIMCEN
 40
2.5
  9
$DIMTSZ
 40
0.0
  9
$DIMTOL
 70
     0
  9
$DIMLIM
 70
     0
  9
$DIMTIH
 70
     1
  9
$DIMTOH
 70
     1
  9
$DIMSE1
 70
     0
  9
$DIMSE2
 70
     0
  9
$DIMTAD
 70
     1
  9
$DIMZIN
 70
     0
  9
$DIMBLK
  1

  9
$DIMASO
 70
     1
  9
$DIMSHO
 70
     1
  9
$DIMPOST
  1

  9
$DIMAPOST
  1

  9
$DIMALT
 70
     0
  9
$DIMALTD
 70
     3
  9
$DIMALTF
 40
0.0393700787
  9
$DIMLFAC
 40
2.0
  9
$DIMTOFL
 70
     1
  9
$DIMTVP
 40
0.0
  9
$DIMTIX
 70
     0
  9
$DIMSOXD
 70
     0
  9
$DIMSAH
 70
     0
  9
$DIMBLK1
  1

  9
$DIMBLK2
  1

  9
$DIMSTYLE
  2
ISO-25
  9
$DIMCLRD
 70
     0
  9
$DIMCLRE
 70
     0
  9
$DIMCLRT
 70
     0
  9
$DIMTFAC
 40
1.0
  9
$DIMGAP
 40
1.524
  9
$LUNITS
 70
     2
  9
$LUPREC
 70
     2
  9
$SKETCHINC
 40
1.0
  9
$FILLETRAD
 40
10.0
  9
$AUNITS
 70
     0
  9
$AUPREC
 70
     2
  9
$MENU
  1
.
  9
$ELEVATION
 40
0.0
  9
$PELEVATION
 40
0.0
  9
$THICKNESS
 40
0.0
  9
$LIMCHECK
 70
     0
  9
$CHAMFERA
 40
10.0
  9
$CHAMFERB
 40
10.0
  9
$SKPOLY
 70
     0
  9
$TDCREATE
 40
2456427.34596103
  9
$TDUPDATE
 40
2456427.345961215
  9
$TDINDWG
 40
0.0000000116
  9
$TDUSRTIMER
 40
0.0000000116
  9
$USRTIMER
 70
     1
  9
$ANGBASE
 50
0.0
  9
$ANGDIR
 70
     0
  9
$PDMODE
 70
     0
  9
$PDSIZE
 40
-1.0
  9
$PLINEWID
 40
0.0
  9
$COORDS
 70
     1
  9
$SPLFRAME
 70
     0
  9
$SPLINETYPE
 70
     6
  9
$SPLINESEGS
 70
     8
  9
$ATTDIA
 70
     0
  9
$ATTREQ
 70
     1
  9
$HANDLING
 70
     1
  9
$HANDSEED
  5
89
  9
$SURFTAB1
 70
     6
  9
$SURFTAB2
 70
     6
  9
$SURFTYPE
 70
     6
  9
$SURFU
 70
     6
  9
$SURFV
 70
     6
  9
$UCSNAME
  2

  9
$UCSORG
 10
0.0
 20
0.0
 30
0.0
  9
$UCSXDIR
 10
1.0
 20
0.0
 30
0.0
  9
$UCSYDIR
 10
0.0
 20
1.0
 30
0.0
  9
$PUCSNAME
  2

  9
$PUCSORG
 10
0.0
 20
0.0
 30
0.0
  9
$PUCSXDIR
 10
1.0
 20
0.0
 30
0.0
  9
$PUCSYDIR
 10
0.0
 20
1.0
 30
0.0
  9
$USERI1
 70
     0
  9
$USERI2
 70
     0
  9
$USERI3
 70
     0
  9
$USERI4
 70
     0
  9
$USERI5
 70
     0
  9
$USERR1
 40
0.0
  9
$USERR2
 40
0.0
  9
$USERR3
 40
0.0
  9
$USERR4
 40
0.0
  9
$USERR5
 40
0.0
  9
$WORLDVIEW
 70
     1
  9
$SHADEDGE
 70
     3
  9
$SHADEDIF
 70
    70
  9
$TILEMODE
 70
     1
  9
$MAXACTVP
 70
    64
  9
$PLIMCHECK
 70
     0
  9
$PEXTMIN
 10
1.0000000000E+20
 20
1.0000000000E+20
 30
1.0000000000E+20
  9
$PEXTMAX
 10
-1.0000000000E+20
 20
-1.0000000000E+20
 30
-1.0000000000E+20
  9
$PLIMMIN
 10
0.0
 20
0.0
  9
$PLIMMAX
 10
420.0
 20
297.0
  9
$UNITMODE
 70
     0
  9
$VISRETAIN
 70
     1
  9
$PLINEGEN
 70
     0
  9
$PSLTSCALE
 70
     1
  0
ENDSEC
  0
SECTION
  2
TABLES
  0
TABLE
  2
VPORT
 70
     1
  0
VPORT
  2
*ACTIVE
 70
     0
 10
0.0
 20
0.0
 11
1.0
 21
1.0
 12
148.5
 22
105.0
 13
0.0
 23
0.0
 14
10.0
 24
10.0
 15
10.0
 25
10.0
 16
0.0
 26
0.0
 36
1.0
 17
0.0
 27
0.0
 37
0.0
 40
210.0
 41
1.4142857143
 42
50.0
 43
0.0
 44
0.0
 50
0.0
 51
0.0
 71
     0
 72
  2000
 73
     1
 74
     3
 75
     0
 76
     0
 77
     0
 78
     0
  0
ENDTAB
  0
TABLE
  2
LTYPE
 70
     6
  0
LTYPE
  2
CONTINUOUS
 70
     0
  3
Solid line
 72
    65
 73
     0
 40
0.0
  0
LTYPE
  2
HIDDEN
 70
     0
  3
Hidden __ __ __ __ __ __ __ __ __ __ __ __ __ __
 72
    65
 73
     2
 40
1.905
 49
1.27
 49
-0.635
  0
LTYPE
  2
PHANTOM
 70
     0
  3
Phantom ______  __  __  ______  __  __  ______
 72
    65
 73
     6
 40
12.7
 49
6.35
 49
-1.27
 49
1.27
 49
-1.27
 49
1.27
 49
-1.27
  0
LTYPE
  2
CENTER
 70
     0
  3
Center ____ _ ____ _ ____ _ ____ _ ____ _ ____
 72
    65
 73
     4
 40
10.16
 49
6.35
 49
-1.27
 49
1.27
 49
-1.27
  0
LTYPE
  2
CENTERX2
 70
     0
  3
Center (2x) ________  __  ________  __  _____
 72
    65
 73
     4
 40
20.32
 49
12.7
 49
-2.54
 49
2.54
 49
-2.54
  0
LTYPE
  2
DOT2
 70
     0
  3
Dot (.5x) ........................................
 72
    65
 73
     2
 40
0.635
 49
0.0
 49
-0.635
  0
ENDTAB
  0
TABLE
  2
LAYER
 70
     1
  0
LAYER
  2
0
 70
     0
 62
     7
  6
CONTINUOUS
  0
ENDTAB
  0
TABLE
  2
STYLE
 70
     1
  0
STYLE
  2
STANDARD
 70
     0
 40
0.0
 41
1.0
 50
0.0
 71
     0
 42
3.5
  3
txt
  4

  0
ENDTAB
  0
TABLE
  2
VIEW
 70
     0
  0
ENDTAB
  0
TABLE
  2
UCS
 70
     0
  0
ENDTAB
  0
TABLE
  2
APPID
 70
     1
  0
APPID
  2
ACAD
 70
     0
  0
ENDTAB
  0
TABLE
  2
DIMSTYLE
 70
     1
  0
DIMSTYLE
  2
ISO-25
 70
     0
  3

  4

  5

  6

  7

 40
1.0
 41
2.5
 42
0.625
 43
3.75
 44
1.25
 45
0.0
 46
0.0
 47
0.0
 48
0.0
140
2.5
141
2.5
142
0.0
143
0.0393700787
144
1.0
145
0.0
146
1.0
147
0.625
 71
     0
 72
     0
 73
     0
 74
     0
 75
     0
 76
     0
 77
     1
 78
     8
170
     0
171
     3
172
     1
173
     0
174
     0
175
     0
176
     0
177
     0
178
     0
  0
ENDTAB
  0
ENDSEC
  0
SECTION
  2
BLOCKS
  0
BLOCK
  8
0
  2
$MODEL_SPACE
 70
     0
 10
0.0
 20
0.0
 30
0.0
  3
$MODEL_SPACE
  1

  0
ENDBLK
  5
21
  8
0
  0
BLOCK
 67
     1
  8
0
  2
$PAPER_SPACE
 70
     0
 10
0.0
 20
0.0
 30
0.0
  3
$PAPER_SPACE
  1

  0
ENDBLK
  5
1D
 67
     1
  8
0
  0
ENDSEC
  0
SECTION
  2
ENTITIES
  0
TEXT
  5
44
  8
0
  6
CONTINUOUS
 62
     7
 10
138.0618274112
 20
142.0499035035
 30
0.0
 40
3.5
  1
1
 41
0.7
 11
138.0618274112
 21
140.8134932868
 31
0.0
 73
     1
  0
LINE
  5
45
  8
0
  6
CONTINUOUS
 62
     7
 10
89.5751420371
 20
134.8996700508
 30
0.0
 11
87.1183429558
 21
128.1496700508
 31
0.0
  0
LINE
  5
46
  8
0
  6
CONTINUOUS
 62
     7
 10
92.1037096125
 20
134.8996700508
 30
0.0
 11
89.5751420371
 21
134.8996700508
 31
0.0
  0
LINE
  5
47
  8
0
  6
CONTINUOUS
 62
     7
 10
94.5605086938
 20
128.1496700508
 30
0.0
 11
92.1037096125
 21
134.8996700508
 31
0.0
  0
LINE
  5
48
  8
0
  6
CONTINUOUS
 62
     7
 10
96.5431209158
 20
128.1496700508
 30
0.0
 11
94.5605086938
 21
128.1496700508
 31
0.0
  0
LINE
  5
49
  8
0
  6
CONTINUOUS
 62
     7
 10
98.9999199971
 20
134.8996700508
 30
0.0
 11
96.5431209158
 21
128.1496700508
 31
0.0
  0
LINE
  5
4A
  8
0
  6
CONTINUOUS
 62
     7
 10
101.5284875725
 20
134.8996700508
 30
0.0
 11
98.9999199971
 21
134.8996700508
 31
0.0
  0
LINE
  5
4B
  8
0
  6
CONTINUOUS
 62
     7
 10
103.9852866538
 20
128.1496700508
 30
0.0
 11
101.5284875725
 21
134.8996700508
 31
0.0
  0
LINE
  5
4C
  8
0
  6
CONTINUOUS
 62
     7
 10
105.9678988758
 20
128.1496700508
 30
0.0
 11
103.9852866538
 21
128.1496700508
 31
0.0
  0
LINE
  5
4D
  8
0
  6
CONTINUOUS
 62
     7
 10
108.4246979571
 20
134.8996700508
 30
0.0
 11
105.9678988758
 21
128.1496700508
 31
0.0
  0
LINE
  5
4E
  8
0
  6
CONTINUOUS
 62
     7
 10
110.9532655325
 20
134.8996700508
 30
0.0
 11
108.4246979571
 21
134.8996700508
 31
0.0
  0
LINE
  5
4F
  8
0
  6
CONTINUOUS
 62
     7
 10
113.4100646138
 20
128.1496700508
 30
0.0
 11
110.9532655325
 21
134.8996700508
 31
0.0
  0
LINE
  5
50
  8
0
  6
CONTINUOUS
 62
     7
 10
115.3926768358
 20
128.1496700508
 30
0.0
 11
113.4100646138
 21
128.1496700508
 31
0.0
  0
LINE
  5
51
  8
0
  6
CONTINUOUS
 62
     7
 10
117.8494759171
 20
134.8996700508
 30
0.0
 11
115.3926768358
 21
128.1496700508
 31
0.0
  0
LINE
  5
52
  8
0
  6
CONTINUOUS
 62
     7
 10
120.3780434925
 20
134.8996700508
 30
0.0
 11
117.8494759171
 21
134.8996700508
 31
0.0
  0
LINE
  5
53
  8
0
  6
CONTINUOUS
 62
     7
 10
122.8348425738
 20
128.1496700508
 30
0.0
 11
120.3780434925
 21
134.8996700508
 31
0.0
  0
LINE
  5
54
  8
0
  6
CONTINUOUS
 62
     7
 10
124.8174547958
 20
128.1496700508
 30
0.0
 11
122.8348425738
 21
128.1496700508
 31
0.0
  0
LINE
  5
55
  8
0
  6
CONTINUOUS
 62
     7
 10
127.2742538771
 20
134.8996700508
 30
0.0
 11
124.8174547958
 21
128.1496700508
 31
0.0
  0
LINE
  5
56
  8
0
  6
CONTINUOUS
 62
     7
 10
129.8028214525
 20
134.8996700508
 30
0.0
 11
127.2742538771
 21
134.8996700508
 31
0.0
  0
LINE
  5
57
  8
0
  6
CONTINUOUS
 62
     7
 10
132.2596205338
 20
128.1496700508
 30
0.0
 11
129.8028214525
 21
134.8996700508
 31
0.0
  0
LINE
  5
58
  8
0
  6
CONTINUOUS
 62
     7
 10
134.2422327558
 20
128.1496700508
 30
0.0
 11
132.2596205338
 21
128.1496700508
 31
0.0
  0
LINE
  5
59
  8
0
  6
CONTINUOUS
 62
     7
 10
136.6990318371
 20
134.8996700508
 30
0.0
 11
134.2422327558
 21
128.1496700508
 31
0.0
  0
LINE
  5
5A
  8
0
  6
CONTINUOUS
 62
     7
 10
139.2275994125
 20
134.8996700508
 30
0.0
 11
136.6990318371
 21
134.8996700508
 31
0.0
  0
LINE
  5
5B
  8
0
  6
CONTINUOUS
 62
     7
 10
141.6843984938
 20
128.1496700508
 30
0.0
 11
139.2275994125
 21
134.8996700508
 31
0.0
  0
LINE
  5
5C
  8
0
  6
CONTINUOUS
 62
     7
 10
143.6670107158
 20
128.1496700508
 30
0.0
 11
141.6843984938
 21
128.1496700508
 31
0.0
  0
LINE
  5
5D
  8
0
  6
CONTINUOUS
 62
     7
 10
146.1238097971
 20
134.8996700508
 30
0.0
 11
143.6670107158
 21
128.1496700508
 31
0.0
  0
LINE
  5
5E
  8
0
  6
CONTINUOUS
 62
     7
 10
148.6523773725
 20
134.8996700508
 30
0.0
 11
146.1238097971
 21
134.8996700508
 31
0.0
  0
LINE
  5
5F
  8
0
  6
CONTINUOUS
 62
     7
 10
160.5339544138
 20
128.1496700508
 30
0.0
 11
158.0771553325
 21
134.8996700508
 31
0.0
  0
LINE
  5
60
  8
0
  6
CONTINUOUS
 62
     7
 10
162.5165666358
 20
128.1496700508
 30
0.0
 11
160.5339544138
 21
128.1496700508
 31
0.0
  0
LINE
  5
61
  8
0
  6
CONTINUOUS
 62
     7
 10
164.9733657171
 20
134.8996700508
 30
0.0
 11
162.5165666358
 21
128.1496700508
 31
0.0
  0
LINE
  5
62
  8
0
  6
CONTINUOUS
 62
     7
 10
167.5019332925
 20
134.8996700508
 30
0.0
 11
164.9733657171
 21
134.8996700508
 31
0.0
  0
LINE
  5
63
  8
0
  6
CONTINUOUS
 62
     7
 10
169.9587323738
 20
128.1496700508
 30
0.0
 11
167.5019332925
 21
134.8996700508
 31
0.0
  0
LINE
  5
64
  8
0
  6
CONTINUOUS
 62
     7
 10
171.9413445958
 20
128.1496700508
 30
0.0
 11
169.9587323738
 21
128.1496700508
 31
0.0
  0
LINE
  5
65
  8
0
  6
CONTINUOUS
 62
     7
 10
174.3981436771
 20
134.8996700508
 30
0.0
 11
171.9413445958
 21
128.1496700508
 31
0.0
  0
LINE
  5
66
  8
0
  6
CONTINUOUS
 62
     7
 10
176.9267112525
 20
134.8996700508
 30
0.0
 11
174.3981436771
 21
134.8996700508
 31
0.0
  0
LINE
  5
67
  8
0
  6
CONTINUOUS
 62
     7
 10
179.3835103338
 20
128.1496700508
 30
0.0
 11
176.9267112525
 21
134.8996700508
 31
0.0
  0
LINE
  5
68
  8
0
  6
CONTINUOUS
 62
     7
 10
181.3661225558
 20
128.1496700508
 30
0.0
 11
179.3835103338
 21
128.1496700508
 31
0.0
  0
LINE
  5
69
  8
0
  6
CONTINUOUS
 62
     7
 10
183.8229216371
 20
134.8996700508
 30
0.0
 11
181.3661225558
 21
128.1496700508
 31
0.0
  0
LINE
  5
6A
  8
0
  6
CONTINUOUS
 62
     7
 10
186.3514892125
 20
134.8996700508
 30
0.0
 11
183.8229216371
 21
134.8996700508
 31
0.0
  0
LINE
  5
6B
  8
0
  6
CONTINUOUS
 62
     7
 10
188.8082882938
 20
128.1496700508
 30
0.0
 11
186.3514892125
 21
134.8996700508
 31
0.0
  0
LINE
  5
6C
  8
0
  6
CONTINUOUS
 62
     7
 10
190.7909005158
 20
128.1496700508
 30
0.0
 11
188.8082882938
 21
128.1496700508
 31
0.0
  0
LINE
  5
6D
  8
0
  6
CONTINUOUS
 62
     7
 10
193.2476995971
 20
134.8996700508
 30
0.0
 11
190.7909005158
 21
128.1496700508
 31
0.0
  0
LINE
  5
6E
  8
0
  6
CONTINUOUS
 62
     7
 10
195.7762671725
 20
134.8996700508
 30
0.0
 11
193.2476995971
 21
134.8996700508
 31
0.0
  0
LINE
  5
6F
  8
0
  6
CONTINUOUS
 62
     7
 10
198.2330662538
 20
128.1496700508
 30
0.0
 11
195.7762671725
 21
134.8996700508
 31
0.0
  0
LINE
  5
70
  8
0
  6
CONTINUOUS
 62
     7
 10
239.6625707498
 20
128.1496700508
 30
0.0
 11
198.2330662538
 21
128.1496700508
 31
0.0
  0
ARC
  5
71
  8
0
  6
CONTINUOUS
 62
     7
 10
239.6625707498
 20
113.1496700508
 30
0.0
 40
14.99999999999964
 50
270.0
 51
90.0
  0
LINE
  5
72
  8
0
  6
CONTINUOUS
 62
     7
 10
133.6625707498
 20
98.1496700508
 30
0.0
 11
239.6625707498
 21
98.1496700508
 31
0.0
  0
LINE
  5
73
  8
0
  6
CONTINUOUS
 62
     7
 10
127.6625707498
 20
93.6496700508
 30
0.0
 11
133.6625707498
 21
98.1496700508
 31
0.0
  0
ARC
  5
74
  8
0
  6
CONTINUOUS
 62
     7
 10
126.1625707498
 20
95.6496700508
 30
0.0
 40
2.500000000000125
 50
233.1301023542
 51
306.8698976458
  0
LINE
  5
75
  8
0
  6
CONTINUOUS
 62
     7
 10
118.6625707498
 20
98.1496700508
 30
0.0
 11
124.6625707498
 21
93.6496700508
 31
0.0
  0
LINE
  5
76
  8
0
  6
CONTINUOUS
 62
     7
 10
47.1183429558
 20
98.1496700508
 30
0.0
 11
118.6625707498
 21
98.1496700508
 31
0.0
  0
ARC
  5
77
  8
0
  6
CONTINUOUS
 62
     7
 10
47.1183429558
 20
108.1496700508
 30
0.0
 40
10.00000000000001
 50
180.0
 51
270.0
  0
LINE
  5
78
  8
0
  6
CONTINUOUS
 62
     7
 10
37.1183429558
 20
118.1496700508
 30
0.0
 11
37.1183429558
 21
108.1496700508
 31
0.0
  0
ARC
  5
79
  8
0
  6
CONTINUOUS
 62
     7
 10
47.1183429558
 20
118.1496700508
 30
0.0
 40
10.00000000000001
 50
90.0
 51
180.0
  0
LINE
  5
7A
  8
0
  6
CONTINUOUS
 62
     7
 10
87.1183429558
 20
128.1496700508
 30
0.0
 11
47.1183429558
 21
128.1496700508
 31
0.0
  0
ARC
  5
7B
  8
0
  6
CONTINUOUS
 62
     7
 10
239.6625707498
 20
113.1496700508
 30
0.0
 40
6.000000000000014
 50
270.0
 51
90.0
  0
LINE
  5
7C
  8
0
  6
CONTINUOUS
 62
     7
 10
239.6625707498
 20
119.1496700508
 30
0.0
 11
47.1183429558
 21
119.1496700508
 31
0.0
  0
ARC
  5
7D
  8
0
  6
CONTINUOUS
 62
     7
 10
47.1183429558
 20
113.1496700508
 30
0.0
 40
6.000000000000014
 50
90.0
 51
270.0
  0
LINE
  5
7E
  8
0
  6
CONTINUOUS
 62
     7
 10
47.1183429558
 20
107.1496700508
 30
0.0
 11
239.6625707498
 21
107.1496700508
 31
0.0
  0
LINE
  5
7F
  8
0
  6
CONTINUOUS
 62
     7
 10
151.1091764538
 20
128.1496700508
 30
0.0
 11
148.6523773725
 21
134.8996700508
 31
0.0
  0
LINE
  5
80
  8
0
  6
CONTINUOUS
 62
     7
 10
153.0917886758
 20
128.1496700508
 30
0.0
 11
151.1091764538
 21
128.1496700508
 31
0.0
  0
LINE
  5
81
  8
0
  6
CONTINUOUS
 62
     7
 10
155.5485877571
 20
134.8996700508
 30
0.0
 11
153.0917886758
 21
128.1496700508
 31
0.0
  0
LINE
  5
82
  8
0
  6
CONTINUOUS
 62
     7
 10
158.0771553325
 20
134.8996700508
 30
0.0
 11
155.5485877571
 21
134.8996700508
 31
0.0
  0
ARC
  5
83
  8
0
  6
CONTINUOUS
 62
     7
 10
239.6625707498
 20
113.1496700508
 30
0.0
 40
3.0
 50
270.0
 51
90.0
  0
ARC
  5
84
  8
0
  6
CONTINUOUS
 62
     7
 10
47.1183429558
 20
113.1496700508
 30
0.0
 40
3.0
 50
90.0
 51
270.0
  0
LINE
  5
85
  8
0
  6
CONTINUOUS
 62
     7
 10
239.6625707498
 20
116.1496700508
 30
0.0
 11
47.1183429558
 21
116.1496700508
 31
0.0
  0
LINE
  5
86
  8
0
  6
CONTINUOUS
 62
     7
 10
47.1183429558
 20
110.1496700508
 30
0.0
 11
239.6625707498
 21
110.1496700508
 31
0.0
  0
TEXT
  5
87
  8
0
  6
CONTINUOUS
 62
     7
 10
0.0
 20
6.732893805
 30
0.0
 40
3.633
  1
Edition étudiante de SolidWorks.
 41
0.6671875
 11
0.0
 21
5.4495
 31
0.0
 73
     1
  0
TEXT
  5
88
  8
0
  6
CONTINUOUS
 62
     7
 10
0.0
 20
1.283393805
 30
0.0
 40
3.633
  1
A usage universitaire uniquement.
 41
0.6681818182
 11
0.0
 21
0.0
 31
0.0
 73
     1
  0
ENDSEC
  0
EOF
