  0
SECTION
  2
HEADER
  9
$ACADVER
  1
AC1009
  9
$DWGCODEPAGE
  3
ansi_1252
  9
$INSBASE
 10
0.0
 20
0.0
 30
0.0
  9
$EXTMIN
 10
0.0
 20
0.0
 30
0.0
  9
$EXTMAX
 10
210.0
 20
297.0
 30
0.0
  9
$LIMMIN
 10
0.0
 20
0.0
  9
$LIMMAX
 10
210.0
 20
297.0
  9
$ORTHOMODE
 70
     0
  9
$REGENMODE
 70
     1
  9
$FILLMODE
 70
     1
  9
$QTEXTMODE
 70
     0
  9
$MIRRTEXT
 70
     1
  9
$DRAGMODE
 70
     2
  9
$LTSCALE
 40
1.0
  9
$OSMODE
 70
    37
  9
$ATTMODE
 70
     1
  9
$TEXTSIZE
 40
3.5
  9
$TRACEWID
 40
1.0
  9
$TEXTSTYLE
  7
STANDARD
  9
$CLAYER
  8
0
  9
$CELTYPE
  6
BYLAYER
  9
$CECOLOR
 62
   256
  9
$DIMSCALE
 40
1.0
  9
$DIMASZ
 40
3.302
  9
$DIMEXO
 40
1.0
  9
$DIMDLI
 40
3.75
  9
$DIMRND
 40
0.0
  9
$DIMDLE
 40
0.0
  9
$DIMEXE
 40
1.0
  9
$DIMTP
 40
0.0
  9
$DIMTM
 40
0.0
  9
$DIMTXT
 40
3.5
  9
$DIMCEN
 40
2.5
  9
$DIMTSZ
 40
0.0
  9
$DIMTOL
 70
     0
  9
$DIMLIM
 70
     0
  9
$DIMTIH
 70
     1
  9
$DIMTOH
 70
     1
  9
$DIMSE1
 70
     0
  9
$DIMSE2
 70
     0
  9
$DIMTAD
 70
     1
  9
$DIMZIN
 70
     0
  9
$DIMBLK
  1

  9
$DIMASO
 70
     1
  9
$DIMSHO
 70
     1
  9
$DIMPOST
  1

  9
$DIMAPOST
  1

  9
$DIMALT
 70
     0
  9
$DIMALTD
 70
     3
  9
$DIMALTF
 40
0.0393700787
  9
$DIMLFAC
 40
5.0
  9
$DIMTOFL
 70
     1
  9
$DIMTVP
 40
0.0
  9
$DIMTIX
 70
     0
  9
$DIMSOXD
 70
     0
  9
$DIMSAH
 70
     0
  9
$DIMBLK1
  1

  9
$DIMBLK2
  1

  9
$DIMSTYLE
  2
ISO-25
  9
$DIMCLRD
 70
     0
  9
$DIMCLRE
 70
     0
  9
$DIMCLRT
 70
     0
  9
$DIMTFAC
 40
1.0
  9
$DIMGAP
 40
1.524
  9
$LUNITS
 70
     2
  9
$LUPREC
 70
     2
  9
$SKETCHINC
 40
1.0
  9
$FILLETRAD
 40
10.0
  9
$AUNITS
 70
     0
  9
$AUPREC
 70
     2
  9
$MENU
  1
.
  9
$ELEVATION
 40
0.0
  9
$PELEVATION
 40
0.0
  9
$THICKNESS
 40
0.0
  9
$LIMCHECK
 70
     0
  9
$CHAMFERA
 40
10.0
  9
$CHAMFERB
 40
10.0
  9
$SKPOLY
 70
     0
  9
$TDCREATE
 40
2456465.33449993
  9
$TDUPDATE
 40
2456465.33449993
  9
$TDINDWG
 40
0.0000000116
  9
$TDUSRTIMER
 40
0.0000000116
  9
$USRTIMER
 70
     1
  9
$ANGBASE
 50
0.0
  9
$ANGDIR
 70
     0
  9
$PDMODE
 70
     0
  9
$PDSIZE
 40
-1.0
  9
$PLINEWID
 40
0.0
  9
$COORDS
 70
     1
  9
$SPLFRAME
 70
     0
  9
$SPLINETYPE
 70
     6
  9
$SPLINESEGS
 70
     8
  9
$ATTDIA
 70
     0
  9
$ATTREQ
 70
     1
  9
$HANDLING
 70
     1
  9
$HANDSEED
  5
12E
  9
$SURFTAB1
 70
     6
  9
$SURFTAB2
 70
     6
  9
$SURFTYPE
 70
     6
  9
$SURFU
 70
     6
  9
$SURFV
 70
     6
  9
$UCSNAME
  2

  9
$UCSORG
 10
0.0
 20
0.0
 30
0.0
  9
$UCSXDIR
 10
1.0
 20
0.0
 30
0.0
  9
$UCSYDIR
 10
0.0
 20
1.0
 30
0.0
  9
$PUCSNAME
  2

  9
$PUCSORG
 10
0.0
 20
0.0
 30
0.0
  9
$PUCSXDIR
 10
1.0
 20
0.0
 30
0.0
  9
$PUCSYDIR
 10
0.0
 20
1.0
 30
0.0
  9
$USERI1
 70
     0
  9
$USERI2
 70
     0
  9
$USERI3
 70
     0
  9
$USERI4
 70
     0
  9
$USERI5
 70
     0
  9
$USERR1
 40
0.0
  9
$USERR2
 40
0.0
  9
$USERR3
 40
0.0
  9
$USERR4
 40
0.0
  9
$USERR5
 40
0.0
  9
$WORLDVIEW
 70
     1
  9
$SHADEDGE
 70
     3
  9
$SHADEDIF
 70
    70
  9
$TILEMODE
 70
     1
  9
$MAXACTVP
 70
    64
  9
$PLIMCHECK
 70
     0
  9
$PEXTMIN
 10
1.0000000000E+20
 20
1.0000000000E+20
 30
1.0000000000E+20
  9
$PEXTMAX
 10
-1.0000000000E+20
 20
-1.0000000000E+20
 30
-1.0000000000E+20
  9
$PLIMMIN
 10
0.0
 20
0.0
  9
$PLIMMAX
 10
420.0
 20
297.0
  9
$UNITMODE
 70
     0
  9
$VISRETAIN
 70
     1
  9
$PLINEGEN
 70
     0
  9
$PSLTSCALE
 70
     1
  0
ENDSEC
  0
SECTION
  2
TABLES
  0
TABLE
  2
VPORT
 70
     1
  0
VPORT
  2
*ACTIVE
 70
     0
 10
0.0
 20
0.0
 11
1.0
 21
1.0
 12
105.0
 22
148.5
 13
0.0
 23
0.0
 14
10.0
 24
10.0
 15
10.0
 25
10.0
 16
0.0
 26
0.0
 36
1.0
 17
0.0
 27
0.0
 37
0.0
 40
297.0
 41
0.7070707071
 42
50.0
 43
0.0
 44
0.0
 50
0.0
 51
0.0
 71
     0
 72
  2000
 73
     1
 74
     3
 75
     0
 76
     0
 77
     0
 78
     0
  0
ENDTAB
  0
TABLE
  2
LTYPE
 70
     6
  0
LTYPE
  2
CONTINUOUS
 70
     0
  3
Solid line
 72
    65
 73
     0
 40
0.0
  0
LTYPE
  2
HIDDEN
 70
     0
  3
Hidden __ __ __ __ __ __ __ __ __ __ __ __ __ __
 72
    65
 73
     2
 40
1.905
 49
1.27
 49
-0.635
  0
LTYPE
  2
PHANTOM
 70
     0
  3
Phantom ______  __  __  ______  __  __  ______
 72
    65
 73
     6
 40
12.7
 49
6.35
 49
-1.27
 49
1.27
 49
-1.27
 49
1.27
 49
-1.27
  0
LTYPE
  2
CENTER
 70
     0
  3
Center ____ _ ____ _ ____ _ ____ _ ____ _ ____
 72
    65
 73
     4
 40
10.16
 49
6.35
 49
-1.27
 49
1.27
 49
-1.27
  0
LTYPE
  2
CENTERX2
 70
     0
  3
Center (2x) ________  __  ________  __  _____
 72
    65
 73
     4
 40
20.32
 49
12.7
 49
-2.54
 49
2.54
 49
-2.54
  0
LTYPE
  2
DOT2
 70
     0
  3
Dot (.5x) ........................................
 72
    65
 73
     2
 40
0.635
 49
0.0
 49
-0.635
  0
ENDTAB
  0
TABLE
  2
LAYER
 70
     1
  0
LAYER
  2
0
 70
     0
 62
     7
  6
CONTINUOUS
  0
ENDTAB
  0
TABLE
  2
STYLE
 70
     1
  0
STYLE
  2
STANDARD
 70
     0
 40
0.0
 41
1.0
 50
0.0
 71
     0
 42
3.5
  3
txt
  4

  0
ENDTAB
  0
TABLE
  2
VIEW
 70
     0
  0
ENDTAB
  0
TABLE
  2
UCS
 70
     0
  0
ENDTAB
  0
TABLE
  2
APPID
 70
     1
  0
APPID
  2
ACAD
 70
     0
  0
ENDTAB
  0
TABLE
  2
DIMSTYLE
 70
     1
  0
DIMSTYLE
  2
ISO-25
 70
     0
  3

  4

  5

  6

  7

 40
1.0
 41
2.5
 42
0.625
 43
3.75
 44
1.25
 45
0.0
 46
0.0
 47
0.0
 48
0.0
140
2.5
141
2.5
142
0.0
143
0.0393700787
144
1.0
145
0.0
146
1.0
147
0.625
 71
     0
 72
     0
 73
     0
 74
     0
 75
     0
 76
     0
 77
     1
 78
     8
170
     0
171
     3
172
     1
173
     0
174
     0
175
     0
176
     0
177
     0
178
     0
  0
ENDTAB
  0
ENDSEC
  0
SECTION
  2
BLOCKS
  0
BLOCK
  8
0
  2
$MODEL_SPACE
 70
     0
 10
0.0
 20
0.0
 30
0.0
  3
$MODEL_SPACE
  1

  0
ENDBLK
  5
21
  8
0
  0
BLOCK
 67
     1
  8
0
  2
$PAPER_SPACE
 70
     0
 10
0.0
 20
0.0
 30
0.0
  3
$PAPER_SPACE
  1

  0
ENDBLK
  5
1D
 67
     1
  8
0
  0
ENDSEC
  0
SECTION
  2
ENTITIES
  0
POLYLINE
  5
44
  8
0
  6
CONTINUOUS
 62
     7
 66
     1
 10
0.0
 20
0.0
 30
0.0
  0
VERTEX
  5
5D
  8
0
  6
CONTINUOUS
 62
     7
 10
118.3147287939
 20
145.1745176849
 30
0.0
  0
VERTEX
  5
5E
  8
0
  6
CONTINUOUS
 62
     7
 10
118.3071964487
 20
145.6914293881
 30
0.0
  0
VERTEX
  5
5F
  8
0
  6
CONTINUOUS
 62
     7
 10
118.2531714896
 20
146.6482557541
 30
0.0
  0
VERTEX
  5
60
  8
0
  6
CONTINUOUS
 62
     7
 10
118.1470000355
 20
147.5942766316
 30
0.0
  0
VERTEX
  5
61
  8
0
  6
CONTINUOUS
 62
     7
 10
117.988342988
 20
148.5230216794
 30
0.0
  0
VERTEX
  5
62
  8
0
  6
CONTINUOUS
 62
     7
 10
117.7764008721
 20
149.4285795512
 30
0.0
  0
VERTEX
  5
63
  8
0
  6
CONTINUOUS
 62
     7
 10
117.5097144333
 20
150.3052431154
 30
0.0
  0
VERTEX
  5
64
  8
0
  6
CONTINUOUS
 62
     7
 10
117.1859454293
 20
151.1472251056
 30
0.0
  0
VERTEX
  5
65
  8
0
  6
CONTINUOUS
 62
     7
 10
116.8018309644
 20
151.9479327413
 30
0.0
  0
VERTEX
  5
66
  8
0
  6
CONTINUOUS
 62
     7
 10
116.3537886051
 20
152.6985606747
 30
0.0
  0
VERTEX
  5
67
  8
0
  6
CONTINUOUS
 62
     7
 10
115.8414044588
 20
153.3845107927
 30
0.0
  0
VERTEX
  5
68
  8
0
  6
CONTINUOUS
 62
     7
 10
115.3396261261
 20
153.9219690743
 30
0.0
  0
VERTEX
  5
69
  8
0
  6
CONTINUOUS
 62
     7
 10
114.8086456117
 20
154.3764576626
 30
0.0
  0
VERTEX
  5
6A
  8
0
  6
CONTINUOUS
 62
     7
 10
114.2528901494
 20
154.7484410524
 30
0.0
  0
VERTEX
  5
6B
  8
0
  6
CONTINUOUS
 62
     7
 10
113.6755558098
 20
155.0391839286
 30
0.0
  0
VERTEX
  5
6C
  8
0
  6
CONTINUOUS
 62
     7
 10
113.0800853744
 20
155.2491254564
 30
0.0
  0
VERTEX
  5
6D
  8
0
  6
CONTINUOUS
 62
     7
 10
112.4123713006
 20
155.3857913505
 30
0.0
  0
VERTEX
  5
6E
  8
0
  6
CONTINUOUS
 62
     7
 10
111.8147287939
 20
155.4245176849
 30
0.0
  0
SEQEND
  5
12D
  8
0
  6
CONTINUOUS
 62
     7
  0
POLYLINE
  5
45
  8
0
  6
CONTINUOUS
 62
     7
 66
     1
 10
0.0
 20
0.0
 30
0.0
  0
VERTEX
  5
6F
  8
0
  6
CONTINUOUS
 62
     7
 10
111.4833207626
 20
149.9960422355
 30
0.0
  0
VERTEX
  5
70
  8
0
  6
CONTINUOUS
 62
     7
 10
111.4850138672
 20
149.9942623108
 30
0.0
  0
VERTEX
  5
71
  8
0
  6
CONTINUOUS
 62
     7
 10
111.5538833091
 20
149.9314715883
 30
0.0
  0
VERTEX
  5
72
  8
0
  6
CONTINUOUS
 62
     7
 10
111.6703964948
 20
149.7968876448
 30
0.0
  0
VERTEX
  5
73
  8
0
  6
CONTINUOUS
 62
     7
 10
111.8187726138
 20
149.5839997335
 30
0.0
  0
VERTEX
  5
74
  8
0
  6
CONTINUOUS
 62
     7
 10
111.9850177318
 20
149.2907952177
 30
0.0
  0
VERTEX
  5
75
  8
0
  6
CONTINUOUS
 62
     7
 10
112.1574611438
 20
148.9173343614
 30
0.0
  0
VERTEX
  5
76
  8
0
  6
CONTINUOUS
 62
     7
 10
112.3253768531
 20
148.4671262866
 30
0.0
  0
VERTEX
  5
77
  8
0
  6
CONTINUOUS
 62
     7
 10
112.4791648692
 20
147.9469542921
 30
0.0
  0
VERTEX
  5
78
  8
0
  6
CONTINUOUS
 62
     7
 10
112.610616274
 20
147.3663663564
 30
0.0
  0
VERTEX
  5
79
  8
0
  6
CONTINUOUS
 62
     7
 10
112.7130977566
 20
146.737037747
 30
0.0
  0
VERTEX
  5
7A
  8
0
  6
CONTINUOUS
 62
     7
 10
112.7816316197
 20
146.0721556603
 30
0.0
  0
VERTEX
  5
7B
  8
0
  6
CONTINUOUS
 62
     7
 10
112.8129044205
 20
145.3858978924
 30
0.0
  0
VERTEX
  5
7C
  8
0
  6
CONTINUOUS
 62
     7
 10
112.8147287939
 20
145.1745176849
 30
0.0
  0
SEQEND
  5
12C
  8
0
  6
CONTINUOUS
 62
     7
  0
LINE
  5
46
  8
0
  6
CONTINUOUS
 62
     7
 10
118.3147287939
 20
90.1745176849
 30
0.0
 11
118.3147287939
 21
145.1745176849
 31
0.0
  0
LINE
  5
47
  8
0
  6
CONTINUOUS
 62
     7
 10
112.8147287939
 20
145.1745176849
 30
0.0
 11
112.8147287939
 21
90.1745176849
 31
0.0
  0
LINE
  5
48
  8
0
  6
CONTINUOUS
 62
     7
 10
105.4397287939
 20
149.9245176849
 30
0.0
 11
111.5599035031
 21
149.9245176849
 31
0.0
  0
LINE
  5
49
  8
0
  6
CONTINUOUS
 62
     7
 10
111.8147287939
 20
155.4245176849
 30
0.0
 11
105.4397287939
 21
155.4245176849
 31
0.0
  0
LINE
  5
4A
  8
0
  6
CONTINUOUS
 62
     7
 10
84.5857270692
 20
228.9245176849
 30
0.0
 11
95.1945382655
 21
228.9245176849
 31
0.0
  0
LINE
  5
4B
  8
0
  6
CONTINUOUS
 62
     7
 10
95.1945382655
 20
234.4245176849
 30
0.0
 11
84.5857270692
 21
234.4245176849
 31
0.0
  0
ARC
  5
4C
  8
0
  6
CONTINUOUS
 62
     7
 10
112.2722527453
 20
159.7029189248
 30
0.0
 40
7.846708662812075
 50
176.5543626645
 51
213.0416043059
  0
POLYLINE
  5
4D
  8
0
  6
CONTINUOUS
 62
     7
 66
     1
 10
0.0
 20
0.0
 30
0.0
  0
VERTEX
  5
7D
  8
0
  6
CONTINUOUS
 62
     7
 10
98.9397287939
 20
160.1745176849
 30
0.0
  0
VERTEX
  5
7E
  8
0
  6
CONTINUOUS
 62
     7
 10
98.9472611391
 20
159.6576059817
 30
0.0
  0
VERTEX
  5
7F
  8
0
  6
CONTINUOUS
 62
     7
 10
99.0012860982
 20
158.7007796157
 30
0.0
  0
VERTEX
  5
80
  8
0
  6
CONTINUOUS
 62
     7
 10
99.1074575523
 20
157.7547587381
 30
0.0
  0
VERTEX
  5
81
  8
0
  6
CONTINUOUS
 62
     7
 10
99.2661145998
 20
156.8260136903
 30
0.0
  0
VERTEX
  5
82
  8
0
  6
CONTINUOUS
 62
     7
 10
99.4780567157
 20
155.9204558186
 30
0.0
  0
VERTEX
  5
83
  8
0
  6
CONTINUOUS
 62
     7
 10
99.7447431545
 20
155.0437922544
 30
0.0
  0
VERTEX
  5
84
  8
0
  6
CONTINUOUS
 62
     7
 10
100.0685121586
 20
154.2018102642
 30
0.0
  0
VERTEX
  5
85
  8
0
  6
CONTINUOUS
 62
     7
 10
100.4526266234
 20
153.4011026285
 30
0.0
  0
VERTEX
  5
86
  8
0
  6
CONTINUOUS
 62
     7
 10
100.9006689827
 20
152.6504746951
 30
0.0
  0
VERTEX
  5
87
  8
0
  6
CONTINUOUS
 62
     7
 10
101.413053129
 20
151.9645245771
 30
0.0
  0
VERTEX
  5
88
  8
0
  6
CONTINUOUS
 62
     7
 10
101.9148314617
 20
151.4270662955
 30
0.0
  0
VERTEX
  5
89
  8
0
  6
CONTINUOUS
 62
     7
 10
102.4458119761
 20
150.9725777072
 30
0.0
  0
VERTEX
  5
8A
  8
0
  6
CONTINUOUS
 62
     7
 10
103.0015674384
 20
150.6005943174
 30
0.0
  0
VERTEX
  5
8B
  8
0
  6
CONTINUOUS
 62
     7
 10
103.578901778
 20
150.3098514411
 30
0.0
  0
VERTEX
  5
8C
  8
0
  6
CONTINUOUS
 62
     7
 10
104.1743722134
 20
150.0999099134
 30
0.0
  0
VERTEX
  5
8D
  8
0
  6
CONTINUOUS
 62
     7
 10
104.8420862872
 20
149.9632440193
 30
0.0
  0
VERTEX
  5
8E
  8
0
  6
CONTINUOUS
 62
     7
 10
105.4397287939
 20
149.9245176849
 30
0.0
  0
SEQEND
  5
12B
  8
0
  6
CONTINUOUS
 62
     7
  0
POLYLINE
  5
4E
  8
0
  6
CONTINUOUS
 62
     7
 66
     1
 10
0.0
 20
0.0
 30
0.0
  0
VERTEX
  5
8F
  8
0
  6
CONTINUOUS
 62
     7
 10
104.4397287939
 20
224.1745176849
 30
0.0
  0
VERTEX
  5
90
  8
0
  6
CONTINUOUS
 62
     7
 10
104.4252047883
 20
224.7500008524
 30
0.0
  0
VERTEX
  5
91
  8
0
  6
CONTINUOUS
 62
     7
 10
104.3335191228
 20
225.7268148126
 30
0.0
  0
VERTEX
  5
92
  8
0
  6
CONTINUOUS
 62
     7
 10
104.1579433046
 20
226.6906726985
 30
0.0
  0
VERTEX
  5
93
  8
0
  6
CONTINUOUS
 62
     7
 10
103.8997594242
 20
227.6324537994
 30
0.0
  0
VERTEX
  5
94
  8
0
  6
CONTINUOUS
 62
     7
 10
103.5609886921
 20
228.5433791369
 30
0.0
  0
VERTEX
  5
95
  8
0
  6
CONTINUOUS
 62
     7
 10
103.1444344753
 20
229.4148263376
 30
0.0
  0
VERTEX
  5
96
  8
0
  6
CONTINUOUS
 62
     7
 10
102.6537140681
 20
230.2384153594
 30
0.0
  0
VERTEX
  5
97
  8
0
  6
CONTINUOUS
 62
     7
 10
102.0932807922
 20
231.0061197159
 30
0.0
  0
VERTEX
  5
98
  8
0
  6
CONTINUOUS
 62
     7
 10
101.4684227489
 20
231.7104019922
 30
0.0
  0
VERTEX
  5
99
  8
0
  6
CONTINUOUS
 62
     7
 10
100.7852247079
 20
232.3443650428
 30
0.0
  0
VERTEX
  5
9A
  8
0
  6
CONTINUOUS
 62
     7
 10
100.050484442
 20
232.9019022584
 30
0.0
  0
VERTEX
  5
9B
  8
0
  6
CONTINUOUS
 62
     7
 10
99.271584124
 20
233.3778253493
 30
0.0
  0
VERTEX
  5
9C
  8
0
  6
CONTINUOUS
 62
     7
 10
98.4563285123
 20
233.7679493267
 30
0.0
  0
VERTEX
  5
9D
  8
0
  6
CONTINUOUS
 62
     7
 10
97.6127702442
 20
234.0691224168
 30
0.0
  0
VERTEX
  5
9E
  8
0
  6
CONTINUOUS
 62
     7
 10
96.7490451408
 20
234.2792007992
 30
0.0
  0
VERTEX
  5
9F
  8
0
  6
CONTINUOUS
 62
     7
 10
95.8732364377
 20
234.396979644
 30
0.0
  0
VERTEX
  5
A0
  8
0
  6
CONTINUOUS
 62
     7
 10
95.1945382655
 20
234.4245176849
 30
0.0
  0
SEQEND
  5
12A
  8
0
  6
CONTINUOUS
 62
     7
  0
POLYLINE
  5
4F
  8
0
  6
CONTINUOUS
 62
     7
 66
     1
 10
0.0
 20
0.0
 30
0.0
  0
VERTEX
  5
A1
  8
0
  6
CONTINUOUS
 62
     7
 10
95.1945382655
 20
228.9245176849
 30
0.0
  0
VERTEX
  5
A2
  8
0
  6
CONTINUOUS
 62
     7
 10
95.3879594408
 20
228.9180075259
 30
0.0
  0
VERTEX
  5
A3
  8
0
  6
CONTINUOUS
 62
     7
 10
95.901945944
 20
228.8367988712
 30
0.0
  0
VERTEX
  5
A4
  8
0
  6
CONTINUOUS
 62
     7
 10
96.4050686881
 20
228.6634999475
 30
0.0
  0
VERTEX
  5
A5
  8
0
  6
CONTINUOUS
 62
     7
 10
96.8813318725
 20
228.4048531907
 30
0.0
  0
VERTEX
  5
A6
  8
0
  6
CONTINUOUS
 62
     7
 10
97.3217802424
 20
228.0690887145
 30
0.0
  0
VERTEX
  5
A7
  8
0
  6
CONTINUOUS
 62
     7
 10
97.7206790598
 20
227.6634279781
 30
0.0
  0
VERTEX
  5
A8
  8
0
  6
CONTINUOUS
 62
     7
 10
98.07258294
 20
227.1947806554
 30
0.0
  0
VERTEX
  5
A9
  8
0
  6
CONTINUOUS
 62
     7
 10
98.3717305883
 20
226.6707906112
 30
0.0
  0
VERTEX
  5
AA
  8
0
  6
CONTINUOUS
 62
     7
 10
98.6124379594
 20
226.1003536125
 30
0.0
  0
VERTEX
  5
AB
  8
0
  6
CONTINUOUS
 62
     7
 10
98.7896672279
 20
225.4937003743
 30
0.0
  0
VERTEX
  5
AC
  8
0
  6
CONTINUOUS
 62
     7
 10
98.8995150309
 20
224.8622234815
 30
0.0
  0
VERTEX
  5
AD
  8
0
  6
CONTINUOUS
 62
     7
 10
98.9392057363
 20
224.2531459219
 30
0.0
  0
VERTEX
  5
AE
  8
0
  6
CONTINUOUS
 62
     7
 10
98.9397287939
 20
224.1745176849
 30
0.0
  0
SEQEND
  5
129
  8
0
  6
CONTINUOUS
 62
     7
  0
LINE
  5
50
  8
0
  6
CONTINUOUS
 62
     7
 10
98.9397287939
 20
224.1745176849
 30
0.0
 11
98.9397287939
 21
160.1745176849
 31
0.0
  0
LINE
  5
51
  8
0
  6
CONTINUOUS
 62
     7
 10
104.4397287939
 20
160.1745176849
 30
0.0
 11
104.4397287939
 21
224.1745176849
 31
0.0
  0
LINE
  5
52
  8
0
  6
CONTINUOUS
 62
     7
 10
112.8147287939
 20
90.1745176849
 30
0.0
 11
118.3147287939
 21
90.1745176849
 31
0.0
  0
POLYLINE
  5
53
  8
0
  6
CONTINUOUS
 62
     7
 66
     1
 10
0.0
 20
0.0
 30
0.0
  0
VERTEX
  5
AF
  8
0
  6
CONTINUOUS
 62
     7
 10
83.2107270692
 20
231.6745176849
 30
0.0
  0
VERTEX
  5
B0
  8
0
  6
CONTINUOUS
 62
     7
 10
83.2371473086
 20
231.1380192993
 30
0.0
  0
VERTEX
  5
B1
  8
0
  6
CONTINUOUS
 62
     7
 10
83.315392712
 20
230.6221382459
 30
0.0
  0
VERTEX
  5
B2
  8
0
  6
CONTINUOUS
 62
     7
 10
83.4424563522
 20
230.1466995441
 30
0.0
  0
VERTEX
  5
B3
  8
0
  6
CONTINUOUS
 62
     7
 10
83.613455245
 20
229.7299740366
 30
0.0
  0
VERTEX
  5
B4
  8
0
  6
CONTINUOUS
 62
     7
 10
83.8218179988
 20
229.3879762511
 30
0.0
  0
VERTEX
  5
B5
  8
0
  6
CONTINUOUS
 62
     7
 10
84.0595373497
 20
229.1338489705
 30
0.0
  0
VERTEX
  5
B6
  8
0
  6
CONTINUOUS
 62
     7
 10
84.3174778764
 20
228.9773581638
 30
0.0
  0
VERTEX
  5
B7
  8
0
  6
CONTINUOUS
 62
     7
 10
84.5857270692
 20
228.9245176849
 30
0.0
  0
VERTEX
  5
B8
  8
0
  6
CONTINUOUS
 62
     7
 10
84.8539762619
 20
228.9773581638
 30
0.0
  0
VERTEX
  5
B9
  8
0
  6
CONTINUOUS
 62
     7
 10
85.1119167887
 20
229.1338489705
 30
0.0
  0
VERTEX
  5
BA
  8
0
  6
CONTINUOUS
 62
     7
 10
85.3496361396
 20
229.3879762511
 30
0.0
  0
VERTEX
  5
BB
  8
0
  6
CONTINUOUS
 62
     7
 10
85.5579988933
 20
229.7299740366
 30
0.0
  0
VERTEX
  5
BC
  8
0
  6
CONTINUOUS
 62
     7
 10
85.7289977861
 20
230.1466995441
 30
0.0
  0
VERTEX
  5
BD
  8
0
  6
CONTINUOUS
 62
     7
 10
85.8560614264
 20
230.6221382459
 30
0.0
  0
VERTEX
  5
BE
  8
0
  6
CONTINUOUS
 62
     7
 10
85.9343068297
 20
231.1380192993
 30
0.0
  0
VERTEX
  5
BF
  8
0
  6
CONTINUOUS
 62
     7
 10
85.9607270692
 20
231.6745176849
 30
0.0
  0
VERTEX
  5
C0
  8
0
  6
CONTINUOUS
 62
     7
 10
85.9343068297
 20
232.2110160704
 30
0.0
  0
VERTEX
  5
C1
  8
0
  6
CONTINUOUS
 62
     7
 10
85.8560614264
 20
232.7268971239
 30
0.0
  0
VERTEX
  5
C2
  8
0
  6
CONTINUOUS
 62
     7
 10
85.7289977861
 20
233.2023358257
 30
0.0
  0
VERTEX
  5
C3
  8
0
  6
CONTINUOUS
 62
     7
 10
85.5579988933
 20
233.6190613332
 30
0.0
  0
VERTEX
  5
C4
  8
0
  6
CONTINUOUS
 62
     7
 10
85.3496361396
 20
233.9610591187
 30
0.0
  0
VERTEX
  5
C5
  8
0
  6
CONTINUOUS
 62
     7
 10
85.1119167887
 20
234.2151863993
 30
0.0
  0
VERTEX
  5
C6
  8
0
  6
CONTINUOUS
 62
     7
 10
84.8539762619
 20
234.371677206
 30
0.0
  0
VERTEX
  5
C7
  8
0
  6
CONTINUOUS
 62
     7
 10
84.5857270692
 20
234.4245176849
 30
0.0
  0
VERTEX
  5
C8
  8
0
  6
CONTINUOUS
 62
     7
 10
84.3174778764
 20
234.371677206
 30
0.0
  0
VERTEX
  5
C9
  8
0
  6
CONTINUOUS
 62
     7
 10
84.0595373497
 20
234.2151863993
 30
0.0
  0
VERTEX
  5
CA
  8
0
  6
CONTINUOUS
 62
     7
 10
83.8218179988
 20
233.9610591187
 30
0.0
  0
VERTEX
  5
CB
  8
0
  6
CONTINUOUS
 62
     7
 10
83.613455245
 20
233.6190613332
 30
0.0
  0
VERTEX
  5
CC
  8
0
  6
CONTINUOUS
 62
     7
 10
83.4424563522
 20
233.2023358257
 30
0.0
  0
VERTEX
  5
CD
  8
0
  6
CONTINUOUS
 62
     7
 10
83.315392712
 20
232.7268971239
 30
0.0
  0
VERTEX
  5
CE
  8
0
  6
CONTINUOUS
 62
     7
 10
83.2371473086
 20
232.2110160704
 30
0.0
  0
VERTEX
  5
CF
  8
0
  6
CONTINUOUS
 62
     7
 10
83.2107270692
 20
231.6745176849
 30
0.0
  0
SEQEND
  5
128
  8
0
  6
CONTINUOUS
 62
     7
  0
POLYLINE
  5
54
  8
0
  6
CONTINUOUS
 62
     7
 66
     1
 10
0.0
 20
0.0
 30
0.0
  0
VERTEX
  5
D0
  8
0
  6
CONTINUOUS
 62
     7
 10
83.3357270692
 20
231.6745176849
 30
0.0
  0
VERTEX
  5
D1
  8
0
  6
CONTINUOUS
 62
     7
 10
83.3613146426
 20
231.1712713847
 30
0.0
  0
VERTEX
  5
D2
  8
0
  6
CONTINUOUS
 62
     7
 10
83.4370298046
 20
230.6886280471
 30
0.0
  0
VERTEX
  5
D3
  8
0
  6
CONTINUOUS
 62
     7
 10
83.5597727677
 20
230.2463471472
 30
0.0
  0
VERTEX
  5
D4
  8
0
  6
CONTINUOUS
 62
     7
 10
83.7245184203
 20
229.8625357168
 30
0.0
  0
VERTEX
  5
D5
  8
0
  6
CONTINUOUS
 62
     7
 10
83.9245220563
 20
229.5529070412
 30
0.0
  0
VERTEX
  5
D6
  8
0
  6
CONTINUOUS
 62
     7
 10
84.1515955031
 20
229.3301373545
 30
0.0
  0
VERTEX
  5
D7
  8
0
  6
CONTINUOUS
 62
     7
 10
84.3964423473
 20
229.2033468741
 30
0.0
  0
VERTEX
  5
D8
  8
0
  6
CONTINUOUS
 62
     7
 10
84.6490385302
 20
229.177726417
 30
0.0
  0
VERTEX
  5
D9
  8
0
  6
CONTINUOUS
 62
     7
 10
84.8990427345
 20
229.2543248877
 30
0.0
  0
VERTEX
  5
DA
  8
0
  6
CONTINUOUS
 62
     7
 10
85.1362197586
 20
229.430006336
 30
0.0
  0
VERTEX
  5
DB
  8
0
  6
CONTINUOUS
 62
     7
 10
85.3508595473
 20
229.6975783425
 30
0.0
  0
VERTEX
  5
DC
  8
0
  6
CONTINUOUS
 62
     7
 10
85.5341747225
 20
230.0460864781
 30
0.0
  0
VERTEX
  5
DD
  8
0
  6
CONTINUOUS
 62
     7
 10
85.6786603393
 20
230.4612627786
 30
0.0
  0
VERTEX
  5
DE
  8
0
  6
CONTINUOUS
 62
     7
 10
85.7784011397
 20
230.9261098775
 30
0.0
  0
VERTEX
  5
DF
  8
0
  6
CONTINUOUS
 62
     7
 10
85.8293137234
 20
231.4215968799
 30
0.0
  0
VERTEX
  5
E0
  8
0
  6
CONTINUOUS
 62
     7
 10
85.8293137234
 20
231.9274384899
 30
0.0
  0
VERTEX
  5
E1
  8
0
  6
CONTINUOUS
 62
     7
 10
85.7784011397
 20
232.4229254923
 30
0.0
  0
VERTEX
  5
E2
  8
0
  6
CONTINUOUS
 62
     7
 10
85.6786603393
 20
232.8877725912
 30
0.0
  0
VERTEX
  5
E3
  8
0
  6
CONTINUOUS
 62
     7
 10
85.5341747225
 20
233.3029488917
 30
0.0
  0
VERTEX
  5
E4
  8
0
  6
CONTINUOUS
 62
     7
 10
85.3508595473
 20
233.6514570272
 30
0.0
  0
VERTEX
  5
E5
  8
0
  6
CONTINUOUS
 62
     7
 10
85.1362197586
 20
233.9190290338
 30
0.0
  0
VERTEX
  5
E6
  8
0
  6
CONTINUOUS
 62
     7
 10
84.8990427345
 20
234.0947104821
 30
0.0
  0
VERTEX
  5
E7
  8
0
  6
CONTINUOUS
 62
     7
 10
84.6490385302
 20
234.1713089528
 30
0.0
  0
VERTEX
  5
E8
  8
0
  6
CONTINUOUS
 62
     7
 10
84.3964423473
 20
234.1456884957
 30
0.0
  0
VERTEX
  5
E9
  8
0
  6
CONTINUOUS
 62
     7
 10
84.1515955031
 20
234.0188980153
 30
0.0
  0
VERTEX
  5
EA
  8
0
  6
CONTINUOUS
 62
     7
 10
83.9245220563
 20
233.7961283286
 30
0.0
  0
VERTEX
  5
EB
  8
0
  6
CONTINUOUS
 62
     7
 10
83.7245184203
 20
233.486499653
 30
0.0
  0
VERTEX
  5
EC
  8
0
  6
CONTINUOUS
 62
     7
 10
83.5597727677
 20
233.1026882226
 30
0.0
  0
VERTEX
  5
ED
  8
0
  6
CONTINUOUS
 62
     7
 10
83.4370298046
 20
232.6604073227
 30
0.0
  0
VERTEX
  5
EE
  8
0
  6
CONTINUOUS
 62
     7
 10
83.3613146426
 20
232.1777639851
 30
0.0
  0
VERTEX
  5
EF
  8
0
  6
CONTINUOUS
 62
     7
 10
83.3357270692
 20
231.6745176849
 30
0.0
  0
SEQEND
  5
127
  8
0
  6
CONTINUOUS
 62
     7
  0
POLYLINE
  5
55
  8
0
  6
CONTINUOUS
 62
     8
 66
     1
 10
0.0
 20
0.0
 30
0.0
  0
VERTEX
  5
F0
  8
0
  6
CONTINUOUS
 62
     8
 10
111.478987675
 20
149.9519813916
 30
0.0
  0
VERTEX
  5
F1
  8
0
  6
CONTINUOUS
 62
     8
 10
111.3501075629
 20
149.9773581638
 30
0.0
  0
VERTEX
  5
F2
  8
0
  6
CONTINUOUS
 62
     8
 10
110.9033414653
 20
150.1338489705
 30
0.0
  0
VERTEX
  5
F3
  8
0
  6
CONTINUOUS
 62
     8
 10
110.4915994716
 20
150.3879762511
 30
0.0
  0
VERTEX
  5
F4
  8
0
  6
CONTINUOUS
 62
     8
 10
110.1307045957
 20
150.7299740366
 30
0.0
  0
VERTEX
  5
F5
  8
0
  6
CONTINUOUS
 62
     8
 10
109.8345258254
 20
151.1466995441
 30
0.0
  0
VERTEX
  5
F6
  8
0
  6
CONTINUOUS
 62
     8
 10
109.6144451446
 20
151.6221382459
 30
0.0
  0
VERTEX
  5
F7
  8
0
  6
CONTINUOUS
 62
     8
 10
109.4789201306
 20
152.1380192993
 30
0.0
  0
VERTEX
  5
F8
  8
0
  6
CONTINUOUS
 62
     8
 10
109.4331589335
 20
152.6745176849
 30
0.0
  0
VERTEX
  5
F9
  8
0
  6
CONTINUOUS
 62
     8
 10
109.4789201306
 20
153.2110160704
 30
0.0
  0
VERTEX
  5
FA
  8
0
  6
CONTINUOUS
 62
     8
 10
109.6144451446
 20
153.7268971239
 30
0.0
  0
VERTEX
  5
FB
  8
0
  6
CONTINUOUS
 62
     8
 10
109.8345258254
 20
154.2023358257
 30
0.0
  0
VERTEX
  5
FC
  8
0
  6
CONTINUOUS
 62
     8
 10
110.1307045957
 20
154.6190613332
 30
0.0
  0
VERTEX
  5
FD
  8
0
  6
CONTINUOUS
 62
     8
 10
110.4915994716
 20
154.9610591187
 30
0.0
  0
VERTEX
  5
FE
  8
0
  6
CONTINUOUS
 62
     8
 10
110.9033414653
 20
155.2151863993
 30
0.0
  0
VERTEX
  5
FF
  8
0
  6
CONTINUOUS
 62
     8
 10
111.3501075629
 20
155.371677206
 30
0.0
  0
VERTEX
  5
100
  8
0
  6
CONTINUOUS
 62
     8
 10
111.8147287939
 20
155.4245176849
 30
0.0
  0
VERTEX
  5
101
  8
0
  6
CONTINUOUS
 62
     8
 10
111.8338930009
 20
155.4244286491
 30
0.0
  0
SEQEND
  5
126
  8
0
  6
CONTINUOUS
 62
     8
  0
LINE
  5
56
  8
0
  6
CONTINUOUS
 62
     8
 10
112.814728814
 20
145.1745176849
 30
0.0
 11
118.3147285333
 21
145.1745176849
 31
0.0
  0
POLYLINE
  5
57
  8
0
  6
CONTINUOUS
 62
     8
 66
     1
 10
0.0
 20
0.0
 30
0.0
  0
VERTEX
  5
102
  8
0
  6
CONTINUOUS
 62
     8
 10
105.4397287939
 20
149.9245176849
 30
0.0
  0
VERTEX
  5
103
  8
0
  6
CONTINUOUS
 62
     8
 10
104.9751075629
 20
149.9773581638
 30
0.0
  0
VERTEX
  5
104
  8
0
  6
CONTINUOUS
 62
     8
 10
104.5283414653
 20
150.1338489705
 30
0.0
  0
VERTEX
  5
105
  8
0
  6
CONTINUOUS
 62
     8
 10
104.1165994716
 20
150.3879762511
 30
0.0
  0
VERTEX
  5
106
  8
0
  6
CONTINUOUS
 62
     8
 10
103.7557045957
 20
150.7299740366
 30
0.0
  0
VERTEX
  5
107
  8
0
  6
CONTINUOUS
 62
     8
 10
103.4595258254
 20
151.1466995441
 30
0.0
  0
VERTEX
  5
108
  8
0
  6
CONTINUOUS
 62
     8
 10
103.2394451446
 20
151.6221382459
 30
0.0
  0
VERTEX
  5
109
  8
0
  6
CONTINUOUS
 62
     8
 10
103.1039201306
 20
152.1380192993
 30
0.0
  0
VERTEX
  5
10A
  8
0
  6
CONTINUOUS
 62
     8
 10
103.0581589335
 20
152.6745176849
 30
0.0
  0
VERTEX
  5
10B
  8
0
  6
CONTINUOUS
 62
     8
 10
103.1039201306
 20
153.2110160704
 30
0.0
  0
VERTEX
  5
10C
  8
0
  6
CONTINUOUS
 62
     8
 10
103.2394451446
 20
153.7268971239
 30
0.0
  0
VERTEX
  5
10D
  8
0
  6
CONTINUOUS
 62
     8
 10
103.4595258254
 20
154.2023358257
 30
0.0
  0
VERTEX
  5
10E
  8
0
  6
CONTINUOUS
 62
     8
 10
103.7557045957
 20
154.6190613332
 30
0.0
  0
VERTEX
  5
10F
  8
0
  6
CONTINUOUS
 62
     8
 10
104.1165994716
 20
154.9610591187
 30
0.0
  0
VERTEX
  5
110
  8
0
  6
CONTINUOUS
 62
     8
 10
104.5283414653
 20
155.2151863993
 30
0.0
  0
VERTEX
  5
111
  8
0
  6
CONTINUOUS
 62
     8
 10
104.9751075629
 20
155.371677206
 30
0.0
  0
VERTEX
  5
112
  8
0
  6
CONTINUOUS
 62
     8
 10
105.4397287939
 20
155.4245176849
 30
0.0
  0
SEQEND
  5
125
  8
0
  6
CONTINUOUS
 62
     8
  0
POLYLINE
  5
58
  8
0
  6
CONTINUOUS
 62
     8
 66
     1
 10
0.0
 20
0.0
 30
0.0
  0
VERTEX
  5
113
  8
0
  6
CONTINUOUS
 62
     8
 10
95.1945382655
 20
228.9245176849
 30
0.0
  0
VERTEX
  5
114
  8
0
  6
CONTINUOUS
 62
     8
 10
95.4627874583
 20
228.9773581638
 30
0.0
  0
VERTEX
  5
115
  8
0
  6
CONTINUOUS
 62
     8
 10
95.720727985
 20
229.1338489705
 30
0.0
  0
VERTEX
  5
116
  8
0
  6
CONTINUOUS
 62
     8
 10
95.9584473359
 20
229.3879762511
 30
0.0
  0
VERTEX
  5
117
  8
0
  6
CONTINUOUS
 62
     8
 10
96.1668100897
 20
229.7299740366
 30
0.0
  0
VERTEX
  5
118
  8
0
  6
CONTINUOUS
 62
     8
 10
96.3378089824
 20
230.1466995441
 30
0.0
  0
VERTEX
  5
119
  8
0
  6
CONTINUOUS
 62
     8
 10
96.4648726227
 20
230.6221382459
 30
0.0
  0
VERTEX
  5
11A
  8
0
  6
CONTINUOUS
 62
     8
 10
96.5431180261
 20
231.1380192993
 30
0.0
  0
VERTEX
  5
11B
  8
0
  6
CONTINUOUS
 62
     8
 10
96.5695382655
 20
231.6745176849
 30
0.0
  0
VERTEX
  5
11C
  8
0
  6
CONTINUOUS
 62
     8
 10
96.5431180261
 20
232.2110160704
 30
0.0
  0
VERTEX
  5
11D
  8
0
  6
CONTINUOUS
 62
     8
 10
96.4648726227
 20
232.7268971239
 30
0.0
  0
VERTEX
  5
11E
  8
0
  6
CONTINUOUS
 62
     8
 10
96.3378089824
 20
233.2023358257
 30
0.0
  0
VERTEX
  5
11F
  8
0
  6
CONTINUOUS
 62
     8
 10
96.1668100897
 20
233.6190613332
 30
0.0
  0
VERTEX
  5
120
  8
0
  6
CONTINUOUS
 62
     8
 10
95.9584473359
 20
233.9610591187
 30
0.0
  0
VERTEX
  5
121
  8
0
  6
CONTINUOUS
 62
     8
 10
95.720727985
 20
234.2151863993
 30
0.0
  0
VERTEX
  5
122
  8
0
  6
CONTINUOUS
 62
     8
 10
95.4627874583
 20
234.371677206
 30
0.0
  0
VERTEX
  5
123
  8
0
  6
CONTINUOUS
 62
     8
 10
95.1945382655
 20
234.4245176849
 30
0.0
  0
SEQEND
  5
124
  8
0
  6
CONTINUOUS
 62
     8
  0
LINE
  5
59
  8
0
  6
CONTINUOUS
 62
     8
 10
98.9397290408
 20
160.1745176849
 30
0.0
 11
104.439728772
 21
160.1745176849
 31
0.0
  0
LINE
  5
5A
  8
0
  6
CONTINUOUS
 62
     8
 10
98.9397291477
 20
224.1745176849
 30
0.0
 11
104.4397285409
 21
224.1745176849
 31
0.0
  0
TEXT
  5
5B
  8
0
  6
CONTINUOUS
 62
     7
 10
0.0
 20
6.732893805
 30
0.0
 40
3.633
  1
Edition étudiante de SolidWorks.
 41
0.6671875
 11
0.0
 21
5.4495
 31
0.0
 73
     1
  0
TEXT
  5
5C
  8
0
  6
CONTINUOUS
 62
     7
 10
0.0
 20
1.283393805
 30
0.0
 40
3.633
  1
A usage universitaire uniquement.
 41
0.6681818182
 11
0.0
 21
0.0
 31
0.0
 73
     1
  0
ENDSEC
  0
EOF
