  0
SECTION
  2
HEADER
  9
$ACADVER
  1
AC1009
  9
$DWGCODEPAGE
  3
ansi_1252
  9
$INSBASE
 10
0.0
 20
0.0
 30
0.0
  9
$EXTMIN
 10
0.0
 20
0.0
 30
0.0
  9
$EXTMAX
 10
297.0
 20
420.0
 30
0.0
  9
$LIMMIN
 10
0.0
 20
0.0
  9
$LIMMAX
 10
297.0
 20
420.0
  9
$ORTHOMODE
 70
     0
  9
$REGENMODE
 70
     1
  9
$FILLMODE
 70
     1
  9
$QTEXTMODE
 70
     0
  9
$MIRRTEXT
 70
     1
  9
$DRAGMODE
 70
     2
  9
$LTSCALE
 40
1.0
  9
$OSMODE
 70
    37
  9
$ATTMODE
 70
     1
  9
$TEXTSIZE
 40
3.5
  9
$TRACEWID
 40
1.0
  9
$TEXTSTYLE
  7
STANDARD
  9
$CLAYER
  8
0
  9
$CELTYPE
  6
BYLAYER
  9
$CECOLOR
 62
   256
  9
$DIMSCALE
 40
1.0
  9
$DIMASZ
 40
3.302
  9
$DIMEXO
 40
1.0
  9
$DIMDLI
 40
3.75
  9
$DIMRND
 40
0.0
  9
$DIMDLE
 40
0.0
  9
$DIMEXE
 40
1.0
  9
$DIMTP
 40
0.0
  9
$DIMTM
 40
0.0
  9
$DIMTXT
 40
3.5
  9
$DIMCEN
 40
2.5
  9
$DIMTSZ
 40
0.0
  9
$DIMTOL
 70
     0
  9
$DIMLIM
 70
     0
  9
$DIMTIH
 70
     1
  9
$DIMTOH
 70
     1
  9
$DIMSE1
 70
     0
  9
$DIMSE2
 70
     0
  9
$DIMTAD
 70
     1
  9
$DIMZIN
 70
     0
  9
$DIMBLK
  1

  9
$DIMASO
 70
     1
  9
$DIMSHO
 70
     1
  9
$DIMPOST
  1

  9
$DIMAPOST
  1

  9
$DIMALT
 70
     0
  9
$DIMALTD
 70
     3
  9
$DIMALTF
 40
0.0393700787
  9
$DIMLFAC
 40
5.0
  9
$DIMTOFL
 70
     1
  9
$DIMTVP
 40
0.0
  9
$DIMTIX
 70
     0
  9
$DIMSOXD
 70
     0
  9
$DIMSAH
 70
     0
  9
$DIMBLK1
  1

  9
$DIMBLK2
  1

  9
$DIMSTYLE
  2
ISO-25
  9
$DIMCLRD
 70
     0
  9
$DIMCLRE
 70
     0
  9
$DIMCLRT
 70
     0
  9
$DIMTFAC
 40
1.0
  9
$DIMGAP
 40
1.524
  9
$LUNITS
 70
     2
  9
$LUPREC
 70
     2
  9
$SKETCHINC
 40
1.0
  9
$FILLETRAD
 40
10.0
  9
$AUNITS
 70
     0
  9
$AUPREC
 70
     2
  9
$MENU
  1
.
  9
$ELEVATION
 40
0.0
  9
$PELEVATION
 40
0.0
  9
$THICKNESS
 40
0.0
  9
$LIMCHECK
 70
     0
  9
$CHAMFERA
 40
10.0
  9
$CHAMFERB
 40
10.0
  9
$SKPOLY
 70
     0
  9
$TDCREATE
 40
2456427.342504618
  9
$TDUPDATE
 40
2456427.342504791
  9
$TDINDWG
 40
0.0000000116
  9
$TDUSRTIMER
 40
0.0000000116
  9
$USRTIMER
 70
     1
  9
$ANGBASE
 50
0.0
  9
$ANGDIR
 70
     0
  9
$PDMODE
 70
     0
  9
$PDSIZE
 40
-1.0
  9
$PLINEWID
 40
0.0
  9
$COORDS
 70
     1
  9
$SPLFRAME
 70
     0
  9
$SPLINETYPE
 70
     6
  9
$SPLINESEGS
 70
     8
  9
$ATTDIA
 70
     0
  9
$ATTREQ
 70
     1
  9
$HANDLING
 70
     1
  9
$HANDSEED
  5
12D
  9
$SURFTAB1
 70
     6
  9
$SURFTAB2
 70
     6
  9
$SURFTYPE
 70
     6
  9
$SURFU
 70
     6
  9
$SURFV
 70
     6
  9
$UCSNAME
  2

  9
$UCSORG
 10
0.0
 20
0.0
 30
0.0
  9
$UCSXDIR
 10
1.0
 20
0.0
 30
0.0
  9
$UCSYDIR
 10
0.0
 20
1.0
 30
0.0
  9
$PUCSNAME
  2

  9
$PUCSORG
 10
0.0
 20
0.0
 30
0.0
  9
$PUCSXDIR
 10
1.0
 20
0.0
 30
0.0
  9
$PUCSYDIR
 10
0.0
 20
1.0
 30
0.0
  9
$USERI1
 70
     0
  9
$USERI2
 70
     0
  9
$USERI3
 70
     0
  9
$USERI4
 70
     0
  9
$USERI5
 70
     0
  9
$USERR1
 40
0.0
  9
$USERR2
 40
0.0
  9
$USERR3
 40
0.0
  9
$USERR4
 40
0.0
  9
$USERR5
 40
0.0
  9
$WORLDVIEW
 70
     1
  9
$SHADEDGE
 70
     3
  9
$SHADEDIF
 70
    70
  9
$TILEMODE
 70
     1
  9
$MAXACTVP
 70
    64
  9
$PLIMCHECK
 70
     0
  9
$PEXTMIN
 10
1.0000000000E+20
 20
1.0000000000E+20
 30
1.0000000000E+20
  9
$PEXTMAX
 10
-1.0000000000E+20
 20
-1.0000000000E+20
 30
-1.0000000000E+20
  9
$PLIMMIN
 10
0.0
 20
0.0
  9
$PLIMMAX
 10
420.0
 20
297.0
  9
$UNITMODE
 70
     0
  9
$VISRETAIN
 70
     1
  9
$PLINEGEN
 70
     0
  9
$PSLTSCALE
 70
     1
  0
ENDSEC
  0
SECTION
  2
TABLES
  0
TABLE
  2
VPORT
 70
     1
  0
VPORT
  2
*ACTIVE
 70
     0
 10
0.0
 20
0.0
 11
1.0
 21
1.0
 12
148.5
 22
210.0
 13
0.0
 23
0.0
 14
10.0
 24
10.0
 15
10.0
 25
10.0
 16
0.0
 26
0.0
 36
1.0
 17
0.0
 27
0.0
 37
0.0
 40
420.0
 41
0.7071428571
 42
50.0
 43
0.0
 44
0.0
 50
0.0
 51
0.0
 71
     0
 72
  2000
 73
     1
 74
     3
 75
     0
 76
     0
 77
     0
 78
     0
  0
ENDTAB
  0
TABLE
  2
LTYPE
 70
     6
  0
LTYPE
  2
CONTINUOUS
 70
     0
  3
Solid line
 72
    65
 73
     0
 40
0.0
  0
LTYPE
  2
HIDDEN
 70
     0
  3
Hidden __ __ __ __ __ __ __ __ __ __ __ __ __ __
 72
    65
 73
     2
 40
1.905
 49
1.27
 49
-0.635
  0
LTYPE
  2
PHANTOM
 70
     0
  3
Phantom ______  __  __  ______  __  __  ______
 72
    65
 73
     6
 40
12.7
 49
6.35
 49
-1.27
 49
1.27
 49
-1.27
 49
1.27
 49
-1.27
  0
LTYPE
  2
CENTER
 70
     0
  3
Center ____ _ ____ _ ____ _ ____ _ ____ _ ____
 72
    65
 73
     4
 40
10.16
 49
6.35
 49
-1.27
 49
1.27
 49
-1.27
  0
LTYPE
  2
CENTERX2
 70
     0
  3
Center (2x) ________  __  ________  __  _____
 72
    65
 73
     4
 40
20.32
 49
12.7
 49
-2.54
 49
2.54
 49
-2.54
  0
LTYPE
  2
DOT2
 70
     0
  3
Dot (.5x) ........................................
 72
    65
 73
     2
 40
0.635
 49
0.0
 49
-0.635
  0
ENDTAB
  0
TABLE
  2
LAYER
 70
     1
  0
LAYER
  2
0
 70
     0
 62
     7
  6
CONTINUOUS
  0
ENDTAB
  0
TABLE
  2
STYLE
 70
     1
  0
STYLE
  2
STANDARD
 70
     0
 40
0.0
 41
1.0
 50
0.0
 71
     0
 42
3.5
  3
txt
  4

  0
ENDTAB
  0
TABLE
  2
VIEW
 70
     0
  0
ENDTAB
  0
TABLE
  2
UCS
 70
     0
  0
ENDTAB
  0
TABLE
  2
APPID
 70
     1
  0
APPID
  2
ACAD
 70
     0
  0
ENDTAB
  0
TABLE
  2
DIMSTYLE
 70
     1
  0
DIMSTYLE
  2
ISO-25
 70
     0
  3

  4

  5

  6

  7

 40
1.0
 41
2.5
 42
0.625
 43
3.75
 44
1.25
 45
0.0
 46
0.0
 47
0.0
 48
0.0
140
2.5
141
2.5
142
0.0
143
0.0393700787
144
1.0
145
0.0
146
1.0
147
0.625
 71
     0
 72
     0
 73
     0
 74
     0
 75
     0
 76
     0
 77
     1
 78
     8
170
     0
171
     3
172
     1
173
     0
174
     0
175
     0
176
     0
177
     0
178
     0
  0
ENDTAB
  0
ENDSEC
  0
SECTION
  2
BLOCKS
  0
BLOCK
  8
0
  2
$MODEL_SPACE
 70
     0
 10
0.0
 20
0.0
 30
0.0
  3
$MODEL_SPACE
  1

  0
ENDBLK
  5
21
  8
0
  0
BLOCK
 67
     1
  8
0
  2
$PAPER_SPACE
 70
     0
 10
0.0
 20
0.0
 30
0.0
  3
$PAPER_SPACE
  1

  0
ENDBLK
  5
1D
 67
     1
  8
0
  0
ENDSEC
  0
SECTION
  2
ENTITIES
  0
CIRCLE
  5
44
  8
0
  6
CONTINUOUS
 62
     7
 10
65.2441722141
 20
138.091725615
 30
0.0
 40
0.7749999999999915
  0
CIRCLE
  5
45
  8
0
  6
CONTINUOUS
 62
     7
 10
119.4625485559
 20
249.2724684435
 30
0.0
 40
0.7750000000000057
  0
CIRCLE
  5
46
  8
0
  6
CONTINUOUS
 62
     7
 10
228.1095431472
 20
173.091725615
 30
0.0
 40
0.7749999999999773
  0
CIRCLE
  5
47
  8
0
  6
CONTINUOUS
 62
     7
 10
169.6095431472
 20
173.091725615
 30
0.0
 40
0.7749999999999773
  0
CIRCLE
  5
48
  8
0
  6
CONTINUOUS
 62
     7
 10
223.1095431472
 20
115.091725615
 30
0.0
 40
0.7750000000000057
  0
LINE
  5
49
  8
0
  6
CONTINUOUS
 62
     7
 10
170.5488830606
 20
178.0917231528
 30
0.0
 11
168.6702033306
 21
178.0917231528
 31
0.0
  0
ARC
  5
4A
  8
0
  6
CONTINUOUS
 62
     7
 10
171.0792130613
 20
178.6220557009
 30
0.0
 40
0.7500000000000262
 50
225.0
 51
45.0
  0
LINE
  5
4B
  8
0
  6
CONTINUOUS
 62
     7
 10
171.6095430578
 20
197.0310692279
 30
0.0
 11
171.6095430578
 21
179.1523878066
 31
0.0
  0
ARC
  5
4C
  8
0
  6
CONTINUOUS
 62
     7
 10
171.0792130613
 20
197.5613955291
 30
0.0
 40
0.7500000000000262
 50
315.0
 51
135.0
  0
LINE
  5
4D
  8
0
  6
CONTINUOUS
 62
     7
 10
168.6702033306
 20
198.0917189805
 30
0.0
 11
170.5488830606
 21
198.0917189805
 31
0.0
  0
ARC
  5
4E
  8
0
  6
CONTINUOUS
 62
     7
 10
168.1398732331
 20
197.5613955291
 30
0.0
 40
0.7500000000000061
 50
45.0
 51
225.0
  0
LINE
  5
4F
  8
0
  6
CONTINUOUS
 62
     7
 10
167.6095433335
 20
179.1523878066
 30
0.0
 11
167.6095433335
 21
197.0310692279
 31
0.0
  0
ARC
  5
50
  8
0
  6
CONTINUOUS
 62
     7
 10
168.1398732331
 20
178.6220557009
 30
0.0
 40
0.7500000000000061
 50
135.0
 51
315.0
  0
LINE
  5
51
  8
0
  6
CONTINUOUS
 62
     7
 10
230.1095461274
 20
197.0310692279
 30
0.0
 11
230.1095461274
 21
179.1523878066
 31
0.0
  0
ARC
  5
52
  8
0
  6
CONTINUOUS
 62
     7
 10
229.5792130613
 20
197.5613955291
 30
0.0
 40
0.7500000000009104
 50
315.0000000001
 51
134.9999999999
  0
LINE
  5
53
  8
0
  6
CONTINUOUS
 62
     7
 10
227.170202675
 20
198.0917189805
 30
0.0
 11
229.0488814737
 21
198.0917189805
 31
0.0
  0
ARC
  5
54
  8
0
  6
CONTINUOUS
 62
     7
 10
226.6398732331
 20
197.5613955291
 30
0.0
 40
0.7499999999999859
 50
45.0000000001
 51
224.9999999999
  0
LINE
  5
55
  8
0
  6
CONTINUOUS
 62
     7
 10
226.1095454718
 20
179.1523878066
 30
0.0
 11
226.1095454718
 21
197.0310692279
 31
0.0
  0
ARC
  5
56
  8
0
  6
CONTINUOUS
 62
     7
 10
226.6398732331
 20
178.6220557009
 30
0.0
 40
0.7499999999995438
 50
135.0
 51
315.0000000001
  0
LINE
  5
57
  8
0
  6
CONTINUOUS
 62
     7
 10
229.0488814737
 20
178.0917231528
 30
0.0
 11
227.170202675
 21
178.0917231528
 31
0.0
  0
ARC
  5
58
  8
0
  6
CONTINUOUS
 62
     7
 10
229.5792130613
 20
178.6220557009
 30
0.0
 40
0.7499999999999859
 50
224.9999999999
 51
45.0
  0
LINE
  5
59
  8
0
  6
CONTINUOUS
 62
     7
 10
248.1702005292
 20
53.0917254811
 30
0.0
 11
271.0488846327
 21
53.0917254811
 31
0.0
  0
ARC
  5
5A
  8
0
  6
CONTINUOUS
 62
     7
 10
247.6398732331
 20
52.5613955291
 30
0.0
 40
0.7500000000000161
 50
45.0
 51
225.0
  0
LINE
  5
5B
  8
0
  6
CONTINUOUS
 62
     7
 10
247.109543326
 20
49.0917252911
 30
0.0
 11
247.109543326
 21
52.0310650183
 31
0.0
  0
LINE
  5
5C
  8
0
  6
CONTINUOUS
 62
     7
 10
226.1095454718
 20
52.0310650183
 30
0.0
 11
226.1095454718
 21
49.0917252911
 31
0.0
  0
ARC
  5
5D
  8
0
  6
CONTINUOUS
 62
     7
 10
225.5792130613
 20
52.5613955291
 30
0.0
 40
0.7500000000000362
 50
315.0
 51
135.0
  0
LINE
  5
5E
  8
0
  6
CONTINUOUS
 62
     7
 10
201.1095432366
 20
53.0917254811
 30
0.0
 11
225.048880818
 21
53.0917254811
 31
0.0
  0
LINE
  5
5F
  8
0
  6
CONTINUOUS
 62
     7
 10
201.1095432366
 20
59.0917256497
 30
0.0
 11
201.1095432366
 21
53.0917254811
 31
0.0
  0
ARC
  5
60
  8
0
  6
CONTINUOUS
 62
     7
 10
196.1095431472
 20
59.091725615
 30
0.0
 40
5.000000000000007
 50
0.0
 51
90.0
  0
LINE
  5
61
  8
0
  6
CONTINUOUS
 62
     7
 10
156.1095431947
 20
64.0917256543
 30
0.0
 11
196.1095442797
 21
64.0917256543
 31
0.0
  0
ARC
  5
62
  8
0
  6
CONTINUOUS
 62
     7
 10
156.1095431472
 20
59.091725615
 30
0.0
 40
5.000000000000007
 50
90.0
 51
180.0
  0
LINE
  5
63
  8
0
  6
CONTINUOUS
 62
     7
 10
151.1095429572
 20
49.0917252911
 30
0.0
 11
151.1095429572
 21
59.0917256497
 31
0.0
  0
LINE
  5
64
  8
0
  6
CONTINUOUS
 62
     7
 10
137.1095439221
 20
59.0917256497
 30
0.0
 11
137.1095439221
 21
49.0917252911
 31
0.0
  0
ARC
  5
65
  8
0
  6
CONTINUOUS
 62
     7
 10
132.1095431472
 20
59.091725615
 30
0.0
 40
5.0
 50
360.0
 51
90.0
  0
LINE
  5
66
  8
0
  6
CONTINUOUS
 62
     7
 10
67.1095436241
 20
64.0917256543
 30
0.0
 11
132.1095431025
 21
64.0917256543
 31
0.0
  0
ARC
  5
67
  8
0
  6
CONTINUOUS
 62
     7
 10
67.1095431472
 20
59.091725615
 30
0.0
 40
5.0
 50
90.0
 51
180.0
  0
LINE
  5
68
  8
0
  6
CONTINUOUS
 62
     7
 10
62.1095409418
 20
49.0917252911
 30
0.0
 11
62.1095409418
 21
59.0917256497
 31
0.0
  0
LINE
  5
69
  8
0
  6
CONTINUOUS
 62
     7
 10
62.1095409418
 20
49.0917252911
 30
0.0
 11
26.1095499421
 21
49.0917252911
 31
0.0
  0
LINE
  5
6A
  8
0
  6
CONTINUOUS
 62
     7
 10
26.1095499421
 20
49.0917252911
 30
0.0
 11
26.1095499421
 21
74.0917256636
 31
0.0
  0
LINE
  5
6B
  8
0
  6
CONTINUOUS
 62
     7
 10
26.1095499421
 20
74.0917256636
 30
0.0
 11
29.0488784934
 21
74.0917256636
 31
0.0
  0
ARC
  5
6C
  8
0
  6
CONTINUOUS
 62
     7
 10
29.5792130613
 20
74.6220557009
 30
0.0
 40
0.7499999999999885
 50
225.0
 51
45.0
  0
LINE
  5
6D
  8
0
  6
CONTINUOUS
 62
     7
 10
30.1095431472
 20
75.1523856608
 30
0.0
 11
30.1095431472
 21
98.031066039
 31
0.0
  0
ARC
  5
6E
  8
0
  6
CONTINUOUS
 62
     7
 10
29.5792130613
 20
98.5613955291
 30
0.0
 40
0.7499999999999859
 50
315.0
 51
135.0
  0
LINE
  5
6F
  8
0
  6
CONTINUOUS
 62
     7
 10
29.0488784934
 20
99.0917269675
 30
0.0
 11
24.6095394517
 21
99.0917269675
 31
0.0
  0
LINE
  5
70
  8
0
  6
CONTINUOUS
 62
     7
 10
24.6095394517
 20
99.0917269675
 30
0.0
 11
24.6095394517
 21
249.7130517451
 31
0.0
  0
LINE
  5
71
  8
0
  6
CONTINUOUS
 62
     7
 10
24.6095394517
 20
249.7130517451
 30
0.0
 11
147.1095427672
 21
372.2130392281
 31
0.0
  0
LINE
  5
72
  8
0
  6
CONTINUOUS
 62
     7
 10
155.1095431472
 20
372.2130392281
 30
0.0
 11
147.1095427672
 21
372.2130392281
 31
0.0
  0
LINE
  5
73
  8
0
  6
CONTINUOUS
 62
     7
 10
155.1095431472
 20
372.2130392281
 30
0.0
 11
277.6095455314
 21
249.7130517451
 31
0.0
  0
LINE
  5
74
  8
0
  6
CONTINUOUS
 62
     7
 10
277.6095455314
 20
249.7130517451
 30
0.0
 11
277.6095455314
 21
99.0917269675
 31
0.0
  0
LINE
  5
75
  8
0
  6
CONTINUOUS
 62
     7
 10
277.6095455314
 20
99.0917269675
 30
0.0
 11
273.1702064897
 21
99.0917269675
 31
0.0
  0
ARC
  5
76
  8
0
  6
CONTINUOUS
 62
     7
 10
272.6398732331
 20
98.5613955291
 30
0.0
 40
0.7500000000000262
 50
45.0
 51
225.0
  0
LINE
  5
77
  8
0
  6
CONTINUOUS
 62
     7
 10
272.1095418359
 20
98.031066039
 30
0.0
 11
272.1095418359
 21
75.1523856608
 31
0.0
  0
ARC
  5
78
  8
0
  6
CONTINUOUS
 62
     7
 10
272.6398732331
 20
74.6220557009
 30
0.0
 40
0.7500000000000362
 50
135.0
 51
315.0
  0
LINE
  5
79
  8
0
  6
CONTINUOUS
 62
     7
 10
273.1702064897
 20
74.0917256636
 30
0.0
 11
276.1095424916
 21
74.0917256636
 31
0.0
  0
LINE
  5
7A
  8
0
  6
CONTINUOUS
 62
     7
 10
276.1095424916
 20
74.0917256636
 30
0.0
 11
276.1095424916
 21
49.0917252911
 31
0.0
  0
LINE
  5
7B
  8
0
  6
CONTINUOUS
 62
     7
 10
272.1095418359
 20
52.0310650183
 30
0.0
 11
272.1095418359
 21
49.0917252911
 31
0.0
  0
ARC
  5
7C
  8
0
  6
CONTINUOUS
 62
     7
 10
271.5792130613
 20
52.5613955291
 30
0.0
 40
0.7500000000000362
 50
315.0
 51
135.0
  0
CIRCLE
  5
7D
  8
0
  6
CONTINUOUS
 62
     7
 10
42.5699110796
 20
194.441725615
 30
0.0
 40
2.0
  0
CIRCLE
  5
7E
  8
0
  6
CONTINUOUS
 62
     7
 10
205.9174931818
 20
115.091725615
 30
0.0
 40
0.7750000000000341
  0
CIRCLE
  5
7F
  8
0
  6
CONTINUOUS
 62
     7
 10
169.6095431472
 20
203.091725615
 30
0.0
 40
0.7749999999999773
  0
CIRCLE
  5
80
  8
0
  6
CONTINUOUS
 62
     7
 10
228.1095431472
 20
202.841725615
 30
0.0
 40
0.7749999999999773
  0
CIRCLE
  5
81
  8
0
  6
CONTINUOUS
 62
     7
 10
84.1072094966
 20
284.6278075028
 30
0.0
 40
0.7749999999999915
  0
CIRCLE
  5
82
  8
0
  6
CONTINUOUS
 62
     7
 10
34.2441722141
 20
138.091725615
 30
0.0
 40
0.7749999999999986
  0
CIRCLE
  5
83
  8
0
  6
CONTINUOUS
 62
     7
 10
152.6095431472
 20
129.091725615
 30
0.0
 40
2.500000000000057
  0
ARC
  5
84
  8
0
  6
CONTINUOUS
 62
     7
 10
92.2389374803
 20
274.4176523944
 30
0.0
 40
0.74999999999973
 50
180.0
 51
0.0
  0
LINE
  5
85
  8
0
  6
CONTINUOUS
 62
     7
 10
94.3173652316
 20
275.7460807053
 30
0.0
 11
92.9889378871
 21
274.4176570861
 31
0.0
  0
ARC
  5
86
  8
0
  6
CONTINUOUS
 62
     7
 10
94.317364605
 20
276.4960795192
 30
0.0
 40
0.7499999999997158
 50
270.0
 51
90.0
  0
LINE
  5
87
  8
0
  6
CONTINUOUS
 62
     7
 10
92.2818293597
 20
279.2816196171
 30
0.0
 11
94.3173652316
 21
277.2460762946
 31
0.0
  0
ARC
  5
88
  8
0
  6
CONTINUOUS
 62
     7
 10
91.5318306991
 20
279.2816134251
 30
0.0
 40
0.750000000000199
 50
360.0
 51
180.0
  0
LINE
  5
89
  8
0
  6
CONTINUOUS
 62
     7
 10
89.4534027006
 20
277.9531810967
 30
0.0
 11
90.7818337704
 21
279.2816196171
 31
0.0
  0
ARC
  5
8A
  8
0
  6
CONTINUOUS
 62
     7
 10
89.4534035743
 20
277.2031863003
 30
0.0
 40
0.7500000000001705
 50
90.0
 51
270.0
  0
LINE
  5
8B
  8
0
  6
CONTINUOUS
 62
     7
 10
91.4889385725
 20
274.4176570861
 30
0.0
 11
89.4534027006
 21
276.4531855075
 31
0.0
  0
ARC
  5
8C
  8
0
  6
CONTINUOUS
 62
     7
 10
76.6825882942
 20
289.9740015805
 30
0.0
 40
0.7500000000003411
 50
179.9999999999
 51
0.0
  0
LINE
  5
8D
  8
0
  6
CONTINUOUS
 62
     7
 10
78.7610148813
 20
291.3024310557
 30
0.0
 11
77.432591262
 21
289.9740074364
 31
0.0
  0
ARC
  5
8E
  8
0
  6
CONTINUOUS
 62
     7
 10
78.7610154189
 20
292.0524287053
 30
0.0
 40
0.7499999999998295
 50
270.0
 51
90.0
  0
LINE
  5
8F
  8
0
  6
CONTINUOUS
 62
     7
 10
76.7254790093
 20
294.8379699675
 30
0.0
 11
78.7610148813
 21
292.802426645
 31
0.0
  0
ARC
  5
90
  8
0
  6
CONTINUOUS
 62
     7
 10
75.975481513
 20
294.8379626112
 30
0.0
 40
0.7499999999999858
 50
0.0
 51
180.0
  0
LINE
  5
91
  8
0
  6
CONTINUOUS
 62
     7
 10
73.8970523502
 20
293.5095314471
 30
0.0
 11
75.22548342
 21
294.8379699675
 31
0.0
  0
ARC
  5
92
  8
0
  6
CONTINUOUS
 62
     7
 10
73.8970543882
 20
292.7595354864
 30
0.0
 40
0.7499999999999432
 50
90.0
 51
270.0
  0
LINE
  5
93
  8
0
  6
CONTINUOUS
 62
     7
 10
75.9325882222
 20
289.9740074364
 30
0.0
 11
73.8970523502
 21
292.0095358578
 31
0.0
  0
ARC
  5
94
  8
0
  6
CONTINUOUS
 62
     7
 10
127.5942765396
 20
239.0623133351
 30
0.0
 40
0.7499999999985647
 50
180.0
 51
359.9999999999
  0
LINE
  5
95
  8
0
  6
CONTINUOUS
 62
     7
 10
129.6727040584
 20
240.3907362906
 30
0.0
 11
128.3442767139
 21
239.0623126713
 31
0.0
  0
ARC
  5
96
  8
0
  6
CONTINUOUS
 62
     7
 10
129.6727036644
 20
241.1407404598
 30
0.0
 40
0.7500000000003411
 50
270.0
 51
90.0
  0
LINE
  5
97
  8
0
  6
CONTINUOUS
 62
     7
 10
127.6371700491
 20
243.9262752024
 30
0.0
 11
129.6727040584
 21
241.890746781
 31
0.0
  0
ARC
  5
98
  8
0
  6
CONTINUOUS
 62
     7
 10
126.8871697584
 20
243.9262743657
 30
0.0
 40
0.7499999999949978
 50
0.0000000038
 51
180.0000000005
  0
LINE
  5
99
  8
0
  6
CONTINUOUS
 62
     7
 10
124.80874339
 20
242.5978515832
 30
0.0
 11
126.1371688719
 21
243.9262752024
 31
0.0
  0
ARC
  5
9A
  8
0
  6
CONTINUOUS
 62
     7
 10
124.8087426337
 20
241.847847241
 30
0.0
 40
0.7499999999757279
 50
89.9999999994
 51
269.9999999994
  0
LINE
  5
9B
  8
0
  6
CONTINUOUS
 62
     7
 10
126.8442773993
 20
239.0623126713
 30
0.0
 11
124.80874339
 21
241.0978410927
 31
0.0
  0
ARC
  5
9C
  8
0
  6
CONTINUOUS
 62
     7
 10
109.2523934476
 20
257.4041964271
 30
0.0
 40
0.7499999999985221
 50
90.0000000003
 51
269.9999999999
  0
LINE
  5
9D
  8
0
  6
CONTINUOUS
 62
     7
 10
111.2879289116
 20
254.6186630217
 30
0.0
 11
109.2523930396
 21
256.6541914431
 31
0.0
  0
ARC
  5
9E
  8
0
  6
CONTINUOUS
 62
     7
 10
112.0379273535
 20
254.6186625212
 30
0.0
 40
0.7499999999762963
 50
180.0000000006
 51
0.0000000005
  0
LINE
  5
9F
  8
0
  6
CONTINUOUS
 62
     7
 10
114.1163555707
 20
255.947086641
 30
0.0
 11
112.7879282261
 21
254.6186630217
 31
0.0
  0
ARC
  5
A0
  8
0
  6
CONTINUOUS
 62
     7
 10
114.1163544782
 20
256.6970896459
 30
0.0
 40
0.7499999999953388
 50
269.9999999997
 51
89.9999999961
  0
LINE
  5
A1
  8
0
  6
CONTINUOUS
 62
     7
 10
112.0808196987
 20
259.4826255528
 30
0.0
 11
114.1163555707
 21
257.4470822302
 31
0.0
  0
ARC
  5
A2
  8
0
  6
CONTINUOUS
 62
     7
 10
111.3308205723
 20
259.4826235519
 30
0.0
 40
0.7500000000003695
 50
360.0
 51
180.0
  0
LINE
  5
A3
  8
0
  6
CONTINUOUS
 62
     7
 10
109.2523930396
 20
258.1542019335
 30
0.0
 11
110.5808203842
 21
259.4826255528
 31
0.0
  0
LINE
  5
A4
  8
0
  6
CONTINUOUS
 62
     7
 10
138.2525672938
 20
114.0917238382
 30
0.0
 11
140.0488827179
 21
114.0917238382
 31
0.0
  0
ARC
  5
A5
  8
0
  6
CONTINUOUS
 62
     7
 10
137.6810554674
 20
113.5613955291
 30
0.0
 40
0.7796642432188294
 50
42.8595211147
 51
222.8595211146
  0
LINE
  5
A6
  8
0
  6
CONTINUOUS
 62
     7
 10
137.1095439221
 20
89.0917253284
 30
0.0
 11
137.1095439221
 21
113.031066635
 31
0.0
  0
LINE
  5
A7
  8
0
  6
CONTINUOUS
 62
     7
 10
141.1095427151
 20
89.0917253284
 30
0.0
 11
137.1095439221
 21
89.0917253284
 31
0.0
  0
LINE
  5
A8
  8
0
  6
CONTINUOUS
 62
     7
 10
141.1095427151
 20
113.031066635
 30
0.0
 11
141.1095427151
 21
89.0917253284
 31
0.0
  0
ARC
  5
A9
  8
0
  6
CONTINUOUS
 62
     7
 10
140.5792130613
 20
113.5613955291
 30
0.0
 40
0.749999999999996
 50
315.0
 51
135.0000000001
  0
CIRCLE
  5
AA
  8
0
  6
CONTINUOUS
 62
     7
 10
122.3691722141
 20
146.5917256159
 30
0.0
 40
0.4999999997388187
  0
CIRCLE
  5
AB
  8
0
  6
CONTINUOUS
 62
     7
 10
82.3691722141
 20
146.5917256159
 30
0.0
 40
0.4999999997388187
  0
CIRCLE
  5
AC
  8
0
  6
CONTINUOUS
 62
     7
 10
94.7020575695
 20
306.9134247551
 30
0.0
 40
0.2499999999999289
  0
CIRCLE
  5
AD
  8
0
  6
CONTINUOUS
 62
     7
 10
112.3797270992
 20
289.2357552254
 30
0.0
 40
0.2499999999999289
  0
ARC
  5
AE
  8
0
  6
CONTINUOUS
 62
     7
 10
137.6398732331
 20
322.1220557009
 30
0.0
 40
0.7500000000000262
 50
135.0
 51
315.0
  0
LINE
  5
AF
  8
0
  6
CONTINUOUS
 62
     7
 10
140.0488827179
 20
321.5917382924
 30
0.0
 11
138.1702029879
 21
321.5917382924
 31
0.0
  0
ARC
  5
B0
  8
0
  6
CONTINUOUS
 62
     7
 10
140.5792130613
 20
322.1220557009
 30
0.0
 40
0.7500000000000463
 50
225.0000000001
 51
45.0
  0
LINE
  5
B1
  8
0
  6
CONTINUOUS
 62
     7
 10
141.1095427151
 20
345.5310795991
 30
0.0
 11
141.1095427151
 21
322.6523731438
 31
0.0
  0
ARC
  5
B2
  8
0
  6
CONTINUOUS
 62
     7
 10
140.5792130613
 20
346.0613955291
 30
0.0
 40
0.7500000000000061
 50
315.0000000001
 51
134.9999999999
  0
LINE
  5
B3
  8
0
  6
CONTINUOUS
 62
     7
 10
138.1702029879
 20
346.5917144505
 30
0.0
 11
140.0488827179
 21
346.5917144505
 31
0.0
  0
ARC
  5
B4
  8
0
  6
CONTINUOUS
 62
     7
 10
137.6398732331
 20
346.0613955291
 30
0.0
 40
0.7500000000010311
 50
44.9999999999
 51
225.0000000001
  0
LINE
  5
B5
  8
0
  6
CONTINUOUS
 62
     7
 10
137.1095439221
 20
322.6523731438
 30
0.0
 11
137.1095439221
 21
345.5310795991
 31
0.0
  0
ARC
  5
B6
  8
0
  6
CONTINUOUS
 62
     7
 10
137.6398732331
 20
227.0613955291
 30
0.0
 40
0.7499999999995036
 50
45.0
 51
225.0000000001
  0
LINE
  5
B7
  8
0
  6
CONTINUOUS
 62
     7
 10
137.1095439221
 20
203.6523853032
 30
0.0
 11
137.1095439221
 21
226.5310619561
 31
0.0
  0
ARC
  5
B8
  8
0
  6
CONTINUOUS
 62
     7
 10
137.6398732331
 20
203.1220557009
 30
0.0
 40
0.7500000000000463
 50
135.0
 51
315.0
  0
LINE
  5
B9
  8
0
  6
CONTINUOUS
 62
     7
 10
140.0488827179
 20
202.5917206494
 30
0.0
 11
138.1702029879
 21
202.5917206494
 31
0.0
  0
ARC
  5
BA
  8
0
  6
CONTINUOUS
 62
     7
 10
140.5792130613
 20
203.1220557009
 30
0.0
 40
0.7499999999999859
 50
225.0
 51
45.0
  0
LINE
  5
BB
  8
0
  6
CONTINUOUS
 62
     7
 10
141.1095427151
 20
226.5310619561
 30
0.0
 11
141.1095427151
 21
203.6523853032
 31
0.0
  0
ARC
  5
BC
  8
0
  6
CONTINUOUS
 62
     7
 10
140.5792130613
 20
227.0613955291
 30
0.0
 40
0.7500000000010109
 50
315.0000000001
 51
135.0
  0
LINE
  5
BD
  8
0
  6
CONTINUOUS
 62
     7
 10
138.1702029879
 20
227.5917266099
 30
0.0
 11
140.0488827179
 21
227.5917266099
 31
0.0
  0
ARC
  5
BE
  8
0
  6
CONTINUOUS
 62
     7
 10
32.8512668178
 20
191.4846310109
 30
0.0
 40
0.8585614222103966
 50
45.0
 51
225.0
  0
LINE
  5
BF
  8
0
  6
CONTINUOUS
 62
     7
 10
32.2441717411
 20
168.1523878662
 30
0.0
 11
32.2441717411
 21
190.8775304047
 31
0.0
  0
ARC
  5
C0
  8
0
  6
CONTINUOUS
 62
     7
 10
32.7745023
 20
167.6220557009
 30
0.0
 40
0.7500000000000212
 50
135.0
 51
315.0
  0
LINE
  5
C1
  8
0
  6
CONTINUOUS
 62
     7
 10
35.1835151936
 20
167.0917232124
 30
0.0
 11
33.3048289443
 21
167.0917232124
 31
0.0
  0
ARC
  5
C2
  8
0
  6
CONTINUOUS
 62
     7
 10
35.7138421282
 20
167.6220557009
 30
0.0
 40
0.7500000000000814
 50
225.0
 51
45.0
  0
LINE
  5
C3
  8
0
  6
CONTINUOUS
 62
     7
 10
36.2441723968
 20
191.0310719697
 30
0.0
 11
36.2441723968
 21
168.1523878662
 31
0.0
  0
ARC
  5
C4
  8
0
  6
CONTINUOUS
 62
     7
 10
35.7138421282
 20
191.5613955287
 30
0.0
 40
0.7499999999999809
 50
315.0
 51
135.0
  0
ARC
  5
C5
  8
0
  6
CONTINUOUS
 62
     7
 10
32.7745023
 20
84.6220557009
 30
0.0
 40
0.7499999999999508
 50
135.0
 51
315.0
  0
LINE
  5
C6
  8
0
  6
CONTINUOUS
 62
     7
 10
35.1835151936
 20
84.0917263714
 30
0.0
 11
33.3048289443
 21
84.0917263714
 31
0.0
  0
ARC
  5
C7
  8
0
  6
CONTINUOUS
 62
     7
 10
35.7138421282
 20
84.6220557009
 30
0.0
 40
0.7499999999999055
 50
225.0
 51
45.0
  0
LINE
  5
C8
  8
0
  6
CONTINUOUS
 62
     7
 10
36.2441723968
 20
108.0310639528
 30
0.0
 11
36.2441723968
 21
85.1523854373
 31
0.0
  0
ARC
  5
C9
  8
0
  6
CONTINUOUS
 62
     7
 10
35.7138421282
 20
108.5613955291
 30
0.0
 40
0.7499999999998855
 50
315.0
 51
135.0
  0
LINE
  5
CA
  8
0
  6
CONTINUOUS
 62
     7
 10
33.3048289443
 20
109.0917248813
 30
0.0
 11
35.1835151936
 21
109.0917248813
 31
0.0
  0
ARC
  5
CB
  8
0
  6
CONTINUOUS
 62
     7
 10
32.7745023
 20
108.5613955309
 30
0.0
 40
0.7499999987802578
 50
44.9999999068
 51
224.9999999068
  0
LINE
  5
CC
  8
0
  6
CONTINUOUS
 62
     7
 10
32.2441717411
 20
85.1523854373
 30
0.0
 11
32.2441717411
 21
108.0310639528
 31
0.0
  0
CIRCLE
  5
CD
  8
0
  6
CONTINUOUS
 62
     7
 10
251.2345431472
 20
177.9917687492
 30
0.0
 40
2.000000000000028
  0
ARC
  5
CE
  8
0
  6
CONTINUOUS
 62
     7
 10
63.7745023
 20
167.6220557009
 30
0.0
 40
0.7500000000003678
 50
135.0
 51
315.0
  0
LINE
  5
CF
  8
0
  6
CONTINUOUS
 62
     7
 10
66.1835109617
 20
167.0917232124
 30
0.0
 11
64.304832163
 21
167.0917232124
 31
0.0
  0
ARC
  5
D0
  8
0
  6
CONTINUOUS
 62
     7
 10
66.7138421282
 20
167.6220557009
 30
0.0
 40
0.7500000000000262
 50
225.0
 51
45.0
  0
LINE
  5
D1
  8
0
  6
CONTINUOUS
 62
     7
 10
67.2441756154
 20
190.8775304047
 30
0.0
 11
67.2441756154
 21
168.1523878662
 31
0.0
  0
ARC
  5
D2
  8
0
  6
CONTINUOUS
 62
     7
 10
66.6370776104
 20
191.4846310109
 30
0.0
 40
0.8585614222104367
 50
315.0
 51
135.0
  0
LINE
  5
D3
  8
0
  6
CONTINUOUS
 62
     7
 10
64.304832163
 20
192.0917217223
 30
0.0
 11
66.0299842979
 21
192.0917217223
 31
0.0
  0
ARC
  5
D4
  8
0
  6
CONTINUOUS
 62
     7
 10
63.7745023
 20
191.5613955287
 30
0.0
 40
0.7499999999999759
 50
45.0
 51
225.0
  0
LINE
  5
D5
  8
0
  6
CONTINUOUS
 62
     7
 10
63.2441749598
 20
168.1523878662
 30
0.0
 11
63.2441749598
 21
191.0310719697
 31
0.0
  0
ARC
  5
D6
  8
0
  6
CONTINUOUS
 62
     7
 10
66.7138421282
 20
108.5613955309
 30
0.0
 40
0.7499999987802979
 50
315.0000000932
 51
135.0000000932
  0
LINE
  5
D7
  8
0
  6
CONTINUOUS
 62
     7
 10
64.304832163
 20
109.0917248813
 30
0.0
 11
66.1835109617
 21
109.0917248813
 31
0.0
  0
ARC
  5
D8
  8
0
  6
CONTINUOUS
 62
     7
 10
63.7745023
 20
108.5613955291
 30
0.0
 40
0.7500000000001065
 50
45.0
 51
225.0
  0
LINE
  5
D9
  8
0
  6
CONTINUOUS
 62
     7
 10
63.2441749598
 20
85.1523854373
 30
0.0
 11
63.2441749598
 21
108.0310639528
 31
0.0
  0
ARC
  5
DA
  8
0
  6
CONTINUOUS
 62
     7
 10
63.7745023
 20
84.6220557009
 30
0.0
 40
0.7499999999999408
 50
135.0
 51
315.0
  0
LINE
  5
DB
  8
0
  6
CONTINUOUS
 62
     7
 10
66.1835109617
 20
84.0917263714
 30
0.0
 11
64.304832163
 21
84.0917263714
 31
0.0
  0
ARC
  5
DC
  8
0
  6
CONTINUOUS
 62
     7
 10
66.7138421282
 20
84.6220557009
 30
0.0
 40
0.7499999999999859
 50
225.0
 51
45.0
  0
LINE
  5
DD
  8
0
  6
CONTINUOUS
 62
     7
 10
67.2441756154
 20
108.0310639528
 30
0.0
 11
67.2441756154
 21
85.1523854373
 31
0.0
  0
CIRCLE
  5
DE
  8
0
  6
CONTINUOUS
 62
     7
 10
65.2441722141
 20
207.091725615
 30
0.0
 40
0.2500000000000426
  0
CIRCLE
  5
DF
  8
0
  6
CONTINUOUS
 62
     7
 10
34.2441722141
 20
207.091725615
 30
0.0
 40
0.25
  0
CIRCLE
  5
E0
  8
0
  6
CONTINUOUS
 62
     7
 10
151.1095431472
 20
363.7130459586
 30
0.0
 40
4.3125
  0
CIRCLE
  5
E1
  8
0
  6
CONTINUOUS
 62
     7
 10
139.1095431472
 20
124.091725615
 30
0.0
 40
0.2499999999999716
  0
CIRCLE
  5
E2
  8
0
  6
CONTINUOUS
 62
     7
 10
139.1095431472
 20
350.341725615
 30
0.0
 40
0.7749999999999773
  0
CIRCLE
  5
E3
  8
0
  6
CONTINUOUS
 62
     7
 10
139.1095431472
 20
73.7995610987
 30
0.0
 40
0.7750000000000057
  0
CIRCLE
  5
E4
  8
0
  6
CONTINUOUS
 62
     7
 10
139.1095431472
 20
53.091725615
 30
0.0
 40
0.7749999999999773
  0
ARC
  5
E5
  8
0
  6
CONTINUOUS
 62
     7
 10
151.6398732331
 20
167.5613955291
 30
0.0
 40
0.7499999999872845
 50
45.0000000014
 51
225.0000000014
  0
LINE
  5
E6
  8
0
  6
CONTINUOUS
 62
     7
 10
151.1095429572
 20
165.1523892371
 30
0.0
 11
151.1095429572
 21
167.0310680358
 31
0.0
  0
ARC
  5
E7
  8
0
  6
CONTINUOUS
 62
     7
 10
151.6398732331
 20
164.6220557009
 30
0.0
 40
0.7500000000010512
 50
134.9999999999
 51
315.0
  0
LINE
  5
E8
  8
0
  6
CONTINUOUS
 62
     7
 10
175.0488837982
 20
164.0917245833
 30
0.0
 11
152.17020342
 21
164.0917245833
 31
0.0
  0
ARC
  5
E9
  8
0
  6
CONTINUOUS
 62
     7
 10
175.5792130613
 20
164.6220557009
 30
0.0
 40
0.7500000000000463
 50
225.0
 51
45.0
  0
LINE
  5
EA
  8
0
  6
CONTINUOUS
 62
     7
 10
176.1095428641
 20
167.0310680358
 30
0.0
 11
176.1095428641
 21
165.1523892371
 31
0.0
  0
ARC
  5
EB
  8
0
  6
CONTINUOUS
 62
     7
 10
175.5792130613
 20
167.5613955291
 30
0.0
 40
0.7499999999998251
 50
314.9999999991
 51
135.0
  0
LINE
  5
EC
  8
0
  6
CONTINUOUS
 62
     7
 10
152.17020342
 20
168.091725239
 30
0.0
 11
175.0488837982
 21
168.091725239
 31
0.0
  0
ARC
  5
ED
  8
0
  6
CONTINUOUS
 62
     7
 10
241.6398732331
 20
167.5613955291
 30
0.0
 40
0.7500000000000061
 50
45.0
 51
225.0
  0
LINE
  5
EE
  8
0
  6
CONTINUOUS
 62
     7
 10
241.1095460678
 20
165.1523892371
 30
0.0
 11
241.1095460678
 21
167.0310680358
 31
0.0
  0
ARC
  5
EF
  8
0
  6
CONTINUOUS
 62
     7
 10
241.6398732331
 20
164.6220557009
 30
0.0
 40
0.7500000000000061
 50
135.0
 51
315.0
  0
LINE
  5
F0
  8
0
  6
CONTINUOUS
 62
     7
 10
265.0488799239
 20
164.0917245833
 30
0.0
 11
242.170203271
 21
164.0917245833
 31
0.0
  0
ARC
  5
F1
  8
0
  6
CONTINUOUS
 62
     7
 10
265.5792130613
 20
164.6220557009
 30
0.0
 40
0.7499999999999859
 50
225.0
 51
45.0
  0
LINE
  5
F2
  8
0
  6
CONTINUOUS
 62
     7
 10
266.1095445777
 20
167.0310680358
 30
0.0
 11
266.1095445777
 21
165.1523892371
 31
0.0
  0
ARC
  5
F3
  8
0
  6
CONTINUOUS
 62
     7
 10
265.5792130613
 20
167.5613955291
 30
0.0
 40
0.7499999999999659
 50
315.0
 51
135.0
  0
LINE
  5
F4
  8
0
  6
CONTINUOUS
 62
     7
 10
242.170203271
 20
168.091725239
 30
0.0
 11
265.0488799239
 21
168.091725239
 31
0.0
  0
CIRCLE
  5
F5
  8
0
  6
CONTINUOUS
 62
     7
 10
180.6095431472
 20
129.091725615
 30
0.0
 40
14.50000000000006
  0
CIRCLE
  5
F6
  8
0
  6
CONTINUOUS
 62
     7
 10
193.1095431472
 20
141.591725615
 30
0.0
 40
0.2500000000000568
  0
CIRCLE
  5
F7
  8
0
  6
CONTINUOUS
 62
     7
 10
168.1095431472
 20
141.591725615
 30
0.0
 40
0.25
  0
CIRCLE
  5
F8
  8
0
  6
CONTINUOUS
 62
     7
 10
168.1095431472
 20
116.591725615
 30
0.0
 40
0.25
  0
CIRCLE
  5
F9
  8
0
  6
CONTINUOUS
 62
     7
 10
193.1095431472
 20
116.591725615
 30
0.0
 40
0.2500000000000284
  0
ARC
  5
FA
  8
0
  6
CONTINUOUS
 62
     7
 10
203.4123115124
 20
98.5613955291
 30
0.0
 40
0.7500000000000262
 50
315.0
 51
135.0
  0
LINE
  5
FB
  8
0
  6
CONTINUOUS
 62
     7
 10
180.0033019657
 20
99.0917269675
 30
0.0
 11
202.8819804813
 21
99.0917269675
 31
0.0
  0
ARC
  5
FC
  8
0
  6
CONTINUOUS
 62
     7
 10
179.4729716842
 20
98.5613955291
 30
0.0
 40
0.7500000000117528
 50
44.9999999999
 51
224.9999999996
  0
LINE
  5
FD
  8
0
  6
CONTINUOUS
 62
     7
 10
178.9426410372
 20
96.1523872403
 30
0.0
 11
178.9426410372
 21
98.031066039
 31
0.0
  0
ARC
  5
FE
  8
0
  6
CONTINUOUS
 62
     7
 10
179.4729716842
 20
95.6220557009
 30
0.0
 40
0.749999999999996
 50
135.0
 51
315.0000000002
  0
LINE
  5
FF
  8
0
  6
CONTINUOUS
 62
     7
 10
202.8819804813
 20
95.0917263118
 30
0.0
 11
180.0033019657
 21
95.0917263118
 31
0.0
  0
ARC
  5
100
  8
0
  6
CONTINUOUS
 62
     7
 10
203.4123115124
 20
95.6220557009
 30
0.0
 40
0.7500000000006893
 50
224.9999999998
 51
44.9999999988
  0
LINE
  5
101
  8
0
  6
CONTINUOUS
 62
     7
 10
203.9426414098
 20
98.031066039
 30
0.0
 11
203.9426414098
 21
96.1523872403
 31
0.0
  0
ARC
  5
102
  8
0
  6
CONTINUOUS
 62
     7
 10
98.806774782
 20
95.6220557009
 30
0.0
 40
0.7499999999992927
 50
135.0000000012
 51
315.0000000002
  0
LINE
  5
103
  8
0
  6
CONTINUOUS
 62
     7
 10
122.21578488
 20
95.0917263118
 30
0.0
 11
99.3371045019
 21
95.0917263118
 31
0.0
  0
ARC
  5
104
  8
0
  6
CONTINUOUS
 62
     7
 10
122.7461146102
 20
95.6220557009
 30
0.0
 40
0.749999999999996
 50
224.9999999998
 51
45.0
  0
LINE
  5
105
  8
0
  6
CONTINUOUS
 62
     7
 10
123.2764458085
 20
98.031066039
 30
0.0
 11
123.2764458085
 21
96.1523872403
 31
0.0
  0
ARC
  5
106
  8
0
  6
CONTINUOUS
 62
     7
 10
122.7461146102
 20
98.5613955291
 30
0.0
 40
0.7500000000094015
 50
315.0000000004
 51
135.0000000001
  0
LINE
  5
107
  8
0
  6
CONTINUOUS
 62
     7
 10
99.3371045019
 20
99.0917269675
 30
0.0
 11
122.21578488
 21
99.0917269675
 31
0.0
  0
ARC
  5
108
  8
0
  6
CONTINUOUS
 62
     7
 10
98.806774782
 20
98.5613955291
 30
0.0
 40
0.749999999999996
 50
45.0
 51
225.0
  0
LINE
  5
109
  8
0
  6
CONTINUOUS
 62
     7
 10
98.2764435734
 20
96.1523872403
 30
0.0
 11
98.2764435734
 21
98.031066039
 31
0.0
  0
ARC
  5
10A
  8
0
  6
CONTINUOUS
 62
     7
 10
261.0045851785
 20
95.6220557009
 30
0.0
 40
0.7500000000000161
 50
225.0
 51
45.0
  0
LINE
  5
10B
  8
0
  6
CONTINUOUS
 62
     7
 10
261.5349178935
 20
98.031066039
 30
0.0
 11
261.5349178935
 21
96.1523872403
 31
0.0
  0
ARC
  5
10C
  8
0
  6
CONTINUOUS
 62
     7
 10
261.0045851785
 20
98.5613955291
 30
0.0
 40
0.7500000000000262
 50
315.0
 51
135.0
  0
LINE
  5
10D
  8
0
  6
CONTINUOUS
 62
     7
 10
257.5955724145
 20
99.0917269675
 30
0.0
 11
260.4742532398
 21
99.0917269675
 31
0.0
  0
ARC
  5
10E
  8
0
  6
CONTINUOUS
 62
     7
 10
257.0652453503
 20
98.5613955291
 30
0.0
 40
0.7500000000001769
 50
45.0000000003
 51
225.0000000034
  0
LINE
  5
10F
  8
0
  6
CONTINUOUS
 62
     7
 10
256.5349152113
 20
96.1523872403
 30
0.0
 11
256.5349152113
 21
98.031066039
 31
0.0
  0
ARC
  5
110
  8
0
  6
CONTINUOUS
 62
     7
 10
257.0652453504
 20
95.6220557009
 30
0.0
 40
0.7500000000000362
 50
135.0
 51
314.9999999994
  0
LINE
  5
111
  8
0
  6
CONTINUOUS
 62
     7
 10
260.4742532398
 20
95.0917263118
 30
0.0
 11
257.5955724145
 21
95.0917263118
 31
0.0
  0
ARC
  5
112
  8
0
  6
CONTINUOUS
 62
     7
 10
41.2145011159
 20
98.5613955291
 30
0.0
 40
0.7500000000000111
 50
45.0
 51
225.0
  0
LINE
  5
113
  8
0
  6
CONTINUOUS
 62
     7
 10
40.6841745402
 20
96.1523872403
 30
0.0
 11
40.6841745402
 21
98.031066039
 31
0.0
  0
ARC
  5
114
  8
0
  6
CONTINUOUS
 62
     7
 10
41.2145011159
 20
95.6220557009
 30
0.0
 40
0.750000000000001
 50
135.0
 51
315.0
  0
LINE
  5
115
  8
0
  6
CONTINUOUS
 62
     7
 10
44.6235125686
 20
95.0917263118
 30
0.0
 11
41.7448317434
 21
95.0917263118
 31
0.0
  0
ARC
  5
116
  8
0
  6
CONTINUOUS
 62
     7
 10
45.1538409441
 20
95.6220557009
 30
0.0
 40
0.7500000000000212
 50
225.0000000006
 51
45.0
  0
LINE
  5
117
  8
0
  6
CONTINUOUS
 62
     7
 10
45.6841697718
 20
98.031066039
 30
0.0
 11
45.6841697718
 21
96.1523872403
 31
0.0
  0
ARC
  5
118
  8
0
  6
CONTINUOUS
 62
     7
 10
45.1538409441
 20
98.5613955291
 30
0.0
 40
0.7500000000001769
 50
314.9999999966
 51
134.9999999997
  0
LINE
  5
119
  8
0
  6
CONTINUOUS
 62
     7
 10
41.7448317434
 20
99.0917269675
 30
0.0
 11
44.6235125686
 21
99.0917269675
 31
0.0
  0
CIRCLE
  5
11A
  8
0
  6
CONTINUOUS
 62
     7
 10
47.4936522141
 20
214.4307907278
 30
0.0
 40
2.000000000000007
  0
CIRCLE
  5
11B
  8
0
  6
CONTINUOUS
 62
     7
 10
208.6095431472
 20
166.091725615
 30
0.0
 40
0.7749999999999773
  0
CIRCLE
  5
11C
  8
0
  6
CONTINUOUS
 62
     7
 10
139.1095431472
 20
197.5560719928
 30
0.0
 40
0.7750000000000057
  0
CIRCLE
  5
11D
  8
0
  6
CONTINUOUS
 62
     7
 10
151.1095431472
 20
97.091725615
 30
0.0
 40
0.7749999999999773
  0
CIRCLE
  5
11E
  8
0
  6
CONTINUOUS
 62
     7
 10
230.2387784314
 20
97.091725615
 30
0.0
 40
0.7749999999999773
  0
ARC
  5
11F
  8
0
  6
CONTINUOUS
 62
     7
 10
218.8292130613
 20
116.5613955291
 30
0.0
 40
0.749999999999996
 50
315.0
 51
135.0
  0
LINE
  5
120
  8
0
  6
CONTINUOUS
 62
     7
 10
210.4202022578
 20
117.0917261926
 30
0.0
 11
218.2988857652
 21
117.0917261926
 31
0.0
  0
ARC
  5
121
  8
0
  6
CONTINUOUS
 62
     7
 10
209.8898732331
 20
116.5613955291
 30
0.0
 40
0.7499999999999759
 50
45.0
 51
225.0
  0
LINE
  5
122
  8
0
  6
CONTINUOUS
 62
     7
 10
209.3595413293
 20
114.1523864655
 30
0.0
 11
209.3595413293
 21
116.0310652641
 31
0.0
  0
ARC
  5
123
  8
0
  6
CONTINUOUS
 62
     7
 10
209.8898732331
 20
113.6220557009
 30
0.0
 40
0.7500000000000362
 50
135.0
 51
315.0
  0
LINE
  5
124
  8
0
  6
CONTINUOUS
 62
     7
 10
218.2988857652
 20
113.091725537
 30
0.0
 11
210.4202022578
 21
113.091725537
 31
0.0
  0
ARC
  5
125
  8
0
  6
CONTINUOUS
 62
     7
 10
218.8292130613
 20
113.6220557009
 30
0.0
 40
0.749999999999996
 50
225.0
 51
45.0
  0
LINE
  5
126
  8
0
  6
CONTINUOUS
 62
     7
 10
219.3595429684
 20
116.0310652641
 30
0.0
 11
219.3595429684
 21
114.1523864655
 31
0.0
  0
LINE
  5
127
  8
0
  6
CONTINUOUS
 62
     7
 10
33.4583630587
 20
192.0917217223
 30
0.0
 11
35.1835151936
 21
192.0917217223
 31
0.0
  0
LINE
  5
128
  8
0
  6
CONTINUOUS
 62
     7
 10
151.1095429572
 20
49.0917252911
 30
0.0
 11
137.1095439221
 21
49.0917252911
 31
0.0
  0
LINE
  5
129
  8
0
  6
CONTINUOUS
 62
     7
 10
247.109543326
 20
49.0917252911
 30
0.0
 11
226.1095454718
 21
49.0917252911
 31
0.0
  0
LINE
  5
12A
  8
0
  6
CONTINUOUS
 62
     7
 10
276.1095424916
 20
49.0917252911
 30
0.0
 11
272.1095418359
 21
49.0917252911
 31
0.0
  0
TEXT
  5
12B
  8
0
  6
CONTINUOUS
 62
     7
 10
0.0
 20
9.5222355241
 30
0.0
 40
5.1381
  1
Edition étudiante de SolidWorks.
 41
0.6671875
 11
0.0
 21
7.70715
 31
0.0
 73
     1
  0
TEXT
  5
12C
  8
0
  6
CONTINUOUS
 62
     7
 10
0.0
 20
1.8150855241
 30
0.0
 40
5.1381
  1
A usage universitaire uniquement.
 41
0.6681818182
 11
0.0
 21
0.0
 31
0.0
 73
     1
  0
ENDSEC
  0
EOF
