  0
SECTION
  2
HEADER
  9
$ACADVER
  1
AC1009
  9
$DWGCODEPAGE
  3
ansi_1252
  9
$INSBASE
 10
0.0
 20
0.0
 30
0.0
  9
$EXTMIN
 10
0.0
 20
0.0
 30
0.0
  9
$EXTMAX
 10
210.0
 20
297.0
 30
0.0
  9
$LIMMIN
 10
0.0
 20
0.0
  9
$LIMMAX
 10
210.0
 20
297.0
  9
$ORTHOMODE
 70
     0
  9
$REGENMODE
 70
     1
  9
$FILLMODE
 70
     1
  9
$QTEXTMODE
 70
     0
  9
$MIRRTEXT
 70
     1
  9
$DRAGMODE
 70
     2
  9
$LTSCALE
 40
1.0
  9
$OSMODE
 70
    37
  9
$ATTMODE
 70
     1
  9
$TEXTSIZE
 40
3.5
  9
$TRACEWID
 40
1.0
  9
$TEXTSTYLE
  7
STANDARD
  9
$CLAYER
  8
0
  9
$CELTYPE
  6
BYLAYER
  9
$CECOLOR
 62
   256
  9
$DIMSCALE
 40
1.0
  9
$DIMASZ
 40
3.302
  9
$DIMEXO
 40
1.0
  9
$DIMDLI
 40
3.75
  9
$DIMRND
 40
0.0
  9
$DIMDLE
 40
0.0
  9
$DIMEXE
 40
1.0
  9
$DIMTP
 40
0.0
  9
$DIMTM
 40
0.0
  9
$DIMTXT
 40
3.5
  9
$DIMCEN
 40
2.5
  9
$DIMTSZ
 40
0.0
  9
$DIMTOL
 70
     0
  9
$DIMLIM
 70
     0
  9
$DIMTIH
 70
     1
  9
$DIMTOH
 70
     1
  9
$DIMSE1
 70
     0
  9
$DIMSE2
 70
     0
  9
$DIMTAD
 70
     1
  9
$DIMZIN
 70
     0
  9
$DIMBLK
  1

  9
$DIMASO
 70
     1
  9
$DIMSHO
 70
     1
  9
$DIMPOST
  1

  9
$DIMAPOST
  1

  9
$DIMALT
 70
     0
  9
$DIMALTD
 70
     3
  9
$DIMALTF
 40
0.0393700787
  9
$DIMLFAC
 40
1.0
  9
$DIMTOFL
 70
     1
  9
$DIMTVP
 40
0.0
  9
$DIMTIX
 70
     0
  9
$DIMSOXD
 70
     0
  9
$DIMSAH
 70
     0
  9
$DIMBLK1
  1

  9
$DIMBLK2
  1

  9
$DIMSTYLE
  2
ISO-25
  9
$DIMCLRD
 70
     0
  9
$DIMCLRE
 70
     0
  9
$DIMCLRT
 70
     0
  9
$DIMTFAC
 40
1.0
  9
$DIMGAP
 40
1.524
  9
$LUNITS
 70
     2
  9
$LUPREC
 70
     2
  9
$SKETCHINC
 40
1.0
  9
$FILLETRAD
 40
10.0
  9
$AUNITS
 70
     0
  9
$AUPREC
 70
     2
  9
$MENU
  1
.
  9
$ELEVATION
 40
0.0
  9
$PELEVATION
 40
0.0
  9
$THICKNESS
 40
0.0
  9
$LIMCHECK
 70
     0
  9
$CHAMFERA
 40
10.0
  9
$CHAMFERB
 40
10.0
  9
$SKPOLY
 70
     0
  9
$TDCREATE
 40
2456455.313888021
  9
$TDUPDATE
 40
2456455.313888206
  9
$TDINDWG
 40
0.0000000116
  9
$TDUSRTIMER
 40
0.0000000116
  9
$USRTIMER
 70
     1
  9
$ANGBASE
 50
0.0
  9
$ANGDIR
 70
     0
  9
$PDMODE
 70
     0
  9
$PDSIZE
 40
-1.0
  9
$PLINEWID
 40
0.0
  9
$COORDS
 70
     1
  9
$SPLFRAME
 70
     0
  9
$SPLINETYPE
 70
     6
  9
$SPLINESEGS
 70
     8
  9
$ATTDIA
 70
     0
  9
$ATTREQ
 70
     1
  9
$HANDLING
 70
     1
  9
$HANDSEED
  5
B2
  9
$SURFTAB1
 70
     6
  9
$SURFTAB2
 70
     6
  9
$SURFTYPE
 70
     6
  9
$SURFU
 70
     6
  9
$SURFV
 70
     6
  9
$UCSNAME
  2

  9
$UCSORG
 10
0.0
 20
0.0
 30
0.0
  9
$UCSXDIR
 10
1.0
 20
0.0
 30
0.0
  9
$UCSYDIR
 10
0.0
 20
1.0
 30
0.0
  9
$PUCSNAME
  2

  9
$PUCSORG
 10
0.0
 20
0.0
 30
0.0
  9
$PUCSXDIR
 10
1.0
 20
0.0
 30
0.0
  9
$PUCSYDIR
 10
0.0
 20
1.0
 30
0.0
  9
$USERI1
 70
     0
  9
$USERI2
 70
     0
  9
$USERI3
 70
     0
  9
$USERI4
 70
     0
  9
$USERI5
 70
     0
  9
$USERR1
 40
0.0
  9
$USERR2
 40
0.0
  9
$USERR3
 40
0.0
  9
$USERR4
 40
0.0
  9
$USERR5
 40
0.0
  9
$WORLDVIEW
 70
     1
  9
$SHADEDGE
 70
     3
  9
$SHADEDIF
 70
    70
  9
$TILEMODE
 70
     1
  9
$MAXACTVP
 70
    64
  9
$PLIMCHECK
 70
     0
  9
$PEXTMIN
 10
1.0000000000E+20
 20
1.0000000000E+20
 30
1.0000000000E+20
  9
$PEXTMAX
 10
-1.0000000000E+20
 20
-1.0000000000E+20
 30
-1.0000000000E+20
  9
$PLIMMIN
 10
0.0
 20
0.0
  9
$PLIMMAX
 10
420.0
 20
297.0
  9
$UNITMODE
 70
     0
  9
$VISRETAIN
 70
     1
  9
$PLINEGEN
 70
     0
  9
$PSLTSCALE
 70
     1
  0
ENDSEC
  0
SECTION
  2
TABLES
  0
TABLE
  2
VPORT
 70
     1
  0
VPORT
  2
*ACTIVE
 70
     0
 10
0.0
 20
0.0
 11
1.0
 21
1.0
 12
105.0
 22
148.5
 13
0.0
 23
0.0
 14
10.0
 24
10.0
 15
10.0
 25
10.0
 16
0.0
 26
0.0
 36
1.0
 17
0.0
 27
0.0
 37
0.0
 40
297.0
 41
0.7070707071
 42
50.0
 43
0.0
 44
0.0
 50
0.0
 51
0.0
 71
     0
 72
  2000
 73
     1
 74
     3
 75
     0
 76
     0
 77
     0
 78
     0
  0
ENDTAB
  0
TABLE
  2
LTYPE
 70
     6
  0
LTYPE
  2
CONTINUOUS
 70
     0
  3
Solid line
 72
    65
 73
     0
 40
0.0
  0
LTYPE
  2
HIDDEN
 70
     0
  3
Hidden __ __ __ __ __ __ __ __ __ __ __ __ __ __
 72
    65
 73
     2
 40
1.905
 49
1.27
 49
-0.635
  0
LTYPE
  2
PHANTOM
 70
     0
  3
Phantom ______  __  __  ______  __  __  ______
 72
    65
 73
     6
 40
12.7
 49
6.35
 49
-1.27
 49
1.27
 49
-1.27
 49
1.27
 49
-1.27
  0
LTYPE
  2
CENTER
 70
     0
  3
Center ____ _ ____ _ ____ _ ____ _ ____ _ ____
 72
    65
 73
     4
 40
10.16
 49
6.35
 49
-1.27
 49
1.27
 49
-1.27
  0
LTYPE
  2
CENTERX2
 70
     0
  3
Center (2x) ________  __  ________  __  _____
 72
    65
 73
     4
 40
20.32
 49
12.7
 49
-2.54
 49
2.54
 49
-2.54
  0
LTYPE
  2
DOT2
 70
     0
  3
Dot (.5x) ........................................
 72
    65
 73
     2
 40
0.635
 49
0.0
 49
-0.635
  0
ENDTAB
  0
TABLE
  2
LAYER
 70
     1
  0
LAYER
  2
0
 70
     0
 62
     7
  6
CONTINUOUS
  0
ENDTAB
  0
TABLE
  2
STYLE
 70
     1
  0
STYLE
  2
STANDARD
 70
     0
 40
0.0
 41
1.0
 50
0.0
 71
     0
 42
3.5
  3
txt
  4

  0
ENDTAB
  0
TABLE
  2
VIEW
 70
     0
  0
ENDTAB
  0
TABLE
  2
UCS
 70
     0
  0
ENDTAB
  0
TABLE
  2
APPID
 70
     1
  0
APPID
  2
ACAD
 70
     0
  0
ENDTAB
  0
TABLE
  2
DIMSTYLE
 70
     1
  0
DIMSTYLE
  2
ISO-25
 70
     0
  3

  4

  5

  6

  7

 40
1.0
 41
2.5
 42
0.625
 43
3.75
 44
1.25
 45
0.0
 46
0.0
 47
0.0
 48
0.0
140
2.5
141
2.5
142
0.0
143
0.0393700787
144
1.0
145
0.0
146
1.0
147
0.625
 71
     0
 72
     0
 73
     0
 74
     0
 75
     0
 76
     0
 77
     1
 78
     8
170
     0
171
     3
172
     1
173
     0
174
     0
175
     0
176
     0
177
     0
178
     0
  0
ENDTAB
  0
ENDSEC
  0
SECTION
  2
BLOCKS
  0
BLOCK
  8
0
  2
$MODEL_SPACE
 70
     0
 10
0.0
 20
0.0
 30
0.0
  3
$MODEL_SPACE
  1

  0
ENDBLK
  5
21
  8
0
  0
BLOCK
 67
     1
  8
0
  2
$PAPER_SPACE
 70
     0
 10
0.0
 20
0.0
 30
0.0
  3
$PAPER_SPACE
  1

  0
ENDBLK
  5
1D
 67
     1
  8
0
  0
ENDSEC
  0
SECTION
  2
ENTITIES
  0
ARC
  5
44
  8
0
  6
CONTINUOUS
 62
     7
 10
93.5892157445
 20
214.3611254019
 30
0.0
 40
2.000000000000014
 50
90.0
 51
180.0
  0
ARC
  5
45
  8
0
  6
CONTINUOUS
 62
     7
 10
105.5892157445
 20
214.3611254019
 30
0.0
 40
2.0
 50
0.0
 51
90.0
  0
LINE
  5
46
  8
0
  6
CONTINUOUS
 62
     7
 10
107.5892157445
 20
205.3611254019
 30
0.0
 11
107.5892157445
 21
214.3611254019
 31
0.0
  0
LINE
  5
47
  8
0
  6
CONTINUOUS
 62
     7
 10
91.5892157445
 20
214.3611254019
 30
0.0
 11
91.5892157445
 21
205.3611254019
 31
0.0
  0
LINE
  5
48
  8
0
  6
CONTINUOUS
 62
     7
 10
91.5892157445
 20
205.3611254019
 30
0.0
 11
91.5892157445
 21
203.3611254019
 31
0.0
  0
LINE
  5
49
  8
0
  6
CONTINUOUS
 62
     7
 10
107.5892157445
 20
203.3611254019
 30
0.0
 11
107.5892157445
 21
205.3611254019
 31
0.0
  0
LINE
  5
4A
  8
0
  6
CONTINUOUS
 62
     7
 10
111.8892157445
 20
189.5111590739
 30
0.0
 11
115.3892157445
 21
191.5318850161
 31
0.0
  0
LINE
  5
4B
  8
0
  6
CONTINUOUS
 62
     7
 10
115.3892157445
 20
192.4904331318
 30
0.0
 11
111.8892157445
 21
194.5111590739
 31
0.0
  0
LINE
  5
4C
  8
0
  6
CONTINUOUS
 62
     7
 10
111.8892157445
 20
194.5111590739
 30
0.0
 11
110.3892157445
 21
194.5111590739
 31
0.0
  0
LINE
  5
4D
  8
0
  6
CONTINUOUS
 62
     7
 10
110.3892157445
 20
189.5111590739
 30
0.0
 11
111.8892157445
 21
189.5111590739
 31
0.0
  0
LINE
  5
4E
  8
0
  6
CONTINUOUS
 62
     7
 10
106.0885920072
 20
190.0111590739
 30
0.0
 11
110.3892157445
 21
190.0111590739
 31
0.0
  0
LINE
  5
4F
  8
0
  6
CONTINUOUS
 62
     7
 10
110.3892157445
 20
194.0111590739
 30
0.0
 11
106.2385920072
 21
194.0111590739
 31
0.0
  0
LINE
  5
50
  8
0
  6
CONTINUOUS
 62
     7
 10
94.0220264158
 20
216.3611254019
 30
0.0
 11
101.2284330609
 21
216.3611254019
 31
0.0
  0
LINE
  5
51
  8
0
  6
CONTINUOUS
 62
     7
 10
102.8768064128
 20
216.3611254019
 30
0.0
 11
105.5892157445
 21
216.3611254019
 31
0.0
  0
ARC
  5
52
  8
0
  6
CONTINUOUS
 62
     7
 10
104.6780146784
 20
214.4313957444
 30
0.0
 40
1.948135655041531
 50
9.7444450599
 51
74.7403766097
  0
LINE
  5
53
  8
0
  6
CONTINUOUS
 62
     7
 10
107.2109219669
 20
214.7611254019
 30
0.0
 11
106.598043554
 21
214.7611254019
 31
0.0
  0
ARC
  5
54
  8
0
  6
CONTINUOUS
 62
     7
 10
105.3104895677
 20
214.4491911936
 30
0.0
 40
1.925862470288779
 50
9.3213288564
 51
75.1634928131
  0
POLYLINE
  5
55
  8
0
  6
CONTINUOUS
 62
     7
 66
     1
 10
0.0
 20
0.0
 30
0.0
  0
VERTEX
  5
AA
  8
0
  6
CONTINUOUS
 62
     7
 10
105.803629258
 20
216.3108462369
 30
0.0
  0
VERTEX
  5
AB
  8
0
  6
CONTINUOUS
 62
     7
 10
105.4971900515
 20
216.3215710052
 30
0.0
  0
VERTEX
  5
AC
  8
0
  6
CONTINUOUS
 62
     7
 10
105.1907508451
 20
216.3108462369
 30
0.0
  0
SEQEND
  5
B1
  8
0
  6
CONTINUOUS
 62
     7
  0
ARC
  5
56
  8
0
  6
CONTINUOUS
 62
     7
 10
99.6001109631
 20
214.7894272407
 30
0.0
 40
2.277740135336472
 50
359.2880585371
 51
41.909124893
  0
LINE
  5
57
  8
0
  6
CONTINUOUS
 62
     7
 10
103.3561246991
 20
214.7611254019
 30
0.0
 11
101.8776752608
 21
214.7611254019
 31
0.0
  0
ARC
  5
58
  8
0
  6
CONTINUOUS
 62
     7
 10
101.3885353591
 20
214.9059304722
 30
0.0
 40
1.972910621236964
 50
355.7908956572
 51
45.406287773
  0
LINE
  5
59
  8
0
  6
CONTINUOUS
 62
     7
 10
102.7736664047
 20
216.3108462369
 30
0.0
 11
101.2952169663
 21
216.3108462369
 31
0.0
  0
ARC
  5
5A
  8
0
  6
CONTINUOUS
 62
     7
 10
98.0741714317
 20
214.7957974286
 30
0.0
 40
2.257679263298084
 50
137.8507095538
 51
180.8799473531
  0
LINE
  5
5B
  8
0
  6
CONTINUOUS
 62
     7
 10
97.2947232539
 20
214.7611254019
 30
0.0
 11
95.8167584198
 21
214.7611254019
 31
0.0
  0
ARC
  5
5C
  8
0
  6
CONTINUOUS
 62
     7
 10
99.2562156448
 20
214.9072310949
 30
0.0
 40
1.966926351666642
 50
134.4707327514
 51
184.2599241555
  0
POLYLINE
  5
5D
  8
0
  6
CONTINUOUS
 62
     7
 66
     1
 10
0.0
 20
0.0
 30
0.0
  0
VERTEX
  5
AD
  8
0
  6
CONTINUOUS
 62
     7
 10
97.8782955433
 20
216.3108462369
 30
0.0
  0
VERTEX
  5
AE
  8
0
  6
CONTINUOUS
 62
     7
 10
97.1393131263
 20
216.3215710052
 30
0.0
  0
VERTEX
  5
AF
  8
0
  6
CONTINUOUS
 62
     7
 10
96.4003307092
 20
216.3108462369
 30
0.0
  0
SEQEND
  5
B0
  8
0
  6
CONTINUOUS
 62
     7
  0
ARC
  5
5E
  8
0
  6
CONTINUOUS
 62
     7
 10
93.886904632
 20
214.4301713876
 30
0.0
 40
1.949505960346765
 50
105.2705222539
 51
170.2259593203
  0
LINE
  5
5F
  8
0
  6
CONTINUOUS
 62
     7
 10
92.5774043909
 20
214.7611254019
 30
0.0
 11
91.9656959161
 21
214.7611254019
 31
0.0
  0
ARC
  5
60
  8
0
  6
CONTINUOUS
 62
     7
 10
94.4781727417
 20
214.4487392535
 30
0.0
 40
1.926267226772765
 50
104.8294571121
 51
170.6670244621
  0
LINE
  5
61
  8
0
  6
CONTINUOUS
 62
     7
 10
93.9851585317
 20
216.3108462369
 30
0.0
 11
93.3734500569
 21
216.3108462369
 31
0.0
  0
LINE
  5
62
  8
0
  6
CONTINUOUS
 62
     7
 10
91.5892157445
 20
205.3611254019
 30
0.0
 11
107.5892157445
 21
205.3611254019
 31
0.0
  0
LINE
  5
63
  8
0
  6
CONTINUOUS
 62
     7
 10
96.1913012779
 20
215.3611254019
 30
0.0
 11
96.1913012779
 21
214.7611254019
 31
0.0
  0
LINE
  5
64
  8
0
  6
CONTINUOUS
 62
     7
 10
102.987130211
 20
215.3611254019
 30
0.0
 11
102.987130211
 21
214.7611254019
 31
0.0
  0
LINE
  5
65
  8
0
  6
CONTINUOUS
 62
     7
 10
96.1864586374
 20
214.7611254019
 30
0.0
 11
96.1864586374
 21
215.3611254019
 31
0.0
  0
LINE
  5
66
  8
0
  6
CONTINUOUS
 62
     7
 10
102.7736664047
 20
215.3611254019
 30
0.0
 11
102.7736664047
 21
216.3108462369
 31
0.0
  0
LINE
  5
67
  8
0
  6
CONTINUOUS
 62
     7
 10
102.987130211
 20
215.3611254019
 30
0.0
 11
102.7736664047
 21
215.3611254019
 31
0.0
  0
LINE
  5
68
  8
0
  6
CONTINUOUS
 62
     7
 10
96.4003307092
 20
215.3611254019
 30
0.0
 11
96.4003307092
 21
216.3108462369
 31
0.0
  0
LINE
  5
69
  8
0
  6
CONTINUOUS
 62
     7
 10
96.4003307092
 20
215.3611254019
 30
0.0
 11
96.1864586374
 21
215.3611254019
 31
0.0
  0
LINE
  5
6A
  8
0
  6
CONTINUOUS
 62
     7
 10
102.7736664047
 20
215.3611254019
 30
0.0
 11
101.7779765455
 21
215.3611254019
 31
0.0
  0
LINE
  5
6B
  8
0
  6
CONTINUOUS
 62
     7
 10
97.3939406132
 20
215.3611254019
 30
0.0
 11
96.4003307092
 21
215.3611254019
 31
0.0
  0
LINE
  5
6C
  8
0
  6
CONTINUOUS
 62
     7
 10
99.3268030749
 20
216.5611254019
 30
0.0
 11
99.3268030749
 21
216.3611254019
 31
0.0
  0
LINE
  5
6D
  8
0
  6
CONTINUOUS
 62
     7
 10
100.2366585143
 20
216.5611254019
 30
0.0
 11
100.2366585143
 21
216.3611254019
 31
0.0
  0
LINE
  5
6E
  8
0
  6
CONTINUOUS
 62
     7
 10
99.3268030749
 20
216.5611254019
 30
0.0
 11
100.2366585143
 21
216.5611254019
 31
0.0
  0
LINE
  5
6F
  8
0
  6
CONTINUOUS
 62
     7
 10
100.3582918886
 20
216.5611254019
 30
0.0
 11
100.3582918886
 21
216.3611254019
 31
0.0
  0
LINE
  5
70
  8
0
  6
CONTINUOUS
 62
     7
 10
100.2366585143
 20
216.5611254019
 30
0.0
 11
100.3582918886
 21
216.5611254019
 31
0.0
  0
LINE
  5
71
  8
0
  6
CONTINUOUS
 62
     7
 10
105.803629258
 20
215.9977443796
 30
0.0
 11
105.803629258
 21
216.3108462369
 31
0.0
  0
LINE
  5
72
  8
0
  6
CONTINUOUS
 62
     7
 10
93.3734500569
 20
216.0002940597
 30
0.0
 11
93.3734500569
 21
216.3108462369
 31
0.0
  0
LINE
  5
73
  8
0
  6
CONTINUOUS
 62
     7
 10
102.9817525325
 20
216.5611254019
 30
0.0
 11
102.9817525325
 21
216.3611254019
 31
0.0
  0
LINE
  5
74
  8
0
  6
CONTINUOUS
 62
     7
 10
104.142260719
 20
216.5611254019
 30
0.0
 11
104.142260719
 21
216.3611254019
 31
0.0
  0
LINE
  5
75
  8
0
  6
CONTINUOUS
 62
     7
 10
104.142260719
 20
216.5611254019
 30
0.0
 11
102.9817525325
 21
216.5611254019
 31
0.0
  0
LINE
  5
76
  8
0
  6
CONTINUOUS
 62
     7
 10
102.5015922549
 20
216.5611254019
 30
0.0
 11
102.5015922549
 21
216.3611254019
 31
0.0
  0
LINE
  5
77
  8
0
  6
CONTINUOUS
 62
     7
 10
102.9817525325
 20
216.5611254019
 30
0.0
 11
102.5015922549
 21
216.5611254019
 31
0.0
  0
LINE
  5
78
  8
0
  6
CONTINUOUS
 62
     7
 10
96.4516545279
 20
216.5611254019
 30
0.0
 11
96.4516545279
 21
216.3611254019
 31
0.0
  0
LINE
  5
79
  8
0
  6
CONTINUOUS
 62
     7
 10
96.5794431686
 20
216.5611254019
 30
0.0
 11
96.5794431686
 21
216.3611254019
 31
0.0
  0
LINE
  5
7A
  8
0
  6
CONTINUOUS
 62
     7
 10
96.4516545279
 20
216.5611254019
 30
0.0
 11
96.5794431686
 21
216.5611254019
 31
0.0
  0
LINE
  5
7B
  8
0
  6
CONTINUOUS
 62
     7
 10
96.1210296034
 20
216.5611254019
 30
0.0
 11
96.1210296034
 21
216.3611254019
 31
0.0
  0
LINE
  5
7C
  8
0
  6
CONTINUOUS
 62
     7
 10
96.1210296034
 20
216.5611254019
 30
0.0
 11
96.4516545279
 21
216.5611254019
 31
0.0
  0
LINE
  5
7D
  8
0
  6
CONTINUOUS
 62
     7
 10
96.8876072564
 20
216.5611254019
 30
0.0
 11
96.8876072564
 21
216.3611254019
 31
0.0
  0
LINE
  5
7E
  8
0
  6
CONTINUOUS
 62
     7
 10
96.5794431686
 20
216.5611254019
 30
0.0
 11
96.8876072564
 21
216.5611254019
 31
0.0
  0
LINE
  5
7F
  8
0
  6
CONTINUOUS
 62
     7
 10
97.0092406308
 20
216.5611254019
 30
0.0
 11
97.0092406308
 21
216.3611254019
 31
0.0
  0
LINE
  5
80
  8
0
  6
CONTINUOUS
 62
     7
 10
97.0092406308
 20
216.5611254019
 30
0.0
 11
96.8876072564
 21
216.5611254019
 31
0.0
  0
LINE
  5
81
  8
0
  6
CONTINUOUS
 62
     7
 10
95.9406541562
 20
216.5611254019
 30
0.0
 11
95.9406541562
 21
216.3611254019
 31
0.0
  0
LINE
  5
82
  8
0
  6
CONTINUOUS
 62
     7
 10
95.9406541562
 20
216.5611254019
 30
0.0
 11
96.1210296034
 21
216.5611254019
 31
0.0
  0
LINE
  5
83
  8
0
  6
CONTINUOUS
 62
     7
 10
101.0099701854
 20
216.5611254019
 30
0.0
 11
101.0099701854
 21
216.3611254019
 31
0.0
  0
LINE
  5
84
  8
0
  6
CONTINUOUS
 62
     7
 10
102.5015922549
 20
216.5611254019
 30
0.0
 11
101.0099701854
 21
216.5611254019
 31
0.0
  0
LINE
  5
85
  8
0
  6
CONTINUOUS
 62
     7
 10
97.0092406308
 20
216.5611254019
 30
0.0
 11
99.3268030749
 21
216.5611254019
 31
0.0
  0
LINE
  5
86
  8
0
  6
CONTINUOUS
 62
     7
 10
100.3582918886
 20
216.5611254019
 30
0.0
 11
101.0099701854
 21
216.5611254019
 31
0.0
  0
LINE
  5
87
  8
0
  6
CONTINUOUS
 62
     7
 10
95.5990515669
 20
216.5611254019
 30
0.0
 11
95.5990515669
 21
216.3611254019
 31
0.0
  0
LINE
  5
88
  8
0
  6
CONTINUOUS
 62
     7
 10
95.5990515669
 20
216.5611254019
 30
0.0
 11
95.9406541562
 21
216.5611254019
 31
0.0
  0
LINE
  5
89
  8
0
  6
CONTINUOUS
 62
     7
 10
95.1188912893
 20
216.5611254019
 30
0.0
 11
95.1188912893
 21
216.3611254019
 31
0.0
  0
LINE
  5
8A
  8
0
  6
CONTINUOUS
 62
     7
 10
95.1188912893
 20
216.5611254019
 30
0.0
 11
95.5990515669
 21
216.5611254019
 31
0.0
  0
LINE
  5
8B
  8
0
  6
CONTINUOUS
 62
     7
 10
99.5892157445
 20
203.3611254019
 30
0.0
 11
91.5892157445
 21
203.3611254019
 31
0.0
  0
LINE
  5
8C
  8
0
  6
CONTINUOUS
 62
     7
 10
107.5892157445
 20
203.3611254019
 30
0.0
 11
99.5892157445
 21
203.3611254019
 31
0.0
  0
LINE
  5
8D
  8
0
  6
CONTINUOUS
 62
     7
 10
99.5892157445
 20
205.3611254019
 30
0.0
 11
91.5892157445
 21
205.3611254019
 31
0.0
  0
LINE
  5
8E
  8
0
  6
CONTINUOUS
 62
     7
 10
107.5892157445
 20
205.3611254019
 30
0.0
 11
99.5892157445
 21
205.3611254019
 31
0.0
  0
LINE
  5
8F
  8
0
  6
CONTINUOUS
 62
     7
 10
100.3892157445
 20
203.3611254019
 30
0.0
 11
100.3892157445
 21
123.3611254019
 31
0.0
  0
LINE
  5
90
  8
0
  6
CONTINUOUS
 62
     7
 10
100.3892157445
 20
123.3611254019
 30
0.0
 11
98.7892157445
 21
123.3611254019
 31
0.0
  0
LINE
  5
91
  8
0
  6
CONTINUOUS
 62
     7
 10
98.7892157445
 20
203.3611254019
 30
0.0
 11
98.7892157445
 21
123.3611254019
 31
0.0
  0
LINE
  5
92
  8
0
  6
CONTINUOUS
 62
     7
 10
98.7892157445
 20
83.3611254019
 30
0.0
 11
100.3892157445
 21
83.3611254019
 31
0.0
  0
LINE
  5
93
  8
0
  6
CONTINUOUS
 62
     7
 10
98.7892157445
 20
123.3611254019
 30
0.0
 11
98.7892157445
 21
83.3611254019
 31
0.0
  0
LINE
  5
94
  8
0
  6
CONTINUOUS
 62
     7
 10
100.3892157445
 20
123.3611254019
 30
0.0
 11
100.3892157445
 21
83.3611254019
 31
0.0
  0
LINE
  5
95
  8
0
  6
CONTINUOUS
 62
     7
 10
101.9178513481
 20
191.3611254019
 30
0.0
 11
100.3892157445
 21
191.3611254019
 31
0.0
  0
LINE
  5
96
  8
0
  6
CONTINUOUS
 62
     7
 10
102.4805822034
 20
203.3611254019
 30
0.0
 11
102.4805822034
 21
193.8441893519
 31
0.0
  0
ARC
  5
97
  8
0
  6
CONTINUOUS
 62
     7
 10
104.9463875349
 20
191.980072626
 30
0.0
 40
3.091136862187808
 50
142.9111941492
 51
191.5505773138
  0
LINE
  5
98
  8
0
  6
CONTINUOUS
 62
     7
 10
96.6978492855
 20
191.3611254019
 30
0.0
 11
96.6978492855
 21
203.3611254019
 31
0.0
  0
LINE
  5
99
  8
0
  6
CONTINUOUS
 62
     7
 10
98.7892157445
 20
191.3611254019
 30
0.0
 11
96.6978492855
 21
191.3611254019
 31
0.0
  0
LINE
  5
9A
  8
0
  6
CONTINUOUS
 62
     7
 10
115.3892157445
 20
192.0111590739
 30
0.0
 11
115.3892157445
 21
191.5318850161
 31
0.0
  0
LINE
  5
9B
  8
0
  6
CONTINUOUS
 62
     7
 10
115.3892157445
 20
192.4904331318
 30
0.0
 11
115.3892157445
 21
192.0111590739
 31
0.0
  0
LINE
  5
9C
  8
0
  6
CONTINUOUS
 62
     7
 10
111.8892157445
 20
192.0111590739
 30
0.0
 11
111.8892157445
 21
194.5111590739
 31
0.0
  0
LINE
  5
9D
  8
0
  6
CONTINUOUS
 62
     7
 10
111.8892157445
 20
189.5111590739
 30
0.0
 11
111.8892157445
 21
192.0111590739
 31
0.0
  0
LINE
  5
9E
  8
0
  6
CONTINUOUS
 62
     7
 10
110.3892157445
 20
192.0111590739
 30
0.0
 11
110.3892157445
 21
189.5111590739
 31
0.0
  0
LINE
  5
9F
  8
0
  6
CONTINUOUS
 62
     7
 10
110.3892157445
 20
194.5111590739
 30
0.0
 11
110.3892157445
 21
192.0111590739
 31
0.0
  0
LINE
  5
A0
  8
0
  6
CONTINUOUS
 62
     7
 10
100.3892157445
 20
190.1781287959
 30
0.0
 11
106.0948533717
 21
190.1781287959
 31
0.0
  0
LINE
  5
A1
  8
0
  6
CONTINUOUS
 62
     7
 10
106.2323306426
 20
193.8441893519
 30
0.0
 11
102.4805822034
 21
193.8441893519
 31
0.0
  0
LINE
  5
A2
  8
0
  6
CONTINUOUS
 62
     7
 10
103.5892157445
 20
123.3611254019
 30
0.0
 11
106.0948533717
 21
190.1781287959
 31
0.0
  0
LINE
  5
A3
  8
0
  6
CONTINUOUS
 62
     7
 10
100.3892157445
 20
83.3611254019
 30
0.0
 11
103.5892157445
 21
123.3611254019
 31
0.0
  0
LINE
  5
A4
  8
0
  6
CONTINUOUS
 62
     7
 10
106.2323306426
 20
193.8441893519
 30
0.0
 11
106.5892157445
 21
203.3611254019
 31
0.0
  0
LINE
  5
A5
  8
0
  6
CONTINUOUS
 62
     7
 10
95.5892157445
 20
123.3611254019
 30
0.0
 11
98.7892157445
 21
83.3611254019
 31
0.0
  0
LINE
  5
A6
  8
0
  6
CONTINUOUS
 62
     7
 10
92.5892157445
 20
203.3611254019
 30
0.0
 11
95.5892157445
 21
123.3611254019
 31
0.0
  0
LINE
  5
A7
  8
0
  6
CONTINUOUS
 62
     8
 10
107.5892157445
 20
214.3611254019
 30
0.0
 11
91.5892157445
 21
214.3611254019
 31
0.0
  0
TEXT
  5
A8
  8
0
  6
CONTINUOUS
 62
     7
 10
0.0
 20
6.732893805
 30
0.0
 40
3.633
  1
Edition étudiante de SolidWorks.
 41
0.6671875
 11
0.0
 21
5.4495
 31
0.0
 73
     1
  0
TEXT
  5
A9
  8
0
  6
CONTINUOUS
 62
     7
 10
0.0
 20
1.283393805
 30
0.0
 40
3.633
  1
A usage universitaire uniquement.
 41
0.6681818182
 11
0.0
 21
0.0
 31
0.0
 73
     1
  0
ENDSEC
  0
EOF
