  0
SECTION
  2
HEADER
  9
$ACADVER
  1
AC1009
  9
$DWGCODEPAGE
  3
ansi_1252
  9
$INSBASE
 10
0.0
 20
0.0
 30
0.0
  9
$EXTMIN
 10
0.0
 20
0.0
 30
0.0
  9
$EXTMAX
 10
210.0
 20
297.0
 30
0.0
  9
$LIMMIN
 10
0.0
 20
0.0
  9
$LIMMAX
 10
210.0
 20
297.0
  9
$ORTHOMODE
 70
     0
  9
$REGENMODE
 70
     1
  9
$FILLMODE
 70
     1
  9
$QTEXTMODE
 70
     0
  9
$MIRRTEXT
 70
     1
  9
$DRAGMODE
 70
     2
  9
$LTSCALE
 40
1.0
  9
$OSMODE
 70
    37
  9
$ATTMODE
 70
     1
  9
$TEXTSIZE
 40
3.5
  9
$TRACEWID
 40
1.0
  9
$TEXTSTYLE
  7
STANDARD
  9
$CLAYER
  8
0
  9
$CELTYPE
  6
BYLAYER
  9
$CECOLOR
 62
   256
  9
$DIMSCALE
 40
1.0
  9
$DIMASZ
 40
3.302
  9
$DIMEXO
 40
1.0
  9
$DIMDLI
 40
3.75
  9
$DIMRND
 40
0.0
  9
$DIMDLE
 40
0.0
  9
$DIMEXE
 40
1.0
  9
$DIMTP
 40
0.0
  9
$DIMTM
 40
0.0
  9
$DIMTXT
 40
3.5
  9
$DIMCEN
 40
2.5
  9
$DIMTSZ
 40
0.0
  9
$DIMTOL
 70
     0
  9
$DIMLIM
 70
     0
  9
$DIMTIH
 70
     1
  9
$DIMTOH
 70
     1
  9
$DIMSE1
 70
     0
  9
$DIMSE2
 70
     0
  9
$DIMTAD
 70
     1
  9
$DIMZIN
 70
     0
  9
$DIMBLK
  1

  9
$DIMASO
 70
     1
  9
$DIMSHO
 70
     1
  9
$DIMPOST
  1

  9
$DIMAPOST
  1

  9
$DIMALT
 70
     0
  9
$DIMALTD
 70
     3
  9
$DIMALTF
 40
0.0393700787
  9
$DIMLFAC
 40
0.5
  9
$DIMTOFL
 70
     1
  9
$DIMTVP
 40
0.0
  9
$DIMTIX
 70
     0
  9
$DIMSOXD
 70
     0
  9
$DIMSAH
 70
     0
  9
$DIMBLK1
  1

  9
$DIMBLK2
  1

  9
$DIMSTYLE
  2
ISO-25
  9
$DIMCLRD
 70
     0
  9
$DIMCLRE
 70
     0
  9
$DIMCLRT
 70
     0
  9
$DIMTFAC
 40
1.0
  9
$DIMGAP
 40
1.524
  9
$LUNITS
 70
     2
  9
$LUPREC
 70
     2
  9
$SKETCHINC
 40
1.0
  9
$FILLETRAD
 40
10.0
  9
$AUNITS
 70
     0
  9
$AUPREC
 70
     2
  9
$MENU
  1
.
  9
$ELEVATION
 40
0.0
  9
$PELEVATION
 40
0.0
  9
$THICKNESS
 40
0.0
  9
$LIMCHECK
 70
     0
  9
$CHAMFERA
 40
10.0
  9
$CHAMFERB
 40
10.0
  9
$SKPOLY
 70
     0
  9
$TDCREATE
 40
2456430.6194
  9
$TDUPDATE
 40
2456430.6194
  9
$TDINDWG
 40
0.0000000116
  9
$TDUSRTIMER
 40
0.0000000116
  9
$USRTIMER
 70
     1
  9
$ANGBASE
 50
0.0
  9
$ANGDIR
 70
     0
  9
$PDMODE
 70
     0
  9
$PDSIZE
 40
-1.0
  9
$PLINEWID
 40
0.0
  9
$COORDS
 70
     1
  9
$SPLFRAME
 70
     0
  9
$SPLINETYPE
 70
     6
  9
$SPLINESEGS
 70
     8
  9
$ATTDIA
 70
     0
  9
$ATTREQ
 70
     1
  9
$HANDLING
 70
     1
  9
$HANDSEED
  5
2BA
  9
$SURFTAB1
 70
     6
  9
$SURFTAB2
 70
     6
  9
$SURFTYPE
 70
     6
  9
$SURFU
 70
     6
  9
$SURFV
 70
     6
  9
$UCSNAME
  2

  9
$UCSORG
 10
0.0
 20
0.0
 30
0.0
  9
$UCSXDIR
 10
1.0
 20
0.0
 30
0.0
  9
$UCSYDIR
 10
0.0
 20
1.0
 30
0.0
  9
$PUCSNAME
  2

  9
$PUCSORG
 10
0.0
 20
0.0
 30
0.0
  9
$PUCSXDIR
 10
1.0
 20
0.0
 30
0.0
  9
$PUCSYDIR
 10
0.0
 20
1.0
 30
0.0
  9
$USERI1
 70
     0
  9
$USERI2
 70
     0
  9
$USERI3
 70
     0
  9
$USERI4
 70
     0
  9
$USERI5
 70
     0
  9
$USERR1
 40
0.0
  9
$USERR2
 40
0.0
  9
$USERR3
 40
0.0
  9
$USERR4
 40
0.0
  9
$USERR5
 40
0.0
  9
$WORLDVIEW
 70
     1
  9
$SHADEDGE
 70
     3
  9
$SHADEDIF
 70
    70
  9
$TILEMODE
 70
     1
  9
$MAXACTVP
 70
    64
  9
$PLIMCHECK
 70
     0
  9
$PEXTMIN
 10
1.0000000000E+20
 20
1.0000000000E+20
 30
1.0000000000E+20
  9
$PEXTMAX
 10
-1.0000000000E+20
 20
-1.0000000000E+20
 30
-1.0000000000E+20
  9
$PLIMMIN
 10
0.0
 20
0.0
  9
$PLIMMAX
 10
420.0
 20
297.0
  9
$UNITMODE
 70
     0
  9
$VISRETAIN
 70
     1
  9
$PLINEGEN
 70
     0
  9
$PSLTSCALE
 70
     1
  0
ENDSEC
  0
SECTION
  2
TABLES
  0
TABLE
  2
VPORT
 70
     1
  0
VPORT
  2
*ACTIVE
 70
     0
 10
0.0
 20
0.0
 11
1.0
 21
1.0
 12
105.0
 22
148.5
 13
0.0
 23
0.0
 14
10.0
 24
10.0
 15
10.0
 25
10.0
 16
0.0
 26
0.0
 36
1.0
 17
0.0
 27
0.0
 37
0.0
 40
297.0
 41
0.7070707071
 42
50.0
 43
0.0
 44
0.0
 50
0.0
 51
0.0
 71
     0
 72
  2000
 73
     1
 74
     3
 75
     0
 76
     0
 77
     0
 78
     0
  0
ENDTAB
  0
TABLE
  2
LTYPE
 70
     6
  0
LTYPE
  2
CONTINUOUS
 70
     0
  3
Solid line
 72
    65
 73
     0
 40
0.0
  0
LTYPE
  2
HIDDEN
 70
     0
  3
Hidden __ __ __ __ __ __ __ __ __ __ __ __ __ __
 72
    65
 73
     2
 40
1.905
 49
1.27
 49
-0.635
  0
LTYPE
  2
PHANTOM
 70
     0
  3
Phantom ______  __  __  ______  __  __  ______
 72
    65
 73
     6
 40
12.7
 49
6.35
 49
-1.27
 49
1.27
 49
-1.27
 49
1.27
 49
-1.27
  0
LTYPE
  2
CENTER
 70
     0
  3
Center ____ _ ____ _ ____ _ ____ _ ____ _ ____
 72
    65
 73
     4
 40
10.16
 49
6.35
 49
-1.27
 49
1.27
 49
-1.27
  0
LTYPE
  2
CENTERX2
 70
     0
  3
Center (2x) ________  __  ________  __  _____
 72
    65
 73
     4
 40
20.32
 49
12.7
 49
-2.54
 49
2.54
 49
-2.54
  0
LTYPE
  2
DOT2
 70
     0
  3
Dot (.5x) ........................................
 72
    65
 73
     2
 40
0.635
 49
0.0
 49
-0.635
  0
ENDTAB
  0
TABLE
  2
LAYER
 70
     1
  0
LAYER
  2
0
 70
     0
 62
     7
  6
CONTINUOUS
  0
ENDTAB
  0
TABLE
  2
STYLE
 70
     1
  0
STYLE
  2
STANDARD
 70
     0
 40
0.0
 41
1.0
 50
0.0
 71
     0
 42
3.5
  3
txt
  4

  0
ENDTAB
  0
TABLE
  2
VIEW
 70
     0
  0
ENDTAB
  0
TABLE
  2
UCS
 70
     0
  0
ENDTAB
  0
TABLE
  2
APPID
 70
     1
  0
APPID
  2
ACAD
 70
     0
  0
ENDTAB
  0
TABLE
  2
DIMSTYLE
 70
     1
  0
DIMSTYLE
  2
ISO-25
 70
     0
  3

  4

  5

  6

  7

 40
1.0
 41
2.5
 42
0.625
 43
3.75
 44
1.25
 45
0.0
 46
0.0
 47
0.0
 48
0.0
140
2.5
141
2.5
142
0.0
143
0.0393700787
144
1.0
145
0.0
146
1.0
147
0.625
 71
     0
 72
     0
 73
     0
 74
     0
 75
     0
 76
     0
 77
     1
 78
     8
170
     0
171
     3
172
     1
173
     0
174
     0
175
     0
176
     0
177
     0
178
     0
  0
ENDTAB
  0
ENDSEC
  0
SECTION
  2
BLOCKS
  0
BLOCK
  8
0
  2
$MODEL_SPACE
 70
     0
 10
0.0
 20
0.0
 30
0.0
  3
$MODEL_SPACE
  1

  0
ENDBLK
  5
21
  8
0
  0
BLOCK
 67
     1
  8
0
  2
$PAPER_SPACE
 70
     0
 10
0.0
 20
0.0
 30
0.0
  3
$PAPER_SPACE
  1

  0
ENDBLK
  5
1D
 67
     1
  8
0
  0
ENDSEC
  0
SECTION
  2
ENTITIES
  0
LINE
  5
44
  8
0
  6
CONTINUOUS
 62
     7
 10
93.233945896
 20
147.3858943283
 30
0.0
 11
93.5790944055
 21
141.4070827019
 31
0.0
  0
LINE
  5
45
  8
0
  6
CONTINUOUS
 62
     7
 10
118.6937673308
 20
141.4070827019
 30
0.0
 11
119.0389158403
 21
147.3858943283
 31
0.0
  0
LINE
  5
46
  8
0
  6
CONTINUOUS
 62
     7
 10
109.373176906
 20
145.0723723892
 30
0.0
 11
109.3348912531
 21
142.4560530092
 31
0.0
  0
LINE
  5
47
  8
0
  6
CONTINUOUS
 62
     7
 10
102.660342962
 20
148.048632184
 30
0.0
 11
102.72991465
 21
143.5621091612
 31
0.0
  0
LINE
  5
48
  8
0
  6
CONTINUOUS
 62
     7
 10
109.596860238
 20
147.0388480938
 30
0.0
 11
109.6125187743
 21
148.048632184
 31
0.0
  0
LINE
  5
49
  8
0
  6
CONTINUOUS
 62
     7
 10
103.1698775916
 20
150.0957076953
 30
0.0
 11
103.1584902558
 21
150.9640402053
 31
0.0
  0
POLYLINE
  5
4A
  8
0
  6
CONTINUOUS
 62
     7
 66
     1
 10
0.0
 20
0.0
 30
0.0
  0
VERTEX
  5
7B
  8
0
  6
CONTINUOUS
 62
     7
 10
96.9759992357
 20
151.9363001465
 30
0.0
  0
VERTEX
  5
7C
  8
0
  6
CONTINUOUS
 62
     7
 10
96.5993504282
 20
151.7457312728
 30
0.0
  0
VERTEX
  5
7D
  8
0
  6
CONTINUOUS
 62
     7
 10
96.2387730795
 20
151.5470727035
 30
0.0
  0
VERTEX
  5
7E
  8
0
  6
CONTINUOUS
 62
     7
 10
95.8950298074
 20
151.3405936987
 30
0.0
  0
VERTEX
  5
7F
  8
0
  6
CONTINUOUS
 62
     7
 10
95.5688726223
 20
151.1265804607
 30
0.0
  0
VERTEX
  5
80
  8
0
  6
CONTINUOUS
 62
     7
 10
95.2610413428
 20
150.9053365018
 30
0.0
  0
VERTEX
  5
81
  8
0
  6
CONTINUOUS
 62
     7
 10
94.9722618757
 20
150.6771829864
 30
0.0
  0
VERTEX
  5
82
  8
0
  6
CONTINUOUS
 62
     7
 10
94.7032443583
 20
150.4424590395
 30
0.0
  0
VERTEX
  5
83
  8
0
  6
CONTINUOUS
 62
     7
 10
94.4546811643
 20
150.2015220152
 30
0.0
  0
VERTEX
  5
84
  8
0
  6
CONTINUOUS
 62
     7
 10
94.2272447726
 20
149.9547477173
 30
0.0
  0
VERTEX
  5
85
  8
0
  6
CONTINUOUS
 62
     7
 10
94.0215855024
 20
149.7025305659
 30
0.0
  0
VERTEX
  5
86
  8
0
  6
CONTINUOUS
 62
     7
 10
93.8383291189
 20
149.4452837003
 30
0.0
  0
VERTEX
  5
87
  8
0
  6
CONTINUOUS
 62
     7
 10
93.6780743127
 20
149.1834390118
 30
0.0
  0
VERTEX
  5
88
  8
0
  6
CONTINUOUS
 62
     7
 10
93.5413900629
 20
148.9174470978
 30
0.0
  0
VERTEX
  5
89
  8
0
  6
CONTINUOUS
 62
     7
 10
93.42881289
 20
148.6477771289
 30
0.0
  0
VERTEX
  5
8A
  8
0
  6
CONTINUOUS
 62
     7
 10
93.3408440117
 20
148.3749166217
 30
0.0
  0
VERTEX
  5
8B
  8
0
  6
CONTINUOUS
 62
     7
 10
93.2779464123
 20
148.0993711084
 30
0.0
  0
VERTEX
  5
8C
  8
0
  6
CONTINUOUS
 62
     7
 10
93.2405418425
 20
147.821663696
 30
0.0
  0
VERTEX
  5
8D
  8
0
  6
CONTINUOUS
 62
     7
 10
93.2290077646
 20
147.5423345086
 30
0.0
  0
VERTEX
  5
8E
  8
0
  6
CONTINUOUS
 62
     7
 10
93.2436742637
 20
147.2619400044
 30
0.0
  0
VERTEX
  5
8F
  8
0
  6
CONTINUOUS
 62
     7
 10
93.2848209451
 20
146.9810521622
 30
0.0
  0
VERTEX
  5
90
  8
0
  6
CONTINUOUS
 62
     7
 10
93.3526738421
 20
146.7002575323
 30
0.0
  0
VERTEX
  5
91
  8
0
  6
CONTINUOUS
 62
     7
 10
93.4474023589
 20
146.4201561459
 30
0.0
  0
VERTEX
  5
92
  8
0
  6
CONTINUOUS
 62
     7
 10
93.5691162752
 20
146.1413602811
 30
0.0
  0
VERTEX
  5
93
  8
0
  6
CONTINUOUS
 62
     7
 10
93.7178628438
 20
145.8644930813
 30
0.0
  0
VERTEX
  5
94
  8
0
  6
CONTINUOUS
 62
     7
 10
93.8936240087
 20
145.5901870274
 30
0.0
  0
VERTEX
  5
95
  8
0
  6
CONTINUOUS
 62
     7
 10
94.0963137778
 20
145.3190822615
 30
0.0
  0
VERTEX
  5
96
  8
0
  6
CONTINUOUS
 62
     7
 10
94.3257757821
 20
145.0518247665
 30
0.0
  0
VERTEX
  5
97
  8
0
  6
CONTINUOUS
 62
     7
 10
94.5817810545
 20
144.7890644043
 30
0.0
  0
VERTEX
  5
98
  8
0
  6
CONTINUOUS
 62
     7
 10
94.8640260627
 20
144.5314528178
 30
0.0
  0
VERTEX
  5
99
  8
0
  6
CONTINUOUS
 62
     7
 10
95.1721310297
 20
144.2796412053
 30
0.0
  0
VERTEX
  5
9A
  8
0
  6
CONTINUOUS
 62
     7
 10
95.5056385731
 20
144.0342779758
 30
0.0
  0
VERTEX
  5
9B
  8
0
  6
CONTINUOUS
 62
     7
 10
95.8640126978
 20
143.796006297
 30
0.0
  0
VERTEX
  5
9C
  8
0
  6
CONTINUOUS
 62
     7
 10
96.2466381691
 20
143.5654615489
 30
0.0
  0
VERTEX
  5
9D
  8
0
  6
CONTINUOUS
 62
     7
 10
96.6528202964
 20
143.3432686992
 30
0.0
  0
VERTEX
  5
9E
  8
0
  6
CONTINUOUS
 62
     7
 10
97.0817851504
 20
143.1300396165
 30
0.0
  0
VERTEX
  5
9F
  8
0
  6
CONTINUOUS
 62
     7
 10
97.5326802375
 20
142.9263703403
 30
0.0
  0
VERTEX
  5
A0
  8
0
  6
CONTINUOUS
 62
     7
 10
98.0045756475
 20
142.7328383296
 30
0.0
  0
VERTEX
  5
A1
  8
0
  6
CONTINUOUS
 62
     7
 10
98.496465689
 20
142.5499997095
 30
0.0
  0
VERTEX
  5
A2
  8
0
  6
CONTINUOUS
 62
     7
 10
99.007271021
 20
142.3783865405
 30
0.0
  0
VERTEX
  5
A3
  8
0
  6
CONTINUOUS
 62
     7
 10
99.535841284
 20
142.2185041339
 30
0.0
  0
VERTEX
  5
A4
  8
0
  6
CONTINUOUS
 62
     7
 10
100.0809582285
 20
142.0708284366
 30
0.0
  0
VERTEX
  5
A5
  8
0
  6
CONTINUOUS
 62
     7
 10
100.6413393338
 20
141.9358035117
 30
0.0
  0
VERTEX
  5
A6
  8
0
  6
CONTINUOUS
 62
     7
 10
101.2156419027
 20
141.8138391376
 30
0.0
  0
VERTEX
  5
A7
  8
0
  6
CONTINUOUS
 62
     7
 10
101.8024676125
 20
141.7053085507
 30
0.0
  0
VERTEX
  5
A8
  8
0
  6
CONTINUOUS
 62
     7
 10
102.4003674977
 20
141.610546354
 30
0.0
  0
VERTEX
  5
A9
  8
0
  6
CONTINUOUS
 62
     7
 10
103.0078473319
 20
141.5298466151
 30
0.0
  0
VERTEX
  5
AA
  8
0
  6
CONTINUOUS
 62
     7
 10
103.6233733739
 20
141.4634611713
 30
0.0
  0
VERTEX
  5
AB
  8
0
  6
CONTINUOUS
 62
     7
 10
104.2453784346
 20
141.4115981634
 30
0.0
  0
VERTEX
  5
AC
  8
0
  6
CONTINUOUS
 62
     7
 10
104.8722682201
 20
141.3744208117
 30
0.0
  0
VERTEX
  5
AD
  8
0
  6
CONTINUOUS
 62
     7
 10
105.5024279001
 20
141.3520464497
 30
0.0
  0
VERTEX
  5
AE
  8
0
  6
CONTINUOUS
 62
     7
 10
106.134228848
 20
141.3445458253
 30
0.0
  0
VERTEX
  5
AF
  8
0
  6
CONTINUOUS
 62
     7
 10
106.7660354979
 20
141.3519426778
 30
0.0
  0
VERTEX
  5
B0
  8
0
  6
CONTINUOUS
 62
     7
 10
107.3962122598
 20
141.3742135963
 30
0.0
  0
VERTEX
  5
B1
  8
0
  6
CONTINUOUS
 62
     7
 10
108.0231304351
 20
141.4112881592
 30
0.0
  0
VERTEX
  5
B2
  8
0
  6
CONTINUOUS
 62
     7
 10
108.6451750736
 20
141.4630493556
 30
0.0
  0
VERTEX
  5
B3
  8
0
  6
CONTINUOUS
 62
     7
 10
109.2607517156
 20
141.5293342818
 30
0.0
  0
VERTEX
  5
B4
  8
0
  6
CONTINUOUS
 62
     7
 10
109.8682929608
 20
141.6099351062
 30
0.0
  0
VERTEX
  5
B5
  8
0
  6
CONTINUOUS
 62
     7
 10
110.4662648135
 20
141.7046002908
 30
0.0
  0
VERTEX
  5
B6
  8
0
  6
CONTINUOUS
 62
     7
 10
111.0531727519
 20
141.813036057
 30
0.0
  0
VERTEX
  5
B7
  8
0
  6
CONTINUOUS
 62
     7
 10
111.627567476
 20
141.9349080777
 30
0.0
  0
VERTEX
  5
B8
  8
0
  6
CONTINUOUS
 62
     7
 10
112.1880502926
 20
142.0698433788
 30
0.0
  0
VERTEX
  5
B9
  8
0
  6
CONTINUOUS
 62
     7
 10
112.7332781005
 20
142.2174324287
 30
0.0
  0
VERTEX
  5
BA
  8
0
  6
CONTINUOUS
 62
     7
 10
113.261967945
 20
142.3772313951
 30
0.0
  0
VERTEX
  5
BB
  8
0
  6
CONTINUOUS
 62
     7
 10
113.772901116
 20
142.5487645447
 30
0.0
  0
VERTEX
  5
BC
  8
0
  6
CONTINUOUS
 62
     7
 10
114.2649267693
 20
142.7315267618
 30
0.0
  0
VERTEX
  5
BD
  8
0
  6
CONTINUOUS
 62
     7
 10
114.7369650594
 20
142.924986163
 30
0.0
  0
VERTEX
  5
BE
  8
0
  6
CONTINUOUS
 62
     7
 10
115.1880097739
 20
143.1285867816
 30
0.0
  0
SEQEND
  5
2B9
  8
0
  6
CONTINUOUS
 62
     7
  0
LINE
  5
4B
  8
0
  6
CONTINUOUS
 62
     7
 10
114.931854083
 20
136.9240467933
 30
0.0
 11
115.1880097739
 21
143.1285867816
 31
0.0
  0
POLYLINE
  5
4C
  8
0
  6
CONTINUOUS
 62
     7
 66
     1
 10
0.0
 20
0.0
 30
0.0
  0
VERTEX
  5
BF
  8
0
  6
CONTINUOUS
 62
     7
 10
93.5790944055
 20
141.4070827019
 30
0.0
  0
VERTEX
  5
C0
  8
0
  6
CONTINUOUS
 62
     7
 10
93.5891449044
 20
141.2763541392
 30
0.0
  0
VERTEX
  5
C1
  8
0
  6
CONTINUOUS
 62
     7
 10
93.6305043057
 20
140.9801603711
 30
0.0
  0
VERTEX
  5
C2
  8
0
  6
CONTINUOUS
 62
     7
 10
93.6978397128
 20
140.684127153
 30
0.0
  0
VERTEX
  5
C3
  8
0
  6
CONTINUOUS
 62
     7
 10
93.7913049822
 20
140.3888867988
 30
0.0
  0
VERTEX
  5
C4
  8
0
  6
CONTINUOUS
 62
     7
 10
93.9109959607
 20
140.0950839973
 30
0.0
  0
VERTEX
  5
C5
  8
0
  6
CONTINUOUS
 62
     7
 10
94.0569477605
 20
139.8033743491
 30
0.0
  0
VERTEX
  5
C6
  8
0
  6
CONTINUOUS
 62
     7
 10
94.2291321564
 20
139.5144227533
 30
0.0
  0
VERTEX
  5
C7
  8
0
  6
CONTINUOUS
 62
     7
 10
94.4274551349
 20
139.2289016439
 30
0.0
  0
VERTEX
  5
C8
  8
0
  6
CONTINUOUS
 62
     7
 10
94.6517546265
 20
138.9474890801
 30
0.0
  0
VERTEX
  5
C9
  8
0
  6
CONTINUOUS
 62
     7
 10
94.9017984519
 20
138.6708666925
 30
0.0
  0
VERTEX
  5
CA
  8
0
  6
CONTINUOUS
 62
     7
 10
95.1772825139
 20
138.3997174938
 30
0.0
  0
VERTEX
  5
CB
  8
0
  6
CONTINUOUS
 62
     7
 10
95.4778292661
 20
138.1347235592
 30
0.0
  0
VERTEX
  5
CC
  8
0
  6
CONTINUOUS
 62
     7
 10
95.8029864889
 20
137.876563589
 30
0.0
  0
VERTEX
  5
CD
  8
0
  6
CONTINUOUS
 62
     7
 10
96.1522264025
 20
137.6259103633
 30
0.0
  0
VERTEX
  5
CE
  8
0
  6
CONTINUOUS
 62
     7
 10
96.5249451436
 20
137.3834281039
 30
0.0
  0
VERTEX
  5
CF
  8
0
  6
CONTINUOUS
 62
     7
 10
96.9204626323
 20
137.1497697586
 30
0.0
  0
VERTEX
  5
D0
  8
0
  6
CONTINUOUS
 62
     7
 10
97.338022852
 20
136.9255742254
 30
0.0
  0
VERTEX
  5
D1
  8
0
  6
CONTINUOUS
 62
     7
 10
97.7767945607
 20
136.7114635365
 30
0.0
  0
VERTEX
  5
D2
  8
0
  6
CONTINUOUS
 62
     7
 10
98.2358724522
 20
136.5080400223
 30
0.0
  0
VERTEX
  5
D3
  8
0
  6
CONTINUOUS
 62
     7
 10
98.714278776
 20
136.3158834779
 30
0.0
  0
VERTEX
  5
D4
  8
0
  6
CONTINUOUS
 62
     7
 10
99.2109654268
 20
136.1355483553
 30
0.0
  0
VERTEX
  5
D5
  8
0
  6
CONTINUOUS
 62
     7
 10
99.7248165031
 20
135.9675610056
 30
0.0
  0
VERTEX
  5
D6
  8
0
  6
CONTINUOUS
 62
     7
 10
100.2546513345
 20
135.8124169952
 30
0.0
  0
VERTEX
  5
D7
  8
0
  6
CONTINUOUS
 62
     7
 10
100.7992279696
 20
135.6705785226
 30
0.0
  0
VERTEX
  5
D8
  8
0
  6
CONTINUOUS
 62
     7
 10
101.3572471096
 20
135.5424719575
 30
0.0
  0
VERTEX
  5
D9
  8
0
  6
CONTINUOUS
 62
     7
 10
101.9273564714
 20
135.42848553
 30
0.0
  0
VERTEX
  5
DA
  8
0
  6
CONTINUOUS
 62
     7
 10
102.5081555536
 20
135.3289671907
 30
0.0
  0
VERTEX
  5
DB
  8
0
  6
CONTINUOUS
 62
     7
 10
103.0982007772
 20
135.2442226638
 30
0.0
  0
VERTEX
  5
DC
  8
0
  6
CONTINUOUS
 62
     7
 10
103.6960109669
 20
135.1745137164
 30
0.0
  0
VERTEX
  5
DD
  8
0
  6
CONTINUOUS
 62
     7
 10
104.3000731318
 20
135.1200566582
 30
0.0
  0
VERTEX
  5
DE
  8
0
  6
CONTINUOUS
 62
     7
 10
104.9088485053
 20
135.0810210925
 30
0.0
  0
VERTEX
  5
DF
  8
0
  6
CONTINUOUS
 62
     7
 10
105.5207787944
 20
135.0575289284
 30
0.0
  0
VERTEX
  5
E0
  8
0
  6
CONTINUOUS
 62
     7
 10
106.1342925903
 20
135.0496536677
 30
0.0
  0
VERTEX
  5
E1
  8
0
  6
CONTINUOUS
 62
     7
 10
106.7478118875
 20
135.0574199731
 30
0.0
  0
VERTEX
  5
E2
  8
0
  6
CONTINUOUS
 62
     7
 10
107.3597586576
 20
135.080803523
 30
0.0
  0
VERTEX
  5
E3
  8
0
  6
CONTINUOUS
 62
     7
 10
107.9685614231
 20
135.1197311548
 30
0.0
  0
VERTEX
  5
E4
  8
0
  6
CONTINUOUS
 62
     7
 10
108.5726617774
 20
135.1740812945
 30
0.0
  0
VERTEX
  5
E5
  8
0
  6
CONTINUOUS
 62
     7
 10
109.1705207958
 20
135.2436846681
 30
0.0
  0
VERTEX
  5
E6
  8
0
  6
CONTINUOUS
 62
     7
 10
109.760625287
 20
135.328325287
 30
0.0
  0
VERTEX
  5
E7
  8
0
  6
CONTINUOUS
 62
     7
 10
110.3414938333
 20
135.4277416963
 30
0.0
  0
VERTEX
  5
E8
  8
0
  6
CONTINUOUS
 62
     7
 10
110.9116825746
 20
135.541628472
 30
0.0
  0
VERTEX
  5
E9
  8
0
  6
CONTINUOUS
 62
     7
 10
111.4697906913
 20
135.6696379515
 30
0.0
  0
VERTEX
  5
EA
  8
0
  6
CONTINUOUS
 62
     7
 10
112.0144655471
 20
135.8113821782
 30
0.0
  0
VERTEX
  5
EB
  8
0
  6
CONTINUOUS
 62
     7
 10
112.5444074586
 20
135.96643504
 30
0.0
  0
VERTEX
  5
EC
  8
0
  6
CONTINUOUS
 62
     7
 10
113.0583740607
 20
136.13433458
 30
0.0
  0
VERTEX
  5
ED
  8
0
  6
CONTINUOUS
 62
     7
 10
113.5551842434
 20
136.3145854552
 30
0.0
  0
VERTEX
  5
EE
  8
0
  6
CONTINUOUS
 62
     7
 10
114.0337216431
 20
136.5066615201
 30
0.0
  0
VERTEX
  5
EF
  8
0
  6
CONTINUOUS
 62
     7
 10
114.4929376723
 20
136.7100085088
 30
0.0
  0
VERTEX
  5
F0
  8
0
  6
CONTINUOUS
 62
     7
 10
114.931854083
 20
136.9240467933
 30
0.0
  0
SEQEND
  5
2B8
  8
0
  6
CONTINUOUS
 62
     7
  0
POLYLINE
  5
4D
  8
0
  6
CONTINUOUS
 62
     7
 66
     1
 10
0.0
 20
0.0
 30
0.0
  0
VERTEX
  5
F1
  8
0
  6
CONTINUOUS
 62
     7
 10
106.4442408491
 20
147.9527119689
 30
0.0
  0
VERTEX
  5
F2
  8
0
  6
CONTINUOUS
 62
     7
 10
106.50875164
 20
147.9923906262
 30
0.0
  0
VERTEX
  5
F3
  8
0
  6
CONTINUOUS
 62
     7
 10
106.5515276178
 20
148.0383002104
 30
0.0
  0
VERTEX
  5
F4
  8
0
  6
CONTINUOUS
 62
     7
 10
106.5701178011
 20
148.0877538713
 30
0.0
  0
VERTEX
  5
F5
  8
0
  6
CONTINUOUS
 62
     7
 10
106.5634909035
 20
148.13786876
 30
0.0
  0
VERTEX
  5
F6
  8
0
  6
CONTINUOUS
 62
     7
 10
106.5320839767
 20
148.1857355482
 30
0.0
  0
VERTEX
  5
F7
  8
0
  6
CONTINUOUS
 62
     7
 10
106.4777651315
 20
148.2285867438
 30
0.0
  0
VERTEX
  5
F8
  8
0
  6
CONTINUOUS
 62
     7
 10
106.4037152171
 20
148.2639542157
 30
0.0
  0
VERTEX
  5
F9
  8
0
  6
CONTINUOUS
 62
     7
 10
106.314237536
 20
148.2898075443
 30
0.0
  0
VERTEX
  5
FA
  8
0
  6
CONTINUOUS
 62
     7
 10
106.2145078571
 20
148.3046663199
 30
0.0
  0
VERTEX
  5
FB
  8
0
  6
CONTINUOUS
 62
     7
 10
106.1102792011
 20
148.3076811569
 30
0.0
  0
VERTEX
  5
FC
  8
0
  6
CONTINUOUS
 62
     7
 10
106.0075572748
 20
148.298679845
 30
0.0
  0
VERTEX
  5
FD
  8
0
  6
CONTINUOUS
 62
     7
 10
105.9122632024
 20
148.278176677
 30
0.0
  0
VERTEX
  5
FE
  8
0
  6
CONTINUOUS
 62
     7
 10
105.8299004988
 20
148.247344563
 30
0.0
  0
VERTEX
  5
FF
  8
0
  6
CONTINUOUS
 62
     7
 10
105.7652431338
 20
148.207951103
 30
0.0
  0
VERTEX
  5
100
  8
0
  6
CONTINUOUS
 62
     7
 10
105.7220610181
 20
148.1622613799
 30
0.0
  0
VERTEX
  5
101
  8
0
  6
CONTINUOUS
 62
     7
 10
105.7028981747
 20
148.1129118774
 30
0.0
  0
VERTEX
  5
102
  8
0
  6
CONTINUOUS
 62
     7
 10
105.7089170782
 20
148.0627615833
 30
0.0
  0
VERTEX
  5
103
  8
0
  6
CONTINUOUS
 62
     7
 10
105.7398199594
 20
148.0147279369
 30
0.0
  0
VERTEX
  5
104
  8
0
  6
CONTINUOUS
 62
     7
 10
105.7938541778
 20
147.9716166546
 30
0.0
  0
VERTEX
  5
105
  8
0
  6
CONTINUOUS
 62
     7
 10
105.8679040896
 20
147.9359554496
 30
0.0
  0
VERTEX
  5
106
  8
0
  6
CONTINUOUS
 62
     7
 10
105.9576663946
 20
147.9098420323
 30
0.0
  0
VERTEX
  5
107
  8
0
  6
CONTINUOUS
 62
     7
 10
106.0579001209
 20
147.894816396
 30
0.0
  0
VERTEX
  5
108
  8
0
  6
CONTINUOUS
 62
     7
 10
106.1627367761
 20
147.8917661531
 30
0.0
  0
VERTEX
  5
109
  8
0
  6
CONTINUOUS
 62
     7
 10
106.2660313663
 20
147.9008716251
 30
0.0
  0
VERTEX
  5
10A
  8
0
  6
CONTINUOUS
 62
     7
 10
106.3617315759
 20
147.9215946567
 30
0.0
  0
VERTEX
  5
10B
  8
0
  6
CONTINUOUS
 62
     7
 10
106.4442408491
 20
147.9527119689
 30
0.0
  0
SEQEND
  5
2B7
  8
0
  6
CONTINUOUS
 62
     7
  0
POLYLINE
  5
4E
  8
0
  6
CONTINUOUS
 62
     7
 66
     1
 10
0.0
 20
0.0
 30
0.0
  0
VERTEX
  5
10C
  8
0
  6
CONTINUOUS
 62
     7
 10
113.5568002074
 20
144.5415868275
 30
0.0
  0
VERTEX
  5
10D
  8
0
  6
CONTINUOUS
 62
     7
 10
113.6747159477
 20
144.6141132688
 30
0.0
  0
VERTEX
  5
10E
  8
0
  6
CONTINUOUS
 62
     7
 10
113.770337756
 20
144.6945422849
 30
0.0
  0
VERTEX
  5
10F
  8
0
  6
CONTINUOUS
 62
     7
 10
113.8418515112
 20
144.7812619914
 30
0.0
  0
VERTEX
  5
110
  8
0
  6
CONTINUOUS
 62
     7
 10
113.8879354935
 20
144.8725459221
 30
0.0
  0
VERTEX
  5
111
  8
0
  6
CONTINUOUS
 62
     7
 10
113.9077805023
 20
144.9665895958
 30
0.0
  0
VERTEX
  5
112
  8
0
  6
CONTINUOUS
 62
     7
 10
113.9010986754
 20
145.0615477305
 30
0.0
  0
VERTEX
  5
113
  8
0
  6
CONTINUOUS
 62
     7
 10
113.8681213998
 20
145.1555712281
 30
0.0
  0
VERTEX
  5
114
  8
0
  6
CONTINUOUS
 62
     7
 10
113.8095869601
 20
145.2468431431
 30
0.0
  0
VERTEX
  5
115
  8
0
  6
CONTINUOUS
 62
     7
 10
113.7267187723
 20
145.3336129497
 30
0.0
  0
VERTEX
  5
116
  8
0
  6
CONTINUOUS
 62
     7
 10
113.6211951876
 20
145.4142285413
 30
0.0
  0
VERTEX
  5
117
  8
0
  6
CONTINUOUS
 62
     7
 10
113.4951119229
 20
145.4871655084
 30
0.0
  0
VERTEX
  5
118
  8
0
  6
CONTINUOUS
 62
     7
 10
113.3509382029
 20
145.5510533547
 30
0.0
  0
VERTEX
  5
119
  8
0
  6
CONTINUOUS
 62
     7
 10
113.1914676739
 20
145.604698406
 30
0.0
  0
VERTEX
  5
11A
  8
0
  6
CONTINUOUS
 62
     7
 10
113.0197651
 20
145.6471032508
 30
0.0
  0
VERTEX
  5
11B
  8
0
  6
CONTINUOUS
 62
     7
 10
112.8391097785
 20
145.6774826176
 30
0.0
  0
VERTEX
  5
11C
  8
0
  6
CONTINUOUS
 62
     7
 10
112.6529365336
 20
145.6952756374
 30
0.0
  0
VERTEX
  5
11D
  8
0
  6
CONTINUOUS
 62
     7
 10
112.4647750691
 20
145.700154475
 30
0.0
  0
VERTEX
  5
11E
  8
0
  6
CONTINUOUS
 62
     7
 10
112.2781883971
 20
145.6920293232
 30
0.0
  0
VERTEX
  5
11F
  8
0
  6
CONTINUOUS
 62
     7
 10
112.0967110138
 20
145.6710497659
 30
0.0
  0
VERTEX
  5
120
  8
0
  6
CONTINUOUS
 62
     7
 10
111.9237874716
 20
145.637602507
 30
0.0
  0
VERTEX
  5
121
  8
0
  6
CONTINUOUS
 62
     7
 10
111.7627120004
 20
145.5923054672
 30
0.0
  0
VERTEX
  5
122
  8
0
  6
CONTINUOUS
 62
     7
 10
111.6165698577
 20
145.5359982443
 30
0.0
  0
VERTEX
  5
123
  8
0
  6
CONTINUOUS
 62
     7
 10
111.48818114
 20
145.4697289444
 30
0.0
  0
VERTEX
  5
124
  8
0
  6
CONTINUOUS
 62
     7
 10
111.3800478486
 20
145.3947374073
 30
0.0
  0
VERTEX
  5
125
  8
0
  6
CONTINUOUS
 62
     7
 10
111.2943050793
 20
145.3124348878
 30
0.0
  0
VERTEX
  5
126
  8
0
  6
CONTINUOUS
 62
     7
 10
111.2326772724
 20
145.2243803019
 30
0.0
  0
VERTEX
  5
127
  8
0
  6
CONTINUOUS
 62
     7
 10
111.1964405179
 20
145.1322532189
 30
0.0
  0
VERTEX
  5
128
  8
0
  6
CONTINUOUS
 62
     7
 10
111.1863919392
 20
145.0378238665
 30
0.0
  0
VERTEX
  5
129
  8
0
  6
CONTINUOUS
 62
     7
 10
111.2028271721
 20
144.9429205181
 30
0.0
  0
VERTEX
  5
12A
  8
0
  6
CONTINUOUS
 62
     7
 10
111.2455269016
 20
144.8493947419
 30
0.0
  0
VERTEX
  5
12B
  8
0
  6
CONTINUOUS
 62
     7
 10
111.3137533075
 20
144.7590851104
 30
0.0
  0
VERTEX
  5
12C
  8
0
  6
CONTINUOUS
 62
     7
 10
111.4062570996
 20
144.6737800801
 30
0.0
  0
VERTEX
  5
12D
  8
0
  6
CONTINUOUS
 62
     7
 10
111.5212955881
 20
144.5951808541
 30
0.0
  0
VERTEX
  5
12E
  8
0
  6
CONTINUOUS
 62
     7
 10
111.6566619495
 20
144.5248651228
 30
0.0
  0
VERTEX
  5
12F
  8
0
  6
CONTINUOUS
 62
     7
 10
111.8097255075
 20
144.464252627
 30
0.0
  0
VERTEX
  5
130
  8
0
  6
CONTINUOUS
 62
     7
 10
111.9774824837
 20
144.4145735089
 30
0.0
  0
VERTEX
  5
131
  8
0
  6
CONTINUOUS
 62
     7
 10
112.1566162894
 20
144.3768403847
 30
0.0
  0
VERTEX
  5
132
  8
0
  6
CONTINUOUS
 62
     7
 10
112.3435660556
 20
144.3518250078
 30
0.0
  0
VERTEX
  5
133
  8
0
  6
CONTINUOUS
 62
     7
 10
112.5346017641
 20
144.3400402704
 30
0.0
  0
VERTEX
  5
134
  8
0
  6
CONTINUOUS
 62
     7
 10
112.7259040496
 20
144.3417281429
 30
0.0
  0
VERTEX
  5
135
  8
0
  6
CONTINUOUS
 62
     7
 10
112.9136465418
 20
144.3568539553
 30
0.0
  0
VERTEX
  5
136
  8
0
  6
CONTINUOUS
 62
     7
 10
113.0940784931
 20
144.385107218
 30
0.0
  0
VERTEX
  5
137
  8
0
  6
CONTINUOUS
 62
     7
 10
113.2636054203
 20
144.4259089522
 30
0.0
  0
VERTEX
  5
138
  8
0
  6
CONTINUOUS
 62
     7
 10
113.4188655714
 20
144.4784252817
 30
0.0
  0
VERTEX
  5
139
  8
0
  6
CONTINUOUS
 62
     7
 10
113.5568002074
 20
144.5415868275
 30
0.0
  0
SEQEND
  5
2B6
  8
0
  6
CONTINUOUS
 62
     7
  0
POLYLINE
  5
4F
  8
0
  6
CONTINUOUS
 62
     7
 66
     1
 10
0.0
 20
0.0
 30
0.0
  0
VERTEX
  5
13A
  8
0
  6
CONTINUOUS
 62
     7
 10
96.6511646641
 20
150.6616617252
 30
0.0
  0
VERTEX
  5
13B
  8
0
  6
CONTINUOUS
 62
     7
 10
96.3748541123
 20
150.4474141269
 30
0.0
  0
VERTEX
  5
13C
  8
0
  6
CONTINUOUS
 62
     7
 10
96.1186642799
 20
150.2265369674
 30
0.0
  0
VERTEX
  5
13D
  8
0
  6
CONTINUOUS
 62
     7
 10
95.8833292571
 20
149.9994302124
 30
0.0
  0
VERTEX
  5
13E
  8
0
  6
CONTINUOUS
 62
     7
 10
95.6695567297
 20
149.7665143659
 30
0.0
  0
VERTEX
  5
13F
  8
0
  6
CONTINUOUS
 62
     7
 10
95.4780252885
 20
149.5282305043
 30
0.0
  0
VERTEX
  5
140
  8
0
  6
CONTINUOUS
 62
     7
 10
95.309381602
 20
149.2850402276
 30
0.0
  0
VERTEX
  5
141
  8
0
  6
CONTINUOUS
 62
     7
 10
95.1642374626
 20
149.0374255194
 30
0.0
  0
VERTEX
  5
142
  8
0
  6
CONTINUOUS
 62
     7
 10
95.0431667161
 20
148.7858885043
 30
0.0
  0
VERTEX
  5
143
  8
0
  6
CONTINUOUS
 62
     7
 10
94.946702089
 20
148.5309510951
 30
0.0
  0
VERTEX
  5
144
  8
0
  6
CONTINUOUS
 62
     7
 10
94.8753319301
 20
148.2731545194
 30
0.0
  0
VERTEX
  5
145
  8
0
  6
CONTINUOUS
 62
     7
 10
94.8294968841
 20
148.0130587169
 30
0.0
  0
VERTEX
  5
146
  8
0
  6
CONTINUOUS
 62
     7
 10
94.8095865195
 20
147.7512416001
 30
0.0
  0
VERTEX
  5
147
  8
0
  6
CONTINUOUS
 62
     7
 10
94.8159359344
 20
147.4882981694
 30
0.0
  0
VERTEX
  5
148
  8
0
  6
CONTINUOUS
 62
     7
 10
94.8488223667
 20
147.2248394772
 30
0.0
  0
VERTEX
  5
149
  8
0
  6
CONTINUOUS
 62
     7
 10
94.9084618372
 20
146.9614914342
 30
0.0
  0
VERTEX
  5
14A
  8
0
  6
CONTINUOUS
 62
     7
 10
94.995005858
 20
146.6988934539
 30
0.0
  0
VERTEX
  5
14B
  8
0
  6
CONTINUOUS
 62
     7
 10
95.1085382383
 20
146.4376969326
 30
0.0
  0
VERTEX
  5
14C
  8
0
  6
CONTINUOUS
 62
     7
 10
95.2490720244
 20
146.1785635628
 30
0.0
  0
VERTEX
  5
14D
  8
0
  6
CONTINUOUS
 62
     7
 10
95.4165466099
 20
145.92216348
 30
0.0
  0
VERTEX
  5
14E
  8
0
  6
CONTINUOUS
 62
     7
 10
95.6108250544
 20
145.6691732461
 30
0.0
  0
VERTEX
  5
14F
  8
0
  6
CONTINUOUS
 62
     7
 10
95.8316916505
 20
145.4202736729
 30
0.0
  0
VERTEX
  5
150
  8
0
  6
CONTINUOUS
 62
     7
 10
96.0788497775
 20
145.1761474912
 30
0.0
  0
VERTEX
  5
151
  8
0
  6
CONTINUOUS
 62
     7
 10
96.3519200823
 20
144.9374768767
 30
0.0
  0
VERTEX
  5
152
  8
0
  6
CONTINUOUS
 62
     7
 10
96.6504390243
 20
144.7049408404
 30
0.0
  0
VERTEX
  5
153
  8
0
  6
CONTINUOUS
 62
     7
 10
96.9738578232
 20
144.4792124997
 30
0.0
  0
VERTEX
  5
154
  8
0
  6
CONTINUOUS
 62
     7
 10
97.3215418424
 20
144.260956244
 30
0.0
  0
VERTEX
  5
155
  8
0
  6
CONTINUOUS
 62
     7
 10
97.6927704428
 20
144.0508248141
 30
0.0
  0
VERTEX
  5
156
  8
0
  6
CONTINUOUS
 62
     7
 10
98.0867373339
 20
143.8494563146
 30
0.0
  0
VERTEX
  5
157
  8
0
  6
CONTINUOUS
 62
     7
 10
98.5025514471
 20
143.6574711821
 30
0.0
  0
VERTEX
  5
158
  8
0
  6
CONTINUOUS
 62
     7
 10
98.939238352
 20
143.4754691337
 30
0.0
  0
VERTEX
  5
159
  8
0
  6
CONTINUOUS
 62
     7
 10
99.3957422303
 20
143.3040261205
 30
0.0
  0
VERTEX
  5
15A
  8
0
  6
CONTINUOUS
 62
     7
 10
99.8709284142
 20
143.1436913141
 30
0.0
  0
VERTEX
  5
15B
  8
0
  6
CONTINUOUS
 62
     7
 10
100.3635864948
 20
142.9949841534
 30
0.0
  0
VERTEX
  5
15C
  8
0
  6
CONTINUOUS
 62
     7
 10
100.8724339929
 20
142.8583914808
 30
0.0
  0
VERTEX
  5
15D
  8
0
  6
CONTINUOUS
 62
     7
 10
101.3961205838
 20
142.7343647959
 30
0.0
  0
VERTEX
  5
15E
  8
0
  6
CONTINUOUS
 62
     7
 10
101.9332328546
 20
142.6233176562
 30
0.0
  0
VERTEX
  5
15F
  8
0
  6
CONTINUOUS
 62
     7
 10
102.4822995722
 20
142.5256232509
 30
0.0
  0
VERTEX
  5
160
  8
0
  6
CONTINUOUS
 62
     7
 10
103.0417974249
 20
142.4416121758
 30
0.0
  0
VERTEX
  5
161
  8
0
  6
CONTINUOUS
 62
     7
 10
103.6101572027
 20
142.3715704341
 30
0.0
  0
VERTEX
  5
162
  8
0
  6
CONTINUOUS
 62
     7
 10
104.1857703673
 20
142.315737684
 30
0.0
  0
VERTEX
  5
163
  8
0
  6
CONTINUOUS
 62
     7
 10
104.7669959622
 20
142.2743057566
 30
0.0
  0
VERTEX
  5
164
  8
0
  6
CONTINUOUS
 62
     7
 10
105.3521678052
 20
142.2474174584
 30
0.0
  0
VERTEX
  5
165
  8
0
  6
CONTINUOUS
 62
     7
 10
105.939601904
 20
142.2351656742
 30
0.0
  0
VERTEX
  5
166
  8
0
  6
CONTINUOUS
 62
     7
 10
106.5276040284
 20
142.2375927819
 30
0.0
  0
VERTEX
  5
167
  8
0
  6
CONTINUOUS
 62
     7
 10
107.1144773748
 20
142.2546903835
 30
0.0
  0
VERTEX
  5
168
  8
0
  6
CONTINUOUS
 62
     7
 10
107.6985302524
 20
142.2863993591
 30
0.0
  0
VERTEX
  5
169
  8
0
  6
CONTINUOUS
 62
     7
 10
108.2780837253
 20
142.3326102398
 30
0.0
  0
VERTEX
  5
16A
  8
0
  6
CONTINUOUS
 62
     7
 10
108.8514791398
 20
142.3931638982
 30
0.0
  0
VERTEX
  5
16B
  8
0
  6
CONTINUOUS
 62
     7
 10
109.417085473
 20
142.4678525454
 30
0.0
  0
VERTEX
  5
16C
  8
0
  6
CONTINUOUS
 62
     7
 10
109.9733064391
 20
142.5564210244
 30
0.0
  0
VERTEX
  5
16D
  8
0
  6
CONTINUOUS
 62
     7
 10
110.5185872927
 20
142.6585683838
 30
0.0
  0
VERTEX
  5
16E
  8
0
  6
CONTINUOUS
 62
     7
 10
111.0514212754
 20
142.7739497143
 30
0.0
  0
VERTEX
  5
16F
  8
0
  6
CONTINUOUS
 62
     7
 10
111.5703556558
 20
142.9021782247
 30
0.0
  0
VERTEX
  5
170
  8
0
  6
CONTINUOUS
 62
     7
 10
112.0739973189
 20
143.0428275371
 30
0.0
  0
SEQEND
  5
2B5
  8
0
  6
CONTINUOUS
 62
     7
  0
LINE
  5
50
  8
0
  6
CONTINUOUS
 62
     7
 10
112.0739973189
 20
143.0428275371
 30
0.0
 11
110.3675787557
 21
143.8857933125
 31
0.0
  0
POLYLINE
  5
51
  8
0
  6
CONTINUOUS
 62
     7
 66
     1
 10
0.0
 20
0.0
 30
0.0
  0
VERTEX
  5
171
  8
0
  6
CONTINUOUS
 62
     7
 10
110.3675787557
 20
143.8857933125
 30
0.0
  0
VERTEX
  5
172
  8
0
  6
CONTINUOUS
 62
     7
 10
110.1629837637
 20
143.9962656301
 30
0.0
  0
VERTEX
  5
173
  8
0
  6
CONTINUOUS
 62
     7
 10
109.979206847
 20
144.1151215696
 30
0.0
  0
VERTEX
  5
174
  8
0
  6
CONTINUOUS
 62
     7
 10
109.8177435884
 20
144.2412902392
 30
0.0
  0
VERTEX
  5
175
  8
0
  6
CONTINUOUS
 62
     7
 10
109.6798753132
 20
144.3736455892
 30
0.0
  0
VERTEX
  5
176
  8
0
  6
CONTINUOUS
 62
     7
 10
109.5666609801
 20
144.5110181914
 30
0.0
  0
VERTEX
  5
177
  8
0
  6
CONTINUOUS
 62
     7
 10
109.4789317602
 20
144.6522070618
 30
0.0
  0
VERTEX
  5
178
  8
0
  6
CONTINUOUS
 62
     7
 10
109.4172882141
 20
144.7959913631
 30
0.0
  0
VERTEX
  5
179
  8
0
  6
CONTINUOUS
 62
     7
 10
109.3820999324
 20
144.9411418387
 30
0.0
  0
VERTEX
  5
17A
  8
0
  6
CONTINUOUS
 62
     7
 10
109.3735074731
 20
145.0864318509
 30
0.0
  0
VERTEX
  5
17B
  8
0
  6
CONTINUOUS
 62
     7
 10
109.3914264008
 20
145.2306479146
 30
0.0
  0
VERTEX
  5
17C
  8
0
  6
CONTINUOUS
 62
     7
 10
109.4355532147
 20
145.3725996398
 30
0.0
  0
VERTEX
  5
17D
  8
0
  6
CONTINUOUS
 62
     7
 10
109.5053729431
 20
145.5111290168
 30
0.0
  0
VERTEX
  5
17E
  8
0
  6
CONTINUOUS
 62
     7
 10
109.600168178
 20
145.6451189996
 30
0.0
  0
VERTEX
  5
17F
  8
0
  6
CONTINUOUS
 62
     7
 10
109.7190293277
 20
145.7735013596
 30
0.0
  0
SEQEND
  5
2B4
  8
0
  6
CONTINUOUS
 62
     7
  0
LINE
  5
52
  8
0
  6
CONTINUOUS
 62
     7
 10
109.7190293277
 20
145.7735013596
 30
0.0
 11
107.9379841682
 21
146.6348524566
 31
0.0
  0
POLYLINE
  5
53
  8
0
  6
CONTINUOUS
 62
     7
 66
     1
 10
0.0
 20
0.0
 30
0.0
  0
VERTEX
  5
180
  8
0
  6
CONTINUOUS
 62
     7
 10
107.9379841682
 20
146.6348524566
 30
0.0
  0
VERTEX
  5
181
  8
0
  6
CONTINUOUS
 62
     7
 10
107.6643776311
 20
146.563155134
 30
0.0
  0
VERTEX
  5
182
  8
0
  6
CONTINUOUS
 62
     7
 10
107.378215805
 20
146.5034574785
 30
0.0
  0
VERTEX
  5
183
  8
0
  6
CONTINUOUS
 62
     7
 10
107.0818252193
 20
146.4562809998
 30
0.0
  0
VERTEX
  5
184
  8
0
  6
CONTINUOUS
 62
     7
 10
106.777632296
 20
146.4220395423
 30
0.0
  0
VERTEX
  5
185
  8
0
  6
CONTINUOUS
 62
     7
 10
106.4681401545
 20
146.4010344317
 30
0.0
  0
VERTEX
  5
186
  8
0
  6
CONTINUOUS
 62
     7
 10
106.1559042522
 20
146.3934509095
 30
0.0
  0
VERTEX
  5
187
  8
0
  6
CONTINUOUS
 62
     7
 10
105.8435072245
 20
146.3993559281
 30
0.0
  0
VERTEX
  5
188
  8
0
  6
CONTINUOUS
 62
     7
 10
105.5335333043
 20
146.4186973506
 30
0.0
  0
VERTEX
  5
189
  8
0
  6
CONTINUOUS
 62
     7
 10
105.2285427177
 20
146.4513045743
 30
0.0
  0
VERTEX
  5
18A
  8
0
  6
CONTINUOUS
 62
     7
 10
104.9310464491
 20
146.4968905621
 30
0.0
  0
VERTEX
  5
18B
  8
0
  6
CONTINUOUS
 62
     7
 10
104.6434817631
 20
146.5550552426
 30
0.0
  0
VERTEX
  5
18C
  8
0
  6
CONTINUOUS
 62
     7
 10
104.3681888454
 20
146.6252902073
 30
0.0
  0
VERTEX
  5
18D
  8
0
  6
CONTINUOUS
 62
     7
 10
104.1073888973
 20
146.7069846109
 30
0.0
  0
VERTEX
  5
18E
  8
0
  6
CONTINUOUS
 62
     7
 10
103.8631639802
 20
146.7994321573
 30
0.0
  0
VERTEX
  5
18F
  8
0
  6
CONTINUOUS
 62
     7
 10
103.6374388596
 20
146.9018390373
 30
0.0
  0
VERTEX
  5
190
  8
0
  6
CONTINUOUS
 62
     7
 10
103.4319650486
 20
147.0133326686
 30
0.0
  0
VERTEX
  5
191
  8
0
  6
CONTINUOUS
 62
     7
 10
103.2483071982
 20
147.1329710801
 30
0.0
  0
VERTEX
  5
192
  8
0
  6
CONTINUOUS
 62
     7
 10
103.0878319269
 20
147.2597527797
 30
0.0
  0
VERTEX
  5
193
  8
0
  6
CONTINUOUS
 62
     7
 10
102.9516991295
 20
147.3926269422
 30
0.0
  0
VERTEX
  5
194
  8
0
  6
CONTINUOUS
 62
     7
 10
102.8408557525
 20
147.5305037605
 30
0.0
  0
VERTEX
  5
195
  8
0
  6
CONTINUOUS
 62
     7
 10
102.75603198
 20
147.6722648117
 30
0.0
  0
VERTEX
  5
196
  8
0
  6
CONTINUOUS
 62
     7
 10
102.6977397287
 20
147.8167732984
 30
0.0
  0
VERTEX
  5
197
  8
0
  6
CONTINUOUS
 62
     7
 10
102.6662733195
 20
147.9628840436
 30
0.0
  0
VERTEX
  5
198
  8
0
  6
CONTINUOUS
 62
     7
 10
102.6617121618
 20
148.1094531311
 30
0.0
  0
VERTEX
  5
199
  8
0
  6
CONTINUOUS
 62
     7
 10
102.6839252666
 20
148.2553471001
 30
0.0
  0
VERTEX
  5
19A
  8
0
  6
CONTINUOUS
 62
     7
 10
102.7325773908
 20
148.3994516229
 30
0.0
  0
VERTEX
  5
19B
  8
0
  6
CONTINUOUS
 62
     7
 10
102.8071366076
 20
148.5406796097
 30
0.0
  0
VERTEX
  5
19C
  8
0
  6
CONTINUOUS
 62
     7
 10
102.9068830953
 20
148.6779787033
 30
0.0
  0
VERTEX
  5
19D
  8
0
  6
CONTINUOUS
 62
     7
 10
103.0309189439
 20
148.8103381412
 30
0.0
  0
VERTEX
  5
19E
  8
0
  6
CONTINUOUS
 62
     7
 10
103.1781787869
 20
148.9367949787
 30
0.0
  0
SEQEND
  5
2B3
  8
0
  6
CONTINUOUS
 62
     7
  0
LINE
  5
54
  8
0
  6
CONTINUOUS
 62
     7
 10
103.1781787869
 20
148.9367949787
 30
0.0
 11
101.5472048746
 21
149.7255684475
 31
0.0
  0
ARC
  5
55
  8
0
  6
CONTINUOUS
 62
     7
 10
100.1597869595
 20
155.0206673764
 30
0.0
 40
5.473847014539224
 50
247.4601822075
 51
284.682532236
  0
LINE
  5
56
  8
0
  6
CONTINUOUS
 62
     7
 10
98.0615224099
 20
149.9649491269
 30
0.0
 11
96.6511646641
 21
150.6616617252
 31
0.0
  0
POLYLINE
  5
57
  8
0
  6
CONTINUOUS
 62
     7
 66
     1
 10
0.0
 20
0.0
 30
0.0
  0
VERTEX
  5
19F
  8
0
  6
CONTINUOUS
 62
     7
 10
101.0931402155
 20
150.5190559509
 30
0.0
  0
VERTEX
  5
1A0
  8
0
  6
CONTINUOUS
 62
     7
 10
101.2127665026
 20
150.5803848642
 30
0.0
  0
VERTEX
  5
1A1
  8
0
  6
CONTINUOUS
 62
     7
 10
101.3131296507
 20
150.6484075255
 30
0.0
  0
VERTEX
  5
1A2
  8
0
  6
CONTINUOUS
 62
     7
 10
101.3923093501
 20
150.7217638069
 30
0.0
  0
VERTEX
  5
1A3
  8
0
  6
CONTINUOUS
 62
     7
 10
101.4488183227
 20
150.7989958641
 30
0.0
  0
VERTEX
  5
1A4
  8
0
  6
CONTINUOUS
 62
     7
 10
101.4816269619
 20
150.8785788213
 30
0.0
  0
VERTEX
  5
1A5
  8
0
  6
CONTINUOUS
 62
     7
 10
101.4901778194
 20
150.9589520872
 30
0.0
  0
VERTEX
  5
1A6
  8
0
  6
CONTINUOUS
 62
     7
 10
101.4743901047
 20
151.0385505714
 30
0.0
  0
VERTEX
  5
1A7
  8
0
  6
CONTINUOUS
 62
     7
 10
101.4346546132
 20
151.1158351396
 30
0.0
  0
VERTEX
  5
1A8
  8
0
  6
CONTINUOUS
 62
     7
 10
101.3718196969
 20
151.1893217259
 30
0.0
  0
VERTEX
  5
1A9
  8
0
  6
CONTINUOUS
 62
     7
 10
101.2871690409
 20
151.2576086106
 30
0.0
  0
VERTEX
  5
1AA
  8
0
  6
CONTINUOUS
 62
     7
 10
101.1823921026
 20
151.3194014655
 30
0.0
  0
VERTEX
  5
1AB
  8
0
  6
CONTINUOUS
 62
     7
 10
101.059548123
 20
151.3735358547
 30
0.0
  0
VERTEX
  5
1AC
  8
0
  6
CONTINUOUS
 62
     7
 10
100.9210246278
 20
151.418996962
 30
0.0
  0
VERTEX
  5
1AD
  8
0
  6
CONTINUOUS
 62
     7
 10
100.7694913143
 20
151.4549363817
 30
0.0
  0
VERTEX
  5
1AE
  8
0
  6
CONTINUOUS
 62
     7
 10
100.607850181
 20
151.4806858686
 30
0.0
  0
VERTEX
  5
1AF
  8
0
  6
CONTINUOUS
 62
     7
 10
100.4391827001
 20
151.4957679826
 30
0.0
  0
VERTEX
  5
1B0
  8
0
  6
CONTINUOUS
 62
     7
 10
100.2666947827
 20
151.4999035927
 30
0.0
  0
VERTEX
  5
1B1
  8
0
  6
CONTINUOUS
 62
     7
 10
100.0936602367
 20
151.4930162264
 30
0.0
  0
VERTEX
  5
1B2
  8
0
  6
CONTINUOUS
 62
     7
 10
99.9233633811
 20
151.4752332556
 30
0.0
  0
VERTEX
  5
1B3
  8
0
  6
CONTINUOUS
 62
     7
 10
99.7590414674
 20
151.4468839196
 30
0.0
  0
VERTEX
  5
1B4
  8
0
  6
CONTINUOUS
 62
     7
 10
99.6038275578
 20
151.4084941866
 30
0.0
  0
VERTEX
  5
1B5
  8
0
  6
CONTINUOUS
 62
     7
 10
99.4606945342
 20
151.3607784617
 30
0.0
  0
VERTEX
  5
1B6
  8
0
  6
CONTINUOUS
 62
     7
 10
99.3324009534
 20
151.3046281626
 30
0.0
  0
VERTEX
  5
1B7
  8
0
  6
CONTINUOUS
 62
     7
 10
99.2214395168
 20
151.2410972013
 30
0.0
  0
VERTEX
  5
1B8
  8
0
  6
CONTINUOUS
 62
     7
 10
99.1299889815
 20
151.1713844479
 30
0.0
  0
VERTEX
  5
1B9
  8
0
  6
CONTINUOUS
 62
     7
 10
99.0598704038
 20
151.0968132918
 30
0.0
  0
VERTEX
  5
1BA
  8
0
  6
CONTINUOUS
 62
     7
 10
99.0125086466
 20
151.0188084805
 30
0.0
  0
VERTEX
  5
1BB
  8
0
  6
CONTINUOUS
 62
     7
 10
98.9889001166
 20
150.9388704834
 30
0.0
  0
VERTEX
  5
1BC
  8
0
  6
CONTINUOUS
 62
     7
 10
98.9895876851
 20
150.8585477147
 30
0.0
  0
VERTEX
  5
1BD
  8
0
  6
CONTINUOUS
 62
     7
 10
99.014643708
 20
150.7794070355
 30
0.0
  0
VERTEX
  5
1BE
  8
0
  6
CONTINUOUS
 62
     7
 10
99.0636619612
 20
150.7030030506
 30
0.0
  0
VERTEX
  5
1BF
  8
0
  6
CONTINUOUS
 62
     7
 10
99.135759169
 20
150.6308468019
 30
0.0
  0
VERTEX
  5
1C0
  8
0
  6
CONTINUOUS
 62
     7
 10
99.2295865989
 20
150.5643745402
 30
0.0
  0
VERTEX
  5
1C1
  8
0
  6
CONTINUOUS
 62
     7
 10
99.3433519506
 20
150.5049173165
 30
0.0
  0
VERTEX
  5
1C2
  8
0
  6
CONTINUOUS
 62
     7
 10
99.4748514749
 20
150.4536721744
 30
0.0
  0
VERTEX
  5
1C3
  8
0
  6
CONTINUOUS
 62
     7
 10
99.6215119357
 20
150.4116757292
 30
0.0
  0
VERTEX
  5
1C4
  8
0
  6
CONTINUOUS
 62
     7
 10
99.7804416896
 20
150.3797808985
 30
0.0
  0
VERTEX
  5
1C5
  8
0
  6
CONTINUOUS
 62
     7
 10
99.9484898253
 20
150.3586374864
 30
0.0
  0
VERTEX
  5
1C6
  8
0
  6
CONTINUOUS
 62
     7
 10
100.1223119933
 20
150.3486772276
 30
0.0
  0
VERTEX
  5
1C7
  8
0
  6
CONTINUOUS
 62
     7
 10
100.2984412878
 20
150.350103773
 30
0.0
  0
VERTEX
  5
1C8
  8
0
  6
CONTINUOUS
 62
     7
 10
100.4733623358
 20
150.3628879443
 30
0.0
  0
VERTEX
  5
1C9
  8
0
  6
CONTINUOUS
 62
     7
 10
100.6435866186
 20
150.3867684151
 30
0.0
  0
VERTEX
  5
1CA
  8
0
  6
CONTINUOUS
 62
     7
 10
100.8057269971
 20
150.4212577945
 30
0.0
  0
VERTEX
  5
1CB
  8
0
  6
CONTINUOUS
 62
     7
 10
100.9565694581
 20
150.4656539145
 30
0.0
  0
VERTEX
  5
1CC
  8
0
  6
CONTINUOUS
 62
     7
 10
101.0931402155
 20
150.5190559509
 30
0.0
  0
SEQEND
  5
2B2
  8
0
  6
CONTINUOUS
 62
     7
  0
POLYLINE
  5
58
  8
0
  6
CONTINUOUS
 62
     7
 66
     1
 10
0.0
 20
0.0
 30
0.0
  0
VERTEX
  5
1CD
  8
0
  6
CONTINUOUS
 62
     7
 10
116.3623550647
 20
145.3390070445
 30
0.0
  0
VERTEX
  5
1CE
  8
0
  6
CONTINUOUS
 62
     7
 10
116.5919501461
 20
145.5864041653
 30
0.0
  0
VERTEX
  5
1CF
  8
0
  6
CONTINUOUS
 62
     7
 10
116.7950460856
 20
145.8381175548
 30
0.0
  0
VERTEX
  5
1D0
  8
0
  6
CONTINUOUS
 62
     7
 10
116.9714006489
 20
146.0934655019
 30
0.0
  0
VERTEX
  5
1D1
  8
0
  6
CONTINUOUS
 62
     7
 10
117.1208511125
 20
146.3517697911
 30
0.0
  0
VERTEX
  5
1D2
  8
0
  6
CONTINUOUS
 62
     7
 10
117.24331192
 20
146.6123579312
 30
0.0
  0
VERTEX
  5
1D3
  8
0
  6
CONTINUOUS
 62
     7
 10
117.3387720794
 20
146.8745652256
 30
0.0
  0
VERTEX
  5
1D4
  8
0
  6
CONTINUOUS
 62
     7
 10
117.4072923378
 20
147.1377366793
 30
0.0
  0
VERTEX
  5
1D5
  8
0
  6
CONTINUOUS
 62
     7
 10
117.4490021731
 20
147.4012287411
 30
0.0
  0
VERTEX
  5
1D6
  8
0
  6
CONTINUOUS
 62
     7
 10
117.4640966405
 20
147.6644108784
 30
0.0
  0
VERTEX
  5
1D7
  8
0
  6
CONTINUOUS
 62
     7
 10
117.4528331093
 20
147.9266669869
 30
0.0
  0
VERTEX
  5
1D8
  8
0
  6
CONTINUOUS
 62
     7
 10
117.4155279237
 20
148.1873966375
 30
0.0
  0
VERTEX
  5
1D9
  8
0
  6
CONTINUOUS
 62
     7
 10
117.3525530211
 20
148.4460161634
 30
0.0
  0
VERTEX
  5
1DA
  8
0
  6
CONTINUOUS
 62
     7
 10
117.2643325356
 20
148.7019595944
 30
0.0
  0
VERTEX
  5
1DB
  8
0
  6
CONTINUOUS
 62
     7
 10
117.1513394166
 20
148.9546794437
 30
0.0
  0
VERTEX
  5
1DC
  8
0
  6
CONTINUOUS
 62
     7
 10
117.014092084
 20
149.203647355
 30
0.0
  0
VERTEX
  5
1DD
  8
0
  6
CONTINUOUS
 62
     7
 10
116.8531511458
 20
149.4483546169
 30
0.0
  0
VERTEX
  5
1DE
  8
0
  6
CONTINUOUS
 62
     7
 10
116.6691161949
 20
149.6883125556
 30
0.0
  0
VERTEX
  5
1DF
  8
0
  6
CONTINUOUS
 62
     7
 10
116.4626227029
 20
149.923052812
 30
0.0
  0
VERTEX
  5
1E0
  8
0
  6
CONTINUOUS
 62
     7
 10
116.2343390269
 20
150.1521275153
 30
0.0
  0
VERTEX
  5
1E1
  8
0
  6
CONTINUOUS
 62
     7
 10
115.9849635387
 20
150.3751093605
 30
0.0
  0
VERTEX
  5
1E2
  8
0
  6
CONTINUOUS
 62
     7
 10
115.7152218887
 20
150.5915916006
 30
0.0
  0
VERTEX
  5
1E3
  8
0
  6
CONTINUOUS
 62
     7
 10
115.4258644104
 20
150.8011879627
 30
0.0
  0
VERTEX
  5
1E4
  8
0
  6
CONTINUOUS
 62
     7
 10
115.1176636721
 20
151.0035324972
 30
0.0
  0
VERTEX
  5
1E5
  8
0
  6
CONTINUOUS
 62
     7
 10
114.7914121789
 20
151.1982793691
 30
0.0
  0
VERTEX
  5
1E6
  8
0
  6
CONTINUOUS
 62
     7
 10
114.4479202266
 20
151.3851026007
 30
0.0
  0
VERTEX
  5
1E7
  8
0
  6
CONTINUOUS
 62
     7
 10
114.0880139094
 20
151.5636957736
 30
0.0
  0
VERTEX
  5
1E8
  8
0
  6
CONTINUOUS
 62
     7
 10
113.7125332777
 20
151.7337716991
 30
0.0
  0
VERTEX
  5
1E9
  8
0
  6
CONTINUOUS
 62
     7
 10
113.3223306458
 20
151.8950620627
 30
0.0
  0
VERTEX
  5
1EA
  8
0
  6
CONTINUOUS
 62
     7
 10
112.9182690453
 20
152.0473170523
 30
0.0
  0
VERTEX
  5
1EB
  8
0
  6
CONTINUOUS
 62
     7
 10
112.5012208183
 20
152.1903049757
 30
0.0
  0
VERTEX
  5
1EC
  8
0
  6
CONTINUOUS
 62
     7
 10
112.0720663473
 20
152.3238118727
 30
0.0
  0
VERTEX
  5
1ED
  8
0
  6
CONTINUOUS
 62
     7
 10
111.6316929127
 20
152.4476411304
 30
0.0
  0
VERTEX
  5
1EE
  8
0
  6
CONTINUOUS
 62
     7
 10
111.1809936741
 20
152.5616131037
 30
0.0
  0
VERTEX
  5
1EF
  8
0
  6
CONTINUOUS
 62
     7
 10
110.7208667643
 20
152.6655647491
 30
0.0
  0
VERTEX
  5
1F0
  8
0
  6
CONTINUOUS
 62
     7
 10
110.2522144915
 20
152.7593492738
 30
0.0
  0
VERTEX
  5
1F1
  8
0
  6
CONTINUOUS
 62
     7
 10
109.7759426386
 20
152.8428358055
 30
0.0
  0
VERTEX
  5
1F2
  8
0
  6
CONTINUOUS
 62
     7
 10
109.2929598527
 20
152.9159090861
 30
0.0
  0
VERTEX
  5
1F3
  8
0
  6
CONTINUOUS
 62
     7
 10
108.804177114
 20
152.9784691925
 30
0.0
  0
VERTEX
  5
1F4
  8
0
  6
CONTINUOUS
 62
     7
 10
108.3105072769
 20
153.0304312871
 30
0.0
  0
VERTEX
  5
1F5
  8
0
  6
CONTINUOUS
 62
     7
 10
107.8128646723
 20
153.0717254006
 30
0.0
  0
VERTEX
  5
1F6
  8
0
  6
CONTINUOUS
 62
     7
 10
107.3121647623
 20
153.1022962497
 30
0.0
  0
VERTEX
  5
1F7
  8
0
  6
CONTINUOUS
 62
     7
 10
106.809323837
 20
153.1221030896
 30
0.0
  0
VERTEX
  5
1F8
  8
0
  6
CONTINUOUS
 62
     7
 10
106.3052587445
 20
153.1311196047
 30
0.0
  0
VERTEX
  5
1F9
  8
0
  6
CONTINUOUS
 62
     7
 10
105.8008866443
 20
153.1293338372
 30
0.0
  0
VERTEX
  5
1FA
  8
0
  6
CONTINUOUS
 62
     7
 10
105.2971247727
 20
153.1167481544
 30
0.0
  0
VERTEX
  5
1FB
  8
0
  6
CONTINUOUS
 62
     7
 10
104.7948902124
 20
153.093379255
 30
0.0
  0
VERTEX
  5
1FC
  8
0
  6
CONTINUOUS
 62
     7
 10
104.2950996555
 20
153.0592582149
 30
0.0
  0
VERTEX
  5
1FD
  8
0
  6
CONTINUOUS
 62
     7
 10
103.7986691496
 20
153.0144305711
 30
0.0
  0
VERTEX
  5
1FE
  8
0
  6
CONTINUOUS
 62
     7
 10
103.3065138182
 20
152.958956444
 30
0.0
  0
VERTEX
  5
1FF
  8
0
  6
CONTINUOUS
 62
     7
 10
102.8195475447
 20
152.8929106962
 30
0.0
  0
VERTEX
  5
200
  8
0
  6
CONTINUOUS
 62
     7
 10
102.3386826108
 20
152.8163831265
 30
0.0
  0
VERTEX
  5
201
  8
0
  6
CONTINUOUS
 62
     7
 10
101.8648292796
 20
152.7294786987
 30
0.0
  0
VERTEX
  5
202
  8
0
  6
CONTINUOUS
 62
     7
 10
101.3988953135
 20
152.6323178004
 30
0.0
  0
VERTEX
  5
203
  8
0
  6
CONTINUOUS
 62
     7
 10
100.9417854188
 20
152.5250365318
 30
0.0
  0
SEQEND
  5
2B1
  8
0
  6
CONTINUOUS
 62
     7
  0
LINE
  5
59
  8
0
  6
CONTINUOUS
 62
     7
 10
100.9417854188
 20
152.5250365318
 30
0.0
 11
102.3558497045
 21
151.8660785369
 31
0.0
  0
POLYLINE
  5
5A
  8
0
  6
CONTINUOUS
 62
     7
 66
     1
 10
0.0
 20
0.0
 30
0.0
  0
VERTEX
  5
204
  8
0
  6
CONTINUOUS
 62
     7
 10
102.3558497045
 20
151.8660785369
 30
0.0
  0
VERTEX
  5
205
  8
0
  6
CONTINUOUS
 62
     7
 10
102.5285872573
 20
151.7776345888
 30
0.0
  0
VERTEX
  5
206
  8
0
  6
CONTINUOUS
 62
     7
 10
102.682853249
 20
151.681924143
 30
0.0
  0
VERTEX
  5
207
  8
0
  6
CONTINUOUS
 62
     7
 10
102.8173208299
 20
151.5796903164
 30
0.0
  0
VERTEX
  5
208
  8
0
  6
CONTINUOUS
 62
     7
 10
102.9308069006
 20
151.4717341663
 30
0.0
  0
VERTEX
  5
209
  8
0
  6
CONTINUOUS
 62
     7
 10
103.0222837396
 20
151.358909789
 30
0.0
  0
VERTEX
  5
20A
  8
0
  6
CONTINUOUS
 62
     7
 10
103.0908900063
 20
151.2421188273
 30
0.0
  0
VERTEX
  5
20B
  8
0
  6
CONTINUOUS
 62
     7
 10
103.1359409603
 20
151.1223043787
 30
0.0
  0
VERTEX
  5
20C
  8
0
  6
CONTINUOUS
 62
     7
 10
103.1569377268
 20
151.000444304
 30
0.0
  0
VERTEX
  5
20D
  8
0
  6
CONTINUOUS
 62
     7
 10
103.1535754243
 20
150.8775439471
 30
0.0
  0
VERTEX
  5
20E
  8
0
  6
CONTINUOUS
 62
     7
 10
103.1257499636
 20
150.7546282924
 30
0.0
  0
VERTEX
  5
20F
  8
0
  6
CONTINUOUS
 62
     7
 10
103.0735633263
 20
150.6327335988
 30
0.0
  0
VERTEX
  5
210
  8
0
  6
CONTINUOUS
 62
     7
 10
102.9973271305
 20
150.5128985659
 30
0.0
  0
VERTEX
  5
211
  8
0
  6
CONTINUOUS
 62
     7
 10
102.897564306
 20
150.396155105
 30
0.0
  0
VERTEX
  5
212
  8
0
  6
CONTINUOUS
 62
     7
 10
102.7750087122
 20
150.2835188022
 30
0.0
  0
SEQEND
  5
2B0
  8
0
  6
CONTINUOUS
 62
     7
  0
LINE
  5
5B
  8
0
  6
CONTINUOUS
 62
     7
 10
102.7750087122
 20
150.2835188022
 30
0.0
 11
104.4065650432
 21
149.5075032269
 31
0.0
  0
POLYLINE
  5
5C
  8
0
  6
CONTINUOUS
 62
     7
 66
     1
 10
0.0
 20
0.0
 30
0.0
  0
VERTEX
  5
213
  8
0
  6
CONTINUOUS
 62
     7
 10
104.4065650432
 20
149.5075032269
 30
0.0
  0
VERTEX
  5
214
  8
0
  6
CONTINUOUS
 62
     7
 10
104.6721348912
 20
149.5734796684
 30
0.0
  0
VERTEX
  5
215
  8
0
  6
CONTINUOUS
 62
     7
 10
104.9482980425
 20
149.6282186269
 30
0.0
  0
VERTEX
  5
216
  8
0
  6
CONTINUOUS
 62
     7
 10
105.2330359968
 20
149.6713515356
 30
0.0
  0
VERTEX
  5
217
  8
0
  6
CONTINUOUS
 62
     7
 10
105.524281443
 20
149.7025892914
 30
0.0
  0
VERTEX
  5
218
  8
0
  6
CONTINUOUS
 62
     7
 10
105.8199303767
 20
149.7217232441
 30
0.0
  0
VERTEX
  5
219
  8
0
  6
CONTINUOUS
 62
     7
 10
106.1178541354
 20
149.7286258905
 30
0.0
  0
VERTEX
  5
21A
  8
0
  6
CONTINUOUS
 62
     7
 10
106.4159113725
 20
149.7232512891
 30
0.0
  0
VERTEX
  5
21B
  8
0
  6
CONTINUOUS
 62
     7
 10
106.7119599983
 20
149.7056352086
 30
0.0
  0
VERTEX
  5
21C
  8
0
  6
CONTINUOUS
 62
     7
 10
107.0038691189
 20
149.6758950128
 30
0.0
  0
VERTEX
  5
21D
  8
0
  6
CONTINUOUS
 62
     7
 10
107.2895310049
 20
149.6342292784
 30
0.0
  0
VERTEX
  5
21E
  8
0
  6
CONTINUOUS
 62
     7
 10
107.5668731168
 20
149.5809171375
 30
0.0
  0
VERTEX
  5
21F
  8
0
  6
CONTINUOUS
 62
     7
 10
107.8338702123
 20
149.5163173259
 30
0.0
  0
VERTEX
  5
220
  8
0
  6
CONTINUOUS
 62
     7
 10
108.0885565479
 20
149.4408669154
 30
0.0
  0
VERTEX
  5
221
  8
0
  6
CONTINUOUS
 62
     7
 10
108.3290381791
 20
149.3550797012
 30
0.0
  0
VERTEX
  5
222
  8
0
  6
CONTINUOUS
 62
     7
 10
108.55350535
 20
149.2595442117
 30
0.0
  0
VERTEX
  5
223
  8
0
  6
CONTINUOUS
 62
     7
 10
108.7602449442
 20
149.1549213038
 30
0.0
  0
VERTEX
  5
224
  8
0
  6
CONTINUOUS
 62
     7
 10
108.9476529561
 20
149.041941304
 30
0.0
  0
VERTEX
  5
225
  8
0
  6
CONTINUOUS
 62
     7
 10
109.1142469169
 20
148.9214006588
 30
0.0
  0
VERTEX
  5
226
  8
0
  6
CONTINUOUS
 62
     7
 10
109.2586781939
 20
148.794158052
 30
0.0
  0
VERTEX
  5
227
  8
0
  6
CONTINUOUS
 62
     7
 10
109.3797440578
 20
148.6611299568
 30
0.0
  0
VERTEX
  5
228
  8
0
  6
CONTINUOUS
 62
     7
 10
109.4763993922
 20
148.5232855902
 30
0.0
  0
VERTEX
  5
229
  8
0
  6
CONTINUOUS
 62
     7
 10
109.5477678997
 20
148.3816412466
 30
0.0
  0
VERTEX
  5
22A
  8
0
  6
CONTINUOUS
 62
     7
 10
109.5931526417
 20
148.2372539957
 30
0.0
  0
VERTEX
  5
22B
  8
0
  6
CONTINUOUS
 62
     7
 10
109.6120457279
 20
148.0912147404
 30
0.0
  0
VERTEX
  5
22C
  8
0
  6
CONTINUOUS
 62
     7
 10
109.6041369655
 20
147.944640645
 30
0.0
  0
VERTEX
  5
22D
  8
0
  6
CONTINUOUS
 62
     7
 10
109.5693212628
 20
147.7986669565
 30
0.0
  0
VERTEX
  5
22E
  8
0
  6
CONTINUOUS
 62
     7
 10
109.5077045813
 20
147.6544382593
 30
0.0
  0
VERTEX
  5
22F
  8
0
  6
CONTINUOUS
 62
     7
 10
109.4196082323
 20
147.5130992203
 30
0.0
  0
VERTEX
  5
230
  8
0
  6
CONTINUOUS
 62
     7
 10
109.3055713197
 20
147.3757848999
 30
0.0
  0
VERTEX
  5
231
  8
0
  6
CONTINUOUS
 62
     7
 10
109.1663511489
 20
147.2436107197
 30
0.0
  0
SEQEND
  5
2AF
  8
0
  6
CONTINUOUS
 62
     7
  0
LINE
  5
5D
  8
0
  6
CONTINUOUS
 62
     7
 10
109.1663511489
 20
147.2436107197
 30
0.0
 11
110.9467310736
 21
146.396810321
 31
0.0
  0
ARC
  5
5E
  8
0
  6
CONTINUOUS
 62
     7
 10
112.4155179049
 20
140.8203609922
 30
0.0
 40
5.766638697975052
 50
67.0853797169
 51
104.7560556022
  0
LINE
  5
5F
  8
0
  6
CONTINUOUS
 62
     7
 10
114.6608105717
 20
146.1319316369
 30
0.0
 11
116.3623550647
 21
145.3390070445
 31
0.0
  0
LINE
  5
60
  8
0
  6
CONTINUOUS
 62
     7
 10
96.9759992357
 20
151.9363001465
 30
0.0
 11
97.9603488505
 21
151.46024786
 31
0.0
  0
ARC
  5
61
  8
0
  6
CONTINUOUS
 62
     7
 10
103.536485142
 20
140.2576518455
 30
0.0
 40
12.51365068251974
 50
110.3451151252
 51
116.4620068505
  0
LINE
  5
62
  8
0
  6
CONTINUOUS
 62
     7
 10
99.1858135952
 20
151.9906442386
 30
0.0
 11
98.2005675448
 21
152.459255874
 31
0.0
  0
POLYLINE
  5
63
  8
0
  6
CONTINUOUS
 62
     7
 66
     1
 10
0.0
 20
0.0
 30
0.0
  0
VERTEX
  5
232
  8
0
  6
CONTINUOUS
 62
     7
 10
116.4114306948
 20
143.7976404734
 30
0.0
  0
VERTEX
  5
233
  8
0
  6
CONTINUOUS
 62
     7
 10
116.769633596
 20
144.0359637718
 30
0.0
  0
VERTEX
  5
234
  8
0
  6
CONTINUOUS
 62
     7
 10
117.1029659076
 20
144.2813741634
 30
0.0
  0
VERTEX
  5
235
  8
0
  6
CONTINUOUS
 62
     7
 10
117.4108921849
 20
144.5332284354
 30
0.0
  0
VERTEX
  5
236
  8
0
  6
CONTINUOUS
 62
     7
 10
117.6929555903
 20
144.7908781511
 30
0.0
  0
VERTEX
  5
237
  8
0
  6
CONTINUOUS
 62
     7
 10
117.948776883
 20
145.053672101
 30
0.0
  0
VERTEX
  5
238
  8
0
  6
CONTINUOUS
 62
     7
 10
118.1780530563
 20
145.320958647
 30
0.0
  0
VERTEX
  5
239
  8
0
  6
CONTINUOUS
 62
     7
 10
118.3805556563
 20
145.5920879472
 30
0.0
  0
VERTEX
  5
23A
  8
0
  6
CONTINUOUS
 62
     7
 10
118.5561288122
 20
145.8664140528
 30
0.0
  0
VERTEX
  5
23B
  8
0
  6
CONTINUOUS
 62
     7
 10
118.7046870139
 20
146.1432968689
 30
0.0
  0
VERTEX
  5
23C
  8
0
  6
CONTINUOUS
 62
     7
 10
118.8262126698
 20
146.422103974
 30
0.0
  0
VERTEX
  5
23D
  8
0
  6
CONTINUOUS
 62
     7
 10
118.9207534779
 20
146.7022122953
 30
0.0
  0
VERTEX
  5
23E
  8
0
  6
CONTINUOUS
 62
     7
 10
118.9884196439
 20
146.9830096356
 30
0.0
  0
VERTEX
  5
23F
  8
0
  6
CONTINUOUS
 62
     7
 10
119.0293809767
 20
147.2638960532
 30
0.0
  0
VERTEX
  5
240
  8
0
  6
CONTINUOUS
 62
     7
 10
119.0438638936
 20
147.5442850961
 30
0.0
  0
VERTEX
  5
241
  8
0
  6
CONTINUOUS
 62
     7
 10
119.0321483624
 20
147.8236048902
 30
0.0
  0
VERTEX
  5
242
  8
0
  6
CONTINUOUS
 62
     7
 10
118.9945648091
 20
148.1012990885
 30
0.0
  0
VERTEX
  5
243
  8
0
  6
CONTINUOUS
 62
     7
 10
118.931491015
 20
148.3768276835
 30
0.0
  0
VERTEX
  5
244
  8
0
  6
CONTINUOUS
 62
     7
 10
118.8433490287
 20
148.6496676885
 30
0.0
  0
VERTEX
  5
245
  8
0
  6
CONTINUOUS
 62
     7
 10
118.7306021114
 20
148.9193136957
 30
0.0
  0
VERTEX
  5
246
  8
0
  6
CONTINUOUS
 62
     7
 10
118.5937517365
 20
149.1852783153
 30
0.0
  0
VERTEX
  5
247
  8
0
  6
CONTINUOUS
 62
     7
 10
118.4333346608
 20
149.4470925053
 30
0.0
  0
VERTEX
  5
248
  8
0
  6
CONTINUOUS
 62
     7
 10
118.2499200794
 20
149.7043057984
 30
0.0
  0
VERTEX
  5
249
  8
0
  6
CONTINUOUS
 62
     7
 10
118.0441068807
 20
149.9564864338
 30
0.0
  0
VERTEX
  5
24A
  8
0
  6
CONTINUOUS
 62
     7
 10
117.8165210095
 20
150.2032214028
 30
0.0
  0
VERTEX
  5
24B
  8
0
  6
CONTINUOUS
 62
     7
 10
117.5678129477
 20
150.4441164156
 30
0.0
  0
VERTEX
  5
24C
  8
0
  6
CONTINUOUS
 62
     7
 10
117.2986553204
 20
150.6787957975
 30
0.0
  0
VERTEX
  5
24D
  8
0
  6
CONTINUOUS
 62
     7
 10
117.0097406322
 20
150.9069023222
 30
0.0
  0
VERTEX
  5
24E
  8
0
  6
CONTINUOUS
 62
     7
 10
116.7017791372
 20
151.128096991
 30
0.0
  0
VERTEX
  5
24F
  8
0
  6
CONTINUOUS
 62
     7
 10
116.3754968451
 20
151.3420587634
 30
0.0
  0
VERTEX
  5
250
  8
0
  6
CONTINUOUS
 62
     7
 10
116.0316336656
 20
151.5484842489
 30
0.0
  0
VERTEX
  5
251
  8
0
  6
CONTINUOUS
 62
     7
 10
115.6709416881
 20
151.7470873648
 30
0.0
  0
VERTEX
  5
252
  8
0
  6
CONTINUOUS
 62
     7
 10
115.2941835992
 20
151.9375989674
 30
0.0
  0
VERTEX
  5
253
  8
0
  6
CONTINUOUS
 62
     7
 10
114.9021312316
 20
152.1197664633
 30
0.0
  0
VERTEX
  5
254
  8
0
  6
CONTINUOUS
 62
     7
 10
114.4955642454
 20
152.2933534061
 30
0.0
  0
VERTEX
  5
255
  8
0
  6
CONTINUOUS
 62
     7
 10
114.0752689342
 20
152.4581390839
 30
0.0
  0
VERTEX
  5
256
  8
0
  6
CONTINUOUS
 62
     7
 10
113.6420371544
 20
152.6139181034
 30
0.0
  0
VERTEX
  5
257
  8
0
  6
CONTINUOUS
 62
     7
 10
113.1966653706
 20
152.7604999748
 30
0.0
  0
VERTEX
  5
258
  8
0
  6
CONTINUOUS
 62
     7
 10
112.7399538133
 20
152.8977087019
 30
0.0
  0
VERTEX
  5
259
  8
0
  6
CONTINUOUS
 62
     7
 10
112.2727057416
 20
153.0253823818
 30
0.0
  0
VERTEX
  5
25A
  8
0
  6
CONTINUOUS
 62
     7
 10
111.7957268052
 20
153.1433728175
 30
0.0
  0
VERTEX
  5
25B
  8
0
  6
CONTINUOUS
 62
     7
 10
111.3098244994
 20
153.2515451472
 30
0.0
  0
VERTEX
  5
25C
  8
0
  6
CONTINUOUS
 62
     7
 10
110.8158077063
 20
153.3497774923
 30
0.0
  0
VERTEX
  5
25D
  8
0
  6
CONTINUOUS
 62
     7
 10
110.314486315
 20
153.4379606285
 30
0.0
  0
VERTEX
  5
25E
  8
0
  6
CONTINUOUS
 62
     7
 10
109.8066709142
 20
153.5159976807
 30
0.0
  0
VERTEX
  5
25F
  8
0
  6
CONTINUOUS
 62
     7
 10
109.2931725498
 20
153.5838038445
 30
0.0
  0
VERTEX
  5
260
  8
0
  6
CONTINUOUS
 62
     7
 10
108.7748025409
 20
153.6413061371
 30
0.0
  0
VERTEX
  5
261
  8
0
  6
CONTINUOUS
 62
     7
 10
108.252372346
 20
153.6884431774
 30
0.0
  0
VERTEX
  5
262
  8
0
  6
CONTINUOUS
 62
     7
 10
107.7266934734
 20
153.725164998
 30
0.0
  0
VERTEX
  5
263
  8
0
  6
CONTINUOUS
 62
     7
 10
107.1985774274
 20
153.7514328898
 30
0.0
  0
VERTEX
  5
264
  8
0
  6
CONTINUOUS
 62
     7
 10
106.6688356841
 20
153.7672192801
 30
0.0
  0
VERTEX
  5
265
  8
0
  6
CONTINUOUS
 62
     7
 10
106.1382796882
 20
153.7725076453
 30
0.0
  0
VERTEX
  5
266
  8
0
  6
CONTINUOUS
 62
     7
 10
105.6077208655
 20
153.767292458
 30
0.0
  0
VERTEX
  5
267
  8
0
  6
CONTINUOUS
 62
     7
 10
105.0779706415
 20
153.751579169
 30
0.0
  0
VERTEX
  5
268
  8
0
  6
CONTINUOUS
 62
     7
 10
104.5498404611
 20
153.7253842254
 30
0.0
  0
VERTEX
  5
269
  8
0
  6
CONTINUOUS
 62
     7
 10
104.0241417999
 20
153.6887351224
 30
0.0
  0
VERTEX
  5
26A
  8
0
  6
CONTINUOUS
 62
     7
 10
103.5016861622
 20
153.6416704912
 30
0.0
  0
VERTEX
  5
26B
  8
0
  6
CONTINUOUS
 62
     7
 10
102.9832850563
 20
153.5842402202
 30
0.0
  0
VERTEX
  5
26C
  8
0
  6
CONTINUOUS
 62
     7
 10
102.4697499414
 20
153.5165056105
 30
0.0
  0
VERTEX
  5
26D
  8
0
  6
CONTINUOUS
 62
     7
 10
101.9618921379
 20
153.4385395633
 30
0.0
  0
VERTEX
  5
26E
  8
0
  6
CONTINUOUS
 62
     7
 10
101.4605226942
 20
153.3504267997
 30
0.0
  0
VERTEX
  5
26F
  8
0
  6
CONTINUOUS
 62
     7
 10
100.966452203
 20
153.2522641099
 30
0.0
  0
VERTEX
  5
270
  8
0
  6
CONTINUOUS
 62
     7
 10
100.4804905592
 20
153.144160631
 30
0.0
  0
VERTEX
  5
271
  8
0
  6
CONTINUOUS
 62
     7
 10
100.0034466531
 20
153.0262381523
 30
0.0
  0
VERTEX
  5
272
  8
0
  6
CONTINUOUS
 62
     7
 10
99.5361279913
 20
152.8986314441
 30
0.0
  0
VERTEX
  5
273
  8
0
  6
CONTINUOUS
 62
     7
 10
99.0793402381
 20
152.7614886092
 30
0.0
  0
VERTEX
  5
274
  8
0
  6
CONTINUOUS
 62
     7
 10
98.6338866713
 20
152.6149714536
 30
0.0
  0
VERTEX
  5
275
  8
0
  6
CONTINUOUS
 62
     7
 10
98.2005675448
 20
152.459255874
 30
0.0
  0
SEQEND
  5
2AE
  8
0
  6
CONTINUOUS
 62
     7
  0
LINE
  5
64
  8
0
  6
CONTINUOUS
 62
     7
 10
116.4114306948
 20
143.7976404734
 30
0.0
 11
115.1708948261
 21
144.3876753607
 31
0.0
  0
ARC
  5
65
  8
0
  6
CONTINUOUS
 62
     7
 10
109.7338567281
 20
153.0311044783
 30
0.0
 40
10.2112805362605
 50
294.3631835585
 51
302.1714183307
  0
LINE
  5
66
  8
0
  6
CONTINUOUS
 62
     7
 10
113.9462056821
 20
143.7291494967
 30
0.0
 11
115.1880097739
 21
143.1285867816
 31
0.0
  0
LINE
  5
67
  8
0
  6
CONTINUOUS
 62
     7
 10
96.6511646641
 20
150.6616617252
 30
0.0
 11
96.8341327129
 21
146.2871759085
 31
0.0
  0
ARC
  5
68
  8
0
  6
CONTINUOUS
 62
     7
 10
100.4801763848
 20
141.5776660091
 30
0.0
 40
5.955931325178393
 50
127.7465885333
 51
140.4344846414
  0
LINE
  5
69
  8
0
  6
CONTINUOUS
 62
     7
 10
102.7113701367
 20
144.7580034725
 30
0.0
 11
101.6369216478
 21
145.3104832073
 31
0.0
  0
ARC
  5
6A
  8
0
  6
CONTINUOUS
 62
     7
 10
104.2688441437
 20
143.8122303904
 30
0.0
 40
1.559123027843878
 50
189.2315252883
 51
248.8030651308
  0
LINE
  5
6B
  8
0
  6
CONTINUOUS
 62
     7
 10
98.2188460974
 20
145.5601968637
 30
0.0
 11
96.8341327129
 21
146.2871759085
 31
0.0
  0
ARC
  5
6C
  8
0
  6
CONTINUOUS
 62
     7
 10
100.2758101515
 20
150.1977480037
 30
0.0
 40
5.07326144561579
 50
246.0805444419
 51
285.5626096808
  0
LINE
  5
6D
  8
0
  6
CONTINUOUS
 62
     7
 10
115.1206425161
 20
143.1611670119
 30
0.0
 11
115.1708948261
 21
144.3876753607
 31
0.0
  0
LINE
  5
6E
  8
0
  6
CONTINUOUS
 62
     7
 10
98.2307082286
 20
151.5911171399
 30
0.0
 11
98.2005675448
 21
152.459255874
 31
0.0
  0
LINE
  5
6F
  8
0
  6
CONTINUOUS
 62
     7
 10
116.1231506592
 20
137.6276293059
 30
0.0
 11
116.4114306948
 21
143.7976404734
 31
0.0
  0
ARC
  5
70
  8
0
  6
CONTINUOUS
 62
     7
 10
113.5870354881
 20
142.1165188847
 30
0.0
 40
5.155774414319409
 50
299.4654087408
 51
352.0909894917
  0
LINE
  5
71
  8
0
  6
CONTINUOUS
 62
     7
 10
116.1231506592
 20
137.6276293059
 30
0.0
 11
114.9851302616
 21
138.2144892549
 31
0.0
  0
ARC
  5
72
  8
0
  6
CONTINUOUS
 62
     7
 10
108.3688580416
 20
137.2585577719
 30
0.0
 40
11.40347475659576
 50
45.3017120663
 51
84.7653123808
  0
LINE
  5
73
  8
0
  6
CONTINUOUS
 62
     7
 10
107.9379841682
 20
146.6348524566
 30
0.0
 11
107.9029331639
 21
142.301003713
 31
0.0
  0
POLYLINE
  5
74
  8
0
  6
CONTINUOUS
 62
     7
 66
     1
 10
0.0
 20
0.0
 30
0.0
  0
VERTEX
  5
276
  8
0
  6
CONTINUOUS
 62
     7
 10
109.3601481579
 20
144.1820293083
 30
0.0
  0
VERTEX
  5
277
  8
0
  6
CONTINUOUS
 62
     7
 10
109.3569385258
 20
144.1858851209
 30
0.0
  0
VERTEX
  5
278
  8
0
  6
CONTINUOUS
 62
     7
 10
109.2564042329
 20
144.2925082581
 30
0.0
  0
VERTEX
  5
279
  8
0
  6
CONTINUOUS
 62
     7
 10
109.1489992114
 20
144.3804583366
 30
0.0
  0
VERTEX
  5
27A
  8
0
  6
CONTINUOUS
 62
     7
 10
109.0380386138
 20
144.4470610593
 30
0.0
  0
VERTEX
  5
27B
  8
0
  6
CONTINUOUS
 62
     7
 10
108.9269358904
 20
144.4903153198
 30
0.0
  0
VERTEX
  5
27C
  8
0
  6
CONTINUOUS
 62
     7
 10
108.8190940052
 20
144.5089511783
 30
0.0
  0
VERTEX
  5
27D
  8
0
  6
CONTINUOUS
 62
     7
 10
108.717798801
 20
144.5024629907
 30
0.0
  0
VERTEX
  5
27E
  8
0
  6
CONTINUOUS
 62
     7
 10
108.6261181333
 20
144.471117371
 30
0.0
  0
VERTEX
  5
27F
  8
0
  6
CONTINUOUS
 62
     7
 10
108.5468099412
 20
144.4159366621
 30
0.0
  0
VERTEX
  5
280
  8
0
  6
CONTINUOUS
 62
     7
 10
108.4822418709
 20
144.3386594489
 30
0.0
  0
VERTEX
  5
281
  8
0
  6
CONTINUOUS
 62
     7
 10
108.4343244612
 20
144.2416803235
 30
0.0
  0
VERTEX
  5
282
  8
0
  6
CONTINUOUS
 62
     7
 10
108.4044592883
 20
144.1279716114
 30
0.0
  0
VERTEX
  5
283
  8
0
  6
CONTINUOUS
 62
     7
 10
108.3935028998
 20
144.000990074
 30
0.0
  0
VERTEX
  5
284
  8
0
  6
CONTINUOUS
 62
     7
 10
108.4017468556
 20
143.8645717531
 30
0.0
  0
VERTEX
  5
285
  8
0
  6
CONTINUOUS
 62
     7
 10
108.4289137706
 20
143.722818144
 30
0.0
  0
VERTEX
  5
286
  8
0
  6
CONTINUOUS
 62
     7
 10
108.4741689101
 20
143.5799768118
 30
0.0
  0
VERTEX
  5
287
  8
0
  6
CONTINUOUS
 62
     7
 10
108.5361466253
 20
143.4403194528
 30
0.0
  0
VERTEX
  5
288
  8
0
  6
CONTINUOUS
 62
     7
 10
108.6129907068
 20
143.3080202589
 30
0.0
  0
VERTEX
  5
289
  8
0
  6
CONTINUOUS
 62
     7
 10
108.7024075709
 20
143.1870373277
 30
0.0
  0
VERTEX
  5
28A
  8
0
  6
CONTINUOUS
 62
     7
 10
108.8017310392
 20
143.0809997535
 30
0.0
  0
VERTEX
  5
28B
  8
0
  6
CONTINUOUS
 62
     7
 10
108.9079973182
 20
142.9931029678
 30
0.0
  0
VERTEX
  5
28C
  8
0
  6
CONTINUOUS
 62
     7
 10
109.0180286043
 20
142.9260148474
 30
0.0
  0
VERTEX
  5
28D
  8
0
  6
CONTINUOUS
 62
     7
 10
109.1285235319
 20
142.8817950524
 30
0.0
  0
VERTEX
  5
28E
  8
0
  6
CONTINUOUS
 62
     7
 10
109.23615244
 20
142.8618299843
 30
0.0
  0
VERTEX
  5
28F
  8
0
  6
CONTINUOUS
 62
     7
 10
109.3376551686
 20
142.8667856081
 30
0.0
  0
VERTEX
  5
290
  8
0
  6
CONTINUOUS
 62
     7
 10
109.340910422
 20
142.8673838133
 30
0.0
  0
SEQEND
  5
2AD
  8
0
  6
CONTINUOUS
 62
     7
  0
LINE
  5
75
  8
0
  6
CONTINUOUS
 62
     7
 10
101.5472048746
 20
149.7255684475
 30
0.0
 11
101.6369216478
 21
145.3104832073
 31
0.0
  0
POLYLINE
  5
76
  8
0
  6
CONTINUOUS
 62
     7
 66
     1
 10
0.0
 20
0.0
 30
0.0
  0
VERTEX
  5
291
  8
0
  6
CONTINUOUS
 62
     7
 10
102.6696008048
 20
147.4516145437
 30
0.0
  0
VERTEX
  5
292
  8
0
  6
CONTINUOUS
 62
     7
 10
102.6124595099
 20
147.5265518285
 30
0.0
  0
VERTEX
  5
293
  8
0
  6
CONTINUOUS
 62
     7
 10
102.5191066056
 20
147.6270755286
 30
0.0
  0
VERTEX
  5
294
  8
0
  6
CONTINUOUS
 62
     7
 10
102.4201065781
 20
147.7093099536
 30
0.0
  0
VERTEX
  5
295
  8
0
  6
CONTINUOUS
 62
     7
 10
102.3185119342
 20
147.7707560018
 30
0.0
  0
VERTEX
  5
296
  8
0
  6
CONTINUOUS
 62
     7
 10
102.2174450016
 20
147.8095686966
 30
0.0
  0
VERTEX
  5
297
  8
0
  6
CONTINUOUS
 62
     7
 10
102.1199987833
 20
147.8246104981
 30
0.0
  0
VERTEX
  5
298
  8
0
  6
CONTINUOUS
 62
     7
 10
102.0291403437
 20
147.8154807308
 30
0.0
  0
VERTEX
  5
299
  8
0
  6
CONTINUOUS
 62
     7
 10
101.947619968
 20
147.7825208793
 30
0.0
  0
VERTEX
  5
29A
  8
0
  6
CONTINUOUS
 62
     7
 10
101.8778889232
 20
147.7267964437
 30
0.0
  0
VERTEX
  5
29B
  8
0
  6
CONTINUOUS
 62
     7
 10
101.8220281396
 20
147.6500568513
 30
0.0
  0
VERTEX
  5
29C
  8
0
  6
CONTINUOUS
 62
     7
 10
101.7816895806
 20
147.5546755721
 30
0.0
  0
VERTEX
  5
29D
  8
0
  6
CONTINUOUS
 62
     7
 10
101.7580515192
 20
147.4435730522
 30
0.0
  0
VERTEX
  5
29E
  8
0
  6
CONTINUOUS
 62
     7
 10
101.7517884182
 20
147.3201253808
 30
0.0
  0
VERTEX
  5
29F
  8
0
  6
CONTINUOUS
 62
     7
 10
101.7630556563
 20
147.188061753
 30
0.0
  0
VERTEX
  5
2A0
  8
0
  6
CONTINUOUS
 62
     7
 10
101.7914889469
 20
147.051353817
 30
0.0
  0
VERTEX
  5
2A1
  8
0
  6
CONTINUOUS
 62
     7
 10
101.8362179908
 20
146.9140999384
 30
0.0
  0
VERTEX
  5
2A2
  8
0
  6
CONTINUOUS
 62
     7
 10
101.8958936499
 20
146.780407304
 30
0.0
  0
VERTEX
  5
2A3
  8
0
  6
CONTINUOUS
 62
     7
 10
101.9687277401
 20
146.6542746618
 30
0.0
  0
VERTEX
  5
2A4
  8
0
  6
CONTINUOUS
 62
     7
 10
102.0525443781
 20
146.5394783764
 30
0.0
  0
VERTEX
  5
2A5
  8
0
  6
CONTINUOUS
 62
     7
 10
102.1448416748
 20
146.4394643747
 30
0.0
  0
VERTEX
  5
2A6
  8
0
  6
CONTINUOUS
 62
     7
 10
102.2428624163
 20
146.3572484797
 30
0.0
  0
VERTEX
  5
2A7
  8
0
  6
CONTINUOUS
 62
     7
 10
102.3436722118
 20
146.2953275646
 30
0.0
  0
VERTEX
  5
2A8
  8
0
  6
CONTINUOUS
 62
     7
 10
102.4442433948
 20
146.2556038881
 30
0.0
  0
VERTEX
  5
2A9
  8
0
  6
CONTINUOUS
 62
     7
 10
102.5415427517
 20
146.2393248712
 30
0.0
  0
VERTEX
  5
2AA
  8
0
  6
CONTINUOUS
 62
     7
 10
102.6326209279
 20
146.2470404148
 30
0.0
  0
VERTEX
  5
2AB
  8
0
  6
CONTINUOUS
 62
     7
 10
102.6879977318
 20
146.2652377456
 30
0.0
  0
SEQEND
  5
2AC
  8
0
  6
CONTINUOUS
 62
     7
  0
LINE
  5
77
  8
0
  6
CONTINUOUS
 62
     7
 10
98.0615224099
 20
149.9649491269
 30
0.0
 11
98.2188460974
 21
145.5601968637
 31
0.0
  0
LINE
  5
78
  8
0
  6
CONTINUOUS
 62
     8
 10
110.3675787557
 20
143.8857933125
 30
0.0
 11
110.3433120823
 21
142.624025925
 31
0.0
  0
TEXT
  5
79
  8
0
  6
CONTINUOUS
 62
     7
 10
0.0
 20
6.732893805
 30
0.0
 40
3.633
  1
Edition tudiante de SolidWorks.
 41
0.6671875
 11
0.0
 21
5.4495
 31
0.0
 73
     1
  0
TEXT
  5
7A
  8
0
  6
CONTINUOUS
 62
     7
 10
0.0
 20
1.283393805
 30
0.0
 40
3.633
  1
A usage universitaire uniquement.
 41
0.6681818182
 11
0.0
 21
0.0
 31
0.0
 73
     1
  0
ENDSEC
  0
EOF
