  0
SECTION
  2
HEADER
  9
$ACADVER
  1
AC1009
  9
$DWGCODEPAGE
  3
ansi_1252
  9
$INSBASE
 10
0.0
 20
0.0
 30
0.0
  9
$EXTMIN
 10
0.0
 20
0.0
 30
0.0
  9
$EXTMAX
 10
210.0
 20
297.0
 30
0.0
  9
$LIMMIN
 10
0.0
 20
0.0
  9
$LIMMAX
 10
210.0
 20
297.0
  9
$ORTHOMODE
 70
     0
  9
$REGENMODE
 70
     1
  9
$FILLMODE
 70
     1
  9
$QTEXTMODE
 70
     0
  9
$MIRRTEXT
 70
     1
  9
$DRAGMODE
 70
     2
  9
$LTSCALE
 40
1.0
  9
$OSMODE
 70
    37
  9
$ATTMODE
 70
     1
  9
$TEXTSIZE
 40
3.5
  9
$TRACEWID
 40
1.0
  9
$TEXTSTYLE
  7
STANDARD
  9
$CLAYER
  8
0
  9
$CELTYPE
  6
BYLAYER
  9
$CECOLOR
 62
   256
  9
$DIMSCALE
 40
1.0
  9
$DIMASZ
 40
3.302
  9
$DIMEXO
 40
1.0
  9
$DIMDLI
 40
3.75
  9
$DIMRND
 40
0.0
  9
$DIMDLE
 40
0.0
  9
$DIMEXE
 40
1.0
  9
$DIMTP
 40
0.0
  9
$DIMTM
 40
0.0
  9
$DIMTXT
 40
3.5
  9
$DIMCEN
 40
2.5
  9
$DIMTSZ
 40
0.0
  9
$DIMTOL
 70
     0
  9
$DIMLIM
 70
     0
  9
$DIMTIH
 70
     1
  9
$DIMTOH
 70
     1
  9
$DIMSE1
 70
     0
  9
$DIMSE2
 70
     0
  9
$DIMTAD
 70
     1
  9
$DIMZIN
 70
     0
  9
$DIMBLK
  1

  9
$DIMASO
 70
     1
  9
$DIMSHO
 70
     1
  9
$DIMPOST
  1

  9
$DIMAPOST
  1

  9
$DIMALT
 70
     0
  9
$DIMALTD
 70
     3
  9
$DIMALTF
 40
0.0393700787
  9
$DIMLFAC
 40
0.2
  9
$DIMTOFL
 70
     1
  9
$DIMTVP
 40
0.0
  9
$DIMTIX
 70
     0
  9
$DIMSOXD
 70
     0
  9
$DIMSAH
 70
     0
  9
$DIMBLK1
  1

  9
$DIMBLK2
  1

  9
$DIMSTYLE
  2
ISO-25
  9
$DIMCLRD
 70
     0
  9
$DIMCLRE
 70
     0
  9
$DIMCLRT
 70
     0
  9
$DIMTFAC
 40
1.0
  9
$DIMGAP
 40
1.524
  9
$LUNITS
 70
     2
  9
$LUPREC
 70
     2
  9
$SKETCHINC
 40
1.0
  9
$FILLETRAD
 40
10.0
  9
$AUNITS
 70
     0
  9
$AUPREC
 70
     2
  9
$MENU
  1
.
  9
$ELEVATION
 40
0.0
  9
$PELEVATION
 40
0.0
  9
$THICKNESS
 40
0.0
  9
$LIMCHECK
 70
     0
  9
$CHAMFERA
 40
10.0
  9
$CHAMFERB
 40
10.0
  9
$SKPOLY
 70
     0
  9
$TDCREATE
 40
2456455.308113854
  9
$TDUPDATE
 40
2456455.308114039
  9
$TDINDWG
 40
0.0000000116
  9
$TDUSRTIMER
 40
0.0000000116
  9
$USRTIMER
 70
     1
  9
$ANGBASE
 50
0.0
  9
$ANGDIR
 70
     0
  9
$PDMODE
 70
     0
  9
$PDSIZE
 40
-1.0
  9
$PLINEWID
 40
0.0
  9
$COORDS
 70
     1
  9
$SPLFRAME
 70
     0
  9
$SPLINETYPE
 70
     6
  9
$SPLINESEGS
 70
     8
  9
$ATTDIA
 70
     0
  9
$ATTREQ
 70
     1
  9
$HANDLING
 70
     1
  9
$HANDSEED
  5
244
  9
$SURFTAB1
 70
     6
  9
$SURFTAB2
 70
     6
  9
$SURFTYPE
 70
     6
  9
$SURFU
 70
     6
  9
$SURFV
 70
     6
  9
$UCSNAME
  2

  9
$UCSORG
 10
0.0
 20
0.0
 30
0.0
  9
$UCSXDIR
 10
1.0
 20
0.0
 30
0.0
  9
$UCSYDIR
 10
0.0
 20
1.0
 30
0.0
  9
$PUCSNAME
  2

  9
$PUCSORG
 10
0.0
 20
0.0
 30
0.0
  9
$PUCSXDIR
 10
1.0
 20
0.0
 30
0.0
  9
$PUCSYDIR
 10
0.0
 20
1.0
 30
0.0
  9
$USERI1
 70
     0
  9
$USERI2
 70
     0
  9
$USERI3
 70
     0
  9
$USERI4
 70
     0
  9
$USERI5
 70
     0
  9
$USERR1
 40
0.0
  9
$USERR2
 40
0.0
  9
$USERR3
 40
0.0
  9
$USERR4
 40
0.0
  9
$USERR5
 40
0.0
  9
$WORLDVIEW
 70
     1
  9
$SHADEDGE
 70
     3
  9
$SHADEDIF
 70
    70
  9
$TILEMODE
 70
     1
  9
$MAXACTVP
 70
    64
  9
$PLIMCHECK
 70
     0
  9
$PEXTMIN
 10
1.0000000000E+20
 20
1.0000000000E+20
 30
1.0000000000E+20
  9
$PEXTMAX
 10
-1.0000000000E+20
 20
-1.0000000000E+20
 30
-1.0000000000E+20
  9
$PLIMMIN
 10
0.0
 20
0.0
  9
$PLIMMAX
 10
420.0
 20
297.0
  9
$UNITMODE
 70
     0
  9
$VISRETAIN
 70
     1
  9
$PLINEGEN
 70
     0
  9
$PSLTSCALE
 70
     1
  0
ENDSEC
  0
SECTION
  2
TABLES
  0
TABLE
  2
VPORT
 70
     1
  0
VPORT
  2
*ACTIVE
 70
     0
 10
0.0
 20
0.0
 11
1.0
 21
1.0
 12
105.0
 22
148.5
 13
0.0
 23
0.0
 14
10.0
 24
10.0
 15
10.0
 25
10.0
 16
0.0
 26
0.0
 36
1.0
 17
0.0
 27
0.0
 37
0.0
 40
297.0
 41
0.7070707071
 42
50.0
 43
0.0
 44
0.0
 50
0.0
 51
0.0
 71
     0
 72
  2000
 73
     1
 74
     3
 75
     0
 76
     0
 77
     0
 78
     0
  0
ENDTAB
  0
TABLE
  2
LTYPE
 70
     6
  0
LTYPE
  2
CONTINUOUS
 70
     0
  3
Solid line
 72
    65
 73
     0
 40
0.0
  0
LTYPE
  2
HIDDEN
 70
     0
  3
Hidden __ __ __ __ __ __ __ __ __ __ __ __ __ __
 72
    65
 73
     2
 40
1.905
 49
1.27
 49
-0.635
  0
LTYPE
  2
PHANTOM
 70
     0
  3
Phantom ______  __  __  ______  __  __  ______
 72
    65
 73
     6
 40
12.7
 49
6.35
 49
-1.27
 49
1.27
 49
-1.27
 49
1.27
 49
-1.27
  0
LTYPE
  2
CENTER
 70
     0
  3
Center ____ _ ____ _ ____ _ ____ _ ____ _ ____
 72
    65
 73
     4
 40
10.16
 49
6.35
 49
-1.27
 49
1.27
 49
-1.27
  0
LTYPE
  2
CENTERX2
 70
     0
  3
Center (2x) ________  __  ________  __  _____
 72
    65
 73
     4
 40
20.32
 49
12.7
 49
-2.54
 49
2.54
 49
-2.54
  0
LTYPE
  2
DOT2
 70
     0
  3
Dot (.5x) ........................................
 72
    65
 73
     2
 40
0.635
 49
0.0
 49
-0.635
  0
ENDTAB
  0
TABLE
  2
LAYER
 70
     1
  0
LAYER
  2
0
 70
     0
 62
     7
  6
CONTINUOUS
  0
ENDTAB
  0
TABLE
  2
STYLE
 70
     1
  0
STYLE
  2
STANDARD
 70
     0
 40
0.0
 41
1.0
 50
0.0
 71
     0
 42
3.5
  3
txt
  4

  0
ENDTAB
  0
TABLE
  2
VIEW
 70
     0
  0
ENDTAB
  0
TABLE
  2
UCS
 70
     0
  0
ENDTAB
  0
TABLE
  2
APPID
 70
     1
  0
APPID
  2
ACAD
 70
     0
  0
ENDTAB
  0
TABLE
  2
DIMSTYLE
 70
     1
  0
DIMSTYLE
  2
ISO-25
 70
     0
  3

  4

  5

  6

  7

 40
1.0
 41
2.5
 42
0.625
 43
3.75
 44
1.25
 45
0.0
 46
0.0
 47
0.0
 48
0.0
140
2.5
141
2.5
142
0.0
143
0.0393700787
144
1.0
145
0.0
146
1.0
147
0.625
 71
     0
 72
     0
 73
     0
 74
     0
 75
     0
 76
     0
 77
     1
 78
     8
170
     0
171
     3
172
     1
173
     0
174
     0
175
     0
176
     0
177
     0
178
     0
  0
ENDTAB
  0
ENDSEC
  0
SECTION
  2
BLOCKS
  0
BLOCK
  8
0
  2
$MODEL_SPACE
 70
     0
 10
0.0
 20
0.0
 30
0.0
  3
$MODEL_SPACE
  1

  0
ENDBLK
  5
21
  8
0
  0
BLOCK
 67
     1
  8
0
  2
$PAPER_SPACE
 70
     0
 10
0.0
 20
0.0
 30
0.0
  3
$PAPER_SPACE
  1

  0
ENDBLK
  5
1D
 67
     1
  8
0
  0
ENDSEC
  0
SECTION
  2
ENTITIES
  0
POLYLINE
  5
44
  8
0
  6
CONTINUOUS
 62
     7
 66
     1
 10
0.0
 20
0.0
 30
0.0
  0
VERTEX
  5
4E
  8
0
  6
CONTINUOUS
 62
     7
 10
132.3376527331
 20
157.7544441388
 30
0.0
  0
VERTEX
  5
4F
  8
0
  6
CONTINUOUS
 62
     7
 10
132.3109091867
 20
158.6591254867
 30
0.0
  0
VERTEX
  5
50
  8
0
  6
CONTINUOUS
 62
     7
 10
132.2332912063
 20
159.5397608427
 30
0.0
  0
VERTEX
  5
51
  8
0
  6
CONTINUOUS
 62
     7
 10
132.1055383108
 20
160.4125331871
 30
0.0
  0
VERTEX
  5
52
  8
0
  6
CONTINUOUS
 62
     7
 10
131.9284542742
 20
161.2755335926
 30
0.0
  0
VERTEX
  5
53
  8
0
  6
CONTINUOUS
 62
     7
 10
131.7028721648
 20
162.1269989858
 30
0.0
  0
VERTEX
  5
54
  8
0
  6
CONTINUOUS
 62
     7
 10
131.4296277338
 20
162.9653222885
 30
0.0
  0
VERTEX
  5
55
  8
0
  6
CONTINUOUS
 62
     7
 10
131.1095276956
 20
163.7890662377
 30
0.0
  0
VERTEX
  5
56
  8
0
  6
CONTINUOUS
 62
     7
 10
130.743313997
 20
164.5969725345
 30
0.0
  0
VERTEX
  5
57
  8
0
  6
CONTINUOUS
 62
     7
 10
130.3316252657
 20
165.3879649627
 30
0.0
  0
VERTEX
  5
58
  8
0
  6
CONTINUOUS
 62
     7
 10
129.8749575225
 20
166.1611446749
 30
0.0
  0
VERTEX
  5
59
  8
0
  6
CONTINUOUS
 62
     7
 10
129.3736275704
 20
166.9157754409
 30
0.0
  0
VERTEX
  5
5A
  8
0
  6
CONTINUOUS
 62
     7
 10
128.8277443228
 20
167.6512563733
 30
0.0
  0
VERTEX
  5
5B
  8
0
  6
CONTINUOUS
 62
     7
 10
128.2371957325
 20
168.3670796314
 30
0.0
  0
VERTEX
  5
5C
  8
0
  6
CONTINUOUS
 62
     7
 10
127.6016617845
 20
169.062771148
 30
0.0
  0
VERTEX
  5
5D
  8
0
  6
CONTINUOUS
 62
     7
 10
126.9206666804
 20
169.737813972
 30
0.0
  0
VERTEX
  5
5E
  8
0
  6
CONTINUOUS
 62
     7
 10
126.1936845025
 20
170.3915570993
 30
0.0
  0
VERTEX
  5
5F
  8
0
  6
CONTINUOUS
 62
     7
 10
125.4203096036
 20
171.0231184583
 30
0.0
  0
VERTEX
  5
60
  8
0
  6
CONTINUOUS
 62
     7
 10
124.60049169
 20
171.6312993044
 30
0.0
  0
VERTEX
  5
61
  8
0
  6
CONTINUOUS
 62
     7
 10
123.7348123003
 20
172.2145369207
 30
0.0
  0
VERTEX
  5
62
  8
0
  6
CONTINUOUS
 62
     7
 10
122.824745755
 20
172.7709276645
 30
0.0
  0
VERTEX
  5
63
  8
0
  6
CONTINUOUS
 62
     7
 10
121.8728178299
 20
173.2983438064
 30
0.0
  0
VERTEX
  5
64
  8
0
  6
CONTINUOUS
 62
     7
 10
120.8825767279
 20
173.7946386431
 30
0.0
  0
VERTEX
  5
65
  8
0
  6
CONTINUOUS
 62
     7
 10
119.8583451084
 20
174.2578927442
 30
0.0
  0
VERTEX
  5
66
  8
0
  6
CONTINUOUS
 62
     7
 10
118.804965917
 20
174.6865669965
 30
0.0
  0
VERTEX
  5
67
  8
0
  6
CONTINUOUS
 62
     7
 10
117.7278994496
 20
175.0794625465
 30
0.0
  0
VERTEX
  5
68
  8
0
  6
CONTINUOUS
 62
     7
 10
116.6311144182
 20
175.4363843002
 30
0.0
  0
VERTEX
  5
69
  8
0
  6
CONTINUOUS
 62
     7
 10
115.5179804465
 20
175.7575415542
 30
0.0
  0
VERTEX
  5
6A
  8
0
  6
CONTINUOUS
 62
     7
 10
114.3912797235
 20
176.0434066637
 30
0.0
  0
VERTEX
  5
6B
  8
0
  6
CONTINUOUS
 62
     7
 10
113.2532984295
 20
176.2945861137
 30
0.0
  0
VERTEX
  5
6C
  8
0
  6
CONTINUOUS
 62
     7
 10
112.1059416539
 20
176.5117231272
 30
0.0
  0
VERTEX
  5
6D
  8
0
  6
CONTINUOUS
 62
     7
 10
110.9508415112
 20
176.6954328796
 30
0.0
  0
VERTEX
  5
6E
  8
0
  6
CONTINUOUS
 62
     7
 10
109.789445191
 20
176.8462641095
 30
0.0
  0
VERTEX
  5
6F
  8
0
  6
CONTINUOUS
 62
     7
 10
108.6230803105
 20
176.9646791889
 30
0.0
  0
VERTEX
  5
70
  8
0
  6
CONTINUOUS
 62
     7
 10
107.4530000342
 20
177.051045666
 30
0.0
  0
VERTEX
  5
71
  8
0
  6
CONTINUOUS
 62
     7
 10
106.280412133
 20
177.1056340302
 30
0.0
  0
VERTEX
  5
72
  8
0
  6
CONTINUOUS
 62
     7
 10
105.1064962115
 20
177.1286180929
 30
0.0
  0
VERTEX
  5
73
  8
0
  6
CONTINUOUS
 62
     7
 10
103.9324127827
 20
177.1200756508
 30
0.0
  0
VERTEX
  5
74
  8
0
  6
CONTINUOUS
 62
     7
 10
102.759406725
 20
177.0799927446
 30
0.0
  0
VERTEX
  5
75
  8
0
  6
CONTINUOUS
 62
     7
 10
101.5888753788
 20
177.0082797705
 30
0.0
  0
VERTEX
  5
76
  8
0
  6
CONTINUOUS
 62
     7
 10
100.4219316909
 20
176.9047452419
 30
0.0
  0
VERTEX
  5
77
  8
0
  6
CONTINUOUS
 62
     7
 10
99.2596749041
 20
176.7690871581
 30
0.0
  0
VERTEX
  5
78
  8
0
  6
CONTINUOUS
 62
     7
 10
98.1031968913
 20
176.6008840463
 30
0.0
  0
VERTEX
  5
79
  8
0
  6
CONTINUOUS
 62
     7
 10
96.9535952379
 20
176.3995849723
 30
0.0
  0
VERTEX
  5
7A
  8
0
  6
CONTINUOUS
 62
     7
 10
95.8119968225
 20
176.1645003512
 30
0.0
  0
VERTEX
  5
7B
  8
0
  6
CONTINUOUS
 62
     7
 10
94.6795965273
 20
175.8947967362
 30
0.0
  0
VERTEX
  5
7C
  8
0
  6
CONTINUOUS
 62
     7
 10
93.5577165809
 20
175.5895007387
 30
0.0
  0
VERTEX
  5
7D
  8
0
  6
CONTINUOUS
 62
     7
 10
92.4478922437
 20
175.247519916
 30
0.0
  0
VERTEX
  5
7E
  8
0
  6
CONTINUOUS
 62
     7
 10
91.3519878075
 20
174.8676915475
 30
0.0
  0
VERTEX
  5
7F
  8
0
  6
CONTINUOUS
 62
     7
 10
90.2723409585
 20
174.4488725039
 30
0.0
  0
VERTEX
  5
80
  8
0
  6
CONTINUOUS
 62
     7
 10
89.2119204535
 20
173.9900820677
 30
0.0
  0
VERTEX
  5
81
  8
0
  6
CONTINUOUS
 62
     7
 10
88.1744598675
 20
173.490699727
 30
0.0
  0
VERTEX
  5
82
  8
0
  6
CONTINUOUS
 62
     7
 10
87.1650430457
 20
172.9510008022
 30
0.0
  0
VERTEX
  5
83
  8
0
  6
CONTINUOUS
 62
     7
 10
86.1896416705
 20
172.3723188618
 30
0.0
  0
VERTEX
  5
84
  8
0
  6
CONTINUOUS
 62
     7
 10
85.2537792814
 20
171.7565603859
 30
0.0
  0
VERTEX
  5
85
  8
0
  6
CONTINUOUS
 62
     7
 10
84.3625739018
 20
171.1063184276
 30
0.0
  0
VERTEX
  5
86
  8
0
  6
CONTINUOUS
 62
     7
 10
83.5202331662
 20
170.4245638933
 30
0.0
  0
VERTEX
  5
87
  8
0
  6
CONTINUOUS
 62
     7
 10
82.729769668
 20
169.7142959287
 30
0.0
  0
VERTEX
  5
88
  8
0
  6
CONTINUOUS
 62
     7
 10
81.9930080626
 20
168.9782785926
 30
0.0
  0
VERTEX
  5
89
  8
0
  6
CONTINUOUS
 62
     7
 10
81.3108143207
 20
168.2189257753
 30
0.0
  0
VERTEX
  5
8A
  8
0
  6
CONTINUOUS
 62
     7
 10
80.6834132616
 20
167.4383191892
 30
0.0
  0
VERTEX
  5
8B
  8
0
  6
CONTINUOUS
 62
     7
 10
80.1106813033
 20
166.6383035386
 30
0.0
  0
VERTEX
  5
8C
  8
0
  6
CONTINUOUS
 62
     7
 10
79.5923584223
 20
165.820603269
 30
0.0
  0
VERTEX
  5
8D
  8
0
  6
CONTINUOUS
 62
     7
 10
79.1281717662
 20
164.986925088
 30
0.0
  0
VERTEX
  5
8E
  8
0
  6
CONTINUOUS
 62
     7
 10
78.7178884472
 20
164.1390308066
 30
0.0
  0
VERTEX
  5
8F
  8
0
  6
CONTINUOUS
 62
     7
 10
78.3613216003
 20
163.2787785418
 30
0.0
  0
VERTEX
  5
90
  8
0
  6
CONTINUOUS
 62
     7
 10
78.0583109024
 20
162.4081370011
 30
0.0
  0
VERTEX
  5
91
  8
0
  6
CONTINUOUS
 62
     7
 10
77.8086928864
 20
161.5291797587
 30
0.0
  0
VERTEX
  5
92
  8
0
  6
CONTINUOUS
 62
     7
 10
77.6122707261
 20
160.6440662543
 30
0.0
  0
VERTEX
  5
93
  8
0
  6
CONTINUOUS
 62
     7
 10
77.4687888209
 20
159.7550150527
 30
0.0
  0
VERTEX
  5
94
  8
0
  6
CONTINUOUS
 62
     7
 10
77.377914582
 20
158.8642734597
 30
0.0
  0
VERTEX
  5
95
  8
0
  6
CONTINUOUS
 62
     7
 10
77.3392280684
 20
157.9740862492
 30
0.0
  0
VERTEX
  5
96
  8
0
  6
CONTINUOUS
 62
     7
 10
77.3426309358
 20
157.7416375606
 30
0.0
  0
SEQEND
  5
243
  8
0
  6
CONTINUOUS
 62
     7
  0
POLYLINE
  5
45
  8
0
  6
CONTINUOUS
 62
     7
 66
     1
 10
0.0
 20
0.0
 30
0.0
  0
VERTEX
  5
97
  8
0
  6
CONTINUOUS
 62
     7
 10
77.3376527331
 20
151.2592536104
 30
0.0
  0
VERTEX
  5
98
  8
0
  6
CONTINUOUS
 62
     7
 10
77.3643962795
 20
150.3545722625
 30
0.0
  0
VERTEX
  5
99
  8
0
  6
CONTINUOUS
 62
     7
 10
77.4420142599
 20
149.4739369065
 30
0.0
  0
VERTEX
  5
9A
  8
0
  6
CONTINUOUS
 62
     7
 10
77.5697671554
 20
148.6011645621
 30
0.0
  0
VERTEX
  5
9B
  8
0
  6
CONTINUOUS
 62
     7
 10
77.746851192
 20
147.7381641566
 30
0.0
  0
VERTEX
  5
9C
  8
0
  6
CONTINUOUS
 62
     7
 10
77.9724333014
 20
146.8866987633
 30
0.0
  0
VERTEX
  5
9D
  8
0
  6
CONTINUOUS
 62
     7
 10
78.2456777325
 20
146.0483754607
 30
0.0
  0
VERTEX
  5
9E
  8
0
  6
CONTINUOUS
 62
     7
 10
78.5657777706
 20
145.2246315115
 30
0.0
  0
VERTEX
  5
9F
  8
0
  6
CONTINUOUS
 62
     7
 10
78.9319914693
 20
144.4167252147
 30
0.0
  0
VERTEX
  5
A0
  8
0
  6
CONTINUOUS
 62
     7
 10
79.3436802006
 20
143.6257327865
 30
0.0
  0
VERTEX
  5
A1
  8
0
  6
CONTINUOUS
 62
     7
 10
79.8003479437
 20
142.8525530743
 30
0.0
  0
VERTEX
  5
A2
  8
0
  6
CONTINUOUS
 62
     7
 10
80.3016778958
 20
142.0979223083
 30
0.0
  0
VERTEX
  5
A3
  8
0
  6
CONTINUOUS
 62
     7
 10
80.8475611434
 20
141.3624413759
 30
0.0
  0
VERTEX
  5
A4
  8
0
  6
CONTINUOUS
 62
     7
 10
81.4381097337
 20
140.6466181178
 30
0.0
  0
VERTEX
  5
A5
  8
0
  6
CONTINUOUS
 62
     7
 10
82.0736436818
 20
139.9509266012
 30
0.0
  0
VERTEX
  5
A6
  8
0
  6
CONTINUOUS
 62
     7
 10
82.7546387858
 20
139.2758837772
 30
0.0
  0
VERTEX
  5
A7
  8
0
  6
CONTINUOUS
 62
     7
 10
83.4816209637
 20
138.6221406499
 30
0.0
  0
VERTEX
  5
A8
  8
0
  6
CONTINUOUS
 62
     7
 10
84.2549958627
 20
137.9905792909
 30
0.0
  0
VERTEX
  5
A9
  8
0
  6
CONTINUOUS
 62
     7
 10
85.0748137763
 20
137.3823984448
 30
0.0
  0
VERTEX
  5
AA
  8
0
  6
CONTINUOUS
 62
     7
 10
85.940493166
 20
136.7991608285
 30
0.0
  0
VERTEX
  5
AB
  8
0
  6
CONTINUOUS
 62
     7
 10
86.8505597112
 20
136.2427700847
 30
0.0
  0
VERTEX
  5
AC
  8
0
  6
CONTINUOUS
 62
     7
 10
87.8024876364
 20
135.7153539428
 30
0.0
  0
VERTEX
  5
AD
  8
0
  6
CONTINUOUS
 62
     7
 10
88.7927287384
 20
135.2190591061
 30
0.0
  0
VERTEX
  5
AE
  8
0
  6
CONTINUOUS
 62
     7
 10
89.8169603578
 20
134.755805005
 30
0.0
  0
VERTEX
  5
AF
  8
0
  6
CONTINUOUS
 62
     7
 10
90.8703395493
 20
134.3271307527
 30
0.0
  0
VERTEX
  5
B0
  8
0
  6
CONTINUOUS
 62
     7
 10
91.9474060166
 20
133.9342352027
 30
0.0
  0
VERTEX
  5
B1
  8
0
  6
CONTINUOUS
 62
     7
 10
93.044191048
 20
133.577313449
 30
0.0
  0
VERTEX
  5
B2
  8
0
  6
CONTINUOUS
 62
     7
 10
94.1573250198
 20
133.256156195
 30
0.0
  0
VERTEX
  5
B3
  8
0
  6
CONTINUOUS
 62
     7
 10
95.2840257427
 20
132.9702910855
 30
0.0
  0
VERTEX
  5
B4
  8
0
  6
CONTINUOUS
 62
     7
 10
96.4220070367
 20
132.7191116355
 30
0.0
  0
VERTEX
  5
B5
  8
0
  6
CONTINUOUS
 62
     7
 10
97.5693638123
 20
132.501974622
 30
0.0
  0
VERTEX
  5
B6
  8
0
  6
CONTINUOUS
 62
     7
 10
98.724463955
 20
132.3182648696
 30
0.0
  0
VERTEX
  5
B7
  8
0
  6
CONTINUOUS
 62
     7
 10
99.8858602752
 20
132.1674336397
 30
0.0
  0
VERTEX
  5
B8
  8
0
  6
CONTINUOUS
 62
     7
 10
101.0522251557
 20
132.0490185603
 30
0.0
  0
VERTEX
  5
B9
  8
0
  6
CONTINUOUS
 62
     7
 10
102.2223054321
 20
131.9626520832
 30
0.0
  0
VERTEX
  5
BA
  8
0
  6
CONTINUOUS
 62
     7
 10
103.3948933333
 20
131.908063719
 30
0.0
  0
VERTEX
  5
BB
  8
0
  6
CONTINUOUS
 62
     7
 10
104.5688092547
 20
131.8850796563
 30
0.0
  0
VERTEX
  5
BC
  8
0
  6
CONTINUOUS
 62
     7
 10
105.7428926836
 20
131.8936220984
 30
0.0
  0
VERTEX
  5
BD
  8
0
  6
CONTINUOUS
 62
     7
 10
106.9158987413
 20
131.9337050046
 30
0.0
  0
VERTEX
  5
BE
  8
0
  6
CONTINUOUS
 62
     7
 10
108.0864300874
 20
132.0054179787
 30
0.0
  0
VERTEX
  5
BF
  8
0
  6
CONTINUOUS
 62
     7
 10
109.2533737753
 20
132.1089525073
 30
0.0
  0
VERTEX
  5
C0
  8
0
  6
CONTINUOUS
 62
     7
 10
110.4156305622
 20
132.2446105911
 30
0.0
  0
VERTEX
  5
C1
  8
0
  6
CONTINUOUS
 62
     7
 10
111.5721085749
 20
132.4128137029
 30
0.0
  0
VERTEX
  5
C2
  8
0
  6
CONTINUOUS
 62
     7
 10
112.7217102283
 20
132.6141127769
 30
0.0
  0
VERTEX
  5
C3
  8
0
  6
CONTINUOUS
 62
     7
 10
113.8633086438
 20
132.849197398
 30
0.0
  0
VERTEX
  5
C4
  8
0
  6
CONTINUOUS
 62
     7
 10
114.9957089389
 20
133.1189010129
 30
0.0
  0
VERTEX
  5
C5
  8
0
  6
CONTINUOUS
 62
     7
 10
116.1175888853
 20
133.4241970105
 30
0.0
  0
VERTEX
  5
C6
  8
0
  6
CONTINUOUS
 62
     7
 10
117.2274132225
 20
133.7661778332
 30
0.0
  0
VERTEX
  5
C7
  8
0
  6
CONTINUOUS
 62
     7
 10
118.3233176588
 20
134.1460062017
 30
0.0
  0
VERTEX
  5
C8
  8
0
  6
CONTINUOUS
 62
     7
 10
119.4029645078
 20
134.5648252453
 30
0.0
  0
VERTEX
  5
C9
  8
0
  6
CONTINUOUS
 62
     7
 10
120.4633850127
 20
135.0236156814
 30
0.0
  0
VERTEX
  5
CA
  8
0
  6
CONTINUOUS
 62
     7
 10
121.5008455988
 20
135.5229980221
 30
0.0
  0
VERTEX
  5
CB
  8
0
  6
CONTINUOUS
 62
     7
 10
122.5102624205
 20
136.062696947
 30
0.0
  0
VERTEX
  5
CC
  8
0
  6
CONTINUOUS
 62
     7
 10
123.4856637957
 20
136.6413788874
 30
0.0
  0
VERTEX
  5
CD
  8
0
  6
CONTINUOUS
 62
     7
 10
124.4215261848
 20
137.2571373633
 30
0.0
  0
VERTEX
  5
CE
  8
0
  6
CONTINUOUS
 62
     7
 10
125.3127315645
 20
137.9073793216
 30
0.0
  0
VERTEX
  5
CF
  8
0
  6
CONTINUOUS
 62
     7
 10
126.1550723001
 20
138.5891338559
 30
0.0
  0
VERTEX
  5
D0
  8
0
  6
CONTINUOUS
 62
     7
 10
126.9455357982
 20
139.2994018205
 30
0.0
  0
VERTEX
  5
D1
  8
0
  6
CONTINUOUS
 62
     7
 10
127.6822974036
 20
140.0354191566
 30
0.0
  0
VERTEX
  5
D2
  8
0
  6
CONTINUOUS
 62
     7
 10
128.3644911456
 20
140.7947719739
 30
0.0
  0
VERTEX
  5
D3
  8
0
  6
CONTINUOUS
 62
     7
 10
128.9918922046
 20
141.57537856
 30
0.0
  0
VERTEX
  5
D4
  8
0
  6
CONTINUOUS
 62
     7
 10
129.5646241629
 20
142.3753942106
 30
0.0
  0
VERTEX
  5
D5
  8
0
  6
CONTINUOUS
 62
     7
 10
130.082947044
 20
143.1930944802
 30
0.0
  0
VERTEX
  5
D6
  8
0
  6
CONTINUOUS
 62
     7
 10
130.5471337
 20
144.0267726612
 30
0.0
  0
VERTEX
  5
D7
  8
0
  6
CONTINUOUS
 62
     7
 10
130.957417019
 20
144.8746669426
 30
0.0
  0
VERTEX
  5
D8
  8
0
  6
CONTINUOUS
 62
     7
 10
131.313983866
 20
145.7349192074
 30
0.0
  0
VERTEX
  5
D9
  8
0
  6
CONTINUOUS
 62
     7
 10
131.6169945638
 20
146.6055607481
 30
0.0
  0
VERTEX
  5
DA
  8
0
  6
CONTINUOUS
 62
     7
 10
131.8666125798
 20
147.4845179905
 30
0.0
  0
VERTEX
  5
DB
  8
0
  6
CONTINUOUS
 62
     7
 10
132.0630347401
 20
148.3696314949
 30
0.0
  0
VERTEX
  5
DC
  8
0
  6
CONTINUOUS
 62
     7
 10
132.2065166454
 20
149.2586826965
 30
0.0
  0
VERTEX
  5
DD
  8
0
  6
CONTINUOUS
 62
     7
 10
132.2973908843
 20
150.1494242895
 30
0.0
  0
VERTEX
  5
DE
  8
0
  6
CONTINUOUS
 62
     7
 10
132.3360773978
 20
151.0396115
 30
0.0
  0
VERTEX
  5
DF
  8
0
  6
CONTINUOUS
 62
     7
 10
132.3328512463
 20
151.2599887878
 30
0.0
  0
SEQEND
  5
242
  8
0
  6
CONTINUOUS
 62
     7
  0
POLYLINE
  5
46
  8
0
  6
CONTINUOUS
 62
     7
 66
     1
 10
0.0
 20
0.0
 30
0.0
  0
VERTEX
  5
E0
  8
0
  6
CONTINUOUS
 62
     7
 10
132.3376526821
 20
157.755282083
 30
0.0
  0
VERTEX
  5
E1
  8
0
  6
CONTINUOUS
 62
     7
 10
132.3376527331
 20
157.7544441388
 30
0.0
  0
VERTEX
  5
E2
  8
0
  6
CONTINUOUS
 62
     7
 10
132.3091537584
 20
157.1286184007
 30
0.0
  0
VERTEX
  5
E3
  8
0
  6
CONTINUOUS
 62
     7
 10
132.2237159027
 20
156.504089782
 30
0.0
  0
VERTEX
  5
E4
  8
0
  6
CONTINUOUS
 62
     7
 10
132.0815162491
 20
155.8821527137
 30
0.0
  0
VERTEX
  5
E5
  8
0
  6
CONTINUOUS
 62
     7
 10
131.882849528
 20
155.2640962553
 30
0.0
  0
VERTEX
  5
E6
  8
0
  6
CONTINUOUS
 62
     7
 10
131.6281275066
 20
154.6512014231
 30
0.0
  0
VERTEX
  5
E7
  8
0
  6
CONTINUOUS
 62
     7
 10
131.3178781352
 20
154.0447385354
 30
0.0
  0
VERTEX
  5
E8
  8
0
  6
CONTINUOUS
 62
     7
 10
130.9527444529
 20
153.445964579
 30
0.0
  0
VERTEX
  5
E9
  8
0
  6
CONTINUOUS
 62
     7
 10
130.533483255
 20
152.8561206044
 30
0.0
  0
VERTEX
  5
EA
  8
0
  6
CONTINUOUS
 62
     7
 10
130.0609635245
 20
152.2764291534
 30
0.0
  0
VERTEX
  5
EB
  8
0
  6
CONTINUOUS
 62
     7
 10
129.5361646306
 20
151.708091725
 30
0.0
  0
VERTEX
  5
EC
  8
0
  6
CONTINUOUS
 62
     7
 10
128.9601742992
 20
151.1522862852
 30
0.0
  0
VERTEX
  5
ED
  8
0
  6
CONTINUOUS
 62
     7
 10
128.3341863581
 20
150.6101648258
 30
0.0
  0
VERTEX
  5
EE
  8
0
  6
CONTINUOUS
 62
     7
 10
127.6594982631
 20
150.0828509763
 30
0.0
  0
VERTEX
  5
EF
  8
0
  6
CONTINUOUS
 62
     7
 10
126.9375084081
 20
149.571437675
 30
0.0
  0
VERTEX
  5
F0
  8
0
  6
CONTINUOUS
 62
     7
 10
126.1697132275
 20
149.0769849043
 30
0.0
  0
VERTEX
  5
F1
  8
0
  6
CONTINUOUS
 62
     7
 10
125.3577040939
 20
148.6005174929
 30
0.0
  0
VERTEX
  5
F2
  8
0
  6
CONTINUOUS
 62
     7
 10
124.5031640204
 20
148.1430229924
 30
0.0
  0
VERTEX
  5
F3
  8
0
  6
CONTINUOUS
 62
     7
 10
123.6078641716
 20
147.70544963
 30
0.0
  0
VERTEX
  5
F4
  8
0
  6
CONTINUOUS
 62
     7
 10
122.6736601933
 20
147.2887043432
 30
0.0
  0
VERTEX
  5
F5
  8
0
  6
CONTINUOUS
 62
     7
 10
121.7024883659
 20
146.8936509003
 30
0.0
  0
VERTEX
  5
F6
  8
0
  6
CONTINUOUS
 62
     7
 10
120.6963615913
 20
146.5211081099
 30
0.0
  0
VERTEX
  5
F7
  8
0
  6
CONTINUOUS
 62
     7
 10
119.6573652208
 20
146.1718481238
 30
0.0
  0
VERTEX
  5
F8
  8
0
  6
CONTINUOUS
 62
     7
 10
118.5876527331
 20
145.8465948368
 30
0.0
  0
VERTEX
  5
F9
  8
0
  6
CONTINUOUS
 62
     7
 10
117.4894412707
 20
145.5460223858
 30
0.0
  0
VERTEX
  5
FA
  8
0
  6
CONTINUOUS
 62
     7
 10
116.3650070446
 20
145.2707537531
 30
0.0
  0
VERTEX
  5
FB
  8
0
  6
CONTINUOUS
 62
     7
 10
115.2166806163
 20
145.0213594752
 30
0.0
  0
VERTEX
  5
FC
  8
0
  6
CONTINUOUS
 62
     7
 10
114.0468420678
 20
144.7983564597
 30
0.0
  0
VERTEX
  5
FD
  8
0
  6
CONTINUOUS
 62
     7
 10
112.8579160681
 20
144.6022069143
 30
0.0
  0
VERTEX
  5
FE
  8
0
  6
CONTINUOUS
 62
     7
 10
111.6523668479
 20
144.433317389
 30
0.0
  0
VERTEX
  5
FF
  8
0
  6
CONTINUOUS
 62
     7
 10
110.4326930921
 20
144.2920379332
 30
0.0
  0
VERTEX
  5
100
  8
0
  6
CONTINUOUS
 62
     7
 10
109.2014227607
 20
144.17866137
 30
0.0
  0
VERTEX
  5
101
  8
0
  6
CONTINUOUS
 62
     7
 10
107.9611078495
 20
144.0934226896
 30
0.0
  0
VERTEX
  5
102
  8
0
  6
CONTINUOUS
 62
     7
 10
106.7143191006
 20
144.0364985624
 30
0.0
  0
VERTEX
  5
103
  8
0
  6
CONTINUOUS
 62
     7
 10
105.4636406742
 20
144.0080069722
 30
0.0
  0
VERTEX
  5
104
  8
0
  6
CONTINUOUS
 62
     7
 10
104.2116647921
 20
144.0080069722
 30
0.0
  0
VERTEX
  5
105
  8
0
  6
CONTINUOUS
 62
     7
 10
102.9609863656
 20
144.0364985624
 30
0.0
  0
VERTEX
  5
106
  8
0
  6
CONTINUOUS
 62
     7
 10
101.7141976167
 20
144.0934226896
 30
0.0
  0
VERTEX
  5
107
  8
0
  6
CONTINUOUS
 62
     7
 10
100.4738827056
 20
144.17866137
 30
0.0
  0
VERTEX
  5
108
  8
0
  6
CONTINUOUS
 62
     7
 10
99.2426123742
 20
144.2920379332
 30
0.0
  0
VERTEX
  5
109
  8
0
  6
CONTINUOUS
 62
     7
 10
98.0229386183
 20
144.433317389
 30
0.0
  0
VERTEX
  5
10A
  8
0
  6
CONTINUOUS
 62
     7
 10
96.8173893981
 20
144.6022069143
 30
0.0
  0
VERTEX
  5
10B
  8
0
  6
CONTINUOUS
 62
     7
 10
95.6284633984
 20
144.7983564597
 30
0.0
  0
VERTEX
  5
10C
  8
0
  6
CONTINUOUS
 62
     7
 10
94.4586248499
 20
145.0213594752
 30
0.0
  0
VERTEX
  5
10D
  8
0
  6
CONTINUOUS
 62
     7
 10
93.3102984217
 20
145.2707537531
 30
0.0
  0
VERTEX
  5
10E
  8
0
  6
CONTINUOUS
 62
     7
 10
92.1858641955
 20
145.5460223858
 30
0.0
  0
VERTEX
  5
10F
  8
0
  6
CONTINUOUS
 62
     7
 10
91.0876527331
 20
145.8465948368
 30
0.0
  0
VERTEX
  5
110
  8
0
  6
CONTINUOUS
 62
     7
 10
90.0179402454
 20
146.1718481238
 30
0.0
  0
VERTEX
  5
111
  8
0
  6
CONTINUOUS
 62
     7
 10
88.978943875
 20
146.5211081099
 30
0.0
  0
VERTEX
  5
112
  8
0
  6
CONTINUOUS
 62
     7
 10
87.9728171003
 20
146.8936509003
 30
0.0
  0
VERTEX
  5
113
  8
0
  6
CONTINUOUS
 62
     7
 10
87.0016452729
 20
147.2887043432
 30
0.0
  0
VERTEX
  5
114
  8
0
  6
CONTINUOUS
 62
     7
 10
86.0674412946
 20
147.70544963
 30
0.0
  0
VERTEX
  5
115
  8
0
  6
CONTINUOUS
 62
     7
 10
85.1721414459
 20
148.1430229924
 30
0.0
  0
VERTEX
  5
116
  8
0
  6
CONTINUOUS
 62
     7
 10
84.3176013723
 20
148.600517493
 30
0.0
  0
VERTEX
  5
117
  8
0
  6
CONTINUOUS
 62
     7
 10
83.5055922387
 20
149.0769849043
 30
0.0
  0
VERTEX
  5
118
  8
0
  6
CONTINUOUS
 62
     7
 10
82.7377970581
 20
149.571437675
 30
0.0
  0
VERTEX
  5
119
  8
0
  6
CONTINUOUS
 62
     7
 10
82.0158072031
 20
150.0828509763
 30
0.0
  0
VERTEX
  5
11A
  8
0
  6
CONTINUOUS
 62
     7
 10
81.3411191081
 20
150.6101648258
 30
0.0
  0
VERTEX
  5
11B
  8
0
  6
CONTINUOUS
 62
     7
 10
80.715131167
 20
151.1522862852
 30
0.0
  0
VERTEX
  5
11C
  8
0
  6
CONTINUOUS
 62
     7
 10
80.1391408356
 20
151.708091725
 30
0.0
  0
VERTEX
  5
11D
  8
0
  6
CONTINUOUS
 62
     7
 10
79.6143419417
 20
152.2764291534
 30
0.0
  0
VERTEX
  5
11E
  8
0
  6
CONTINUOUS
 62
     7
 10
79.1418222112
 20
152.8561206044
 30
0.0
  0
VERTEX
  5
11F
  8
0
  6
CONTINUOUS
 62
     7
 10
78.7225610134
 20
153.445964579
 30
0.0
  0
VERTEX
  5
120
  8
0
  6
CONTINUOUS
 62
     7
 10
78.3574273311
 20
154.0447385354
 30
0.0
  0
VERTEX
  5
121
  8
0
  6
CONTINUOUS
 62
     7
 10
78.0471779596
 20
154.6512014231
 30
0.0
  0
VERTEX
  5
122
  8
0
  6
CONTINUOUS
 62
     7
 10
77.7924559382
 20
155.2640962553
 30
0.0
  0
VERTEX
  5
123
  8
0
  6
CONTINUOUS
 62
     7
 10
77.5937892171
 20
155.8821527137
 30
0.0
  0
VERTEX
  5
124
  8
0
  6
CONTINUOUS
 62
     7
 10
77.4515895635
 20
156.504089782
 30
0.0
  0
VERTEX
  5
125
  8
0
  6
CONTINUOUS
 62
     7
 10
77.3661517078
 20
157.1286184007
 30
0.0
  0
VERTEX
  5
126
  8
0
  6
CONTINUOUS
 62
     7
 10
77.3376527331
 20
157.7544441388
 30
0.0
  0
VERTEX
  5
127
  8
0
  6
CONTINUOUS
 62
     7
 10
77.3376527331
 20
157.7544441388
 30
0.0
  0
SEQEND
  5
241
  8
0
  6
CONTINUOUS
 62
     7
  0
POLYLINE
  5
47
  8
0
  6
CONTINUOUS
 62
     7
 66
     1
 10
0.0
 20
0.0
 30
0.0
  0
VERTEX
  5
128
  8
0
  6
CONTINUOUS
 62
     7
 10
121.0876527331
 20
167.4972299314
 30
0.0
  0
VERTEX
  5
129
  8
0
  6
CONTINUOUS
 62
     7
 10
121.0591133743
 20
167.978560033
 30
0.0
  0
VERTEX
  5
12A
  8
0
  6
CONTINUOUS
 62
     7
 10
120.9735955433
 20
168.4581994451
 30
0.0
  0
VERTEX
  5
12B
  8
0
  6
CONTINUOUS
 62
     7
 10
120.8313996248
 20
168.9344634167
 30
0.0
  0
VERTEX
  5
12C
  8
0
  6
CONTINUOUS
 62
     7
 10
120.6330250869
 20
169.4056790533
 30
0.0
  0
VERTEX
  5
12D
  8
0
  6
CONTINUOUS
 62
     7
 10
120.3791687276
 20
169.8701911928
 30
0.0
  0
VERTEX
  5
12E
  8
0
  6
CONTINUOUS
 62
     7
 10
120.0707222265
 20
170.3263682193
 30
0.0
  0
VERTEX
  5
12F
  8
0
  6
CONTINUOUS
 62
     7
 10
119.7087690133
 20
170.7726077943
 30
0.0
  0
VERTEX
  5
130
  8
0
  6
CONTINUOUS
 62
     7
 10
119.2945804618
 20
171.2073424852
 30
0.0
  0
VERTEX
  5
131
  8
0
  6
CONTINUOUS
 62
     7
 10
118.8296114243
 20
171.6290452704
 30
0.0
  0
VERTEX
  5
132
  8
0
  6
CONTINUOUS
 62
     7
 10
118.3154951217
 20
172.0362349035
 30
0.0
  0
VERTEX
  5
133
  8
0
  6
CONTINUOUS
 62
     7
 10
117.7540374061
 20
172.4274811161
 30
0.0
  0
VERTEX
  5
134
  8
0
  6
CONTINUOUS
 62
     7
 10
117.1472104182
 20
172.8014096417
 30
0.0
  0
VERTEX
  5
135
  8
0
  6
CONTINUOUS
 62
     7
 10
116.4971456601
 20
173.1567070425
 30
0.0
  0
VERTEX
  5
136
  8
0
  6
CONTINUOUS
 62
     7
 10
115.8061265078
 20
173.4921253236
 30
0.0
  0
VERTEX
  5
137
  8
0
  6
CONTINUOUS
 62
     7
 10
115.0765801913
 20
173.8064863159
 30
0.0
  0
VERTEX
  5
138
  8
0
  6
CONTINUOUS
 62
     7
 10
114.3110692687
 20
174.0986858152
 30
0.0
  0
VERTEX
  5
139
  8
0
  6
CONTINUOUS
 62
     7
 10
113.512282625
 20
174.3676974598
 30
0.0
  0
VERTEX
  5
13A
  8
0
  6
CONTINUOUS
 62
     7
 10
112.6830260275
 20
174.6125763367
 30
0.0
  0
VERTEX
  5
13B
  8
0
  6
CONTINUOUS
 62
     7
 10
111.8262122701
 20
174.8324622998
 30
0.0
  0
VERTEX
  5
13C
  8
0
  6
CONTINUOUS
 62
     7
 10
110.9448509425
 20
175.0265829917
 30
0.0
  0
VERTEX
  5
13D
  8
0
  6
CONTINUOUS
 62
     7
 10
110.0420378584
 20
175.1942565564
 30
0.0
  0
VERTEX
  5
13E
  8
0
  6
CONTINUOUS
 62
     7
 10
109.1209441817
 20
175.3348940344
 30
0.0
  0
VERTEX
  5
13F
  8
0
  6
CONTINUOUS
 62
     7
 10
108.1848052877
 20
175.4480014313
 30
0.0
  0
VERTEX
  5
140
  8
0
  6
CONTINUOUS
 62
     7
 10
107.2369093982
 20
175.5331814534
 30
0.0
  0
VERTEX
  5
141
  8
0
  6
CONTINUOUS
 62
     7
 10
106.2805860321
 20
175.5901349026
 30
0.0
  0
VERTEX
  5
142
  8
0
  6
CONTINUOUS
 62
     7
 10
105.3191943102
 20
175.618661728
 30
0.0
  0
VERTEX
  5
143
  8
0
  6
CONTINUOUS
 62
     7
 10
104.356111156
 20
175.618661728
 30
0.0
  0
VERTEX
  5
144
  8
0
  6
CONTINUOUS
 62
     7
 10
103.3947194341
 20
175.5901349026
 30
0.0
  0
VERTEX
  5
145
  8
0
  6
CONTINUOUS
 62
     7
 10
102.4383960681
 20
175.5331814534
 30
0.0
  0
VERTEX
  5
146
  8
0
  6
CONTINUOUS
 62
     7
 10
101.4905001786
 20
175.4480014313
 30
0.0
  0
VERTEX
  5
147
  8
0
  6
CONTINUOUS
 62
     7
 10
100.5543612845
 20
175.3348940344
 30
0.0
  0
VERTEX
  5
148
  8
0
  6
CONTINUOUS
 62
     7
 10
99.6332676078
 20
175.1942565564
 30
0.0
  0
VERTEX
  5
149
  8
0
  6
CONTINUOUS
 62
     7
 10
98.7304545238
 20
175.0265829917
 30
0.0
  0
VERTEX
  5
14A
  8
0
  6
CONTINUOUS
 62
     7
 10
97.8490931961
 20
174.8324622998
 30
0.0
  0
VERTEX
  5
14B
  8
0
  6
CONTINUOUS
 62
     7
 10
96.9922794387
 20
174.6125763367
 30
0.0
  0
VERTEX
  5
14C
  8
0
  6
CONTINUOUS
 62
     7
 10
96.1630228412
 20
174.3676974598
 30
0.0
  0
VERTEX
  5
14D
  8
0
  6
CONTINUOUS
 62
     7
 10
95.3642361975
 20
174.0986858152
 30
0.0
  0
VERTEX
  5
14E
  8
0
  6
CONTINUOUS
 62
     7
 10
94.5987252749
 20
173.8064863159
 30
0.0
  0
VERTEX
  5
14F
  8
0
  6
CONTINUOUS
 62
     7
 10
93.8691789584
 20
173.4921253236
 30
0.0
  0
VERTEX
  5
150
  8
0
  6
CONTINUOUS
 62
     7
 10
93.1781598061
 20
173.1567070425
 30
0.0
  0
VERTEX
  5
151
  8
0
  6
CONTINUOUS
 62
     7
 10
92.528095048
 20
172.8014096417
 30
0.0
  0
VERTEX
  5
152
  8
0
  6
CONTINUOUS
 62
     7
 10
91.9212680602
 20
172.4274811161
 30
0.0
  0
VERTEX
  5
153
  8
0
  6
CONTINUOUS
 62
     7
 10
91.3598103446
 20
172.0362349035
 30
0.0
  0
VERTEX
  5
154
  8
0
  6
CONTINUOUS
 62
     7
 10
90.8456940419
 20
171.6290452704
 30
0.0
  0
VERTEX
  5
155
  8
0
  6
CONTINUOUS
 62
     7
 10
90.3807250045
 20
171.2073424852
 30
0.0
  0
VERTEX
  5
156
  8
0
  6
CONTINUOUS
 62
     7
 10
89.9665364529
 20
170.7726077943
 30
0.0
  0
VERTEX
  5
157
  8
0
  6
CONTINUOUS
 62
     7
 10
89.6045832397
 20
170.3263682193
 30
0.0
  0
VERTEX
  5
158
  8
0
  6
CONTINUOUS
 62
     7
 10
89.2961367386
 20
169.8701911928
 30
0.0
  0
VERTEX
  5
159
  8
0
  6
CONTINUOUS
 62
     7
 10
89.0422803793
 20
169.4056790533
 30
0.0
  0
VERTEX
  5
15A
  8
0
  6
CONTINUOUS
 62
     7
 10
88.8439058415
 20
168.9344634167
 30
0.0
  0
VERTEX
  5
15B
  8
0
  6
CONTINUOUS
 62
     7
 10
88.7017099229
 20
168.4581994451
 30
0.0
  0
VERTEX
  5
15C
  8
0
  6
CONTINUOUS
 62
     7
 10
88.6161920919
 20
167.978560033
 30
0.0
  0
VERTEX
  5
15D
  8
0
  6
CONTINUOUS
 62
     7
 10
88.5876527331
 20
167.4972299314
 30
0.0
  0
VERTEX
  5
15E
  8
0
  6
CONTINUOUS
 62
     7
 10
88.6161920919
 20
167.0158998297
 30
0.0
  0
VERTEX
  5
15F
  8
0
  6
CONTINUOUS
 62
     7
 10
88.7017099229
 20
166.5362604176
 30
0.0
  0
VERTEX
  5
160
  8
0
  6
CONTINUOUS
 62
     7
 10
88.8439058415
 20
166.059996446
 30
0.0
  0
VERTEX
  5
161
  8
0
  6
CONTINUOUS
 62
     7
 10
89.0422803793
 20
165.5887808094
 30
0.0
  0
VERTEX
  5
162
  8
0
  6
CONTINUOUS
 62
     7
 10
89.2961367386
 20
165.1242686699
 30
0.0
  0
VERTEX
  5
163
  8
0
  6
CONTINUOUS
 62
     7
 10
89.6045832397
 20
164.6680916435
 30
0.0
  0
VERTEX
  5
164
  8
0
  6
CONTINUOUS
 62
     7
 10
89.9665364529
 20
164.2218520684
 30
0.0
  0
VERTEX
  5
165
  8
0
  6
CONTINUOUS
 62
     7
 10
90.3807250045
 20
163.7871173775
 30
0.0
  0
VERTEX
  5
166
  8
0
  6
CONTINUOUS
 62
     7
 10
90.8456940419
 20
163.3654145923
 30
0.0
  0
VERTEX
  5
167
  8
0
  6
CONTINUOUS
 62
     7
 10
91.3598103446
 20
162.9582249592
 30
0.0
  0
VERTEX
  5
168
  8
0
  6
CONTINUOUS
 62
     7
 10
91.9212680602
 20
162.5669787466
 30
0.0
  0
VERTEX
  5
169
  8
0
  6
CONTINUOUS
 62
     7
 10
92.528095048
 20
162.1930502211
 30
0.0
  0
VERTEX
  5
16A
  8
0
  6
CONTINUOUS
 62
     7
 10
93.1781598061
 20
161.8377528202
 30
0.0
  0
VERTEX
  5
16B
  8
0
  6
CONTINUOUS
 62
     7
 10
93.8691789584
 20
161.5023345392
 30
0.0
  0
VERTEX
  5
16C
  8
0
  6
CONTINUOUS
 62
     7
 10
94.5987252749
 20
161.1879735468
 30
0.0
  0
VERTEX
  5
16D
  8
0
  6
CONTINUOUS
 62
     7
 10
95.3642361975
 20
160.8957740476
 30
0.0
  0
VERTEX
  5
16E
  8
0
  6
CONTINUOUS
 62
     7
 10
96.1630228412
 20
160.6267624029
 30
0.0
  0
VERTEX
  5
16F
  8
0
  6
CONTINUOUS
 62
     7
 10
96.9922794387
 20
160.381883526
 30
0.0
  0
VERTEX
  5
170
  8
0
  6
CONTINUOUS
 62
     7
 10
97.8490931961
 20
160.1619975629
 30
0.0
  0
VERTEX
  5
171
  8
0
  6
CONTINUOUS
 62
     7
 10
98.7304545238
 20
159.967876871
 30
0.0
  0
VERTEX
  5
172
  8
0
  6
CONTINUOUS
 62
     7
 10
99.6332676078
 20
159.8002033063
 30
0.0
  0
VERTEX
  5
173
  8
0
  6
CONTINUOUS
 62
     7
 10
100.5543612845
 20
159.6595658284
 30
0.0
  0
VERTEX
  5
174
  8
0
  6
CONTINUOUS
 62
     7
 10
101.4905001786
 20
159.5464584314
 30
0.0
  0
VERTEX
  5
175
  8
0
  6
CONTINUOUS
 62
     7
 10
102.4383960681
 20
159.4612784094
 30
0.0
  0
VERTEX
  5
176
  8
0
  6
CONTINUOUS
 62
     7
 10
103.3947194341
 20
159.4043249601
 30
0.0
  0
VERTEX
  5
177
  8
0
  6
CONTINUOUS
 62
     7
 10
104.356111156
 20
159.3757981347
 30
0.0
  0
VERTEX
  5
178
  8
0
  6
CONTINUOUS
 62
     7
 10
105.3191943102
 20
159.3757981347
 30
0.0
  0
VERTEX
  5
179
  8
0
  6
CONTINUOUS
 62
     7
 10
106.2805860321
 20
159.4043249601
 30
0.0
  0
VERTEX
  5
17A
  8
0
  6
CONTINUOUS
 62
     7
 10
107.2369093982
 20
159.4612784094
 30
0.0
  0
VERTEX
  5
17B
  8
0
  6
CONTINUOUS
 62
     7
 10
108.1848052877
 20
159.5464584314
 30
0.0
  0
VERTEX
  5
17C
  8
0
  6
CONTINUOUS
 62
     7
 10
109.1209441817
 20
159.6595658284
 30
0.0
  0
VERTEX
  5
17D
  8
0
  6
CONTINUOUS
 62
     7
 10
110.0420378584
 20
159.8002033063
 30
0.0
  0
VERTEX
  5
17E
  8
0
  6
CONTINUOUS
 62
     7
 10
110.9448509425
 20
159.967876871
 30
0.0
  0
VERTEX
  5
17F
  8
0
  6
CONTINUOUS
 62
     7
 10
111.8262122701
 20
160.1619975629
 30
0.0
  0
VERTEX
  5
180
  8
0
  6
CONTINUOUS
 62
     7
 10
112.6830260275
 20
160.381883526
 30
0.0
  0
VERTEX
  5
181
  8
0
  6
CONTINUOUS
 62
     7
 10
113.512282625
 20
160.6267624029
 30
0.0
  0
VERTEX
  5
182
  8
0
  6
CONTINUOUS
 62
     7
 10
114.3110692687
 20
160.8957740476
 30
0.0
  0
VERTEX
  5
183
  8
0
  6
CONTINUOUS
 62
     7
 10
115.0765801913
 20
161.1879735468
 30
0.0
  0
VERTEX
  5
184
  8
0
  6
CONTINUOUS
 62
     7
 10
115.8061265078
 20
161.5023345392
 30
0.0
  0
VERTEX
  5
185
  8
0
  6
CONTINUOUS
 62
     7
 10
116.4971456601
 20
161.8377528202
 30
0.0
  0
VERTEX
  5
186
  8
0
  6
CONTINUOUS
 62
     7
 10
117.1472104182
 20
162.1930502211
 30
0.0
  0
VERTEX
  5
187
  8
0
  6
CONTINUOUS
 62
     7
 10
117.7540374061
 20
162.5669787466
 30
0.0
  0
VERTEX
  5
188
  8
0
  6
CONTINUOUS
 62
     7
 10
118.3154951217
 20
162.9582249592
 30
0.0
  0
VERTEX
  5
189
  8
0
  6
CONTINUOUS
 62
     7
 10
118.8296114243
 20
163.3654145923
 30
0.0
  0
VERTEX
  5
18A
  8
0
  6
CONTINUOUS
 62
     7
 10
119.2945804618
 20
163.7871173775
 30
0.0
  0
VERTEX
  5
18B
  8
0
  6
CONTINUOUS
 62
     7
 10
119.7087690133
 20
164.2218520684
 30
0.0
  0
VERTEX
  5
18C
  8
0
  6
CONTINUOUS
 62
     7
 10
120.0707222265
 20
164.6680916435
 30
0.0
  0
VERTEX
  5
18D
  8
0
  6
CONTINUOUS
 62
     7
 10
120.3791687276
 20
165.1242686699
 30
0.0
  0
VERTEX
  5
18E
  8
0
  6
CONTINUOUS
 62
     7
 10
120.6330250869
 20
165.5887808094
 30
0.0
  0
VERTEX
  5
18F
  8
0
  6
CONTINUOUS
 62
     7
 10
120.8313996248
 20
166.059996446
 30
0.0
  0
VERTEX
  5
190
  8
0
  6
CONTINUOUS
 62
     7
 10
120.9735955433
 20
166.5362604176
 30
0.0
  0
VERTEX
  5
191
  8
0
  6
CONTINUOUS
 62
     7
 10
121.0591133743
 20
167.0158998297
 30
0.0
  0
VERTEX
  5
192
  8
0
  6
CONTINUOUS
 62
     7
 10
121.0876527331
 20
167.4972299314
 30
0.0
  0
SEQEND
  5
240
  8
0
  6
CONTINUOUS
 62
     7
  0
ARC
  5
48
  8
0
  6
CONTINUOUS
 62
     7
 10
84.7923066498
 20
151.1902828713
 30
0.0
 40
7.454972969749192
 50
153.5843588937
 51
179.4699124123
  0
POLYLINE
  5
49
  8
0
  6
CONTINUOUS
 62
     7
 66
     1
 10
0.0
 20
0.0
 30
0.0
  0
VERTEX
  5
193
  8
0
  6
CONTINUOUS
 62
     7
 10
131.5596006412
 20
154.5068488746
 30
0.0
  0
VERTEX
  5
194
  8
0
  6
CONTINUOUS
 62
     7
 10
131.6281275066
 20
154.3624963261
 30
0.0
  0
VERTEX
  5
195
  8
0
  6
CONTINUOUS
 62
     7
 10
131.882849528
 20
153.7496014939
 30
0.0
  0
VERTEX
  5
196
  8
0
  6
CONTINUOUS
 62
     7
 10
132.0815162491
 20
153.1315450355
 30
0.0
  0
VERTEX
  5
197
  8
0
  6
CONTINUOUS
 62
     7
 10
132.2237159027
 20
152.5096079672
 30
0.0
  0
VERTEX
  5
198
  8
0
  6
CONTINUOUS
 62
     7
 10
132.3091537584
 20
151.8850793485
 30
0.0
  0
VERTEX
  5
199
  8
0
  6
CONTINUOUS
 62
     7
 10
132.3376527331
 20
151.2592536104
 30
0.0
  0
VERTEX
  5
19A
  8
0
  6
CONTINUOUS
 62
     7
 10
132.3091537584
 20
150.6334278723
 30
0.0
  0
VERTEX
  5
19B
  8
0
  6
CONTINUOUS
 62
     7
 10
132.2237159027
 20
150.0088992537
 30
0.0
  0
VERTEX
  5
19C
  8
0
  6
CONTINUOUS
 62
     7
 10
132.0815162491
 20
149.3869621853
 30
0.0
  0
VERTEX
  5
19D
  8
0
  6
CONTINUOUS
 62
     7
 10
131.882849528
 20
148.7689057269
 30
0.0
  0
VERTEX
  5
19E
  8
0
  6
CONTINUOUS
 62
     7
 10
131.6281275066
 20
148.1560108947
 30
0.0
  0
VERTEX
  5
19F
  8
0
  6
CONTINUOUS
 62
     7
 10
131.3178781352
 20
147.549548007
 30
0.0
  0
VERTEX
  5
1A0
  8
0
  6
CONTINUOUS
 62
     7
 10
130.9527444529
 20
146.9507740506
 30
0.0
  0
VERTEX
  5
1A1
  8
0
  6
CONTINUOUS
 62
     7
 10
130.533483255
 20
146.3609300761
 30
0.0
  0
VERTEX
  5
1A2
  8
0
  6
CONTINUOUS
 62
     7
 10
130.0609635245
 20
145.781238625
 30
0.0
  0
VERTEX
  5
1A3
  8
0
  6
CONTINUOUS
 62
     7
 10
129.5361646306
 20
145.2129011966
 30
0.0
  0
VERTEX
  5
1A4
  8
0
  6
CONTINUOUS
 62
     7
 10
128.9601742992
 20
144.6570957568
 30
0.0
  0
VERTEX
  5
1A5
  8
0
  6
CONTINUOUS
 62
     7
 10
128.3341863581
 20
144.1149742974
 30
0.0
  0
VERTEX
  5
1A6
  8
0
  6
CONTINUOUS
 62
     7
 10
127.6594982631
 20
143.5876604479
 30
0.0
  0
VERTEX
  5
1A7
  8
0
  6
CONTINUOUS
 62
     7
 10
126.9375084081
 20
143.0762471466
 30
0.0
  0
VERTEX
  5
1A8
  8
0
  6
CONTINUOUS
 62
     7
 10
126.1697132275
 20
142.5817943759
 30
0.0
  0
VERTEX
  5
1A9
  8
0
  6
CONTINUOUS
 62
     7
 10
125.3577040939
 20
142.1053269646
 30
0.0
  0
VERTEX
  5
1AA
  8
0
  6
CONTINUOUS
 62
     7
 10
124.5031640204
 20
141.647832464
 30
0.0
  0
VERTEX
  5
1AB
  8
0
  6
CONTINUOUS
 62
     7
 10
123.6078641716
 20
141.2102591016
 30
0.0
  0
VERTEX
  5
1AC
  8
0
  6
CONTINUOUS
 62
     7
 10
122.6736601933
 20
140.7935138148
 30
0.0
  0
VERTEX
  5
1AD
  8
0
  6
CONTINUOUS
 62
     7
 10
121.7024883659
 20
140.3984603719
 30
0.0
  0
VERTEX
  5
1AE
  8
0
  6
CONTINUOUS
 62
     7
 10
120.6963615913
 20
140.0259175815
 30
0.0
  0
VERTEX
  5
1AF
  8
0
  6
CONTINUOUS
 62
     7
 10
119.6573652208
 20
139.6766575955
 30
0.0
  0
VERTEX
  5
1B0
  8
0
  6
CONTINUOUS
 62
     7
 10
118.5876527331
 20
139.3514043084
 30
0.0
  0
VERTEX
  5
1B1
  8
0
  6
CONTINUOUS
 62
     7
 10
117.4894412707
 20
139.0508318574
 30
0.0
  0
VERTEX
  5
1B2
  8
0
  6
CONTINUOUS
 62
     7
 10
116.3650070446
 20
138.7755632248
 30
0.0
  0
VERTEX
  5
1B3
  8
0
  6
CONTINUOUS
 62
     7
 10
115.2166806163
 20
138.5261689468
 30
0.0
  0
VERTEX
  5
1B4
  8
0
  6
CONTINUOUS
 62
     7
 10
114.0468420678
 20
138.3031659313
 30
0.0
  0
VERTEX
  5
1B5
  8
0
  6
CONTINUOUS
 62
     7
 10
112.8579160681
 20
138.1070163859
 30
0.0
  0
VERTEX
  5
1B6
  8
0
  6
CONTINUOUS
 62
     7
 10
111.6523668479
 20
137.9381268606
 30
0.0
  0
VERTEX
  5
1B7
  8
0
  6
CONTINUOUS
 62
     7
 10
110.4326930921
 20
137.7968474048
 30
0.0
  0
VERTEX
  5
1B8
  8
0
  6
CONTINUOUS
 62
     7
 10
109.2014227607
 20
137.6834708416
 30
0.0
  0
VERTEX
  5
1B9
  8
0
  6
CONTINUOUS
 62
     7
 10
107.9611078495
 20
137.5982321613
 30
0.0
  0
VERTEX
  5
1BA
  8
0
  6
CONTINUOUS
 62
     7
 10
106.7143191006
 20
137.541308034
 30
0.0
  0
VERTEX
  5
1BB
  8
0
  6
CONTINUOUS
 62
     7
 10
105.4636406742
 20
137.5128164438
 30
0.0
  0
VERTEX
  5
1BC
  8
0
  6
CONTINUOUS
 62
     7
 10
104.2116647921
 20
137.5128164438
 30
0.0
  0
VERTEX
  5
1BD
  8
0
  6
CONTINUOUS
 62
     7
 10
102.9609863656
 20
137.541308034
 30
0.0
  0
VERTEX
  5
1BE
  8
0
  6
CONTINUOUS
 62
     7
 10
101.7141976167
 20
137.5982321613
 30
0.0
  0
VERTEX
  5
1BF
  8
0
  6
CONTINUOUS
 62
     7
 10
100.4738827056
 20
137.6834708416
 30
0.0
  0
VERTEX
  5
1C0
  8
0
  6
CONTINUOUS
 62
     7
 10
99.2426123742
 20
137.7968474048
 30
0.0
  0
VERTEX
  5
1C1
  8
0
  6
CONTINUOUS
 62
     7
 10
98.0229386183
 20
137.9381268606
 30
0.0
  0
VERTEX
  5
1C2
  8
0
  6
CONTINUOUS
 62
     7
 10
96.8173893981
 20
138.1070163859
 30
0.0
  0
VERTEX
  5
1C3
  8
0
  6
CONTINUOUS
 62
     7
 10
95.6284633984
 20
138.3031659313
 30
0.0
  0
VERTEX
  5
1C4
  8
0
  6
CONTINUOUS
 62
     7
 10
94.4586248499
 20
138.5261689468
 30
0.0
  0
VERTEX
  5
1C5
  8
0
  6
CONTINUOUS
 62
     7
 10
93.3102984217
 20
138.7755632248
 30
0.0
  0
VERTEX
  5
1C6
  8
0
  6
CONTINUOUS
 62
     7
 10
92.1858641955
 20
139.0508318574
 30
0.0
  0
VERTEX
  5
1C7
  8
0
  6
CONTINUOUS
 62
     7
 10
91.0876527331
 20
139.3514043084
 30
0.0
  0
VERTEX
  5
1C8
  8
0
  6
CONTINUOUS
 62
     7
 10
90.0179402454
 20
139.6766575955
 30
0.0
  0
VERTEX
  5
1C9
  8
0
  6
CONTINUOUS
 62
     7
 10
88.978943875
 20
140.0259175815
 30
0.0
  0
VERTEX
  5
1CA
  8
0
  6
CONTINUOUS
 62
     7
 10
87.9728171003
 20
140.3984603719
 30
0.0
  0
VERTEX
  5
1CB
  8
0
  6
CONTINUOUS
 62
     7
 10
87.0016452729
 20
140.7935138148
 30
0.0
  0
VERTEX
  5
1CC
  8
0
  6
CONTINUOUS
 62
     7
 10
86.0674412946
 20
141.2102591016
 30
0.0
  0
VERTEX
  5
1CD
  8
0
  6
CONTINUOUS
 62
     7
 10
85.1721414459
 20
141.647832464
 30
0.0
  0
VERTEX
  5
1CE
  8
0
  6
CONTINUOUS
 62
     7
 10
84.3176013723
 20
142.1053269646
 30
0.0
  0
VERTEX
  5
1CF
  8
0
  6
CONTINUOUS
 62
     7
 10
83.5055922387
 20
142.5817943759
 30
0.0
  0
VERTEX
  5
1D0
  8
0
  6
CONTINUOUS
 62
     7
 10
82.7377970581
 20
143.0762471466
 30
0.0
  0
VERTEX
  5
1D1
  8
0
  6
CONTINUOUS
 62
     7
 10
82.0158072031
 20
143.5876604479
 30
0.0
  0
VERTEX
  5
1D2
  8
0
  6
CONTINUOUS
 62
     7
 10
81.3411191081
 20
144.1149742974
 30
0.0
  0
VERTEX
  5
1D3
  8
0
  6
CONTINUOUS
 62
     7
 10
80.715131167
 20
144.6570957568
 30
0.0
  0
VERTEX
  5
1D4
  8
0
  6
CONTINUOUS
 62
     7
 10
80.1391408356
 20
145.2129011966
 30
0.0
  0
VERTEX
  5
1D5
  8
0
  6
CONTINUOUS
 62
     7
 10
79.6143419417
 20
145.781238625
 30
0.0
  0
VERTEX
  5
1D6
  8
0
  6
CONTINUOUS
 62
     7
 10
79.1418222112
 20
146.3609300761
 30
0.0
  0
VERTEX
  5
1D7
  8
0
  6
CONTINUOUS
 62
     7
 10
78.7225610134
 20
146.9507740506
 30
0.0
  0
VERTEX
  5
1D8
  8
0
  6
CONTINUOUS
 62
     7
 10
78.3574273311
 20
147.549548007
 30
0.0
  0
VERTEX
  5
1D9
  8
0
  6
CONTINUOUS
 62
     7
 10
78.0471779596
 20
148.1560108947
 30
0.0
  0
VERTEX
  5
1DA
  8
0
  6
CONTINUOUS
 62
     7
 10
77.7924559382
 20
148.7689057269
 30
0.0
  0
VERTEX
  5
1DB
  8
0
  6
CONTINUOUS
 62
     7
 10
77.5937892171
 20
149.3869621853
 30
0.0
  0
VERTEX
  5
1DC
  8
0
  6
CONTINUOUS
 62
     7
 10
77.4515895635
 20
150.0088992537
 30
0.0
  0
VERTEX
  5
1DD
  8
0
  6
CONTINUOUS
 62
     7
 10
77.3661517078
 20
150.6334278723
 30
0.0
  0
VERTEX
  5
1DE
  8
0
  6
CONTINUOUS
 62
     7
 10
77.3376527331
 20
151.2592536104
 30
0.0
  0
VERTEX
  5
1DF
  8
0
  6
CONTINUOUS
 62
     7
 10
77.3376527331
 20
151.2592536104
 30
0.0
  0
SEQEND
  5
23F
  8
0
  6
CONTINUOUS
 62
     7
  0
ARC
  5
4A
  8
0
  6
CONTINUOUS
 62
     7
 10
104.8376527331
 20
169.6651689324
 30
0.0
 40
28.853916041232
 50
229.7257545102
 51
310.2742454898
  0
POLYLINE
  5
4B
  8
0
  6
CONTINUOUS
 62
     7
 66
     1
 10
0.0
 20
0.0
 30
0.0
  0
VERTEX
  5
1E0
  8
0
  6
CONTINUOUS
 62
     7
 10
92.3376527331
 20
167.4972299314
 30
0.0
  0
VERTEX
  5
1E1
  8
0
  6
CONTINUOUS
 62
     7
 10
92.3661700496
 20
167.9191658492
 30
0.0
  0
VERTEX
  5
1E2
  8
0
  6
CONTINUOUS
 62
     7
 10
92.4515918811
 20
168.3391765703
 30
0.0
  0
VERTEX
  5
1E3
  8
0
  6
CONTINUOUS
 62
     7
 10
92.5935284675
 20
168.7553456819
 30
0.0
  0
VERTEX
  5
1E4
  8
0
  6
CONTINUOUS
 62
     7
 10
92.7913321845
 20
169.1657743
 30
0.0
  0
VERTEX
  5
1E5
  8
0
  6
CONTINUOUS
 62
     7
 10
93.0441004992
 20
169.5685897327
 30
0.0
  0
VERTEX
  5
1E6
  8
0
  6
CONTINUOUS
 62
     7
 10
93.3506800879
 20
169.9619540258
 30
0.0
  0
VERTEX
  5
1E7
  8
0
  6
CONTINUOUS
 62
     7
 10
93.709672098
 20
170.3440723482
 30
0.0
  0
VERTEX
  5
1E8
  8
0
  6
CONTINUOUS
 62
     7
 10
94.1194385315
 20
170.7132011815
 30
0.0
  0
VERTEX
  5
1E9
  8
0
  6
CONTINUOUS
 62
     7
 10
94.578109718
 20
171.0676562757
 30
0.0
  0
VERTEX
  5
1EA
  8
0
  6
CONTINUOUS
 62
     7
 10
95.0835928462
 20
171.4058203334
 30
0.0
  0
VERTEX
  5
1EB
  8
0
  6
CONTINUOUS
 62
     7
 10
95.6335815125
 20
171.7261503895
 30
0.0
  0
VERTEX
  5
1EC
  8
0
  6
CONTINUOUS
 62
     7
 10
96.2255662447
 20
172.0271848515
 30
0.0
  0
VERTEX
  5
1ED
  8
0
  6
CONTINUOUS
 62
     7
 10
96.8568459522
 20
172.3075501683
 30
0.0
  0
VERTEX
  5
1EE
  8
0
  6
CONTINUOUS
 62
     7
 10
97.5245402507
 20
172.565967097
 30
0.0
  0
VERTEX
  5
1EF
  8
0
  6
CONTINUOUS
 62
     7
 10
98.225602604
 20
172.8012565407
 30
0.0
  0
VERTEX
  5
1F0
  8
0
  6
CONTINUOUS
 62
     7
 10
98.9568342256
 20
173.0123449275
 30
0.0
  0
VERTEX
  5
1F1
  8
0
  6
CONTINUOUS
 62
     7
 10
99.7148986732
 20
173.1982691095
 30
0.0
  0
VERTEX
  5
1F2
  8
0
  6
CONTINUOUS
 62
     7
 10
100.4963370726
 20
173.3581807573
 30
0.0
  0
VERTEX
  5
1F3
  8
0
  6
CONTINUOUS
 62
     7
 10
101.2975838996
 20
173.4913502307
 30
0.0
  0
VERTEX
  5
1F4
  8
0
  6
CONTINUOUS
 62
     7
 10
102.1149832488
 20
173.5971699081
 30
0.0
  0
VERTEX
  5
1F5
  8
0
  6
CONTINUOUS
 62
     7
 10
102.9448055143
 20
173.6751569584
 30
0.0
  0
VERTEX
  5
1F6
  8
0
  6
CONTINUOUS
 62
     7
 10
103.7832644076
 20
173.7249555447
 30
0.0
  0
VERTEX
  5
1F7
  8
0
  6
CONTINUOUS
 62
     7
 10
104.6265342329
 20
173.7463384474
 30
0.0
  0
VERTEX
  5
1F8
  8
0
  6
CONTINUOUS
 62
     7
 10
105.4707673436
 20
173.7392081012
 30
0.0
  0
VERTEX
  5
1F9
  8
0
  6
CONTINUOUS
 62
     7
 10
106.3121116975
 20
173.7035970403
 30
0.0
  0
VERTEX
  5
1FA
  8
0
  6
CONTINUOUS
 62
     7
 10
107.1467284333
 20
173.6396677497
 30
0.0
  0
VERTEX
  5
1FB
  8
0
  6
CONTINUOUS
 62
     7
 10
107.9708093864
 20
173.5477119243
 30
0.0
  0
VERTEX
  5
1FC
  8
0
  6
CONTINUOUS
 62
     7
 10
108.7805944642
 20
173.4281491372
 30
0.0
  0
VERTEX
  5
1FD
  8
0
  6
CONTINUOUS
 62
     7
 10
109.5723888033
 20
173.2815249261
 30
0.0
  0
VERTEX
  5
1FE
  8
0
  6
CONTINUOUS
 62
     7
 10
110.3425796276
 20
173.1085083037
 30
0.0
  0
VERTEX
  5
1FF
  8
0
  6
CONTINUOUS
 62
     7
 10
111.0876527331
 20
172.909888705
 30
0.0
  0
VERTEX
  5
200
  8
0
  6
CONTINUOUS
 62
     7
 10
111.8042085221
 20
172.6865723858
 30
0.0
  0
VERTEX
  5
201
  8
0
  6
CONTINUOUS
 62
     7
 10
112.488977515
 20
172.4395782872
 30
0.0
  0
VERTEX
  5
202
  8
0
  6
CONTINUOUS
 62
     7
 10
113.1388352677
 20
172.1700333867
 30
0.0
  0
VERTEX
  5
203
  8
0
  6
CONTINUOUS
 62
     7
 10
113.7508166285
 20
171.8791675557
 30
0.0
  0
VERTEX
  5
204
  8
0
  6
CONTINUOUS
 62
     7
 10
114.3221292668
 20
171.5683079484
 30
0.0
  0
VERTEX
  5
205
  8
0
  6
CONTINUOUS
 62
     7
 10
114.850166414
 20
171.2388729458
 30
0.0
  0
VERTEX
  5
206
  8
0
  6
CONTINUOUS
 62
     7
 10
115.3325187577
 20
170.8923656844
 30
0.0
  0
VERTEX
  5
207
  8
0
  6
CONTINUOUS
 62
     7
 10
115.7669854349
 20
170.5303671972
 30
0.0
  0
VERTEX
  5
208
  8
0
  6
CONTINUOUS
 62
     7
 10
116.1515840737
 20
170.1545292003
 30
0.0
  0
VERTEX
  5
209
  8
0
  6
CONTINUOUS
 62
     7
 10
116.4845598388
 20
169.7665665564
 30
0.0
  0
VERTEX
  5
20A
  8
0
  6
CONTINUOUS
 62
     7
 10
116.7643934381
 20
169.3682494499
 30
0.0
  0
VERTEX
  5
20B
  8
0
  6
CONTINUOUS
 62
     7
 10
116.9898080551
 20
168.9613953106
 30
0.0
  0
VERTEX
  5
20C
  8
0
  6
CONTINUOUS
 62
     7
 10
117.1597751746
 20
168.5478605204
 30
0.0
  0
VERTEX
  5
20D
  8
0
  6
CONTINUOUS
 62
     7
 10
117.2735192755
 20
168.1295319438
 30
0.0
  0
VERTEX
  5
20E
  8
0
  6
CONTINUOUS
 62
     7
 10
117.3305213697
 20
167.7083183181
 30
0.0
  0
VERTEX
  5
20F
  8
0
  6
CONTINUOUS
 62
     7
 10
117.3305213697
 20
167.2861415446
 30
0.0
  0
VERTEX
  5
210
  8
0
  6
CONTINUOUS
 62
     7
 10
117.2735192755
 20
166.8649279189
 30
0.0
  0
VERTEX
  5
211
  8
0
  6
CONTINUOUS
 62
     7
 10
117.1597751746
 20
166.4465993424
 30
0.0
  0
VERTEX
  5
212
  8
0
  6
CONTINUOUS
 62
     7
 10
116.9898080551
 20
166.0330645522
 30
0.0
  0
VERTEX
  5
213
  8
0
  6
CONTINUOUS
 62
     7
 10
116.7643934381
 20
165.6262104128
 30
0.0
  0
VERTEX
  5
214
  8
0
  6
CONTINUOUS
 62
     7
 10
116.4845598388
 20
165.2278933063
 30
0.0
  0
VERTEX
  5
215
  8
0
  6
CONTINUOUS
 62
     7
 10
116.1515840737
 20
164.8399306624
 30
0.0
  0
VERTEX
  5
216
  8
0
  6
CONTINUOUS
 62
     7
 10
115.7669854349
 20
164.4640926655
 30
0.0
  0
VERTEX
  5
217
  8
0
  6
CONTINUOUS
 62
     7
 10
115.3325187577
 20
164.1020941784
 30
0.0
  0
VERTEX
  5
218
  8
0
  6
CONTINUOUS
 62
     7
 10
114.850166414
 20
163.7555869169
 30
0.0
  0
VERTEX
  5
219
  8
0
  6
CONTINUOUS
 62
     7
 10
114.3221292668
 20
163.4261519144
 30
0.0
  0
VERTEX
  5
21A
  8
0
  6
CONTINUOUS
 62
     7
 10
113.7508166285
 20
163.115292307
 30
0.0
  0
VERTEX
  5
21B
  8
0
  6
CONTINUOUS
 62
     7
 10
113.1388352677
 20
162.8244264761
 30
0.0
  0
VERTEX
  5
21C
  8
0
  6
CONTINUOUS
 62
     7
 10
112.488977515
 20
162.5548815755
 30
0.0
  0
VERTEX
  5
21D
  8
0
  6
CONTINUOUS
 62
     7
 10
111.8042085221
 20
162.3078874769
 30
0.0
  0
VERTEX
  5
21E
  8
0
  6
CONTINUOUS
 62
     7
 10
111.0876527331
 20
162.0845711577
 30
0.0
  0
VERTEX
  5
21F
  8
0
  6
CONTINUOUS
 62
     7
 10
110.3425796276
 20
161.885951559
 30
0.0
  0
VERTEX
  5
220
  8
0
  6
CONTINUOUS
 62
     7
 10
109.5723888033
 20
161.7129349366
 30
0.0
  0
VERTEX
  5
221
  8
0
  6
CONTINUOUS
 62
     7
 10
108.7805944642
 20
161.5663107255
 30
0.0
  0
VERTEX
  5
222
  8
0
  6
CONTINUOUS
 62
     7
 10
107.9708093864
 20
161.4467479385
 30
0.0
  0
VERTEX
  5
223
  8
0
  6
CONTINUOUS
 62
     7
 10
107.1467284333
 20
161.354792113
 30
0.0
  0
VERTEX
  5
224
  8
0
  6
CONTINUOUS
 62
     7
 10
106.3121116975
 20
161.2908628225
 30
0.0
  0
VERTEX
  5
225
  8
0
  6
CONTINUOUS
 62
     7
 10
105.4707673436
 20
161.2552517615
 30
0.0
  0
VERTEX
  5
226
  8
0
  6
CONTINUOUS
 62
     7
 10
104.6265342329
 20
161.2481214154
 30
0.0
  0
VERTEX
  5
227
  8
0
  6
CONTINUOUS
 62
     7
 10
103.7832644076
 20
161.269504318
 30
0.0
  0
VERTEX
  5
228
  8
0
  6
CONTINUOUS
 62
     7
 10
102.9448055143
 20
161.3193029043
 30
0.0
  0
VERTEX
  5
229
  8
0
  6
CONTINUOUS
 62
     7
 10
102.1149832488
 20
161.3972899546
 30
0.0
  0
VERTEX
  5
22A
  8
0
  6
CONTINUOUS
 62
     7
 10
101.2975838996
 20
161.503109632
 30
0.0
  0
VERTEX
  5
22B
  8
0
  6
CONTINUOUS
 62
     7
 10
100.4963370726
 20
161.6362791054
 30
0.0
  0
VERTEX
  5
22C
  8
0
  6
CONTINUOUS
 62
     7
 10
99.7148986732
 20
161.7961907533
 30
0.0
  0
VERTEX
  5
22D
  8
0
  6
CONTINUOUS
 62
     7
 10
98.9568342256
 20
161.9821149353
 30
0.0
  0
VERTEX
  5
22E
  8
0
  6
CONTINUOUS
 62
     7
 10
98.225602604
 20
162.193203322
 30
0.0
  0
VERTEX
  5
22F
  8
0
  6
CONTINUOUS
 62
     7
 10
97.5245402507
 20
162.4284927657
 30
0.0
  0
VERTEX
  5
230
  8
0
  6
CONTINUOUS
 62
     7
 10
96.8568459522
 20
162.6869096945
 30
0.0
  0
VERTEX
  5
231
  8
0
  6
CONTINUOUS
 62
     7
 10
96.2255662447
 20
162.9672750112
 30
0.0
  0
VERTEX
  5
232
  8
0
  6
CONTINUOUS
 62
     7
 10
95.6335815125
 20
163.2683094732
 30
0.0
  0
VERTEX
  5
233
  8
0
  6
CONTINUOUS
 62
     7
 10
95.0835928462
 20
163.5886395294
 30
0.0
  0
VERTEX
  5
234
  8
0
  6
CONTINUOUS
 62
     7
 10
94.578109718
 20
163.926803587
 30
0.0
  0
VERTEX
  5
235
  8
0
  6
CONTINUOUS
 62
     7
 10
94.1194385315
 20
164.2812586812
 30
0.0
  0
VERTEX
  5
236
  8
0
  6
CONTINUOUS
 62
     7
 10
93.709672098
 20
164.6503875145
 30
0.0
  0
VERTEX
  5
237
  8
0
  6
CONTINUOUS
 62
     7
 10
93.3506800879
 20
165.0325058369
 30
0.0
  0
VERTEX
  5
238
  8
0
  6
CONTINUOUS
 62
     7
 10
93.0441004992
 20
165.42587013
 30
0.0
  0
VERTEX
  5
239
  8
0
  6
CONTINUOUS
 62
     7
 10
92.7913321845
 20
165.8286855628
 30
0.0
  0
VERTEX
  5
23A
  8
0
  6
CONTINUOUS
 62
     7
 10
92.5935284675
 20
166.2391141808
 30
0.0
  0
VERTEX
  5
23B
  8
0
  6
CONTINUOUS
 62
     7
 10
92.4515918811
 20
166.6552832925
 30
0.0
  0
VERTEX
  5
23C
  8
0
  6
CONTINUOUS
 62
     7
 10
92.3661700496
 20
167.0752940135
 30
0.0
  0
VERTEX
  5
23D
  8
0
  6
CONTINUOUS
 62
     7
 10
92.3376527331
 20
167.4972299314
 30
0.0
  0
SEQEND
  5
23E
  8
0
  6
CONTINUOUS
 62
     7
  0
TEXT
  5
4C
  8
0
  6
CONTINUOUS
 62
     7
 10
0.0
 20
6.732893805
 30
0.0
 40
3.633
  1
Edition tudiante de SolidWorks.
 41
0.6671875
 11
0.0
 21
5.4495
 31
0.0
 73
     1
  0
TEXT
  5
4D
  8
0
  6
CONTINUOUS
 62
     7
 10
0.0
 20
1.283393805
 30
0.0
 40
3.633
  1
A usage universitaire uniquement.
 41
0.6681818182
 11
0.0
 21
0.0
 31
0.0
 73
     1
  0
ENDSEC
  0
EOF
