  0
SECTION
  2
HEADER
  9
$ACADVER
  1
AC1009
  9
$DWGCODEPAGE
  3
ansi_1252
  9
$INSBASE
 10
0.0
 20
0.0
 30
0.0
  9
$EXTMIN
 10
0.0
 20
0.0
 30
0.0
  9
$EXTMAX
 10
210.0
 20
297.0
 30
0.0
  9
$LIMMIN
 10
0.0
 20
0.0
  9
$LIMMAX
 10
210.0
 20
297.0
  9
$ORTHOMODE
 70
     0
  9
$REGENMODE
 70
     1
  9
$FILLMODE
 70
     1
  9
$QTEXTMODE
 70
     0
  9
$MIRRTEXT
 70
     1
  9
$DRAGMODE
 70
     2
  9
$LTSCALE
 40
1.0
  9
$OSMODE
 70
    37
  9
$ATTMODE
 70
     1
  9
$TEXTSIZE
 40
3.5
  9
$TRACEWID
 40
1.0
  9
$TEXTSTYLE
  7
STANDARD
  9
$CLAYER
  8
0
  9
$CELTYPE
  6
BYLAYER
  9
$CECOLOR
 62
   256
  9
$DIMSCALE
 40
1.0
  9
$DIMASZ
 40
3.302
  9
$DIMEXO
 40
1.0
  9
$DIMDLI
 40
3.75
  9
$DIMRND
 40
0.0
  9
$DIMDLE
 40
0.0
  9
$DIMEXE
 40
1.0
  9
$DIMTP
 40
0.0
  9
$DIMTM
 40
0.0
  9
$DIMTXT
 40
3.5
  9
$DIMCEN
 40
2.5
  9
$DIMTSZ
 40
0.0
  9
$DIMTOL
 70
     0
  9
$DIMLIM
 70
     0
  9
$DIMTIH
 70
     1
  9
$DIMTOH
 70
     1
  9
$DIMSE1
 70
     0
  9
$DIMSE2
 70
     0
  9
$DIMTAD
 70
     1
  9
$DIMZIN
 70
     0
  9
$DIMBLK
  1

  9
$DIMASO
 70
     1
  9
$DIMSHO
 70
     1
  9
$DIMPOST
  1

  9
$DIMAPOST
  1

  9
$DIMALT
 70
     0
  9
$DIMALTD
 70
     3
  9
$DIMALTF
 40
0.0393700787
  9
$DIMLFAC
 40
0.5
  9
$DIMTOFL
 70
     1
  9
$DIMTVP
 40
0.0
  9
$DIMTIX
 70
     0
  9
$DIMSOXD
 70
     0
  9
$DIMSAH
 70
     0
  9
$DIMBLK1
  1

  9
$DIMBLK2
  1

  9
$DIMSTYLE
  2
ISO-25
  9
$DIMCLRD
 70
     0
  9
$DIMCLRE
 70
     0
  9
$DIMCLRT
 70
     0
  9
$DIMTFAC
 40
1.0
  9
$DIMGAP
 40
1.524
  9
$LUNITS
 70
     2
  9
$LUPREC
 70
     2
  9
$SKETCHINC
 40
1.0
  9
$FILLETRAD
 40
10.0
  9
$AUNITS
 70
     0
  9
$AUPREC
 70
     2
  9
$MENU
  1
.
  9
$ELEVATION
 40
0.0
  9
$PELEVATION
 40
0.0
  9
$THICKNESS
 40
0.0
  9
$LIMCHECK
 70
     0
  9
$CHAMFERA
 40
10.0
  9
$CHAMFERB
 40
10.0
  9
$SKPOLY
 70
     0
  9
$TDCREATE
 40
2456430.618067489
  9
$TDUPDATE
 40
2456430.618067662
  9
$TDINDWG
 40
0.0000000116
  9
$TDUSRTIMER
 40
0.0000000116
  9
$USRTIMER
 70
     1
  9
$ANGBASE
 50
0.0
  9
$ANGDIR
 70
     0
  9
$PDMODE
 70
     0
  9
$PDSIZE
 40
-1.0
  9
$PLINEWID
 40
0.0
  9
$COORDS
 70
     1
  9
$SPLFRAME
 70
     0
  9
$SPLINETYPE
 70
     6
  9
$SPLINESEGS
 70
     8
  9
$ATTDIA
 70
     0
  9
$ATTREQ
 70
     1
  9
$HANDLING
 70
     1
  9
$HANDSEED
  5
117
  9
$SURFTAB1
 70
     6
  9
$SURFTAB2
 70
     6
  9
$SURFTYPE
 70
     6
  9
$SURFU
 70
     6
  9
$SURFV
 70
     6
  9
$UCSNAME
  2

  9
$UCSORG
 10
0.0
 20
0.0
 30
0.0
  9
$UCSXDIR
 10
1.0
 20
0.0
 30
0.0
  9
$UCSYDIR
 10
0.0
 20
1.0
 30
0.0
  9
$PUCSNAME
  2

  9
$PUCSORG
 10
0.0
 20
0.0
 30
0.0
  9
$PUCSXDIR
 10
1.0
 20
0.0
 30
0.0
  9
$PUCSYDIR
 10
0.0
 20
1.0
 30
0.0
  9
$USERI1
 70
     0
  9
$USERI2
 70
     0
  9
$USERI3
 70
     0
  9
$USERI4
 70
     0
  9
$USERI5
 70
     0
  9
$USERR1
 40
0.0
  9
$USERR2
 40
0.0
  9
$USERR3
 40
0.0
  9
$USERR4
 40
0.0
  9
$USERR5
 40
0.0
  9
$WORLDVIEW
 70
     1
  9
$SHADEDGE
 70
     3
  9
$SHADEDIF
 70
    70
  9
$TILEMODE
 70
     1
  9
$MAXACTVP
 70
    64
  9
$PLIMCHECK
 70
     0
  9
$PEXTMIN
 10
1.0000000000E+20
 20
1.0000000000E+20
 30
1.0000000000E+20
  9
$PEXTMAX
 10
-1.0000000000E+20
 20
-1.0000000000E+20
 30
-1.0000000000E+20
  9
$PLIMMIN
 10
0.0
 20
0.0
  9
$PLIMMAX
 10
420.0
 20
297.0
  9
$UNITMODE
 70
     0
  9
$VISRETAIN
 70
     1
  9
$PLINEGEN
 70
     0
  9
$PSLTSCALE
 70
     1
  0
ENDSEC
  0
SECTION
  2
TABLES
  0
TABLE
  2
VPORT
 70
     1
  0
VPORT
  2
*ACTIVE
 70
     0
 10
0.0
 20
0.0
 11
1.0
 21
1.0
 12
105.0
 22
148.5
 13
0.0
 23
0.0
 14
10.0
 24
10.0
 15
10.0
 25
10.0
 16
0.0
 26
0.0
 36
1.0
 17
0.0
 27
0.0
 37
0.0
 40
297.0
 41
0.7070707071
 42
50.0
 43
0.0
 44
0.0
 50
0.0
 51
0.0
 71
     0
 72
  2000
 73
     1
 74
     3
 75
     0
 76
     0
 77
     0
 78
     0
  0
ENDTAB
  0
TABLE
  2
LTYPE
 70
     6
  0
LTYPE
  2
CONTINUOUS
 70
     0
  3
Solid line
 72
    65
 73
     0
 40
0.0
  0
LTYPE
  2
HIDDEN
 70
     0
  3
Hidden __ __ __ __ __ __ __ __ __ __ __ __ __ __
 72
    65
 73
     2
 40
1.905
 49
1.27
 49
-0.635
  0
LTYPE
  2
PHANTOM
 70
     0
  3
Phantom ______  __  __  ______  __  __  ______
 72
    65
 73
     6
 40
12.7
 49
6.35
 49
-1.27
 49
1.27
 49
-1.27
 49
1.27
 49
-1.27
  0
LTYPE
  2
CENTER
 70
     0
  3
Center ____ _ ____ _ ____ _ ____ _ ____ _ ____
 72
    65
 73
     4
 40
10.16
 49
6.35
 49
-1.27
 49
1.27
 49
-1.27
  0
LTYPE
  2
CENTERX2
 70
     0
  3
Center (2x) ________  __  ________  __  _____
 72
    65
 73
     4
 40
20.32
 49
12.7
 49
-2.54
 49
2.54
 49
-2.54
  0
LTYPE
  2
DOT2
 70
     0
  3
Dot (.5x) ........................................
 72
    65
 73
     2
 40
0.635
 49
0.0
 49
-0.635
  0
ENDTAB
  0
TABLE
  2
LAYER
 70
     1
  0
LAYER
  2
0
 70
     0
 62
     7
  6
CONTINUOUS
  0
ENDTAB
  0
TABLE
  2
STYLE
 70
     1
  0
STYLE
  2
STANDARD
 70
     0
 40
0.0
 41
1.0
 50
0.0
 71
     0
 42
3.5
  3
txt
  4

  0
ENDTAB
  0
TABLE
  2
VIEW
 70
     0
  0
ENDTAB
  0
TABLE
  2
UCS
 70
     0
  0
ENDTAB
  0
TABLE
  2
APPID
 70
     1
  0
APPID
  2
ACAD
 70
     0
  0
ENDTAB
  0
TABLE
  2
DIMSTYLE
 70
     1
  0
DIMSTYLE
  2
ISO-25
 70
     0
  3

  4

  5

  6

  7

 40
1.0
 41
2.5
 42
0.625
 43
3.75
 44
1.25
 45
0.0
 46
0.0
 47
0.0
 48
0.0
140
2.5
141
2.5
142
0.0
143
0.0393700787
144
1.0
145
0.0
146
1.0
147
0.625
 71
     0
 72
     0
 73
     0
 74
     0
 75
     0
 76
     0
 77
     1
 78
     8
170
     0
171
     3
172
     1
173
     0
174
     0
175
     0
176
     0
177
     0
178
     0
  0
ENDTAB
  0
ENDSEC
  0
SECTION
  2
BLOCKS
  0
BLOCK
  8
0
  2
$MODEL_SPACE
 70
     0
 10
0.0
 20
0.0
 30
0.0
  3
$MODEL_SPACE
  1

  0
ENDBLK
  5
21
  8
0
  0
BLOCK
 67
     1
  8
0
  2
$PAPER_SPACE
 70
     0
 10
0.0
 20
0.0
 30
0.0
  3
$PAPER_SPACE
  1

  0
ENDBLK
  5
1D
 67
     1
  8
0
  0
ENDSEC
  0
SECTION
  2
ENTITIES
  0
LINE
  5
44
  8
0
  6
CONTINUOUS
 62
     7
 10
104.2915242879
 20
151.2036510957
 30
0.0
 11
112.4899009222
 21
153.561968605
 31
0.0
  0
ARC
  5
45
  8
0
  6
CONTINUOUS
 62
     7
 10
111.0856397166
 20
157.4150543056
 30
0.0
 40
16.85941644473483
 50
121.5240643031
 51
182.6408657834
  0
LINE
  5
46
  8
0
  6
CONTINUOUS
 62
     7
 10
106.6168708554
 20
171.2402672908
 30
0.0
 11
105.4742304279
 21
170.668947077
 31
0.0
  0
LINE
  5
47
  8
0
  6
CONTINUOUS
 62
     7
 10
113.1471533571
 20
156.6168647216
 30
0.0
 11
113.7722883834
 21
156.9294322348
 31
0.0
  0
LINE
  5
48
  8
0
  6
CONTINUOUS
 62
     7
 10
119.8646677784
 20
162.5559328116
 30
0.0
 11
119.8646677784
 21
163.2630395928
 31
0.0
  0
LINE
  5
49
  8
0
  6
CONTINUOUS
 62
     7
 10
115.3391843788
 20
172.314006392
 30
0.0
 11
114.7734989538
 21
172.7382704607
 31
0.0
  0
ARC
  5
4A
  8
0
  6
CONTINUOUS
 62
     7
 10
112.3556481809
 20
165.1841751222
 30
0.0
 40
6.595624430533981
 50
21.1948936627
 51
45.8438302944
  0
ARC
  5
4B
  8
0
  6
CONTINUOUS
 62
     7
 10
110.2563814907
 20
165.0541845512
 30
0.0
 40
2.890930052494914
 50
0.5993837085
 51
59.2858364453
  0
ARC
  5
4C
  8
0
  6
CONTINUOUS
 62
     7
 10
120.7900711507
 20
152.6093938688
 30
0.0
 40
14.63012766020428
 50
121.4940157544
 51
179.6122687972
  0
ARC
  5
4D
  8
0
  6
CONTINUOUS
 62
     7
 10
103.6105800097
 20
154.0274857986
 30
0.0
 40
2.870706385909648
 50
269.0161394055
 51
332.645189977
  0
ARC
  5
4E
  8
0
  6
CONTINUOUS
 62
     7
 10
101.1375313333
 20
151.4616120725
 30
0.0
 40
2.442797672923989
 50
352.8414721087
 51
26.2657206311
  0
ARC
  5
4F
  8
0
  6
CONTINUOUS
 62
     7
 10
120.9451929208
 20
152.5230593556
 30
0.0
 40
17.61709034261053
 50
121.5280348842
 51
179.9363346248
  0
ARC
  5
50
  8
0
  6
CONTINUOUS
 62
     7
 10
112.4662380087
 20
156.7621544692
 30
0.0
 40
17.62342109579714
 50
121.539539092
 51
179.924830417
  0
LINE
  5
51
  8
0
  6
CONTINUOUS
 62
     7
 10
103.2476584205
 20
171.7822330807
 30
0.0
 11
107.4902991076
 21
169.6609127372
 31
0.0
  0
LINE
  5
52
  8
0
  6
CONTINUOUS
 62
     7
 10
107.4902991076
 20
169.6609127372
 30
0.0
 11
111.7329397947
 21
167.5395923936
 31
0.0
  0
LINE
  5
53
  8
0
  6
CONTINUOUS
 62
     7
 10
94.8428320799
 20
156.7852756284
 30
0.0
 11
103.3281134541
 21
152.5426349412
 31
0.0
  0
LINE
  5
54
  8
0
  6
CONTINUOUS
 62
     7
 10
113.1471533571
 20
159.9042823821
 30
0.0
 11
113.1471533571
 21
165.0844266525
 31
0.0
  0
LINE
  5
55
  8
0
  6
CONTINUOUS
 62
     7
 10
113.1471533571
 20
154.718218889
 30
0.0
 11
113.1471533571
 21
159.9042823821
 31
0.0
  0
LINE
  5
56
  8
0
  6
CONTINUOUS
 62
     7
 10
106.1602784811
 20
152.7083979098
 30
0.0
 11
113.1471533571
 21
154.718218889
 31
0.0
  0
ARC
  5
57
  8
0
  6
CONTINUOUS
 62
     7
 10
103.9597981404
 20
152.501529573
 30
0.0
 40
1.402150281153711
 50
243.2235004185
 51
253.4881453238
  0
ARC
  5
58
  8
0
  6
CONTINUOUS
 62
     7
 10
112.0650744806
 20
154.5683821562
 30
0.0
 40
1.092403653157496
 50
292.8855398067
 51
7.883681029
  0
POLYLINE
  5
59
  8
0
  6
CONTINUOUS
 62
     7
 66
     1
 10
0.0
 20
0.0
 30
0.0
  0
VERTEX
  5
87
  8
0
  6
CONTINUOUS
 62
     7
 10
94.8428320799
 20
156.7852756284
 30
0.0
  0
VERTEX
  5
88
  8
0
  6
CONTINUOUS
 62
     7
 10
94.8331485369
 20
156.787944005
 30
0.0
  0
VERTEX
  5
89
  8
0
  6
CONTINUOUS
 62
     7
 10
94.8219798596
 20
156.7856233013
 30
0.0
  0
VERTEX
  5
8A
  8
0
  6
CONTINUOUS
 62
     7
 10
94.8058233678
 20
156.7720297238
 30
0.0
  0
VERTEX
  5
8B
  8
0
  6
CONTINUOUS
 62
     7
 10
94.7631980229
 20
156.6779944647
 30
0.0
  0
VERTEX
  5
8C
  8
0
  6
CONTINUOUS
 62
     7
 10
94.7123033624
 20
156.4615153356
 30
0.0
  0
VERTEX
  5
8D
  8
0
  6
CONTINUOUS
 62
     7
 10
94.677497725
 20
156.2321980207
 30
0.0
  0
VERTEX
  5
8E
  8
0
  6
CONTINUOUS
 62
     7
 10
94.609657743
 20
155.6330176604
 30
0.0
  0
SEQEND
  5
116
  8
0
  6
CONTINUOUS
 62
     7
  0
ARC
  5
5A
  8
0
  6
CONTINUOUS
 62
     7
 10
95.5045093109
 20
156.5265813309
 30
0.0
 40
1.264600870521686
 50
174.9352523396
 51
224.9587394081
  0
ARC
  5
5B
  8
0
  6
CONTINUOUS
 62
     7
 10
102.7607157172
 20
171.0393116148
 30
0.0
 40
0.88828233170406
 50
56.7574414649
 51
123.2550688722
  0
ARC
  5
5C
  8
0
  6
CONTINUOUS
 62
     7
 10
95.6493207824
 20
157.0930440374
 30
0.0
 40
1.792366105675557
 50
234.5458981795
 51
243.2590381026
  0
LINE
  5
5D
  8
0
  6
CONTINUOUS
 62
     7
 10
94.8428320799
 20
155.4923716069
 30
0.0
 11
103.3281134541
 21
151.2497309198
 31
0.0
  0
ARC
  5
5E
  8
0
  6
CONTINUOUS
 62
     7
 10
206.8451225559
 20
-29.1955433693
 30
0.0
 40
224.0986761091751
 50
115.6133773597
 51
116.5674171859
  0
POLYLINE
  5
5F
  8
0
  6
CONTINUOUS
 62
     7
 66
     1
 10
0.0
 20
0.0
 30
0.0
  0
VERTEX
  5
8F
  8
0
  6
CONTINUOUS
 62
     7
 10
109.9680949457
 20
172.8813186296
 30
0.0
  0
VERTEX
  5
90
  8
0
  6
CONTINUOUS
 62
     7
 10
110.2390258229
 20
172.9577748717
 30
0.0
  0
VERTEX
  5
91
  8
0
  6
CONTINUOUS
 62
     7
 10
110.5193485046
 20
173.0103436539
 30
0.0
  0
VERTEX
  5
92
  8
0
  6
CONTINUOUS
 62
     7
 10
110.808157688
 20
173.038855205
 30
0.0
  0
VERTEX
  5
93
  8
0
  6
CONTINUOUS
 62
     7
 10
111.1045206633
 20
173.043217447
 30
0.0
  0
VERTEX
  5
94
  8
0
  6
CONTINUOUS
 62
     7
 10
111.4074803255
 20
173.023416292
 30
0.0
  0
VERTEX
  5
95
  8
0
  6
CONTINUOUS
 62
     7
 10
111.7160582657
 20
172.9795156879
 30
0.0
  0
VERTEX
  5
96
  8
0
  6
CONTINUOUS
 62
     7
 10
112.0292579308
 20
172.9116574117
 30
0.0
  0
VERTEX
  5
97
  8
0
  6
CONTINUOUS
 62
     7
 10
112.3460678416
 20
172.820060612
 30
0.0
  0
VERTEX
  5
98
  8
0
  6
CONTINUOUS
 62
     7
 10
112.66546486
 20
172.7050211008
 30
0.0
  0
VERTEX
  5
99
  8
0
  6
CONTINUOUS
 62
     7
 10
112.9864174924
 20
172.5669103985
 30
0.0
  0
VERTEX
  5
9A
  8
0
  6
CONTINUOUS
 62
     7
 10
113.3078892217
 20
172.4061745338
 30
0.0
  0
VERTEX
  5
9B
  8
0
  6
CONTINUOUS
 62
     7
 10
113.6288418542
 20
172.2233326037
 30
0.0
  0
VERTEX
  5
9C
  8
0
  6
CONTINUOUS
 62
     7
 10
113.9482388726
 20
172.0189750966
 30
0.0
  0
VERTEX
  5
9D
  8
0
  6
CONTINUOUS
 62
     7
 10
114.2650487834
 20
171.7937619854
 30
0.0
  0
VERTEX
  5
9E
  8
0
  6
CONTINUOUS
 62
     7
 10
114.5782484485
 20
171.5484205965
 30
0.0
  0
VERTEX
  5
9F
  8
0
  6
CONTINUOUS
 62
     7
 10
114.8868263887
 20
171.2837432604
 30
0.0
  0
VERTEX
  5
A0
  8
0
  6
CONTINUOUS
 62
     7
 10
115.1897860509
 20
171.0005847532
 30
0.0
  0
VERTEX
  5
A1
  8
0
  6
CONTINUOUS
 62
     7
 10
115.4861490261
 20
170.699859536
 30
0.0
  0
VERTEX
  5
A2
  8
0
  6
CONTINUOUS
 62
     7
 10
115.7749582096
 20
170.3825388014
 30
0.0
  0
VERTEX
  5
A3
  8
0
  6
CONTINUOUS
 62
     7
 10
116.0552808913
 20
170.0496473376
 30
0.0
  0
VERTEX
  5
A4
  8
0
  6
CONTINUOUS
 62
     7
 10
116.3262117685
 20
169.7022602182
 30
0.0
  0
SEQEND
  5
115
  8
0
  6
CONTINUOUS
 62
     7
  0
POLYLINE
  5
60
  8
0
  6
CONTINUOUS
 62
     7
 66
     1
 10
0.0
 20
0.0
 30
0.0
  0
VERTEX
  5
A5
  8
0
  6
CONTINUOUS
 62
     7
 10
112.6466925256
 20
166.764314382
 30
0.0
  0
VERTEX
  5
A6
  8
0
  6
CONTINUOUS
 62
     7
 10
113.5776124152
 20
167.507173204
 30
0.0
  0
VERTEX
  5
A7
  8
0
  6
CONTINUOUS
 62
     7
 10
114.501783005
 20
168.244938063
 30
0.0
  0
VERTEX
  5
A8
  8
0
  6
CONTINUOUS
 62
     7
 10
115.4182862617
 20
168.9768760935
 30
0.0
  0
VERTEX
  5
A9
  8
0
  6
CONTINUOUS
 62
     7
 10
116.3262117685
 20
169.7022602182
 30
0.0
  0
SEQEND
  5
114
  8
0
  6
CONTINUOUS
 62
     7
  0
ARC
  5
61
  8
0
  6
CONTINUOUS
 62
     7
 10
101.7181039088
 20
159.8518283486
 30
0.0
 40
12.93122238295966
 50
27.8960349001
 51
32.3139287532
  0
POLYLINE
  5
62
  8
0
  6
CONTINUOUS
 62
     7
 66
     1
 10
0.0
 20
0.0
 30
0.0
  0
VERTEX
  5
AA
  8
0
  6
CONTINUOUS
 62
     7
 10
117.8262117685
 20
167.1151429111
 30
0.0
  0
VERTEX
  5
AB
  8
0
  6
CONTINUOUS
 62
     7
 10
116.6699030032
 20
166.8181565377
 30
0.0
  0
VERTEX
  5
AC
  8
0
  6
CONTINUOUS
 62
     7
 10
115.5037731829
 20
166.5167606423
 30
0.0
  0
VERTEX
  5
AD
  8
0
  6
CONTINUOUS
 62
     7
 10
114.3289806934
 20
166.2112546195
 30
0.0
  0
VERTEX
  5
AE
  8
0
  6
CONTINUOUS
 62
     7
 10
113.1466925256
 20
165.9019419463
 30
0.0
  0
SEQEND
  5
113
  8
0
  6
CONTINUOUS
 62
     7
  0
ARC
  5
63
  8
0
  6
CONTINUOUS
 62
     7
 10
110.7411504921
 20
163.2216074259
 30
0.0
 40
8.08441165849437
 50
331.2093773934
 51
28.7906226066
  0
ARC
  5
64
  8
0
  6
CONTINUOUS
 62
     7
 10
6.8980397187
 20
354.0316281437
 30
0.0
 40
224.0859972251211
 50
298.3035207278
 51
299.6713992538
  0
ARC
  5
65
  8
0
  6
CONTINUOUS
 62
     7
 10
54.1949513479
 20
276.0838368694
 30
0.0
 40
133.2187614980509
 50
296.2648909526
 51
297.7999075312
  0
LINE
  5
66
  8
0
  6
CONTINUOUS
 62
     7
 10
116.3625510385
 20
169.4902189839
 30
0.0
 11
115.5562028553
 21
169.0870448923
 31
0.0
  0
ARC
  5
67
  8
0
  6
CONTINUOUS
 62
     7
 10
111.0160771962
 20
164.5067407143
 30
0.0
 40
6.563386467221175
 50
21.6914384271
 51
44.9155263659
  0
POLYLINE
  5
68
  8
0
  6
CONTINUOUS
 62
     7
 66
     1
 10
0.0
 20
0.0
 30
0.0
  0
VERTEX
  5
AF
  8
0
  6
CONTINUOUS
 62
     7
 10
118.3342131944
 20
167.4833143392
 30
0.0
  0
VERTEX
  5
B0
  8
0
  6
CONTINUOUS
 62
     7
 10
118.5247544212
 20
167.040322447
 30
0.0
  0
VERTEX
  5
B1
  8
0
  6
CONTINUOUS
 62
     7
 10
118.6997719499
 20
166.5930605403
 30
0.0
  0
VERTEX
  5
B2
  8
0
  6
CONTINUOUS
 62
     7
 10
118.8587605515
 20
166.1428197448
 30
0.0
  0
VERTEX
  5
B3
  8
0
  6
CONTINUOUS
 62
     7
 10
119.0012612685
 20
165.6908997856
 30
0.0
  0
VERTEX
  5
B4
  8
0
  6
CONTINUOUS
 62
     7
 10
119.1268627393
 20
165.2386052348
 30
0.0
  0
VERTEX
  5
B5
  8
0
  6
CONTINUOUS
 62
     7
 10
119.235202386
 20
164.787241746
 30
0.0
  0
VERTEX
  5
B6
  8
0
  6
CONTINUOUS
 62
     7
 10
119.3259674611
 20
164.338112285
 30
0.0
  0
VERTEX
  5
B7
  8
0
  6
CONTINUOUS
 62
     7
 10
119.3988959498
 20
163.8925133688
 30
0.0
  0
VERTEX
  5
B8
  8
0
  6
CONTINUOUS
 62
     7
 10
119.4537773273
 20
163.4517313222
 30
0.0
  0
VERTEX
  5
B9
  8
0
  6
CONTINUOUS
 62
     7
 10
119.4904531656
 20
163.0170385655
 30
0.0
  0
VERTEX
  5
BA
  8
0
  6
CONTINUOUS
 62
     7
 10
119.5088175913
 20
162.5896899405
 30
0.0
  0
VERTEX
  5
BB
  8
0
  6
CONTINUOUS
 62
     7
 10
119.5088175913
 20
162.1709190885
 30
0.0
  0
VERTEX
  5
BC
  8
0
  6
CONTINUOUS
 62
     7
 10
119.4904531656
 20
161.7619348893
 30
0.0
  0
VERTEX
  5
BD
  8
0
  6
CONTINUOUS
 62
     7
 10
119.4537773273
 20
161.3639179708
 30
0.0
  0
VERTEX
  5
BE
  8
0
  6
CONTINUOUS
 62
     7
 10
119.3988959498
 20
160.9780173018
 30
0.0
  0
VERTEX
  5
BF
  8
0
  6
CONTINUOUS
 62
     7
 10
119.3259674611
 20
160.6053468743
 30
0.0
  0
VERTEX
  5
C0
  8
0
  6
CONTINUOUS
 62
     7
 10
119.235202386
 20
160.2469824883
 30
0.0
  0
VERTEX
  5
C1
  8
0
  6
CONTINUOUS
 62
     7
 10
119.1268627393
 20
159.9039586463
 30
0.0
  0
VERTEX
  5
C2
  8
0
  6
CONTINUOUS
 62
     7
 10
119.0012612685
 20
159.5772655662
 30
0.0
  0
VERTEX
  5
C3
  8
0
  6
CONTINUOUS
 62
     7
 10
118.8587605515
 20
159.267846324
 30
0.0
  0
VERTEX
  5
C4
  8
0
  6
CONTINUOUS
 62
     7
 10
118.6997719499
 20
158.9765941302
 30
0.0
  0
VERTEX
  5
C5
  8
0
  6
CONTINUOUS
 62
     7
 10
118.5247544212
 20
158.7043497521
 30
0.0
  0
VERTEX
  5
C6
  8
0
  6
CONTINUOUS
 62
     7
 10
118.3342131944
 20
158.4518990867
 30
0.0
  0
SEQEND
  5
112
  8
0
  6
CONTINUOUS
 62
     7
  0
LINE
  5
69
  8
0
  6
CONTINUOUS
 62
     7
 10
118.3342131944
 20
158.4518990867
 30
0.0
 11
117.8262117685
 21
159.3280719408
 31
0.0
  0
LINE
  5
6A
  8
0
  6
CONTINUOUS
 62
     7
 10
117.8262117685
 20
167.1151429111
 30
0.0
 11
118.3342131944
 21
167.4833143392
 31
0.0
  0
LINE
  5
6B
  8
0
  6
CONTINUOUS
 62
     7
 10
118.687766585
 20
167.6600910345
 30
0.0
 11
118.3342131944
 21
167.4833143392
 31
0.0
  0
POLYLINE
  5
6C
  8
0
  6
CONTINUOUS
 62
     7
 66
     1
 10
0.0
 20
0.0
 30
0.0
  0
VERTEX
  5
C7
  8
0
  6
CONTINUOUS
 62
     7
 10
118.687766585
 20
158.628675782
 30
0.0
  0
VERTEX
  5
C8
  8
0
  6
CONTINUOUS
 62
     7
 10
118.8783078118
 20
158.8811264474
 30
0.0
  0
VERTEX
  5
C9
  8
0
  6
CONTINUOUS
 62
     7
 10
119.0533253405
 20
159.1533708255
 30
0.0
  0
VERTEX
  5
CA
  8
0
  6
CONTINUOUS
 62
     7
 10
119.2123139421
 20
159.4446230193
 30
0.0
  0
VERTEX
  5
CB
  8
0
  6
CONTINUOUS
 62
     7
 10
119.3548146591
 20
159.7540422615
 30
0.0
  0
VERTEX
  5
CC
  8
0
  6
CONTINUOUS
 62
     7
 10
119.4804161299
 20
160.0807353415
 30
0.0
  0
VERTEX
  5
CD
  8
0
  6
CONTINUOUS
 62
     7
 10
119.5887557766
 20
160.4237591836
 30
0.0
  0
VERTEX
  5
CE
  8
0
  6
CONTINUOUS
 62
     7
 10
119.6795208517
 20
160.7821235696
 30
0.0
  0
VERTEX
  5
CF
  8
0
  6
CONTINUOUS
 62
     7
 10
119.7524493404
 20
161.1547939971
 30
0.0
  0
VERTEX
  5
D0
  8
0
  6
CONTINUOUS
 62
     7
 10
119.8073307179
 20
161.5406946661
 30
0.0
  0
VERTEX
  5
D1
  8
0
  6
CONTINUOUS
 62
     7
 10
119.8440065562
 20
161.9387115846
 30
0.0
  0
VERTEX
  5
D2
  8
0
  6
CONTINUOUS
 62
     7
 10
119.8623709819
 20
162.3476957838
 30
0.0
  0
VERTEX
  5
D3
  8
0
  6
CONTINUOUS
 62
     7
 10
119.8623709819
 20
162.7664666358
 30
0.0
  0
VERTEX
  5
D4
  8
0
  6
CONTINUOUS
 62
     7
 10
119.8440065562
 20
163.1938152608
 30
0.0
  0
VERTEX
  5
D5
  8
0
  6
CONTINUOUS
 62
     7
 10
119.8073307179
 20
163.6285080175
 30
0.0
  0
VERTEX
  5
D6
  8
0
  6
CONTINUOUS
 62
     7
 10
119.7524493404
 20
164.0692900641
 30
0.0
  0
VERTEX
  5
D7
  8
0
  6
CONTINUOUS
 62
     7
 10
119.6795208517
 20
164.5148889803
 30
0.0
  0
VERTEX
  5
D8
  8
0
  6
CONTINUOUS
 62
     7
 10
119.5887557766
 20
164.9640184413
 30
0.0
  0
VERTEX
  5
D9
  8
0
  6
CONTINUOUS
 62
     7
 10
119.4804161299
 20
165.4153819301
 30
0.0
  0
VERTEX
  5
DA
  8
0
  6
CONTINUOUS
 62
     7
 10
119.3548146591
 20
165.8676764809
 30
0.0
  0
VERTEX
  5
DB
  8
0
  6
CONTINUOUS
 62
     7
 10
119.2123139421
 20
166.3195964401
 30
0.0
  0
VERTEX
  5
DC
  8
0
  6
CONTINUOUS
 62
     7
 10
119.0533253405
 20
166.7698372356
 30
0.0
  0
VERTEX
  5
DD
  8
0
  6
CONTINUOUS
 62
     7
 10
118.8783078118
 20
167.2170991423
 30
0.0
  0
VERTEX
  5
DE
  8
0
  6
CONTINUOUS
 62
     7
 10
118.687766585
 20
167.6600910345
 30
0.0
  0
SEQEND
  5
111
  8
0
  6
CONTINUOUS
 62
     7
  0
LINE
  5
6D
  8
0
  6
CONTINUOUS
 62
     7
 10
118.687766585
 20
158.628675782
 30
0.0
 11
118.3342131944
 21
158.4518990867
 31
0.0
  0
ARC
  5
6E
  8
0
  6
CONTINUOUS
 62
     7
 10
108.7947718554
 20
163.0934546906
 30
0.0
 40
11.07119482186422
 50
0.8776721324
 51
24.2776446694
  0
LINE
  5
6F
  8
0
  6
CONTINUOUS
 62
     7
 10
118.687766585
 20
167.6600910345
 30
0.0
 11
118.8868719403
 21
167.645472997
 31
0.0
  0
POLYLINE
  5
70
  8
0
  6
CONTINUOUS
 62
     7
 66
     1
 10
0.0
 20
0.0
 30
0.0
  0
VERTEX
  5
DF
  8
0
  6
CONTINUOUS
 62
     7
 10
109.4600935198
 20
173.7574914837
 30
0.0
  0
VERTEX
  5
E0
  8
0
  6
CONTINUOUS
 62
     7
 10
109.7440067551
 20
173.8488992564
 30
0.0
  0
VERTEX
  5
E1
  8
0
  6
CONTINUOUS
 62
     7
 10
110.0377439658
 20
173.9163824716
 30
0.0
  0
VERTEX
  5
E2
  8
0
  6
CONTINUOUS
 62
     7
 10
110.340457211
 20
173.9597463235
 30
0.0
  0
VERTEX
  5
E3
  8
0
  6
CONTINUOUS
 62
     7
 10
110.6512726385
 20
173.978865632
 30
0.0
  0
VERTEX
  5
E4
  8
0
  6
CONTINUOUS
 62
     7
 10
110.9692930071
 20
173.9736852049
 30
0.0
  0
VERTEX
  5
E5
  8
0
  6
CONTINUOUS
 62
     7
 10
111.2936002769
 20
173.9442199967
 30
0.0
  0
VERTEX
  5
E6
  8
0
  6
CONTINUOUS
 62
     7
 10
111.6232582594
 20
173.8905550656
 30
0.0
  0
VERTEX
  5
E7
  8
0
  6
CONTINUOUS
 62
     7
 10
111.9573153202
 20
173.8128453278
 30
0.0
  0
VERTEX
  5
E8
  8
0
  6
CONTINUOUS
 62
     7
 10
112.2948071256
 20
173.7113151107
 30
0.0
  0
VERTEX
  5
E9
  8
0
  6
CONTINUOUS
 62
     7
 10
112.6347594269
 20
173.5862575049
 30
0.0
  0
VERTEX
  5
EA
  8
0
  6
CONTINUOUS
 62
     7
 10
112.9761908727
 20
173.4380335182
 30
0.0
  0
VERTEX
  5
EB
  8
0
  6
CONTINUOUS
 62
     7
 10
113.3181158415
 20
173.2670710338
 30
0.0
  0
VERTEX
  5
EC
  8
0
  6
CONTINUOUS
 62
     7
 10
113.6595472873
 20
173.0738635747
 30
0.0
  0
VERTEX
  5
ED
  8
0
  6
CONTINUOUS
 62
     7
 10
113.9994995886
 20
172.8589688792
 30
0.0
  0
VERTEX
  5
EE
  8
0
  6
CONTINUOUS
 62
     7
 10
114.336991394
 20
172.6230072909
 30
0.0
  0
VERTEX
  5
EF
  8
0
  6
CONTINUOUS
 62
     7
 10
114.6710484547
 20
172.3666599679
 30
0.0
  0
VERTEX
  5
F0
  8
0
  6
CONTINUOUS
 62
     7
 10
115.0007064373
 20
172.0906669165
 30
0.0
  0
VERTEX
  5
F1
  8
0
  6
CONTINUOUS
 62
     7
 10
115.3250137071
 20
171.7958248549
 30
0.0
  0
VERTEX
  5
F2
  8
0
  6
CONTINUOUS
 62
     7
 10
115.6430340757
 20
171.4829849134
 30
0.0
  0
VERTEX
  5
F3
  8
0
  6
CONTINUOUS
 62
     7
 10
115.9538495032
 20
171.1530501774
 30
0.0
  0
VERTEX
  5
F4
  8
0
  6
CONTINUOUS
 62
     7
 10
116.2565627484
 20
170.8069730803
 30
0.0
  0
VERTEX
  5
F5
  8
0
  6
CONTINUOUS
 62
     7
 10
116.5502999591
 20
170.4457526543
 30
0.0
  0
VERTEX
  5
F6
  8
0
  6
CONTINUOUS
 62
     7
 10
116.8342131944
 20
170.0704316463
 30
0.0
  0
SEQEND
  5
110
  8
0
  6
CONTINUOUS
 62
     7
  0
LINE
  5
71
  8
0
  6
CONTINUOUS
 62
     7
 10
116.8342131944
 20
170.0704316463
 30
0.0
 11
116.3262117685
 21
169.7022602182
 31
0.0
  0
LINE
  5
72
  8
0
  6
CONTINUOUS
 62
     7
 10
109.9680949457
 20
172.8813186296
 30
0.0
 11
109.4600935198
 21
173.7574914837
 31
0.0
  0
LINE
  5
73
  8
0
  6
CONTINUOUS
 62
     7
 10
109.8136469104
 20
173.934268179
 30
0.0
 11
109.4600935198
 21
173.7574914837
 31
0.0
  0
POLYLINE
  5
74
  8
0
  6
CONTINUOUS
 62
     7
 66
     1
 10
0.0
 20
0.0
 30
0.0
  0
VERTEX
  5
F7
  8
0
  6
CONTINUOUS
 62
     7
 10
117.187766585
 20
170.2472083416
 30
0.0
  0
VERTEX
  5
F8
  8
0
  6
CONTINUOUS
 62
     7
 10
116.9038533497
 20
170.6225293496
 30
0.0
  0
VERTEX
  5
F9
  8
0
  6
CONTINUOUS
 62
     7
 10
116.610116139
 20
170.9837497756
 30
0.0
  0
VERTEX
  5
FA
  8
0
  6
CONTINUOUS
 62
     7
 10
116.3074028937
 20
171.3298268727
 30
0.0
  0
VERTEX
  5
FB
  8
0
  6
CONTINUOUS
 62
     7
 10
115.9965874663
 20
171.6597616087
 30
0.0
  0
VERTEX
  5
FC
  8
0
  6
CONTINUOUS
 62
     7
 10
115.6785670977
 20
171.9726015502
 30
0.0
  0
VERTEX
  5
FD
  8
0
  6
CONTINUOUS
 62
     7
 10
115.3542598279
 20
172.2674436118
 30
0.0
  0
VERTEX
  5
FE
  8
0
  6
CONTINUOUS
 62
     7
 10
115.0246018453
 20
172.5434366632
 30
0.0
  0
VERTEX
  5
FF
  8
0
  6
CONTINUOUS
 62
     7
 10
114.6905447846
 20
172.7997839862
 30
0.0
  0
VERTEX
  5
100
  8
0
  6
CONTINUOUS
 62
     7
 10
114.3530529792
 20
173.0357455745
 30
0.0
  0
VERTEX
  5
101
  8
0
  6
CONTINUOUS
 62
     7
 10
114.0131006779
 20
173.25064027
 30
0.0
  0
VERTEX
  5
102
  8
0
  6
CONTINUOUS
 62
     7
 10
113.6716692321
 20
173.4438477291
 30
0.0
  0
VERTEX
  5
103
  8
0
  6
CONTINUOUS
 62
     7
 10
113.3297442633
 20
173.6148102135
 30
0.0
  0
VERTEX
  5
104
  8
0
  6
CONTINUOUS
 62
     7
 10
112.9883128175
 20
173.7630342002
 30
0.0
  0
VERTEX
  5
105
  8
0
  6
CONTINUOUS
 62
     7
 10
112.6483605162
 20
173.888091806
 30
0.0
  0
VERTEX
  5
106
  8
0
  6
CONTINUOUS
 62
     7
 10
112.3108687108
 20
173.9896220231
 30
0.0
  0
VERTEX
  5
107
  8
0
  6
CONTINUOUS
 62
     7
 10
111.97681165
 20
174.0673317609
 30
0.0
  0
VERTEX
  5
108
  8
0
  6
CONTINUOUS
 62
     7
 10
111.6471536675
 20
174.120996692
 30
0.0
  0
VERTEX
  5
109
  8
0
  6
CONTINUOUS
 62
     7
 10
111.3228463977
 20
174.1504619002
 30
0.0
  0
VERTEX
  5
10A
  8
0
  6
CONTINUOUS
 62
     7
 10
111.0048260291
 20
174.1556423273
 30
0.0
  0
VERTEX
  5
10B
  8
0
  6
CONTINUOUS
 62
     7
 10
110.6940106016
 20
174.1365230188
 30
0.0
  0
VERTEX
  5
10C
  8
0
  6
CONTINUOUS
 62
     7
 10
110.3912973564
 20
174.0931591669
 30
0.0
  0
VERTEX
  5
10D
  8
0
  6
CONTINUOUS
 62
     7
 10
110.0975601457
 20
174.0256759516
 30
0.0
  0
VERTEX
  5
10E
  8
0
  6
CONTINUOUS
 62
     7
 10
109.8136469104
 20
173.934268179
 30
0.0
  0
SEQEND
  5
10F
  8
0
  6
CONTINUOUS
 62
     7
  0
LINE
  5
75
  8
0
  6
CONTINUOUS
 62
     7
 10
117.187766585
 20
170.2472083416
 30
0.0
 11
116.8342131944
 21
170.0704316463
 31
0.0
  0
ARC
  5
76
  8
0
  6
CONTINUOUS
 62
     7
 10
108.9577765609
 20
163.9880459294
 30
0.0
 40
10.49018509666175
 50
36.5322349105
 51
52.5317463334
  0
LINE
  5
77
  8
0
  6
CONTINUOUS
 62
     7
 10
117.3868719403
 20
170.2325903041
 30
0.0
 11
117.187766585
 21
170.2472083416
 31
0.0
  0
LINE
  5
78
  8
0
  6
CONTINUOUS
 62
     7
 10
117.3868719403
 20
170.2325903041
 30
0.0
 11
116.3625510385
 21
169.4902189839
 31
0.0
  0
LINE
  5
79
  8
0
  6
CONTINUOUS
 62
     7
 10
116.2210865494
 20
158.4222688162
 30
0.0
 11
116.3262117685
 21
158.2409546337
 31
0.0
  0
LINE
  5
7A
  8
0
  6
CONTINUOUS
 62
     7
 10
116.3262117685
 20
158.2409546337
 30
0.0
 11
116.8342131944
 21
157.3647817796
 31
0.0
  0
LINE
  5
7B
  8
0
  6
CONTINUOUS
 62
     7
 10
117.2528337507
 20
159.0024663995
 30
0.0
 11
117.3868719403
 21
158.7712847196
 31
0.0
  0
LINE
  5
7C
  8
0
  6
CONTINUOUS
 62
     7
 10
117.187766585
 20
157.5415584749
 30
0.0
 11
117.3868719403
 21
158.7712847196
 31
0.0
  0
LINE
  5
7D
  8
0
  6
CONTINUOUS
 62
     7
 10
117.187766585
 20
157.5415584749
 30
0.0
 11
116.8342131944
 21
157.3647817796
 31
0.0
  0
ARC
  5
7E
  8
0
  6
CONTINUOUS
 62
     7
 10
115.5054339183
 20
161.2070743626
 30
0.0
 40
4.065570889553842
 50
255.1458713961
 51
289.0769105089
  0
LINE
  5
7F
  8
0
  6
CONTINUOUS
 62
     7
 10
107.9600935198
 20
172.6703741766
 30
0.0
 11
108.3049663065
 21
172.0755566064
 31
0.0
  0
LINE
  5
80
  8
0
  6
CONTINUOUS
 62
     7
 10
108.3136469104
 20
172.8471508719
 30
0.0
 11
107.9600935198
 21
172.6703741766
 31
0.0
  0
LINE
  5
81
  8
0
  6
CONTINUOUS
 62
     7
 10
109.152822822
 20
172.4862203291
 30
0.0
 11
108.3136469104
 21
172.8471508719
 31
0.0
  0
ARC
  5
82
  8
0
  6
CONTINUOUS
 62
     7
 10
111.5150361256
 20
169.8041130945
 30
0.0
 40
4.566516125166848
 50
141.1216381869
 51
157.0392751828
  0
ARC
  5
83
  8
0
  6
CONTINUOUS
 62
     8
 10
111.0384055545
 20
164.5102095446
 30
0.0
 40
7.036735625438335
 50
21.2162776855
 51
43.7003365305
  0
ARC
  5
84
  8
0
  6
CONTINUOUS
 62
     8
 10
111.8600479893
 20
164.9287424416
 30
0.0
 40
6.958890560072345
 50
21.5309669555
 51
44.6212492052
  0
TEXT
  5
85
  8
0
  6
CONTINUOUS
 62
     7
 10
0.0
 20
6.732893805
 30
0.0
 40
3.633
  1
Edition étudiante de SolidWorks.
 41
0.6671875
 11
0.0
 21
5.4495
 31
0.0
 73
     1
  0
TEXT
  5
86
  8
0
  6
CONTINUOUS
 62
     7
 10
0.0
 20
1.283393805
 30
0.0
 40
3.633
  1
A usage universitaire uniquement.
 41
0.6681818182
 11
0.0
 21
0.0
 31
0.0
 73
     1
  0
ENDSEC
  0
EOF
