  0
SECTION
  2
HEADER
  9
$ACADVER
  1
AC1009
  9
$DWGCODEPAGE
  3
ansi_1252
  9
$INSBASE
 10
0.0
 20
0.0
 30
0.0
  9
$EXTMIN
 10
0.0
 20
0.0
 30
0.0
  9
$EXTMAX
 10
297.0
 20
210.0
 30
0.0
  9
$LIMMIN
 10
0.0
 20
0.0
  9
$LIMMAX
 10
297.0
 20
210.0
  9
$ORTHOMODE
 70
     0
  9
$REGENMODE
 70
     1
  9
$FILLMODE
 70
     1
  9
$QTEXTMODE
 70
     0
  9
$MIRRTEXT
 70
     1
  9
$DRAGMODE
 70
     2
  9
$LTSCALE
 40
1.0
  9
$OSMODE
 70
    37
  9
$ATTMODE
 70
     1
  9
$TEXTSIZE
 40
3.5
  9
$TRACEWID
 40
1.0
  9
$TEXTSTYLE
  7
STANDARD
  9
$CLAYER
  8
0
  9
$CELTYPE
  6
BYLAYER
  9
$CECOLOR
 62
   256
  9
$DIMSCALE
 40
1.0
  9
$DIMASZ
 40
3.302
  9
$DIMEXO
 40
1.0
  9
$DIMDLI
 40
3.75
  9
$DIMRND
 40
0.0
  9
$DIMDLE
 40
0.0
  9
$DIMEXE
 40
1.0
  9
$DIMTP
 40
0.0
  9
$DIMTM
 40
0.0
  9
$DIMTXT
 40
3.5
  9
$DIMCEN
 40
2.5
  9
$DIMTSZ
 40
0.0
  9
$DIMTOL
 70
     0
  9
$DIMLIM
 70
     0
  9
$DIMTIH
 70
     1
  9
$DIMTOH
 70
     1
  9
$DIMSE1
 70
     0
  9
$DIMSE2
 70
     0
  9
$DIMTAD
 70
     1
  9
$DIMZIN
 70
     0
  9
$DIMBLK
  1

  9
$DIMASO
 70
     1
  9
$DIMSHO
 70
     1
  9
$DIMPOST
  1

  9
$DIMAPOST
  1

  9
$DIMALT
 70
     0
  9
$DIMALTD
 70
     3
  9
$DIMALTF
 40
0.0393700787
  9
$DIMLFAC
 40
1.0
  9
$DIMTOFL
 70
     1
  9
$DIMTVP
 40
0.0
  9
$DIMTIX
 70
     0
  9
$DIMSOXD
 70
     0
  9
$DIMSAH
 70
     0
  9
$DIMBLK1
  1

  9
$DIMBLK2
  1

  9
$DIMSTYLE
  2
ISO-25
  9
$DIMCLRD
 70
     0
  9
$DIMCLRE
 70
     0
  9
$DIMCLRT
 70
     0
  9
$DIMTFAC
 40
1.0
  9
$DIMGAP
 40
1.524
  9
$LUNITS
 70
     2
  9
$LUPREC
 70
     2
  9
$SKETCHINC
 40
1.0
  9
$FILLETRAD
 40
10.0
  9
$AUNITS
 70
     0
  9
$AUPREC
 70
     2
  9
$MENU
  1
.
  9
$ELEVATION
 40
0.0
  9
$PELEVATION
 40
0.0
  9
$THICKNESS
 40
0.0
  9
$LIMCHECK
 70
     0
  9
$CHAMFERA
 40
10.0
  9
$CHAMFERB
 40
10.0
  9
$SKPOLY
 70
     0
  9
$TDCREATE
 40
2456427.333434236
  9
$TDUPDATE
 40
2456427.33343441
  9
$TDINDWG
 40
0.0000000116
  9
$TDUSRTIMER
 40
0.0000000116
  9
$USRTIMER
 70
     1
  9
$ANGBASE
 50
0.0
  9
$ANGDIR
 70
     0
  9
$PDMODE
 70
     0
  9
$PDSIZE
 40
-1.0
  9
$PLINEWID
 40
0.0
  9
$COORDS
 70
     1
  9
$SPLFRAME
 70
     0
  9
$SPLINETYPE
 70
     6
  9
$SPLINESEGS
 70
     8
  9
$ATTDIA
 70
     0
  9
$ATTREQ
 70
     1
  9
$HANDLING
 70
     1
  9
$HANDSEED
  5
AB
  9
$SURFTAB1
 70
     6
  9
$SURFTAB2
 70
     6
  9
$SURFTYPE
 70
     6
  9
$SURFU
 70
     6
  9
$SURFV
 70
     6
  9
$UCSNAME
  2

  9
$UCSORG
 10
0.0
 20
0.0
 30
0.0
  9
$UCSXDIR
 10
1.0
 20
0.0
 30
0.0
  9
$UCSYDIR
 10
0.0
 20
1.0
 30
0.0
  9
$PUCSNAME
  2

  9
$PUCSORG
 10
0.0
 20
0.0
 30
0.0
  9
$PUCSXDIR
 10
1.0
 20
0.0
 30
0.0
  9
$PUCSYDIR
 10
0.0
 20
1.0
 30
0.0
  9
$USERI1
 70
     0
  9
$USERI2
 70
     0
  9
$USERI3
 70
     0
  9
$USERI4
 70
     0
  9
$USERI5
 70
     0
  9
$USERR1
 40
0.0
  9
$USERR2
 40
0.0
  9
$USERR3
 40
0.0
  9
$USERR4
 40
0.0
  9
$USERR5
 40
0.0
  9
$WORLDVIEW
 70
     1
  9
$SHADEDGE
 70
     3
  9
$SHADEDIF
 70
    70
  9
$TILEMODE
 70
     1
  9
$MAXACTVP
 70
    64
  9
$PLIMCHECK
 70
     0
  9
$PEXTMIN
 10
1.0000000000E+20
 20
1.0000000000E+20
 30
1.0000000000E+20
  9
$PEXTMAX
 10
-1.0000000000E+20
 20
-1.0000000000E+20
 30
-1.0000000000E+20
  9
$PLIMMIN
 10
0.0
 20
0.0
  9
$PLIMMAX
 10
420.0
 20
297.0
  9
$UNITMODE
 70
     0
  9
$VISRETAIN
 70
     1
  9
$PLINEGEN
 70
     0
  9
$PSLTSCALE
 70
     1
  0
ENDSEC
  0
SECTION
  2
TABLES
  0
TABLE
  2
VPORT
 70
     1
  0
VPORT
  2
*ACTIVE
 70
     0
 10
0.0
 20
0.0
 11
1.0
 21
1.0
 12
148.5
 22
105.0
 13
0.0
 23
0.0
 14
10.0
 24
10.0
 15
10.0
 25
10.0
 16
0.0
 26
0.0
 36
1.0
 17
0.0
 27
0.0
 37
0.0
 40
210.0
 41
1.4142857143
 42
50.0
 43
0.0
 44
0.0
 50
0.0
 51
0.0
 71
     0
 72
  2000
 73
     1
 74
     3
 75
     0
 76
     0
 77
     0
 78
     0
  0
ENDTAB
  0
TABLE
  2
LTYPE
 70
     6
  0
LTYPE
  2
CONTINUOUS
 70
     0
  3
Solid line
 72
    65
 73
     0
 40
0.0
  0
LTYPE
  2
HIDDEN
 70
     0
  3
Hidden __ __ __ __ __ __ __ __ __ __ __ __ __ __
 72
    65
 73
     2
 40
1.905
 49
1.27
 49
-0.635
  0
LTYPE
  2
PHANTOM
 70
     0
  3
Phantom ______  __  __  ______  __  __  ______
 72
    65
 73
     6
 40
12.7
 49
6.35
 49
-1.27
 49
1.27
 49
-1.27
 49
1.27
 49
-1.27
  0
LTYPE
  2
CENTER
 70
     0
  3
Center ____ _ ____ _ ____ _ ____ _ ____ _ ____
 72
    65
 73
     4
 40
10.16
 49
6.35
 49
-1.27
 49
1.27
 49
-1.27
  0
LTYPE
  2
CENTERX2
 70
     0
  3
Center (2x) ________  __  ________  __  _____
 72
    65
 73
     4
 40
20.32
 49
12.7
 49
-2.54
 49
2.54
 49
-2.54
  0
LTYPE
  2
DOT2
 70
     0
  3
Dot (.5x) ........................................
 72
    65
 73
     2
 40
0.635
 49
0.0
 49
-0.635
  0
ENDTAB
  0
TABLE
  2
LAYER
 70
     1
  0
LAYER
  2
0
 70
     0
 62
     7
  6
CONTINUOUS
  0
ENDTAB
  0
TABLE
  2
STYLE
 70
     1
  0
STYLE
  2
STANDARD
 70
     0
 40
0.0
 41
1.0
 50
0.0
 71
     0
 42
3.5
  3
txt
  4

  0
ENDTAB
  0
TABLE
  2
VIEW
 70
     0
  0
ENDTAB
  0
TABLE
  2
UCS
 70
     0
  0
ENDTAB
  0
TABLE
  2
APPID
 70
     1
  0
APPID
  2
ACAD
 70
     0
  0
ENDTAB
  0
TABLE
  2
DIMSTYLE
 70
     1
  0
DIMSTYLE
  2
ISO-25
 70
     0
  3

  4

  5

  6

  7

 40
1.0
 41
2.5
 42
0.625
 43
3.75
 44
1.25
 45
0.0
 46
0.0
 47
0.0
 48
0.0
140
2.5
141
2.5
142
0.0
143
0.0393700787
144
1.0
145
0.0
146
1.0
147
0.625
 71
     0
 72
     0
 73
     0
 74
     0
 75
     0
 76
     0
 77
     1
 78
     8
170
     0
171
     3
172
     1
173
     0
174
     0
175
     0
176
     0
177
     0
178
     0
  0
ENDTAB
  0
ENDSEC
  0
SECTION
  2
BLOCKS
  0
BLOCK
  8
0
  2
$MODEL_SPACE
 70
     0
 10
0.0
 20
0.0
 30
0.0
  3
$MODEL_SPACE
  1

  0
ENDBLK
  5
21
  8
0
  0
BLOCK
 67
     1
  8
0
  2
$PAPER_SPACE
 70
     0
 10
0.0
 20
0.0
 30
0.0
  3
$PAPER_SPACE
  1

  0
ENDBLK
  5
1D
 67
     1
  8
0
  0
ENDSEC
  0
SECTION
  2
ENTITIES
  0
TEXT
  5
44
  8
0
  6
CONTINUOUS
 62
     7
 10
90.6551269036
 20
108.3433045187
 30
0.0
 40
3.5
  1
1
 41
0.7
 11
90.6551269036
 21
107.106894302
 31
0.0
 73
     1
  0
ARC
  5
45
  8
0
  6
CONTINUOUS
 62
     7
 10
143.9383116286
 20
87.5682215532
 30
0.0
 40
1.600000000000001
 50
100.9134948408
 51
183.2230988011
  0
ARC
  5
46
  8
0
  6
CONTINUOUS
 62
     7
 10
133.697024616
 20
86.9915029413
 30
0.0
 40
8.657512565524076
 50
325.1271537409
 51
3.2230988011
  0
ARC
  5
47
  8
0
  6
CONTINUOUS
 62
     7
 10
139.8015228426
 20
109.0230456853
 30
0.0
 40
27.00000000000001
 50
267.8810083926
 51
272.1189916074
  0
ARC
  5
48
  8
0
  6
CONTINUOUS
 62
     7
 10
145.9060210693
 20
86.9915029413
 30
0.0
 40
8.6575125655241
 50
176.7769011989
 51
214.8728462591
  0
ARC
  5
49
  8
0
  6
CONTINUOUS
 62
     7
 10
135.6647340567
 20
87.5682215532
 30
0.0
 40
1.599999999999994
 50
356.7769011989
 51
79.0865051592
  0
ARC
  5
4A
  8
0
  6
CONTINUOUS
 62
     7
 10
139.8015228426
 20
109.0230456853
 30
0.0
 40
20.25000000000001
 50
258.4134948408
 51
259.0865051592
  0
ARC
  5
4B
  8
0
  6
CONTINUOUS
 62
     7
 10
135.4130115926
 20
87.6182922644
 30
0.0
 40
1.600000000000001
 50
78.4134948408
 51
160.7230988011
  0
ARC
  5
4C
  8
0
  6
CONTINUOUS
 62
     7
 10
125.7305954772
 20
91.0046446087
 30
0.0
 40
8.657512565524101
 50
302.6271537409
 51
340.7230988011
  0
ARC
  5
4D
  8
0
  6
CONTINUOUS
 62
     7
 10
139.8015228426
 20
109.0230456853
 30
0.0
 40
27.00000000000001
 50
245.3810083926
 51
249.6189916074
  0
ARC
  5
4E
  8
0
  6
CONTINUOUS
 62
     7
 10
137.0102374129
 20
86.3324639402
 30
0.0
 40
8.657512565524078
 50
154.2769011989
 51
192.3728462591
  0
ARC
  5
4F
  8
0
  6
CONTINUOUS
 62
     7
 10
127.7692226133
 20
90.7844533276
 30
0.0
 40
1.600000000000002
 50
334.2769011989
 51
56.5865051592
  0
ARC
  5
50
  8
0
  6
CONTINUOUS
 62
     7
 10
139.8015228426
 20
109.0230456853
 30
0.0
 40
20.25
 50
235.9134948408
 51
236.5865051592
  0
ARC
  5
51
  8
0
  6
CONTINUOUS
 62
     7
 10
127.5558226125
 20
90.9270426494
 30
0.0
 40
1.6
 50
55.9134948408
 51
138.2230988011
  0
ARC
  5
52
  8
0
  6
CONTINUOUS
 62
     7
 10
119.9063374766
 20
97.7609245028
 30
0.0
 40
8.657512565524085
 50
280.1271537409
 51
318.2230988011
  0
ARC
  5
53
  8
0
  6
CONTINUOUS
 62
     7
 10
139.8015228426
 20
109.0230456853
 30
0.0
 40
27.0
 50
222.8810083926
 51
227.1189916074
  0
ARC
  5
54
  8
0
  6
CONTINUOUS
 62
     7
 10
128.5394016602
 20
89.1278603192
 30
0.0
 40
8.657512565524081
 50
131.7769011989
 51
169.8728462591
  0
ARC
  5
55
  8
0
  6
CONTINUOUS
 62
     7
 10
121.7055198068
 20
96.7773454552
 30
0.0
 40
1.600000000000019
 50
311.7769011989
 51
34.0865051592
  0
ARC
  5
56
  8
0
  6
CONTINUOUS
 62
     7
 10
139.8015228426
 20
109.0230456853
 30
0.0
 40
20.25
 50
213.4134948408
 51
214.0865051592
  0
ARC
  5
57
  8
0
  6
CONTINUOUS
 62
     7
 10
121.5629304849
 20
96.9907454559
 30
0.0
 40
1.599999999999993
 50
33.4134948408
 51
115.7230988011
  0
ARC
  5
58
  8
0
  6
CONTINUOUS
 62
     7
 10
117.1109410976
 20
106.2317602556
 30
0.0
 40
8.657512565524076
 50
257.6271537409
 51
295.7230988011
  0
ARC
  5
59
  8
0
  6
CONTINUOUS
 62
     7
 10
139.8015228426
 20
109.0230456853
 30
0.0
 40
27.00000000000001
 50
200.3810083926
 51
204.6189916074
  0
ARC
  5
5A
  8
0
  6
CONTINUOUS
 62
     7
 10
121.7831217661
 20
94.9521183199
 30
0.0
 40
8.657512565524078
 50
109.2769011989
 51
147.3728462591
  0
ARC
  5
5B
  8
0
  6
CONTINUOUS
 62
     7
 10
118.3967694218
 20
104.6345344353
 30
0.0
 40
1.600000000000001
 50
289.2769011989
 51
11.5865051592
  0
ARC
  5
5C
  8
0
  6
CONTINUOUS
 62
     7
 10
139.8015228426
 20
109.0230456853
 30
0.0
 40
20.25
 50
190.9134948408
 51
191.5865051592
  0
ARC
  5
5D
  8
0
  6
CONTINUOUS
 62
     7
 10
118.3466987105
 20
104.8862568993
 30
0.0
 40
1.600000000000002
 50
10.9134948408
 51
93.2230988011
  0
ARC
  5
5E
  8
0
  6
CONTINUOUS
 62
     7
 10
117.7699800986
 20
115.1275439119
 30
0.0
 40
8.657512565524085
 50
235.1271537409
 51
273.2230988011
  0
ARC
  5
5F
  8
0
  6
CONTINUOUS
 62
     7
 10
139.8015228426
 20
109.0230456853
 30
0.0
 40
27.0
 50
177.8810083926
 51
182.1189916074
  0
ARC
  5
60
  8
0
  6
CONTINUOUS
 62
     7
 10
117.7699800986
 20
102.9185474586
 30
0.0
 40
8.657512565524083
 50
86.7769011989
 51
124.8728462591
  0
ARC
  5
61
  8
0
  6
CONTINUOUS
 62
     7
 10
118.3466987105
 20
113.1598344712
 30
0.0
 40
1.6
 50
266.7769011989
 51
349.0865051592
  0
ARC
  5
62
  8
0
  6
CONTINUOUS
 62
     7
 10
139.8015228426
 20
109.0230456853
 30
0.0
 40
20.25
 50
168.4134948408
 51
169.0865051592
  0
ARC
  5
63
  8
0
  6
CONTINUOUS
 62
     7
 10
118.3967694218
 20
113.4115569353
 30
0.0
 40
1.600000000000017
 50
348.4134948408
 51
70.7230988011
  0
ARC
  5
64
  8
0
  6
CONTINUOUS
 62
     7
 10
121.7831217661
 20
123.0939730507
 30
0.0
 40
8.657512565524074
 50
212.6271537409
 51
250.7230988011
  0
ARC
  5
65
  8
0
  6
CONTINUOUS
 62
     7
 10
139.8015228426
 20
109.0230456853
 30
0.0
 40
26.99999999999999
 50
155.3810083926
 51
159.6189916074
  0
ARC
  5
66
  8
0
  6
CONTINUOUS
 62
     7
 10
117.1109410976
 20
111.814331115
 30
0.0
 40
8.657512565524067
 50
64.2769011989
 51
102.3728462591
  0
ARC
  5
67
  8
0
  6
CONTINUOUS
 62
     7
 10
121.5629304849
 20
121.0553459146
 30
0.0
 40
1.599999999999998
 50
244.2769011989
 51
326.5865051592
  0
ARC
  5
68
  8
0
  6
CONTINUOUS
 62
     7
 10
139.8015228426
 20
109.0230456853
 30
0.0
 40
20.24999999999998
 50
145.9134948408
 51
146.5865051592
  0
ARC
  5
69
  8
0
  6
CONTINUOUS
 62
     7
 10
121.7055198068
 20
121.2687459154
 30
0.0
 40
1.599999999999992
 50
325.9134948408
 51
48.2230988011
  0
ARC
  5
6A
  8
0
  6
CONTINUOUS
 62
     7
 10
128.5394016602
 20
128.9182310514
 30
0.0
 40
8.657512565524085
 50
190.1271537409
 51
228.2230988011
  0
ARC
  5
6B
  8
0
  6
CONTINUOUS
 62
     7
 10
139.8015228426
 20
109.0230456853
 30
0.0
 40
27.0
 50
132.8810083926
 51
137.1189916074
  0
ARC
  5
6C
  8
0
  6
CONTINUOUS
 62
     7
 10
119.9063374766
 20
120.2851668678
 30
0.0
 40
8.657512565524073
 50
41.7769011989
 51
79.8728462591
  0
ARC
  5
6D
  8
0
  6
CONTINUOUS
 62
     7
 10
127.5558226125
 20
127.1190487212
 30
0.0
 40
1.600000000000008
 50
221.7769011989
 51
304.0865051592
  0
ARC
  5
6E
  8
0
  6
CONTINUOUS
 62
     7
 10
139.8015228426
 20
109.0230456853
 30
0.0
 40
20.25
 50
123.4134948408
 51
124.0865051592
  0
ARC
  5
6F
  8
0
  6
CONTINUOUS
 62
     7
 10
127.7692226133
 20
127.261638043
 30
0.0
 40
1.600000000000005
 50
303.4134948408
 51
25.7230988011
  0
ARC
  5
70
  8
0
  6
CONTINUOUS
 62
     7
 10
137.0102374129
 20
131.7136274303
 30
0.0
 40
8.657512565524083
 50
167.6271537409
 51
205.7230988011
  0
ARC
  5
71
  8
0
  6
CONTINUOUS
 62
     7
 10
139.8015228426
 20
109.0230456853
 30
0.0
 40
27.0
 50
110.3810083926
 51
114.6189916074
  0
ARC
  5
72
  8
0
  6
CONTINUOUS
 62
     7
 10
125.7305954772
 20
127.0414467619
 30
0.0
 40
8.657512565524089
 50
19.2769011989
 51
57.3728462591
  0
ARC
  5
73
  8
0
  6
CONTINUOUS
 62
     7
 10
135.4130115926
 20
130.4277991062
 30
0.0
 40
1.600000000000014
 50
199.2769011989
 51
281.5865051592
  0
ARC
  5
74
  8
0
  6
CONTINUOUS
 62
     7
 10
139.8015228426
 20
109.0230456853
 30
0.0
 40
20.24999999999999
 50
100.9134948408
 51
101.5865051592
  0
ARC
  5
75
  8
0
  6
CONTINUOUS
 62
     7
 10
135.6647340567
 20
130.4778698174
 30
0.0
 40
1.600000000000001
 50
280.9134948408
 51
3.2230988011
  0
ARC
  5
76
  8
0
  6
CONTINUOUS
 62
     7
 10
145.9060210693
 20
131.0545884293
 30
0.0
 40
8.657512565524078
 50
145.1271537409
 51
183.2230988011
  0
ARC
  5
77
  8
0
  6
CONTINUOUS
 62
     7
 10
139.8015228426
 20
109.0230456853
 30
0.0
 40
27.0
 50
87.8810083926
 51
92.1189916074
  0
ARC
  5
78
  8
0
  6
CONTINUOUS
 62
     7
 10
133.697024616
 20
131.0545884293
 30
0.0
 40
8.65751256552407
 50
356.7769011989
 51
34.8728462591
  0
ARC
  5
79
  8
0
  6
CONTINUOUS
 62
     7
 10
143.9383116286
 20
130.4778698174
 30
0.0
 40
1.600000000000001
 50
176.7769011989
 51
259.0865051592
  0
ARC
  5
7A
  8
0
  6
CONTINUOUS
 62
     7
 10
139.8015228426
 20
109.0230456853
 30
0.0
 40
20.25
 50
78.4134948408
 51
79.0865051592
  0
ARC
  5
7B
  8
0
  6
CONTINUOUS
 62
     7
 10
144.1900340926
 20
130.4277991062
 30
0.0
 40
1.600000000000009
 50
258.4134948408
 51
340.7230988011
  0
ARC
  5
7C
  8
0
  6
CONTINUOUS
 62
     7
 10
153.8724502081
 20
127.0414467619
 30
0.0
 40
8.657512565524083
 50
122.6271537409
 51
160.7230988011
  0
ARC
  5
7D
  8
0
  6
CONTINUOUS
 62
     7
 10
139.8015228426
 20
109.0230456853
 30
0.0
 40
27.00000000000001
 50
65.3810083926
 51
69.6189916074
  0
ARC
  5
7E
  8
0
  6
CONTINUOUS
 62
     7
 10
142.5928082724
 20
131.7136274303
 30
0.0
 40
8.657512565524087
 50
334.2769011989
 51
12.3728462591
  0
ARC
  5
7F
  8
0
  6
CONTINUOUS
 62
     7
 10
151.833823072
 20
127.261638043
 30
0.0
 40
1.600000000000012
 50
154.2769011989
 51
236.5865051592
  0
ARC
  5
80
  8
0
  6
CONTINUOUS
 62
     7
 10
139.8015228426
 20
109.0230456853
 30
0.0
 40
20.25
 50
55.9134948408
 51
56.5865051592
  0
ARC
  5
81
  8
0
  6
CONTINUOUS
 62
     7
 10
152.0472230727
 20
127.1190487212
 30
0.0
 40
1.6
 50
235.9134948408
 51
318.2230988011
  0
ARC
  5
82
  8
0
  6
CONTINUOUS
 62
     7
 10
159.6967082087
 20
120.2851668678
 30
0.0
 40
8.657512565524076
 50
100.1271537409
 51
138.2230988011
  0
ARC
  5
83
  8
0
  6
CONTINUOUS
 62
     7
 10
139.8015228426
 20
109.0230456853
 30
0.0
 40
27.00000000000001
 50
42.8810083926
 51
47.1189916074
  0
ARC
  5
84
  8
0
  6
CONTINUOUS
 62
     7
 10
151.0636440251
 20
128.9182310514
 30
0.0
 40
8.657512565524097
 50
311.7769011989
 51
349.8728462591
  0
ARC
  5
85
  8
0
  6
CONTINUOUS
 62
     7
 10
157.8975258785
 20
121.2687459154
 30
0.0
 40
1.600000000000004
 50
131.7769011989
 51
214.0865051592
  0
ARC
  5
86
  8
0
  6
CONTINUOUS
 62
     7
 10
139.8015228426
 20
109.0230456853
 30
0.0
 40
20.25
 50
33.4134948408
 51
34.0865051592
  0
ARC
  5
87
  8
0
  6
CONTINUOUS
 62
     7
 10
158.0401152004
 20
121.0553459146
 30
0.0
 40
1.600000000000012
 50
213.4134948408
 51
295.7230988011
  0
ARC
  5
88
  8
0
  6
CONTINUOUS
 62
     7
 10
162.4921045877
 20
111.814331115
 30
0.0
 40
8.657512565524096
 50
77.6271537409
 51
115.7230988011
  0
ARC
  5
89
  8
0
  6
CONTINUOUS
 62
     7
 10
139.8015228426
 20
109.0230456853
 30
0.0
 40
27.00000000000002
 50
20.3810083926
 51
24.6189916074
  0
ARC
  5
8A
  8
0
  6
CONTINUOUS
 62
     7
 10
157.8199239192
 20
123.0939730507
 30
0.0
 40
8.657512565524081
 50
289.2769011989
 51
327.3728462591
  0
ARC
  5
8B
  8
0
  6
CONTINUOUS
 62
     7
 10
161.2062762635
 20
113.4115569353
 30
0.0
 40
1.600000000000012
 50
109.2769011989
 51
191.5865051592
  0
ARC
  5
8C
  8
0
  6
CONTINUOUS
 62
     7
 10
139.8015228426
 20
109.0230456853
 30
0.0
 40
20.25000000000002
 50
10.9134948408
 51
11.5865051592
  0
ARC
  5
8D
  8
0
  6
CONTINUOUS
 62
     7
 10
161.2563469748
 20
113.1598344712
 30
0.0
 40
1.599999999999987
 50
190.9134948408
 51
273.2230988011
  0
ARC
  5
8E
  8
0
  6
CONTINUOUS
 62
     7
 10
161.8330655866
 20
102.9185474586
 30
0.0
 40
8.65751256552409
 50
55.1271537409
 51
93.2230988011
  0
ARC
  5
8F
  8
0
  6
CONTINUOUS
 62
     7
 10
139.8015228426
 20
109.0230456853
 30
0.0
 40
27.00000000000003
 50
357.8810083926
 51
2.1189916074
  0
ARC
  5
90
  8
0
  6
CONTINUOUS
 62
     7
 10
161.8330655866
 20
115.1275439119
 30
0.0
 40
8.657512565524101
 50
266.7769011989
 51
304.8728462591
  0
ARC
  5
91
  8
0
  6
CONTINUOUS
 62
     7
 10
161.2563469748
 20
104.8862568993
 30
0.0
 40
1.600000000000001
 50
86.7769011989
 51
169.0865051592
  0
ARC
  5
92
  8
0
  6
CONTINUOUS
 62
     7
 10
139.8015228426
 20
109.0230456853
 30
0.0
 40
20.25000000000003
 50
348.4134948408
 51
349.0865051592
  0
ARC
  5
93
  8
0
  6
CONTINUOUS
 62
     7
 10
161.2062762635
 20
104.6345344353
 30
0.0
 40
1.600000000000012
 50
168.4134948408
 51
250.7230988011
  0
ARC
  5
94
  8
0
  6
CONTINUOUS
 62
     7
 10
157.8199239192
 20
94.9521183199
 30
0.0
 40
8.657512565524083
 50
32.6271537409
 51
70.7230988011
  0
ARC
  5
95
  8
0
  6
CONTINUOUS
 62
     7
 10
139.8015228426
 20
109.0230456853
 30
0.0
 40
27.00000000000002
 50
335.3810083926
 51
339.6189916074
  0
ARC
  5
96
  8
0
  6
CONTINUOUS
 62
     7
 10
162.4921045877
 20
106.2317602556
 30
0.0
 40
8.657512565524073
 50
244.2769011989
 51
282.3728462591
  0
ARC
  5
97
  8
0
  6
CONTINUOUS
 62
     7
 10
158.0401152004
 20
96.9907454559
 30
0.0
 40
1.600000000000012
 50
64.2769011989
 51
146.5865051592
  0
ARC
  5
98
  8
0
  6
CONTINUOUS
 62
     7
 10
139.8015228426
 20
109.0230456853
 30
0.0
 40
20.25000000000002
 50
325.9134948408
 51
326.5865051592
  0
ARC
  5
99
  8
0
  6
CONTINUOUS
 62
     7
 10
157.8975258785
 20
96.7773454552
 30
0.0
 40
1.599999999999991
 50
145.9134948408
 51
228.2230988011
  0
ARC
  5
9A
  8
0
  6
CONTINUOUS
 62
     7
 10
151.0636440251
 20
89.1278603192
 30
0.0
 40
8.65751256552408
 50
10.1271537409
 51
48.2230988011
  0
ARC
  5
9B
  8
0
  6
CONTINUOUS
 62
     7
 10
139.8015228426
 20
109.0230456853
 30
0.0
 40
27.00000000000002
 50
312.8810083926
 51
317.1189916074
  0
ARC
  5
9C
  8
0
  6
CONTINUOUS
 62
     7
 10
159.6967082087
 20
97.7609245028
 30
0.0
 40
8.657512565524067
 50
221.7769011989
 51
259.8728462591
  0
ARC
  5
9D
  8
0
  6
CONTINUOUS
 62
     7
 10
152.0472230727
 20
90.9270426494
 30
0.0
 40
1.6
 50
41.7769011989
 51
124.0865051592
  0
ARC
  5
9E
  8
0
  6
CONTINUOUS
 62
     7
 10
139.8015228426
 20
109.0230456853
 30
0.0
 40
20.25000000000002
 50
303.4134948408
 51
304.0865051592
  0
ARC
  5
9F
  8
0
  6
CONTINUOUS
 62
     7
 10
151.833823072
 20
90.7844533276
 30
0.0
 40
1.600000000000012
 50
123.4134948408
 51
205.7230988011
  0
ARC
  5
A0
  8
0
  6
CONTINUOUS
 62
     7
 10
142.5928082724
 20
86.3324639402
 30
0.0
 40
8.657512565524083
 50
347.6271537409
 51
25.7230988011
  0
ARC
  5
A1
  8
0
  6
CONTINUOUS
 62
     7
 10
139.8015228426
 20
109.0230456853
 30
0.0
 40
27.00000000000002
 50
290.3810083926
 51
294.6189916074
  0
ARC
  5
A2
  8
0
  6
CONTINUOUS
 62
     7
 10
153.8724502081
 20
91.0046446087
 30
0.0
 40
8.657512565524105
 50
199.2769011989
 51
237.3728462591
  0
ARC
  5
A3
  8
0
  6
CONTINUOUS
 62
     7
 10
144.1900340926
 20
87.6182922644
 30
0.0
 40
1.6
 50
19.2769011989
 51
101.5865051592
  0
ARC
  5
A4
  8
0
  6
CONTINUOUS
 62
     7
 10
139.8015228426
 20
109.0230456853
 30
0.0
 40
20.25000000000002
 50
280.9134948408
 51
281.5865051592
  0
CIRCLE
  5
A5
  8
0
  6
CONTINUOUS
 62
     7
 10
139.8015228426
 20
109.0230456853
 30
0.0
 40
12.5
  0
CIRCLE
  5
A6
  8
0
  6
CONTINUOUS
 62
     7
 10
139.8015228426
 20
109.0230456853
 30
0.0
 40
3.0
  0
CIRCLE
  5
A7
  8
0
  6
CONTINUOUS
 62
     7
 10
139.8015228426
 20
118.0230456853
 30
0.0
 40
0.5
  0
CIRCLE
  5
A8
  8
0
  6
CONTINUOUS
 62
     7
 10
139.8015228426
 20
100.0230456853
 30
0.0
 40
0.5
  0
TEXT
  5
A9
  8
0
  6
CONTINUOUS
 62
     7
 10
0.0
 20
6.732893805
 30
0.0
 40
3.633
  1
Edition étudiante de SolidWorks.
 41
0.6671875
 11
0.0
 21
5.4495
 31
0.0
 73
     1
  0
TEXT
  5
AA
  8
0
  6
CONTINUOUS
 62
     7
 10
0.0
 20
1.283393805
 30
0.0
 40
3.633
  1
A usage universitaire uniquement.
 41
0.6681818182
 11
0.0
 21
0.0
 31
0.0
 73
     1
  0
ENDSEC
  0
EOF
