  0
SECTION
  2
HEADER
  9
$ACADVER
  1
AC1009
  9
$DWGCODEPAGE
  3
ansi_1252
  9
$INSBASE
 10
0.0
 20
0.0
 30
0.0
  9
$EXTMIN
 10
0.0
 20
0.0
 30
0.0
  9
$EXTMAX
 10
297.0
 20
210.0
 30
0.0
  9
$LIMMIN
 10
0.0
 20
0.0
  9
$LIMMAX
 10
297.0
 20
210.0
  9
$ORTHOMODE
 70
     0
  9
$REGENMODE
 70
     1
  9
$FILLMODE
 70
     1
  9
$QTEXTMODE
 70
     0
  9
$MIRRTEXT
 70
     1
  9
$DRAGMODE
 70
     2
  9
$LTSCALE
 40
1.0
  9
$OSMODE
 70
    37
  9
$ATTMODE
 70
     1
  9
$TEXTSIZE
 40
3.5
  9
$TRACEWID
 40
1.0
  9
$TEXTSTYLE
  7
STANDARD
  9
$CLAYER
  8
0
  9
$CELTYPE
  6
BYLAYER
  9
$CECOLOR
 62
   256
  9
$DIMSCALE
 40
1.0
  9
$DIMASZ
 40
3.302
  9
$DIMEXO
 40
1.0
  9
$DIMDLI
 40
3.75
  9
$DIMRND
 40
0.0
  9
$DIMDLE
 40
0.0
  9
$DIMEXE
 40
1.0
  9
$DIMTP
 40
0.0
  9
$DIMTM
 40
0.0
  9
$DIMTXT
 40
3.5
  9
$DIMCEN
 40
2.5
  9
$DIMTSZ
 40
0.0
  9
$DIMTOL
 70
     0
  9
$DIMLIM
 70
     0
  9
$DIMTIH
 70
     1
  9
$DIMTOH
 70
     1
  9
$DIMSE1
 70
     0
  9
$DIMSE2
 70
     0
  9
$DIMTAD
 70
     1
  9
$DIMZIN
 70
     0
  9
$DIMBLK
  1

  9
$DIMASO
 70
     1
  9
$DIMSHO
 70
     1
  9
$DIMPOST
  1

  9
$DIMAPOST
  1

  9
$DIMALT
 70
     0
  9
$DIMALTD
 70
     3
  9
$DIMALTF
 40
0.0393700787
  9
$DIMLFAC
 40
0.5
  9
$DIMTOFL
 70
     1
  9
$DIMTVP
 40
0.0
  9
$DIMTIX
 70
     0
  9
$DIMSOXD
 70
     0
  9
$DIMSAH
 70
     0
  9
$DIMBLK1
  1

  9
$DIMBLK2
  1

  9
$DIMSTYLE
  2
ISO-25
  9
$DIMCLRD
 70
     0
  9
$DIMCLRE
 70
     0
  9
$DIMCLRT
 70
     0
  9
$DIMTFAC
 40
1.0
  9
$DIMGAP
 40
1.524
  9
$LUNITS
 70
     2
  9
$LUPREC
 70
     2
  9
$SKETCHINC
 40
1.0
  9
$FILLETRAD
 40
10.0
  9
$AUNITS
 70
     0
  9
$AUPREC
 70
     2
  9
$MENU
  1
.
  9
$ELEVATION
 40
0.0
  9
$PELEVATION
 40
0.0
  9
$THICKNESS
 40
0.0
  9
$LIMCHECK
 70
     0
  9
$CHAMFERA
 40
10.0
  9
$CHAMFERB
 40
10.0
  9
$SKPOLY
 70
     0
  9
$TDCREATE
 40
2456465.363757905
  9
$TDUPDATE
 40
2456465.363758021
  9
$TDINDWG
 40
0.0000000116
  9
$TDUSRTIMER
 40
0.0000000116
  9
$USRTIMER
 70
     1
  9
$ANGBASE
 50
0.0
  9
$ANGDIR
 70
     0
  9
$PDMODE
 70
     0
  9
$PDSIZE
 40
-1.0
  9
$PLINEWID
 40
0.0
  9
$COORDS
 70
     1
  9
$SPLFRAME
 70
     0
  9
$SPLINETYPE
 70
     6
  9
$SPLINESEGS
 70
     8
  9
$ATTDIA
 70
     0
  9
$ATTREQ
 70
     1
  9
$HANDLING
 70
     1
  9
$HANDSEED
  5
124
  9
$SURFTAB1
 70
     6
  9
$SURFTAB2
 70
     6
  9
$SURFTYPE
 70
     6
  9
$SURFU
 70
     6
  9
$SURFV
 70
     6
  9
$UCSNAME
  2

  9
$UCSORG
 10
0.0
 20
0.0
 30
0.0
  9
$UCSXDIR
 10
1.0
 20
0.0
 30
0.0
  9
$UCSYDIR
 10
0.0
 20
1.0
 30
0.0
  9
$PUCSNAME
  2

  9
$PUCSORG
 10
0.0
 20
0.0
 30
0.0
  9
$PUCSXDIR
 10
1.0
 20
0.0
 30
0.0
  9
$PUCSYDIR
 10
0.0
 20
1.0
 30
0.0
  9
$USERI1
 70
     0
  9
$USERI2
 70
     0
  9
$USERI3
 70
     0
  9
$USERI4
 70
     0
  9
$USERI5
 70
     0
  9
$USERR1
 40
0.0
  9
$USERR2
 40
0.0
  9
$USERR3
 40
0.0
  9
$USERR4
 40
0.0
  9
$USERR5
 40
0.0
  9
$WORLDVIEW
 70
     1
  9
$SHADEDGE
 70
     3
  9
$SHADEDIF
 70
    70
  9
$TILEMODE
 70
     1
  9
$MAXACTVP
 70
    64
  9
$PLIMCHECK
 70
     0
  9
$PEXTMIN
 10
1.0000000000E+20
 20
1.0000000000E+20
 30
1.0000000000E+20
  9
$PEXTMAX
 10
-1.0000000000E+20
 20
-1.0000000000E+20
 30
-1.0000000000E+20
  9
$PLIMMIN
 10
0.0
 20
0.0
  9
$PLIMMAX
 10
420.0
 20
297.0
  9
$UNITMODE
 70
     0
  9
$VISRETAIN
 70
     1
  9
$PLINEGEN
 70
     0
  9
$PSLTSCALE
 70
     1
  0
ENDSEC
  0
SECTION
  2
TABLES
  0
TABLE
  2
VPORT
 70
     1
  0
VPORT
  2
*ACTIVE
 70
     0
 10
0.0
 20
0.0
 11
1.0
 21
1.0
 12
148.5
 22
105.0
 13
0.0
 23
0.0
 14
10.0
 24
10.0
 15
10.0
 25
10.0
 16
0.0
 26
0.0
 36
1.0
 17
0.0
 27
0.0
 37
0.0
 40
210.0
 41
1.4142857143
 42
50.0
 43
0.0
 44
0.0
 50
0.0
 51
0.0
 71
     0
 72
  2000
 73
     1
 74
     3
 75
     0
 76
     0
 77
     0
 78
     0
  0
ENDTAB
  0
TABLE
  2
LTYPE
 70
     6
  0
LTYPE
  2
CONTINUOUS
 70
     0
  3
Solid line
 72
    65
 73
     0
 40
0.0
  0
LTYPE
  2
HIDDEN
 70
     0
  3
Hidden __ __ __ __ __ __ __ __ __ __ __ __ __ __
 72
    65
 73
     2
 40
1.905
 49
1.27
 49
-0.635
  0
LTYPE
  2
PHANTOM
 70
     0
  3
Phantom ______  __  __  ______  __  __  ______
 72
    65
 73
     6
 40
12.7
 49
6.35
 49
-1.27
 49
1.27
 49
-1.27
 49
1.27
 49
-1.27
  0
LTYPE
  2
CENTER
 70
     0
  3
Center ____ _ ____ _ ____ _ ____ _ ____ _ ____
 72
    65
 73
     4
 40
10.16
 49
6.35
 49
-1.27
 49
1.27
 49
-1.27
  0
LTYPE
  2
CENTERX2
 70
     0
  3
Center (2x) ________  __  ________  __  _____
 72
    65
 73
     4
 40
20.32
 49
12.7
 49
-2.54
 49
2.54
 49
-2.54
  0
LTYPE
  2
DOT2
 70
     0
  3
Dot (.5x) ........................................
 72
    65
 73
     2
 40
0.635
 49
0.0
 49
-0.635
  0
ENDTAB
  0
TABLE
  2
LAYER
 70
     1
  0
LAYER
  2
0
 70
     0
 62
     7
  6
CONTINUOUS
  0
ENDTAB
  0
TABLE
  2
STYLE
 70
     1
  0
STYLE
  2
STANDARD
 70
     0
 40
0.0
 41
1.0
 50
0.0
 71
     0
 42
3.5
  3
txt
  4

  0
ENDTAB
  0
TABLE
  2
VIEW
 70
     0
  0
ENDTAB
  0
TABLE
  2
UCS
 70
     0
  0
ENDTAB
  0
TABLE
  2
APPID
 70
     1
  0
APPID
  2
ACAD
 70
     0
  0
ENDTAB
  0
TABLE
  2
DIMSTYLE
 70
     1
  0
DIMSTYLE
  2
ISO-25
 70
     0
  3

  4

  5

  6

  7

 40
1.0
 41
2.5
 42
0.625
 43
3.75
 44
1.25
 45
0.0
 46
0.0
 47
0.0
 48
0.0
140
2.5
141
2.5
142
0.0
143
0.0393700787
144
1.0
145
0.0
146
1.0
147
0.625
 71
     0
 72
     0
 73
     0
 74
     0
 75
     0
 76
     0
 77
     1
 78
     8
170
     0
171
     3
172
     1
173
     0
174
     0
175
     0
176
     0
177
     0
178
     0
  0
ENDTAB
  0
ENDSEC
  0
SECTION
  2
BLOCKS
  0
BLOCK
  8
0
  2
$MODEL_SPACE
 70
     0
 10
0.0
 20
0.0
 30
0.0
  3
$MODEL_SPACE
  1

  0
ENDBLK
  5
21
  8
0
  0
BLOCK
 67
     1
  8
0
  2
$PAPER_SPACE
 70
     0
 10
0.0
 20
0.0
 30
0.0
  3
$PAPER_SPACE
  1

  0
ENDBLK
  5
1D
 67
     1
  8
0
  0
ENDSEC
  0
SECTION
  2
ENTITIES
  0
LINE
  5
44
  8
0
  6
CONTINUOUS
 62
     7
 10
152.2786321733
 20
114.6863361121
 30
0.0
 11
153.5786321733
 21
113.3863361121
 31
0.0
  0
LINE
  5
45
  8
0
  6
CONTINUOUS
 62
     7
 10
156.5786321733
 20
113.3863361121
 30
0.0
 11
157.8786321733
 21
114.6863361121
 31
0.0
  0
LINE
  5
46
  8
0
  6
CONTINUOUS
 62
     7
 10
153.5786321733
 20
104.197809783
 30
0.0
 11
155.0286321733
 21
101.6863361121
 31
0.0
  0
LINE
  5
47
  8
0
  6
CONTINUOUS
 62
     7
 10
155.1286321733
 20
101.6863361121
 30
0.0
 11
156.5786321733
 21
104.197809783
 31
0.0
  0
LINE
  5
48
  8
0
  6
CONTINUOUS
 62
     7
 10
153.5786321733
 20
113.3863361121
 30
0.0
 11
153.5786321733
 21
104.197809783
 31
0.0
  0
LINE
  5
49
  8
0
  6
CONTINUOUS
 62
     7
 10
156.5786321733
 20
104.197809783
 30
0.0
 11
156.5786321733
 21
113.3863361121
 31
0.0
  0
LINE
  5
4A
  8
0
  6
CONTINUOUS
 62
     7
 10
160.4885459082
 20
114.6863361121
 30
0.0
 11
161.7885459082
 21
113.3863361121
 31
0.0
  0
LINE
  5
4B
  8
0
  6
CONTINUOUS
 62
     7
 10
164.7885459082
 20
113.3863361121
 30
0.0
 11
166.0885459082
 21
114.6863361121
 31
0.0
  0
LINE
  5
4C
  8
0
  6
CONTINUOUS
 62
     7
 10
161.7885459082
 20
98.197809783
 30
0.0
 11
163.2385459082
 21
95.6863361121
 31
0.0
  0
LINE
  5
4D
  8
0
  6
CONTINUOUS
 62
     7
 10
163.3385459082
 20
95.6863361121
 30
0.0
 11
164.7885459082
 21
98.197809783
 31
0.0
  0
LINE
  5
4E
  8
0
  6
CONTINUOUS
 62
     7
 10
161.7885459082
 20
113.3863361121
 30
0.0
 11
161.7885459082
 21
98.197809783
 31
0.0
  0
LINE
  5
4F
  8
0
  6
CONTINUOUS
 62
     7
 10
164.7885459082
 20
98.197809783
 30
0.0
 11
164.7885459082
 21
113.3863361121
 31
0.0
  0
POLYLINE
  5
50
  8
0
  6
CONTINUOUS
 62
     7
 66
     1
 10
0.0
 20
0.0
 30
0.0
  0
VERTEX
  5
CE
  8
0
  6
CONTINUOUS
 62
     7
 10
140.2617555156
 20
116.1651085158
 30
0.0
  0
VERTEX
  5
CF
  8
0
  6
CONTINUOUS
 62
     7
 10
140.1859703228
 20
116.1516276034
 30
0.0
  0
VERTEX
  5
D0
  8
0
  6
CONTINUOUS
 62
     7
 10
139.7870730963
 20
116.0260251782
 30
0.0
  0
VERTEX
  5
D1
  8
0
  6
CONTINUOUS
 62
     7
 10
139.3909691187
 20
115.8381194628
 30
0.0
  0
VERTEX
  5
D2
  8
0
  6
CONTINUOUS
 62
     7
 10
139.21584514
 20
115.7143833791
 30
0.0
  0
VERTEX
  5
D3
  8
0
  6
CONTINUOUS
 62
     7
 10
139.0741568357
 20
115.5666140374
 30
0.0
  0
VERTEX
  5
D4
  8
0
  6
CONTINUOUS
 62
     7
 10
138.9795654602
 20
115.3916724634
 30
0.0
  0
VERTEX
  5
D5
  8
0
  6
CONTINUOUS
 62
     7
 10
138.9457322679
 20
115.1864196831
 30
0.0
  0
SEQEND
  5
123
  8
0
  6
CONTINUOUS
 62
     7
  0
POLYLINE
  5
51
  8
0
  6
CONTINUOUS
 62
     7
 66
     1
 10
0.0
 20
0.0
 30
0.0
  0
VERTEX
  5
D6
  8
0
  6
CONTINUOUS
 62
     7
 10
144.5457322679
 20
115.1864196831
 30
0.0
  0
VERTEX
  5
D7
  8
0
  6
CONTINUOUS
 62
     7
 10
144.5118990757
 20
115.3916724634
 30
0.0
  0
VERTEX
  5
D8
  8
0
  6
CONTINUOUS
 62
     7
 10
144.4173077002
 20
115.5666140374
 30
0.0
  0
VERTEX
  5
D9
  8
0
  6
CONTINUOUS
 62
     7
 10
144.2756193959
 20
115.7143833791
 30
0.0
  0
VERTEX
  5
DA
  8
0
  6
CONTINUOUS
 62
     7
 10
144.1004954172
 20
115.8381194628
 30
0.0
  0
VERTEX
  5
DB
  8
0
  6
CONTINUOUS
 62
     7
 10
143.7043914396
 20
116.0260251782
 30
0.0
  0
VERTEX
  5
DC
  8
0
  6
CONTINUOUS
 62
     7
 10
143.3054942131
 20
116.1516276034
 30
0.0
  0
VERTEX
  5
DD
  8
0
  6
CONTINUOUS
 62
     7
 10
143.2297090203
 20
116.1651085158
 30
0.0
  0
SEQEND
  5
122
  8
0
  6
CONTINUOUS
 62
     7
  0
ARC
  5
52
  8
0
  6
CONTINUOUS
 62
     7
 10
139.445732261
 20
115.1863361121
 30
0.0
 40
0.5
 50
179.9904234637
 51
270.0
  0
ARC
  5
53
  8
0
  6
CONTINUOUS
 62
     7
 10
144.0457322749
 20
115.1863361121
 30
0.0
 40
0.5
 50
270.0
 51
0.0095765363
  0
LINE
  5
54
  8
0
  6
CONTINUOUS
 62
     7
 10
140.2957322679
 20
104.1863361121
 30
0.0
 11
141.7357322679
 21
101.6863361121
 31
0.0
  0
LINE
  5
55
  8
0
  6
CONTINUOUS
 62
     7
 10
141.7557322679
 20
101.6863361121
 30
0.0
 11
143.1957322679
 21
104.1863361121
 31
0.0
  0
LINE
  5
56
  8
0
  6
CONTINUOUS
 62
     7
 10
140.2957322679
 20
114.6863361121
 30
0.0
 11
140.2957322679
 21
104.1863361121
 31
0.0
  0
LINE
  5
57
  8
0
  6
CONTINUOUS
 62
     7
 10
143.1957322679
 20
104.1863361121
 30
0.0
 11
143.1957322679
 21
114.6863361121
 31
0.0
  0
POLYLINE
  5
58
  8
0
  6
CONTINUOUS
 62
     7
 66
     1
 10
0.0
 20
0.0
 30
0.0
  0
VERTEX
  5
DE
  8
0
  6
CONTINUOUS
 62
     7
 10
132.7743141894
 20
116.1651085158
 30
0.0
  0
VERTEX
  5
DF
  8
0
  6
CONTINUOUS
 62
     7
 10
132.6985289966
 20
116.1516276034
 30
0.0
  0
VERTEX
  5
E0
  8
0
  6
CONTINUOUS
 62
     7
 10
132.2996317702
 20
116.0260251782
 30
0.0
  0
VERTEX
  5
E1
  8
0
  6
CONTINUOUS
 62
     7
 10
131.9035277925
 20
115.8381194628
 30
0.0
  0
VERTEX
  5
E2
  8
0
  6
CONTINUOUS
 62
     7
 10
131.7284038138
 20
115.7143833791
 30
0.0
  0
VERTEX
  5
E3
  8
0
  6
CONTINUOUS
 62
     7
 10
131.5867155095
 20
115.5666140374
 30
0.0
  0
VERTEX
  5
E4
  8
0
  6
CONTINUOUS
 62
     7
 10
131.492124134
 20
115.3916724634
 30
0.0
  0
VERTEX
  5
E5
  8
0
  6
CONTINUOUS
 62
     7
 10
131.4582909418
 20
115.1864196831
 30
0.0
  0
SEQEND
  5
121
  8
0
  6
CONTINUOUS
 62
     7
  0
POLYLINE
  5
59
  8
0
  6
CONTINUOUS
 62
     7
 66
     1
 10
0.0
 20
0.0
 30
0.0
  0
VERTEX
  5
E6
  8
0
  6
CONTINUOUS
 62
     7
 10
137.0582909418
 20
115.1864196831
 30
0.0
  0
VERTEX
  5
E7
  8
0
  6
CONTINUOUS
 62
     7
 10
137.0244577495
 20
115.3916724634
 30
0.0
  0
VERTEX
  5
E8
  8
0
  6
CONTINUOUS
 62
     7
 10
136.929866374
 20
115.5666140374
 30
0.0
  0
VERTEX
  5
E9
  8
0
  6
CONTINUOUS
 62
     7
 10
136.7881780697
 20
115.7143833791
 30
0.0
  0
VERTEX
  5
EA
  8
0
  6
CONTINUOUS
 62
     7
 10
136.613054091
 20
115.8381194628
 30
0.0
  0
VERTEX
  5
EB
  8
0
  6
CONTINUOUS
 62
     7
 10
136.2169501134
 20
116.0260251782
 30
0.0
  0
VERTEX
  5
EC
  8
0
  6
CONTINUOUS
 62
     7
 10
135.8180528869
 20
116.1516276034
 30
0.0
  0
VERTEX
  5
ED
  8
0
  6
CONTINUOUS
 62
     7
 10
135.7422676941
 20
116.1651085158
 30
0.0
  0
SEQEND
  5
120
  8
0
  6
CONTINUOUS
 62
     7
  0
ARC
  5
5A
  8
0
  6
CONTINUOUS
 62
     7
 10
131.9582909348
 20
115.1863361121
 30
0.0
 40
0.5
 50
179.9904234637
 51
270.0
  0
ARC
  5
5B
  8
0
  6
CONTINUOUS
 62
     7
 10
136.5582909488
 20
115.1863361121
 30
0.0
 40
0.5000000000000243
 50
270.0
 51
0.0095765363
  0
LINE
  5
5C
  8
0
  6
CONTINUOUS
 62
     7
 10
132.8082909418
 20
114.6863361121
 30
0.0
 11
132.8082909418
 21
108.1863361121
 31
0.0
  0
LINE
  5
5D
  8
0
  6
CONTINUOUS
 62
     7
 10
135.7082909418
 20
108.1863361121
 30
0.0
 11
135.7082909418
 21
114.6863361121
 31
0.0
  0
LINE
  5
5E
  8
0
  6
CONTINUOUS
 62
     7
 10
132.8082909418
 20
108.1863361121
 30
0.0
 11
134.2482909418
 21
105.6863361121
 31
0.0
  0
LINE
  5
5F
  8
0
  6
CONTINUOUS
 62
     7
 10
134.2682909418
 20
105.6863361121
 30
0.0
 11
135.7082909418
 21
108.1863361121
 31
0.0
  0
POLYLINE
  5
60
  8
0
  6
CONTINUOUS
 62
     7
 66
     1
 10
0.0
 20
0.0
 30
0.0
  0
VERTEX
  5
EE
  8
0
  6
CONTINUOUS
 62
     7
 10
125.2211935533
 20
116.1651085158
 30
0.0
  0
VERTEX
  5
EF
  8
0
  6
CONTINUOUS
 62
     7
 10
125.1454083606
 20
116.1516276034
 30
0.0
  0
VERTEX
  5
F0
  8
0
  6
CONTINUOUS
 62
     7
 10
124.7465111341
 20
116.0260251782
 30
0.0
  0
VERTEX
  5
F1
  8
0
  6
CONTINUOUS
 62
     7
 10
124.3504071565
 20
115.8381194628
 30
0.0
  0
VERTEX
  5
F2
  8
0
  6
CONTINUOUS
 62
     7
 10
124.1752831778
 20
115.7143833791
 30
0.0
  0
VERTEX
  5
F3
  8
0
  6
CONTINUOUS
 62
     7
 10
124.0335948735
 20
115.5666140374
 30
0.0
  0
VERTEX
  5
F4
  8
0
  6
CONTINUOUS
 62
     7
 10
123.939003498
 20
115.3916724634
 30
0.0
  0
VERTEX
  5
F5
  8
0
  6
CONTINUOUS
 62
     7
 10
123.9051703057
 20
115.1864196831
 30
0.0
  0
SEQEND
  5
11F
  8
0
  6
CONTINUOUS
 62
     7
  0
POLYLINE
  5
61
  8
0
  6
CONTINUOUS
 62
     7
 66
     1
 10
0.0
 20
0.0
 30
0.0
  0
VERTEX
  5
F6
  8
0
  6
CONTINUOUS
 62
     7
 10
129.5051703057
 20
115.1864196831
 30
0.0
  0
VERTEX
  5
F7
  8
0
  6
CONTINUOUS
 62
     7
 10
129.4713371134
 20
115.3916724634
 30
0.0
  0
VERTEX
  5
F8
  8
0
  6
CONTINUOUS
 62
     7
 10
129.376745738
 20
115.5666140374
 30
0.0
  0
VERTEX
  5
F9
  8
0
  6
CONTINUOUS
 62
     7
 10
129.2350574337
 20
115.7143833791
 30
0.0
  0
VERTEX
  5
FA
  8
0
  6
CONTINUOUS
 62
     7
 10
129.059933455
 20
115.8381194628
 30
0.0
  0
VERTEX
  5
FB
  8
0
  6
CONTINUOUS
 62
     7
 10
128.6638294773
 20
116.0260251782
 30
0.0
  0
VERTEX
  5
FC
  8
0
  6
CONTINUOUS
 62
     7
 10
128.2649322509
 20
116.1516276034
 30
0.0
  0
VERTEX
  5
FD
  8
0
  6
CONTINUOUS
 62
     7
 10
128.1891470581
 20
116.1651085158
 30
0.0
  0
SEQEND
  5
11E
  8
0
  6
CONTINUOUS
 62
     7
  0
ARC
  5
62
  8
0
  6
CONTINUOUS
 62
     7
 10
124.4051702987
 20
115.1863361121
 30
0.0
 40
0.5
 50
179.9904234637
 51
270.0
  0
ARC
  5
63
  8
0
  6
CONTINUOUS
 62
     7
 10
129.0051703127
 20
115.1863361121
 30
0.0
 40
0.5000000000000243
 50
270.0
 51
0.0095765363
  0
LINE
  5
64
  8
0
  6
CONTINUOUS
 62
     7
 10
125.2551703057
 20
110.7863361121
 30
0.0
 11
126.6951703057
 21
108.2863361121
 31
0.0
  0
LINE
  5
65
  8
0
  6
CONTINUOUS
 62
     7
 10
126.7151703057
 20
108.2863361121
 30
0.0
 11
128.1551703057
 21
110.7863361121
 31
0.0
  0
LINE
  5
66
  8
0
  6
CONTINUOUS
 62
     7
 10
128.1551703057
 20
110.7863361121
 30
0.0
 11
128.1551703057
 21
114.6863361121
 31
0.0
  0
LINE
  5
67
  8
0
  6
CONTINUOUS
 62
     7
 10
125.2551703057
 20
114.6863361121
 30
0.0
 11
125.2551703057
 21
110.7863361121
 31
0.0
  0
ARC
  5
68
  8
0
  6
CONTINUOUS
 62
     7
 10
116.3890326805
 20
114.7863361121
 30
0.0
 40
0.0999999999999943
 50
150.7362733108
 51
270.0
  0
ARC
  5
69
  8
0
  6
CONTINUOUS
 62
     7
 10
120.4609253804
 20
114.7863361121
 30
0.0
 40
0.0999999999999978
 50
270.0
 51
29.2637266892
  0
ARC
  5
6A
  8
0
  6
CONTINUOUS
 62
     7
 10
118.4249790304
 20
113.6455105447
 30
0.0
 40
2.433786732966728
 50
117.9834323383
 51
150.7362733108
  0
ARC
  5
6B
  8
0
  6
CONTINUOUS
 62
     7
 10
118.4249790304
 20
113.6455105447
 30
0.0
 40
2.433786732966737
 50
29.2637266892
 51
62.2735702998
  0
LINE
  5
6C
  8
0
  6
CONTINUOUS
 62
     7
 10
117.3249790304
 20
114.6863361121
 30
0.0
 11
117.3249790304
 21
101.6863361121
 31
0.0
  0
LINE
  5
6D
  8
0
  6
CONTINUOUS
 62
     7
 10
119.5249790304
 20
101.6863361121
 30
0.0
 11
119.5249790304
 21
114.6863361121
 31
0.0
  0
LINE
  5
6E
  8
0
  6
CONTINUOUS
 62
     7
 10
117.3249790304
 20
101.6863361121
 30
0.0
 11
118.4249790304
 21
100.5570353922
 31
0.0
  0
LINE
  5
6F
  8
0
  6
CONTINUOUS
 62
     7
 10
118.4249790304
 20
100.5570353922
 30
0.0
 11
119.5249790304
 21
101.6863361121
 31
0.0
  0
ARC
  5
70
  8
0
  6
CONTINUOUS
 62
     7
 10
111.0378206513
 20
114.7863361121
 30
0.0
 40
0.1000000000000121
 50
155.1768109604
 51
270.0
  0
ARC
  5
71
  8
0
  6
CONTINUOUS
 62
     7
 10
114.7371672503
 20
114.7863361121
 30
0.0
 40
0.0999999999999992
 50
270.0
 51
24.8231890396
  0
ARC
  5
72
  8
0
  6
CONTINUOUS
 62
     7
 10
112.8874939508
 20
113.9307584495
 30
0.0
 40
2.137965763081878
 50
122.2855818269
 51
155.1768109604
  0
ARC
  5
73
  8
0
  6
CONTINUOUS
 62
     7
 10
112.8874939508
 20
113.9307584495
 30
0.0
 40
2.137965763081878
 50
24.8231890396
 51
58.0198735067
  0
LINE
  5
74
  8
0
  6
CONTINUOUS
 62
     7
 10
111.7874939508
 20
114.6863361121
 30
0.0
 11
111.7874939508
 21
108.2863361121
 31
0.0
  0
LINE
  5
75
  8
0
  6
CONTINUOUS
 62
     7
 10
113.9874939508
 20
108.2863361121
 30
0.0
 11
113.9874939508
 21
114.6863361121
 31
0.0
  0
LINE
  5
76
  8
0
  6
CONTINUOUS
 62
     7
 10
111.7874939508
 20
108.2863361121
 30
0.0
 11
112.8874939508
 21
107.3834468006
 31
0.0
  0
LINE
  5
77
  8
0
  6
CONTINUOUS
 62
     7
 10
112.8874939508
 20
107.3834468006
 30
0.0
 11
113.9874939508
 21
108.2863361121
 31
0.0
  0
LINE
  5
78
  8
0
  6
CONTINUOUS
 62
     7
 10
153.5786321733
 20
113.3863361121
 30
0.0
 11
156.5786321733
 21
113.3863361121
 31
0.0
  0
LINE
  5
79
  8
0
  6
CONTINUOUS
 62
     7
 10
152.2786321733
 20
114.6863361121
 30
0.0
 11
157.8786321733
 21
114.6863361121
 31
0.0
  0
LINE
  5
7A
  8
0
  6
CONTINUOUS
 62
     7
 10
153.5786321733
 20
104.197809783
 30
0.0
 11
156.5786321733
 21
104.197809783
 31
0.0
  0
LINE
  5
7B
  8
0
  6
CONTINUOUS
 62
     7
 10
155.1286321733
 20
101.6863361121
 30
0.0
 11
155.0286321733
 21
101.6863361121
 31
0.0
  0
LINE
  5
7C
  8
0
  6
CONTINUOUS
 62
     7
 10
161.7885459082
 20
113.3863361121
 30
0.0
 11
164.7885459082
 21
113.3863361121
 31
0.0
  0
LINE
  5
7D
  8
0
  6
CONTINUOUS
 62
     7
 10
160.4885459082
 20
114.6863361121
 30
0.0
 11
166.0885459082
 21
114.6863361121
 31
0.0
  0
LINE
  5
7E
  8
0
  6
CONTINUOUS
 62
     7
 10
161.7885459082
 20
98.197809783
 30
0.0
 11
164.7885459082
 21
98.197809783
 31
0.0
  0
LINE
  5
7F
  8
0
  6
CONTINUOUS
 62
     7
 10
163.3385459082
 20
95.6863361121
 30
0.0
 11
163.2385459082
 21
95.6863361121
 31
0.0
  0
ARC
  5
80
  8
0
  6
CONTINUOUS
 62
     7
 10
142.0918656618
 20
110.9980211108
 30
0.0
 40
5.276326973184829
 50
77.6245258858
 51
88.3289213926
  0
LINE
  5
81
  8
0
  6
CONTINUOUS
 62
     7
 10
143.2226734731
 20
116.1517479198
 30
0.0
 11
143.2290279183
 21
116.1612795876
 31
0.0
  0
POLYLINE
  5
82
  8
0
  6
CONTINUOUS
 62
     7
 66
     1
 10
0.0
 20
0.0
 30
0.0
  0
VERTEX
  5
FE
  8
0
  6
CONTINUOUS
 62
     7
 10
141.2457322679
 20
116.2721041018
 30
0.0
  0
VERTEX
  5
FF
  8
0
  6
CONTINUOUS
 62
     7
 10
140.756324362
 20
116.2359967737
 30
0.0
  0
VERTEX
  5
100
  8
0
  6
CONTINUOUS
 62
     7
 10
140.2687910628
 20
116.1517479198
 30
0.0
  0
SEQEND
  5
11D
  8
0
  6
CONTINUOUS
 62
     7
  0
LINE
  5
83
  8
0
  6
CONTINUOUS
 62
     7
 10
141.2457322679
 20
116.1517479198
 30
0.0
 11
141.2457322679
 21
116.2721041018
 31
0.0
  0
POLYLINE
  5
84
  8
0
  6
CONTINUOUS
 62
     7
 66
     1
 10
0.0
 20
0.0
 30
0.0
  0
VERTEX
  5
101
  8
0
  6
CONTINUOUS
 62
     7
 10
141.2457322679
 20
116.1517479198
 30
0.0
  0
VERTEX
  5
102
  8
0
  6
CONTINUOUS
 62
     7
 10
141.9661409571
 20
116.1654790706
 30
0.0
  0
VERTEX
  5
103
  8
0
  6
CONTINUOUS
 62
     7
 10
142.2457322679
 20
116.1517479198
 30
0.0
  0
SEQEND
  5
11C
  8
0
  6
CONTINUOUS
 62
     7
  0
LINE
  5
85
  8
0
  6
CONTINUOUS
 62
     7
 10
142.2457322679
 20
116.1517479198
 30
0.0
 11
142.2457322679
 21
116.2721041018
 31
0.0
  0
LINE
  5
86
  8
0
  6
CONTINUOUS
 62
     7
 10
141.7457322679
 20
114.6863361121
 30
0.0
 11
144.0457322749
 21
114.6863361121
 31
0.0
  0
LINE
  5
87
  8
0
  6
CONTINUOUS
 62
     7
 10
139.445732261
 20
114.6863361121
 30
0.0
 11
141.7457322679
 21
114.6863361121
 31
0.0
  0
LINE
  5
88
  8
0
  6
CONTINUOUS
 62
     7
 10
141.7457322679
 20
104.1863361121
 30
0.0
 11
143.1957322679
 21
104.1863361121
 31
0.0
  0
LINE
  5
89
  8
0
  6
CONTINUOUS
 62
     7
 10
140.2957322679
 20
104.1863361121
 30
0.0
 11
141.7457322679
 21
104.1863361121
 31
0.0
  0
LINE
  5
8A
  8
0
  6
CONTINUOUS
 62
     7
 10
141.7457322679
 20
101.6863361121
 30
0.0
 11
141.7357322679
 21
101.6863361121
 31
0.0
  0
LINE
  5
8B
  8
0
  6
CONTINUOUS
 62
     7
 10
141.7557322679
 20
101.6863361121
 30
0.0
 11
141.7457322679
 21
101.6863361121
 31
0.0
  0
POLYLINE
  5
8C
  8
0
  6
CONTINUOUS
 62
     7
 66
     1
 10
0.0
 20
0.0
 30
0.0
  0
VERTEX
  5
104
  8
0
  6
CONTINUOUS
 62
     7
 10
135.7352321469
 20
116.1517479198
 30
0.0
  0
VERTEX
  5
105
  8
0
  6
CONTINUOUS
 62
     7
 10
135.0496316939
 20
116.2552375634
 30
0.0
  0
VERTEX
  5
106
  8
0
  6
CONTINUOUS
 62
     7
 10
134.7582909418
 20
116.2721041018
 30
0.0
  0
SEQEND
  5
11B
  8
0
  6
CONTINUOUS
 62
     7
  0
LINE
  5
8D
  8
0
  6
CONTINUOUS
 62
     7
 10
135.7352321469
 20
116.1517479198
 30
0.0
 11
135.7415865921
 21
116.1612795876
 31
0.0
  0
POLYLINE
  5
8E
  8
0
  6
CONTINUOUS
 62
     7
 66
     1
 10
0.0
 20
0.0
 30
0.0
  0
VERTEX
  5
107
  8
0
  6
CONTINUOUS
 62
     7
 10
133.7582909418
 20
116.2721041018
 30
0.0
  0
VERTEX
  5
108
  8
0
  6
CONTINUOUS
 62
     7
 10
133.2688830358
 20
116.2359967737
 30
0.0
  0
VERTEX
  5
109
  8
0
  6
CONTINUOUS
 62
     7
 10
132.7813497366
 20
116.1517479198
 30
0.0
  0
SEQEND
  5
11A
  8
0
  6
CONTINUOUS
 62
     7
  0
LINE
  5
8F
  8
0
  6
CONTINUOUS
 62
     7
 10
133.7582909418
 20
116.1517479198
 30
0.0
 11
133.7582909418
 21
116.2721041018
 31
0.0
  0
POLYLINE
  5
90
  8
0
  6
CONTINUOUS
 62
     7
 66
     1
 10
0.0
 20
0.0
 30
0.0
  0
VERTEX
  5
10A
  8
0
  6
CONTINUOUS
 62
     7
 10
133.7582909418
 20
116.1517479198
 30
0.0
  0
VERTEX
  5
10B
  8
0
  6
CONTINUOUS
 62
     7
 10
134.4786996309
 20
116.1654790706
 30
0.0
  0
VERTEX
  5
10C
  8
0
  6
CONTINUOUS
 62
     7
 10
134.7582909418
 20
116.1517479198
 30
0.0
  0
SEQEND
  5
119
  8
0
  6
CONTINUOUS
 62
     7
  0
LINE
  5
91
  8
0
  6
CONTINUOUS
 62
     7
 10
134.7582909418
 20
116.1517479198
 30
0.0
 11
134.7582909418
 21
116.2721041018
 31
0.0
  0
LINE
  5
92
  8
0
  6
CONTINUOUS
 62
     7
 10
134.2582909418
 20
114.6863361121
 30
0.0
 11
136.5582909488
 21
114.6863361121
 31
0.0
  0
LINE
  5
93
  8
0
  6
CONTINUOUS
 62
     7
 10
131.9582909348
 20
114.6863361121
 30
0.0
 11
134.2582909418
 21
114.6863361121
 31
0.0
  0
LINE
  5
94
  8
0
  6
CONTINUOUS
 62
     7
 10
134.2582909418
 20
108.1863361121
 30
0.0
 11
135.7082909418
 21
108.1863361121
 31
0.0
  0
LINE
  5
95
  8
0
  6
CONTINUOUS
 62
     7
 10
132.8082909418
 20
108.1863361121
 30
0.0
 11
134.2582909418
 21
108.1863361121
 31
0.0
  0
LINE
  5
96
  8
0
  6
CONTINUOUS
 62
     7
 10
134.2582909418
 20
105.6863361121
 30
0.0
 11
134.2482909418
 21
105.6863361121
 31
0.0
  0
LINE
  5
97
  8
0
  6
CONTINUOUS
 62
     7
 10
134.2682909418
 20
105.6863361121
 30
0.0
 11
134.2582909418
 21
105.6863361121
 31
0.0
  0
POLYLINE
  5
98
  8
0
  6
CONTINUOUS
 62
     7
 66
     1
 10
0.0
 20
0.0
 30
0.0
  0
VERTEX
  5
10D
  8
0
  6
CONTINUOUS
 62
     7
 10
128.1821115109
 20
116.1517479198
 30
0.0
  0
VERTEX
  5
10E
  8
0
  6
CONTINUOUS
 62
     7
 10
127.4965110578
 20
116.2552375634
 30
0.0
  0
VERTEX
  5
10F
  8
0
  6
CONTINUOUS
 62
     7
 10
127.2051703057
 20
116.2721041018
 30
0.0
  0
SEQEND
  5
118
  8
0
  6
CONTINUOUS
 62
     7
  0
LINE
  5
99
  8
0
  6
CONTINUOUS
 62
     7
 10
128.1821115109
 20
116.1517479198
 30
0.0
 11
128.1884659561
 21
116.1612795876
 31
0.0
  0
POLYLINE
  5
9A
  8
0
  6
CONTINUOUS
 62
     7
 66
     1
 10
0.0
 20
0.0
 30
0.0
  0
VERTEX
  5
110
  8
0
  6
CONTINUOUS
 62
     7
 10
126.2051703057
 20
116.2721041018
 30
0.0
  0
VERTEX
  5
111
  8
0
  6
CONTINUOUS
 62
     7
 10
125.7157623998
 20
116.2359967737
 30
0.0
  0
VERTEX
  5
112
  8
0
  6
CONTINUOUS
 62
     7
 10
125.2282291005
 20
116.1517479198
 30
0.0
  0
SEQEND
  5
117
  8
0
  6
CONTINUOUS
 62
     7
  0
LINE
  5
9B
  8
0
  6
CONTINUOUS
 62
     7
 10
126.2051703057
 20
116.1517479198
 30
0.0
 11
126.2051703057
 21
116.2721041018
 31
0.0
  0
POLYLINE
  5
9C
  8
0
  6
CONTINUOUS
 62
     7
 66
     1
 10
0.0
 20
0.0
 30
0.0
  0
VERTEX
  5
113
  8
0
  6
CONTINUOUS
 62
     7
 10
126.2051703057
 20
116.1517479198
 30
0.0
  0
VERTEX
  5
114
  8
0
  6
CONTINUOUS
 62
     7
 10
126.9255789949
 20
116.1654790706
 30
0.0
  0
VERTEX
  5
115
  8
0
  6
CONTINUOUS
 62
     7
 10
127.2051703057
 20
116.1517479198
 30
0.0
  0
SEQEND
  5
116
  8
0
  6
CONTINUOUS
 62
     7
  0
LINE
  5
9D
  8
0
  6
CONTINUOUS
 62
     7
 10
127.2051703057
 20
116.1517479198
 30
0.0
 11
127.2051703057
 21
116.2721041018
 31
0.0
  0
LINE
  5
9E
  8
0
  6
CONTINUOUS
 62
     7
 10
126.7051703057
 20
114.6863361121
 30
0.0
 11
129.0051703127
 21
114.6863361121
 31
0.0
  0
LINE
  5
9F
  8
0
  6
CONTINUOUS
 62
     7
 10
124.4051702987
 20
114.6863361121
 30
0.0
 11
126.7051703057
 21
114.6863361121
 31
0.0
  0
LINE
  5
A0
  8
0
  6
CONTINUOUS
 62
     7
 10
126.7051703057
 20
110.7863361121
 30
0.0
 11
128.1551703057
 21
110.7863361121
 31
0.0
  0
LINE
  5
A1
  8
0
  6
CONTINUOUS
 62
     7
 10
125.2551703057
 20
110.7863361121
 30
0.0
 11
126.7051703057
 21
110.7863361121
 31
0.0
  0
LINE
  5
A2
  8
0
  6
CONTINUOUS
 62
     7
 10
126.7051703057
 20
108.2863361121
 30
0.0
 11
126.6951703057
 21
108.2863361121
 31
0.0
  0
LINE
  5
A3
  8
0
  6
CONTINUOUS
 62
     7
 10
126.7151703057
 20
108.2863361121
 30
0.0
 11
126.7051703057
 21
108.2863361121
 31
0.0
  0
LINE
  5
A4
  8
0
  6
CONTINUOUS
 62
     7
 10
118.4249790304
 20
114.6863361121
 30
0.0
 11
116.3890326805
 21
114.6863361121
 31
0.0
  0
LINE
  5
A5
  8
0
  6
CONTINUOUS
 62
     7
 10
120.4609253804
 20
114.6863361121
 30
0.0
 11
118.4249790304
 21
114.6863361121
 31
0.0
  0
LINE
  5
A6
  8
0
  6
CONTINUOUS
 62
     7
 10
119.5572993187
 20
115.7998477111
 30
0.0
 11
119.5572993187
 21
115.7677689854
 31
0.0
  0
ARC
  5
A7
  8
0
  6
CONTINUOUS
 62
     7
 10
118.4249790304
 20
113.6455105447
 30
0.0
 40
2.406539666898052
 50
61.9320721655
 51
81.3497853025
  0
ARC
  5
A8
  8
0
  6
CONTINUOUS
 62
     7
 10
118.4249790304
 20
113.6455105447
 30
0.0
 40
2.153700061785716
 50
80.3250338917
 51
99.9355475896
  0
ARC
  5
A9
  8
0
  6
CONTINUOUS
 62
     7
 10
118.4249790304
 20
113.6455105447
 30
0.0
 40
2.406539666898049
 50
98.8827282294
 51
118.3286707494
  0
LINE
  5
AA
  8
0
  6
CONTINUOUS
 62
     7
 10
117.2830067954
 20
115.7625909727
 30
0.0
 11
117.2830067954
 21
115.794746985
 31
0.0
  0
ARC
  5
AB
  8
0
  6
CONTINUOUS
 62
     7
 10
118.4249790304
 20
113.6455105447
 30
0.0
 40
2.4054376159432
 50
98.8868307944
 51
118.3428228382
  0
LINE
  5
AC
  8
0
  6
CONTINUOUS
 62
     7
 10
118.0533790809
 20
115.7630317069
 30
0.0
 11
118.0533790809
 21
116.0220718424
 31
0.0
  0
ARC
  5
AD
  8
0
  6
CONTINUOUS
 62
     7
 10
118.4249790304
 20
113.6455105447
 30
0.0
 40
2.149879623317511
 50
80.3076752712
 51
99.9533831456
  0
LINE
  5
AE
  8
0
  6
CONTINUOUS
 62
     7
 10
118.7869270332
 20
116.0235609579
 30
0.0
 11
118.7869270332
 21
115.7647028527
 31
0.0
  0
ARC
  5
AF
  8
0
  6
CONTINUOUS
 62
     7
 10
118.4249790304
 20
113.6455105447
 30
0.0
 40
2.405437615943197
 50
61.9180739072
 51
81.3457917987
  0
LINE
  5
B0
  8
0
  6
CONTINUOUS
 62
     7
 10
118.4249790304
 20
101.6863361121
 30
0.0
 11
119.5249790304
 21
101.6863361121
 31
0.0
  0
LINE
  5
B1
  8
0
  6
CONTINUOUS
 62
     7
 10
117.3249790304
 20
101.6863361121
 30
0.0
 11
118.4249790304
 21
101.6863361121
 31
0.0
  0
LINE
  5
B2
  8
0
  6
CONTINUOUS
 62
     7
 10
118.7869270332
 20
116.0235609579
 30
0.0
 11
118.7869270332
 21
116.0246756949
 31
0.0
  0
LINE
  5
B3
  8
0
  6
CONTINUOUS
 62
     7
 10
118.0533790809
 20
116.0220718424
 30
0.0
 11
118.0533790809
 21
116.0231872776
 31
0.0
  0
LINE
  5
B4
  8
0
  6
CONTINUOUS
 62
     7
 10
112.8874939508
 20
114.6863361121
 30
0.0
 11
111.0378206513
 21
114.6863361121
 31
0.0
  0
LINE
  5
B5
  8
0
  6
CONTINUOUS
 62
     7
 10
114.7371672503
 20
114.6863361121
 30
0.0
 11
112.8874939508
 21
114.6863361121
 31
0.0
  0
LINE
  5
B6
  8
0
  6
CONTINUOUS
 62
     7
 10
114.0198142391
 20
115.7442491081
 30
0.0
 11
114.0198142391
 21
115.7060219881
 31
0.0
  0
ARC
  5
B7
  8
0
  6
CONTINUOUS
 62
     7
 10
112.8874939508
 20
113.9307584495
 30
0.0
 40
2.106896511672856
 50
57.490790042
 51
80.1079728812
  0
ARC
  5
B8
  8
0
  6
CONTINUOUS
 62
     7
 10
112.8874939508
 20
113.9307584495
 30
0.0
 40
1.812733763871905
 50
78.4823554727
 51
101.8291608712
  0
ARC
  5
B9
  8
0
  6
CONTINUOUS
 62
     7
 10
112.8874939508
 20
113.9307584495
 30
0.0
 40
2.106896511672853
 50
100.1585761681
 51
122.8210023471
  0
LINE
  5
BA
  8
0
  6
CONTINUOUS
 62
     7
 10
111.7455217158
 20
115.6998286237
 30
0.0
 11
111.7455217158
 21
115.7381867382
 31
0.0
  0
ARC
  5
BB
  8
0
  6
CONTINUOUS
 62
     7
 10
112.8874939508
 20
113.9307584495
 30
0.0
 40
2.105637638992028
 50
100.1647140654
 51
122.8430985514
  0
LINE
  5
BC
  8
0
  6
CONTINUOUS
 62
     7
 10
112.5158940013
 20
115.7003560351
 30
0.0
 11
112.5158940013
 21
116.0033470108
 31
0.0
  0
ARC
  5
BD
  8
0
  6
CONTINUOUS
 62
     7
 10
112.8874939508
 20
113.9307584495
 30
0.0
 40
1.808193058636515
 50
78.453035032
 51
101.8592971125
  0
LINE
  5
BE
  8
0
  6
CONTINUOUS
 62
     7
 10
113.2494419536
 20
116.0050543566
 30
0.0
 11
113.2494419536
 21
115.7023554072
 31
0.0
  0
ARC
  5
BF
  8
0
  6
CONTINUOUS
 62
     7
 10
112.8874939508
 20
113.9307584495
 30
0.0
 40
2.105637638992034
 50
57.468956966
 51
80.1019993277
  0
LINE
  5
C0
  8
0
  6
CONTINUOUS
 62
     7
 10
112.8874939508
 20
108.2863361121
 30
0.0
 11
113.9874939508
 21
108.2863361121
 31
0.0
  0
LINE
  5
C1
  8
0
  6
CONTINUOUS
 62
     7
 10
111.7874939508
 20
108.2863361121
 30
0.0
 11
112.8874939508
 21
108.2863361121
 31
0.0
  0
LINE
  5
C2
  8
0
  6
CONTINUOUS
 62
     7
 10
113.2494419536
 20
116.0050543566
 30
0.0
 11
113.2494419536
 21
116.0063322387
 31
0.0
  0
LINE
  5
C3
  8
0
  6
CONTINUOUS
 62
     7
 10
112.5158940013
 20
116.0033470108
 30
0.0
 11
112.5158940013
 21
116.0046259449
 31
0.0
  0
LINE
  5
C4
  8
0
  6
CONTINUOUS
 62
     8
 10
141.7457322679
 20
115.1864196831
 30
0.0
 11
144.5457322679
 21
115.1864196831
 31
0.0
  0
LINE
  5
C5
  8
0
  6
CONTINUOUS
 62
     8
 10
138.945732268
 20
115.1864196831
 30
0.0
 11
141.7457322679
 21
115.1864196831
 31
0.0
  0
LINE
  5
C6
  8
0
  6
CONTINUOUS
 62
     8
 10
134.2582909418
 20
115.1864196831
 30
0.0
 11
137.0582909418
 21
115.1864196831
 31
0.0
  0
LINE
  5
C7
  8
0
  6
CONTINUOUS
 62
     8
 10
131.4582909419
 20
115.1864196831
 30
0.0
 11
134.2582909418
 21
115.1864196831
 31
0.0
  0
LINE
  5
C8
  8
0
  6
CONTINUOUS
 62
     8
 10
126.7051703057
 20
115.1864196831
 30
0.0
 11
129.5051703057
 21
115.1864196831
 31
0.0
  0
LINE
  5
C9
  8
0
  6
CONTINUOUS
 62
     8
 10
123.9051703058
 20
115.1864196831
 30
0.0
 11
126.7051703057
 21
115.1864196831
 31
0.0
  0
LINE
  5
CA
  8
0
  6
CONTINUOUS
 62
     8
 10
116.3017947885
 20
114.8352191377
 30
0.0
 11
120.5481632724
 21
114.8352191377
 31
0.0
  0
LINE
  5
CB
  8
0
  6
CONTINUOUS
 62
     8
 10
110.9470598872
 20
114.8283180569
 30
0.0
 11
114.8279280144
 21
114.8283180569
 31
0.0
  0
TEXT
  5
CC
  8
0
  6
CONTINUOUS
 62
     7
 10
0.0
 20
6.732893805
 30
0.0
 40
3.633
  1
Edition étudiante de SolidWorks.
 41
0.6671875
 11
0.0
 21
5.4495
 31
0.0
 73
     1
  0
TEXT
  5
CD
  8
0
  6
CONTINUOUS
 62
     7
 10
0.0
 20
1.283393805
 30
0.0
 40
3.633
  1
A usage universitaire uniquement.
 41
0.6681818182
 11
0.0
 21
0.0
 31
0.0
 73
     1
  0
ENDSEC
  0
EOF
