  0
SECTION
  2
HEADER
  9
$ACADVER
  1
AC1009
  9
$DWGCODEPAGE
  3
ansi_1252
  9
$INSBASE
 10
0.0
 20
0.0
 30
0.0
  9
$EXTMIN
 10
0.0
 20
0.0
 30
0.0
  9
$EXTMAX
 10
297.0
 20
210.0
 30
0.0
  9
$LIMMIN
 10
0.0
 20
0.0
  9
$LIMMAX
 10
297.0
 20
210.0
  9
$ORTHOMODE
 70
     0
  9
$REGENMODE
 70
     1
  9
$FILLMODE
 70
     1
  9
$QTEXTMODE
 70
     0
  9
$MIRRTEXT
 70
     1
  9
$DRAGMODE
 70
     2
  9
$LTSCALE
 40
1.0
  9
$OSMODE
 70
    37
  9
$ATTMODE
 70
     1
  9
$TEXTSIZE
 40
3.5
  9
$TRACEWID
 40
1.0
  9
$TEXTSTYLE
  7
STANDARD
  9
$CLAYER
  8
0
  9
$CELTYPE
  6
BYLAYER
  9
$CECOLOR
 62
   256
  9
$DIMSCALE
 40
1.0
  9
$DIMASZ
 40
3.302
  9
$DIMEXO
 40
1.0
  9
$DIMDLI
 40
3.75
  9
$DIMRND
 40
0.0
  9
$DIMDLE
 40
0.0
  9
$DIMEXE
 40
1.0
  9
$DIMTP
 40
0.0
  9
$DIMTM
 40
0.0
  9
$DIMTXT
 40
3.5
  9
$DIMCEN
 40
2.5
  9
$DIMTSZ
 40
0.0
  9
$DIMTOL
 70
     0
  9
$DIMLIM
 70
     0
  9
$DIMTIH
 70
     1
  9
$DIMTOH
 70
     1
  9
$DIMSE1
 70
     0
  9
$DIMSE2
 70
     0
  9
$DIMTAD
 70
     1
  9
$DIMZIN
 70
     0
  9
$DIMBLK
  1

  9
$DIMASO
 70
     1
  9
$DIMSHO
 70
     1
  9
$DIMPOST
  1

  9
$DIMAPOST
  1

  9
$DIMALT
 70
     0
  9
$DIMALTD
 70
     3
  9
$DIMALTF
 40
0.0393700787
  9
$DIMLFAC
 40
5.0
  9
$DIMTOFL
 70
     1
  9
$DIMTVP
 40
0.0
  9
$DIMTIX
 70
     0
  9
$DIMSOXD
 70
     0
  9
$DIMSAH
 70
     0
  9
$DIMBLK1
  1

  9
$DIMBLK2
  1

  9
$DIMSTYLE
  2
ISO-25
  9
$DIMCLRD
 70
     0
  9
$DIMCLRE
 70
     0
  9
$DIMCLRT
 70
     0
  9
$DIMTFAC
 40
1.0
  9
$DIMGAP
 40
1.524
  9
$LUNITS
 70
     2
  9
$LUPREC
 70
     2
  9
$SKETCHINC
 40
1.0
  9
$FILLETRAD
 40
10.0
  9
$AUNITS
 70
     0
  9
$AUPREC
 70
     2
  9
$MENU
  1
.
  9
$ELEVATION
 40
0.0
  9
$PELEVATION
 40
0.0
  9
$THICKNESS
 40
0.0
  9
$LIMCHECK
 70
     0
  9
$CHAMFERA
 40
10.0
  9
$CHAMFERB
 40
10.0
  9
$SKPOLY
 70
     0
  9
$TDCREATE
 40
2456465.331112049
  9
$TDUPDATE
 40
2456465.33111213
  9
$TDINDWG
 40
0.0000000116
  9
$TDUSRTIMER
 40
0.0000000116
  9
$USRTIMER
 70
     1
  9
$ANGBASE
 50
0.0
  9
$ANGDIR
 70
     0
  9
$PDMODE
 70
     0
  9
$PDSIZE
 40
-1.0
  9
$PLINEWID
 40
0.0
  9
$COORDS
 70
     1
  9
$SPLFRAME
 70
     0
  9
$SPLINETYPE
 70
     6
  9
$SPLINESEGS
 70
     8
  9
$ATTDIA
 70
     0
  9
$ATTREQ
 70
     1
  9
$HANDLING
 70
     1
  9
$HANDSEED
  5
A8
  9
$SURFTAB1
 70
     6
  9
$SURFTAB2
 70
     6
  9
$SURFTYPE
 70
     6
  9
$SURFU
 70
     6
  9
$SURFV
 70
     6
  9
$UCSNAME
  2

  9
$UCSORG
 10
0.0
 20
0.0
 30
0.0
  9
$UCSXDIR
 10
1.0
 20
0.0
 30
0.0
  9
$UCSYDIR
 10
0.0
 20
1.0
 30
0.0
  9
$PUCSNAME
  2

  9
$PUCSORG
 10
0.0
 20
0.0
 30
0.0
  9
$PUCSXDIR
 10
1.0
 20
0.0
 30
0.0
  9
$PUCSYDIR
 10
0.0
 20
1.0
 30
0.0
  9
$USERI1
 70
     0
  9
$USERI2
 70
     0
  9
$USERI3
 70
     0
  9
$USERI4
 70
     0
  9
$USERI5
 70
     0
  9
$USERR1
 40
0.0
  9
$USERR2
 40
0.0
  9
$USERR3
 40
0.0
  9
$USERR4
 40
0.0
  9
$USERR5
 40
0.0
  9
$WORLDVIEW
 70
     1
  9
$SHADEDGE
 70
     3
  9
$SHADEDIF
 70
    70
  9
$TILEMODE
 70
     1
  9
$MAXACTVP
 70
    64
  9
$PLIMCHECK
 70
     0
  9
$PEXTMIN
 10
1.0000000000E+20
 20
1.0000000000E+20
 30
1.0000000000E+20
  9
$PEXTMAX
 10
-1.0000000000E+20
 20
-1.0000000000E+20
 30
-1.0000000000E+20
  9
$PLIMMIN
 10
0.0
 20
0.0
  9
$PLIMMAX
 10
420.0
 20
297.0
  9
$UNITMODE
 70
     0
  9
$VISRETAIN
 70
     1
  9
$PLINEGEN
 70
     0
  9
$PSLTSCALE
 70
     1
  0
ENDSEC
  0
SECTION
  2
TABLES
  0
TABLE
  2
VPORT
 70
     1
  0
VPORT
  2
*ACTIVE
 70
     0
 10
0.0
 20
0.0
 11
1.0
 21
1.0
 12
148.5
 22
105.0
 13
0.0
 23
0.0
 14
10.0
 24
10.0
 15
10.0
 25
10.0
 16
0.0
 26
0.0
 36
1.0
 17
0.0
 27
0.0
 37
0.0
 40
210.0
 41
1.4142857143
 42
50.0
 43
0.0
 44
0.0
 50
0.0
 51
0.0
 71
     0
 72
  2000
 73
     1
 74
     3
 75
     0
 76
     0
 77
     0
 78
     0
  0
ENDTAB
  0
TABLE
  2
LTYPE
 70
     6
  0
LTYPE
  2
CONTINUOUS
 70
     0
  3
Solid line
 72
    65
 73
     0
 40
0.0
  0
LTYPE
  2
HIDDEN
 70
     0
  3
Hidden __ __ __ __ __ __ __ __ __ __ __ __ __ __
 72
    65
 73
     2
 40
1.905
 49
1.27
 49
-0.635
  0
LTYPE
  2
PHANTOM
 70
     0
  3
Phantom ______  __  __  ______  __  __  ______
 72
    65
 73
     6
 40
12.7
 49
6.35
 49
-1.27
 49
1.27
 49
-1.27
 49
1.27
 49
-1.27
  0
LTYPE
  2
CENTER
 70
     0
  3
Center ____ _ ____ _ ____ _ ____ _ ____ _ ____
 72
    65
 73
     4
 40
10.16
 49
6.35
 49
-1.27
 49
1.27
 49
-1.27
  0
LTYPE
  2
CENTERX2
 70
     0
  3
Center (2x) ________  __  ________  __  _____
 72
    65
 73
     4
 40
20.32
 49
12.7
 49
-2.54
 49
2.54
 49
-2.54
  0
LTYPE
  2
DOT2
 70
     0
  3
Dot (.5x) ........................................
 72
    65
 73
     2
 40
0.635
 49
0.0
 49
-0.635
  0
ENDTAB
  0
TABLE
  2
LAYER
 70
     1
  0
LAYER
  2
0
 70
     0
 62
     7
  6
CONTINUOUS
  0
ENDTAB
  0
TABLE
  2
STYLE
 70
     1
  0
STYLE
  2
STANDARD
 70
     0
 40
0.0
 41
1.0
 50
0.0
 71
     0
 42
3.5
  3
txt
  4

  0
ENDTAB
  0
TABLE
  2
VIEW
 70
     0
  0
ENDTAB
  0
TABLE
  2
UCS
 70
     0
  0
ENDTAB
  0
TABLE
  2
APPID
 70
     1
  0
APPID
  2
ACAD
 70
     0
  0
ENDTAB
  0
TABLE
  2
DIMSTYLE
 70
     1
  0
DIMSTYLE
  2
ISO-25
 70
     0
  3

  4

  5

  6

  7

 40
1.0
 41
2.5
 42
0.625
 43
3.75
 44
1.25
 45
0.0
 46
0.0
 47
0.0
 48
0.0
140
2.5
141
2.5
142
0.0
143
0.0393700787
144
1.0
145
0.0
146
1.0
147
0.625
 71
     0
 72
     0
 73
     0
 74
     0
 75
     0
 76
     0
 77
     1
 78
     8
170
     0
171
     3
172
     1
173
     0
174
     0
175
     0
176
     0
177
     0
178
     0
  0
ENDTAB
  0
ENDSEC
  0
SECTION
  2
BLOCKS
  0
BLOCK
  8
0
  2
$MODEL_SPACE
 70
     0
 10
0.0
 20
0.0
 30
0.0
  3
$MODEL_SPACE
  1

  0
ENDBLK
  5
21
  8
0
  0
BLOCK
 67
     1
  8
0
  2
$PAPER_SPACE
 70
     0
 10
0.0
 20
0.0
 30
0.0
  3
$PAPER_SPACE
  1

  0
ENDBLK
  5
1D
 67
     1
  8
0
  0
ENDSEC
  0
SECTION
  2
ENTITIES
  0
LINE
  5
44
  8
0
  6
CONTINUOUS
 62
     7
 10
103.6440660634
 20
145.1352090032
 30
0.0
 11
181.586352404
 21
145.1352090032
 31
0.0
  0
LINE
  5
45
  8
0
  6
CONTINUOUS
 62
     7
 10
181.586352404
 20
148.1352090032
 30
0.0
 11
103.6440660634
 21
148.1352090032
 31
0.0
  0
ARC
  5
46
  8
0
  6
CONTINUOUS
 62
     7
 10
186.586352404
 20
146.6352090032
 30
0.0
 40
1.5
 50
270.0
 51
90.0
  0
LINE
  5
47
  8
0
  6
CONTINUOUS
 62
     7
 10
186.586352404
 20
148.1352090032
 30
0.0
 11
181.586352404
 21
148.1352090032
 31
0.0
  0
LINE
  5
48
  8
0
  6
CONTINUOUS
 62
     7
 10
181.586352404
 20
145.1352090032
 30
0.0
 11
186.586352404
 21
145.1352090032
 31
0.0
  0
POLYLINE
  5
49
  8
0
  6
CONTINUOUS
 62
     7
 66
     1
 10
0.0
 20
0.0
 30
0.0
  0
VERTEX
  5
56
  8
0
  6
CONTINUOUS
 62
     7
 10
171.7466064418
 20
136.6352090032
 30
0.0
  0
VERTEX
  5
57
  8
0
  6
CONTINUOUS
 62
     7
 10
171.7521202305
 20
137.0867410273
 30
0.0
  0
VERTEX
  5
58
  8
0
  6
CONTINUOUS
 62
     7
 10
171.7935090381
 20
137.9490039306
 30
0.0
  0
VERTEX
  5
59
  8
0
  6
CONTINUOUS
 62
     7
 10
171.8748595958
 20
138.7974943839
 30
0.0
  0
VERTEX
  5
5A
  8
0
  6
CONTINUOUS
 62
     7
 10
171.9949022933
 20
139.6226266183
 30
0.0
  0
VERTEX
  5
5B
  8
0
  6
CONTINUOUS
 62
     7
 10
172.1517002557
 20
140.4153009072
 30
0.0
  0
VERTEX
  5
5C
  8
0
  6
CONTINUOUS
 62
     7
 10
172.3426070382
 20
141.1667259986
 30
0.0
  0
VERTEX
  5
5D
  8
0
  6
CONTINUOUS
 62
     7
 10
172.564217903
 20
141.8685405884
 30
0.0
  0
VERTEX
  5
5E
  8
0
  6
CONTINUOUS
 62
     7
 10
172.81231038
 20
142.5129699329
 30
0.0
  0
VERTEX
  5
5F
  8
0
  6
CONTINUOUS
 62
     7
 10
173.0817823117
 20
143.0930356585
 30
0.0
  0
VERTEX
  5
60
  8
0
  6
CONTINUOUS
 62
     7
 10
173.3666074126
 20
143.6028416278
 30
0.0
  0
VERTEX
  5
61
  8
0
  6
CONTINUOUS
 62
     7
 10
173.6598503249
 20
144.0379595713
 30
0.0
  0
VERTEX
  5
62
  8
0
  6
CONTINUOUS
 62
     7
 10
173.9538214994
 20
144.3959280546
 30
0.0
  0
VERTEX
  5
63
  8
0
  6
CONTINUOUS
 62
     7
 10
174.2405167288
 20
144.676842999
 30
0.0
  0
VERTEX
  5
64
  8
0
  6
CONTINUOUS
 62
     7
 10
174.5116194296
 20
144.8832892443
 30
0.0
  0
VERTEX
  5
65
  8
0
  6
CONTINUOUS
 62
     7
 10
174.7618141163
 20
145.0221707829
 30
0.0
  0
VERTEX
  5
66
  8
0
  6
CONTINUOUS
 62
     7
 10
174.9922433369
 20
145.1032739248
 30
0.0
  0
VERTEX
  5
67
  8
0
  6
CONTINUOUS
 62
     7
 10
175.2466064418
 20
145.1352090032
 30
0.0
  0
SEQEND
  5
A7
  8
0
  6
CONTINUOUS
 62
     7
  0
ARC
  5
4A
  8
0
  6
CONTINUOUS
 62
     7
 10
185.6401042749
 20
137.068096173
 30
0.0
 40
16.89904317811535
 50
151.4861630084
 51
181.467853587
  0
LINE
  5
4B
  8
0
  6
CONTINUOUS
 62
     7
 10
171.7466064418
 20
61.6352090032
 30
0.0
 11
171.7466064418
 21
136.6352090032
 31
0.0
  0
LINE
  5
4C
  8
0
  6
CONTINUOUS
 62
     7
 10
168.7466064418
 20
136.6352090032
 30
0.0
 11
168.7466064418
 21
61.6352090032
 31
0.0
  0
POLYLINE
  5
4D
  8
0
  6
CONTINUOUS
 62
     7
 66
     1
 10
0.0
 20
0.0
 30
0.0
  0
VERTEX
  5
68
  8
0
  6
CONTINUOUS
 62
     7
 10
103.6440660634
 20
145.1352090032
 30
0.0
  0
VERTEX
  5
69
  8
0
  6
CONTINUOUS
 62
     7
 10
103.8381803472
 20
145.1863202638
 30
0.0
  0
VERTEX
  5
6A
  8
0
  6
CONTINUOUS
 62
     7
 10
104.0190660634
 20
145.3361708975
 30
0.0
  0
VERTEX
  5
6B
  8
0
  6
CONTINUOUS
 62
     7
 10
104.1743961493
 20
145.5745488314
 30
0.0
  0
VERTEX
  5
6C
  8
0
  6
CONTINUOUS
 62
     7
 10
104.2935851162
 20
145.8852090032
 30
0.0
  0
VERTEX
  5
6D
  8
0
  6
CONTINUOUS
 62
     7
 10
104.3685104331
 20
146.2469804356
 30
0.0
  0
VERTEX
  5
6E
  8
0
  6
CONTINUOUS
 62
     7
 10
104.3940660634
 20
146.6352090032
 30
0.0
  0
VERTEX
  5
6F
  8
0
  6
CONTINUOUS
 62
     7
 10
104.3685104331
 20
147.0234375709
 30
0.0
  0
VERTEX
  5
70
  8
0
  6
CONTINUOUS
 62
     7
 10
104.2935851162
 20
147.3852090032
 30
0.0
  0
VERTEX
  5
71
  8
0
  6
CONTINUOUS
 62
     7
 10
104.1743961493
 20
147.695869175
 30
0.0
  0
VERTEX
  5
72
  8
0
  6
CONTINUOUS
 62
     7
 10
104.0190660634
 20
147.9342471089
 30
0.0
  0
VERTEX
  5
73
  8
0
  6
CONTINUOUS
 62
     7
 10
103.8381803472
 20
148.0840977426
 30
0.0
  0
VERTEX
  5
74
  8
0
  6
CONTINUOUS
 62
     7
 10
103.6440660634
 20
148.1352090032
 30
0.0
  0
VERTEX
  5
75
  8
0
  6
CONTINUOUS
 62
     7
 10
103.4499517796
 20
148.0840977426
 30
0.0
  0
VERTEX
  5
76
  8
0
  6
CONTINUOUS
 62
     7
 10
103.2690660634
 20
147.9342471089
 30
0.0
  0
VERTEX
  5
77
  8
0
  6
CONTINUOUS
 62
     7
 10
103.1137359775
 20
147.695869175
 30
0.0
  0
VERTEX
  5
78
  8
0
  6
CONTINUOUS
 62
     7
 10
102.9945470106
 20
147.3852090032
 30
0.0
  0
VERTEX
  5
79
  8
0
  6
CONTINUOUS
 62
     7
 10
102.9196216937
 20
147.0234375709
 30
0.0
  0
VERTEX
  5
7A
  8
0
  6
CONTINUOUS
 62
     7
 10
102.8940660634
 20
146.6352090032
 30
0.0
  0
VERTEX
  5
7B
  8
0
  6
CONTINUOUS
 62
     7
 10
102.9196216937
 20
146.2469804356
 30
0.0
  0
VERTEX
  5
7C
  8
0
  6
CONTINUOUS
 62
     7
 10
102.9945470106
 20
145.8852090032
 30
0.0
  0
VERTEX
  5
7D
  8
0
  6
CONTINUOUS
 62
     7
 10
103.1137359775
 20
145.5745488314
 30
0.0
  0
VERTEX
  5
7E
  8
0
  6
CONTINUOUS
 62
     7
 10
103.2690660634
 20
145.3361708975
 30
0.0
  0
VERTEX
  5
7F
  8
0
  6
CONTINUOUS
 62
     7
 10
103.4499517796
 20
145.1863202638
 30
0.0
  0
VERTEX
  5
80
  8
0
  6
CONTINUOUS
 62
     7
 10
103.6440660634
 20
145.1352090032
 30
0.0
  0
SEQEND
  5
A6
  8
0
  6
CONTINUOUS
 62
     7
  0
POLYLINE
  5
4E
  8
0
  6
CONTINUOUS
 62
     7
 66
     1
 10
0.0
 20
0.0
 30
0.0
  0
VERTEX
  5
81
  8
0
  6
CONTINUOUS
 62
     7
 10
103.6440660634
 20
145.6352090032
 30
0.0
  0
VERTEX
  5
82
  8
0
  6
CONTINUOUS
 62
     7
 10
103.7985745606
 20
145.6841524869
 30
0.0
  0
VERTEX
  5
83
  8
0
  6
CONTINUOUS
 62
     7
 10
103.9379586896
 20
145.8261920088
 30
0.0
  0
VERTEX
  5
84
  8
0
  6
CONTINUOUS
 62
     7
 10
104.0485745606
 20
146.0474237509
 30
0.0
  0
VERTEX
  5
85
  8
0
  6
CONTINUOUS
 62
     7
 10
104.1195943216
 20
146.3261920088
 30
0.0
  0
VERTEX
  5
86
  8
0
  6
CONTINUOUS
 62
     7
 10
104.1440660634
 20
146.6352090032
 30
0.0
  0
VERTEX
  5
87
  8
0
  6
CONTINUOUS
 62
     7
 10
104.1195943216
 20
146.9442259976
 30
0.0
  0
VERTEX
  5
88
  8
0
  6
CONTINUOUS
 62
     7
 10
104.0485745606
 20
147.2229942555
 30
0.0
  0
VERTEX
  5
89
  8
0
  6
CONTINUOUS
 62
     7
 10
103.9379586896
 20
147.4442259976
 30
0.0
  0
VERTEX
  5
8A
  8
0
  6
CONTINUOUS
 62
     7
 10
103.7985745606
 20
147.5862655195
 30
0.0
  0
VERTEX
  5
8B
  8
0
  6
CONTINUOUS
 62
     7
 10
103.6440660634
 20
147.6352090032
 30
0.0
  0
VERTEX
  5
8C
  8
0
  6
CONTINUOUS
 62
     7
 10
103.4895575662
 20
147.5862655195
 30
0.0
  0
VERTEX
  5
8D
  8
0
  6
CONTINUOUS
 62
     7
 10
103.3501734373
 20
147.4442259976
 30
0.0
  0
VERTEX
  5
8E
  8
0
  6
CONTINUOUS
 62
     7
 10
103.2395575662
 20
147.2229942555
 30
0.0
  0
VERTEX
  5
8F
  8
0
  6
CONTINUOUS
 62
     7
 10
103.1685378053
 20
146.9442259976
 30
0.0
  0
VERTEX
  5
90
  8
0
  6
CONTINUOUS
 62
     7
 10
103.1440660634
 20
146.6352090032
 30
0.0
  0
VERTEX
  5
91
  8
0
  6
CONTINUOUS
 62
     7
 10
103.1685378053
 20
146.3261920088
 30
0.0
  0
VERTEX
  5
92
  8
0
  6
CONTINUOUS
 62
     7
 10
103.2395575662
 20
146.0474237509
 30
0.0
  0
VERTEX
  5
93
  8
0
  6
CONTINUOUS
 62
     7
 10
103.3501734373
 20
145.8261920088
 30
0.0
  0
VERTEX
  5
94
  8
0
  6
CONTINUOUS
 62
     7
 10
103.4895575662
 20
145.6841524869
 30
0.0
  0
VERTEX
  5
95
  8
0
  6
CONTINUOUS
 62
     7
 10
103.6440660634
 20
145.6352090032
 30
0.0
  0
SEQEND
  5
A5
  8
0
  6
CONTINUOUS
 62
     7
  0
LINE
  5
4F
  8
0
  6
CONTINUOUS
 62
     7
 10
170.9966064418
 20
61.6352090032
 30
0.0
 11
171.7466064418
 21
61.6352090032
 31
0.0
  0
LINE
  5
50
  8
0
  6
CONTINUOUS
 62
     7
 10
168.7466064418
 20
61.6352090032
 30
0.0
 11
170.9966064418
 21
61.6352090032
 31
0.0
  0
POLYLINE
  5
51
  8
0
  6
CONTINUOUS
 62
     8
 66
     1
 10
0.0
 20
0.0
 30
0.0
  0
VERTEX
  5
96
  8
0
  6
CONTINUOUS
 62
     8
 10
181.586352404
 20
145.1352090032
 30
0.0
  0
VERTEX
  5
97
  8
0
  6
CONTINUOUS
 62
     8
 10
181.7804666878
 20
145.1863202638
 30
0.0
  0
VERTEX
  5
98
  8
0
  6
CONTINUOUS
 62
     8
 10
181.961352404
 20
145.3361708975
 30
0.0
  0
VERTEX
  5
99
  8
0
  6
CONTINUOUS
 62
     8
 10
182.1166824899
 20
145.5745488314
 30
0.0
  0
VERTEX
  5
9A
  8
0
  6
CONTINUOUS
 62
     8
 10
182.2358714568
 20
145.8852090032
 30
0.0
  0
VERTEX
  5
9B
  8
0
  6
CONTINUOUS
 62
     8
 10
182.3107967737
 20
146.2469804356
 30
0.0
  0
VERTEX
  5
9C
  8
0
  6
CONTINUOUS
 62
     8
 10
182.336352404
 20
146.6352090032
 30
0.0
  0
VERTEX
  5
9D
  8
0
  6
CONTINUOUS
 62
     8
 10
182.3107967737
 20
147.0234375709
 30
0.0
  0
VERTEX
  5
9E
  8
0
  6
CONTINUOUS
 62
     8
 10
182.2358714568
 20
147.3852090032
 30
0.0
  0
VERTEX
  5
9F
  8
0
  6
CONTINUOUS
 62
     8
 10
182.1166824899
 20
147.695869175
 30
0.0
  0
VERTEX
  5
A0
  8
0
  6
CONTINUOUS
 62
     8
 10
181.961352404
 20
147.9342471089
 30
0.0
  0
VERTEX
  5
A1
  8
0
  6
CONTINUOUS
 62
     8
 10
181.7804666878
 20
148.0840977426
 30
0.0
  0
VERTEX
  5
A2
  8
0
  6
CONTINUOUS
 62
     8
 10
181.586352404
 20
148.1352090032
 30
0.0
  0
VERTEX
  5
A3
  8
0
  6
CONTINUOUS
 62
     8
 10
181.586352404
 20
148.1352090032
 30
0.0
  0
SEQEND
  5
A4
  8
0
  6
CONTINUOUS
 62
     8
  0
LINE
  5
52
  8
0
  6
CONTINUOUS
 62
     8
 10
170.9966064418
 20
136.6352090032
 30
0.0
 11
171.7466063954
 21
136.6352090032
 31
0.0
  0
LINE
  5
53
  8
0
  6
CONTINUOUS
 62
     8
 10
170.9966064418
 20
136.6352090032
 30
0.0
 11
168.7466064418
 21
136.6352090032
 31
0.0
  0
TEXT
  5
54
  8
0
  6
CONTINUOUS
 62
     7
 10
0.0
 20
6.732893805
 30
0.0
 40
3.633
  1
Edition étudiante de SolidWorks.
 41
0.6671875
 11
0.0
 21
5.4495
 31
0.0
 73
     1
  0
TEXT
  5
55
  8
0
  6
CONTINUOUS
 62
     7
 10
0.0
 20
1.283393805
 30
0.0
 40
3.633
  1
A usage universitaire uniquement.
 41
0.6681818182
 11
0.0
 21
0.0
 31
0.0
 73
     1
  0
ENDSEC
  0
EOF
