  0
SECTION
  2
HEADER
  9
$ACADVER
  1
AC1009
  9
$DWGCODEPAGE
  3
ansi_1252
  9
$INSBASE
 10
0.0
 20
0.0
 30
0.0
  9
$EXTMIN
 10
0.0
 20
0.0
 30
0.0
  9
$EXTMAX
 10
210.0
 20
297.0
 30
0.0
  9
$LIMMIN
 10
0.0
 20
0.0
  9
$LIMMAX
 10
210.0
 20
297.0
  9
$ORTHOMODE
 70
     0
  9
$REGENMODE
 70
     1
  9
$FILLMODE
 70
     1
  9
$QTEXTMODE
 70
     0
  9
$MIRRTEXT
 70
     1
  9
$DRAGMODE
 70
     2
  9
$LTSCALE
 40
1.0
  9
$OSMODE
 70
    37
  9
$ATTMODE
 70
     1
  9
$TEXTSIZE
 40
3.5
  9
$TRACEWID
 40
1.0
  9
$TEXTSTYLE
  7
STANDARD
  9
$CLAYER
  8
0
  9
$CELTYPE
  6
BYLAYER
  9
$CECOLOR
 62
   256
  9
$DIMSCALE
 40
1.0
  9
$DIMASZ
 40
3.302
  9
$DIMEXO
 40
1.0
  9
$DIMDLI
 40
3.75
  9
$DIMRND
 40
0.0
  9
$DIMDLE
 40
0.0
  9
$DIMEXE
 40
1.0
  9
$DIMTP
 40
0.0
  9
$DIMTM
 40
0.0
  9
$DIMTXT
 40
3.5
  9
$DIMCEN
 40
2.5
  9
$DIMTSZ
 40
0.0
  9
$DIMTOL
 70
     0
  9
$DIMLIM
 70
     0
  9
$DIMTIH
 70
     1
  9
$DIMTOH
 70
     1
  9
$DIMSE1
 70
     0
  9
$DIMSE2
 70
     0
  9
$DIMTAD
 70
     1
  9
$DIMZIN
 70
     0
  9
$DIMBLK
  1

  9
$DIMASO
 70
     1
  9
$DIMSHO
 70
     1
  9
$DIMPOST
  1

  9
$DIMAPOST
  1

  9
$DIMALT
 70
     0
  9
$DIMALTD
 70
     3
  9
$DIMALTF
 40
0.0393700787
  9
$DIMLFAC
 40
1.0
  9
$DIMTOFL
 70
     1
  9
$DIMTVP
 40
0.0
  9
$DIMTIX
 70
     0
  9
$DIMSOXD
 70
     0
  9
$DIMSAH
 70
     0
  9
$DIMBLK1
  1

  9
$DIMBLK2
  1

  9
$DIMSTYLE
  2
ISO-25
  9
$DIMCLRD
 70
     0
  9
$DIMCLRE
 70
     0
  9
$DIMCLRT
 70
     0
  9
$DIMTFAC
 40
1.0
  9
$DIMGAP
 40
1.524
  9
$LUNITS
 70
     2
  9
$LUPREC
 70
     2
  9
$SKETCHINC
 40
1.0
  9
$FILLETRAD
 40
10.0
  9
$AUNITS
 70
     0
  9
$AUPREC
 70
     2
  9
$MENU
  1
.
  9
$ELEVATION
 40
0.0
  9
$PELEVATION
 40
0.0
  9
$THICKNESS
 40
0.0
  9
$LIMCHECK
 70
     0
  9
$CHAMFERA
 40
10.0
  9
$CHAMFERB
 40
10.0
  9
$SKPOLY
 70
     0
  9
$TDCREATE
 40
2456455.310460671
  9
$TDUPDATE
 40
2456455.310460787
  9
$TDINDWG
 40
0.0000000116
  9
$TDUSRTIMER
 40
0.0000000116
  9
$USRTIMER
 70
     1
  9
$ANGBASE
 50
0.0
  9
$ANGDIR
 70
     0
  9
$PDMODE
 70
     0
  9
$PDSIZE
 40
-1.0
  9
$PLINEWID
 40
0.0
  9
$COORDS
 70
     1
  9
$SPLFRAME
 70
     0
  9
$SPLINETYPE
 70
     6
  9
$SPLINESEGS
 70
     8
  9
$ATTDIA
 70
     0
  9
$ATTREQ
 70
     1
  9
$HANDLING
 70
     1
  9
$HANDSEED
  5
14C
  9
$SURFTAB1
 70
     6
  9
$SURFTAB2
 70
     6
  9
$SURFTYPE
 70
     6
  9
$SURFU
 70
     6
  9
$SURFV
 70
     6
  9
$UCSNAME
  2

  9
$UCSORG
 10
0.0
 20
0.0
 30
0.0
  9
$UCSXDIR
 10
1.0
 20
0.0
 30
0.0
  9
$UCSYDIR
 10
0.0
 20
1.0
 30
0.0
  9
$PUCSNAME
  2

  9
$PUCSORG
 10
0.0
 20
0.0
 30
0.0
  9
$PUCSXDIR
 10
1.0
 20
0.0
 30
0.0
  9
$PUCSYDIR
 10
0.0
 20
1.0
 30
0.0
  9
$USERI1
 70
     0
  9
$USERI2
 70
     0
  9
$USERI3
 70
     0
  9
$USERI4
 70
     0
  9
$USERI5
 70
     0
  9
$USERR1
 40
0.0
  9
$USERR2
 40
0.0
  9
$USERR3
 40
0.0
  9
$USERR4
 40
0.0
  9
$USERR5
 40
0.0
  9
$WORLDVIEW
 70
     1
  9
$SHADEDGE
 70
     3
  9
$SHADEDIF
 70
    70
  9
$TILEMODE
 70
     1
  9
$MAXACTVP
 70
    64
  9
$PLIMCHECK
 70
     0
  9
$PEXTMIN
 10
1.0000000000E+20
 20
1.0000000000E+20
 30
1.0000000000E+20
  9
$PEXTMAX
 10
-1.0000000000E+20
 20
-1.0000000000E+20
 30
-1.0000000000E+20
  9
$PLIMMIN
 10
0.0
 20
0.0
  9
$PLIMMAX
 10
420.0
 20
297.0
  9
$UNITMODE
 70
     0
  9
$VISRETAIN
 70
     1
  9
$PLINEGEN
 70
     0
  9
$PSLTSCALE
 70
     1
  0
ENDSEC
  0
SECTION
  2
TABLES
  0
TABLE
  2
VPORT
 70
     1
  0
VPORT
  2
*ACTIVE
 70
     0
 10
0.0
 20
0.0
 11
1.0
 21
1.0
 12
105.0
 22
148.5
 13
0.0
 23
0.0
 14
10.0
 24
10.0
 15
10.0
 25
10.0
 16
0.0
 26
0.0
 36
1.0
 17
0.0
 27
0.0
 37
0.0
 40
297.0
 41
0.7070707071
 42
50.0
 43
0.0
 44
0.0
 50
0.0
 51
0.0
 71
     0
 72
  2000
 73
     1
 74
     3
 75
     0
 76
     0
 77
     0
 78
     0
  0
ENDTAB
  0
TABLE
  2
LTYPE
 70
     6
  0
LTYPE
  2
CONTINUOUS
 70
     0
  3
Solid line
 72
    65
 73
     0
 40
0.0
  0
LTYPE
  2
HIDDEN
 70
     0
  3
Hidden __ __ __ __ __ __ __ __ __ __ __ __ __ __
 72
    65
 73
     2
 40
1.905
 49
1.27
 49
-0.635
  0
LTYPE
  2
PHANTOM
 70
     0
  3
Phantom ______  __  __  ______  __  __  ______
 72
    65
 73
     6
 40
12.7
 49
6.35
 49
-1.27
 49
1.27
 49
-1.27
 49
1.27
 49
-1.27
  0
LTYPE
  2
CENTER
 70
     0
  3
Center ____ _ ____ _ ____ _ ____ _ ____ _ ____
 72
    65
 73
     4
 40
10.16
 49
6.35
 49
-1.27
 49
1.27
 49
-1.27
  0
LTYPE
  2
CENTERX2
 70
     0
  3
Center (2x) ________  __  ________  __  _____
 72
    65
 73
     4
 40
20.32
 49
12.7
 49
-2.54
 49
2.54
 49
-2.54
  0
LTYPE
  2
DOT2
 70
     0
  3
Dot (.5x) ........................................
 72
    65
 73
     2
 40
0.635
 49
0.0
 49
-0.635
  0
ENDTAB
  0
TABLE
  2
LAYER
 70
     1
  0
LAYER
  2
0
 70
     0
 62
     7
  6
CONTINUOUS
  0
ENDTAB
  0
TABLE
  2
STYLE
 70
     1
  0
STYLE
  2
STANDARD
 70
     0
 40
0.0
 41
1.0
 50
0.0
 71
     0
 42
3.5
  3
txt
  4

  0
ENDTAB
  0
TABLE
  2
VIEW
 70
     0
  0
ENDTAB
  0
TABLE
  2
UCS
 70
     0
  0
ENDTAB
  0
TABLE
  2
APPID
 70
     1
  0
APPID
  2
ACAD
 70
     0
  0
ENDTAB
  0
TABLE
  2
DIMSTYLE
 70
     1
  0
DIMSTYLE
  2
ISO-25
 70
     0
  3

  4

  5

  6

  7

 40
1.0
 41
2.5
 42
0.625
 43
3.75
 44
1.25
 45
0.0
 46
0.0
 47
0.0
 48
0.0
140
2.5
141
2.5
142
0.0
143
0.0393700787
144
1.0
145
0.0
146
1.0
147
0.625
 71
     0
 72
     0
 73
     0
 74
     0
 75
     0
 76
     0
 77
     1
 78
     8
170
     0
171
     3
172
     1
173
     0
174
     0
175
     0
176
     0
177
     0
178
     0
  0
ENDTAB
  0
ENDSEC
  0
SECTION
  2
BLOCKS
  0
BLOCK
  8
0
  2
$MODEL_SPACE
 70
     0
 10
0.0
 20
0.0
 30
0.0
  3
$MODEL_SPACE
  1

  0
ENDBLK
  5
21
  8
0
  0
BLOCK
 67
     1
  8
0
  2
$PAPER_SPACE
 70
     0
 10
0.0
 20
0.0
 30
0.0
  3
$PAPER_SPACE
  1

  0
ENDBLK
  5
1D
 67
     1
  8
0
  0
ENDSEC
  0
SECTION
  2
ENTITIES
  0
LINE
  5
44
  8
0
  6
CONTINUOUS
 62
     7
 10
118.9824016375
 20
191.8174772325
 30
0.0
 11
109.3517663986
 21
183.4724842945
 31
0.0
  0
LINE
  5
45
  8
0
  6
CONTINUOUS
 62
     7
 10
112.9048684027
 20
180.5926880736
 30
0.0
 11
122.7988555212
 21
189.1658767143
 31
0.0
  0
LINE
  5
46
  8
0
  6
CONTINUOUS
 62
     7
 10
105.1056702496
 20
197.5748699658
 30
0.0
 11
101.5155081351
 21
185.3479006671
 31
0.0
  0
LINE
  5
47
  8
0
  6
CONTINUOUS
 62
     7
 10
106.0615031316
 20
184.8462138944
 30
0.0
 11
109.7498390339
 21
197.4075324097
 31
0.0
  0
LINE
  5
48
  8
0
  6
CONTINUOUS
 62
     7
 10
90.3191394316
 20
194.9159695414
 30
0.0
 11
93.909301546
 21
182.6890002426
 31
0.0
  0
LINE
  5
49
  8
0
  6
CONTINUOUS
 62
     7
 10
98.0048682439
 20
184.7247049238
 30
0.0
 11
94.3165323416
 21
197.2860234391
 31
0.0
  0
LINE
  5
4A
  8
0
  6
CONTINUOUS
 62
     7
 10
79.3174282416
 20
184.6849580572
 30
0.0
 11
88.9480634805
 21
176.3399651191
 31
0.0
  0
LINE
  5
4B
  8
0
  6
CONTINUOUS
 62
     7
 10
91.2928883912
 20
180.2667394014
 30
0.0
 11
81.3989012726
 21
188.8399280421
 31
0.0
  0
LINE
  5
4C
  8
0
  6
CONTINUOUS
 62
     7
 10
75.5935022481
 20
170.1301093704
 30
0.0
 11
88.2069519699
 21
168.316569088
 31
0.0
  0
LINE
  5
4D
  8
0
  6
CONTINUOUS
 62
     7
 10
88.0565697519
 20
172.8876898821
 30
0.0
 11
75.0982024198
 21
174.7508218301
 31
0.0
  0
LINE
  5
4E
  8
0
  6
CONTINUOUS
 62
     7
 10
80.329681642
 20
155.8724850996
 30
0.0
 11
91.9212646824
 21
161.1661836987
 31
0.0
  0
LINE
  5
4F
  8
0
  6
CONTINUOUS
 62
     7
 10
89.3234206275
 20
164.9303524504
 30
0.0
 11
77.4148631502
 21
159.4918964764
 31
0.0
  0
LINE
  5
50
  8
0
  6
CONTINUOUS
 62
     7
 10
92.02226293
 20
146.4387802111
 30
0.0
 11
98.9117335759
 21
157.1590057899
 31
0.0
  0
LINE
  5
51
  8
0
  6
CONTINUOUS
 62
     7
 10
94.6912248159
 20
158.921125517
 30
0.0
 11
87.6133600507
 21
147.9077529665
 31
0.0
  0
LINE
  5
52
  8
0
  6
CONTINUOUS
 62
     7
 10
106.9589341689
 20
144.8241293517
 30
0.0
 11
106.9589341689
 21
157.5672860345
 31
0.0
  0
LINE
  5
53
  8
0
  6
CONTINUOUS
 62
     7
 10
102.4557424145
 20
156.7678961741
 30
0.0
 11
102.4557424145
 21
143.6762750151
 31
0.0
  0
LINE
  5
54
  8
0
  6
CONTINUOUS
 62
     7
 10
120.397407778
 20
151.5411727607
 30
0.0
 11
113.5079371321
 21
162.2613983395
 31
0.0
  0
LINE
  5
55
  8
0
  6
CONTINUOUS
 62
     7
 10
110.1517939472
 20
159.154299524
 30
0.0
 11
117.2296587125
 21
148.1409269736
 31
0.0
  0
LINE
  5
56
  8
0
  6
CONTINUOUS
 62
     7
 10
128.071063338
 20
164.457296616
 30
0.0
 11
116.4794802975
 21
169.750995215
 31
0.0
  0
LINE
  5
57
  8
0
  6
CONTINUOUS
 62
     7
 10
115.3359374301
 20
165.3226693648
 30
0.0
 11
127.2444949074
 21
159.8842133908
 31
0.0
  0
LINE
  5
58
  8
0
  6
CONTINUOUS
 62
     7
 10
127.5435694281
 20
179.4717228546
 30
0.0
 11
114.9301197062
 21
177.6581825722
 31
0.0
  0
LINE
  5
59
  8
0
  6
CONTINUOUS
 62
     7
 10
116.3622439367
 20
173.3145918555
 30
0.0
 11
129.3206112688
 21
175.1777238034
 31
0.0
  0
POLYLINE
  5
5A
  8
0
  6
CONTINUOUS
 62
     7
 66
     1
 10
0.0
 20
0.0
 30
0.0
  0
VERTEX
  5
86
  8
0
  6
CONTINUOUS
 62
     7
 10
122.7988033301
 20
189.165936946
 30
0.0
  0
VERTEX
  5
87
  8
0
  6
CONTINUOUS
 62
     7
 10
122.7988194581
 20
189.1658719888
 30
0.0
  0
VERTEX
  5
88
  8
0
  6
CONTINUOUS
 62
     7
 10
122.7977615
 20
189.1664574703
 30
0.0
  0
VERTEX
  5
89
  8
0
  6
CONTINUOUS
 62
     7
 10
122.7911957925
 20
189.1713959547
 30
0.0
  0
VERTEX
  5
8A
  8
0
  6
CONTINUOUS
 62
     7
 10
122.7506748365
 20
189.204234335
 30
0.0
  0
VERTEX
  5
8B
  8
0
  6
CONTINUOUS
 62
     7
 10
122.5712267035
 20
189.3512075992
 30
0.0
  0
VERTEX
  5
8C
  8
0
  6
CONTINUOUS
 62
     7
 10
121.8122783171
 20
189.939376196
 30
0.0
  0
VERTEX
  5
8D
  8
0
  6
CONTINUOUS
 62
     7
 10
121.0376209624
 20
190.4753493238
 30
0.0
  0
VERTEX
  5
8E
  8
0
  6
CONTINUOUS
 62
     7
 10
120.6603976824
 20
190.7090778783
 30
0.0
  0
VERTEX
  5
8F
  8
0
  6
CONTINUOUS
 62
     7
 10
120.2652479339
 20
190.9440215691
 30
0.0
  0
VERTEX
  5
90
  8
0
  6
CONTINUOUS
 62
     7
 10
119.9285784348
 20
191.1491452021
 30
0.0
  0
VERTEX
  5
91
  8
0
  6
CONTINUOUS
 62
     7
 10
119.5624723138
 20
191.3837586631
 30
0.0
  0
VERTEX
  5
92
  8
0
  6
CONTINUOUS
 62
     7
 10
119.2970507358
 20
191.5655527736
 30
0.0
  0
VERTEX
  5
93
  8
0
  6
CONTINUOUS
 62
     7
 10
119.0693295481
 20
191.737676384
 30
0.0
  0
VERTEX
  5
94
  8
0
  6
CONTINUOUS
 62
     7
 10
119.016884107
 20
191.7816803811
 30
0.0
  0
VERTEX
  5
95
  8
0
  6
CONTINUOUS
 62
     7
 10
118.9912387458
 20
191.8057510129
 30
0.0
  0
VERTEX
  5
96
  8
0
  6
CONTINUOUS
 62
     7
 10
118.9831847873
 20
191.8162561423
 30
0.0
  0
SEQEND
  5
14B
  8
0
  6
CONTINUOUS
 62
     7
  0
POLYLINE
  5
5B
  8
0
  6
CONTINUOUS
 62
     7
 66
     1
 10
0.0
 20
0.0
 30
0.0
  0
VERTEX
  5
97
  8
0
  6
CONTINUOUS
 62
     7
 10
109.7497625642
 20
197.4075548632
 30
0.0
  0
VERTEX
  5
98
  8
0
  6
CONTINUOUS
 62
     7
 10
109.7498112505
 20
197.4075089372
 30
0.0
  0
VERTEX
  5
99
  8
0
  6
CONTINUOUS
 62
     7
 10
109.7486047043
 20
197.4074295002
 30
0.0
  0
VERTEX
  5
9A
  8
0
  6
CONTINUOUS
 62
     7
 10
109.7404113334
 20
197.4080343282
 30
0.0
  0
VERTEX
  5
9B
  8
0
  6
CONTINUOUS
 62
     7
 10
109.6885691673
 20
197.4137524488
 30
0.0
  0
VERTEX
  5
9C
  8
0
  6
CONTINUOUS
 62
     7
 10
109.4581480457
 20
197.4403772412
 30
0.0
  0
VERTEX
  5
9D
  8
0
  6
CONTINUOUS
 62
     7
 10
108.5016920834
 20
197.5248576751
 30
0.0
  0
VERTEX
  5
9E
  8
0
  6
CONTINUOUS
 62
     7
 10
107.560239897
 20
197.556935577
 30
0.0
  0
VERTEX
  5
9F
  8
0
  6
CONTINUOUS
 62
     7
 10
107.1165362834
 20
197.5496182467
 30
0.0
  0
VERTEX
  5
A0
  8
0
  6
CONTINUOUS
 62
     7
 10
106.6570950124
 20
197.5336313735
 30
0.0
  0
VERTEX
  5
A1
  8
0
  6
CONTINUOUS
 62
     7
 10
106.2629723982
 20
197.5241750812
 30
0.0
  0
VERTEX
  5
A2
  8
0
  6
CONTINUOUS
 62
     7
 10
105.8281427172
 20
197.5236125717
 30
0.0
  0
VERTEX
  5
A3
  8
0
  6
CONTINUOUS
 62
     7
 10
105.5065705605
 20
197.5330497705
 30
0.0
  0
VERTEX
  5
A4
  8
0
  6
CONTINUOUS
 62
     7
 10
105.2219422574
 20
197.5547339967
 30
0.0
  0
VERTEX
  5
A5
  8
0
  6
CONTINUOUS
 62
     7
 10
105.1540319879
 20
197.5633983686
 30
0.0
  0
VERTEX
  5
A6
  8
0
  6
CONTINUOUS
 62
     7
 10
105.1194441711
 20
197.5697829436
 30
0.0
  0
VERTEX
  5
A7
  8
0
  6
CONTINUOUS
 62
     7
 10
105.1069892483
 20
197.574266122
 30
0.0
  0
SEQEND
  5
14A
  8
0
  6
CONTINUOUS
 62
     7
  0
POLYLINE
  5
5C
  8
0
  6
CONTINUOUS
 62
     7
 66
     1
 10
0.0
 20
0.0
 30
0.0
  0
VERTEX
  5
A8
  8
0
  6
CONTINUOUS
 62
     7
 10
94.3164558719
 20
197.2860009855
 30
0.0
  0
VERTEX
  5
A9
  8
0
  6
CONTINUOUS
 62
     7
 10
94.3165216589
 20
197.2859886719
 30
0.0
  0
VERTEX
  5
AA
  8
0
  6
CONTINUOUS
 62
     7
 10
94.3155495945
 20
197.2852695371
 30
0.0
  0
VERTEX
  5
AB
  8
0
  6
CONTINUOUS
 62
     7
 10
94.3083298976
 20
197.2813486801
 30
0.0
  0
VERTEX
  5
AC
  8
0
  6
CONTINUOUS
 62
     7
 10
94.2616260428
 20
197.2581310782
 30
0.0
  0
VERTEX
  5
AD
  8
0
  6
CONTINUOUS
 62
     7
 10
94.0533890107
 20
197.1559542154
 30
0.0
  0
VERTEX
  5
AE
  8
0
  6
CONTINUOUS
 62
     7
 10
93.2030934826
 20
196.7099245455
 30
0.0
  0
VERTEX
  5
AF
  8
0
  6
CONTINUOUS
 62
     7
 10
92.3937508817
 20
196.2279227141
 30
0.0
  0
VERTEX
  5
B0
  8
0
  6
CONTINUOUS
 62
     7
 10
92.0244396966
 20
195.9818826998
 30
0.0
  0
VERTEX
  5
B1
  8
0
  6
CONTINUOUS
 62
     7
 10
91.6465762605
 20
195.7200409819
 30
0.0
  0
VERTEX
  5
B2
  8
0
  6
CONTINUOUS
 62
     7
 10
91.3201316765
 20
195.4990070703
 30
0.0
  0
VERTEX
  5
B3
  8
0
  6
CONTINUOUS
 62
     7
 10
90.9546337868
 20
195.263447183
 30
0.0
  0
VERTEX
  5
B4
  8
0
  6
CONTINUOUS
 62
     7
 10
90.6790079391
 20
195.0975312262
 30
0.0
  0
VERTEX
  5
B5
  8
0
  6
CONTINUOUS
 62
     7
 10
90.4278399957
 20
194.9618914796
 30
0.0
  0
VERTEX
  5
B6
  8
0
  6
CONTINUOUS
 62
     7
 10
90.3660259285
 20
194.9324653494
 30
0.0
  0
VERTEX
  5
B7
  8
0
  6
CONTINUOUS
 62
     7
 10
90.3334770436
 20
194.9191368102
 30
0.0
  0
VERTEX
  5
B8
  8
0
  6
CONTINUOUS
 62
     7
 10
90.3205755065
 20
194.9161746602
 30
0.0
  0
SEQEND
  5
149
  8
0
  6
CONTINUOUS
 62
     7
  0
POLYLINE
  5
5D
  8
0
  6
CONTINUOUS
 62
     7
 66
     1
 10
0.0
 20
0.0
 30
0.0
  0
VERTEX
  5
B9
  8
0
  6
CONTINUOUS
 62
     7
 10
81.3988490815
 20
188.8398678104
 30
0.0
  0
VERTEX
  5
BA
  8
0
  6
CONTINUOUS
 62
     7
 10
81.3989110823
 20
188.8398930186
 30
0.0
  0
VERTEX
  5
BB
  8
0
  6
CONTINUOUS
 62
     7
 10
81.3984821233
 20
188.8387625063
 30
0.0
  0
VERTEX
  5
BC
  8
0
  6
CONTINUOUS
 62
     7
 10
81.3945283032
 20
188.8315608086
 30
0.0
  0
VERTEX
  5
BD
  8
0
  6
CONTINUOUS
 62
     7
 10
81.3677909035
 20
188.7867789087
 30
0.0
  0
VERTEX
  5
BE
  8
0
  6
CONTINUOUS
 62
     7
 10
81.2478517473
 20
188.5882408226
 30
0.0
  0
VERTEX
  5
BF
  8
0
  6
CONTINUOUS
 62
     7
 10
80.7736794756
 20
187.7533123178
 30
0.0
  0
VERTEX
  5
C0
  8
0
  6
CONTINUOUS
 62
     7
 10
80.3534070175
 20
186.9102629289
 30
0.0
  0
VERTEX
  5
C1
  8
0
  6
CONTINUOUS
 62
     7
 10
80.1757419528
 20
186.5036161966
 30
0.0
  0
VERTEX
  5
C2
  8
0
  6
CONTINUOUS
 62
     7
 10
79.9994253226
 20
186.0790525294
 30
0.0
  0
VERTEX
  5
C3
  8
0
  6
CONTINUOUS
 62
     7
 10
79.8443026177
 20
185.7166177037
 30
0.0
  0
VERTEX
  5
C4
  8
0
  6
CONTINUOUS
 62
     7
 10
79.6641795168
 20
185.3208490384
 30
0.0
  0
VERTEX
  5
C5
  8
0
  6
CONTINUOUS
 62
     7
 10
79.5220092372
 20
185.0322570699
 30
0.0
  0
VERTEX
  5
C6
  8
0
  6
CONTINUOUS
 62
     7
 10
79.384045701
 20
184.7823580118
 30
0.0
  0
VERTEX
  5
C7
  8
0
  6
CONTINUOUS
 62
     7
 10
79.3479533656
 20
184.724183968
 30
0.0
  0
VERTEX
  5
C8
  8
0
  6
CONTINUOUS
 62
     7
 10
79.3277774536
 20
184.6953740315
 30
0.0
  0
VERTEX
  5
C9
  8
0
  6
CONTINUOUS
 62
     7
 10
79.3185254491
 20
184.6859070148
 30
0.0
  0
SEQEND
  5
148
  8
0
  6
CONTINUOUS
 62
     7
  0
POLYLINE
  5
5E
  8
0
  6
CONTINUOUS
 62
     7
 66
     1
 10
0.0
 20
0.0
 30
0.0
  0
VERTEX
  5
CA
  8
0
  6
CONTINUOUS
 62
     7
 10
75.0981910776
 20
174.7507429433
 30
0.0
  0
VERTEX
  5
CB
  8
0
  6
CONTINUOUS
 62
     7
 10
75.0982296073
 20
174.7507976699
 30
0.0
  0
VERTEX
  5
CC
  8
0
  6
CONTINUOUS
 62
     7
 10
75.0984799452
 20
174.7496147097
 30
0.0
  0
VERTEX
  5
CD
  8
0
  6
CONTINUOUS
 62
     7
 10
75.0990473117
 20
174.7414186596
 30
0.0
  0
VERTEX
  5
CE
  8
0
  6
CONTINUOUS
 62
     7
 10
75.1007653028
 20
174.6892903985
 30
0.0
  0
VERTEX
  5
CF
  8
0
  6
CONTINUOUS
 62
     7
 10
75.107203857
 20
174.4574255287
 30
0.0
  0
VERTEX
  5
D0
  8
0
  6
CONTINUOUS
 62
     7
 10
75.1597011877
 20
173.4986820897
 30
0.0
  0
VERTEX
  5
D1
  8
0
  6
CONTINUOUS
 62
     7
 10
75.2619324083
 20
172.5622473677
 30
0.0
  0
VERTEX
  5
D2
  8
0
  6
CONTINUOUS
 62
     7
 10
75.3323208668
 20
172.1241013818
 30
0.0
  0
VERTEX
  5
D3
  8
0
  6
CONTINUOUS
 62
     7
 10
75.4135303268
 20
171.6716117297
 30
0.0
  0
VERTEX
  5
D4
  8
0
  6
CONTINUOUS
 62
     7
 10
75.4789798637
 20
171.2828464862
 30
0.0
  0
VERTEX
  5
D5
  8
0
  6
CONTINUOUS
 62
     7
 10
75.5414193635
 20
170.8525227978
 30
0.0
  0
VERTEX
  5
D6
  8
0
  6
CONTINUOUS
 62
     7
 10
75.5778427112
 20
170.5328807286
 30
0.0
  0
VERTEX
  5
D7
  8
0
  6
CONTINUOUS
 62
     7
 10
75.5968860301
 20
170.248063544
 30
0.0
  0
VERTEX
  5
D8
  8
0
  6
CONTINUOUS
 62
     7
 10
75.597974488
 20
170.1796114345
 30
0.0
  0
VERTEX
  5
D9
  8
0
  6
CONTINUOUS
 62
     7
 10
75.5965772584
 20
170.1444670521
 30
0.0
  0
VERTEX
  5
DA
  8
0
  6
CONTINUOUS
 62
     7
 10
75.5939122325
 20
170.1315008796
 30
0.0
  0
SEQEND
  5
147
  8
0
  6
CONTINUOUS
 62
     7
  0
POLYLINE
  5
5F
  8
0
  6
CONTINUOUS
 62
     7
 66
     1
 10
0.0
 20
0.0
 30
0.0
  0
VERTEX
  5
DB
  8
0
  6
CONTINUOUS
 62
     7
 10
77.4148962579
 20
159.4918239806
 30
0.0
  0
VERTEX
  5
DC
  8
0
  6
CONTINUOUS
 62
     7
 10
77.4148990838
 20
159.4918908503
 30
0.0
  0
VERTEX
  5
DD
  8
0
  6
CONTINUOUS
 62
     7
 10
77.415749238
 20
159.4910310237
 30
0.0
  0
VERTEX
  5
DE
  8
0
  6
CONTINUOUS
 62
     7
 10
77.4206576563
 20
159.4844428091
 30
0.0
  0
VERTEX
  5
DF
  8
0
  6
CONTINUOUS
 62
     7
 10
77.4502855881
 20
159.4415185414
 30
0.0
  0
VERTEX
  5
E0
  8
0
  6
CONTINUOUS
 62
     7
 10
77.5810576573
 20
159.2499423458
 30
0.0
  0
VERTEX
  5
E1
  8
0
  6
CONTINUOUS
 62
     7
 10
78.1435570588
 20
158.4717782404
 30
0.0
  0
VERTEX
  5
E2
  8
0
  6
CONTINUOUS
 62
     7
 10
78.7358342679
 20
157.7392695929
 30
0.0
  0
VERTEX
  5
E3
  8
0
  6
CONTINUOUS
 62
     7
 10
79.0319284112
 20
157.4087326081
 30
0.0
  0
VERTEX
  5
E4
  8
0
  6
CONTINUOUS
 62
     7
 10
79.3448805318
 20
157.0719792386
 30
0.0
  0
VERTEX
  5
E5
  8
0
  6
CONTINUOUS
 62
     7
 10
79.610122545
 20
156.7803137952
 30
0.0
  0
VERTEX
  5
E6
  8
0
  6
CONTINUOUS
 62
     7
 10
79.8953005454
 20
156.4520598142
 30
0.0
  0
VERTEX
  5
E7
  8
0
  6
CONTINUOUS
 62
     7
 10
80.098753365
 20
156.2028517428
 30
0.0
  0
VERTEX
  5
E8
  8
0
  6
CONTINUOUS
 62
     7
 10
80.2687574197
 20
155.9735438755
 30
0.0
  0
VERTEX
  5
E9
  8
0
  6
CONTINUOUS
 62
     7
 10
80.3066810933
 20
155.9165467614
 30
0.0
  0
VERTEX
  5
EA
  8
0
  6
CONTINUOUS
 62
     7
 10
80.3245061565
 20
155.8862260261
 30
0.0
  0
VERTEX
  5
EB
  8
0
  6
CONTINUOUS
 62
     7
 10
80.3292742362
 20
155.8738773659
 30
0.0
  0
SEQEND
  5
146
  8
0
  6
CONTINUOUS
 62
     7
  0
POLYLINE
  5
60
  8
0
  6
CONTINUOUS
 62
     7
 66
     1
 10
0.0
 20
0.0
 30
0.0
  0
VERTEX
  5
EC
  8
0
  6
CONTINUOUS
 62
     7
 10
87.6134270969
 20
147.9077098785
 30
0.0
  0
VERTEX
  5
ED
  8
0
  6
CONTINUOUS
 62
     7
 10
87.6133933217
 20
147.9077676607
 30
0.0
  0
VERTEX
  5
EE
  8
0
  6
CONTINUOUS
 62
     7
 10
87.6145733742
 20
147.9075039566
 30
0.0
  0
VERTEX
  5
EF
  8
0
  6
CONTINUOUS
 62
     7
 10
87.6222644563
 20
147.9046152891
 30
0.0
  0
VERTEX
  5
F0
  8
0
  6
CONTINUOUS
 62
     7
 10
87.6703956697
 20
147.8845231665
 30
0.0
  0
VERTEX
  5
F1
  8
0
  6
CONTINUOUS
 62
     7
 10
87.8839820459
 20
147.7940597335
 30
0.0
  0
VERTEX
  5
F2
  8
0
  6
CONTINUOUS
 62
     7
 10
88.7778939327
 20
147.443536567
 30
0.0
  0
VERTEX
  5
F3
  8
0
  6
CONTINUOUS
 62
     7
 10
89.6721733012
 20
147.147520314
 30
0.0
  0
VERTEX
  5
F4
  8
0
  6
CONTINUOUS
 62
     7
 10
90.0999653311
 20
147.0295354874
 30
0.0
  0
VERTEX
  5
F5
  8
0
  6
CONTINUOUS
 62
     7
 10
90.545300025
 20
146.9154352159
 30
0.0
  0
VERTEX
  5
F6
  8
0
  6
CONTINUOUS
 62
     7
 10
90.9261220495
 20
146.8134712901
 30
0.0
  0
VERTEX
  5
F7
  8
0
  6
CONTINUOUS
 62
     7
 10
91.3434965504
 20
146.6915053362
 30
0.0
  0
VERTEX
  5
F8
  8
0
  6
CONTINUOUS
 62
     7
 10
91.6493840091
 20
146.5918530644
 30
0.0
  0
VERTEX
  5
F9
  8
0
  6
CONTINUOUS
 62
     7
 10
91.9163737135
 20
146.4908581421
 30
0.0
  0
VERTEX
  5
FA
  8
0
  6
CONTINUOUS
 62
     7
 10
91.9790921043
 20
146.4634122043
 30
0.0
  0
VERTEX
  5
FB
  8
0
  6
CONTINUOUS
 62
     7
 10
92.0104801288
 20
146.4475417354
 30
0.0
  0
VERTEX
  5
FC
  8
0
  6
CONTINUOUS
 62
     7
 10
92.0211674824
 20
146.4397311999
 30
0.0
  0
SEQEND
  5
145
  8
0
  6
CONTINUOUS
 62
     7
  0
POLYLINE
  5
61
  8
0
  6
CONTINUOUS
 62
     7
 66
     1
 10
0.0
 20
0.0
 30
0.0
  0
VERTEX
  5
FD
  8
0
  6
CONTINUOUS
 62
     7
 10
102.4558221126
 20
143.6762750151
 30
0.0
  0
VERTEX
  5
FE
  8
0
  6
CONTINUOUS
 62
     7
 10
102.4557624596
 20
143.6763053643
 30
0.0
  0
VERTEX
  5
FF
  8
0
  6
CONTINUOUS
 62
     7
 10
102.4568977522
 20
143.6767215069
 30
0.0
  0
VERTEX
  5
100
  8
0
  6
CONTINUOUS
 62
     7
 10
102.4649296337
 20
143.678449518
 30
0.0
  0
VERTEX
  5
101
  8
0
  6
CONTINUOUS
 62
     7
 10
102.5162828086
 20
143.6875686474
 30
0.0
  0
VERTEX
  5
102
  8
0
  6
CONTINUOUS
 62
     7
 10
102.7448713266
 20
143.7269394779
 30
0.0
  0
VERTEX
  5
103
  8
0
  6
CONTINUOUS
 62
     7
 10
103.6863849906
 20
143.9153458789
 30
0.0
  0
VERTEX
  5
104
  8
0
  6
CONTINUOUS
 62
     7
 10
104.5987391377
 20
144.1498050891
 30
0.0
  0
VERTEX
  5
105
  8
0
  6
CONTINUOUS
 62
     7
 10
105.0224081072
 20
144.2818317697
 30
0.0
  0
VERTEX
  5
106
  8
0
  6
CONTINUOUS
 62
     7
 10
105.4587347559
 20
144.4266106262
 30
0.0
  0
VERTEX
  5
107
  8
0
  6
CONTINUOUS
 62
     7
 10
105.8342284895
 20
144.5467210439
 30
0.0
  0
VERTEX
  5
108
  8
0
  6
CONTINUOUS
 62
     7
 10
106.2512860359
 20
144.6697664458
 30
0.0
  0
VERTEX
  5
109
  8
0
  6
CONTINUOUS
 62
     7
 10
106.5624910269
 20
144.7513088657
 30
0.0
  0
VERTEX
  5
10A
  8
0
  6
CONTINUOUS
 62
     7
 10
106.8416990363
 20
144.8106920626
 30
0.0
  0
VERTEX
  5
10B
  8
0
  6
CONTINUOUS
 62
     7
 10
106.9092994984
 20
144.8215111925
 30
0.0
  0
VERTEX
  5
10C
  8
0
  6
CONTINUOUS
 62
     7
 10
106.9442850082
 20
144.8251297517
 30
0.0
  0
VERTEX
  5
10D
  8
0
  6
CONTINUOUS
 62
     7
 10
106.9574984765
 20
144.8243371307
 30
0.0
  0
SEQEND
  5
144
  8
0
  6
CONTINUOUS
 62
     7
  0
POLYLINE
  5
62
  8
0
  6
CONTINUOUS
 62
     7
 66
     1
 10
0.0
 20
0.0
 30
0.0
  0
VERTEX
  5
10E
  8
0
  6
CONTINUOUS
 62
     7
 10
117.2297257587
 20
148.1409700616
 30
0.0
  0
VERTEX
  5
10F
  8
0
  6
CONTINUOUS
 62
     7
 10
117.2296591674
 20
148.1409633421
 30
0.0
  0
VERTEX
  5
110
  8
0
  6
CONTINUOUS
 62
     7
 10
117.2303892527
 20
148.141927209
 30
0.0
  0
VERTEX
  5
111
  8
0
  6
CONTINUOUS
 62
     7
 10
117.236211868
 20
148.1477232674
 30
0.0
  0
VERTEX
  5
112
  8
0
  6
CONTINUOUS
 62
     7
 10
117.2744827343
 20
148.1831583898
 30
0.0
  0
VERTEX
  5
113
  8
0
  6
CONTINUOUS
 62
     7
 10
117.4454981546
 20
148.3398635232
 30
0.0
  0
VERTEX
  5
114
  8
0
  6
CONTINUOUS
 62
     7
 10
118.13568966
 20
149.0073817906
 30
0.0
  0
VERTEX
  5
115
  8
0
  6
CONTINUOUS
 62
     7
 10
118.7764525904
 20
149.6978773215
 30
0.0
  0
VERTEX
  5
116
  8
0
  6
CONTINUOUS
 62
     7
 10
119.0614865952
 20
150.0379979709
 30
0.0
  0
VERTEX
  5
117
  8
0
  6
CONTINUOUS
 62
     7
 10
119.3502745706
 20
150.3956896914
 30
0.0
  0
VERTEX
  5
118
  8
0
  6
CONTINUOUS
 62
     7
 10
119.6012234061
 20
150.6997402438
 30
0.0
  0
VERTEX
  5
119
  8
0
  6
CONTINUOUS
 62
     7
 10
119.8855511738
 20
151.0287309556
 30
0.0
  0
VERTEX
  5
11A
  8
0
  6
CONTINUOUS
 62
     7
 10
120.1032683113
 20
151.2655789252
 30
0.0
  0
VERTEX
  5
11B
  8
0
  6
CONTINUOUS
 62
     7
 10
120.3060480555
 20
151.4664864958
 30
0.0
  0
VERTEX
  5
11C
  8
0
  6
CONTINUOUS
 62
     7
 10
120.3570679198
 20
151.5121356961
 30
0.0
  0
VERTEX
  5
11D
  8
0
  6
CONTINUOUS
 62
     7
 10
120.3845432627
 20
151.5340944165
 30
0.0
  0
VERTEX
  5
11E
  8
0
  6
CONTINUOUS
 62
     7
 10
120.3960876628
 20
151.5405713615
 30
0.0
  0
SEQEND
  5
143
  8
0
  6
CONTINUOUS
 62
     7
  0
POLYLINE
  5
63
  8
0
  6
CONTINUOUS
 62
     7
 66
     1
 10
0.0
 20
0.0
 30
0.0
  0
VERTEX
  5
11F
  8
0
  6
CONTINUOUS
 62
     7
 10
127.2445280151
 20
159.8842858867
 30
0.0
  0
VERTEX
  5
120
  8
0
  6
CONTINUOUS
 62
     7
 10
127.2444756278
 20
159.8842442319
 30
0.0
  0
VERTEX
  5
121
  8
0
  6
CONTINUOUS
 62
     7
 10
127.2445687088
 20
159.8854498023
 30
0.0
  0
VERTEX
  5
122
  8
0
  6
CONTINUOUS
 62
     7
 10
127.2463334188
 20
159.8934737004
 30
0.0
  0
VERTEX
  5
123
  8
0
  6
CONTINUOUS
 62
     7
 10
127.2593712467
 20
159.9439744147
 30
0.0
  0
VERTEX
  5
124
  8
0
  6
CONTINUOUS
 62
     7
 10
127.3185173817
 20
160.1682610784
 30
0.0
  0
VERTEX
  5
125
  8
0
  6
CONTINUOUS
 62
     7
 10
127.5382558022
 20
161.1029588788
 30
0.0
  0
VERTEX
  5
126
  8
0
  6
CONTINUOUS
 62
     7
 10
127.7039898129
 20
162.030263278
 30
0.0
  0
VERTEX
  5
127
  8
0
  6
CONTINUOUS
 62
     7
 10
127.7598925705
 20
162.4704919933
 30
0.0
  0
VERTEX
  5
128
  8
0
  6
CONTINUOUS
 62
     7
 10
127.8094537308
 20
162.9275319839
 30
0.0
  0
VERTEX
  5
129
  8
0
  6
CONTINUOUS
 62
     7
 10
127.8561831861
 20
163.3189887688
 30
0.0
  0
VERTEX
  5
12A
  8
0
  6
CONTINUOUS
 62
     7
 10
127.9175091178
 20
163.7494725642
 30
0.0
  0
VERTEX
  5
12B
  8
0
  6
CONTINUOUS
 62
     7
 10
127.972614749
 20
164.0664285265
 30
0.0
  0
VERTEX
  5
12C
  8
0
  6
CONTINUOUS
 62
     7
 10
128.034585092
 20
164.3450737367
 30
0.0
  0
VERTEX
  5
12D
  8
0
  6
CONTINUOUS
 62
     7
 10
128.0528259121
 20
164.4110597089
 30
0.0
  0
VERTEX
  5
12E
  8
0
  6
CONTINUOUS
 62
     7
 10
128.0640678608
 20
164.4443868518
 30
0.0
  0
VERTEX
  5
12F
  8
0
  6
CONTINUOUS
 62
     7
 10
128.0702779273
 20
164.4560769787
 30
0.0
  0
SEQEND
  5
142
  8
0
  6
CONTINUOUS
 62
     7
  0
POLYLINE
  5
64
  8
0
  6
CONTINUOUS
 62
     7
 66
     1
 10
0.0
 20
0.0
 30
0.0
  0
VERTEX
  5
130
  8
0
  6
CONTINUOUS
 62
     7
 10
129.3205999266
 20
175.1778026903
 30
0.0
  0
VERTEX
  5
131
  8
0
  6
CONTINUOUS
 62
     7
 10
129.3205783759
 20
175.1777393253
 30
0.0
  0
VERTEX
  5
132
  8
0
  6
CONTINUOUS
 62
     7
 10
129.3200049
 20
175.178803839
 30
0.0
  0
VERTEX
  5
133
  8
0
  6
CONTINUOUS
 62
     7
 10
129.3171514217
 20
175.1865080459
 30
0.0
  0
VERTEX
  5
134
  8
0
  6
CONTINUOUS
 62
     7
 10
129.300816793
 20
175.2360407321
 30
0.0
  0
VERTEX
  5
135
  8
0
  6
CONTINUOUS
 62
     7
 10
129.2293151629
 20
175.4566994952
 30
0.0
  0
VERTEX
  5
136
  8
0
  6
CONTINUOUS
 62
     7
 10
128.9088351025
 20
176.3618168812
 30
0.0
  0
VERTEX
  5
137
  8
0
  6
CONTINUOUS
 62
     7
 10
128.5469208161
 20
177.231517554
 30
0.0
  0
VERTEX
  5
138
  8
0
  6
CONTINUOUS
 62
     7
 10
128.355943596
 20
177.6320848286
 30
0.0
  0
VERTEX
  5
139
  8
0
  6
CONTINUOUS
 62
     7
 10
128.150542623
 20
178.0433661216
 30
0.0
  0
VERTEX
  5
13A
  8
0
  6
CONTINUOUS
 62
     7
 10
127.9782164261
 20
178.3979443757
 30
0.0
  0
VERTEX
  5
13B
  8
0
  6
CONTINUOUS
 62
     7
 10
127.7970699718
 20
178.7932456912
 30
0.0
  0
VERTEX
  5
13C
  8
0
  6
CONTINUOUS
 62
     7
 10
127.6720684482
 20
179.0896783678
 30
0.0
  0
VERTEX
  5
13D
  8
0
  6
CONTINUOUS
 62
     7
 10
127.5735542439
 20
179.3575933322
 30
0.0
  0
VERTEX
  5
13E
  8
0
  6
CONTINUOUS
 62
     7
 10
127.5532246883
 20
179.4229659963
 30
0.0
  0
VERTEX
  5
13F
  8
0
  6
CONTINUOUS
 62
     7
 10
127.5446640036
 20
179.4570804294
 30
0.0
  0
VERTEX
  5
140
  8
0
  6
CONTINUOUS
 62
     7
 10
127.5435680843
 20
179.4702722053
 30
0.0
  0
SEQEND
  5
141
  8
0
  6
CONTINUOUS
 62
     7
  0
CIRCLE
  5
65
  8
0
  6
CONTINUOUS
 62
     7
 10
102.240096463
 20
171.0662700965
 30
0.0
 40
13.80000000000001
  0
CIRCLE
  5
66
  8
0
  6
CONTINUOUS
 62
     7
 10
102.240096463
 20
171.0662700965
 30
0.0
 40
14.30000000000001
  0
LINE
  5
67
  8
0
  6
CONTINUOUS
 62
     7
 10
72.240096463
 20
196.0662700965
 30
0.0
 11
72.240096463
 21
146.0662700965
 31
0.0
  0
ARC
  5
68
  8
0
  6
CONTINUOUS
 62
     7
 10
77.240096463
 20
196.0662700965
 30
0.0
 40
5.0
 50
90.0
 51
180.0
  0
LINE
  5
69
  8
0
  6
CONTINUOUS
 62
     7
 10
127.240096463
 20
201.0662700965
 30
0.0
 11
77.240096463
 21
201.0662700965
 31
0.0
  0
ARC
  5
6A
  8
0
  6
CONTINUOUS
 62
     7
 10
127.240096463
 20
196.0662700965
 30
0.0
 40
5.0
 50
0.0
 51
90.0
  0
CIRCLE
  5
6B
  8
0
  6
CONTINUOUS
 62
     7
 10
77.240096463
 20
146.0662700965
 30
0.0
 40
2.099999999999994
  0
CIRCLE
  5
6C
  8
0
  6
CONTINUOUS
 62
     7
 10
127.240096463
 20
146.0662700965
 30
0.0
 40
2.100000000000023
  0
CIRCLE
  5
6D
  8
0
  6
CONTINUOUS
 62
     7
 10
77.240096463
 20
196.0662700965
 30
0.0
 40
2.09999999999998
  0
CIRCLE
  5
6E
  8
0
  6
CONTINUOUS
 62
     7
 10
127.240096463
 20
196.0662700965
 30
0.0
 40
2.09999999999998
  0
CIRCLE
  5
6F
  8
0
  6
CONTINUOUS
 62
     7
 10
102.240096463
 20
171.0662700965
 30
0.0
 40
28.49999999999997
  0
LINE
  5
70
  8
0
  6
CONTINUOUS
 62
     7
 10
132.240096463
 20
146.0662700965
 30
0.0
 11
132.240096463
 21
196.0662700965
 31
0.0
  0
ARC
  5
71
  8
0
  6
CONTINUOUS
 62
     7
 10
127.240096463
 20
146.0662700965
 30
0.0
 40
5.0
 50
270.0
 51
0.0
  0
LINE
  5
72
  8
0
  6
CONTINUOUS
 62
     7
 10
77.240096463
 20
141.0662700965
 30
0.0
 11
127.240096463
 21
141.0662700965
 31
0.0
  0
ARC
  5
73
  8
0
  6
CONTINUOUS
 62
     7
 10
77.240096463
 20
146.0662700965
 30
0.0
 40
5.0
 50
180.0
 51
270.0
  0
LINE
  5
74
  8
0
  6
CONTINUOUS
 62
     7
 10
120.3115602923
 20
149.0282984324
 30
0.0
 11
119.6604735329
 21
150.639794711
 31
0.0
  0
LINE
  5
75
  8
0
  6
CONTINUOUS
 62
     7
 10
117.4320249429
 20
156.1553985196
 30
0.0
 11
116.1469714817
 21
159.3360174473
 31
0.0
  0
ARC
  5
76
  8
0
  6
CONTINUOUS
 62
     7
 10
113.365419918
 20
158.212197667
 30
0.0
 40
3.000000000000002
 50
22.0
 51
72.4016241426
  0
LINE
  5
77
  8
0
  6
CONTINUOUS
 62
     7
 10
92.2878656633
 20
155.1814256783
 30
0.0
 11
81.9835907599
 21
151.0182283792
 31
0.0
  0
LINE
  5
78
  8
0
  6
CONTINUOUS
 62
     7
 10
80.2021247989
 20
152.9948062672
 30
0.0
 11
90.5098438138
 21
157.1593950778
 31
0.0
  0
ARC
  5
79
  8
0
  6
CONTINUOUS
 62
     7
 10
89.3860240336
 20
159.9409466415
 30
0.0
 40
2.999999999999914
 50
292.0
 51
17.3340985673
  0
ARC
  5
7A
  8
0
  6
CONTINUOUS
 62
     7
 10
85.6469473394
 20
174.7632150733
 30
0.0
 40
3.000000000000052
 50
10.9820832833
 51
22.0
  0
LINE
  5
7B
  8
0
  6
CONTINUOUS
 62
     7
 10
88.4284989031
 20
175.8870348536
 30
0.0
 11
87.8670506344
 21
177.2766680824
 31
0.0
  0
LINE
  5
7C
  8
0
  6
CONTINUOUS
 62
     7
 10
84.1628086831
 20
186.4449886379
 30
0.0
 11
82.1920547457
 21
191.3227757996
 31
0.0
  0
LINE
  5
7D
  8
0
  6
CONTINUOUS
 62
     7
 10
84.1686326338
 20
193.1042417606
 30
0.0
 11
88.3115982597
 21
182.8500420057
 31
0.0
  0
ARC
  5
7E
  8
0
  6
CONTINUOUS
 62
     7
 10
91.114773008
 20
183.9203425259
 30
0.0
 40
2.999999999999913
 50
257.2643087431
 51
287.3340985673
  0
ARC
  5
7F
  8
0
  6
CONTINUOUS
 62
     7
 10
105.9370414399
 20
187.6594192201
 30
0.0
 40
3.000000000000038
 50
280.9820832833
 51
292.0
  0
LINE
  5
80
  8
0
  6
CONTINUOUS
 62
     7
 10
107.0608612201
 20
184.8778676564
 30
0.0
 11
114.3919317102
 21
187.8398123978
 31
0.0
  0
LINE
  5
81
  8
0
  6
CONTINUOUS
 62
     7
 10
121.0543542788
 20
190.5316058431
 30
0.0
 11
122.4966021662
 21
191.1143118138
 31
0.0
  0
LINE
  5
82
  8
0
  6
CONTINUOUS
 62
     7
 10
124.2780681271
 20
189.1377339257
 30
0.0
 11
121.4457478736
 21
187.9934022634
 31
0.0
  0
LINE
  5
83
  8
0
  6
CONTINUOUS
 62
     7
 10
116.6708526255
 20
164.7130340221
 30
0.0
 11
122.2881381803
 21
150.8097643933
 31
0.0
  0
TEXT
  5
84
  8
0
  6
CONTINUOUS
 62
     7
 10
0.0
 20
6.732893805
 30
0.0
 40
3.633
  1
Edition étudiante de SolidWorks.
 41
0.6671875
 11
0.0
 21
5.4495
 31
0.0
 73
     1
  0
TEXT
  5
85
  8
0
  6
CONTINUOUS
 62
     7
 10
0.0
 20
1.283393805
 30
0.0
 40
3.633
  1
A usage universitaire uniquement.
 41
0.6681818182
 11
0.0
 21
0.0
 31
0.0
 73
     1
  0
ENDSEC
  0
EOF
