  0
SECTION
  2
HEADER
  9
$ACADVER
  1
AC1009
  9
$DWGCODEPAGE
  3
ansi_1252
  9
$INSBASE
 10
0.0
 20
0.0
 30
0.0
  9
$EXTMIN
 10
0.0
 20
0.0
 30
0.0
  9
$EXTMAX
 10
297.0
 20
210.0
 30
0.0
  9
$LIMMIN
 10
0.0
 20
0.0
  9
$LIMMAX
 10
297.0
 20
210.0
  9
$ORTHOMODE
 70
     0
  9
$REGENMODE
 70
     1
  9
$FILLMODE
 70
     1
  9
$QTEXTMODE
 70
     0
  9
$MIRRTEXT
 70
     1
  9
$DRAGMODE
 70
     2
  9
$LTSCALE
 40
1.0
  9
$OSMODE
 70
    37
  9
$ATTMODE
 70
     1
  9
$TEXTSIZE
 40
3.5
  9
$TRACEWID
 40
1.0
  9
$TEXTSTYLE
  7
STANDARD
  9
$CLAYER
  8
0
  9
$CELTYPE
  6
BYLAYER
  9
$CECOLOR
 62
   256
  9
$DIMSCALE
 40
1.0
  9
$DIMASZ
 40
3.302
  9
$DIMEXO
 40
1.0
  9
$DIMDLI
 40
3.75
  9
$DIMRND
 40
0.0
  9
$DIMDLE
 40
0.0
  9
$DIMEXE
 40
1.0
  9
$DIMTP
 40
0.0
  9
$DIMTM
 40
0.0
  9
$DIMTXT
 40
3.5
  9
$DIMCEN
 40
2.5
  9
$DIMTSZ
 40
0.0
  9
$DIMTOL
 70
     0
  9
$DIMLIM
 70
     0
  9
$DIMTIH
 70
     1
  9
$DIMTOH
 70
     1
  9
$DIMSE1
 70
     0
  9
$DIMSE2
 70
     0
  9
$DIMTAD
 70
     1
  9
$DIMZIN
 70
     0
  9
$DIMBLK
  1

  9
$DIMASO
 70
     1
  9
$DIMSHO
 70
     1
  9
$DIMPOST
  1

  9
$DIMAPOST
  1

  9
$DIMALT
 70
     0
  9
$DIMALTD
 70
     3
  9
$DIMALTF
 40
0.0393700787
  9
$DIMLFAC
 40
5.0
  9
$DIMTOFL
 70
     1
  9
$DIMTVP
 40
0.0
  9
$DIMTIX
 70
     0
  9
$DIMSOXD
 70
     0
  9
$DIMSAH
 70
     0
  9
$DIMBLK1
  1

  9
$DIMBLK2
  1

  9
$DIMSTYLE
  2
ISO-25
  9
$DIMCLRD
 70
     0
  9
$DIMCLRE
 70
     0
  9
$DIMCLRT
 70
     0
  9
$DIMTFAC
 40
1.0
  9
$DIMGAP
 40
1.524
  9
$LUNITS
 70
     2
  9
$LUPREC
 70
     2
  9
$SKETCHINC
 40
1.0
  9
$FILLETRAD
 40
10.0
  9
$AUNITS
 70
     0
  9
$AUPREC
 70
     2
  9
$MENU
  1
.
  9
$ELEVATION
 40
0.0
  9
$PELEVATION
 40
0.0
  9
$THICKNESS
 40
0.0
  9
$LIMCHECK
 70
     0
  9
$CHAMFERA
 40
10.0
  9
$CHAMFERB
 40
10.0
  9
$SKPOLY
 70
     0
  9
$TDCREATE
 40
2456463.378862789
  9
$TDUPDATE
 40
2456463.37886316
  9
$TDINDWG
 40
0.0000000116
  9
$TDUSRTIMER
 40
0.0000000116
  9
$USRTIMER
 70
     1
  9
$ANGBASE
 50
0.0
  9
$ANGDIR
 70
     0
  9
$PDMODE
 70
     0
  9
$PDSIZE
 40
-1.0
  9
$PLINEWID
 40
0.0
  9
$COORDS
 70
     1
  9
$SPLFRAME
 70
     0
  9
$SPLINETYPE
 70
     6
  9
$SPLINESEGS
 70
     8
  9
$ATTDIA
 70
     0
  9
$ATTREQ
 70
     1
  9
$HANDLING
 70
     1
  9
$HANDSEED
  5
559
  9
$SURFTAB1
 70
     6
  9
$SURFTAB2
 70
     6
  9
$SURFTYPE
 70
     6
  9
$SURFU
 70
     6
  9
$SURFV
 70
     6
  9
$UCSNAME
  2

  9
$UCSORG
 10
0.0
 20
0.0
 30
0.0
  9
$UCSXDIR
 10
1.0
 20
0.0
 30
0.0
  9
$UCSYDIR
 10
0.0
 20
1.0
 30
0.0
  9
$PUCSNAME
  2

  9
$PUCSORG
 10
0.0
 20
0.0
 30
0.0
  9
$PUCSXDIR
 10
1.0
 20
0.0
 30
0.0
  9
$PUCSYDIR
 10
0.0
 20
1.0
 30
0.0
  9
$USERI1
 70
     0
  9
$USERI2
 70
     0
  9
$USERI3
 70
     0
  9
$USERI4
 70
     0
  9
$USERI5
 70
     0
  9
$USERR1
 40
0.0
  9
$USERR2
 40
0.0
  9
$USERR3
 40
0.0
  9
$USERR4
 40
0.0
  9
$USERR5
 40
0.0
  9
$WORLDVIEW
 70
     1
  9
$SHADEDGE
 70
     3
  9
$SHADEDIF
 70
    70
  9
$TILEMODE
 70
     1
  9
$MAXACTVP
 70
    64
  9
$PLIMCHECK
 70
     0
  9
$PEXTMIN
 10
1.0000000000E+20
 20
1.0000000000E+20
 30
1.0000000000E+20
  9
$PEXTMAX
 10
-1.0000000000E+20
 20
-1.0000000000E+20
 30
-1.0000000000E+20
  9
$PLIMMIN
 10
0.0
 20
0.0
  9
$PLIMMAX
 10
420.0
 20
297.0
  9
$UNITMODE
 70
     0
  9
$VISRETAIN
 70
     1
  9
$PLINEGEN
 70
     0
  9
$PSLTSCALE
 70
     1
  0
ENDSEC
  0
SECTION
  2
TABLES
  0
TABLE
  2
VPORT
 70
     1
  0
VPORT
  2
*ACTIVE
 70
     0
 10
0.0
 20
0.0
 11
1.0
 21
1.0
 12
148.5
 22
105.0
 13
0.0
 23
0.0
 14
10.0
 24
10.0
 15
10.0
 25
10.0
 16
0.0
 26
0.0
 36
1.0
 17
0.0
 27
0.0
 37
0.0
 40
210.0
 41
1.4142857143
 42
50.0
 43
0.0
 44
0.0
 50
0.0
 51
0.0
 71
     0
 72
  2000
 73
     1
 74
     3
 75
     0
 76
     0
 77
     0
 78
     0
  0
ENDTAB
  0
TABLE
  2
LTYPE
 70
     6
  0
LTYPE
  2
CONTINUOUS
 70
     0
  3
Solid line
 72
    65
 73
     0
 40
0.0
  0
LTYPE
  2
HIDDEN
 70
     0
  3
Hidden __ __ __ __ __ __ __ __ __ __ __ __ __ __
 72
    65
 73
     2
 40
1.905
 49
1.27
 49
-0.635
  0
LTYPE
  2
PHANTOM
 70
     0
  3
Phantom ______  __  __  ______  __  __  ______
 72
    65
 73
     6
 40
12.7
 49
6.35
 49
-1.27
 49
1.27
 49
-1.27
 49
1.27
 49
-1.27
  0
LTYPE
  2
CENTER
 70
     0
  3
Center ____ _ ____ _ ____ _ ____ _ ____ _ ____
 72
    65
 73
     4
 40
10.16
 49
6.35
 49
-1.27
 49
1.27
 49
-1.27
  0
LTYPE
  2
CENTERX2
 70
     0
  3
Center (2x) ________  __  ________  __  _____
 72
    65
 73
     4
 40
20.32
 49
12.7
 49
-2.54
 49
2.54
 49
-2.54
  0
LTYPE
  2
DOT2
 70
     0
  3
Dot (.5x) ........................................
 72
    65
 73
     2
 40
0.635
 49
0.0
 49
-0.635
  0
ENDTAB
  0
TABLE
  2
LAYER
 70
     1
  0
LAYER
  2
0
 70
     0
 62
     7
  6
CONTINUOUS
  0
ENDTAB
  0
TABLE
  2
STYLE
 70
     1
  0
STYLE
  2
STANDARD
 70
     0
 40
0.0
 41
1.0
 50
0.0
 71
     0
 42
3.5
  3
txt
  4

  0
ENDTAB
  0
TABLE
  2
VIEW
 70
     0
  0
ENDTAB
  0
TABLE
  2
UCS
 70
     0
  0
ENDTAB
  0
TABLE
  2
APPID
 70
     1
  0
APPID
  2
ACAD
 70
     0
  0
ENDTAB
  0
TABLE
  2
DIMSTYLE
 70
     1
  0
DIMSTYLE
  2
ISO-25
 70
     0
  3

  4

  5

  6

  7

 40
1.0
 41
2.5
 42
0.625
 43
3.75
 44
1.25
 45
0.0
 46
0.0
 47
0.0
 48
0.0
140
2.5
141
2.5
142
0.0
143
0.0393700787
144
1.0
145
0.0
146
1.0
147
0.625
 71
     0
 72
     0
 73
     0
 74
     0
 75
     0
 76
     0
 77
     1
 78
     8
170
     0
171
     3
172
     1
173
     0
174
     0
175
     0
176
     0
177
     0
178
     0
  0
ENDTAB
  0
ENDSEC
  0
SECTION
  2
BLOCKS
  0
BLOCK
  8
0
  2
$MODEL_SPACE
 70
     0
 10
0.0
 20
0.0
 30
0.0
  3
$MODEL_SPACE
  1

  0
ENDBLK
  5
21
  8
0
  0
BLOCK
 67
     1
  8
0
  2
$PAPER_SPACE
 70
     0
 10
0.0
 20
0.0
 30
0.0
  3
$PAPER_SPACE
  1

  0
ENDBLK
  5
1D
 67
     1
  8
0
  0
ENDSEC
  0
SECTION
  2
ENTITIES
  0
LINE
  5
44
  8
0
  6
CONTINUOUS
 62
     7
 10
92.5719407439
 20
206.3707400822
 30
0.0
 11
92.9452217282
 21
206.075898954
 31
0.0
  0
LINE
  5
45
  8
0
  6
CONTINUOUS
 62
     7
 10
93.748551123
 20
206.0926159748
 30
0.0
 11
94.1061734644
 21
206.4026441256
 31
0.0
  0
LINE
  5
46
  8
0
  6
CONTINUOUS
 62
     7
 10
92.8991888253
 20
206.1122586765
 30
0.0
 11
92.9623480734
 21
203.6910156397
 31
0.0
  0
LINE
  5
47
  8
0
  6
CONTINUOUS
 62
     7
 10
93.8545171541
 20
203.7096860555
 30
0.0
 11
93.7926543966
 21
206.1308497616
 31
0.0
  0
LINE
  5
48
  8
0
  6
CONTINUOUS
 62
     7
 10
92.9782379566
 20
203.6453114395
 30
0.0
 11
93.4267742194
 21
202.9903147832
 31
0.0
  0
LINE
  5
49
  8
0
  6
CONTINUOUS
 62
     7
 10
93.4267742194
 20
202.9903147832
 30
0.0
 11
93.8410043714
 21
203.6633684995
 31
0.0
  0
LINE
  5
4A
  8
0
  6
CONTINUOUS
 62
     7
 10
190.2256894527
 20
115.5656866161
 30
0.0
 11
190.6242428673
 21
115.2577235254
 31
0.0
  0
LINE
  5
4B
  8
0
  6
CONTINUOUS
 62
     7
 10
191.5224568325
 20
115.2274248784
 30
0.0
 11
191.9413817095
 21
115.5078458752
 31
0.0
  0
LINE
  5
4C
  8
0
  6
CONTINUOUS
 62
     7
 10
190.5328718101
 20
115.3283261401
 30
0.0
 11
190.4390586188
 21
112.5820178978
 31
0.0
  0
LINE
  5
4D
  8
0
  6
CONTINUOUS
 62
     7
 10
191.5227887651
 20
112.5452706145
 30
0.0
 11
191.6184942129
 21
115.2917106238
 31
0.0
  0
LINE
  5
4E
  8
0
  6
CONTINUOUS
 62
     7
 10
190.4657914317
 20
112.4940688755
 30
0.0
 11
190.952786595
 21
111.7487158825
 31
0.0
  0
LINE
  5
4F
  8
0
  6
CONTINUOUS
 62
     7
 10
190.952786595
 20
111.7487158825
 30
0.0
 11
191.4900521262
 21
112.4593322392
 31
0.0
  0
LINE
  5
50
  8
0
  6
CONTINUOUS
 62
     7
 10
243.1097699426
 20
142.9721932659
 30
0.0
 11
243.4906122045
 21
142.6454032838
 31
0.0
  0
LINE
  5
51
  8
0
  6
CONTINUOUS
 62
     7
 10
244.3721088864
 20
142.5914645587
 30
0.0
 11
244.7934511437
 21
142.8692331918
 31
0.0
  0
LINE
  5
52
  8
0
  6
CONTINUOUS
 62
     7
 10
243.4193956594
 20
142.7065121886
 30
0.0
 11
243.2427833364
 21
140.0488578828
 31
0.0
  0
LINE
  5
53
  8
0
  6
CONTINUOUS
 62
     7
 10
244.2725528359
 20
139.9855080807
 30
0.0
 11
244.4508923665
 21
142.6434023343
 31
0.0
  0
LINE
  5
54
  8
0
  6
CONTINUOUS
 62
     7
 10
243.2620533083
 20
139.9757719204
 30
0.0
 11
243.7052096495
 21
139.2320974029
 31
0.0
  0
LINE
  5
55
  8
0
  6
CONTINUOUS
 62
     7
 10
243.7052096495
 20
139.2320974029
 30
0.0
 11
244.2437130023
 21
139.9153728804
 31
0.0
  0
LINE
  5
56
  8
0
  6
CONTINUOUS
 62
     7
 10
162.5925638022
 20
176.8802626156
 30
0.0
 11
162.9695645765
 21
176.5711927392
 31
0.0
  0
LINE
  5
57
  8
0
  6
CONTINUOUS
 62
     7
 10
163.809157704
 20
176.559333297
 30
0.0
 11
164.1961245717
 21
176.85762716
 31
0.0
  0
LINE
  5
58
  8
0
  6
CONTINUOUS
 62
     7
 10
162.912464976
 20
176.6180036946
 30
0.0
 11
162.871722353
 21
174.0826741532
 31
0.0
  0
LINE
  5
59
  8
0
  6
CONTINUOUS
 62
     7
 10
163.8255471736
 20
174.0691270404
 30
0.0
 11
163.8677655585
 21
176.6045112302
 31
0.0
  0
LINE
  5
5A
  8
0
  6
CONTINUOUS
 62
     7
 10
162.8895118414
 20
174.0249926015
 30
0.0
 11
163.3364231598
 21
173.3299408155
 31
0.0
  0
LINE
  5
5B
  8
0
  6
CONTINUOUS
 62
     7
 10
163.3364231598
 20
173.3299408155
 30
0.0
 11
163.8058778359
 21
174.0119758715
 31
0.0
  0
LINE
  5
5C
  8
0
  6
CONTINUOUS
 62
     7
 10
109.3827354125
 20
153.2617878695
 30
0.0
 11
109.7812192989
 21
152.9656051751
 31
0.0
  0
LINE
  5
5D
  8
0
  6
CONTINUOUS
 62
     7
 10
110.6461948125
 20
152.9783707291
 30
0.0
 11
111.034835513
 21
153.2861545652
 31
0.0
  0
LINE
  5
5E
  8
0
  6
CONTINUOUS
 62
     7
 10
109.7103068737
 20
153.0183125338
 30
0.0
 11
109.7537000227
 21
150.3975095044
 31
0.0
  0
LINE
  5
5F
  8
0
  6
CONTINUOUS
 62
     7
 10
110.7571218576
 20
150.4123981397
 30
0.0
 11
110.7153569749
 21
153.033143674
 31
0.0
  0
LINE
  5
60
  8
0
  6
CONTINUOUS
 62
     7
 10
109.777318927
 20
150.3300115379
 30
0.0
 11
110.2679839358
 21
149.6315551874
 31
0.0
  0
LINE
  5
61
  8
0
  6
CONTINUOUS
 62
     7
 10
110.2679839358
 20
149.6315551874
 30
0.0
 11
110.7357083871
 21
150.3442340044
 31
0.0
  0
LINE
  5
62
  8
0
  6
CONTINUOUS
 62
     7
 10
39.5925921485
 20
185.8060344906
 30
0.0
 11
39.9895068577
 21
185.5198020272
 31
0.0
  0
LINE
  5
63
  8
0
  6
CONTINUOUS
 62
     7
 10
40.8228568333
 20
185.5604424911
 30
0.0
 11
41.1842065567
 21
185.8836002138
 31
0.0
  0
LINE
  5
64
  8
0
  6
CONTINUOUS
 62
     7
 10
39.933819435
 20
185.5599606503
 30
0.0
 11
40.0801507425
 21
183.0577411293
 31
0.0
  0
LINE
  5
65
  8
0
  6
CONTINUOUS
 62
     7
 10
41.0184506649
 20
183.1037541554
 30
0.0
 11
40.8735580959
 21
185.6057850041
 31
0.0
  0
LINE
  5
66
  8
0
  6
CONTINUOUS
 62
     7
 10
40.1005159032
 20
183.0054682291
 30
0.0
 11
40.5921116893
 21
182.3455209498
 31
0.0
  0
LINE
  5
67
  8
0
  6
CONTINUOUS
 62
     7
 10
40.5921116893
 20
182.3455209498
 30
0.0
 11
41.0042713592
 21
183.0497925312
 31
0.0
  0
ARC
  5
68
  8
0
  6
CONTINUOUS
 62
     7
 10
182.5724123493
 20
44.721848521
 30
0.0
 40
1.51780132615926
 50
2.5271128776
 51
57.9163954752
  0
ARC
  5
69
  8
0
  6
CONTINUOUS
 62
     7
 10
182.5939599017
 20
44.731460358
 30
0.0
 40
3.832855193965915
 50
359.6023580347
 51
60.6892529017
  0
LINE
  5
6A
  8
0
  6
CONTINUOUS
 62
     7
 10
186.2219415047
 20
38.5066184219
 30
0.0
 11
186.4267227897
 21
44.7048599373
 31
0.0
  0
LINE
  5
6B
  8
0
  6
CONTINUOUS
 62
     7
 10
184.0887375661
 20
44.7887716312
 30
0.0
 11
183.8935768659
 21
38.5910721322
 31
0.0
  0
LINE
  5
6C
  8
0
  6
CONTINUOUS
 62
     7
 10
184.4703189038
 20
48.0736237042
 30
0.0
 11
51.9539079375
 21
118.3627222708
 31
0.0
  0
LINE
  5
6D
  8
0
  6
CONTINUOUS
 62
     7
 10
50.9845934457
 20
116.5519670734
 30
0.0
 11
183.3786018575
 21
46.0078420445
 31
0.0
  0
POLYLINE
  5
6E
  8
0
  6
CONTINUOUS
 62
     7
 66
     1
 10
0.0
 20
0.0
 30
0.0
  0
VERTEX
  5
13D
  8
0
  6
CONTINUOUS
 62
     7
 10
206.4681971737
 20
61.1310931679
 30
0.0
  0
VERTEX
  5
13E
  8
0
  6
CONTINUOUS
 62
     7
 10
206.8558330934
 20
60.9215328324
 30
0.0
  0
VERTEX
  5
13F
  8
0
  6
CONTINUOUS
 62
     7
 10
207.5100550659
 20
60.4982191083
 30
0.0
  0
VERTEX
  5
140
  8
0
  6
CONTINUOUS
 62
     7
 10
208.0445281743
 20
60.0556804481
 30
0.0
  0
VERTEX
  5
141
  8
0
  6
CONTINUOUS
 62
     7
 10
208.4539829838
 20
59.6090018419
 30
0.0
  0
VERTEX
  5
142
  8
0
  6
CONTINUOUS
 62
     7
 10
208.7391358966
 20
59.1731745854
 30
0.0
  0
VERTEX
  5
143
  8
0
  6
CONTINUOUS
 62
     7
 10
208.9087502632
 20
58.7555351303
 30
0.0
  0
VERTEX
  5
144
  8
0
  6
CONTINUOUS
 62
     7
 10
208.9729203949
 20
58.3457255459
 30
0.0
  0
VERTEX
  5
145
  8
0
  6
CONTINUOUS
 62
     7
 10
208.92232825
 20
57.9049826043
 30
0.0
  0
VERTEX
  5
146
  8
0
  6
CONTINUOUS
 62
     7
 10
208.7634214209
 20
57.5003368023
 30
0.0
  0
VERTEX
  5
147
  8
0
  6
CONTINUOUS
 62
     7
 10
208.4996245032
 20
57.1021691479
 30
0.0
  0
VERTEX
  5
148
  8
0
  6
CONTINUOUS
 62
     7
 10
208.0819913661
 20
56.6681563156
 30
0.0
  0
VERTEX
  5
149
  8
0
  6
CONTINUOUS
 62
     7
 10
207.5429422686
 20
56.2582192062
 30
0.0
  0
VERTEX
  5
14A
  8
0
  6
CONTINUOUS
 62
     7
 10
206.8857167796
 20
55.8795588673
 30
0.0
  0
VERTEX
  5
14B
  8
0
  6
CONTINUOUS
 62
     7
 10
206.1185886646
 20
55.5424382679
 30
0.0
  0
VERTEX
  5
14C
  8
0
  6
CONTINUOUS
 62
     7
 10
205.2531949643
 20
55.2566366383
 30
0.0
  0
VERTEX
  5
14D
  8
0
  6
CONTINUOUS
 62
     7
 10
204.304212836
 20
55.0307211577
 30
0.0
  0
VERTEX
  5
14E
  8
0
  6
CONTINUOUS
 62
     7
 10
203.2891439505
 20
54.871666635
 30
0.0
  0
VERTEX
  5
14F
  8
0
  6
CONTINUOUS
 62
     7
 10
202.2274396557
 20
54.7845015028
 30
0.0
  0
VERTEX
  5
150
  8
0
  6
CONTINUOUS
 62
     7
 10
201.1397858063
 20
54.772195789
 30
0.0
  0
VERTEX
  5
151
  8
0
  6
CONTINUOUS
 62
     7
 10
200.0475187186
 20
54.835645578
 30
0.0
  0
VERTEX
  5
152
  8
0
  6
CONTINUOUS
 62
     7
 10
198.9722171019
 20
54.9736692005
 30
0.0
  0
VERTEX
  5
153
  8
0
  6
CONTINUOUS
 62
     7
 10
197.935470337
 20
55.1829242709
 30
0.0
  0
VERTEX
  5
154
  8
0
  6
CONTINUOUS
 62
     7
 10
196.9576616561
 20
55.4580027681
 30
0.0
  0
VERTEX
  5
155
  8
0
  6
CONTINUOUS
 62
     7
 10
196.0579162422
 20
55.7913736166
 30
0.0
  0
VERTEX
  5
156
  8
0
  6
CONTINUOUS
 62
     7
 10
195.3595868837
 20
56.1174635674
 30
0.0
  0
SEQEND
  5
558
  8
0
  6
CONTINUOUS
 62
     7
  0
POLYLINE
  5
6F
  8
0
  6
CONTINUOUS
 62
     7
 66
     1
 10
0.0
 20
0.0
 30
0.0
  0
VERTEX
  5
157
  8
0
  6
CONTINUOUS
 62
     7
 10
194.3016470374
 20
54.0713583828
 30
0.0
  0
VERTEX
  5
158
  8
0
  6
CONTINUOUS
 62
     7
 10
194.8202222076
 20
53.8179291869
 30
0.0
  0
VERTEX
  5
159
  8
0
  6
CONTINUOUS
 62
     7
 10
195.862228873
 20
53.3945424093
 30
0.0
  0
VERTEX
  5
15A
  8
0
  6
CONTINUOUS
 62
     7
 10
196.9737655738
 20
53.0462556518
 30
0.0
  0
VERTEX
  5
15B
  8
0
  6
CONTINUOUS
 62
     7
 10
198.1391481176
 20
52.7762265747
 30
0.0
  0
VERTEX
  5
15C
  8
0
  6
CONTINUOUS
 62
     7
 10
199.3423538577
 20
52.5869587983
 30
0.0
  0
VERTEX
  5
15D
  8
0
  6
CONTINUOUS
 62
     7
 10
200.5671126154
 20
52.4802901464
 30
0.0
  0
VERTEX
  5
15E
  8
0
  6
CONTINUOUS
 62
     7
 10
201.7969765075
 20
52.4573750908
 30
0.0
  0
VERTEX
  5
15F
  8
0
  6
CONTINUOUS
 62
     7
 10
203.0153175708
 20
52.5186527427
 30
0.0
  0
VERTEX
  5
160
  8
0
  6
CONTINUOUS
 62
     7
 10
204.2056845203
 20
52.663830087
 30
0.0
  0
VERTEX
  5
161
  8
0
  6
CONTINUOUS
 62
     7
 10
205.3524081109
 20
52.892036421
 30
0.0
  0
VERTEX
  5
162
  8
0
  6
CONTINUOUS
 62
     7
 10
206.440475279
 20
53.2020144774
 30
0.0
  0
VERTEX
  5
163
  8
0
  6
CONTINUOUS
 62
     7
 10
207.4555228795
 20
53.5923414955
 30
0.0
  0
VERTEX
  5
164
  8
0
  6
CONTINUOUS
 62
     7
 10
208.3835300464
 20
54.0615804755
 30
0.0
  0
VERTEX
  5
165
  8
0
  6
CONTINUOUS
 62
     7
 10
209.2100521654
 20
54.6080343309
 30
0.0
  0
VERTEX
  5
166
  8
0
  6
CONTINUOUS
 62
     7
 10
209.9179182136
 20
55.2272349475
 30
0.0
  0
VERTEX
  5
167
  8
0
  6
CONTINUOUS
 62
     7
 10
210.4888385502
 20
55.9093577356
 30
0.0
  0
VERTEX
  5
168
  8
0
  6
CONTINUOUS
 62
     7
 10
210.9073276322
 20
56.637250442
 30
0.0
  0
VERTEX
  5
169
  8
0
  6
CONTINUOUS
 62
     7
 10
211.1663146316
 20
57.3889571574
 30
0.0
  0
VERTEX
  5
16A
  8
0
  6
CONTINUOUS
 62
     7
 10
211.2687784711
 20
58.1446552749
 30
0.0
  0
VERTEX
  5
16B
  8
0
  6
CONTINUOUS
 62
     7
 10
211.2229220618
 20
58.8910563179
 30
0.0
  0
VERTEX
  5
16C
  8
0
  6
CONTINUOUS
 62
     7
 10
211.0371077462
 20
59.6186093566
 30
0.0
  0
VERTEX
  5
16D
  8
0
  6
CONTINUOUS
 62
     7
 10
210.7170078233
 20
60.3226888594
 30
0.0
  0
VERTEX
  5
16E
  8
0
  6
CONTINUOUS
 62
     7
 10
210.2637310433
 20
61.0013293993
 30
0.0
  0
VERTEX
  5
16F
  8
0
  6
CONTINUOUS
 62
     7
 10
209.6774627923
 20
61.6492363437
 30
0.0
  0
VERTEX
  5
170
  8
0
  6
CONTINUOUS
 62
     7
 10
208.9626474965
 20
62.2567855084
 30
0.0
  0
VERTEX
  5
171
  8
0
  6
CONTINUOUS
 62
     7
 10
208.1304445085
 20
62.8124951321
 30
0.0
  0
VERTEX
  5
172
  8
0
  6
CONTINUOUS
 62
     7
 10
207.4957329489
 20
63.1605498846
 30
0.0
  0
SEQEND
  5
557
  8
0
  6
CONTINUOUS
 62
     7
  0
LINE
  5
70
  8
0
  6
CONTINUOUS
 62
     7
 10
63.4175751112
 20
122.1669695079
 30
0.0
 11
194.3016470374
 21
54.0713583828
 31
0.0
  0
LINE
  5
71
  8
0
  6
CONTINUOUS
 62
     7
 10
195.3595868837
 20
56.1174635674
 30
0.0
 11
64.3559823126
 21
123.9678236732
 31
0.0
  0
LINE
  5
72
  8
0
  6
CONTINUOUS
 62
     7
 10
207.4957329489
 20
63.1605498846
 30
0.0
 11
76.4896374048
 21
129.4511088861
 31
0.0
  0
LINE
  5
73
  8
0
  6
CONTINUOUS
 62
     7
 10
75.5803151681
 20
127.6604313759
 30
0.0
 11
206.4681971737
 21
61.1310931679
 31
0.0
  0
POLYLINE
  5
74
  8
0
  6
CONTINUOUS
 62
     7
 66
     1
 10
0.0
 20
0.0
 30
0.0
  0
VERTEX
  5
173
  8
0
  6
CONTINUOUS
 62
     7
 10
229.9245386483
 20
74.7432386243
 30
0.0
  0
VERTEX
  5
174
  8
0
  6
CONTINUOUS
 62
     7
 10
230.3141995424
 20
74.5421195939
 30
0.0
  0
VERTEX
  5
175
  8
0
  6
CONTINUOUS
 62
     7
 10
230.9747124309
 20
74.1358873074
 30
0.0
  0
VERTEX
  5
176
  8
0
  6
CONTINUOUS
 62
     7
 10
231.5190738636
 20
73.7107866394
 30
0.0
  0
VERTEX
  5
177
  8
0
  6
CONTINUOUS
 62
     7
 10
231.9407488716
 20
73.2819703092
 30
0.0
  0
VERTEX
  5
178
  8
0
  6
CONTINUOUS
 62
     7
 10
232.2395627836
 20
72.8647193017
 30
0.0
  0
VERTEX
  5
179
  8
0
  6
CONTINUOUS
 62
     7
 10
232.4230014358
 20
72.4700063127
 30
0.0
  0
VERTEX
  5
17A
  8
0
  6
CONTINUOUS
 62
     7
 10
232.5036399531
 20
72.0936228155
 30
0.0
  0
VERTEX
  5
17B
  8
0
  6
CONTINUOUS
 62
     7
 10
232.4816776259
 20
71.7023003371
 30
0.0
  0
VERTEX
  5
17C
  8
0
  6
CONTINUOUS
 62
     7
 10
232.3537736004
 20
71.3266283079
 30
0.0
  0
VERTEX
  5
17D
  8
0
  6
CONTINUOUS
 62
     7
 10
232.1261710862
 20
70.960193093
 30
0.0
  0
VERTEX
  5
17E
  8
0
  6
CONTINUOUS
 62
     7
 10
231.7479018614
 20
70.5533466827
 30
0.0
  0
VERTEX
  5
17F
  8
0
  6
CONTINUOUS
 62
     7
 10
231.2508797666
 20
70.1683450639
 30
0.0
  0
VERTEX
  5
180
  8
0
  6
CONTINUOUS
 62
     7
 10
230.6368607367
 20
69.8109672688
 30
0.0
  0
VERTEX
  5
181
  8
0
  6
CONTINUOUS
 62
     7
 10
229.9125617636
 20
69.4909746462
 30
0.0
  0
VERTEX
  5
182
  8
0
  6
CONTINUOUS
 62
     7
 10
229.0886998306
 20
69.2181560565
 30
0.0
  0
VERTEX
  5
183
  8
0
  6
CONTINUOUS
 62
     7
 10
228.1789567966
 20
69.0010568178
 30
0.0
  0
VERTEX
  5
184
  8
0
  6
CONTINUOUS
 62
     7
 10
227.2000124775
 20
68.8467019406
 30
0.0
  0
VERTEX
  5
185
  8
0
  6
CONTINUOUS
 62
     7
 10
226.1706140667
 20
68.7602147248
 30
0.0
  0
VERTEX
  5
186
  8
0
  6
CONTINUOUS
 62
     7
 10
225.1108299462
 20
68.7447104445
 30
0.0
  0
VERTEX
  5
187
  8
0
  6
CONTINUOUS
 62
     7
 10
224.0414545385
 20
68.8012967135
 30
0.0
  0
VERTEX
  5
188
  8
0
  6
CONTINUOUS
 62
     7
 10
222.9835173783
 20
68.9291015964
 30
0.0
  0
VERTEX
  5
189
  8
0
  6
CONTINUOUS
 62
     7
 10
221.9582864267
 20
69.1251927529
 30
0.0
  0
VERTEX
  5
18A
  8
0
  6
CONTINUOUS
 62
     7
 10
220.985976797
 20
69.3846654302
 30
0.0
  0
VERTEX
  5
18B
  8
0
  6
CONTINUOUS
 62
     7
 10
220.0856566806
 20
69.7006133723
 30
0.0
  0
VERTEX
  5
18C
  8
0
  6
CONTINUOUS
 62
     7
 10
219.3378911964
 20
70.0325360043
 30
0.0
  0
SEQEND
  5
556
  8
0
  6
CONTINUOUS
 62
     7
  0
POLYLINE
  5
75
  8
0
  6
CONTINUOUS
 62
     7
 66
     1
 10
0.0
 20
0.0
 30
0.0
  0
VERTEX
  5
18D
  8
0
  6
CONTINUOUS
 62
     7
 10
218.338938096
 20
68.0196716718
 30
0.0
  0
VERTEX
  5
18E
  8
0
  6
CONTINUOUS
 62
     7
 10
218.8523984539
 20
67.7797309874
 30
0.0
  0
VERTEX
  5
18F
  8
0
  6
CONTINUOUS
 62
     7
 10
219.8834735531
 20
67.3778749636
 30
0.0
  0
VERTEX
  5
190
  8
0
  6
CONTINUOUS
 62
     7
 10
220.9795143582
 20
67.0473428343
 30
0.0
  0
VERTEX
  5
191
  8
0
  6
CONTINUOUS
 62
     7
 10
222.125170998
 20
66.7911246996
 30
0.0
  0
VERTEX
  5
192
  8
0
  6
CONTINUOUS
 62
     7
 10
223.304872708
 20
66.61160995
 30
0.0
  0
VERTEX
  5
193
  8
0
  6
CONTINUOUS
 62
     7
 10
224.5027689749
 20
66.5106022904
 30
0.0
  0
VERTEX
  5
194
  8
0
  6
CONTINUOUS
 62
     7
 10
225.7028413908
 20
66.4892784399
 30
0.0
  0
VERTEX
  5
195
  8
0
  6
CONTINUOUS
 62
     7
 10
226.8888097185
 20
66.5481445936
 30
0.0
  0
VERTEX
  5
196
  8
0
  6
CONTINUOUS
 62
     7
 10
228.0448554543
 20
66.6870427624
 30
0.0
  0
VERTEX
  5
197
  8
0
  6
CONTINUOUS
 62
     7
 10
229.155879507
 20
66.9053247183
 30
0.0
  0
VERTEX
  5
198
  8
0
  6
CONTINUOUS
 62
     7
 10
230.2074796161
 20
67.2020632427
 30
0.0
  0
VERTEX
  5
199
  8
0
  6
CONTINUOUS
 62
     7
 10
231.1859086339
 20
67.5763066938
 30
0.0
  0
VERTEX
  5
19A
  8
0
  6
CONTINUOUS
 62
     7
 10
232.0776745147
 20
68.0272505186
 30
0.0
  0
VERTEX
  5
19B
  8
0
  6
CONTINUOUS
 62
     7
 10
232.8685843102
 20
68.5539199303
 30
0.0
  0
VERTEX
  5
19C
  8
0
  6
CONTINUOUS
 62
     7
 10
233.5408539888
 20
69.151933005
 30
0.0
  0
VERTEX
  5
19D
  8
0
  6
CONTINUOUS
 62
     7
 10
234.0758172429
 20
69.8108624957
 30
0.0
  0
VERTEX
  5
19E
  8
0
  6
CONTINUOUS
 62
     7
 10
234.458476349
 20
70.5121852033
 30
0.0
  0
VERTEX
  5
19F
  8
0
  6
CONTINUOUS
 62
     7
 10
234.683783138
 20
71.2334405254
 30
0.0
  0
VERTEX
  5
1A0
  8
0
  6
CONTINUOUS
 62
     7
 10
234.7568159683
 20
71.9559292414
 30
0.0
  0
VERTEX
  5
1A1
  8
0
  6
CONTINUOUS
 62
     7
 10
234.6865483647
 20
72.6682021819
 30
0.0
  0
VERTEX
  5
1A2
  8
0
  6
CONTINUOUS
 62
     7
 10
234.4813554824
 20
73.3611866528
 30
0.0
  0
VERTEX
  5
1A3
  8
0
  6
CONTINUOUS
 62
     7
 10
234.1455806567
 20
74.0328056458
 30
0.0
  0
VERTEX
  5
1A4
  8
0
  6
CONTINUOUS
 62
     7
 10
233.6790528844
 20
74.6813586546
 30
0.0
  0
VERTEX
  5
1A5
  8
0
  6
CONTINUOUS
 62
     7
 10
233.081848942
 20
75.3009233209
 30
0.0
  0
VERTEX
  5
1A6
  8
0
  6
CONTINUOUS
 62
     7
 10
232.3597077757
 20
75.8811395829
 30
0.0
  0
VERTEX
  5
1A7
  8
0
  6
CONTINUOUS
 62
     7
 10
231.5253404539
 20
76.4105889497
 30
0.0
  0
VERTEX
  5
1A8
  8
0
  6
CONTINUOUS
 62
     7
 10
230.8966058648
 20
76.7395869557
 30
0.0
  0
SEQEND
  5
555
  8
0
  6
CONTINUOUS
 62
     7
  0
LINE
  5
76
  8
0
  6
CONTINUOUS
 62
     7
 10
87.4815397427
 20
133.0362481219
 30
0.0
 11
218.338938096
 21
68.0196716718
 31
0.0
  0
LINE
  5
77
  8
0
  6
CONTINUOUS
 62
     7
 10
219.3378911964
 20
70.0325360043
 30
0.0
 11
88.3634840058
 21
134.8165148589
 31
0.0
  0
LINE
  5
78
  8
0
  6
CONTINUOUS
 62
     7
 10
196.5334066073
 20
90.9684117551
 30
0.0
 11
229.9245386483
 21
74.7432386243
 31
0.0
  0
LINE
  5
79
  8
0
  6
CONTINUOUS
 62
     7
 10
230.8966058648
 20
76.7395869557
 30
0.0
 11
198.8609477375
 21
92.2368624309
 31
0.0
  0
POLYLINE
  5
7A
  8
0
  6
CONTINUOUS
 62
     7
 66
     1
 10
0.0
 20
0.0
 30
0.0
  0
VERTEX
  5
1A9
  8
0
  6
CONTINUOUS
 62
     7
 10
64.3559823126
 20
123.9678236732
 30
0.0
  0
VERTEX
  5
1AA
  8
0
  6
CONTINUOUS
 62
     7
 10
63.9391908526
 20
124.1689816849
 30
0.0
  0
VERTEX
  5
1AB
  8
0
  6
CONTINUOUS
 62
     7
 10
63.0855529998
 20
124.5041157273
 30
0.0
  0
VERTEX
  5
1AC
  8
0
  6
CONTINUOUS
 62
     7
 10
62.1624167672
 20
124.7764116623
 30
0.0
  0
VERTEX
  5
1AD
  8
0
  6
CONTINUOUS
 62
     7
 10
61.1828234392
 20
124.9850240235
 30
0.0
  0
VERTEX
  5
1AE
  8
0
  6
CONTINUOUS
 62
     7
 10
60.1597597139
 20
125.1293811763
 30
0.0
  0
VERTEX
  5
1AF
  8
0
  6
CONTINUOUS
 62
     7
 10
59.1062089868
 20
125.2091588327
 30
0.0
  0
VERTEX
  5
1B0
  8
0
  6
CONTINUOUS
 62
     7
 10
58.0354080619
 20
125.2242951074
 30
0.0
  0
VERTEX
  5
1B1
  8
0
  6
CONTINUOUS
 62
     7
 10
56.9608248676
 20
125.1750742288
 30
0.0
  0
VERTEX
  5
1B2
  8
0
  6
CONTINUOUS
 62
     7
 10
55.8960027009
 20
125.0621799446
 30
0.0
  0
VERTEX
  5
1B3
  8
0
  6
CONTINUOUS
 62
     7
 10
54.8547857383
 20
124.8867756906
 30
0.0
  0
VERTEX
  5
1B4
  8
0
  6
CONTINUOUS
 62
     7
 10
53.8502080829
 20
124.6503344947
 30
0.0
  0
VERTEX
  5
1B5
  8
0
  6
CONTINUOUS
 62
     7
 10
52.8947301921
 20
124.3544812438
 30
0.0
  0
VERTEX
  5
1B6
  8
0
  6
CONTINUOUS
 62
     7
 10
52.0001356216
 20
124.0007348014
 30
0.0
  0
VERTEX
  5
1B7
  8
0
  6
CONTINUOUS
 62
     7
 10
51.1775999592
 20
123.5901588188
 30
0.0
  0
VERTEX
  5
1B8
  8
0
  6
CONTINUOUS
 62
     7
 10
50.4381575926
 20
123.1230345533
 30
0.0
  0
VERTEX
  5
1B9
  8
0
  6
CONTINUOUS
 62
     7
 10
49.79390591
 20
122.599022466
 30
0.0
  0
VERTEX
  5
1BA
  8
0
  6
CONTINUOUS
 62
     7
 10
49.261196979
 20
122.0205816588
 30
0.0
  0
VERTEX
  5
1BB
  8
0
  6
CONTINUOUS
 62
     7
 10
48.8946549457
 20
121.4643074754
 30
0.0
  0
VERTEX
  5
1BC
  8
0
  6
CONTINUOUS
 62
     7
 10
48.6467928798
 20
120.8931207521
 30
0.0
  0
VERTEX
  5
1BD
  8
0
  6
CONTINUOUS
 62
     7
 10
48.5086647024
 20
120.2502254837
 30
0.0
  0
VERTEX
  5
1BE
  8
0
  6
CONTINUOUS
 62
     7
 10
48.5110242367
 20
119.6217832833
 30
0.0
  0
VERTEX
  5
1BF
  8
0
  6
CONTINUOUS
 62
     7
 10
48.6427429199
 20
119.019284148
 30
0.0
  0
VERTEX
  5
1C0
  8
0
  6
CONTINUOUS
 62
     7
 10
48.8937119096
 20
118.449402672
 30
0.0
  0
VERTEX
  5
1C1
  8
0
  6
CONTINUOUS
 62
     7
 10
49.2601973315
 20
117.9113793011
 30
0.0
  0
VERTEX
  5
1C2
  8
0
  6
CONTINUOUS
 62
     7
 10
49.7448339752
 20
117.4044639637
 30
0.0
  0
VERTEX
  5
1C3
  8
0
  6
CONTINUOUS
 62
     7
 10
50.3499888645
 20
116.9331440101
 30
0.0
  0
VERTEX
  5
1C4
  8
0
  6
CONTINUOUS
 62
     7
 10
50.9845934457
 20
116.5519670734
 30
0.0
  0
SEQEND
  5
554
  8
0
  6
CONTINUOUS
 62
     7
  0
POLYLINE
  5
7B
  8
0
  6
CONTINUOUS
 62
     7
 66
     1
 10
0.0
 20
0.0
 30
0.0
  0
VERTEX
  5
1C5
  8
0
  6
CONTINUOUS
 62
     7
 10
51.9539079375
 20
118.3627222708
 30
0.0
  0
VERTEX
  5
1C6
  8
0
  6
CONTINUOUS
 62
     7
 10
51.6716231081
 20
118.5235839892
 30
0.0
  0
VERTEX
  5
1C7
  8
0
  6
CONTINUOUS
 62
     7
 10
51.2302950406
 20
118.8342763469
 30
0.0
  0
VERTEX
  5
1C8
  8
0
  6
CONTINUOUS
 62
     7
 10
50.9066923973
 20
119.1427245029
 30
0.0
  0
VERTEX
  5
1C9
  8
0
  6
CONTINUOUS
 62
     7
 10
50.6956586347
 20
119.4330516514
 30
0.0
  0
VERTEX
  5
1CA
  8
0
  6
CONTINUOUS
 62
     7
 10
50.5808038886
 20
119.6998980111
 30
0.0
  0
VERTEX
  5
1CB
  8
0
  6
CONTINUOUS
 62
     7
 10
50.5452577707
 20
119.9674476198
 30
0.0
  0
VERTEX
  5
1CC
  8
0
  6
CONTINUOUS
 62
     7
 10
50.5937663659
 20
120.252118338
 30
0.0
  0
VERTEX
  5
1CD
  8
0
  6
CONTINUOUS
 62
     7
 10
50.7245793484
 20
120.5425080347
 30
0.0
  0
VERTEX
  5
1CE
  8
0
  6
CONTINUOUS
 62
     7
 10
50.9474803947
 20
120.8550576112
 30
0.0
  0
VERTEX
  5
1CF
  8
0
  6
CONTINUOUS
 62
     7
 10
51.2996557413
 20
121.2089595184
 30
0.0
  0
VERTEX
  5
1D0
  8
0
  6
CONTINUOUS
 62
     7
 10
51.7614486311
 20
121.5608071263
 30
0.0
  0
VERTEX
  5
1D1
  8
0
  6
CONTINUOUS
 62
     7
 10
52.3287895165
 20
121.8998666402
 30
0.0
  0
VERTEX
  5
1D2
  8
0
  6
CONTINUOUS
 62
     7
 10
52.9947657054
 20
122.2160668333
 30
0.0
  0
VERTEX
  5
1D3
  8
0
  6
CONTINUOUS
 62
     7
 10
53.7491520003
 20
122.5000345297
 30
0.0
  0
VERTEX
  5
1D4
  8
0
  6
CONTINUOUS
 62
     7
 10
54.5787137305
 20
122.7435030364
 30
0.0
  0
VERTEX
  5
1D5
  8
0
  6
CONTINUOUS
 62
     7
 10
55.4681443998
 20
122.9396971381
 30
0.0
  0
VERTEX
  5
1D6
  8
0
  6
CONTINUOUS
 62
     7
 10
56.4007719151
 20
123.0834207611
 30
0.0
  0
VERTEX
  5
1D7
  8
0
  6
CONTINUOUS
 62
     7
 10
57.3590738178
 20
123.1710386115
 30
0.0
  0
VERTEX
  5
1D8
  8
0
  6
CONTINUOUS
 62
     7
 10
58.3250585048
 20
123.2004380516
 30
0.0
  0
VERTEX
  5
1D9
  8
0
  6
CONTINUOUS
 62
     7
 10
59.2804292375
 20
123.171018941
 30
0.0
  0
VERTEX
  5
1DA
  8
0
  6
CONTINUOUS
 62
     7
 10
60.20678859
 20
123.0837650714
 30
0.0
  0
VERTEX
  5
1DB
  8
0
  6
CONTINUOUS
 62
     7
 10
61.0864557469
 20
122.9412797656
 30
0.0
  0
VERTEX
  5
1DC
  8
0
  6
CONTINUOUS
 62
     7
 10
61.9024024954
 20
122.7479051895
 30
0.0
  0
VERTEX
  5
1DD
  8
0
  6
CONTINUOUS
 62
     7
 10
62.6386304296
 20
122.5099417303
 30
0.0
  0
VERTEX
  5
1DE
  8
0
  6
CONTINUOUS
 62
     7
 10
63.2461337818
 20
122.2527099624
 30
0.0
  0
VERTEX
  5
1DF
  8
0
  6
CONTINUOUS
 62
     7
 10
63.4175751112
 20
122.1669695079
 30
0.0
  0
SEQEND
  5
553
  8
0
  6
CONTINUOUS
 62
     7
  0
POLYLINE
  5
7C
  8
0
  6
CONTINUOUS
 62
     7
 66
     1
 10
0.0
 20
0.0
 30
0.0
  0
VERTEX
  5
1E0
  8
0
  6
CONTINUOUS
 62
     7
 10
88.3634840058
 20
134.8165148589
 30
0.0
  0
VERTEX
  5
1E1
  8
0
  6
CONTINUOUS
 62
     7
 10
87.9496191328
 20
135.0075859948
 30
0.0
  0
VERTEX
  5
1E2
  8
0
  6
CONTINUOUS
 62
     7
 10
87.1022787404
 20
135.3270355942
 30
0.0
  0
VERTEX
  5
1E3
  8
0
  6
CONTINUOUS
 62
     7
 10
86.1896729729
 20
135.5865899893
 30
0.0
  0
VERTEX
  5
1E4
  8
0
  6
CONTINUOUS
 62
     7
 10
85.2244478165
 20
135.785474169
 30
0.0
  0
VERTEX
  5
1E5
  8
0
  6
CONTINUOUS
 62
     7
 10
84.2191291832
 20
135.9231181705
 30
0.0
  0
VERTEX
  5
1E6
  8
0
  6
CONTINUOUS
 62
     7
 10
83.1863835516
 20
135.9991289461
 30
0.0
  0
VERTEX
  5
1E7
  8
0
  6
CONTINUOUS
 62
     7
 10
82.1391738616
 20
136.0133581941
 30
0.0
  0
VERTEX
  5
1E8
  8
0
  6
CONTINUOUS
 62
     7
 10
81.0906816966
 20
135.9659941771
 30
0.0
  0
VERTEX
  5
1E9
  8
0
  6
CONTINUOUS
 62
     7
 10
80.0542263366
 20
135.8576214759
 30
0.0
  0
VERTEX
  5
1EA
  8
0
  6
CONTINUOUS
 62
     7
 10
79.0431786512
 20
135.6892601624
 30
0.0
  0
VERTEX
  5
1EB
  8
0
  6
CONTINUOUS
 62
     7
 10
78.070131121
 20
135.4621938639
 30
0.0
  0
VERTEX
  5
1EC
  8
0
  6
CONTINUOUS
 62
     7
 10
77.1470654001
 20
135.1777919602
 30
0.0
  0
VERTEX
  5
1ED
  8
0
  6
CONTINUOUS
 62
     7
 10
76.2852503085
 20
134.8372176135
 30
0.0
  0
VERTEX
  5
1EE
  8
0
  6
CONTINUOUS
 62
     7
 10
75.4953561761
 20
134.4410359055
 30
0.0
  0
VERTEX
  5
1EF
  8
0
  6
CONTINUOUS
 62
     7
 10
74.7880447855
 20
133.9888645977
 30
0.0
  0
VERTEX
  5
1F0
  8
0
  6
CONTINUOUS
 62
     7
 10
74.1754453243
 20
133.4796737627
 30
0.0
  0
VERTEX
  5
1F1
  8
0
  6
CONTINUOUS
 62
     7
 10
73.6751663011
 20
132.9165864125
 30
0.0
  0
VERTEX
  5
1F2
  8
0
  6
CONTINUOUS
 62
     7
 10
73.3407520348
 20
132.3801282312
 30
0.0
  0
VERTEX
  5
1F3
  8
0
  6
CONTINUOUS
 62
     7
 10
73.1218587042
 20
131.8293417883
 30
0.0
  0
VERTEX
  5
1F4
  8
0
  6
CONTINUOUS
 62
     7
 10
73.0121085812
 20
131.2111710646
 30
0.0
  0
VERTEX
  5
1F5
  8
0
  6
CONTINUOUS
 62
     7
 10
73.0374808226
 20
130.609072978
 30
0.0
  0
VERTEX
  5
1F6
  8
0
  6
CONTINUOUS
 62
     7
 10
73.1868231729
 20
130.032561863
 30
0.0
  0
VERTEX
  5
1F7
  8
0
  6
CONTINUOUS
 62
     7
 10
73.4506727552
 20
129.4877019223
 30
0.0
  0
VERTEX
  5
1F8
  8
0
  6
CONTINUOUS
 62
     7
 10
73.8275295642
 20
128.9716747803
 30
0.0
  0
VERTEX
  5
1F9
  8
0
  6
CONTINUOUS
 62
     7
 10
74.3212411588
 20
128.4842100924
 30
0.0
  0
VERTEX
  5
1FA
  8
0
  6
CONTINUOUS
 62
     7
 10
74.9333977079
 20
128.0309892563
 30
0.0
  0
VERTEX
  5
1FB
  8
0
  6
CONTINUOUS
 62
     7
 10
75.5803151681
 20
127.6604313759
 30
0.0
  0
SEQEND
  5
552
  8
0
  6
CONTINUOUS
 62
     7
  0
POLYLINE
  5
7D
  8
0
  6
CONTINUOUS
 62
     7
 66
     1
 10
0.0
 20
0.0
 30
0.0
  0
VERTEX
  5
1FC
  8
0
  6
CONTINUOUS
 62
     7
 10
76.4896374048
 20
129.4511088861
 30
0.0
  0
VERTEX
  5
1FD
  8
0
  6
CONTINUOUS
 62
     7
 10
76.2020826644
 20
129.6071497771
 30
0.0
  0
VERTEX
  5
1FE
  8
0
  6
CONTINUOUS
 62
     7
 10
75.7486265998
 20
129.909203612
 30
0.0
  0
VERTEX
  5
1FF
  8
0
  6
CONTINUOUS
 62
     7
 10
75.4109000212
 20
130.210010638
 30
0.0
  0
VERTEX
  5
200
  8
0
  6
CONTINUOUS
 62
     7
 10
75.1856472806
 20
130.4932125084
 30
0.0
  0
VERTEX
  5
201
  8
0
  6
CONTINUOUS
 62
     7
 10
75.0588574648
 20
130.7484593112
 30
0.0
  0
VERTEX
  5
202
  8
0
  6
CONTINUOUS
 62
     7
 10
75.0102382614
 20
130.9887991696
 30
0.0
  0
VERTEX
  5
203
  8
0
  6
CONTINUOUS
 62
     7
 10
75.0472902962
 20
131.2817494822
 30
0.0
  0
VERTEX
  5
204
  8
0
  6
CONTINUOUS
 62
     7
 10
75.1631140205
 20
131.5471867025
 30
0.0
  0
VERTEX
  5
205
  8
0
  6
CONTINUOUS
 62
     7
 10
75.3673243864
 20
131.8362192196
 30
0.0
  0
VERTEX
  5
206
  8
0
  6
CONTINUOUS
 62
     7
 10
75.6974892068
 20
132.1674434363
 30
0.0
  0
VERTEX
  5
207
  8
0
  6
CONTINUOUS
 62
     7
 10
76.1350702182
 20
132.4978909973
 30
0.0
  0
VERTEX
  5
208
  8
0
  6
CONTINUOUS
 62
     7
 10
76.6767865276
 20
132.8170737712
 30
0.0
  0
VERTEX
  5
209
  8
0
  6
CONTINUOUS
 62
     7
 10
77.3162792296
 20
133.1150060406
 30
0.0
  0
VERTEX
  5
20A
  8
0
  6
CONTINUOUS
 62
     7
 10
78.0438962161
 20
133.3824686672
 30
0.0
  0
VERTEX
  5
20B
  8
0
  6
CONTINUOUS
 62
     7
 10
78.8468986098
 20
133.6113497219
 30
0.0
  0
VERTEX
  5
20C
  8
0
  6
CONTINUOUS
 62
     7
 10
79.7104372358
 20
133.7950324983
 30
0.0
  0
VERTEX
  5
20D
  8
0
  6
CONTINUOUS
 62
     7
 10
80.6182804581
 20
133.9284703452
 30
0.0
  0
VERTEX
  5
20E
  8
0
  6
CONTINUOUS
 62
     7
 10
81.5533382227
 20
134.0081526088
 30
0.0
  0
VERTEX
  5
20F
  8
0
  6
CONTINUOUS
 62
     7
 10
82.4980434028
 20
134.0320516543
 30
0.0
  0
VERTEX
  5
210
  8
0
  6
CONTINUOUS
 62
     7
 10
83.4345914797
 20
133.9995941983
 30
0.0
  0
VERTEX
  5
211
  8
0
  6
CONTINUOUS
 62
     7
 10
84.3448929974
 20
133.9117238032
 30
0.0
  0
VERTEX
  5
212
  8
0
  6
CONTINUOUS
 62
     7
 10
85.2116132149
 20
133.7709246585
 30
0.0
  0
VERTEX
  5
213
  8
0
  6
CONTINUOUS
 62
     7
 10
86.0180079098
 20
133.5813237382
 30
0.0
  0
VERTEX
  5
214
  8
0
  6
CONTINUOUS
 62
     7
 10
86.7482623515
 20
133.3488968401
 30
0.0
  0
VERTEX
  5
215
  8
0
  6
CONTINUOUS
 62
     7
 10
87.3531786375
 20
133.0982207517
 30
0.0
  0
VERTEX
  5
216
  8
0
  6
CONTINUOUS
 62
     7
 10
87.4815397427
 20
133.0362481219
 30
0.0
  0
SEQEND
  5
551
  8
0
  6
CONTINUOUS
 62
     7
  0
LINE
  5
7E
  8
0
  6
CONTINUOUS
 62
     7
 10
52.2024205187
 20
89.4105644256
 30
0.0
 11
52.2582454326
 21
88.3807261588
 31
0.0
  0
POLYLINE
  5
7F
  8
0
  6
CONTINUOUS
 62
     7
 66
     1
 10
0.0
 20
0.0
 30
0.0
  0
VERTEX
  5
217
  8
0
  6
CONTINUOUS
 62
     7
 10
93.5666719161
 20
206.0104139463
 30
0.0
  0
VERTEX
  5
218
  8
0
  6
CONTINUOUS
 62
     7
 10
93.6982283385
 20
206.0587347072
 30
0.0
  0
VERTEX
  5
219
  8
0
  6
CONTINUOUS
 62
     7
 10
93.748551123
 20
206.0926159748
 30
0.0
  0
SEQEND
  5
550
  8
0
  6
CONTINUOUS
 62
     7
  0
ARC
  5
80
  8
0
  6
CONTINUOUS
 62
     7
 10
93.3322766807
 20
206.7675238532
 30
0.0
 40
0.7925632703814811
 50
240.7672572205
 51
287.2021110845
  0
POLYLINE
  5
81
  8
0
  6
CONTINUOUS
 62
     7
 66
     1
 10
0.0
 20
0.0
 30
0.0
  0
VERTEX
  5
21A
  8
0
  6
CONTINUOUS
 62
     7
 10
93.7588904945
 20
206.2457413785
 30
0.0
  0
VERTEX
  5
21B
  8
0
  6
CONTINUOUS
 62
     7
 10
94.0101143287
 20
206.3379801313
 30
0.0
  0
VERTEX
  5
21C
  8
0
  6
CONTINUOUS
 62
     7
 10
94.1584423886
 20
206.4605068233
 30
0.0
  0
VERTEX
  5
21D
  8
0
  6
CONTINUOUS
 62
     7
 10
94.1813662927
 20
206.5946332526
 30
0.0
  0
VERTEX
  5
21E
  8
0
  6
CONTINUOUS
 62
     7
 10
94.0755107201
 20
206.7199373077
 30
0.0
  0
VERTEX
  5
21F
  8
0
  6
CONTINUOUS
 62
     7
 10
93.8570801068
 20
206.8173735151
 30
0.0
  0
VERTEX
  5
220
  8
0
  6
CONTINUOUS
 62
     7
 10
93.5593396957
 20
206.8721543993
 30
0.0
  0
VERTEX
  5
221
  8
0
  6
CONTINUOUS
 62
     7
 10
93.2275447527
 20
206.8759746466
 30
0.0
  0
VERTEX
  5
222
  8
0
  6
CONTINUOUS
 62
     7
 10
92.9120936043
 20
206.8282552999
 30
0.0
  0
VERTEX
  5
223
  8
0
  6
CONTINUOUS
 62
     7
 10
92.6609218802
 20
206.7362303563
 30
0.0
  0
VERTEX
  5
224
  8
0
  6
CONTINUOUS
 62
     7
 10
92.5122567988
 20
206.6138634836
 30
0.0
  0
VERTEX
  5
225
  8
0
  6
CONTINUOUS
 62
     7
 10
92.4888041642
 20
206.4797492638
 30
0.0
  0
VERTEX
  5
226
  8
0
  6
CONTINUOUS
 62
     7
 10
92.5942490202
 20
206.3543026563
 30
0.0
  0
VERTEX
  5
227
  8
0
  6
CONTINUOUS
 62
     7
 10
92.812627523
 20
206.2566526398
 30
0.0
  0
VERTEX
  5
228
  8
0
  6
CONTINUOUS
 62
     7
 10
93.1107049557
 20
206.2017119361
 30
0.0
  0
VERTEX
  5
229
  8
0
  6
CONTINUOUS
 62
     7
 10
93.4430286295
 20
206.1978794793
 30
0.0
  0
VERTEX
  5
22A
  8
0
  6
CONTINUOUS
 62
     7
 10
93.7588904945
 20
206.2457413785
 30
0.0
  0
SEQEND
  5
54F
  8
0
  6
CONTINUOUS
 62
     7
  0
LINE
  5
82
  8
0
  6
CONTINUOUS
 62
     7
 10
93.3366015148
 20
206.6694264934
 30
0.0
 11
93.0515746034
 21
206.5990924032
 31
0.0
  0
LINE
  5
83
  8
0
  6
CONTINUOUS
 62
     7
 10
93.0515746034
 20
206.5990924032
 30
0.0
 11
93.0500838886
 21
206.4668209393
 31
0.0
  0
LINE
  5
84
  8
0
  6
CONTINUOUS
 62
     7
 10
93.0500838886
 20
206.4668209393
 30
0.0
 11
93.3337981169
 21
206.4048888443
 31
0.0
  0
LINE
  5
85
  8
0
  6
CONTINUOUS
 62
     7
 10
93.3337981169
 20
206.4048888443
 30
0.0
 11
93.6189090053
 21
206.475287594
 31
0.0
  0
LINE
  5
86
  8
0
  6
CONTINUOUS
 62
     7
 10
93.6189090053
 20
206.475287594
 30
0.0
 11
93.6202216918
 21
206.6075537599
 31
0.0
  0
LINE
  5
87
  8
0
  6
CONTINUOUS
 62
     7
 10
93.6202216918
 20
206.6075537599
 30
0.0
 11
93.3366015148
 21
206.6694264934
 31
0.0
  0
POLYLINE
  5
88
  8
0
  6
CONTINUOUS
 62
     7
 66
     1
 10
0.0
 20
0.0
 30
0.0
  0
VERTEX
  5
22B
  8
0
  6
CONTINUOUS
 62
     7
 10
93.6299500051
 20
203.5470655219
 30
0.0
  0
VERTEX
  5
22C
  8
0
  6
CONTINUOUS
 62
     7
 10
93.7613054104
 20
203.5955959856
 30
0.0
  0
VERTEX
  5
22D
  8
0
  6
CONTINUOUS
 62
     7
 10
93.8389002661
 20
203.6600777625
 30
0.0
  0
VERTEX
  5
22E
  8
0
  6
CONTINUOUS
 62
     7
 10
93.8545171541
 20
203.7096860555
 30
0.0
  0
SEQEND
  5
54E
  8
0
  6
CONTINUOUS
 62
     7
  0
POLYLINE
  5
89
  8
0
  6
CONTINUOUS
 62
     7
 66
     1
 10
0.0
 20
0.0
 30
0.0
  0
VERTEX
  5
22F
  8
0
  6
CONTINUOUS
 62
     7
 10
92.9623480734
 20
203.6910156397
 30
0.0
  0
VERTEX
  5
230
  8
0
  6
CONTINUOUS
 62
     7
 10
92.9658754582
 20
203.670206048
 30
0.0
  0
VERTEX
  5
231
  8
0
  6
CONTINUOUS
 62
     7
 10
93.0210774404
 20
203.6041849652
 30
0.0
  0
VERTEX
  5
232
  8
0
  6
CONTINUOUS
 62
     7
 10
93.1352875436
 20
203.552805842
 30
0.0
  0
VERTEX
  5
233
  8
0
  6
CONTINUOUS
 62
     7
 10
93.2911214208
 20
203.5239034494
 30
0.0
  0
VERTEX
  5
234
  8
0
  6
CONTINUOUS
 62
     7
 10
93.4648347917
 20
203.5218874609
 30
0.0
  0
VERTEX
  5
235
  8
0
  6
CONTINUOUS
 62
     7
 10
93.6299500051
 20
203.5470655219
 30
0.0
  0
SEQEND
  5
54D
  8
0
  6
CONTINUOUS
 62
     7
  0
LINE
  5
8A
  8
0
  6
CONTINUOUS
 62
     7
 10
93.055040025
 20
206.4657390623
 30
0.0
 11
93.0515746034
 21
206.5990924032
 31
0.0
  0
LINE
  5
8B
  8
0
  6
CONTINUOUS
 62
     7
 10
93.3433696132
 20
206.4072522103
 30
0.0
 11
93.3366015148
 21
206.6694264934
 31
0.0
  0
LINE
  5
8C
  8
0
  6
CONTINUOUS
 62
     7
 10
191.3907791832
 20
115.1664065766
 30
0.0
 11
191.5224568325
 21
115.2274248784
 31
0.0
  0
ARC
  5
8D
  8
0
  6
CONTINUOUS
 62
     7
 10
191.1028063382
 20
116.0119967076
 30
0.0
 40
0.8932810470500158
 50
237.6061112784
 51
288.8067084352
  0
POLYLINE
  5
8E
  8
0
  6
CONTINUOUS
 62
     7
 66
     1
 10
0.0
 20
0.0
 30
0.0
  0
VERTEX
  5
236
  8
0
  6
CONTINUOUS
 62
     7
 10
191.6899234696
 20
115.3913418404
 30
0.0
  0
VERTEX
  5
237
  8
0
  6
CONTINUOUS
 62
     7
 10
191.969157184
 20
115.5274629449
 30
0.0
  0
VERTEX
  5
238
  8
0
  6
CONTINUOUS
 62
     7
 10
192.1148492535
 20
115.7082616737
 30
0.0
  0
VERTEX
  5
239
  8
0
  6
CONTINUOUS
 62
     7
 10
192.1049392764
 20
115.9061510191
 30
0.0
  0
VERTEX
  5
23A
  8
0
  6
CONTINUOUS
 62
     7
 10
191.94110597
 20
116.0909995276
 30
0.0
  0
VERTEX
  5
23B
  8
0
  6
CONTINUOUS
 62
     7
 10
191.6484120029
 20
116.2347211354
 30
0.0
  0
VERTEX
  5
23C
  8
0
  6
CONTINUOUS
 62
     7
 10
191.2714180048
 20
116.3155184938
 30
0.0
  0
VERTEX
  5
23D
  8
0
  6
CONTINUOUS
 62
     7
 10
190.8673983911
 20
116.3211528809
 30
0.0
  0
VERTEX
  5
23E
  8
0
  6
CONTINUOUS
 62
     7
 10
190.4976917864
 20
116.2507712426
 30
0.0
  0
VERTEX
  5
23F
  8
0
  6
CONTINUOUS
 62
     7
 10
190.2184619856
 20
116.1150332999
 30
0.0
  0
VERTEX
  5
240
  8
0
  6
CONTINUOUS
 62
     7
 10
190.0722181385
 20
115.934520979
 30
0.0
  0
VERTEX
  5
241
  8
0
  6
CONTINUOUS
 62
     7
 10
190.0813438704
 20
115.7366535139
 30
0.0
  0
VERTEX
  5
242
  8
0
  6
CONTINUOUS
 62
     7
 10
190.2446198639
 20
115.5515495412
 30
0.0
  0
VERTEX
  5
243
  8
0
  6
CONTINUOUS
 62
     7
 10
190.5373099166
 20
115.4074447716
 30
0.0
  0
VERTEX
  5
244
  8
0
  6
CONTINUOUS
 62
     7
 10
190.9148556924
 20
115.326361005
 30
0.0
  0
VERTEX
  5
245
  8
0
  6
CONTINUOUS
 62
     7
 10
191.319659552
 20
115.3207047375
 30
0.0
  0
VERTEX
  5
246
  8
0
  6
CONTINUOUS
 62
     7
 10
191.6899234696
 20
115.3913418404
 30
0.0
  0
SEQEND
  5
54C
  8
0
  6
CONTINUOUS
 62
     7
  0
LINE
  5
8F
  8
0
  6
CONTINUOUS
 62
     7
 10
191.0578613568
 20
116.0164888183
 30
0.0
 11
190.7314234528
 21
115.9127295607
 31
0.0
  0
LINE
  5
90
  8
0
  6
CONTINUOUS
 62
     7
 10
190.7314234528
 20
115.9127295607
 30
0.0
 11
190.76675376
 21
115.7175780881
 31
0.0
  0
LINE
  5
91
  8
0
  6
CONTINUOUS
 62
     7
 10
190.76675376
 20
115.7175780881
 30
0.0
 11
191.1287828365
 21
115.6261953256
 31
0.0
  0
LINE
  5
92
  8
0
  6
CONTINUOUS
 62
     7
 10
191.1287828365
 20
115.6261953256
 30
0.0
 11
191.4553225715
 21
115.7300704578
 31
0.0
  0
LINE
  5
93
  8
0
  6
CONTINUOUS
 62
     7
 10
191.4553225715
 20
115.7300704578
 30
0.0
 11
191.4197314131
 21
115.9252124359
 31
0.0
  0
LINE
  5
94
  8
0
  6
CONTINUOUS
 62
     7
 10
191.4197314131
 20
115.9252124359
 30
0.0
 11
191.0578613568
 21
116.0164888183
 31
0.0
  0
POLYLINE
  5
95
  8
0
  6
CONTINUOUS
 62
     7
 66
     1
 10
0.0
 20
0.0
 30
0.0
  0
VERTEX
  5
247
  8
0
  6
CONTINUOUS
 62
     7
 10
191.2926057892
 20
112.337677696
 30
0.0
  0
VERTEX
  5
248
  8
0
  6
CONTINUOUS
 62
     7
 10
191.4385849756
 20
112.4092357524
 30
0.0
  0
VERTEX
  5
249
  8
0
  6
CONTINUOUS
 62
     7
 10
191.5148323091
 20
112.5043085732
 30
0.0
  0
VERTEX
  5
24A
  8
0
  6
CONTINUOUS
 62
     7
 10
191.5227887651
 20
112.5452706145
 30
0.0
  0
SEQEND
  5
54B
  8
0
  6
CONTINUOUS
 62
     7
  0
POLYLINE
  5
96
  8
0
  6
CONTINUOUS
 62
     7
 66
     1
 10
0.0
 20
0.0
 30
0.0
  0
VERTEX
  5
24B
  8
0
  6
CONTINUOUS
 62
     7
 10
190.4390586188
 20
112.5820178978
 30
0.0
  0
VERTEX
  5
24C
  8
0
  6
CONTINUOUS
 62
     7
 10
190.4519575739
 20
112.5192412959
 30
0.0
  0
VERTEX
  5
24D
  8
0
  6
CONTINUOUS
 62
     7
 10
190.5373553797
 20
112.4218998187
 30
0.0
  0
VERTEX
  5
24E
  8
0
  6
CONTINUOUS
 62
     7
 10
190.6903375306
 20
112.3461419671
 30
0.0
  0
VERTEX
  5
24F
  8
0
  6
CONTINUOUS
 62
     7
 10
190.8876141495
 20
112.3035240407
 30
0.0
  0
VERTEX
  5
250
  8
0
  6
CONTINUOUS
 62
     7
 10
191.0991189646
 20
112.3005513253
 30
0.0
  0
VERTEX
  5
251
  8
0
  6
CONTINUOUS
 62
     7
 10
191.2926057892
 20
112.337677696
 30
0.0
  0
SEQEND
  5
54A
  8
0
  6
CONTINUOUS
 62
     7
  0
LINE
  5
97
  8
0
  6
CONTINUOUS
 62
     7
 10
191.4124855725
 20
115.7164436355
 30
0.0
 11
191.4197314131
 21
115.9252124359
 31
0.0
  0
LINE
  5
98
  8
0
  6
CONTINUOUS
 62
     7
 10
191.0451332744
 20
115.6473100055
 30
0.0
 11
191.0578613568
 21
116.0164888183
 31
0.0
  0
POLYLINE
  5
99
  8
0
  6
CONTINUOUS
 62
     7
 66
     1
 10
0.0
 20
0.0
 30
0.0
  0
VERTEX
  5
252
  8
0
  6
CONTINUOUS
 62
     7
 10
244.5739317072
 20
142.7696287118
 30
0.0
  0
VERTEX
  5
253
  8
0
  6
CONTINUOUS
 62
     7
 10
244.8250238093
 20
142.8916303999
 30
0.0
  0
VERTEX
  5
254
  8
0
  6
CONTINUOUS
 62
     7
 10
244.9453419761
 20
143.053680769
 30
0.0
  0
VERTEX
  5
255
  8
0
  6
CONTINUOUS
 62
     7
 10
244.9166820391
 20
143.2310564693
 30
0.0
  0
VERTEX
  5
256
  8
0
  6
CONTINUOUS
 62
     7
 10
244.7435600277
 20
143.3967497525
 30
0.0
  0
VERTEX
  5
257
  8
0
  6
CONTINUOUS
 62
     7
 10
244.452435132
 20
143.5255823676
 30
0.0
  0
VERTEX
  5
258
  8
0
  6
CONTINUOUS
 62
     7
 10
244.0876213902
 20
143.5980111246
 30
0.0
  0
VERTEX
  5
259
  8
0
  6
CONTINUOUS
 62
     7
 10
243.7045455474
 20
143.6030619743
 30
0.0
  0
VERTEX
  5
25A
  8
0
  6
CONTINUOUS
 62
     7
 10
243.3613748685
 20
143.5399699854
 30
0.0
  0
VERTEX
  5
25B
  8
0
  6
CONTINUOUS
 62
     7
 10
243.1102508994
 20
143.4182934532
 30
0.0
  0
VERTEX
  5
25C
  8
0
  6
CONTINUOUS
 62
     7
 10
242.9894117096
 20
143.2564861334
 30
0.0
  0
VERTEX
  5
25D
  8
0
  6
CONTINUOUS
 62
     7
 10
243.0173666759
 20
143.0791290011
 30
0.0
  0
VERTEX
  5
25E
  8
0
  6
CONTINUOUS
 62
     7
 10
243.1900127308
 20
142.9132189276
 30
0.0
  0
VERTEX
  5
25F
  8
0
  6
CONTINUOUS
 62
     7
 10
243.4811694929
 20
142.7840611567
 30
0.0
  0
VERTEX
  5
260
  8
0
  6
CONTINUOUS
 62
     7
 10
243.8465042576
 20
142.7113893501
 30
0.0
  0
VERTEX
  5
261
  8
0
  6
CONTINUOUS
 62
     7
 10
244.2302850717
 20
142.7063199324
 30
0.0
  0
VERTEX
  5
262
  8
0
  6
CONTINUOUS
 62
     7
 10
244.5739317072
 20
142.7696287118
 30
0.0
  0
SEQEND
  5
549
  8
0
  6
CONTINUOUS
 62
     7
  0
LINE
  5
9A
  8
0
  6
CONTINUOUS
 62
     7
 10
243.9145891602
 20
143.3299595714
 30
0.0
 11
243.615649203
 21
143.2369531898
 31
0.0
  0
LINE
  5
9B
  8
0
  6
CONTINUOUS
 62
     7
 10
243.615649203
 20
143.2369531898
 30
0.0
 11
243.6681352927
 21
143.0620312601
 31
0.0
  0
LINE
  5
9C
  8
0
  6
CONTINUOUS
 62
     7
 10
243.6681352927
 20
143.0620312601
 30
0.0
 11
244.0197942902
 21
142.9801237352
 31
0.0
  0
LINE
  5
9D
  8
0
  6
CONTINUOUS
 62
     7
 10
244.0197942902
 20
142.9801237352
 30
0.0
 11
244.3188148247
 21
143.0732284495
 31
0.0
  0
LINE
  5
9E
  8
0
  6
CONTINUOUS
 62
     7
 10
244.3188148247
 20
143.0732284495
 30
0.0
 11
244.2660958001
 21
143.2481423221
 31
0.0
  0
LINE
  5
9F
  8
0
  6
CONTINUOUS
 62
     7
 10
244.2660958001
 20
143.2481423221
 30
0.0
 11
243.9145891602
 21
143.3299595714
 31
0.0
  0
LINE
  5
A0
  8
0
  6
CONTINUOUS
 62
     7
 10
244.2571503255
 20
142.539294118
 30
0.0
 11
244.3721088864
 21
142.5914645587
 31
0.0
  0
ARC
  5
A1
  8
0
  6
CONTINUOUS
 62
     7
 10
243.9837116519
 20
143.3857691158
 30
0.0
 40
0.8895440574368072
 50
236.3355376142
 51
287.9021267767
  0
POLYLINE
  5
A2
  8
0
  6
CONTINUOUS
 62
     7
 66
     1
 10
0.0
 20
0.0
 30
0.0
  0
VERTEX
  5
263
  8
0
  6
CONTINUOUS
 62
     7
 10
244.0746442354
 20
139.8145884952
 30
0.0
  0
VERTEX
  5
264
  8
0
  6
CONTINUOUS
 62
     7
 10
244.2059437033
 20
139.8787404318
 30
0.0
  0
VERTEX
  5
265
  8
0
  6
CONTINUOUS
 62
     7
 10
244.2689461927
 20
139.9639748614
 30
0.0
  0
VERTEX
  5
266
  8
0
  6
CONTINUOUS
 62
     7
 10
244.2725528359
 20
139.9855080807
 30
0.0
  0
SEQEND
  5
548
  8
0
  6
CONTINUOUS
 62
     7
  0
POLYLINE
  5
A3
  8
0
  6
CONTINUOUS
 62
     7
 66
     1
 10
0.0
 20
0.0
 30
0.0
  0
VERTEX
  5
267
  8
0
  6
CONTINUOUS
 62
     7
 10
243.2427833364
 20
140.0488578828
 30
0.0
  0
VERTEX
  5
268
  8
0
  6
CONTINUOUS
 62
     7
 10
243.2611173427
 20
139.9773624573
 30
0.0
  0
VERTEX
  5
269
  8
0
  6
CONTINUOUS
 62
     7
 10
243.3513966987
 20
139.8900938902
 30
0.0
  0
VERTEX
  5
26A
  8
0
  6
CONTINUOUS
 62
     7
 10
243.503576956
 20
139.8221766814
 30
0.0
  0
VERTEX
  5
26B
  8
0
  6
CONTINUOUS
 62
     7
 10
243.6944881961
 20
139.7839700098
 30
0.0
  0
VERTEX
  5
26C
  8
0
  6
CONTINUOUS
 62
     7
 10
243.8950350364
 20
139.7813050038
 30
0.0
  0
VERTEX
  5
26D
  8
0
  6
CONTINUOUS
 62
     7
 10
244.0746442354
 20
139.8145884952
 30
0.0
  0
SEQEND
  5
547
  8
0
  6
CONTINUOUS
 62
     7
  0
LINE
  5
A4
  8
0
  6
CONTINUOUS
 62
     7
 10
244.2530120324
 20
143.0527397223
 30
0.0
 11
244.2660958001
 21
143.2481423221
 31
0.0
  0
LINE
  5
A5
  8
0
  6
CONTINUOUS
 62
     7
 10
243.8932100822
 20
143.009607409
 30
0.0
 11
243.9145891602
 21
143.3299595714
 31
0.0
  0
POLYLINE
  5
A6
  8
0
  6
CONTINUOUS
 62
     7
 66
     1
 10
0.0
 20
0.0
 30
0.0
  0
VERTEX
  5
26E
  8
0
  6
CONTINUOUS
 62
     7
 10
163.6553097742
 20
176.4889446467
 30
0.0
  0
VERTEX
  5
26F
  8
0
  6
CONTINUOUS
 62
     7
 10
163.7874812938
 20
176.5442425406
 30
0.0
  0
VERTEX
  5
270
  8
0
  6
CONTINUOUS
 62
     7
 10
163.809157704
 20
176.559333297
 30
0.0
  0
SEQEND
  5
546
  8
0
  6
CONTINUOUS
 62
     7
  0
ARC
  5
A7
  8
0
  6
CONTINUOUS
 62
     7
 10
163.4030336747
 20
177.2854189087
 30
0.0
 40
0.8354726089822503
 50
238.7461293659
 51
287.5751324876
  0
POLYLINE
  5
A8
  8
0
  6
CONTINUOUS
 62
     7
 66
     1
 10
0.0
 20
0.0
 30
0.0
  0
VERTEX
  5
271
  8
0
  6
CONTINUOUS
 62
     7
 10
163.9023563195
 20
176.7232580523
 30
0.0
  0
VERTEX
  5
272
  8
0
  6
CONTINUOUS
 62
     7
 10
164.1547471322
 20
176.8288227147
 30
0.0
  0
VERTEX
  5
273
  8
0
  6
CONTINUOUS
 62
     7
 10
164.2916788744
 20
176.9690461019
 30
0.0
  0
VERTEX
  5
274
  8
0
  6
CONTINUOUS
 62
     7
 10
164.2923953037
 20
177.1225380896
 30
0.0
  0
VERTEX
  5
275
  8
0
  6
CONTINUOUS
 62
     7
 10
164.156919027
 20
177.2659277633
 30
0.0
  0
VERTEX
  5
276
  8
0
  6
CONTINUOUS
 62
     7
 10
163.9059709164
 20
177.3774232159
 30
0.0
  0
VERTEX
  5
277
  8
0
  6
CONTINUOUS
 62
     7
 10
163.5777595257
 20
177.4401069574
 30
0.0
  0
VERTEX
  5
278
  8
0
  6
CONTINUOUS
 62
     7
 10
163.222161954
 20
177.4444782829
 30
0.0
  0
VERTEX
  5
279
  8
0
  6
CONTINUOUS
 62
     7
 10
162.893183251
 20
177.3898749303
 30
0.0
  0
VERTEX
  5
27A
  8
0
  6
CONTINUOUS
 62
     7
 10
162.6408115089
 20
177.2845720147
 30
0.0
  0
VERTEX
  5
27B
  8
0
  6
CONTINUOUS
 62
     7
 10
162.5034637658
 20
177.1445442794
 30
0.0
  0
VERTEX
  5
27C
  8
0
  6
CONTINUOUS
 62
     7
 10
162.5021399519
 20
176.9910672387
 30
0.0
  0
VERTEX
  5
27D
  8
0
  6
CONTINUOUS
 62
     7
 10
162.6371732577
 20
176.8475030514
 30
0.0
  0
VERTEX
  5
27E
  8
0
  6
CONTINUOUS
 62
     7
 10
162.8881022974
 20
176.735745852
 30
0.0
  0
VERTEX
  5
27F
  8
0
  6
CONTINUOUS
 62
     7
 10
163.216729689
 20
176.6728664584
 30
0.0
  0
VERTEX
  5
280
  8
0
  6
CONTINUOUS
 62
     7
 10
163.5729346456
 20
176.6684801859
 30
0.0
  0
VERTEX
  5
281
  8
0
  6
CONTINUOUS
 62
     7
 10
163.9023563195
 20
176.7232580523
 30
0.0
  0
SEQEND
  5
545
  8
0
  6
CONTINUOUS
 62
     7
  0
LINE
  5
A9
  8
0
  6
CONTINUOUS
 62
     7
 10
163.3754472828
 20
177.2081272415
 30
0.0
 11
163.0830140478
 21
177.1276409485
 31
0.0
  0
LINE
  5
AA
  8
0
  6
CONTINUOUS
 62
     7
 10
163.0830140478
 20
177.1276409485
 30
0.0
 11
163.1048705293
 21
176.9762720206
 31
0.0
  0
LINE
  5
AB
  8
0
  6
CONTINUOUS
 62
     7
 10
163.1048705293
 20
176.9762720206
 30
0.0
 11
163.4193629807
 21
176.9053958462
 31
0.0
  0
LINE
  5
AC
  8
0
  6
CONTINUOUS
 62
     7
 10
163.4193629807
 20
176.9053958462
 30
0.0
 11
163.7118800502
 21
176.9859612959
 31
0.0
  0
LINE
  5
AD
  8
0
  6
CONTINUOUS
 62
     7
 10
163.7118800502
 20
176.9859612959
 30
0.0
 11
163.6898208419
 21
177.1373237379
 31
0.0
  0
LINE
  5
AE
  8
0
  6
CONTINUOUS
 62
     7
 10
163.6898208419
 20
177.1373237379
 30
0.0
 11
163.3754472828
 21
177.2081272415
 31
0.0
  0
POLYLINE
  5
AF
  8
0
  6
CONTINUOUS
 62
     7
 66
     1
 10
0.0
 20
0.0
 30
0.0
  0
VERTEX
  5
282
  8
0
  6
CONTINUOUS
 62
     7
 10
163.6125401454
 20
173.9005310183
 30
0.0
  0
VERTEX
  5
283
  8
0
  6
CONTINUOUS
 62
     7
 10
163.7445086126
 20
173.9560574802
 30
0.0
  0
VERTEX
  5
284
  8
0
  6
CONTINUOUS
 62
     7
 10
163.8161644948
 20
174.0298333815
 30
0.0
  0
VERTEX
  5
285
  8
0
  6
CONTINUOUS
 62
     7
 10
163.8255471736
 20
174.0691270404
 30
0.0
  0
SEQEND
  5
544
  8
0
  6
CONTINUOUS
 62
     7
  0
POLYLINE
  5
B0
  8
0
  6
CONTINUOUS
 62
     7
 66
     1
 10
0.0
 20
0.0
 30
0.0
  0
VERTEX
  5
286
  8
0
  6
CONTINUOUS
 62
     7
 10
162.871722353
 20
174.0826741532
 30
0.0
  0
VERTEX
  5
287
  8
0
  6
CONTINUOUS
 62
     7
 10
162.8805645892
 20
174.0414213728
 30
0.0
  0
VERTEX
  5
288
  8
0
  6
CONTINUOUS
 62
     7
 10
162.951215214
 20
173.965884528
 30
0.0
  0
VERTEX
  5
289
  8
0
  6
CONTINUOUS
 62
     7
 10
163.0824118917
 20
173.9070988908
 30
0.0
  0
VERTEX
  5
28A
  8
0
  6
CONTINUOUS
 62
     7
 10
163.2541822713
 20
173.8740296636
 30
0.0
  0
VERTEX
  5
28B
  8
0
  6
CONTINUOUS
 62
     7
 10
163.4403512083
 20
173.87172302
 30
0.0
  0
VERTEX
  5
28C
  8
0
  6
CONTINUOUS
 62
     7
 10
163.6125401454
 20
173.9005310183
 30
0.0
  0
SEQEND
  5
543
  8
0
  6
CONTINUOUS
 62
     7
  0
LINE
  5
B1
  8
0
  6
CONTINUOUS
 62
     7
 10
163.6872052221
 20
176.9791653211
 30
0.0
 11
163.6898208419
 21
177.1373237379
 31
0.0
  0
LINE
  5
B2
  8
0
  6
CONTINUOUS
 62
     7
 10
163.3706781999
 20
176.9163677821
 30
0.0
 11
163.3754472828
 21
177.2081272415
 31
0.0
  0
POLYLINE
  5
B3
  8
0
  6
CONTINUOUS
 62
     7
 66
     1
 10
0.0
 20
0.0
 30
0.0
  0
VERTEX
  5
28D
  8
0
  6
CONTINUOUS
 62
     7
 10
110.6952029843
 20
153.1267251889
 30
0.0
  0
VERTEX
  5
28E
  8
0
  6
CONTINUOUS
 62
     7
 10
110.9738159933
 20
153.2435870094
 30
0.0
  0
VERTEX
  5
28F
  8
0
  6
CONTINUOUS
 62
     7
 10
111.1352310261
 20
153.3988122113
 30
0.0
  0
VERTEX
  5
290
  8
0
  6
CONTINUOUS
 62
     7
 10
111.1549686377
 20
153.5687198036
 30
0.0
  0
VERTEX
  5
291
  8
0
  6
CONTINUOUS
 62
     7
 10
111.0301693055
 20
153.7274392314
 30
0.0
  0
VERTEX
  5
292
  8
0
  6
CONTINUOUS
 62
     7
 10
110.7799436047
 20
153.8508510091
 30
0.0
  0
VERTEX
  5
293
  8
0
  6
CONTINUOUS
 62
     7
 10
110.4423979071
 20
153.9202328221
 30
0.0
  0
VERTEX
  5
294
  8
0
  6
CONTINUOUS
 62
     7
 10
110.0688262546
 20
153.9250712083
 30
0.0
  0
VERTEX
  5
295
  8
0
  6
CONTINUOUS
 62
     7
 10
109.7159564619
 20
153.8646333313
 30
0.0
  0
VERTEX
  5
296
  8
0
  6
CONTINUOUS
 62
     7
 10
109.4373986526
 20
153.7480763496
 30
0.0
  0
VERTEX
  5
297
  8
0
  6
CONTINUOUS
 62
     7
 10
109.2755486113
 20
153.5930790104
 30
0.0
  0
VERTEX
  5
298
  8
0
  6
CONTINUOUS
 62
     7
 10
109.2551406051
 20
153.4231888259
 30
0.0
  0
VERTEX
  5
299
  8
0
  6
CONTINUOUS
 62
     7
 10
109.3794268644
 20
153.2642661538
 30
0.0
  0
VERTEX
  5
29A
  8
0
  6
CONTINUOUS
 62
     7
 10
109.6295973651
 20
153.1405495373
 30
0.0
  0
VERTEX
  5
29B
  8
0
  6
CONTINUOUS
 62
     7
 10
109.9675780712
 20
153.0709398614
 30
0.0
  0
VERTEX
  5
29C
  8
0
  6
CONTINUOUS
 62
     7
 10
110.3418201187
 20
153.0660840674
 30
0.0
  0
VERTEX
  5
29D
  8
0
  6
CONTINUOUS
 62
     7
 10
110.6952029843
 20
153.1267251889
 30
0.0
  0
SEQEND
  5
542
  8
0
  6
CONTINUOUS
 62
     7
  0
LINE
  5
B4
  8
0
  6
CONTINUOUS
 62
     7
 10
110.2008365469
 20
153.6634599015
 30
0.0
 11
109.8832026378
 21
153.5743682978
 31
0.0
  0
LINE
  5
B5
  8
0
  6
CONTINUOUS
 62
     7
 10
109.8832026378
 20
153.5743682978
 30
0.0
 11
109.8874549371
 21
153.4068110597
 31
0.0
  0
LINE
  5
B6
  8
0
  6
CONTINUOUS
 62
     7
 10
109.8874549371
 20
153.4068110597
 30
0.0
 11
110.2095664035
 21
153.3283529479
 31
0.0
  0
LINE
  5
B7
  8
0
  6
CONTINUOUS
 62
     7
 10
110.2095664035
 20
153.3283529479
 30
0.0
 11
110.527303422
 21
153.41753674
 31
0.0
  0
LINE
  5
B8
  8
0
  6
CONTINUOUS
 62
     7
 10
110.527303422
 20
153.41753674
 30
0.0
 11
110.5228258706
 21
153.5850864244
 31
0.0
  0
LINE
  5
B9
  8
0
  6
CONTINUOUS
 62
     7
 10
110.5228258706
 20
153.5850864244
 30
0.0
 11
110.2008365469
 21
153.6634599015
 31
0.0
  0
POLYLINE
  5
BA
  8
0
  6
CONTINUOUS
 62
     7
 66
     1
 10
0.0
 20
0.0
 30
0.0
  0
VERTEX
  5
29E
  8
0
  6
CONTINUOUS
 62
     7
 10
110.46833442
 20
152.8948580043
 30
0.0
  0
VERTEX
  5
29F
  8
0
  6
CONTINUOUS
 62
     7
 10
110.6142301254
 20
152.9560702688
 30
0.0
  0
VERTEX
  5
2A0
  8
0
  6
CONTINUOUS
 62
     7
 10
110.6461948125
 20
152.9783707291
 30
0.0
  0
SEQEND
  5
541
  8
0
  6
CONTINUOUS
 62
     7
  0
ARC
  5
BB
  8
0
  6
CONTINUOUS
 62
     7
 10
110.2083807642
 20
153.7422146909
 30
0.0
 40
0.8863347321969804
 50
241.1877204528
 51
287.055063238
  0
ARC
  5
BC
  8
0
  6
CONTINUOUS
 62
     7
 10
110.4988950247
 20
150.476678807
 30
0.0
 40
0.2661073118024913
 50
272.7193868515
 51
346.0214165791
  0
POLYLINE
  5
BD
  8
0
  6
CONTINUOUS
 62
     7
 66
     1
 10
0.0
 20
0.0
 30
0.0
  0
VERTEX
  5
2A1
  8
0
  6
CONTINUOUS
 62
     7
 10
109.7537000227
 20
150.3975095044
 30
0.0
  0
VERTEX
  5
2A2
  8
0
  6
CONTINUOUS
 62
     7
 10
109.7587563874
 20
150.3668032703
 30
0.0
  0
VERTEX
  5
2A3
  8
0
  6
CONTINUOUS
 62
     7
 10
109.8238072965
 20
150.2832025771
 30
0.0
  0
VERTEX
  5
2A4
  8
0
  6
CONTINUOUS
 62
     7
 10
109.954612642
 20
150.2181403483
 30
0.0
  0
VERTEX
  5
2A5
  8
0
  6
CONTINUOUS
 62
     7
 10
110.1312617915
 20
150.1815399079
 30
0.0
  0
VERTEX
  5
2A6
  8
0
  6
CONTINUOUS
 62
     7
 10
110.3268357278
 20
150.1789869449
 30
0.0
  0
VERTEX
  5
2A7
  8
0
  6
CONTINUOUS
 62
     7
 10
110.5115203363
 20
150.2108711643
 30
0.0
  0
SEQEND
  5
540
  8
0
  6
CONTINUOUS
 62
     7
  0
LINE
  5
BE
  8
0
  6
CONTINUOUS
 62
     7
 10
110.5255230148
 20
153.4170370076
 30
0.0
 11
110.5228258706
 21
153.5850864244
 31
0.0
  0
LINE
  5
BF
  8
0
  6
CONTINUOUS
 62
     7
 10
110.2062682234
 20
153.3291563001
 30
0.0
 11
110.2008365469
 21
153.6634599015
 31
0.0
  0
POLYLINE
  5
C0
  8
0
  6
CONTINUOUS
 62
     7
 66
     1
 10
0.0
 20
0.0
 30
0.0
  0
VERTEX
  5
2A8
  8
0
  6
CONTINUOUS
 62
     7
 10
40.6134424988
 20
185.4632870051
 30
0.0
  0
VERTEX
  5
2A9
  8
0
  6
CONTINUOUS
 62
     7
 10
40.7577268558
 20
185.5164141427
 30
0.0
  0
VERTEX
  5
2AA
  8
0
  6
CONTINUOUS
 62
     7
 10
40.8228568333
 20
185.5604424911
 30
0.0
  0
SEQEND
  5
53F
  8
0
  6
CONTINUOUS
 62
     7
  0
ARC
  5
C1
  8
0
  6
CONTINUOUS
 62
     7
 10
40.3726975169
 20
186.2778569998
 30
0.0
 40
0.8494012142028379
 50
243.1837714107
 51
286.4649683992
  0
POLYLINE
  5
C2
  8
0
  6
CONTINUOUS
 62
     7
 66
     1
 10
0.0
 20
0.0
 30
0.0
  0
VERTEX
  5
2AB
  8
0
  6
CONTINUOUS
 62
     7
 10
40.7843352141
 20
185.6981493476
 30
0.0
  0
VERTEX
  5
2AC
  8
0
  6
CONTINUOUS
 62
     7
 10
41.0598775642
 20
185.7995678457
 30
0.0
  0
VERTEX
  5
2AD
  8
0
  6
CONTINUOUS
 62
     7
 10
41.2314978906
 20
185.9342852622
 30
0.0
  0
VERTEX
  5
2AE
  8
0
  6
CONTINUOUS
 62
     7
 10
41.2731442967
 20
186.0817521772
 30
0.0
  0
VERTEX
  5
2AF
  8
0
  6
CONTINUOUS
 62
     7
 10
41.1786021783
 20
186.219515121
 30
0.0
  0
VERTEX
  5
2B0
  8
0
  6
CONTINUOUS
 62
     7
 10
40.9623666951
 20
186.3266365966
 30
0.0
  0
VERTEX
  5
2B1
  8
0
  6
CONTINUOUS
 62
     7
 10
40.6573763831
 20
186.386861709
 30
0.0
  0
VERTEX
  5
2B2
  8
0
  6
CONTINUOUS
 62
     7
 10
40.3099877442
 20
186.3910615915
 30
0.0
  0
VERTEX
  5
2B3
  8
0
  6
CONTINUOUS
 62
     7
 10
39.9729620937
 20
186.3385998941
 30
0.0
  0
VERTEX
  5
2B4
  8
0
  6
CONTINUOUS
 62
     7
 10
39.6975064929
 20
186.2374278838
 30
0.0
  0
VERTEX
  5
2B5
  8
0
  6
CONTINUOUS
 62
     7
 10
39.5255376432
 20
186.1028947133
 30
0.0
  0
VERTEX
  5
2B6
  8
0
  6
CONTINUOUS
 62
     7
 10
39.4833116014
 20
185.9554418739
 30
0.0
  0
VERTEX
  5
2B7
  8
0
  6
CONTINUOUS
 62
     7
 10
39.5773825141
 20
185.8175145901
 30
0.0
  0
VERTEX
  5
2B8
  8
0
  6
CONTINUOUS
 62
     7
 10
39.7935312476
 20
185.7101466268
 30
0.0
  0
VERTEX
  5
2B9
  8
0
  6
CONTINUOUS
 62
     7
 10
40.0988700828
 20
185.6497372682
 30
0.0
  0
VERTEX
  5
2BA
  8
0
  6
CONTINUOUS
 62
     7
 10
40.4468383578
 20
185.6455233101
 30
0.0
  0
VERTEX
  5
2BB
  8
0
  6
CONTINUOUS
 62
     7
 10
40.7843352141
 20
185.6981493476
 30
0.0
  0
SEQEND
  5
53E
  8
0
  6
CONTINUOUS
 62
     7
  0
LINE
  5
C3
  8
0
  6
CONTINUOUS
 62
     7
 10
40.3971979272
 20
186.1639825312
 30
0.0
 11
40.0890937324
 21
186.0866547659
 31
0.0
  0
LINE
  5
C4
  8
0
  6
CONTINUOUS
 62
     7
 10
40.0890937324
 20
186.0866547659
 30
0.0
 11
40.0701468779
 21
185.9412274949
 31
0.0
  0
LINE
  5
C5
  8
0
  6
CONTINUOUS
 62
     7
 10
40.0701468779
 20
185.9412274949
 30
0.0
 11
40.3595006841
 21
185.8731340736
 31
0.0
  0
LINE
  5
C6
  8
0
  6
CONTINUOUS
 62
     7
 10
40.3595006841
 20
185.8731340736
 30
0.0
 11
40.6677061163
 21
185.950536381
 31
0.0
  0
LINE
  5
C7
  8
0
  6
CONTINUOUS
 62
     7
 10
40.6677061163
 20
185.950536381
 30
0.0
 11
40.686456506
 21
186.0959575442
 31
0.0
  0
LINE
  5
C8
  8
0
  6
CONTINUOUS
 62
     7
 10
40.686456506
 20
186.0959575442
 30
0.0
 11
40.3971979272
 21
186.1639825312
 31
0.0
  0
ARC
  5
C9
  8
0
  6
CONTINUOUS
 62
     7
 10
40.7573684449
 20
183.1859221551
 30
0.0
 40
0.2737069705836452
 50
270.883263629
 51
342.5301278827
  0
POLYLINE
  5
CA
  8
0
  6
CONTINUOUS
 62
     7
 66
     1
 10
0.0
 20
0.0
 30
0.0
  0
VERTEX
  5
2BC
  8
0
  6
CONTINUOUS
 62
     7
 10
40.0801507425
 20
183.0577411293
 30
0.0
  0
VERTEX
  5
2BD
  8
0
  6
CONTINUOUS
 62
     7
 10
40.081364207
 20
183.0476162754
 30
0.0
  0
VERTEX
  5
2BE
  8
0
  6
CONTINUOUS
 62
     7
 10
40.1306384692
 20
182.9750396704
 30
0.0
  0
VERTEX
  5
2BF
  8
0
  6
CONTINUOUS
 62
     7
 10
40.2436904058
 20
182.918558134
 30
0.0
  0
VERTEX
  5
2C0
  8
0
  6
CONTINUOUS
 62
     7
 10
40.4033140428
 20
182.8867851808
 30
0.0
  0
VERTEX
  5
2C1
  8
0
  6
CONTINUOUS
 62
     7
 10
40.5851874629
 20
182.8845689583
 30
0.0
  0
VERTEX
  5
2C2
  8
0
  6
CONTINUOUS
 62
     7
 10
40.7615877057
 20
182.9122477069
 30
0.0
  0
SEQEND
  5
53D
  8
0
  6
CONTINUOUS
 62
     7
  0
LINE
  5
CB
  8
0
  6
CONTINUOUS
 62
     7
 10
40.0979641161
 20
185.9346812844
 30
0.0
 11
40.0890937324
 21
186.0866547659
 31
0.0
  0
LINE
  5
CC
  8
0
  6
CONTINUOUS
 62
     7
 10
40.4133325924
 20
185.8866533483
 30
0.0
 11
40.3971979272
 21
186.1639825312
 31
0.0
  0
LINE
  5
CD
  8
0
  6
CONTINUOUS
 62
     7
 10
36.9141658024
 20
163.911082765
 30
0.0
 11
190.5321980545
 21
88.5177320511
 31
0.0
  0
LINE
  5
CE
  8
0
  6
CONTINUOUS
 62
     7
 10
94.070344284
 20
187.0913525237
 30
0.0
 11
36.9141658024
 21
163.911082765
 31
0.0
  0
LINE
  5
CF
  8
0
  6
CONTINUOUS
 62
     7
 10
247.5957068502
 20
119.5688058988
 30
0.0
 11
94.070344284
 21
187.0913525237
 31
0.0
  0
LINE
  5
D0
  8
0
  6
CONTINUOUS
 62
     7
 10
190.5321980545
 20
88.5177320511
 30
0.0
 11
247.5957068502
 21
119.5688058988
 31
0.0
  0
POLYLINE
  5
D1
  8
0
  6
CONTINUOUS
 62
     7
 66
     1
 10
0.0
 20
0.0
 30
0.0
  0
VERTEX
  5
2C3
  8
0
  6
CONTINUOUS
 62
     7
 10
189.5278318043
 20
91.7041191014
 30
0.0
  0
VERTEX
  5
2C4
  8
0
  6
CONTINUOUS
 62
     7
 10
189.8318718085
 20
91.8119942301
 30
0.0
  0
VERTEX
  5
2C5
  8
0
  6
CONTINUOUS
 62
     7
 10
190.199278835
 20
91.8498646653
 30
0.0
  0
VERTEX
  5
2C6
  8
0
  6
CONTINUOUS
 62
     7
 10
190.5742532648
 20
91.8119942301
 30
0.0
  0
VERTEX
  5
2C7
  8
0
  6
CONTINUOUS
 62
     7
 10
190.899849256
 20
91.7041191014
 30
0.0
  0
VERTEX
  5
2C8
  8
0
  6
CONTINUOUS
 62
     7
 10
191.1265620008
 20
91.5425916191
 30
0.0
  0
VERTEX
  5
2C9
  8
0
  6
CONTINUOUS
 62
     7
 10
191.2198267347
 20
91.3519321069
 30
0.0
  0
VERTEX
  5
2CA
  8
0
  6
CONTINUOUS
 62
     7
 10
191.1653099261
 20
91.1611373153
 30
0.0
  0
VERTEX
  5
2CB
  8
0
  6
CONTINUOUS
 62
     7
 10
190.9711703054
 20
90.9992832395
 30
0.0
  0
VERTEX
  5
2CC
  8
0
  6
CONTINUOUS
 62
     7
 10
190.6668994273
 20
90.891081517
 30
0.0
  0
VERTEX
  5
2CD
  8
0
  6
CONTINUOUS
 62
     7
 10
190.2988697603
 20
90.8530758022
 30
0.0
  0
VERTEX
  5
2CE
  8
0
  6
CONTINUOUS
 62
     7
 10
189.9232456579
 20
90.891081517
 30
0.0
  0
VERTEX
  5
2CF
  8
0
  6
CONTINUOUS
 62
     7
 10
189.5973535317
 20
90.9992832395
 30
0.0
  0
VERTEX
  5
2D0
  8
0
  6
CONTINUOUS
 62
     7
 10
189.3708716612
 20
91.1611373153
 30
0.0
  0
VERTEX
  5
2D1
  8
0
  6
CONTINUOUS
 62
     7
 10
189.2782295675
 20
91.3519321069
 30
0.0
  0
VERTEX
  5
2D2
  8
0
  6
CONTINUOUS
 62
     7
 10
189.3333960482
 20
91.5425916191
 30
0.0
  0
VERTEX
  5
2D3
  8
0
  6
CONTINUOUS
 62
     7
 10
189.5278318043
 20
91.7041191014
 30
0.0
  0
SEQEND
  5
53C
  8
0
  6
CONTINUOUS
 62
     7
  0
POLYLINE
  5
D2
  8
0
  6
CONTINUOUS
 62
     7
 66
     1
 10
0.0
 20
0.0
 30
0.0
  0
VERTEX
  5
2D4
  8
0
  6
CONTINUOUS
 62
     7
 10
241.676434621
 20
119.8850169097
 30
0.0
  0
VERTEX
  5
2D5
  8
0
  6
CONTINUOUS
 62
     7
 10
241.9546171671
 20
119.9818769162
 30
0.0
  0
VERTEX
  5
2D6
  8
0
  6
CONTINUOUS
 62
     7
 10
242.2992834872
 20
120.0158808873
 30
0.0
  0
VERTEX
  5
2D7
  8
0
  6
CONTINUOUS
 62
     7
 10
242.6580797204
 20
119.9818769162
 30
0.0
  0
VERTEX
  5
2D8
  8
0
  6
CONTINUOUS
 62
     7
 10
242.9765111974
 20
119.8850169097
 30
0.0
  0
VERTEX
  5
2D9
  8
0
  6
CONTINUOUS
 62
     7
 10
243.2061634301
 20
119.7399867998
 30
0.0
  0
VERTEX
  5
2DA
  8
0
  6
CONTINUOUS
 62
     7
 10
243.3120353819
 20
119.5688058988
 30
0.0
  0
VERTEX
  5
2DB
  8
0
  6
CONTINUOUS
 62
     7
 10
243.2778905174
 20
119.3975099138
 30
0.0
  0
VERTEX
  5
2DC
  8
0
  6
CONTINUOUS
 62
     7
 10
243.1087979885
 20
119.2522019666
 30
0.0
  0
VERTEX
  5
2DD
  8
0
  6
CONTINUOUS
 62
     7
 10
242.8304365891
 20
119.1550641225
 30
0.0
  0
VERTEX
  5
2DE
  8
0
  6
CONTINUOUS
 62
     7
 10
242.4852230265
 20
119.1209450672
 30
0.0
  0
VERTEX
  5
2DF
  8
0
  6
CONTINUOUS
 62
     7
 10
242.125831729
 20
119.1550641225
 30
0.0
  0
VERTEX
  5
2E0
  8
0
  6
CONTINUOUS
 62
     7
 10
241.8071059468
 20
119.2522019666
 30
0.0
  0
VERTEX
  5
2E1
  8
0
  6
CONTINUOUS
 62
     7
 10
241.5776325679
 20
119.3975099138
 30
0.0
  0
VERTEX
  5
2E2
  8
0
  6
CONTINUOUS
 62
     7
 10
241.4723078582
 20
119.5688058988
 30
0.0
  0
VERTEX
  5
2E3
  8
0
  6
CONTINUOUS
 62
     7
 10
241.5070477867
 20
119.7399867998
 30
0.0
  0
VERTEX
  5
2E4
  8
0
  6
CONTINUOUS
 62
     7
 10
241.676434621
 20
119.8850169097
 30
0.0
  0
SEQEND
  5
53B
  8
0
  6
CONTINUOUS
 62
     7
  0
POLYLINE
  5
D3
  8
0
  6
CONTINUOUS
 62
     7
 66
     1
 10
0.0
 20
0.0
 30
0.0
  0
VERTEX
  5
2E5
  8
0
  6
CONTINUOUS
 62
     7
 10
162.4098272181
 20
154.9048273784
 30
0.0
  0
VERTEX
  5
2E6
  8
0
  6
CONTINUOUS
 62
     7
 10
162.68292351
 20
154.98882539
 30
0.0
  0
VERTEX
  5
2E7
  8
0
  6
CONTINUOUS
 62
     7
 10
163.0088246433
 20
155.0183145107
 30
0.0
  0
VERTEX
  5
2E8
  8
0
  6
CONTINUOUS
 62
     7
 10
163.3380212177
 20
154.98882539
 30
0.0
  0
VERTEX
  5
2E9
  8
0
  6
CONTINUOUS
 62
     7
 10
163.6205043781
 20
154.9048273784
 30
0.0
  0
VERTEX
  5
2EA
  8
0
  6
CONTINUOUS
 62
     7
 10
163.8133158402
 20
154.7790598568
 30
0.0
  0
VERTEX
  5
2EB
  8
0
  6
CONTINUOUS
 62
     7
 10
163.8870602223
 20
154.630621174
 30
0.0
  0
VERTEX
  5
2EC
  8
0
  6
CONTINUOUS
 62
     7
 10
163.8304044766
 20
154.4820895651
 30
0.0
  0
VERTEX
  5
2ED
  8
0
  6
CONTINUOUS
 62
     7
 10
163.6518653502
 20
154.3560977001
 30
0.0
  0
VERTEX
  5
2EE
  8
0
  6
CONTINUOUS
 62
     7
 10
163.3785764498
 20
154.271875345
 30
0.0
  0
VERTEX
  5
2EF
  8
0
  6
CONTINUOUS
 62
     7
 10
163.0521852474
 20
154.2422932981
 30
0.0
  0
VERTEX
  5
2F0
  8
0
  6
CONTINUOUS
 62
     7
 10
162.7224882194
 20
154.271875345
 30
0.0
  0
VERTEX
  5
2F1
  8
0
  6
CONTINUOUS
 62
     7
 10
162.4397873798
 20
154.3560977001
 30
0.0
  0
VERTEX
  5
2F2
  8
0
  6
CONTINUOUS
 62
     7
 10
162.2471685265
 20
154.4820895651
 30
0.0
  0
VERTEX
  5
2F3
  8
0
  6
CONTINUOUS
 62
     7
 10
162.1739142132
 20
154.630621174
 30
0.0
  0
VERTEX
  5
2F4
  8
0
  6
CONTINUOUS
 62
     7
 10
162.2310704123
 20
154.7790598568
 30
0.0
  0
VERTEX
  5
2F5
  8
0
  6
CONTINUOUS
 62
     7
 10
162.4098272181
 20
154.9048273784
 30
0.0
  0
SEQEND
  5
53A
  8
0
  6
CONTINUOUS
 62
     7
  0
POLYLINE
  5
D4
  8
0
  6
CONTINUOUS
 62
     7
 66
     1
 10
0.0
 20
0.0
 30
0.0
  0
VERTEX
  5
2F6
  8
0
  6
CONTINUOUS
 62
     7
 10
109.962115568
 20
130.5590170585
 30
0.0
  0
VERTEX
  5
2F7
  8
0
  6
CONTINUOUS
 62
     7
 10
110.2589949469
 20
130.6518597273
 30
0.0
  0
VERTEX
  5
2F8
  8
0
  6
CONTINUOUS
 62
     7
 10
110.6050497822
 20
130.684453535
 30
0.0
  0
VERTEX
  5
2F9
  8
0
  6
CONTINUOUS
 62
     7
 10
110.947716082
 20
130.6518597273
 30
0.0
  0
VERTEX
  5
2FA
  8
0
  6
CONTINUOUS
 62
     7
 10
111.2349432996
 20
130.5590170585
 30
0.0
  0
VERTEX
  5
2FB
  8
0
  6
CONTINUOUS
 62
     7
 10
111.4230499563
 20
130.4200035597
 30
0.0
  0
VERTEX
  5
2FC
  8
0
  6
CONTINUOUS
 62
     7
 10
111.4833466226
 20
130.2559262773
 30
0.0
  0
VERTEX
  5
2FD
  8
0
  6
CONTINUOUS
 62
     7
 10
111.4065338963
 20
130.0917410008
 30
0.0
  0
VERTEX
  5
2FE
  8
0
  6
CONTINUOUS
 62
     7
 10
111.2041882486
 20
129.9524667811
 30
0.0
  0
VERTEX
  5
2FF
  8
0
  6
CONTINUOUS
 62
     7
 10
110.9070685569
 20
129.8593633913
 30
0.0
  0
VERTEX
  5
300
  8
0
  6
CONTINUOUS
 62
     7
 10
110.56046066
 20
129.8266615894
 30
0.0
  0
VERTEX
  5
301
  8
0
  6
CONTINUOUS
 62
     7
 10
110.217252526
 20
129.8593633913
 30
0.0
  0
VERTEX
  5
302
  8
0
  6
CONTINUOUS
 62
     7
 10
109.9298121009
 20
129.9524667811
 30
0.0
  0
VERTEX
  5
303
  8
0
  6
CONTINUOUS
 62
     7
 10
109.7419457572
 20
130.0917410008
 30
0.0
  0
VERTEX
  5
304
  8
0
  6
CONTINUOUS
 62
     7
 10
109.6822021521
 20
130.2559262773
 30
0.0
  0
VERTEX
  5
305
  8
0
  6
CONTINUOUS
 62
     7
 10
109.7595567124
 20
130.4200035597
 30
0.0
  0
VERTEX
  5
306
  8
0
  6
CONTINUOUS
 62
     7
 10
109.962115568
 20
130.5590170585
 30
0.0
  0
SEQEND
  5
539
  8
0
  6
CONTINUOUS
 62
     7
  0
POLYLINE
  5
D5
  8
0
  6
CONTINUOUS
 62
     7
 66
     1
 10
0.0
 20
0.0
 30
0.0
  0
VERTEX
  5
307
  8
0
  6
CONTINUOUS
 62
     7
 10
41.125141393
 20
164.1746713098
 30
0.0
  0
VERTEX
  5
308
  8
0
  6
CONTINUOUS
 62
     7
 10
41.4139624148
 20
164.2554179893
 30
0.0
  0
VERTEX
  5
309
  8
0
  6
CONTINUOUS
 62
     7
 10
41.7408893967
 20
164.2837657999
 30
0.0
  0
VERTEX
  5
30A
  8
0
  6
CONTINUOUS
 62
     7
 10
42.0562575978
 20
164.2554179893
 30
0.0
  0
VERTEX
  5
30B
  8
0
  6
CONTINUOUS
 62
     7
 10
42.3121542719
 20
164.1746713098
 30
0.0
  0
VERTEX
  5
30C
  8
0
  6
CONTINUOUS
 62
     7
 10
42.469654919
 20
164.0537729483
 30
0.0
  0
VERTEX
  5
30D
  8
0
  6
CONTINUOUS
 62
     7
 10
42.5047295637
 20
163.911082765
 30
0.0
  0
VERTEX
  5
30E
  8
0
  6
CONTINUOUS
 62
     7
 10
42.411931416
 20
163.7683050018
 30
0.0
  0
VERTEX
  5
30F
  8
0
  6
CONTINUOUS
 62
     7
 10
42.2052887199
 20
163.6471952039
 30
0.0
  0
VERTEX
  5
310
  8
0
  6
CONTINUOUS
 62
     7
 10
41.9162273935
 20
163.5662370878
 30
0.0
  0
VERTEX
  5
311
  8
0
  6
CONTINUOUS
 62
     7
 10
41.5888064776
 20
163.5378016973
 30
0.0
  0
VERTEX
  5
312
  8
0
  6
CONTINUOUS
 62
     7
 10
41.272980053
 20
163.5662370878
 30
0.0
  0
VERTEX
  5
313
  8
0
  6
CONTINUOUS
 62
     7
 10
41.0169292873
 20
163.6471952039
 30
0.0
  0
VERTEX
  5
314
  8
0
  6
CONTINUOUS
 62
     7
 10
40.859668945
 20
163.7683050018
 30
0.0
  0
VERTEX
  5
315
  8
0
  6
CONTINUOUS
 62
     7
 10
40.8250882341
 20
163.911082765
 30
0.0
  0
VERTEX
  5
316
  8
0
  6
CONTINUOUS
 62
     7
 10
40.9183446051
 20
164.0537729483
 30
0.0
  0
VERTEX
  5
317
  8
0
  6
CONTINUOUS
 62
     7
 10
41.125141393
 20
164.1746713098
 30
0.0
  0
SEQEND
  5
538
  8
0
  6
CONTINUOUS
 62
     7
  0
POLYLINE
  5
D6
  8
0
  6
CONTINUOUS
 62
     7
 66
     1
 10
0.0
 20
0.0
 30
0.0
  0
VERTEX
  5
318
  8
0
  6
CONTINUOUS
 62
     7
 10
93.3433074464
 20
185.4182618672
 30
0.0
  0
VERTEX
  5
319
  8
0
  6
CONTINUOUS
 62
     7
 10
93.6102814834
 20
185.4917995137
 30
0.0
  0
VERTEX
  5
31A
  8
0
  6
CONTINUOUS
 62
     7
 10
93.9192381148
 20
185.5176167193
 30
0.0
  0
VERTEX
  5
31B
  8
0
  6
CONTINUOUS
 62
     7
 10
94.2232369394
 20
185.4917995137
 30
0.0
  0
VERTEX
  5
31C
  8
0
  6
CONTINUOUS
 62
     7
 10
94.4760891752
 20
185.4182618672
 30
0.0
  0
VERTEX
  5
31D
  8
0
  6
CONTINUOUS
 62
     7
 10
94.6393354986
 20
185.3081594472
 30
0.0
  0
VERTEX
  5
31E
  8
0
  6
CONTINUOUS
 62
     7
 10
94.688080523
 20
185.1782145295
 30
0.0
  0
VERTEX
  5
31F
  8
0
  6
CONTINUOUS
 62
     7
 10
94.6148077683
 20
185.0481935017
 30
0.0
  0
VERTEX
  5
320
  8
0
  6
CONTINUOUS
 62
     7
 10
94.4305798668
 20
184.9379073354
 30
0.0
  0
VERTEX
  5
321
  8
0
  6
CONTINUOUS
 62
     7
 10
94.1634086053
 20
184.8641859425
 30
0.0
  0
VERTEX
  5
322
  8
0
  6
CONTINUOUS
 62
     7
 10
93.8540111174
 20
184.8382926268
 30
0.0
  0
VERTEX
  5
323
  8
0
  6
CONTINUOUS
 62
     7
 10
93.549586052
 20
184.8641859425
 30
0.0
  0
VERTEX
  5
324
  8
0
  6
CONTINUOUS
 62
     7
 10
93.2965718774
 20
184.9379073354
 30
0.0
  0
VERTEX
  5
325
  8
0
  6
CONTINUOUS
 62
     7
 10
93.1335227787
 20
185.0481935017
 30
0.0
  0
VERTEX
  5
326
  8
0
  6
CONTINUOUS
 62
     7
 10
93.0852186107
 20
185.1782145295
 30
0.0
  0
VERTEX
  5
327
  8
0
  6
CONTINUOUS
 62
     7
 10
93.158917606
 20
185.3081594472
 30
0.0
  0
VERTEX
  5
328
  8
0
  6
CONTINUOUS
 62
     7
 10
93.3433074464
 20
185.4182618672
 30
0.0
  0
SEQEND
  5
537
  8
0
  6
CONTINUOUS
 62
     7
  0
LINE
  5
D7
  8
0
  6
CONTINUOUS
 62
     7
 10
36.9141658024
 20
163.911082765
 30
0.0
 11
36.9602459151
 21
163.157031558
 31
0.0
  0
LINE
  5
D8
  8
0
  6
CONTINUOUS
 62
     7
 10
190.5321980545
 20
88.5177320511
 30
0.0
 11
190.5031604589
 21
87.6820810852
 31
0.0
  0
LINE
  5
D9
  8
0
  6
CONTINUOUS
 62
     7
 10
36.9602459151
 20
163.157031558
 30
0.0
 11
190.5031604589
 21
87.6820810852
 31
0.0
  0
LINE
  5
DA
  8
0
  6
CONTINUOUS
 62
     7
 10
247.5957068502
 20
119.5688058988
 30
0.0
 11
247.5394212626
 21
118.7653915448
 31
0.0
  0
LINE
  5
DB
  8
0
  6
CONTINUOUS
 62
     7
 10
190.5031604589
 20
87.6820810852
 30
0.0
 11
247.5394212626
 21
118.7653915448
 31
0.0
  0
POLYLINE
  5
DC
  8
0
  6
CONTINUOUS
 62
     7
 66
     1
 10
0.0
 20
0.0
 30
0.0
  0
VERTEX
  5
329
  8
0
  6
CONTINUOUS
 62
     7
 10
189.8740421607
 20
91.1116671271
 30
0.0
  0
VERTEX
  5
32A
  8
0
  6
CONTINUOUS
 62
     7
 10
189.7768850689
 20
91.0308216469
 30
0.0
  0
VERTEX
  5
32B
  8
0
  6
CONTINUOUS
 62
     7
 10
189.7488361178
 20
90.952435622
 30
0.0
  0
SEQEND
  5
536
  8
0
  6
CONTINUOUS
 62
     7
  0
POLYLINE
  5
DD
  8
0
  6
CONTINUOUS
 62
     7
 66
     1
 10
0.0
 20
0.0
 30
0.0
  0
VERTEX
  5
32C
  8
0
  6
CONTINUOUS
 62
     7
 10
190.7204987869
 20
90.9181072385
 30
0.0
  0
VERTEX
  5
32D
  8
0
  6
CONTINUOUS
 62
     7
 10
190.7199267678
 20
90.9354266636
 30
0.0
  0
VERTEX
  5
32E
  8
0
  6
CONTINUOUS
 62
     7
 10
190.6733872084
 20
91.0308216469
 30
0.0
  0
VERTEX
  5
32F
  8
0
  6
CONTINUOUS
 62
     7
 10
190.5600921077
 20
91.1116671271
 30
0.0
  0
VERTEX
  5
330
  8
0
  6
CONTINUOUS
 62
     7
 10
190.3973020929
 20
91.165672813
 30
0.0
  0
VERTEX
  5
331
  8
0
  6
CONTINUOUS
 62
     7
 10
190.2097844242
 20
91.1846345161
 30
0.0
  0
VERTEX
  5
332
  8
0
  6
CONTINUOUS
 62
     7
 10
190.0260518048
 20
91.165672813
 30
0.0
  0
VERTEX
  5
333
  8
0
  6
CONTINUOUS
 62
     7
 10
189.8740421607
 20
91.1116671271
 30
0.0
  0
SEQEND
  5
535
  8
0
  6
CONTINUOUS
 62
     7
  0
POLYLINE
  5
DE
  8
0
  6
CONTINUOUS
 62
     7
 66
     1
 10
0.0
 20
0.0
 30
0.0
  0
VERTEX
  5
334
  8
0
  6
CONTINUOUS
 62
     7
 10
242.0074598309
 20
119.3252361016
 30
0.0
  0
VERTEX
  5
335
  8
0
  6
CONTINUOUS
 62
     7
 10
241.92282078
 20
119.2526475413
 30
0.0
  0
VERTEX
  5
336
  8
0
  6
CONTINUOUS
 62
     7
 10
241.9034395606
 20
119.1965006355
 30
0.0
  0
SEQEND
  5
534
  8
0
  6
CONTINUOUS
 62
     7
  0
POLYLINE
  5
DF
  8
0
  6
CONTINUOUS
 62
     7
 66
     1
 10
0.0
 20
0.0
 30
0.0
  0
VERTEX
  5
337
  8
0
  6
CONTINUOUS
 62
     7
 10
242.8272778415
 20
119.1372345724
 30
0.0
  0
VERTEX
  5
338
  8
0
  6
CONTINUOUS
 62
     7
 10
242.8251557057
 20
119.1669969206
 30
0.0
  0
VERTEX
  5
339
  8
0
  6
CONTINUOUS
 62
     7
 10
242.7723060219
 20
119.2526475413
 30
0.0
  0
VERTEX
  5
33A
  8
0
  6
CONTINUOUS
 62
     7
 10
242.6575351306
 20
119.3252361016
 30
0.0
  0
VERTEX
  5
33B
  8
0
  6
CONTINUOUS
 62
     7
 10
242.4983255227
 20
119.3737267098
 30
0.0
  0
VERTEX
  5
33C
  8
0
  6
CONTINUOUS
 62
     7
 10
242.3188994746
 20
119.3907521589
 30
0.0
  0
VERTEX
  5
33D
  8
0
  6
CONTINUOUS
 62
     7
 10
242.1465407676
 20
119.3737267098
 30
0.0
  0
VERTEX
  5
33E
  8
0
  6
CONTINUOUS
 62
     7
 10
242.0074598309
 20
119.3252361016
 30
0.0
  0
SEQEND
  5
533
  8
0
  6
CONTINUOUS
 62
     7
  0
POLYLINE
  5
E0
  8
0
  6
CONTINUOUS
 62
     7
 66
     1
 10
0.0
 20
0.0
 30
0.0
  0
VERTEX
  5
33F
  8
0
  6
CONTINUOUS
 62
     7
 10
110.278860008
 20
130.0115645948
 30
0.0
  0
VERTEX
  5
340
  8
0
  6
CONTINUOUS
 62
     7
 10
110.1776332034
 20
129.9419873479
 30
0.0
  0
VERTEX
  5
341
  8
0
  6
CONTINUOUS
 62
     7
 10
110.1390342732
 20
129.85989045
 30
0.0
  0
VERTEX
  5
342
  8
0
  6
CONTINUOUS
 62
     7
 10
110.1389055377
 20
129.8528011511
 30
0.0
  0
SEQEND
  5
532
  8
0
  6
CONTINUOUS
 62
     7
  0
POLYLINE
  5
E1
  8
0
  6
CONTINUOUS
 62
     7
 66
     1
 10
0.0
 20
0.0
 30
0.0
  0
VERTEX
  5
343
  8
0
  6
CONTINUOUS
 62
     7
 10
111.0340445433
 20
129.898378984
 30
0.0
  0
VERTEX
  5
344
  8
0
  6
CONTINUOUS
 62
     7
 10
111.0093102568
 20
129.9419873479
 30
0.0
  0
VERTEX
  5
345
  8
0
  6
CONTINUOUS
 62
     7
 10
110.91530935
 20
130.0115645948
 30
0.0
  0
VERTEX
  5
346
  8
0
  6
CONTINUOUS
 62
     7
 10
110.771704127
 20
130.058043817
 30
0.0
  0
VERTEX
  5
347
  8
0
  6
CONTINUOUS
 62
     7
 10
110.6003456269
 20
130.0743630959
 30
0.0
  0
VERTEX
  5
348
  8
0
  6
CONTINUOUS
 62
     7
 10
110.4272922991
 20
130.058043817
 30
0.0
  0
VERTEX
  5
349
  8
0
  6
CONTINUOUS
 62
     7
 10
110.278860008
 20
130.0115645948
 30
0.0
  0
SEQEND
  5
531
  8
0
  6
CONTINUOUS
 62
     7
  0
POLYLINE
  5
E2
  8
0
  6
CONTINUOUS
 62
     7
 66
     1
 10
0.0
 20
0.0
 30
0.0
  0
VERTEX
  5
34A
  8
0
  6
CONTINUOUS
 62
     7
 10
162.7138854885
 20
154.385398608
 30
0.0
  0
VERTEX
  5
34B
  8
0
  6
CONTINUOUS
 62
     7
 10
162.6245545101
 20
154.3224509812
 30
0.0
  0
VERTEX
  5
34C
  8
0
  6
CONTINUOUS
 62
     7
 10
162.6090584653
 20
154.3005667468
 30
0.0
  0
SEQEND
  5
530
  8
0
  6
CONTINUOUS
 62
     7
  0
ARC
  5
E3
  8
0
  6
CONTINUOUS
 62
     7
 10
163.0109221959
 20
153.8304606548
 30
0.0
 40
0.6294338228957395
 50
47.1680412562
 51
118.1584114795
  0
POLYLINE
  5
E4
  8
0
  6
CONTINUOUS
 62
     7
 66
     1
 10
0.0
 20
0.0
 30
0.0
  0
VERTEX
  5
34D
  8
0
  6
CONTINUOUS
 62
     7
 10
41.4169510841
 20
163.6658778852
 30
0.0
  0
VERTEX
  5
34E
  8
0
  6
CONTINUOUS
 62
     7
 10
41.3135986888
 20
163.6053672797
 30
0.0
  0
VERTEX
  5
34F
  8
0
  6
CONTINUOUS
 62
     7
 10
41.2823719464
 20
163.5700905371
 30
0.0
  0
SEQEND
  5
52F
  8
0
  6
CONTINUOUS
 62
     7
  0
ARC
  5
E5
  8
0
  6
CONTINUOUS
 62
     7
 10
41.7018679793
 20
163.0393253996
 30
0.0
 40
0.688291838053478
 50
56.2347238375
 51
114.4530721767
  0
POLYLINE
  5
E6
  8
0
  6
CONTINUOUS
 62
     7
 66
     1
 10
0.0
 20
0.0
 30
0.0
  0
VERTEX
  5
350
  8
0
  6
CONTINUOUS
 62
     7
 10
93.6243751061
 20
184.9337687829
 30
0.0
  0
VERTEX
  5
351
  8
0
  6
CONTINUOUS
 62
     7
 10
93.532221916
 20
184.8786615677
 30
0.0
  0
VERTEX
  5
352
  8
0
  6
CONTINUOUS
 62
     7
 10
93.525465834
 20
184.8720111063
 30
0.0
  0
SEQEND
  5
52E
  8
0
  6
CONTINUOUS
 62
     7
  0
ARC
  5
E7
  8
0
  6
CONTINUOUS
 62
     7
 10
93.8996073862
 20
184.2759542036
 30
0.0
 40
0.7130728074775952
 50
59.6869870032
 51
112.7046314811
  0
POLYLINE
  5
E8
  8
0
  6
CONTINUOUS
 62
     7
 66
     1
 10
0.0
 20
0.0
 30
0.0
  0
VERTEX
  5
353
  8
0
  6
CONTINUOUS
 62
     7
 10
186.2219415047
 20
38.5066184219
 30
0.0
  0
VERTEX
  5
354
  8
0
  6
CONTINUOUS
 62
     7
 10
186.1533868394
 20
38.2988033527
 30
0.0
  0
VERTEX
  5
355
  8
0
  6
CONTINUOUS
 62
     7
 10
185.9189488995
 20
38.0858022596
 30
0.0
  0
VERTEX
  5
356
  8
0
  6
CONTINUOUS
 62
     7
 10
185.5531192649
 20
37.9433938698
 30
0.0
  0
VERTEX
  5
357
  8
0
  6
CONTINUOUS
 62
     7
 10
185.1116648996
 20
37.8933704128
 30
0.0
  0
VERTEX
  5
358
  8
0
  6
CONTINUOUS
 62
     7
 10
184.6619877306
 20
37.9433938698
 30
0.0
  0
VERTEX
  5
359
  8
0
  6
CONTINUOUS
 62
     7
 10
184.2727491536
 20
38.0858022596
 30
0.0
  0
VERTEX
  5
35A
  8
0
  6
CONTINUOUS
 62
     7
 10
184.0032983163
 20
38.2988033527
 30
0.0
  0
VERTEX
  5
35B
  8
0
  6
CONTINUOUS
 62
     7
 10
183.8945834245
 20
38.5498580122
 30
0.0
  0
VERTEX
  5
35C
  8
0
  6
CONTINUOUS
 62
     7
 10
183.8935768659
 20
38.5910721322
 30
0.0
  0
SEQEND
  5
52D
  8
0
  6
CONTINUOUS
 62
     7
  0
LINE
  5
E9
  8
0
  6
CONTINUOUS
 62
     7
 10
187.6852463033
 20
6.5874643656
 30
0.0
 11
41.4651388365
 21
89.4393312044
 31
0.0
  0
LINE
  5
EA
  8
0
  6
CONTINUOUS
 62
     7
 10
41.4651388365
 20
89.4393312044
 30
0.0
 11
73.4839903634
 21
104.56350711
 31
0.0
  0
LINE
  5
EB
  8
0
  6
CONTINUOUS
 62
     7
 10
75.8566877433
 20
105.6842560074
 30
0.0
 11
85.9420158339
 21
110.4480832165
 31
0.0
  0
LINE
  5
EC
  8
0
  6
CONTINUOUS
 62
     7
 10
88.3047237744
 20
111.56411358
 30
0.0
 11
95.9173369145
 21
115.1599483692
 31
0.0
  0
LINE
  5
ED
  8
0
  6
CONTINUOUS
 62
     7
 10
95.9173369145
 20
115.1599483692
 30
0.0
 11
208.7825095953
 21
57.5489435845
 31
0.0
  0
LINE
  5
EE
  8
0
  6
CONTINUOUS
 62
     7
 10
210.8304751022
 20
56.503578147
 30
0.0
 11
242.0606778437
 21
40.5624041176
 31
0.0
  0
LINE
  5
EF
  8
0
  6
CONTINUOUS
 62
     7
 10
242.0606778437
 20
40.5624041176
 30
0.0
 11
187.6852463033
 21
6.5874643656
 31
0.0
  0
ARC
  5
F0
  8
0
  6
CONTINUOUS
 62
     7
 10
182.5697598927
 20
13.6012198029
 30
0.0
 40
1.193397580802708
 50
60.6820692372
 51
61.3433825713
  0
LINE
  5
F1
  8
0
  6
CONTINUOUS
 62
     7
 10
53.8829658315
 20
87.2416275527
 30
0.0
 11
183.1420646964
 21
14.6484375441
 31
0.0
  0
POLYLINE
  5
F2
  8
0
  6
CONTINUOUS
 62
     7
 66
     1
 10
0.0
 20
0.0
 30
0.0
  0
VERTEX
  5
35D
  8
0
  6
CONTINUOUS
 62
     7
 10
64.6555873423
 20
92.2704808166
 30
0.0
  0
VERTEX
  5
35E
  8
0
  6
CONTINUOUS
 62
     7
 10
64.3015972713
 20
92.4519255416
 30
0.0
  0
VERTEX
  5
35F
  8
0
  6
CONTINUOUS
 62
     7
 10
63.8492378495
 20
92.6632408589
 30
0.0
  0
VERTEX
  5
360
  8
0
  6
CONTINUOUS
 62
     7
 10
63.103535371
 20
92.9302139218
 30
0.0
  0
VERTEX
  5
361
  8
0
  6
CONTINUOUS
 62
     7
 10
62.3045676363
 20
93.1313559738
 30
0.0
  0
VERTEX
  5
362
  8
0
  6
CONTINUOUS
 62
     7
 10
61.6723947795
 20
93.2457070071
 30
0.0
  0
VERTEX
  5
363
  8
0
  6
CONTINUOUS
 62
     7
 10
61.1200318188
 20
93.3171021437
 30
0.0
  0
VERTEX
  5
364
  8
0
  6
CONTINUOUS
 62
     7
 10
60.5330007811
 20
93.3658197269
 30
0.0
  0
VERTEX
  5
365
  8
0
  6
CONTINUOUS
 62
     7
 10
60.0504392625
 20
93.3858014229
 30
0.0
  0
VERTEX
  5
366
  8
0
  6
CONTINUOUS
 62
     7
 10
59.1360086508
 20
93.3753268182
 30
0.0
  0
VERTEX
  5
367
  8
0
  6
CONTINUOUS
 62
     7
 10
58.1832867899
 20
93.2994766676
 30
0.0
  0
VERTEX
  5
368
  8
0
  6
CONTINUOUS
 62
     7
 10
57.7023884372
 20
93.2359017946
 30
0.0
  0
VERTEX
  5
369
  8
0
  6
CONTINUOUS
 62
     7
 10
57.0386250948
 20
93.1181402508
 30
0.0
  0
VERTEX
  5
36A
  8
0
  6
CONTINUOUS
 62
     7
 10
56.4934557259
 20
92.9929461335
 30
0.0
  0
VERTEX
  5
36B
  8
0
  6
CONTINUOUS
 62
     7
 10
55.9468279399
 20
92.8393576479
 30
0.0
  0
VERTEX
  5
36C
  8
0
  6
CONTINUOUS
 62
     7
 10
55.5214231743
 20
92.6984817823
 30
0.0
  0
VERTEX
  5
36D
  8
0
  6
CONTINUOUS
 62
     7
 10
54.8084419747
 20
92.4127320332
 30
0.0
  0
VERTEX
  5
36E
  8
0
  6
CONTINUOUS
 62
     7
 10
54.0850027836
 20
92.0396122271
 30
0.0
  0
VERTEX
  5
36F
  8
0
  6
CONTINUOUS
 62
     7
 10
53.7655172905
 20
91.8391297823
 30
0.0
  0
VERTEX
  5
370
  8
0
  6
CONTINUOUS
 62
     7
 10
53.2566179331
 20
91.454225944
 30
0.0
  0
VERTEX
  5
371
  8
0
  6
CONTINUOUS
 62
     7
 10
52.7940764331
 20
90.9867267222
 30
0.0
  0
VERTEX
  5
372
  8
0
  6
CONTINUOUS
 62
     7
 10
52.6135314956
 20
90.747089715
 30
0.0
  0
VERTEX
  5
373
  8
0
  6
CONTINUOUS
 62
     7
 10
52.3691425456
 20
90.3069364622
 30
0.0
  0
VERTEX
  5
374
  8
0
  6
CONTINUOUS
 62
     7
 10
52.1993026974
 20
89.5485151623
 30
0.0
  0
VERTEX
  5
375
  8
0
  6
CONTINUOUS
 62
     7
 10
52.2478104576
 20
89.0996503463
 30
0.0
  0
VERTEX
  5
376
  8
0
  6
CONTINUOUS
 62
     7
 10
52.4334978072
 20
88.6046110284
 30
0.0
  0
VERTEX
  5
377
  8
0
  6
CONTINUOUS
 62
     7
 10
52.5740645149
 20
88.368990859
 30
0.0
  0
VERTEX
  5
378
  8
0
  6
CONTINUOUS
 62
     7
 10
52.8501178831
 20
88.0233664634
 30
0.0
  0
VERTEX
  5
379
  8
0
  6
CONTINUOUS
 62
     7
 10
53.1498168802
 20
87.7449404857
 30
0.0
  0
VERTEX
  5
37A
  8
0
  6
CONTINUOUS
 62
     7
 10
53.8829658315
 20
87.2416275527
 30
0.0
  0
SEQEND
  5
52C
  8
0
  6
CONTINUOUS
 62
     7
  0
LINE
  5
F3
  8
0
  6
CONTINUOUS
 62
     7
 10
192.8170472132
 20
21.7489801434
 30
0.0
 11
64.6555873423
 21
92.2704808166
 31
0.0
  0
POLYLINE
  5
F4
  8
0
  6
CONTINUOUS
 62
     7
 66
     1
 10
0.0
 20
0.0
 30
0.0
  0
VERTEX
  5
37B
  8
0
  6
CONTINUOUS
 62
     7
 10
206.2123202398
 20
29.9570818902
 30
0.0
  0
VERTEX
  5
37C
  8
0
  6
CONTINUOUS
 62
     7
 10
207.1071619022
 20
29.4172485851
 30
0.0
  0
VERTEX
  5
37D
  8
0
  6
CONTINUOUS
 62
     7
 10
207.8852609842
 20
28.8208938905
 30
0.0
  0
VERTEX
  5
37E
  8
0
  6
CONTINUOUS
 62
     7
 10
208.5341782566
 20
28.1771178524
 30
0.0
  0
VERTEX
  5
37F
  8
0
  6
CONTINUOUS
 62
     7
 10
209.0433824054
 20
27.4958058242
 30
0.0
  0
VERTEX
  5
380
  8
0
  6
CONTINUOUS
 62
     7
 10
209.4044339766
 20
26.7874894321
 30
0.0
  0
VERTEX
  5
381
  8
0
  6
CONTINUOUS
 62
     7
 10
209.6111434133
 20
26.0631941081
 30
0.0
  0
VERTEX
  5
382
  8
0
  6
CONTINUOUS
 62
     7
 10
209.6596992343
 20
25.3342747059
 30
0.0
  0
VERTEX
  5
383
  8
0
  6
CONTINUOUS
 62
     7
 10
209.5487624934
 20
24.6122411455
 30
0.0
  0
VERTEX
  5
384
  8
0
  6
CONTINUOUS
 62
     7
 10
209.2795239156
 20
23.9085764746
 30
0.0
  0
VERTEX
  5
385
  8
0
  6
CONTINUOUS
 62
     7
 10
208.8557205497
 20
23.2345501752
 30
0.0
  0
VERTEX
  5
386
  8
0
  6
CONTINUOUS
 62
     7
 10
208.2836094041
 20
22.6010299465
 30
0.0
  0
VERTEX
  5
387
  8
0
  6
CONTINUOUS
 62
     7
 10
207.5718963543
 20
22.0182955462
 30
0.0
  0
VERTEX
  5
388
  8
0
  6
CONTINUOUS
 62
     7
 10
206.7316196016
 20
21.4958585242
 30
0.0
  0
VERTEX
  5
389
  8
0
  6
CONTINUOUS
 62
     7
 10
205.7759880933
 20
21.0422918337
 30
0.0
  0
VERTEX
  5
38A
  8
0
  6
CONTINUOUS
 62
     7
 10
204.7201765525
 20
20.6650733118
 30
0.0
  0
VERTEX
  5
38B
  8
0
  6
CONTINUOUS
 62
     7
 10
203.581080043
 20
20.3704468867
 30
0.0
  0
VERTEX
  5
38C
  8
0
  6
CONTINUOUS
 62
     7
 10
202.3770322666
 20
20.1633050744
 30
0.0
  0
VERTEX
  5
38D
  8
0
  6
CONTINUOUS
 62
     7
 10
201.1274929792
 20
20.0470958868
 30
0.0
  0
VERTEX
  5
38E
  8
0
  6
CONTINUOUS
 62
     7
 10
199.8527109615
 20
20.023756687
 30
0.0
  0
VERTEX
  5
38F
  8
0
  6
CONTINUOUS
 62
     7
 10
198.5733698279
 20
20.0936768297
 30
0.0
  0
VERTEX
  5
390
  8
0
  6
CONTINUOUS
 62
     7
 10
197.3102245585
 20
20.2556901356
 30
0.0
  0
VERTEX
  5
391
  8
0
  6
CONTINUOUS
 62
     7
 10
196.08373695
 20
20.5070974142
 30
0.0
  0
VERTEX
  5
392
  8
0
  6
CONTINUOUS
 62
     7
 10
194.9137181967
 20
20.8437183973
 30
0.0
  0
VERTEX
  5
393
  8
0
  6
CONTINUOUS
 62
     7
 10
193.8189865227
 20
21.2599716338
 30
0.0
  0
VERTEX
  5
394
  8
0
  6
CONTINUOUS
 62
     7
 10
192.8170472132
 20
21.7489801434
 30
0.0
  0
SEQEND
  5
52B
  8
0
  6
CONTINUOUS
 62
     7
  0
LINE
  5
F5
  8
0
  6
CONTINUOUS
 62
     7
 10
77.9977414575
 20
98.7200014598
 30
0.0
 11
183.9968741902
 21
41.8714752799
 31
0.0
  0
LINE
  5
F6
  8
0
  6
CONTINUOUS
 62
     7
 10
186.2924366776
 20
40.6403393187
 30
0.0
 11
206.2123202398
 21
29.9570818902
 31
0.0
  0
ARC
  5
F7
  8
0
  6
CONTINUOUS
 62
     7
 10
83.2668875454
 20
92.7804329957
 30
0.0
 40
11.89781458638599
 50
65.5342023183
 51
110.2775405098
  0
POLYLINE
  5
F8
  8
0
  6
CONTINUOUS
 62
     7
 66
     1
 10
0.0
 20
0.0
 30
0.0
  0
VERTEX
  5
395
  8
0
  6
CONTINUOUS
 62
     7
 10
76.9997534684
 20
102.6901864438
 30
0.0
  0
VERTEX
  5
396
  8
0
  6
CONTINUOUS
 62
     7
 10
76.9696504408
 20
102.6632603804
 30
0.0
  0
VERTEX
  5
397
  8
0
  6
CONTINUOUS
 62
     7
 10
76.6014520476
 20
102.2418841248
 30
0.0
  0
VERTEX
  5
398
  8
0
  6
CONTINUOUS
 62
     7
 10
76.4541683909
 20
102.0167332693
 30
0.0
  0
VERTEX
  5
399
  8
0
  6
CONTINUOUS
 62
     7
 10
76.3340586694
 20
101.7827852786
 30
0.0
  0
VERTEX
  5
39A
  8
0
  6
CONTINUOUS
 62
     7
 10
76.2444554165
 20
101.5432510209
 30
0.0
  0
VERTEX
  5
39B
  8
0
  6
CONTINUOUS
 62
     7
 10
76.1740731794
 20
101.1971327787
 30
0.0
  0
VERTEX
  5
39C
  8
0
  6
CONTINUOUS
 62
     7
 10
76.2044898294
 20
100.6588225868
 30
0.0
  0
VERTEX
  5
39D
  8
0
  6
CONTINUOUS
 62
     7
 10
76.2878929973
 20
100.3794996138
 30
0.0
  0
VERTEX
  5
39E
  8
0
  6
CONTINUOUS
 62
     7
 10
76.5108107824
 20
99.9502586977
 30
0.0
  0
VERTEX
  5
39F
  8
0
  6
CONTINUOUS
 62
     7
 10
76.858126642
 20
99.5242260928
 30
0.0
  0
VERTEX
  5
3A0
  8
0
  6
CONTINUOUS
 62
     7
 10
77.0828114046
 20
99.3183875432
 30
0.0
  0
VERTEX
  5
3A1
  8
0
  6
CONTINUOUS
 62
     7
 10
77.6237276488
 20
98.9411352833
 30
0.0
  0
VERTEX
  5
3A2
  8
0
  6
CONTINUOUS
 62
     7
 10
77.9977414575
 20
98.7200014598
 30
0.0
  0
SEQEND
  5
52A
  8
0
  6
CONTINUOUS
 62
     7
  0
LINE
  5
F9
  8
0
  6
CONTINUOUS
 62
     7
 10
216.3834325978
 20
36.1895457766
 30
0.0
 11
88.1943671438
 21
103.6099268315
 31
0.0
  0
POLYLINE
  5
FA
  8
0
  6
CONTINUOUS
 62
     7
 66
     1
 10
0.0
 20
0.0
 30
0.0
  0
VERTEX
  5
3A3
  8
0
  6
CONTINUOUS
 62
     7
 10
229.1534566297
 20
44.0145194022
 30
0.0
  0
VERTEX
  5
3A4
  8
0
  6
CONTINUOUS
 62
     7
 10
230.0474698066
 20
43.4997293304
 30
0.0
  0
VERTEX
  5
3A5
  8
0
  6
CONTINUOUS
 62
     7
 10
230.8295556858
 20
42.9310651925
 30
0.0
  0
VERTEX
  5
3A6
  8
0
  6
CONTINUOUS
 62
     7
 10
231.4872309769
 20
42.3172114001
 30
0.0
  0
VERTEX
  5
3A7
  8
0
  6
CONTINUOUS
 62
     7
 10
232.0098497109
 20
41.6675999372
 30
0.0
  0
VERTEX
  5
3A8
  8
0
  6
CONTINUOUS
 62
     7
 10
232.3887875719
 20
40.9922773067
 30
0.0
  0
VERTEX
  5
3A9
  8
0
  6
CONTINUOUS
 62
     7
 10
232.6176012176
 20
40.301758762
 30
0.0
  0
VERTEX
  5
3AA
  8
0
  6
CONTINUOUS
 62
     7
 10
232.6921587085
 20
39.606871297
 30
0.0
  0
VERTEX
  5
3AB
  8
0
  6
CONTINUOUS
 62
     7
 10
232.6107372577
 20
38.918587271
 30
0.0
  0
VERTEX
  5
3AC
  8
0
  6
CONTINUOUS
 62
     7
 10
232.3740847561
 20
38.2478509573
 30
0.0
  0
VERTEX
  5
3AD
  8
0
  6
CONTINUOUS
 62
     7
 10
231.9854419485
 20
37.605400716
 30
0.0
  0
VERTEX
  5
3AE
  8
0
  6
CONTINUOUS
 62
     7
 10
231.4505227385
 20
37.0015898656
 30
0.0
  0
VERTEX
  5
3AF
  8
0
  6
CONTINUOUS
 62
     7
 10
230.7774508849
 20
36.4462096503
 30
0.0
  0
VERTEX
  5
3B0
  8
0
  6
CONTINUOUS
 62
     7
 10
229.9766523029
 20
35.9483179342
 30
0.0
  0
VERTEX
  5
3B1
  8
0
  6
CONTINUOUS
 62
     7
 10
229.0607032729
 20
35.5160773846
 30
0.0
  0
VERTEX
  5
3B2
  8
0
  6
CONTINUOUS
 62
     7
 10
228.0441360465
 20
35.1566069117
 30
0.0
  0
VERTEX
  5
3B3
  8
0
  6
CONTINUOUS
 62
     7
 10
226.9432045784
 20
34.8758499983
 30
0.0
  0
VERTEX
  5
3B4
  8
0
  6
CONTINUOUS
 62
     7
 10
225.7756143409
 20
34.6784632715
 30
0.0
  0
VERTEX
  5
3B5
  8
0
  6
CONTINUOUS
 62
     7
 10
224.5602213363
 20
34.5677282523
 30
0.0
  0
VERTEX
  5
3B6
  8
0
  6
CONTINUOUS
 62
     7
 10
223.3167064488
 20
34.5454886662
 30
0.0
  0
VERTEX
  5
3B7
  8
0
  6
CONTINUOUS
 62
     7
 10
222.0652321177
 20
34.6121150404
 30
0.0
  0
VERTEX
  5
3B8
  8
0
  6
CONTINUOUS
 62
     7
 10
220.826088914
 20
34.7664975732
 30
0.0
  0
VERTEX
  5
3B9
  8
0
  6
CONTINUOUS
 62
     7
 10
219.6193399367
 20
35.0060674755
 30
0.0
  0
VERTEX
  5
3BA
  8
0
  6
CONTINUOUS
 62
     7
 10
218.4644709882
 20
35.3268461882
 30
0.0
  0
VERTEX
  5
3BB
  8
0
  6
CONTINUOUS
 62
     7
 10
217.3800542422
 20
35.7235211108
 30
0.0
  0
VERTEX
  5
3BC
  8
0
  6
CONTINUOUS
 62
     7
 10
216.3834325978
 20
36.1895457766
 30
0.0
  0
SEQEND
  5
529
  8
0
  6
CONTINUOUS
 62
     7
  0
LINE
  5
FB
  8
0
  6
CONTINUOUS
 62
     7
 10
95.7070175505
 20
112.4981061797
 30
0.0
 11
206.4265519046
 21
55.6777751823
 31
0.0
  0
LINE
  5
FC
  8
0
  6
CONTINUOUS
 62
     7
 10
208.9045801704
 20
54.406071981
 30
0.0
 11
229.1534566297
 21
44.0145194022
 31
0.0
  0
LINE
  5
FD
  8
0
  6
CONTINUOUS
 62
     7
 10
95.7070175505
 20
112.4981061797
 30
0.0
 11
94.2961142905
 21
111.8283402989
 31
0.0
  0
LINE
  5
FE
  8
0
  6
CONTINUOUS
 62
     7
 10
227.751218365
 20
43.1552813697
 30
0.0
 11
207.4620489456
 21
53.5956413457
 31
0.0
  0
LINE
  5
FF
  8
0
  6
CONTINUOUS
 62
     7
 10
204.5564894032
 20
55.0907783287
 30
0.0
 11
94.2961142905
 21
111.8283402989
 31
0.0
  0
POLYLINE
  5
100
  8
0
  6
CONTINUOUS
 62
     7
 66
     1
 10
0.0
 20
0.0
 30
0.0
  0
VERTEX
  5
3BD
  8
0
  6
CONTINUOUS
 62
     7
 10
217.8191815153
 20
37.0693168069
 30
0.0
  0
VERTEX
  5
3BE
  8
0
  6
CONTINUOUS
 62
     7
 10
218.7051071595
 20
36.6627733111
 30
0.0
  0
VERTEX
  5
3BF
  8
0
  6
CONTINUOUS
 62
     7
 10
219.6762645663
 20
36.3267175903
 30
0.0
  0
VERTEX
  5
3C0
  8
0
  6
CONTINUOUS
 62
     7
 10
220.7126475447
 20
36.068241557
 30
0.0
  0
VERTEX
  5
3C1
  8
0
  6
CONTINUOUS
 62
     7
 10
221.7928096733
 20
35.8928159491
 30
0.0
  0
VERTEX
  5
3C2
  8
0
  6
CONTINUOUS
 62
     7
 10
222.8943293827
 20
35.8041616536
 30
0.0
  0
VERTEX
  5
3C3
  8
0
  6
CONTINUOUS
 62
     7
 10
223.9943019441
 20
35.8041615274
 30
0.0
  0
VERTEX
  5
3C4
  8
0
  6
CONTINUOUS
 62
     7
 10
225.0698453763
 20
35.8928155733
 30
0.0
  0
VERTEX
  5
3C5
  8
0
  6
CONTINUOUS
 62
     7
 10
226.0986066396
 20
36.0682409395
 30
0.0
  0
VERTEX
  5
3C6
  8
0
  6
CONTINUOUS
 62
     7
 10
227.059254409
 20
36.3267167442
 30
0.0
  0
VERTEX
  5
3C7
  8
0
  6
CONTINUOUS
 62
     7
 10
227.9319452259
 20
36.6627722543
 30
0.0
  0
VERTEX
  5
3C8
  8
0
  6
CONTINUOUS
 62
     7
 10
228.6987508772
 20
37.0693155617
 30
0.0
  0
VERTEX
  5
3C9
  8
0
  6
CONTINUOUS
 62
     7
 10
229.3440363801
 20
37.5377986639
 30
0.0
  0
VERTEX
  5
3CA
  8
0
  6
CONTINUOUS
 62
     7
 10
229.8547798545
 20
38.0584138392
 30
0.0
  0
VERTEX
  5
3CB
  8
0
  6
CONTINUOUS
 62
     7
 10
230.2208277244
 20
38.6203154474
 30
0.0
  0
VERTEX
  5
3CC
  8
0
  6
CONTINUOUS
 62
     7
 10
230.4350809682
 20
39.2118608086
 30
0.0
  0
VERTEX
  5
3CD
  8
0
  6
CONTINUOUS
 62
     7
 10
230.4936104139
 20
39.8208636223
 30
0.0
  0
VERTEX
  5
3CE
  8
0
  6
CONTINUOUS
 62
     7
 10
230.395701214
 20
40.4348534584
 30
0.0
  0
VERTEX
  5
3CF
  8
0
  6
CONTINUOUS
 62
     7
 10
230.1438285601
 20
41.0413351656
 30
0.0
  0
VERTEX
  5
3D0
  8
0
  6
CONTINUOUS
 62
     7
 10
229.7435683145
 20
41.6280425281
 30
0.0
  0
VERTEX
  5
3D1
  8
0
  6
CONTINUOUS
 62
     7
 10
229.2034475229
 20
42.1831811389
 30
0.0
  0
VERTEX
  5
3D2
  8
0
  6
CONTINUOUS
 62
     7
 10
228.5347406985
 20
42.6956561588
 30
0.0
  0
VERTEX
  5
3D3
  8
0
  6
CONTINUOUS
 62
     7
 10
227.751218365
 20
43.1552813697
 30
0.0
  0
SEQEND
  5
528
  8
0
  6
CONTINUOUS
 62
     7
  0
LINE
  5
101
  8
0
  6
CONTINUOUS
 62
     7
 10
89.6466656156
 20
104.2953658562
 30
0.0
 11
217.8191815153
 21
37.0693168069
 31
0.0
  0
POLYLINE
  5
102
  8
0
  6
CONTINUOUS
 62
     7
 66
     1
 10
0.0
 20
0.0
 30
0.0
  0
VERTEX
  5
3D4
  8
0
  6
CONTINUOUS
 62
     7
 10
76.5365623875
 20
98.0081123488
 30
0.0
  0
VERTEX
  5
3D5
  8
0
  6
CONTINUOUS
 62
     7
 10
75.9640948412
 20
98.3508579347
 30
0.0
  0
VERTEX
  5
3D6
  8
0
  6
CONTINUOUS
 62
     7
 10
75.3459224247
 20
98.7963331443
 30
0.0
  0
VERTEX
  5
3D7
  8
0
  6
CONTINUOUS
 62
     7
 10
75.0140933381
 20
99.112893186
 30
0.0
  0
VERTEX
  5
3D8
  8
0
  6
CONTINUOUS
 62
     7
 10
74.702808562
 20
99.4947845326
 30
0.0
  0
VERTEX
  5
3D9
  8
0
  6
CONTINUOUS
 62
     7
 10
74.3557741862
 20
100.1376959288
 30
0.0
  0
VERTEX
  5
3DA
  8
0
  6
CONTINUOUS
 62
     7
 10
74.2264488214
 20
100.6262214431
 30
0.0
  0
VERTEX
  5
3DB
  8
0
  6
CONTINUOUS
 62
     7
 10
74.2167372617
 20
101.2205788758
 30
0.0
  0
VERTEX
  5
3DC
  8
0
  6
CONTINUOUS
 62
     7
 10
74.2962954175
 20
101.6057479869
 30
0.0
  0
VERTEX
  5
3DD
  8
0
  6
CONTINUOUS
 62
     7
 10
74.4354200765
 20
101.9743176212
 30
0.0
  0
VERTEX
  5
3DE
  8
0
  6
CONTINUOUS
 62
     7
 10
74.6682856076
 20
102.3906890666
 30
0.0
  0
VERTEX
  5
3DF
  8
0
  6
CONTINUOUS
 62
     7
 10
75.202596829
 20
103.0351668219
 30
0.0
  0
VERTEX
  5
3E0
  8
0
  6
CONTINUOUS
 62
     7
 10
75.5723969724
 20
103.3667988095
 30
0.0
  0
VERTEX
  5
3E1
  8
0
  6
CONTINUOUS
 62
     7
 10
75.6370261601
 20
103.4162948739
 30
0.0
  0
SEQEND
  5
527
  8
0
  6
CONTINUOUS
 62
     7
  0
POLYLINE
  5
103
  8
0
  6
CONTINUOUS
 62
     7
 66
     1
 10
0.0
 20
0.0
 30
0.0
  0
VERTEX
  5
3E2
  8
0
  6
CONTINUOUS
 62
     7
 10
77.8325227009
 20
104.6362374482
 30
0.0
  0
VERTEX
  5
3E3
  8
0
  6
CONTINUOUS
 62
     7
 10
78.3043607429
 20
104.8105032413
 30
0.0
  0
VERTEX
  5
3E4
  8
0
  6
CONTINUOUS
 62
     7
 10
78.8914149864
 20
104.9972316941
 30
0.0
  0
VERTEX
  5
3E5
  8
0
  6
CONTINUOUS
 62
     7
 10
79.4551186889
 20
105.1497885367
 30
0.0
  0
VERTEX
  5
3E6
  8
0
  6
CONTINUOUS
 62
     7
 10
80.3701968612
 20
105.3472682554
 30
0.0
  0
VERTEX
  5
3E7
  8
0
  6
CONTINUOUS
 62
     7
 10
80.9195446169
 20
105.4385979753
 30
0.0
  0
VERTEX
  5
3E8
  8
0
  6
CONTINUOUS
 62
     7
 10
81.4718455804
 20
105.511579172
 30
0.0
  0
VERTEX
  5
3E9
  8
0
  6
CONTINUOUS
 62
     7
 10
82.3095955952
 20
105.588238311
 30
0.0
  0
VERTEX
  5
3EA
  8
0
  6
CONTINUOUS
 62
     7
 10
83.2867183215
 20
105.6270308927
 30
0.0
  0
VERTEX
  5
3EB
  8
0
  6
CONTINUOUS
 62
     7
 10
83.8556726306
 20
105.62422027
 30
0.0
  0
VERTEX
  5
3EC
  8
0
  6
CONTINUOUS
 62
     7
 10
84.4155321644
 20
105.6029043897
 30
0.0
  0
VERTEX
  5
3ED
  8
0
  6
CONTINUOUS
 62
     7
 10
85.2426764771
 20
105.5371858275
 30
0.0
  0
VERTEX
  5
3EE
  8
0
  6
CONTINUOUS
 62
     7
 10
85.7915804923
 20
105.4701551161
 30
0.0
  0
VERTEX
  5
3EF
  8
0
  6
CONTINUOUS
 62
     7
 10
86.8770724033
 20
105.2783245147
 30
0.0
  0
VERTEX
  5
3F0
  8
0
  6
CONTINUOUS
 62
     7
 10
87.9145028265
 20
105.0102769907
 30
0.0
  0
VERTEX
  5
3F1
  8
0
  6
CONTINUOUS
 62
     7
 10
88.558013707
 20
104.786823603
 30
0.0
  0
VERTEX
  5
3F2
  8
0
  6
CONTINUOUS
 62
     7
 10
89.6466656156
 20
104.2953658562
 30
0.0
  0
SEQEND
  5
526
  8
0
  6
CONTINUOUS
 62
     7
  0
LINE
  5
104
  8
0
  6
CONTINUOUS
 62
     7
 10
204.7418449865
 20
29.05603191
 30
0.0
 11
186.2384934926
 21
39.0076076542
 31
0.0
  0
LINE
  5
105
  8
0
  6
CONTINUOUS
 62
     7
 10
183.945526262
 20
40.2408240844
 30
0.0
 11
76.5365663412
 21
98.0081102224
 31
0.0
  0
POLYLINE
  5
106
  8
0
  6
CONTINUOUS
 62
     7
 66
     1
 10
0.0
 20
0.0
 30
0.0
  0
VERTEX
  5
3F3
  8
0
  6
CONTINUOUS
 62
     7
 10
194.3235231689
 20
22.6720899523
 30
0.0
  0
VERTEX
  5
3F4
  8
0
  6
CONTINUOUS
 62
     7
 10
195.214480935
 20
22.2455280676
 30
0.0
  0
VERTEX
  5
3F5
  8
0
  6
CONTINUOUS
 62
     7
 10
196.195635413
 20
21.8929140876
 30
0.0
  0
VERTEX
  5
3F6
  8
0
  6
CONTINUOUS
 62
     7
 10
197.246775742
 20
21.6216957445
 30
0.0
  0
VERTEX
  5
3F7
  8
0
  6
CONTINUOUS
 62
     7
 10
198.3461466109
 20
21.4376187995
 30
0.0
  0
VERTEX
  5
3F8
  8
0
  6
CONTINUOUS
 62
     7
 10
199.4709203181
 20
21.3445914629
 30
0.0
  0
VERTEX
  5
3F9
  8
0
  6
CONTINUOUS
 62
     7
 10
200.5976982765
 20
21.3445914629
 30
0.0
  0
VERTEX
  5
3FA
  8
0
  6
CONTINUOUS
 62
     7
 10
201.7030286758
 20
21.4376187995
 30
0.0
  0
VERTEX
  5
3FB
  8
0
  6
CONTINUOUS
 62
     7
 10
202.7639262867
 20
21.6216957445
 30
0.0
  0
VERTEX
  5
3FC
  8
0
  6
CONTINUOUS
 62
     7
 10
203.7583802485
 20
21.8929140876
 30
0.0
  0
VERTEX
  5
3FD
  8
0
  6
CONTINUOUS
 62
     7
 10
204.665836151
 20
22.2455280676
 30
0.0
  0
VERTEX
  5
3FE
  8
0
  6
CONTINUOUS
 62
     7
 10
205.4676397569
 20
22.6720899523
 30
0.0
  0
VERTEX
  5
3FF
  8
0
  6
CONTINUOUS
 62
     7
 10
206.1474312534
 20
23.1636239202
 30
0.0
  0
VERTEX
  5
400
  8
0
  6
CONTINUOUS
 62
     7
 10
206.6914808646
 20
23.7098328231
 30
0.0
  0
VERTEX
  5
401
  8
0
  6
CONTINUOUS
 62
     7
 10
207.0889588662
 20
24.2993316058
 30
0.0
  0
VERTEX
  5
402
  8
0
  6
CONTINUOUS
 62
     7
 10
207.3321354003
 20
24.9199006615
 30
0.0
  0
VERTEX
  5
403
  8
0
  6
CONTINUOUS
 62
     7
 10
207.4165078291
 20
25.5587522087
 30
0.0
  0
VERTEX
  5
404
  8
0
  6
CONTINUOUS
 62
     7
 10
207.340855597
 20
26.2028028635
 30
0.0
  0
VERTEX
  5
405
  8
0
  6
CONTINUOUS
 62
     7
 10
207.1072245566
 20
26.8389459199
 30
0.0
  0
VERTEX
  5
406
  8
0
  6
CONTINUOUS
 62
     7
 10
206.720844406
 20
27.4543173856
 30
0.0
  0
VERTEX
  5
407
  8
0
  6
CONTINUOUS
 62
     7
 10
206.1899842193
 20
28.0365504997
 30
0.0
  0
VERTEX
  5
408
  8
0
  6
CONTINUOUS
 62
     7
 10
205.5257520226
 20
28.5740142145
 30
0.0
  0
VERTEX
  5
409
  8
0
  6
CONTINUOUS
 62
     7
 10
204.7418449865
 20
29.05603191
 30
0.0
  0
SEQEND
  5
525
  8
0
  6
CONTINUOUS
 62
     7
  0
LINE
  5
107
  8
0
  6
CONTINUOUS
 62
     7
 10
66.1772637699
 20
92.9821093127
 30
0.0
 11
194.3235231689
 21
22.6720899523
 31
0.0
  0
POLYLINE
  5
108
  8
0
  6
CONTINUOUS
 62
     7
 66
     1
 10
0.0
 20
0.0
 30
0.0
  0
VERTEX
  5
40A
  8
0
  6
CONTINUOUS
 62
     7
 10
52.3461243909
 20
86.5047325893
 30
0.0
  0
VERTEX
  5
40B
  8
0
  6
CONTINUOUS
 62
     7
 10
52.0047021814
 20
86.7235330564
 30
0.0
  0
VERTEX
  5
40C
  8
0
  6
CONTINUOUS
 62
     7
 10
51.4351614698
 20
87.1282380909
 30
0.0
  0
VERTEX
  5
40D
  8
0
  6
CONTINUOUS
 62
     7
 10
51.2155945518
 20
87.317097715
 30
0.0
  0
VERTEX
  5
40E
  8
0
  6
CONTINUOUS
 62
     7
 10
50.6528456745
 20
87.9772282213
 30
0.0
  0
VERTEX
  5
40F
  8
0
  6
CONTINUOUS
 62
     7
 10
50.2994404475
 20
88.7116772281
 30
0.0
  0
VERTEX
  5
410
  8
0
  6
CONTINUOUS
 62
     7
 10
50.2425419242
 20
88.9281121251
 30
0.0
  0
VERTEX
  5
411
  8
0
  6
CONTINUOUS
 62
     7
 10
50.1889671425
 20
89.4409808708
 30
0.0
  0
VERTEX
  5
412
  8
0
  6
CONTINUOUS
 62
     7
 10
50.22455834
 20
89.8384313001
 30
0.0
  0
VERTEX
  5
413
  8
0
  6
CONTINUOUS
 62
     7
 10
50.3283838114
 20
90.2380819823
 30
0.0
  0
VERTEX
  5
414
  8
0
  6
CONTINUOUS
 62
     7
 10
50.4235924139
 20
90.478358492
 30
0.0
  0
VERTEX
  5
415
  8
0
  6
CONTINUOUS
 62
     7
 10
50.6755472901
 20
90.9383122061
 30
0.0
  0
VERTEX
  5
416
  8
0
  6
CONTINUOUS
 62
     7
 10
51.0655474814
 20
91.4450800738
 30
0.0
  0
VERTEX
  5
417
  8
0
  6
CONTINUOUS
 62
     7
 10
51.3391397137
 20
91.7268810681
 30
0.0
  0
VERTEX
  5
418
  8
0
  6
CONTINUOUS
 62
     7
 10
51.5588183432
 20
91.92523868
 30
0.0
  0
VERTEX
  5
419
  8
0
  6
CONTINUOUS
 62
     7
 10
52.1423708881
 20
92.3705984983
 30
0.0
  0
VERTEX
  5
41A
  8
0
  6
CONTINUOUS
 62
     7
 10
52.879952899
 20
92.8198395968
 30
0.0
  0
VERTEX
  5
41B
  8
0
  6
CONTINUOUS
 62
     7
 10
53.2433642824
 20
93.0074988929
 30
0.0
  0
VERTEX
  5
41C
  8
0
  6
CONTINUOUS
 62
     7
 10
53.5874552652
 20
93.1684874435
 30
0.0
  0
VERTEX
  5
41D
  8
0
  6
CONTINUOUS
 62
     7
 10
54.4764671713
 20
93.5221095889
 30
0.0
  0
VERTEX
  5
41E
  8
0
  6
CONTINUOUS
 62
     7
 10
55.4150253668
 20
93.8166470283
 30
0.0
  0
VERTEX
  5
41F
  8
0
  6
CONTINUOUS
 62
     7
 10
55.8069619696
 20
93.9192428281
 30
0.0
  0
VERTEX
  5
420
  8
0
  6
CONTINUOUS
 62
     7
 10
56.2068228259
 20
94.0125227434
 30
0.0
  0
VERTEX
  5
421
  8
0
  6
CONTINUOUS
 62
     7
 10
57.1711066637
 20
94.1931069277
 30
0.0
  0
VERTEX
  5
422
  8
0
  6
CONTINUOUS
 62
     7
 10
58.2535904718
 20
94.3277578115
 30
0.0
  0
VERTEX
  5
423
  8
0
  6
CONTINUOUS
 62
     7
 10
58.7463851955
 20
94.3668198783
 30
0.0
  0
VERTEX
  5
424
  8
0
  6
CONTINUOUS
 62
     7
 10
59.9164972533
 20
94.404551067
 30
0.0
  0
VERTEX
  5
425
  8
0
  6
CONTINUOUS
 62
     7
 10
61.7365677858
 20
94.3035658264
 30
0.0
  0
VERTEX
  5
426
  8
0
  6
CONTINUOUS
 62
     7
 10
62.5415365368
 20
94.1930271696
 30
0.0
  0
VERTEX
  5
427
  8
0
  6
CONTINUOUS
 62
     7
 10
64.4336308546
 20
93.7442629298
 30
0.0
  0
VERTEX
  5
428
  8
0
  6
CONTINUOUS
 62
     7
 10
64.981770885
 20
93.5480349624
 30
0.0
  0
VERTEX
  5
429
  8
0
  6
CONTINUOUS
 62
     7
 10
65.5959867076
 20
93.2758914505
 30
0.0
  0
VERTEX
  5
42A
  8
0
  6
CONTINUOUS
 62
     7
 10
66.1772637699
 20
92.9821093127
 30
0.0
  0
SEQEND
  5
524
  8
0
  6
CONTINUOUS
 62
     7
  0
LINE
  5
109
  8
0
  6
CONTINUOUS
 62
     7
 10
185.6697511972
 20
11.4074396006
 30
0.0
 11
52.3461243909
 21
86.5047325893
 31
0.0
  0
LINE
  5
10A
  8
0
  6
CONTINUOUS
 62
     7
 10
185.6698292148
 20
11.4074878725
 30
0.0
 11
185.6697511972
 21
11.4074396006
 31
0.0
  0
POLYLINE
  5
10B
  8
0
  6
CONTINUOUS
 62
     7
 66
     1
 10
0.0
 20
0.0
 30
0.0
  0
VERTEX
  5
42B
  8
0
  6
CONTINUOUS
 62
     7
 10
187.212960973
 20
12.3622736831
 30
0.0
  0
VERTEX
  5
42C
  8
0
  6
CONTINUOUS
 62
     7
 10
187.4792090689
 20
12.14350492
 30
0.0
  0
VERTEX
  5
42D
  8
0
  6
CONTINUOUS
 62
     7
 10
187.5877561554
 20
11.8852499906
 30
0.0
  0
VERTEX
  5
42E
  8
0
  6
CONTINUOUS
 62
     7
 10
187.521888872
 20
11.6267787814
 30
0.0
  0
VERTEX
  5
42F
  8
0
  6
CONTINUOUS
 62
     7
 10
187.2914388227
 20
11.4074878725
 30
0.0
  0
VERTEX
  5
430
  8
0
  6
CONTINUOUS
 62
     7
 10
186.9314008099
 20
11.2608755512
 30
0.0
  0
VERTEX
  5
431
  8
0
  6
CONTINUOUS
 62
     7
 10
186.496657668
 20
11.2093756396
 30
0.0
  0
VERTEX
  5
432
  8
0
  6
CONTINUOUS
 62
     7
 10
186.0535837279
 20
11.2608755512
 30
0.0
  0
VERTEX
  5
433
  8
0
  6
CONTINUOUS
 62
     7
 10
185.6698292148
 20
11.4074878725
 30
0.0
  0
SEQEND
  5
523
  8
0
  6
CONTINUOUS
 62
     7
  0
LINE
  5
10C
  8
0
  6
CONTINUOUS
 62
     7
 10
183.154113394
 20
14.64176234
 30
0.0
 11
187.212960973
 21
12.3622736831
 31
0.0
  0
POLYLINE
  5
10D
  8
0
  6
CONTINUOUS
 62
     7
 66
     1
 10
0.0
 20
0.0
 30
0.0
  0
VERTEX
  5
434
  8
0
  6
CONTINUOUS
 62
     7
 10
236.7778406903
 20
40.7359791271
 30
0.0
  0
VERTEX
  5
435
  8
0
  6
CONTINUOUS
 62
     7
 10
236.9105001996
 20
40.7891702959
 30
0.0
  0
VERTEX
  5
436
  8
0
  6
CONTINUOUS
 62
     7
 10
237.0744816514
 20
40.8078462692
 30
0.0
  0
VERTEX
  5
437
  8
0
  6
CONTINUOUS
 62
     7
 10
237.2448471716
 20
40.7891702959
 30
0.0
  0
VERTEX
  5
438
  8
0
  6
CONTINUOUS
 62
     7
 10
237.3956891902
 20
40.7359791271
 30
0.0
  0
VERTEX
  5
439
  8
0
  6
CONTINUOUS
 62
     7
 10
237.5040576383
 20
40.6563549474
 30
0.0
  0
VERTEX
  5
43A
  8
0
  6
CONTINUOUS
 62
     7
 10
237.5534455325
 20
40.5624041176
 30
0.0
  0
VERTEX
  5
43B
  8
0
  6
CONTINUOUS
 62
     7
 10
237.5363071949
 20
40.4684232854
 30
0.0
  0
VERTEX
  5
43C
  8
0
  6
CONTINUOUS
 62
     7
 10
237.455222715
 20
40.3887266736
 30
0.0
  0
VERTEX
  5
43D
  8
0
  6
CONTINUOUS
 62
     7
 10
237.3225221882
 20
40.3354630728
 30
0.0
  0
VERTEX
  5
43E
  8
0
  6
CONTINUOUS
 62
     7
 10
237.1584169515
 20
40.3167570971
 30
0.0
  0
VERTEX
  5
43F
  8
0
  6
CONTINUOUS
 62
     7
 10
236.9879173907
 20
40.3354630728
 30
0.0
  0
VERTEX
  5
440
  8
0
  6
CONTINUOUS
 62
     7
 10
236.8370095949
 20
40.3887266736
 30
0.0
  0
VERTEX
  5
441
  8
0
  6
CONTINUOUS
 62
     7
 10
236.7286821644
 20
40.4684232854
 30
0.0
  0
VERTEX
  5
442
  8
0
  6
CONTINUOUS
 62
     7
 10
236.679418055
 20
40.5624041176
 30
0.0
  0
VERTEX
  5
443
  8
0
  6
CONTINUOUS
 62
     7
 10
236.6966904331
 20
40.6563549474
 30
0.0
  0
VERTEX
  5
444
  8
0
  6
CONTINUOUS
 62
     7
 10
236.7778406903
 20
40.7359791271
 30
0.0
  0
SEQEND
  5
522
  8
0
  6
CONTINUOUS
 62
     7
  0
POLYLINE
  5
10E
  8
0
  6
CONTINUOUS
 62
     7
 66
     1
 10
0.0
 20
0.0
 30
0.0
  0
VERTEX
  5
445
  8
0
  6
CONTINUOUS
 62
     7
 10
187.0901387002
 20
9.8722729133
 30
0.0
  0
VERTEX
  5
446
  8
0
  6
CONTINUOUS
 62
     7
 10
187.234482972
 20
9.9311901005
 30
0.0
  0
VERTEX
  5
447
  8
0
  6
CONTINUOUS
 62
     7
 10
187.4087239791
 20
9.951876406
 30
0.0
  0
VERTEX
  5
448
  8
0
  6
CONTINUOUS
 62
     7
 10
187.5863654169
 20
9.9311901005
 30
0.0
  0
VERTEX
  5
449
  8
0
  6
CONTINUOUS
 62
     7
 10
187.7403945415
 20
9.8722729133
 30
0.0
  0
VERTEX
  5
44A
  8
0
  6
CONTINUOUS
 62
     7
 10
187.8473761448
 20
9.7840761627
 30
0.0
  0
VERTEX
  5
44B
  8
0
  6
CONTINUOUS
 62
     7
 10
187.8910119562
 20
9.6800087029
 30
0.0
  0
VERTEX
  5
44C
  8
0
  6
CONTINUOUS
 62
     7
 10
187.8646285041
 20
9.5759062662
 30
0.0
  0
VERTEX
  5
44D
  8
0
  6
CONTINUOUS
 62
     7
 10
187.7722108388
 20
9.4876250737
 30
0.0
  0
VERTEX
  5
44E
  8
0
  6
CONTINUOUS
 62
     7
 10
187.6278143596
 20
9.4286234446
 30
0.0
  0
VERTEX
  5
44F
  8
0
  6
CONTINUOUS
 62
     7
 10
187.4534334321
 20
9.4079021621
 30
0.0
  0
VERTEX
  5
450
  8
0
  6
CONTINUOUS
 62
     7
 10
187.2756463243
 20
9.4286234446
 30
0.0
  0
VERTEX
  5
451
  8
0
  6
CONTINUOUS
 62
     7
 10
187.1215511117
 20
9.4876250737
 30
0.0
  0
VERTEX
  5
452
  8
0
  6
CONTINUOUS
 62
     7
 10
187.0146217158
 20
9.5759062662
 30
0.0
  0
VERTEX
  5
453
  8
0
  6
CONTINUOUS
 62
     7
 10
186.9711258248
 20
9.6800087029
 30
0.0
  0
VERTEX
  5
454
  8
0
  6
CONTINUOUS
 62
     7
 10
186.9976549469
 20
9.7840761627
 30
0.0
  0
VERTEX
  5
455
  8
0
  6
CONTINUOUS
 62
     7
 10
187.0901387002
 20
9.8722729133
 30
0.0
  0
SEQEND
  5
521
  8
0
  6
CONTINUOUS
 62
     7
  0
POLYLINE
  5
10F
  8
0
  6
CONTINUOUS
 62
     7
 66
     1
 10
0.0
 20
0.0
 30
0.0
  0
VERTEX
  5
456
  8
0
  6
CONTINUOUS
 62
     7
 10
45.7400123862
 20
89.5852792524
 30
0.0
  0
VERTEX
  5
457
  8
0
  6
CONTINUOUS
 62
     7
 10
45.8774953632
 20
89.6300057118
 30
0.0
  0
VERTEX
  5
458
  8
0
  6
CONTINUOUS
 62
     7
 10
46.0334253906
 20
89.6457097968
 30
0.0
  0
VERTEX
  5
459
  8
0
  6
CONTINUOUS
 62
     7
 10
46.1840878569
 20
89.6300057118
 30
0.0
  0
VERTEX
  5
45A
  8
0
  6
CONTINUOUS
 62
     7
 10
46.3065684092
 20
89.5852792524
 30
0.0
  0
VERTEX
  5
45B
  8
0
  6
CONTINUOUS
 62
     7
 10
46.3822282007
 20
89.5183275197
 30
0.0
  0
VERTEX
  5
45C
  8
0
  6
CONTINUOUS
 62
     7
 10
46.3995369689
 20
89.4393312044
 30
0.0
  0
VERTEX
  5
45D
  8
0
  6
CONTINUOUS
 62
     7
 10
46.3558352819
 20
89.3603117574
 30
0.0
  0
VERTEX
  5
45E
  8
0
  6
CONTINUOUS
 62
     7
 10
46.2577536589
 20
89.2933041801
 30
0.0
  0
VERTEX
  5
45F
  8
0
  6
CONTINUOUS
 62
     7
 10
46.1202164187
 20
89.248521876
 30
0.0
  0
VERTEX
  5
460
  8
0
  6
CONTINUOUS
 62
     7
 10
45.9641741202
 20
89.2327946594
 30
0.0
  0
VERTEX
  5
461
  8
0
  6
CONTINUOUS
 62
     7
 10
45.8134071415
 20
89.248521876
 30
0.0
  0
VERTEX
  5
462
  8
0
  6
CONTINUOUS
 62
     7
 10
45.6908910579
 20
89.2933041801
 30
0.0
  0
VERTEX
  5
463
  8
0
  6
CONTINUOUS
 62
     7
 10
45.6152855296
 20
89.3603117574
 30
0.0
  0
VERTEX
  5
464
  8
0
  6
CONTINUOUS
 62
     7
 10
45.5980890326
 20
89.4393312044
 30
0.0
  0
VERTEX
  5
465
  8
0
  6
CONTINUOUS
 62
     7
 10
45.6418952318
 20
89.5183275197
 30
0.0
  0
VERTEX
  5
466
  8
0
  6
CONTINUOUS
 62
     7
 10
45.7400123862
 20
89.5852792524
 30
0.0
  0
SEQEND
  5
520
  8
0
  6
CONTINUOUS
 62
     7
  0
POLYLINE
  5
110
  8
0
  6
CONTINUOUS
 62
     7
 66
     1
 10
0.0
 20
0.0
 30
0.0
  0
VERTEX
  5
467
  8
0
  6
CONTINUOUS
 62
     7
 10
95.4889570212
 20
113.1661731891
 30
0.0
  0
VERTEX
  5
468
  8
0
  6
CONTINUOUS
 62
     7
 10
95.6164884146
 20
113.2070758485
 30
0.0
  0
VERTEX
  5
469
  8
0
  6
CONTINUOUS
 62
     7
 10
95.7642200386
 20
113.2214374141
 30
0.0
  0
VERTEX
  5
46A
  8
0
  6
CONTINUOUS
 62
     7
 10
95.909682913
 20
113.2070758485
 30
0.0
  0
VERTEX
  5
46B
  8
0
  6
CONTINUOUS
 62
     7
 10
96.0307527619
 20
113.1661731891
 30
0.0
  0
VERTEX
  5
46C
  8
0
  6
CONTINUOUS
 62
     7
 10
96.1090058658
 20
113.1049459161
 30
0.0
  0
VERTEX
  5
46D
  8
0
  6
CONTINUOUS
 62
     7
 10
96.1325191781
 20
113.0327047417
 30
0.0
  0
VERTEX
  5
46E
  8
0
  6
CONTINUOUS
 62
     7
 10
96.0976911846
 20
112.9604433387
 30
0.0
  0
VERTEX
  5
46F
  8
0
  6
CONTINUOUS
 62
     7
 10
96.009802982
 20
112.8991672291
 30
0.0
  0
VERTEX
  5
470
  8
0
  6
CONTINUOUS
 62
     7
 10
95.8822266734
 20
112.8582157333
 30
0.0
  0
VERTEX
  5
471
  8
0
  6
CONTINUOUS
 62
     7
 10
95.7343943292
 20
112.843833939
 30
0.0
  0
VERTEX
  5
472
  8
0
  6
CONTINUOUS
 62
     7
 10
95.5888339304
 20
112.8582157333
 30
0.0
  0
VERTEX
  5
473
  8
0
  6
CONTINUOUS
 62
     7
 10
95.4677268811
 20
112.8991672291
 30
0.0
  0
VERTEX
  5
474
  8
0
  6
CONTINUOUS
 62
     7
 10
95.3895186924
 20
112.9604433387
 30
0.0
  0
VERTEX
  5
475
  8
0
  6
CONTINUOUS
 62
     7
 10
95.3661061003
 20
113.0327047417
 30
0.0
  0
VERTEX
  5
476
  8
0
  6
CONTINUOUS
 62
     7
 10
95.4010316182
 20
113.1049459161
 30
0.0
  0
VERTEX
  5
477
  8
0
  6
CONTINUOUS
 62
     7
 10
95.4889570212
 20
113.1661731891
 30
0.0
  0
SEQEND
  5
51F
  8
0
  6
CONTINUOUS
 62
     7
  0
POLYLINE
  5
111
  8
0
  6
CONTINUOUS
 62
     7
 66
     1
 10
0.0
 20
0.0
 30
0.0
  0
VERTEX
  5
478
  8
0
  6
CONTINUOUS
 62
     7
 10
161.5003359378
 20
79.3261649658
 30
0.0
  0
VERTEX
  5
479
  8
0
  6
CONTINUOUS
 62
     7
 10
161.6306545943
 20
79.3726083353
 30
0.0
  0
VERTEX
  5
47A
  8
0
  6
CONTINUOUS
 62
     7
 10
161.7861157511
 20
79.3889152167
 30
0.0
  0
VERTEX
  5
47B
  8
0
  6
CONTINUOUS
 62
     7
 10
161.9430759956
 20
79.3726083353
 30
0.0
  0
VERTEX
  5
47C
  8
0
  6
CONTINUOUS
 62
     7
 10
162.0776641803
 20
79.3261649658
 30
0.0
  0
VERTEX
  5
47D
  8
0
  6
CONTINUOUS
 62
     7
 10
162.1694011722
 20
79.25664289
 30
0.0
  0
VERTEX
  5
47E
  8
0
  6
CONTINUOUS
 62
     7
 10
162.2043113468
 20
79.1746134063
 30
0.0
  0
VERTEX
  5
47F
  8
0
  6
CONTINUOUS
 62
     7
 10
162.1770558024
 20
79.0925594459
 30
0.0
  0
VERTEX
  5
480
  8
0
  6
CONTINUOUS
 62
     7
 10
162.0917592962
 20
79.0229782783
 30
0.0
  0
VERTEX
  5
481
  8
0
  6
CONTINUOUS
 62
     7
 10
161.9613967344
 20
78.9764758167
 30
0.0
  0
VERTEX
  5
482
  8
0
  6
CONTINUOUS
 62
     7
 10
161.8058241489
 20
78.9601444587
 30
0.0
  0
VERTEX
  5
483
  8
0
  6
CONTINUOUS
 62
     7
 10
161.6487502254
 20
78.9764758167
 30
0.0
  0
VERTEX
  5
484
  8
0
  6
CONTINUOUS
 62
     7
 10
161.5141127033
 20
79.0229782783
 30
0.0
  0
VERTEX
  5
485
  8
0
  6
CONTINUOUS
 62
     7
 10
161.4224196165
 20
79.0925594459
 30
0.0
  0
VERTEX
  5
486
  8
0
  6
CONTINUOUS
 62
     7
 10
161.3876208707
 20
79.1746134063
 30
0.0
  0
VERTEX
  5
487
  8
0
  6
CONTINUOUS
 62
     7
 10
161.414990094
 20
79.25664289
 30
0.0
  0
VERTEX
  5
488
  8
0
  6
CONTINUOUS
 62
     7
 10
161.5003359378
 20
79.3261649658
 30
0.0
  0
SEQEND
  5
51E
  8
0
  6
CONTINUOUS
 62
     7
  0
POLYLINE
  5
112
  8
0
  6
CONTINUOUS
 62
     7
 66
     1
 10
0.0
 20
0.0
 30
0.0
  0
VERTEX
  5
489
  8
0
  6
CONTINUOUS
 62
     7
 10
111.5536091829
 20
52.470351976
 30
0.0
  0
VERTEX
  5
48A
  8
0
  6
CONTINUOUS
 62
     7
 10
111.6947175449
 20
52.521442892
 30
0.0
  0
VERTEX
  5
48B
  8
0
  6
CONTINUOUS
 62
     7
 10
111.8593245966
 20
52.5393814883
 30
0.0
  0
VERTEX
  5
48C
  8
0
  6
CONTINUOUS
 62
     7
 10
112.0223974912
 20
52.521442892
 30
0.0
  0
VERTEX
  5
48D
  8
0
  6
CONTINUOUS
 62
     7
 10
112.1591364204
 20
52.470351976
 30
0.0
  0
VERTEX
  5
48E
  8
0
  6
CONTINUOUS
 62
     7
 10
112.2487346121
 20
52.3938721005
 30
0.0
  0
VERTEX
  5
48F
  8
0
  6
CONTINUOUS
 62
     7
 10
112.2775398254
 20
52.3036318553
 30
0.0
  0
VERTEX
  5
490
  8
0
  6
CONTINUOUS
 62
     7
 10
112.2411396362
 20
52.2133633677
 30
0.0
  0
VERTEX
  5
491
  8
0
  6
CONTINUOUS
 62
     7
 10
112.145049052
 20
52.1368153088
 30
0.0
  0
VERTEX
  5
492
  8
0
  6
CONTINUOUS
 62
     7
 10
112.0038864861
 20
52.0856562095
 30
0.0
  0
VERTEX
  5
493
  8
0
  6
CONTINUOUS
 62
     7
 10
111.8391544058
 20
52.0676893707
 30
0.0
  0
VERTEX
  5
494
  8
0
  6
CONTINUOUS
 62
     7
 10
111.6759588979
 20
52.0856562095
 30
0.0
  0
VERTEX
  5
495
  8
0
  6
CONTINUOUS
 62
     7
 10
111.5391715962
 20
52.1368153088
 30
0.0
  0
VERTEX
  5
496
  8
0
  6
CONTINUOUS
 62
     7
 10
111.4496276083
 20
52.2133633677
 30
0.0
  0
VERTEX
  5
497
  8
0
  6
CONTINUOUS
 62
     7
 10
111.4209474236
 20
52.3036318553
 30
0.0
  0
VERTEX
  5
498
  8
0
  6
CONTINUOUS
 62
     7
 10
111.4574702259
 20
52.3938721005
 30
0.0
  0
VERTEX
  5
499
  8
0
  6
CONTINUOUS
 62
     7
 10
111.5536091829
 20
52.470351976
 30
0.0
  0
SEQEND
  5
51D
  8
0
  6
CONTINUOUS
 62
     7
  0
LINE
  5
113
  8
0
  6
CONTINUOUS
 62
     7
 10
187.5552206499
 20
2.8455545885
 30
0.0
 11
187.6852463033
 21
6.5874643656
 31
0.0
  0
LINE
  5
114
  8
0
  6
CONTINUOUS
 62
     7
 10
187.5552206499
 20
2.8455545885
 30
0.0
 11
41.6746001991
 21
86.011722549
 31
0.0
  0
LINE
  5
115
  8
0
  6
CONTINUOUS
 62
     7
 10
41.6746001991
 20
86.011722549
 30
0.0
 11
41.4651388365
 21
89.4393312044
 31
0.0
  0
LINE
  5
116
  8
0
  6
CONTINUOUS
 62
     7
 10
241.8070799047
 20
36.9425747301
 30
0.0
 11
242.0606778437
 21
40.5624041176
 31
0.0
  0
LINE
  5
117
  8
0
  6
CONTINUOUS
 62
     7
 10
241.8070799047
 20
36.9425747301
 30
0.0
 11
187.5552206499
 21
2.8455545885
 31
0.0
  0
POLYLINE
  5
118
  8
0
  6
CONTINUOUS
 62
     7
 66
     1
 10
0.0
 20
0.0
 30
0.0
  0
VERTEX
  5
49A
  8
0
  6
CONTINUOUS
 62
     7
 10
53.8331841214
 20
85.6671154096
 30
0.0
  0
VERTEX
  5
49B
  8
0
  6
CONTINUOUS
 62
     7
 10
53.8970445467
 20
85.8519603198
 30
0.0
  0
VERTEX
  5
49C
  8
0
  6
CONTINUOUS
 62
     7
 10
53.9379018357
 20
86.209026566
 30
0.0
  0
SEQEND
  5
51C
  8
0
  6
CONTINUOUS
 62
     7
  0
LINE
  5
119
  8
0
  6
CONTINUOUS
 62
     7
 10
53.9379018357
 20
86.209026566
 30
0.0
 11
183.1069177632
 21
13.5323377769
 31
0.0
  0
ARC
  5
11A
  8
0
  6
CONTINUOUS
 62
     7
 10
179.6260278246
 20
18.9838196184
 30
0.0
 40
6.468017395881373
 50
296.4134080612
 51
302.5591181444
  0
LINE
  5
11B
  8
0
  6
CONTINUOUS
 62
     7
 10
183.1069177632
 20
13.5323377769
 30
0.0
 11
183.1420646964
 21
14.6484375441
 31
0.0
  0
LINE
  5
11C
  8
0
  6
CONTINUOUS
 62
     7
 10
53.9379018357
 20
86.209026566
 30
0.0
 11
53.8829658315
 21
87.2416275527
 31
0.0
  0
LINE
  5
11D
  8
0
  6
CONTINUOUS
 62
     7
 10
206.2123202398
 20
29.9570818902
 30
0.0
 11
206.1610906338
 21
28.8575135676
 31
0.0
  0
ARC
  5
11E
  8
0
  6
CONTINUOUS
 62
     7
 10
61.7899236391
 20
92.3661818285
 30
0.0
 40
4.430363426348765
 50
348.2097700592
 51
7.9913816275
  0
POLYLINE
  5
11F
  8
0
  6
CONTINUOUS
 62
     7
 66
     1
 10
0.0
 20
0.0
 30
0.0
  0
VERTEX
  5
49D
  8
0
  6
CONTINUOUS
 62
     7
 10
77.951664381
 20
97.2470342988
 30
0.0
  0
VERTEX
  5
49E
  8
0
  6
CONTINUOUS
 62
     7
 10
78.0119863709
 20
97.4321079584
 30
0.0
  0
VERTEX
  5
49F
  8
0
  6
CONTINUOUS
 62
     7
 10
78.0358220396
 20
97.7017884728
 30
0.0
  0
SEQEND
  5
51B
  8
0
  6
CONTINUOUS
 62
     7
  0
LINE
  5
120
  8
0
  6
CONTINUOUS
 62
     7
 10
78.0358220396
 20
97.7017884728
 30
0.0
 11
77.9977414575
 21
98.7200014598
 31
0.0
  0
ARC
  5
121
  8
0
  6
CONTINUOUS
 62
     7
 10
86.5506384726
 20
103.6924787486
 30
0.0
 40
3.154180865891929
 50
344.9327929625
 51
11.019264821
  0
ARC
  5
122
  8
0
  6
CONTINUOUS
 62
     7
 10
92.6701036084
 20
111.8976209207
 30
0.0
 40
3.095711362202375
 50
345.5048643692
 51
11.1847511891
  0
POLYLINE
  5
123
  8
0
  6
CONTINUOUS
 62
     8
 66
     1
 10
0.0
 20
0.0
 30
0.0
  0
VERTEX
  5
4A0
  8
0
  6
CONTINUOUS
 62
     8
 10
186.4267361127
 20
44.7052702463
 30
0.0
  0
VERTEX
  5
4A1
  8
0
  6
CONTINUOUS
 62
     8
 10
186.357957936
 20
44.4983781858
 30
0.0
  0
VERTEX
  5
4A2
  8
0
  6
CONTINUOUS
 62
     8
 10
186.1226275021
 20
44.2867430621
 30
0.0
  0
VERTEX
  5
4A3
  8
0
  6
CONTINUOUS
 62
     8
 10
185.7553385291
 20
44.1452475822
 30
0.0
  0
VERTEX
  5
4A4
  8
0
  6
CONTINUOUS
 62
     8
 10
185.3120807135
 20
44.0955447341
 30
0.0
  0
VERTEX
  5
4A5
  8
0
  6
CONTINUOUS
 62
     8
 10
184.8605321329
 20
44.1452475822
 30
0.0
  0
VERTEX
  5
4A6
  8
0
  6
CONTINUOUS
 62
     8
 10
184.4696407745
 20
44.2867430621
 30
0.0
  0
VERTEX
  5
4A7
  8
0
  6
CONTINUOUS
 62
     8
 10
184.1990081971
 20
44.4983781858
 30
0.0
  0
VERTEX
  5
4A8
  8
0
  6
CONTINUOUS
 62
     8
 10
184.0897619472
 20
44.7478220321
 30
0.0
  0
VERTEX
  5
4A9
  8
0
  6
CONTINUOUS
 62
     8
 10
184.0886109339
 20
44.7835543763
 30
0.0
  0
SEQEND
  5
51A
  8
0
  6
CONTINUOUS
 62
     8
  0
POLYLINE
  5
124
  8
0
  6
CONTINUOUS
 62
     8
 66
     1
 10
0.0
 20
0.0
 30
0.0
  0
VERTEX
  5
4AA
  8
0
  6
CONTINUOUS
 62
     8
 10
184.4706538892
 20
48.0734457933
 30
0.0
  0
VERTEX
  5
4AB
  8
0
  6
CONTINUOUS
 62
     8
 10
184.2553053361
 20
48.1157566918
 30
0.0
  0
VERTEX
  5
4AC
  8
0
  6
CONTINUOUS
 62
     8
 10
183.9558873129
 20
48.0146090701
 30
0.0
  0
VERTEX
  5
4AD
  8
0
  6
CONTINUOUS
 62
     8
 10
183.6516365701
 20
47.7649391935
 30
0.0
  0
VERTEX
  5
4AE
  8
0
  6
CONTINUOUS
 62
     8
 10
183.3889873747
 20
47.4047471794
 30
0.0
  0
VERTEX
  5
4AF
  8
0
  6
CONTINUOUS
 62
     8
 10
183.208054856
 20
46.9889906334
 30
0.0
  0
VERTEX
  5
4B0
  8
0
  6
CONTINUOUS
 62
     8
 10
183.1364520151
 20
46.5811465068
 30
0.0
  0
VERTEX
  5
4B1
  8
0
  6
CONTINUOUS
 62
     8
 10
183.1850461908
 20
46.2434406013
 30
0.0
  0
VERTEX
  5
4B2
  8
0
  6
CONTINUOUS
 62
     8
 10
183.346324364
 20
46.0272949634
 30
0.0
  0
VERTEX
  5
4B3
  8
0
  6
CONTINUOUS
 62
     8
 10
183.3741312135
 20
46.0102652942
 30
0.0
  0
SEQEND
  5
519
  8
0
  6
CONTINUOUS
 62
     8
  0
POLYLINE
  5
125
  8
0
  6
CONTINUOUS
 62
     8
 66
     1
 10
0.0
 20
0.0
 30
0.0
  0
VERTEX
  5
4B4
  8
0
  6
CONTINUOUS
 62
     8
 10
50.6849795081
 20
117.1021101661
 30
0.0
  0
VERTEX
  5
4B5
  8
0
  6
CONTINUOUS
 62
     8
 10
50.7262070028
 20
117.4721334721
 30
0.0
  0
VERTEX
  5
4B6
  8
0
  6
CONTINUOUS
 62
     8
 10
50.8808126996
 20
117.8399042692
 30
0.0
  0
VERTEX
  5
4B7
  8
0
  6
CONTINUOUS
 62
     8
 10
51.1252103592
 20
118.1492905708
 30
0.0
  0
VERTEX
  5
4B8
  8
0
  6
CONTINUOUS
 62
     8
 10
51.422083004
 20
118.3531023853
 30
0.0
  0
VERTEX
  5
4B9
  8
0
  6
CONTINUOUS
 62
     8
 10
51.7261284438
 20
118.4203279965
 30
0.0
  0
VERTEX
  5
4BA
  8
0
  6
CONTINUOUS
 62
     8
 10
51.9539079375
 20
118.3627222708
 30
0.0
  0
SEQEND
  5
518
  8
0
  6
CONTINUOUS
 62
     8
  0
ARC
  5
126
  8
0
  6
CONTINUOUS
 62
     8
 10
51.2907841486
 20
117.0753799327
 30
0.0
 40
0.6063940697405943
 50
177.4735472188
 51
239.6728405136
  0
POLYLINE
  5
127
  8
0
  6
CONTINUOUS
 62
     8
 66
     1
 10
0.0
 20
0.0
 30
0.0
  0
VERTEX
  5
4BB
  8
0
  6
CONTINUOUS
 62
     8
 10
195.3597347948
 20
56.1173869148
 30
0.0
  0
VERTEX
  5
4BC
  8
0
  6
CONTINUOUS
 62
     8
 10
195.1600062256
 20
56.1568884899
 30
0.0
  0
VERTEX
  5
4BD
  8
0
  6
CONTINUOUS
 62
     8
 10
194.8685060747
 20
56.0599231668
 30
0.0
  0
VERTEX
  5
4BE
  8
0
  6
CONTINUOUS
 62
     8
 10
194.5711895659
 20
55.8157167365
 30
0.0
  0
VERTEX
  5
4BF
  8
0
  6
CONTINUOUS
 62
     8
 10
194.3134303434
 20
55.4614365073
 30
0.0
  0
VERTEX
  5
4C0
  8
0
  6
CONTINUOUS
 62
     8
 10
194.1345945073
 20
55.0511359697
 30
0.0
  0
VERTEX
  5
4C1
  8
0
  6
CONTINUOUS
 62
     8
 10
194.0619743444
 20
54.6474567041
 30
0.0
  0
VERTEX
  5
4C2
  8
0
  6
CONTINUOUS
 62
     8
 10
194.1065945087
 20
54.3119878494
 30
0.0
  0
VERTEX
  5
4C3
  8
0
  6
CONTINUOUS
 62
     8
 10
194.2615519415
 20
54.0958119492
 30
0.0
  0
VERTEX
  5
4C4
  8
0
  6
CONTINUOUS
 62
     8
 10
194.3016865313
 20
54.0713378384
 30
0.0
  0
SEQEND
  5
517
  8
0
  6
CONTINUOUS
 62
     8
  0
POLYLINE
  5
128
  8
0
  6
CONTINUOUS
 62
     8
 66
     1
 10
0.0
 20
0.0
 30
0.0
  0
VERTEX
  5
4C5
  8
0
  6
CONTINUOUS
 62
     8
 10
206.2320778202
 20
61.7097841255
 30
0.0
  0
VERTEX
  5
4C6
  8
0
  6
CONTINUOUS
 62
     8
 10
206.3060153619
 20
62.1097827365
 30
0.0
  0
VERTEX
  5
4C7
  8
0
  6
CONTINUOUS
 62
     8
 10
206.4831023814
 20
62.515299422
 30
0.0
  0
VERTEX
  5
4C8
  8
0
  6
CONTINUOUS
 62
     8
 10
206.7363140723
 20
62.864425007
 30
0.0
  0
VERTEX
  5
4C9
  8
0
  6
CONTINUOUS
 62
     8
 10
207.0269808109
 20
63.1038942652
 30
0.0
  0
VERTEX
  5
4CA
  8
0
  6
CONTINUOUS
 62
     8
 10
207.310745952
 20
63.1972619409
 30
0.0
  0
VERTEX
  5
4CB
  8
0
  6
CONTINUOUS
 62
     8
 10
207.495938364
 20
63.1604458529
 30
0.0
  0
SEQEND
  5
516
  8
0
  6
CONTINUOUS
 62
     8
  0
POLYLINE
  5
129
  8
0
  6
CONTINUOUS
 62
     8
 66
     1
 10
0.0
 20
0.0
 30
0.0
  0
VERTEX
  5
4CC
  8
0
  6
CONTINUOUS
 62
     8
 10
206.4661501475
 20
61.1321425858
 30
0.0
  0
VERTEX
  5
4CD
  8
0
  6
CONTINUOUS
 62
     8
 10
206.4210720641
 20
61.1601973304
 30
0.0
  0
VERTEX
  5
4CE
  8
0
  6
CONTINUOUS
 62
     8
 10
206.2725173755
 20
61.3763300964
 30
0.0
  0
VERTEX
  5
4CF
  8
0
  6
CONTINUOUS
 62
     8
 10
206.2320778202
 20
61.7097841255
 30
0.0
  0
SEQEND
  5
515
  8
0
  6
CONTINUOUS
 62
     8
  0
POLYLINE
  5
12A
  8
0
  6
CONTINUOUS
 62
     8
 66
     1
 10
0.0
 20
0.0
 30
0.0
  0
VERTEX
  5
4D0
  8
0
  6
CONTINUOUS
 62
     8
 10
64.3559823126
 20
123.9678236732
 30
0.0
  0
VERTEX
  5
4D1
  8
0
  6
CONTINUOUS
 62
     8
 10
64.1439732107
 20
124.0212589113
 30
0.0
  0
VERTEX
  5
4D2
  8
0
  6
CONTINUOUS
 62
     8
 10
63.8470503201
 20
123.9564789427
 30
0.0
  0
VERTEX
  5
4D3
  8
0
  6
CONTINUOUS
 62
     8
 10
63.5561661205
 20
123.756135054
 30
0.0
  0
VERTEX
  5
4D4
  8
0
  6
CONTINUOUS
 62
     8
 10
63.3157072175
 20
123.4507106526
 30
0.0
  0
VERTEX
  5
4D5
  8
0
  6
CONTINUOUS
 62
     8
 10
63.1623876511
 20
123.0867902224
 30
0.0
  0
VERTEX
  5
4D6
  8
0
  6
CONTINUOUS
 62
     8
 10
63.1195970989
 20
122.7199166015
 30
0.0
  0
VERTEX
  5
4D7
  8
0
  6
CONTINUOUS
 62
     8
 10
63.1938117566
 20
122.4060533709
 30
0.0
  0
VERTEX
  5
4D8
  8
0
  6
CONTINUOUS
 62
     8
 10
63.3736309056
 20
122.1930001778
 30
0.0
  0
VERTEX
  5
4D9
  8
0
  6
CONTINUOUS
 62
     8
 10
63.4175751112
 20
122.1669695079
 30
0.0
  0
SEQEND
  5
514
  8
0
  6
CONTINUOUS
 62
     8
  0
POLYLINE
  5
12B
  8
0
  6
CONTINUOUS
 62
     8
 66
     1
 10
0.0
 20
0.0
 30
0.0
  0
VERTEX
  5
4DA
  8
0
  6
CONTINUOUS
 62
     8
 10
75.2843316106
 20
128.2157931996
 30
0.0
  0
VERTEX
  5
4DB
  8
0
  6
CONTINUOUS
 62
     8
 10
75.3286080212
 20
128.5795659594
 30
0.0
  0
VERTEX
  5
4DC
  8
0
  6
CONTINUOUS
 62
     8
 10
75.4806605647
 20
128.9397156294
 30
0.0
  0
VERTEX
  5
4DD
  8
0
  6
CONTINUOUS
 62
     8
 10
75.7172932017
 20
129.2412763089
 30
0.0
  0
VERTEX
  5
4DE
  8
0
  6
CONTINUOUS
 62
     8
 10
76.0023775683
 20
129.4382539863
 30
0.0
  0
VERTEX
  5
4DF
  8
0
  6
CONTINUOUS
 62
     8
 10
76.2924137519
 20
129.5006780433
 30
0.0
  0
VERTEX
  5
4E0
  8
0
  6
CONTINUOUS
 62
     8
 10
76.4896374048
 20
129.4511088861
 30
0.0
  0
SEQEND
  5
513
  8
0
  6
CONTINUOUS
 62
     8
  0
ARC
  5
12C
  8
0
  6
CONTINUOUS
 62
     8
 10
75.875211369
 20
128.1741522066
 30
0.0
 40
0.5923452212840361
 50
175.9688665426
 51
240.1424610303
  0
POLYLINE
  5
12D
  8
0
  6
CONTINUOUS
 62
     8
 66
     1
 10
0.0
 20
0.0
 30
0.0
  0
VERTEX
  5
4E1
  8
0
  6
CONTINUOUS
 62
     8
 10
219.3382208249
 20
70.0323727243
 30
0.0
  0
VERTEX
  5
4E2
  8
0
  6
CONTINUOUS
 62
     8
 10
219.1665198987
 20
70.066726518
 30
0.0
  0
VERTEX
  5
4E3
  8
0
  6
CONTINUOUS
 62
     8
 10
218.8902023606
 20
69.9768114315
 30
0.0
  0
VERTEX
  5
4E4
  8
0
  6
CONTINUOUS
 62
     8
 10
218.6059520366
 20
69.7419226638
 30
0.0
  0
VERTEX
  5
4E5
  8
0
  6
CONTINUOUS
 62
     8
 10
218.3571443366
 20
69.3978073428
 30
0.0
  0
VERTEX
  5
4E6
  8
0
  6
CONTINUOUS
 62
     8
 10
218.1817744507
 20
68.9969645617
 30
0.0
  0
VERTEX
  5
4E7
  8
0
  6
CONTINUOUS
 62
     8
 10
218.10660456
 20
68.6005879693
 30
0.0
  0
VERTEX
  5
4E8
  8
0
  6
CONTINUOUS
 62
     8
 10
218.1430521575
 20
68.2691504169
 30
0.0
  0
VERTEX
  5
4E9
  8
0
  6
CONTINUOUS
 62
     8
 10
218.285467417
 20
68.0531224001
 30
0.0
  0
VERTEX
  5
4EA
  8
0
  6
CONTINUOUS
 62
     8
 10
218.3387913709
 20
68.019744619
 30
0.0
  0
SEQEND
  5
512
  8
0
  6
CONTINUOUS
 62
     8
  0
POLYLINE
  5
12E
  8
0
  6
CONTINUOUS
 62
     8
 66
     1
 10
0.0
 20
0.0
 30
0.0
  0
VERTEX
  5
4EB
  8
0
  6
CONTINUOUS
 62
     8
 10
229.6961934304
 20
75.3260419841
 30
0.0
  0
VERTEX
  5
4EC
  8
0
  6
CONTINUOUS
 62
     8
 10
229.7725155874
 20
75.7188541773
 30
0.0
  0
VERTEX
  5
4ED
  8
0
  6
CONTINUOUS
 62
     8
 10
229.9461992662
 20
76.1151292664
 30
0.0
  0
VERTEX
  5
4EE
  8
0
  6
CONTINUOUS
 62
     8
 10
230.1907401722
 20
76.4543728242
 30
0.0
  0
VERTEX
  5
4EF
  8
0
  6
CONTINUOUS
 62
     8
 10
230.4687964829
 20
76.6848306631
 30
0.0
  0
VERTEX
  5
4F0
  8
0
  6
CONTINUOUS
 62
     8
 10
230.7379399421
 20
76.7714309473
 30
0.0
  0
VERTEX
  5
4F1
  8
0
  6
CONTINUOUS
 62
     8
 10
230.8967152508
 20
76.7395340136
 30
0.0
  0
SEQEND
  5
511
  8
0
  6
CONTINUOUS
 62
     8
  0
POLYLINE
  5
12F
  8
0
  6
CONTINUOUS
 62
     8
 66
     1
 10
0.0
 20
0.0
 30
0.0
  0
VERTEX
  5
4F2
  8
0
  6
CONTINUOUS
 62
     8
 10
229.9227688596
 20
74.7441055756
 30
0.0
  0
VERTEX
  5
4F3
  8
0
  6
CONTINUOUS
 62
     8
 10
229.8653536716
 20
74.7807546051
 30
0.0
  0
VERTEX
  5
4F4
  8
0
  6
CONTINUOUS
 62
     8
 10
229.7288278341
 20
74.9966207019
 30
0.0
  0
VERTEX
  5
4F5
  8
0
  6
CONTINUOUS
 62
     8
 10
229.6961934304
 20
75.3260419841
 30
0.0
  0
SEQEND
  5
510
  8
0
  6
CONTINUOUS
 62
     8
  0
POLYLINE
  5
130
  8
0
  6
CONTINUOUS
 62
     8
 66
     1
 10
0.0
 20
0.0
 30
0.0
  0
VERTEX
  5
4F6
  8
0
  6
CONTINUOUS
 62
     8
 10
88.3634840058
 20
134.8165148589
 30
0.0
  0
VERTEX
  5
4F7
  8
0
  6
CONTINUOUS
 62
     8
 10
88.1801230447
 20
134.8624972425
 30
0.0
  0
VERTEX
  5
4F8
  8
0
  6
CONTINUOUS
 62
     8
 10
87.896747909
 20
134.8023434231
 30
0.0
  0
VERTEX
  5
4F9
  8
0
  6
CONTINUOUS
 62
     8
 10
87.6172827061
 20
134.6086343612
 30
0.0
  0
VERTEX
  5
4FA
  8
0
  6
CONTINUOUS
 62
     8
 10
87.3843683281
 20
134.3108427756
 30
0.0
  0
VERTEX
  5
4FB
  8
0
  6
CONTINUOUS
 62
     8
 10
87.2335640346
 20
133.9543866968
 30
0.0
  0
VERTEX
  5
4FC
  8
0
  6
CONTINUOUS
 62
     8
 10
87.1878750993
 20
133.593666924
 30
0.0
  0
VERTEX
  5
4FD
  8
0
  6
CONTINUOUS
 62
     8
 10
87.254223079
 20
133.283706603
 30
0.0
  0
VERTEX
  5
4FE
  8
0
  6
CONTINUOUS
 62
     8
 10
87.422412164
 20
133.071711814
 30
0.0
  0
VERTEX
  5
4FF
  8
0
  6
CONTINUOUS
 62
     8
 10
87.4815397427
 20
133.0362481219
 30
0.0
  0
SEQEND
  5
50F
  8
0
  6
CONTINUOUS
 62
     8
  0
LINE
  5
131
  8
0
  6
CONTINUOUS
 62
     8
 10
187.212960973
 20
12.3622736831
 30
0.0
 11
187.178132933
 21
11.3466794673
 31
0.0
  0
LINE
  5
132
  8
0
  6
CONTINUOUS
 62
     8
 10
183.154113394
 20
14.64176234
 30
0.0
 11
183.0978667921
 21
12.8561067373
 31
0.0
  0
POLYLINE
  5
133
  8
0
  6
CONTINUOUS
 62
     8
 66
     1
 10
0.0
 20
0.0
 30
0.0
  0
VERTEX
  5
500
  8
0
  6
CONTINUOUS
 62
     8
 10
209.6009026265
 20
24.5986669648
 30
0.0
  0
VERTEX
  5
501
  8
0
  6
CONTINUOUS
 62
     8
 10
209.5570666362
 20
24.9593662846
 30
0.0
  0
VERTEX
  5
502
  8
0
  6
CONTINUOUS
 62
     8
 10
209.3505748395
 20
25.6844510917
 30
0.0
  0
VERTEX
  5
503
  8
0
  6
CONTINUOUS
 62
     8
 10
208.9898530313
 20
26.393540796
 30
0.0
  0
VERTEX
  5
504
  8
0
  6
CONTINUOUS
 62
     8
 10
208.4810848514
 20
27.0755978168
 30
0.0
  0
VERTEX
  5
505
  8
0
  6
CONTINUOUS
 62
     8
 10
207.832702297
 20
27.7200788507
 30
0.0
  0
VERTEX
  5
506
  8
0
  6
CONTINUOUS
 62
     8
 10
207.0552278374
 20
28.3170875185
 30
0.0
  0
VERTEX
  5
507
  8
0
  6
CONTINUOUS
 62
     8
 10
206.1610906338
 20
28.8575135676
 30
0.0
  0
SEQEND
  5
50E
  8
0
  6
CONTINUOUS
 62
     8
  0
ARC
  5
134
  8
0
  6
CONTINUOUS
 62
     8
 10
204.6053096618
 20
28.9394683355
 30
0.0
 40
1.557938065719874
 50
330.819327779
 51
356.9845844354
  0
ARC
  5
135
  8
0
  6
CONTINUOUS
 62
     8
 10
187.5873188665
 20
22.4807561677
 30
0.0
 40
6.738921057610316
 50
348.3873774452
 51
1.6269802911
  0
LINE
  5
136
  8
0
  6
CONTINUOUS
 62
     8
 10
206.1610906338
 20
28.8575135676
 30
0.0
 11
186.2565008879
 21
39.5526485974
 31
0.0
  0
LINE
  5
137
  8
0
  6
CONTINUOUS
 62
     8
 10
183.9626673306
 20
40.7851713443
 30
0.0
 11
78.0358220396
 21
97.7017884728
 31
0.0
  0
ARC
  5
138
  8
0
  6
CONTINUOUS
 62
     8
 10
213.3971177706
 20
36.7547195372
 30
0.0
 40
4.433240260120618
 50
345.0895406455
 51
4.0693166967
  0
ARC
  5
139
  8
0
  6
CONTINUOUS
 62
     8
 10
225.4667288721
 20
43.6775124395
 30
0.0
 40
3.70209876312634
 50
339.1098262923
 51
5.2229413362
  0
POLYLINE
  5
13A
  8
0
  6
CONTINUOUS
 62
     8
 66
     1
 10
0.0
 20
0.0
 30
0.0
  0
VERTEX
  5
508
  8
0
  6
CONTINUOUS
 62
     8
 10
53.9379018357
 20
86.209026566
 30
0.0
  0
VERTEX
  5
509
  8
0
  6
CONTINUOUS
 62
     8
 10
53.1418152777
 20
86.7659304557
 30
0.0
  0
VERTEX
  5
50A
  8
0
  6
CONTINUOUS
 62
     8
 10
52.5886612713
 20
87.4009346807
 30
0.0
  0
VERTEX
  5
50B
  8
0
  6
CONTINUOUS
 62
     8
 10
52.2994018308
 20
88.0880503052
 30
0.0
  0
VERTEX
  5
50C
  8
0
  6
CONTINUOUS
 62
     8
 10
52.2909996782
 20
88.4132111483
 30
0.0
  0
SEQEND
  5
50D
  8
0
  6
CONTINUOUS
 62
     8
  0
TEXT
  5
13B
  8
0
  6
CONTINUOUS
 62
     7
 10
0.0
 20
6.732893805
 30
0.0
 40
3.633
  1
Edition tudiante de SolidWorks.
 41
0.6671875
 11
0.0
 21
5.4495
 31
0.0
 73
     1
  0
TEXT
  5
13C
  8
0
  6
CONTINUOUS
 62
     7
 10
0.0
 20
1.283393805
 30
0.0
 40
3.633
  1
A usage universitaire uniquement.
 41
0.6681818182
 11
0.0
 21
0.0
 31
0.0
 73
     1
  0
ENDSEC
  0
EOF
