  0
SECTION
  2
HEADER
  9
$ACADVER
  1
AC1009
  9
$DWGCODEPAGE
  3
ansi_1252
  9
$INSBASE
 10
0.0
 20
0.0
 30
0.0
  9
$EXTMIN
 10
0.0
 20
0.0
 30
0.0
  9
$EXTMAX
 10
215.9
 20
279.4
 30
0.0
  9
$LIMMIN
 10
0.0
 20
0.0
  9
$LIMMAX
 10
215.9
 20
279.4
  9
$ORTHOMODE
 70
     0
  9
$REGENMODE
 70
     1
  9
$FILLMODE
 70
     1
  9
$QTEXTMODE
 70
     0
  9
$MIRRTEXT
 70
     1
  9
$DRAGMODE
 70
     2
  9
$LTSCALE
 40
1.0
  9
$OSMODE
 70
    37
  9
$ATTMODE
 70
     1
  9
$TEXTSIZE
 40
3.5
  9
$TRACEWID
 40
1.0
  9
$TEXTSTYLE
  7
STANDARD
  9
$CLAYER
  8
0
  9
$CELTYPE
  6
BYLAYER
  9
$CECOLOR
 62
   256
  9
$DIMSCALE
 40
1.0
  9
$DIMASZ
 40
3.302
  9
$DIMEXO
 40
1.0
  9
$DIMDLI
 40
3.75
  9
$DIMRND
 40
0.0
  9
$DIMDLE
 40
0.0
  9
$DIMEXE
 40
1.0
  9
$DIMTP
 40
0.0
  9
$DIMTM
 40
0.0
  9
$DIMTXT
 40
3.5
  9
$DIMCEN
 40
2.5
  9
$DIMTSZ
 40
0.0
  9
$DIMTOL
 70
     0
  9
$DIMLIM
 70
     0
  9
$DIMTIH
 70
     1
  9
$DIMTOH
 70
     1
  9
$DIMSE1
 70
     0
  9
$DIMSE2
 70
     0
  9
$DIMTAD
 70
     1
  9
$DIMZIN
 70
     0
  9
$DIMBLK
  1

  9
$DIMASO
 70
     1
  9
$DIMSHO
 70
     1
  9
$DIMPOST
  1

  9
$DIMAPOST
  1

  9
$DIMALT
 70
     0
  9
$DIMALTD
 70
     3
  9
$DIMALTF
 40
0.0393700787
  9
$DIMLFAC
 40
10.0
  9
$DIMTOFL
 70
     1
  9
$DIMTVP
 40
0.0
  9
$DIMTIX
 70
     0
  9
$DIMSOXD
 70
     0
  9
$DIMSAH
 70
     0
  9
$DIMBLK1
  1

  9
$DIMBLK2
  1

  9
$DIMSTYLE
  2
ISO-25
  9
$DIMCLRD
 70
     0
  9
$DIMCLRE
 70
     0
  9
$DIMCLRT
 70
     0
  9
$DIMTFAC
 40
1.0
  9
$DIMGAP
 40
1.524
  9
$LUNITS
 70
     2
  9
$LUPREC
 70
     2
  9
$SKETCHINC
 40
1.0
  9
$FILLETRAD
 40
10.0
  9
$AUNITS
 70
     0
  9
$AUPREC
 70
     2
  9
$MENU
  1
.
  9
$ELEVATION
 40
0.0
  9
$PELEVATION
 40
0.0
  9
$THICKNESS
 40
0.0
  9
$LIMCHECK
 70
     0
  9
$CHAMFERA
 40
10.0
  9
$CHAMFERB
 40
10.0
  9
$SKPOLY
 70
     0
  9
$TDCREATE
 40
2456428.407765671
  9
$TDUPDATE
 40
2456428.40776603
  9
$TDINDWG
 40
0.0000000116
  9
$TDUSRTIMER
 40
0.0000000116
  9
$USRTIMER
 70
     1
  9
$ANGBASE
 50
0.0
  9
$ANGDIR
 70
     0
  9
$PDMODE
 70
     0
  9
$PDSIZE
 40
-1.0
  9
$PLINEWID
 40
0.0
  9
$COORDS
 70
     1
  9
$SPLFRAME
 70
     0
  9
$SPLINETYPE
 70
     6
  9
$SPLINESEGS
 70
     8
  9
$ATTDIA
 70
     0
  9
$ATTREQ
 70
     1
  9
$HANDLING
 70
     1
  9
$HANDSEED
  5
51D
  9
$SURFTAB1
 70
     6
  9
$SURFTAB2
 70
     6
  9
$SURFTYPE
 70
     6
  9
$SURFU
 70
     6
  9
$SURFV
 70
     6
  9
$UCSNAME
  2

  9
$UCSORG
 10
0.0
 20
0.0
 30
0.0
  9
$UCSXDIR
 10
1.0
 20
0.0
 30
0.0
  9
$UCSYDIR
 10
0.0
 20
1.0
 30
0.0
  9
$PUCSNAME
  2

  9
$PUCSORG
 10
0.0
 20
0.0
 30
0.0
  9
$PUCSXDIR
 10
1.0
 20
0.0
 30
0.0
  9
$PUCSYDIR
 10
0.0
 20
1.0
 30
0.0
  9
$USERI1
 70
     0
  9
$USERI2
 70
     0
  9
$USERI3
 70
     0
  9
$USERI4
 70
     0
  9
$USERI5
 70
     0
  9
$USERR1
 40
0.0
  9
$USERR2
 40
0.0
  9
$USERR3
 40
0.0
  9
$USERR4
 40
0.0
  9
$USERR5
 40
0.0
  9
$WORLDVIEW
 70
     1
  9
$SHADEDGE
 70
     3
  9
$SHADEDIF
 70
    70
  9
$TILEMODE
 70
     1
  9
$MAXACTVP
 70
    64
  9
$PLIMCHECK
 70
     0
  9
$PEXTMIN
 10
1.0000000000E+20
 20
1.0000000000E+20
 30
1.0000000000E+20
  9
$PEXTMAX
 10
-1.0000000000E+20
 20
-1.0000000000E+20
 30
-1.0000000000E+20
  9
$PLIMMIN
 10
0.0
 20
0.0
  9
$PLIMMAX
 10
420.0
 20
297.0
  9
$UNITMODE
 70
     0
  9
$VISRETAIN
 70
     1
  9
$PLINEGEN
 70
     0
  9
$PSLTSCALE
 70
     1
  0
ENDSEC
  0
SECTION
  2
TABLES
  0
TABLE
  2
VPORT
 70
     1
  0
VPORT
  2
*ACTIVE
 70
     0
 10
0.0
 20
0.0
 11
1.0
 21
1.0
 12
107.95
 22
139.7
 13
0.0
 23
0.0
 14
10.0
 24
10.0
 15
10.0
 25
10.0
 16
0.0
 26
0.0
 36
1.0
 17
0.0
 27
0.0
 37
0.0
 40
279.4
 41
0.7727272727
 42
50.0
 43
0.0
 44
0.0
 50
0.0
 51
0.0
 71
     0
 72
  2000
 73
     1
 74
     3
 75
     0
 76
     0
 77
     0
 78
     0
  0
ENDTAB
  0
TABLE
  2
LTYPE
 70
     6
  0
LTYPE
  2
CONTINUOUS
 70
     0
  3
Solid line
 72
    65
 73
     0
 40
0.0
  0
LTYPE
  2
HIDDEN
 70
     0
  3
Hidden __ __ __ __ __ __ __ __ __ __ __ __ __ __
 72
    65
 73
     2
 40
1.905
 49
1.27
 49
-0.635
  0
LTYPE
  2
PHANTOM
 70
     0
  3
Phantom ______  __  __  ______  __  __  ______
 72
    65
 73
     6
 40
12.7
 49
6.35
 49
-1.27
 49
1.27
 49
-1.27
 49
1.27
 49
-1.27
  0
LTYPE
  2
CENTER
 70
     0
  3
Center ____ _ ____ _ ____ _ ____ _ ____ _ ____
 72
    65
 73
     4
 40
10.16
 49
6.35
 49
-1.27
 49
1.27
 49
-1.27
  0
LTYPE
  2
CENTERX2
 70
     0
  3
Center (2x) ________  __  ________  __  _____
 72
    65
 73
     4
 40
20.32
 49
12.7
 49
-2.54
 49
2.54
 49
-2.54
  0
LTYPE
  2
DOT2
 70
     0
  3
Dot (.5x) ........................................
 72
    65
 73
     2
 40
0.635
 49
0.0
 49
-0.635
  0
ENDTAB
  0
TABLE
  2
LAYER
 70
     1
  0
LAYER
  2
0
 70
     0
 62
     7
  6
CONTINUOUS
  0
ENDTAB
  0
TABLE
  2
STYLE
 70
     1
  0
STYLE
  2
STANDARD
 70
     0
 40
0.0
 41
1.0
 50
0.0
 71
     0
 42
3.5
  3
txt
  4

  0
ENDTAB
  0
TABLE
  2
VIEW
 70
     0
  0
ENDTAB
  0
TABLE
  2
UCS
 70
     0
  0
ENDTAB
  0
TABLE
  2
APPID
 70
     1
  0
APPID
  2
ACAD
 70
     0
  0
ENDTAB
  0
TABLE
  2
DIMSTYLE
 70
     1
  0
DIMSTYLE
  2
ISO-25
 70
     0
  3

  4

  5

  6

  7

 40
1.0
 41
2.5
 42
0.625
 43
3.75
 44
1.25
 45
0.0
 46
0.0
 47
0.0
 48
0.0
140
2.5
141
2.5
142
0.0
143
0.0393700787
144
1.0
145
0.0
146
1.0
147
0.625
 71
     0
 72
     0
 73
     0
 74
     0
 75
     0
 76
     0
 77
     1
 78
     8
170
     0
171
     3
172
     1
173
     0
174
     0
175
     0
176
     0
177
     0
178
     0
  0
ENDTAB
  0
ENDSEC
  0
SECTION
  2
BLOCKS
  0
BLOCK
  8
0
  2
$MODEL_SPACE
 70
     0
 10
0.0
 20
0.0
 30
0.0
  3
$MODEL_SPACE
  1

  0
ENDBLK
  5
21
  8
0
  0
BLOCK
 67
     1
  8
0
  2
$PAPER_SPACE
 70
     0
 10
0.0
 20
0.0
 30
0.0
  3
$PAPER_SPACE
  1

  0
ENDBLK
  5
1D
 67
     1
  8
0
  0
ENDSEC
  0
SECTION
  2
ENTITIES
  0
POLYLINE
  5
44
  8
0
  6
CONTINUOUS
 62
     7
 66
     1
 10
0.0
 20
0.0
 30
0.0
  0
VERTEX
  5
1C5
  8
0
  6
CONTINUOUS
 62
     7
 10
106.4558426969
 20
75.5909648364
 30
0.0
  0
VERTEX
  5
1C6
  8
0
  6
CONTINUOUS
 62
     7
 10
106.5357546209
 20
75.760463705
 30
0.0
  0
VERTEX
  5
1C7
  8
0
  6
CONTINUOUS
 62
     7
 10
106.5839023824
 20
75.9392484601
 30
0.0
  0
VERTEX
  5
1C8
  8
0
  6
CONTINUOUS
 62
     7
 10
106.5920413364
 20
76.109470906
 30
0.0
  0
VERTEX
  5
1C9
  8
0
  6
CONTINUOUS
 62
     7
 10
106.5544444702
 20
76.2601148389
 30
0.0
  0
VERTEX
  5
1CA
  8
0
  6
CONTINUOUS
 62
     7
 10
106.4839890022
 20
76.3594901328
 30
0.0
  0
VERTEX
  5
1CB
  8
0
  6
CONTINUOUS
 62
     7
 10
106.4262324883
 20
76.3926176997
 30
0.0
  0
SEQEND
  5
51C
  8
0
  6
CONTINUOUS
 62
     7
  0
POLYLINE
  5
45
  8
0
  6
CONTINUOUS
 62
     7
 66
     1
 10
0.0
 20
0.0
 30
0.0
  0
VERTEX
  5
1CC
  8
0
  6
CONTINUOUS
 62
     7
 10
105.7269135778
 20
75.1984597298
 30
0.0
  0
VERTEX
  5
1CD
  8
0
  6
CONTINUOUS
 62
     7
 10
105.8132089863
 20
75.1585866876
 30
0.0
  0
VERTEX
  5
1CE
  8
0
  6
CONTINUOUS
 62
     7
 10
105.9383696666
 20
75.157048626
 30
0.0
  0
VERTEX
  5
1CF
  8
0
  6
CONTINUOUS
 62
     7
 10
106.0718874907
 20
75.2015463849
 30
0.0
  0
VERTEX
  5
1D0
  8
0
  6
CONTINUOUS
 62
     7
 10
106.2110200817
 20
75.2930404239
 30
0.0
  0
VERTEX
  5
1D1
  8
0
  6
CONTINUOUS
 62
     7
 10
106.3420255296
 20
75.424918633
 30
0.0
  0
VERTEX
  5
1D2
  8
0
  6
CONTINUOUS
 62
     7
 10
106.4529476519
 20
75.5848260044
 30
0.0
  0
VERTEX
  5
1D3
  8
0
  6
CONTINUOUS
 62
     7
 10
106.4558426969
 20
75.5909648364
 30
0.0
  0
SEQEND
  5
51B
  8
0
  6
CONTINUOUS
 62
     7
  0
LINE
  5
46
  8
0
  6
CONTINUOUS
 62
     7
 10
106.4369704109
 20
76.3950086762
 30
0.0
 11
105.940616894
 21
76.6926890417
 31
0.0
  0
LINE
  5
47
  8
0
  6
CONTINUOUS
 62
     7
 10
105.2303684938
 20
75.4913389351
 30
0.0
 11
105.7262864557
 21
75.1926286378
 31
0.0
  0
ARC
  5
48
  8
0
  6
CONTINUOUS
 62
     7
 10
106.0245158335
 20
75.7980843649
 30
0.0
 40
0.9516015223039705
 50
147.7846886121
 51
177.9838664739
  0
POLYLINE
  5
49
  8
0
  6
CONTINUOUS
 62
     7
 66
     1
 10
0.0
 20
0.0
 30
0.0
  0
VERTEX
  5
1D4
  8
0
  6
CONTINUOUS
 62
     7
 10
105.9318638403
 20
76.6891684054
 30
0.0
  0
VERTEX
  5
1D5
  8
0
  6
CONTINUOUS
 62
     7
 10
105.8768305366
 20
76.7207150141
 30
0.0
  0
VERTEX
  5
1D6
  8
0
  6
CONTINUOUS
 62
     7
 10
105.7526958035
 20
76.7312928199
 30
0.0
  0
VERTEX
  5
1D7
  8
0
  6
CONTINUOUS
 62
     7
 10
105.6208200944
 20
76.6954533654
 30
0.0
  0
VERTEX
  5
1D8
  8
0
  6
CONTINUOUS
 62
     7
 10
105.4817274659
 20
76.6125391031
 30
0.0
  0
VERTEX
  5
1D9
  8
0
  6
CONTINUOUS
 62
     7
 10
105.347908665
 20
76.487054733
 30
0.0
  0
VERTEX
  5
1DA
  8
0
  6
CONTINUOUS
 62
     7
 10
105.232532576
 20
76.3311890379
 30
0.0
  0
VERTEX
  5
1DB
  8
0
  6
CONTINUOUS
 62
     7
 10
105.2194126678
 20
76.3053854096
 30
0.0
  0
SEQEND
  5
51A
  8
0
  6
CONTINUOUS
 62
     7
  0
ARC
  5
4A
  8
0
  6
CONTINUOUS
 62
     7
 10
105.404814831
 20
75.7835603375
 30
0.0
 40
0.334770794761701
 50
171.7560367551
 51
239.1318858113
  0
POLYLINE
  5
4B
  8
0
  6
CONTINUOUS
 62
     7
 66
     1
 10
0.0
 20
0.0
 30
0.0
  0
VERTEX
  5
1DC
  8
0
  6
CONTINUOUS
 62
     7
 10
61.9582641556
 20
101.5637847027
 30
0.0
  0
VERTEX
  5
1DD
  8
0
  6
CONTINUOUS
 62
     7
 10
62.0160054177
 20
101.5319734686
 30
0.0
  0
VERTEX
  5
1DE
  8
0
  6
CONTINUOUS
 62
     7
 10
62.1427436684
 20
101.5184795721
 30
0.0
  0
VERTEX
  5
1DF
  8
0
  6
CONTINUOUS
 62
     7
 10
62.2770305047
 20
101.5497043139
 30
0.0
  0
VERTEX
  5
1E0
  8
0
  6
CONTINUOUS
 62
     7
 10
62.4143772902
 20
101.6249082448
 30
0.0
  0
VERTEX
  5
1E1
  8
0
  6
CONTINUOUS
 62
     7
 10
62.5436415653
 20
101.7399066834
 30
0.0
  0
VERTEX
  5
1E2
  8
0
  6
CONTINUOUS
 62
     7
 10
62.6528667871
 20
101.8845809893
 30
0.0
  0
VERTEX
  5
1E3
  8
0
  6
CONTINUOUS
 62
     7
 10
62.7335744121
 20
102.0475125826
 30
0.0
  0
VERTEX
  5
1E4
  8
0
  6
CONTINUOUS
 62
     7
 10
62.7792781749
 20
102.2167585784
 30
0.0
  0
VERTEX
  5
1E5
  8
0
  6
CONTINUOUS
 62
     7
 10
62.7873299274
 20
102.3480081778
 30
0.0
  0
SEQEND
  5
519
  8
0
  6
CONTINUOUS
 62
     7
  0
ARC
  5
4C
  8
0
  6
CONTINUOUS
 62
     7
 10
62.4443736065
 20
102.3725623145
 30
0.0
 40
0.343834180441305
 50
355.9048663557
 51
59.4619516213
  0
LINE
  5
4D
  8
0
  6
CONTINUOUS
 62
     7
 10
61.5175935702
 20
101.8212099922
 30
0.0
 11
61.9465473001
 21
101.5628348051
 31
0.0
  0
LINE
  5
4E
  8
0
  6
CONTINUOUS
 62
     7
 10
62.617998819
 20
102.6747609819
 30
0.0
 11
62.1886528685
 21
102.9322545932
 31
0.0
  0
POLYLINE
  5
4F
  8
0
  6
CONTINUOUS
 62
     7
 66
     1
 10
0.0
 20
0.0
 30
0.0
  0
VERTEX
  5
1E6
  8
0
  6
CONTINUOUS
 62
     7
 10
62.1866534859
 20
102.9276524622
 30
0.0
  0
VERTEX
  5
1E7
  8
0
  6
CONTINUOUS
 62
     7
 10
62.1008520418
 20
102.9679534151
 30
0.0
  0
VERTEX
  5
1E8
  8
0
  6
CONTINUOUS
 62
     7
 10
61.9727525732
 20
102.9744435832
 30
0.0
  0
VERTEX
  5
1E9
  8
0
  6
CONTINUOUS
 62
     7
 10
61.8374154972
 20
102.9364714079
 30
0.0
  0
VERTEX
  5
1EA
  8
0
  6
CONTINUOUS
 62
     7
 10
61.7003559501
 20
102.8546739686
 30
0.0
  0
VERTEX
  5
1EB
  8
0
  6
CONTINUOUS
 62
     7
 10
61.5733417494
 20
102.7342098364
 30
0.0
  0
VERTEX
  5
1EC
  8
0
  6
CONTINUOUS
 62
     7
 10
61.467988912
 20
102.5857456287
 30
0.0
  0
VERTEX
  5
1ED
  8
0
  6
CONTINUOUS
 62
     7
 10
61.392409238
 20
102.4208031215
 30
0.0
  0
VERTEX
  5
1EE
  8
0
  6
CONTINUOUS
 62
     7
 10
61.3528694969
 20
102.2514720338
 30
0.0
  0
VERTEX
  5
1EF
  8
0
  6
CONTINUOUS
 62
     7
 10
61.3540676979
 20
102.0895927241
 30
0.0
  0
VERTEX
  5
1F0
  8
0
  6
CONTINUOUS
 62
     7
 10
61.399487929
 20
101.9476687052
 30
0.0
  0
VERTEX
  5
1F1
  8
0
  6
CONTINUOUS
 62
     7
 10
61.4752374248
 20
101.8519427357
 30
0.0
  0
VERTEX
  5
1F2
  8
0
  6
CONTINUOUS
 62
     7
 10
61.528843446
 20
101.8224128061
 30
0.0
  0
SEQEND
  5
518
  8
0
  6
CONTINUOUS
 62
     7
  0
LINE
  5
50
  8
0
  6
CONTINUOUS
 62
     7
 10
143.2956375439
 20
148.8825995983
 30
0.0
 11
143.2960566893
 21
148.8853308111
 31
0.0
  0
LINE
  5
51
  8
0
  6
CONTINUOUS
 62
     7
 10
143.288359778
 20
148.8969353937
 30
0.0
 11
143.2857645231
 21
148.8975992461
 31
0.0
  0
LINE
  5
52
  8
0
  6
CONTINUOUS
 62
     7
 10
93.4956409652
 20
183.4049287111
 30
0.0
 11
93.4943404524
 21
183.3452733848
 31
0.0
  0
LINE
  5
53
  8
0
  6
CONTINUOUS
 62
     7
 10
93.7083340066
 20
182.8455892148
 30
0.0
 11
93.7523762702
 21
182.8054387584
 31
0.0
  0
LINE
  5
54
  8
0
  6
CONTINUOUS
 62
     7
 10
93.7022522537
 20
183.7443804044
 30
0.0
 11
93.6653825441
 21
183.7285622722
 31
0.0
  0
LINE
  5
55
  8
0
  6
CONTINUOUS
 62
     7
 10
94.1033498992
 20
182.7057763456
 30
0.0
 11
94.1401881388
 21
182.7216523584
 31
0.0
  0
LINE
  5
56
  8
0
  6
CONTINUOUS
 62
     7
 10
95.1237706811
 20
185.0587261154
 30
0.0
 11
94.0711239464
 21
184.6083001721
 31
0.0
  0
POLYLINE
  5
57
  8
0
  6
CONTINUOUS
 62
     7
 66
     1
 10
0.0
 20
0.0
 30
0.0
  0
VERTEX
  5
1F3
  8
0
  6
CONTINUOUS
 62
     7
 10
95.9816175657
 20
183.7851777073
 30
0.0
  0
VERTEX
  5
1F4
  8
0
  6
CONTINUOUS
 62
     7
 10
95.9515885542
 20
183.7535196813
 30
0.0
  0
VERTEX
  5
1F5
  8
0
  6
CONTINUOUS
 62
     7
 10
95.8278173207
 20
183.7052737456
 30
0.0
  0
VERTEX
  5
1F6
  8
0
  6
CONTINUOUS
 62
     7
 10
95.6786352521
 20
183.7091383307
 30
0.0
  0
VERTEX
  5
1F7
  8
0
  6
CONTINUOUS
 62
     7
 10
95.5247828426
 20
183.7646930602
 30
0.0
  0
VERTEX
  5
1F8
  8
0
  6
CONTINUOUS
 62
     7
 10
95.3815329917
 20
183.8653987903
 30
0.0
  0
VERTEX
  5
1F9
  8
0
  6
CONTINUOUS
 62
     7
 10
95.263583113
 20
184.0007412623
 30
0.0
  0
VERTEX
  5
1FA
  8
0
  6
CONTINUOUS
 62
     7
 10
95.2357253154
 20
184.0448567098
 30
0.0
  0
SEQEND
  5
517
  8
0
  6
CONTINUOUS
 62
     7
  0
LINE
  5
58
  8
0
  6
CONTINUOUS
 62
     7
 10
118.2361884805
 20
193.9460174162
 30
0.0
 11
118.2396206647
 21
193.9045867537
 31
0.0
  0
LINE
  5
59
  8
0
  6
CONTINUOUS
 62
     7
 10
118.3936385796
 20
193.5412408401
 30
0.0
 11
118.4209703319
 21
193.5100906272
 31
0.0
  0
LINE
  5
5A
  8
0
  6
CONTINUOUS
 62
     7
 10
118.4582238736
 20
194.3653816557
 30
0.0
 11
118.4141058801
 21
194.3464538078
 31
0.0
  0
LINE
  5
5B
  8
0
  6
CONTINUOUS
 62
     7
 10
118.8310988581
 20
193.3625846363
 30
0.0
 11
118.8751797297
 21
193.381581974
 31
0.0
  0
LINE
  5
5C
  8
0
  6
CONTINUOUS
 62
     7
 10
119.752050491
 20
195.5971297425
 30
0.0
 11
118.7809493649
 21
195.1815970415
 31
0.0
  0
POLYLINE
  5
5D
  8
0
  6
CONTINUOUS
 62
     7
 66
     1
 10
0.0
 20
0.0
 30
0.0
  0
VERTEX
  5
1FB
  8
0
  6
CONTINUOUS
 62
     7
 10
120.6233731719
 20
194.3905105389
 30
0.0
  0
VERTEX
  5
1FC
  8
0
  6
CONTINUOUS
 62
     7
 10
120.6030830225
 20
194.3679641358
 30
0.0
  0
VERTEX
  5
1FD
  8
0
  6
CONTINUOUS
 62
     7
 10
120.4917194943
 20
194.3235876135
 30
0.0
  0
VERTEX
  5
1FE
  8
0
  6
CONTINUOUS
 62
     7
 10
120.3690169341
 20
194.3254434819
 30
0.0
  0
VERTEX
  5
1FF
  8
0
  6
CONTINUOUS
 62
     7
 10
120.2255591342
 20
194.3741269509
 30
0.0
  0
VERTEX
  5
200
  8
0
  6
CONTINUOUS
 62
     7
 10
120.0883887921
 20
194.4665415913
 30
0.0
  0
VERTEX
  5
201
  8
0
  6
CONTINUOUS
 62
     7
 10
119.971903278
 20
194.5932087762
 30
0.0
  0
VERTEX
  5
202
  8
0
  6
CONTINUOUS
 62
     7
 10
119.9314035899
 20
194.6548532749
 30
0.0
  0
SEQEND
  5
516
  8
0
  6
CONTINUOUS
 62
     7
  0
POLYLINE
  5
5E
  8
0
  6
CONTINUOUS
 62
     7
 66
     1
 10
0.0
 20
0.0
 30
0.0
  0
VERTEX
  5
203
  8
0
  6
CONTINUOUS
 62
     7
 10
119.8325277627
 20
195.11046204
 30
0.0
  0
VERTEX
  5
204
  8
0
  6
CONTINUOUS
 62
     7
 10
119.8782113192
 20
195.1445835133
 30
0.0
  0
VERTEX
  5
205
  8
0
  6
CONTINUOUS
 62
     7
 10
119.9855161884
 20
195.1792534363
 30
0.0
  0
VERTEX
  5
206
  8
0
  6
CONTINUOUS
 62
     7
 10
120.1185890608
 20
195.1901133807
 30
0.0
  0
VERTEX
  5
207
  8
0
  6
CONTINUOUS
 62
     7
 10
120.274363962
 20
195.170962936
 30
0.0
  0
VERTEX
  5
208
  8
0
  6
CONTINUOUS
 62
     7
 10
120.4383883711
 20
195.1086625093
 30
0.0
  0
VERTEX
  5
209
  8
0
  6
CONTINUOUS
 62
     7
 10
120.5727522703
 20
195.0032921188
 30
0.0
  0
VERTEX
  5
20A
  8
0
  6
CONTINUOUS
 62
     7
 10
120.657111453
 20
194.8689847677
 30
0.0
  0
VERTEX
  5
20B
  8
0
  6
CONTINUOUS
 62
     7
 10
120.6902758255
 20
194.7165411378
 30
0.0
  0
VERTEX
  5
20C
  8
0
  6
CONTINUOUS
 62
     7
 10
120.686504759
 20
194.6235178083
 30
0.0
  0
SEQEND
  5
515
  8
0
  6
CONTINUOUS
 62
     7
  0
POLYLINE
  5
5F
  8
0
  6
CONTINUOUS
 62
     7
 66
     1
 10
0.0
 20
0.0
 30
0.0
  0
VERTEX
  5
20D
  8
0
  6
CONTINUOUS
 62
     7
 10
119.9337034001
 20
194.6550591164
 30
0.0
  0
VERTEX
  5
20E
  8
0
  6
CONTINUOUS
 62
     7
 10
119.8951116113
 20
194.7198261712
 30
0.0
  0
VERTEX
  5
20F
  8
0
  6
CONTINUOUS
 62
     7
 10
119.8338333366
 20
194.8532196213
 30
0.0
  0
VERTEX
  5
210
  8
0
  6
CONTINUOUS
 62
     7
 10
119.8009802144
 20
194.9668980456
 30
0.0
  0
VERTEX
  5
211
  8
0
  6
CONTINUOUS
 62
     7
 10
119.7988372622
 20
195.0499312584
 30
0.0
  0
VERTEX
  5
212
  8
0
  6
CONTINUOUS
 62
     7
 10
119.8236679502
 20
195.103841027
 30
0.0
  0
VERTEX
  5
213
  8
0
  6
CONTINUOUS
 62
     7
 10
119.8325277627
 20
195.11046204
 30
0.0
  0
SEQEND
  5
514
  8
0
  6
CONTINUOUS
 62
     7
  0
POLYLINE
  5
60
  8
0
  6
CONTINUOUS
 62
     7
 66
     1
 10
0.0
 20
0.0
 30
0.0
  0
VERTEX
  5
214
  8
0
  6
CONTINUOUS
 62
     7
 10
118.4879424498
 20
194.8544346374
 30
0.0
  0
VERTEX
  5
215
  8
0
  6
CONTINUOUS
 62
     7
 10
118.4043206076
 20
194.8203137136
 30
0.0
  0
VERTEX
  5
216
  8
0
  6
CONTINUOUS
 62
     7
 10
118.3143797168
 20
194.7567315783
 30
0.0
  0
SEQEND
  5
513
  8
0
  6
CONTINUOUS
 62
     7
  0
LINE
  5
61
  8
0
  6
CONTINUOUS
 62
     7
 10
118.7890128419
 20
194.9914473026
 30
0.0
 11
118.4843306803
 21
194.8609759752
 31
0.0
  0
POLYLINE
  5
62
  8
0
  6
CONTINUOUS
 62
     7
 66
     1
 10
0.0
 20
0.0
 30
0.0
  0
VERTEX
  5
217
  8
0
  6
CONTINUOUS
 62
     7
 10
118.3170339608
 20
194.7580588497
 30
0.0
  0
VERTEX
  5
218
  8
0
  6
CONTINUOUS
 62
     7
 10
118.2948992353
 20
194.7396092089
 30
0.0
  0
VERTEX
  5
219
  8
0
  6
CONTINUOUS
 62
     7
 10
118.209537293
 20
194.66923398
 30
0.0
  0
SEQEND
  5
512
  8
0
  6
CONTINUOUS
 62
     7
  0
LINE
  5
63
  8
0
  6
CONTINUOUS
 62
     7
 10
118.2250039675
 20
194.6820822074
 30
0.0
 11
117.3342883952
 21
193.9403150478
 31
0.0
  0
POLYLINE
  5
64
  8
0
  6
CONTINUOUS
 62
     7
 66
     1
 10
0.0
 20
0.0
 30
0.0
  0
VERTEX
  5
21A
  8
0
  6
CONTINUOUS
 62
     7
 10
121.3212502868
 20
194.1742673885
 30
0.0
  0
VERTEX
  5
21B
  8
0
  6
CONTINUOUS
 62
     7
 10
121.3217179714
 20
194.1750661734
 30
0.0
  0
VERTEX
  5
21C
  8
0
  6
CONTINUOUS
 62
     7
 10
121.3789805656
 20
194.3635328603
 30
0.0
  0
VERTEX
  5
21D
  8
0
  6
CONTINUOUS
 62
     7
 10
121.395540749
 20
194.5735893624
 30
0.0
  0
VERTEX
  5
21E
  8
0
  6
CONTINUOUS
 62
     7
 10
121.3677078692
 20
194.7970893432
 30
0.0
  0
VERTEX
  5
21F
  8
0
  6
CONTINUOUS
 62
     7
 10
121.2945923487
 20
195.0197285924
 30
0.0
  0
VERTEX
  5
220
  8
0
  6
CONTINUOUS
 62
     7
 10
121.1785117321
 20
195.2273186892
 30
0.0
  0
VERTEX
  5
221
  8
0
  6
CONTINUOUS
 62
     7
 10
121.0219274149
 20
195.407828957
 30
0.0
  0
VERTEX
  5
222
  8
0
  6
CONTINUOUS
 62
     7
 10
120.8508573344
 20
195.5346716536
 30
0.0
  0
VERTEX
  5
223
  8
0
  6
CONTINUOUS
 62
     7
 10
120.6663972477
 20
195.6141945136
 30
0.0
  0
VERTEX
  5
224
  8
0
  6
CONTINUOUS
 62
     7
 10
120.4775291601
 20
195.6443114752
 30
0.0
  0
VERTEX
  5
225
  8
0
  6
CONTINUOUS
 62
     7
 10
120.2920542846
 20
195.6248812894
 30
0.0
  0
VERTEX
  5
226
  8
0
  6
CONTINUOUS
 62
     7
 10
120.188635316
 20
195.5827298664
 30
0.0
  0
SEQEND
  5
511
  8
0
  6
CONTINUOUS
 62
     7
  0
POLYLINE
  5
65
  8
0
  6
CONTINUOUS
 62
     7
 66
     1
 10
0.0
 20
0.0
 30
0.0
  0
VERTEX
  5
227
  8
0
  6
CONTINUOUS
 62
     7
 10
93.7507554918
 20
184.2609914111
 30
0.0
  0
VERTEX
  5
228
  8
0
  6
CONTINUOUS
 62
     7
 10
93.6620035164
 20
184.2241966276
 30
0.0
  0
VERTEX
  5
229
  8
0
  6
CONTINUOUS
 62
     7
 10
93.5688557337
 20
184.1564458526
 30
0.0
  0
SEQEND
  5
510
  8
0
  6
CONTINUOUS
 62
     7
  0
LINE
  5
66
  8
0
  6
CONTINUOUS
 62
     7
 10
94.0775800673
 20
184.4094906171
 30
0.0
 11
93.7472820791
 21
184.2680500525
 31
0.0
  0
POLYLINE
  5
67
  8
0
  6
CONTINUOUS
 62
     7
 66
     1
 10
0.0
 20
0.0
 30
0.0
  0
VERTEX
  5
22A
  8
0
  6
CONTINUOUS
 62
     7
 10
93.5721197265
 20
184.1581654886
 30
0.0
  0
VERTEX
  5
22B
  8
0
  6
CONTINUOUS
 62
     7
 10
93.5565308022
 20
184.1446945804
 30
0.0
  0
VERTEX
  5
22C
  8
0
  6
CONTINUOUS
 62
     7
 10
93.467443105
 20
184.0687399014
 30
0.0
  0
SEQEND
  5
50F
  8
0
  6
CONTINUOUS
 62
     7
  0
LINE
  5
68
  8
0
  6
CONTINUOUS
 62
     7
 10
93.4822624768
 20
184.0814904899
 30
0.0
 11
92.6187484674
 21
183.3365795299
 31
0.0
  0
LINE
  5
69
  8
0
  6
CONTINUOUS
 62
     7
 10
95.5903382866
 20
185.0572855912
 30
0.0
 11
95.5680447009
 21
185.0477390076
 31
0.0
  0
POLYLINE
  5
6A
  8
0
  6
CONTINUOUS
 62
     7
 66
     1
 10
0.0
 20
0.0
 30
0.0
  0
VERTEX
  5
22D
  8
0
  6
CONTINUOUS
 62
     7
 10
96.7352266263
 20
183.5234701843
 30
0.0
  0
VERTEX
  5
22E
  8
0
  6
CONTINUOUS
 62
     7
 10
96.772360403
 20
183.5910773498
 30
0.0
  0
VERTEX
  5
22F
  8
0
  6
CONTINUOUS
 62
     7
 10
96.8255835749
 20
183.7838382434
 30
0.0
  0
VERTEX
  5
230
  8
0
  6
CONTINUOUS
 62
     7
 10
96.8377199849
 20
184.0001059109
 30
0.0
  0
VERTEX
  5
231
  8
0
  6
CONTINUOUS
 62
     7
 10
96.804655526
 20
184.2317255027
 30
0.0
  0
VERTEX
  5
232
  8
0
  6
CONTINUOUS
 62
     7
 10
96.7260474436
 20
184.4622757455
 30
0.0
  0
VERTEX
  5
233
  8
0
  6
CONTINUOUS
 62
     7
 10
96.6047382827
 20
184.6773869027
 30
0.0
  0
VERTEX
  5
234
  8
0
  6
CONTINUOUS
 62
     7
 10
96.4427621313
 20
184.8652994506
 30
0.0
  0
VERTEX
  5
235
  8
0
  6
CONTINUOUS
 62
     7
 10
96.2662939916
 20
184.9979459707
 30
0.0
  0
VERTEX
  5
236
  8
0
  6
CONTINUOUS
 62
     7
 10
96.077676729
 20
185.0807542354
 30
0.0
  0
VERTEX
  5
237
  8
0
  6
CONTINUOUS
 62
     7
 10
95.8852737591
 20
185.1123562669
 30
0.0
  0
VERTEX
  5
238
  8
0
  6
CONTINUOUS
 62
     7
 10
95.6963115356
 20
185.0927071574
 30
0.0
  0
VERTEX
  5
239
  8
0
  6
CONTINUOUS
 62
     7
 10
95.5942705323
 20
185.0504500371
 30
0.0
  0
SEQEND
  5
50E
  8
0
  6
CONTINUOUS
 62
     7
  0
ARC
  5
6B
  8
0
  6
CONTINUOUS
 62
     7
 10
232.1116531997
 20
-43.4252378922
 30
0.0
 40
210.7807397591374
 50
116.1607579801
 51
119.5252745836
  0
LINE
  5
6C
  8
0
  6
CONTINUOUS
 62
     7
 10
121.3442354369
 20
136.3422404416
 30
0.0
 11
128.2373348407
 21
139.9831758703
 31
0.0
  0
LINE
  5
6D
  8
0
  6
CONTINUOUS
 62
     7
 10
122.0872401958
 20
136.8361828815
 30
0.0
 11
121.3442354369
 21
136.3422404416
 31
0.0
  0
POLYLINE
  5
6E
  8
0
  6
CONTINUOUS
 62
     7
 66
     1
 10
0.0
 20
0.0
 30
0.0
  0
VERTEX
  5
23A
  8
0
  6
CONTINUOUS
 62
     7
 10
146.4307512476
 20
149.6902870051
 30
0.0
  0
VERTEX
  5
23B
  8
0
  6
CONTINUOUS
 62
     7
 10
144.8553960689
 20
148.8862582629
 30
0.0
  0
VERTEX
  5
23C
  8
0
  6
CONTINUOUS
 62
     7
 10
143.2272434945
 20
148.0499218516
 30
0.0
  0
VERTEX
  5
23D
  8
0
  6
CONTINUOUS
 62
     7
 10
141.5470005195
 20
147.1815885956
 30
0.0
  0
VERTEX
  5
23E
  8
0
  6
CONTINUOUS
 62
     7
 10
139.8154461303
 20
146.2816056484
 30
0.0
  0
VERTEX
  5
23F
  8
0
  6
CONTINUOUS
 62
     7
 10
138.0334393917
 20
145.350360287
 30
0.0
  0
VERTEX
  5
240
  8
0
  6
CONTINUOUS
 62
     7
 10
136.2018968037
 20
144.3882941388
 30
0.0
  0
VERTEX
  5
241
  8
0
  6
CONTINUOUS
 62
     7
 10
134.3218218557
 20
143.3958780677
 30
0.0
  0
VERTEX
  5
242
  8
0
  6
CONTINUOUS
 62
     7
 10
132.3942861353
 20
142.3736317865
 30
0.0
  0
VERTEX
  5
243
  8
0
  6
CONTINUOUS
 62
     7
 10
130.4204276694
 20
141.3221233167
 30
0.0
  0
VERTEX
  5
244
  8
0
  6
CONTINUOUS
 62
     7
 10
128.4014714532
 20
140.2419502432
 30
0.0
  0
VERTEX
  5
245
  8
0
  6
CONTINUOUS
 62
     7
 10
126.3387016787
 20
139.1337666775
 30
0.0
  0
VERTEX
  5
246
  8
0
  6
CONTINUOUS
 62
     7
 10
124.233479455
 20
137.9982665423
 30
0.0
  0
VERTEX
  5
247
  8
0
  6
CONTINUOUS
 62
     7
 10
122.0872401958
 20
136.8361828815
 30
0.0
  0
SEQEND
  5
50D
  8
0
  6
CONTINUOUS
 62
     7
  0
LINE
  5
6F
  8
0
  6
CONTINUOUS
 62
     7
 10
145.6702598974
 20
149.1912477035
 30
0.0
 11
146.4307512476
 21
149.6902870051
 31
0.0
  0
LINE
  5
70
  8
0
  6
CONTINUOUS
 62
     7
 10
139.1802767848
 20
145.7632383188
 30
0.0
 11
145.6702598974
 21
149.1912477035
 31
0.0
  0
LINE
  5
71
  8
0
  6
CONTINUOUS
 62
     7
 10
146.4307512476
 20
149.6902870051
 30
0.0
 11
145.7064425794
 21
150.9208592257
 31
0.0
  0
LINE
  5
72
  8
0
  6
CONTINUOUS
 62
     7
 10
122.0872401958
 20
136.8361828815
 30
0.0
 11
121.3375097579
 21
138.1219079839
 31
0.0
  0
POLYLINE
  5
73
  8
0
  6
CONTINUOUS
 62
     7
 66
     1
 10
0.0
 20
0.0
 30
0.0
  0
VERTEX
  5
248
  8
0
  6
CONTINUOUS
 62
     7
 10
145.7064425794
 20
150.9208592257
 30
0.0
  0
VERTEX
  5
249
  8
0
  6
CONTINUOUS
 62
     7
 10
144.1287498047
 20
150.121540093
 30
0.0
  0
VERTEX
  5
24A
  8
0
  6
CONTINUOUS
 62
     7
 10
142.4983107632
 20
149.2898552757
 30
0.0
  0
VERTEX
  5
24B
  8
0
  6
CONTINUOUS
 62
     7
 10
140.8158468303
 20
148.4261010485
 30
0.0
  0
VERTEX
  5
24C
  8
0
  6
CONTINUOUS
 62
     7
 10
139.0821273993
 20
147.5306293007
 30
0.0
  0
VERTEX
  5
24D
  8
0
  6
CONTINUOUS
 62
     7
 10
137.2980138412
 20
146.6038218456
 30
0.0
  0
VERTEX
  5
24E
  8
0
  6
CONTINUOUS
 62
     7
 10
135.4644371952
 20
145.6461102951
 30
0.0
  0
VERTEX
  5
24F
  8
0
  6
CONTINUOUS
 62
     7
 10
133.5823910489
 20
144.6579668575
 30
0.0
  0
VERTEX
  5
250
  8
0
  6
CONTINUOUS
 62
     7
 10
131.6529492366
 20
143.6399069645
 30
0.0
  0
VERTEX
  5
251
  8
0
  6
CONTINUOUS
 62
     7
 10
129.6772641948
 20
142.5924885575
 30
0.0
  0
VERTEX
  5
252
  8
0
  6
CONTINUOUS
 62
     7
 10
127.656550846
 20
141.5163107475
 30
0.0
  0
VERTEX
  5
253
  8
0
  6
CONTINUOUS
 62
     7
 10
125.5920955028
 20
140.412024641
 30
0.0
  0
VERTEX
  5
254
  8
0
  6
CONTINUOUS
 62
     7
 10
123.4852733806
 20
139.2803105231
 30
0.0
  0
VERTEX
  5
255
  8
0
  6
CONTINUOUS
 62
     7
 10
121.3375097579
 20
138.1219079839
 30
0.0
  0
SEQEND
  5
50C
  8
0
  6
CONTINUOUS
 62
     7
  0
LINE
  5
74
  8
0
  6
CONTINUOUS
 62
     7
 10
121.3442354369
 20
136.3422404416
 30
0.0
 11
120.5961966786
 21
137.6254476084
 31
0.0
  0
LINE
  5
75
  8
0
  6
CONTINUOUS
 62
     7
 10
121.3375097579
 20
138.1219079839
 30
0.0
 11
120.5961966786
 21
137.6254476084
 31
0.0
  0
LINE
  5
76
  8
0
  6
CONTINUOUS
 62
     7
 10
119.4230415096
 20
192.2480747421
 30
0.0
 11
97.2498008454
 21
182.6415130043
 31
0.0
  0
LINE
  5
77
  8
0
  6
CONTINUOUS
 62
     7
 10
94.7811922019
 20
181.5719877283
 30
0.0
 11
93.8854990532
 21
181.1839284608
 31
0.0
  0
LINE
  5
78
  8
0
  6
CONTINUOUS
 62
     7
 10
147.1436844651
 20
148.76352193
 30
0.0
 11
121.8958826918
 21
191.6563249401
 31
0.0
  0
LINE
  5
79
  8
0
  6
CONTINUOUS
 62
     7
 10
120.890205751
 20
134.8410579467
 30
0.0
 11
147.1436844651
 21
148.76352193
 31
0.0
  0
LINE
  5
7A
  8
0
  6
CONTINUOUS
 62
     7
 10
93.8854990532
 20
181.1839284608
 30
0.0
 11
120.890205751
 21
134.8410579467
 31
0.0
  0
LINE
  5
7B
  8
0
  6
CONTINUOUS
 62
     7
 10
101.1295882167
 20
179.996409041
 30
0.0
 11
120.6580438637
 21
188.5938668621
 31
0.0
  0
LINE
  5
7C
  8
0
  6
CONTINUOUS
 62
     7
 10
124.0726387194
 20
140.7001611007
 30
0.0
 11
101.1295882167
 21
179.996409041
 31
0.0
  0
LINE
  5
7D
  8
0
  6
CONTINUOUS
 62
     7
 10
142.9995340728
 20
150.6045393809
 30
0.0
 11
124.0726387194
 21
140.7001611007
 31
0.0
  0
LINE
  5
7E
  8
0
  6
CONTINUOUS
 62
     7
 10
120.6580438637
 20
188.5938668621
 30
0.0
 11
142.9995340728
 21
150.6045393809
 31
0.0
  0
LINE
  5
7F
  8
0
  6
CONTINUOUS
 62
     7
 10
93.8854990532
 20
181.1839284608
 30
0.0
 11
93.5225954599
 21
180.8743806127
 31
0.0
  0
LINE
  5
80
  8
0
  6
CONTINUOUS
 62
     7
 10
120.890205751
 20
134.8410579467
 30
0.0
 11
120.4949366991
 21
134.5795948089
 31
0.0
  0
LINE
  5
81
  8
0
  6
CONTINUOUS
 62
     7
 10
93.5225954599
 20
180.8743806127
 30
0.0
 11
120.4949366991
 21
134.5795948089
 31
0.0
  0
LINE
  5
82
  8
0
  6
CONTINUOUS
 62
     7
 10
147.1436844651
 20
148.76352193
 30
0.0
 11
146.7383637051
 21
148.4990021013
 31
0.0
  0
LINE
  5
83
  8
0
  6
CONTINUOUS
 62
     7
 10
120.4949366991
 20
134.5795948089
 30
0.0
 11
146.7383637051
 21
148.4990021013
 31
0.0
  0
LINE
  5
84
  8
0
  6
CONTINUOUS
 62
     7
 10
120.6580438637
 20
188.5938668621
 30
0.0
 11
120.0934998243
 21
188.1363837117
 31
0.0
  0
LINE
  5
85
  8
0
  6
CONTINUOUS
 62
     7
 10
120.0934998243
 20
188.1363837117
 30
0.0
 11
101.2296911597
 21
179.8249565159
 31
0.0
  0
LINE
  5
86
  8
0
  6
CONTINUOUS
 62
     7
 10
142.3579329146
 20
150.2687900817
 30
0.0
 11
120.0934998243
 21
188.1363837117
 31
0.0
  0
POLYLINE
  5
87
  8
0
  6
CONTINUOUS
 62
     7
 66
     1
 10
0.0
 20
0.0
 30
0.0
  0
VERTEX
  5
256
  8
0
  6
CONTINUOUS
 62
     7
 10
105.7185699825
 20
75.4949197052
 30
0.0
  0
VERTEX
  5
257
  8
0
  6
CONTINUOUS
 62
     7
 10
105.7405108805
 20
75.3503193872
 30
0.0
  0
VERTEX
  5
258
  8
0
  6
CONTINUOUS
 62
     7
 10
105.8062004318
 20
75.2497934869
 30
0.0
  0
VERTEX
  5
259
  8
0
  6
CONTINUOUS
 62
     7
 10
105.9084830271
 20
75.2042020696
 30
0.0
  0
VERTEX
  5
25A
  8
0
  6
CONTINUOUS
 62
     7
 10
106.0362475334
 20
75.2184404059
 30
0.0
  0
VERTEX
  5
25B
  8
0
  6
CONTINUOUS
 62
     7
 10
106.1756432168
 20
75.2909227641
 30
0.0
  0
VERTEX
  5
25C
  8
0
  6
CONTINUOUS
 62
     7
 10
106.3115802799
 20
75.4137579795
 30
0.0
  0
VERTEX
  5
25D
  8
0
  6
CONTINUOUS
 62
     7
 10
106.4293661785
 20
75.5736474354
 30
0.0
  0
VERTEX
  5
25E
  8
0
  6
CONTINUOUS
 62
     7
 10
106.5162734898
 20
75.7533005468
 30
0.0
  0
VERTEX
  5
25F
  8
0
  6
CONTINUOUS
 62
     7
 10
106.5629084358
 20
75.9332916492
 30
0.0
  0
VERTEX
  5
260
  8
0
  6
CONTINUOUS
 62
     7
 10
106.5642162234
 20
76.0941652156
 30
0.0
  0
VERTEX
  5
261
  8
0
  6
CONTINUOUS
 62
     7
 10
106.520030941
 20
76.2185093043
 30
0.0
  0
VERTEX
  5
262
  8
0
  6
CONTINUOUS
 62
     7
 10
106.435103684
 20
76.2928302447
 30
0.0
  0
VERTEX
  5
263
  8
0
  6
CONTINUOUS
 62
     7
 10
106.3186016654
 20
76.3090376342
 30
0.0
  0
VERTEX
  5
264
  8
0
  6
CONTINUOUS
 62
     7
 10
106.1831325791
 20
76.2653267813
 30
0.0
  0
VERTEX
  5
265
  8
0
  6
CONTINUOUS
 62
     7
 10
106.0433808529
 20
76.1663871859
 30
0.0
  0
VERTEX
  5
266
  8
0
  6
CONTINUOUS
 62
     7
 10
105.9145227504
 20
76.022934875
 30
0.0
  0
VERTEX
  5
267
  8
0
  6
CONTINUOUS
 62
     7
 10
105.8105605743
 20
75.8505406143
 30
0.0
  0
VERTEX
  5
268
  8
0
  6
CONTINUOUS
 62
     7
 10
105.7427915188
 20
75.66792068
 30
0.0
  0
VERTEX
  5
269
  8
0
  6
CONTINUOUS
 62
     7
 10
105.7185699825
 20
75.4949197052
 30
0.0
  0
SEQEND
  5
50B
  8
0
  6
CONTINUOUS
 62
     7
  0
POLYLINE
  5
88
  8
0
  6
CONTINUOUS
 62
     7
 66
     1
 10
0.0
 20
0.0
 30
0.0
  0
VERTEX
  5
26A
  8
0
  6
CONTINUOUS
 62
     7
 10
62.7601728565
 20
102.3120248814
 30
0.0
  0
VERTEX
  5
26B
  8
0
  6
CONTINUOUS
 62
     7
 10
62.7309357985
 20
102.4519095464
 30
0.0
  0
VERTEX
  5
26C
  8
0
  6
CONTINUOUS
 62
     7
 10
62.6589525436
 20
102.5522434007
 30
0.0
  0
VERTEX
  5
26D
  8
0
  6
CONTINUOUS
 62
     7
 10
62.5519919581
 20
102.6021266429
 30
0.0
  0
VERTEX
  5
26E
  8
0
  6
CONTINUOUS
 62
     7
 10
62.4216170658
 20
102.5961201975
 30
0.0
  0
VERTEX
  5
26F
  8
0
  6
CONTINUOUS
 62
     7
 10
62.2819542341
 20
102.534829367
 30
0.0
  0
VERTEX
  5
270
  8
0
  6
CONTINUOUS
 62
     7
 10
62.1481571447
 20
102.4248667528
 30
0.0
  0
VERTEX
  5
271
  8
0
  6
CONTINUOUS
 62
     7
 10
62.0347576752
 20
102.2781566731
 30
0.0
  0
VERTEX
  5
272
  8
0
  6
CONTINUOUS
 62
     7
 10
61.9540796305
 20
102.1106255042
 30
0.0
  0
VERTEX
  5
273
  8
0
  6
CONTINUOUS
 62
     7
 10
61.9148853082
 20
101.9404668193
 30
0.0
  0
VERTEX
  5
274
  8
0
  6
CONTINUOUS
 62
     7
 10
61.9214199199
 20
101.7861656536
 30
0.0
  0
VERTEX
  5
275
  8
0
  6
CONTINUOUS
 62
     7
 10
61.9729513278
 20
101.6644599371
 30
0.0
  0
VERTEX
  5
276
  8
0
  6
CONTINUOUS
 62
     7
 10
62.0638594053
 20
101.5885225988
 30
0.0
  0
VERTEX
  5
277
  8
0
  6
CONTINUOUS
 62
     7
 10
62.1842613757
 20
101.5665562641
 30
0.0
  0
VERTEX
  5
278
  8
0
  6
CONTINUOUS
 62
     7
 10
62.3210941474
 20
101.6008951967
 30
0.0
  0
VERTEX
  5
279
  8
0
  6
CONTINUOUS
 62
     7
 10
62.4595391932
 20
101.6877777413
 30
0.0
  0
VERTEX
  5
27A
  8
0
  6
CONTINUOUS
 62
     7
 10
62.5846220137
 20
101.8177848452
 30
0.0
  0
VERTEX
  5
27B
  8
0
  6
CONTINUOUS
 62
     7
 10
62.6828225203
 20
101.9768398545
 30
0.0
  0
VERTEX
  5
27C
  8
0
  6
CONTINUOUS
 62
     7
 10
62.743530563
 20
102.1477441318
 30
0.0
  0
VERTEX
  5
27D
  8
0
  6
CONTINUOUS
 62
     7
 10
62.7601728565
 20
102.3120248814
 30
0.0
  0
SEQEND
  5
50A
  8
0
  6
CONTINUOUS
 62
     7
  0
LINE
  5
89
  8
0
  6
CONTINUOUS
 62
     7
 10
61.9540513886
 20
101.5584868228
 30
0.0
 11
61.9465473001
 21
101.5628348051
 31
0.0
  0
LINE
  5
8A
  8
0
  6
CONTINUOUS
 62
     7
 10
111.8323522748
 20
198.4648083392
 30
0.0
 11
112.0228629263
 21
198.3747871807
 31
0.0
  0
LINE
  5
8B
  8
0
  6
CONTINUOUS
 62
     7
 10
112.0228629263
 20
198.3747871807
 30
0.0
 11
112.1444457478
 21
198.4876563695
 31
0.0
  0
LINE
  5
8C
  8
0
  6
CONTINUOUS
 62
     7
 10
112.1444457478
 20
198.4876563695
 30
0.0
 11
112.075592796
 21
198.6904784769
 31
0.0
  0
LINE
  5
8D
  8
0
  6
CONTINUOUS
 62
     7
 10
112.075592796
 20
198.6904784769
 30
0.0
 11
111.8851611628
 21
198.7805171932
 31
0.0
  0
LINE
  5
8E
  8
0
  6
CONTINUOUS
 62
     7
 10
111.8851611628
 20
198.7805171932
 30
0.0
 11
111.7635043878
 21
198.6677166421
 31
0.0
  0
LINE
  5
8F
  8
0
  6
CONTINUOUS
 62
     7
 10
111.7635043878
 20
198.6677166421
 30
0.0
 11
111.8323522748
 21
198.4648083392
 31
0.0
  0
POLYLINE
  5
90
  8
0
  6
CONTINUOUS
 62
     7
 66
     1
 10
0.0
 20
0.0
 30
0.0
  0
VERTEX
  5
27E
  8
0
  6
CONTINUOUS
 62
     7
 10
112.0211348567
 20
198.9792887608
 30
0.0
  0
VERTEX
  5
27F
  8
0
  6
CONTINUOUS
 62
     7
 10
111.86497845
 20
199.0239016197
 30
0.0
  0
VERTEX
  5
280
  8
0
  6
CONTINUOUS
 62
     7
 10
111.7207879546
 20
199.0082703731
 30
0.0
  0
VERTEX
  5
281
  8
0
  6
CONTINUOUS
 62
     7
 10
111.6080422386
 20
198.9344697539
 30
0.0
  0
VERTEX
  5
282
  8
0
  6
CONTINUOUS
 62
     7
 10
111.541986146
 20
198.8124343196
 30
0.0
  0
VERTEX
  5
283
  8
0
  6
CONTINUOUS
 62
     7
 10
111.5315793024
 20
198.6586387216
 30
0.0
  0
VERTEX
  5
284
  8
0
  6
CONTINUOUS
 62
     7
 10
111.57825255
 20
198.4938639793
 30
0.0
  0
VERTEX
  5
285
  8
0
  6
CONTINUOUS
 62
     7
 10
111.6757065958
 20
198.3403989818
 30
0.0
  0
VERTEX
  5
286
  8
0
  6
CONTINUOUS
 62
     7
 10
111.8107612602
 20
198.2190016709
 30
0.0
  0
VERTEX
  5
287
  8
0
  6
CONTINUOUS
 62
     7
 10
111.9651451123
 20
198.1460823471
 30
0.0
  0
VERTEX
  5
288
  8
0
  6
CONTINUOUS
 62
     7
 10
112.1179755973
 20
198.1314859182
 30
0.0
  0
VERTEX
  5
289
  8
0
  6
CONTINUOUS
 62
     7
 10
112.2486016503
 20
198.1771592114
 30
0.0
  0
VERTEX
  5
28A
  8
0
  6
CONTINUOUS
 62
     7
 10
112.3393973232
 20
198.2768924506
 30
0.0
  0
VERTEX
  5
28B
  8
0
  6
CONTINUOUS
 62
     7
 10
112.3781258156
 20
198.4171922042
 30
0.0
  0
VERTEX
  5
28C
  8
0
  6
CONTINUOUS
 62
     7
 10
112.3595944524
 20
198.5791121908
 30
0.0
  0
VERTEX
  5
28D
  8
0
  6
CONTINUOUS
 62
     7
 10
112.2863199655
 20
198.7408074428
 30
0.0
  0
VERTEX
  5
28E
  8
0
  6
CONTINUOUS
 62
     7
 10
112.168191264
 20
198.8804781071
 30
0.0
  0
VERTEX
  5
28F
  8
0
  6
CONTINUOUS
 62
     7
 10
112.0211348567
 20
198.9792887608
 30
0.0
  0
SEQEND
  5
509
  8
0
  6
CONTINUOUS
 62
     7
  0
LINE
  5
91
  8
0
  6
CONTINUOUS
 62
     7
 10
112.0164235036
 20
198.3778311977
 30
0.0
 11
112.1444457478
 21
198.4876563695
 31
0.0
  0
LINE
  5
92
  8
0
  6
CONTINUOUS
 62
     7
 10
111.9376693738
 20
198.5720548945
 30
0.0
 11
111.7688942005
 21
198.6518288866
 31
0.0
  0
LINE
  5
93
  8
0
  6
CONTINUOUS
 62
     7
 10
112.001135618
 20
198.3850557778
 30
0.0
 11
111.9376693738
 21
198.5720548945
 31
0.0
  0
LINE
  5
94
  8
0
  6
CONTINUOUS
 62
     7
 10
111.9376693738
 20
198.5720548945
 30
0.0
 11
112.075592796
 21
198.6904784769
 31
0.0
  0
POLYLINE
  5
95
  8
0
  6
CONTINUOUS
 62
     7
 66
     1
 10
0.0
 20
0.0
 30
0.0
  0
VERTEX
  5
290
  8
0
  6
CONTINUOUS
 62
     7
 10
143.2849759606
 20
148.8829724776
 30
0.0
  0
VERTEX
  5
291
  8
0
  6
CONTINUOUS
 62
     7
 10
143.2877349373
 20
148.8811369973
 30
0.0
  0
VERTEX
  5
292
  8
0
  6
CONTINUOUS
 62
     7
 10
143.2906381001
 20
148.8804691567
 30
0.0
  0
VERTEX
  5
293
  8
0
  6
CONTINUOUS
 62
     7
 10
143.2932436845
 20
148.8810719398
 30
0.0
  0
VERTEX
  5
294
  8
0
  6
CONTINUOUS
 62
     7
 10
143.2951585484
 20
148.8828494274
 30
0.0
  0
VERTEX
  5
295
  8
0
  6
CONTINUOUS
 62
     7
 10
143.2960845025
 20
148.8855397499
 30
0.0
  0
VERTEX
  5
296
  8
0
  6
CONTINUOUS
 62
     7
 10
143.2958868973
 20
148.8887261431
 30
0.0
  0
VERTEX
  5
297
  8
0
  6
CONTINUOUS
 62
     7
 10
143.2945927988
 20
148.8919248815
 30
0.0
  0
VERTEX
  5
298
  8
0
  6
CONTINUOUS
 62
     7
 10
143.2924009618
 20
148.8946509206
 30
0.0
  0
VERTEX
  5
299
  8
0
  6
CONTINUOUS
 62
     7
 10
143.2896462084
 20
148.8964868742
 30
0.0
  0
VERTEX
  5
29A
  8
0
  6
CONTINUOUS
 62
     7
 10
143.2867430813
 20
148.8971547547
 30
0.0
  0
VERTEX
  5
29B
  8
0
  6
CONTINUOUS
 62
     7
 10
143.2841334333
 20
148.8965538907
 30
0.0
  0
VERTEX
  5
29C
  8
0
  6
CONTINUOUS
 62
     7
 10
143.2822224688
 20
148.8947722659
 30
0.0
  0
VERTEX
  5
29D
  8
0
  6
CONTINUOUS
 62
     7
 10
143.2812924006
 20
148.8920838062
 30
0.0
  0
VERTEX
  5
29E
  8
0
  6
CONTINUOUS
 62
     7
 10
143.2814899701
 20
148.8888973733
 30
0.0
  0
VERTEX
  5
29F
  8
0
  6
CONTINUOUS
 62
     7
 10
143.2827840766
 20
148.8856985695
 30
0.0
  0
VERTEX
  5
2A0
  8
0
  6
CONTINUOUS
 62
     7
 10
143.2849759606
 20
148.8829724776
 30
0.0
  0
SEQEND
  5
508
  8
0
  6
CONTINUOUS
 62
     7
  0
POLYLINE
  5
96
  8
0
  6
CONTINUOUS
 62
     7
 66
     1
 10
0.0
 20
0.0
 30
0.0
  0
VERTEX
  5
2A1
  8
0
  6
CONTINUOUS
 62
     7
 10
86.3976581561
 20
188.2975120936
 30
0.0
  0
VERTEX
  5
2A2
  8
0
  6
CONTINUOUS
 62
     7
 10
86.2307228789
 20
188.3422644079
 30
0.0
  0
VERTEX
  5
2A3
  8
0
  6
CONTINUOUS
 62
     7
 10
86.0751841334
 20
188.3237819366
 30
0.0
  0
VERTEX
  5
2A4
  8
0
  6
CONTINUOUS
 62
     7
 10
85.9520545524
 20
188.2445217839
 30
0.0
  0
VERTEX
  5
2A5
  8
0
  6
CONTINUOUS
 62
     7
 10
85.8779834773
 20
188.1151531886
 30
0.0
  0
VERTEX
  5
2A6
  8
0
  6
CONTINUOUS
 62
     7
 10
85.8630148259
 20
187.9531398016
 30
0.0
  0
VERTEX
  5
2A7
  8
0
  6
CONTINUOUS
 62
     7
 10
85.9092001769
 20
187.7803745158
 30
0.0
  0
VERTEX
  5
2A8
  8
0
  6
CONTINUOUS
 62
     7
 10
86.0103074483
 20
187.6202286781
 30
0.0
  0
VERTEX
  5
2A9
  8
0
  6
CONTINUOUS
 62
     7
 10
86.1526608563
 20
187.4943651156
 30
0.0
  0
VERTEX
  5
2AA
  8
0
  6
CONTINUOUS
 62
     7
 10
86.3170024431
 20
187.4197996009
 30
0.0
  0
VERTEX
  5
2AB
  8
0
  6
CONTINUOUS
 62
     7
 10
86.4810971917
 20
187.4065968552
 30
0.0
  0
VERTEX
  5
2AC
  8
0
  6
CONTINUOUS
 62
     7
 10
86.6227742918
 20
187.4565142124
 30
0.0
  0
VERTEX
  5
2AD
  8
0
  6
CONTINUOUS
 62
     7
 10
86.722912446
 20
187.5627636788
 30
0.0
  0
VERTEX
  5
2AE
  8
0
  6
CONTINUOUS
 62
     7
 10
86.7680189352
 20
187.7109711321
 30
0.0
  0
VERTEX
  5
2AF
  8
0
  6
CONTINUOUS
 62
     7
 10
86.7520427367
 20
187.8811224248
 30
0.0
  0
VERTEX
  5
2B0
  8
0
  6
CONTINUOUS
 62
     7
 10
86.6771581655
 20
188.0502635248
 30
0.0
  0
VERTEX
  5
2B1
  8
0
  6
CONTINUOUS
 62
     7
 10
86.5534724208
 20
188.1955927646
 30
0.0
  0
VERTEX
  5
2B2
  8
0
  6
CONTINUOUS
 62
     7
 10
86.3976581561
 20
188.2975120936
 30
0.0
  0
SEQEND
  5
507
  8
0
  6
CONTINUOUS
 62
     7
  0
LINE
  5
97
  8
0
  6
CONTINUOUS
 62
     7
 10
86.18191804
 20
187.7533807934
 30
0.0
 11
86.38471082
 21
187.6613246525
 31
0.0
  0
LINE
  5
98
  8
0
  6
CONTINUOUS
 62
     7
 10
86.38471082
 20
187.6613246525
 30
0.0
 11
86.5183020133
 21
187.7818330035
 31
0.0
  0
LINE
  5
99
  8
0
  6
CONTINUOUS
 62
     7
 10
86.5183020133
 20
187.7818330035
 30
0.0
 11
86.4491826174
 21
187.9943237251
 31
0.0
  0
LINE
  5
9A
  8
0
  6
CONTINUOUS
 62
     7
 10
86.4491826174
 20
187.9943237251
 30
0.0
 11
86.2464776543
 21
188.0863998343
 31
0.0
  0
LINE
  5
9B
  8
0
  6
CONTINUOUS
 62
     7
 10
86.2464776543
 20
188.0863998343
 30
0.0
 11
86.1128042795
 21
187.9659652709
 31
0.0
  0
LINE
  5
9C
  8
0
  6
CONTINUOUS
 62
     7
 10
86.1128042795
 20
187.9659652709
 30
0.0
 11
86.18191804
 21
187.7533807934
 31
0.0
  0
LINE
  5
9D
  8
0
  6
CONTINUOUS
 62
     7
 10
86.3837470319
 20
187.6617639021
 30
0.0
 11
86.3849356703
 21
187.6628342017
 31
0.0
  0
LINE
  5
9E
  8
0
  6
CONTINUOUS
 62
     7
 10
86.3849356703
 20
187.6628342017
 30
0.0
 11
86.5183020133
 21
187.7818330035
 31
0.0
  0
LINE
  5
9F
  8
0
  6
CONTINUOUS
 62
     7
 10
86.3158581172
 20
187.8752507687
 30
0.0
 11
86.1139040589
 21
187.9669545261
 31
0.0
  0
LINE
  5
A0
  8
0
  6
CONTINUOUS
 62
     7
 10
86.3849356703
 20
187.6628342017
 30
0.0
 11
86.3158581172
 21
187.8752507687
 31
0.0
  0
LINE
  5
A1
  8
0
  6
CONTINUOUS
 62
     7
 10
86.3158581172
 20
187.8752507687
 30
0.0
 11
86.4491826174
 21
187.9943237251
 31
0.0
  0
LINE
  5
A2
  8
0
  6
CONTINUOUS
 62
     7
 10
96.2963104286
 20
180.4933813245
 30
0.0
 11
97.3455741782
 21
180.9508990924
 31
0.0
  0
POLYLINE
  5
A3
  8
0
  6
CONTINUOUS
 62
     7
 66
     1
 10
0.0
 20
0.0
 30
0.0
  0
VERTEX
  5
2B3
  8
0
  6
CONTINUOUS
 62
     7
 10
96.2963104286
 20
180.4933813245
 30
0.0
  0
VERTEX
  5
2B4
  8
0
  6
CONTINUOUS
 62
     7
 10
96.4008854179
 20
180.6112547609
 30
0.0
  0
VERTEX
  5
2B5
  8
0
  6
CONTINUOUS
 62
     7
 10
96.478430454
 20
180.7642535994
 30
0.0
  0
VERTEX
  5
2B6
  8
0
  6
CONTINUOUS
 62
     7
 10
96.5259326221
 20
180.9465171382
 30
0.0
  0
VERTEX
  5
2B7
  8
0
  6
CONTINUOUS
 62
     7
 10
96.5415345566
 20
181.1510394699
 30
0.0
  0
VERTEX
  5
2B8
  8
0
  6
CONTINUOUS
 62
     7
 10
96.5246093627
 20
181.36994672
 30
0.0
  0
VERTEX
  5
2B9
  8
0
  6
CONTINUOUS
 62
     7
 10
96.4757936609
 20
181.5947956902
 30
0.0
  0
VERTEX
  5
2BA
  8
0
  6
CONTINUOUS
 62
     7
 10
96.396960496
 20
181.8169010831
 30
0.0
  0
VERTEX
  5
2BB
  8
0
  6
CONTINUOUS
 62
     7
 10
96.2911490751
 20
182.0276876939
 30
0.0
  0
SEQEND
  5
506
  8
0
  6
CONTINUOUS
 62
     7
  0
LINE
  5
A4
  8
0
  6
CONTINUOUS
 62
     7
 10
96.2911490751
 20
182.0276876939
 30
0.0
 11
97.3420831662
 21
182.4833401744
 31
0.0
  0
POLYLINE
  5
A5
  8
0
  6
CONTINUOUS
 62
     7
 66
     1
 10
0.0
 20
0.0
 30
0.0
  0
VERTEX
  5
2BC
  8
0
  6
CONTINUOUS
 62
     7
 10
97.3455741782
 20
180.9508990924
 30
0.0
  0
VERTEX
  5
2BD
  8
0
  6
CONTINUOUS
 62
     7
 10
97.450329431
 20
181.0687292861
 30
0.0
  0
VERTEX
  5
2BE
  8
0
  6
CONTINUOUS
 62
     7
 10
97.5280795557
 20
181.2216165178
 30
0.0
  0
VERTEX
  5
2BF
  8
0
  6
CONTINUOUS
 62
     7
 10
97.575803816
 20
181.4037042887
 30
0.0
  0
VERTEX
  5
2C0
  8
0
  6
CONTINUOUS
 62
     7
 10
97.5916363475
 20
181.6079934151
 30
0.0
  0
VERTEX
  5
2C1
  8
0
  6
CONTINUOUS
 62
     7
 10
97.5749414081
 20
181.8266190021
 30
0.0
  0
VERTEX
  5
2C2
  8
0
  6
CONTINUOUS
 62
     7
 10
97.5263467555
 20
182.0511487517
 30
0.0
  0
VERTEX
  5
2C3
  8
0
  6
CONTINUOUS
 62
     7
 10
97.4477168953
 20
182.2729097547
 30
0.0
  0
VERTEX
  5
2C4
  8
0
  6
CONTINUOUS
 62
     7
 10
97.3420831662
 20
182.4833401744
 30
0.0
  0
SEQEND
  5
505
  8
0
  6
CONTINUOUS
 62
     7
  0
LINE
  5
A6
  8
0
  6
CONTINUOUS
 62
     7
 10
96.2911490751
 20
182.0276876939
 30
0.0
 11
95.1356583553
 21
184.0089253034
 31
0.0
  0
LINE
  5
A7
  8
0
  6
CONTINUOUS
 62
     7
 10
95.7024003682
 20
179.9916230677
 30
0.0
 11
96.2963104286
 21
180.4933813245
 31
0.0
  0
LINE
  5
A8
  8
0
  6
CONTINUOUS
 62
     7
 10
94.4480838913
 20
182.1434408155
 30
0.0
 11
95.7024003682
 21
179.9916230677
 31
0.0
  0
POLYLINE
  5
A9
  8
0
  6
CONTINUOUS
 62
     7
 66
     1
 10
0.0
 20
0.0
 30
0.0
  0
VERTEX
  5
2C5
  8
0
  6
CONTINUOUS
 62
     7
 10
95.1356583553
 20
184.0089253034
 30
0.0
  0
VERTEX
  5
2C6
  8
0
  6
CONTINUOUS
 62
     7
 10
94.9746795877
 20
184.24056546
 30
0.0
  0
VERTEX
  5
2C7
  8
0
  6
CONTINUOUS
 62
     7
 10
94.7886230501
 20
184.4290653309
 30
0.0
  0
VERTEX
  5
2C8
  8
0
  6
CONTINUOUS
 62
     7
 10
94.5883647594
 20
184.5634315205
 30
0.0
  0
VERTEX
  5
2C9
  8
0
  6
CONTINUOUS
 62
     7
 10
94.3855969181
 20
184.6358848666
 30
0.0
  0
VERTEX
  5
2CA
  8
0
  6
CONTINUOUS
 62
     7
 10
94.1921354232
 20
184.6422550719
 30
0.0
  0
VERTEX
  5
2CB
  8
0
  6
CONTINUOUS
 62
     7
 10
94.0192246343
 20
184.5822591609
 30
0.0
  0
VERTEX
  5
2CC
  8
0
  6
CONTINUOUS
 62
     7
 10
93.8768927757
 20
184.4594609587
 30
0.0
  0
VERTEX
  5
2CD
  8
0
  6
CONTINUOUS
 62
     7
 10
93.7733632341
 20
184.2810690611
 30
0.0
  0
VERTEX
  5
2CE
  8
0
  6
CONTINUOUS
 62
     7
 10
93.7724655833
 20
184.2788384179
 30
0.0
  0
SEQEND
  5
504
  8
0
  6
CONTINUOUS
 62
     7
  0
LINE
  5
AA
  8
0
  6
CONTINUOUS
 62
     7
 10
97.3420831662
 20
182.4833401744
 30
0.0
 11
96.1881826514
 21
184.4610788346
 31
0.0
  0
LINE
  5
AB
  8
0
  6
CONTINUOUS
 62
     7
 10
95.1356583553
 20
184.0089253034
 30
0.0
 11
95.2015454734
 21
184.0372297266
 31
0.0
  0
POLYLINE
  5
AC
  8
0
  6
CONTINUOUS
 62
     7
 66
     1
 10
0.0
 20
0.0
 30
0.0
  0
VERTEX
  5
2CF
  8
0
  6
CONTINUOUS
 62
     7
 10
96.1225038335
 20
184.432863895
 30
0.0
  0
VERTEX
  5
2D0
  8
0
  6
CONTINUOUS
 62
     7
 10
96.2052572881
 20
184.231582256
 30
0.0
  0
VERTEX
  5
2D1
  8
0
  6
CONTINUOUS
 62
     7
 10
96.2225816039
 20
184.0306857313
 30
0.0
  0
VERTEX
  5
2D2
  8
0
  6
CONTINUOUS
 62
     7
 10
96.1723618097
 20
183.854376124
 30
0.0
  0
VERTEX
  5
2D3
  8
0
  6
CONTINUOUS
 62
     7
 10
96.0606076837
 20
183.7239136778
 30
0.0
  0
VERTEX
  5
2D4
  8
0
  6
CONTINUOUS
 62
     7
 10
95.900751254
 20
183.6550658803
 30
0.0
  0
VERTEX
  5
2D5
  8
0
  6
CONTINUOUS
 62
     7
 10
95.7120514218
 20
183.6561881129
 30
0.0
  0
VERTEX
  5
2D6
  8
0
  6
CONTINUOUS
 62
     7
 10
95.5172785873
 20
183.7271906251
 30
0.0
  0
VERTEX
  5
2D7
  8
0
  6
CONTINUOUS
 62
     7
 10
95.3399644699
 20
183.8595323298
 30
0.0
  0
VERTEX
  5
2D8
  8
0
  6
CONTINUOUS
 62
     7
 10
95.2015454734
 20
184.0372297266
 30
0.0
  0
SEQEND
  5
503
  8
0
  6
CONTINUOUS
 62
     7
  0
LINE
  5
AD
  8
0
  6
CONTINUOUS
 62
     7
 10
96.1225038335
 20
184.432863895
 30
0.0
 11
96.1881826514
 21
184.4610788346
 31
0.0
  0
POLYLINE
  5
AE
  8
0
  6
CONTINUOUS
 62
     7
 66
     1
 10
0.0
 20
0.0
 30
0.0
  0
VERTEX
  5
2D9
  8
0
  6
CONTINUOUS
 62
     7
 10
94.0487758841
 20
182.7926151756
 30
0.0
  0
VERTEX
  5
2DA
  8
0
  6
CONTINUOUS
 62
     7
 10
94.1182707207
 20
182.897412363
 30
0.0
  0
VERTEX
  5
2DB
  8
0
  6
CONTINUOUS
 62
     7
 10
94.1420562258
 20
183.0466106309
 30
0.0
  0
VERTEX
  5
2DC
  8
0
  6
CONTINUOUS
 62
     7
 10
94.1164777153
 20
183.2174845049
 30
0.0
  0
VERTEX
  5
2DD
  8
0
  6
CONTINUOUS
 62
     7
 10
94.0454203842
 20
183.3839798831
 30
0.0
  0
VERTEX
  5
2DE
  8
0
  6
CONTINUOUS
 62
     7
 10
93.9397183473
 20
183.5206968498
 30
0.0
  0
VERTEX
  5
2DF
  8
0
  6
CONTINUOUS
 62
     7
 10
93.8154983498
 20
183.6067945093
 30
0.0
  0
VERTEX
  5
2E0
  8
0
  6
CONTINUOUS
 62
     7
 10
93.6917048801
 20
183.6291784131
 30
0.0
  0
VERTEX
  5
2E1
  8
0
  6
CONTINUOUS
 62
     7
 10
93.5871956556
 20
183.584475796
 30
0.0
  0
VERTEX
  5
2E2
  8
0
  6
CONTINUOUS
 62
     7
 10
93.5178630148
 20
183.4795399815
 30
0.0
  0
VERTEX
  5
2E3
  8
0
  6
CONTINUOUS
 62
     7
 10
93.4942257003
 20
183.3303798016
 30
0.0
  0
VERTEX
  5
2E4
  8
0
  6
CONTINUOUS
 62
     7
 10
93.5198516152
 20
183.1596934383
 30
0.0
  0
VERTEX
  5
2E5
  8
0
  6
CONTINUOUS
 62
     7
 10
93.5908277684
 20
182.993430133
 30
0.0
  0
VERTEX
  5
2E6
  8
0
  6
CONTINUOUS
 62
     7
 10
93.6963676376
 20
182.8568468091
 30
0.0
  0
VERTEX
  5
2E7
  8
0
  6
CONTINUOUS
 62
     7
 10
93.8204394736
 20
182.7707060779
 30
0.0
  0
VERTEX
  5
2E8
  8
0
  6
CONTINUOUS
 62
     7
 10
93.9441855097
 20
182.748139647
 30
0.0
  0
VERTEX
  5
2E9
  8
0
  6
CONTINUOUS
 62
     7
 10
94.0487758841
 20
182.7926151756
 30
0.0
  0
SEQEND
  5
502
  8
0
  6
CONTINUOUS
 62
     7
  0
ARC
  5
AF
  8
0
  6
CONTINUOUS
 62
     7
 10
94.0075971359
 20
183.036400968
 30
0.0
 40
0.3442110291571784
 50
222.1435310223
 51
286.1516355233
  0
ARC
  5
B0
  8
0
  6
CONTINUOUS
 62
     7
 10
93.8281527044
 20
183.4306495903
 30
0.0
 40
0.333505052929623
 50
110.9390281606
 51
184.4232093323
  0
POLYLINE
  5
B1
  8
0
  6
CONTINUOUS
 62
     7
 66
     1
 10
0.0
 20
0.0
 30
0.0
  0
VERTEX
  5
2EA
  8
0
  6
CONTINUOUS
 62
     7
 10
96.1881826514
 20
184.4610788346
 30
0.0
  0
VERTEX
  5
2EB
  8
0
  6
CONTINUOUS
 62
     7
 10
96.0273768298
 20
184.6922857841
 30
0.0
  0
VERTEX
  5
2EC
  8
0
  6
CONTINUOUS
 62
     7
 10
95.8414335262
 20
184.8803815892
 30
0.0
  0
VERTEX
  5
2ED
  8
0
  6
CONTINUOUS
 62
     7
 10
95.6412220629
 20
185.0143964824
 30
0.0
  0
VERTEX
  5
2EE
  8
0
  6
CONTINUOUS
 62
     7
 10
95.4384318919
 20
185.0865717041
 30
0.0
  0
VERTEX
  5
2EF
  8
0
  6
CONTINUOUS
 62
     7
 10
95.2448802137
 20
185.0927530125
 30
0.0
  0
VERTEX
  5
2F0
  8
0
  6
CONTINUOUS
 62
     7
 10
95.1237706811
 20
185.0587261154
 30
0.0
  0
SEQEND
  5
501
  8
0
  6
CONTINUOUS
 62
     7
  0
POLYLINE
  5
B2
  8
0
  6
CONTINUOUS
 62
     7
 66
     1
 10
0.0
 20
0.0
 30
0.0
  0
VERTEX
  5
2F1
  8
0
  6
CONTINUOUS
 62
     7
 10
95.2015454734
 20
184.0372297266
 30
0.0
  0
VERTEX
  5
2F2
  8
0
  6
CONTINUOUS
 62
     7
 10
95.182229649
 20
184.0710966151
 30
0.0
  0
VERTEX
  5
2F3
  8
0
  6
CONTINUOUS
 62
     7
 10
95.0963919422
 20
184.2473116296
 30
0.0
  0
VERTEX
  5
2F4
  8
0
  6
CONTINUOUS
 62
     7
 10
95.0399338687
 20
184.4392186472
 30
0.0
  0
VERTEX
  5
2F5
  8
0
  6
CONTINUOUS
 62
     7
 10
95.0450056235
 20
184.5780292682
 30
0.0
  0
VERTEX
  5
2F6
  8
0
  6
CONTINUOUS
 62
     7
 10
95.0990003091
 20
184.6722537102
 30
0.0
  0
VERTEX
  5
2F7
  8
0
  6
CONTINUOUS
 62
     7
 10
95.2059278381
 20
184.7416832131
 30
0.0
  0
VERTEX
  5
2F8
  8
0
  6
CONTINUOUS
 62
     7
 10
95.3587505297
 20
184.7797673963
 30
0.0
  0
VERTEX
  5
2F9
  8
0
  6
CONTINUOUS
 62
     7
 10
95.5932433885
 20
184.7742799211
 30
0.0
  0
VERTEX
  5
2FA
  8
0
  6
CONTINUOUS
 62
     7
 10
95.806969122
 20
184.7106297538
 30
0.0
  0
VERTEX
  5
2FB
  8
0
  6
CONTINUOUS
 62
     7
 10
95.9856951858
 20
184.5971236991
 30
0.0
  0
VERTEX
  5
2FC
  8
0
  6
CONTINUOUS
 62
     7
 10
96.1225038335
 20
184.432863895
 30
0.0
  0
SEQEND
  5
500
  8
0
  6
CONTINUOUS
 62
     7
  0
LINE
  5
B3
  8
0
  6
CONTINUOUS
 62
     7
 10
95.9767042284
 20
183.7726711676
 30
0.0
 11
95.9867601815
 21
183.7816431299
 31
0.0
  0
ARC
  5
B4
  8
0
  6
CONTINUOUS
 62
     7
 10
96.3262977962
 20
183.9702322742
 30
0.0
 40
0.505529421341527
 50
113.773982296
 51
128.572680457
  0
POLYLINE
  5
B5
  8
0
  6
CONTINUOUS
 62
     7
 66
     1
 10
0.0
 20
0.0
 30
0.0
  0
VERTEX
  5
2FD
  8
0
  6
CONTINUOUS
 62
     7
 10
96.0110967217
 20
184.3654642042
 30
0.0
  0
VERTEX
  5
2FE
  8
0
  6
CONTINUOUS
 62
     7
 10
95.9002016243
 20
184.4937588274
 30
0.0
  0
VERTEX
  5
2FF
  8
0
  6
CONTINUOUS
 62
     7
 10
95.7515724605
 20
184.5790786278
 30
0.0
  0
VERTEX
  5
300
  8
0
  6
CONTINUOUS
 62
     7
 10
95.5713565167
 20
184.6227230889
 30
0.0
  0
VERTEX
  5
301
  8
0
  6
CONTINUOUS
 62
     7
 10
95.3718880266
 20
184.6191875317
 30
0.0
  0
VERTEX
  5
302
  8
0
  6
CONTINUOUS
 62
     7
 10
95.2412165316
 20
184.5842647888
 30
0.0
  0
VERTEX
  5
303
  8
0
  6
CONTINUOUS
 62
     7
 10
95.1493200953
 20
184.5266812291
 30
0.0
  0
VERTEX
  5
304
  8
0
  6
CONTINUOUS
 62
     7
 10
95.1021070054
 20
184.4515078349
 30
0.0
  0
VERTEX
  5
305
  8
0
  6
CONTINUOUS
 62
     7
 10
95.0953792734
 20
184.3424477285
 30
0.0
  0
VERTEX
  5
306
  8
0
  6
CONTINUOUS
 62
     7
 10
95.1388389333
 20
184.1919472605
 30
0.0
  0
VERTEX
  5
307
  8
0
  6
CONTINUOUS
 62
     7
 10
95.2064764202
 20
184.0531169479
 30
0.0
  0
VERTEX
  5
308
  8
0
  6
CONTINUOUS
 62
     7
 10
95.221752397
 20
184.0263452995
 30
0.0
  0
SEQEND
  5
4FF
  8
0
  6
CONTINUOUS
 62
     7
  0
LINE
  5
B6
  8
0
  6
CONTINUOUS
 62
     7
 10
95.7024003682
 20
179.9916230677
 30
0.0
 11
96.7508210698
 21
180.449181687
 31
0.0
  0
LINE
  5
B7
  8
0
  6
CONTINUOUS
 62
     7
 10
96.7508210698
 20
180.449181687
 30
0.0
 11
97.3455741782
 21
180.9508990924
 31
0.0
  0
LINE
  5
B8
  8
0
  6
CONTINUOUS
 62
     7
 10
120.9263979416
 20
191.2330096276
 30
0.0
 11
121.894351456
 21
191.6550731283
 31
0.0
  0
POLYLINE
  5
B9
  8
0
  6
CONTINUOUS
 62
     7
 66
     1
 10
0.0
 20
0.0
 30
0.0
  0
VERTEX
  5
309
  8
0
  6
CONTINUOUS
 62
     7
 10
120.9263979416
 20
191.2330096276
 30
0.0
  0
VERTEX
  5
30A
  8
0
  6
CONTINUOUS
 62
     7
 10
121.0348867959
 20
191.3497295569
 30
0.0
  0
VERTEX
  5
30B
  8
0
  6
CONTINUOUS
 62
     7
 10
121.1169467062
 20
191.4999782143
 30
0.0
  0
VERTEX
  5
30C
  8
0
  6
CONTINUOUS
 62
     7
 10
121.1693927041
 20
191.6779986374
 30
0.0
  0
VERTEX
  5
30D
  8
0
  6
CONTINUOUS
 62
     7
 10
121.1901783554
 20
191.8769473047
 30
0.0
  0
VERTEX
  5
30E
  8
0
  6
CONTINUOUS
 62
     7
 10
121.1784779845
 20
192.0891649863
 30
0.0
  0
VERTEX
  5
30F
  8
0
  6
CONTINUOUS
 62
     7
 10
121.1347271867
 20
192.3064673491
 30
0.0
  0
VERTEX
  5
310
  8
0
  6
CONTINUOUS
 62
     7
 10
121.0606034053
 20
192.520461916
 30
0.0
  0
VERTEX
  5
311
  8
0
  6
CONTINUOUS
 62
     7
 10
120.9589636298
 20
192.7228882647
 30
0.0
  0
SEQEND
  5
4FE
  8
0
  6
CONTINUOUS
 62
     7
  0
LINE
  5
BA
  8
0
  6
CONTINUOUS
 62
     7
 10
120.9589636298
 20
192.7228882647
 30
0.0
 11
121.9283365816
 21
193.1431783607
 31
0.0
  0
POLYLINE
  5
BB
  8
0
  6
CONTINUOUS
 62
     7
 66
     1
 10
0.0
 20
0.0
 30
0.0
  0
VERTEX
  5
312
  8
0
  6
CONTINUOUS
 62
     7
 10
121.894351456
 20
191.6550731283
 30
0.0
  0
VERTEX
  5
313
  8
0
  6
CONTINUOUS
 62
     7
 10
122.0029805753
 20
191.7717418191
 30
0.0
  0
VERTEX
  5
314
  8
0
  6
CONTINUOUS
 62
     7
 10
122.0852051499
 20
191.9218768344
 30
0.0
  0
VERTEX
  5
315
  8
0
  6
CONTINUOUS
 62
     7
 10
122.1378339424
 20
192.0997255052
 30
0.0
  0
VERTEX
  5
316
  8
0
  6
CONTINUOUS
 62
     7
 10
122.1588135328
 20
192.2984508861
 30
0.0
  0
VERTEX
  5
317
  8
0
  6
CONTINUOUS
 62
     7
 10
122.1473108131
 20
192.5104023471
 30
0.0
  0
VERTEX
  5
318
  8
0
  6
CONTINUOUS
 62
     7
 10
122.1037537774
 20
192.7274058563
 30
0.0
  0
VERTEX
  5
319
  8
0
  6
CONTINUOUS
 62
     7
 10
122.0298123889
 20
192.9410805308
 30
0.0
  0
VERTEX
  5
31A
  8
0
  6
CONTINUOUS
 62
     7
 10
121.9283365816
 20
193.1431783607
 30
0.0
  0
SEQEND
  5
4FD
  8
0
  6
CONTINUOUS
 62
     7
  0
LINE
  5
BC
  8
0
  6
CONTINUOUS
 62
     7
 10
120.9589636298
 20
192.7228882647
 30
0.0
 11
119.8411197744
 21
194.6221355289
 31
0.0
  0
LINE
  5
BD
  8
0
  6
CONTINUOUS
 62
     7
 10
120.3143377917
 20
190.7329257623
 30
0.0
 11
120.9263979416
 21
191.2330096276
 31
0.0
  0
LINE
  5
BE
  8
0
  6
CONTINUOUS
 62
     7
 10
119.1017489063
 20
192.7942490588
 30
0.0
 11
120.3143377917
 21
190.7329257623
 31
0.0
  0
POLYLINE
  5
BF
  8
0
  6
CONTINUOUS
 62
     7
 66
     1
 10
0.0
 20
0.0
 30
0.0
  0
VERTEX
  5
31B
  8
0
  6
CONTINUOUS
 62
     7
 10
119.8411197744
 20
194.6221355289
 30
0.0
  0
VERTEX
  5
31C
  8
0
  6
CONTINUOUS
 62
     7
 10
119.6842884724
 20
194.8436449461
 30
0.0
  0
VERTEX
  5
31D
  8
0
  6
CONTINUOUS
 62
     7
 10
119.501068711
 20
195.0227369948
 30
0.0
  0
VERTEX
  5
31E
  8
0
  6
CONTINUOUS
 62
     7
 10
119.3021688912
 20
195.1489683269
 30
0.0
  0
VERTEX
  5
31F
  8
0
  6
CONTINUOUS
 62
     7
 10
119.0992014082
 20
195.2150321485
 30
0.0
  0
VERTEX
  5
320
  8
0
  6
CONTINUOUS
 62
     7
 10
118.9039937395
 20
195.2171269512
 30
0.0
  0
VERTEX
  5
321
  8
0
  6
CONTINUOUS
 62
     7
 10
118.7278936508
 20
195.1552127837
 30
0.0
  0
VERTEX
  5
322
  8
0
  6
CONTINUOUS
 62
     7
 10
118.5811173203
 20
195.0329591242
 30
0.0
  0
VERTEX
  5
323
  8
0
  6
CONTINUOUS
 62
     7
 10
118.4743619565
 20
194.8625024722
 30
0.0
  0
SEQEND
  5
4FC
  8
0
  6
CONTINUOUS
 62
     7
  0
LINE
  5
C0
  8
0
  6
CONTINUOUS
 62
     7
 10
121.9283365816
 20
193.1431783607
 30
0.0
 11
120.8119858373
 21
195.0392095293
 31
0.0
  0
LINE
  5
C1
  8
0
  6
CONTINUOUS
 62
     7
 10
119.8411197744
 20
194.6221355289
 30
0.0
 11
119.9018913497
 21
194.6482423679
 31
0.0
  0
POLYLINE
  5
C2
  8
0
  6
CONTINUOUS
 62
     7
 66
     1
 10
0.0
 20
0.0
 30
0.0
  0
VERTEX
  5
324
  8
0
  6
CONTINUOUS
 62
     7
 10
120.7513987977
 20
195.0131819649
 30
0.0
  0
VERTEX
  5
325
  8
0
  6
CONTINUOUS
 62
     7
 10
120.832707878
 20
194.820646421
 30
0.0
  0
VERTEX
  5
326
  8
0
  6
CONTINUOUS
 62
     7
 10
120.853060798
 20
194.6292933147
 30
0.0
  0
VERTEX
  5
327
  8
0
  6
CONTINUOUS
 62
     7
 10
120.809983634
 20
194.4621777233
 30
0.0
  0
VERTEX
  5
328
  8
0
  6
CONTINUOUS
 62
     7
 10
120.7086259382
 20
194.3394502151
 30
0.0
  0
VERTEX
  5
329
  8
0
  6
CONTINUOUS
 62
     7
 10
120.5611727801
 20
194.275944323
 30
0.0
  0
VERTEX
  5
32A
  8
0
  6
CONTINUOUS
 62
     7
 10
120.3853883837
 20
194.2793669712
 30
0.0
  0
VERTEX
  5
32B
  8
0
  6
CONTINUOUS
 62
     7
 10
120.2024806182
 20
194.3493456949
 30
0.0
  0
VERTEX
  5
32C
  8
0
  6
CONTINUOUS
 62
     7
 10
120.0345493278
 20
194.477462214
 30
0.0
  0
VERTEX
  5
32D
  8
0
  6
CONTINUOUS
 62
     7
 10
119.9018913497
 20
194.6482423679
 30
0.0
  0
SEQEND
  5
4FB
  8
0
  6
CONTINUOUS
 62
     7
  0
LINE
  5
C3
  8
0
  6
CONTINUOUS
 62
     7
 10
120.7513987977
 20
195.0131819649
 30
0.0
 11
120.8119858373
 21
195.0392095293
 31
0.0
  0
POLYLINE
  5
C4
  8
0
  6
CONTINUOUS
 62
     7
 66
     1
 10
0.0
 20
0.0
 30
0.0
  0
VERTEX
  5
32E
  8
0
  6
CONTINUOUS
 62
     7
 10
118.7846131752
 20
193.4485405574
 30
0.0
  0
VERTEX
  5
32F
  8
0
  6
CONTINUOUS
 62
     7
 10
118.8573983756
 20
193.551791044
 30
0.0
  0
VERTEX
  5
330
  8
0
  6
CONTINUOUS
 62
     7
 10
118.8851180432
 20
193.6971804797
 30
0.0
  0
VERTEX
  5
331
  8
0
  6
CONTINUOUS
 62
     7
 10
118.8635192312
 20
193.8625632054
 30
0.0
  0
VERTEX
  5
332
  8
0
  6
CONTINUOUS
 62
     7
 10
118.795880631
 20
194.0227236402
 30
0.0
  0
VERTEX
  5
333
  8
0
  6
CONTINUOUS
 62
     7
 10
118.6925140919
 20
194.1532300539
 30
0.0
  0
VERTEX
  5
334
  8
0
  6
CONTINUOUS
 62
     7
 10
118.5691890969
 20
194.2341896537
 30
0.0
  0
VERTEX
  5
335
  8
0
  6
CONTINUOUS
 62
     7
 10
118.4447132417
 20
194.2532901922
 30
0.0
  0
VERTEX
  5
336
  8
0
  6
CONTINUOUS
 62
     7
 10
118.3380486627
 20
194.2076564206
 30
0.0
  0
VERTEX
  5
337
  8
0
  6
CONTINUOUS
 62
     7
 10
118.2654174913
 20
194.104279775
 30
0.0
  0
VERTEX
  5
338
  8
0
  6
CONTINUOUS
 62
     7
 10
118.2378424791
 20
193.9589288964
 30
0.0
  0
VERTEX
  5
339
  8
0
  6
CONTINUOUS
 62
     7
 10
118.2594917397
 20
193.793722021
 30
0.0
  0
VERTEX
  5
33A
  8
0
  6
CONTINUOUS
 62
     7
 10
118.3270571253
 20
193.6337765555
 30
0.0
  0
VERTEX
  5
33B
  8
0
  6
CONTINUOUS
 62
     7
 10
118.4302695402
 20
193.5033914613
 30
0.0
  0
VERTEX
  5
33C
  8
0
  6
CONTINUOUS
 62
     7
 10
118.5534497857
 20
193.4223884655
 30
0.0
  0
VERTEX
  5
33D
  8
0
  6
CONTINUOUS
 62
     7
 10
118.6778752865
 20
193.4031169153
 30
0.0
  0
VERTEX
  5
33E
  8
0
  6
CONTINUOUS
 62
     7
 10
118.7846131752
 20
193.4485405574
 30
0.0
  0
SEQEND
  5
4FA
  8
0
  6
CONTINUOUS
 62
     7
  0
ARC
  5
C5
  8
0
  6
CONTINUOUS
 62
     7
 10
118.7131249383
 20
193.6972851929
 30
0.0
 40
0.3469814396195691
 50
212.6492314234
 51
300.6702312457
  0
POLYLINE
  5
C6
  8
0
  6
CONTINUOUS
 62
     7
 66
     1
 10
0.0
 20
0.0
 30
0.0
  0
VERTEX
  5
33F
  8
0
  6
CONTINUOUS
 62
     7
 10
118.2361884805
 20
193.9460174162
 30
0.0
  0
VERTEX
  5
340
  8
0
  6
CONTINUOUS
 62
     7
 10
118.2363387791
 20
194.0530533964
 30
0.0
  0
VERTEX
  5
341
  8
0
  6
CONTINUOUS
 62
     7
 10
118.2743276402
 20
194.2023138829
 30
0.0
  0
VERTEX
  5
342
  8
0
  6
CONTINUOUS
 62
     7
 10
118.3542883821
 20
194.3096791248
 30
0.0
  0
VERTEX
  5
343
  8
0
  6
CONTINUOUS
 62
     7
 10
118.4666088723
 20
194.3621622629
 30
0.0
  0
VERTEX
  5
344
  8
0
  6
CONTINUOUS
 62
     7
 10
118.467203823
 20
194.3622685791
 30
0.0
  0
SEQEND
  5
4F9
  8
0
  6
CONTINUOUS
 62
     7
  0
POLYLINE
  5
C7
  8
0
  6
CONTINUOUS
 62
     7
 66
     1
 10
0.0
 20
0.0
 30
0.0
  0
VERTEX
  5
345
  8
0
  6
CONTINUOUS
 62
     7
 10
120.8119858373
 20
195.0392095293
 30
0.0
  0
VERTEX
  5
346
  8
0
  6
CONTINUOUS
 62
     7
 10
120.6553212738
 20
195.2603224429
 30
0.0
  0
VERTEX
  5
347
  8
0
  6
CONTINUOUS
 62
     7
 10
120.4722206221
 20
195.4390480562
 30
0.0
  0
VERTEX
  5
348
  8
0
  6
CONTINUOUS
 62
     7
 10
120.2733852493
 20
195.5649644419
 30
0.0
  0
VERTEX
  5
349
  8
0
  6
CONTINUOUS
 62
     7
 10
120.0704237644
 20
195.6307830907
 30
0.0
  0
VERTEX
  5
34A
  8
0
  6
CONTINUOUS
 62
     7
 10
119.8751632888
 20
195.632716642
 30
0.0
  0
VERTEX
  5
34B
  8
0
  6
CONTINUOUS
 62
     7
 10
119.752050491
 20
195.5971297425
 30
0.0
  0
SEQEND
  5
4F8
  8
0
  6
CONTINUOUS
 62
     7
  0
POLYLINE
  5
C8
  8
0
  6
CONTINUOUS
 62
     7
 66
     1
 10
0.0
 20
0.0
 30
0.0
  0
VERTEX
  5
34C
  8
0
  6
CONTINUOUS
 62
     7
 10
119.9018913497
 20
194.6482423679
 30
0.0
  0
VERTEX
  5
34D
  8
0
  6
CONTINUOUS
 62
     7
 10
119.8831503621
 20
194.6806863718
 30
0.0
  0
VERTEX
  5
34E
  8
0
  6
CONTINUOUS
 62
     7
 10
119.7980928065
 20
194.8487987138
 30
0.0
  0
VERTEX
  5
34F
  8
0
  6
CONTINUOUS
 62
     7
 10
119.7376511587
 20
195.0304395353
 30
0.0
  0
VERTEX
  5
350
  8
0
  6
CONTINUOUS
 62
     7
 10
119.7354251722
 20
195.1607130172
 30
0.0
  0
VERTEX
  5
351
  8
0
  6
CONTINUOUS
 62
     7
 10
119.7809800042
 20
195.2485075425
 30
0.0
  0
VERTEX
  5
352
  8
0
  6
CONTINUOUS
 62
     7
 10
119.8780798882
 20
195.3127918913
 30
0.0
  0
VERTEX
  5
353
  8
0
  6
CONTINUOUS
 62
     7
 10
120.0208259517
 20
195.3476421091
 30
0.0
  0
VERTEX
  5
354
  8
0
  6
CONTINUOUS
 62
     7
 10
120.2432533119
 20
195.3411752404
 30
0.0
  0
VERTEX
  5
355
  8
0
  6
CONTINUOUS
 62
     7
 10
120.4476876891
 20
195.2796822994
 30
0.0
  0
VERTEX
  5
356
  8
0
  6
CONTINUOUS
 62
     7
 10
120.6194211255
 20
195.1706971798
 30
0.0
  0
VERTEX
  5
357
  8
0
  6
CONTINUOUS
 62
     7
 10
120.7513987977
 20
195.0131819649
 30
0.0
  0
SEQEND
  5
4F7
  8
0
  6
CONTINUOUS
 62
     7
  0
LINE
  5
C9
  8
0
  6
CONTINUOUS
 62
     7
 10
120.6177291231
 20
194.3791553105
 30
0.0
 11
120.6279380228
 21
194.3880127333
 31
0.0
  0
ARC
  5
CA
  8
0
  6
CONTINUOUS
 62
     7
 10
120.9617928454
 20
194.5430378482
 30
0.0
 40
0.51507392265636
 50
114.1089784347
 51
128.1405746757
  0
POLYLINE
  5
CB
  8
0
  6
CONTINUOUS
 62
     7
 66
     1
 10
0.0
 20
0.0
 30
0.0
  0
VERTEX
  5
358
  8
0
  6
CONTINUOUS
 62
     7
 10
119.8438292584
 20
195.1185526391
 30
0.0
  0
VERTEX
  5
359
  8
0
  6
CONTINUOUS
 62
     7
 10
119.8264758241
 20
195.1074802101
 30
0.0
  0
VERTEX
  5
35A
  8
0
  6
CONTINUOUS
 62
     7
 10
119.8259575684
 20
195.1065701907
 30
0.0
  0
SEQEND
  5
4F6
  8
0
  6
CONTINUOUS
 62
     7
  0
LINE
  5
CC
  8
0
  6
CONTINUOUS
 62
     7
 10
120.3143377917
 20
190.7329257623
 30
0.0
 11
121.2816479563
 21
191.1550855906
 31
0.0
  0
LINE
  5
CD
  8
0
  6
CONTINUOUS
 62
     7
 10
121.2816479563
 20
191.1550855906
 30
0.0
 11
121.894351456
 21
191.6550731283
 31
0.0
  0
ARC
  5
CE
  8
0
  6
CONTINUOUS
 62
     7
 10
119.2420094729
 20
193.5611530861
 30
0.0
 40
0.4517973297544071
 50
207.8857900607
 51
284.6220562585
  0
POLYLINE
  5
CF
  8
0
  6
CONTINUOUS
 62
     7
 66
     1
 10
0.0
 20
0.0
 30
0.0
  0
VERTEX
  5
35B
  8
0
  6
CONTINUOUS
 62
     7
 10
118.8426741017
 20
193.3498426782
 30
0.0
  0
VERTEX
  5
35C
  8
0
  6
CONTINUOUS
 62
     7
 10
118.9268342817
 20
193.4623977377
 30
0.0
  0
VERTEX
  5
35D
  8
0
  6
CONTINUOUS
 62
     7
 10
118.9669228158
 20
193.6191495844
 30
0.0
  0
VERTEX
  5
35E
  8
0
  6
CONTINUOUS
 62
     7
 10
118.9580702304
 20
193.8011907152
 30
0.0
  0
VERTEX
  5
35F
  8
0
  6
CONTINUOUS
 62
     7
 10
118.9013203831
 20
193.9865189224
 30
0.0
  0
VERTEX
  5
360
  8
0
  6
CONTINUOUS
 62
     7
 10
118.8035262217
 20
194.1527406916
 30
0.0
  0
VERTEX
  5
361
  8
0
  6
CONTINUOUS
 62
     7
 10
118.6765124178
 20
194.2797526643
 30
0.0
  0
VERTEX
  5
362
  8
0
  6
CONTINUOUS
 62
     7
 10
118.535641883
 20
194.3522288147
 30
0.0
  0
VERTEX
  5
363
  8
0
  6
CONTINUOUS
 62
     7
 10
118.397931981
 20
194.3614399356
 30
0.0
  0
VERTEX
  5
364
  8
0
  6
CONTINUOUS
 62
     7
 10
118.2800049977
 20
194.306324957
 30
0.0
  0
SEQEND
  5
4F5
  8
0
  6
CONTINUOUS
 62
     7
  0
POLYLINE
  5
D0
  8
0
  6
CONTINUOUS
 62
     7
 66
     1
 10
0.0
 20
0.0
 30
0.0
  0
VERTEX
  5
365
  8
0
  6
CONTINUOUS
 62
     7
 10
118.7890128419
 20
194.9914473026
 30
0.0
  0
VERTEX
  5
366
  8
0
  6
CONTINUOUS
 62
     7
 10
118.828822456
 20
195.0062565572
 30
0.0
  0
VERTEX
  5
367
  8
0
  6
CONTINUOUS
 62
     7
 10
119.0022954996
 20
195.0264374928
 30
0.0
  0
VERTEX
  5
368
  8
0
  6
CONTINUOUS
 62
     7
 10
119.1872878823
 20
194.9827355624
 30
0.0
  0
VERTEX
  5
369
  8
0
  6
CONTINUOUS
 62
     7
 10
119.3711680578
 20
194.8780659559
 30
0.0
  0
VERTEX
  5
36A
  8
0
  6
CONTINUOUS
 62
     7
 10
119.541359829
 20
194.7195524222
 30
0.0
  0
VERTEX
  5
36B
  8
0
  6
CONTINUOUS
 62
     7
 10
119.6862146196
 20
194.517999229
 30
0.0
  0
VERTEX
  5
36C
  8
0
  6
CONTINUOUS
 62
     7
 10
119.7958121137
 20
194.2872001666
 30
0.0
  0
VERTEX
  5
36D
  8
0
  6
CONTINUOUS
 62
     7
 10
119.8626520937
 20
194.0429426043
 30
0.0
  0
VERTEX
  5
36E
  8
0
  6
CONTINUOUS
 62
     7
 10
119.882177239
 20
193.8019434712
 30
0.0
  0
VERTEX
  5
36F
  8
0
  6
CONTINUOUS
 62
     7
 10
119.853078266
 20
193.5806784571
 30
0.0
  0
VERTEX
  5
370
  8
0
  6
CONTINUOUS
 62
     7
 10
119.7773839371
 20
193.3942513907
 30
0.0
  0
VERTEX
  5
371
  8
0
  6
CONTINUOUS
 62
     7
 10
119.6603037668
 20
193.2553421327
 30
0.0
  0
SEQEND
  5
4F4
  8
0
  6
CONTINUOUS
 62
     7
  0
LINE
  5
D1
  8
0
  6
CONTINUOUS
 62
     7
 10
119.3560620327
 20
193.1239885395
 30
0.0
 11
119.6603037668
 21
193.2553421327
 31
0.0
  0
ARC
  5
D2
  8
0
  6
CONTINUOUS
 62
     7
 10
118.6806198249
 20
193.544289477
 30
0.0
 40
0.2531227887246133
 50
283.3733355722
 51
309.8082277789
  0
POLYLINE
  5
D3
  8
0
  6
CONTINUOUS
 62
     7
 66
     1
 10
0.0
 20
0.0
 30
0.0
  0
VERTEX
  5
372
  8
0
  6
CONTINUOUS
 62
     7
 10
118.2034370612
 20
194.2087503862
 30
0.0
  0
VERTEX
  5
373
  8
0
  6
CONTINUOUS
 62
     7
 10
118.1605640169
 20
194.0724178833
 30
0.0
  0
VERTEX
  5
374
  8
0
  6
CONTINUOUS
 62
     7
 10
118.1571740432
 20
193.9120732154
 30
0.0
  0
VERTEX
  5
375
  8
0
  6
CONTINUOUS
 62
     7
 10
118.1935825968
 20
193.7435061594
 30
0.0
  0
VERTEX
  5
376
  8
0
  6
CONTINUOUS
 62
     7
 10
118.2662008359
 20
193.5832887364
 30
0.0
  0
VERTEX
  5
377
  8
0
  6
CONTINUOUS
 62
     7
 10
118.3678845392
 20
193.4471710101
 30
0.0
  0
VERTEX
  5
378
  8
0
  6
CONTINUOUS
 62
     7
 10
118.4886407137
 20
193.3485534928
 30
0.0
  0
VERTEX
  5
379
  8
0
  6
CONTINUOUS
 62
     7
 10
118.6165999567
 20
193.2971403116
 30
0.0
  0
VERTEX
  5
37A
  8
0
  6
CONTINUOUS
 62
     7
 10
118.7391659023
 20
193.2980304609
 30
0.0
  0
SEQEND
  5
4F3
  8
0
  6
CONTINUOUS
 62
     7
  0
ARC
  5
D4
  8
0
  6
CONTINUOUS
 62
     7
 10
118.4809471763
 20
194.0698140435
 30
0.0
 40
0.3103468565028459
 50
130.3515813343
 51
153.4050135973
  0
LINE
  5
D5
  8
0
  6
CONTINUOUS
 62
     7
 10
119.3560620327
 20
193.1239885395
 30
0.0
 11
119.2664088057
 21
193.0497354525
 31
0.0
  0
ARC
  5
D6
  8
0
  6
CONTINUOUS
 62
     7
 10
119.1538341654
 20
193.4946238363
 30
0.0
 40
0.4589103656531427
 50
205.3655343553
 51
284.2000693063
  0
LINE
  5
D7
  8
0
  6
CONTINUOUS
 62
     7
 10
117.8466243215
 20
192.5592385626
 30
0.0
 11
118.7391659023
 21
193.2980304609
 31
0.0
  0
LINE
  5
D8
  8
0
  6
CONTINUOUS
 62
     7
 10
119.2664088057
 20
193.0497354525
 30
0.0
 11
118.3729536364
 21
192.3118787479
 31
0.0
  0
ARC
  5
D9
  8
0
  6
CONTINUOUS
 62
     7
 10
118.2600827542
 20
192.7553519888
 30
0.0
 40
0.4576115727048723
 50
205.37612711
 51
284.2794922092
  0
LINE
  5
DA
  8
0
  6
CONTINUOUS
 62
     7
 10
118.2034370612
 20
194.2087503862
 30
0.0
 11
117.3123653827
 21
193.4678173904
 31
0.0
  0
LINE
  5
DB
  8
0
  6
CONTINUOUS
 62
     7
 10
117.3123653827
 20
193.4678173904
 30
0.0
 11
117.8466243215
 21
192.5592385626
 31
0.0
  0
ARC
  5
DC
  8
0
  6
CONTINUOUS
 62
     7
 10
117.5967527418
 20
193.6913797681
 30
0.0
 40
0.3617406622369367
 50
136.5154052477
 51
218.1715699752
  0
POLYLINE
  5
DD
  8
0
  6
CONTINUOUS
 62
     7
 66
     1
 10
0.0
 20
0.0
 30
0.0
  0
VERTEX
  5
37B
  8
0
  6
CONTINUOUS
 62
     7
 10
119.0643740715
 20
192.7395356174
 30
0.0
  0
VERTEX
  5
37C
  8
0
  6
CONTINUOUS
 62
     7
 10
119.0534412846
 20
192.7351646402
 30
0.0
  0
VERTEX
  5
37D
  8
0
  6
CONTINUOUS
 62
     7
 10
119.0447257577
 20
192.7324457003
 30
0.0
  0
VERTEX
  5
37E
  8
0
  6
CONTINUOUS
 62
     7
 10
119.0385662647
 20
192.7314880809
 30
0.0
  0
VERTEX
  5
37F
  8
0
  6
CONTINUOUS
 62
     7
 10
119.0351973511
 20
192.7323200779
 30
0.0
  0
VERTEX
  5
380
  8
0
  6
CONTINUOUS
 62
     7
 10
119.034747038
 20
192.7349181585
 30
0.0
  0
VERTEX
  5
381
  8
0
  6
CONTINUOUS
 62
     7
 10
119.0372352873
 20
192.7391774909
 30
0.0
  0
VERTEX
  5
382
  8
0
  6
CONTINUOUS
 62
     7
 10
119.0425666233
 20
192.7449341943
 30
0.0
  0
VERTEX
  5
383
  8
0
  6
CONTINUOUS
 62
     7
 10
119.0505367334
 20
192.7519696182
 30
0.0
  0
SEQEND
  5
4F2
  8
0
  6
CONTINUOUS
 62
     7
  0
LINE
  5
DE
  8
0
  6
CONTINUOUS
 62
     7
 10
119.0643740715
 20
192.7395356174
 30
0.0
 11
119.1198340626
 21
192.7635038648
 31
0.0
  0
LINE
  5
DF
  8
0
  6
CONTINUOUS
 62
     7
 10
118.3729536364
 20
192.3118787479
 30
0.0
 11
119.1801824583
 21
192.6609135192
 31
0.0
  0
LINE
  5
E0
  8
0
  6
CONTINUOUS
 62
     7
 10
119.6603037668
 20
193.2553421327
 30
0.0
 11
119.0505367334
 21
192.7519696182
 31
0.0
  0
ARC
  5
E1
  8
0
  6
CONTINUOUS
 62
     7
 10
94.525534009
 20
182.9154533763
 30
0.0
 40
0.4739820399507595
 50
208.4490359988
 51
285.8219982512
  0
POLYLINE
  5
E2
  8
0
  6
CONTINUOUS
 62
     7
 66
     1
 10
0.0
 20
0.0
 30
0.0
  0
VERTEX
  5
384
  8
0
  6
CONTINUOUS
 62
     7
 10
94.1087894749
 20
182.6896592943
 30
0.0
  0
VERTEX
  5
385
  8
0
  6
CONTINUOUS
 62
     7
 10
94.1893186412
 20
182.8037945872
 30
0.0
  0
VERTEX
  5
386
  8
0
  6
CONTINUOUS
 62
     7
 10
94.2250712104
 20
182.964430422
 30
0.0
  0
VERTEX
  5
387
  8
0
  6
CONTINUOUS
 62
     7
 10
94.2116994935
 20
183.1521914718
 30
0.0
  0
VERTEX
  5
388
  8
0
  6
CONTINUOUS
 62
     7
 10
94.1507929948
 20
183.3443832615
 30
0.0
  0
VERTEX
  5
389
  8
0
  6
CONTINUOUS
 62
     7
 10
94.0497072769
 20
183.5177808018
 30
0.0
  0
VERTEX
  5
38A
  8
0
  6
CONTINUOUS
 62
     7
 10
93.9206664158
 20
183.6514110287
 30
0.0
  0
VERTEX
  5
38B
  8
0
  6
CONTINUOUS
 62
     7
 10
93.7792792285
 20
183.7291478289
 30
0.0
  0
VERTEX
  5
38C
  8
0
  6
CONTINUOUS
 62
     7
 10
93.6426260722
 20
183.7416281381
 30
0.0
  0
VERTEX
  5
38D
  8
0
  6
CONTINUOUS
 62
     7
 10
93.527200642
 20
183.6873998073
 30
0.0
  0
SEQEND
  5
4F1
  8
0
  6
CONTINUOUS
 62
     7
  0
POLYLINE
  5
E3
  8
0
  6
CONTINUOUS
 62
     7
 66
     1
 10
0.0
 20
0.0
 30
0.0
  0
VERTEX
  5
38E
  8
0
  6
CONTINUOUS
 62
     7
 10
94.0775800673
 20
184.4094906171
 30
0.0
  0
VERTEX
  5
38F
  8
0
  6
CONTINUOUS
 62
     7
 10
94.1166476683
 20
184.4238899588
 30
0.0
  0
VERTEX
  5
390
  8
0
  6
CONTINUOUS
 62
     7
 10
94.2880089809
 20
184.4409376423
 30
0.0
  0
VERTEX
  5
391
  8
0
  6
CONTINUOUS
 62
     7
 10
94.4723989056
 20
184.3919113237
 30
0.0
  0
VERTEX
  5
392
  8
0
  6
CONTINUOUS
 62
     7
 10
94.6572278932
 20
184.2800854705
 30
0.0
  0
VERTEX
  5
393
  8
0
  6
CONTINUOUS
 62
     7
 10
94.8298539729
 20
184.1130713277
 30
0.0
  0
VERTEX
  5
394
  8
0
  6
CONTINUOUS
 62
     7
 10
94.9784609124
 20
183.9022542721
 30
0.0
  0
VERTEX
  5
395
  8
0
  6
CONTINUOUS
 62
     7
 10
95.0928696659
 20
183.6620642682
 30
0.0
  0
VERTEX
  5
396
  8
0
  6
CONTINUOUS
 62
     7
 10
95.1652496491
 20
183.4089339819
 30
0.0
  0
VERTEX
  5
397
  8
0
  6
CONTINUOUS
 62
     7
 10
95.1906639949
 20
183.1601901235
 30
0.0
  0
VERTEX
  5
398
  8
0
  6
CONTINUOUS
 62
     7
 10
95.1674014655
 20
182.9328394677
 30
0.0
  0
VERTEX
  5
399
  8
0
  6
CONTINUOUS
 62
     7
 10
95.0970938018
 20
182.7424011992
 30
0.0
  0
VERTEX
  5
39A
  8
0
  6
CONTINUOUS
 62
     7
 10
94.9845857572
 20
182.6018259929
 30
0.0
  0
SEQEND
  5
4F0
  8
0
  6
CONTINUOUS
 62
     7
  0
LINE
  5
E4
  8
0
  6
CONTINUOUS
 62
     7
 10
94.6547650524
 20
182.4594289125
 30
0.0
 11
94.9845857572
 21
182.6018259929
 31
0.0
  0
ARC
  5
E5
  8
0
  6
CONTINUOUS
 62
     7
 10
93.9559068722
 20
182.8665824204
 30
0.0
 40
0.2338266082978849
 50
282.7619541562
 51
310.8309132702
  0
POLYLINE
  5
E6
  8
0
  6
CONTINUOUS
 62
     7
 66
     1
 10
0.0
 20
0.0
 30
0.0
  0
VERTEX
  5
39B
  8
0
  6
CONTINUOUS
 62
     7
 10
93.4538221118
 20
183.5885266546
 30
0.0
  0
VERTEX
  5
39C
  8
0
  6
CONTINUOUS
 62
     7
 10
93.4148032409
 20
183.4489900209
 30
0.0
  0
VERTEX
  5
39D
  8
0
  6
CONTINUOUS
 62
     7
 10
93.4155033489
 20
183.2838574032
 30
0.0
  0
VERTEX
  5
39E
  8
0
  6
CONTINUOUS
 62
     7
 10
93.4558345256
 20
183.1093895842
 30
0.0
  0
VERTEX
  5
39F
  8
0
  6
CONTINUOUS
 62
     7
 10
93.5318223181
 20
182.9427373521
 30
0.0
  0
VERTEX
  5
3A0
  8
0
  6
CONTINUOUS
 62
     7
 10
93.6359919866
 20
182.8002818377
 30
0.0
  0
VERTEX
  5
3A1
  8
0
  6
CONTINUOUS
 62
     7
 10
93.758106782
 20
182.6960460397
 30
0.0
  0
VERTEX
  5
3A2
  8
0
  6
CONTINUOUS
 62
     7
 10
93.8861646711
 20
182.6402865327
 30
0.0
  0
VERTEX
  5
3A3
  8
0
  6
CONTINUOUS
 62
     7
 10
94.0075593863
 20
182.6385322055
 30
0.0
  0
SEQEND
  5
4EF
  8
0
  6
CONTINUOUS
 62
     7
  0
ARC
  5
E7
  8
0
  6
CONTINUOUS
 62
     7
 10
93.7244918165
 20
183.4643150737
 30
0.0
 40
0.2978096806491861
 50
131.4888292051
 51
155.3493906301
  0
LINE
  5
E8
  8
0
  6
CONTINUOUS
 62
     7
 10
94.6547650524
 20
182.4594289125
 30
0.0
 11
94.5678718828
 21
182.3849033421
 31
0.0
  0
ARC
  5
E9
  8
0
  6
CONTINUOUS
 62
     7
 10
94.4398557787
 20
182.8478231478
 30
0.0
 40
0.4802945652905851
 50
205.8333698226
 51
285.4582807621
  0
LINE
  5
EA
  8
0
  6
CONTINUOUS
 62
     7
 10
93.1421430538
 20
181.8968773652
 30
0.0
 11
94.0075593863
 21
182.6385322055
 31
0.0
  0
LINE
  5
EB
  8
0
  6
CONTINUOUS
 62
     7
 10
94.5678718828
 20
182.3849033421
 30
0.0
 11
93.7014068492
 21
181.644237236
 31
0.0
  0
ARC
  5
EC
  8
0
  6
CONTINUOUS
 62
     7
 10
93.573147545
 20
182.1056474205
 30
0.0
 40
0.478904800007591
 50
205.8446303435
 51
285.534463616
  0
LINE
  5
ED
  8
0
  6
CONTINUOUS
 62
     7
 10
93.4538221118
 20
183.5885266546
 30
0.0
 11
92.5899780196
 21
182.8445418484
 31
0.0
  0
LINE
  5
EE
  8
0
  6
CONTINUOUS
 62
     7
 10
92.5899780196
 20
182.8445418484
 30
0.0
 11
93.1421430538
 21
181.8968773652
 31
0.0
  0
ARC
  5
EF
  8
0
  6
CONTINUOUS
 62
     7
 10
92.893225892
 20
183.0736703003
 30
0.0
 40
0.3800777810241141
 50
136.2332021975
 51
217.074015937
  0
POLYLINE
  5
F0
  8
0
  6
CONTINUOUS
 62
     7
 66
     1
 10
0.0
 20
0.0
 30
0.0
  0
VERTEX
  5
3A4
  8
0
  6
CONTINUOUS
 62
     7
 10
94.4134731912
 20
182.0861099851
 30
0.0
  0
VERTEX
  5
3A5
  8
0
  6
CONTINUOUS
 62
     7
 10
94.4015207876
 20
182.081312901
 30
0.0
  0
VERTEX
  5
3A6
  8
0
  6
CONTINUOUS
 62
     7
 10
94.3917715089
 20
182.0781902599
 30
0.0
  0
VERTEX
  5
3A7
  8
0
  6
CONTINUOUS
 62
     7
 10
94.3846019774
 20
182.0768661789
 30
0.0
  0
VERTEX
  5
3A8
  8
0
  6
CONTINUOUS
 62
     7
 10
94.3802857168
 20
182.0773827992
 30
0.0
  0
VERTEX
  5
3A9
  8
0
  6
CONTINUOUS
 62
     7
 10
94.3789888233
 20
182.079729804
 30
0.0
  0
VERTEX
  5
3AA
  8
0
  6
CONTINUOUS
 62
     7
 10
94.3807639482
 20
182.0838118271
 30
0.0
  0
VERTEX
  5
3AB
  8
0
  6
CONTINUOUS
 62
     7
 10
94.3855411978
 20
182.0894710042
 30
0.0
  0
VERTEX
  5
3AC
  8
0
  6
CONTINUOUS
 62
     7
 10
94.3931385173
 20
182.096492945
 30
0.0
  0
SEQEND
  5
4EE
  8
0
  6
CONTINUOUS
 62
     7
  0
LINE
  5
F1
  8
0
  6
CONTINUOUS
 62
     7
 10
94.4134731912
 20
182.0861099851
 30
0.0
 11
94.4678142672
 21
182.1095946689
 31
0.0
  0
LINE
  5
F2
  8
0
  6
CONTINUOUS
 62
     7
 10
93.7014068492
 20
181.644237236
 30
0.0
 11
94.5301871306
 21
182.0025905655
 31
0.0
  0
LINE
  5
F3
  8
0
  6
CONTINUOUS
 62
     7
 10
94.9845857572
 20
182.6018259929
 30
0.0
 11
94.3931385173
 21
182.096492945
 31
0.0
  0
ARC
  5
F4
  8
0
  6
CONTINUOUS
 62
     7
 10
92.223617354
 20
123.0113705841
 30
0.0
 40
0.6919254640153325
 50
181.9800430342
 51
237.9474820675
  0
LINE
  5
F5
  8
0
  6
CONTINUOUS
 62
     7
 10
91.8564150208
 20
122.4249208468
 30
0.0
 11
101.4209710788
 21
117.2717598109
 31
0.0
  0
POLYLINE
  5
F6
  8
0
  6
CONTINUOUS
 62
     7
 66
     1
 10
0.0
 20
0.0
 30
0.0
  0
VERTEX
  5
3AD
  8
0
  6
CONTINUOUS
 62
     7
 10
101.753270322
 20
117.4870207056
 30
0.0
  0
VERTEX
  5
3AE
  8
0
  6
CONTINUOUS
 62
     7
 10
101.7467108957
 20
117.4136026852
 30
0.0
  0
VERTEX
  5
3AF
  8
0
  6
CONTINUOUS
 62
     7
 10
101.7276620398
 20
117.349877085
 30
0.0
  0
VERTEX
  5
3B0
  8
0
  6
CONTINUOUS
 62
     7
 10
101.6968607206
 20
117.2982970374
 30
0.0
  0
VERTEX
  5
3B1
  8
0
  6
CONTINUOUS
 62
     7
 10
101.6554955482
 20
117.260834496
 30
0.0
  0
VERTEX
  5
3B2
  8
0
  6
CONTINUOUS
 62
     7
 10
101.6051607691
 20
117.2389346143
 30
0.0
  0
VERTEX
  5
3B3
  8
0
  6
CONTINUOUS
 62
     7
 10
101.54779378
 20
117.2334207117
 30
0.0
  0
VERTEX
  5
3B4
  8
0
  6
CONTINUOUS
 62
     7
 10
101.4856007103
 20
117.2445078387
 30
0.0
  0
VERTEX
  5
3B5
  8
0
  6
CONTINUOUS
 62
     7
 10
101.4209710788
 20
117.2717598109
 30
0.0
  0
SEQEND
  5
4ED
  8
0
  6
CONTINUOUS
 62
     7
  0
LINE
  5
F7
  8
0
  6
CONTINUOUS
 62
     7
 10
101.753270322
 20
117.4870207056
 30
0.0
 11
101.7616210586
 21
120.9142113486
 31
0.0
  0
ARC
  5
F8
  8
0
  6
CONTINUOUS
 62
     7
 10
101.0664649461
 20
120.8954124756
 30
0.0
 40
0.6954102519023944
 50
1.5490529573
 51
58.5113914464
  0
LINE
  5
F9
  8
0
  6
CONTINUOUS
 62
     7
 10
101.4296979112
 20
121.4884194162
 30
0.0
 11
91.8210838627
 21
126.6000261289
 31
0.0
  0
POLYLINE
  5
FA
  8
0
  6
CONTINUOUS
 62
     7
 66
     1
 10
0.0
 20
0.0
 30
0.0
  0
VERTEX
  5
3B6
  8
0
  6
CONTINUOUS
 62
     7
 10
91.5022169945
 20
126.3785896286
 30
0.0
  0
VERTEX
  5
3B7
  8
0
  6
CONTINUOUS
 62
     7
 10
91.5077299048
 20
126.4519212865
 30
0.0
  0
VERTEX
  5
3B8
  8
0
  6
CONTINUOUS
 62
     7
 10
91.5254095492
 20
126.5158571271
 30
0.0
  0
VERTEX
  5
3B9
  8
0
  6
CONTINUOUS
 62
     7
 10
91.5545815495
 20
126.5679418318
 30
0.0
  0
VERTEX
  5
3BA
  8
0
  6
CONTINUOUS
 62
     7
 10
91.5941296534
 20
126.6061680017
 30
0.0
  0
VERTEX
  5
3BB
  8
0
  6
CONTINUOUS
 62
     7
 10
91.6425386353
 20
126.6290641501
 30
0.0
  0
VERTEX
  5
3BC
  8
0
  6
CONTINUOUS
 62
     7
 10
91.6979504172
 20
126.6357411324
 30
0.0
  0
VERTEX
  5
3BD
  8
0
  6
CONTINUOUS
 62
     7
 10
91.7582379539
 20
126.6259392029
 30
0.0
  0
VERTEX
  5
3BE
  8
0
  6
CONTINUOUS
 62
     7
 10
91.8210838627
 20
126.6000261289
 30
0.0
  0
SEQEND
  5
4EC
  8
0
  6
CONTINUOUS
 62
     7
  0
LINE
  5
FB
  8
0
  6
CONTINUOUS
 62
     7
 10
91.5022169945
 20
126.3785896286
 30
0.0
 11
91.5321050231
 21
122.9874635961
 31
0.0
  0
ARC
  5
FC
  8
0
  6
CONTINUOUS
 62
     7
 10
88.0569291507
 20
133.2074366715
 30
0.0
 40
0.227147423902904
 50
322.6710426607
 51
38.7382240572
  0
LINE
  5
FD
  8
0
  6
CONTINUOUS
 62
     7
 10
88.1511153998
 20
140.0975340935
 30
0.0
 11
88.2341071197
 21
133.3495771635
 31
0.0
  0
ARC
  5
FE
  8
0
  6
CONTINUOUS
 62
     7
 10
87.9657109581
 20
140.2373625333
 30
0.0
 40
0.2322214451217338
 50
322.9771087241
 51
38.4321579938
  0
ARC
  5
FF
  8
0
  6
CONTINUOUS
 62
     7
 10
87.8655095018
 20
147.9530458764
 30
0.0
 40
0.2378770345052464
 50
323.3067371852
 51
38.1025295327
  0
LINE
  5
100
  8
0
  6
CONTINUOUS
 62
     7
 10
87.9670127236
 20
155.0667012621
 30
0.0
 11
88.0526967909
 21
148.0998328048
 31
0.0
  0
ARC
  5
101
  8
0
  6
CONTINUOUS
 62
     7
 10
87.77117756
 20
155.2110298346
 30
0.0
 40
0.2432738130891983
 50
323.6101537181
 51
37.7991129997
  0
ARC
  5
102
  8
0
  6
CONTINUOUS
 62
     7
 10
87.6675286919
 20
163.1790652701
 30
0.0
 40
0.2492891162028515
 50
323.9365043071
 51
37.4727624108
  0
LINE
  5
103
  8
0
  6
CONTINUOUS
 62
     7
 10
87.7952903732
 20
169.0292390366
 30
0.0
 11
87.8653751659
 21
163.3307288325
 31
0.0
  0
LINE
  5
104
  8
0
  6
CONTINUOUS
 62
     7
 10
149.9829481814
 20
142.0442671638
 30
0.0
 11
150.2235213676
 21
146.4746933119
 31
0.0
  0
LINE
  5
105
  8
0
  6
CONTINUOUS
 62
     7
 10
149.0862147893
 20
125.5299118806
 30
0.0
 11
149.5305596038
 21
133.7130220447
 31
0.0
  0
LINE
  5
106
  8
0
  6
CONTINUOUS
 62
     7
 10
148.2208134163
 20
109.5925710129
 30
0.0
 11
148.6497011372
 21
117.4910213925
 31
0.0
  0
LINE
  5
107
  8
0
  6
CONTINUOUS
 62
     7
 10
147.0514734111
 20
88.0578579511
 30
0.0
 11
147.7993535749
 21
101.8309134019
 31
0.0
  0
LINE
  5
108
  8
0
  6
CONTINUOUS
 62
     7
 10
88.3974736217
 20
120.0664433733
 30
0.0
 11
112.0662927121
 21
107.1499258226
 31
0.0
  0
LINE
  5
109
  8
0
  6
CONTINUOUS
 62
     7
 10
126.1753392996
 20
99.4503550424
 30
0.0
 11
134.7881228386
 21
94.7501978729
 31
0.0
  0
LINE
  5
10A
  8
0
  6
CONTINUOUS
 62
     7
 10
89.2205697496
 20
131.898311714
 30
0.0
 11
107.6360889151
 21
122.2199692229
 31
0.0
  0
POLYLINE
  5
10B
  8
0
  6
CONTINUOUS
 62
     7
 66
     1
 10
0.0
 20
0.0
 30
0.0
  0
VERTEX
  5
3BF
  8
0
  6
CONTINUOUS
 62
     7
 10
107.6360889151
 20
122.2199692229
 30
0.0
  0
VERTEX
  5
3C0
  8
0
  6
CONTINUOUS
 62
     7
 10
107.6909969637
 20
122.1472042623
 30
0.0
  0
VERTEX
  5
3C1
  8
0
  6
CONTINUOUS
 62
     7
 10
107.7560981361
 20
122.0975675967
 30
0.0
  0
VERTEX
  5
3C2
  8
0
  6
CONTINUOUS
 62
     7
 10
107.8214899854
 20
122.0786140532
 30
0.0
  0
VERTEX
  5
3C3
  8
0
  6
CONTINUOUS
 62
     7
 10
107.8772200385
 20
122.0932418916
 30
0.0
  0
VERTEX
  5
3C4
  8
0
  6
CONTINUOUS
 62
     7
 10
107.9147993982
 20
122.139237012
 30
0.0
  0
VERTEX
  5
3C5
  8
0
  6
CONTINUOUS
 62
     7
 10
107.9284975361
 20
122.2096031757
 30
0.0
  0
VERTEX
  5
3C6
  8
0
  6
CONTINUOUS
 62
     7
 10
107.9162203267
 20
122.2936280221
 30
0.0
  0
VERTEX
  5
3C7
  8
0
  6
CONTINUOUS
 62
     7
 10
107.8798338338
 20
122.3785110808
 30
0.0
  0
SEQEND
  5
4EB
  8
0
  6
CONTINUOUS
 62
     7
  0
LINE
  5
10C
  8
0
  6
CONTINUOUS
 62
     7
 10
107.8798338338
 20
122.3785110808
 30
0.0
 11
107.9885141019
 21
134.2398577062
 31
0.0
  0
LINE
  5
10D
  8
0
  6
CONTINUOUS
 62
     7
 10
88.5839042247
 20
167.6705952436
 30
0.0
 11
88.9903435251
 21
132.2973245964
 31
0.0
  0
POLYLINE
  5
10E
  8
0
  6
CONTINUOUS
 62
     7
 66
     1
 10
0.0
 20
0.0
 30
0.0
  0
VERTEX
  5
3C8
  8
0
  6
CONTINUOUS
 62
     7
 10
88.9903435251
 20
132.2973245964
 30
0.0
  0
VERTEX
  5
3C9
  8
0
  6
CONTINUOUS
 62
     7
 10
88.9562912253
 20
132.2514154773
 30
0.0
  0
VERTEX
  5
3CA
  8
0
  6
CONTINUOUS
 62
     7
 10
88.9449491854
 20
132.1821415382
 30
0.0
  0
VERTEX
  5
3CB
  8
0
  6
CONTINUOUS
 62
     7
 10
88.9580361488
 20
132.1000468172
 30
0.0
  0
VERTEX
  5
3CC
  8
0
  6
CONTINUOUS
 62
     7
 10
88.9935573469
 20
132.0176189007
 30
0.0
  0
VERTEX
  5
3CD
  8
0
  6
CONTINUOUS
 62
     7
 10
89.0461094565
 20
131.947396755
 30
0.0
  0
VERTEX
  5
3CE
  8
0
  6
CONTINUOUS
 62
     7
 10
89.1077003046
 20
131.9000633542
 30
0.0
  0
VERTEX
  5
3CF
  8
0
  6
CONTINUOUS
 62
     7
 10
89.1689621961
 20
131.8828224583
 30
0.0
  0
VERTEX
  5
3D0
  8
0
  6
CONTINUOUS
 62
     7
 10
89.2205697496
 20
131.898311714
 30
0.0
  0
SEQEND
  5
4EA
  8
0
  6
CONTINUOUS
 62
     7
  0
LINE
  5
10F
  8
0
  6
CONTINUOUS
 62
     7
 10
126.5606272459
 20
112.2741098742
 30
0.0
 11
144.9056314292
 21
102.6328267862
 31
0.0
  0
LINE
  5
110
  8
0
  6
CONTINUOUS
 62
     7
 10
109.2586161347
 20
121.3672441929
 30
0.0
 11
112.2434004187
 21
119.7985800513
 31
0.0
  0
LINE
  5
111
  8
0
  6
CONTINUOUS
 62
     7
 10
109.1287903223
 20
132.2753618835
 30
0.0
 11
109.0193994597
 21
121.7801286603
 31
0.0
  0
POLYLINE
  5
112
  8
0
  6
CONTINUOUS
 62
     7
 66
     1
 10
0.0
 20
0.0
 30
0.0
  0
VERTEX
  5
3D1
  8
0
  6
CONTINUOUS
 62
     7
 10
109.0193994597
 20
121.7801286603
 30
0.0
  0
VERTEX
  5
3D2
  8
0
  6
CONTINUOUS
 62
     7
 10
108.9816001244
 20
121.7340887154
 30
0.0
  0
VERTEX
  5
3D3
  8
0
  6
CONTINUOUS
 62
     7
 10
108.9677664458
 20
121.6636489168
 30
0.0
  0
VERTEX
  5
3D4
  8
0
  6
CONTINUOUS
 62
     7
 10
108.9799955316
 20
121.5795309087
 30
0.0
  0
VERTEX
  5
3D5
  8
0
  6
CONTINUOUS
 62
     7
 10
109.016422689
 20
121.4945298314
 30
0.0
  0
VERTEX
  5
3D6
  8
0
  6
CONTINUOUS
 62
     7
 10
109.0715069408
 20
121.4215756679
 30
0.0
  0
VERTEX
  5
3D7
  8
0
  6
CONTINUOUS
 62
     7
 10
109.1368714081
 20
121.3717666854
 30
0.0
  0
VERTEX
  5
3D8
  8
0
  6
CONTINUOUS
 62
     7
 10
109.2025748322
 20
121.3526832938
 30
0.0
  0
VERTEX
  5
3D9
  8
0
  6
CONTINUOUS
 62
     7
 10
109.2586161347
 20
121.3672441929
 30
0.0
  0
SEQEND
  5
4E9
  8
0
  6
CONTINUOUS
 62
     7
  0
POLYLINE
  5
113
  8
0
  6
CONTINUOUS
 62
     7
 66
     1
 10
0.0
 20
0.0
 30
0.0
  0
VERTEX
  5
3DA
  8
0
  6
CONTINUOUS
 62
     7
 10
103.6363818835
 20
118.1921391778
 30
0.0
  0
VERTEX
  5
3DB
  8
0
  6
CONTINUOUS
 62
     7
 10
103.6579470509
 20
118.4565487935
 30
0.0
  0
VERTEX
  5
3DC
  8
0
  6
CONTINUOUS
 62
     7
 10
103.7195338218
 20
118.6913576227
 30
0.0
  0
VERTEX
  5
3DD
  8
0
  6
CONTINUOUS
 62
     7
 10
103.8193252679
 20
118.8894303894
 30
0.0
  0
VERTEX
  5
3DE
  8
0
  6
CONTINUOUS
 62
     7
 10
103.9543478136
 20
119.0447178429
 30
0.0
  0
VERTEX
  5
3DF
  8
0
  6
CONTINUOUS
 62
     7
 10
104.1205535406
 20
119.1524496652
 30
0.0
  0
VERTEX
  5
3E0
  8
0
  6
CONTINUOUS
 62
     7
 10
104.3129376305
 20
119.2092827348
 30
0.0
  0
VERTEX
  5
3E1
  8
0
  6
CONTINUOUS
 62
     7
 10
104.5256843542
 20
119.2134177506
 30
0.0
  0
VERTEX
  5
3E2
  8
0
  6
CONTINUOUS
 62
     7
 10
104.7523404487
 20
119.1646523385
 30
0.0
  0
VERTEX
  5
3E3
  8
0
  6
CONTINUOUS
 62
     7
 10
104.9860095629
 20
119.0644065572
 30
0.0
  0
VERTEX
  5
3E4
  8
0
  6
CONTINUOUS
 62
     7
 10
105.2195629985
 20
118.9156824255
 30
0.0
  0
VERTEX
  5
3E5
  8
0
  6
CONTINUOUS
 62
     7
 10
105.4458597758
 20
118.7229757018
 30
0.0
  0
VERTEX
  5
3E6
  8
0
  6
CONTINUOUS
 62
     7
 10
105.6579692386
 20
118.4921443451
 30
0.0
  0
VERTEX
  5
3E7
  8
0
  6
CONTINUOUS
 62
     7
 10
105.8493876102
 20
118.2302353635
 30
0.0
  0
VERTEX
  5
3E8
  8
0
  6
CONTINUOUS
 62
     7
 10
106.0142435641
 20
117.9452562989
 30
0.0
  0
VERTEX
  5
3E9
  8
0
  6
CONTINUOUS
 62
     7
 10
106.1474827322
 20
117.6459363935
 30
0.0
  0
VERTEX
  5
3EA
  8
0
  6
CONTINUOUS
 62
     7
 10
106.2450273327
 20
117.3414461689
 30
0.0
  0
VERTEX
  5
3EB
  8
0
  6
CONTINUOUS
 62
     7
 10
106.3039027167
 20
117.0411124107
 30
0.0
  0
VERTEX
  5
3EC
  8
0
  6
CONTINUOUS
 62
     7
 10
106.3223301878
 20
116.7541201507
 30
0.0
  0
VERTEX
  5
3ED
  8
0
  6
CONTINUOUS
 62
     7
 10
106.2997785778
 20
116.4892367382
 30
0.0
  0
VERTEX
  5
3EE
  8
0
  6
CONTINUOUS
 62
     7
 10
106.2369783408
 20
116.2545295676
 30
0.0
  0
VERTEX
  5
3EF
  8
0
  6
CONTINUOUS
 62
     7
 10
106.1358923949
 20
116.0571292812
 30
0.0
  0
VERTEX
  5
3F0
  8
0
  6
CONTINUOUS
 62
     7
 10
105.9996510242
 20
115.9029997564
 30
0.0
  0
VERTEX
  5
3F1
  8
0
  6
CONTINUOUS
 62
     7
 10
105.8324485547
 20
115.7967719716
 30
0.0
  0
VERTEX
  5
3F2
  8
0
  6
CONTINUOUS
 62
     7
 10
105.6394102505
 20
115.7416094875
 30
0.0
  0
VERTEX
  5
3F3
  8
0
  6
CONTINUOUS
 62
     7
 10
105.4264304963
 20
115.7391045722
 30
0.0
  0
VERTEX
  5
3F4
  8
0
  6
CONTINUOUS
 62
     7
 10
105.1999911082
 20
115.7892703872
 30
0.0
  0
VERTEX
  5
3F5
  8
0
  6
CONTINUOUS
 62
     7
 10
104.9669620297
 20
115.8905085001
 30
0.0
  0
VERTEX
  5
3F6
  8
0
  6
CONTINUOUS
 62
     7
 10
104.7343948444
 20
116.0397104852
 30
0.0
  0
VERTEX
  5
3F7
  8
0
  6
CONTINUOUS
 62
     7
 10
104.509311499
 20
116.2323096651
 30
0.0
  0
VERTEX
  5
3F8
  8
0
  6
CONTINUOUS
 62
     7
 10
104.2984965529
 20
116.4624705056
 30
0.0
  0
VERTEX
  5
3F9
  8
0
  6
CONTINUOUS
 62
     7
 10
104.108297214
 20
116.7232194858
 30
0.0
  0
VERTEX
  5
3FA
  8
0
  6
CONTINUOUS
 62
     7
 10
103.9444380075
 20
117.0066944995
 30
0.0
  0
VERTEX
  5
3FB
  8
0
  6
CONTINUOUS
 62
     7
 10
103.8118528626
 20
117.3043458796
 30
0.0
  0
VERTEX
  5
3FC
  8
0
  6
CONTINUOUS
 62
     7
 10
103.7145412769
 20
117.6072040345
 30
0.0
  0
VERTEX
  5
3FD
  8
0
  6
CONTINUOUS
 62
     7
 10
103.6554492152
 20
117.9061432881
 30
0.0
  0
VERTEX
  5
3FE
  8
0
  6
CONTINUOUS
 62
     7
 10
103.6363818835
 20
118.1921391778
 30
0.0
  0
SEQEND
  5
4E8
  8
0
  6
CONTINUOUS
 62
     7
  0
LINE
  5
114
  8
0
  6
CONTINUOUS
 62
     7
 10
137.6784334894
 20
167.7767319626
 30
0.0
 11
138.6149943536
 21
168.2346736542
 31
0.0
  0
LINE
  5
115
  8
0
  6
CONTINUOUS
 62
     7
 10
143.5304629328
 20
159.8910932491
 30
0.0
 11
138.6149943536
 21
168.2346736542
 31
0.0
  0
LINE
  5
116
  8
0
  6
CONTINUOUS
 62
     7
 10
150.2235213676
 20
146.4746933119
 30
0.0
 11
151.1433689178
 21
146.9688410598
 31
0.0
  0
LINE
  5
117
  8
0
  6
CONTINUOUS
 62
     7
 10
147.5370248867
 20
151.0367099227
 30
0.0
 11
148.460354942
 21
151.5230240498
 31
0.0
  0
LINE
  5
118
  8
0
  6
CONTINUOUS
 62
     7
 10
151.1433689178
 20
146.9688410598
 30
0.0
 11
148.460354942
 21
151.5230240498
 31
0.0
  0
LINE
  5
119
  8
0
  6
CONTINUOUS
 62
     7
 10
127.8764621073
 20
184.4206112003
 30
0.0
 11
128.8260869376
 21
184.8504976244
 31
0.0
  0
LINE
  5
11A
  8
0
  6
CONTINUOUS
 62
     7
 10
133.713383813
 20
176.5547337439
 30
0.0
 11
128.8260869376
 21
184.8504976244
 31
0.0
  0
LINE
  5
11B
  8
0
  6
CONTINUOUS
 62
     7
 10
149.9829481814
 20
142.0442671638
 30
0.0
 11
150.8988230567
 21
142.5432050141
 31
0.0
  0
LINE
  5
11C
  8
0
  6
CONTINUOUS
 62
     7
 10
150.8988230567
 20
142.5432050141
 30
0.0
 11
151.1433689178
 21
146.9688410598
 31
0.0
  0
LINE
  5
11D
  8
0
  6
CONTINUOUS
 62
     7
 10
117.6889610055
 20
201.7191250874
 30
0.0
 11
118.6520676229
 21
202.120015745
 31
0.0
  0
LINE
  5
11E
  8
0
  6
CONTINUOUS
 62
     7
 10
123.9525172488
 20
193.1229632849
 30
0.0
 11
118.6520676229
 21
202.120015745
 31
0.0
  0
LINE
  5
11F
  8
0
  6
CONTINUOUS
 62
     7
 10
126.5678068177
 20
112.5130670066
 30
0.0
 11
144.9180309464
 21
102.8759315711
 31
0.0
  0
LINE
  5
120
  8
0
  6
CONTINUOUS
 62
     7
 10
144.9535678745
 20
103.5727669865
 30
0.0
 11
126.5883852733
 21
113.1979912832
 31
0.0
  0
LINE
  5
121
  8
0
  6
CONTINUOUS
 62
     7
 10
149.5305596038
 20
133.7130220447
 30
0.0
 11
150.4389538454
 21
134.2207834095
 31
0.0
  0
LINE
  5
122
  8
0
  6
CONTINUOUS
 62
     7
 10
149.0862147893
 20
125.5299118806
 30
0.0
 11
149.9872484779
 21
126.0461058784
 31
0.0
  0
LINE
  5
123
  8
0
  6
CONTINUOUS
 62
     7
 10
149.9872484779
 20
126.0461058784
 30
0.0
 11
150.4389538454
 21
134.2207834095
 31
0.0
  0
LINE
  5
124
  8
0
  6
CONTINUOUS
 62
     7
 10
148.6497011372
 20
117.4910213925
 30
0.0
 11
149.5434915183
 21
118.0152735961
 31
0.0
  0
LINE
  5
125
  8
0
  6
CONTINUOUS
 62
     7
 10
148.2208134163
 20
109.5925710129
 30
0.0
 11
149.1074749861
 21
110.124522664
 31
0.0
  0
LINE
  5
126
  8
0
  6
CONTINUOUS
 62
     7
 10
149.1074749861
 20
110.124522664
 30
0.0
 11
149.5434915183
 21
118.0152735961
 31
0.0
  0
LINE
  5
127
  8
0
  6
CONTINUOUS
 62
     7
 10
109.3474080316
 20
131.8987229409
 30
0.0
 11
109.2407697894
 21
121.8999791681
 31
0.0
  0
LINE
  5
128
  8
0
  6
CONTINUOUS
 62
     7
 10
109.4799152695
 20
121.4872530438
 30
0.0
 11
112.2466994823
 21
120.0341986292
 31
0.0
  0
POLYLINE
  5
129
  8
0
  6
CONTINUOUS
 62
     7
 66
     1
 10
0.0
 20
0.0
 30
0.0
  0
VERTEX
  5
3FF
  8
0
  6
CONTINUOUS
 62
     7
 10
109.2407697894
 20
121.8999791681
 30
0.0
  0
VERTEX
  5
400
  8
0
  6
CONTINUOUS
 62
     7
 10
109.2029551495
 20
121.8539402191
 30
0.0
  0
VERTEX
  5
401
  8
0
  6
CONTINUOUS
 62
     7
 10
109.1891030811
 20
121.7835133069
 30
0.0
  0
VERTEX
  5
402
  8
0
  6
CONTINUOUS
 62
     7
 10
109.2013134934
 20
121.6994181125
 30
0.0
  0
VERTEX
  5
403
  8
0
  6
CONTINUOUS
 62
     7
 10
109.2377245346
 20
121.6144463084
 30
0.0
  0
VERTEX
  5
404
  8
0
  6
CONTINUOUS
 62
     7
 10
109.2927976773
 20
121.5415234293
 30
0.0
  0
VERTEX
  5
405
  8
0
  6
CONTINUOUS
 62
     7
 10
109.3581577295
 20
121.491742987
 30
0.0
  0
VERTEX
  5
406
  8
0
  6
CONTINUOUS
 62
     7
 10
109.4238641018
 20
121.4726810495
 30
0.0
  0
VERTEX
  5
407
  8
0
  6
CONTINUOUS
 62
     7
 10
109.4680302535
 20
121.4808077321
 30
0.0
  0
SEQEND
  5
4E7
  8
0
  6
CONTINUOUS
 62
     7
  0
LINE
  5
12A
  8
0
  6
CONTINUOUS
 62
     7
 10
109.9173556314
 20
130.9168042901
 30
0.0
 11
109.8210549462
 21
122.3928620569
 31
0.0
  0
ARC
  5
12B
  8
0
  6
CONTINUOUS
 62
     7
 10
110.5188539565
 20
122.406746411
 30
0.0
 40
0.6979371275042193
 50
181.1398840091
 51
239.051534231
  0
LINE
  5
12C
  8
0
  6
CONTINUOUS
 62
     7
 10
110.1599279974
 20
121.8081744522
 30
0.0
 11
112.2561556491
 21
120.7095378765
 31
0.0
  0
LINE
  5
12D
  8
0
  6
CONTINUOUS
 62
     7
 10
147.7993535749
 20
101.8309134019
 30
0.0
 11
148.678998166
 21
102.3702206659
 31
0.0
  0
LINE
  5
12E
  8
0
  6
CONTINUOUS
 62
     7
 10
147.0514734111
 20
88.0578579511
 30
0.0
 11
147.9186379962
 21
88.6097040915
 31
0.0
  0
LINE
  5
12F
  8
0
  6
CONTINUOUS
 62
     7
 10
147.9186379962
 20
88.6097040915
 30
0.0
 11
148.678998166
 21
102.3702206659
 31
0.0
  0
LINE
  5
130
  8
0
  6
CONTINUOUS
 62
     7
 10
126.6098348247
 20
113.9119487717
 30
0.0
 11
144.9906125683
 21
104.2991720747
 31
0.0
  0
LINE
  5
131
  8
0
  6
CONTINUOUS
 62
     7
 10
109.2407697894
 20
121.8999791681
 30
0.0
 11
109.0193994597
 21
121.7801286603
 31
0.0
  0
LINE
  5
132
  8
0
  6
CONTINUOUS
 62
     7
 10
109.8210549462
 20
122.3928620569
 30
0.0
 11
110.4847490582
 21
122.751993143
 31
0.0
  0
LINE
  5
133
  8
0
  6
CONTINUOUS
 62
     7
 10
110.5694079555
 20
129.7934318304
 30
0.0
 11
110.4847490582
 21
122.751993143
 31
0.0
  0
LINE
  5
134
  8
0
  6
CONTINUOUS
 62
     7
 10
88.8196653467
 20
167.2644212034
 30
0.0
 11
89.2117038086
 21
132.4096631242
 31
0.0
  0
POLYLINE
  5
135
  8
0
  6
CONTINUOUS
 62
     7
 66
     1
 10
0.0
 20
0.0
 30
0.0
  0
VERTEX
  5
408
  8
0
  6
CONTINUOUS
 62
     7
 10
107.8574049178
 20
122.3393599116
 30
0.0
  0
VERTEX
  5
409
  8
0
  6
CONTINUOUS
 62
     7
 10
107.9123019459
 20
122.2666260772
 30
0.0
  0
VERTEX
  5
40A
  8
0
  6
CONTINUOUS
 62
     7
 10
107.9205973442
 20
122.2584704887
 30
0.0
  0
SEQEND
  5
4E6
  8
0
  6
CONTINUOUS
 62
     7
  0
LINE
  5
136
  8
0
  6
CONTINUOUS
 62
     7
 10
89.4418642641
 20
132.010798154
 30
0.0
 11
107.8574049178
 21
122.3393599116
 31
0.0
  0
POLYLINE
  5
137
  8
0
  6
CONTINUOUS
 62
     7
 66
     1
 10
0.0
 20
0.0
 30
0.0
  0
VERTEX
  5
40B
  8
0
  6
CONTINUOUS
 62
     7
 10
89.2117038086
 20
132.4096631242
 30
0.0
  0
VERTEX
  5
40C
  8
0
  6
CONTINUOUS
 62
     7
 10
89.1776353761
 20
132.3637558768
 30
0.0
  0
VERTEX
  5
40D
  8
0
  6
CONTINUOUS
 62
     7
 10
89.1662746575
 20
132.2944947734
 30
0.0
  0
VERTEX
  5
40E
  8
0
  6
CONTINUOUS
 62
     7
 10
89.1793432411
 20
132.2124218968
 30
0.0
  0
VERTEX
  5
40F
  8
0
  6
CONTINUOUS
 62
     7
 10
89.2148491544
 20
132.130021513
 30
0.0
  0
VERTEX
  5
410
  8
0
  6
CONTINUOUS
 62
     7
 10
89.2673913977
 20
132.0598284041
 30
0.0
  0
VERTEX
  5
411
  8
0
  6
CONTINUOUS
 62
     7
 10
89.3289792964
 20
132.0125211304
 30
0.0
  0
VERTEX
  5
412
  8
0
  6
CONTINUOUS
 62
     7
 10
89.3902456022
 20
131.9952994766
 30
0.0
  0
VERTEX
  5
413
  8
0
  6
CONTINUOUS
 62
     7
 10
89.419989595
 20
131.9996794027
 30
0.0
  0
SEQEND
  5
4E5
  8
0
  6
CONTINUOUS
 62
     7
  0
ARC
  5
138
  8
0
  6
CONTINUOUS
 62
     7
 10
90.4277819965
 20
132.9259200257
 30
0.0
 40
0.6891681710019276
 50
181.7433947418
 51
238.2420006944
  0
LINE
  5
139
  8
0
  6
CONTINUOUS
 62
     7
 10
90.0650502938
 20
132.3399349749
 30
0.0
 11
107.1957918762
 21
123.3616833735
 31
0.0
  0
POLYLINE
  5
13A
  8
0
  6
CONTINUOUS
 62
     7
 66
     1
 10
0.0
 20
0.0
 30
0.0
  0
VERTEX
  5
414
  8
0
  6
CONTINUOUS
 62
     7
 10
107.5399267906
 20
123.586930448
 30
0.0
  0
VERTEX
  5
415
  8
0
  6
CONTINUOUS
 62
     7
 10
107.532685282
 20
123.5115632236
 30
0.0
  0
VERTEX
  5
416
  8
0
  6
CONTINUOUS
 62
     7
 10
107.5126242443
 20
123.4459673854
 30
0.0
  0
VERTEX
  5
417
  8
0
  6
CONTINUOUS
 62
     7
 10
107.4805204807
 20
123.3926597654
 30
0.0
  0
VERTEX
  5
418
  8
0
  6
CONTINUOUS
 62
     7
 10
107.4376126639
 20
123.3536885401
 30
0.0
  0
VERTEX
  5
419
  8
0
  6
CONTINUOUS
 62
     7
 10
107.3855540486
 20
123.3305432834
 30
0.0
  0
VERTEX
  5
41A
  8
0
  6
CONTINUOUS
 62
     7
 10
107.3263491278
 20
123.3241101632
 30
0.0
  0
VERTEX
  5
41B
  8
0
  6
CONTINUOUS
 62
     7
 10
107.2622743983
 20
123.3346257808
 30
0.0
  0
VERTEX
  5
41C
  8
0
  6
CONTINUOUS
 62
     7
 10
107.1957918762
 20
123.3616833735
 30
0.0
  0
SEQEND
  5
4E4
  8
0
  6
CONTINUOUS
 62
     7
  0
LINE
  5
13B
  8
0
  6
CONTINUOUS
 62
     7
 10
107.5399267906
 20
123.586930448
 30
0.0
 11
107.638716929
 21
134.842497855
 31
0.0
  0
LINE
  5
13C
  8
0
  6
CONTINUOUS
 62
     7
 10
89.3827205394
 20
166.294376435
 30
0.0
 11
89.7389328382
 21
132.9049532672
 31
0.0
  0
LINE
  5
13D
  8
0
  6
CONTINUOUS
 62
     7
 10
109.4799152695
 20
121.4872530438
 30
0.0
 11
109.2586161347
 21
121.3672441929
 31
0.0
  0
LINE
  5
13E
  8
0
  6
CONTINUOUS
 62
     7
 10
110.823319178
 20
122.1679786227
 30
0.0
 11
110.1599279974
 21
121.8081744522
 31
0.0
  0
LINE
  5
13F
  8
0
  6
CONTINUOUS
 62
     7
 10
110.823319178
 20
122.1679786227
 30
0.0
 11
112.2660121275
 21
121.4134792561
 31
0.0
  0
LINE
  5
140
  8
0
  6
CONTINUOUS
 62
     7
 10
89.2117038086
 20
132.4096631242
 30
0.0
 11
88.9903435251
 21
132.2973245964
 31
0.0
  0
LINE
  5
141
  8
0
  6
CONTINUOUS
 62
     7
 10
89.7389328382
 20
132.9049532672
 30
0.0
 11
90.402666003
 21
133.2415521652
 31
0.0
  0
LINE
  5
142
  8
0
  6
CONTINUOUS
 62
     7
 10
90.0860686897
 20
165.0826305332
 30
0.0
 11
90.402666003
 21
133.2415521652
 31
0.0
  0
ARC
  5
143
  8
0
  6
CONTINUOUS
 62
     7
 10
111.1807258295
 20
122.7653243113
 30
0.0
 40
0.6961044362777501
 50
181.0973445029
 51
239.1068767764
  0
LINE
  5
144
  8
0
  6
CONTINUOUS
 62
     7
 10
107.8574049178
 20
122.3393599116
 30
0.0
 11
107.6360889151
 21
122.2199692229
 31
0.0
  0
LINE
  5
145
  8
0
  6
CONTINUOUS
 62
     7
 10
89.4418642641
 20
132.010798154
 30
0.0
 11
89.2205697496
 21
131.898311714
 31
0.0
  0
LINE
  5
146
  8
0
  6
CONTINUOUS
 62
     7
 10
90.7285036416
 20
132.6771625764
 30
0.0
 11
90.0650502938
 21
132.3399349749
 31
0.0
  0
LINE
  5
147
  8
0
  6
CONTINUOUS
 62
     7
 10
90.7285036416
 20
132.6771625764
 30
0.0
 11
107.5425321412
 21
123.8837641904
 31
0.0
  0
ARC
  5
148
  8
0
  6
CONTINUOUS
 62
     7
 10
105.8913958956
 20
118.6937729054
 30
0.0
 40
1.376708694178778
 50
158.9490713006
 51
181.0418272672
  0
POLYLINE
  5
149
  8
0
  6
CONTINUOUS
 62
     7
 66
     1
 10
0.0
 20
0.0
 30
0.0
  0
VERTEX
  5
41D
  8
0
  6
CONTINUOUS
 62
     7
 10
106.2099847413
 20
116.2343224345
 30
0.0
  0
VERTEX
  5
41E
  8
0
  6
CONTINUOUS
 62
     7
 10
106.0769855186
 20
116.2696836505
 30
0.0
  0
VERTEX
  5
41F
  8
0
  6
CONTINUOUS
 62
     7
 10
105.8439396934
 20
116.3705856316
 30
0.0
  0
VERTEX
  5
420
  8
0
  6
CONTINUOUS
 62
     7
 10
105.611401722
 20
116.5194087588
 30
0.0
  0
VERTEX
  5
421
  8
0
  6
CONTINUOUS
 62
     7
 10
105.3863926735
 20
116.7115978792
 30
0.0
  0
VERTEX
  5
422
  8
0
  6
CONTINUOUS
 62
     7
 10
105.1756949171
 20
116.941329839
 30
0.0
  0
VERTEX
  5
423
  8
0
  6
CONTINUOUS
 62
     7
 10
104.9856521732
 20
117.2016440263
 30
0.0
  0
VERTEX
  5
424
  8
0
  6
CONTINUOUS
 62
     7
 10
104.8219843183
 20
117.4846913598
 30
0.0
  0
VERTEX
  5
425
  8
0
  6
CONTINUOUS
 62
     7
 10
104.6896195702
 20
117.7819349666
 30
0.0
  0
VERTEX
  5
426
  8
0
  6
CONTINUOUS
 62
     7
 10
104.5925508287
 20
118.0844174407
 30
0.0
  0
VERTEX
  5
427
  8
0
  6
CONTINUOUS
 62
     7
 10
104.5337167631
 20
118.383024336
 30
0.0
  0
VERTEX
  5
428
  8
0
  6
CONTINUOUS
 62
     7
 10
104.5149147878
 20
118.6687411556
 30
0.0
  0
SEQEND
  5
4E3
  8
0
  6
CONTINUOUS
 62
     7
  0
LINE
  5
14A
  8
0
  6
CONTINUOUS
 62
     7
 10
92.7328433514
 20
122.8855327278
 30
0.0
 11
91.8564150208
 21
122.4249208468
 31
0.0
  0
LINE
  5
14B
  8
0
  6
CONTINUOUS
 62
     7
 10
92.7328433514
 20
122.8855327278
 30
0.0
 11
101.7546143023
 21
118.0385506651
 31
0.0
  0
ARC
  5
14C
  8
0
  6
CONTINUOUS
 62
     7
 10
91.0897224518
 20
133.2619564458
 30
0.0
 40
0.6873593663667698
 50
181.7010765919
 51
238.2969677831
  0
LINE
  5
14D
  8
0
  6
CONTINUOUS
 62
     7
 10
91.5321050231
 20
122.9874635961
 30
0.0
 11
92.4089023113
 21
123.4472449847
 31
0.0
  0
LINE
  5
14E
  8
0
  6
CONTINUOUS
 62
     7
 10
92.3865262069
 20
126.2992202461
 30
0.0
 11
92.4089023113
 21
123.4472449847
 31
0.0
  0
ARC
  5
14F
  8
0
  6
CONTINUOUS
 62
     7
 10
93.0980099992
 20
123.4703903452
 30
0.0
 40
0.6894962750082202
 50
181.923695168
 51
238.0206446919
  0
LINE
  5
150
  8
0
  6
CONTINUOUS
 62
     7
 10
79.2323061455
 20
183.7817571822
 30
0.0
 11
50.9503440795
 21
158.3265602056
 31
0.0
  0
LINE
  5
151
  8
0
  6
CONTINUOUS
 62
     7
 10
50.9503440795
 20
158.3265602056
 30
0.0
 11
53.8530114492
 21
101.8817860774
 31
0.0
  0
LINE
  5
152
  8
0
  6
CONTINUOUS
 62
     7
 10
53.8530114492
 20
101.8817860774
 30
0.0
 11
53.0161070208
 21
102.3925323805
 31
0.0
  0
LINE
  5
153
  8
0
  6
CONTINUOUS
 62
     7
 10
53.0161070208
 20
102.3925323805
 30
0.0
 11
50.0388870216
 21
159.2784989615
 31
0.0
  0
LINE
  5
154
  8
0
  6
CONTINUOUS
 62
     7
 10
79.2323061455
 20
183.7817571822
 30
0.0
 11
78.4906355583
 21
185.0595278736
 31
0.0
  0
LINE
  5
155
  8
0
  6
CONTINUOUS
 62
     7
 10
50.0388870216
 20
159.2784989615
 30
0.0
 11
78.4906355583
 21
185.0595278736
 31
0.0
  0
LINE
  5
156
  8
0
  6
CONTINUOUS
 62
     7
 10
81.3723937685
 20
180.0947612074
 30
0.0
 11
62.4259569393
 21
163.3714862148
 31
0.0
  0
LINE
  5
157
  8
0
  6
CONTINUOUS
 62
     7
 10
62.4259569393
 20
163.3714862148
 30
0.0
 11
50.9503440795
 21
158.3265602056
 31
0.0
  0
LINE
  5
158
  8
0
  6
CONTINUOUS
 62
     7
 10
106.1005540008
 20
195.3709939481
 30
0.0
 11
105.381978119
 21
196.5966730889
 31
0.0
  0
LINE
  5
159
  8
0
  6
CONTINUOUS
 62
     7
 10
106.1005540008
 20
195.3709939481
 30
0.0
 11
93.2915788031
 21
190.0074256912
 31
0.0
  0
LINE
  5
15A
  8
0
  6
CONTINUOUS
 62
     7
 10
93.2915788031
 20
190.0074256912
 30
0.0
 11
92.5607649963
 21
191.2598822609
 31
0.0
  0
LINE
  5
15B
  8
0
  6
CONTINUOUS
 62
     7
 10
105.381978119
 20
196.5966730889
 30
0.0
 11
92.5607649963
 21
191.2598822609
 31
0.0
  0
LINE
  5
15C
  8
0
  6
CONTINUOUS
 62
     7
 10
105.9323892471
 20
195.2257313177
 30
0.0
 11
106.1005540008
 21
195.3709939481
 31
0.0
  0
LINE
  5
15D
  8
0
  6
CONTINUOUS
 62
     7
 10
85.2541169002
 20
173.4072358811
 30
0.0
 11
63.4894195126
 21
163.8390072144
 31
0.0
  0
LINE
  5
15E
  8
0
  6
CONTINUOUS
 62
     7
 10
63.4894195126
 20
163.8390072144
 30
0.0
 11
81.5639461693
 21
179.7647511961
 31
0.0
  0
LINE
  5
15F
  8
0
  6
CONTINUOUS
 62
     7
 10
81.6646578269
 20
179.5912454036
 30
0.0
 11
65.2642300616
 21
165.1538864773
 31
0.0
  0
LINE
  5
160
  8
0
  6
CONTINUOUS
 62
     7
 10
65.2642300616
 20
165.1538864773
 30
0.0
 11
85.0143512646
 21
173.8203098617
 31
0.0
  0
LINE
  5
161
  8
0
  6
CONTINUOUS
 62
     7
 10
63.4894195126
 20
163.8390072144
 30
0.0
 11
65.6051184197
 21
108.068249097
 31
0.0
  0
LINE
  5
162
  8
0
  6
CONTINUOUS
 62
     7
 10
65.6051184197
 20
108.068249097
 30
0.0
 11
65.1853279917
 21
108.3148596702
 31
0.0
  0
LINE
  5
163
  8
0
  6
CONTINUOUS
 62
     7
 10
65.1853279917
 20
108.3148596702
 30
0.0
 11
63.050314369
 21
163.9225827903
 31
0.0
  0
LINE
  5
164
  8
0
  6
CONTINUOUS
 62
     7
 10
84.7719334462
 20
174.2379530035
 30
0.0
 11
66.4853578672
 21
166.2288498065
 31
0.0
  0
LINE
  5
165
  8
0
  6
CONTINUOUS
 62
     7
 10
66.079287814
 20
165.8713836987
 30
0.0
 11
84.8526681267
 21
174.0988615348
 31
0.0
  0
LINE
  5
166
  8
0
  6
CONTINUOUS
 62
     7
 10
64.6073763304
 20
107.5430245944
 30
0.0
 11
53.8530114492
 21
101.8817860774
 31
0.0
  0
POLYLINE
  5
167
  8
0
  6
CONTINUOUS
 62
     7
 66
     1
 10
0.0
 20
0.0
 30
0.0
  0
VERTEX
  5
429
  8
0
  6
CONTINUOUS
 62
     7
 10
56.6278107143
 20
106.0605321619
 30
0.0
  0
VERTEX
  5
42A
  8
0
  6
CONTINUOUS
 62
     7
 10
56.5988048134
 20
106.2060967014
 30
0.0
  0
VERTEX
  5
42B
  8
0
  6
CONTINUOUS
 62
     7
 10
56.529414674
 20
106.3163631244
 30
0.0
  0
VERTEX
  5
42C
  8
0
  6
CONTINUOUS
 62
     7
 10
56.4257713098
 20
106.3815187459
 30
0.0
  0
VERTEX
  5
42D
  8
0
  6
CONTINUOUS
 62
     7
 10
56.2970566201
 20
106.3957372502
 30
0.0
  0
VERTEX
  5
42E
  8
0
  6
CONTINUOUS
 62
     7
 10
56.1546944735
 20
106.3577136395
 30
0.0
  0
VERTEX
  5
42F
  8
0
  6
CONTINUOUS
 62
     7
 10
56.0113487309
 20
106.2707920355
 30
0.0
  0
VERTEX
  5
430
  8
0
  6
CONTINUOUS
 62
     7
 10
55.8797780624
 20
106.1426821041
 30
0.0
  0
VERTEX
  5
431
  8
0
  6
CONTINUOUS
 62
     7
 10
55.7717124769
 20
105.9847829777
 30
0.0
  0
VERTEX
  5
432
  8
0
  6
CONTINUOUS
 62
     7
 10
55.6967813912
 20
105.8111585326
 30
0.0
  0
VERTEX
  5
433
  8
0
  6
CONTINUOUS
 62
     7
 10
55.6616600298
 20
105.6372745523
 30
0.0
  0
VERTEX
  5
434
  8
0
  6
CONTINUOUS
 62
     7
 10
55.6694628639
 20
105.4786213616
 30
0.0
  0
VERTEX
  5
435
  8
0
  6
CONTINUOUS
 62
     7
 10
55.7194732609
 20
105.3493105866
 30
0.0
  0
VERTEX
  5
436
  8
0
  6
CONTINUOUS
 62
     7
 10
55.8072146092
 20
105.2608300122
 30
0.0
  0
VERTEX
  5
437
  8
0
  6
CONTINUOUS
 62
     7
 10
55.9248568018
 20
105.2210070047
 30
0.0
  0
VERTEX
  5
438
  8
0
  6
CONTINUOUS
 62
     7
 10
56.0619296333
 20
105.2333462768
 30
0.0
  0
VERTEX
  5
439
  8
0
  6
CONTINUOUS
 62
     7
 10
56.2062489539
 20
105.2967030192
 30
0.0
  0
VERTEX
  5
43A
  8
0
  6
CONTINUOUS
 62
     7
 10
56.3450158146
 20
105.4054281517
 30
0.0
  0
VERTEX
  5
43B
  8
0
  6
CONTINUOUS
 62
     7
 10
56.4659277555
 20
105.5498668791
 30
0.0
  0
VERTEX
  5
43C
  8
0
  6
CONTINUOUS
 62
     7
 10
56.558277907
 20
105.7172006356
 30
0.0
  0
VERTEX
  5
43D
  8
0
  6
CONTINUOUS
 62
     7
 10
56.613884082
 20
105.8926040589
 30
0.0
  0
VERTEX
  5
43E
  8
0
  6
CONTINUOUS
 62
     7
 10
56.6278107143
 20
106.0605321619
 30
0.0
  0
SEQEND
  5
4E2
  8
0
  6
CONTINUOUS
 62
     7
  0
LINE
  5
168
  8
0
  6
CONTINUOUS
 62
     7
 10
64.6073763304
 20
107.5430245944
 30
0.0
 11
62.4259569393
 21
163.3714862148
 31
0.0
  0
LINE
  5
169
  8
0
  6
CONTINUOUS
 62
     7
 10
84.2859837903
 20
175.0751589819
 30
0.0
 11
68.9167569396
 21
168.3692179828
 31
0.0
  0
LINE
  5
16A
  8
0
  6
CONTINUOUS
 62
     7
 10
65.1853279917
 20
108.3148596702
 30
0.0
 11
64.5894580289
 21
108.0016121335
 31
0.0
  0
LINE
  5
16B
  8
0
  6
CONTINUOUS
 62
     7
 10
87.8690453154
 20
163.0323133915
 30
0.0
 11
87.9634038911
 21
155.3601310947
 31
0.0
  0
LINE
  5
16C
  8
0
  6
CONTINUOUS
 62
     7
 10
88.0562502293
 20
147.8109070062
 30
0.0
 11
88.1476203979
 21
140.3817084902
 31
0.0
  0
LINE
  5
16D
  8
0
  6
CONTINUOUS
 62
     7
 10
88.2375493118
 20
133.0696966643
 30
0.0
 11
88.3974736217
 21
120.0664433733
 31
0.0
  0
LINE
  5
16E
  8
0
  6
CONTINUOUS
 62
     7
 10
88.3974736217
 20
120.0664433733
 30
0.0
 11
65.6051184197
 21
108.068249097
 31
0.0
  0
LINE
  5
16F
  8
0
  6
CONTINUOUS
 62
     7
 10
86.5810746801
 20
131.5672181463
 30
0.0
 11
86.0161422076
 21
171.5687804343
 31
0.0
  0
LINE
  5
170
  8
0
  6
CONTINUOUS
 62
     7
 10
86.0161422076
 20
171.5687804343
 30
0.0
 11
64.1336317814
 21
161.8736098977
 31
0.0
  0
LINE
  5
171
  8
0
  6
CONTINUOUS
 62
     7
 10
64.1336317814
 20
161.8736098977
 30
0.0
 11
65.6608961566
 21
120.966695939
 31
0.0
  0
LINE
  5
172
  8
0
  6
CONTINUOUS
 62
     7
 10
65.6608961566
 20
120.966695939
 30
0.0
 11
86.5810746801
 21
131.5672181463
 31
0.0
  0
LINE
  5
173
  8
0
  6
CONTINUOUS
 62
     7
 10
85.8010602805
 20
132.0583674917
 30
0.0
 11
66.0164458066
 21
122.0609500959
 31
0.0
  0
LINE
  5
174
  8
0
  6
CONTINUOUS
 62
     7
 10
85.2228789917
 20
170.6960890305
 30
0.0
 11
85.8010602805
 21
132.0583674917
 31
0.0
  0
LINE
  5
175
  8
0
  6
CONTINUOUS
 62
     7
 10
64.5602862091
 20
161.5244140112
 30
0.0
 11
85.2228789917
 21
170.6960890305
 31
0.0
  0
LINE
  5
176
  8
0
  6
CONTINUOUS
 62
     7
 10
66.0164458066
 20
122.0609500959
 30
0.0
 11
64.5602862091
 21
161.5244140112
 31
0.0
  0
LINE
  5
177
  8
0
  6
CONTINUOUS
 62
     7
 10
86.3677477435
 20
131.6799373832
 30
0.0
 11
85.7966071191
 21
171.4715152292
 31
0.0
  0
LINE
  5
178
  8
0
  6
CONTINUOUS
 62
     7
 10
65.6525396063
 20
121.1905078521
 30
0.0
 11
86.3677477435
 21
131.6799373832
 31
0.0
  0
LINE
  5
179
  8
0
  6
CONTINUOUS
 62
     7
 10
86.3677477435
 20
131.6799373832
 30
0.0
 11
86.5810746801
 21
131.5672181463
 31
0.0
  0
LINE
  5
17A
  8
0
  6
CONTINUOUS
 62
     7
 10
85.1615575427
 20
132.3961891736
 30
0.0
 11
85.8010602805
 21
132.0583674917
 31
0.0
  0
LINE
  5
17B
  8
0
  6
CONTINUOUS
 62
     7
 10
85.1615575427
 20
132.3961891736
 30
0.0
 11
84.5665548173
 21
170.404760984
 31
0.0
  0
ARC
  5
17C
  8
0
  6
CONTINUOUS
 62
     7
 10
55.1510070587
 20
106.4083023123
 30
0.0
 40
0.9238040451674583
 50
304.366632053
 51
353.4586127547
  0
LINE
  5
17D
  8
0
  6
CONTINUOUS
 62
     7
 10
65.9917793012
 20
122.7294497349
 30
0.0
 11
85.1615575427
 21
132.3961891736
 31
0.0
  0
LINE
  5
17E
  8
0
  6
CONTINUOUS
 62
     7
 10
93.5873310777
 20
190.1312675668
 30
0.0
 11
105.8165225901
 21
195.2520600104
 31
0.0
  0
POLYLINE
  5
17F
  8
0
  6
CONTINUOUS
 62
     7
 66
     1
 10
0.0
 20
0.0
 30
0.0
  0
VERTEX
  5
43F
  8
0
  6
CONTINUOUS
 62
     7
 10
105.8165225901
 20
195.2520600104
 30
0.0
  0
VERTEX
  5
440
  8
0
  6
CONTINUOUS
 62
     7
 10
105.9128719995
 20
195.2261845193
 30
0.0
  0
VERTEX
  5
441
  8
0
  6
CONTINUOUS
 62
     7
 10
106.0006820127
 20
195.2397081927
 30
0.0
  0
VERTEX
  5
442
  8
0
  6
CONTINUOUS
 62
     7
 10
106.0665820472
 20
195.2905649255
 30
0.0
  0
VERTEX
  5
443
  8
0
  6
CONTINUOUS
 62
     7
 10
106.1005540008
 20
195.3709939481
 30
0.0
  0
VERTEX
  5
444
  8
0
  6
CONTINUOUS
 62
     7
 10
106.0974360057
 20
195.468752904
 30
0.0
  0
VERTEX
  5
445
  8
0
  6
CONTINUOUS
 62
     7
 10
106.057713705
 20
195.5689613632
 30
0.0
  0
VERTEX
  5
446
  8
0
  6
CONTINUOUS
 62
     7
 10
105.9874317125
 20
195.6563852507
 30
0.0
  0
VERTEX
  5
447
  8
0
  6
CONTINUOUS
 62
     7
 10
105.8972793886
 20
195.7177213588
 30
0.0
  0
SEQEND
  5
4E1
  8
0
  6
CONTINUOUS
 62
     7
  0
LINE
  5
180
  8
0
  6
CONTINUOUS
 62
     7
 10
105.8972793886
 20
195.7177213588
 30
0.0
 11
105.381978119
 21
196.5966730889
 31
0.0
  0
LINE
  5
181
  8
0
  6
CONTINUOUS
 62
     7
 10
117.6888208432
 20
201.7193588085
 30
0.0
 11
105.381978119
 21
196.5966730889
 31
0.0
  0
LINE
  5
182
  8
0
  6
CONTINUOUS
 62
     7
 10
117.6888208432
 20
201.7193588085
 30
0.0
 11
122.9964208558
 21
192.7069825962
 31
0.0
  0
LINE
  5
183
  8
0
  6
CONTINUOUS
 62
     7
 10
122.9964208558
 20
192.7069825962
 30
0.0
 11
123.9526605705
 21
193.1230215883
 31
0.0
  0
LINE
  5
184
  8
0
  6
CONTINUOUS
 62
     7
 10
123.9526605705
 20
193.1230215883
 30
0.0
 11
128.8260956666
 21
184.8507873155
 31
0.0
  0
LINE
  5
185
  8
0
  6
CONTINUOUS
 62
     7
 10
127.8763270406
 20
184.4208362563
 30
0.0
 11
128.8260956666
 21
184.8507873155
 31
0.0
  0
LINE
  5
186
  8
0
  6
CONTINUOUS
 62
     7
 10
127.8763270406
 20
184.4208362563
 30
0.0
 11
132.7702689972
 21
176.1108594857
 31
0.0
  0
LINE
  5
187
  8
0
  6
CONTINUOUS
 62
     7
 10
132.7702689972
 20
176.1108594857
 30
0.0
 11
133.71352537
 21
176.5548009077
 31
0.0
  0
LINE
  5
188
  8
0
  6
CONTINUOUS
 62
     7
 10
133.71352537
 20
176.5548009077
 30
0.0
 11
138.6150061306
 21
168.2349615504
 31
0.0
  0
LINE
  5
189
  8
0
  6
CONTINUOUS
 62
     7
 10
137.6783034502
 20
167.7769509716
 30
0.0
 11
138.6150061306
 21
168.2349615504
 31
0.0
  0
LINE
  5
18A
  8
0
  6
CONTINUOUS
 62
     7
 10
137.6783034502
 20
167.7769509716
 30
0.0
 11
142.6004933167
 21
159.4190063749
 31
0.0
  0
LINE
  5
18B
  8
0
  6
CONTINUOUS
 62
     7
 10
142.6004933167
 20
159.4190063749
 30
0.0
 11
143.5306005878
 21
159.8911654146
 31
0.0
  0
LINE
  5
18C
  8
0
  6
CONTINUOUS
 62
     7
 10
143.5306005878
 20
159.8911654146
 30
0.0
 11
148.4603697296
 21
151.5233077236
 31
0.0
  0
LINE
  5
18D
  8
0
  6
CONTINUOUS
 62
     7
 10
147.5368998653
 20
151.0369204062
 30
0.0
 11
148.4603697296
 21
151.5233077236
 31
0.0
  0
LINE
  5
18E
  8
0
  6
CONTINUOUS
 62
     7
 10
147.5368998653
 20
151.0369204062
 30
0.0
 11
150.2235367251
 21
146.4749761379
 31
0.0
  0
LINE
  5
18F
  8
0
  6
CONTINUOUS
 62
     7
 10
150.2235367251
 20
146.4749761379
 30
0.0
 11
113.4384900643
 21
126.7138411324
 31
0.0
  0
LINE
  5
190
  8
0
  6
CONTINUOUS
 62
     7
 10
79.1922466716
 20
185.6952773132
 30
0.0
 11
113.4384900643
 21
126.7138411324
 31
0.0
  0
LINE
  5
191
  8
0
  6
CONTINUOUS
 62
     7
 10
92.5607649963
 20
191.2598822609
 30
0.0
 11
79.1922466716
 21
185.6952773132
 31
0.0
  0
LINE
  5
192
  8
0
  6
CONTINUOUS
 62
     7
 10
92.5607649963
 20
191.2598822609
 30
0.0
 11
93.0848415932
 21
190.3617291844
 31
0.0
  0
POLYLINE
  5
193
  8
0
  6
CONTINUOUS
 62
     7
 66
     1
 10
0.0
 20
0.0
 30
0.0
  0
VERTEX
  5
448
  8
0
  6
CONTINUOUS
 62
     7
 10
93.0848415932
 20
190.3617291844
 30
0.0
  0
VERTEX
  5
449
  8
0
  6
CONTINUOUS
 62
     7
 10
93.0868982477
 20
190.2614821785
 30
0.0
  0
VERTEX
  5
44A
  8
0
  6
CONTINUOUS
 62
     7
 10
93.1269118431
 20
190.1589355285
 30
0.0
  0
VERTEX
  5
44B
  8
0
  6
CONTINUOUS
 62
     7
 10
93.1987894733
 20
190.069721265
 30
0.0
  0
VERTEX
  5
44C
  8
0
  6
CONTINUOUS
 62
     7
 10
93.2915788031
 20
190.0074256912
 30
0.0
  0
VERTEX
  5
44D
  8
0
  6
CONTINUOUS
 62
     7
 10
93.3911373716
 20
189.9815412866
 30
0.0
  0
VERTEX
  5
44E
  8
0
  6
CONTINUOUS
 62
     7
 10
93.4823017321
 20
189.9959949296
 30
0.0
  0
VERTEX
  5
44F
  8
0
  6
CONTINUOUS
 62
     7
 10
93.5511909778
 20
190.048578649
 30
0.0
  0
VERTEX
  5
450
  8
0
  6
CONTINUOUS
 62
     7
 10
93.5873310777
 20
190.1312675668
 30
0.0
  0
SEQEND
  5
4E0
  8
0
  6
CONTINUOUS
 62
     7
  0
POLYLINE
  5
194
  8
0
  6
CONTINUOUS
 62
     7
 66
     1
 10
0.0
 20
0.0
 30
0.0
  0
VERTEX
  5
451
  8
0
  6
CONTINUOUS
 62
     7
 10
112.0965306912
 20
198.3351214681
 30
0.0
  0
VERTEX
  5
452
  8
0
  6
CONTINUOUS
 62
     7
 10
112.1609694613
 20
198.3850480638
 30
0.0
  0
VERTEX
  5
453
  8
0
  6
CONTINUOUS
 62
     7
 10
112.1938900168
 20
198.4642888205
 30
0.0
  0
VERTEX
  5
454
  8
0
  6
CONTINUOUS
 62
     7
 10
112.1902937182
 20
198.5607683827
 30
0.0
  0
VERTEX
  5
455
  8
0
  6
CONTINUOUS
 62
     7
 10
112.150734634
 20
198.6598056202
 30
0.0
  0
VERTEX
  5
456
  8
0
  6
CONTINUOUS
 62
     7
 10
112.0812391469
 20
198.7463442538
 30
0.0
  0
VERTEX
  5
457
  8
0
  6
CONTINUOUS
 62
     7
 10
111.9923720851
 20
198.8072151267
 30
0.0
  0
VERTEX
  5
458
  8
0
  6
CONTINUOUS
 62
     7
 10
111.8976531843
 20
198.8331538455
 30
0.0
  0
VERTEX
  5
459
  8
0
  6
CONTINUOUS
 62
     7
 10
111.8114899277
 20
198.8202082391
 30
0.0
  0
VERTEX
  5
45A
  8
0
  6
CONTINUOUS
 62
     7
 10
111.7470057374
 20
198.7703292585
 30
0.0
  0
VERTEX
  5
45B
  8
0
  6
CONTINUOUS
 62
     7
 10
111.7140247759
 20
198.691105784
 30
0.0
  0
VERTEX
  5
45C
  8
0
  6
CONTINUOUS
 62
     7
 10
111.7175828249
 20
198.5945905548
 30
0.0
  0
VERTEX
  5
45D
  8
0
  6
CONTINUOUS
 62
     7
 10
111.7571463167
 20
198.4954863587
 30
0.0
  0
VERTEX
  5
45E
  8
0
  6
CONTINUOUS
 62
     7
 10
111.826691038
 20
198.4088985798
 30
0.0
  0
VERTEX
  5
45F
  8
0
  6
CONTINUOUS
 62
     7
 10
111.9156185688
 20
198.348015282
 30
0.0
  0
VERTEX
  5
460
  8
0
  6
CONTINUOUS
 62
     7
 10
112.010375657
 20
198.3221073723
 30
0.0
  0
VERTEX
  5
461
  8
0
  6
CONTINUOUS
 62
     7
 10
112.0965306912
 20
198.3351214681
 30
0.0
  0
SEQEND
  5
4DF
  8
0
  6
CONTINUOUS
 62
     7
  0
POLYLINE
  5
195
  8
0
  6
CONTINUOUS
 62
     7
 66
     1
 10
0.0
 20
0.0
 30
0.0
  0
VERTEX
  5
462
  8
0
  6
CONTINUOUS
 62
     7
 10
86.1681756638
 20
188.127133859
 30
0.0
  0
VERTEX
  5
463
  8
0
  6
CONTINUOUS
 62
     7
 10
86.0975661979
 20
188.0737294865
 30
0.0
  0
VERTEX
  5
464
  8
0
  6
CONTINUOUS
 62
     7
 10
86.0601343531
 20
187.9898837632
 30
0.0
  0
VERTEX
  5
465
  8
0
  6
CONTINUOUS
 62
     7
 10
86.0615988596
 20
187.888354381
 30
0.0
  0
VERTEX
  5
466
  8
0
  6
CONTINUOUS
 62
     7
 10
86.1017423948
 20
187.7846068877
 30
0.0
  0
VERTEX
  5
467
  8
0
  6
CONTINUOUS
 62
     7
 10
86.1744560909
 20
187.6944564819
 30
0.0
  0
VERTEX
  5
468
  8
0
  6
CONTINUOUS
 62
     7
 10
86.2686547046
 20
187.6316329144
 30
0.0
  0
VERTEX
  5
469
  8
0
  6
CONTINUOUS
 62
     7
 10
86.3699846672
 20
187.6057040874
 30
0.0
  0
VERTEX
  5
46A
  8
0
  6
CONTINUOUS
 62
     7
 10
86.4630085218
 20
187.6206176486
 30
0.0
  0
VERTEX
  5
46B
  8
0
  6
CONTINUOUS
 62
     7
 10
86.533569309
 20
187.6740743003
 30
0.0
  0
VERTEX
  5
46C
  8
0
  6
CONTINUOUS
 62
     7
 10
86.5709325936
 20
187.7579373556
 30
0.0
  0
VERTEX
  5
46D
  8
0
  6
CONTINUOUS
 62
     7
 10
86.569425276
 20
187.8594274668
 30
0.0
  0
VERTEX
  5
46E
  8
0
  6
CONTINUOUS
 62
     7
 10
86.529285446
 20
187.9631019176
 30
0.0
  0
VERTEX
  5
46F
  8
0
  6
CONTINUOUS
 62
     7
 10
86.4566252391
 20
188.0531987979
 30
0.0
  0
VERTEX
  5
470
  8
0
  6
CONTINUOUS
 62
     7
 10
86.3624931279
 20
188.1160092096
 30
0.0
  0
VERTEX
  5
471
  8
0
  6
CONTINUOUS
 62
     7
 10
86.261208035
 20
188.1419731311
 30
0.0
  0
VERTEX
  5
472
  8
0
  6
CONTINUOUS
 62
     7
 10
86.1681756638
 20
188.127133859
 30
0.0
  0
SEQEND
  5
4DE
  8
0
  6
CONTINUOUS
 62
     7
  0
LINE
  5
196
  8
0
  6
CONTINUOUS
 62
     7
 10
113.4384900643
 20
126.7138411324
 30
0.0
 11
112.5165959165
 21
66.0805549296
 31
0.0
  0
LINE
  5
197
  8
0
  6
CONTINUOUS
 62
     7
 10
112.5165959165
 20
66.0805549296
 30
0.0
 11
111.4999214156
 21
66.7010113701
 31
0.0
  0
LINE
  5
198
  8
0
  6
CONTINUOUS
 62
     7
 10
111.4999214156
 20
66.7010113701
 30
0.0
 11
112.3406203302
 21
126.7419407334
 31
0.0
  0
LINE
  5
199
  8
0
  6
CONTINUOUS
 62
     7
 10
112.3406203302
 20
126.7419407334
 30
0.0
 11
78.4906355583
 21
185.0595278736
 31
0.0
  0
LINE
  5
19A
  8
0
  6
CONTINUOUS
 62
     7
 10
78.4906355583
 20
185.0595278736
 30
0.0
 11
79.1922466716
 21
185.6952773132
 31
0.0
  0
LINE
  5
19B
  8
0
  6
CONTINUOUS
 62
     7
 10
149.9872484779
 20
126.0461058784
 30
0.0
 11
149.5434915183
 21
118.0152735961
 31
0.0
  0
LINE
  5
19C
  8
0
  6
CONTINUOUS
 62
     7
 10
149.1074749861
 20
110.124522664
 30
0.0
 11
148.678998166
 21
102.3702206659
 31
0.0
  0
LINE
  5
19D
  8
0
  6
CONTINUOUS
 62
     7
 10
147.0514734111
 20
88.0578579511
 30
0.0
 11
112.5165959165
 21
66.0805549296
 31
0.0
  0
LINE
  5
19E
  8
0
  6
CONTINUOUS
 62
     7
 10
150.2235367251
 20
146.4749761379
 30
0.0
 11
149.9829481814
 21
142.0442671638
 31
0.0
  0
LINE
  5
19F
  8
0
  6
CONTINUOUS
 62
     7
 10
150.8988230567
 20
142.5432050141
 30
0.0
 11
150.4389538454
 21
134.2207834095
 31
0.0
  0
LINE
  5
1A0
  8
0
  6
CONTINUOUS
 62
     7
 10
127.1037937703
 20
130.352623996
 30
0.0
 11
125.8424069858
 21
88.3691802075
 31
0.0
  0
LINE
  5
1A1
  8
0
  6
CONTINUOUS
 62
     7
 10
125.8424069858
 20
88.3691802075
 30
0.0
 11
145.588323525
 21
100.4753380037
 31
0.0
  0
LINE
  5
1A2
  8
0
  6
CONTINUOUS
 62
     7
 10
145.588323525
 20
100.4753380037
 30
0.0
 11
147.7200845472
 21
141.5567872168
 31
0.0
  0
LINE
  5
1A3
  8
0
  6
CONTINUOUS
 62
     7
 10
147.7200845472
 20
141.5567872168
 30
0.0
 11
127.1037937703
 21
130.352623996
 31
0.0
  0
LINE
  5
1A4
  8
0
  6
CONTINUOUS
 62
     7
 10
93.4171627125
 20
189.981445147
 30
0.0
 11
93.5873310777
 21
190.1312675668
 31
0.0
  0
LINE
  5
1A5
  8
0
  6
CONTINUOUS
 62
     7
 10
144.8163990765
 20
100.8831123572
 30
0.0
 11
145.588323525
 21
100.4753380037
 31
0.0
  0
LINE
  5
1A6
  8
0
  6
CONTINUOUS
 62
     7
 10
144.8163990765
 20
100.8831123572
 30
0.0
 11
146.8670154944
 21
141.093178588
 31
0.0
  0
LINE
  5
1A7
  8
0
  6
CONTINUOUS
 62
     7
 10
148.4582632963
 20
151.5219227638
 30
0.0
 11
148.4603697296
 21
151.5233077236
 31
0.0
  0
LINE
  5
1A8
  8
0
  6
CONTINUOUS
 62
     7
 10
138.613779384
 20
168.234080134
 30
0.0
 11
138.6150061306
 21
168.2349615504
 31
0.0
  0
LINE
  5
1A9
  8
0
  6
CONTINUOUS
 62
     7
 10
128.8252240903
 20
184.8501077346
 30
0.0
 11
128.8260956666
 21
184.8507873155
 31
0.0
  0
LINE
  5
1AA
  8
0
  6
CONTINUOUS
 62
     7
 10
125.8702627839
 20
89.2963734402
 30
0.0
 11
144.8163990765
 21
100.8831123572
 31
0.0
  0
POLYLINE
  5
1AB
  8
0
  6
CONTINUOUS
 62
     8
 66
     1
 10
0.0
 20
0.0
 30
0.0
  0
VERTEX
  5
473
  8
0
  6
CONTINUOUS
 62
     8
 10
105.5956375565
 20
75.4949197052
 30
0.0
  0
VERTEX
  5
474
  8
0
  6
CONTINUOUS
 62
     8
 10
105.6184298102
 20
75.6729821906
 30
0.0
  0
VERTEX
  5
475
  8
0
  6
CONTINUOUS
 62
     8
 10
105.6824744094
 20
75.8618082119
 30
0.0
  0
VERTEX
  5
476
  8
0
  6
CONTINUOUS
 62
     8
 10
105.7820755817
 20
76.0445775767
 30
0.0
  0
VERTEX
  5
477
  8
0
  6
CONTINUOUS
 62
     8
 10
105.9083553278
 20
76.2050029575
 30
0.0
  0
VERTEX
  5
478
  8
0
  6
CONTINUOUS
 62
     8
 10
106.0500525498
 20
76.3287998324
 30
0.0
  0
VERTEX
  5
479
  8
0
  6
CONTINUOUS
 62
     8
 10
106.1945452908
 20
76.4049635521
 30
0.0
  0
VERTEX
  5
47A
  8
0
  6
CONTINUOUS
 62
     8
 10
106.3289738145
 20
76.426752576
 30
0.0
  0
VERTEX
  5
47B
  8
0
  6
CONTINUOUS
 62
     8
 10
106.4309862747
 20
76.3984679269
 30
0.0
  0
SEQEND
  5
4DD
  8
0
  6
CONTINUOUS
 62
     8
  0
ARC
  5
1AC
  8
0
  6
CONTINUOUS
 62
     8
 10
105.9160991826
 20
75.4538971161
 30
0.0
 40
0.3230766266009858
 50
172.7051878527
 51
233.7093719776
  0
ARC
  5
1AD
  8
0
  6
CONTINUOUS
 62
     8
 10
105.4195570707
 20
75.7527164692
 30
0.0
 40
0.322661638543592
 50
172.7227631668
 51
234.1024745584
  0
POLYLINE
  5
1AE
  8
0
  6
CONTINUOUS
 62
     8
 66
     1
 10
0.0
 20
0.0
 30
0.0
  0
VERTEX
  5
47C
  8
0
  6
CONTINUOUS
 62
     8
 10
105.940616894
 20
76.6926890417
 30
0.0
  0
VERTEX
  5
47D
  8
0
  6
CONTINUOUS
 62
     8
 10
105.83256126
 20
76.7244945317
 30
0.0
  0
VERTEX
  5
47E
  8
0
  6
CONTINUOUS
 62
     8
 10
105.698095101
 20
76.7028093035
 30
0.0
  0
VERTEX
  5
47F
  8
0
  6
CONTINUOUS
 62
     8
 10
105.5535927554
 20
76.6267805289
 30
0.0
  0
VERTEX
  5
480
  8
0
  6
CONTINUOUS
 62
     8
 10
105.4119148207
 20
76.5031377755
 30
0.0
  0
VERTEX
  5
481
  8
0
  6
CONTINUOUS
 62
     8
 10
105.2856815221
 20
76.3428719717
 30
0.0
  0
VERTEX
  5
482
  8
0
  6
CONTINUOUS
 62
     8
 10
105.1861497979
 20
76.1602533949
 30
0.0
  0
VERTEX
  5
483
  8
0
  6
CONTINUOUS
 62
     8
 10
105.1221914375
 20
75.9715558964
 30
0.0
  0
VERTEX
  5
484
  8
0
  6
CONTINUOUS
 62
     8
 10
105.0994945213
 20
75.7935881889
 30
0.0
  0
SEQEND
  5
4DC
  8
0
  6
CONTINUOUS
 62
     8
  0
POLYLINE
  5
1AF
  8
0
  6
CONTINUOUS
 62
     8
 66
     1
 10
0.0
 20
0.0
 30
0.0
  0
VERTEX
  5
485
  8
0
  6
CONTINUOUS
 62
     8
 10
61.9465473001
 20
101.5628348051
 30
0.0
  0
VERTEX
  5
486
  8
0
  6
CONTINUOUS
 62
     8
 10
61.9429468908
 20
101.5650449477
 30
0.0
  0
VERTEX
  5
487
  8
0
  6
CONTINUOUS
 62
     8
 10
61.8559411755
 20
101.6534623307
 30
0.0
  0
VERTEX
  5
488
  8
0
  6
CONTINUOUS
 62
     8
 10
61.8068491193
 20
101.7832778732
 30
0.0
  0
VERTEX
  5
489
  8
0
  6
CONTINUOUS
 62
     8
 10
61.8000660436
 20
101.9429592792
 30
0.0
  0
VERTEX
  5
48A
  8
0
  6
CONTINUOUS
 62
     8
 10
61.8362180809
 20
102.1183034467
 30
0.0
  0
VERTEX
  5
48B
  8
0
  6
CONTINUOUS
 62
     8
 10
61.912098964
 20
102.2936896877
 30
0.0
  0
VERTEX
  5
48C
  8
0
  6
CONTINUOUS
 62
     8
 10
62.0209486982
 20
102.4534948242
 30
0.0
  0
VERTEX
  5
48D
  8
0
  6
CONTINUOUS
 62
     8
 10
62.1530677063
 20
102.5834848226
 30
0.0
  0
VERTEX
  5
48E
  8
0
  6
CONTINUOUS
 62
     8
 10
62.2966768639
 20
102.6720929495
 30
0.0
  0
VERTEX
  5
48F
  8
0
  6
CONTINUOUS
 62
     8
 10
62.4389939393
 20
102.7114597427
 30
0.0
  0
VERTEX
  5
490
  8
0
  6
CONTINUOUS
 62
     8
 10
62.567359221
 20
102.6981222134
 30
0.0
  0
VERTEX
  5
491
  8
0
  6
CONTINUOUS
 62
     8
 10
62.6207618271
 20
102.6730820398
 30
0.0
  0
SEQEND
  5
4DB
  8
0
  6
CONTINUOUS
 62
     8
  0
POLYLINE
  5
1B0
  8
0
  6
CONTINUOUS
 62
     8
 66
     1
 10
0.0
 20
0.0
 30
0.0
  0
VERTEX
  5
492
  8
0
  6
CONTINUOUS
 62
     8
 10
62.1886528685
 20
102.9322545932
 30
0.0
  0
VERTEX
  5
493
  8
0
  6
CONTINUOUS
 62
     8
 10
62.1379950921
 20
102.9556318943
 30
0.0
  0
VERTEX
  5
494
  8
0
  6
CONTINUOUS
 62
     8
 10
62.0096042023
 20
102.9690317216
 30
0.0
  0
VERTEX
  5
495
  8
0
  6
CONTINUOUS
 62
     8
 10
61.8672829038
 20
102.9297594753
 30
0.0
  0
VERTEX
  5
496
  8
0
  6
CONTINUOUS
 62
     8
 10
61.7236912936
 20
102.8412697766
 30
0.0
  0
VERTEX
  5
497
  8
0
  6
CONTINUOUS
 62
     8
 10
61.5916100339
 20
102.7114115689
 30
0.0
  0
VERTEX
  5
498
  8
0
  6
CONTINUOUS
 62
     8
 10
61.4828148677
 20
102.5517398366
 30
0.0
  0
VERTEX
  5
499
  8
0
  6
CONTINUOUS
 62
     8
 10
61.4070004897
 20
102.3764767035
 30
0.0
  0
VERTEX
  5
49A
  8
0
  6
CONTINUOUS
 62
     8
 10
61.3709209588
 20
102.201234349
 30
0.0
  0
VERTEX
  5
49B
  8
0
  6
CONTINUOUS
 62
     8
 10
61.3777760841
 20
102.0416243713
 30
0.0
  0
VERTEX
  5
49C
  8
0
  6
CONTINUOUS
 62
     8
 10
61.4269333386
 20
101.911843518
 30
0.0
  0
VERTEX
  5
49D
  8
0
  6
CONTINUOUS
 62
     8
 10
61.513991629
 20
101.8234210269
 30
0.0
  0
VERTEX
  5
49E
  8
0
  6
CONTINUOUS
 62
     8
 10
61.5175935702
 20
101.8212099922
 30
0.0
  0
SEQEND
  5
4DA
  8
0
  6
CONTINUOUS
 62
     8
  0
ARC
  5
1B1
  8
0
  6
CONTINUOUS
 62
     8
 10
95.6332032834
 20
184.0887988948
 30
0.0
 40
0.468345112175848
 50
319.0172246113
 51
36.2087982054
  0
ARC
  5
1B2
  8
0
  6
CONTINUOUS
 62
     8
 10
95.2277062014
 20
184.0003196453
 30
0.0
 40
0.0452408862805374
 50
79.774955982
 51
125.3278388484
  0
ARC
  5
1B3
  8
0
  6
CONTINUOUS
 62
     8
 10
120.2866292911
 20
194.6778952987
 30
0.0
 40
0.4477985619556701
 50
319.6578721582
 51
37.1210855304
  0
POLYLINE
  5
1B4
  8
0
  6
CONTINUOUS
 62
     8
 66
     1
 10
0.0
 20
0.0
 30
0.0
  0
VERTEX
  5
49F
  8
0
  6
CONTINUOUS
 62
     8
 10
119.9314309175
 20
194.654801629
 30
0.0
  0
VERTEX
  5
4A0
  8
0
  6
CONTINUOUS
 62
     8
 10
119.9310670115
 20
194.6552694069
 30
0.0
  0
VERTEX
  5
4A1
  8
0
  6
CONTINUOUS
 62
     8
 10
119.9277150844
 20
194.6561691648
 30
0.0
  0
VERTEX
  5
4A2
  8
0
  6
CONTINUOUS
 62
     8
 10
119.9215603082
 20
194.6552613755
 30
0.0
  0
VERTEX
  5
4A3
  8
0
  6
CONTINUOUS
 62
     8
 10
119.9128407475
 20
194.6525848984
 30
0.0
  0
VERTEX
  5
4A4
  8
0
  6
CONTINUOUS
 62
     8
 10
119.9018913497
 20
194.6482423679
 30
0.0
  0
SEQEND
  5
4D9
  8
0
  6
CONTINUOUS
 62
     8
  0
ARC
  5
1B5
  8
0
  6
CONTINUOUS
 62
     8
 10
120.1587113194
 20
194.6341623085
 30
0.0
 40
0.577741035948992
 50
32.9195986973
 51
123.0262245375
  0
POLYLINE
  5
1B6
  8
0
  6
CONTINUOUS
 62
     8
 66
     1
 10
0.0
 20
0.0
 30
0.0
  0
VERTEX
  5
4A5
  8
0
  6
CONTINUOUS
 62
     8
 10
118.4848185278
 20
194.8611844746
 30
0.0
  0
VERTEX
  5
4A6
  8
0
  6
CONTINUOUS
 62
     8
 10
118.5241322927
 20
194.8757806669
 30
0.0
  0
VERTEX
  5
4A7
  8
0
  6
CONTINUOUS
 62
     8
 10
118.6975837592
 20
194.895924881
 30
0.0
  0
VERTEX
  5
4A8
  8
0
  6
CONTINUOUS
 62
     8
 10
118.8825726776
 20
194.8521590028
 30
0.0
  0
VERTEX
  5
4A9
  8
0
  6
CONTINUOUS
 62
     8
 10
119.066467747
 20
194.7474025358
 30
0.0
  0
VERTEX
  5
4AA
  8
0
  6
CONTINUOUS
 62
     8
 10
119.2366917401
 20
194.5887851454
 30
0.0
  0
VERTEX
  5
4AB
  8
0
  6
CONTINUOUS
 62
     8
 10
119.3815938615
 20
194.3871181981
 30
0.0
  0
VERTEX
  5
4AC
  8
0
  6
CONTINUOUS
 62
     8
 10
119.4912505325
 20
194.1562032946
 30
0.0
  0
VERTEX
  5
4AD
  8
0
  6
CONTINUOUS
 62
     8
 10
119.5581574727
 20
193.9118357629
 30
0.0
  0
VERTEX
  5
4AE
  8
0
  6
CONTINUOUS
 62
     8
 10
119.5777527751
 20
193.6707400887
 30
0.0
  0
VERTEX
  5
4AF
  8
0
  6
CONTINUOUS
 62
     8
 10
119.5487223695
 20
193.4493985814
 30
0.0
  0
VERTEX
  5
4B0
  8
0
  6
CONTINUOUS
 62
     8
 10
119.4730903561
 20
193.2629202912
 30
0.0
  0
VERTEX
  5
4B1
  8
0
  6
CONTINUOUS
 62
     8
 10
119.3560620327
 20
193.1239885395
 30
0.0
  0
SEQEND
  5
4D8
  8
0
  6
CONTINUOUS
 62
     8
  0
ARC
  5
1B7
  8
0
  6
CONTINUOUS
 62
     8
 10
118.5891958816
 20
194.5092199369
 30
0.0
 40
0.3698180302303871
 50
137.9613213907
 51
213.2733935287
  0
ARC
  5
1B8
  8
0
  6
CONTINUOUS
 62
     8
 10
118.5096135377
 20
194.4318365384
 30
0.0
 40
0.378829072359872
 50
138.5297522298
 51
216.0778108614
  0
POLYLINE
  5
1B9
  8
0
  6
CONTINUOUS
 62
     8
 66
     1
 10
0.0
 20
0.0
 30
0.0
  0
VERTEX
  5
4B2
  8
0
  6
CONTINUOUS
 62
     8
 10
121.2651255674
 20
194.2695890622
 30
0.0
  0
VERTEX
  5
4B3
  8
0
  6
CONTINUOUS
 62
     8
 10
121.2765949405
 20
194.4029211876
 30
0.0
  0
VERTEX
  5
4B4
  8
0
  6
CONTINUOUS
 62
     8
 10
121.2573903681
 20
194.6434777767
 30
0.0
  0
VERTEX
  5
4B5
  8
0
  6
CONTINUOUS
 62
     8
 10
121.1908566708
 20
194.8872314396
 30
0.0
  0
VERTEX
  5
4B6
  8
0
  6
CONTINUOUS
 62
     8
 10
121.0815301916
 20
195.1174998725
 30
0.0
  0
VERTEX
  5
4B7
  8
0
  6
CONTINUOUS
 62
     8
 10
120.9368925415
 20
195.3185321613
 30
0.0
  0
VERTEX
  5
4B8
  8
0
  6
CONTINUOUS
 62
     8
 10
120.7668490673
 20
195.476570282
 30
0.0
  0
VERTEX
  5
4B9
  8
0
  6
CONTINUOUS
 62
     8
 10
120.5830381334
 20
195.5808424609
 30
0.0
  0
VERTEX
  5
4BA
  8
0
  6
CONTINUOUS
 62
     8
 10
120.3980311471
 20
195.624252019
 30
0.0
  0
VERTEX
  5
4BB
  8
0
  6
CONTINUOUS
 62
     8
 10
120.2244606925
 20
195.6039034898
 30
0.0
  0
VERTEX
  5
4BC
  8
0
  6
CONTINUOUS
 62
     8
 10
120.1846147922
 20
195.5890734914
 30
0.0
  0
SEQEND
  5
4D7
  8
0
  6
CONTINUOUS
 62
     8
  0
LINE
  5
1BA
  8
0
  6
CONTINUOUS
 62
     8
 10
119.0549263984
 20
192.7555988762
 30
0.0
 11
119.0643740715
 21
192.7395356174
 31
0.0
  0
POLYLINE
  5
1BB
  8
0
  6
CONTINUOUS
 62
     8
 66
     1
 10
0.0
 20
0.0
 30
0.0
  0
VERTEX
  5
4BD
  8
0
  6
CONTINUOUS
 62
     8
 10
93.7475354917
 20
184.2681583444
 30
0.0
  0
VERTEX
  5
4BE
  8
0
  6
CONTINUOUS
 62
     8
 10
93.7863384865
 20
184.2824433689
 30
0.0
  0
VERTEX
  5
4BF
  8
0
  6
CONTINUOUS
 62
     8
 10
93.9576666127
 20
184.2994470479
 30
0.0
  0
VERTEX
  5
4C0
  8
0
  6
CONTINUOUS
 62
     8
 10
94.1420440758
 20
184.2503476719
 30
0.0
  0
VERTEX
  5
4C1
  8
0
  6
CONTINUOUS
 62
     8
 10
94.3268821909
 20
184.1384246393
 30
0.0
  0
VERTEX
  5
4C2
  8
0
  6
CONTINUOUS
 62
     8
 10
94.4995383522
 20
183.9712958161
 30
0.0
  0
VERTEX
  5
4C3
  8
0
  6
CONTINUOUS
 62
     8
 10
94.6481942553
 20
183.7603544199
 30
0.0
  0
VERTEX
  5
4C4
  8
0
  6
CONTINUOUS
 62
     8
 10
94.7626674773
 20
183.5200389554
 30
0.0
  0
VERTEX
  5
4C5
  8
0
  6
CONTINUOUS
 62
     8
 10
94.8351230064
 20
183.266790711
 30
0.0
  0
VERTEX
  5
4C6
  8
0
  6
CONTINUOUS
 62
     8
 10
94.8606187986
 20
183.017944505
 30
0.0
  0
VERTEX
  5
4C7
  8
0
  6
CONTINUOUS
 62
     8
 10
94.8374380553
 20
182.7905141309
 30
0.0
  0
VERTEX
  5
4C8
  8
0
  6
CONTINUOUS
 62
     8
 10
94.7672069513
 20
182.6000242136
 30
0.0
  0
VERTEX
  5
4C9
  8
0
  6
CONTINUOUS
 62
     8
 10
94.6547650524
 20
182.4594289125
 30
0.0
  0
SEQEND
  5
4D6
  8
0
  6
CONTINUOUS
 62
     8
  0
ARC
  5
1BC
  8
0
  6
CONTINUOUS
 62
     8
 10
93.8545662561
 20
183.8946861968
 30
0.0
 40
0.3874737314334142
 50
137.480901629
 51
212.3418012013
  0
ARC
  5
1BD
  8
0
  6
CONTINUOUS
 62
     8
 10
93.7770078244
 20
183.8170622813
 30
0.0
 40
0.395825135038503
 50
137.9368709089
 51
215.2654318347
  0
POLYLINE
  5
1BE
  8
0
  6
CONTINUOUS
 62
     8
 66
     1
 10
0.0
 20
0.0
 30
0.0
  0
VERTEX
  5
4CA
  8
0
  6
CONTINUOUS
 62
     8
 10
96.6841515419
 20
183.6110090729
 30
0.0
  0
VERTEX
  5
4CB
  8
0
  6
CONTINUOUS
 62
     8
 10
96.7022598963
 20
183.8116702732
 30
0.0
  0
VERTEX
  5
4CC
  8
0
  6
CONTINUOUS
 62
     8
 10
96.6772176532
 20
184.0599449871
 30
0.0
  0
VERTEX
  5
4CD
  8
0
  6
CONTINUOUS
 62
     8
 10
96.6051831643
 20
184.3125348134
 30
0.0
  0
VERTEX
  5
4CE
  8
0
  6
CONTINUOUS
 62
     8
 10
96.491069621
 20
184.5521501898
 30
0.0
  0
VERTEX
  5
4CF
  8
0
  6
CONTINUOUS
 62
     8
 10
96.3426873344
 20
184.7623979427
 30
0.0
  0
VERTEX
  5
4D0
  8
0
  6
CONTINUOUS
 62
     8
 10
96.1701998557
 20
184.9288872086
 30
0.0
  0
VERTEX
  5
4D1
  8
0
  6
CONTINUOUS
 62
     8
 10
95.9854138701
 20
185.0402684972
 30
0.0
  0
VERTEX
  5
4D2
  8
0
  6
CONTINUOUS
 62
     8
 10
95.8009683579
 20
185.0889608514
 30
0.0
  0
VERTEX
  5
4D3
  8
0
  6
CONTINUOUS
 62
     8
 10
95.6294567243
 20
185.0717123443
 30
0.0
  0
VERTEX
  5
4D4
  8
0
  6
CONTINUOUS
 62
     8
 10
95.5903382866
 20
185.0572855912
 30
0.0
  0
SEQEND
  5
4D5
  8
0
  6
CONTINUOUS
 62
     8
  0
LINE
  5
1BF
  8
0
  6
CONTINUOUS
 62
     8
 10
94.4026726078
 20
182.1046415659
 30
0.0
 11
94.4134731912
 21
182.0861099851
 31
0.0
  0
LINE
  5
1C0
  8
0
  6
CONTINUOUS
 62
     8
 10
107.1957918762
 20
123.3616833735
 30
0.0
 11
107.5376511766
 21
123.545331309
 31
0.0
  0
LINE
  5
1C1
  8
0
  6
CONTINUOUS
 62
     8
 10
101.4209710788
 20
117.2717598109
 30
0.0
 11
101.7517351823
 21
117.4510477612
 31
0.0
  0
LINE
  5
1C2
  8
0
  6
CONTINUOUS
 62
     8
 10
91.8743308474
 20
126.5717008359
 30
0.0
 11
91.5022169945
 21
126.3785896286
 31
0.0
  0
TEXT
  5
1C3
  8
0
  6
CONTINUOUS
 62
     7
 10
0.0
 20
6.9220560595
 30
0.0
 40
3.73507
  1
Edition tudiante de SolidWorks.
 41
0.6671875
 11
0.0
 21
5.602605
 31
0.0
 73
     1
  0
TEXT
  5
1C4
  8
0
  6
CONTINUOUS
 62
     7
 10
0.0
 20
1.3194510595
 30
0.0
 40
3.73507
  1
A usage universitaire uniquement.
 41
0.6681818182
 11
0.0
 21
0.0
 31
0.0
 73
     1
  0
ENDSEC
  0
EOF
