  0
SECTION
  2
HEADER
  9
$ACADVER
  1
AC1009
  9
$DWGCODEPAGE
  3
ansi_1252
  9
$INSBASE
 10
0.0
 20
0.0
 30
0.0
  9
$EXTMIN
 10
0.0
 20
0.0
 30
0.0
  9
$EXTMAX
 10
279.4
 20
215.9
 30
0.0
  9
$LIMMIN
 10
0.0
 20
0.0
  9
$LIMMAX
 10
279.4
 20
215.9
  9
$ORTHOMODE
 70
     0
  9
$REGENMODE
 70
     1
  9
$FILLMODE
 70
     1
  9
$QTEXTMODE
 70
     0
  9
$MIRRTEXT
 70
     1
  9
$DRAGMODE
 70
     2
  9
$LTSCALE
 40
1.0
  9
$OSMODE
 70
    37
  9
$ATTMODE
 70
     1
  9
$TEXTSIZE
 40
3.5
  9
$TRACEWID
 40
1.0
  9
$TEXTSTYLE
  7
STANDARD
  9
$CLAYER
  8
0
  9
$CELTYPE
  6
BYLAYER
  9
$CECOLOR
 62
   256
  9
$DIMSCALE
 40
1.0
  9
$DIMASZ
 40
3.302
  9
$DIMEXO
 40
1.0
  9
$DIMDLI
 40
3.75
  9
$DIMRND
 40
0.0
  9
$DIMDLE
 40
0.0
  9
$DIMEXE
 40
1.0
  9
$DIMTP
 40
0.0
  9
$DIMTM
 40
0.0
  9
$DIMTXT
 40
3.5
  9
$DIMCEN
 40
2.5
  9
$DIMTSZ
 40
0.0
  9
$DIMTOL
 70
     0
  9
$DIMLIM
 70
     0
  9
$DIMTIH
 70
     1
  9
$DIMTOH
 70
     1
  9
$DIMSE1
 70
     0
  9
$DIMSE2
 70
     0
  9
$DIMTAD
 70
     1
  9
$DIMZIN
 70
     0
  9
$DIMBLK
  1

  9
$DIMASO
 70
     1
  9
$DIMSHO
 70
     1
  9
$DIMPOST
  1

  9
$DIMAPOST
  1

  9
$DIMALT
 70
     0
  9
$DIMALTD
 70
     3
  9
$DIMALTF
 40
0.0393700787
  9
$DIMLFAC
 40
2.0
  9
$DIMTOFL
 70
     1
  9
$DIMTVP
 40
0.0
  9
$DIMTIX
 70
     0
  9
$DIMSOXD
 70
     0
  9
$DIMSAH
 70
     0
  9
$DIMBLK1
  1

  9
$DIMBLK2
  1

  9
$DIMSTYLE
  2
ISO-25
  9
$DIMCLRD
 70
     0
  9
$DIMCLRE
 70
     0
  9
$DIMCLRT
 70
     0
  9
$DIMTFAC
 40
1.0
  9
$DIMGAP
 40
1.524
  9
$LUNITS
 70
     2
  9
$LUPREC
 70
     2
  9
$SKETCHINC
 40
1.0
  9
$FILLETRAD
 40
10.0
  9
$AUNITS
 70
     0
  9
$AUPREC
 70
     2
  9
$MENU
  1
.
  9
$ELEVATION
 40
0.0
  9
$PELEVATION
 40
0.0
  9
$THICKNESS
 40
0.0
  9
$LIMCHECK
 70
     0
  9
$CHAMFERA
 40
10.0
  9
$CHAMFERB
 40
10.0
  9
$SKPOLY
 70
     0
  9
$TDCREATE
 40
2456428.466353704
  9
$TDUPDATE
 40
2456428.466353889
  9
$TDINDWG
 40
0.0000000116
  9
$TDUSRTIMER
 40
0.0000000116
  9
$USRTIMER
 70
     1
  9
$ANGBASE
 50
0.0
  9
$ANGDIR
 70
     0
  9
$PDMODE
 70
     0
  9
$PDSIZE
 40
-1.0
  9
$PLINEWID
 40
0.0
  9
$COORDS
 70
     1
  9
$SPLFRAME
 70
     0
  9
$SPLINETYPE
 70
     6
  9
$SPLINESEGS
 70
     8
  9
$ATTDIA
 70
     0
  9
$ATTREQ
 70
     1
  9
$HANDLING
 70
     1
  9
$HANDSEED
  5
429
  9
$SURFTAB1
 70
     6
  9
$SURFTAB2
 70
     6
  9
$SURFTYPE
 70
     6
  9
$SURFU
 70
     6
  9
$SURFV
 70
     6
  9
$UCSNAME
  2

  9
$UCSORG
 10
0.0
 20
0.0
 30
0.0
  9
$UCSXDIR
 10
1.0
 20
0.0
 30
0.0
  9
$UCSYDIR
 10
0.0
 20
1.0
 30
0.0
  9
$PUCSNAME
  2

  9
$PUCSORG
 10
0.0
 20
0.0
 30
0.0
  9
$PUCSXDIR
 10
1.0
 20
0.0
 30
0.0
  9
$PUCSYDIR
 10
0.0
 20
1.0
 30
0.0
  9
$USERI1
 70
     0
  9
$USERI2
 70
     0
  9
$USERI3
 70
     0
  9
$USERI4
 70
     0
  9
$USERI5
 70
     0
  9
$USERR1
 40
0.0
  9
$USERR2
 40
0.0
  9
$USERR3
 40
0.0
  9
$USERR4
 40
0.0
  9
$USERR5
 40
0.0
  9
$WORLDVIEW
 70
     1
  9
$SHADEDGE
 70
     3
  9
$SHADEDIF
 70
    70
  9
$TILEMODE
 70
     1
  9
$MAXACTVP
 70
    64
  9
$PLIMCHECK
 70
     0
  9
$PEXTMIN
 10
1.0000000000E+20
 20
1.0000000000E+20
 30
1.0000000000E+20
  9
$PEXTMAX
 10
-1.0000000000E+20
 20
-1.0000000000E+20
 30
-1.0000000000E+20
  9
$PLIMMIN
 10
0.0
 20
0.0
  9
$PLIMMAX
 10
420.0
 20
297.0
  9
$UNITMODE
 70
     0
  9
$VISRETAIN
 70
     1
  9
$PLINEGEN
 70
     0
  9
$PSLTSCALE
 70
     1
  0
ENDSEC
  0
SECTION
  2
TABLES
  0
TABLE
  2
VPORT
 70
     1
  0
VPORT
  2
*ACTIVE
 70
     0
 10
0.0
 20
0.0
 11
1.0
 21
1.0
 12
139.7
 22
107.95
 13
0.0
 23
0.0
 14
10.0
 24
10.0
 15
10.0
 25
10.0
 16
0.0
 26
0.0
 36
1.0
 17
0.0
 27
0.0
 37
0.0
 40
215.9
 41
1.2941176471
 42
50.0
 43
0.0
 44
0.0
 50
0.0
 51
0.0
 71
     0
 72
  2000
 73
     1
 74
     3
 75
     0
 76
     0
 77
     0
 78
     0
  0
ENDTAB
  0
TABLE
  2
LTYPE
 70
     6
  0
LTYPE
  2
CONTINUOUS
 70
     0
  3
Solid line
 72
    65
 73
     0
 40
0.0
  0
LTYPE
  2
HIDDEN
 70
     0
  3
Hidden __ __ __ __ __ __ __ __ __ __ __ __ __ __
 72
    65
 73
     2
 40
1.905
 49
1.27
 49
-0.635
  0
LTYPE
  2
PHANTOM
 70
     0
  3
Phantom ______  __  __  ______  __  __  ______
 72
    65
 73
     6
 40
12.7
 49
6.35
 49
-1.27
 49
1.27
 49
-1.27
 49
1.27
 49
-1.27
  0
LTYPE
  2
CENTER
 70
     0
  3
Center ____ _ ____ _ ____ _ ____ _ ____ _ ____
 72
    65
 73
     4
 40
10.16
 49
6.35
 49
-1.27
 49
1.27
 49
-1.27
  0
LTYPE
  2
CENTERX2
 70
     0
  3
Center (2x) ________  __  ________  __  _____
 72
    65
 73
     4
 40
20.32
 49
12.7
 49
-2.54
 49
2.54
 49
-2.54
  0
LTYPE
  2
DOT2
 70
     0
  3
Dot (.5x) ........................................
 72
    65
 73
     2
 40
0.635
 49
0.0
 49
-0.635
  0
ENDTAB
  0
TABLE
  2
LAYER
 70
     1
  0
LAYER
  2
0
 70
     0
 62
     7
  6
CONTINUOUS
  0
ENDTAB
  0
TABLE
  2
STYLE
 70
     1
  0
STYLE
  2
STANDARD
 70
     0
 40
0.0
 41
1.0
 50
0.0
 71
     0
 42
3.5
  3
txt
  4

  0
ENDTAB
  0
TABLE
  2
VIEW
 70
     0
  0
ENDTAB
  0
TABLE
  2
UCS
 70
     0
  0
ENDTAB
  0
TABLE
  2
APPID
 70
     1
  0
APPID
  2
ACAD
 70
     0
  0
ENDTAB
  0
TABLE
  2
DIMSTYLE
 70
     1
  0
DIMSTYLE
  2
ISO-25
 70
     0
  3

  4

  5

  6

  7

 40
1.0
 41
2.5
 42
0.625
 43
3.75
 44
1.25
 45
0.0
 46
0.0
 47
0.0
 48
0.0
140
2.5
141
2.5
142
0.0
143
0.0393700787
144
1.0
145
0.0
146
1.0
147
0.625
 71
     0
 72
     0
 73
     0
 74
     0
 75
     0
 76
     0
 77
     1
 78
     8
170
     0
171
     3
172
     1
173
     0
174
     0
175
     0
176
     0
177
     0
178
     0
  0
ENDTAB
  0
ENDSEC
  0
SECTION
  2
BLOCKS
  0
BLOCK
  8
0
  2
$MODEL_SPACE
 70
     0
 10
0.0
 20
0.0
 30
0.0
  3
$MODEL_SPACE
  1

  0
ENDBLK
  5
21
  8
0
  0
BLOCK
 67
     1
  8
0
  2
$PAPER_SPACE
 70
     0
 10
0.0
 20
0.0
 30
0.0
  3
$PAPER_SPACE
  1

  0
ENDBLK
  5
1D
 67
     1
  8
0
  0
ENDSEC
  0
SECTION
  2
ENTITIES
  0
POLYLINE
  5
44
  8
0
  6
CONTINUOUS
 62
     7
 66
     1
 10
0.0
 20
0.0
 30
0.0
  0
VERTEX
  5
154
  8
0
  6
CONTINUOUS
 62
     7
 10
98.7723878233
 20
82.3614016913
 30
0.0
  0
VERTEX
  5
155
  8
0
  6
CONTINUOUS
 62
     7
 10
99.0539728936
 20
81.8832479802
 30
0.0
  0
VERTEX
  5
156
  8
0
  6
CONTINUOUS
 62
     7
 10
99.1869163771
 20
81.7010829582
 30
0.0
  0
VERTEX
  5
157
  8
0
  6
CONTINUOUS
 62
     7
 10
99.4278231057
 20
81.4204045461
 30
0.0
  0
VERTEX
  5
158
  8
0
  6
CONTINUOUS
 62
     7
 10
99.7028897256
 20
81.161465602
 30
0.0
  0
VERTEX
  5
159
  8
0
  6
CONTINUOUS
 62
     7
 10
100.0194491729
 20
80.9293516586
 30
0.0
  0
VERTEX
  5
15A
  8
0
  6
CONTINUOUS
 62
     7
 10
100.3657271589
 20
80.7454575647
 30
0.0
  0
VERTEX
  5
15B
  8
0
  6
CONTINUOUS
 62
     7
 10
100.7301235286
 20
80.6254573678
 30
0.0
  0
VERTEX
  5
15C
  8
0
  6
CONTINUOUS
 62
     7
 10
101.0992113907
 20
80.581150335
 30
0.0
  0
VERTEX
  5
15D
  8
0
  6
CONTINUOUS
 62
     7
 10
101.4589925412
 20
80.6195897255
 30
0.0
  0
VERTEX
  5
15E
  8
0
  6
CONTINUOUS
 62
     7
 10
101.7903159064
 20
80.7398937209
 30
0.0
  0
SEQEND
  5
428
  8
0
  6
CONTINUOUS
 62
     7
  0
POLYLINE
  5
45
  8
0
  6
CONTINUOUS
 62
     7
 66
     1
 10
0.0
 20
0.0
 30
0.0
  0
VERTEX
  5
15F
  8
0
  6
CONTINUOUS
 62
     7
 10
99.2859382969
 20
85.7486489399
 30
0.0
  0
VERTEX
  5
160
  8
0
  6
CONTINUOUS
 62
     7
 10
98.9745581968
 20
85.5417881758
 30
0.0
  0
VERTEX
  5
161
  8
0
  6
CONTINUOUS
 62
     7
 10
98.7075609398
 20
85.2389084179
 30
0.0
  0
VERTEX
  5
162
  8
0
  6
CONTINUOUS
 62
     7
 10
98.5281358864
 20
84.8979341711
 30
0.0
  0
VERTEX
  5
163
  8
0
  6
CONTINUOUS
 62
     7
 10
98.4136728891
 20
84.5044937636
 30
0.0
  0
VERTEX
  5
164
  8
0
  6
CONTINUOUS
 62
     7
 10
98.3673092999
 20
84.0743734417
 30
0.0
  0
VERTEX
  5
165
  8
0
  6
CONTINUOUS
 62
     7
 10
98.3871680268
 20
83.6316263807
 30
0.0
  0
VERTEX
  5
166
  8
0
  6
CONTINUOUS
 62
     7
 10
98.4533450046
 20
83.2464270769
 30
0.0
  0
VERTEX
  5
167
  8
0
  6
CONTINUOUS
 62
     7
 10
98.5331015973
 20
82.9524254949
 30
0.0
  0
VERTEX
  5
168
  8
0
  6
CONTINUOUS
 62
     7
 10
98.654872629
 20
82.6183899307
 30
0.0
  0
VERTEX
  5
169
  8
0
  6
CONTINUOUS
 62
     7
 10
98.7723878233
 20
82.3614016913
 30
0.0
  0
SEQEND
  5
427
  8
0
  6
CONTINUOUS
 62
     7
  0
ARC
  5
46
  8
0
  6
CONTINUOUS
 62
     7
 10
100.890154466
 20
82.2722209956
 30
0.0
 40
1.77534196356883
 50
307.7879106878
 51
5.0397330897
  0
POLYLINE
  5
47
  8
0
  6
CONTINUOUS
 62
     7
 66
     1
 10
0.0
 20
0.0
 30
0.0
  0
VERTEX
  5
16A
  8
0
  6
CONTINUOUS
 62
     7
 10
102.6586329902
 20
82.428178673
 30
0.0
  0
VERTEX
  5
16B
  8
0
  6
CONTINUOUS
 62
     7
 10
102.647372759
 20
82.6898260646
 30
0.0
  0
VERTEX
  5
16C
  8
0
  6
CONTINUOUS
 62
     7
 10
102.5692171645
 20
83.1830553549
 30
0.0
  0
VERTEX
  5
16D
  8
0
  6
CONTINUOUS
 62
     7
 10
102.4208435669
 20
83.6768964786
 30
0.0
  0
VERTEX
  5
16E
  8
0
  6
CONTINUOUS
 62
     7
 10
102.2083531748
 20
84.1554426523
 30
0.0
  0
VERTEX
  5
16F
  8
0
  6
CONTINUOUS
 62
     7
 10
101.9388470212
 20
84.6033691736
 30
0.0
  0
VERTEX
  5
170
  8
0
  6
CONTINUOUS
 62
     7
 10
101.6202371378
 20
85.0059470991
 30
0.0
  0
VERTEX
  5
171
  8
0
  6
CONTINUOUS
 62
     7
 10
101.2605986511
 20
85.3494676121
 30
0.0
  0
VERTEX
  5
172
  8
0
  6
CONTINUOUS
 62
     7
 10
100.8678117062
 20
85.6207260519
 30
0.0
  0
VERTEX
  5
173
  8
0
  6
CONTINUOUS
 62
     7
 10
100.4509295816
 20
85.8056155605
 30
0.0
  0
VERTEX
  5
174
  8
0
  6
CONTINUOUS
 62
     7
 10
100.0718290228
 20
85.885282235
 30
0.0
  0
VERTEX
  5
175
  8
0
  6
CONTINUOUS
 62
     7
 10
99.7093621129
 20
85.8784370769
 30
0.0
  0
VERTEX
  5
176
  8
0
  6
CONTINUOUS
 62
     7
 10
99.3398256787
 20
85.7738285972
 30
0.0
  0
VERTEX
  5
177
  8
0
  6
CONTINUOUS
 62
     7
 10
99.232367194
 20
85.7078997864
 30
0.0
  0
SEQEND
  5
426
  8
0
  6
CONTINUOUS
 62
     7
  0
LINE
  5
48
  8
0
  6
CONTINUOUS
 62
     7
 10
102.9950975123
 20
86.0939058194
 30
0.0
 11
101.3449943844
 21
85.2688542555
 31
0.0
  0
LINE
  5
49
  8
0
  6
CONTINUOUS
 62
     7
 10
102.6478817318
 20
82.6779993618
 30
0.0
 11
104.2920169392
 21
83.5000669655
 31
0.0
  0
LINE
  5
4A
  8
0
  6
CONTINUOUS
 62
     7
 10
104.5782411971
 20
83.8134818253
 30
0.0
 11
105.4177702751
 21
85.6740870788
 31
0.0
  0
LINE
  5
4B
  8
0
  6
CONTINUOUS
 62
     7
 10
105.4097656044
 20
85.6900964201
 30
0.0
 11
103.4175639548
 21
86.1348363099
 31
0.0
  0
POLYLINE
  5
4C
  8
0
  6
CONTINUOUS
 62
     7
 66
     1
 10
0.0
 20
0.0
 30
0.0
  0
VERTEX
  5
178
  8
0
  6
CONTINUOUS
 62
     7
 10
86.044465762
 20
88.725362722
 30
0.0
  0
VERTEX
  5
179
  8
0
  6
CONTINUOUS
 62
     7
 10
86.3260508323
 20
88.2472090109
 30
0.0
  0
VERTEX
  5
17A
  8
0
  6
CONTINUOUS
 62
     7
 10
86.4589943157
 20
88.0650439889
 30
0.0
  0
VERTEX
  5
17B
  8
0
  6
CONTINUOUS
 62
     7
 10
86.6999010444
 20
87.7843655768
 30
0.0
  0
VERTEX
  5
17C
  8
0
  6
CONTINUOUS
 62
     7
 10
86.9749676642
 20
87.5254266327
 30
0.0
  0
VERTEX
  5
17D
  8
0
  6
CONTINUOUS
 62
     7
 10
87.2915271115
 20
87.2933126893
 30
0.0
  0
VERTEX
  5
17E
  8
0
  6
CONTINUOUS
 62
     7
 10
87.6378050975
 20
87.1094185953
 30
0.0
  0
VERTEX
  5
17F
  8
0
  6
CONTINUOUS
 62
     7
 10
88.0022014672
 20
86.9894183984
 30
0.0
  0
VERTEX
  5
180
  8
0
  6
CONTINUOUS
 62
     7
 10
88.3712893293
 20
86.9451113656
 30
0.0
  0
VERTEX
  5
181
  8
0
  6
CONTINUOUS
 62
     7
 10
88.7310704799
 20
86.9835507562
 30
0.0
  0
VERTEX
  5
182
  8
0
  6
CONTINUOUS
 62
     7
 10
89.062393845
 20
87.1038547516
 30
0.0
  0
SEQEND
  5
425
  8
0
  6
CONTINUOUS
 62
     7
  0
POLYLINE
  5
4D
  8
0
  6
CONTINUOUS
 62
     7
 66
     1
 10
0.0
 20
0.0
 30
0.0
  0
VERTEX
  5
183
  8
0
  6
CONTINUOUS
 62
     7
 10
86.5580162355
 20
92.1126099706
 30
0.0
  0
VERTEX
  5
184
  8
0
  6
CONTINUOUS
 62
     7
 10
86.2466361354
 20
91.9057492065
 30
0.0
  0
VERTEX
  5
185
  8
0
  6
CONTINUOUS
 62
     7
 10
85.9796388784
 20
91.6028694486
 30
0.0
  0
VERTEX
  5
186
  8
0
  6
CONTINUOUS
 62
     7
 10
85.8002138251
 20
91.2618952018
 30
0.0
  0
VERTEX
  5
187
  8
0
  6
CONTINUOUS
 62
     7
 10
85.6857508278
 20
90.8684547943
 30
0.0
  0
VERTEX
  5
188
  8
0
  6
CONTINUOUS
 62
     7
 10
85.6393872386
 20
90.4383344723
 30
0.0
  0
VERTEX
  5
189
  8
0
  6
CONTINUOUS
 62
     7
 10
85.6592459655
 20
89.9955874114
 30
0.0
  0
VERTEX
  5
18A
  8
0
  6
CONTINUOUS
 62
     7
 10
85.7254229432
 20
89.6103881076
 30
0.0
  0
VERTEX
  5
18B
  8
0
  6
CONTINUOUS
 62
     7
 10
85.8051795359
 20
89.3163865256
 30
0.0
  0
VERTEX
  5
18C
  8
0
  6
CONTINUOUS
 62
     7
 10
85.9269505677
 20
88.9823509614
 30
0.0
  0
VERTEX
  5
18D
  8
0
  6
CONTINUOUS
 62
     7
 10
86.044465762
 20
88.725362722
 30
0.0
  0
SEQEND
  5
424
  8
0
  6
CONTINUOUS
 62
     7
  0
ARC
  5
4E
  8
0
  6
CONTINUOUS
 62
     7
 10
88.1622324047
 20
88.6361820263
 30
0.0
 40
1.775341963568569
 50
307.7879106878
 51
5.0397330897
  0
POLYLINE
  5
4F
  8
0
  6
CONTINUOUS
 62
     7
 66
     1
 10
0.0
 20
0.0
 30
0.0
  0
VERTEX
  5
18E
  8
0
  6
CONTINUOUS
 62
     7
 10
89.9307109288
 20
88.7921397037
 30
0.0
  0
VERTEX
  5
18F
  8
0
  6
CONTINUOUS
 62
     7
 10
89.9194506976
 20
89.0537870952
 30
0.0
  0
VERTEX
  5
190
  8
0
  6
CONTINUOUS
 62
     7
 10
89.8412951032
 20
89.5470163856
 30
0.0
  0
VERTEX
  5
191
  8
0
  6
CONTINUOUS
 62
     7
 10
89.6929215055
 20
90.0408575092
 30
0.0
  0
VERTEX
  5
192
  8
0
  6
CONTINUOUS
 62
     7
 10
89.4804311134
 20
90.5194036829
 30
0.0
  0
VERTEX
  5
193
  8
0
  6
CONTINUOUS
 62
     7
 10
89.2109249598
 20
90.9673302043
 30
0.0
  0
VERTEX
  5
194
  8
0
  6
CONTINUOUS
 62
     7
 10
88.8923150765
 20
91.3699081297
 30
0.0
  0
VERTEX
  5
195
  8
0
  6
CONTINUOUS
 62
     7
 10
88.5326765898
 20
91.7134286428
 30
0.0
  0
VERTEX
  5
196
  8
0
  6
CONTINUOUS
 62
     7
 10
88.1398896448
 20
91.9846870826
 30
0.0
  0
VERTEX
  5
197
  8
0
  6
CONTINUOUS
 62
     7
 10
87.7230075202
 20
92.1695765912
 30
0.0
  0
VERTEX
  5
198
  8
0
  6
CONTINUOUS
 62
     7
 10
87.3439069614
 20
92.2492432657
 30
0.0
  0
VERTEX
  5
199
  8
0
  6
CONTINUOUS
 62
     7
 10
86.9814400516
 20
92.2423981076
 30
0.0
  0
VERTEX
  5
19A
  8
0
  6
CONTINUOUS
 62
     7
 10
86.6119036173
 20
92.1377896278
 30
0.0
  0
VERTEX
  5
19B
  8
0
  6
CONTINUOUS
 62
     7
 10
86.5044451326
 20
92.0718608171
 30
0.0
  0
SEQEND
  5
423
  8
0
  6
CONTINUOUS
 62
     7
  0
LINE
  5
50
  8
0
  6
CONTINUOUS
 62
     7
 10
90.2671754509
 20
92.4578668501
 30
0.0
 11
88.617072323
 21
91.6328152862
 31
0.0
  0
LINE
  5
51
  8
0
  6
CONTINUOUS
 62
     7
 10
89.9199596704
 20
89.0419603925
 30
0.0
 11
91.5640948779
 21
89.8640279962
 31
0.0
  0
LINE
  5
52
  8
0
  6
CONTINUOUS
 62
     7
 10
91.8503191357
 20
90.177442856
 30
0.0
 11
92.6898482137
 21
92.0380481095
 31
0.0
  0
LINE
  5
53
  8
0
  6
CONTINUOUS
 62
     7
 10
92.6818435431
 20
92.0540574508
 30
0.0
 11
90.6896418934
 21
92.4987973406
 31
0.0
  0
LINE
  5
54
  8
0
  6
CONTINUOUS
 62
     7
 10
117.5528706034
 20
84.699196247
 30
0.0
 11
118.9670841657
 21
85.4063030282
 31
0.0
  0
LINE
  5
55
  8
0
  6
CONTINUOUS
 62
     7
 10
108.2339578737
 20
106.8725556122
 30
0.0
 11
106.8197443114
 21
106.165448831
 31
0.0
  0
LINE
  5
56
  8
0
  6
CONTINUOUS
 62
     7
 10
110.6269483433
 20
87.9444390494
 30
0.0
 11
114.8695890304
 21
90.065759393
 31
0.0
  0
LINE
  5
57
  8
0
  6
CONTINUOUS
 62
     7
 10
109.5030258844
 20
100.798885685
 30
0.0
 11
105.2603851973
 21
98.6775653414
 31
0.0
  0
LINE
  5
58
  8
0
  6
CONTINUOUS
 62
     7
 10
154.0198980909
 20
121.7137737212
 30
0.0
 11
148.3630438414
 21
118.8853465965
 31
0.0
  0
LINE
  5
59
  8
0
  6
CONTINUOUS
 62
     7
 10
154.7794715885
 20
106.4943582641
 30
0.0
 11
160.436325838
 21
109.3227853889
 31
0.0
  0
LINE
  5
5A
  8
0
  6
CONTINUOUS
 62
     7
 10
149.9015257633
 20
129.6240699084
 30
0.0
 11
144.2446715138
 21
126.7956427837
 31
0.0
  0
LINE
  5
5B
  8
0
  6
CONTINUOUS
 62
     7
 10
132.0888898435
 20
90.0494755155
 30
0.0
 11
135.9752953065
 21
91.992678247
 31
0.0
  0
LINE
  5
5C
  8
0
  6
CONTINUOUS
 62
     7
 10
124.1624265315
 20
111.6549284165
 30
0.0
 11
121.5540897687
 21
110.3507600351
 31
0.0
  0
LINE
  5
5D
  8
0
  6
CONTINUOUS
 62
     7
 10
127.9705175158
 20
97.9597717027
 30
0.0
 11
129.1895366697
 21
98.5692812796
 31
0.0
  0
ARC
  5
5E
  8
0
  6
CONTINUOUS
 62
     7
 10
100.9285049293
 20
82.0804170736
 30
0.0
 40
1.592823120007951
 50
302.4481728713
 51
6.1613396446
  0
POLYLINE
  5
5F
  8
0
  6
CONTINUOUS
 62
     7
 66
     1
 10
0.0
 20
0.0
 30
0.0
  0
VERTEX
  5
19C
  8
0
  6
CONTINUOUS
 62
     7
 10
100.2031915432
 20
84.0023187642
 30
0.0
  0
VERTEX
  5
19D
  8
0
  6
CONTINUOUS
 62
     7
 10
100.1300133144
 20
83.3719822406
 30
0.0
  0
VERTEX
  5
19E
  8
0
  6
CONTINUOUS
 62
     7
 10
100.1180868708
 20
83.1137105263
 30
0.0
  0
SEQEND
  5
422
  8
0
  6
CONTINUOUS
 62
     7
  0
POLYLINE
  5
60
  8
0
  6
CONTINUOUS
 62
     7
 66
     1
 10
0.0
 20
0.0
 30
0.0
  0
VERTEX
  5
19F
  8
0
  6
CONTINUOUS
 62
     7
 10
100.2031915432
 20
84.0023187642
 30
0.0
  0
VERTEX
  5
1A0
  8
0
  6
CONTINUOUS
 62
     7
 10
99.6840762841
 20
84.2600946875
 30
0.0
  0
VERTEX
  5
1A1
  8
0
  6
CONTINUOUS
 62
     7
 10
99.496084762
 20
84.3558721548
 30
0.0
  0
SEQEND
  5
421
  8
0
  6
CONTINUOUS
 62
     7
  0
POLYLINE
  5
61
  8
0
  6
CONTINUOUS
 62
     7
 66
     1
 10
0.0
 20
0.0
 30
0.0
  0
VERTEX
  5
1A2
  8
0
  6
CONTINUOUS
 62
     7
 10
99.496084762
 20
84.3558721548
 30
0.0
  0
VERTEX
  5
1A3
  8
0
  6
CONTINUOUS
 62
     7
 10
99.4229065332
 20
83.7255356312
 30
0.0
  0
VERTEX
  5
1A4
  8
0
  6
CONTINUOUS
 62
     7
 10
99.4109800896
 20
83.4672639169
 30
0.0
  0
SEQEND
  5
420
  8
0
  6
CONTINUOUS
 62
     7
  0
LINE
  5
62
  8
0
  6
CONTINUOUS
 62
     7
 10
99.4109800896
 20
83.4672639169
 30
0.0
 11
98.805283011
 21
83.8552171286
 31
0.0
  0
ARC
  5
63
  8
0
  6
CONTINUOUS
 62
     7
 10
103.4467474277
 20
83.4222044267
 30
0.0
 40
4.661619024706035
 50
174.6701741728
 51
185.3298258277
  0
LINE
  5
64
  8
0
  6
CONTINUOUS
 62
     7
 10
99.4109800896
 20
82.6012385131
 30
0.0
 11
98.805283011
 21
82.9891917248
 31
0.0
  0
LINE
  5
65
  8
0
  6
CONTINUOUS
 62
     7
 10
99.4109800896
 20
82.6012385131
 30
0.0
 11
99.496084762
 21
81.7977349476
 31
0.0
  0
ARC
  5
66
  8
0
  6
CONTINUOUS
 62
     7
 10
101.6381934534
 20
85.1980688539
 30
0.0
 40
4.018818274089026
 50
237.7902986774
 51
249.079598968
  0
LINE
  5
67
  8
0
  6
CONTINUOUS
 62
     7
 10
100.1180868708
 20
82.2476851225
 30
0.0
 11
100.2031915432
 21
81.444181557
 31
0.0
  0
POLYLINE
  5
68
  8
0
  6
CONTINUOUS
 62
     7
 66
     1
 10
0.0
 20
0.0
 30
0.0
  0
VERTEX
  5
1A5
  8
0
  6
CONTINUOUS
 62
     7
 10
100.8939932942
 20
81.9448365832
 30
0.0
  0
VERTEX
  5
1A6
  8
0
  6
CONTINUOUS
 62
     7
 10
100.3360223359
 20
82.1506438336
 30
0.0
  0
VERTEX
  5
1A7
  8
0
  6
CONTINUOUS
 62
     7
 10
100.1180868708
 20
82.2476851225
 30
0.0
  0
SEQEND
  5
41F
  8
0
  6
CONTINUOUS
 62
     7
  0
POLYLINE
  5
69
  8
0
  6
CONTINUOUS
 62
     7
 66
     1
 10
0.0
 20
0.0
 30
0.0
  0
VERTEX
  5
1A8
  8
0
  6
CONTINUOUS
 62
     7
 10
100.8939932942
 20
81.9448365832
 30
0.0
  0
VERTEX
  5
1A9
  8
0
  6
CONTINUOUS
 62
     7
 10
100.8907568309
 20
82.560637651
 30
0.0
  0
VERTEX
  5
1AA
  8
0
  6
CONTINUOUS
 62
     7
 10
100.8939932942
 20
82.810861987
 30
0.0
  0
SEQEND
  5
41E
  8
0
  6
CONTINUOUS
 62
     7
  0
POLYLINE
  5
6A
  8
0
  6
CONTINUOUS
 62
     7
 66
     1
 10
0.0
 20
0.0
 30
0.0
  0
VERTEX
  5
1AB
  8
0
  6
CONTINUOUS
 62
     7
 10
100.8939932942
 20
82.810861987
 30
0.0
  0
VERTEX
  5
1AC
  8
0
  6
CONTINUOUS
 62
     7
 10
100.3360223359
 20
83.0166692374
 30
0.0
  0
VERTEX
  5
1AD
  8
0
  6
CONTINUOUS
 62
     7
 10
100.1180868708
 20
83.1137105263
 30
0.0
  0
SEQEND
  5
41D
  8
0
  6
CONTINUOUS
 62
     7
  0
LINE
  5
6B
  8
0
  6
CONTINUOUS
 62
     7
 10
100.1180868708
 20
82.2476851225
 30
0.0
 11
100.8917121559
 21
82.6344977651
 31
0.0
  0
POLYLINE
  5
6C
  8
0
  6
CONTINUOUS
 62
     7
 66
     1
 10
0.0
 20
0.0
 30
0.0
  0
VERTEX
  5
1AE
  8
0
  6
CONTINUOUS
 62
     7
 10
104.6688620585
 20
84.2843339761
 30
0.0
  0
VERTEX
  5
1AF
  8
0
  6
CONTINUOUS
 62
     7
 10
104.6273300086
 20
84.6588819505
 30
0.0
  0
VERTEX
  5
1B0
  8
0
  6
CONTINUOUS
 62
     7
 10
104.5060985385
 20
85.0446183254
 30
0.0
  0
VERTEX
  5
1B1
  8
0
  6
CONTINUOUS
 62
     7
 10
104.314989101
 20
85.4102930338
 30
0.0
  0
VERTEX
  5
1B2
  8
0
  6
CONTINUOUS
 62
     7
 10
104.0694842462
 20
85.7262812856
 30
0.0
  0
VERTEX
  5
1B3
  8
0
  6
CONTINUOUS
 62
     7
 10
103.7894733172
 20
85.9669835919
 30
0.0
  0
VERTEX
  5
1B4
  8
0
  6
CONTINUOUS
 62
     7
 10
103.4976411343
 20
86.1128996833
 30
0.0
  0
VERTEX
  5
1B5
  8
0
  6
CONTINUOUS
 62
     7
 10
103.2176302053
 20
86.152208306
 30
0.0
  0
VERTEX
  5
1B6
  8
0
  6
CONTINUOUS
 62
     7
 10
102.9950975123
 20
86.0939058194
 30
0.0
  0
SEQEND
  5
41C
  8
0
  6
CONTINUOUS
 62
     7
  0
ARC
  5
6D
  8
0
  6
CONTINUOUS
 62
     7
 10
103.8824999146
 20
84.1795141164
 30
0.0
 40
0.793317480185691
 50
301.0782500505
 51
7.5926083542
  0
LINE
  5
6E
  8
0
  6
CONTINUOUS
 62
     7
 10
99.4109800896
 20
83.4672639169
 30
0.0
 11
100.1860663308
 21
83.8548070375
 31
0.0
  0
LINE
  5
6F
  8
0
  6
CONTINUOUS
 62
     7
 10
99.496084762
 20
81.7977349476
 30
0.0
 11
100.4031654312
 21
82.9919035473
 31
0.0
  0
LINE
  5
70
  8
0
  6
CONTINUOUS
 62
     7
 10
98.805283011
 20
82.9891917248
 30
0.0
 11
100.1184005551
 21
83.1205034792
 31
0.0
  0
LINE
  5
71
  8
0
  6
CONTINUOUS
 62
     7
 10
99.4109800896
 20
82.6012385131
 30
0.0
 11
100.2862057409
 21
83.0388513388
 31
0.0
  0
POLYLINE
  5
72
  8
0
  6
CONTINUOUS
 62
     7
 66
     1
 10
0.0
 20
0.0
 30
0.0
  0
VERTEX
  5
1B7
  8
0
  6
CONTINUOUS
 62
     7
 10
105.4183952465
 20
85.6773343351
 30
0.0
  0
VERTEX
  5
1B8
  8
0
  6
CONTINUOUS
 62
     7
 10
105.4178569935
 20
85.6742893258
 30
0.0
  0
VERTEX
  5
1B9
  8
0
  6
CONTINUOUS
 62
     7
 10
105.4177702751
 20
85.6740870788
 30
0.0
  0
SEQEND
  5
41B
  8
0
  6
CONTINUOUS
 62
     7
  0
ARC
  5
73
  8
0
  6
CONTINUOUS
 62
     7
 10
105.405014554
 20
85.677585092
 30
0.0
 40
0.0133830419517033
 50
358.9263909724
 51
69.2062325238
  0
ARC
  5
74
  8
0
  6
CONTINUOUS
 62
     7
 10
88.2005828679
 20
88.4443781043
 30
0.0
 40
1.59282312000797
 50
302.4481728713
 51
6.1613396446
  0
POLYLINE
  5
75
  8
0
  6
CONTINUOUS
 62
     7
 66
     1
 10
0.0
 20
0.0
 30
0.0
  0
VERTEX
  5
1BA
  8
0
  6
CONTINUOUS
 62
     7
 10
87.4752694819
 20
90.3662797949
 30
0.0
  0
VERTEX
  5
1BB
  8
0
  6
CONTINUOUS
 62
     7
 10
87.4020912531
 20
89.7359432713
 30
0.0
  0
VERTEX
  5
1BC
  8
0
  6
CONTINUOUS
 62
     7
 10
87.3901648094
 20
89.477671557
 30
0.0
  0
SEQEND
  5
41A
  8
0
  6
CONTINUOUS
 62
     7
  0
POLYLINE
  5
76
  8
0
  6
CONTINUOUS
 62
     7
 66
     1
 10
0.0
 20
0.0
 30
0.0
  0
VERTEX
  5
1BD
  8
0
  6
CONTINUOUS
 62
     7
 10
87.4752694819
 20
90.3662797949
 30
0.0
  0
VERTEX
  5
1BE
  8
0
  6
CONTINUOUS
 62
     7
 10
86.9561542227
 20
90.6240557182
 30
0.0
  0
VERTEX
  5
1BF
  8
0
  6
CONTINUOUS
 62
     7
 10
86.7681627007
 20
90.7198331855
 30
0.0
  0
SEQEND
  5
419
  8
0
  6
CONTINUOUS
 62
     7
  0
POLYLINE
  5
77
  8
0
  6
CONTINUOUS
 62
     7
 66
     1
 10
0.0
 20
0.0
 30
0.0
  0
VERTEX
  5
1C0
  8
0
  6
CONTINUOUS
 62
     7
 10
86.7681627007
 20
90.7198331855
 30
0.0
  0
VERTEX
  5
1C1
  8
0
  6
CONTINUOUS
 62
     7
 10
86.6949844719
 20
90.0894966619
 30
0.0
  0
VERTEX
  5
1C2
  8
0
  6
CONTINUOUS
 62
     7
 10
86.6830580283
 20
89.8312249476
 30
0.0
  0
SEQEND
  5
418
  8
0
  6
CONTINUOUS
 62
     7
  0
LINE
  5
78
  8
0
  6
CONTINUOUS
 62
     7
 10
86.6830580283
 20
89.8312249476
 30
0.0
 11
86.0773609497
 21
90.2191781593
 31
0.0
  0
ARC
  5
79
  8
0
  6
CONTINUOUS
 62
     7
 10
90.7188253664
 20
89.7861654574
 30
0.0
 40
4.661619024708957
 50
174.6701741728
 51
185.3298258277
  0
LINE
  5
7A
  8
0
  6
CONTINUOUS
 62
     7
 10
86.6830580283
 20
88.9651995438
 30
0.0
 11
86.0773609497
 21
89.3531527555
 31
0.0
  0
LINE
  5
7B
  8
0
  6
CONTINUOUS
 62
     7
 10
86.6830580283
 20
88.9651995438
 30
0.0
 11
86.7681627007
 21
88.1616959783
 31
0.0
  0
ARC
  5
7C
  8
0
  6
CONTINUOUS
 62
     7
 10
88.9102713921
 20
91.5620298846
 30
0.0
 40
4.018818274088272
 50
237.7902986774
 51
249.079598968
  0
LINE
  5
7D
  8
0
  6
CONTINUOUS
 62
     7
 10
87.3901648094
 20
88.6116461532
 30
0.0
 11
87.4752694819
 21
87.8081425877
 31
0.0
  0
POLYLINE
  5
7E
  8
0
  6
CONTINUOUS
 62
     7
 66
     1
 10
0.0
 20
0.0
 30
0.0
  0
VERTEX
  5
1C3
  8
0
  6
CONTINUOUS
 62
     7
 10
88.1660712329
 20
88.3087976139
 30
0.0
  0
VERTEX
  5
1C4
  8
0
  6
CONTINUOUS
 62
     7
 10
87.6081002745
 20
88.5146048643
 30
0.0
  0
VERTEX
  5
1C5
  8
0
  6
CONTINUOUS
 62
     7
 10
87.3901648094
 20
88.6116461532
 30
0.0
  0
SEQEND
  5
417
  8
0
  6
CONTINUOUS
 62
     7
  0
POLYLINE
  5
7F
  8
0
  6
CONTINUOUS
 62
     7
 66
     1
 10
0.0
 20
0.0
 30
0.0
  0
VERTEX
  5
1C6
  8
0
  6
CONTINUOUS
 62
     7
 10
88.1660712329
 20
88.3087976139
 30
0.0
  0
VERTEX
  5
1C7
  8
0
  6
CONTINUOUS
 62
     7
 10
88.1628347696
 20
88.9245986817
 30
0.0
  0
VERTEX
  5
1C8
  8
0
  6
CONTINUOUS
 62
     7
 10
88.1660712329
 20
89.1748230177
 30
0.0
  0
SEQEND
  5
416
  8
0
  6
CONTINUOUS
 62
     7
  0
POLYLINE
  5
80
  8
0
  6
CONTINUOUS
 62
     7
 66
     1
 10
0.0
 20
0.0
 30
0.0
  0
VERTEX
  5
1C9
  8
0
  6
CONTINUOUS
 62
     7
 10
88.1660712329
 20
89.1748230177
 30
0.0
  0
VERTEX
  5
1CA
  8
0
  6
CONTINUOUS
 62
     7
 10
87.6081002745
 20
89.3806302681
 30
0.0
  0
VERTEX
  5
1CB
  8
0
  6
CONTINUOUS
 62
     7
 10
87.3901648094
 20
89.477671557
 30
0.0
  0
SEQEND
  5
415
  8
0
  6
CONTINUOUS
 62
     7
  0
LINE
  5
81
  8
0
  6
CONTINUOUS
 62
     7
 10
87.3901648094
 20
88.6116461532
 30
0.0
 11
88.1637900945
 21
88.9984587957
 31
0.0
  0
POLYLINE
  5
82
  8
0
  6
CONTINUOUS
 62
     7
 66
     1
 10
0.0
 20
0.0
 30
0.0
  0
VERTEX
  5
1CC
  8
0
  6
CONTINUOUS
 62
     7
 10
91.9409399971
 20
90.6482950068
 30
0.0
  0
VERTEX
  5
1CD
  8
0
  6
CONTINUOUS
 62
     7
 10
91.8994079472
 20
91.0228429811
 30
0.0
  0
VERTEX
  5
1CE
  8
0
  6
CONTINUOUS
 62
     7
 10
91.7781764771
 20
91.408579356
 30
0.0
  0
VERTEX
  5
1CF
  8
0
  6
CONTINUOUS
 62
     7
 10
91.5870670397
 20
91.7742540644
 30
0.0
  0
VERTEX
  5
1D0
  8
0
  6
CONTINUOUS
 62
     7
 10
91.3415621848
 20
92.0902423163
 30
0.0
  0
VERTEX
  5
1D1
  8
0
  6
CONTINUOUS
 62
     7
 10
91.0615512558
 20
92.3309446226
 30
0.0
  0
VERTEX
  5
1D2
  8
0
  6
CONTINUOUS
 62
     7
 10
90.7697190729
 20
92.476860714
 30
0.0
  0
VERTEX
  5
1D3
  8
0
  6
CONTINUOUS
 62
     7
 10
90.489708144
 20
92.5161693367
 30
0.0
  0
VERTEX
  5
1D4
  8
0
  6
CONTINUOUS
 62
     7
 10
90.2671754509
 20
92.4578668501
 30
0.0
  0
SEQEND
  5
414
  8
0
  6
CONTINUOUS
 62
     7
  0
ARC
  5
83
  8
0
  6
CONTINUOUS
 62
     7
 10
91.1545778532
 20
90.5434751471
 30
0.0
 40
0.7933174801855858
 50
301.0782500505
 51
7.5926083542
  0
LINE
  5
84
  8
0
  6
CONTINUOUS
 62
     7
 10
86.6830580283
 20
89.8312249476
 30
0.0
 11
87.4581442694
 21
90.2187680682
 31
0.0
  0
LINE
  5
85
  8
0
  6
CONTINUOUS
 62
     7
 10
86.7681627007
 20
88.1616959783
 30
0.0
 11
87.6752433699
 21
89.355864578
 31
0.0
  0
LINE
  5
86
  8
0
  6
CONTINUOUS
 62
     7
 10
86.0773609497
 20
89.3531527555
 30
0.0
 11
87.3904784937
 21
89.4844645099
 31
0.0
  0
LINE
  5
87
  8
0
  6
CONTINUOUS
 62
     7
 10
86.6830580283
 20
88.9651995438
 30
0.0
 11
87.5582836796
 21
89.4028123695
 31
0.0
  0
POLYLINE
  5
88
  8
0
  6
CONTINUOUS
 62
     7
 66
     1
 10
0.0
 20
0.0
 30
0.0
  0
VERTEX
  5
1D5
  8
0
  6
CONTINUOUS
 62
     7
 10
92.6904731852
 20
92.0412953657
 30
0.0
  0
VERTEX
  5
1D6
  8
0
  6
CONTINUOUS
 62
     7
 10
92.6899349322
 20
92.0382503565
 30
0.0
  0
VERTEX
  5
1D7
  8
0
  6
CONTINUOUS
 62
     7
 10
92.6898482137
 20
92.0380481095
 30
0.0
  0
SEQEND
  5
413
  8
0
  6
CONTINUOUS
 62
     7
  0
ARC
  5
89
  8
0
  6
CONTINUOUS
 62
     7
 10
92.6770924926
 20
92.0415461227
 30
0.0
 40
0.0133830419517278
 50
358.9263909725
 51
69.2062325238
  0
ARC
  5
8A
  8
0
  6
CONTINUOUS
 62
     7
 10
113.1456597997
 20
92.8913802056
 30
0.0
 40
3.309994708349147
 50
301.3876322266
 51
7.2832261781
  0
POLYLINE
  5
8B
  8
0
  6
CONTINUOUS
 62
     7
 66
     1
 10
0.0
 20
0.0
 30
0.0
  0
VERTEX
  5
1D8
  8
0
  6
CONTINUOUS
 62
     7
 10
109.5030258844
 20
100.798885685
 30
0.0
  0
VERTEX
  5
1D9
  8
0
  6
CONTINUOUS
 62
     7
 10
109.7396600593
 20
100.9007463269
 30
0.0
  0
VERTEX
  5
1DA
  8
0
  6
CONTINUOUS
 62
     7
 10
110.2344168096
 20
101.0218547916
 30
0.0
  0
VERTEX
  5
1DB
  8
0
  6
CONTINUOUS
 62
     7
 10
110.7655335895
 20
101.0388408462
 30
0.0
  0
VERTEX
  5
1DC
  8
0
  6
CONTINUOUS
 62
     7
 10
111.3231166984
 20
100.9513880727
 30
0.0
  0
VERTEX
  5
1DD
  8
0
  6
CONTINUOUS
 62
     7
 10
111.8967794178
 20
100.7611255508
 30
0.0
  0
VERTEX
  5
1DE
  8
0
  6
CONTINUOUS
 62
     7
 10
112.4758354969
 20
100.4715975113
 30
0.0
  0
VERTEX
  5
1DF
  8
0
  6
CONTINUOUS
 62
     7
 10
113.0494982164
 20
100.0881973137
 30
0.0
  0
VERTEX
  5
1E0
  8
0
  6
CONTINUOUS
 62
     7
 10
113.6070813253
 20
99.6180669783
 30
0.0
  0
VERTEX
  5
1E1
  8
0
  6
CONTINUOUS
 62
     7
 10
114.1381981052
 20
99.0699641438
 30
0.0
  0
VERTEX
  5
1E2
  8
0
  6
CONTINUOUS
 62
     7
 10
114.6329548554
 20
98.4540989288
 30
0.0
  0
VERTEX
  5
1E3
  8
0
  6
CONTINUOUS
 62
     7
 10
115.0821351939
 20
97.7819437371
 30
0.0
  0
VERTEX
  5
1E4
  8
0
  6
CONTINUOUS
 62
     7
 10
115.4773717408
 20
97.0660195481
 30
0.0
  0
VERTEX
  5
1E5
  8
0
  6
CONTINUOUS
 62
     7
 10
115.811301987
 20
96.319662675
 30
0.0
  0
VERTEX
  5
1E6
  8
0
  6
CONTINUOUS
 62
     7
 10
116.0777054438
 20
95.556776334
 30
0.0
  0
VERTEX
  5
1E7
  8
0
  6
CONTINUOUS
 62
     7
 10
116.271619519
 20
94.7915716542
 30
0.0
  0
VERTEX
  5
1E8
  8
0
  6
CONTINUOUS
 62
     7
 10
116.3894319602
 20
94.0383029512
 30
0.0
  0
VERTEX
  5
1E9
  8
0
  6
CONTINUOUS
 62
     7
 10
116.4289481445
 20
93.3110021954
 30
0.0
  0
SEQEND
  5
412
  8
0
  6
CONTINUOUS
 62
     7
  0
POLYLINE
  5
8C
  8
0
  6
CONTINUOUS
 62
     7
 66
     1
 10
0.0
 20
0.0
 30
0.0
  0
VERTEX
  5
1EA
  8
0
  6
CONTINUOUS
 62
     7
 10
120.6715888316
 20
91.1896818519
 30
0.0
  0
VERTEX
  5
1EB
  8
0
  6
CONTINUOUS
 62
     7
 10
120.6331668206
 20
90.221041478
 30
0.0
  0
VERTEX
  5
1EC
  8
0
  6
CONTINUOUS
 62
     7
 10
120.5182487431
 20
89.2995952724
 30
0.0
  0
VERTEX
  5
1ED
  8
0
  6
CONTINUOUS
 62
     7
 10
120.3278753151
 20
88.4336879945
 30
0.0
  0
VERTEX
  5
1EE
  8
0
  6
CONTINUOUS
 62
     7
 10
120.0637705878
 20
87.6311614349
 30
0.0
  0
VERTEX
  5
1EF
  8
0
  6
CONTINUOUS
 62
     7
 10
119.7283263346
 20
86.8992833983
 30
0.0
  0
VERTEX
  5
1F0
  8
0
  6
CONTINUOUS
 62
     7
 10
119.3245803905
 20
86.2446818855
 30
0.0
  0
VERTEX
  5
1F1
  8
0
  6
CONTINUOUS
 62
     7
 10
118.8561891414
 20
85.6732850692
 30
0.0
  0
VERTEX
  5
1F2
  8
0
  6
CONTINUOUS
 62
     7
 10
118.3273944108
 20
85.1902676075
 30
0.0
  0
VERTEX
  5
1F3
  8
0
  6
CONTINUOUS
 62
     7
 10
117.7429850458
 20
84.8000037813
 30
0.0
  0
VERTEX
  5
1F4
  8
0
  6
CONTINUOUS
 62
     7
 10
117.1082535482
 20
84.5060278801
 30
0.0
  0
VERTEX
  5
1F5
  8
0
  6
CONTINUOUS
 62
     7
 10
116.4289481445
 20
84.3110021954
 30
0.0
  0
VERTEX
  5
1F6
  8
0
  6
CONTINUOUS
 62
     7
 10
115.7112207298
 20
84.2166929099
 30
0.0
  0
VERTEX
  5
1F7
  8
0
  6
CONTINUOUS
 62
     7
 10
114.9615711546
 20
84.2239541031
 30
0.0
  0
VERTEX
  5
1F8
  8
0
  6
CONTINUOUS
 62
     7
 10
114.1867883617
 20
84.3327200165
 30
0.0
  0
VERTEX
  5
1F9
  8
0
  6
CONTINUOUS
 62
     7
 10
113.3938889038
 20
84.5420056492
 30
0.0
  0
VERTEX
  5
1FA
  8
0
  6
CONTINUOUS
 62
     7
 10
112.5900534015
 20
84.849915678
 30
0.0
  0
VERTEX
  5
1FB
  8
0
  6
CONTINUOUS
 62
     7
 10
111.7825615133
 20
85.2536616221
 30
0.0
  0
VERTEX
  5
1FC
  8
0
  6
CONTINUOUS
 62
     7
 10
110.9787260109
 20
85.7495870957
 30
0.0
  0
VERTEX
  5
1FD
  8
0
  6
CONTINUOUS
 62
     7
 10
110.1858265531
 20
86.3332009208
 30
0.0
  0
VERTEX
  5
1FE
  8
0
  6
CONTINUOUS
 62
     7
 10
109.4110437601
 20
86.9992178004
 30
0.0
  0
VERTEX
  5
1FF
  8
0
  6
CONTINUOUS
 62
     7
 10
108.661394185
 20
87.7416061823
 30
0.0
  0
VERTEX
  5
200
  8
0
  6
CONTINUOUS
 62
     7
 10
108.544435554
 20
87.8668239408
 30
0.0
  0
SEQEND
  5
411
  8
0
  6
CONTINUOUS
 62
     7
  0
POLYLINE
  5
8D
  8
0
  6
CONTINUOUS
 62
     7
 66
     1
 10
0.0
 20
0.0
 30
0.0
  0
VERTEX
  5
201
  8
0
  6
CONTINUOUS
 62
     7
 10
103.9487854368
 20
97.0581241752
 30
0.0
  0
VERTEX
  5
202
  8
0
  6
CONTINUOUS
 62
     7
 10
103.8543661717
 20
97.6315365581
 30
0.0
  0
VERTEX
  5
203
  8
0
  6
CONTINUOUS
 62
     7
 10
103.7394480942
 20
98.6679008412
 30
0.0
  0
VERTEX
  5
204
  8
0
  6
CONTINUOUS
 62
     7
 10
103.7010260831
 20
99.6749632261
 30
0.0
  0
VERTEX
  5
205
  8
0
  6
CONTINUOUS
 62
     7
 10
103.7394480942
 20
100.6436036
 30
0.0
  0
VERTEX
  5
206
  8
0
  6
CONTINUOUS
 62
     7
 10
103.8543661717
 20
101.5650498056
 30
0.0
  0
VERTEX
  5
207
  8
0
  6
CONTINUOUS
 62
     7
 10
104.0447395996
 20
102.4309570834
 30
0.0
  0
VERTEX
  5
208
  8
0
  6
CONTINUOUS
 62
     7
 10
104.3088443269
 20
103.233483643
 30
0.0
  0
VERTEX
  5
209
  8
0
  6
CONTINUOUS
 62
     7
 10
104.6442885801
 20
103.9653616796
 30
0.0
  0
VERTEX
  5
20A
  8
0
  6
CONTINUOUS
 62
     7
 10
105.0480345242
 20
104.6199631924
 30
0.0
  0
VERTEX
  5
20B
  8
0
  6
CONTINUOUS
 62
     7
 10
105.5164257734
 20
105.1913600087
 30
0.0
  0
VERTEX
  5
20C
  8
0
  6
CONTINUOUS
 62
     7
 10
106.0452205039
 20
105.6743774704
 30
0.0
  0
VERTEX
  5
20D
  8
0
  6
CONTINUOUS
 62
     7
 10
106.6296298689
 20
106.0646412967
 30
0.0
  0
VERTEX
  5
20E
  8
0
  6
CONTINUOUS
 62
     7
 10
107.2643613666
 20
106.3586171978
 30
0.0
  0
VERTEX
  5
20F
  8
0
  6
CONTINUOUS
 62
     7
 10
107.9436667703
 20
106.5536428825
 30
0.0
  0
VERTEX
  5
210
  8
0
  6
CONTINUOUS
 62
     7
 10
108.661394185
 20
106.647952168
 30
0.0
  0
VERTEX
  5
211
  8
0
  6
CONTINUOUS
 62
     7
 10
109.4110437601
 20
106.6406909748
 30
0.0
  0
VERTEX
  5
212
  8
0
  6
CONTINUOUS
 62
     7
 10
110.1858265531
 20
106.5319250614
 30
0.0
  0
VERTEX
  5
213
  8
0
  6
CONTINUOUS
 62
     7
 10
110.9787260109
 20
106.3226394288
 30
0.0
  0
VERTEX
  5
214
  8
0
  6
CONTINUOUS
 62
     7
 10
111.7825615133
 20
106.0147293999
 30
0.0
  0
VERTEX
  5
215
  8
0
  6
CONTINUOUS
 62
     7
 10
112.5900534015
 20
105.6109834558
 30
0.0
  0
VERTEX
  5
216
  8
0
  6
CONTINUOUS
 62
     7
 10
113.3938889038
 20
105.1150579823
 30
0.0
  0
VERTEX
  5
217
  8
0
  6
CONTINUOUS
 62
     7
 10
114.1867883617
 20
104.5314441571
 30
0.0
  0
VERTEX
  5
218
  8
0
  6
CONTINUOUS
 62
     7
 10
114.9615711546
 20
103.8654272776
 30
0.0
  0
VERTEX
  5
219
  8
0
  6
CONTINUOUS
 62
     7
 10
115.7112207298
 20
103.1230388956
 30
0.0
  0
VERTEX
  5
21A
  8
0
  6
CONTINUOUS
 62
     7
 10
116.4289481445
 20
102.3110021954
 30
0.0
  0
VERTEX
  5
21B
  8
0
  6
CONTINUOUS
 62
     7
 10
117.1082535482
 20
101.436671107
 30
0.0
  0
VERTEX
  5
21C
  8
0
  6
CONTINUOUS
 62
     7
 10
117.7429850458
 20
100.5079637082
 30
0.0
  0
VERTEX
  5
21D
  8
0
  6
CONTINUOUS
 62
     7
 10
118.3273944108
 20
99.533290517
 30
0.0
  0
VERTEX
  5
21E
  8
0
  6
CONTINUOUS
 62
     7
 10
118.8561891414
 20
98.5214783247
 30
0.0
  0
VERTEX
  5
21F
  8
0
  6
CONTINUOUS
 62
     7
 10
119.3245803905
 20
97.4816902593
 30
0.0
  0
VERTEX
  5
220
  8
0
  6
CONTINUOUS
 62
     7
 10
119.7283263346
 20
96.4233428024
 30
0.0
  0
VERTEX
  5
221
  8
0
  6
CONTINUOUS
 62
     7
 10
120.0637705878
 20
95.3560205126
 30
0.0
  0
VERTEX
  5
222
  8
0
  6
CONTINUOUS
 62
     7
 10
120.3278753151
 20
94.2893892257
 30
0.0
  0
VERTEX
  5
223
  8
0
  6
CONTINUOUS
 62
     7
 10
120.5182487431
 20
93.2331085199
 30
0.0
  0
VERTEX
  5
224
  8
0
  6
CONTINUOUS
 62
     7
 10
120.6331668206
 20
92.1967442368
 30
0.0
  0
VERTEX
  5
225
  8
0
  6
CONTINUOUS
 62
     7
 10
120.6715888316
 20
91.1896818519
 30
0.0
  0
VERTEX
  5
226
  8
0
  6
CONTINUOUS
 62
     7
 10
120.6715888316
 20
91.1896818519
 30
0.0
  0
SEQEND
  5
410
  8
0
  6
CONTINUOUS
 62
     7
  0
POLYLINE
  5
8E
  8
0
  6
CONTINUOUS
 62
     7
 66
     1
 10
0.0
 20
0.0
 30
0.0
  0
VERTEX
  5
227
  8
0
  6
CONTINUOUS
 62
     7
 10
104.868983136
 20
98.4287742694
 30
0.0
  0
VERTEX
  5
228
  8
0
  6
CONTINUOUS
 62
     7
 10
104.8170686135
 20
98.5821524906
 30
0.0
  0
VERTEX
  5
229
  8
0
  6
CONTINUOUS
 62
     7
 10
104.7365392635
 20
98.9744247812
 30
0.0
  0
VERTEX
  5
22A
  8
0
  6
CONTINUOUS
 62
     7
 10
104.7365392635
 20
99.3399884907
 30
0.0
  0
VERTEX
  5
22B
  8
0
  6
CONTINUOUS
 62
     7
 10
104.8170686135
 20
99.6517314312
 30
0.0
  0
VERTEX
  5
22C
  8
0
  6
CONTINUOUS
 62
     7
 10
104.9721548201
 20
99.8865330549
 30
0.0
  0
VERTEX
  5
22D
  8
0
  6
CONTINUOUS
 62
     7
 10
105.1902958489
 20
100.0269791995
 30
0.0
  0
VERTEX
  5
22E
  8
0
  6
CONTINUOUS
 62
     7
 10
105.4553131775
 20
100.062653617
 30
0.0
  0
VERTEX
  5
22F
  8
0
  6
CONTINUOUS
 62
     7
 10
105.7475516831
 20
99.990910499
 30
0.0
  0
VERTEX
  5
230
  8
0
  6
CONTINUOUS
 62
     7
 10
106.0453373728
 20
99.8170707045
 30
0.0
  0
VERTEX
  5
231
  8
0
  6
CONTINUOUS
 62
     7
 10
106.326584844
 20
99.5540271356
 30
0.0
  0
VERTEX
  5
232
  8
0
  6
CONTINUOUS
 62
     7
 10
106.5167004891
 20
99.3057229873
 30
0.0
  0
SEQEND
  5
40F
  8
0
  6
CONTINUOUS
 62
     7
  0
POLYLINE
  5
8F
  8
0
  6
CONTINUOUS
 62
     7
 66
     1
 10
0.0
 20
0.0
 30
0.0
  0
VERTEX
  5
233
  8
0
  6
CONTINUOUS
 62
     7
 10
119.6462839989
 20
91.7023342682
 30
0.0
  0
VERTEX
  5
234
  8
0
  6
CONTINUOUS
 62
     7
 10
119.6056407706
 20
91.3604970529
 30
0.0
  0
VERTEX
  5
235
  8
0
  6
CONTINUOUS
 62
     7
 10
119.4867254082
 20
91.0846555684
 30
0.0
  0
VERTEX
  5
236
  8
0
  6
CONTINUOUS
 62
     7
 10
119.29835732
 20
90.8952677155
 30
0.0
  0
VERTEX
  5
237
  8
0
  6
CONTINUOUS
 62
     7
 10
119.0545069054
 20
90.8063795251
 30
0.0
  0
VERTEX
  5
238
  8
0
  6
CONTINUOUS
 62
     7
 10
118.7732594341
 20
90.8245834274
 30
0.0
  0
VERTEX
  5
239
  8
0
  6
CONTINUOUS
 62
     7
 10
118.4754737445
 20
90.9485293225
 30
0.0
  0
VERTEX
  5
23A
  8
0
  6
CONTINUOUS
 62
     7
 10
118.1832352388
 20
91.1690247101
 30
0.0
  0
VERTEX
  5
23B
  8
0
  6
CONTINUOUS
 62
     7
 10
117.9182179102
 20
91.4697164563
 30
0.0
  0
VERTEX
  5
23C
  8
0
  6
CONTINUOUS
 62
     7
 10
117.7000768815
 20
91.8283036296
 30
0.0
  0
VERTEX
  5
23D
  8
0
  6
CONTINUOUS
 62
     7
 10
117.5449906749
 20
92.2181914599
 30
0.0
  0
VERTEX
  5
23E
  8
0
  6
CONTINUOUS
 62
     7
 10
117.4644613248
 20
92.6104637505
 30
0.0
  0
VERTEX
  5
23F
  8
0
  6
CONTINUOUS
 62
     7
 10
117.4644613248
 20
92.97602746
 30
0.0
  0
VERTEX
  5
240
  8
0
  6
CONTINUOUS
 62
     7
 10
117.5449906749
 20
93.2877704005
 30
0.0
  0
VERTEX
  5
241
  8
0
  6
CONTINUOUS
 62
     7
 10
117.7000768815
 20
93.5225720242
 30
0.0
  0
VERTEX
  5
242
  8
0
  6
CONTINUOUS
 62
     7
 10
117.9182179102
 20
93.6630181688
 30
0.0
  0
VERTEX
  5
243
  8
0
  6
CONTINUOUS
 62
     7
 10
118.1832352388
 20
93.6986925863
 30
0.0
  0
VERTEX
  5
244
  8
0
  6
CONTINUOUS
 62
     7
 10
118.4754737445
 20
93.6269494684
 30
0.0
  0
VERTEX
  5
245
  8
0
  6
CONTINUOUS
 62
     7
 10
118.7732594341
 20
93.4531096738
 30
0.0
  0
VERTEX
  5
246
  8
0
  6
CONTINUOUS
 62
     7
 10
119.0545069054
 20
93.1900661049
 30
0.0
  0
VERTEX
  5
247
  8
0
  6
CONTINUOUS
 62
     7
 10
119.29835732
 20
92.8573274998
 30
0.0
  0
VERTEX
  5
248
  8
0
  6
CONTINUOUS
 62
     7
 10
119.4867254082
 20
92.4795715588
 30
0.0
  0
VERTEX
  5
249
  8
0
  6
CONTINUOUS
 62
     7
 10
119.6056407706
 20
92.0848147117
 30
0.0
  0
VERTEX
  5
24A
  8
0
  6
CONTINUOUS
 62
     7
 10
119.6462839989
 20
91.7023342682
 30
0.0
  0
SEQEND
  5
40E
  8
0
  6
CONTINUOUS
 62
     7
  0
ARC
  5
90
  8
0
  6
CONTINUOUS
 62
     7
 10
115.3200053258
 20
91.1532712699
 30
0.0
 40
6.80652833950535
 50
302.3995870007
 51
6.271271404
  0
POLYLINE
  5
91
  8
0
  6
CONTINUOUS
 62
     7
 66
     1
 10
0.0
 20
0.0
 30
0.0
  0
VERTEX
  5
24B
  8
0
  6
CONTINUOUS
 62
     7
 10
108.2339578737
 20
106.8725556122
 30
0.0
  0
VERTEX
  5
24C
  8
0
  6
CONTINUOUS
 62
     7
 10
108.678574929
 20
107.065723979
 30
0.0
  0
VERTEX
  5
24D
  8
0
  6
CONTINUOUS
 62
     7
 10
109.3578803326
 20
107.2607496637
 30
0.0
  0
VERTEX
  5
24E
  8
0
  6
CONTINUOUS
 62
     7
 10
110.0756077473
 20
107.3550589492
 30
0.0
  0
VERTEX
  5
24F
  8
0
  6
CONTINUOUS
 62
     7
 10
110.8252573225
 20
107.347797756
 30
0.0
  0
VERTEX
  5
250
  8
0
  6
CONTINUOUS
 62
     7
 10
111.6000401155
 20
107.2390318426
 30
0.0
  0
VERTEX
  5
251
  8
0
  6
CONTINUOUS
 62
     7
 10
112.3929395733
 20
107.02974621
 30
0.0
  0
VERTEX
  5
252
  8
0
  6
CONTINUOUS
 62
     7
 10
113.1967750757
 20
106.7218361811
 30
0.0
  0
VERTEX
  5
253
  8
0
  6
CONTINUOUS
 62
     7
 10
114.0042669638
 20
106.318090237
 30
0.0
  0
VERTEX
  5
254
  8
0
  6
CONTINUOUS
 62
     7
 10
114.8081024662
 20
105.8221647635
 30
0.0
  0
VERTEX
  5
255
  8
0
  6
CONTINUOUS
 62
     7
 10
115.601001924
 20
105.2385509383
 30
0.0
  0
VERTEX
  5
256
  8
0
  6
CONTINUOUS
 62
     7
 10
116.375784717
 20
104.5725340588
 30
0.0
  0
VERTEX
  5
257
  8
0
  6
CONTINUOUS
 62
     7
 10
117.1254342921
 20
103.8301456768
 30
0.0
  0
VERTEX
  5
258
  8
0
  6
CONTINUOUS
 62
     7
 10
117.8431617069
 20
103.0181089766
 30
0.0
  0
VERTEX
  5
259
  8
0
  6
CONTINUOUS
 62
     7
 10
118.5224671105
 20
102.1437778882
 30
0.0
  0
VERTEX
  5
25A
  8
0
  6
CONTINUOUS
 62
     7
 10
119.1571986082
 20
101.2150704894
 30
0.0
  0
VERTEX
  5
25B
  8
0
  6
CONTINUOUS
 62
     7
 10
119.7416079732
 20
100.2403972982
 30
0.0
  0
VERTEX
  5
25C
  8
0
  6
CONTINUOUS
 62
     7
 10
120.2704027037
 20
99.2285851059
 30
0.0
  0
VERTEX
  5
25D
  8
0
  6
CONTINUOUS
 62
     7
 10
120.7387939529
 20
98.1887970405
 30
0.0
  0
VERTEX
  5
25E
  8
0
  6
CONTINUOUS
 62
     7
 10
121.142539897
 20
97.1304495836
 30
0.0
  0
VERTEX
  5
25F
  8
0
  6
CONTINUOUS
 62
     7
 10
121.4779841502
 20
96.0631272937
 30
0.0
  0
VERTEX
  5
260
  8
0
  6
CONTINUOUS
 62
     7
 10
121.7420888775
 20
94.9964960069
 30
0.0
  0
VERTEX
  5
261
  8
0
  6
CONTINUOUS
 62
     7
 10
121.9324623055
 20
93.9402153011
 30
0.0
  0
VERTEX
  5
262
  8
0
  6
CONTINUOUS
 62
     7
 10
122.0473803829
 20
92.903851018
 30
0.0
  0
VERTEX
  5
263
  8
0
  6
CONTINUOUS
 62
     7
 10
122.085802394
 20
91.896788633
 30
0.0
  0
SEQEND
  5
40D
  8
0
  6
CONTINUOUS
 62
     7
  0
POLYLINE
  5
92
  8
0
  6
CONTINUOUS
 62
     7
 66
     1
 10
0.0
 20
0.0
 30
0.0
  0
VERTEX
  5
264
  8
0
  6
CONTINUOUS
 62
     7
 10
112.1863074574
 20
91.1896818519
 30
0.0
  0
VERTEX
  5
265
  8
0
  6
CONTINUOUS
 62
     7
 10
112.1467912731
 20
90.5018972804
 30
0.0
  0
VERTEX
  5
266
  8
0
  6
CONTINUOUS
 62
     7
 10
112.0289788319
 20
89.8664410185
 30
0.0
  0
VERTEX
  5
267
  8
0
  6
CONTINUOUS
 62
     7
 10
111.8350647567
 20
89.295150414
 30
0.0
  0
VERTEX
  5
268
  8
0
  6
CONTINUOUS
 62
     7
 10
111.5686612998
 20
88.7986675298
 30
0.0
  0
VERTEX
  5
269
  8
0
  6
CONTINUOUS
 62
     7
 10
111.2347310537
 20
88.3862409029
 30
0.0
  0
VERTEX
  5
26A
  8
0
  6
CONTINUOUS
 62
     7
 10
110.8394945068
 20
88.0655532608
 30
0.0
  0
VERTEX
  5
26B
  8
0
  6
CONTINUOUS
 62
     7
 10
110.3903141683
 20
87.8425784075
 30
0.0
  0
VERTEX
  5
26C
  8
0
  6
CONTINUOUS
 62
     7
 10
109.8955574181
 20
87.7214699428
 30
0.0
  0
VERTEX
  5
26D
  8
0
  6
CONTINUOUS
 62
     7
 10
109.3644406381
 20
87.7044838882
 30
0.0
  0
VERTEX
  5
26E
  8
0
  6
CONTINUOUS
 62
     7
 10
108.8068575293
 20
87.7919366617
 30
0.0
  0
VERTEX
  5
26F
  8
0
  6
CONTINUOUS
 62
     7
 10
108.2331948098
 20
87.9821991836
 30
0.0
  0
VERTEX
  5
270
  8
0
  6
CONTINUOUS
 62
     7
 10
107.6541387307
 20
88.2717272231
 30
0.0
  0
VERTEX
  5
271
  8
0
  6
CONTINUOUS
 62
     7
 10
107.0804760112
 20
88.6551274207
 30
0.0
  0
VERTEX
  5
272
  8
0
  6
CONTINUOUS
 62
     7
 10
106.5228929024
 20
89.1252577561
 30
0.0
  0
VERTEX
  5
273
  8
0
  6
CONTINUOUS
 62
     7
 10
105.9917761225
 20
89.6733605906
 30
0.0
  0
VERTEX
  5
274
  8
0
  6
CONTINUOUS
 62
     7
 10
105.4970193722
 20
90.2892258056
 30
0.0
  0
VERTEX
  5
275
  8
0
  6
CONTINUOUS
 62
     7
 10
105.0478390337
 20
90.9613809973
 30
0.0
  0
VERTEX
  5
276
  8
0
  6
CONTINUOUS
 62
     7
 10
104.6526024869
 20
91.6773051863
 30
0.0
  0
VERTEX
  5
277
  8
0
  6
CONTINUOUS
 62
     7
 10
104.3186722407
 20
92.4236620594
 30
0.0
  0
VERTEX
  5
278
  8
0
  6
CONTINUOUS
 62
     7
 10
104.0522687838
 20
93.1865484004
 30
0.0
  0
VERTEX
  5
279
  8
0
  6
CONTINUOUS
 62
     7
 10
103.8583547086
 20
93.9517530801
 30
0.0
  0
VERTEX
  5
27A
  8
0
  6
CONTINUOUS
 62
     7
 10
103.7405422674
 20
94.7050217832
 30
0.0
  0
VERTEX
  5
27B
  8
0
  6
CONTINUOUS
 62
     7
 10
103.7010260831
 20
95.432322539
 30
0.0
  0
VERTEX
  5
27C
  8
0
  6
CONTINUOUS
 62
     7
 10
103.7405422674
 20
96.1201071104
 30
0.0
  0
VERTEX
  5
27D
  8
0
  6
CONTINUOUS
 62
     7
 10
103.8583547086
 20
96.7555633723
 30
0.0
  0
VERTEX
  5
27E
  8
0
  6
CONTINUOUS
 62
     7
 10
104.0522687838
 20
97.3268539769
 30
0.0
  0
VERTEX
  5
27F
  8
0
  6
CONTINUOUS
 62
     7
 10
104.3186722407
 20
97.823336861
 30
0.0
  0
VERTEX
  5
280
  8
0
  6
CONTINUOUS
 62
     7
 10
104.6526024869
 20
98.235763488
 30
0.0
  0
VERTEX
  5
281
  8
0
  6
CONTINUOUS
 62
     7
 10
105.0478390337
 20
98.5564511301
 30
0.0
  0
VERTEX
  5
282
  8
0
  6
CONTINUOUS
 62
     7
 10
105.4970193722
 20
98.7794259833
 30
0.0
  0
VERTEX
  5
283
  8
0
  6
CONTINUOUS
 62
     7
 10
105.9917761225
 20
98.900534448
 30
0.0
  0
VERTEX
  5
284
  8
0
  6
CONTINUOUS
 62
     7
 10
106.5228929024
 20
98.9175205026
 30
0.0
  0
VERTEX
  5
285
  8
0
  6
CONTINUOUS
 62
     7
 10
107.0804760112
 20
98.8300677292
 30
0.0
  0
VERTEX
  5
286
  8
0
  6
CONTINUOUS
 62
     7
 10
107.6541387307
 20
98.6398052073
 30
0.0
  0
VERTEX
  5
287
  8
0
  6
CONTINUOUS
 62
     7
 10
108.2331948098
 20
98.3502771677
 30
0.0
  0
VERTEX
  5
288
  8
0
  6
CONTINUOUS
 62
     7
 10
108.8068575293
 20
97.9668769702
 30
0.0
  0
VERTEX
  5
289
  8
0
  6
CONTINUOUS
 62
     7
 10
109.3644406381
 20
97.4967466348
 30
0.0
  0
VERTEX
  5
28A
  8
0
  6
CONTINUOUS
 62
     7
 10
109.8955574181
 20
96.9486438002
 30
0.0
  0
VERTEX
  5
28B
  8
0
  6
CONTINUOUS
 62
     7
 10
110.3903141683
 20
96.3327785852
 30
0.0
  0
VERTEX
  5
28C
  8
0
  6
CONTINUOUS
 62
     7
 10
110.8394945068
 20
95.6606233935
 30
0.0
  0
VERTEX
  5
28D
  8
0
  6
CONTINUOUS
 62
     7
 10
111.2347310537
 20
94.9446992046
 30
0.0
  0
VERTEX
  5
28E
  8
0
  6
CONTINUOUS
 62
     7
 10
111.5686612998
 20
94.1983423314
 30
0.0
  0
VERTEX
  5
28F
  8
0
  6
CONTINUOUS
 62
     7
 10
111.8350647567
 20
93.4354559904
 30
0.0
  0
VERTEX
  5
290
  8
0
  6
CONTINUOUS
 62
     7
 10
112.0289788319
 20
92.6702513107
 30
0.0
  0
VERTEX
  5
291
  8
0
  6
CONTINUOUS
 62
     7
 10
112.1467912731
 20
91.9169826076
 30
0.0
  0
VERTEX
  5
292
  8
0
  6
CONTINUOUS
 62
     7
 10
112.1863074574
 20
91.1896818519
 30
0.0
  0
SEQEND
  5
40C
  8
0
  6
CONTINUOUS
 62
     7
  0
POLYLINE
  5
93
  8
0
  6
CONTINUOUS
 62
     7
 66
     1
 10
0.0
 20
0.0
 30
0.0
  0
VERTEX
  5
293
  8
0
  6
CONTINUOUS
 62
     7
 10
111.1256472856
 20
100.0981448758
 30
0.0
  0
VERTEX
  5
294
  8
0
  6
CONTINUOUS
 62
     7
 10
111.4129790428
 20
99.8795875949
 30
0.0
  0
VERTEX
  5
295
  8
0
  6
CONTINUOUS
 62
     7
 10
111.5533694748
 20
99.5994385751
 30
0.0
  0
VERTEX
  5
296
  8
0
  6
CONTINUOUS
 62
     7
 10
111.5319166019
 20
99.2955579188
 30
0.0
  0
VERTEX
  5
297
  8
0
  6
CONTINUOUS
 62
     7
 10
111.3426427721
 20
99.0188841022
 30
0.0
  0
VERTEX
  5
298
  8
0
  6
CONTINUOUS
 62
     7
 10
111.0127039334
 20
98.8231954611
 30
0.0
  0
VERTEX
  5
299
  8
0
  6
CONTINUOUS
 62
     7
 10
110.5894454208
 20
98.7289864553
 30
0.0
  0
VERTEX
  5
29A
  8
0
  6
CONTINUOUS
 62
     7
 10
110.1079409788
 20
98.7315635323
 30
0.0
  0
VERTEX
  5
29B
  8
0
  6
CONTINUOUS
 62
     7
 10
109.6085194829
 20
98.8191532618
 30
0.0
  0
VERTEX
  5
29C
  8
0
  6
CONTINUOUS
 62
     7
 10
109.1575404394
 20
98.9676537508
 30
0.0
  0
VERTEX
  5
29D
  8
0
  6
CONTINUOUS
 62
     7
 10
108.8173666088
 20
99.1452336388
 30
0.0
  0
VERTEX
  5
29E
  8
0
  6
CONTINUOUS
 62
     7
 10
108.616177655
 20
99.3328267906
 30
0.0
  0
VERTEX
  5
29F
  8
0
  6
CONTINUOUS
 62
     7
 10
108.5685634596
 20
99.5263690562
 30
0.0
  0
VERTEX
  5
2A0
  8
0
  6
CONTINUOUS
 62
     7
 10
108.6885362943
 20
99.723526266
 30
0.0
  0
VERTEX
  5
2A1
  8
0
  6
CONTINUOUS
 62
     7
 10
108.9652734801
 20
99.9131078021
 30
0.0
  0
VERTEX
  5
2A2
  8
0
  6
CONTINUOUS
 62
     7
 10
109.3546500619
 20
100.0772721782
 30
0.0
  0
VERTEX
  5
2A3
  8
0
  6
CONTINUOUS
 62
     7
 10
109.8155386434
 20
100.1984114588
 30
0.0
  0
VERTEX
  5
2A4
  8
0
  6
CONTINUOUS
 62
     7
 10
110.314114975
 20
100.2525129109
 30
0.0
  0
VERTEX
  5
2A5
  8
0
  6
CONTINUOUS
 62
     7
 10
110.7943688366
 20
100.2109682621
 30
0.0
  0
VERTEX
  5
2A6
  8
0
  6
CONTINUOUS
 62
     7
 10
111.1256472856
 20
100.0981448758
 30
0.0
  0
SEQEND
  5
40B
  8
0
  6
CONTINUOUS
 62
     7
  0
POLYLINE
  5
94
  8
0
  6
CONTINUOUS
 62
     7
 66
     1
 10
0.0
 20
0.0
 30
0.0
  0
VERTEX
  5
2A7
  8
0
  6
CONTINUOUS
 62
     7
 10
109.3932356717
 20
92.5862177447
 30
0.0
  0
VERTEX
  5
2A8
  8
0
  6
CONTINUOUS
 62
     7
 10
109.3541623543
 20
92.1963300381
 30
0.0
  0
VERTEX
  5
2A9
  8
0
  6
CONTINUOUS
 62
     7
 10
109.239048855
 20
91.866534596
 30
0.0
  0
VERTEX
  5
2AA
  8
0
  6
CONTINUOUS
 62
     7
 10
109.0541009721
 20
91.6146107761
 30
0.0
  0
VERTEX
  5
2AB
  8
0
  6
CONTINUOUS
 62
     7
 10
108.809289294
 20
91.4541398567
 30
0.0
  0
VERTEX
  5
2AC
  8
0
  6
CONTINUOUS
 62
     7
 10
108.5178116816
 20
91.3937728666
 30
0.0
  0
VERTEX
  5
2AD
  8
0
  6
CONTINUOUS
 62
     7
 10
108.1953817684
 20
91.4367642058
 30
0.0
  0
VERTEX
  5
2AE
  8
0
  6
CONTINUOUS
 62
     7
 10
107.8593818345
 20
91.5807962003
 30
0.0
  0
VERTEX
  5
2AF
  8
0
  6
CONTINUOUS
 62
     7
 10
107.5279257233
 20
91.8181040477
 30
0.0
  0
VERTEX
  5
2B0
  8
0
  6
CONTINUOUS
 62
     7
 10
107.2188823195
 20
92.1358944208
 30
0.0
  0
VERTEX
  5
2B1
  8
0
  6
CONTINUOUS
 62
     7
 10
106.9489122331
 20
92.5170351581
 30
0.0
  0
VERTEX
  5
2B2
  8
0
  6
CONTINUOUS
 62
     7
 10
106.7325696213
 20
92.9409788639
 30
0.0
  0
VERTEX
  5
2B3
  8
0
  6
CONTINUOUS
 62
     7
 10
106.5815175703
 20
93.3848706233
 30
0.0
  0
VERTEX
  5
2B4
  8
0
  6
CONTINUOUS
 62
     7
 10
106.5038993352
 20
93.8247801167
 30
0.0
  0
VERTEX
  5
2B5
  8
0
  6
CONTINUOUS
 62
     7
 10
106.5038993352
 20
94.2369917093
 30
0.0
  0
VERTEX
  5
2B6
  8
0
  6
CONTINUOUS
 62
     7
 10
106.5815175703
 20
94.5992829675
 30
0.0
  0
VERTEX
  5
2B7
  8
0
  6
CONTINUOUS
 62
     7
 10
106.7325696213
 20
94.8921226759
 30
0.0
  0
VERTEX
  5
2B8
  8
0
  6
CONTINUOUS
 62
     7
 10
106.9489122331
 20
95.0997237698
 30
0.0
  0
VERTEX
  5
2B9
  8
0
  6
CONTINUOUS
 62
     7
 10
107.2188823195
 20
95.2108944208
 30
0.0
  0
VERTEX
  5
2BA
  8
0
  6
CONTINUOUS
 62
     7
 10
107.5279257233
 20
95.2196413901
 30
0.0
  0
VERTEX
  5
2BB
  8
0
  6
CONTINUOUS
 62
     7
 10
107.8593818345
 20
95.1254931263
 30
0.0
  0
VERTEX
  5
2BC
  8
0
  6
CONTINUOUS
 62
     7
 10
108.1953817684
 20
94.9335251868
 30
0.0
  0
VERTEX
  5
2BD
  8
0
  6
CONTINUOUS
 62
     7
 10
108.5178116816
 20
94.6540866129
 30
0.0
  0
VERTEX
  5
2BE
  8
0
  6
CONTINUOUS
 62
     7
 10
108.809289294
 20
94.3022420104
 30
0.0
  0
VERTEX
  5
2BF
  8
0
  6
CONTINUOUS
 62
     7
 10
109.0541009721
 20
93.8969594129
 30
0.0
  0
VERTEX
  5
2C0
  8
0
  6
CONTINUOUS
 62
     7
 10
109.239048855
 20
93.4600877101
 30
0.0
  0
VERTEX
  5
2C1
  8
0
  6
CONTINUOUS
 62
     7
 10
109.3541623543
 20
93.0151787687
 30
0.0
  0
VERTEX
  5
2C2
  8
0
  6
CONTINUOUS
 62
     7
 10
109.3932356717
 20
92.5862177447
 30
0.0
  0
SEQEND
  5
40A
  8
0
  6
CONTINUOUS
 62
     7
  0
ARC
  5
95
  8
0
  6
CONTINUOUS
 62
     7
 10
121.1925485924
 20
93.5714820758
 30
0.0
 40
2.327434869452468
 50
184.9380061881
 51
228.1920961661
  0
ARC
  5
96
  8
0
  6
CONTINUOUS
 62
     7
 10
108.3022547049
 20
99.9153790822
 30
0.0
 40
2.163946986625291
 50
184.7787986301
 51
199.8447404086
  0
ARC
  5
97
  8
0
  6
CONTINUOUS
 62
     7
 10
154.4827426355
 20
105.0059155148
 30
0.0
 40
2.274979633555157
 50
187.402410598
 51
241.6153246014
  0
ARC
  5
98
  8
0
  6
CONTINUOUS
 62
     7
 10
149.1610362905
 20
94.1017543947
 30
0.0
 40
9.860893666738201
 50
34.9290150617
 51
64.5322985028
  0
ARC
  5
99
  8
0
  6
CONTINUOUS
 62
     7
 10
128.6260068266
 20
98.8831451878
 30
0.0
 40
28.6326578121117
 50
358.2696698313
 51
1.7303301687
  0
ARC
  5
9A
  8
0
  6
CONTINUOUS
 62
     7
 10
155.967295557
 20
102.5246078683
 30
0.0
 40
4.683849657559972
 50
236.7802737421
 51
285.8380572849
  0
ARC
  5
9B
  8
0
  6
CONTINUOUS
 62
     7
 10
152.9588659583
 20
98.0205317922
 30
0.0
 40
0.7339750261514717
 50
52.9355222624
 51
175.9506075926
  0
ARC
  5
9C
  8
0
  6
CONTINUOUS
 62
     7
 10
136.0022093101
 20
100.8445846531
 30
0.0
 40
16.45964972216232
 50
349.6475313814
 51
350.3037221103
  0
ARC
  5
9D
  8
0
  6
CONTINUOUS
 62
     7
 10
154.5004111667
 20
97.6392365794
 30
0.0
 40
2.319741394165817
 50
173.8753511575
 51
227.3492845778
  0
ARC
  5
9E
  8
0
  6
CONTINUOUS
 62
     7
 10
143.7798545316
 20
86.3326529166
 30
0.0
 40
13.26159293842667
 50
22.1417211188
 51
46.3796229847
  0
ARC
  5
9F
  8
0
  6
CONTINUOUS
 62
     7
 10
140.7054639821
 20
96.8085161168
 30
0.0
 40
16.30558450206611
 50
335.3332706949
 51
340.3707154846
  0
ARC
  5
A0
  8
0
  6
CONTINUOUS
 62
     7
 10
157.7524990646
 20
97.8299100697
 30
0.0
 40
8.13767531103145
 50
220.3902831356
 51
254.1004903017
  0
POLYLINE
  5
A1
  8
0
  6
CONTINUOUS
 62
     7
 66
     1
 10
0.0
 20
0.0
 30
0.0
  0
VERTEX
  5
2C3
  8
0
  6
CONTINUOUS
 62
     7
 10
150.1190371909
 20
92.7891941563
 30
0.0
  0
VERTEX
  5
2C4
  8
0
  6
CONTINUOUS
 62
     7
 10
150.2454990097
 20
92.920275453
 30
0.0
  0
VERTEX
  5
2C5
  8
0
  6
CONTINUOUS
 62
     7
 10
150.3982644832
 20
93.0074169836
 30
0.0
  0
VERTEX
  5
2C6
  8
0
  6
CONTINUOUS
 62
     7
 10
150.5724207596
 20
93.0478163256
 30
0.0
  0
VERTEX
  5
2C7
  8
0
  6
CONTINUOUS
 62
     7
 10
150.762367071
 20
93.0401742588
 30
0.0
  0
VERTEX
  5
2C8
  8
0
  6
CONTINUOUS
 62
     7
 10
150.9619948507
 20
92.9847365477
 30
0.0
  0
VERTEX
  5
2C9
  8
0
  6
CONTINUOUS
 62
     7
 10
151.1648841815
 20
92.883286038
 30
0.0
  0
VERTEX
  5
2CA
  8
0
  6
CONTINUOUS
 62
     7
 10
151.3645102566
 20
92.7390853211
 30
0.0
  0
VERTEX
  5
2CB
  8
0
  6
CONTINUOUS
 62
     7
 10
151.5544532136
 20
92.5567718109
 30
0.0
  0
SEQEND
  5
409
  8
0
  6
CONTINUOUS
 62
     7
  0
ARC
  5
A2
  8
0
  6
CONTINUOUS
 62
     7
 10
142.6518840608
 20
98.2937979989
 30
0.0
 40
9.27680113679485
 50
322.6415480966
 51
323.6032623332
  0
ARC
  5
A3
  8
0
  6
CONTINUOUS
 62
     7
 10
151.6442679639
 20
91.8610273707
 30
0.0
 40
1.807178772718675
 50
153.5973076144
 51
217.4111215868
  0
ARC
  5
A4
  8
0
  6
CONTINUOUS
 62
     7
 10
138.8355639048
 20
83.5558454258
 30
0.0
 40
13.46461712413987
 50
8.3715801763
 51
32.3625311082
  0
ARC
  5
A5
  8
0
  6
CONTINUOUS
 62
     7
 10
145.5721396789
 20
93.5510483929
 30
0.0
 40
10.3882398710243
 50
302.5304179705
 51
309.3346404271
  0
ARC
  5
A6
  8
0
  6
CONTINUOUS
 62
     7
 10
158.4614964244
 20
94.5005765585
 30
0.0
 40
12.14821140383197
 50
207.3321246955
 51
233.0464458459
  0
ARC
  5
A7
  8
0
  6
CONTINUOUS
 62
     7
 10
146.2957269035
 20
88.4304393766
 30
0.0
 40
1.459334974601517
 50
19.7157971755
 51
94.0866080601
  0
ARC
  5
A8
  8
0
  6
CONTINUOUS
 62
     7
 10
143.7655770342
 20
97.2652175718
 30
0.0
 40
7.767761501901061
 50
287.1175136167
 51
288.2000638067
  0
POLYLINE
  5
A9
  8
0
  6
CONTINUOUS
 62
     7
 66
     1
 10
0.0
 20
0.0
 30
0.0
  0
VERTEX
  5
2CC
  8
0
  6
CONTINUOUS
 62
     7
 10
145.6556473687
 20
88.2816425275
 30
0.0
  0
VERTEX
  5
2CD
  8
0
  6
CONTINUOUS
 62
     7
 10
145.5843328985
 20
88.549931425
 30
0.0
  0
VERTEX
  5
2CE
  8
0
  6
CONTINUOUS
 62
     7
 10
145.54809051
 20
88.812543631
 30
0.0
  0
VERTEX
  5
2CF
  8
0
  6
CONTINUOUS
 62
     7
 10
145.5480857382
 20
89.0610336843
 30
0.0
  0
VERTEX
  5
2D0
  8
0
  6
CONTINUOUS
 62
     7
 10
145.5843187364
 20
89.2874102845
 30
0.0
  0
VERTEX
  5
2D1
  8
0
  6
CONTINUOUS
 62
     7
 10
145.6556242719
 20
89.4843932874
 30
0.0
  0
VERTEX
  5
2D2
  8
0
  6
CONTINUOUS
 62
     7
 10
145.7597091986
 20
89.6456478304
 30
0.0
  0
VERTEX
  5
2D3
  8
0
  6
CONTINUOUS
 62
     7
 10
145.8932262038
 20
89.765988058
 30
0.0
  0
VERTEX
  5
2D4
  8
0
  6
CONTINUOUS
 62
     7
 10
146.0518814557
 20
89.8415438961
 30
0.0
  0
SEQEND
  5
408
  8
0
  6
CONTINUOUS
 62
     7
  0
ARC
  5
AA
  8
0
  6
CONTINUOUS
 62
     7
 10
135.9474259061
 20
84.8286234426
 30
0.0
 40
10.30402371740451
 50
350.84242304
 51
19.5794496034
  0
ARC
  5
AB
  8
0
  6
CONTINUOUS
 62
     7
 10
145.378209845
 20
95.4646951277
 30
0.0
 40
12.29835812046706
 50
267.3786689313
 51
273.4585147902
  0
ARC
  5
AC
  8
0
  6
CONTINUOUS
 62
     7
 10
155.7648865871
 20
91.6654137559
 30
0.0
 40
13.85277629566173
 50
194.2419101932
 51
217.7777232696
  0
ARC
  5
AD
  8
0
  6
CONTINUOUS
 62
     7
 10
140.2721588944
 20
87.8443194907
 30
0.0
 40
2.106605104230422
 50
11.3083872265
 51
68.5449571688
  0
ARC
  5
AE
  8
0
  6
CONTINUOUS
 62
     7
 10
143.9740115396
 20
101.581150239
 30
0.0
 40
12.13555036227399
 50
255.2180513177
 51
256.0220796348
  0
POLYLINE
  5
AF
  8
0
  6
CONTINUOUS
 62
     7
 66
     1
 10
0.0
 20
0.0
 30
0.0
  0
VERTEX
  5
2D5
  8
0
  6
CONTINUOUS
 62
     7
 10
139.9623508582
 20
88.8664450375
 30
0.0
  0
VERTEX
  5
2D6
  8
0
  6
CONTINUOUS
 62
     7
 10
139.9691529016
 20
89.1113919959
 30
0.0
  0
VERTEX
  5
2D7
  8
0
  6
CONTINUOUS
 62
     7
 10
140.0120628923
 20
89.3328036716
 30
0.0
  0
VERTEX
  5
2D8
  8
0
  6
CONTINUOUS
 62
     7
 10
140.0897008692
 20
89.5235595896
 30
0.0
  0
VERTEX
  5
2D9
  8
0
  6
CONTINUOUS
 62
     7
 10
140.1995700386
 20
89.6775251469
 30
0.0
  0
VERTEX
  5
2DA
  8
0
  6
CONTINUOUS
 62
     7
 10
140.3381370697
 20
89.7897488975
 30
0.0
  0
VERTEX
  5
2DB
  8
0
  6
CONTINUOUS
 62
     7
 10
140.5009457248
 20
89.8566217888
 30
0.0
  0
VERTEX
  5
2DC
  8
0
  6
CONTINUOUS
 62
     7
 10
140.6827601689
 20
89.8759932262
 30
0.0
  0
VERTEX
  5
2DD
  8
0
  6
CONTINUOUS
 62
     7
 10
140.8777333518
 20
89.8472402352
 30
0.0
  0
SEQEND
  5
407
  8
0
  6
CONTINUOUS
 62
     7
  0
ARC
  5
B0
  8
0
  6
CONTINUOUS
 62
     7
 10
133.7573716329
 20
88.2660032076
 30
0.0
 40
6.23396323203469
 50
325.140724041
 51
5.5271739451
  0
ARC
  5
B1
  8
0
  6
CONTINUOUS
 62
     7
 10
147.9023491107
 20
104.526999362
 30
0.0
 40
21.78369504469709
 50
241.3586133928
 51
245.511284253
  0
ARC
  5
B2
  8
0
  6
CONTINUOUS
 62
     7
 10
148.2417874878
 20
90.3846750961
 30
0.0
 40
11.87381638694447
 50
178.6616043966
 51
204.7753107978
  0
ARC
  5
B3
  8
0
  6
CONTINUOUS
 62
     7
 10
133.9925382783
 20
90.682747749
 30
0.0
 40
2.378762571418311
 50
359.5006220344
 51
52.0373650377
  0
ARC
  5
B4
  8
0
  6
CONTINUOUS
 62
     7
 10
148.1110310848
 20
109.7488891617
 30
0.0
 40
21.34652671172839
 50
233.0889987717
 51
233.6407694773
  0
POLYLINE
  5
B5
  8
0
  6
CONTINUOUS
 62
     7
 66
     1
 10
0.0
 20
0.0
 30
0.0
  0
VERTEX
  5
2DE
  8
0
  6
CONTINUOUS
 62
     7
 10
133.9956950648
 20
92.4284886445
 30
0.0
  0
VERTEX
  5
2DF
  8
0
  6
CONTINUOUS
 62
     7
 10
134.0795780723
 20
92.6128027097
 30
0.0
  0
VERTEX
  5
2E0
  8
0
  6
CONTINUOUS
 62
     7
 10
134.195107785
 20
92.7593059347
 30
0.0
  0
VERTEX
  5
2E1
  8
0
  6
CONTINUOUS
 62
     7
 10
134.3385688325
 20
92.8632868581
 30
0.0
  0
VERTEX
  5
2E2
  8
0
  6
CONTINUOUS
 62
     7
 10
134.505347588
 20
92.921401512
 30
0.0
  0
VERTEX
  5
2E3
  8
0
  6
CONTINUOUS
 62
     7
 10
134.6900805404
 20
92.9317809616
 30
0.0
  0
VERTEX
  5
2E4
  8
0
  6
CONTINUOUS
 62
     7
 10
134.886826782
 20
92.8940914098
 30
0.0
  0
VERTEX
  5
2E5
  8
0
  6
CONTINUOUS
 62
     7
 10
135.089259064
 20
92.8095449312
 30
0.0
  0
VERTEX
  5
2E6
  8
0
  6
CONTINUOUS
 62
     7
 10
135.2908672782
 20
92.6808604933
 30
0.0
  0
SEQEND
  5
406
  8
0
  6
CONTINUOUS
 62
     7
  0
ARC
  5
B6
  8
0
  6
CONTINUOUS
 62
     7
 10
130.3563316673
 20
93.4157272574
 30
0.0
 40
3.770889287401825
 50
287.9395427902
 51
344.8227937019
  0
ARC
  5
B7
  8
0
  6
CONTINUOUS
 62
     7
 10
155.7981400446
 20
115.2367986005
 30
0.0
 40
35.14445212140576
 50
223.2821155351
 51
226.3008105626
  0
ARC
  5
B8
  8
0
  6
CONTINUOUS
 62
     7
 10
137.8572799156
 20
92.712525059
 30
0.0
 40
7.803496794902252
 50
156.9288711781
 51
191.6100508468
  0
ARC
  5
B9
  8
0
  6
CONTINUOUS
 62
     7
 10
128.7338345063
 20
96.3949154283
 30
0.0
 40
2.041893275668154
 50
342.1938397909
 51
40.707917319
  0
ARC
  5
BA
  8
0
  6
CONTINUOUS
 62
     7
 10
154.4704894548
 20
116.2196801527
 30
0.0
 40
30.44816692106692
 50
216.9634974939
 51
217.3989448072
  0
POLYLINE
  5
BB
  8
0
  6
CONTINUOUS
 62
     7
 66
     1
 10
0.0
 20
0.0
 30
0.0
  0
VERTEX
  5
2E7
  8
0
  6
CONTINUOUS
 62
     7
 10
128.6640492451
 20
98.4254844993
 30
0.0
  0
VERTEX
  5
2E8
  8
0
  6
CONTINUOUS
 62
     7
 10
128.8122427892
 20
98.5211055257
 30
0.0
  0
VERTEX
  5
2E9
  8
0
  6
CONTINUOUS
 62
     7
 10
128.9828038725
 20
98.570396512
 30
0.0
  0
VERTEX
  5
2EA
  8
0
  6
CONTINUOUS
 62
     7
 10
129.1702473465
 20
98.5717722879
 30
0.0
  0
VERTEX
  5
2EB
  8
0
  6
CONTINUOUS
 62
     7
 10
129.3685451344
 20
98.5251886091
 30
0.0
  0
VERTEX
  5
2EC
  8
0
  6
CONTINUOUS
 62
     7
 10
129.5713200908
 20
98.4321435806
 30
0.0
  0
VERTEX
  5
2ED
  8
0
  6
CONTINUOUS
 62
     7
 10
129.7720510871
 20
98.2956294782
 30
0.0
  0
VERTEX
  5
2EE
  8
0
  6
CONTINUOUS
 62
     7
 10
129.9642827271
 20
98.1200365187
 30
0.0
  0
VERTEX
  5
2EF
  8
0
  6
CONTINUOUS
 62
     7
 10
130.1418329496
 20
97.9110116729
 30
0.0
  0
SEQEND
  5
405
  8
0
  6
CONTINUOUS
 62
     7
  0
ARC
  5
BC
  8
0
  6
CONTINUOUS
 62
     7
 10
126.3435212804
 20
101.2393928194
 30
0.0
 40
3.647318202290657
 50
251.3170848255
 51
309.5111632614
  0
ARC
  5
BD
  8
0
  6
CONTINUOUS
 62
     7
 10
162.4394467814
 20
120.5402782969
 30
0.0
 40
43.66305169782165
 50
208.7989849187
 51
211.4109787346
  0
ARC
  5
BE
  8
0
  6
CONTINUOUS
 62
     7
 10
128.6511424386
 20
99.0889015362
 30
0.0
 40
4.493702519737063
 50
124.2089016808
 51
174.672684858
  0
ARC
  5
BF
  8
0
  6
CONTINUOUS
 62
     7
 10
125.1417316403
 20
103.7789042771
 30
0.0
 40
1.383638935540226
 50
315.2710474477
 51
32.5549840341
  0
ARC
  5
C0
  8
0
  6
CONTINUOUS
 62
     7
 10
156.39485941
 20
117.5489228574
 30
0.0
 40
32.785423274437
 50
202.9946590964
 51
203.4091571038
  0
ARC
  5
C1
  8
0
  6
CONTINUOUS
 62
     7
 10
124.5764130044
 20
104.2447194328
 30
0.0
 40
1.711768120846376
 50
16.8690951086
 51
83.1994943363
  0
ARC
  5
C2
  8
0
  6
CONTINUOUS
 62
     7
 10
124.634669574
 20
111.8108866495
 30
0.0
 40
5.868220156258025
 50
229.3305657649
 51
271.4104031663
  0
ARC
  5
C3
  8
0
  6
CONTINUOUS
 62
     7
 10
159.6259247301
 20
119.6006922426
 30
0.0
 40
40.6999000126276
 50
194.7657276133
 51
197.5030253962
  0
ARC
  5
C4
  8
0
  6
CONTINUOUS
 62
     7
 10
123.0870769855
 20
107.2918307338
 30
0.0
 40
3.417986696883172
 50
84.665659016
 51
145.5037592316
  0
POLYLINE
  5
C5
  8
0
  6
CONTINUOUS
 62
     7
 66
     1
 10
0.0
 20
0.0
 30
0.0
  0
VERTEX
  5
2F0
  8
0
  6
CONTINUOUS
 62
     7
 10
124.1396508185
 20
111.9138638919
 30
0.0
  0
VERTEX
  5
2F1
  8
0
  6
CONTINUOUS
 62
     7
 10
124.1624150133
 20
111.6555631682
 30
0.0
  0
VERTEX
  5
2F2
  8
0
  6
CONTINUOUS
 62
     7
 10
124.1488042909
 20
111.4144406301
 30
0.0
  0
VERTEX
  5
2F3
  8
0
  6
CONTINUOUS
 62
     7
 10
124.0992563644
 20
111.1982506431
 30
0.0
  0
VERTEX
  5
2F4
  8
0
  6
CONTINUOUS
 62
     7
 10
124.0153646672
 20
111.0139457556
 30
0.0
  0
VERTEX
  5
2F5
  8
0
  6
CONTINUOUS
 62
     7
 10
123.8998271092
 20
110.8674531092
 30
0.0
  0
VERTEX
  5
2F6
  8
0
  6
CONTINUOUS
 62
     7
 10
123.7563593134
 20
110.763483825
 30
0.0
  0
VERTEX
  5
2F7
  8
0
  6
CONTINUOUS
 62
     7
 10
123.5895751233
 20
110.7053814968
 30
0.0
  0
VERTEX
  5
2F8
  8
0
  6
CONTINUOUS
 62
     7
 10
123.4048382249
 20
110.6950146628
 30
0.0
  0
SEQEND
  5
404
  8
0
  6
CONTINUOUS
 62
     7
  0
ARC
  5
C6
  8
0
  6
CONTINUOUS
 62
     7
 10
150.3130499728
 20
115.9571367844
 30
0.0
 40
26.48386072637432
 50
188.303765305
 51
188.7816491326
  0
ARC
  5
C7
  8
0
  6
CONTINUOUS
 62
     7
 10
121.8508187217
 20
111.8392027844
 30
0.0
 40
2.27497963355524
 50
7.402410598
 51
61.6153246014
  0
ARC
  5
C8
  8
0
  6
CONTINUOUS
 62
     7
 10
127.1725250667
 20
122.7433639045
 30
0.0
 40
9.86089366673824
 50
214.9290150617
 51
244.5322985028
  0
ARC
  5
C9
  8
0
  6
CONTINUOUS
 62
     7
 10
147.7075545306
 20
117.9619731114
 30
0.0
 40
28.63265781208442
 50
178.2696698313
 51
181.7303301687
  0
ARC
  5
CA
  8
0
  6
CONTINUOUS
 62
     7
 10
120.3662658002
 20
114.3205104309
 30
0.0
 40
4.683849657559985
 50
56.7802737421
 51
105.8380572849
  0
ARC
  5
CB
  8
0
  6
CONTINUOUS
 62
     7
 10
123.3746953989
 20
118.824586507
 30
0.0
 40
0.7339750261514779
 50
232.9355222624
 51
355.9506075926
  0
ARC
  5
CC
  8
0
  6
CONTINUOUS
 62
     7
 10
140.3313520465
 20
116.0005336462
 30
0.0
 40
16.45964972149886
 50
169.6475313814
 51
170.3037221103
  0
ARC
  5
CD
  8
0
  6
CONTINUOUS
 62
     7
 10
121.8331501905
 20
119.2058817198
 30
0.0
 40
2.319741394165887
 50
353.8753511575
 51
47.3492845777
  0
ARC
  5
CE
  8
0
  6
CONTINUOUS
 62
     7
 10
132.5537068256
 20
130.5124653826
 30
0.0
 40
13.26159293842759
 50
202.1417211188
 51
226.3796229847
  0
ARC
  5
CF
  8
0
  6
CONTINUOUS
 62
     7
 10
135.6280973751
 20
120.0366021823
 30
0.0
 40
16.30558450207694
 50
155.3332706949
 51
160.3707154846
  0
ARC
  5
D0
  8
0
  6
CONTINUOUS
 62
     7
 10
118.5810622926
 20
119.0152082295
 30
0.0
 40
8.137675311031122
 50
40.3902831356
 51
74.1004903017
  0
POLYLINE
  5
D1
  8
0
  6
CONTINUOUS
 62
     7
 66
     1
 10
0.0
 20
0.0
 30
0.0
  0
VERTEX
  5
2F9
  8
0
  6
CONTINUOUS
 62
     7
 10
126.2145241664
 20
124.0559241429
 30
0.0
  0
VERTEX
  5
2FA
  8
0
  6
CONTINUOUS
 62
     7
 10
126.0880623475
 20
123.9248428462
 30
0.0
  0
VERTEX
  5
2FB
  8
0
  6
CONTINUOUS
 62
     7
 10
125.935296874
 20
123.8377013156
 30
0.0
  0
VERTEX
  5
2FC
  8
0
  6
CONTINUOUS
 62
     7
 10
125.7611405976
 20
123.7973019736
 30
0.0
  0
VERTEX
  5
2FD
  8
0
  6
CONTINUOUS
 62
     7
 10
125.5711942863
 20
123.8049440404
 30
0.0
  0
VERTEX
  5
2FE
  8
0
  6
CONTINUOUS
 62
     7
 10
125.3715665066
 20
123.8603817515
 30
0.0
  0
VERTEX
  5
2FF
  8
0
  6
CONTINUOUS
 62
     7
 10
125.1686771758
 20
123.9618322612
 30
0.0
  0
VERTEX
  5
300
  8
0
  6
CONTINUOUS
 62
     7
 10
124.9690511007
 20
124.1060329781
 30
0.0
  0
VERTEX
  5
301
  8
0
  6
CONTINUOUS
 62
     7
 10
124.7791081437
 20
124.2883464883
 30
0.0
  0
SEQEND
  5
403
  8
0
  6
CONTINUOUS
 62
     7
  0
ARC
  5
D2
  8
0
  6
CONTINUOUS
 62
     7
 10
133.6816772962
 20
118.5513203005
 30
0.0
 40
9.27680113645614
 50
142.6415480966
 51
143.6032623332
  0
ARC
  5
D3
  8
0
  6
CONTINUOUS
 62
     7
 10
124.6892933934
 20
124.9840909285
 30
0.0
 40
1.807178772718592
 50
333.5973076144
 51
37.4111215868
  0
ARC
  5
D4
  8
0
  6
CONTINUOUS
 62
     7
 10
137.4979974524
 20
133.2892728734
 30
0.0
 40
13.46461712414113
 50
188.3715801763
 51
212.3625311082
  0
ARC
  5
D5
  8
0
  6
CONTINUOUS
 62
     7
 10
130.7614216783
 20
123.2940699063
 30
0.0
 40
10.38823987102497
 50
122.5304179705
 51
129.3346404271
  0
ARC
  5
D6
  8
0
  6
CONTINUOUS
 62
     7
 10
117.8720649328
 20
122.3445417407
 30
0.0
 40
12.14821140383131
 50
27.3321246955
 51
53.0464458459
  0
ARC
  5
D7
  8
0
  6
CONTINUOUS
 62
     7
 10
130.0378344538
 20
128.4146789226
 30
0.0
 40
1.459334974601494
 50
199.7157971755
 51
274.0866080601
  0
ARC
  5
D8
  8
0
  6
CONTINUOUS
 62
     7
 10
132.567984323
 20
119.5799007275
 30
0.0
 40
7.767761501871632
 50
107.1175136167
 51
108.2000638067
  0
POLYLINE
  5
D9
  8
0
  6
CONTINUOUS
 62
     7
 66
     1
 10
0.0
 20
0.0
 30
0.0
  0
VERTEX
  5
302
  8
0
  6
CONTINUOUS
 62
     7
 10
130.6779139885
 20
128.5634757717
 30
0.0
  0
VERTEX
  5
303
  8
0
  6
CONTINUOUS
 62
     7
 10
130.7492284587
 20
128.2951868742
 30
0.0
  0
VERTEX
  5
304
  8
0
  6
CONTINUOUS
 62
     7
 10
130.7854708472
 20
128.0325746682
 30
0.0
  0
VERTEX
  5
305
  8
0
  6
CONTINUOUS
 62
     7
 10
130.785475619
 20
127.7840846149
 30
0.0
  0
VERTEX
  5
306
  8
0
  6
CONTINUOUS
 62
     7
 10
130.7492426208
 20
127.5577080147
 30
0.0
  0
VERTEX
  5
307
  8
0
  6
CONTINUOUS
 62
     7
 10
130.6779370854
 20
127.3607250118
 30
0.0
  0
VERTEX
  5
308
  8
0
  6
CONTINUOUS
 62
     7
 10
130.5738521586
 20
127.1994704688
 30
0.0
  0
VERTEX
  5
309
  8
0
  6
CONTINUOUS
 62
     7
 10
130.4403351534
 20
127.0791302412
 30
0.0
  0
VERTEX
  5
30A
  8
0
  6
CONTINUOUS
 62
     7
 10
130.2816799015
 20
127.0035744031
 30
0.0
  0
SEQEND
  5
402
  8
0
  6
CONTINUOUS
 62
     7
  0
ARC
  5
DA
  8
0
  6
CONTINUOUS
 62
     7
 10
140.3861354512
 20
132.0164948566
 30
0.0
 40
10.3040237174047
 50
170.84242304
 51
199.5794496034
  0
ARC
  5
DB
  8
0
  6
CONTINUOUS
 62
     7
 10
130.9553515122
 20
121.3804231715
 30
0.0
 40
12.29835812047457
 50
87.3786689313
 51
93.4585147902
  0
ARC
  5
DC
  8
0
  6
CONTINUOUS
 62
     7
 10
120.5686747701
 20
125.1797045433
 30
0.0
 40
13.8527762956627
 50
14.2419101932
 51
37.7777232696
  0
ARC
  5
DD
  8
0
  6
CONTINUOUS
 62
     7
 10
136.0614024628
 20
129.0007988085
 30
0.0
 40
2.106605104230349
 50
191.3083872265
 51
248.5449571688
  0
ARC
  5
DE
  8
0
  6
CONTINUOUS
 62
     7
 10
132.3595498176
 20
115.2639680601
 30
0.0
 40
12.13555036235899
 50
75.2180513177
 51
76.0220796348
  0
POLYLINE
  5
DF
  8
0
  6
CONTINUOUS
 62
     7
 66
     1
 10
0.0
 20
0.0
 30
0.0
  0
VERTEX
  5
30B
  8
0
  6
CONTINUOUS
 62
     7
 10
136.371210499
 20
127.9786732617
 30
0.0
  0
VERTEX
  5
30C
  8
0
  6
CONTINUOUS
 62
     7
 10
136.3644084557
 20
127.7337263033
 30
0.0
  0
VERTEX
  5
30D
  8
0
  6
CONTINUOUS
 62
     7
 10
136.3214984649
 20
127.5123146276
 30
0.0
  0
VERTEX
  5
30E
  8
0
  6
CONTINUOUS
 62
     7
 10
136.243860488
 20
127.3215587096
 30
0.0
  0
VERTEX
  5
30F
  8
0
  6
CONTINUOUS
 62
     7
 10
136.1339913187
 20
127.1675931523
 30
0.0
  0
VERTEX
  5
310
  8
0
  6
CONTINUOUS
 62
     7
 10
135.9954242875
 20
127.0553694017
 30
0.0
  0
VERTEX
  5
311
  8
0
  6
CONTINUOUS
 62
     7
 10
135.8326156325
 20
126.9884965104
 30
0.0
  0
VERTEX
  5
312
  8
0
  6
CONTINUOUS
 62
     7
 10
135.6508011883
 20
126.969125073
 30
0.0
  0
VERTEX
  5
313
  8
0
  6
CONTINUOUS
 62
     7
 10
135.4558280055
 20
126.997878064
 30
0.0
  0
SEQEND
  5
401
  8
0
  6
CONTINUOUS
 62
     7
  0
ARC
  5
E0
  8
0
  6
CONTINUOUS
 62
     7
 10
142.5761897244
 20
128.5791150916
 30
0.0
 40
6.23396323203444
 50
145.140724041
 51
185.5271739451
  0
ARC
  5
E1
  8
0
  6
CONTINUOUS
 62
     7
 10
128.4312122466
 20
112.3181189372
 30
0.0
 40
21.78369504468311
 50
61.3586133928
 51
65.511284253
  0
ARC
  5
E2
  8
0
  6
CONTINUOUS
 62
     7
 10
128.0917738694
 20
126.4604432031
 30
0.0
 40
11.87381638694413
 50
358.6616043966
 51
24.7753107978
  0
ARC
  5
E3
  8
0
  6
CONTINUOUS
 62
     7
 10
142.3410230789
 20
126.1623705502
 30
0.0
 40
2.378762571418161
 50
179.5006220344
 51
232.0373650377
  0
ARC
  5
E4
  8
0
  6
CONTINUOUS
 62
     7
 10
128.2225302718
 20
107.0962291367
 30
0.0
 40
21.34652671272625
 50
53.0889987717
 51
53.6407694773
  0
POLYLINE
  5
E5
  8
0
  6
CONTINUOUS
 62
     7
 66
     1
 10
0.0
 20
0.0
 30
0.0
  0
VERTEX
  5
314
  8
0
  6
CONTINUOUS
 62
     7
 10
142.3378662924
 20
124.4166296547
 30
0.0
  0
VERTEX
  5
315
  8
0
  6
CONTINUOUS
 62
     7
 10
142.253983285
 20
124.2323155895
 30
0.0
  0
VERTEX
  5
316
  8
0
  6
CONTINUOUS
 62
     7
 10
142.1384535722
 20
124.0858123645
 30
0.0
  0
VERTEX
  5
317
  8
0
  6
CONTINUOUS
 62
     7
 10
141.9949925248
 20
123.9818314411
 30
0.0
  0
VERTEX
  5
318
  8
0
  6
CONTINUOUS
 62
     7
 10
141.8282137693
 20
123.9237167872
 30
0.0
  0
VERTEX
  5
319
  8
0
  6
CONTINUOUS
 62
     7
 10
141.6434808168
 20
123.9133373376
 30
0.0
  0
VERTEX
  5
31A
  8
0
  6
CONTINUOUS
 62
     7
 10
141.4467345753
 20
123.9510268894
 30
0.0
  0
VERTEX
  5
31B
  8
0
  6
CONTINUOUS
 62
     7
 10
141.2443022932
 20
124.035573368
 30
0.0
  0
VERTEX
  5
31C
  8
0
  6
CONTINUOUS
 62
     7
 10
141.0426940791
 20
124.1642578059
 30
0.0
  0
SEQEND
  5
400
  8
0
  6
CONTINUOUS
 62
     7
  0
ARC
  5
E6
  8
0
  6
CONTINUOUS
 62
     7
 10
145.9772296899
 20
123.4293910418
 30
0.0
 40
3.770889287401808
 50
107.9395427902
 51
164.8227937019
  0
ARC
  5
E7
  8
0
  6
CONTINUOUS
 62
     7
 10
120.5354213126
 20
101.6083196987
 30
0.0
 40
35.14445212145792
 50
43.2821155351
 51
46.3008105626
  0
ARC
  5
E8
  8
0
  6
CONTINUOUS
 62
     7
 10
138.4762814417
 20
124.1325932402
 30
0.0
 40
7.80349679490261
 50
336.9288711781
 51
11.6100508468
  0
ARC
  5
E9
  8
0
  6
CONTINUOUS
 62
     7
 10
147.5997268509
 20
120.4502028709
 30
0.0
 40
2.041893275668204
 50
162.1938397909
 51
220.707917319
  0
ARC
  5
EA
  8
0
  6
CONTINUOUS
 62
     7
 10
121.863071903
 20
100.625438147
 30
0.0
 40
30.44816692028796
 50
36.9634974939
 51
37.3989448072
  0
POLYLINE
  5
EB
  8
0
  6
CONTINUOUS
 62
     7
 66
     1
 10
0.0
 20
0.0
 30
0.0
  0
VERTEX
  5
31D
  8
0
  6
CONTINUOUS
 62
     7
 10
147.6695121122
 20
118.4196337999
 30
0.0
  0
VERTEX
  5
31E
  8
0
  6
CONTINUOUS
 62
     7
 10
147.5213185681
 20
118.3240127735
 30
0.0
  0
VERTEX
  5
31F
  8
0
  6
CONTINUOUS
 62
     7
 10
147.3507574847
 20
118.2747217872
 30
0.0
  0
VERTEX
  5
320
  8
0
  6
CONTINUOUS
 62
     7
 10
147.1633140107
 20
118.2733460113
 30
0.0
  0
VERTEX
  5
321
  8
0
  6
CONTINUOUS
 62
     7
 10
146.9650162228
 20
118.3199296901
 30
0.0
  0
VERTEX
  5
322
  8
0
  6
CONTINUOUS
 62
     7
 10
146.7622412664
 20
118.4129747186
 30
0.0
  0
VERTEX
  5
323
  8
0
  6
CONTINUOUS
 62
     7
 10
146.5615102702
 20
118.549488821
 30
0.0
  0
VERTEX
  5
324
  8
0
  6
CONTINUOUS
 62
     7
 10
146.3692786301
 20
118.7250817805
 30
0.0
  0
VERTEX
  5
325
  8
0
  6
CONTINUOUS
 62
     7
 10
146.1917284077
 20
118.9341066262
 30
0.0
  0
SEQEND
  5
3FF
  8
0
  6
CONTINUOUS
 62
     7
  0
ARC
  5
EC
  8
0
  6
CONTINUOUS
 62
     7
 10
149.9900400768
 20
115.6057254798
 30
0.0
 40
3.647318202290577
 50
71.3170848255
 51
129.5111632614
  0
ARC
  5
ED
  8
0
  6
CONTINUOUS
 62
     7
 10
113.8941145757
 20
96.3048400022
 30
0.0
 40
43.66305169791608
 50
28.7989849187
 51
31.4109787346
  0
ARC
  5
EE
  8
0
  6
CONTINUOUS
 62
     7
 10
147.6824189186
 20
117.756216763
 30
0.0
 40
4.493702519737202
 50
304.2089016808
 51
354.672684858
  0
ARC
  5
EF
  8
0
  6
CONTINUOUS
 62
     7
 10
151.191829717
 20
113.0662140221
 30
0.0
 40
1.383638935540256
 50
135.2710474477
 51
212.5549840341
  0
ARC
  5
F0
  8
0
  6
CONTINUOUS
 62
     7
 10
119.9387019478
 20
99.296195442
 30
0.0
 40
32.7854232739104
 50
22.9946590964
 51
23.4091571038
  0
ARC
  5
F1
  8
0
  6
CONTINUOUS
 62
     7
 10
151.7571483528
 20
112.6003988664
 30
0.0
 40
1.711768120846439
 50
196.8690951086
 51
263.1994943363
  0
ARC
  5
F2
  8
0
  6
CONTINUOUS
 62
     7
 10
151.6988917833
 20
105.0342316497
 30
0.0
 40
5.868220156258235
 50
49.3305657649
 51
91.4104031663
  0
ARC
  5
F3
  8
0
  6
CONTINUOUS
 62
     7
 10
116.7076366271
 20
97.2444260566
 30
0.0
 40
40.69990001265492
 50
14.7657276133
 51
17.5030253962
  0
ARC
  5
F4
  8
0
  6
CONTINUOUS
 62
     7
 10
153.2464843717
 20
109.5532875654
 30
0.0
 40
3.417986696883228
 50
264.665659016
 51
325.5037592316
  0
POLYLINE
  5
F5
  8
0
  6
CONTINUOUS
 62
     7
 66
     1
 10
0.0
 20
0.0
 30
0.0
  0
VERTEX
  5
326
  8
0
  6
CONTINUOUS
 62
     7
 10
152.1939105388
 20
104.9312544073
 30
0.0
  0
VERTEX
  5
327
  8
0
  6
CONTINUOUS
 62
     7
 10
152.1711463439
 20
105.189555131
 30
0.0
  0
VERTEX
  5
328
  8
0
  6
CONTINUOUS
 62
     7
 10
152.1847570663
 20
105.4306776691
 30
0.0
  0
VERTEX
  5
329
  8
0
  6
CONTINUOUS
 62
     7
 10
152.2343049929
 20
105.6468676561
 30
0.0
  0
VERTEX
  5
32A
  8
0
  6
CONTINUOUS
 62
     7
 10
152.3181966901
 20
105.8311725436
 30
0.0
  0
VERTEX
  5
32B
  8
0
  6
CONTINUOUS
 62
     7
 10
152.433734248
 20
105.97766519
 30
0.0
  0
VERTEX
  5
32C
  8
0
  6
CONTINUOUS
 62
     7
 10
152.5772020439
 20
106.0816344742
 30
0.0
  0
VERTEX
  5
32D
  8
0
  6
CONTINUOUS
 62
     7
 10
152.7439862339
 20
106.1397368024
 30
0.0
  0
VERTEX
  5
32E
  8
0
  6
CONTINUOUS
 62
     7
 10
152.9287231324
 20
106.1501036364
 30
0.0
  0
SEQEND
  5
3FE
  8
0
  6
CONTINUOUS
 62
     7
  0
ARC
  5
F6
  8
0
  6
CONTINUOUS
 62
     7
 10
126.0205113828
 20
100.8879815145
 30
0.0
 40
26.48386072807736
 50
8.303765305
 51
8.7816491326
  0
POLYLINE
  5
F7
  8
0
  6
CONTINUOUS
 62
     7
 66
     1
 10
0.0
 20
0.0
 30
0.0
  0
VERTEX
  5
32F
  8
0
  6
CONTINUOUS
 62
     7
 10
138.1667806786
 20
97.5972416023
 30
0.0
  0
VERTEX
  5
330
  8
0
  6
CONTINUOUS
 62
     7
 10
138.9944623317
 20
97.2309674157
 30
0.0
  0
VERTEX
  5
331
  8
0
  6
CONTINUOUS
 62
     7
 10
139.8148702887
 20
96.9630453396
 30
0.0
  0
VERTEX
  5
332
  8
0
  6
CONTINUOUS
 62
     7
 10
140.620794775
 20
96.7958298829
 30
0.0
  0
VERTEX
  5
333
  8
0
  6
CONTINUOUS
 62
     7
 10
141.4051532971
 20
96.7307905411
 30
0.0
  0
VERTEX
  5
334
  8
0
  6
CONTINUOUS
 62
     7
 10
142.1610528842
 20
96.7684988822
 30
0.0
  0
VERTEX
  5
335
  8
0
  6
CONTINUOUS
 62
     7
 10
142.8818506636
 20
96.9086235239
 30
0.0
  0
VERTEX
  5
336
  8
0
  6
CONTINUOUS
 62
     7
 10
143.5612122384
 20
97.149933046
 30
0.0
  0
VERTEX
  5
337
  8
0
  6
CONTINUOUS
 62
     7
 10
144.1931673547
 20
97.4903068115
 30
0.0
  0
VERTEX
  5
338
  8
0
  6
CONTINUOUS
 62
     7
 10
144.7721623682
 20
97.9267536037
 30
0.0
  0
VERTEX
  5
339
  8
0
  6
CONTINUOUS
 62
     7
 10
145.2931090499
 20
98.4554379124
 30
0.0
  0
VERTEX
  5
33A
  8
0
  6
CONTINUOUS
 62
     7
 10
145.7514293016
 20
99.071713641
 30
0.0
  0
VERTEX
  5
33B
  8
0
  6
CONTINUOUS
 62
     7
 10
146.1430953885
 20
99.770164936
 30
0.0
  0
VERTEX
  5
33C
  8
0
  6
CONTINUOUS
 62
     7
 10
146.464665335
 20
100.5446537826
 30
0.0
  0
VERTEX
  5
33D
  8
0
  6
CONTINUOUS
 62
     7
 10
146.7133131727
 20
101.3883739447
 30
0.0
  0
VERTEX
  5
33E
  8
0
  6
CONTINUOUS
 62
     7
 10
146.8868537756
 20
102.2939107794
 30
0.0
  0
VERTEX
  5
33F
  8
0
  6
CONTINUOUS
 62
     7
 10
146.9837620625
 20
103.2533063963
 30
0.0
  0
VERTEX
  5
340
  8
0
  6
CONTINUOUS
 62
     7
 10
147.0031864
 20
104.2581295923
 30
0.0
  0
VERTEX
  5
341
  8
0
  6
CONTINUOUS
 62
     7
 10
146.9449560864
 20
105.2995499449
 30
0.0
  0
VERTEX
  5
342
  8
0
  6
CONTINUOUS
 62
     7
 10
146.8095828516
 20
106.3684154148
 30
0.0
  0
VERTEX
  5
343
  8
0
  6
CONTINUOUS
 62
     7
 10
146.5982563605
 20
107.4553327736
 30
0.0
  0
VERTEX
  5
344
  8
0
  6
CONTINUOUS
 62
     7
 10
146.312833758
 20
108.5507501526
 30
0.0
  0
VERTEX
  5
345
  8
0
  6
CONTINUOUS
 62
     7
 10
145.9558233482
 20
109.6450409845
 30
0.0
  0
VERTEX
  5
346
  8
0
  6
CONTINUOUS
 62
     7
 10
145.5303625513
 20
110.728588602
 30
0.0
  0
VERTEX
  5
347
  8
0
  6
CONTINUOUS
 62
     7
 10
145.0401903321
 20
111.7918707498
 30
0.0
  0
VERTEX
  5
348
  8
0
  6
CONTINUOUS
 62
     7
 10
144.4896143417
 20
112.8255432661
 30
0.0
  0
VERTEX
  5
349
  8
0
  6
CONTINUOUS
 62
     7
 10
143.8834730618
 20
113.8205221997
 30
0.0
  0
VERTEX
  5
34A
  8
0
  6
CONTINUOUS
 62
     7
 10
143.2270932837
 20
114.7680636399
 30
0.0
  0
VERTEX
  5
34B
  8
0
  6
CONTINUOUS
 62
     7
 10
142.5262432964
 20
115.6598405585
 30
0.0
  0
VERTEX
  5
34C
  8
0
  6
CONTINUOUS
 62
     7
 10
141.7870821949
 20
116.4880159878
 30
0.0
  0
VERTEX
  5
34D
  8
0
  6
CONTINUOUS
 62
     7
 10
141.0161057535
 20
117.2453118924
 30
0.0
  0
VERTEX
  5
34E
  8
0
  6
CONTINUOUS
 62
     7
 10
140.2200893409
 20
117.9250731287
 30
0.0
  0
VERTEX
  5
34F
  8
0
  6
CONTINUOUS
 62
     7
 10
139.4060283779
 20
118.5213259305
 30
0.0
  0
VERTEX
  5
350
  8
0
  6
CONTINUOUS
 62
     7
 10
138.5810768616
 20
119.0288304067
 30
0.0
  0
VERTEX
  5
351
  8
0
  6
CONTINUOUS
 62
     7
 10
137.7524844956
 20
119.4431265897
 30
0.0
  0
VERTEX
  5
352
  8
0
  6
CONTINUOUS
 62
     7
 10
136.9275329793
 20
119.7605736298
 30
0.0
  0
VERTEX
  5
353
  8
0
  6
CONTINUOUS
 62
     7
 10
136.1134720163
 20
119.978381791
 30
0.0
  0
VERTEX
  5
354
  8
0
  6
CONTINUOUS
 62
     7
 10
135.3174556037
 20
120.0946369673
 30
0.0
  0
VERTEX
  5
355
  8
0
  6
CONTINUOUS
 62
     7
 10
134.5464791623
 20
120.1083175041
 30
0.0
  0
VERTEX
  5
356
  8
0
  6
CONTINUOUS
 62
     7
 10
133.8073180608
 20
120.0193031762
 30
0.0
  0
VERTEX
  5
357
  8
0
  6
CONTINUOUS
 62
     7
 10
133.1064680736
 20
119.8283762449
 30
0.0
  0
VERTEX
  5
358
  8
0
  6
CONTINUOUS
 62
     7
 10
132.4500882954
 20
119.5372145829
 30
0.0
  0
VERTEX
  5
359
  8
0
  6
CONTINUOUS
 62
     7
 10
131.8439470155
 20
119.1483769292
 30
0.0
  0
VERTEX
  5
35A
  8
0
  6
CONTINUOUS
 62
     7
 10
131.2933710252
 20
118.6652804033
 30
0.0
  0
VERTEX
  5
35B
  8
0
  6
CONTINUOUS
 62
     7
 10
130.803198806
 20
118.0921704746
 30
0.0
  0
VERTEX
  5
35C
  8
0
  6
CONTINUOUS
 62
     7
 10
130.3777380091
 20
117.434083654
 30
0.0
  0
VERTEX
  5
35D
  8
0
  6
CONTINUOUS
 62
     7
 10
130.0207275992
 20
116.696803232
 30
0.0
  0
VERTEX
  5
35E
  8
0
  6
CONTINUOUS
 62
     7
 10
129.7353049967
 20
115.8868084555
 30
0.0
  0
VERTEX
  5
35F
  8
0
  6
CONTINUOUS
 62
     7
 10
129.5239785057
 20
115.0112175877
 30
0.0
  0
VERTEX
  5
360
  8
0
  6
CONTINUOUS
 62
     7
 10
129.3886052709
 20
114.0777253527
 30
0.0
  0
VERTEX
  5
361
  8
0
  6
CONTINUOUS
 62
     7
 10
129.3303749572
 20
113.0945353137
 30
0.0
  0
VERTEX
  5
362
  8
0
  6
CONTINUOUS
 62
     7
 10
129.3497992947
 20
112.0702877802
 30
0.0
  0
VERTEX
  5
363
  8
0
  6
CONTINUOUS
 62
     7
 10
129.4467075817
 20
111.0139838763
 30
0.0
  0
VERTEX
  5
364
  8
0
  6
CONTINUOUS
 62
     7
 10
129.6202481845
 20
109.9349064388
 30
0.0
  0
VERTEX
  5
365
  8
0
  6
CONTINUOUS
 62
     7
 10
129.8688960223
 20
108.8425384389
 30
0.0
  0
VERTEX
  5
366
  8
0
  6
CONTINUOUS
 62
     7
 10
130.1904659687
 20
107.7464796459
 30
0.0
  0
VERTEX
  5
367
  8
0
  6
CONTINUOUS
 62
     7
 10
130.5821320557
 20
106.6563622639
 30
0.0
  0
VERTEX
  5
368
  8
0
  6
CONTINUOUS
 62
     7
 10
131.0404523074
 20
105.5817662837
 30
0.0
  0
VERTEX
  5
369
  8
0
  6
CONTINUOUS
 62
     7
 10
131.5613989891
 20
104.5321352933
 30
0.0
  0
VERTEX
  5
36A
  8
0
  6
CONTINUOUS
 62
     7
 10
132.1403940026
 20
103.5166934876
 30
0.0
  0
VERTEX
  5
36B
  8
0
  6
CONTINUOUS
 62
     7
 10
132.7723491188
 20
102.5443646058
 30
0.0
  0
VERTEX
  5
36C
  8
0
  6
CONTINUOUS
 62
     7
 10
133.4517106936
 20
101.6236935089
 30
0.0
  0
VERTEX
  5
36D
  8
0
  6
CONTINUOUS
 62
     7
 10
134.172508473
 20
100.7627710878
 30
0.0
  0
VERTEX
  5
36E
  8
0
  6
CONTINUOUS
 62
     7
 10
134.9284080601
 20
99.9691631596
 30
0.0
  0
VERTEX
  5
36F
  8
0
  6
CONTINUOUS
 62
     7
 10
135.7127665822
 20
99.2498439793
 30
0.0
  0
VERTEX
  5
370
  8
0
  6
CONTINUOUS
 62
     7
 10
136.5186910685
 20
98.6111349497
 30
0.0
  0
VERTEX
  5
371
  8
0
  6
CONTINUOUS
 62
     7
 10
137.3390990255
 20
98.0586490688
 30
0.0
  0
VERTEX
  5
372
  8
0
  6
CONTINUOUS
 62
     7
 10
138.1667806786
 20
97.5972416023
 30
0.0
  0
SEQEND
  5
3FD
  8
0
  6
CONTINUOUS
 62
     7
  0
LINE
  5
F8
  8
0
  6
CONTINUOUS
 62
     7
 10
156.815241703
 20
121.8892784309
 30
0.0
 11
151.1583874535
 21
119.0608513062
 31
0.0
  0
LINE
  5
F9
  8
0
  6
CONTINUOUS
 62
     7
 10
157.8135653571
 20
120.1674248285
 30
0.0
 11
152.1567111076
 21
117.3389977038
 31
0.0
  0
ARC
  5
FA
  8
0
  6
CONTINUOUS
 62
     7
 10
119.5509688254
 20
99.1332671271
 30
0.0
 40
43.66305169765146
 50
28.7989849187
 51
31.4109787346
  0
LINE
  5
FB
  8
0
  6
CONTINUOUS
 62
     7
 10
150.2088318124
 20
114.0399551702
 30
0.0
 11
155.8656860619
 21
116.8683822949
 31
0.0
  0
ARC
  5
FC
  8
0
  6
CONTINUOUS
 62
     7
 10
153.3392731681
 20
120.5846438877
 30
0.0
 40
4.493702519736996
 50
304.2089016808
 51
354.672684858
  0
ARC
  5
FD
  8
0
  6
CONTINUOUS
 62
     7
 10
155.6365368015
 20
118.3139402505
 30
0.0
 40
3.764623267927557
 50
71.7538276963
 51
115.4313336519
  0
LINE
  5
FE
  8
0
  6
CONTINUOUS
 62
     7
 10
161.1800291169
 20
112.3135987532
 30
0.0
 11
155.5231748675
 21
109.4851716285
 31
0.0
  0
LINE
  5
FF
  8
0
  6
CONTINUOUS
 62
     7
 10
161.7203179852
 20
110.4459305279
 30
0.0
 11
156.0634637357
 21
107.6175034032
 31
0.0
  0
ARC
  5
100
  8
0
  6
CONTINUOUS
 62
     7
 10
122.3644908767
 20
100.0728531814
 30
0.0
 40
40.69990001262752
 50
14.7657276133
 51
17.5030253962
  0
LINE
  5
101
  8
0
  6
CONTINUOUS
 62
     7
 10
157.2113074631
 20
113.7291010781
 30
0.0
 11
151.5544532136
 21
110.9006739533
 31
0.0
  0
ARC
  5
102
  8
0
  6
CONTINUOUS
 62
     7
 10
157.3557460328
 20
107.8626587745
 30
0.0
 40
5.868220156258181
 50
49.3305657649
 51
91.4104031663
  0
ARC
  5
103
  8
0
  6
CONTINUOUS
 62
     7
 10
158.8570847414
 20
112.4237012584
 30
0.0
 40
3.479896790322255
 50
296.9889319567
 51
325.3653263175
  0
LINE
  5
104
  8
0
  6
CONTINUOUS
 62
     7
 10
150.4725999267
 20
129.8453745642
 30
0.0
 11
144.8157456772
 21
127.0169474394
 31
0.0
  0
LINE
  5
105
  8
0
  6
CONTINUOUS
 62
     7
 10
151.7769726402
 20
128.5314721869
 30
0.0
 11
146.1201183907
 21
125.7030450622
 31
0.0
  0
ARC
  5
106
  8
0
  6
CONTINUOUS
 62
     7
 10
126.1922755622
 20
104.4367468235
 30
0.0
 40
35.14445212140027
 50
43.2821155351
 51
46.3008105626
  0
LINE
  5
107
  8
0
  6
CONTINUOUS
 62
     7
 10
145.6556473687
 20
121.0746090816
 30
0.0
 11
151.3125016182
 21
123.9030362064
 31
0.0
  0
ARC
  5
108
  8
0
  6
CONTINUOUS
 62
     7
 10
144.1331356912
 20
126.9610203649
 30
0.0
 40
7.803496794901835
 50
336.9288711781
 51
11.6100508468
  0
POLYLINE
  5
109
  8
0
  6
CONTINUOUS
 62
     7
 66
     1
 10
0.0
 20
0.0
 30
0.0
  0
VERTEX
  5
373
  8
0
  6
CONTINUOUS
 62
     7
 10
150.4725999267
 20
129.8453745642
 30
0.0
  0
VERTEX
  5
374
  8
0
  6
CONTINUOUS
 62
     7
 10
150.0559795431
 20
129.696293103
 30
0.0
  0
VERTEX
  5
375
  8
0
  6
CONTINUOUS
 62
     7
 10
149.9015257633
 20
129.6240699084
 30
0.0
  0
SEQEND
  5
3FC
  8
0
  6
CONTINUOUS
 62
     7
  0
LINE
  5
10A
  8
0
  6
CONTINUOUS
 62
     7
 10
162.9024628518
 20
102.5761459582
 30
0.0
 11
157.2456086023
 21
99.7477188334
 31
0.0
  0
LINE
  5
10B
  8
0
  6
CONTINUOUS
 62
     7
 10
159.0580967806
 20
105.8328707168
 30
0.0
 11
153.4012425311
 21
103.0044435921
 31
0.0
  0
ARC
  5
10C
  8
0
  6
CONTINUOUS
 62
     7
 10
154.81789054
 20
96.9301815195
 30
0.0
 40
9.86089366673853
 50
34.9290150617
 51
64.5322985028
  0
LINE
  5
10D
  8
0
  6
CONTINUOUS
 62
     7
 10
150.1190371909
 20
112.1036676307
 30
0.0
 11
155.7758914404
 21
114.9320947554
 31
0.0
  0
ARC
  5
10E
  8
0
  6
CONTINUOUS
 62
     7
 10
157.4140026023
 20
115.4288259911
 30
0.0
 40
1.711768120846403
 50
196.8690951086
 51
263.1994943363
  0
LINE
  5
10F
  8
0
  6
CONTINUOUS
 62
     7
 10
155.6824486945
 20
115.1500929655
 30
0.0
 11
150.025594445
 21
112.3216658407
 31
0.0
  0
ARC
  5
110
  8
0
  6
CONTINUOUS
 62
     7
 10
156.8486839665
 20
115.8946411468
 30
0.0
 40
1.383638935540169
 50
135.2710474477
 51
212.5549840341
  0
LINE
  5
111
  8
0
  6
CONTINUOUS
 62
     7
 10
162.9024628518
 20
100.8469986668
 30
0.0
 11
157.2456086023
 21
98.0185715421
 31
0.0
  0
ARC
  5
112
  8
0
  6
CONTINUOUS
 62
     7
 10
134.2828610761
 20
101.7115723125
 30
0.0
 40
28.63265781211201
 50
358.2696698313
 51
1.7303301687
  0
LINE
  5
113
  8
0
  6
CONTINUOUS
 62
     7
 10
146.1917284077
 20
118.9341066262
 30
0.0
 11
151.8485826572
 21
121.762533751
 31
0.0
  0
ARC
  5
114
  8
0
  6
CONTINUOUS
 62
     7
 10
153.1360434477
 20
122.6070974007
 30
0.0
 40
1.539754215970717
 50
213.2645440355
 51
257.4275455804
  0
LINE
  5
115
  8
0
  6
CONTINUOUS
 62
     7
 10
151.7087357052
 20
121.9469007507
 30
0.0
 11
146.0518814557
 21
119.118473626
 31
0.0
  0
ARC
  5
116
  8
0
  6
CONTINUOUS
 62
     7
 10
153.2565811004
 20
123.2786299956
 30
0.0
 40
2.041893275668263
 50
162.1938397909
 51
220.707917319
  0
ARC
  5
117
  8
0
  6
CONTINUOUS
 62
     7
 10
125.5955561999
 20
102.1246225679
 30
0.0
 40
32.78542327104709
 50
22.9946590964
 51
23.4091571038
  0
LINE
  5
118
  8
0
  6
CONTINUOUS
 62
     7
 10
157.8507647883
 20
107.759681532
 30
0.0
 11
152.1939105388
 21
104.9312544073
 31
0.0
  0
POLYLINE
  5
119
  8
0
  6
CONTINUOUS
 62
     7
 66
     1
 10
0.0
 20
0.0
 30
0.0
  0
VERTEX
  5
376
  8
0
  6
CONTINUOUS
 62
     7
 10
157.8279890752
 20
108.0186170075
 30
0.0
  0
VERTEX
  5
377
  8
0
  6
CONTINUOUS
 62
     7
 10
157.8280005934
 20
108.0179822558
 30
0.0
  0
VERTEX
  5
378
  8
0
  6
CONTINUOUS
 62
     7
 10
157.8507647883
 20
107.759681532
 30
0.0
  0
SEQEND
  5
3FB
  8
0
  6
CONTINUOUS
 62
     7
  0
ARC
  5
11A
  8
0
  6
CONTINUOUS
 62
     7
 10
127.5199261566
 20
103.4538652748
 30
0.0
 40
30.4481669151225
 50
36.9634974939
 51
37.3989448072
  0
LINE
  5
11B
  8
0
  6
CONTINUOUS
 62
     7
 10
152.2267232675
 20
104.7128132382
 30
0.0
 11
157.883577517
 21
107.5412403629
 31
0.0
  0
ARC
  5
11C
  8
0
  6
CONTINUOUS
 62
     7
 10
160.139596885
 20
107.8343426395
 30
0.0
 40
2.27497963355524
 50
187.402410598
 51
241.6153246014
  0
LINE
  5
11D
  8
0
  6
CONTINUOUS
 62
     7
 10
144.5295563538
 20
134.2647222132
 30
0.0
 11
138.8727021043
 21
131.4362950884
 31
0.0
  0
LINE
  5
11E
  8
0
  6
CONTINUOUS
 62
     7
 10
139.9623508582
 20
126.1831030821
 30
0.0
 11
145.6192051077
 21
129.0115302068
 31
0.0
  0
ARC
  5
11F
  8
0
  6
CONTINUOUS
 62
     7
 10
133.7486281189
 20
129.2888703278
 30
0.0
 40
11.87381638694337
 50
358.6616043966
 51
24.7753107978
  0
ARC
  5
120
  8
0
  6
CONTINUOUS
 62
     7
 10
131.6773656358
 20
103.7164086398
 30
0.0
 40
26.48386072444587
 50
8.303765305
 51
8.7816491327
  0
LINE
  5
121
  8
0
  6
CONTINUOUS
 62
     7
 10
143.1177135025
 20
134.9706436388
 30
0.0
 11
137.460859253
 21
132.1422165141
 31
0.0
  0
ARC
  5
122
  8
0
  6
CONTINUOUS
 62
     7
 10
134.0880664961
 20
115.146546062
 30
0.0
 40
21.78369504463908
 50
61.3586133928
 51
65.511284253
  0
ARC
  5
123
  8
0
  6
CONTINUOUS
 62
     7
 10
142.7898972167
 20
103.8319855038
 30
0.0
 40
6.391543666581611
 50
239.8639849768
 51
284.9073333427
  0
POLYLINE
  5
124
  8
0
  6
CONTINUOUS
 62
     7
 66
     1
 10
0.0
 20
0.0
 30
0.0
  0
VERTEX
  5
379
  8
0
  6
CONTINUOUS
 62
     7
 10
133.3136116873
 20
119.8966640853
 30
0.0
  0
VERTEX
  5
37A
  8
0
  6
CONTINUOUS
 62
     7
 10
133.2581605779
 20
119.8554837104
 30
0.0
  0
VERTEX
  5
37B
  8
0
  6
CONTINUOUS
 62
     7
 10
132.7075845875
 20
119.3723871844
 30
0.0
  0
VERTEX
  5
37C
  8
0
  6
CONTINUOUS
 62
     7
 10
132.2174123684
 20
118.7992772558
 30
0.0
  0
VERTEX
  5
37D
  8
0
  6
CONTINUOUS
 62
     7
 10
131.7919515714
 20
118.1411904352
 30
0.0
  0
VERTEX
  5
37E
  8
0
  6
CONTINUOUS
 62
     7
 10
131.4349411616
 20
117.4039100132
 30
0.0
  0
VERTEX
  5
37F
  8
0
  6
CONTINUOUS
 62
     7
 10
131.1495185591
 20
116.5939152367
 30
0.0
  0
VERTEX
  5
380
  8
0
  6
CONTINUOUS
 62
     7
 10
130.938192068
 20
115.7183243689
 30
0.0
  0
VERTEX
  5
381
  8
0
  6
CONTINUOUS
 62
     7
 10
130.8028188332
 20
114.7848321339
 30
0.0
  0
VERTEX
  5
382
  8
0
  6
CONTINUOUS
 62
     7
 10
130.7445885196
 20
113.8016420949
 30
0.0
  0
VERTEX
  5
383
  8
0
  6
CONTINUOUS
 62
     7
 10
130.7640128571
 20
112.7773945614
 30
0.0
  0
VERTEX
  5
384
  8
0
  6
CONTINUOUS
 62
     7
 10
130.8609211441
 20
111.7210906575
 30
0.0
  0
VERTEX
  5
385
  8
0
  6
CONTINUOUS
 62
     7
 10
131.0344617469
 20
110.64201322
 30
0.0
  0
VERTEX
  5
386
  8
0
  6
CONTINUOUS
 62
     7
 10
131.2831095847
 20
109.5496452201
 30
0.0
  0
VERTEX
  5
387
  8
0
  6
CONTINUOUS
 62
     7
 10
131.6046795311
 20
108.4535864271
 30
0.0
  0
VERTEX
  5
388
  8
0
  6
CONTINUOUS
 62
     7
 10
131.996345618
 20
107.3634690451
 30
0.0
  0
VERTEX
  5
389
  8
0
  6
CONTINUOUS
 62
     7
 10
132.4546658698
 20
106.2888730649
 30
0.0
  0
VERTEX
  5
38A
  8
0
  6
CONTINUOUS
 62
     7
 10
132.9756125515
 20
105.2392420745
 30
0.0
  0
VERTEX
  5
38B
  8
0
  6
CONTINUOUS
 62
     7
 10
133.5546075649
 20
104.2238002688
 30
0.0
  0
VERTEX
  5
38C
  8
0
  6
CONTINUOUS
 62
     7
 10
134.1865626812
 20
103.2514713869
 30
0.0
  0
VERTEX
  5
38D
  8
0
  6
CONTINUOUS
 62
     7
 10
134.865924256
 20
102.3308002901
 30
0.0
  0
VERTEX
  5
38E
  8
0
  6
CONTINUOUS
 62
     7
 10
135.5867220354
 20
101.469877869
 30
0.0
  0
VERTEX
  5
38F
  8
0
  6
CONTINUOUS
 62
     7
 10
136.3426216225
 20
100.6762699408
 30
0.0
  0
VERTEX
  5
390
  8
0
  6
CONTINUOUS
 62
     7
 10
137.1269801446
 20
99.9569507605
 30
0.0
  0
VERTEX
  5
391
  8
0
  6
CONTINUOUS
 62
     7
 10
137.9329046309
 20
99.3182417309
 30
0.0
  0
VERTEX
  5
392
  8
0
  6
CONTINUOUS
 62
     7
 10
138.7533125879
 20
98.76575585
 30
0.0
  0
VERTEX
  5
393
  8
0
  6
CONTINUOUS
 62
     7
 10
139.580994241
 20
98.3043483835
 30
0.0
  0
SEQEND
  5
3FA
  8
0
  6
CONTINUOUS
 62
     7
  0
ARC
  5
125
  8
0
  6
CONTINUOUS
 62
     7
 10
147.9697177998
 20
128.9866532969
 30
0.0
 40
2.350644332111626
 50
179.3936264482
 51
213.7452540572
  0
POLYLINE
  5
126
  8
0
  6
CONTINUOUS
 62
     7
 66
     1
 10
0.0
 20
0.0
 30
0.0
  0
VERTEX
  5
394
  8
0
  6
CONTINUOUS
 62
     7
 10
139.580994241
 20
106.5315897194
 30
0.0
  0
VERTEX
  5
395
  8
0
  6
CONTINUOUS
 62
     7
 10
139.9948433099
 20
106.3745864909
 30
0.0
  0
VERTEX
  5
396
  8
0
  6
CONTINUOUS
 62
     7
 10
140.3927883912
 20
106.3234594201
 30
0.0
  0
VERTEX
  5
397
  8
0
  6
CONTINUOUS
 62
     7
 10
140.7595366786
 20
106.3801732918
 30
0.0
  0
VERTEX
  5
398
  8
0
  6
CONTINUOUS
 62
     7
 10
141.080994241
 20
106.5425486237
 30
0.0
  0
VERTEX
  5
399
  8
0
  6
CONTINUOUS
 62
     7
 10
141.3448076446
 20
106.8043454228
 30
0.0
  0
VERTEX
  5
39A
  8
0
  6
CONTINUOUS
 62
     7
 10
141.5408386883
 20
107.155502985
 30
0.0
  0
VERTEX
  5
39B
  8
0
  6
CONTINUOUS
 62
     7
 10
141.661554009
 20
107.5825265221
 30
0.0
  0
VERTEX
  5
39C
  8
0
  6
CONTINUOUS
 62
     7
 10
141.7023145846
 20
108.069005759
 30
0.0
  0
VERTEX
  5
39D
  8
0
  6
CONTINUOUS
 62
     7
 10
141.661554009
 20
108.5962455715
 30
0.0
  0
VERTEX
  5
39E
  8
0
  6
CONTINUOUS
 62
     7
 10
141.5408386883
 20
109.1439844292
 30
0.0
  0
VERTEX
  5
39F
  8
0
  6
CONTINUOUS
 62
     7
 10
141.3448076446
 20
109.6911730351
 30
0.0
  0
VERTEX
  5
3A0
  8
0
  6
CONTINUOUS
 62
     7
 10
141.080994241
 20
110.2167832379
 30
0.0
  0
VERTEX
  5
3A1
  8
0
  6
CONTINUOUS
 62
     7
 10
140.7595366786
 20
110.7006161322
 30
0.0
  0
VERTEX
  5
3A2
  8
0
  6
CONTINUOUS
 62
     7
 10
140.3927883912
 20
111.1240782913
 30
0.0
  0
VERTEX
  5
3A3
  8
0
  6
CONTINUOUS
 62
     7
 10
139.9948433099
 20
111.4708963018
 30
0.0
  0
VERTEX
  5
3A4
  8
0
  6
CONTINUOUS
 62
     7
 10
139.580994241
 20
111.7277421421
 30
0.0
  0
VERTEX
  5
3A5
  8
0
  6
CONTINUOUS
 62
     7
 10
139.1671451721
 20
111.8847453707
 30
0.0
  0
VERTEX
  5
3A6
  8
0
  6
CONTINUOUS
 62
     7
 10
138.7692000908
 20
111.9358724415
 30
0.0
  0
VERTEX
  5
3A7
  8
0
  6
CONTINUOUS
 62
     7
 10
138.4024518034
 20
111.8791585698
 30
0.0
  0
VERTEX
  5
3A8
  8
0
  6
CONTINUOUS
 62
     7
 10
138.080994241
 20
111.7167832379
 30
0.0
  0
VERTEX
  5
3A9
  8
0
  6
CONTINUOUS
 62
     7
 10
137.8171808374
 20
111.4549864387
 30
0.0
  0
VERTEX
  5
3AA
  8
0
  6
CONTINUOUS
 62
     7
 10
137.6211497937
 20
111.1038288766
 30
0.0
  0
VERTEX
  5
3AB
  8
0
  6
CONTINUOUS
 62
     7
 10
137.500434473
 20
110.6768053395
 30
0.0
  0
VERTEX
  5
3AC
  8
0
  6
CONTINUOUS
 62
     7
 10
137.4596738974
 20
110.1903261026
 30
0.0
  0
VERTEX
  5
3AD
  8
0
  6
CONTINUOUS
 62
     7
 10
137.500434473
 20
109.6630862901
 30
0.0
  0
VERTEX
  5
3AE
  8
0
  6
CONTINUOUS
 62
     7
 10
137.6211497937
 20
109.1153474323
 30
0.0
  0
VERTEX
  5
3AF
  8
0
  6
CONTINUOUS
 62
     7
 10
137.8171808374
 20
108.5681588265
 30
0.0
  0
VERTEX
  5
3B0
  8
0
  6
CONTINUOUS
 62
     7
 10
138.080994241
 20
108.0425486237
 30
0.0
  0
VERTEX
  5
3B1
  8
0
  6
CONTINUOUS
 62
     7
 10
138.4024518034
 20
107.5587157294
 30
0.0
  0
VERTEX
  5
3B2
  8
0
  6
CONTINUOUS
 62
     7
 10
138.7692000908
 20
107.1352535703
 30
0.0
  0
VERTEX
  5
3B3
  8
0
  6
CONTINUOUS
 62
     7
 10
139.1671451721
 20
106.7884355598
 30
0.0
  0
VERTEX
  5
3B4
  8
0
  6
CONTINUOUS
 62
     7
 10
139.580994241
 20
106.5315897194
 30
0.0
  0
SEQEND
  5
3F9
  8
0
  6
CONTINUOUS
 62
     7
  0
POLYLINE
  5
127
  8
0
  6
CONTINUOUS
 62
     7
 66
     1
 10
0.0
 20
0.0
 30
0.0
  0
VERTEX
  5
3B5
  8
0
  6
CONTINUOUS
 62
     7
 10
133.2170332103
 20
111.8786337442
 30
0.0
  0
VERTEX
  5
3B6
  8
0
  6
CONTINUOUS
 62
     7
 10
133.3523322354
 20
111.843945361
 30
0.0
  0
VERTEX
  5
3B7
  8
0
  6
CONTINUOUS
 62
     7
 10
133.4670332103
 20
111.8804602283
 30
0.0
  0
VERTEX
  5
3B8
  8
0
  6
CONTINUOUS
 62
     7
 10
133.5436739515
 20
111.9826192885
 30
0.0
  0
VERTEX
  5
3B9
  8
0
  6
CONTINUOUS
 62
     7
 10
133.5705866009
 20
112.1348697508
 30
0.0
  0
VERTEX
  5
3BA
  8
0
  6
CONTINUOUS
 62
     7
 10
133.5436739515
 20
112.3140328625
 30
0.0
  0
VERTEX
  5
3BB
  8
0
  6
CONTINUOUS
 62
     7
 10
133.4670332103
 20
112.492832664
 30
0.0
  0
VERTEX
  5
3BC
  8
0
  6
CONTINUOUS
 62
     7
 10
133.3523322354
 20
112.6440485062
 30
0.0
  0
VERTEX
  5
3BD
  8
0
  6
CONTINUOUS
 62
     7
 10
133.2170332103
 20
112.744659148
 30
0.0
  0
VERTEX
  5
3BE
  8
0
  6
CONTINUOUS
 62
     7
 10
133.0817341853
 20
112.7793475312
 30
0.0
  0
VERTEX
  5
3BF
  8
0
  6
CONTINUOUS
 62
     7
 10
132.9670332103
 20
112.742832664
 30
0.0
  0
VERTEX
  5
3C0
  8
0
  6
CONTINUOUS
 62
     7
 10
132.8903924691
 20
112.6406736038
 30
0.0
  0
VERTEX
  5
3C1
  8
0
  6
CONTINUOUS
 62
     7
 10
132.8634798197
 20
112.4884231414
 30
0.0
  0
VERTEX
  5
3C2
  8
0
  6
CONTINUOUS
 62
     7
 10
132.8903924691
 20
112.3092600297
 30
0.0
  0
VERTEX
  5
3C3
  8
0
  6
CONTINUOUS
 62
     7
 10
132.9670332103
 20
112.1304602283
 30
0.0
  0
VERTEX
  5
3C4
  8
0
  6
CONTINUOUS
 62
     7
 10
133.0817341853
 20
111.979244386
 30
0.0
  0
VERTEX
  5
3C5
  8
0
  6
CONTINUOUS
 62
     7
 10
133.2170332103
 20
111.8786337442
 30
0.0
  0
SEQEND
  5
3F8
  8
0
  6
CONTINUOUS
 62
     7
  0
POLYLINE
  5
128
  8
0
  6
CONTINUOUS
 62
     7
 66
     1
 10
0.0
 20
0.0
 30
0.0
  0
VERTEX
  5
3C6
  8
0
  6
CONTINUOUS
 62
     7
 10
145.9449552717
 20
106.3806981173
 30
0.0
  0
VERTEX
  5
3C7
  8
0
  6
CONTINUOUS
 62
     7
 10
145.8096562466
 20
106.4153865006
 30
0.0
  0
VERTEX
  5
3C8
  8
0
  6
CONTINUOUS
 62
     7
 10
145.6949552717
 20
106.3788716333
 30
0.0
  0
VERTEX
  5
3C9
  8
0
  6
CONTINUOUS
 62
     7
 10
145.6183145305
 20
106.2767125731
 30
0.0
  0
VERTEX
  5
3CA
  8
0
  6
CONTINUOUS
 62
     7
 10
145.5914018811
 20
106.1244621107
 30
0.0
  0
VERTEX
  5
3CB
  8
0
  6
CONTINUOUS
 62
     7
 10
145.6183145305
 20
105.945298999
 30
0.0
  0
VERTEX
  5
3CC
  8
0
  6
CONTINUOUS
 62
     7
 10
145.6949552717
 20
105.7664991976
 30
0.0
  0
VERTEX
  5
3CD
  8
0
  6
CONTINUOUS
 62
     7
 10
145.8096562466
 20
105.6152833554
 30
0.0
  0
VERTEX
  5
3CE
  8
0
  6
CONTINUOUS
 62
     7
 10
145.9449552717
 20
105.5146727136
 30
0.0
  0
VERTEX
  5
3CF
  8
0
  6
CONTINUOUS
 62
     7
 10
146.0802542967
 20
105.4799843303
 30
0.0
  0
VERTEX
  5
3D0
  8
0
  6
CONTINUOUS
 62
     7
 10
146.1949552717
 20
105.5164991976
 30
0.0
  0
VERTEX
  5
3D1
  8
0
  6
CONTINUOUS
 62
     7
 10
146.2715960129
 20
105.6186582578
 30
0.0
  0
VERTEX
  5
3D2
  8
0
  6
CONTINUOUS
 62
     7
 10
146.2985086623
 20
105.7709087202
 30
0.0
  0
VERTEX
  5
3D3
  8
0
  6
CONTINUOUS
 62
     7
 10
146.2715960129
 20
105.9500718319
 30
0.0
  0
VERTEX
  5
3D4
  8
0
  6
CONTINUOUS
 62
     7
 10
146.1949552717
 20
106.1288716333
 30
0.0
  0
VERTEX
  5
3D5
  8
0
  6
CONTINUOUS
 62
     7
 10
146.0802542967
 20
106.2800874755
 30
0.0
  0
VERTEX
  5
3D6
  8
0
  6
CONTINUOUS
 62
     7
 10
145.9449552717
 20
106.3806981173
 30
0.0
  0
SEQEND
  5
3F7
  8
0
  6
CONTINUOUS
 62
     7
  0
LINE
  5
129
  8
0
  6
CONTINUOUS
 62
     7
 10
161.7203179852
 20
94.1593589637
 30
0.0
 11
156.0634637357
 21
91.3309318389
 31
0.0
  0
ARC
  5
12A
  8
0
  6
CONTINUOUS
 62
     7
 10
149.417618786
 20
89.1506748538
 30
0.0
 40
13.28319705865739
 50
22.1522581327
 51
46.0507849958
  0
LINE
  5
12B
  8
0
  6
CONTINUOUS
 62
     7
 10
161.1800291169
 20
92.8319796067
 30
0.0
 11
155.5231748675
 21
90.0035524819
 31
0.0
  0
ARC
  5
12C
  8
0
  6
CONTINUOUS
 62
     7
 10
146.3623182316
 20
99.6369432416
 30
0.0
 40
16.30558450204648
 50
335.3332706949
 51
340.3707154846
  0
LINE
  5
12D
  8
0
  6
CONTINUOUS
 62
     7
 10
137.1746699295
 20
136.4943395628
 30
0.0
 11
131.51781568
 21
133.665912438
 31
0.0
  0
ARC
  5
12E
  8
0
  6
CONTINUOUS
 62
     7
 10
126.1854243438
 20
127.9841042037
 30
0.0
 40
13.89919509932799
 50
21.1014096355
 51
37.7547336741
  0
LINE
  5
12F
  8
0
  6
CONTINUOUS
 62
     7
 10
135.8702972161
 20
136.484809899
 30
0.0
 11
130.2134429666
 21
133.6563827742
 31
0.0
  0
ARC
  5
130
  8
0
  6
CONTINUOUS
 62
     7
 10
136.6122057617
 20
124.2088502962
 30
0.0
 40
12.29835812043675
 50
87.3786689313
 51
93.4585147902
  0
LINE
  5
131
  8
0
  6
CONTINUOUS
 62
     7
 10
157.8135653571
 20
88.3446172912
 30
0.0
 11
152.1567111076
 21
85.5161901665
 31
0.0
  0
ARC
  5
132
  8
0
  6
CONTINUOUS
 62
     7
 10
145.3742777377
 20
86.6013836544
 30
0.0
 40
12.56084153189336
 50
7.9774407283
 51
19.7260990429
  0
LINE
  5
133
  8
0
  6
CONTINUOUS
 62
     7
 10
156.815241703
 20
87.6210873429
 30
0.0
 11
151.1583874535
 21
84.7926602182
 31
0.0
  0
ARC
  5
134
  8
0
  6
CONTINUOUS
 62
     7
 10
151.2289939284
 20
96.3794755176
 30
0.0
 40
10.38823987103968
 50
302.5304179705
 51
309.3346404271
  0
LINE
  5
135
  8
0
  6
CONTINUOUS
 62
     7
 10
130.8320281533
 20
134.8808852058
 30
0.0
 11
125.1751739038
 21
132.052458081
 31
0.0
  0
POLYLINE
  5
136
  8
0
  6
CONTINUOUS
 62
     7
 66
     1
 10
0.0
 20
0.0
 30
0.0
  0
VERTEX
  5
3D7
  8
0
  6
CONTINUOUS
 62
     7
 10
130.8320281533
 20
134.8808852058
 30
0.0
  0
VERTEX
  5
3D8
  8
0
  6
CONTINUOUS
 62
     7
 10
131.3286056923
 20
134.4976752319
 30
0.0
  0
VERTEX
  5
3D9
  8
0
  6
CONTINUOUS
 62
     7
 10
131.5388919385
 20
134.3191072602
 30
0.0
  0
SEQEND
  5
3F6
  8
0
  6
CONTINUOUS
 62
     7
  0
LINE
  5
137
  8
0
  6
CONTINUOUS
 62
     7
 10
150.4515236682
 20
85.3544381637
 30
0.0
 11
146.1201183907
 21
83.188735525
 31
0.0
  0
LINE
  5
138
  8
0
  6
CONTINUOUS
 62
     7
 10
124.7924055139
 20
128.8325753293
 30
0.0
 11
120.8103864898
 21
126.8415658173
 31
0.0
  0
LINE
  5
139
  8
0
  6
CONTINUOUS
 62
     7
 10
142.8378111718
 20
86.6854563189
 30
0.0
 11
138.8727021043
 21
84.7029017851
 31
0.0
  0
LINE
  5
13A
  8
0
  6
CONTINUOUS
 62
     7
 10
123.3539857596
 20
120.9595632594
 30
0.0
 11
119.087952755
 21
118.8265467571
 31
0.0
  0
POLYLINE
  5
13B
  8
0
  6
CONTINUOUS
 62
     8
 66
     1
 10
0.0
 20
0.0
 30
0.0
  0
VERTEX
  5
3DA
  8
0
  6
CONTINUOUS
 62
     8
 10
102.5121272822
 20
82.2513724334
 30
0.0
  0
VERTEX
  5
3DB
  8
0
  6
CONTINUOUS
 62
     8
 10
102.4715986336
 20
82.7597597277
 30
0.0
  0
VERTEX
  5
3DC
  8
0
  6
CONTINUOUS
 62
     8
 10
102.3516719355
 20
83.287862235
 30
0.0
  0
VERTEX
  5
3DD
  8
0
  6
CONTINUOUS
 62
     8
 10
102.157257001
 20
83.8140593766
 30
0.0
  0
VERTEX
  5
3DE
  8
0
  6
CONTINUOUS
 62
     8
 10
101.8963132003
 20
84.3168085798
 30
0.0
  0
VERTEX
  5
3DF
  8
0
  6
CONTINUOUS
 62
     8
 10
101.5795236033
 20
84.775527233
 30
0.0
  0
VERTEX
  5
3E0
  8
0
  6
CONTINUOUS
 62
     8
 10
101.2198576133
 20
85.1714353407
 30
0.0
  0
VERTEX
  5
3E1
  8
0
  6
CONTINUOUS
 62
     8
 10
100.8320399982
 20
85.4883243786
 30
0.0
  0
VERTEX
  5
3E2
  8
0
  6
CONTINUOUS
 62
     8
 10
100.4319480568
 20
85.713220872
 30
0.0
  0
VERTEX
  5
3E3
  8
0
  6
CONTINUOUS
 62
     8
 10
100.0359616001
 20
85.8369175322
 30
0.0
  0
VERTEX
  5
3E4
  8
0
  6
CONTINUOUS
 62
     8
 10
99.6602923602
 20
85.8543502033
 30
0.0
  0
VERTEX
  5
3E5
  8
0
  6
CONTINUOUS
 62
     8
 10
99.3203202799
 20
85.7648051898
 30
0.0
  0
VERTEX
  5
3E6
  8
0
  6
CONTINUOUS
 62
     8
 10
99.245635926
 20
85.7277187909
 30
0.0
  0
SEQEND
  5
3F5
  8
0
  6
CONTINUOUS
 62
     8
  0
POLYLINE
  5
13C
  8
0
  6
CONTINUOUS
 62
     8
 66
     1
 10
0.0
 20
0.0
 30
0.0
  0
VERTEX
  5
3E7
  8
0
  6
CONTINUOUS
 62
     8
 10
89.7842052208
 20
88.6153334641
 30
0.0
  0
VERTEX
  5
3E8
  8
0
  6
CONTINUOUS
 62
     8
 10
89.7436765723
 20
89.1237207584
 30
0.0
  0
VERTEX
  5
3E9
  8
0
  6
CONTINUOUS
 62
     8
 10
89.6237498741
 20
89.6518232657
 30
0.0
  0
VERTEX
  5
3EA
  8
0
  6
CONTINUOUS
 62
     8
 10
89.4293349396
 20
90.1780204073
 30
0.0
  0
VERTEX
  5
3EB
  8
0
  6
CONTINUOUS
 62
     8
 10
89.1683911389
 20
90.6807696105
 30
0.0
  0
VERTEX
  5
3EC
  8
0
  6
CONTINUOUS
 62
     8
 10
88.8516015419
 20
91.1394882637
 30
0.0
  0
VERTEX
  5
3ED
  8
0
  6
CONTINUOUS
 62
     8
 10
88.4919355519
 20
91.5353963714
 30
0.0
  0
VERTEX
  5
3EE
  8
0
  6
CONTINUOUS
 62
     8
 10
88.1041179369
 20
91.8522854092
 30
0.0
  0
VERTEX
  5
3EF
  8
0
  6
CONTINUOUS
 62
     8
 10
87.7040259954
 20
92.0771819027
 30
0.0
  0
VERTEX
  5
3F0
  8
0
  6
CONTINUOUS
 62
     8
 10
87.3080395387
 20
92.2008785629
 30
0.0
  0
VERTEX
  5
3F1
  8
0
  6
CONTINUOUS
 62
     8
 10
86.9323702988
 20
92.218311234
 30
0.0
  0
VERTEX
  5
3F2
  8
0
  6
CONTINUOUS
 62
     8
 10
86.5923982185
 20
92.1287662205
 30
0.0
  0
VERTEX
  5
3F3
  8
0
  6
CONTINUOUS
 62
     8
 10
86.5177138647
 20
92.0916798216
 30
0.0
  0
SEQEND
  5
3F4
  8
0
  6
CONTINUOUS
 62
     8
  0
LINE
  5
13D
  8
0
  6
CONTINUOUS
 62
     8
 10
141.0426940791
 20
124.1642578059
 30
0.0
 11
142.5278581603
 21
124.9068398465
 31
0.0
  0
LINE
  5
13E
  8
0
  6
CONTINUOUS
 62
     8
 10
142.6588519762
 20
125.1774847031
 30
0.0
 11
140.8777333518
 21
124.2869253909
 31
0.0
  0
LINE
  5
13F
  8
0
  6
CONTINUOUS
 62
     8
 10
156.8937911617
 20
97.9156062237
 30
0.0
 11
152.9287231324
 21
95.9330722091
 31
0.0
  0
LINE
  5
140
  8
0
  6
CONTINUOUS
 62
     8
 10
153.3499430839
 20
98.6339723803
 30
0.0
 11
152.2267232675
 21
98.0723624721
 31
0.0
  0
LINE
  5
141
  8
0
  6
CONTINUOUS
 62
     8
 10
152.1939105388
 20
97.8867340318
 30
0.0
 11
153.5107088137
 21
98.5451331692
 31
0.0
  0
LINE
  5
142
  8
0
  6
CONTINUOUS
 62
     8
 10
135.4558280055
 20
126.997878064
 30
0.0
 11
136.2872536532
 21
127.4135908879
 31
0.0
  0
LINE
  5
143
  8
0
  6
CONTINUOUS
 62
     8
 10
133.9956950648
 20
128.5877152685
 30
0.0
 11
136.4831685485
 21
129.8314520104
 31
0.0
  0
LINE
  5
144
  8
0
  6
CONTINUOUS
 62
     8
 10
136.3348528771
 20
127.5621640058
 30
0.0
 11
135.2908672782
 21
127.0401712064
 31
0.0
  0
LINE
  5
145
  8
0
  6
CONTINUOUS
 62
     8
 10
150.6418554368
 20
93.0506032792
 30
0.0
 11
150.1190371909
 21
92.7891941563
 31
0.0
  0
LINE
  5
146
  8
0
  6
CONTINUOUS
 62
     8
 10
152.3051013082
 20
91.8112467432
 30
0.0
 11
150.2088318124
 21
90.7631119953
 31
0.0
  0
LINE
  5
147
  8
0
  6
CONTINUOUS
 62
     8
 10
150.025594445
 20
92.6646386921
 30
0.0
 11
150.7730636783
 21
93.0383733087
 31
0.0
  0
LINE
  5
148
  8
0
  6
CONTINUOUS
 62
     8
 10
130.2816799015
 20
127.0035744031
 30
0.0
 11
130.4593510884
 21
127.0924099966
 31
0.0
  0
LINE
  5
149
  8
0
  6
CONTINUOUS
 62
     8
 10
128.6640492451
 20
127.9223652335
 30
0.0
 11
130.5783591462
 21
128.879520184
 31
0.0
  0
LINE
  5
14A
  8
0
  6
CONTINUOUS
 62
     8
 10
130.531926787
 20
127.154101274
 30
0.0
 11
130.1418329496
 21
126.9590543553
 31
0.0
  0
LINE
  5
14B
  8
0
  6
CONTINUOUS
 62
     8
 10
147.4964658485
 20
89.2020517674
 30
0.0
 11
145.6556473687
 21
88.2816425275
 31
0.0
  0
LINE
  5
14C
  8
0
  6
CONTINUOUS
 62
     8
 10
124.7791081437
 20
124.2883464883
 30
0.0
 11
126.4808796735
 21
125.1392322533
 31
0.0
  0
LINE
  5
14D
  8
0
  6
CONTINUOUS
 62
     8
 10
141.4513323488
 20
89.6109357828
 30
0.0
 11
139.9623508582
 21
88.8664450375
 31
0.0
  0
LINE
  5
14E
  8
0
  6
CONTINUOUS
 62
     8
 10
122.9323188261
 20
118.2389054446
 30
0.0
 11
124.1169352697
 21
118.8312136664
 31
0.0
  0
LINE
  5
14F
  8
0
  6
CONTINUOUS
 62
     8
 10
134.9112649946
 20
92.8862736094
 30
0.0
 11
133.9956950648
 21
92.4284886445
 31
0.0
  0
LINE
  5
150
  8
0
  6
CONTINUOUS
 62
     8
 10
123.4048382249
 20
110.6950146628
 30
0.0
 11
124.0029964062
 21
110.9940937535
 31
0.0
  0
LINE
  5
151
  8
0
  6
CONTINUOUS
 62
     8
 10
128.9379793825
 20
98.562449568
 30
0.0
 11
128.6640492451
 21
98.4254844993
 31
0.0
  0
TEXT
  5
152
  8
0
  6
CONTINUOUS
 62
     7
 10
0.0
 20
6.9220560595
 30
0.0
 40
3.73507
  1
Edition tudiante de SolidWorks.
 41
0.6671875
 11
0.0
 21
5.602605
 31
0.0
 73
     1
  0
TEXT
  5
153
  8
0
  6
CONTINUOUS
 62
     7
 10
0.0
 20
1.3194510595
 30
0.0
 40
3.73507
  1
A usage universitaire uniquement.
 41
0.6681818182
 11
0.0
 21
0.0
 31
0.0
 73
     1
  0
ENDSEC
  0
EOF
